<svg id="Layer_1" data-name="Layer 1" xmlns="http://www.w3.org/2000/svg" viewBox="0 0 600 600"><defs><style>.cls-1{fill:#00aeef;}.cls-2{fill:#fff;}.cls-3{fill:#8dc63f;}.cls-4{fill:#009444;}.cls-5{fill:#231f20;}</style></defs><title>doodle</title><path class="cls-1" d="M496.68,115.8a131.46,131.46,0,0,1-10.21,10c-.34.29-1.35,1.06-2.55,2,0,.18.06.34.06.53q.79,23.22,2.35,46.4c1.46-8.5,3.62-17,5.27-24.73A348.94,348.94,0,0,1,503,108.68C500.92,111.1,498.85,113.49,496.68,115.8Z"/><path class="cls-1" d="M525.92,259.82q-3,14.91-6.11,29.77c-.69,3.31-1.28,6.73-2,10.14l21.09-25.66.46-.54c1.94-9.43,4.49-18.83,6.35-28.15,1.52-7.6,2.78-15.29,4.22-22.94q-.88-9.45-1.66-18.92-2-24.92-3.16-49.89c-2.62,16.14-5.54,32.23-8.35,48.2Q531.68,230.89,525.92,259.82Z"/><path class="cls-1" d="M346.57,339.26c9.71,40.27,11.79,84.77,10.18,126-1,26.11-7.72,53.36-33.69,64.73-7.58,3.32-17.75,6-20.07,15.14-2.24,8.81,3.95,17.07,11.52,20.61,16.33,7.64,35.13-1.41,46.73-13.31,13-13.33,19.91-31.46,25.38-48.92a281.67,281.67,0,0,0,11.45-55.4c3.79-37.18-.32-73.6-9.95-109.55Q367.35,338.94,346.57,339.26Z"/><path class="cls-1" d="M550.85,259c2.94-5.35,1.71-11.32,1.07-17.09l-.27,1.44c-1.2,6.46-2.27,13.17-3.54,19.85A38.21,38.21,0,0,0,550.85,259Z"/><path class="cls-1" d="M536.4,69.88c-4.81,35.17-14.3,70-21.4,104.75q-5.25,25.73-10.14,51.51c-2.88,15.17-4.76,31-8.59,46.09q3.08,22.42,6.88,44.77c2.29-2.89,4.76-5.66,7.18-8.4.71-7.44,3.11-15,4.64-22.19q3-14,5.81-28,5.65-28,10.69-56.19c4.65-26,8.26-52.18,12.54-78.25q-.5-17.49-.59-35c0-9.11-.58-18.53-.09-27.76-2.42,2.55-5.13,5-7.66,7.42A1.12,1.12,0,0,1,536.4,69.88Z"/><path class="cls-2" d="M411.79,223a5.75,5.75,0,0,0-.63,2.32,6.06,6.06,0,0,0,1.93,4,17.51,17.51,0,0,0,2.59.34,5.85,5.85,0,0,1,2.66,1c1.29-1.17,1.45-3.85.37-6A4.55,4.55,0,0,0,411.79,223Z"/><path class="cls-2" d="M123.61,234.5c-2.59-.19-4.78,5.11-6.62,8.23,1.47,3.65,5.53,7.14,8.57,3.06C127.09,243.75,127.51,234.79,123.61,234.5Z"/><path class="cls-3" d="M141.68,133.15c36.54-1.09,73-3.1,109.59-4.12,35.91-1,71.7-.09,107.59.81q27.21.69,54.41.62c18.62-.05,37.53-1.5,56.13-.69.45-3.6,4.73-7.54,7.28-9.77A188.9,188.9,0,0,0,500,94.85c7.17-9.06,14-18.42,21.3-27.33,3.2-3.88,6.81-8.77,10.89-12.94-13.89,0-27.78-1.1-41.73,0-16.65,1.28-33.16,3.83-49.71,6-59.3,7.63-119.13,7.09-178.8,6.74-58.46-.35-116.23,1.18-174.33,7.58C81,86.28,72.13,97,64.1,107.3Q57,116.47,49.47,125.37c-1.89,2.23-3.76,4.65-5.77,6.92C76.38,133.36,108.94,134.12,141.68,133.15Z"/><path class="cls-1" d="M220.08,542.92c-10.78,4.66-43.2-.88-36.12,19.28,7.21,20.53,36.93,8.6,49,.3,31.67-21.71,41.78-61.82,44.79-97.9,3.45-41.41,2.39-83.05,2.06-124.55q-19.25.15-38.48.22c4.22,19.94,7.41,40.16,10.87,60.23,3.38,19.6,6.39,39.49,6.22,59.43C258.24,488.63,249.69,530.1,220.08,542.92Z"/><path class="cls-4" d="M472.36,141.39a5.82,5.82,0,0,1-.87.18c-19.12,2.23-39,1.39-58.22,1.42q-27.21,0-54.41-.69c-36.5-1-72.87-1.84-109.39-.9-70.11,1.82-142,9.17-212,.74,20.87,60.18,35.81,123,50.47,185,134.73,2.84,269.48.47,404.18-3.11A1429.45,1429.45,0,0,1,472.36,141.39Zm-338.2,112c-8.49,10-24.45,4.6-27.71-7.28-3.54-12.88,5.62-22.89,17-26.72,3-1,4.77,1.79,4.32,4.21.36.14.72.28,1.08.45C139.12,228.86,141.23,245.09,134.16,253.39Zm47,59.95a.09.09,0,0,1,0-.18A.09.09,0,0,1,181.14,313.34ZM282,287.7c-27,1.39-36.92-38.48-36.54-58.87.1-5.13,7.38-4.94,7.83,0a83.76,83.76,0,0,0,8.4,29.38c3.81,7.6,9.86,18.55,19.56,18.27,10.29-.29,16.19-11.87,17-20.73.79-8.63-1.76-17-1.86-25.57-.07-5.86,7.52-6,9.43-1.28C314.06,249.13,310.23,286.25,282,287.7Zm144.44-48.52c-4.74,4.68-11.58,4.41-17,1.34a16,16,0,0,1-8.66-6.61,14.67,14.67,0,0,1,.79-17.3c8.33-10.52,24.72-7.12,28.67,5.52C432.1,228,430.87,234.8,426.43,239.18Z"/><path class="cls-1" d="M514.13,94.8q-2.91,3.75-5.88,7.46c-4.16,15.68-8.18,31.41-11.56,47.28-3.26,15.32-3.66,32.75-8.67,47.61q2.39,28.86,6,57.62c1.62-8.87,3.59-17.71,5.23-26.43q5-26.68,10.46-53.3c7.11-34.88,13.14-71,24.37-104.83-1,1-2,2.07-2.9,3.11C525.23,80.27,519.72,87.57,514.13,94.8Z"/><path class="cls-5" d="M227.87,521.58c-7,8.56-15.12,11.82-26,12.45-8.09.48-16.35.81-23,6.06-11.13,8.82-9.5,26.15-.26,35.8,12,12.49,31.68,10.5,46.24,4.42,34.71-14.52,53.85-50.46,60.85-85.75,4.76-24.05,5.43-48.75,6.12-73.18.75-27.09,1.15-54.34-.08-81.43q22.53-.21,45.05-.55c4.47,43.56,11.13,86.87,7.92,130.85-1.15,15.8-4.61,35-18.57,44.74-12.46,8.7-30.3,9.68-34.64,27-3.64,14.51,5.27,28.74,18.32,34.65,15.11,6.84,32.87,3.31,46.52-5.23,32.09-20.08,43.73-63.73,50.17-98.63,8.15-44.19,6.76-91.23-6.12-134.46q49.39-1,98.79-2.33a5.91,5.91,0,0,0,5.83-4.89c7.73-6.47,13.79-16,20.08-23.48L540.1,289.7a2.37,2.37,0,0,0,1.41-1.33c.07-.21.13-.42.21-.62q4.17-5,8.36-10c6-7.15,12.87-14.08,13.8-23.8,1.22-12.73-2-26.82-3.09-39.54q-3.31-39.9-4.69-79.93-.69-20-.85-40c-.12-13.75,1.39-28.23-.31-41.86a6.52,6.52,0,0,0-7-5.29,4.39,4.39,0,0,0-.81-.54,4.84,4.84,0,0,0-3.69-3.24c-27.39-6.52-58.91-1.15-86.4,2.56-30.62,4.12-61.2,7.12-92.08,8.33-60.36,2.37-120.78-.06-181.15,1.68-31.9.92-64.17,2.59-95.71,7.88a4.43,4.43,0,0,0-6.58.55l-.62.79a4.43,4.43,0,0,0-2.6,3.28C70.34,79,63.4,90.24,55.47,100.64c-5.09,6.69-10.38,13.2-15.72,19.68-3.11,3.77-6.6,7.3-8.86,11.54h-.34c-3.71-.12-5.46,4.29-4.2,7.08a5.08,5.08,0,0,0,.15,1.7c16.38,64.8,35.78,128.72,51.09,193.84a6,6,0,0,0,5.67,4.31q73.86,1.73,147.74,1.51c5.53,40.71,16.83,81.4,15.28,122.66C245.52,483.24,241.08,505.46,227.87,521.58Zm170.2-73.5a281.67,281.67,0,0,1-11.45,55.4c-5.47,17.46-12.37,35.59-25.38,48.92-11.6,11.9-30.4,21-46.73,13.31-7.57-3.54-13.76-11.8-11.52-20.61,2.32-9.12,12.49-11.82,20.07-15.14,26-11.37,32.67-38.62,33.69-64.73,1.61-41.2-.47-85.7-10.18-126q20.78-.31,41.55-.73C397.75,374.48,401.86,410.9,398.07,448.08ZM551.92,241.89c.64,5.77,1.87,11.74-1.07,17.09a38.21,38.21,0,0,1-2.74,4.2c1.27-6.68,2.34-13.39,3.54-19.85Zm-3.61-38.37q.78,9.47,1.66,18.92c-1.44,7.65-2.7,15.34-4.22,22.94-1.86,9.32-4.41,18.72-6.35,28.15l-.46.54-21.09,25.66c.68-3.41,1.27-6.83,2-10.14q3.15-14.86,6.11-29.77,5.77-28.93,10.88-58c2.81-16,5.73-32.06,8.35-48.2Q546.32,178.61,548.31,203.52Zm-5-142.3c-.49,9.23,0,18.65.09,27.76q.09,17.49.59,35c-4.28,26.07-7.89,52.28-12.54,78.25q-5,28.15-10.69,56.19-2.82,14-5.81,28c-1.53,7.19-3.93,14.75-4.64,22.19-2.42,2.74-4.89,5.51-7.18,8.4q-3.81-22.33-6.88-44.77c3.83-15.06,5.71-30.92,8.59-46.09q4.89-25.78,10.14-51.51c7.1-34.78,16.59-69.58,21.4-104.75a1.12,1.12,0,0,0-.73-1.24C538.2,66.21,540.91,63.77,543.33,61.22ZM509.69,175q-5.42,26.61-10.46,53.3c-1.64,8.72-3.61,17.56-5.23,26.43q-3.58-28.74-6-57.62c5-14.86,5.41-32.29,8.67-47.61,3.38-15.87,7.4-31.6,11.56-47.28q3-3.7,5.88-7.46c5.59-7.23,11.1-14.53,17-21.48.89-1,1.87-2.07,2.9-3.11C522.83,104.05,516.8,140.16,509.69,175Zm-23.36-.39q-1.54-23.18-2.35-46.4c0-.19-.05-.35-.06-.53,1.2-.9,2.21-1.67,2.55-2a131.46,131.46,0,0,0,10.21-10c2.17-2.31,4.24-4.7,6.29-7.12a348.94,348.94,0,0,0-11.37,41.24C490,157.69,487.79,166.15,486.33,174.65ZM49.47,125.37Q57,116.49,64.1,107.3c8-10.33,16.89-21,23.52-32.46,58.1-6.4,115.87-7.93,174.33-7.58,59.67.35,119.5.89,178.8-6.74,16.55-2.13,33.06-4.68,49.71-6,14-1.08,27.84,0,41.73,0-4.08,4.17-7.69,9.06-10.89,12.94C514,76.43,507.17,85.79,500,94.85A188.9,188.9,0,0,1,476.68,120c-2.55,2.23-6.83,6.17-7.28,9.77-18.6-.81-37.51.64-56.13.69q-27.21.07-54.41-.62c-35.89-.9-71.68-1.82-107.59-.81-36.54,1-73.05,3-109.59,4.12-32.74,1-65.3.21-98-.86C45.71,130,47.58,127.6,49.47,125.37ZM87.93,327.12c-14.66-61.94-29.6-124.8-50.47-185,70,8.43,141.9,1.08,212-.74,36.52-.94,72.89-.06,109.39.9q27.21.72,54.41.69c19.23,0,39.1.81,58.22-1.42a5.82,5.82,0,0,0,.87-.18A1429.45,1429.45,0,0,0,492.11,324C357.41,327.59,222.66,330,87.93,327.12ZM252.25,400.5c-3.46-20.07-6.65-40.29-10.87-60.23q19.25-.06,38.48-.22c.33,41.5,1.39,83.14-2.06,124.55-3,36.08-13.12,76.19-44.79,97.9-12.12,8.3-41.84,20.23-49-.3-7.08-20.16,25.34-14.62,36.12-19.28,29.61-12.82,38.16-54.29,38.39-83C258.64,440,255.63,420.1,252.25,400.5Z"/><path class="cls-5" d="M296.38,230.18c.1,8.57,2.65,16.94,1.86,25.57-.81,8.86-6.71,20.44-17,20.73-9.7.28-15.75-10.67-19.56-18.27a83.76,83.76,0,0,1-8.4-29.38c-.45-4.94-7.73-5.13-7.83,0-.38,20.39,9.52,60.26,36.54,58.87,28.24-1.45,32.07-38.57,23.82-58.8C303.9,224.22,296.31,224.32,296.38,230.18Z"/><path class="cls-5" d="M401.6,216.61a14.67,14.67,0,0,0-.79,17.3,16,16,0,0,0,8.66,6.61c5.38,3.07,12.22,3.34,17-1.34,4.44-4.38,5.67-11.2,3.84-17.05C426.32,209.49,409.93,206.09,401.6,216.61Zm16.74,14a5.85,5.85,0,0,0-2.66-1,17.51,17.51,0,0,1-2.59-.34,6.06,6.06,0,0,1-1.93-4,5.75,5.75,0,0,1,.63-2.32,4.55,4.55,0,0,1,6.92,1.69C419.79,226.76,419.63,229.44,418.34,230.61Z"/><path class="cls-5" d="M128.84,224.05c-.36-.17-.72-.31-1.08-.45.45-2.42-1.37-5.2-4.32-4.21-11.37,3.83-20.53,13.84-17,26.72,3.26,11.88,19.22,17.24,27.71,7.28C141.23,245.09,139.12,228.86,128.84,224.05Zm-3.28,21.74c-3,4.08-7.1.59-8.57-3.06,1.84-3.12,4-8.42,6.62-8.23C127.51,234.79,127.09,243.75,125.56,245.79Z"/><path class="cls-5" d="M181.14,313.34a.09.09,0,0,0,0-.18A.09.09,0,0,0,181.14,313.34Z"/></svg>