<svg id="Layer_1" data-name="Layer 1" xmlns="http://www.w3.org/2000/svg" viewBox="0 0 600 600"><defs><style>.cls-1{fill:#2e3192;}.cls-2{fill:#00aeef;}.cls-3{fill:#fff;}.cls-4{fill:#231f20;}</style></defs><title>doodle</title><path class="cls-1" d="M287.14,533.81c24.32,4.89,49.44,8,74.12,3.87,20.83-3.51,40.75-10.9,59.44-20.61s36.11-21.2,52.95-33.61c13.17-9.7,26.59-19.88,35.76-33.41-20.17.83-50.56-2.22-60.79-22.79A7.5,7.5,0,0,1,457,416.39c8.3,1.86,14.71,8.08,22.63,11.11,9.7,3.71,20.36,3.77,30.59,3.38,5-.19,28.64.47,28.53-7.22,0-3.15-16.69-5.51-19.21-6.25-28.88-8.51-59-22.12-71.76-51.07-1.77-4,2.91-8.39,6.39-4.93,16.79,16.68,37.64,28.06,60.05,35.21,5.59,1.79,13.1,2.95,20.31,4.84,8.6-14.61,16.8-29.08,22.41-45.27a139.22,139.22,0,0,0,6.24-23.91c1.48-9.49,0-18.1-.13-27.48-.17-.39-.3-.72-.43-1.05l-2.4,1.15a106.2,106.2,0,0,0-9.47,5.76c-6.72,4.46-13.08,9.48-20.28,13.18-8.47,4.35-17.73,6.83-26.7,5.39-.78,5-1.8,10-3.1,15.06-3.54,13.57-23.08,7.66-20.69-5.7,16.53-92.46-48.27-172.6-134.34-198.48-71.55-21.52-159.3-13-216.06,39.36-62,57.12-68.36,160-32.44,233S211.59,518.61,287.14,533.81ZM389.89,409.37a9.4,9.4,0,0,1-7.11,1,26.73,26.73,0,0,1-2.7-1.14,10.08,10.08,0,0,1,0-17.4,10.06,10.06,0,1,1,9.81,17.56Zm3.66-181.69c3.22,2.18,6.68,3.58,9.84,6a88.25,88.25,0,0,1,7.7,6.48c4.79,4.52,11.62,10.49,11.51,17.54a6.71,6.71,0,0,1-6.61,6.61c-7.06,0-12.93-6.78-17.42-11.63a92.15,92.15,0,0,1-7-8.54c-2.13-2.95-3.34-6.16-5.31-9.14C383.39,230.6,389.18,224.72,393.55,227.68Zm-30,74.5a17.72,17.72,0,0,1,10.55-2.65,13.89,13.89,0,0,1,3.24-1.09c23.35-4.43,35,25.44,20.52,41.45s-40.36,8.51-44.79-12.27C351,317.85,354.93,307.44,363.59,302.18ZM142.16,416.58c-12.57,0-12.55-19.51,0-19.51S154.71,416.58,142.16,416.58Zm54.91-41.8a163.06,163.06,0,0,0,26.8-27.52c4.38-5.65,8.28-11.63,15.21-11.65a8.11,8.11,0,0,1,6.48-.09c12.3,5.35,20.77,19.64,25.26,31.75,4.06,11,8.87,28.7-.22,38.09a6.29,6.29,0,0,1-3.7,1.86,6.14,6.14,0,0,1-1.41.54c-10.34,2.43-20.56-2.08-30.47-5.18-11.49-3.6-22.76-7.8-33.89-12.42C195.52,387.83,191,379.66,197.07,374.78ZM116.5,244.55a30.26,30.26,0,0,1,10.35-14.81c5.76-4.48,11.63-8.06,18.69-3.77a6.75,6.75,0,0,1,3,7.41,12.58,12.58,0,0,1-4.33,7.53c-2,1.48-4.48,2.3-6.65,3.49-4.3,2.37-8.56,4.39-13,6.36C120.63,252.53,114.75,249.56,116.5,244.55Zm19.68,63.83c16.33,1.43,23.8,20.85,14.13,33.53-7.46,9.77-22.06,11.75-31.51,4.54A6.25,6.25,0,0,1,115,345c-2.89-1.37-4.44-4.79-4.75-7.79C108.76,322.09,120.16,307,136.18,308.38Z"/><path class="cls-2" d="M69.6,468.85c10-4.83,19.25-10.65,28.89-15.94A208.22,208.22,0,0,1,78,418.61c-3.27,8.15-7.56,16-10.77,22.05a187.63,187.63,0,0,1-26.12,37.8C50.59,479.52,61.74,472.67,69.6,468.85Z"/><path class="cls-3" d="M136.16,330.55c1.08-2.66-.77-3.85-3-2.66a8.85,8.85,0,0,0-3.8,4.56C131.59,333.78,135.08,333.2,136.16,330.55Z"/><path class="cls-2" d="M317.73,110.85c1.27-16.59,11.81-32.12,22-46.31-24.37,3.09-48.87,9.31-65.27,28.75-3.67,4.35-12.77,2.35-13.59-3.59q-1.55-11.13-3.13-22.27a60.36,60.36,0,0,0-12.18,15.81c-3,5.53-11,5.1-14.15,0a430.46,430.46,0,0,0-32-45.2,84.31,84.31,0,0,0,11,52.56c3.82,6.62-2.47,13.08-9.21,12A91.26,91.26,0,0,0,164.59,104c9.52,4.65,19,10,27,16.55C231.71,107,275.68,104.06,317.73,110.85Z"/><path class="cls-2" d="M256.09,389.27c-.46-5.31-.66-10.76-2.3-15.49-2.75-8-7.48-14.11-12.18-20.5-2.19,3.2-4.85,6.21-7.05,9.09a153.39,153.39,0,0,1-14,15.79c6.38,2.39,12.81,4.64,19.32,6.68C245.26,386.51,250.83,387.58,256.09,389.27Z"/><path class="cls-3" d="M384.33,320.52c-2-4.2-6.8-1.87-11.34-1.14-.92,2.29-1,4.72.32,6.66C377.3,331.83,387.38,327,384.33,320.52Z"/><path class="cls-4" d="M201.13,390.16c11.13,4.62,22.4,8.82,33.89,12.42,9.91,3.1,20.13,7.61,30.47,5.18a6.14,6.14,0,0,0,1.41-.54,6.29,6.29,0,0,0,3.7-1.86c9.09-9.39,4.28-27.1.22-38.09-4.49-12.11-13-26.4-25.26-31.75a8.11,8.11,0,0,0-6.48.09c-6.93,0-10.83,6-15.21,11.65a163.06,163.06,0,0,1-26.8,27.52C191,379.66,195.52,387.83,201.13,390.16Zm33.43-27.79c2.2-2.88,4.86-5.89,7.05-9.09,4.7,6.39,9.43,12.53,12.18,20.5,1.64,4.73,1.84,10.18,2.3,15.49-5.26-1.69-10.83-2.76-16.17-4.43-6.51-2-12.94-4.29-19.32-6.68A153.39,153.39,0,0,0,234.56,362.37Z"/><path class="cls-4" d="M115,345a6.25,6.25,0,0,0,3.76,1.49c9.45,7.21,24,5.23,31.51-4.54,9.67-12.68,2.2-32.1-14.13-33.53-16-1.4-27.42,13.71-25.89,28.79C110.6,340.17,112.15,343.59,115,345Zm18.07-17.07c2.28-1.19,4.13,0,3,2.66s-4.57,3.23-6.85,1.9A8.85,8.85,0,0,1,133.11,327.89Z"/><path class="cls-4" d="M397.9,339.89c14.47-16,2.83-45.88-20.52-41.45a13.89,13.89,0,0,0-3.24,1.09,17.72,17.72,0,0,0-10.55,2.65c-8.66,5.26-12.56,15.67-10.48,25.44C357.54,348.4,383.49,355.82,397.9,339.89ZM373,319.38c4.54-.73,9.37-3.06,11.34,1.14,3.05,6.51-7,11.31-11,5.52C372,324.1,372.07,321.67,373,319.38Z"/><path class="cls-4" d="M391.59,244.1a92.15,92.15,0,0,0,7,8.54c4.49,4.85,10.36,11.67,17.42,11.63a6.71,6.71,0,0,0,6.61-6.61c.11-7.05-6.72-13-11.51-17.54a88.25,88.25,0,0,0-7.7-6.48c-3.16-2.38-6.62-3.78-9.84-6-4.37-3-10.16,2.92-7.27,7.28C388.25,237.94,389.46,241.15,391.59,244.1Z"/><path class="cls-4" d="M124.58,250.76c4.43-2,8.69-4,13-6.36,2.17-1.19,4.68-2,6.65-3.49a12.58,12.58,0,0,0,4.33-7.53,6.75,6.75,0,0,0-3-7.41c-7.06-4.29-12.93-.71-18.69,3.77a30.26,30.26,0,0,0-10.35,14.81C114.75,249.56,120.63,252.53,124.58,250.76Z"/><path class="cls-4" d="M142.16,397.07c-12.55,0-12.57,19.51,0,19.51S154.73,397.07,142.16,397.07Z"/><path class="cls-4" d="M380.08,391.81a10.08,10.08,0,0,0,0,17.4,26.73,26.73,0,0,0,2.7,1.14,9.4,9.4,0,0,0,7.11-1,10.06,10.06,0,1,0-9.81-17.56Z"/><path class="cls-4" d="M63.08,491.4c15.74-6.21,33.61-13.38,47.13-24.06a207.68,207.68,0,0,0,27.73,26c34.41,26.77,75.62,43.76,117.57,54.72,27.06,7.08,55.4,12.83,83.48,12.3,26.34-.5,51.66-7.38,75.59-18.11,25-11.23,47.78-26.74,69.43-43.45,17.6-13.59,37.33-27.92,43.24-50.19,15.12-2.16,30.21-7.93,30.37-25.46a17.37,17.37,0,0,0-5.74-13.64C572.47,379.34,587.67,337.86,581,302c-3.53-18.94-16.12-20.58-31.47-11.7-15.19,8.8-27.27,21.16-44.2,24.41,4.67-77-48.62-150.07-117.5-182.37a261,261,0,0,0-53.28-18.19c1.66-19.87,19.38-39.5,29.83-55.54,3.28-5-1-13.22-7.24-12.61-28.61,2.74-59.74,6.76-82.64,24.75q-1.41-10-2.81-19.93c-.74-5.34-7.89-7.2-11.93-4.86a74,74,0,0,0-21.22,18.23,516.59,516.59,0,0,0-37.77-50c-4.24-5-12-1.82-13.72,3.62a97,97,0,0,0,2.64,68,109.78,109.78,0,0,0-48.25,11c-4.65,2.21-5,10.55,0,12.66,11.63,5,22.48,11.45,33.51,17.52a217.69,217.69,0,0,0-35.71,19.34C62,198.12,40.76,298.89,65.29,385c.93,3.26,1.95,6.47,3,9.66-2.16,4.06-3.62,8.61-5.32,12.83a224.45,224.45,0,0,1-11.15,24.21c-8.71,15.91-19.65,29.61-31.84,43-3.1,3.39-3.75,9.3,0,12.61C32.61,498.38,48.13,497.29,63.08,491.4ZM164.59,104a91.26,91.26,0,0,1,36.64-1.45c6.74,1.11,13-5.35,9.21-12a84.31,84.31,0,0,1-11-52.56,430.46,430.46,0,0,1,32,45.2c3.13,5.1,11.13,5.53,14.15,0a60.36,60.36,0,0,1,12.18-15.81q1.57,11.13,3.13,22.27c.82,5.94,9.92,7.94,13.59,3.59,16.4-19.44,40.9-25.66,65.27-28.75-10.18,14.19-20.72,29.72-22,46.31-42.05-6.79-86-3.87-126.09,9.72C183.59,114,174.11,108.67,164.59,104Zm-35,75.45c56.76-52.31,144.51-60.88,216.06-39.36C431.68,166,496.48,246.13,480,338.59c-2.39,13.36,17.15,19.27,20.69,5.7,1.3-5,2.32-10.05,3.1-15.06,9,1.44,18.23-1,26.7-5.39,7.2-3.7,13.56-8.72,20.28-13.18a106.2,106.2,0,0,1,9.47-5.76l2.4-1.15c.13.33.26.66.43,1.05.13,9.38,1.61,18,.13,27.48a139.22,139.22,0,0,1-6.24,23.91c-5.61,16.19-13.81,30.66-22.41,45.27-7.21-1.89-14.72-3-20.31-4.84-22.41-7.15-43.26-18.53-60.05-35.21-3.48-3.46-8.16.9-6.39,4.93,12.78,29,42.88,42.56,71.76,51.07,2.52.74,19.17,3.1,19.21,6.25.11,7.69-23.53,7-28.53,7.22-10.23.39-20.89.33-30.59-3.38-7.92-3-14.33-9.25-22.63-11.11a7.5,7.5,0,0,0-8.35,10.87c10.23,20.57,40.62,23.62,60.79,22.79-9.17,13.53-22.59,23.71-35.76,33.41-16.84,12.41-34.37,24-52.95,33.61s-38.61,17.1-59.44,20.61c-24.68,4.16-49.8,1-74.12-3.87-75.55-15.2-154.17-48.5-190-121.35S67.58,236.59,129.55,179.47ZM67.22,440.66c3.21-6.09,7.5-13.9,10.77-22.05a208.22,208.22,0,0,0,20.5,34.3C88.85,458.2,79.56,464,69.6,468.85c-7.86,3.82-19,10.67-28.5,9.61A187.63,187.63,0,0,0,67.22,440.66Z"/></svg>