<svg id="Layer_1" data-name="Layer 1" xmlns="http://www.w3.org/2000/svg" viewBox="0 0 600 600"><defs><style>.cls-1{fill:#8dc63f;}.cls-2{fill:#fff;}.cls-3{fill:#231f20;}</style></defs><title>doodle</title><path class="cls-1" d="M408.23,331.32c13.79-7.66,28.61-4.09,43.44-2.58,3.45.35,8.65,1.77,10.54-1.69,1.66-3,1.84-8.54,2.49-12q2.54-13.59,4-27.37c3.63-35.1,2.27-70.67-2.69-105.57-4.3-30.26-10.4-61.18-20.33-90.14a108.18,108.18,0,0,0-51-60.57C343.37,3.19,274,15.05,228.31,49.19,178.56,86.34,166.87,151.67,166.12,210a572.73,572.73,0,0,0,7.07,97.79c1.86,11.65,3.47,35.57,19,36.5,15.29.92,30.8.39,46.14.66,2.26-1.31,6-.22,6.16,3.25q2.84,63.72,5.23,127.47c.6,15.75,1.08,31.81-2.68,47.25-3,12.12-9.23,28.86-23.05,31.73-7.5,1.57-19.5-2-19.85,9.35-.23,7.84,7.81,12.76,14.65,14,15.22,2.75,36.35-3.86,46.47-15.72,10.32-12.09,10.35-29.42,10.14-44.44-.25-18.42-.68-36.83-1-55.24q-1.11-57.19-2.4-114.37a4.68,4.68,0,0,1,4.6-4.6c31-.78,62-1.77,93-2.68a4.69,4.69,0,0,1,4.61,4.62q3.73,66,7.41,132.09c.57,10.08,1.17,20.16,1.7,30.25.4,7.66.64,15.68-1.89,23.05-2.15,6.29-6.19,12.08-12,15.42s-12.39,3.11-18.85,2.89c-4.09-.14-9.06-.79-12.71,1.58-4.39,2.85-5.27,9.17-4.51,13.92a21.86,21.86,0,0,0,10.91,15.38c9.24,5,20.19.68,29-3.18,6.94-3.05,14-6.37,19.54-11.61,13.39-12.6,15.72-32.36,15.83-49.72.14-19.82-.77-39.7-1.22-59.51l-2.67-118.43a4.17,4.17,0,0,1,1.42-3.42A4,4,0,0,1,408.23,331.32Zm-228.39-44.9c-2.45-10.87-2.16-22.3-2.53-33.39s-1.5-22.4.05-33.29c.08-.5.87-.46,1,0,2.5,10.76,2.31,22.3,2.88,33.29s1.79,22.37.3,33.39C181.4,287.28,180,287.21,179.84,286.42Zm7.69,23.1c-.06,1.18-1.89,1.94-2.45.66-2.51-5.73-3.34-13.26-3.29-19.49a.92.92,0,0,1,1.8-.25C185.84,296.13,187.81,303.35,187.53,309.52Zm9.58-131.75a12,12,0,0,1-.24-2.36,3.19,3.19,0,0,1-1.37-3c.57-7.74,10-11.35,16.42-7.76,6.58,3.68,7.45,13.31,2.7,18.76C208.63,190.29,198.82,186,197.11,177.77Zm84.62,113.48c-6.49,12.83-23.46,20.11-36.55,24-10.93,3.29-28.35,3.06-33.2-9.66-1-2.69,2.59-5.31,4.89-3.76,5.7,3.86,10.15,7.15,17.41,6.87s13.91-3.3,20.28-6.26c6.62-3.08,14.16-6.51,18.42-12.74,2.43-3.55,4.51-8.06,1.19-11.4-2.87-2.89-5.72-1.51-9.53-1.06-12.82,1.55-26.74,1.08-37.59-6.76-6.27-4.53-15.09-14.4-9.11-22.09,1.81-2.33,5.22.25,4.63,2.7-1.91,7.92,11.58,15.23,17.36,17,9.71,3,19.45,1.43,29.28.33C283.39,266.84,287.46,279.92,281.73,291.25ZM323.93,187A17.09,17.09,0,0,1,309.3,194c-11.67-.47-19-12.6-13.45-22.91,1.51-2.8,5.82-.84,5,2.12-1.75,6.59,2.75,13.67,10,12.88,8.2-.89,8.05-8.23,9-14.46.46-2.92,4.43-2.76,5.78-.76C328.9,175.68,327.07,182.58,323.93,187Zm119.3-58.78c4.53,6.13,6.56,14.24,6.92,21.75a1,1,0,0,1-2,.26c-2.13-7-4.61-14.36-5.88-21.62A.51.51,0,0,1,443.23,128.19ZM403.14,53.11a95.07,95.07,0,0,1,25.39,27.43c6,10,13,23.45,12.41,35.4,0,1-1.49,1.54-2,.53-2.38-5.22-3.48-10.92-5.4-16.32a104,104,0,0,0-7.79-16.79A123.8,123.8,0,0,0,402.43,54C401.94,53.59,402.6,52.71,403.14,53.11Zm-1.76,105.64c.85-7.15,9-13.57,15.94-9.82a2.35,2.35,0,0,1,.81.75A13.8,13.8,0,0,1,425,155.4c3.87,7.18-1.67,16.18-9.34,17.4C407.68,174.06,400.45,166.62,401.38,158.75ZM386.16,307.32c-12.8,1.14-33.72-2.21-40.52-14.89-8.43-15.71,15.75-16.2,24.1-18.59,17-4.87,31.74-16.73,45.64-27.26,2.73-2.08,5.82,2.33,3.56,4.62-9.14,9.21-18.55,17.51-30,23.83a84.19,84.19,0,0,1-15.89,6.82A66.42,66.42,0,0,1,363.6,284c-2,.31-5.11,0-6.93,1-8.69,4.6,8,11,11.79,12.06a48.09,48.09,0,0,0,19.21,1.28c14.12-1.86,25.8-9.61,36.48-18.53,4-3.3,9.34,1.86,5.72,5.72C418.56,297.6,402.71,305.84,386.16,307.32Z"/><path class="cls-2" d="M413.91,164.44c2.36-.19,4.69-3.23,3.19-5.41s-4.36-1.18-6.61-1.4a3.4,3.4,0,0,1-.46-.09,4.17,4.17,0,0,0-.53,1.34C409,161.38,411.19,164.65,413.91,164.44Z"/><path class="cls-2" d="M207.33,171.94a2.85,2.85,0,0,0-1.17-.14,5.37,5.37,0,0,0-1,4.7c.84,2.49,3,2.8,3.81.21C209.56,175,209.2,172.58,207.33,171.94Z"/><path class="cls-3" d="M460.11,338.45c5.29-.31,9.15-2.95,10.8-8.07,2.58-8,3.58-16.95,4.83-25.25,5.15-34.07,5.45-68.66,2-102.91a579.13,579.13,0,0,0-19.19-100.14c-8.09-28.55-21.89-52.8-46.23-70.44C361.2-5.42,287.75,1.76,235.77,33.45c-55.28,33.7-74.58,97.52-77.61,158.86a563.55,563.55,0,0,0,7,117.69c2.19,13.53,4.39,35.21,19.34,41.17,7.48,3,17.17,1.48,25.06,1.51,9.07,0,18.15,0,27.23-.05,1.27,41,2.74,82,4.19,123,.61,17.44,1.33,35.64-4.68,52.32A47.94,47.94,0,0,1,230,540.37c-3.83,5.13-8,5.74-14,5.87-7,.16-13.56,1.27-17.65,7.59-7.72,11.93.19,25.9,12.14,30.88,14.26,5.93,33.12,1.39,46.47-5.25,33.64-16.74,27.31-59.13,26.78-90.28q-1.16-68.25-2.5-136.5c28-.88,56-1.62,84-2.39q3.45,62.35,7,124.72c.59,10.57,1.21,21.13,1.76,31.7.52,9.82,1.54,22.15-6.37,29.56-6.34,5.94-15.27,3.33-23.07,3.7s-14.66,3.51-18.22,10.85c-6.23,12.85.28,28.9,11.78,36.32,14.4,9.29,32,1.73,45.73-5,38.17-18.74,34.3-61.76,33.5-98.05l-3.22-145.6C428.68,331.28,444.75,339.35,460.11,338.45ZM407.32,456.12c.45,19.81,1.36,39.69,1.22,59.51-.11,17.36-2.44,37.12-15.83,49.72-5.58,5.24-12.6,8.56-19.54,11.61-8.8,3.86-19.75,8.13-29,3.18a21.86,21.86,0,0,1-10.91-15.38c-.76-4.75.12-11.07,4.51-13.92,3.65-2.37,8.62-1.72,12.71-1.58,6.46.22,13,.42,18.85-2.89s9.89-9.13,12-15.42c2.53-7.37,2.29-15.39,1.89-23.05-.53-10.09-1.13-20.17-1.7-30.25q-3.69-66-7.41-132.09a4.69,4.69,0,0,0-4.61-4.62c-31,.91-62,1.9-93,2.68a4.68,4.68,0,0,0-4.6,4.6q1.23,57.18,2.4,114.37c.36,18.41.79,36.82,1,55.24.21,15,.18,32.35-10.14,44.44C255.12,574.13,234,580.74,218.77,578c-6.84-1.24-14.88-6.16-14.65-14,.35-11.4,12.35-7.78,19.85-9.35,13.82-2.87,20.09-19.61,23.05-31.73,3.76-15.44,3.28-31.5,2.68-47.25q-2.41-63.75-5.23-127.47c-.15-3.47-3.9-4.56-6.16-3.25-15.34-.27-30.85.26-46.14-.66-15.51-.93-17.12-24.85-19-36.5A572.73,572.73,0,0,1,166.12,210c.75-58.32,12.44-123.65,62.19-160.8C274,15.05,343.37,3.19,394.66,31.41a108.18,108.18,0,0,1,51,60.57c9.93,29,16,59.88,20.33,90.14,5,34.9,6.32,70.47,2.69,105.57q-1.43,13.77-4,27.37c-.65,3.45-.83,9-2.49,12-1.89,3.46-7.09,2-10.54,1.69-14.83-1.51-29.65-5.08-43.44,2.58a4,4,0,0,0-2.16,2.95,4.17,4.17,0,0,0-1.42,3.42Z"/><path class="cls-3" d="M429.87,285.53c3.62-3.86-1.77-9-5.72-5.72-10.68,8.92-22.36,16.67-36.48,18.53a48.09,48.09,0,0,1-19.21-1.28C364.7,296,348,289.6,356.67,285c1.82-1,4.9-.69,6.93-1a66.42,66.42,0,0,0,9.46-2.15A84.19,84.19,0,0,0,389,275c11.44-6.32,20.85-14.62,30-23.83,2.26-2.29-.83-6.7-3.56-4.62-13.9,10.53-28.62,22.39-45.64,27.26-8.35,2.39-32.53,2.88-24.1,18.59,6.8,12.68,27.72,16,40.52,14.89C402.71,305.84,418.56,297.6,429.87,285.53Z"/><path class="cls-3" d="M269.21,268.43c-9.83,1.1-19.57,2.63-29.28-.33-5.78-1.75-19.27-9.06-17.36-17,.59-2.45-2.82-5-4.63-2.7-6,7.69,2.84,17.56,9.11,22.09,10.85,7.84,24.77,8.31,37.59,6.76,3.81-.45,6.66-1.83,9.53,1.06,3.32,3.34,1.24,7.85-1.19,11.4-4.26,6.23-11.8,9.66-18.42,12.74-6.37,3-13.14,6-20.28,6.26s-11.71-3-17.41-6.87c-2.3-1.55-5.92,1.07-4.89,3.76,4.85,12.72,22.27,12.95,33.2,9.66,13.09-3.92,30.06-11.2,36.55-24C287.46,279.92,283.39,266.84,269.21,268.43Z"/><path class="cls-3" d="M211.92,164.66c-6.41-3.59-15.85,0-16.42,7.76a3.19,3.19,0,0,0,1.37,3,12,12,0,0,0,.24,2.36c1.71,8.18,11.52,12.52,17.51,5.65C219.37,178,218.5,168.34,211.92,164.66ZM209,176.71c-.86,2.59-3,2.28-3.81-.21a5.37,5.37,0,0,1,1-4.7,2.85,2.85,0,0,1,1.17.14C209.2,172.58,209.56,175,209,176.71Z"/><path class="cls-3" d="M319.89,171.65c-1,6.23-.82,13.57-9,14.46-7.24.79-11.74-6.29-10-12.88.79-3-3.52-4.92-5-2.12-5.55,10.31,1.78,22.44,13.45,22.91A17.09,17.09,0,0,0,323.93,187c3.14-4.39,5-11.29,1.74-16.08C324.32,168.89,320.35,168.73,319.89,171.65Z"/><path class="cls-3" d="M415.63,172.8c7.67-1.22,13.21-10.22,9.34-17.4a13.8,13.8,0,0,0-6.84-5.72,2.35,2.35,0,0,0-.81-.75c-6.91-3.75-15.09,2.67-15.94,9.82C400.45,166.62,407.68,174.06,415.63,172.8Zm-6.13-13.92a4.17,4.17,0,0,1,.53-1.34,3.4,3.4,0,0,0,.46.09c2.25.22,5-.9,6.61,1.4s-.83,5.22-3.19,5.41C411.19,164.65,409,161.38,409.5,158.88Z"/><path class="cls-3" d="M425.79,83.36a104,104,0,0,1,7.79,16.79c1.92,5.4,3,11.1,5.4,16.32.47,1,1.92.42,2-.53.55-12-6.4-25.43-12.41-35.4a95.07,95.07,0,0,0-25.39-27.43c-.54-.4-1.2.48-.71.92A123.8,123.8,0,0,1,425.79,83.36Z"/><path class="cls-3" d="M450.15,149.94c-.36-7.51-2.39-15.62-6.92-21.75a.51.51,0,0,0-.92.39c1.27,7.26,3.75,14.57,5.88,21.62A1,1,0,0,0,450.15,149.94Z"/><path class="cls-3" d="M181.22,253c-.57-11-.38-22.53-2.88-33.29-.11-.46-.9-.5-1,0-1.55,10.89-.42,22.33-.05,33.29s.08,22.52,2.53,33.39c.18.79,1.56.86,1.68,0C183,275.4,181.79,264.08,181.22,253Z"/><path class="cls-3" d="M181.79,290.69c0,6.23.78,13.76,3.29,19.49.56,1.28,2.39.52,2.45-.66.28-6.17-1.69-13.39-3.94-19.08A.92.92,0,0,0,181.79,290.69Z"/></svg>