<svg id="Layer_1" data-name="Layer 1" xmlns="http://www.w3.org/2000/svg" viewBox="0 0 600 600"><defs><style>.cls-1{fill:#be1e2d;}.cls-2{fill:#009444;}.cls-3{fill:#231f20;}</style></defs><title>doodle</title><path class="cls-1" d="M517.54,288C490.22,229.79,445.07,184.36,407,133.46c-19.4,17.09-39.27,33.67-59.28,50-55.11,45-111.64,88.25-167.41,132.45-53.83,42.67-106.24,86.94-158.2,131.84,31.82.52,63.61,2.19,95.44,2.52,6-13.37,20.43-22.44,35.32-20,14.34,2.35,24.44,14,26.93,27.65,26.76,1.22,53.54,2.17,80.3,3.31,8.37-24.67,34.67-41.51,60.74-38.8,25.41,2.63,46,21.63,54.37,45.09A39.09,39.09,0,0,1,440,482.47c32.42-.84,64.63.18,96.89,2.5,1.83-33.39,5.38-66.63,4-100.14A251.2,251.2,0,0,0,517.54,288Zm-361.8,95.59c-6.7,3.86-14.24,6.27-21.7,8.65-1.92,1.64-3.83,3.3-5.7,5-2.47,2.23-5.55.74-6.52-1.68a2.2,2.2,0,0,1-.06-4c.27-.14.53-.3.8-.45,5.71-9.32,25.62-37.28,37.7-24.75C165.8,372.14,161.65,380.24,155.74,383.63Zm53.72,41.62c-8.65-.91-19.16-1.49-28.14-4-1.21.07-2.43.15-3.65.29a3.76,3.76,0,0,1-4.46-3.82c-.94-1.38-.69-3.46,1.37-3.85a28.09,28.09,0,0,1,3.29-.38c10.88-3.48,42.32-12.21,43.79,3.81C222.4,425.24,215.41,425.88,209.46,425.25ZM275.56,373c-6.92.35-14.17-.51-21.08-1.07-5.25-.44-10.55-.83-15.54-2.44l-.75.12c-4.1.7-6.75-5.57-2.54-7.16,11.41-4.33,24.93-11.8,37.31-12.41,7-.35,15.81,3.36,16.43,11.36S282.38,372.64,275.56,373Zm13.86-68.35c-4.61,1.91-9.1,4.1-13.56,6.34-1.87.94-3.72,2-5.6,3l-1.55,1.49a3,3,0,0,1-3,.69,24.18,24.18,0,0,1-4.05,1.3,2.7,2.7,0,0,1-2.78-4.09,27.68,27.68,0,0,1,7.07-7.63c2.95-6.7,6.65-13.16,12.24-18,5.76-4.94,14.79-6,19.49,1C302.93,296.58,296,301.93,289.42,304.64Zm74.5,6.91a2.89,2.89,0,0,1-2.13-4.3h0l.06-.07a2.28,2.28,0,0,1,.39-.48,15.54,15.54,0,0,1,3-2.92c2.81-4.13,4.22-9,7.46-12.93A29.67,29.67,0,0,1,383,282.7c6.41-3,16.05-3.59,20.73,2.81,5.29,7.25-1,12.66-7.41,15.37-5.8,2.47-11.65,4.86-17.54,7.1C374.05,309.78,369,312.31,363.92,311.55ZM418.07,417c-8.11.75-17.94,1.51-26.93.64-2.76.66-5.52,1.3-8.27,2-4.66,1.15-8.62-5.73-4.42-8.72,10.17-7.26,44.39-30.51,52.14-8.45C433.64,411.15,425.58,416.33,418.07,417Z"/><path class="cls-2" d="M435.66,107.45q-9.57,9-19.36,17.75c19.59,21.82,37.94,45.09,55.88,68.25,30.66,39.57,59,82.31,72.16,131.16,14.06,52.18,9.49,108.24.6,160.94,4.65.37,9.3.75,13.95,1.17,10.81-30.07,19.9-60.28,20.76-92.52,1.52-56.75-17.66-112.33-44.6-161.59C509.12,185.17,475.58,143.73,435.66,107.45Z"/><path class="cls-3" d="M506.76,166.82c-19.66-24.95-41.3-48.41-65.43-69.09a4.33,4.33,0,0,0-4.39-.82,4.64,4.64,0,0,0-5,.73c-54.65,44.56-108.64,89.82-164,133.54-55.82,44.08-112.07,87.66-166.73,133.19-30.83,25.69-61.07,52-89.56,80.24a4.65,4.65,0,0,0,.47,7.12,3.84,3.84,0,0,0,3.54,3.76c34.76,4.35,70.15,4.92,105.15,5.1a5.29,5.29,0,0,0,5.17-3.48c7.64-24.48,43.8-21.54,45.35,4.95.15,2.42,1.59,4.7,4.29,4.81,29.24,1.17,58.48,2.71,87.72,4a4.82,4.82,0,0,0,4.76-3.21c6-22.68,28.93-38,52.25-35.71,24.39,2.41,43.45,23.05,48.6,46.2.82,3.68,6.08,4.9,8.16,1.55a29.63,29.63,0,0,1,54.23,9c.47,2,2.43,4,4.65,4,42-1,84.45.29,126.23,5,2.42.27,4.43-1.5,5.3-3.57,11.83-28,21.33-56.62,23.87-87.08,2.43-29.17-.73-58.77-7.71-87.13C569.92,264.15,542.13,211.72,506.76,166.82ZM536.86,485c-32.26-2.32-64.47-3.34-96.89-2.5a39.09,39.09,0,0,0-64.75-14.94c-8.34-23.46-29-42.46-54.37-45.09-26.07-2.71-52.37,14.13-60.74,38.8-26.76-1.14-53.54-2.09-80.3-3.31-2.49-13.68-12.59-25.3-26.93-27.65-14.89-2.44-29.35,6.63-35.32,20-31.83-.33-63.62-2-95.44-2.52,52-44.9,104.37-89.17,158.2-131.84,55.77-44.2,112.3-87.42,167.41-132.45,20-16.34,39.88-32.92,59.28-50,38.06,50.9,83.21,96.33,110.53,154.58a251.2,251.2,0,0,1,23.31,96.79C542.24,418.34,538.69,451.58,536.86,485Zm42.79-90.77c-.86,32.24-9.95,62.45-20.76,92.52-4.65-.42-9.3-.8-13.95-1.17,8.89-52.7,13.46-108.76-.6-160.94-13.17-48.85-41.5-91.59-72.16-131.16C454.24,170.29,435.89,147,416.3,125.2q9.78-8.78,19.36-17.75c39.92,36.28,73.46,77.72,99.39,125.16C562,281.87,581.17,337.45,579.65,394.2Z"/><path class="cls-3" d="M378.45,410.92c-4.2,3-.24,9.87,4.42,8.72,2.75-.68,5.51-1.32,8.27-2,9,.87,18.82.11,26.93-.64,7.51-.69,15.57-5.87,12.52-14.55C422.84,380.41,388.62,403.66,378.45,410.92Z"/><path class="cls-3" d="M396.33,300.88c6.38-2.71,12.7-8.12,7.41-15.37-4.68-6.4-14.32-5.78-20.73-2.81a29.67,29.67,0,0,0-10.29,8.14c-3.24,3.94-4.65,8.8-7.46,12.93a15.54,15.54,0,0,0-3,2.92,2.28,2.28,0,0,0-.39.48l-.06.07h0a2.89,2.89,0,0,0,2.13,4.3c5.1.76,10.13-1.77,14.87-3.57C384.68,305.74,390.53,303.35,396.33,300.88Z"/><path class="cls-3" d="M278.23,287.78c-5.59,4.81-9.29,11.27-12.24,18a27.68,27.68,0,0,0-7.07,7.63,2.7,2.7,0,0,0,2.78,4.09,24.18,24.18,0,0,0,4.05-1.3,3,3,0,0,0,3-.69l1.55-1.49c1.88-1,3.73-2.07,5.6-3,4.46-2.24,8.95-4.43,13.56-6.34,6.54-2.71,13.51-8.06,8.3-15.86C293,281.75,284,282.84,278.23,287.78Z"/><path class="cls-3" d="M273,350c-12.38.61-25.9,8.08-37.31,12.41-4.21,1.59-1.56,7.86,2.54,7.16l.75-.12c5,1.61,10.29,2,15.54,2.44,6.91.56,14.16,1.42,21.08,1.07s14.46-3.48,13.83-11.6S279.91,349.68,273,350Z"/><path class="cls-3" d="M177.87,413.48a28.09,28.09,0,0,0-3.29.38c-2.06.39-2.31,2.47-1.37,3.85a3.76,3.76,0,0,0,4.46,3.82c1.22-.14,2.44-.22,3.65-.29,9,2.52,19.49,3.1,28.14,4,5.95.63,12.94,0,12.2-8C220.19,401.27,188.75,410,177.87,413.48Z"/><path class="cls-3" d="M122.56,391.15c-.27.15-.53.31-.8.45a2.2,2.2,0,0,0,.06,4c1,2.42,4.05,3.91,6.52,1.68,1.87-1.69,3.78-3.35,5.7-5,7.46-2.38,15-4.79,21.7-8.65,5.91-3.39,10.06-11.49,4.52-17.23C148.18,353.87,128.27,381.83,122.56,391.15Z"/></svg>