<svg id="Layer_1" data-name="Layer 1" xmlns="http://www.w3.org/2000/svg" viewBox="0 0 600 600"><defs><style>.cls-1{fill:#e27683;}.cls-2{fill:#be1e2d;}.cls-3{fill:#231f20;}</style></defs><title>doodle</title><path class="cls-1" d="M430.84,209.82q6-2.62,12.05-5.16c-4.44-12.9-6.93-25.87-6.19-39.63-2.66,1.5-5.26,3.08-7.83,4.69a40.16,40.16,0,0,0-2.78,24.84A87.7,87.7,0,0,0,430.84,209.82Z"/><path class="cls-1" d="M399.61,391.19c3.15-9.15,5.63-18.46,5.38-28.23-.28-10.89-3.11-21.5-4.54-32.27a72,72,0,0,1,1-26.37c2.12-9,5.7-17.52,8.3-26.35a66.64,66.64,0,0,0,1.62-32.26c-.86-4.53-2-9-3.17-13.47l-2.76,1.27c-21.29,10-42,21.19-63,31.62,1.75,7.6,1.83,16.07,1.4,23.92,6.2-1.72,12.93-1.73,19.28-1.46,6.75.29,15.26.35,20.91,4.41,2.52,1.82,2.74,6.56-.95,7.29-7.55,1.47-15.88-1.26-23.54-1.68-4.37-.24-11.27.95-16.32-.08q-.18,2.06-.36,4c-.21,2.34-.39,4.88-.62,7.49,8,1.23,15.95,5,23.12,8.54s17.82,8.52,21.84,15.94a3.78,3.78,0,0,1-4.22,5.49c-7.64-1.78-14.84-8.51-21.72-12.27-6.42-3.5-13.46-5.92-20-9.2a55.61,55.61,0,0,1-1.95,8.59h0Q369.54,358.56,399.61,391.19Z"/><path class="cls-1" d="M343,255.39c19.81-13,41.12-23.94,62.55-34-.36-1.63-.69-3.27-1-4.92-1.69-9.89-2-21.41,2.14-30.81-24.35,19.61-45.24,43.44-66.34,66.85.12.15.24.3.36.47A19.34,19.34,0,0,0,343,255.39Z"/><path class="cls-1" d="M416.69,216.15l4.66-2.11c-.86-2.24-1.68-4.5-2.41-6.8-2.64-8.34-4.46-19.33-2.71-29-1.19.86-2.36,1.75-3.53,2.64-6.71,12.18-6,25.39-3.35,38.62C411.79,218.41,414.24,217.27,416.69,216.15Z"/><path class="cls-1" d="M388.93,432.84c-.05-9.56,2.85-19.43,6.07-28.69l-1.48-1.62q-30.25-32.91-60.31-66c-.2.19-.39.39-.6.57A758.54,758.54,0,0,0,388.93,432.84Z"/><path class="cls-2" d="M280.45,326.06a22.59,22.59,0,0,0,2.72,3.79c2.63.44,5.31.58,7.48.84a163.4,163.4,0,0,0,16.54,1.07c5.07.08,12.26.88,16.84-1.85s5.07-8.66,5.9-13.39a192.77,192.77,0,0,0,2.77-36.38c-.14-9-.54-21.15-9.82-25.8-4.43-2.22-9.78-2.27-14.6-2.35-6.29-.11-12.6-.06-18.89-.05-6.1,0-5.93,1.27-9,6l0,0c-2,11.2-2.46,22.45-2.52,34,0,8.16.18,16.3.92,24.43C279,319.52,279.07,323.15,280.45,326.06Z"/><path class="cls-1" d="M159.3,291.34c-7.87,12.44-14.81,25.51-17.89,40-2.84,13.4-1.84,28.12,4.88,40.25,5.41,9.77,14.59,16,23,23l8.08-6.29c-6.16-5.84-12-11.94-15.69-19.77-15.6-32.94,15.31-60.54,26.14-89,7-18.37.73-34.58-3-52.79-2.65-12.82-2.39-25.68,1.62-37.86-4.35-3.41-8.81-6.68-13.43-9.73a76.9,76.9,0,0,0-6,30c.13,14.83,5,29.16,5.27,44C172.55,267.67,166.89,279.35,159.3,291.34Z"/><path class="cls-1" d="M216.25,289.17l3.32-.51a177.83,177.83,0,0,1,19.28-1.82c7.16-.3,18.56-1.73,25.48,2.5.13-1.71.24-3.42.37-5.13a3.35,3.35,0,0,1-1.59.09c-9-1.61-17.24-9.6-25.23-13.93-6.12-3.31-12.4-6.24-18.71-9.13a83.82,83.82,0,0,1-2.67,27.15C216.43,288.65,216.33,288.9,216.25,289.17Z"/><path class="cls-1" d="M203,312.46c-6.45,7.84-14.17,15.32-18,24.92-5.75,14.46,1.93,25.87,11.19,36.28q33.38-26,66.75-52a59.24,59.24,0,0,1-.08-9.69q.45-7.23.92-14.47c-9.36-1.4-19.11-1.06-28.5-.44-6,.39-11.86,1.15-17.77,2-1.91.26-3.86.62-5.81.84A82.67,82.67,0,0,1,203,312.46Z"/><path class="cls-2" d="M56.22,391.57c4.93,10.83,9.74,22.14,16.12,32.22C79.15,434.53,89,440.61,102,438.65c12.25-1.84,22.62-9.51,32.18-16.89q13.11-10.12,26.2-20.29c-1.94-1.55-3.9-3.06-5.81-4.6-10.66-8.6-18.91-18.4-22.95-31.72-4.47-14.74-3.31-30.76,1.29-45.31,4.92-15.54,13.82-28.51,21.87-42.47,9.69-16.82,5.93-33.61,3.23-51.78-2.66-17.93-.77-35.89,6.09-52-10.55-6.21-21.5-11.73-31.9-18.19-16.63-10.33-42.32-39-62.91-21.48C61.86,140.31,57.9,150.24,55,159.32c-3.74,11.58-6.64,23.5-9.4,35.35C33.37,247,25.38,302.45,41.85,354.76A325.83,325.83,0,0,0,56.22,391.57Z"/><path class="cls-1" d="M185.69,306.14c-7.77,12.91-16.76,26.63-17.43,42.18-.61,14.33,8,24.17,17.63,33.35l7.27-5.67c-.77-.85-1.53-1.71-2.28-2.59-5.41-6.35-10.25-13.49-11.44-21.93-1.31-9.25,2.23-17.93,7.4-25.43,5.95-8.61,13.62-15.9,19.28-24.71.28-.44.54-.89.81-1.34a13.34,13.34,0,0,1-3.27-.69,2.79,2.79,0,0,1-1.21-4.6,18.51,18.51,0,0,1,9.05-4.61A75.17,75.17,0,0,0,215,264.91c0-1.88-.11-3.76-.22-5.65l-4-1.81c-2.33-1.08-1.25-5.31,1.35-5,.7.09,1.39.2,2.08.31-1.5-14.7-4.72-29.48-4.86-44.18-2.21-2-4.42-4-6.64-5.94q-3.81-3.39-7.7-6.7a58.54,58.54,0,0,0-1.15,23.65c2.36,15.06,8.78,29.62,7.8,45.11C200.77,279.91,193.37,293.37,185.69,306.14Z"/><path class="cls-1" d="M185.83,396.21l-8.11,6.28a41.73,41.73,0,0,1,10.59,23.08c.91,7.1,1.78,13.61,6.47,19.32a26.26,26.26,0,0,0,12.09,8.18c-.32-17.21-2.19-35.08-13.5-48.83A98.42,98.42,0,0,0,185.83,396.21Z"/><path class="cls-1" d="M214.24,217.23c.92,12,3.22,24.17,4.38,36.32a99.21,99.21,0,0,1,23.18,8c7.65,3.71,18.51,8.49,23.43,16.11.19-2.25.38-4.51.59-6.76a78.85,78.85,0,0,1,1.25-10.95C249,244.66,231.57,228.6,214,212.73,214.05,214.23,214.13,215.74,214.24,217.23Z"/><path class="cls-1" d="M214.7,198.15c17.19,15.59,34.35,31.3,51,47.51-2.06-17.06-4-34.1-7.15-51-1.77-9.64-3.79-19.23-6-28.78-.79-3.41-1.62-6.8-2.47-10.2a1.31,1.31,0,0,1-.82.53C227.31,161.1,217.34,178.45,214.7,198.15Z"/><path class="cls-1" d="M206.61,173.67a54.27,54.27,0,0,0-7.27,10.93c3.76,3.15,7.44,6.4,11.08,9.68.34-2.08.76-4.16,1.3-6.23,4.27-16.48,18.22-35.68,37.1-35a1.4,1.4,0,0,1,.63.17c-.14-.56-.27-1.12-.42-1.67-.35-1.37-1.09-4.24-1.41-4.38-.65-.27-4.83,2.23-5.54,2.56C229.15,155.82,216.08,162.69,206.61,173.67Z"/><path class="cls-1" d="M191.14,178c7.09-12.94,18.51-22.54,31.19-29.82A162.31,162.31,0,0,1,242.18,138a33.7,33.7,0,0,0-10.51-2.65,46.15,46.15,0,0,0-23.58,5.19,73.37,73.37,0,0,0-29.87,28.18c.61.39,1.22.77,1.82,1.17C183.84,172.48,187.53,175.18,191.14,178Z"/><path class="cls-1" d="M210.26,389.44a56.87,56.87,0,0,1,11,46.16,966.64,966.64,0,0,0,55.36-96.15l.3-.52a22.42,22.42,0,0,1-5.33-2.1,15.65,15.65,0,0,1-4.37-3.66l-63.22,49C206.23,384.59,208.38,387,210.26,389.44Z"/><path class="cls-1" d="M411.07,438a72.2,72.2,0,0,1,7.35-7.79l-4.14-4.6A90.56,90.56,0,0,0,411.07,438Z"/><path class="cls-1" d="M437.78,226c3.8,9,7,18.24,7.39,28.06.38,10.4-3.23,20-7.24,29.39-8.87,20.77-13.44,41.22-6.57,63.34,3.08,9.94,6.69,19.84,5,30.4-1.54,9.78-7,18.09-12,26.45q-2.76,4.67-5.05,9.46c2.68,3,5.36,6,8.05,9a82,82,0,0,0,9.07-9.28c15.59-19.33,5.86-45.8,2.95-67.65-1.53-11.55-1.63-23.38,2.42-34.47,3.61-9.9,9.47-18.65,14.17-28,4.93-9.81,7-20,4.84-30.85s-7-21.09-11.58-31.18c-.79-1.75-1.54-3.5-2.28-5.24q-5.88,2.38-11.72,4.85Q436.55,223.09,437.78,226Z"/><path class="cls-2" d="M473.56,261c0,10.15-3.21,19.57-7.77,28.52-4.73,9.26-10.86,18-13.71,28.09-3.49,12.39-1.21,25.41,1.08,37.8,3.77,20.36,7.88,43.28-4.76,61.53-3.15,4.54-8.12,9-13.33,13.62,9.06,9.92,18.33,19.62,28.15,28.62,7.94,7.28,16.93,14.09,27.21,17.67,4.6,1.6,12.53,4.67,16.63,1,3.73-3.33,6-9.87,8.27-14.23,11.42-22.21,19.51-46,25.91-70.06,6.48-24.36,11.31-49.15,15.86-73.94,5-27,9.27-54.22,11.21-81.66a413,413,0,0,0,.94-41.92c-.18-5.59.15-12.71-5.91-15.2-4.19-1.72-9.47-.88-13.75,0C525.33,186,501.26,195,478,203.46q-10.15,3.72-20.22,7.65c3,6.76,6.19,13.43,9,20.28C470.54,240.81,473.52,250.75,473.56,261Z"/><path class="cls-1" d="M415.44,397.09c6-10.14,12.18-19.8,9.73-32.11-2.09-10.55-6.65-20.29-7.94-31.05a88.3,88.3,0,0,1,2.52-32.64c2.85-11,8.3-20.77,12-31.41,5.67-16.51,0-30.85-6.13-45.48-4.58,2-9.14,4.06-13.69,6.14.35,1.39.71,2.78,1.06,4.17,2.18,8.5,4.16,17.23,4,26.06-.17,8.38-2.4,16.51-5,24.41-3,8.94-6.5,17.84-7.64,27.26-1.25,10.33.73,20.55,2.52,30.7,1.54,8.77,3,17.68,2.26,26.61-.73,8.62-3.3,16.87-6.18,25l.1.11c2.85,3.09,5.67,6.22,8.49,9.36Q413.38,400.57,415.44,397.09Z"/><path class="cls-1" d="M201,384.45l-6.75,5.24c7.1,7.13,13.29,14.74,17.15,24.44a93.24,93.24,0,0,1,5.81,26.21c3.1-13,2.15-26.8-3.8-39C210.31,395,205.78,389.62,201,384.45Z"/><path class="cls-1" d="M394.41,440.58c1.44,2,2.9,4,4.37,6a93.67,93.67,0,0,1,7.11-30.4c-2.5-2.8-5-5.58-7.53-8.36C394.91,418.65,392.62,429.36,394.41,440.58Z"/><path class="cls-3" d="M57.19,420.12c5,10,11.25,20.18,21.27,25.79,11.07,6.19,24.61,5.58,36.18,1.14C127.9,442,138.88,432.54,150,423.94l19.08-14.76c.76.81,1.51,1.64,2.21,2.5,5.27,6.5,5.79,13.77,7,21.75a37.48,37.48,0,0,0,29.38,31.22,5.35,5.35,0,0,0,4.18-.77,5.88,5.88,0,0,0,5.38-2.53A977.54,977.54,0,0,0,286.13,345a5.38,5.38,0,0,0,.3-4.44l.48.07a179,179,0,0,0,20.28,1.75,73.25,73.25,0,0,0,14.74-.64c21.65,47,50.05,91.09,82.16,131.53,3.9,4.91,11.6-.45,10.1-5.87-3.12-11.23,3.48-20.42,12-28.74,8.27,9,16.67,17.89,25.45,26.32,8.51,8.15,17.92,15.84,28.69,20.8,9.11,4.2,22.95,9.24,32.29,3.24,4.16-2.69,6.68-7.13,9-11.34,3.66-6.53,7-13.24,10.11-20a354.08,354.08,0,0,0,14.31-37.07c8.48-26.15,14.29-53.08,19.47-80,5.6-29.09,10.74-58.33,13.65-87.83,1.45-14.73,2.32-29.53,2.33-44.34,0-11.55,1.8-27.19-8.12-35.46-7.92-6.62-19.34-5.5-28.69-3.25-13.58,3.27-27,7.68-40.26,12q-25.85,8.44-51,18.65c-.2-.52-.4-1-.59-1.57a82.18,82.18,0,0,1-3.43-42.53,5.93,5.93,0,0,0-8.59-6.6C396.6,171.39,362.45,209.36,332,247.22a25.07,25.07,0,0,0-5.32-3.15C315,239,299.35,240.45,287,240.73a15.9,15.9,0,0,0-11.56,4.71c-1-15.52-3.18-31-5.71-46.3q-2.38-14.52-5.49-28.9c-2-9.08-3.51-18.88-6.8-27.58a12.52,12.52,0,0,0-1.61-3,.2.2,0,0,0,0-.08c-5.73-11.89-23.32-14.67-35.14-13.1-14.75,2-28,10-38.41,20.44a84.37,84.37,0,0,0-12.81,16.41c-8.37-4.92-17-9.44-25.37-14.31-12-6.95-22.43-16-34.16-23.26-10.43-6.47-23.33-10.78-35.53-7.12C53.13,125,45.89,149.27,40.69,168.24a600.82,600.82,0,0,0-17.11,86c-3.55,29.22-3.82,59,2.91,87.79C32.85,369.27,44.63,395.24,57.19,420.12Zm137.59,24.77c-4.69-5.71-5.56-12.22-6.47-19.32a41.73,41.73,0,0,0-10.59-23.08l8.11-6.28a98.42,98.42,0,0,1,7.54,8c11.31,13.75,13.18,31.62,13.5,48.83A26.26,26.26,0,0,1,194.78,444.89Zm-.85-225.28A58.54,58.54,0,0,1,195.08,196q3.9,3.3,7.7,6.7c2.22,2,4.43,4,6.64,5.94.14,14.7,3.36,29.48,4.86,44.18-.69-.11-1.38-.22-2.08-.31-2.6-.33-3.68,3.9-1.35,5l4,1.81c.11,1.89.19,3.77.22,5.65a75.17,75.17,0,0,1-3.54,25.19,18.51,18.51,0,0,0-9.05,4.61,2.79,2.79,0,0,0,1.21,4.6,13.34,13.34,0,0,0,3.27.69c-.27.45-.53.9-.81,1.34-5.66,8.81-13.33,16.1-19.28,24.71-5.17,7.5-8.71,16.18-7.4,25.43,1.19,8.44,6,15.58,11.44,21.93.75.88,1.51,1.74,2.28,2.59l-7.27,5.67c-9.63-9.18-18.24-19-17.63-33.35.67-15.55,9.66-29.27,17.43-42.18s15.08-26.23,16-41.42C202.71,249.23,196.29,234.67,193.93,219.61Zm25.24,41.63c6.31,2.89,12.59,5.82,18.71,9.13,8,4.33,16.23,12.32,25.23,13.93a3.35,3.35,0,0,0,1.59-.09c-.13,1.71-.24,3.42-.37,5.13-6.92-4.23-18.32-2.8-25.48-2.5a177.83,177.83,0,0,0-19.28,1.82l-3.32.51c.08-.27.18-.52.25-.78A83.82,83.82,0,0,0,219.17,261.24ZM217.48,299c5.91-.82,11.81-1.58,17.77-2,9.39-.62,19.14-1,28.5.44q-.48,7.23-.92,14.47a59.24,59.24,0,0,0,.08,9.69q-33.39,26-66.75,52c-9.26-10.41-16.94-21.82-11.19-36.28,3.81-9.6,11.53-17.08,18-24.92a82.67,82.67,0,0,0,8.72-12.58C213.62,299.66,215.57,299.3,217.48,299Zm-.26,141.3a93.24,93.24,0,0,0-5.81-26.21c-3.86-9.7-10-17.31-17.15-24.44l6.75-5.24c4.77,5.17,9.3,10.52,12.41,16.89C219.37,413.54,220.32,427.3,217.22,440.34Zm181.56,6.26c-1.47-2-2.93-4-4.37-6-1.79-11.22.5-21.93,3.95-32.74,2.51,2.78,5,5.56,7.53,8.36A93.67,93.67,0,0,0,398.78,446.6Zm4.2-51.76-.1-.11c2.88-8.11,5.45-16.36,6.18-25,.76-8.93-.72-17.84-2.26-26.61C405,333,403,322.77,404.28,312.44c1.14-9.42,4.67-18.32,7.64-27.26,2.62-7.9,4.85-16,5-24.41.17-8.83-1.81-17.56-4-26.06-.35-1.39-.71-2.78-1.06-4.17,4.55-2.08,9.11-4.14,13.69-6.14,6.11,14.63,11.8,29,6.13,45.48-3.66,10.64-9.11,20.46-12,31.41a88.3,88.3,0,0,0-2.52,32.64c1.29,10.76,5.85,20.5,7.94,31.05,2.45,12.31-3.69,22-9.73,32.11q-2.07,3.48-4,7.11C408.65,401.06,405.83,397.93,403,394.84ZM411.07,438a90.56,90.56,0,0,1,3.21-12.39l4.14,4.6A72.2,72.2,0,0,0,411.07,438ZM478,203.46c23.26-8.5,47.33-17.43,71.59-22.6,4.28-.91,9.56-1.75,13.75,0,6.06,2.49,5.73,9.61,5.91,15.2a413,413,0,0,1-.94,41.92c-1.94,27.44-6.24,54.63-11.21,81.66-4.55,24.79-9.38,49.58-15.86,73.94-6.4,24.1-14.49,47.85-25.91,70.06-2.25,4.36-4.54,10.9-8.27,14.23-4.1,3.67-12,.6-16.63-1-10.28-3.58-19.27-10.39-27.21-17.67-9.82-9-19.09-18.7-28.15-28.62,5.21-4.62,10.18-9.08,13.33-13.62,12.64-18.25,8.53-41.17,4.76-61.53-2.29-12.39-4.57-25.41-1.08-37.8,2.85-10.1,9-18.83,13.71-28.09,4.56-8.95,7.81-18.37,7.77-28.52s-3-20.18-6.82-29.6c-2.77-6.85-6-13.52-9-20.28Q467.85,207.18,478,203.46Zm-31,11.93c.74,1.74,1.49,3.49,2.28,5.24,4.54,10.09,9.42,20.24,11.58,31.18s.09,21-4.84,30.85c-4.7,9.37-10.56,18.12-14.17,28-4.05,11.09-3.95,22.92-2.42,34.47,2.91,21.85,12.64,48.32-2.95,67.65a82,82,0,0,1-9.07,9.28c-2.69-3-5.37-6-8.05-9q2.29-4.79,5.05-9.46c4.94-8.36,10.43-16.67,12-26.45,1.66-10.56-1.95-20.46-5-30.4-6.87-22.12-2.3-42.57,6.57-63.34,4-9.4,7.62-19,7.24-29.39-.36-9.82-3.59-19.09-7.39-28.06q-1.23-2.87-2.49-5.71Q441.13,217.77,447,215.39Zm-18.14-45.67c2.57-1.61,5.17-3.19,7.83-4.69-.74,13.76,1.75,26.73,6.19,39.63q-6,2.53-12.05,5.16a87.7,87.7,0,0,1-4.75-15.26A40.16,40.16,0,0,1,428.87,169.72ZM412.7,180.93c1.17-.89,2.34-1.78,3.53-2.64-1.75,9.62.07,20.61,2.71,29,.73,2.3,1.55,4.56,2.41,6.8l-4.66,2.11c-2.45,1.12-4.9,2.26-7.34,3.4C406.69,206.32,406,193.11,412.7,180.93Zm-6,4.68c-4.11,9.4-3.83,20.92-2.14,30.81.29,1.65.62,3.29,1,4.92-21.43,10.11-42.74,21.07-62.55,34a19.34,19.34,0,0,1-2.27-2.46c-.12-.17-.24-.32-.36-.47C361.45,229.05,382.34,205.22,406.69,185.61ZM341.24,317.48c6.52,3.28,13.56,5.7,20,9.2,6.88,3.76,14.08,10.49,21.72,12.27a3.78,3.78,0,0,0,4.22-5.49c-4-7.42-14.58-12.33-21.84-15.94s-15.08-7.31-23.12-8.54c.23-2.61.41-5.15.62-7.49q.18-1.9.36-4c5.05,1,11.95-.16,16.32.08,7.66.42,16,3.15,23.54,1.68,3.69-.73,3.47-5.47.95-7.29-5.65-4.06-14.16-4.12-20.91-4.41-6.35-.27-13.08-.26-19.28,1.46.43-7.85.35-16.32-1.4-23.92,21.07-10.43,41.74-21.61,63-31.62l2.76-1.27c1.16,4.47,2.31,8.94,3.17,13.47A66.64,66.64,0,0,1,409.74,278c-2.6,8.83-6.18,17.38-8.3,26.35a72,72,0,0,0-1,26.37c1.43,10.77,4.26,21.38,4.54,32.27.25,9.77-2.23,19.08-5.38,28.23q-30.06-32.65-60.31-65.11h0A55.61,55.61,0,0,0,341.24,317.48Zm52.28,85,1.48,1.62c-3.22,9.26-6.12,19.13-6.07,28.69a758.54,758.54,0,0,1-56.32-95.77c.21-.18.4-.38.6-.57Q363.29,369.59,393.52,402.53ZM280.35,258l0,0c3.09-4.72,2.92-6,9-6,6.29,0,12.6-.06,18.89.05,4.82.08,10.17.13,14.6,2.35,9.28,4.65,9.68,16.76,9.82,25.8a192.77,192.77,0,0,1-2.77,36.38c-.83,4.73-1.37,10.7-5.9,13.39s-11.77,1.93-16.84,1.85a163.4,163.4,0,0,1-16.54-1.07c-2.17-.26-4.85-.4-7.48-.84a22.59,22.59,0,0,1-2.72-3.79c-1.38-2.91-1.42-6.54-1.7-9.67-.74-8.13-1-16.27-.92-24.43C277.89,280.41,278.32,269.16,280.35,258Zm-8.78,78.87a22.42,22.42,0,0,0,5.33,2.1l-.3.52a966.64,966.64,0,0,1-55.36,96.15,56.87,56.87,0,0,0-11-46.16c-1.88-2.43-4-4.85-6.28-7.29l63.22-49A15.65,15.65,0,0,0,271.57,336.83Zm-5.75-65.95c-.21,2.25-.4,4.51-.59,6.76-4.92-7.62-15.78-12.4-23.43-16.11a99.21,99.21,0,0,0-23.18-8c-1.16-12.15-3.46-24.31-4.38-36.32-.11-1.49-.19-3-.24-4.5,17.57,15.87,35,31.93,53.07,47.2A78.85,78.85,0,0,0,265.82,270.88Zm-13.29-105c2.21,9.55,4.23,19.14,6,28.78,3.11,16.94,5.09,34,7.15,51-16.63-16.21-33.79-31.92-51-47.51,2.64-19.7,12.61-37.05,34.54-42a1.31,1.31,0,0,0,.82-.53C250.91,159,251.74,162.43,252.53,165.84Zm-4.91-18.66c.32.14,1.06,3,1.41,4.38.15.55.28,1.11.42,1.67a1.4,1.4,0,0,0-.63-.17c-18.88-.69-32.83,18.51-37.1,35-.54,2.07-1,4.15-1.3,6.23-3.64-3.28-7.32-6.53-11.08-9.68a54.27,54.27,0,0,1,7.27-10.93c9.47-11,22.54-17.85,35.47-23.93C242.79,149.41,247,146.91,247.62,147.18Zm-39.53-6.6a46.15,46.15,0,0,1,23.58-5.19A33.7,33.7,0,0,1,242.18,138a162.31,162.31,0,0,0-19.85,10.12c-12.68,7.28-24.1,16.88-31.19,29.82-3.61-2.8-7.3-5.5-11.1-8-.6-.4-1.21-.78-1.82-1.17A73.37,73.37,0,0,1,208.09,140.58ZM173,179.15c4.62,3,9.08,6.32,13.43,9.73-4,12.18-4.27,25-1.62,37.86,3.77,18.21,10,34.42,3,52.79-10.83,28.44-41.74,56-26.14,89,3.7,7.83,9.53,13.93,15.69,19.77l-8.08,6.29c-8.43-6.94-17.61-13.19-23-23-6.72-12.13-7.72-26.85-4.88-40.25,3.08-14.51,10-27.58,17.89-40,7.59-12,13.25-23.67,13-38.18-.25-14.83-5.14-29.16-5.27-44A76.9,76.9,0,0,1,173,179.15ZM45.56,194.67c2.76-11.85,5.66-23.77,9.4-35.35,2.94-9.08,6.9-19,14.36-25.35,20.59-17.49,46.28,11.15,62.91,21.48,10.4,6.46,21.35,12,31.9,18.19-6.86,16.06-8.75,34-6.09,52,2.7,18.17,6.46,35-3.23,51.78-8.05,14-16.95,26.93-21.87,42.47-4.6,14.55-5.76,30.57-1.29,45.31,4,13.32,12.29,23.12,22.95,31.72,1.91,1.54,3.87,3.05,5.81,4.6q-13.09,10.15-26.2,20.29c-9.56,7.38-19.93,15.05-32.18,16.89-13,2-22.88-4.12-29.69-14.86C66,413.71,61.15,402.4,56.22,391.57a325.83,325.83,0,0,1-14.37-36.81C25.38,302.45,33.37,247,45.56,194.67Z"/></svg>