<svg id="Layer_1" data-name="Layer 1" xmlns="http://www.w3.org/2000/svg" viewBox="0 0 600 600"><defs><style>.cls-1{fill:#be1e2d;}.cls-2{fill:#fff;}.cls-3{fill:#8dc63f;}.cls-4{fill:#231f20;}</style></defs><title>doodle</title><path class="cls-1" d="M318.27,195.64a23.82,23.82,0,0,0-5.18,1.7c.93,2.85,2,5.66,3.11,8.42,1.23,2.91,3.67,9,6.72,4.1,2.14-3.48,3.49-8,4.4-12.67C324.31,196.5,321.76,195.07,318.27,195.64Z"/><path class="cls-2" d="M328.52,189.52c.21-1.7.4-3.33.56-4.85.66-5.89,1.35-12.83.85-19.2a28.39,28.39,0,0,1-4,2.65,29.46,29.46,0,0,1-9,3.07,24.46,24.46,0,0,1-9.16-.09c1.14,6.6,1.82,13.21,3.47,19.77C315.72,187.71,323.62,187.14,328.52,189.52Z"/><path class="cls-2" d="M362.1,131.72c.73-.6,0-4.26-1-4.74-.45-.21-.47-.12-.92,0a2.05,2.05,0,0,0-.6.38,3.58,3.58,0,0,1-.16.39,2.74,2.74,0,0,1-1,1.22C359.41,130.44,361.14,132.51,362.1,131.72Z"/><path class="cls-3" d="M424.39,349.53a11.26,11.26,0,0,1,5.59-.22c2.17.41,4.24,1.95,6.19.47,3.3-2.48,4.38-9.82,5.18-13.57,2.24-10.51,1.67-21.52-.42-32-8.57-42.88-40.41-79.16-38.91-124.33a4.36,4.36,0,0,1,2.17-3.78c4-1.85,7.53-1.72,11.8-1.32,4.09.39,7.35.13,7-4.79-.28-4.05-2.34-8-3.93-11.6q-3.18-7.28-6.51-14.46Q401,119,387.48,95c-8.32-14.8-16.87-29.76-26.92-43.47C351.43,39.08,339.77,27,324.67,22.32c-13-4.06-29.9-3.9-40.05,6.37a2,2,0,0,1-2.39.44C257.57,50.79,259,95.09,248,123.85a81.4,81.4,0,0,1-13.55,23.7c-4.59,5.42-16.65,15.77-9.33,23.63,2.78,3,7.28.86,10.63,3.11a10.19,10.19,0,0,1,4.16,7.45c1.05,8-3.53,16.18-6.65,23.29-16.6,37.88-42.16,71.21-57.56,109.66-3.5,8.74-7,18-8.56,27.34-.75,4.59-1.06,10,1.06,14.25,2,4,6,5.17,9.24,7.9,7.57,6.43,5.65,18.26,4.89,27-1,11.82-3,23.55-3.48,35.42-.69,17.5,2.8,38.47,18,49.5,7.08,5.14,15.67,6.42,19.66,15.08,3.84,8.34,2.87,18,2.9,26.9.09,20.31,2.38,43.5,19.05,57.5,16,13.45,39.07,8.22,54.05-4.19,15.92-13.19,24.86-32.49,34.07-50.52,4.92-9.64,10-19.25,16.45-28,5.24-7.13,11.8-16,21.17-17.42,4.8-.75,8.51,1.15,12.22,4s6.78,4,11.22,2.35c9.35-3.52,14.56-13.51,17.88-22.27C413,439.65,413.21,418,413.37,397c.09-10.09-.19-20.34.81-30.4C414.83,360.14,417.36,351.68,424.39,349.53ZM226,410.93c-11.85-6-11-23.13-10.45-34.26A159.28,159.28,0,0,1,218.77,352c.4-1.88,1.48-4.63,1-6.55-1.33-4.83-4.47-3.63-7.56-3.14-2,.31-4.13.84-6.11.16-4.91-1.68-4.41-8.19-4.31-12.36a56.38,56.38,0,0,1,5.12-22.61c.42-.9,1.87-.25,1.58.67a77.89,77.89,0,0,0-3.92,21.07c-.09,3.58-1,9.74,3.91,10.66,1.68.31,3.94-.66,5.63-.86,10.28-1.22,8.6,8.77,7.29,15.63-2.43,12.81-4.67,27.67-2,40.64,1.19,5.86,4.19,12.15,10.53,13.7,9,2.2,13.84-5.14,14.87-12.87.17-1.24,2-1.72,2.33-.31C250.15,407.54,235.78,415.93,226,410.93ZM371.4,159.68a1,1,0,0,1,.07-.15c0-.12,0-.23.07-.35a4.46,4.46,0,0,1,6.45-2.62,5.62,5.62,0,0,1,1.58,1.57,4.71,4.71,0,0,1,.68,1.47,3,3,0,0,1,.18.45,6.89,6.89,0,0,1,.18,1.5,5.23,5.23,0,0,1-1.54,3.77,4.83,4.83,0,0,1-5.23,1,4.74,4.74,0,0,1-2.29-1.95,5.86,5.86,0,0,1-.65-2.42A4.46,4.46,0,0,1,371.4,159.68Zm-17.31-37.84a6.3,6.3,0,0,1,2.77-1.92,8.43,8.43,0,0,1,9.45,1.2c4.27,3.88,5.23,12.82.1,16.45-5.68,4-12.37-1.81-13.91-7.37A9,9,0,0,1,354.09,121.84ZM300.58,164l2.12.07a3.86,3.86,0,0,1,1.79,0c5.66.07,11.42-.33,16.53-2.95,4.14-2.12,9.58-10.57,14.8-5.93,2.34,2.08,2,5.61,2.19,8.5a117.69,117.69,0,0,1,.09,12.74A126.85,126.85,0,0,1,334.57,201c-1.47,6-3.09,14.19-8.77,17.8-5.24,3.32-11.06.77-14.28-4-4.26-6.29-6.54-14.92-8.45-22.18-2.05-7.72-4.29-16.8-3.77-24.84a3.72,3.72,0,0,1,.2-1l-.06-.05A1.64,1.64,0,0,1,300.58,164Zm-34.25-35.33a9.76,9.76,0,0,1,6.13-4.87,9.39,9.39,0,0,1,2.65-.27c2.73-1.37,5.72.83,7,3.33a13.63,13.63,0,0,1,1.16,7.61c-.66,5.87-6.12,10-12,7.93C265.67,140.5,263.65,133.77,266.33,128.71Zm-5.76,29.18c6.07,0,6.06,9.41,0,9.41S254.52,157.89,260.57,157.89Zm9.69,176.85c-1.76,8.79-13,6.79-17.1,1.17-2.91-4-3.52-9-3.38-13.77.2-7.19,1.28-14.4,2.06-21.54.12-1.09,1.79-1.15,1.75,0-.23,7.72-1,15.56-.81,23.28.09,4.24,1,8.92,4.32,11.88A7.41,7.41,0,0,0,268.52,334,1,1,0,0,1,270.26,334.74Zm3.27-82c-8.44-9.24-7.42-27.14-4.37-38.29a.81.81,0,0,1,1.59.21c.39,8.79-1.32,17.38.73,26.11,1.7,7.22,7.91,17.15,15.19,9.08,4.86-5.39,9.14-16.89,18.52-12.65,5.37,2.42,12.1,17.4,18.41,8.89,1.44-1.95,1.66-3.81,4.31-4.66,2.34-.75,4.89.06,6.95,1.19,4.21,2.31,7.25,6,12.57,3.16,4.21-2.21,6.24-6.69,7.39-11.09,2.36-8.95,2.78-18.28,3.74-27.44.2-1.86,3-1.95,3,0a118.48,118.48,0,0,1-3.35,27.55c-1.46,6-4.43,12.15-10.57,14.5a11.24,11.24,0,0,1-7.15.48c-2.61-.72-4.31-2.73-6.66-3.89-7.17-3.53-6.39,3-10.11,5.36a7,7,0,0,1-5,.89c-6.42-1.09-8.47-7.23-13.14-10.75-5.93-4.47-9.86,1.5-13,6C288,254.05,280.71,260.63,273.53,252.78ZM360,384.64c-1.5,7.07-2.91,14.76-6.19,21.27-2.36,4.69-6.35,8.91-11.56,10.29s-9.94-1-14.45-3.45c-2.91-1.58-6.37-3.77-9.84-2.88-3.68.94-5,4.84-6.1,8-1.33,3.91-2.44,8.27-5.78,11-8.6,7-19.72-2.37-15.74-12.13.41-1,2-.62,1.66.45a7.91,7.91,0,0,0,14.38,6.55c1.91-3.35,2.43-7.31,4.12-10.76,3-6.08,8.7-7.6,14.77-5,4.46,1.91,8.74,5.7,13.83,5.55,7.37-.22,11.65-7.47,13.72-13.62a112.08,112.08,0,0,0,5.61-38.69,1.38,1.38,0,0,1,2.7-.36C363.09,368.52,361.6,377,360,384.64Zm29.35-83.28c-3.22,6.85-10.32,10-17,6.07-1.88-1.11-1.21-1.11-4.14-1.75-3.3-.73-4.16.14-6,2.73a49.63,49.63,0,0,1-3.29,4.84c-2.14,2.39-5,3.78-8.24,3.09-9.35-2-8.82-12.48-7.86-19.72.1-.78,1.31-.83,1.27,0-.24,4.18-.37,9.5,2.08,13.14,3.72,5.54,9.14,3.75,12.28-1.17,2.24-3.5,5.35-8,10.18-7.09,2.76.51,4.09,2.83,6.47,4,5.62,2.79,10.5-2.63,12.12-7.43,2.72-8.07,1-16.49-1.13-24.44-.36-1.36,1.65-2.26,2.3-1C392.62,281,393.38,292.76,389.33,301.36Z"/><path class="cls-2" d="M273.25,135.07c1.58.93,2-.69,2.08-1.86a5,5,0,0,0-.34-2.47,4.93,4.93,0,0,0-.42-.58,4.62,4.62,0,0,0-1.5,1.19C272.31,132.31,272,134.34,273.25,135.07Z"/><path class="cls-4" d="M422.26,376.35c.14-4.42,0-9.12,1.26-13.39.49-1.6,1.25-4.08,2.79-5,1.87-1.09,4.17.45,6.1.83,9.8,1.93,13.94-8.66,16-16.21,12.76-45.9-20.11-87.38-32.79-129.1a105.8,105.8,0,0,1-4.9-30.42c3.21-.4,6.95.88,10,.55a11.78,11.78,0,0,0,9-5.29c3.86-6.22,1.26-13.95-1.36-20.09q-12.66-29.56-28.06-57.89c-9.72-17.94-19.86-36.06-31.86-52.6-10.16-14-22.89-27.15-39.72-32.67-11.28-3.7-22.93-3.47-33.19.86a53.28,53.28,0,0,0-16,8.66c-16.31,12.78-23,33.67-27.43,53.1-4.61,20.29-7.37,42-19.31,59.6-5.33,7.87-14.57,14.19-16.82,23.86-1.57,6.71,1,15.14,7.64,18.11,3.49,1.57,8.37-.66,8.85,4.11.45,4.5-2.23,9.4-3.88,13.41a311.79,311.79,0,0,1-14.46,29.84c-10.34,19.09-21.9,37.5-32.06,56.69-9.39,17.72-19.27,37.39-22.47,57.38-1.27,7.91-1.09,17,4.63,23.28,3,3.35,8.63,4.66,10.29,9.07,2,5.26.51,12.68,0,18.14-1.92,21.92-7.07,44.43.23,65.94,2.72,8,6.91,15.68,13,21.6A40.88,40.88,0,0,0,198.27,486c4.79,2.35,9.34,4,11.45,9.34,3.81,9.6,1.43,21.89,1.84,32,.45,10.85,1.88,21.87,6,32,7.06,17.5,21.66,31.46,41.21,32.42,20.67,1,39.19-11.34,51.6-26.92,13.43-16.86,21.23-37.08,32.1-55.52a128,128,0,0,1,9.33-14c3.21-4.09,7.7-10.31,13.2-11.33,4.56-.84,8,4.14,11.85,5.81a18.09,18.09,0,0,0,12.37.56c19.35-5.87,26.74-30.35,29.82-47.94C422.82,420.63,421.55,398.4,422.26,376.35ZM413.37,397c-.16,21-.34,42.61-7.87,62.49-3.32,8.76-8.53,18.75-17.88,22.27-4.44,1.67-7.63.35-11.22-2.35s-7.42-4.71-12.22-4c-9.37,1.47-15.93,10.29-21.17,17.42-6.43,8.74-11.53,18.35-16.45,28-9.21,18-18.15,37.33-34.07,50.52-15,12.41-38,17.64-54.05,4.19-16.67-14-19-37.19-19.05-57.5,0-8.92.94-18.56-2.9-26.9-4-8.66-12.58-9.94-19.66-15.08-15.21-11-18.7-32-18-49.5.46-11.87,2.45-23.6,3.48-35.42.76-8.77,2.68-20.6-4.89-27-3.22-2.73-7.25-3.87-9.24-7.9-2.12-4.3-1.81-9.66-1.06-14.25,1.52-9.34,5.06-18.6,8.56-27.34,15.4-38.45,41-71.78,57.56-109.66,3.12-7.11,7.7-15.27,6.65-23.29a10.19,10.19,0,0,0-4.16-7.45c-3.35-2.25-7.85-.13-10.63-3.11-7.32-7.86,4.74-18.21,9.33-23.63A81.4,81.4,0,0,0,248,123.85c11-28.76,9.6-73.06,34.26-94.72a2,2,0,0,0,2.39-.44c10.15-10.27,27.07-10.43,40.05-6.37,15.1,4.72,26.76,16.76,35.89,29.19,10.05,13.71,18.6,28.67,26.92,43.47q13.49,24,25.08,49,3.33,7.2,6.51,14.46C420.66,162,422.72,166,423,170c.34,4.92-2.92,5.18-7,4.79-4.27-.4-7.83-.53-11.8,1.32a4.36,4.36,0,0,0-2.17,3.78c-1.5,45.17,30.34,81.45,38.91,124.33,2.09,10.47,2.66,21.48.42,32-.8,3.75-1.88,11.09-5.18,13.57-1.95,1.48-4-.06-6.19-.47a11.26,11.26,0,0,0-5.59.22c-7,2.15-9.56,10.61-10.21,17.11C413.18,376.7,413.46,387,413.37,397Z"/><path class="cls-4" d="M299.5,166.86a3.72,3.72,0,0,0-.2,1c-.52,8,1.72,17.12,3.77,24.84,1.91,7.26,4.19,15.89,8.45,22.18,3.22,4.75,9,7.3,14.28,4,5.68-3.61,7.3-11.82,8.77-17.8a126.85,126.85,0,0,0,3.53-24.52,117.69,117.69,0,0,0-.09-12.74c-.18-2.89.15-6.42-2.19-8.5-5.22-4.64-10.66,3.81-14.8,5.93-5.11,2.62-10.87,3-16.53,2.95a3.86,3.86,0,0,0-1.79,0l-2.12-.07a1.64,1.64,0,0,0-1.14,2.77Zm23.42,43c-3.05,4.93-5.49-1.19-6.72-4.1-1.16-2.76-2.18-5.57-3.11-8.42a23.82,23.82,0,0,1,5.18-1.7c3.49-.57,6,.86,9.05,1.55C326.41,201.83,325.06,206.38,322.92,209.86Z"/><path class="cls-4" d="M371.55,164.36a4.74,4.74,0,0,0,2.29,1.95,4.83,4.83,0,0,0,5.23-1,5.23,5.23,0,0,0,1.54-3.77,6.89,6.89,0,0,0-.18-1.5,3,3,0,0,0-.18-.45,4.71,4.71,0,0,0-.68-1.47,5.62,5.62,0,0,0-1.58-1.57,4.46,4.46,0,0,0-6.45,2.62c0,.12-.05.23-.07.35a1,1,0,0,0-.07.15,4.46,4.46,0,0,0-.5,2.26A5.86,5.86,0,0,0,371.55,164.36Z"/><path class="cls-4" d="M366.41,137.57c5.13-3.63,4.17-12.57-.1-16.45a8.43,8.43,0,0,0-9.45-1.2,6.3,6.3,0,0,0-2.77,1.92,9,9,0,0,0-1.59,8.36C354,135.76,360.73,141.6,366.41,137.57Zm-6.94-9.82a3.58,3.58,0,0,0,.16-.39,2.05,2.05,0,0,1,.6-.38c.45-.12.47-.21.92,0,1,.48,1.68,4.14,1,4.74-1,.79-2.69-1.28-3.6-2.75A2.74,2.74,0,0,0,359.47,127.75Z"/><path class="cls-4" d="M271.26,142.44c5.85,2,11.31-2.06,12-7.93a13.63,13.63,0,0,0-1.16-7.61c-1.24-2.5-4.23-4.7-7-3.33a9.39,9.39,0,0,0-2.65.27,9.76,9.76,0,0,0-6.13,4.87C263.65,133.77,265.67,140.5,271.26,142.44Zm1.81-11.09a4.62,4.62,0,0,1,1.5-1.19,4.93,4.93,0,0,1,.42.58,5,5,0,0,1,.34,2.47c0,1.17-.5,2.79-2.08,1.86C272,134.34,272.31,132.31,273.07,131.35Z"/><path class="cls-4" d="M260.57,167.3c6.06,0,6.07-9.41,0-9.41S254.51,167.3,260.57,167.3Z"/><path class="cls-4" d="M305.51,241.43c4.67,3.52,6.72,9.66,13.14,10.75a7,7,0,0,0,5-.89c3.72-2.39,2.94-8.89,10.11-5.36,2.35,1.16,4.05,3.17,6.66,3.89a11.24,11.24,0,0,0,7.15-.48c6.14-2.35,9.11-8.49,10.57-14.5a118.48,118.48,0,0,0,3.35-27.55c0-1.95-2.77-1.86-3,0-1,9.16-1.38,18.49-3.74,27.44-1.15,4.4-3.18,8.88-7.39,11.09-5.32,2.79-8.36-.85-12.57-3.16-2.06-1.13-4.61-1.94-6.95-1.19-2.65.85-2.87,2.71-4.31,4.66-6.31,8.51-13-6.47-18.41-8.89-9.38-4.24-13.66,7.26-18.52,12.65-7.28,8.07-13.49-1.86-15.19-9.08-2.05-8.73-.34-17.32-.73-26.11a.81.81,0,0,0-1.59-.21c-3.05,11.15-4.07,29,4.37,38.29,7.18,7.85,14.49,1.27,19-5.33C295.65,242.93,299.58,237,305.51,241.43Z"/><path class="cls-4" d="M268.52,334a7.41,7.41,0,0,1-11.42,1.75c-3.36-3-4.23-7.64-4.32-11.88-.18-7.72.58-15.56.81-23.28,0-1.15-1.63-1.09-1.75,0-.78,7.14-1.86,14.35-2.06,21.54-.14,4.8.47,9.79,3.38,13.77,4.12,5.62,15.34,7.62,17.1-1.17A1,1,0,0,0,268.52,334Z"/><path class="cls-4" d="M244.74,396.12c-1,7.73-5.87,15.07-14.87,12.87-6.34-1.55-9.34-7.84-10.53-13.7-2.65-13-.41-27.83,2-40.64,1.31-6.86,3-16.85-7.29-15.63-1.69.2-3.95,1.17-5.63.86-4.92-.92-4-7.08-3.91-10.66a77.89,77.89,0,0,1,3.92-21.07c.29-.92-1.16-1.57-1.58-.67a56.38,56.38,0,0,0-5.12,22.61c-.1,4.17-.6,10.68,4.31,12.36,2,.68,4.12.15,6.11-.16,3.09-.49,6.23-1.69,7.56,3.14.52,1.92-.56,4.67-1,6.55a159.28,159.28,0,0,0-3.25,24.69c-.58,11.13-1.4,28.22,10.45,34.26,9.81,5,24.18-3.39,21.1-15.12C246.71,394.4,244.91,394.88,244.74,396.12Z"/><path class="cls-4" d="M358.41,361.22a112.08,112.08,0,0,1-5.61,38.69c-2.07,6.15-6.35,13.4-13.72,13.62-5.09.15-9.37-3.64-13.83-5.55-6.07-2.59-11.8-1.07-14.77,5-1.69,3.45-2.21,7.41-4.12,10.76A7.91,7.91,0,0,1,292,417.2c.36-1.07-1.25-1.45-1.66-.45-4,9.76,7.14,19.17,15.74,12.13,3.34-2.73,4.45-7.09,5.78-11,1.09-3.17,2.42-7.07,6.1-8,3.47-.89,6.93,1.3,9.84,2.88,4.51,2.46,9.17,4.85,14.45,3.45s9.2-5.6,11.56-10.29c3.28-6.51,4.69-14.2,6.19-21.27,1.62-7.62,3.11-16.12,1.13-23.78A1.38,1.38,0,0,0,358.41,361.22Z"/><path class="cls-4" d="M386.11,273.64c2.14,7.95,3.85,16.37,1.13,24.44-1.62,4.8-6.5,10.22-12.12,7.43-2.38-1.18-3.71-3.5-6.47-4-4.83-.91-7.94,3.59-10.18,7.09-3.14,4.92-8.56,6.71-12.28,1.17-2.45-3.64-2.32-9-2.08-13.14,0-.83-1.17-.78-1.27,0-1,7.24-1.49,17.74,7.86,19.72,3.26.69,6.1-.7,8.24-3.09a49.63,49.63,0,0,0,3.29-4.84c1.82-2.59,2.68-3.46,6-2.73,2.93.64,2.26.64,4.14,1.75,6.66,3.94,13.76.78,17-6.07,4.05-8.6,3.29-20.34-.92-28.69C387.76,271.38,385.75,272.28,386.11,273.64Z"/></svg>