<svg id="Layer_1" data-name="Layer 1" xmlns="http://www.w3.org/2000/svg" viewBox="0 0 600 600"><defs><style>.cls-1{fill:#88e0ff;}.cls-2{fill:#231f20;}</style></defs><title>doodle</title><path class="cls-1" d="M368.63,576a7.09,7.09,0,0,1-1.22-.1c-22.47-3.53-39.63-13.18-52.49-29.5-11.08-14.08-18-31.78-24-47.81-9.29,1.53-37.62,5.83-61.26,5.83-13,0-22.22-1.27-28.32-3.88-15.64-6.7-32.88-24.85-49.86-52.5-16.32-26.56-31.35-60-43.49-96.74C95.26,312.7,86.55,272.75,82.83,235.79c-4.2-41.73-2.09-78.3,6.28-108.69C94,109.47,104.22,93.61,119.6,80c13.91-12.33,32-22.87,53.84-31.33,38.4-14.89,88.08-23.09,139.87-23.09,37.23,0,73.23,4.32,101.37,12.18,21.16,5.91,48.08,16.7,56.21,34.57,8.72,19.22,11.9,56.45,13,84.3,1.5,37.1.38,81.63-3.17,125.4-3.74,46.19-9.81,88.19-17.55,121.46-8.89,38.19-19.45,62.68-31.4,72.8-16.23,14.31-64.92,16.36-77.47,16.65a96.15,96.15,0,0,0-2.26,24.46c.8,19.6,7.93,34.82,21.17,45.22a7.38,7.38,0,0,1,2.45,8.33A7.5,7.5,0,0,1,368.63,576Z"/><path class="cls-2" d="M313.31,29.27c74.48,0,141.77,17.27,154.18,44.58,28.19,62.05,9.95,359-38.14,399.58-17.41,15.42-77.94,15.8-77.94,15.8s-14.72,49.41,19.52,76.29a3.8,3.8,0,0,1-2.3,6.77,4.72,4.72,0,0,1-.64,0c-47.67-7.49-61.15-41.58-74.63-77.82,0,0-35.56,6.29-63.67,6.29-10.91,0-20.71-.95-26.86-3.58-61.73-26.42-145-242.52-110.13-369,19.5-70.84,125.86-98.82,220.61-98.82m0-7.45c-52.24,0-102.39,8.29-141.22,23.34-22.23,8.63-40.72,19.4-55,32-15.93,14.12-26.57,30.58-31.62,48.92C77,157,74.87,194,79.12,236.16c3.74,37.23,12.51,77.45,25.36,116.33,12.23,37,27.39,70.72,43.85,97.52,12.13,19.75,30.91,45.13,51.57,54,6.57,2.82,16.32,4.19,29.79,4.19,21.72,0,47.3-3.58,58.83-5.39,12.53,33.29,28.38,69,78.31,76.83a12.13,12.13,0,0,0,1.8.14,11.25,11.25,0,0,0,10.58-7.61,11.1,11.1,0,0,0-3.67-12.48C351.72,541,355,509,357.36,496.55c6.1-.21,16.24-.73,27.35-2,24.8-2.9,41-7.95,49.51-15.44,6.78-5.75,12.87-15.26,18.62-29.05,5-12.1,9.74-27.49,14-45.73,7.79-33.44,13.88-75.63,17.64-122,3.55-43.92,4.68-88.61,3.18-125.85-1.14-28.18-4.38-65.93-13.36-85.69-3.66-8.06-11-15.4-21.84-21.81-9.64-5.71-22-10.69-36.76-14.81-28.45-7.95-64.81-12.32-102.37-12.32Z"/></svg>