<svg id="Layer_1" data-name="Layer 1" xmlns="http://www.w3.org/2000/svg" viewBox="0 0 600 600"><defs><style>.cls-1{fill:#fff;}.cls-2{fill:#58595b;}.cls-3{fill:#231f20;}</style></defs><title>doodle</title><path class="cls-1" d="M269.26,380.11c-7.11,9.69-14,20.49-22.28,29.54q19.4,11.94,39.71,22.3,5.22,2.66,10.48,5.18c3.53-7.07,7.51-13.94,11.3-20.87,7.27-13.26,14.6-26.48,21.7-39.83s14.29-26.64,21.56-39.91q5.86-10.71,11.72-21.42c3.08-5.62,5.74-11.85,10.07-16.62-10.92-7.68-21.72-15.57-32.22-23.82-13.8,23.67-30.21,46.28-45.77,68.67Q282.63,361.9,269.26,380.11Z"/><path class="cls-1" d="M353.27,360.43c8.3,0,14.69,7.52,13.43,16.23-1.64,11.36-14,19.73-19.7,29.18-7.1,11.72-10.92,24.89-17.4,36.86a29.23,29.23,0,0,1-5,6.8q15.35,6.5,31,12.22c.77-1.92,1.67-3.85,2.46-5.8,2.33-5.77,4.8-11.48,7.3-17.17,5.52-12.57,10.94-25.17,16.44-37.74,5.71-13.09,11.52-26.13,17.22-39.22,5.11-11.73,9.36-24.7,15.77-35.87-10.52-6.54-20.85-13.37-31.06-20.38-1.75,5.26-5,10-7.71,14.86q-5.16,9.11-10.3,18.21Q359.49,349.53,353.27,360.43Z"/><path class="cls-1" d="M277.83,275.17q-8,8.82-16,17.69c3,.79,5.47,3.49,4.94,6.86l3.44,2.54c2.59,1.94,4.43,5.7,2.3,8.77-10,14.41-20.54,28.45-31.73,42-8.56,10.33-18.25,24.21-29.82,32.53q13.26,9.67,27.08,18.59c6.89-11.27,16-21.66,23.61-32.27q12.71-17.65,25-35.61c15.54-22.77,29.43-46.65,44.72-69.55-8.5-7-16.79-14.28-24.73-21.92L304.83,243c-2.26,6.09-6.66,10.11-11.18,15Q285.72,266.53,277.83,275.17Z"/><path class="cls-1" d="M225.69,262c3.84,11.21-5.47,21.59-13.49,28.08-9.93,8.05-21.65,13.15-32.73,19.32a96.66,96.66,0,0,0-18.38,12.94c-3.85,3.5-7.13,7.58-10.72,11.33q16.53,16.56,34.56,31.54c6.65-10,15.46-19.12,22.9-28.08q15-18,30.21-35.75Q253.85,283,270,265c8.14-9.11,17-23.08,28.59-28.25a306.62,306.62,0,0,1-24.33-28.1c-17.23,16.08-36,31-54.77,45.47A15.86,15.86,0,0,1,225.69,262Z"/><path class="cls-1" d="M394.58,404.56c-5.86,13-11.92,25.91-17.95,38.83-2.89,6.2-5.82,12.37-8.94,18.46-.62,1.21-1.19,2.41-1.78,3.59Q391.13,474.2,417,481c.13-7.49,2.28-14.88,4.48-22.11,3.48-11.39,7.39-22.65,11.14-34,7.8-23.56,15.85-47,23.82-70.54a6.75,6.75,0,0,1,3-3.74c-11.33-5.43-22.37-11.42-33.18-17.79-3.83,11.69-10,23-15,34.15Q403,385.82,394.58,404.56Z"/><path class="cls-1" d="M168.24,216.88q-20.64,11.24-41,23c-7.27,4.2-14.48,8.5-21.73,12.74-4.71,2.75-9.47,6.14-14.62,8.2a456.41,456.41,0,0,0,36,47.6c8.25-8.74,20.42-15.71,29.3-22.44,12.83-9.74,25.64-19.5,38.26-29.51,24.27-19.25,47.35-40,71.59-59.28a237.49,237.49,0,0,1-14.17-23.66c-.08-.14-.15-.29-.22-.43-12.07,9.22-28.34,14.9-41.8,21.84Q188.93,205.7,168.24,216.88Z"/><path class="cls-1" d="M457.6,401.73c2.79.17,5.28,1.91,5.07,5.23,4.71,8.34.19,19.05-2.28,27.32q-5.08,17-10.23,34l-4.87,16.19c-.3,1-.56,2.13-.83,3.31q9.8,2.22,19.63,4.23c-1-9.36,2.18-19.61,3.79-28.65q3.28-18.51,7.1-36.92c2.52-12.27,5.12-24.54,8.11-36.71,2.09-8.49,3.85-17.65,7.27-25.9-6.87-2.54-13.65-5.32-20.34-8.28a6.73,6.73,0,0,1-.36,2.47q-7.28,21.29-14.54,42.59A12.18,12.18,0,0,1,457.6,401.73Z"/><path class="cls-1" d="M162,174.82c-6.84,8-19.77,12.23-29,16.7-11.94,5.77-24.06,11.18-36.39,16.06-8.86,3.5-20.41,10-30.57,10.36q8.88,17.53,19.31,34.23c3.84-3.41,8.45-6,12.85-8.75,6.62-4.19,13.34-8.24,20-12.27q20.87-12.53,42.07-24.5T203,183.31q10.41-5.46,20.88-10.79c7.2-3.66,14.51-8.27,22.39-10.26a203.71,203.71,0,0,1-11.4-30,7,7,0,0,1-1.16.58q-34.62,13.76-69.24,27.47A14.18,14.18,0,0,1,162,174.82Z"/><path class="cls-1" d="M500.21,444.17l-7.77,53.18,3.8.65c8.09,1.35,16.22,2.46,24.35,3.49-1.86-9.82.72-22.21,1-31.74q.64-18.81.87-37.64c.16-12.55.21-25.1.24-37.65,0-5-1.3-14.33.87-20.41-4.85-1.23-9.61-2.57-14.16-3.88q-4.21-1.23-8.38-2.6c-.91,8.67-3.41,17.4-5.16,25.72Q494,402.54,492,411.81C505.38,416.47,501.81,433.21,500.21,444.17Z"/><path class="cls-1" d="M567,507.59c-2.5-9.18-2.84-19.92-4.09-28.48q-2.72-18.63-4.79-37.34c-1.44-13-2.69-26-3.46-39-.45-7.75-1.33-15.93-1.06-23.92a117.6,117.6,0,0,1-19.39-2.37,80.22,80.22,0,0,1,.84,9.47c.94,13.63.71,27.43.64,41.08q-.1,21.39-.74,42.77c-.31,10.25,1.19,23.13-2,33.27C544.29,504.4,555.65,505.78,567,507.59Z"/><path class="cls-1" d="M139.88,156Q185,137.68,230,119.26a7.81,7.81,0,0,1,1.74-.47,111,111,0,0,1-1.86-18.35c-35.38,3.11-69.56,13.41-103.88,22-17.09,4.28-34.28,8.11-51.76,10.46-12.45,1.68-27,3.89-40.07,2.18,6.12,18.32,11.69,36.76,18.93,54.67C81.42,177.29,111.19,167.67,139.88,156Z"/><path class="cls-2" d="M69.65,294.43c55.9,76.68,136.62,133.87,221.1,175.15,42.3,20.67,86.34,37.56,131.25,51.61,48.08,15,98.85,30.89,149.75,27.61a100.13,100.13,0,0,0-3.55-26.18l-.36,0c-28.38-.31-57.25-5.43-85.15-10.37a787.21,787.21,0,0,1-81.48-18.89c-92.12-26.61-179.61-71-249.44-137.4a476.15,476.15,0,0,1-83-104.17C51.68,222.64,35.87,189.73,27.9,156a138.76,138.76,0,0,0-1.74,17.73,157.1,157.1,0,0,0,5.08,43.64C38.35,245.48,52.67,271.13,69.65,294.43Z"/><path class="cls-3" d="M576.86,480.52q-3-20.16-5.21-40.44c-1.35-12.44-2.39-24.9-3.44-37.36-.7-8.28-2.49-15.72-1.91-25.62.65-6.38,2.49-13.08-1.84-13.64l-7.07-1.41c-12-2.16-24.18-3.28-36.1-6.36a278.88,278.88,0,0,1-42.37-14.75c-26.79-11.75-52.09-26.8-76.49-42.88-49.18-32.4-98.46-68.94-130.2-119.58a207.52,207.52,0,0,1-21.16-44c-5.07-15.11-7.41-30.64-10.66-46.17-.72-3.44-3.67-4.25-6.2-3.33a7.54,7.54,0,0,0-3.34-.41c-35.16,3-68.85,12.78-102.78,21.88L44.7,120.15c-4.22.84-16.3,1.45-21.77,11.7-3.75,6.25-5.43,15.36-6.59,20.7a140.38,140.38,0,0,0-2.63,37.93c1.57,26.23,9.66,51.35,21.65,74.62,23.56,45.73,60.6,85.29,99,119,75.7,66.33,167.13,112,261.88,144.44,27.29,9.34,55,17.7,82.92,24.83,32.64,8.32,66.5,14.38,100.25,10.61,4.43-.5,7.63-3.22,7.89-7.89Zm-42-10.77q.63-21.37.74-42.77c.07-13.65.3-27.45-.64-41.08a80.22,80.22,0,0,0-.84-9.47,117.6,117.6,0,0,0,19.39,2.37c-.27,8,.61,16.17,1.06,23.92.77,13,2,26.06,3.46,39q2.05,18.71,4.79,37.34c1.25,8.56,1.59,19.3,4.09,28.48-11.3-1.81-22.66-3.19-34-4.57C536.09,492.88,534.59,480,534.9,469.75Zm-39-76.46c1.75-8.32,4.25-17.05,5.16-25.72q4.17,1.37,8.38,2.6c4.55,1.31,9.31,2.65,14.16,3.88-2.17,6.08-.85,15.39-.87,20.41,0,12.55-.08,25.1-.24,37.65s-.44,25.1-.87,37.64c-.32,9.53-2.9,21.92-1,31.74-8.13-1-16.26-2.14-24.35-3.49l-3.8-.65,7.77-53.18c1.6-11,5.17-27.7-8.23-32.36Q493.95,402.55,495.91,393.29ZM470,355.57c6.69,3,13.47,5.74,20.34,8.28-3.42,8.25-5.18,17.41-7.27,25.9-3,12.17-5.59,24.44-8.11,36.71s-4.91,24.58-7.1,36.92c-1.61,9-4.78,19.29-3.79,28.65q-9.84-2-19.63-4.23c.27-1.18.53-2.31.83-3.31l4.87-16.19q5.11-17,10.23-34c2.47-8.27,7-19,2.28-27.32.21-3.32-2.28-5.06-5.07-5.23a12.18,12.18,0,0,0-2.48-1.1q7.29-21.28,14.54-42.59A6.73,6.73,0,0,0,470,355.57Zm-10.61-4.92a6.75,6.75,0,0,0-3,3.74c-8,23.51-16,47-23.82,70.54-3.75,11.31-7.66,22.57-11.13,34-2.21,7.23-4.36,14.62-4.49,22.11q-25.82-6.86-51.08-15.56c.59-1.18,1.16-2.38,1.78-3.59,3.12-6.09,6.05-12.26,8.94-18.46,6-12.92,12.09-25.83,17.95-38.83Q403,385.83,411.28,367c4.91-11.11,11.12-22.46,15-34.15C437,339.23,448.08,345.22,459.41,350.65Zm-75.73-45.11c10.21,7,20.54,13.84,31.06,20.38-6.41,11.17-10.66,24.14-15.77,35.87-5.7,13.09-11.51,26.13-17.22,39.22-5.5,12.57-10.92,25.17-16.44,37.74-2.5,5.69-5,11.4-7.3,17.17-.79,1.95-1.69,3.88-2.46,5.8q-15.65-5.72-31-12.22a29.23,29.23,0,0,0,5-6.8c6.48-12,10.3-25.14,17.4-36.86,5.73-9.45,18.06-17.82,19.7-29.18,1.26-8.71-5.13-16.22-13.43-16.23q6.23-10.89,12.4-21.82,5.15-9.11,10.3-18.21C378.7,315.56,381.93,310.8,383.68,305.54Zm-10.16-7.06c-4.33,4.77-7,11-10.07,16.62q-5.85,10.71-11.72,21.42-10.91,19.91-21.56,39.91c-7.1,13.35-14.43,26.57-21.7,39.83-3.79,6.93-7.77,13.8-11.3,20.87q-5.25-2.53-10.48-5.18-20.31-10.33-39.71-22.3c8.24-9,15.17-19.85,22.28-29.54q13.37-18.21,26.27-36.78c15.56-22.39,32-45,45.77-68.67C351.8,282.91,362.6,290.8,373.52,298.48Zm-66.87-53.73c7.94,7.64,16.23,14.9,24.73,21.92-15.29,22.9-29.18,46.78-44.72,69.55q-12.27,18-25,35.61c-7.63,10.61-16.72,21-23.61,32.27q-13.83-8.88-27.08-18.59c11.57-8.32,21.26-22.2,29.82-32.53,11.19-13.5,21.73-27.54,31.73-42,2.13-3.07.29-6.83-2.3-8.77l-3.44-2.54c.53-3.37-1.91-6.07-4.94-6.86q7.94-8.88,16-17.69,7.88-8.64,15.82-17.22c4.52-4.88,8.92-8.9,11.18-15Zm-32.39-36.12a306.62,306.62,0,0,0,24.33,28.1C287,241.9,278.14,255.87,270,265q-16.14,18.07-32,36.44-15.28,17.73-30.21,35.75c-7.44,9-16.25,18.09-22.9,28.08q-18-15-34.56-31.54c3.59-3.75,6.87-7.83,10.72-11.33a96.66,96.66,0,0,1,18.38-12.94c11.08-6.17,22.8-11.27,32.73-19.32,8-6.49,17.33-16.87,13.49-28.08a15.86,15.86,0,0,0-6.2-7.94C238.24,239.59,257,224.71,274.26,208.63Zm-22.64-35.54c.07.14.14.29.22.43A237.49,237.49,0,0,0,266,197.18c-24.24,19.23-47.32,40-71.59,59.28-12.62,10-25.43,19.77-38.26,29.51-8.88,6.73-21,13.7-29.3,22.44a456.41,456.41,0,0,1-36-47.6c5.15-2.06,9.91-5.45,14.62-8.2,7.25-4.24,14.46-8.54,21.73-12.74q20.36-11.76,41-23t41.58-21.95C223.28,188,239.55,182.31,251.62,173.09Zm-17.88-40.27a7,7,0,0,0,1.16-.58,203.71,203.71,0,0,0,11.4,30c-7.88,2-15.19,6.6-22.39,10.26q-10.47,5.34-20.88,10.79-21.54,11.33-42.71,23.34t-42.07,24.5c-6.71,4-13.43,8.08-20,12.27-4.4,2.78-9,5.34-12.85,8.75Q74.94,235.51,66,217.94c10.16-.39,21.71-6.86,30.57-10.36,12.33-4.88,24.45-10.29,36.39-16.06,9.26-4.47,22.19-8.66,29-16.7a14.18,14.18,0,0,0,2.47-14.53Q199.14,146.58,233.74,132.82Zm-159.5.07c17.48-2.35,34.67-6.18,51.76-10.46,34.32-8.58,68.5-18.88,103.88-22a111,111,0,0,0,1.86,18.35,7.81,7.81,0,0,0-1.74.47Q184.94,137.62,139.88,156c-28.69,11.66-58.46,21.28-86.78,33.73-7.24-17.91-12.81-36.35-18.93-54.67C47.27,136.78,61.79,134.57,74.24,132.89ZM422,521.19c-44.91-14.05-88.95-30.94-131.25-51.61-84.48-41.28-165.2-98.47-221.1-175.15-17-23.3-31.3-49-38.41-77.06a157.1,157.1,0,0,1-5.08-43.64A138.76,138.76,0,0,1,27.9,156c8,33.73,23.78,66.64,40.85,95.82a476.15,476.15,0,0,0,83,104.17c69.83,66.43,157.32,110.79,249.44,137.4a787.21,787.21,0,0,0,81.48,18.89c27.9,4.94,56.77,10.06,85.15,10.37l.36,0a100.13,100.13,0,0,1,3.55,26.18C520.85,552.08,470.08,536.22,422,521.19Z"/></svg>