<svg id="Layer_1" data-name="Layer 1" xmlns="http://www.w3.org/2000/svg" viewBox="0 0 600 600"><defs><style>.cls-1{fill:#fff;}.cls-2{fill:#a97c50;}.cls-3{fill:#754c29;}.cls-4{fill:#231f20;}</style></defs><title>doodle</title><path class="cls-1" d="M315.94,296.85l-3.12-3.8,3,5.12Q315.83,297.51,315.94,296.85Z"/><path class="cls-2" d="M351,438.28a617.47,617.47,0,0,1-109.18-3.1c-8.37-1-16.71-2.17-25-3.42,3.66,16.24,5.25,33.06,7.46,49.49,2.43,18,4.7,36,7.28,54,1.13,7.83,2.81,14.11,8.91,19.57C245,559,250.57,562.26,256,565.2A124.34,124.34,0,0,0,294.06,578c27.07,4.69,55.32,1.25,81.41-6.76,12.64-3.88,29.2-8.18,37.34-19.43s9.21-27.29,11.73-40.41l9.48-49.2c2.61-13.53,4.08-28.21,7.88-41.67-10.29,6.1-21.89,9.42-34,11.48A524,524,0,0,1,351,438.28Zm36.17,112.78c-18.88,12-47.15,10.85-68.21,6.72a.77.77,0,0,1,.2-1.51,166,166,0,0,0,35.37-.72c10.87-1.42,21.28-5.08,32.14-6.33C387.66,549.1,387.87,550.58,387.12,551.06Zm9.76-3.09a18.27,18.27,0,0,1-4.67,1.53c-1.14.25-1.93-1.37-.82-2a27.86,27.86,0,0,0,3.76-2.54c1.15-.86,2.22-2,3.72-2a1.33,1.33,0,0,1,1.27,1.66C399.9,546.25,398.19,547.29,396.88,548Z"/><path class="cls-3" d="M224.62,65C199.5,64,174,63.19,149,59.76a5.85,5.85,0,0,1,.49,2.47c-.09,6.59,2,13.2,7.21,17.59,6.5,5.52,15.85,5.27,23.89,5.74q24.52,1.43,49.07,2.7C262.91,90,296.2,91.4,329.5,92.1s66.6.58,99.86-.76c12.57-.51,28.93.7,39.92-6.74,8.91-6,10.32-16.47,10.49-26.63-56.12,6.26-112.88,8.32-169.32,8.54Q267.52,66.68,224.62,65Z"/><path class="cls-3" d="M312.06,51.34c47.53-.69,94.87-3.57,142.22-7-13.46-20.75-37.74-23-61.88-23.57q-43.32-1.08-86.66.86c-29.4,1.33-58.71,3.82-88,7.1-6.37.71-12.73,1.49-19.1,2.22-6.81.77-16.25.13-21.82,4.71-3.9,3.21-5.71,8.35-8.39,12.55,19.8.67,39.62,2,59.37,2.57Q270,52,312.06,51.34Z"/><path class="cls-1" d="M230.44,188.19c-18.85-.71-42.62-1.05-61-9.18-.68,3,.37,6.35.85,9.4.75,4.84,1.45,9.68,2.19,14.51q2,12.89,4,25.77c2.83,18.27,5.56,36.55,8.41,54.81q7.56,48.35,15.68,96.6,2.16,12.87,4.37,25.73c.51,2.95.43,7.6,2.68,9.54s6.46,1.75,9.37,2.18c16.07,2.42,32.29,3.93,48.5,4.93a659,659,0,0,0,95-1c15.28-1.26,30.66-2.72,45.76-5.49,12.7-2.33,25.59-5.87,35.46-14.61l.3-.24c6.56-73.84,13.27-147.67,19.58-221.54q-76,7.59-152.43,8.86C282.9,189,256.62,189.18,230.44,188.19Zm-33.12,81.35c-4.92-9.11-6-20.87-7.83-31-1.89-10.52-3.35-21.09-4.28-31.74-.08-1,1.47-1.14,1.67-.22,2.36,10.79,4.58,21.61,7,32.39,2.12,9.65,6,20,5.87,29.89A1.3,1.3,0,0,1,197.32,269.54Zm8.93,43.37a1.51,1.51,0,0,1-2.73.35c-1.84-3.38-2-7.5-2.56-11.26s-1.62-7.75-1.5-11.65a1.52,1.52,0,0,1,2.82-.76c1.93,3.7,2.59,7.94,3.34,12C206.3,305.28,207.23,309.25,206.25,312.91Zm238.3-106.85c.27-1.39,2.45-1,2.42.33-.58,26.72-3.32,53.59-6.59,80.06a1.12,1.12,0,0,1-2.24,0C437.81,259.72,439.49,232.43,444.55,206.06ZM433.41,328.34c.9-5.63,1-11.33,1.85-16.95.17-1.11,1.83-1,2.1,0,2.86,10.09,1.21,23.81-4.23,32.79-.69,1.13-2.91.78-2.71-.73C431.09,338.34,432.6,333.42,433.41,328.34ZM335.2,250.52c5.78-6.9,17.35-17.78,24.92-7.39,9.35,12.85,5.37,31,.3,44.57-6.8,18.26-14.25,36.22-20.54,54.69a3,3,0,0,1-4.89,1.29c-16.43-13.38-36.44-29.17-48.22-48.55a63.91,63.91,0,0,1-9.44-18.83c-2.43-8.35-2.7-29.52,12-25.25,6.7,1.95,12.92,11.2,17.2,16.2a199.83,199.83,0,0,1,12.4,16.15C322.74,271.73,327.27,260,335.2,250.52Z"/><path class="cls-2" d="M454.74,134.18c.56-7,1-14,1.66-21,.34-3.61.42-6.6,1.81-9.14l-.22,0c-13.69,2.28-27.87,2.21-41.72,2.64q-22.9.69-45.83.51c-31.68-.2-63.35-1.3-95-3-31.11-1.72-62.19-3.89-93.27-6-1.93-.13-3.89-.25-5.84-.4,3.95,9.64,4.29,22.51,5.56,31.91q2.75,20.31,4.53,40.71c4,.62,7.91,1.22,11.83,1.66,12.21,1.36,24.49,1.83,36.77,2,25.76.44,51.56-.06,77.31-.85,46.7-1.45,93.38-4.48,139.9-8.82-.22-2.85.46-6,.74-9.16C453.63,148.19,454.19,141.18,454.74,134.18Zm-57.86-7.36c-10.35.58-20.79-.52-31.16-.44-9.39.08-18.78.37-28.17.62-18.94.48-37.54.24-56.15-3.59-1.4-.29-.78-2.32.58-2.1,19.88,3.18,40.22,2.58,60.26,1.64,17.76-.83,37.64-3.5,55,1.29A1.32,1.32,0,0,1,396.88,126.82Zm32.36.94c-4.89,1.66-10.93.54-15.94-.07a1.18,1.18,0,0,1,0-2.36c5.1-.15,11-1.18,15.94.2A1.17,1.17,0,0,1,429.24,127.76Z"/><path class="cls-4" d="M481.79,42.47a8.85,8.85,0,0,0-1.56,0l-9.75.73c-7.54-25.8-38-34.77-61.73-36.45-32.5-2.3-65.7-.84-98.2.85-32.65,1.69-65.24,4.66-97.62,9.15-7.41,1-14.79,2.17-22.15,3.47C184.33,21.31,177.36,22,171.9,26c-6.25,4.49-11.58,14-14.14,22-4.67-.09-9.34-.14-14-.1-2.8,0-5.88,2.55-5.58,5.58.23,2.35.43,4.71.7,7.06a6.24,6.24,0,0,0-.43,1.75A31.82,31.82,0,0,0,149.08,89c5.14,4.47,11.24,6.55,17.64,7.65-.61,4.63.28,9.52.7,14.14.64,6.86,1.4,13.7,2.12,20.55C170.85,143.65,172,156,173,168.42c-1.7-.2-3.4-.35-5.09-.47a5.48,5.48,0,0,0-5.33-.23c-.52,0-1,0-1.56,0-2.84,0-3.69,3.11-2.23,5-5.28,11.2,0,27.2,1.59,38.59q3.79,27.49,7.93,54.92,8.4,55.65,17.6,111.19,2.13,12.87,4.3,25.74c1.19,7,1.13,16.81,6.39,22.33,2.48,2.61,5.84,3.88,9.37,4.64.38,17.66,3.36,35.38,5.58,52.85,2.28,18,4.52,36.06,6.85,54.09,2.07,16,8.6,25.63,21.9,34.64a129.32,129.32,0,0,0,38.8,17.47c29,7.78,59.91,6.43,89-.33,14.77-3.44,30.83-7.86,43.78-16,12.63-7.9,19.17-20.27,22.6-34.43,4.87-20.12,7.81-40.87,11.61-61.21q3-15.9,5.93-31.8c1.87-10,4.6-20.27,4.8-30.51a7.26,7.26,0,0,0-.12-1.43,8.29,8.29,0,0,0,.19-1.09c.29-3.15.66-6.54.92-10a1.47,1.47,0,0,0,.05-.29c6.86-77.14,13.53-154.3,20.69-231.42.38-4.06-4-8.49-8.09-8.08l-4.25.41c.14-1.43.2-3,.34-4.59q.9-10.5,1.66-21c.51-7,.94-14,1.25-21,.24-5.35,1.33-10.62-2.36-14.55,8.74-2.93,16.51-8.11,21.36-16.4,6.57-11.22,6.84-25.3,5.5-37.87C493.18,40.88,485.53,39,481.79,42.47Zm-304.92-6.8c5.57-4.58,15-3.94,21.82-4.71,6.37-.73,12.73-1.51,19.1-2.22,29.24-3.28,58.55-5.77,88-7.1q43.29-2,86.66-.86c24.14.6,48.42,2.82,61.88,23.57-47.35,3.42-94.69,6.3-142.22,7Q270,52,227.85,50.79c-19.75-.55-39.57-1.9-59.37-2.57C171.16,44,173,38.88,176.87,35.67ZM434,462.22l-9.48,49.2c-2.52,13.12-3.65,29.25-11.73,40.41s-24.7,15.55-37.34,19.43c-26.09,8-54.34,11.45-81.41,6.76A124.34,124.34,0,0,1,256,565.2c-5.42-2.94-11-6.23-15.61-10.35-6.1-5.46-7.78-11.74-8.91-19.57-2.58-18-4.85-36-7.28-54-2.21-16.43-3.8-33.25-7.46-49.49,8.33,1.25,16.67,2.43,25,3.42A617.47,617.47,0,0,0,351,438.28a524,524,0,0,0,57-6.25c12.07-2.06,23.67-5.38,34-11.48C438.1,434,436.63,448.69,434,462.22Zm7.93-61-.3.24c-9.87,8.74-22.76,12.28-35.46,14.61-15.1,2.77-30.48,4.23-45.76,5.49a659,659,0,0,1-95,1c-16.21-1-32.43-2.51-48.5-4.93-2.91-.43-7.06-.2-9.37-2.18s-2.17-6.59-2.68-9.54q-2.2-12.87-4.37-25.73-8.13-48.25-15.68-96.6c-2.85-18.26-5.58-36.54-8.41-54.81q-2-12.87-4-25.77c-.74-4.83-1.44-9.67-2.19-14.51-.48-3-1.53-6.41-.85-9.4,18.38,8.13,42.15,8.47,61,9.18,26.18,1,52.46.76,78.66.32q76.39-1.31,152.43-8.86C455.22,253.52,448.51,327.35,442,401.19Zm10.31-236.84c-46.52,4.34-93.2,7.37-139.9,8.82-25.75.79-51.55,1.29-77.31.85-12.28-.2-24.56-.67-36.77-2-3.92-.44-7.87-1-11.83-1.66q-1.75-20.42-4.53-40.71c-1.27-9.4-1.61-22.27-5.56-31.91,1.95.15,3.91.27,5.84.4,31.08,2.16,62.16,4.33,93.27,6,31.62,1.74,63.29,2.84,95,3q22.92.15,45.83-.51c13.85-.43,28-.36,41.72-2.64l.22,0c-1.39,2.54-1.47,5.53-1.81,9.14-.65,7-1.1,14-1.66,21s-1.11,14-1.74,21C452.72,158.38,452,161.5,452.26,164.35Zm17-79.75c-11,7.44-27.35,6.23-39.92,6.74-33.26,1.34-66.58,1.46-99.86.76S262.91,90,229.64,88.26Q205.1,87,180.57,85.56c-8-.47-17.39-.22-23.89-5.74-5.18-4.39-7.3-11-7.21-17.59a5.85,5.85,0,0,0-.49-2.47C174,63.19,199.5,64,224.62,65q42.88,1.7,85.83,1.52c56.44-.22,113.2-2.28,169.32-8.54C479.6,68.13,478.19,78.57,469.28,84.6Z"/><path class="cls-4" d="M440.38,286.45c3.27-26.47,6-53.34,6.59-80.06,0-1.36-2.15-1.72-2.42-.33-5.06,26.37-6.74,53.66-6.41,80.39A1.12,1.12,0,0,0,440.38,286.45Z"/><path class="cls-4" d="M433.13,344.18c5.44-9,7.09-22.7,4.23-32.79-.27-1-1.93-1.11-2.1,0-.89,5.62-.95,11.32-1.85,16.95-.81,5.08-2.32,10-3,15.11C430.22,345,432.44,345.31,433.13,344.18Z"/><path class="cls-4" d="M289.31,251.05c-14.68-4.27-14.41,16.9-12,25.25a63.91,63.91,0,0,0,9.44,18.83c11.78,19.38,31.79,35.17,48.22,48.55a3,3,0,0,0,4.89-1.29c6.29-18.47,13.74-36.43,20.54-54.69,5.07-13.59,9.05-31.72-.3-44.57-7.57-10.39-19.14.49-24.92,7.39-7.93,9.47-12.46,21.21-16.29,32.88a199.83,199.83,0,0,0-12.4-16.15C302.23,262.25,296,253,289.31,251.05Z"/><path class="cls-4" d="M193.85,239c-2.39-10.78-4.61-21.6-7-32.39-.2-.92-1.75-.74-1.67.22.93,10.65,2.39,21.22,4.28,31.74,1.8,10.1,2.91,21.86,7.83,31a1.3,1.3,0,0,0,2.4-.65C199.82,259,196,248.65,193.85,239Z"/><path class="cls-4" d="M202.28,289.59a1.52,1.52,0,0,0-2.82.76c-.12,3.9.9,7.8,1.5,11.65s.72,7.88,2.56,11.26a1.51,1.51,0,0,0,2.73-.35c1-3.66.05-7.63-.63-11.31C204.87,297.53,204.21,293.29,202.28,289.59Z"/><path class="cls-4" d="M397.23,124.24c-17.35-4.79-37.23-2.12-55-1.29-20,.94-40.38,1.54-60.26-1.64-1.36-.22-2,1.81-.58,2.1,18.61,3.83,37.21,4.07,56.15,3.59,9.39-.25,18.78-.54,28.17-.62,10.37-.08,20.81,1,31.16.44A1.32,1.32,0,0,0,397.23,124.24Z"/><path class="cls-4" d="M429.24,125.53c-5-1.38-10.84-.35-15.94-.2a1.18,1.18,0,0,0,0,2.36c5,.61,11.05,1.73,15.94.07A1.17,1.17,0,0,0,429.24,125.53Z"/><path class="cls-4" d="M386.62,549.22c-10.86,1.25-21.27,4.91-32.14,6.33a166,166,0,0,1-35.37.72.77.77,0,0,0-.2,1.51c21.06,4.13,49.33,5.31,68.21-6.72C387.87,550.58,387.66,549.1,386.62,549.22Z"/><path class="cls-4" d="M398.87,543c-1.5,0-2.57,1.14-3.72,2a27.86,27.86,0,0,1-3.76,2.54c-1.11.58-.32,2.2.82,2a18.27,18.27,0,0,0,4.67-1.53c1.31-.68,3-1.72,3.26-3.3A1.33,1.33,0,0,0,398.87,543Z"/></svg>