<svg id="Layer_1" data-name="Layer 1" xmlns="http://www.w3.org/2000/svg" viewBox="0 0 600 600"><defs><style>.cls-1{fill:#f2b879;}.cls-2{fill:#be1e2d;}.cls-3{fill:#88e0ff;}.cls-4{fill:#8dc63f;}.cls-5{fill:#009444;}.cls-6{fill:#231f20;}</style></defs><title>doodle</title><path class="cls-1" d="M318.11,486c-.26-18.69-1.25-37.44-1-56.13-1.39-.1-2.77-.25-4.12-.46,1,4.17,2.34,9,1.24,12.64-1.34,4.36-6,4.74-9.84,5.75q-6.23,1.65-12.46,3.26c1.09,9,.71,18.42,1.07,27.42.45,11.35.92,22.7,1.57,34,1.14,19.67,1.36,40.07,4.65,59.53.71,4.22,2.4,10.16,7.17,11.39,5,1.31,8.81-3.94,10-8.1,2.65-9.09,1.58-20.06,1.77-29.45C318.54,526,318.39,506,318.11,486Z"/><path class="cls-2" d="M311.55,288.15c7.39-4.22,14.68-9.25,16.82-18,1.92-7.79.74-16.55-.12-24.43-1.75-15.92-5.54-32-12-46.68a98.57,98.57,0,0,0-9-15.89c1.7,6.94,2,14.47,2.09,21.11a163.14,163.14,0,0,1-3.43,36.35c-4.4,20.24-14.61,39.62-32.17,51.08C285.35,297.68,300,294.73,311.55,288.15Z"/><path class="cls-3" d="M366.16,168.63a78.78,78.78,0,0,0-32.88-11,99.58,99.58,0,0,0-16.2-.16c-4.4.27-9.24.29-13.72,1.24,14.09-1.73,28.67,1.05,41.74,6.54C361,171.94,373.4,183,384.54,196c5.47,6.37,10.2,13.06,13,20.3l1.84-.3C394.86,196.38,383.73,179.32,366.16,168.63Z"/><path class="cls-4" d="M290.06,329.15c2.5,6.94,8.11,17.68,17,15.93,9.14-1.8,9.4-13.71,9.45-21.1a62.39,62.39,0,0,0-1.77-15.09c-.76-3.13-2.25-6.25-3-9.42a64.87,64.87,0,0,1-15.45,4.67,48,48,0,0,1-7.75.63c-1.38,3.53-1.05,9.31-.92,12.34A40.65,40.65,0,0,0,290.06,329.15Z"/><path class="cls-4" d="M315.33,350c5.85,8.76,9,22.85,6.94,32.58a.9.9,0,0,1-1.72,0c-1.12-5.79-1.11-11.72-2.46-17.51-1.13-4.8-3.07-9.28-4.6-13.91A16.08,16.08,0,0,1,308.4,353,373.36,373.36,0,0,0,311.5,421c6.37-.36,12.81.17,19.2-.44,4-.37,7.88-1,11.78-1.74,2.18-.42,5.33-.67,7.72-1.57-.1-2.85-1.76-6.92-2.35-9.13q-1.38-5.19-3.11-10.29a159.94,159.94,0,0,0-8.16-19.66c-5.34-10.8-11.86-20.83-18.21-31A18.07,18.07,0,0,1,315.33,350Z"/><path class="cls-2" d="M344.07,175c-10.42-5.08-21.56-7.48-32.9-8.31a94.14,94.14,0,0,1,17.2,18.38c6.14,8.84,10.14,19.57,13.79,29.63,7.38,20.32,12.1,42.5,9,64.13a41,41,0,0,0,6.12-1.82c7.79-3,14.39-8.57,19.59-15,5.74-7.12,10.64-16.13,12.73-25,2.22-9.42-.43-17.83-5.69-25.69C374,196.49,360.11,182.88,344.07,175Z"/><path class="cls-4" d="M320.11,297.76a26,26,0,0,1,1.74,4.45c6.06-2.94,13.9-2.49,20.32-2.08,6.74.44,14.67.43,19.86,5.35.81.77,0,2.41-1.14,2-12.49-4.9-25.39-4.72-38.33-2.63.61,2.62,1,5.24,1.36,7.57,6.36-2,14.54-1.78,20.05,1.58.83.5.58,2.13-.54,2-3.6-.48-7.08-1.5-10.73-1.73a47.93,47.93,0,0,0-8.47.48,71.05,71.05,0,0,1,.55,7.84c11.92-.65,25.36,5.06,35.47,10.24a105.13,105.13,0,0,1,18.18,11.86c2.53,2.05,6.23,4.67,9,7.64,1.46-3.44,3.2-6.86,4.52-10.19,2.29-5.78,4.69-11.54,6.71-17.43s3.88-12.42,3.74-18.86c-.14-6.69-8.75-8.76-14.06-10.56C365.43,287.47,342.55,290.07,320.11,297.76Z"/><path class="cls-3" d="M289.33,262.76c-3.47,7.1-7.54,14.09-13.85,19a39.8,39.8,0,0,1-8.57,5,27.76,27.76,0,0,0,3,2.56c18-11,28-30.51,32.31-50.77a172,172,0,0,0,3.46-34.33,90.85,90.85,0,0,0-1.62-16.78,138.17,138.17,0,0,1-.48,26.2A153.15,153.15,0,0,1,289.33,262.76Z"/><path class="cls-3" d="M345.16,279.73c.64-.05,1.27-.14,1.91-.21,2.46-21.18-1-41.74-8.06-61.84-3.56-10.16-7.37-20.86-13.24-29.94-5.21-8.05-12.71-14.14-19-21.25-.57,0-1.14-.05-1.72-.06,8.48,7.86,14.8,18.8,19.48,28.78A152.49,152.49,0,0,1,336.9,237c2.07,13.51,5,30.21-1.67,42.89C338.5,279.52,341.85,280,345.16,279.73Z"/><path class="cls-5" d="M352.15,338.15a108.63,108.63,0,0,0-15.88-6c-3.81-1.12-7.88-1.78-11.71-2.95q-.12,1.47-.3,2.94a2.43,2.43,0,0,1,.37.16c10.54,6.14,20.61,12.66,31.75,17.77a138.31,138.31,0,0,0,16.75,6.71,33.3,33.3,0,0,0,5,1.19,18.93,18.93,0,0,0,2,0c-.48-.52-.94-1.09-1.38-1.51A100.32,100.32,0,0,0,352.15,338.15Z"/><path class="cls-2" d="M385.21,114.42c-18.46,2.91-36.38,9.38-52.91,18C321,138.36,310,146,302.38,156.29a54.23,54.23,0,0,1,10.72-1.58,107.52,107.52,0,0,1,21.07-.26,82,82,0,0,1,32.95,10.76c18.22,10.71,32.14,29.24,36.11,50.12a28,28,0,0,0,8-2.69,47,47,0,0,0,11.68-9.22,59.34,59.34,0,0,0,13.42-23.57,74.85,74.85,0,0,0,2.56-28.52c-.84-9-2.69-19.33-7.93-26.87C421.19,110.44,399.93,112.1,385.21,114.42Z"/><path class="cls-3" d="M178.13,174.39a84.63,84.63,0,0,0,13.7,8.1c10.84,5.15,22.48,7.41,34.37,8.49,11.6,1,23.26,1.56,34.55-1.82,8.53-2.55,15.52-6.89,22.15-12.22.6-1.6,1.18-3.22,1.75-4.84-18.22,7.94-39.2,10.56-58.83,9.36-16.69-1-33.36-4.39-46.4-15.47A58.42,58.42,0,0,1,170,155.82a19.91,19.91,0,0,0-4.11,6.11C168,167.18,174,171.35,178.13,174.39Z"/><path class="cls-2" d="M223.87,171.87c16.66,1.12,32.4-1.37,48.07-5.63-10.38-.73-20.92-2.42-30.37-6.65-10.33-4.63-18.74-12.45-25.34-21.54a110.46,110.46,0,0,1-16-33c-2.68-8.92-4.61-19.44-3-29a50.51,50.51,0,0,0-9.6,5.48,53.52,53.52,0,0,0-15.74,19.06c-7.64,15.51-5.55,33.67,3.89,47.9C186.81,165.08,204.82,170.6,223.87,171.87Z"/><path class="cls-2" d="M233.44,238.55c14.2-8.74,26.25-21.92,35.56-35.62a143.36,143.36,0,0,0,10.32-17.85c-17.23,11.15-39.86,11.49-60,8.89-12.84-1.66-25.18-5.46-36.24-12.3-5.71-3.54-15.29-9.26-18.42-16.42a65.7,65.7,0,0,0-2,8.86,75.59,75.59,0,0,0,.26,27.81c3.25,15.91,12.18,30,26.59,37.88S219.62,247.05,233.44,238.55Z"/><path class="cls-2" d="M275.5,268.08c10.28-15,15.85-34.6,17.84-52.54a154.64,154.64,0,0,0,.73-27.55c-.22-3.36-.57-6.72-1-10.06-.7,1.79-1.47,3.55-2.26,5.3-1.1,9.78-4.45,19.72-8.15,28.4a112.72,112.72,0,0,1-18.84,30c-8.5,9.7-18.22,17.67-31,20.76-9.11,2.2-19.87,4-29.09,1.15,5.23,8,11.88,14.54,22.41,17.19C242.52,284.82,265.18,283.17,275.5,268.08Z"/><path class="cls-3" d="M218.32,134.94c6.39,9.06,14.66,16.87,24.87,21.41a68.79,68.79,0,0,0,18.83,5,173,173,0,0,1-18.18-10.71c-24.89-16.81-45-47.1-40.2-77.31l-3.15,1.31A76.25,76.25,0,0,0,203.93,106,111.32,111.32,0,0,0,218.32,134.94Z"/><path class="cls-3" d="M235.52,258.09c11.54-3.65,20.53-12.42,28-21.63A108.57,108.57,0,0,0,281,205.81a80.71,80.71,0,0,0,2.53-8.12,149.7,149.7,0,0,1-15.21,22.1c-11.81,14.26-27.86,29.7-46.48,33.94a49.73,49.73,0,0,1-24-.62c1.18,2.32,2.4,4.62,3.69,6.83C212.58,263.17,224.65,261.53,235.52,258.09Z"/><path class="cls-3" d="M262.87,63.65A136.1,136.1,0,0,0,261,99.19c.91,13.2,3.55,26.5,9.23,38.52.19.42.41.81.62,1.22a131.87,131.87,0,0,1-5.52-23.48A134.14,134.14,0,0,1,269,58.74a114.14,114.14,0,0,1,8-20.94,26,26,0,0,0-3.56-2.21,108.82,108.82,0,0,0-6,12A94.6,94.6,0,0,0,262.87,63.65Z"/><path class="cls-2" d="M298.11,146c4.42-7.36,10.31-14.07,16.09-19.95A132.8,132.8,0,0,1,346.68,102c13.06-6.9,26.24-10.77,41.09-10.46,11.28.24,22.54,1.68,33.13,5.43A49.14,49.14,0,0,0,394,60.55c-16.55-8.33-39.84-9.65-54.5,3C315.4,84.32,302.44,115,298.11,146Z"/><path class="cls-3" d="M346.14,106.27a124.9,124.9,0,0,0-40.88,35.07c9.24-9.4,21.48-16.24,33.34-21.85C360,109.38,396,97.2,420.89,105.8a28.79,28.79,0,0,1,.56-4.34s0-.1,0-.15c-11.3-4.35-23.53-5.86-35.63-6C371.44,95.23,358.68,99.47,346.14,106.27Z"/><path class="cls-2" d="M241.72,138.34c7.27,6,15.69,10.58,24,15.11,4.66,2.56,9.35,5.12,14.46,6.68l.64.18c-15.25-15.18-21.88-38.38-23.46-59.18a138.2,138.2,0,0,1,2.28-39.3c1.92-8.95,5-19.69,10.69-27.64-13.14-4.78-29.38.77-39.85,9.28A51.83,51.83,0,0,0,212.06,92C215,109.65,228.19,127.07,241.72,138.34Z"/><path class="cls-3" d="M325.39,59a98.72,98.72,0,0,0-20.9,28.44A129.07,129.07,0,0,0,293.09,124a129.88,129.88,0,0,0-1.74,18.67,140,140,0,0,1,9.2-35.85A145.72,145.72,0,0,1,326,65.17c5.31-6.08,11.26-12,18.68-15.41A45.08,45.08,0,0,1,354,46.7c-.19-1.74-.38-3.47-.71-5.2-4.45,2.23-9.14,4-13.44,6.54A84.92,84.92,0,0,0,325.39,59Z"/><path class="cls-2" d="M272.16,107.82a116.43,116.43,0,0,0,6.37,29.67A56.23,56.23,0,0,0,288,153.78c-1.11-10.21.18-21.08,1.77-30.68A133.26,133.26,0,0,1,302,84.91,99,99,0,0,1,325,55c7.53-6.56,17.5-13.89,27.66-16.06a32,32,0,0,0-6.16-11,33,33,0,0,0-22.52-11.68c-20.15-1.51-34.86,13-42.28,30.34A128.2,128.2,0,0,0,272.16,107.82Z"/><path class="cls-4" d="M279.71,322.37a4.51,4.51,0,0,1,.87-.53,48.71,48.71,0,0,1-.34-5.53c-2.89.74-5.78,1.44-8.6,2.46-4.25,1.55-8.19,3.77-12.27,5.71-.84.4-1.81-.66-1.05-1.36a37.72,37.72,0,0,1,22-9.35c.05-1.11.13-2.21.26-3.3,0-.29.08-.6.12-.91-6.8.79-13.84.1-20.66.33-8.14.27-16,1.86-24.12,2.54a.78.78,0,0,1-.39-1.44c6.94-3.32,14.95-4,22.55-4.41,7.43-.41,15.56-.81,23,.63.11-.58.22-1.17.37-1.75-3-.52-5.86-1.5-8.9-1.84q-6-.67-12-1.18c-8.94-.76-17.91-1.31-26.88-1.58-4.83-.15-9.68-.26-14.52-.17-3.09.05-6.72-.05-9.53,1.49-6.61,3.62-4.11,17.52-3,23.56a67.39,67.39,0,0,0,8.29,22.54c2.36,4,4.69,8.2,10,7.74,4.31-.38,8.42-3.18,12.1-5.28A402.92,402.92,0,0,0,279.71,322.37Z"/><path class="cls-5" d="M282.72,331.4c-14.89,11.36-31.1,22.63-48.11,30.47a34,34,0,0,1-5.72,2.08,23.48,23.48,0,0,0,5.71.86c7,.19,13.71-2.6,19.68-6a88.88,88.88,0,0,0,16.52-11.93c4.68-4.31,8.32-9.27,12.44-14C283.06,332.38,282.89,331.89,282.72,331.4Z"/><path class="cls-4" d="M272.11,447.71c5.31-1.38,10.59-2.89,15.87-4.33l11.07-3c2.05-.55,4.71-.86,6.86-1.66.09-3.38-1.73-8.51-2.18-11.2-.56-3.44-1.07-6.88-1.53-10.34q-1.41-10.43-2.25-20.91a339,339,0,0,1-.76-44.16,19.59,19.59,0,0,1-6-3.71A95.74,95.74,0,0,0,288.61,365c-1.09,6.79-1.09,13.7-2.12,20.49-.18,1.18-1.84.75-1.93-.26-1.09-12.13.19-27.74,6.9-38.48a30.8,30.8,0,0,1-2.75-3.33c-1.61,7.11-4.49,14.05-6.43,21-2.63,9.43-5,18.9-6.68,28.54C272.42,411.16,271.7,429.36,272.11,447.71Z"/><path class="cls-6" d="M266.89,391.61c-3.52,20.22-5.09,41.1-3.21,61.56.25,2.68,2.56,5,5.43,4.14,5.16-1.54,10.36-3,15.57-4.34-.65,8.81.06,17.91.29,26.6.3,11.7.85,23.41,1.54,35.09.67,11.34,1.59,22.67,2.58,34,.89,10.09.37,22,4.2,31.56,2.8,6.95,9.61,12.84,17.54,11,8.15-1.9,12.64-9.7,13.95-17.41,1.84-10.81,1.48-22.28,1.78-33.22q.49-17.64.53-35.29c.07-25,.14-50.31-1.49-75.29a130.48,130.48,0,0,0,22.17-3.29c4.43-1,10.44-1.7,11.08-7.25.6-5.27-2.26-12-3.75-17C348.67,381,338,358.44,321.16,343c.36-.7.69-1.42,1-2.17,11.5,8.38,24.82,14.85,37.86,20.29,7,2.92,14.52,6.16,22.28,5.8,3.5-.17,7.32-1.75,8.58-4.78,5.14-2.78,6.58-9.78,8.62-14.95,2.88-7.31,6-14.57,8.38-22.05,2.22-6.92,4.26-15,3.18-22.3-1-6.76-5.87-10.12-11.75-12.71a99.52,99.52,0,0,0-30.47-7.82c1.48-.9,2.92-1.85,4.29-2.88,12.39-9.27,21.92-23.93,25.91-38.86a37.57,37.57,0,0,0,1-15.25c8.05,1.44,16.8-3.5,23-8.26a65.66,65.66,0,0,0,18.39-22.44c9.81-19.43,10.47-43,3.76-63.57-3-9.26-8-15.82-14.29-20.26-.05-.58-.13-1.16-.22-1.73a18.65,18.65,0,0,0,1.12-5.6,11.19,11.19,0,0,0-1.19-5.88C428.63,66.85,398.3,46,368.94,45.37c-2,0-4,0-5.94.11.52-12.75-10.63-26.56-20.65-32.27-14-8-31.76-6.29-45.3,1.94a50.92,50.92,0,0,0-15.45,15c-26-17.89-62.57,3-73.93,29.24a60.3,60.3,0,0,0-2.21,6c-13.52.18-27,10.86-34.85,20.93-9,11.53-13.6,26.16-11.87,40.76a61.14,61.14,0,0,0,7.15,22.17c-11.78,7.22-13.26,29.41-13.06,41,.32,18.65,7.06,37.75,21.4,50.22a60.87,60.87,0,0,0,15.35,9.74c3.29,12.19,8.75,24,19.13,31.85,12.66,9.59,30.87,10.81,46.07,8.32q1.41-.24,2.82-.54a4.85,4.85,0,0,0,1.16,2.29c.86,1,1.76,1.87,2.69,2.73-6.82-.85-13.67-1.51-20.54-1.91-8.43-.5-17.11-1.16-25.55-.58-6.17.43-12.56,2.33-15.78,8.1-3.39,6-2.82,14.4-2.15,21a76.65,76.65,0,0,0,5.75,22.53c2.63,6.18,6,13.55,11.5,17.73a13.06,13.06,0,0,0,2,1.26c2.16,4.34,8.14,7.23,12.38,8.4,7.94,2.19,16.19.52,23.64-2.57a88.82,88.82,0,0,0,23.82-14.82c-.82,2.42-1.57,4.83-2.33,7.17A224.41,224.41,0,0,0,266.89,391.61Zm49.48,183.75c-1.21,4.16-5,9.41-10,8.1-4.77-1.23-6.46-7.17-7.17-11.39-3.29-19.46-3.51-39.86-4.65-59.53-.65-11.34-1.12-22.69-1.57-34-.36-9,0-18.39-1.07-27.42q6.24-1.62,12.46-3.26c3.81-1,8.5-1.39,9.84-5.75,1.1-3.6-.25-8.47-1.24-12.64,1.35.21,2.73.36,4.12.46-.21,18.69.78,37.44,1,56.13.28,20,.43,39.93,0,59.89C318,555.3,319,566.27,316.37,575.36ZM304.09,187.52a90.85,90.85,0,0,1,1.62,16.78,172,172,0,0,1-3.46,34.33C298,258.89,288,278.35,269.94,289.4a27.76,27.76,0,0,1-3-2.56,39.8,39.8,0,0,0,8.57-5c6.31-4.94,10.38-11.93,13.85-19a153.15,153.15,0,0,0,14.28-49A138.17,138.17,0,0,0,304.09,187.52ZM336.9,237a152.49,152.49,0,0,0-12.4-41.78c-4.68-10-11-20.92-19.48-28.78.58,0,1.15,0,1.72.06,6.32,7.11,13.82,13.2,19,21.25,5.87,9.08,9.68,19.78,13.24,29.94,7.06,20.1,10.52,40.66,8.06,61.84-.64.07-1.27.16-1.91.21-3.31.24-6.66-.21-9.93.15C341.92,267.2,339,250.5,336.9,237Zm-31,3.66a163.14,163.14,0,0,0,3.43-36.35c-.08-6.64-.39-14.17-2.09-21.11a98.57,98.57,0,0,1,9,15.89c6.46,14.68,10.25,30.76,12,46.68.86,7.88,2,16.64.12,24.43-2.14,8.71-9.43,13.74-16.82,18-11.52,6.58-26.2,9.53-37.84,3.58C291.27,280.27,301.48,260.89,305.88,240.65Zm-17.31,64.12a48,48,0,0,0,7.75-.63,64.87,64.87,0,0,0,15.45-4.67c.71,3.17,2.2,6.29,3,9.42A62.39,62.39,0,0,1,316.5,324c-.05,7.39-.31,19.3-9.45,21.1-8.88,1.75-14.49-9-17-15.93a40.65,40.65,0,0,1-2.41-12C287.52,314.08,287.19,308.3,288.57,304.77Zm48,73.44a159.94,159.94,0,0,1,8.16,19.66q1.72,5.1,3.11,10.29c.59,2.21,2.25,6.28,2.35,9.13-2.39.9-5.54,1.15-7.72,1.57-3.9.76-7.82,1.37-11.78,1.74-6.39.61-12.83.08-19.2.44A373.36,373.36,0,0,1,308.4,353a16.08,16.08,0,0,0,5.09-1.76c1.53,4.63,3.47,9.11,4.6,13.91,1.35,5.79,1.34,11.72,2.46,17.51a.9.9,0,0,0,1.72,0c2.07-9.73-1.09-23.82-6.94-32.58a18.07,18.07,0,0,0,3-2.83C324.72,357.38,331.24,367.41,336.58,378.21ZM378.15,358a33.3,33.3,0,0,1-5-1.19,138.31,138.31,0,0,1-16.75-6.71c-11.14-5.11-21.21-11.63-31.75-17.77a2.43,2.43,0,0,0-.37-.16q.18-1.47.3-2.94c3.83,1.17,7.9,1.83,11.71,2.95a108.63,108.63,0,0,1,15.88,6,100.32,100.32,0,0,1,26.58,18.33c.44.42.9,1,1.38,1.51A18.93,18.93,0,0,1,378.15,358Zm10.2-62.71c5.31,1.8,13.92,3.87,14.06,10.56.14,6.44-1.67,12.83-3.74,18.86s-4.42,11.65-6.71,17.43c-1.32,3.33-3.06,6.75-4.52,10.19-2.78-3-6.48-5.59-9-7.64a105.13,105.13,0,0,0-18.18-11.86c-10.11-5.18-23.55-10.89-35.47-10.24a71.05,71.05,0,0,0-.55-7.84,47.93,47.93,0,0,1,8.47-.48c3.65.23,7.13,1.25,10.73,1.73,1.12.14,1.37-1.49.54-2-5.51-3.36-13.69-3.61-20.05-1.58-.34-2.33-.75-4.95-1.36-7.57,12.94-2.09,25.84-2.27,38.33,2.63,1.12.44,1.95-1.2,1.14-2-5.19-4.92-13.12-4.91-19.86-5.35-6.42-.41-14.26-.86-20.32,2.08a26,26,0,0,0-1.74-4.45C342.55,290.07,365.43,287.47,388.35,295.25ZM389.59,237c-2.09,8.92-7,17.93-12.73,25-5.2,6.46-11.8,12-19.59,15a41,41,0,0,1-6.12,1.82c3.11-21.63-1.61-43.81-9-64.13-3.65-10.06-7.65-20.79-13.79-29.63a94.14,94.14,0,0,0-17.2-18.38c11.34.83,22.48,3.23,32.9,8.31,16,7.84,29.95,21.45,39.83,36.24C389.16,219.14,391.81,227.55,389.59,237Zm8-20.67c-2.83-7.24-7.56-13.93-13-20.3C373.4,183,361,171.94,345.1,165.26c-13.07-5.49-27.65-8.27-41.74-6.54,4.48-.95,9.32-1,13.72-1.24a99.58,99.58,0,0,1,16.2.16,78.78,78.78,0,0,1,32.88,11c17.57,10.69,28.7,27.75,33.25,47.37Zm33.37-91.84c5.24,7.54,7.09,17.9,7.93,26.87a74.85,74.85,0,0,1-2.56,28.52,59.34,59.34,0,0,1-13.42,23.57,47,47,0,0,1-11.68,9.22,28,28,0,0,1-8,2.69c-4-20.88-17.89-39.41-36.11-50.12a82,82,0,0,0-32.95-10.76,107.52,107.52,0,0,0-21.07.26,54.23,54.23,0,0,0-10.72,1.58C310,146,321,138.36,332.3,132.44c16.53-8.64,34.45-15.11,52.91-18C399.93,112.1,421.19,110.44,430.94,124.46Zm-9.49-23a28.79,28.79,0,0,0-.56,4.34C396,97.2,360,109.38,338.6,119.49c-11.86,5.61-24.1,12.45-33.34,21.85a124.9,124.9,0,0,1,40.88-35.07c12.54-6.8,25.3-11,39.67-10.92,12.1.1,24.33,1.61,35.63,6C421.44,101.36,421.45,101.41,421.45,101.46ZM394,60.55A49.14,49.14,0,0,1,420.9,97c-10.59-3.75-21.85-5.19-33.13-5.43-14.85-.31-28,3.56-41.09,10.46a132.8,132.8,0,0,0-32.48,24.1c-5.78,5.88-11.67,12.59-16.09,19.95,4.33-31,17.29-61.72,41.38-82.49C354.15,50.9,377.44,52.22,394,60.55ZM354,46.7a45.08,45.08,0,0,0-9.35,3.06c-7.42,3.43-13.37,9.33-18.68,15.41a145.72,145.72,0,0,0-25.4,41.66,140,140,0,0,0-9.2,35.85A129.88,129.88,0,0,1,293.09,124a129.07,129.07,0,0,1,11.4-36.59A98.72,98.72,0,0,1,325.39,59,84.92,84.92,0,0,1,339.83,48c4.3-2.58,9-4.31,13.44-6.54C353.6,43.23,353.79,45,354,46.7Zm-72.33-.11c7.42-17.31,22.13-31.85,42.28-30.34a33,33,0,0,1,22.52,11.68,32,32,0,0,1,6.16,11C342.45,41.07,332.48,48.4,325,55A99,99,0,0,0,302,84.91a133.26,133.26,0,0,0-12.22,38.19c-1.59,9.6-2.88,20.47-1.77,30.68a56.23,56.23,0,0,1-9.49-16.29,116.43,116.43,0,0,1-6.37-29.67A128.2,128.2,0,0,1,281.65,46.59ZM277,37.8a114.14,114.14,0,0,0-8,20.94,134.14,134.14,0,0,0-3.64,56.71,131.87,131.87,0,0,0,5.52,23.48c-.21-.41-.43-.8-.62-1.22-5.68-12-8.32-25.32-9.23-38.52a136.1,136.1,0,0,1,1.84-35.54,94.6,94.6,0,0,1,4.6-16.08,108.82,108.82,0,0,1,6-12A26,26,0,0,1,277,37.8Zm-46.58,5.67c10.47-8.51,26.71-14.06,39.85-9.28-5.65,8-8.77,18.69-10.69,27.64a138.2,138.2,0,0,0-2.28,39.3c1.58,20.8,8.21,44,23.46,59.18l-.64-.18c-5.11-1.56-9.8-4.12-14.46-6.68-8.27-4.53-16.69-9.06-24-15.11C228.19,127.07,215,109.65,212.06,92A51.83,51.83,0,0,1,230.44,43.47ZM200.49,74.61l3.15-1.31c-4.76,30.21,15.31,60.5,40.2,77.31A173,173,0,0,0,262,161.32a68.79,68.79,0,0,1-18.83-5C233,151.81,224.71,144,218.32,134.94A111.32,111.32,0,0,1,203.93,106,76.25,76.25,0,0,1,200.49,74.61Zm-28.59,26A53.52,53.52,0,0,1,187.64,81.5a50.51,50.51,0,0,1,9.6-5.48c-1.63,9.57.3,20.09,3,29a110.46,110.46,0,0,0,16,33c6.6,9.09,15,16.91,25.34,21.54,9.45,4.23,20,5.92,30.37,6.65-15.67,4.26-31.41,6.75-48.07,5.63-19.05-1.27-37.06-6.79-48.08-23.41C166.35,134.23,164.26,116.07,171.9,100.56ZM170,155.82A58.42,58.42,0,0,0,179.42,166c13,11.08,29.71,14.44,46.4,15.47,19.63,1.2,40.61-1.42,58.83-9.36-.57,1.62-1.15,3.24-1.75,4.84-6.63,5.33-13.62,9.67-22.15,12.22C249.46,192.54,237.8,192,226.2,191c-11.89-1.08-23.53-3.34-34.37-8.49a84.63,84.63,0,0,1-13.7-8.1c-4.15-3-10.18-7.21-12.21-12.46A19.91,19.91,0,0,1,170,155.82Zm19.44,84c-14.41-7.91-23.34-22-26.59-37.88a75.59,75.59,0,0,1-.26-27.81,65.7,65.7,0,0,1,2-8.86c3.13,7.16,12.71,12.88,18.42,16.42,11.06,6.84,23.4,10.64,36.24,12.3,20.14,2.6,42.77,2.26,60-8.89A143.36,143.36,0,0,1,269,202.93c-9.31,13.7-21.36,26.88-35.56,35.62C219.62,247.05,203.76,247.63,189.47,239.8Zm8.38,13.31a49.73,49.73,0,0,0,24,.62c18.62-4.24,34.67-19.68,46.48-33.94a149.7,149.7,0,0,0,15.21-22.1,80.71,80.71,0,0,1-2.53,8.12,108.57,108.57,0,0,1-17.43,30.65c-7.48,9.21-16.47,18-28,21.63-10.87,3.44-22.94,5.08-34,1.85C200.25,257.73,199,255.43,197.85,253.11Zm28.31,27.59c-10.53-2.65-17.18-9.2-22.41-17.19,9.22,2.89,20,1.05,29.09-1.15,12.74-3.09,22.46-11.06,31-20.76a112.72,112.72,0,0,0,18.84-30c3.7-8.68,7.05-18.62,8.15-28.4.79-1.75,1.56-3.51,2.26-5.3.45,3.34.8,6.7,1,10.06a154.64,154.64,0,0,1-.73,27.55c-2,17.94-7.56,37.5-17.84,52.54S242.52,284.82,226.16,280.7Zm-11.3,67.58a67.39,67.39,0,0,1-8.29-22.54c-1.07-6-3.57-19.94,3-23.56,2.81-1.54,6.44-1.44,9.53-1.49,4.84-.09,9.69,0,14.52.17,9,.27,17.94.82,26.88,1.58q6,.51,12,1.18c3,.34,5.93,1.32,8.9,1.84-.15.58-.26,1.17-.37,1.75-7.42-1.44-15.55-1-23-.63-7.6.42-15.61,1.09-22.55,4.41a.78.78,0,0,0,.39,1.44c8.08-.68,16-2.27,24.12-2.54,6.82-.23,13.86.46,20.66-.33,0,.31-.08.62-.12.91-.13,1.09-.21,2.19-.26,3.3a37.72,37.72,0,0,0-22,9.35c-.76.7.21,1.76,1.05,1.36,4.08-1.94,8-4.16,12.27-5.71,2.82-1,5.71-1.72,8.6-2.46a48.71,48.71,0,0,0,.34,5.53,4.51,4.51,0,0,0-.87.53A402.92,402.92,0,0,1,237,350.74c-3.68,2.1-7.79,4.9-12.1,5.28C219.55,356.48,217.22,352.27,214.86,348.28Zm55.94-1.37a88.88,88.88,0,0,1-16.52,11.93c-6,3.37-12.7,6.16-19.68,6a23.48,23.48,0,0,1-5.71-.86,34,34,0,0,0,5.72-2.08c17-7.84,33.22-19.11,48.11-30.47.17.49.34,1,.52,1.48C279.12,337.64,275.48,342.6,270.8,346.91Zm11.48,17.55c1.94-7,4.82-13.9,6.43-21a30.8,30.8,0,0,0,2.75,3.33c-6.71,10.74-8,26.35-6.9,38.48.09,1,1.75,1.44,1.93.26,1-6.79,1-13.7,2.12-20.49a95.74,95.74,0,0,1,4.54-16.63,19.59,19.59,0,0,0,6,3.71,339,339,0,0,0,.76,44.16q.85,10.49,2.25,20.91c.46,3.46,1,6.9,1.53,10.34.45,2.69,2.27,7.82,2.18,11.2-2.15.8-4.81,1.11-6.86,1.66l-11.07,3c-5.28,1.44-10.56,2.95-15.87,4.33-.41-18.35.31-36.55,3.49-54.71C277.3,383.36,279.65,373.89,282.28,364.46Z"/></svg>