<svg id="Layer_1" data-name="Layer 1" xmlns="http://www.w3.org/2000/svg" viewBox="0 0 600 600"><defs><style>.cls-1{fill:#be1e2d;}.cls-2{fill:#f2b879;}.cls-3{fill:#231f20;}.cls-4{fill:none;}.cls-5{fill:#009444;}</style></defs><title>doodle</title><path class="cls-1" d="M345.93,548.51c9.08,1.93,19.17-1.83,24-10a21.66,21.66,0,0,0,2.25-5.51,3,3,0,0,1-2.4-.46c-4.41-3.1-8.15-4.87-13.72-4.28a36.14,36.14,0,0,0-4.57.86,10.78,10.78,0,0,1,3.06,5.81c.48,2.9-2.35,5.78-5.24,4-4.71-2.85-7.52-6.53-13.37-7.21a35.53,35.53,0,0,0-9.93.68C330.39,540.18,336.89,546.59,345.93,548.51Z"/><path class="cls-2" d="M462,436.19c-3.3-4.91-7.17-7-12.23-6.36,1.06,9.19,2.09,18.39,3,27.6.52,5.13,1.1,10.26,1.69,15.41,2.41-2.31,5-4.48,6.93-7.31a26.07,26.07,0,0,0,4.79-14.17A25.78,25.78,0,0,0,462,436.19Z"/><path class="cls-3" d="M222.35,433.63c7.72-10.55,22.15-10.81,33-4.88,4.92,2.69,8.3,6.76,10.89,11.66,2.3,4.34,3.35,9.43,7.07,12.8,2.44,2.2,5.58.48,6-2.47.92-6.92-4.16-15.3-8.25-20.6a32.8,32.8,0,0,0-18.79-11.83c-11.52-2.69-32.9-1.57-33.27,14.41C218.93,434.66,221.36,435,222.35,433.63Z"/><path class="cls-3" d="M256.12,376.21a20.12,20.12,0,0,1,9.49,2.62c2.53,1.43,4.45,3.57,7.54,3.4a2.16,2.16,0,0,0,2.13-2.13c.09-8.61-14-8.65-19.51-6.47A1.32,1.32,0,0,0,256.12,376.21Z"/><path class="cls-3" d="M395,383.1c3.08-4.34,7.81-6.39,12.94-7,2.56-.33,6.33-2.18,3.49-5s-8.73-.53-11.67,1.15a17.64,17.64,0,0,0-7.93,9.58C391.09,383.73,393.94,384.59,395,383.1Z"/><path class="cls-3" d="M386.43,448.55c4-8.52,8.85-15.76,18.49-18.45,4.67-1.3,10.6-1.83,14.5,1.56,2.42,2.12,3.41,5,6.79,5.71a3,3,0,0,0,3.21-1.31c3.1-4.42-1-10.05-4.55-12.85-5.8-4.54-13.55-4.63-20.43-2.84-12.18,3.18-23.66,14.29-21.68,27.7C383,449.75,385.73,450,386.43,448.55Z"/><path class="cls-3" d="M311,512.51c.31,1,.63,2,1,2.93s.54,2.11.81,3.12a87.82,87.82,0,0,0,7.61,19.75c5.72,10.41,16,18.12,28,19.42a31,31,0,0,0,28.73-13c7.57-11,6.79-29,2.35-41.26a3.34,3.34,0,0,0-3-4.29c-5-.11-9.65,1.53-14.54,2.28a86.9,86.9,0,0,1-16,.86c-10.62-.34-21.1-2.2-31.71-2a3.26,3.26,0,0,0-1.62-.43,3.53,3.53,0,0,0-3.49,3.5,3.73,3.73,0,0,0,.42,1.56C309.37,507.47,310.34,510.25,311,512.51Zm24.89,19.25c5.85.68,8.66,4.36,13.37,7.21,2.89,1.75,5.72-1.13,5.24-4a10.78,10.78,0,0,0-3.06-5.81,36.14,36.14,0,0,1,4.57-.86c5.57-.59,9.31,1.18,13.72,4.28a3,3,0,0,0,2.4.46,21.66,21.66,0,0,1-2.25,5.51c-4.81,8.16-14.9,11.92-24,10s-15.54-8.33-19.94-16.07A35.53,35.53,0,0,1,335.92,531.76Z"/><path class="cls-4" d="M182.36,371.37c.08-.64.16-1.28.25-1.92C182.52,370.09,182.44,370.73,182.36,371.37Z"/><path class="cls-4" d="M186.8,350.94c.18-.55.37-1.09.56-1.63C187.17,349.85,187,350.39,186.8,350.94Z"/><path class="cls-4" d="M186,353.64l.48-1.58Z"/><path class="cls-4" d="M184.51,359.13c.12-.53.25-1.06.38-1.59C184.76,358.07,184.63,358.6,184.51,359.13Z"/><path class="cls-4" d="M185.2,356.37c.13-.53.28-1.05.42-1.57C185.48,355.32,185.33,355.84,185.2,356.37Z"/><path class="cls-4" d="M183.89,361.94c.11-.55.22-1.1.35-1.65C184.11,360.84,184,361.39,183.89,361.94Z"/><path class="cls-4" d="M182.73,368.58c.13-.92.27-1.83.42-2.75C183,366.75,182.86,367.66,182.73,368.58Z"/><path class="cls-4" d="M183.32,364.9c.11-.61.22-1.23.34-1.84C183.54,363.67,183.43,364.29,183.32,364.9Z"/><path class="cls-4" d="M149.76,433.2c.47-.12.94-.22,1.42-.3C150.7,433,150.23,433.08,149.76,433.2Z"/><path class="cls-4" d="M147.66,433.86a15.94,15.94,0,0,1,1.61-.53A15.94,15.94,0,0,0,147.66,433.86Z"/><path class="cls-4" d="M182.06,374.18c.05-.53.11-1.06.17-1.59C182.17,373.12,182.11,373.65,182.06,374.18Z"/><path class="cls-4" d="M151.5,432.84c.53-.08,1.05-.13,1.59-.18C152.55,432.71,152,432.76,151.5,432.84Z"/><path class="cls-4" d="M188.74,345.61c.35-.88.71-1.76,1.09-2.63C189.45,343.85,189.09,344.73,188.74,345.61Z"/><path class="cls-4" d="M187.73,348.26c.21-.59.44-1.18.67-1.77C188.17,347.08,187.94,347.67,187.73,348.26Z"/><path class="cls-4" d="M153.74,432.62c.39,0,.78,0,1.18,0C154.52,432.6,154.13,432.6,153.74,432.62Z"/><path class="cls-4" d="M144.18,435.71a16.77,16.77,0,0,1,1.5-.92A16.77,16.77,0,0,0,144.18,435.71Z"/><path class="cls-4" d="M146.08,434.58c.48-.25,1-.48,1.48-.68C147.06,434.1,146.56,434.33,146.08,434.58Z"/><path class="cls-4" d="M182.43,406.62l-.09-1Z"/><path class="cls-4" d="M181.94,401c0-.36-.05-.71-.07-1.07C181.89,400.3,181.92,400.65,181.94,401Z"/><path class="cls-4" d="M182.17,403.82l-.09-1Z"/><path class="cls-4" d="M182.72,409.38l-.09-.89Z"/><path class="cls-4" d="M183,412.05l-.09-.71Z"/><path class="cls-4" d="M462,436.19c-3.3-4.91-7.17-7-12.23-6.36,1.06,9.19,2.09,18.39,3,27.6.52,5.13,1.1,10.26,1.69,15.41,2.41-2.31,5-4.48,6.93-7.31a26.07,26.07,0,0,0,4.79-14.17A25.78,25.78,0,0,0,462,436.19Z"/><path class="cls-4" d="M183.34,414.44l0-.25Z"/><path class="cls-4" d="M181.44,388.31c0-.46,0-.91,0-1.37C181.43,387.4,181.44,387.85,181.44,388.31Z"/><path class="cls-4" d="M181.52,382.65c0-.47,0-.95,0-1.43C181.55,381.7,181.54,382.18,181.52,382.65Z"/><path class="cls-4" d="M181.64,379.83l.09-1.47Z"/><path class="cls-4" d="M181.45,385.49l0-1.41Z"/><path class="cls-4" d="M181.6,395.33v0Z"/><path class="cls-4" d="M181.82,377l.12-1.5Z"/><path class="cls-4" d="M181.75,398.16c0-.33,0-.65-.05-1C181.72,397.51,181.73,397.83,181.75,398.16Z"/><path class="cls-4" d="M181.47,391c0-.41,0-.82,0-1.23C181.45,390.22,181.46,390.63,181.47,391Z"/><path class="cls-4" d="M222.35,433.63c7.72-10.55,22.15-10.81,33-4.88,4.92,2.69,8.3,6.76,10.89,11.66,2.3,4.34,3.35,9.43,7.07,12.8,2.44,2.2,5.58.48,6-2.47.92-6.92-4.16-15.3-8.25-20.6a32.8,32.8,0,0,0-18.79-11.83c-11.52-2.69-32.9-1.57-33.27,14.41C218.93,434.66,221.36,435,222.35,433.63Z"/><path class="cls-4" d="M170.48,432.82l-.7-.64Z"/><path class="cls-4" d="M168.7,431.24c-.26-.21-.51-.43-.77-.63C168.19,430.81,168.44,431,168.7,431.24Z"/><path class="cls-4" d="M395,383.1c3.08-4.34,7.81-6.39,12.94-7,2.56-.33,6.33-2.18,3.49-5s-8.73-.53-11.67,1.15a17.64,17.64,0,0,0-7.93,9.58C391.09,383.73,393.94,384.59,395,383.1Z"/><path class="cls-4" d="M152.24,462.91c-1.53-3.49-1.67-8.59.16-12,2.54-4.7,8.14-4.86,13-5,1.38,0,2.39-1.92,1.21-2.92-12.16-10.3-25.19.18-25.23,14.29,0,12.25,11.31,24.84,24.16,23.1,2.57-.35,2.67-3.66,1.38-5.22C162.74,470.13,155.08,469.44,152.24,462.91Z"/><path class="cls-4" d="M256.12,376.21a20.12,20.12,0,0,1,9.49,2.62c2.53,1.43,4.45,3.57,7.54,3.4a2.16,2.16,0,0,0,2.13-2.13c.09-8.61-14-8.65-19.51-6.47A1.32,1.32,0,0,0,256.12,376.21Z"/><path class="cls-4" d="M311,512.51c.31,1,.63,2,1,2.93s.54,2.11.81,3.12a87.82,87.82,0,0,0,7.61,19.75c5.72,10.41,16,18.12,28,19.42a31,31,0,0,0,28.73-13c7.57-11,6.79-29,2.35-41.26a3.34,3.34,0,0,0-3-4.29c-5-.11-9.65,1.53-14.54,2.28a86.9,86.9,0,0,1-16,.86c-10.62-.34-21.1-2.2-31.71-2a3.26,3.26,0,0,0-1.62-.43,3.53,3.53,0,0,0-3.49,3.5,3.73,3.73,0,0,0,.42,1.56C309.37,507.47,310.34,510.25,311,512.51Z"/><path class="cls-4" d="M166.81,429.77c-.27-.19-.53-.4-.81-.58C166.28,429.37,166.54,429.58,166.81,429.77Z"/><path class="cls-4" d="M164.77,428.44c-.27-.17-.54-.34-.83-.5C164.23,428.1,164.5,428.27,164.77,428.44Z"/><path class="cls-4" d="M162.48,427.25l-.76-.35Z"/><path class="cls-4" d="M172.19,434.46l-.57-.57Z"/><path class="cls-4" d="M155.81,432.61l1.21.07Z"/><path class="cls-4" d="M187.2,438v.11h0Z"/><path class="cls-4" d="M386.43,448.55c4-8.52,8.85-15.76,18.49-18.45,4.67-1.3,10.6-1.83,14.5,1.56,2.42,2.12,3.41,5,6.79,5.71a3,3,0,0,0,3.21-1.31c3.1-4.42-1-10.05-4.55-12.85-5.8-4.54-13.55-4.63-20.43-2.84-12.18,3.18-23.66,14.29-21.68,27.7C383,449.75,385.73,450,386.43,448.55Z"/><path class="cls-4" d="M160.43,433.18l.54.11Z"/><path class="cls-4" d="M157.9,432.77l.81.11Z"/><path class="cls-4" d="M162.09,433.55l.43.12Z"/><path class="cls-5" d="M462.21,219.74c-3.48-3.05.19-9.24,4.53-7.79,12.17,4.08,22.7,10.27,33.19,16.92a94.2,94.2,0,0,0-8.17-10.82q-9.6-11.36-20-22c-12.33-12.55-27.27-27-45.84-28.07-3.21-.18-5.72-3.67-3.83-6.67a60.5,60.5,0,0,1,7.29-9.39,74.6,74.6,0,0,0-21.53,10.13,3.12,3.12,0,0,1-2.57.45c-2.48.67-5.18-.29-5.68-3.59a116.49,116.49,0,0,1,6.32-59.15,88,88,0,0,0-44.25,53.39c-1,3.39-5.74,5.07-8.27,2.19a95.64,95.64,0,0,1-23.21-52,72.94,72.94,0,0,0-2,46.38c1.39,4.74-4.69,8-8.11,4.72C287.49,123.06,272.9,77,271.9,32.16a227.24,227.24,0,0,0-20,99c.12,4.53-6.57,6.49-8.7,2.36A144,144,0,0,1,230.42,98a111.42,111.42,0,0,0,4.91,40.73c1.43,4.45-5.41,7.31-7.52,3.17-18.91-37-37-76.47-38.25-118.48-40,62.68-42.82,147.35-4.46,211.55,2.89,4.84-3.4,8.63-7.24,5.59-23.67-18.75-39.54-44.69-48.46-73a232.26,232.26,0,0,0,2,61.25c.65,4-4,7.58-7.25,4.22a65.91,65.91,0,0,1-11.59-16.11c-.08,6,0,12,.25,18,.44,11.86,1.14,24.08,4.71,35.48,1.09,3.49-3.55,6-6,3.52-6.67-6.75-12-15.11-17.22-23.31a250.64,250.64,0,0,0,.35,41.82c1.68,18.83,4.72,37.11,12.21,54.5,2,4.59-4.1,8.48-6.86,4-5-8.13-9.82-16.29-15-24.24A258.34,258.34,0,0,0,97.5,383.11a211.93,211.93,0,0,0,15.2,33.65c5,8.93,10.87,17.15,16.41,25.66a26.54,26.54,0,0,1,13.4-14.78,24.66,24.66,0,0,1,16.78-1.55,21.63,21.63,0,0,1,2.43.81l.76.35c.5.22,1,.44,1.46.69.29.16.56.33.83.5s.84.48,1.23.75.54.39.81.58.76.55,1.12.84.51.42.77.63.73.62,1.08.94l.7.64,1.14,1.07.57.57c.8.78,1.59,1.58,2.4,2.4a14.58,14.58,0,0,0,3.59,1.86,6.11,6.11,0,0,0,2.75.45l-.06-.15c-10.44-38.33-11.8-80.94,11.72-114.84a3.44,3.44,0,0,1,6.26,2.63,86.74,86.74,0,0,0-2,22.35,159.05,159.05,0,0,1,14.27-27.42c8.26-12.95,17.15-27.22,29.42-36.75,2.86-2.22,8-.32,6.67,3.89a107.58,107.58,0,0,0-3,53c4.92-20.27,13.82-39.68,30.55-52.93,3.18-2.52,8.53-.31,7.26,4.23a76.75,76.75,0,0,0-2.79,24.12c4.29-7.08,9.83-13.53,15.27-19.57a186.21,186.21,0,0,1,32.84-28.49c3.75-2.59,6.79,2.8,4.45,5.77-8,10.14-7.56,26.39-7.91,38.65q-.31,11,.44,21.94c8.59-20.59,23.39-38.55,37.77-55.4,2.49-2.92,7.67-.54,7.53,3.12a86,86,0,0,0,21.68,60.21,109.32,109.32,0,0,1,15.19-68.36c2.51-4.12,8-2.32,9.24,1.11,7,4.28,12.27,12.85,16,19.3,6,10.48,11.39,22,14.07,33.82,2.87,12.69,2.31,26,.87,38.86-.56,5-1.22,10.14-2.21,15.24a110,110,0,0,0,8.56-17.45,135.65,135.65,0,0,0,5.54-18.74c1.25-5.54,1.59-11.36,4.31-16.43,1-1.92,3.83-1.32,4.44.58a21.82,21.82,0,0,1,.82,3.87,2.26,2.26,0,0,1,.16.26c5.46,12.24,6.54,26.47,6,39.74a121.47,121.47,0,0,1-2.71,20.46c-1.35,6.23-2.69,12.74-7.35,17.33a3.19,3.19,0,0,1-5.38-2.22c-.47-6.09,2.11-11.8,3.51-17.65a118.19,118.19,0,0,0,2.84-37.9c-1.77,5.24-4,10.26-5.83,14.49a134.74,134.74,0,0,1-13.81,23.79c1,9,2.05,17.92,3.09,26.88,12.38-3.3,24.31,13.74,26.08,24.84,1.37,8.58-1.55,20.83-8.21,28.32a45,45,0,0,1-.48,5.59c5.63-5.2,9.58-11.9,13.25-18.95a164.58,164.58,0,0,0,12.53-31.82c3.14-11.27,5.74-23.08,5.94-34.81a109.59,109.59,0,0,0-1.3-17.26c-.77-5.34-2.53-11.13-.79-16.38.81-2.45,4.32-3.94,6.25-1.65a19.87,19.87,0,0,1,3.81,7.68,38.74,38.74,0,0,1,6.74,10.34c-1.32-7.61-.41-15.39-1.92-23.11a208.66,208.66,0,0,0-6.52-23.66c-2.58-8-4.54-16.48-8-24.14-2.78-6.11-6.89-11.47-10.06-17.35-1.43-1.61-2.9-3.2-4.42-4.75-4.7-4.79,2.26-11.39,7.24-7.24Q501.85,287,515,297.71C504.73,267.54,486.36,240.92,462.21,219.74Z"/><path class="cls-2" d="M183.51,443.15c-4.51.88-8.65-1.68-12.08-4.25-1.92-1.43-4.48-2.79-6.53-4.49-.78-.28-1.58-.52-2.38-.74l-.43-.12-1.12-.26-.54-.11c-.57-.12-1.15-.22-1.72-.3l-.81-.11-.88-.09-1.21-.07h-.89c-.4,0-.79,0-1.18,0l-.65,0c-.54,0-1.06.1-1.59.18l-.32.06c-.48.08-1,.18-1.42.3l-.49.13a15.94,15.94,0,0,0-1.61.53l-.1,0c-.5.2-1,.43-1.48.68l-.4.21a16.77,16.77,0,0,0-1.5.92c-9.1,6.4-10.55,18.64-6.82,28.48,3.66,9.63,12.14,19,21.87,22.6,3.82,1.4,7.8,2.25,11.27,4.51,2.39,1.56,4.52,5.15,7.09,6.87A64.92,64.92,0,0,1,177.1,483a2.64,2.64,0,0,1,5.16-.7c2.72,8.14,4,16.63,6.53,24.83a98.25,98.25,0,0,0,11,24c8.9,13.88,21.8,24.09,36.4,31.48,25.54,13,55.59,18.93,84,20.76,29.28,1.88,59.4-1.38,86.55-13,12.3-5.27,28-12.55,35.21-24.41,8.46-13.92,5.28-34.69,4-50.09-2.47-30.68-5.32-61.35-8.09-92l-1.05,1.37c-2.55,3.25-6.87-.42-6.26-3.65,2.24-12,5.66-23.42,6.64-35.67.89-11.12,1.42-22.93-1-33.87-2.4-10.78-6.88-21.16-11.85-31a95.75,95.75,0,0,0-7.2-12.1c-1.26-1.77-2.71-3.44-4.15-5.1a96.39,96.39,0,0,0-10.84,71c1.13,4.65-4.1,7-7.48,4.36A90.52,90.52,0,0,1,361,295.32c-15.5,18.88-29.85,38.86-34.09,63.51-.74,4.3-8,4.3-8.69,0A201.42,201.42,0,0,1,315.38,310c.6-8.22,1.45-16.71,3.79-24.67a207.32,207.32,0,0,0-17.08,16.85c-8.48,9.39-17.65,19.7-20.83,32.23-1,4.08-7.45,4.22-8.41,0a89.76,89.76,0,0,1-1.7-29.49c-12.92,15.5-19.44,35.44-22.33,55.51-.62,4.32-6.52,3.24-7.72,0a112.32,112.32,0,0,1-4.78-61.17c-7.58,8.07-13.6,18.14-19.3,27.19-8,12.66-14.57,26-18,40.63-.82,3.45-6.29,3.53-7.05,0A96.27,96.27,0,0,1,189.83,343c-.38.87-.74,1.75-1.09,2.63-.12.29-.23.59-.34.88-.23.59-.46,1.18-.67,1.77-.13.35-.25.7-.37,1.05-.19.54-.38,1.08-.56,1.63l-.36,1.12-.48,1.58c-.11.39-.23.77-.34,1.16s-.29,1-.42,1.57-.21.78-.31,1.17-.26,1.06-.38,1.59-.19.77-.27,1.16c-.13.55-.24,1.1-.35,1.65-.08.38-.16.75-.23,1.12-.12.61-.23,1.23-.34,1.84,0,.31-.11.62-.17.93-.15.92-.29,1.83-.42,2.75,0,.29-.08.58-.12.87-.09.64-.17,1.28-.25,1.92-.05.41-.09.81-.13,1.22s-.12,1.06-.17,1.59l-.12,1.32-.12,1.5-.09,1.36-.09,1.47c0,.46,0,.93-.07,1.39s0,1,0,1.43,0,1,0,1.43l0,1.41c0,.48,0,1,0,1.45s0,.91,0,1.37,0,1,0,1.5,0,.82,0,1.23c0,1.41.07,2.83.13,4.24v.05c0,.61.07,1.23.1,1.85,0,.33,0,.65.05,1l.12,1.78c0,.36,0,.71.07,1.07.05.59.1,1.18.14,1.77l.09,1c.05.61.11,1.21.17,1.82l.09,1c.07.63.13,1.25.2,1.87l.09.89c.08.65.15,1.3.23,2l.09.71c.09.71.17,1.43.27,2.14l0,.25c.58,4.41,1.26,8.8,2,13.15a44.17,44.17,0,0,1,1.85,10.21V438h0v.11C187.32,440.76,186.36,442.59,183.51,443.15Zm-17.94,37.31c-12.85,1.74-24.21-10.85-24.16-23.1,0-14.11,13.07-24.59,25.23-14.29,1.18,1,.17,2.89-1.21,2.92-4.89.1-10.49.26-13,5-1.83,3.37-1.69,8.47-.16,12,2.84,6.53,10.5,7.22,14.71,12.33C168.24,476.8,168.14,480.11,165.57,480.46Zm226.26-98.69a17.64,17.64,0,0,1,7.93-9.58c2.94-1.68,8.78-4,11.67-1.15s-.93,4.69-3.49,5c-5.13.65-9.86,2.7-12.94,7C393.94,384.59,391.09,383.73,391.83,381.77Zm12.61,38.6c6.88-1.79,14.63-1.7,20.43,2.84,3.58,2.8,7.65,8.43,4.55,12.85a3,3,0,0,1-3.21,1.31c-3.38-.69-4.37-3.59-6.79-5.71-3.9-3.39-9.83-2.86-14.5-1.56-9.64,2.69-14.47,9.93-18.49,18.45-.7,1.49-3.42,1.2-3.67-.48C380.78,434.66,392.26,423.55,404.44,420.37Zm-91.85,79.54a3.26,3.26,0,0,1,1.62.43c10.61-.18,21.09,1.68,31.71,2a86.9,86.9,0,0,0,16-.86c4.89-.75,9.55-2.39,14.54-2.28a3.34,3.34,0,0,1,3,4.29c4.44,12.24,5.22,30.24-2.35,41.26a31,31,0,0,1-28.73,13c-12-1.3-22.25-9-28-19.42a87.82,87.82,0,0,1-7.61-19.75c-.27-1-.54-2.06-.81-3.12s-.7-1.93-1-2.93c-.69-2.26-1.66-5-1.51-7.54a3.73,3.73,0,0,1-.42-1.56A3.53,3.53,0,0,1,312.59,499.91ZM255.77,373.63c5.55-2.18,19.6-2.14,19.51,6.47a2.16,2.16,0,0,1-2.13,2.13c-3.09.17-5-2-7.54-3.4a20.12,20.12,0,0,0-9.49-2.62A1.32,1.32,0,0,1,255.77,373.63Zm-3.52,44.68A32.8,32.8,0,0,1,271,430.14c4.09,5.3,9.17,13.68,8.25,20.6-.39,2.95-3.53,4.67-6,2.47-3.72-3.37-4.77-8.46-7.07-12.8-2.59-4.9-6-9-10.89-11.66-10.86-5.93-25.29-5.67-33,4.88-1,1.35-3.42,1-3.37-.91C219.35,416.74,240.73,415.62,252.25,418.31Z"/><path class="cls-3" d="M182.34,405.64c-.06-.61-.12-1.21-.17-1.82C182.22,404.43,182.28,405,182.34,405.64Z"/><path class="cls-3" d="M183.31,414.19c-.1-.71-.18-1.43-.27-2.14C183.13,412.76,183.21,413.48,183.31,414.19Z"/><path class="cls-3" d="M181.57,381.22c0-.46.05-.93.07-1.39C181.62,380.29,181.59,380.76,181.57,381.22Z"/><path class="cls-3" d="M187.2,437.8a44.17,44.17,0,0,0-1.85-10.21c-.75-4.35-1.43-8.74-2-13.15,1,7.73,2.35,15.38,3.79,22.85a3.18,3.18,0,0,1,.07.67h0Z"/><path class="cls-3" d="M182.08,402.78c0-.59-.09-1.18-.14-1.77C182,401.6,182,402.19,182.08,402.78Z"/><path class="cls-3" d="M181.48,384.08c0-.47,0-.95,0-1.43C181.5,383.13,181.49,383.61,181.48,384.08Z"/><path class="cls-3" d="M161.72,426.9a21.63,21.63,0,0,0-2.43-.81A21.63,21.63,0,0,1,161.72,426.9Z"/><path class="cls-3" d="M155.81,432.61h0Z"/><path class="cls-3" d="M529.71,310.88A175.87,175.87,0,0,0,490,233.09a214.47,214.47,0,0,1,17.76,12.29c2.83,2.16,7.65-.75,7.31-4.2-1-10.48-6.76-19-13.28-26.91a350.44,350.44,0,0,0-23.88-26.05c-12.73-12.68-26.63-24-44.06-27.85a56.25,56.25,0,0,1,12.69-11.11c3.53-2.25,2.31-8.31-2.22-8.18-12.55.35-24.88,3.83-35.17,10.87a108.47,108.47,0,0,1,10.69-59.16c1.79-3.59-1.23-8.94-5.66-7.36a100.22,100.22,0,0,0-59,56.36A86.52,86.52,0,0,1,340,83.55c.5-5.32-6.75-6.19-9.26-2.51a86.33,86.33,0,0,0-14.57,54c-27-35.24-37.24-79.93-33.95-124.43.36-4.91-6.79-6.5-9.07-2.46A238.68,238.68,0,0,0,243.05,109.3a138.94,138.94,0,0,1-7.11-41.69c-.08-5-7.21-6-8.64-1.17a127.74,127.74,0,0,0-5.05,43.38C208.33,78,196.69,44.89,198.12,9.73c.19-4.49-5.56-5.22-7.8-2.11-23.72,33-38.66,71.09-41.32,111.83-2.16,33,4,65.46,16.41,95.68-17-19.87-29.26-43.69-33.1-69.92-.6-4.1-7.2-3.84-8,0a221,221,0,0,0-3.71,69,64,64,0,0,1-6.74-16.91c-1-3.92-5.81-3.12-6.94-.08a4.11,4.11,0,0,0-1.87,3.2c-1,12.19-1.44,24.64-.08,36.82.61,5.58,1.54,11.1,2.51,16.62-4.15-5.68-8.63-11.18-12.6-16.7-2.39-3.33-6.81-1.92-7.32,2a221.8,221.8,0,0,0-.4,56.69,242.32,242.32,0,0,0,5.2,27c-3-4.29-6.08-8.5-9.14-12.64-2.17-2.92-7.76-2.36-7.53,2A241.24,241.24,0,0,0,91.16,386c8.6,22.5,19.23,46.8,35.35,65a3,3,0,0,0,.49.46,35.7,35.7,0,0,0,.13,7.87c1.71,13.07,10.54,25.48,21.41,32.72,5.84,3.9,13.81,4.25,18.8,9.23,4.14,4.13,6.91,7.55,12.45,7.49a117.1,117.1,0,0,0,8.4,21.83c6.7,13.38,17.22,24.33,29.43,32.83,25.43,17.71,57.68,25.19,88,28.94,31.55,3.91,64.49,2.22,94.68-8.31,14.41-5,29.07-11.86,41-21.56C454,552.07,457.81,537.34,458,521.41c.14-13.75-1.18-27.55-2.71-41.29a16.51,16.51,0,0,0,4.1-1.16c-1,2.66-1.86,5.35-2.79,8-1.15,3.29,2.78,5.55,5.47,4.2,20.65-10.36,32-37.25,39-57.86,4.12-12,7.08-24.7,7.64-37.42q0-1.14.06-2.28c1.46,2.73,6.39,3.23,7.76.1a87.28,87.28,0,0,0,4.65-13.38c1.59-3.83,2-8.24,2.1-12.46.11-1.5.19-3,.21-4.52a93.43,93.43,0,0,0-.52-11.46,4.42,4.42,0,0,0,.36-1.43c1-13.88-2.9-27.67-9.35-40.35l7,5.8C525,319.22,530.91,316.19,529.71,310.88ZM442,546c-7.2,11.86-22.91,19.14-35.21,24.41-27.15,11.64-57.27,14.9-86.55,13-28.4-1.83-58.45-7.81-84-20.76-14.6-7.39-27.5-17.6-36.4-31.48a98.25,98.25,0,0,1-11-24c-2.55-8.2-3.81-16.69-6.53-24.83a2.64,2.64,0,0,0-5.16.7,64.92,64.92,0,0,0,.49,15.15c-2.57-1.72-4.7-5.31-7.09-6.87-3.47-2.26-7.45-3.11-11.27-4.51-9.73-3.56-18.21-13-21.87-22.6-3.73-9.84-2.28-22.08,6.82-28.48a16.77,16.77,0,0,1,1.5-.92l.4-.21c.48-.25,1-.48,1.48-.68l.1,0a15.94,15.94,0,0,1,1.61-.53l.49-.13c.47-.12.94-.22,1.42-.3l.32-.06c.53-.08,1.05-.13,1.59-.18l.65,0c.39,0,.78,0,1.18,0h.89l1.21.07.88.09.81.11c.57.08,1.15.18,1.72.3l.54.11,1.12.26.43.12c.7.19,1.38.41,2.06.64l.35.12c2,1.69,4.59,3,6.5,4.47,3.43,2.57,7.57,5.13,12.08,4.25,2.85-.56,3.81-2.39,3.69-5.08h0V438a3.18,3.18,0,0,0-.07-.67c-1.44-7.47-2.78-15.12-3.79-22.85l0-.25c-.1-.71-.18-1.43-.27-2.14l-.09-.71c-.08-.66-.15-1.31-.23-2l-.09-.89c-.07-.62-.13-1.24-.2-1.87l-.09-1c-.06-.61-.12-1.21-.17-1.82l-.09-1c0-.59-.09-1.18-.14-1.77,0-.36-.05-.71-.07-1.07l-.12-1.78c0-.33,0-.65-.05-1,0-.62-.07-1.24-.1-1.85v-.05c-.06-1.41-.1-2.83-.13-4.24,0-.41,0-.82,0-1.23s0-1,0-1.5,0-.91,0-1.37,0-1,0-1.45l0-1.41c0-.47,0-.95,0-1.43s0-.95,0-1.43.05-.93.07-1.39l.09-1.47.09-1.36.12-1.5.12-1.32c.05-.53.11-1.06.17-1.59s.08-.81.13-1.22c.08-.64.16-1.28.25-1.92,0-.29.07-.58.12-.87.13-.92.27-1.83.42-2.75.06-.31.12-.62.17-.93.11-.61.22-1.23.34-1.84.07-.37.15-.74.23-1.12.11-.55.22-1.1.35-1.65.08-.39.18-.77.27-1.16s.25-1.06.38-1.59.2-.78.31-1.17.28-1.05.42-1.57.23-.77.34-1.16l.48-1.58.36-1.12c.18-.55.37-1.09.56-1.63.12-.35.24-.7.37-1.05.21-.59.44-1.18.67-1.77.11-.29.22-.59.34-.88.35-.88.71-1.76,1.09-2.63A96.27,96.27,0,0,0,192,367.07c.76,3.53,6.23,3.45,7.05,0,3.45-14.63,10-28,18-40.63,5.7-9.05,11.72-19.12,19.3-27.19a112.32,112.32,0,0,0,4.78,61.17c1.2,3.24,7.1,4.32,7.72,0,2.89-20.07,9.41-40,22.33-55.51a89.76,89.76,0,0,0,1.7,29.49c1,4.22,7.37,4.08,8.41,0,3.18-12.53,12.35-22.84,20.83-32.23a207.32,207.32,0,0,1,17.08-16.85c-2.34,8-3.19,16.45-3.79,24.67a201.42,201.42,0,0,0,2.83,48.84c.73,4.3,8,4.3,8.69,0,4.24-24.65,18.59-44.63,34.09-63.51a90.52,90.52,0,0,0,33.74,63.89c3.38,2.68,8.61.29,7.48-4.36a96.39,96.39,0,0,1,10.84-71c1.44,1.66,2.89,3.33,4.15,5.1a95.75,95.75,0,0,1,7.2,12.1c5,9.83,9.45,20.21,11.85,31,2.43,10.94,1.9,22.75,1,33.87-1,12.25-4.4,23.68-6.64,35.67-.61,3.23,3.71,6.9,6.26,3.65l1.05-1.37c2.77,30.66,5.62,61.33,8.09,92C447.26,511.28,450.44,532.05,442,546Zm19.39-80.44c-2,2.83-4.52,5-6.93,7.31-.59-5.15-1.17-10.28-1.69-15.41-.92-9.21-1.95-18.41-3-27.6,5.06-.65,8.93,1.45,12.23,6.36a25.78,25.78,0,0,1,4.19,15.17A26.07,26.07,0,0,1,461.37,465.53Zm27.41-189.37c-5-4.15-11.94,2.45-7.24,7.24,1.52,1.55,3,3.14,4.42,4.75,3.17,5.88,7.28,11.24,10.06,17.35,3.49,7.66,5.45,16.14,8,24.14a208.66,208.66,0,0,1,6.52,23.66c1.51,7.72.6,15.5,1.92,23.11a38.74,38.74,0,0,0-6.74-10.34,19.87,19.87,0,0,0-3.81-7.68c-1.93-2.29-5.44-.8-6.25,1.65-1.74,5.25,0,11,.79,16.38a109.59,109.59,0,0,1,1.3,17.26c-.2,11.73-2.8,23.54-5.94,34.81a164.58,164.58,0,0,1-12.53,31.82c-3.67,7.05-7.62,13.75-13.25,18.95a45,45,0,0,0,.48-5.59c6.66-7.49,9.58-19.74,8.21-28.32-1.77-11.1-13.7-28.14-26.08-24.84-1-9-2.09-17.92-3.09-26.88a134.74,134.74,0,0,0,13.81-23.79c1.86-4.23,4.06-9.25,5.83-14.49a118.19,118.19,0,0,1-2.84,37.9c-1.4,5.85-4,11.56-3.51,17.65a3.19,3.19,0,0,0,5.38,2.22c4.66-4.59,6-11.1,7.35-17.33a121.47,121.47,0,0,0,2.71-20.46c.56-13.27-.52-27.5-6-39.74a2.26,2.26,0,0,0-.16-.26,21.82,21.82,0,0,0-.82-3.87c-.61-1.9-3.41-2.5-4.44-.58-2.72,5.07-3.06,10.89-4.31,16.43a135.65,135.65,0,0,1-5.54,18.74,110,110,0,0,1-8.56,17.45c1-5.1,1.65-10.26,2.21-15.24,1.44-12.84,2-26.17-.87-38.86-2.68-11.82-8-23.34-14.07-33.82-3.71-6.45-9-15-16-19.3-1.23-3.43-6.73-5.23-9.24-1.11a109.32,109.32,0,0,0-15.19,68.36,86,86,0,0,1-21.68-60.21c.14-3.66-5-6-7.53-3.12C347.77,297.05,333,315,324.38,335.6q-.76-10.94-.44-21.94c.35-12.26-.1-28.51,7.91-38.65,2.34-3-.7-8.36-4.45-5.77a186.21,186.21,0,0,0-32.84,28.49c-5.44,6-11,12.49-15.27,19.57a76.75,76.75,0,0,1,2.79-24.12c1.27-4.54-4.08-6.75-7.26-4.23-16.73,13.25-25.63,32.66-30.55,52.93a107.58,107.58,0,0,1,3-53c1.32-4.21-3.81-6.11-6.67-3.89-12.27,9.53-21.16,23.8-29.42,36.75a159.05,159.05,0,0,0-14.27,27.42,86.74,86.74,0,0,1,2-22.35,3.44,3.44,0,0,0-6.26-2.63c-23.52,33.9-22.16,76.51-11.72,114.84l.06.15a6.11,6.11,0,0,1-2.75-.45,14.58,14.58,0,0,1-3.59-1.86c-.81-.82-1.6-1.62-2.4-2.4l-.57-.57-1.14-1.07-.7-.64c-.35-.32-.72-.63-1.08-.94s-.51-.43-.77-.63-.74-.56-1.12-.84-.53-.4-.81-.58-.81-.51-1.23-.75-.54-.34-.83-.5c-.47-.25-1-.47-1.46-.69l-.76-.35a21.63,21.63,0,0,0-2.43-.81,24.66,24.66,0,0,0-16.78,1.55,26.54,26.54,0,0,0-13.4,14.78c-5.54-8.51-11.45-16.73-16.41-25.66a211.93,211.93,0,0,1-15.2-33.65,258.34,258.34,0,0,1-12.58-56.49c5.19,7.95,10,16.11,15,24.24,2.76,4.47,8.84.58,6.86-4-7.49-17.39-10.53-35.67-12.21-54.5a250.64,250.64,0,0,1-.35-41.82c5.22,8.2,10.55,16.56,17.22,23.31,2.49,2.51,7.13,0,6-3.52-3.57-11.4-4.27-23.62-4.71-35.48-.23-6-.33-12-.25-18A65.91,65.91,0,0,0,124.12,233c3.26,3.36,7.9-.23,7.25-4.22a232.26,232.26,0,0,1-2-61.25c8.92,28.36,24.79,54.3,48.46,73,3.84,3,10.13-.75,7.24-5.59-38.36-64.2-35.53-148.87,4.46-211.55,1.28,42,19.34,81.43,38.25,118.48,2.11,4.14,8.95,1.28,7.52-3.17A111.42,111.42,0,0,1,230.42,98a144,144,0,0,0,12.73,35.55c2.13,4.13,8.82,2.17,8.7-2.36a227.24,227.24,0,0,1,20-99c1,44.79,15.59,90.9,48.11,122.36,3.42,3.3,9.5,0,8.11-4.72a72.94,72.94,0,0,1,2-46.38,95.64,95.64,0,0,0,23.21,52c2.53,2.88,7.29,1.2,8.27-2.19A88,88,0,0,1,405.88,99.8,116.49,116.49,0,0,0,399.56,159c.5,3.3,3.2,4.26,5.68,3.59a3.12,3.12,0,0,0,2.57-.45A74.6,74.6,0,0,1,429.34,152a60.5,60.5,0,0,0-7.29,9.39c-1.89,3,.62,6.49,3.83,6.67,18.57,1.08,33.51,15.52,45.84,28.07q10.42,10.59,20,22a94.2,94.2,0,0,1,8.17,10.82c-10.49-6.65-21-12.84-33.19-16.92-4.34-1.45-8,4.74-4.53,7.79,24.15,21.18,42.52,47.8,52.82,78Q501.88,287,488.78,276.16Z"/><path class="cls-3" d="M181.87,399.94l-.12-1.78Z"/><path class="cls-3" d="M181.45,389.81c0-.5,0-1,0-1.5C181.44,388.81,181.44,389.31,181.45,389.81Z"/><path class="cls-3" d="M181.7,397.18c0-.62-.07-1.24-.1-1.85C181.63,395.94,181.67,396.56,181.7,397.18Z"/><path class="cls-3" d="M182.63,408.49c-.07-.62-.13-1.24-.2-1.87C182.5,407.25,182.56,407.87,182.63,408.49Z"/><path class="cls-3" d="M181.6,395.28c-.06-1.41-.1-2.83-.13-4.24C181.5,392.45,181.54,393.87,181.6,395.28Z"/><path class="cls-3" d="M183,411.34c-.08-.66-.15-1.31-.23-2C182.8,410,182.87,410.68,183,411.34Z"/><path class="cls-3" d="M181.44,386.94c0-.48,0-1,0-1.45C181.45,386,181.44,386.46,181.44,386.94Z"/><path class="cls-3" d="M161,433.29l1.12.26Z"/><path class="cls-3" d="M188.4,346.49c.11-.29.22-.59.34-.88C188.62,345.9,188.51,346.2,188.4,346.49Z"/><path class="cls-3" d="M145.68,434.79l.4-.21Z"/><path class="cls-3" d="M147.56,433.9l.1,0Z"/><path class="cls-3" d="M171.62,433.89l-1.14-1.07Z"/><path class="cls-3" d="M187.36,349.31c.12-.35.24-.7.37-1.05C187.6,348.61,187.48,349,187.36,349.31Z"/><path class="cls-3" d="M186.44,352.06l.36-1.12Z"/><path class="cls-3" d="M157,432.68l.88.09Z"/><path class="cls-3" d="M153.09,432.66l.65,0Z"/><path class="cls-3" d="M149.27,433.33l.49-.13Z"/><path class="cls-3" d="M151.18,432.9l.32-.06Z"/><path class="cls-3" d="M158.71,432.88c.57.08,1.15.18,1.72.3C159.86,433.06,159.28,433,158.71,432.88Z"/><path class="cls-3" d="M183.15,365.83c.06-.31.12-.62.17-.93C183.27,365.21,183.21,365.52,183.15,365.83Z"/><path class="cls-3" d="M182.61,369.45c0-.29.07-.58.12-.87C182.68,368.87,182.65,369.16,182.61,369.45Z"/><path class="cls-3" d="M182.23,372.59c0-.41.08-.81.13-1.22C182.31,371.78,182.27,372.18,182.23,372.59Z"/><path class="cls-3" d="M181.73,378.36l.09-1.36Z"/><path class="cls-3" d="M166,429.19c-.39-.27-.81-.51-1.23-.75C165.19,428.68,165.61,428.92,166,429.19Z"/><path class="cls-3" d="M185.62,354.8c.11-.39.23-.77.34-1.16C185.85,354,185.73,354.41,185.62,354.8Z"/><path class="cls-3" d="M181.94,375.5l.12-1.32Z"/><path class="cls-3" d="M163.94,427.94c-.47-.25-1-.47-1.46-.69C163,427.47,163.47,427.69,163.94,427.94Z"/><path class="cls-3" d="M169.78,432.18c-.35-.32-.72-.63-1.08-.94C169.06,431.55,169.43,431.86,169.78,432.18Z"/><path class="cls-3" d="M183.66,363.06c.07-.37.15-.74.23-1.12C183.81,362.32,183.73,362.69,183.66,363.06Z"/><path class="cls-3" d="M184.89,357.54c.1-.39.2-.78.31-1.17C185.09,356.76,185,357.15,184.89,357.54Z"/><path class="cls-3" d="M184.24,360.29c.08-.39.18-.77.27-1.16C184.42,359.52,184.32,359.9,184.24,360.29Z"/><path class="cls-3" d="M167.93,430.61c-.36-.29-.74-.57-1.12-.84C167.19,430.05,167.57,430.32,167.93,430.61Z"/><path class="cls-3" d="M152.24,462.91c-1.53-3.49-1.67-8.59.16-12,2.54-4.7,8.14-4.86,13-5,1.38,0,2.39-1.92,1.21-2.92-12.16-10.3-25.19.18-25.23,14.29,0,12.25,11.31,24.84,24.16,23.1,2.57-.35,2.67-3.66,1.38-5.22C162.74,470.13,155.08,469.44,152.24,462.91Z"/></svg>