<svg id="Layer_1" data-name="Layer 1" xmlns="http://www.w3.org/2000/svg" viewBox="0 0 600 600"><defs><style>.cls-1{fill:#58595b;}.cls-2{fill:#939598;}.cls-3{fill:#fff;}.cls-4{fill:#231f20;}</style></defs><title>doodle</title><path class="cls-1" d="M388.87,407.78c-2.51.38-5,3.06-6,5.85a30.49,30.49,0,0,0-6.89,13.5c-2.38,9.85-3.77,29.83,9,33.5,12.07,3.46,16.91-17.14,18.49-25.09,1.21-6.15,2.32-14.06-1.53-19.61C399.13,411.86,400.17,406.05,388.87,407.78Z"/><path class="cls-1" d="M378.33,294c34,6.41,52.66-30.3,57.36-57.75,6.06-35.41,5.58-75.61-15.27-106.24-9.6-14.11-23.63-24.92-41.22-18-8.91,3.51-15.12,9.78-20.79,16.66-15.77,22.64-21,50.83-20.76,80,.13,16.89,2,33.86,7.93,49.79C351.12,273.35,361.43,290.85,378.33,294Z"/><path class="cls-1" d="M236.35,232.68c-2.85-33.5-5.54-67-7.82-100.54-1.16-17-2.18-34-3.18-51-.72-12.28-2.15-24.9-2.19-37.36-15.8,4.54-31.18,11-46.62,16.59-25.49,9.15-51.43,20.68-77.94,27,8,33.05,12.08,67.59,16.83,101.18C133,313,146.29,438.13,177,560.22c24.34,1.51,47.85-6.38,71.68-10.56,6.83-1.2,13.67-2.21,20.54-3.1-5.18-37.1-9.1-74.41-13.18-111.64Q245,333.92,236.35,232.68Z"/><path class="cls-2" d="M234,41c2.06,14.72,2.22,30,3.35,44.62q2.16,27.78,4.43,55.55c5.45,67.53,11.11,135,17.78,202.44s15.08,134.31,22.17,201.52c13.76-1.44,27.58-2.36,41.41-2.88,52.26-2,104.73-.74,157-.65q5.68-99.68,11.36-199.35,5.21-91.43,10.39-182.86,2.63-46.08,5.31-92.18c.25-4.35,2.91-16.89-.61-18.93-2.3-1.33-9.15-.6-11.79-.75l-10.53-.58q-22.55-1.22-45.1-2.29Q394.08,42.48,349,40.79c-30.07-1.13-60.31-3-90.4-2.74A118.12,118.12,0,0,0,234,41ZM419.58,488.45C402.75,506,372,509,355.78,489c-8.79-10.86-12.31-25.53-14-39.12-1.76-14.11-1.29-29.35,4.46-42.56,9-20.79,33.1-38.48,56.35-32.27a1.72,1.72,0,0,1,1,.77,32.63,32.63,0,0,1,6.07,2.33c11.92,6.12,18.52,18.77,22.26,31.1C440,435.54,439.74,467.47,419.58,488.45ZM302.21,206.69c2-27.09,8.33-54.71,19.09-79.7,4.62-10.73,10.92-21.24,19.06-29.75C352.13,82.56,367.84,71.72,387.75,69c28.82-4,52.27,13.4,66,37.56,13.85,24.43,18.95,52.94,20.49,80.67s.83,56.21-5,83.34c-5.18,24.18-16.06,51.37-36.38,66.78-20,15.13-48,10.89-68.94.16C316.27,313.07,298.42,257,302.21,206.69Zm-33.53,75.78c3.41,8.27,4.43,17.63,5.51,26.47,1.19,9.78,2,19.56.94,29.38-.14,1.31-2.24,1.87-2.51.34-1.54-8.88-2.1-17.83-3-26.79-1-9.63-3.13-19.44-3-29.12A1.06,1.06,0,0,1,268.68,282.47Zm-3.19-61.94c.74,13.94,2.17,28.06.74,42-.13,1.31-2.19,1.84-2.49.33-2.63-13.41-2.63-27.19-3.31-40.81-.71-14-1.4-28-2.15-42-1.52-28.41-4.06-56.91-4-85.37,0-1.1,1.79-1.4,2-.27,3.86,27.35,5,55.1,6.76,82.64Q264.31,198.81,265.49,220.53Z"/><path class="cls-3" d="M408.72,393A26.11,26.11,0,0,0,374,391.58c-11.23,8.31-19.05,20-20.58,36.29-2.2,23.42,3.82,65,35.37,62.54,30.32-2.35,38.27-38.46,34.19-63C421,415.68,417.75,401.49,408.72,393ZM390.87,472.7c-24.43,4.39-29.8-26.43-26.89-43.67,2.69-16,22.12-26.81,37-25.66.71.06,1.51-1.46,1.53-.86.17.07.6.79.77.86,8.43,3.67,12.35,10.19,13.23,19C418.22,439.05,410.5,469.17,390.87,472.7Z"/><path class="cls-3" d="M376.51,329.81c10.39,4.11,22.3,6.5,33.42,4.38,12.14-2.31,20.78-10.25,27.66-20.12,13.29-19.07,19.62-42,22.34-64.89a349.36,349.36,0,0,0,.87-71.42c-2.13-24.11-7.75-49.12-21-69.7-12.72-19.73-33.33-31.49-57-25.16C360,89,343.11,106.21,333.15,126.64a18.23,18.23,0,0,0-1.06,4.27q-2,4.91-3.78,9.93c-9,25.81-14.6,53.81-14.46,81.18C314.08,265.19,333.76,312.88,376.51,329.81Zm-51.2-130.27c.68-17,3.59-36.51,10.45-53.84a8.12,8.12,0,0,0,4-4c6.65-19.75,19.69-38.72,40.43-44,22.79-5.86,40.78,8.65,52.76,26.64,12.52,18.79,18.14,40.69,19.14,63.07.95,21.27-.44,44.07-6.08,64.68-4.78,17.48-13.75,33.9-28.76,44.52-13.65,9.67-32.11,14.21-48.16,8.14-18.23-6.9-29.26-25.4-35.7-42.84C326.08,242.13,324.46,220.4,325.31,199.54Z"/><path class="cls-4" d="M513.65,35.55c-5.61-2.45-12.85-1.82-18.82-2.14l-24.06-1.23q-95.47-4.82-191-7.52c-15.88-.44-31.87-1.06-47.49,2.38L224,29.18c-13,3.7-25.63,9-38.21,13.76L135,62c-14.36,5.4-29.06,10.45-42.72,17.46l-5.55,3c-3.81,2.16-1,7-.6,9.53,3,29.83,11.64,56.9,15.56,86.61,4.19,31.79,8.19,63.6,12.28,95.4,8.11,63.16,16.65,126.35,28.27,189,6.53,35.27,14,70.4,23.16,105.1.81,3.06,3.46,4.52,6.37,4.84,25.38,2.85,50.07-4.7,74.8-9.16,25.26-4.55,50.95-6.49,76.58-7.43,52.52-1.93,105.22-.63,157.77-.49,1.75,0,3.15-.09,4.72-.19,4.07-.63,8.16-2.74,8.46-7.92Q505,356.59,515.9,165.42q2.72-47.59,5.38-95.21C521.89,59.21,526.59,41.19,513.65,35.55ZM248.71,549.66c-23.83,4.18-47.34,12.07-71.68,10.56-30.74-122.09-44-247.27-61.6-371.7-4.75-33.59-8.79-68.13-16.83-101.18,26.51-6.34,52.45-17.87,77.94-27,15.44-5.55,30.82-12,46.62-16.59,0,12.46,1.47,25.08,2.19,37.36,1,17,2,34,3.18,51,2.28,33.54,5,67,7.82,100.54Q245,333.92,256.07,434.92c4.08,37.23,8,74.54,13.18,111.64C262.38,547.45,255.54,548.46,248.71,549.66ZM507.23,67.19q-2.7,46.1-5.31,92.19-5.19,91.43-10.39,182.85-5.67,99.67-11.36,199.35c-52.29-.09-104.76-1.34-157,.65-13.83.52-27.65,1.44-41.41,2.88-7.09-67.21-15.52-134.25-22.17-201.52s-12.33-134.91-17.78-202.44q-2.23-27.78-4.43-55.55C236.23,70.94,236.07,55.7,234,41a118.12,118.12,0,0,1,24.54-2.93c30.09-.22,60.33,1.61,90.4,2.74s60.17,2.41,90.25,3.85q22.55,1.08,45.1,2.29l10.53.58c2.64.15,9.49-.58,11.78.75C510.14,50.3,507.48,62.84,507.23,67.19Z"/><path class="cls-4" d="M369.05,304.7c16.05,6.07,34.51,1.53,48.16-8.14,15-10.62,24-27,28.76-44.52,5.64-20.61,7-43.41,6.08-64.68-1-22.38-6.62-44.28-19.14-63.07-12-18-30-32.5-52.76-26.64-20.74,5.33-35.06,22.2-41.7,41.95a58.94,58.94,0,0,1-2.69,6.1C328.9,163,326,182.55,325.31,199.54c-.85,20.86.77,42.59,8,62.32C339.79,279.3,350.82,297.8,369.05,304.7Zm-31.4-96c-.23-29.16,5-57.35,20.76-80,5.67-6.88,11.88-13.15,20.79-16.66,17.59-6.93,31.62,3.88,41.22,18,20.85,30.63,21.33,70.83,15.27,106.24-4.7,27.45-23.34,64.16-57.36,57.75-16.9-3.18-27.21-20.68-32.75-35.54C339.65,242.56,337.78,225.59,337.65,208.7Z"/><path class="cls-4" d="M363.91,337.49c20.95,10.73,49,15,68.94-.16,20.32-15.41,31.2-42.6,36.38-66.78,5.81-27.13,6.51-55.71,5-83.34s-6.64-56.24-20.49-80.67C440,82.38,416.57,65,387.75,69c-19.91,2.74-35.62,13.58-47.39,28.26-8.14,8.51-14.44,19-19.06,29.75-10.76,25-17.05,52.61-19.09,79.7C298.42,257,316.27,313.07,363.91,337.49Zm-35.6-196.65q1.74-5,3.78-9.93c.56-1.1,1.16-2.41,1.57-3.25C343.62,107.23,360,89,382.78,82.9c23.66-6.33,44.27,5.43,57,25.16,13.28,20.58,18.9,45.59,21,69.7a349.36,349.36,0,0,1-.87,71.42c-2.72,22.85-9.05,45.82-22.34,64.89-6.88,9.87-15.52,17.81-27.66,20.12-11.12,2.12-23-.27-33.42-4.38-42.75-16.93-62.43-64.62-62.66-107.79C313.71,194.65,319.35,166.65,328.31,140.84Z"/><path class="cls-4" d="M402.85,401.11l-.49-.19c-.72-.16-1.78-.63-2.48-.8C384.09,396.29,366.67,413,364,429c-2.91,17.24,2.46,48.06,26.89,43.67,19.63-3.53,27.35-33.65,25.69-50.36C415.68,413.56,411.28,404.78,402.85,401.11Zm.63,34.43c-1.58,7.95-6.42,28.55-18.49,25.09-12.76-3.67-11.37-23.65-9-33.5a30.49,30.49,0,0,1,6.89-13.5c1.67-1.64,2.93-3.14,5.42-3.65,7.85-1.61,10.82,1.88,13.64,5.95C405.8,421.48,404.69,429.39,403.48,435.54Z"/><path class="cls-4" d="M432,409.2c-3.74-12.33-10.34-25-22.26-31.1l-7.1-3.1c-23.25-6.21-47.31,11.48-56.35,32.27-5.75,13.21-6.22,28.45-4.46,42.56,1.69,13.59,5.21,28.26,14,39.12,16.24,20.05,47,17,63.8-.5C439.74,467.47,440,435.54,432,409.2Zm-43.17,81.21c-31.55,2.46-37.57-39.12-35.37-62.54,1.53-16.25,9.35-28,20.58-36.29,10.86-6.3,24.35-8.35,34.73,1.41,9,8.5,12.29,22.69,14.25,34.44C427.05,452,419.1,488.06,388.78,490.41Z"/><path class="cls-4" d="M254.23,94.7c0,28.46,2.53,57,4,85.37.75,14,1.44,28,2.15,42,.68,13.62.68,27.4,3.31,40.81.3,1.51,2.36,1,2.49-.33,1.43-13.92,0-28-.74-42q-1.15-21.74-2.55-43.46c-1.72-27.54-2.9-55.29-6.76-82.64C256,93.3,254.23,93.6,254.23,94.7Z"/><path class="cls-4" d="M269.62,311.87c.9,9,1.46,17.91,3,26.79.27,1.53,2.37,1,2.51-.34,1.07-9.82.25-19.6-.94-29.38-1.08-8.84-2.1-18.2-5.51-26.47a1.06,1.06,0,0,0-2.07.28C266.49,292.43,268.66,302.24,269.62,311.87Z"/></svg>