<svg id="Layer_1" data-name="Layer 1" xmlns="http://www.w3.org/2000/svg" viewBox="0 0 600 600"><defs><style>.cls-1{fill:#fff200;}.cls-2{fill:#009444;}.cls-3{fill:#231f20;}</style></defs><title>doodle</title><path class="cls-1" d="M321,185.09c-11.56.35-23.11.6-34.67.81-4.92.09-10.68.61-16.09.11a154.65,154.65,0,0,1,6.18,19.39c9.38-.31,18.77-.47,28.15-.7a7.29,7.29,0,0,1,7.2,7.2c-.48,21.81-.28,43.62.73,65.41.93,20.15,4,40.39,4.78,60.53l28.64-.07c1.51-43.83.95-88.28-4.21-131.82-.46-4,3.62-7,7.12-7.12,10.88-.47,21.8-.53,32.71-.59q-.24-7.53-.47-15C361.07,183.92,341,184.48,321,185.09Z"/><path class="cls-2" d="M569.78,125.8c-1.23-5-3.06-7.6-8.47-8.07-6.28-.55-13.52,1.18-19.83,1.58-12.69.81-25.42,1-38.13.87-46.82-.54-93.43-6-140.25-6.69-46.11-.67-92.29.48-138.4.92-47,.44-94,1.23-141,1-13.35-.07-43-5.17-52,8.41-2.4,3.62-3.06,8.79-3.06,14.22,4.1,37.72,4.24,76.09,5,114q.64,30.92,1.4,61.83.38,15.45.79,30.91c.23,8.94,1.05,18.05-1.44,26.68,8.13,29,51.21,19.85,74.9,19.43,34.26-.62,68.47,1.62,102.67,3.09a932.33,932.33,0,0,0,103.19-.84c16.88-1.15,33.75-2.54,50.62-3.86,9-.7,17.9-1.43,26.85-2.1,7.07-.52,14-1.82,20.54.78a5.29,5.29,0,0,1,4.61,2c16.12,22,29.17,46.46,42.11,70.64q4-14.85,7.89-29.75c4.14-16.08,7.27-32.69,12.49-48.45,1.11-3.36,3.52-4.87,6-5,12-1.2,23-2.65,34-2.93,11.61-.29,23.22-.85,34.81-1.56,7.33-.45,10.89,0,11.3-8.29.27-5.46.38-10.94.57-16.4.21-6.09,0-12.63.72-18.9.07-10.58,1.41-21.4,1.81-31.44q1.1-27.21,1.7-54.44c.5-22.64,1.55-45.26,2.51-67.87-.34-4.88-.57-9.76-.95-14.56C571.84,149.54,572.53,137,569.78,125.8Zm-323,60.47c-6.5,51.58-17.78,102.88-26.38,154.16-.42,2.49-3,4.71-5.31,5.3-11.56,2.91-25.29,5-35.05-3.6-4.77-4.2-7.77-10.15-11-15.52-1.54-2.56-3.1-5.11-4.65-7.67-1.71,6.29-3.59,12.55-5.74,18.69-3.24,9.23-7.75,13.42-17.63,13.87-8.2.37-20.24,2-27.83-1.61-8.83-4.16-9.34-17-11.29-25.25-5.75-24.45-11.32-48.94-16.91-73.43q-4.29-18.81-8.51-37.65c-2.53-11.27-5.76-22.62-6.45-34.19-.36-6,5.89-7.13,9.7-4.47,9.85-1.21,19.53-1.13,29.67-1.36a6.61,6.61,0,0,1,6.31,4.8q8,36.6,18,72.74a144.87,144.87,0,0,0,2-20.4,7,7,0,0,1,6.92-6.92l21-.19c3.33,0,5.49,2.24,6.69,5.09,3.24,7.68,6.43,15.38,9.65,23.07,3.26-21.85,6.41-43.71,9.59-65.57.45-3,4-5,6.71-5.1q20.18-.83,40.34-1.6C241.13,177.91,247.48,180.54,246.75,186.27Zm142.59,27c-10.95,0-21.92.13-32.87-.06,3,43.89,5,87.49,3.28,131.56a7.17,7.17,0,0,1-7,7q-20.72.06-41.43.16c-4.35,0-6.6-3.19-6.79-6.57a6.88,6.88,0,0,1-.36-1.11c-4.52-21-4.82-43.76-5.87-65.18-1-19.93-1.24-39.88-1-59.82-8.76.24-17.53.5-26.29.58a7.24,7.24,0,0,1-6.89-5.25c-2.57-10.9-5.47-21.5-5.56-32.63-1.18-1.26-1.66-3.47-.09-4.7l.34-.23a3.59,3.59,0,0,1,4.56-2.53c7-2.81,15.73-2.52,23-2.89,10.95-.55,21.89-1.08,32.84-1.5,23.11-.87,46.22-1.85,69.33-2.55,4.23-.13,7.58,3.62,7.67,7.68q.36,15.22.71,30.45A7.66,7.66,0,0,1,389.34,213.29Zm138.29-2.81q-28.17.18-56.34.05c.5,3.06,1,6.11,1.51,9.17s.36,11.25,2.1,14c-.5-1,2.39-.12,4.32-.12h6.94q7.81,0,15.63-.07c3.39,0,7.33,3.2,6.9,6.9a169.46,169.46,0,0,0-1,25.48c.15,4.15-3.33,6.52-7,7q-13.17,1.65-26.34,3.34c.6,22.42.85,44.83.55,67.26a7.64,7.64,0,0,1-7.49,7.49q-17.12.66-34.26,1.1a6.89,6.89,0,0,1-4.49-1.35,5.78,5.78,0,0,1-4.72-4.94c-4-27.46-5.64-55.45-7.48-83.13-1.88-28.27-3.92-56.69-2.64-85a5.42,5.42,0,0,1,4.21-5.42,4.46,4.46,0,0,1,2.59-1.72c16.42-3.88,34.9-3,51.75-3.66,18-.67,36-1.35,54-1.89,4.1-.13,7.18,3.46,7.33,7.33q.63,15.5,1.27,31C535.08,207.16,531.45,210.46,527.63,210.48Z"/><path class="cls-1" d="M189.56,278.55c-.81,5.64-10.3,6.83-12.51,1.63q-9.09-21.31-18-42.7l-9.88.08a157.2,157.2,0,0,1-8.48,41.6c-2.2,6.3-11.28,6.77-13.29,0q-13.6-45.8-23.32-92.53a134.09,134.09,0,0,1-19.13-1.18c5.36,15.81,8,33.14,11.83,49.18l13.11,55.43C112,299,114,308,116.06,316.92c1,4.58,1.56,9.95,3.28,14.33,2.21,5.62,2.8,4.84,8.95,4.87,3.13,0,9.89,1.33,12.68.06,4-1.84,4.39-6.9,5.7-11.06,2.84-9.06,5.31-18.22,7.53-27.46,1.54-6.42,10.5-7.15,13.73-1.79,5.83,9.65,11.55,19.41,17.6,28.91,5.53,8.69,12.42,9,20.94,7.33q6.34-35.87,12.45-71.77c3.77-22.18,6.82-44.67,11.23-66.77l-28,1.15C197.88,222.65,193.59,250.58,189.56,278.55Z"/><path class="cls-1" d="M472.37,181c-15.1.4-31.39,1.95-46.58.24,2.63,26.43,3.4,53,5.26,79.51,1.78,25.44,4.73,50.82,6.58,76.26q11.21-.48,22.4-.86c.36-22.07.4-44.14,0-66.21-.08-4.2,3.35-6.65,7.1-7.1q13.29-1.56,26.57-3.17c0-4.16.21-8.29.55-12.43-5.58,0-11.16,0-16.73,0-4.33-.05-9,.17-12.41-3-4-3.74-3.88-10.65-4.64-15.55-1.21-7.74-2.35-15.49-3.67-23.21-.76-4.38,1.81-8.56,6.59-8.65q28.33-.56,56.68-.85l-.71-16.26Q495.85,180.47,472.37,181Z"/><path class="cls-3" d="M585.51,126.05c-.93-7.25-3.24-14.41-9-19.23-8-6.63-18.25-4.53-27.74-3.76-52.15,4.26-104.33-1.93-156.41-4.38s-104.48-.37-156.63.29c-52.49.66-105,1-157.47,2.41-17.77.49-43.9-2.21-56.26,13.9-7,9.07-5.23,20.44-4.64,31.11.36,6.38.59,13,1.13,19.5-1.14,28.68-.52,57.56-.13,86.11q.42,30,.94,60,.25,15.45.56,30.91c.16,8.36-.32,17.09,1.67,25.25-4.33,16.93,14.09,33.34,29.6,37.38,12.54,3.26,25.63,2.06,38.4,1.42,15-.76,30-.85,45-.57,61,1.17,121.42,6.82,182.47,2.69,16.87-1.14,33.73-2.51,50.59-3.8,8.35-.64,16.71-1.25,25.06-1.93,6.22-.5,13.37-.24,19.17-2.79,12.13,29.23,28.57,56.86,43.76,84.55,3.23,5.9,12.37,4.44,14.12-1.84,8.62-31,18.76-61,23.44-92.93,10.87-.92,23.67-.75,34.49-.82,13.18-.08,29.41,1.59,42.09-2.57,12.5-4.1,12.4-16.8,12.66-27.8.19-8.15,1.36-17.41,1-26.24,1.38-11.64.89-24,1.31-35q1.05-27.21,1.61-54.44c.43-21.32-.09-42.45-1-63.59.49-6.31.58-12.68.79-18.84C586.43,149.54,587,137.48,585.51,126.05Zm-14.34,117.4q-.6,27.23-1.7,54.44c-.4,10-1.74,20.86-1.81,31.44-.76,6.27-.51,12.81-.72,18.9-.19,5.46-.3,10.94-.57,16.4-.41,8.26-4,7.84-11.3,8.29-11.59.71-23.2,1.27-34.81,1.56-11,.28-22.41,1.92-34,2.93-2.48.11-4.89,1.62-6,5-5.22,15.76-8.35,32.37-12.49,48.45q-3.82,14.91-7.89,29.75c-12.94-24.18-26-48.6-42.11-70.64a5.29,5.29,0,0,0-4.61-2c-6.51-2.6-13.47-1.3-20.54-.78-8.95.67-17.9,1.4-26.85,2.1C348.9,390.56,332,392,315.15,393.1a932.33,932.33,0,0,1-103.19.84c-34.2-1.47-68.41-3.71-102.67-3.09-23.69.42-66.77,9.57-74.9-19.43,2.49-8.63,1.67-17.74,1.44-26.68q-.4-15.45-.79-30.91-.76-30.91-1.4-61.83c-.79-37.86-.93-76.23-5-113.95,0-5.43.66-10.6,3.06-14.22,9-13.58,38.7-8.48,52.05-8.41,47,.22,94-.57,141-1,46.11-.44,92.29-1.59,138.4-.92,46.82.67,93.43,6.15,140.25,6.69,12.71.15,25.44-.06,38.13-.87,6.31-.4,13.55-2.13,19.83-1.58,5.41.47,7.24,3,8.47,8.07,2.75,11.21,2.06,23.74,3,35.22.38,4.8.61,9.68.95,14.56C572.72,198.19,571.67,220.81,571.17,243.45Z"/><path class="cls-3" d="M236.51,179.46q-20.17.79-40.34,1.6c-2.74.11-6.26,2.06-6.71,5.1-3.18,21.86-6.33,43.72-9.59,65.57-3.22-7.69-6.41-15.39-9.65-23.07-1.2-2.85-3.36-5.12-6.69-5.09l-21,.19a7,7,0,0,0-6.92,6.92,144.87,144.87,0,0,1-2,20.4q-10-36.11-18-72.74a6.61,6.61,0,0,0-6.31-4.8c-10.14.23-19.82.15-29.67,1.36-3.81-2.66-10.06-1.53-9.7,4.47.69,11.57,3.92,22.92,6.45,34.19q4.21,18.84,8.51,37.65c5.59,24.49,11.16,49,16.91,73.43,2,8.27,2.46,21.09,11.29,25.25,7.59,3.58,19.63,2,27.83,1.61,9.88-.45,14.39-4.64,17.63-13.87,2.15-6.14,4-12.4,5.74-18.69,1.55,2.56,3.11,5.11,4.65,7.67,3.25,5.37,6.25,11.32,11,15.52,9.76,8.61,23.49,6.51,35.05,3.6,2.36-.59,4.89-2.81,5.31-5.3,8.6-51.28,19.88-102.58,26.38-154.16C247.48,180.54,241.13,177.91,236.51,179.46Zm-17.59,80.88q-6.12,35.91-12.45,71.77c-8.52,1.71-15.41,1.36-20.94-7.33-6.05-9.5-11.77-19.26-17.6-28.91-3.23-5.36-12.19-4.63-13.73,1.79-2.22,9.24-4.69,18.4-7.53,27.46-1.31,4.16-1.66,9.22-5.7,11.06-2.79,1.27-9.55-.05-12.68-.06-6.15,0-6.74.75-8.95-4.87-1.72-4.38-2.23-9.75-3.28-14.33-2.06-9-4.1-17.92-6.21-26.86L96.74,234.63c-3.8-16-6.47-33.37-11.83-49.18A134.09,134.09,0,0,0,104,186.63q9.66,46.77,23.32,92.53c2,6.77,11.09,6.3,13.29,0a157.2,157.2,0,0,0,8.48-41.6l9.88-.08q9,21.38,18,42.7c2.21,5.2,11.7,4,12.51-1.63,4-28,8.32-55.9,12.58-83.83l28-1.15C225.74,215.67,222.69,238.16,218.92,260.34Z"/><path class="cls-3" d="M388.52,167.6c-23.11.7-46.22,1.68-69.33,2.55-10.95.42-21.89.95-32.84,1.5-7.25.37-16,.08-23,2.89a3.59,3.59,0,0,0-4.56,2.53l-.34.23c-1.57,1.23-1.09,3.44.09,4.7.09,11.13,3,21.73,5.56,32.63a7.24,7.24,0,0,0,6.89,5.25c8.76-.08,17.53-.34,26.29-.58-.27,19.94,0,39.89,1,59.82,1.05,21.42,1.35,44.17,5.87,65.18a6.88,6.88,0,0,0,.36,1.11c.19,3.38,2.44,6.6,6.79,6.57q20.71-.11,41.43-.16a7.17,7.17,0,0,0,7-7c1.73-44.07-.23-87.67-3.28-131.56,10.95.19,21.92.07,32.87.06a7.66,7.66,0,0,0,7.56-7.56q-.36-15.22-.71-30.45C396.1,171.22,392.75,167.47,388.52,167.6Zm-39.67,31.23c-3.5.16-7.58,3.16-7.12,7.12,5.16,43.54,5.72,88,4.21,131.82l-28.64.07c-.74-20.14-3.85-40.38-4.78-60.53-1-21.79-1.21-43.6-.73-65.41a7.29,7.29,0,0,0-7.2-7.2c-9.38.23-18.77.39-28.15.7A154.65,154.65,0,0,0,270.26,186c5.41.5,11.17,0,16.09-.11,11.56-.21,23.11-.46,34.67-.81,20-.61,40.05-1.17,60.07-1.89q.23,7.52.47,15C370.65,198.3,359.73,198.36,348.85,198.83Z"/><path class="cls-3" d="M526.32,164.86c-18,.54-36,1.22-54,1.89-16.85.63-35.33-.22-51.75,3.66a4.46,4.46,0,0,0-2.59,1.72,5.42,5.42,0,0,0-4.21,5.42c-1.28,28.34.76,56.76,2.64,85,1.84,27.68,3.48,55.67,7.48,83.13a5.78,5.78,0,0,0,4.72,4.94,6.89,6.89,0,0,0,4.49,1.35q17.13-.45,34.26-1.1a7.64,7.64,0,0,0,7.49-7.49c.3-22.43.05-44.84-.55-67.26q13.17-1.68,26.34-3.34c3.64-.46,7.12-2.83,7-7a169.46,169.46,0,0,1,1-25.48c.43-3.7-3.51-6.92-6.9-6.9q-7.82,0-15.63.07h-6.94c-1.93,0-4.82-.87-4.32.12-1.74-2.7-1.61-10.94-2.1-14s-1-6.11-1.51-9.17q28.17.09,56.34-.05c3.82,0,7.45-3.32,7.29-7.29q-.63-15.49-1.27-31C533.5,168.32,530.42,164.73,526.32,164.86Zm-63,32c-4.78.09-7.35,4.27-6.59,8.65,1.32,7.72,2.46,15.47,3.67,23.21.76,4.9.63,11.81,4.64,15.55,3.41,3.17,8.08,2.95,12.41,3,5.57.07,11.15,0,16.73,0-.34,4.14-.53,8.27-.55,12.43q-13.29,1.59-26.57,3.17c-3.75.45-7.18,2.9-7.1,7.1.44,22.07.4,44.14,0,66.21q-11.2.39-22.4.86c-1.85-25.44-4.8-50.82-6.58-76.26-1.86-26.49-2.63-53.08-5.26-79.51,15.19,1.71,31.48.16,46.58-.24q23.47-.6,47-1.3L520,196Q491.68,196.29,463.35,196.84Z"/></svg>