<svg id="Layer_1" data-name="Layer 1" xmlns="http://www.w3.org/2000/svg" viewBox="0 0 600 600"><defs><style>.cls-1{fill:#fff;}.cls-2{fill:#e27683;}.cls-3{fill:#88e0ff;}.cls-4{fill:#231f20;}</style></defs><title>doodle</title><path class="cls-1" d="M202.94,363.14c-1.16-5.84-4-10.94-10.25-13.8A3.51,3.51,0,0,1,191,347.8a16.63,16.63,0,0,0-10.33,1.29c-6.67,3.17-11.75,10.29-11.67,17.78C169.15,383.32,203.09,380.47,202.94,363.14Z"/><path class="cls-1" d="M184.06,387a4.1,4.1,0,0,1,.65-.84l-1.33,0Z"/><path class="cls-1" d="M117.29,449.71c10.87-2.71,6.58-30.48-4.73-22.47a2.14,2.14,0,0,1-1.43.38c-2.4,2.44-3.73,6.59-3.92,9.79C106.87,442.82,110.33,451.45,117.29,449.71Z"/><path class="cls-2" d="M349.34,417.09c19.27-6.59,25.24-25.83,27.31-44.22-2.13.37-4.31.55-6.4.85q-6.24.88-12.49,1.68-13.44,1.68-26.95,2.7c-9.37.73-18.76,1.29-28.17,1.5-6.66.16-14.23.91-21-.3a46.23,46.23,0,0,0,11.2,20.47C306.91,414.44,329.26,424,349.34,417.09Z"/><path class="cls-1" d="M279.78,367.34a2.62,2.62,0,0,1-.4.11c.1.79.22,1.58.33,2.36a2.87,2.87,0,0,1,.41-.89,3.94,3.94,0,0,1-.32-1.3Z"/><path class="cls-3" d="M72.8,493c13.64,9.59,29.62,14.65,45.76,18.18a402.81,402.81,0,0,0,111,8.79c37.16-2.26,74.26-6.39,111.34-9.69,36.53-3.25,73.4-5.73,109.3-13.63,16.81-3.69,33.47-8.73,48.68-16.91s28.06-19.22,39.89-31.46c22.3-23.09,40.54-49.38,40.64-82.62.09-29.4-12.9-58.32-36.48-76.24a98.63,98.63,0,0,0-82.09-17.34,5.22,5.22,0,0,1-5.82-7.58c9-18.21,4.52-43.72-13.3-55-16.16-10.27-40.29-6-50.71,10.39-2.47,3.87-9.65,2.67-9.25-2.51a92,92,0,0,0-13.28-55.45c-18-29.15-52.69-45.46-86.63-41.43-18.5,2.19-32.83,11.59-41.28,28.26-8.75,17.25-9.24,37.27-9.86,56.2-.19,5.65-8.38,6.9-9.91,1.34-4.44-16.15-18.27-27.79-34.1-32.25-16.91-4.77-35.33-1.06-51,6.29s-30.11,17.59-35.58,34.59c-10.41,32.32-1.51,70.95,15.39,99.39,2,3.41-.55,6.59-3.54,7.16-.54,2-2.57,3.48-4.75,2-14-9.52-31.79-10.45-47.51-4.71-16,5.82-28.08,18.88-34.92,34.17-15.42,34.46-3.6,73,15.34,103.47C48.83,470.22,59.32,483.49,72.8,493Zm427.07-93.61c6.29-5.4,16.36-2.81,20.17,4.44,3.7,7.05-.06,16.51-7.46,19.29-7.85,3-17.15-2.89-18.08-11.17-.43-3.78,1.46-7.95,4.4-10.63A2.7,2.7,0,0,1,499.87,399.36Zm-49.31-75.82c8-6.25,18.85-6.07,27.79-.36,17.19,11,25.74,41.66,11.43,58-15.3,17.48-50.78,12.55-58.67-9.87C424.7,353.12,433.54,331.05,450.56,323.54Zm-176.71,5a3.44,3.44,0,0,1,.89-.48c15.56-5.19,32.28-7.22,48.52-9.12s32.77-3.27,49-2.71c12.78.43,13.82,11.28,14.41,21.7a212.59,212.59,0,0,1-1.34,41.44c-3.22,23.07-15.11,43.89-39.55,48.71-23.28,4.6-48.76-7.12-63.25-25.39-15.69-19.8-12.65-46.19-14.32-69.81C268,329.33,271.12,327.91,273.85,328.57ZM169,346.66a30.52,30.52,0,0,1,3.47-2.1c.43-.32.86-.64,1.31-.93,9.57-6.31,21.67-5.56,30.92,1,19.66,13.85,25.14,48.44,2.94,62.66-10.41,6.68-24.9,5.49-35.7.4-11.68-5.51-18.27-16.36-18.23-29.22C153.79,366.23,158.88,353.84,169,346.66ZM100,431.9c1.34-5.18,4.49-10.77,9.9-12.52a10.77,10.77,0,0,1,3.7-.53,10.51,10.51,0,0,1,6.67-.54c5.9,1.31,9.49,6.53,10.75,12.15,2.3,10.27-.88,26.35-13.61,27.55C103.1,459.35,97,443.63,100,431.9Z"/><path class="cls-1" d="M470.6,359.85c5.92-1.85,9.36-6.91,10.4-12.58-.24-1.15-.43-2.3-.59-3.46a49.16,49.16,0,0,0-3.54-7.75,3.28,3.28,0,0,1-.12-2.85c-6.5-5.76-16.06-8.09-22.62-.91-4.82,5.29-5.92,14-2.23,20.16S463.69,362,470.6,359.85Z"/><path class="cls-1" d="M510.57,415.16c2.75-1.73,3.8-6.1,1.69-8.68a6.88,6.88,0,0,0-5.48-2.28c-2.8,1.62-5.37,4.18-4.43,7.53S507.64,417,510.57,415.16Z"/><path class="cls-4" d="M74.62,505.52c15.75,9.14,33.68,13.64,51.4,17.1a443.29,443.29,0,0,0,59.62,8c41.05,2.39,82.51-3.24,123.34-6.9,41-3.68,82.32-6.2,122.94-13,36.87-6.14,71.77-17,100.34-42,25.57-22.38,50.45-51.37,56-85.93,5-31.5-3.78-64.89-25.2-88.79-20.52-22.89-51.76-35.71-82.38-35a101.66,101.66,0,0,0-13.14,1.18c6-21.68-.95-47-20.72-59.44-16.87-10.61-39.81-8.58-55,3.61-1.93-33.92-21.25-66-51.52-82.3-32.38-17.46-80.9-19.45-103.86,13.88-10.12,14.69-13.45,32.15-14.82,49.68a59.07,59.07,0,0,0-22.4-17.77c-17.35-7.91-37-7.52-54.94-1.73s-37.34,16.33-47.63,32.65c-10.11,16-11.34,37.28-10,55.67a146,146,0,0,0,17.28,59c-24.62-12.63-56.27-5-74.59,15.63C6.81,354.44,4,390.74,13.75,422.08,23.73,454.25,44.92,488.28,74.62,505.52ZM24.85,352.87c6.84-15.29,19-28.35,34.92-34.17,15.72-5.74,33.52-4.81,47.51,4.71,2.18,1.48,4.21,0,4.75-2,3-.57,5.56-3.75,3.54-7.16-16.9-28.44-25.8-67.07-15.39-99.39,5.47-17,20-27.28,35.58-34.59s34-11.06,51-6.29c15.83,4.46,29.66,16.1,34.1,32.25,1.53,5.56,9.72,4.31,9.91-1.34.62-18.93,1.11-38.95,9.86-56.2,8.45-16.67,22.78-26.07,41.28-28.26,33.94-4,68.66,12.28,86.63,41.43a92,92,0,0,1,13.28,55.45c-.4,5.18,6.78,6.38,9.25,2.51,10.42-16.4,34.55-20.66,50.71-10.39,17.82,11.32,22.34,36.83,13.3,55a5.22,5.22,0,0,0,5.82,7.58,98.63,98.63,0,0,1,82.09,17.34c23.58,17.92,36.57,46.84,36.48,76.24-.1,33.24-18.34,59.53-40.64,82.62C527,460.49,514,471.61,498.89,479.71S467,492.93,450.21,496.62c-35.9,7.9-72.77,10.38-109.3,13.63-37.08,3.3-74.18,7.43-111.34,9.69a402.81,402.81,0,0,1-111-8.79c-16.14-3.53-32.12-8.59-45.76-18.18-13.48-9.48-24-22.75-32.61-36.63C21.25,425.89,9.43,387.33,24.85,352.87Z"/><path class="cls-4" d="M172,407.65c10.8,5.09,25.29,6.28,35.7-.4,22.2-14.22,16.72-48.81-2.94-62.66-9.25-6.52-21.35-7.27-30.92-1-.45.29-.88.61-1.31.93a30.52,30.52,0,0,0-3.47,2.1c-10.16,7.18-15.25,19.57-15.29,31.77C153.71,391.29,160.3,402.14,172,407.65ZM184.06,387l-.68-.89,1.33,0A4.1,4.1,0,0,0,184.06,387Zm-3.42-37.9A16.63,16.63,0,0,1,191,347.8a3.51,3.51,0,0,0,1.72,1.54c6.21,2.86,9.09,8,10.25,13.8.15,17.33-33.79,20.18-34,3.73C168.89,359.38,174,352.26,180.64,349.09Z"/><path class="cls-4" d="M117.39,458c12.73-1.2,15.91-17.28,13.61-27.55-1.26-5.62-4.85-10.84-10.75-12.15a10.51,10.51,0,0,0-6.67.54,10.77,10.77,0,0,0-3.7.53c-5.41,1.75-8.56,7.34-9.9,12.52C97,443.63,103.1,459.35,117.39,458Zm-10.18-20.6c.19-3.2,1.52-7.35,3.92-9.79a2.14,2.14,0,0,0,1.43-.38c11.31-8,15.6,19.76,4.73,22.47C110.33,451.45,106.87,442.82,107.21,437.41Z"/><path class="cls-4" d="M489.78,381.19c14.31-16.35,5.76-47-11.43-58-8.94-5.71-19.78-5.89-27.79.36-17,7.51-25.86,29.58-19.45,47.78C439,393.74,474.48,398.67,489.78,381.19ZM454.13,332.3c6.56-7.18,16.12-4.85,22.62.91a3.28,3.28,0,0,0,.12,2.85,49.16,49.16,0,0,1,3.54,7.75c.16,1.16.35,2.31.59,3.46-1,5.67-4.48,10.73-10.4,12.58-6.91,2.17-15-1.24-18.7-7.39S449.31,337.59,454.13,332.3Z"/><path class="cls-4" d="M494.5,411.92c.93,8.28,10.23,14.12,18.08,11.17,7.4-2.78,11.16-12.24,7.46-19.29-3.81-7.25-13.88-9.84-20.17-4.44a2.7,2.7,0,0,0-1,1.93C496,404,494.07,408.14,494.5,411.92Zm12.28-7.72a6.88,6.88,0,0,1,5.48,2.28c2.11,2.58,1.06,6.95-1.69,8.68-2.93,1.85-7.3-.18-8.22-3.43S504,405.82,506.78,404.2Z"/><path class="cls-4" d="M345.77,428.11c24.44-4.82,36.33-25.64,39.55-48.71A212.59,212.59,0,0,0,386.66,338c-.59-10.42-1.63-21.27-14.41-21.7-16.22-.56-32.89.83-49,2.71s-33,3.93-48.52,9.12a3.44,3.44,0,0,0-.89.48c-2.73-.66-5.9.76-5.65,4.34,1.67,23.62-1.37,50,14.32,69.81C297,421,322.49,432.71,345.77,428.11Zm-66.06-58.3c-.11-.78-.23-1.57-.33-2.36a2.62,2.62,0,0,0,.4-.11l0,.28a3.94,3.94,0,0,0,.32,1.3A2.87,2.87,0,0,0,279.71,369.81Zm22.93,9.79c9.41-.21,18.8-.77,28.17-1.5q13.51-1,26.95-2.7,6.25-.79,12.49-1.68c2.09-.3,4.27-.48,6.4-.85-2.07,18.39-8,37.63-27.31,44.22-20.08,6.87-42.43-2.65-56.54-17.32a46.23,46.23,0,0,1-11.2-20.47C288.41,380.51,296,379.76,302.64,379.6Z"/></svg>