<svg id="Layer_1" data-name="Layer 1" xmlns="http://www.w3.org/2000/svg" viewBox="0 0 600 600"><defs><style>.cls-1{fill:#fff;}.cls-2{fill:#603913;}.cls-3{fill:#fff200;}.cls-4{fill:#f7941e;}.cls-5{fill:#f2b879;}.cls-6{fill:#8b5e3c;}.cls-7{fill:#231f20;}</style></defs><title>doodle</title><path class="cls-1" d="M355.73,385c4.58,3.51,6.69-8.23.84-6.62a3,3,0,0,1-2.06-.15,6.87,6.87,0,0,0-.37,1.43C353.94,381.31,354.27,383.86,355.73,385Z"/><path class="cls-2" d="M155.22,497.74c2.8-.33,5.6-.7,8.39-1.17,21.79-3.67,43.09-9.68,64.39-15.47,32-8.68,64.24-16.71,95.93-26.44-38.4-5.43-76.76-11.2-115.11-17-10.48-1.58-21-3.14-31.44-4.76-2.3-.35-5.17-1.26-7.52-1-3.19.41-5.4,3.2-7.29,5.46a52,52,0,0,0-6.83,10.63c-7.44,15.31-7.23,32.64-.7,48.16A2.69,2.69,0,0,1,155.22,497.74Z"/><path class="cls-3" d="M396.49,401.08c5.7-9,8.26-19.67,10.29-30,1.85-9.39,3.32-18.85,4.53-28.34a121.36,121.36,0,0,1-19.77,15.57c-2.65,1.68-6.93-1.17-5.64-4.33,25.93-63.82,5.39-132.68-30.57-188.06-2.18,19.5-12,37.29-23.58,53.09-7.62,10.37-16,20.19-23.67,30.51-7.91,10.62-14.74,21.92-21.51,33.28-1.85,3.1-6.22,1.58-6.46-1.75a110.35,110.35,0,0,0-1.55-12.09c-7.88,27.45-33.48,47.42-43.16,74.63-6.35,17.85-6.29,40.91-1.14,59.07,4.53,16,15.14,29.6,30.85,35.51q35.88,5.14,71.71,10.58a3.28,3.28,0,0,1,2.16,1.17q6.79-2.24,13.5-4.67a4.11,4.11,0,0,1,.13-1.45C358.81,421.84,385.2,419,396.49,401.08Zm-152.72-9.84a5.63,5.63,0,0,1-1,1.76c-.09.12-.18.23-.28.34a3.63,3.63,0,0,1-5.08,0c-.1-.11-.18-.22-.27-.34a4.39,4.39,0,0,1-1.1-2.29,4,4,0,0,1,.47-2.54,4.16,4.16,0,0,1,3.44-2,4,4,0,0,1,3.64,2.45A3.79,3.79,0,0,1,243.77,391.24Zm18-12c-7.19,7.3-17.06-.32-17.88-8.83a10.7,10.7,0,0,1,.53-4.36,7.36,7.36,0,0,1,4.28-5.79,8.65,8.65,0,0,1,8-1.19,10.12,10.12,0,0,1,3.37,1.17C266.73,364.18,266.82,374.09,261.72,379.28Zm12.9-80.71c-2.19,7.54-6.45,14.44-11.21,20.61-6.25,8.1-8.62,15.93-11.11,25.66-.19.75-1.44.61-1.37-.19.66-7.94,2.24-15.95,6.81-22.63,2.45-3.58,5.32-6.85,7.64-10.54,2.76-4.4,4.79-9.23,7.6-13.6A.9.9,0,0,1,274.62,298.57Zm35,114.07c-10.59.54-16.8-12.49-13.64-21.54a2.83,2.83,0,0,1,5.42,0c1.19,4.09.67,14.79,7.71,13.95,5.12-.61,3.36-9.14,4.32-12.44.74-2.57,5-3.66,6.23-.82C322.86,399.36,319.11,412.15,309.61,412.64Zm62.77-7.22a10.39,10.39,0,0,1-.65,1,4.49,4.49,0,0,1-2.14,1.43l.88-.37a6,6,0,0,1-1.44.69,3.17,3.17,0,0,1-3.88-2.2,5.35,5.35,0,0,1-.18-1.2,5.52,5.52,0,0,1,.72-3.25,3.74,3.74,0,0,1,2.31-1.78,3.88,3.88,0,0,1,4.38,5.7ZM361.81,193.79c9.89,24.7,16.06,49.69,17.26,76.37a234.33,234.33,0,0,1-1.68,40.68c-1.52,11.78-3.48,24.08-8.12,35.07-.56,1.32-2.29.27-2.11-.89,2.06-13.29,5.55-26.22,7-39.65a243.28,243.28,0,0,0,1.21-36.31c-1.06-25.19-5.71-51.31-14.52-75C360.61,193.45,361.58,193.2,361.81,193.79ZM347.88,375.9c1.26-3.21,4-6.25,7.63-6.45a6.53,6.53,0,0,1,4.68,1.5,8,8,0,0,1,1.56.54,11.06,11.06,0,0,1,6,8.59c1.1,7.62-5.81,15-13.64,12.36C347.53,390.21,345.57,381.81,347.88,375.9Z"/><path class="cls-1" d="M255,366.27a4.24,4.24,0,0,0-4,1.75,5,5,0,0,0,.09,2.88c.41,1.25,1.76,3.57,3.15,3.94,1.74.47,3-1.44,3.42-2.83C258.42,369.7,257.73,366.64,255,366.27Z"/><path class="cls-4" d="M232.37,433.48l14.9,2.11c-22-17-25.49-53.59-22-79.42,2.64-19.37,13.29-35,24.59-50.4,11.93-16.29,24.6-33.83,24-55-.11-4.13,5.65-4.52,6.87-.93a122.25,122.25,0,0,1,5.05,20.63c4.7-7.74,9.54-15.39,14.88-22.71,7.16-9.78,15-19,22.29-28.71,14.11-18.72,26.58-40.18,25.52-64.39-.16-3.84,4.8-4.52,6.7-1.81,38.8,55.22,63.62,125.63,42.18,191.86A114.46,114.46,0,0,0,413.71,329c2.06-2.43,6.85-.53,6.51,2.7-2.38,22.45-4.26,47.68-14.35,68.25-4.63,9.44-11.69,16.47-20.51,22.06-8.66,5.49-19.05,10.36-23.75,19.75a296,296,0,0,0,27.45-12.36c12.44-6.44,24.75-16.53,38.63-10.78a123.29,123.29,0,0,0,29.6-58A40,40,0,0,1,445,365.67c-3.26.75-6.54-2.82-4.55-5.91,20.13-31.23,31-68.26,33.62-105.22a130.47,130.47,0,0,0-7.72-55.76c-3.2-8.57-6.74-17-9.46-25.66a76.06,76.06,0,0,1-18.68,30.56c-2.52,2.52-7.21.7-7.13-3,1.27-59.29-16.26-117.11-40.38-170.84a126.93,126.93,0,0,1-20.92,59.9c-14.2,21.24-33.47,35.2-56.05,46.5-24.4,12.21-46.88,26.73-65.6,46.82C210,224.09,192.77,284,214.07,337.33c1.71,4.29-4.52,5.88-6.8,2.86a166.34,166.34,0,0,1-16.8-27.49C187.2,336,185,360,191.36,382.8c5.88,21.18,19.14,40.37,39.71,49.34A2.39,2.39,0,0,1,232.37,433.48ZM437.1,347.56c4.12-10.57,9.28-20.66,13-31.43a206.89,206.89,0,0,0,8-31,221.18,221.18,0,0,0,1-69.38c-.17-1.2,1.62-1.76,1.87-.51a193,193,0,0,1,1.14,67.67c-3.48,22-9.94,47-23.05,65.44C438.38,349.28,436.63,348.75,437.1,347.56Zm-30.53-253a305.38,305.38,0,0,1,11.71,54.73c2.11,18.19,3.74,37.68.78,55.85-.19,1.16-1.89.79-1.94-.26-.89-18.18,0-36.25-1.82-54.42a373,373,0,0,0-9.85-55.59A.58.58,0,0,1,406.57,94.59ZM325.49,155.1c1.92-2.67,3.84-5.78,6.38-7.91.79-.65,2,.17,1.46,1.13-1.67,2.89-4.38,5.29-6.7,7.66C326.06,156.56,325,155.78,325.49,155.1ZM221.78,312.23c-7.88-28.23-1.57-59.55,13.28-84.44a116.31,116.31,0,0,1,29.17-32.59c14.37-11,30.31-19.86,44.72-30.88,1.23-.94,2.77,1.13,1.64,2.11-12.19,10.6-26.36,18.41-39.44,27.77-12.59,9-23.48,19.75-31.74,32.9-16,25.44-20.82,55.38-16.79,84.9C222.69,312.54,221.94,312.79,221.78,312.23Z"/><path class="cls-5" d="M443.06,473c-.32-14.65-1.3-35.41-14.23-44.92a16.59,16.59,0,0,0-15.9-2.56c.55,16.61,3.55,33,10.5,48.2a118.31,118.31,0,0,0,5.88,11.21c1.77,3,3.94,7.93,6.81,9.92,4.54,3.14,5.18-4.17,5.89-7.59A63.13,63.13,0,0,0,443.06,473Z"/><path class="cls-2" d="M417.76,516.76q-2.75,1-5.54,2a3,3,0,0,1-1.93.76,1.51,1.51,0,0,1-.3,0,274.66,274.66,0,0,1-27.41,7.19c-21.58,4.63-43.51,7.62-64.9,13.15-8.73,2.26-17.28,5.06-25.76,8.1,34.22,9.2,68,20.77,101.78,31.22,10.08,3.11,19.19,5.76,28.13-1.57,6.45-5.29,11.23-12.91,14.62-20.45a67.8,67.8,0,0,0,5.91-26.37c.11-5.94.11-9.41-5.63-12.14-3.8-1.8-8.1-3-12.07-4.41C422.3,515.09,420,515.94,417.76,516.76Z"/><path class="cls-6" d="M426.09,494.09a118.18,118.18,0,0,1-11.25-21.38,112.74,112.74,0,0,1-8.56-44.21c-6.38,3.64-12.77,7.22-19.42,10.37-27.32,12.94-56.15,21.87-85.21,30-31.41,8.74-62.84,17.47-94.35,25.82-16,4.24-32.19,8.21-48.62,10.59-12.31,1.79-29,.22-39.14,8.74-5.36,11.46-3.88,23.7-.35,36,3.07,10.75,6.46,22,15.83,28.45a3.21,3.21,0,0,1,1.57.67c8.82,6.87,20.45,3.93,30.34,1.43,11.75-3,23.46-6.09,35.1-9.48q31.53-9.18,62.31-20.77c4.22-1.59,8.43-3.21,12.64-4.8l2.26-.86c15-5.68,30.06-11.09,45.84-14.68,19.41-4.41,39.14-7.27,58.57-11.62a250.53,250.53,0,0,0,29-8.11c6.57-2.32,13.6-4.84,19.74-8.53A35.33,35.33,0,0,1,426.09,494.09Z"/><path class="cls-7" d="M476.37,202.56c-5.89-17.43-15-34.1-15.74-52.84-.19-5.25-8.14-5.29-8.17,0a67.71,67.71,0,0,1-13,39.7C438.27,126.68,416.76,67,390.38,10.53c-1.65-3.52-7.56-1.8-7.33,2A119.23,119.23,0,0,1,364,84.27a116.78,116.78,0,0,1-25.19,27.93C327.64,121.13,314.59,127,302,133.53c-46.2,23.84-85.69,64-99.42,115.2a148.6,148.6,0,0,0-2.77,66,155.68,155.68,0,0,1-7.53-16.13c-1.16-2.93-6.54-4.06-7.14,0-4.32,29.13-9.08,60.06,0,88.8,5.54,17.56,16,33.71,31.22,43.8l-26.1-3.7c-8.34-1.18-20.14-5.35-27.67,0-6.66,4.74-11.5,13.36-14.56,20.72a62.54,62.54,0,0,0,.72,50.25c-5.09.52-10.17,1-15.23,1.76-5.23.76-10.34,2.1-14.63,4.86a2.52,2.52,0,0,0-2,1c-.39.47-.76.95-1.11,1.43a22.17,22.17,0,0,0-2.35,2.56,3.75,3.75,0,0,0-.82,2.72c-5.76,12-4,26.46-.44,39.16,3.66,13.23,8.6,29.16,22.54,34.7a2.92,2.92,0,0,0,2.15.07c13.18,8.11,33.52.59,46.85-2.89q34.62-9,68.36-21c10.11-3.59,20.1-7.53,30.14-11.31,21.75,7.94,44.09,14.45,66.17,21.38l35.15,11c9.86,3.09,20.86,8.25,31.37,5.77,17.89-4.24,29.09-26.16,33.05-42.42,2-8.21,4.06-19.4.95-27.55-2.14-5.62-7.91-8.29-13.78-10.24A30.13,30.13,0,0,0,445.91,500a3.12,3.12,0,0,0,.47-1.11,37.66,37.66,0,0,0,3-9.6c1.9-9,1.5-18.26.58-27.35-1.43-14-4-29.93-15.45-39.14a129.23,129.23,0,0,0,32.27-71.91c.4-3.45-4.6-5.21-6.78-2.81a32.56,32.56,0,0,1-6.16,5.31c16.34-28.61,25.06-61.62,28.06-94.25C483.66,240,482.54,220.82,476.37,202.56ZM155.74,448.05a52,52,0,0,1,6.83-10.63c1.89-2.25,4.1-5.05,7.29-5.46,2.35-.31,5.22.6,7.52,1,10.47,1.63,21,3.18,31.44,4.76,38.35,5.79,76.71,11.56,115.11,17-31.69,9.73-64,17.76-95.93,26.44-21.3,5.79-42.6,11.8-64.39,15.47-2.79.47-5.59.84-8.39,1.17a2.69,2.69,0,0,0-.18-1.53C148.51,480.69,148.3,463.36,155.74,448.05Zm235.8-89.77a121.36,121.36,0,0,0,19.77-15.57c-1.21,9.49-2.68,19-4.53,28.34-2,10.36-4.59,21-10.29,30-11.29,17.93-37.68,20.76-43.88,42.69a4.11,4.11,0,0,0-.13,1.45q-6.71,2.44-13.5,4.67a3.23,3.23,0,0,0-2.16-1.16q-35.82-5.49-71.71-10.59c-15.71-5.91-26.32-19.55-30.85-35.51-5.15-18.16-5.21-41.22,1.14-59.07,9.68-27.21,35.28-47.18,43.16-74.63A110.35,110.35,0,0,1,280.11,281c.24,3.33,4.61,4.85,6.46,1.75,6.77-11.36,13.6-22.66,21.51-33.28,7.69-10.32,16.05-20.14,23.67-30.51,11.61-15.8,21.4-33.59,23.58-53.09,36,55.38,56.5,124.24,30.57,188.06C384.61,357.11,388.89,360,391.54,358.28ZM279.24,544.64l-2.26.86c-4.21,1.59-8.42,3.21-12.64,4.8Q233.61,561.9,202,571.07c-11.64,3.39-23.35,6.5-35.1,9.48-9.89,2.5-21.52,5.44-30.34-1.43a3.21,3.21,0,0,0-1.57-.67c-9.37-6.49-12.76-17.7-15.83-28.45-3.53-12.32-5-24.56.35-36,10.13-8.52,26.83-7,39.14-8.74,16.43-2.38,32.59-6.35,48.62-10.59,31.51-8.35,62.94-17.08,94.35-25.82,29.06-8.09,57.89-17,85.21-30,6.65-3.15,13-6.73,19.42-10.37a112.74,112.74,0,0,0,8.56,44.21,118.18,118.18,0,0,0,11.25,21.38,35.33,35.33,0,0,0,6.28,7.61c-6.14,3.69-13.17,6.21-19.74,8.53a250.53,250.53,0,0,1-29,8.11c-19.43,4.35-39.16,7.21-58.57,11.62C309.3,533.55,294.26,539,279.24,544.64Zm157.49-26c5.74,2.73,5.74,6.2,5.63,12.14a67.8,67.8,0,0,1-5.91,26.37c-3.39,7.54-8.17,15.16-14.62,20.45-8.94,7.33-18.05,4.68-28.13,1.57-33.82-10.45-67.56-22-101.78-31.22,8.48-3,17-5.84,25.76-8.1,21.39-5.53,43.32-8.52,64.9-13.15A274.66,274.66,0,0,0,410,519.46a1.51,1.51,0,0,0,.3,0,3,3,0,0,0,1.93-.76q2.79-.93,5.54-2c2.21-.82,4.54-1.67,6.9-2.58C428.63,515.62,432.93,516.79,436.73,518.59ZM443.06,473A63.13,63.13,0,0,1,442,487.21c-.71,3.42-1.35,10.73-5.89,7.59-2.87-2-5-6.93-6.81-9.92a118.31,118.31,0,0,1-5.88-11.21c-6.95-15.21-9.95-31.59-10.5-48.2a16.59,16.59,0,0,1,15.9,2.56C441.76,437.54,442.74,458.3,443.06,473Zm31-218.41c-2.59,37-13.49,74-33.62,105.22-2,3.09,1.29,6.66,4.55,5.91a40,40,0,0,0,12.28-5.08,123.29,123.29,0,0,1-29.6,58c-13.88-5.75-26.19,4.34-38.63,10.78a296,296,0,0,1-27.45,12.36c4.7-9.39,15.09-14.26,23.75-19.75,8.82-5.59,15.88-12.62,20.51-22.06,10.09-20.57,12-45.8,14.35-68.25.34-3.23-4.45-5.13-6.51-2.7a114.46,114.46,0,0,1-16.31,15.75c21.44-66.23-3.38-136.64-42.18-191.86-1.9-2.71-6.86-2-6.7,1.81,1.06,24.21-11.41,45.67-25.52,64.39-7.3,9.67-15.13,18.93-22.29,28.71-5.34,7.32-10.18,15-14.88,22.71a122.25,122.25,0,0,0-5.05-20.63c-1.22-3.59-7-3.2-6.87.93.57,21.13-12.1,38.67-24,55-11.3,15.42-21.95,31-24.59,50.4-3.51,25.83,0,62.46,22,79.42l-14.9-2.11a2.39,2.39,0,0,0-1.3-1.34c-20.57-9-33.83-28.16-39.71-49.34C185,360,187.2,336,190.47,312.7a166.34,166.34,0,0,0,16.8,27.49c2.28,3,8.51,1.43,6.8-2.86C192.77,284,210,224.09,248.14,183.11c18.72-20.09,41.2-34.61,65.6-46.82,22.58-11.3,41.85-25.26,56.05-46.5a126.93,126.93,0,0,0,20.92-59.9c24.12,53.73,41.65,111.55,40.38,170.84-.08,3.65,4.61,5.47,7.13,3a76.06,76.06,0,0,0,18.68-30.56c2.72,8.65,6.26,17.09,9.46,25.66A130.47,130.47,0,0,1,474.08,254.54Z"/><path class="cls-7" d="M260.07,360.28a10.12,10.12,0,0,0-3.37-1.17,8.65,8.65,0,0,0-8,1.19,7.36,7.36,0,0,0-4.28,5.79,10.7,10.7,0,0,0-.53,4.36c.82,8.51,10.69,16.13,17.88,8.83C266.82,374.09,266.73,364.18,260.07,360.28ZM257.66,372c-.46,1.39-1.68,3.3-3.42,2.83-1.39-.37-2.74-2.69-3.15-3.94A5,5,0,0,1,251,368a4.24,4.24,0,0,1,4-1.75C257.73,366.64,258.42,369.7,257.66,372Z"/><path class="cls-7" d="M367.71,380.08a11.06,11.06,0,0,0-6-8.59,8,8,0,0,0-1.56-.54,6.53,6.53,0,0,0-4.68-1.5c-3.66.2-6.37,3.24-7.63,6.45-2.31,5.91-.35,14.31,6.19,16.54C361.9,395.12,368.81,387.7,367.71,380.08Zm-13.57-.45a6.87,6.87,0,0,1,.37-1.43,3,3,0,0,0,2.06.15c5.85-1.61,3.74,10.13-.84,6.62C354.27,383.86,353.94,381.31,354.14,379.63Z"/><path class="cls-7" d="M371,400.11a4,4,0,0,0-3-.39,3.74,3.74,0,0,0-2.31,1.78,5.52,5.52,0,0,0-.72,3.25,5.35,5.35,0,0,0,.18,1.2,3.17,3.17,0,0,0,3.88,2.2,6,6,0,0,0,1.44-.69l-.88.37a4.49,4.49,0,0,0,2.14-1.43,10.39,10.39,0,0,0,.65-1A3.93,3.93,0,0,0,371,400.11Z"/><path class="cls-7" d="M239.93,386.2a4.16,4.16,0,0,0-3.44,2,4,4,0,0,0-.47,2.54,4.39,4.39,0,0,0,1.1,2.29c.09.12.17.23.27.34a3.63,3.63,0,0,0,5.08,0c.1-.11.19-.22.28-.34a5.63,5.63,0,0,0,1-1.76,3.79,3.79,0,0,0-.2-2.59A4,4,0,0,0,239.93,386.2Z"/><path class="cls-7" d="M313.42,392.61c-1,3.3.8,11.83-4.32,12.44-7,.84-6.52-9.86-7.71-13.95a2.83,2.83,0,0,0-5.42,0c-3.16,9,3,22.08,13.64,21.54,9.5-.49,13.25-13.28,10-20.85C318.45,389,314.16,390,313.42,392.61Z"/><path class="cls-7" d="M239.41,227.1c8.26-13.15,19.15-23.89,31.74-32.9,13.08-9.36,27.25-17.17,39.44-27.77,1.13-1-.41-3.05-1.64-2.11-14.41,11-30.35,19.83-44.72,30.88a116.31,116.31,0,0,0-29.17,32.59c-14.85,24.89-21.16,56.21-13.28,84.44.16.56.91.31.84-.23C218.59,282.48,223.42,252.54,239.41,227.1Z"/><path class="cls-7" d="M326.63,156c2.32-2.37,5-4.77,6.7-7.66.56-1-.67-1.78-1.46-1.13-2.54,2.13-4.46,5.24-6.38,7.91C325,155.78,326.06,156.56,326.63,156Z"/><path class="cls-7" d="M415.3,150.49c1.83,18.17.93,36.24,1.82,54.42.05,1.05,1.75,1.42,1.94.26,3-18.17,1.33-37.66-.78-55.85a305.38,305.38,0,0,0-11.71-54.73.58.58,0,0,0-1.12.31A373,373,0,0,1,415.3,150.49Z"/><path class="cls-7" d="M439,348.38c13.11-18.41,19.57-43.44,23.05-65.44a193,193,0,0,0-1.14-67.67c-.25-1.25-2-.69-1.87.51a221.18,221.18,0,0,1-1,69.38,206.89,206.89,0,0,1-8,31c-3.7,10.77-8.86,20.86-13,31.43C436.63,348.75,438.38,349.28,439,348.38Z"/><path class="cls-7" d="M375.36,269.06a243.28,243.28,0,0,1-1.21,36.31c-1.44,13.43-4.93,26.36-7,39.65-.18,1.16,1.55,2.21,2.11.89,4.64-11,6.6-23.29,8.12-35.07a234.33,234.33,0,0,0,1.68-40.68c-1.2-26.68-7.37-51.67-17.26-76.37-.23-.59-1.2-.34-1,.27C369.65,217.75,374.3,243.87,375.36,269.06Z"/><path class="cls-7" d="M273,297.88c-2.81,4.37-4.84,9.2-7.6,13.6-2.32,3.69-5.19,7-7.64,10.54-4.57,6.68-6.15,14.69-6.81,22.63-.07.8,1.18.94,1.37.19,2.49-9.73,4.86-17.56,11.11-25.66,4.76-6.17,9-13.07,11.21-20.61A.9.9,0,0,0,273,297.88Z"/></svg>