<svg id="Layer_1" data-name="Layer 1" xmlns="http://www.w3.org/2000/svg" viewBox="0 0 600 600"><defs><style>.cls-1{fill:#fff;}.cls-2{fill:#be1e2d;}.cls-3{fill:#f2b879;}.cls-4{fill:#f7941e;}.cls-5{fill:#231f20;}</style></defs><title>doodle</title><path class="cls-1" d="M231.88,133.58c22.28,12.68,49.51,19.6,73.41,7.52,19.16-9.69,34-26.28,42.83-45.73a98.56,98.56,0,0,0,8.14-29.18,94.79,94.79,0,0,0,.47-15.8c-.25-4.71-1.41-9.25-.57-13.88A245.77,245.77,0,0,0,190,78C196.06,102,210,121.13,231.88,133.58Z"/><path class="cls-1" d="M433,297.66c-15.26,5.1-20.91,18.57-20.82,33.83a133.65,133.65,0,0,0,2.37,22.83c.78,4.28,3.78,8.63,3.87,12.89,2.73.25,5.46.45,8.21.51,19.37.43,39.38-3.88,55.2-15.55,14.28-10.54,23.32-26.45,28.16-43.3C487.11,294.93,459.05,289,433,297.66Z"/><path class="cls-1" d="M462,175.13c-7.68,11.76-15,27.47-12.52,41.83,2.35,13.81,13,25,25.22,31a72.84,72.84,0,0,0,22.76,6.52c5.07.66,10.67.09,15.76,1-.82-7.32-2-14.6-3.36-21.76a447.64,447.64,0,0,0-17.73-66.47c-1.57-4.39-3.26-8.74-5-13-3.79,1.54-7.63,2.93-11.07,5.45A58.38,58.38,0,0,0,462,175.13Z"/><path class="cls-1" d="M196.35,198.06l-.13-.08a6.56,6.56,0,0,0-2.59,3.75c-.89,3.19.93,7.07,4.5,7.47,4.27.48,6-4.32,3.74-7.43C200.51,199.87,198.23,199.26,196.35,198.06Z"/><path class="cls-1" d="M328,308.07c-11.47-3.51-24.67-3.63-35.68,1.59-11.53,5.48-12,16.06-13.63,26.75,7.31-2.74,14.79-5,22.65-5.5,21.57-1.49,42,12.76,61.15,20.77,2.16.9,4.34,1.78,6.52,2.64C363.59,333.31,349.49,314.62,328,308.07Z"/><path class="cls-1" d="M401.25,195.6a20.39,20.39,0,0,0-4.95,1.57,6.51,6.51,0,0,0,.21,3.89c1.37,3.62,6.79,4.58,8.9,1.12S405,195.25,401.25,195.6Z"/><path class="cls-2" d="M419.47,292.42c13.53-8.89,33.09-10.55,48.82-9.22,15.48,1.3,31,5.85,44.37,14a136.58,136.58,0,0,0,1.56-29.63c-7.47,1.7-16.91-.49-23.89-1.87A77.43,77.43,0,0,1,464.86,256c-13.72-8.47-24.59-22.58-26.4-38.9-1.91-17.34,6.39-36,16.42-49.79,5.91-8.14,17-19.63,28.51-21.86q-6-13.54-13.33-26.47c-10,5.6-25.22,5.42-35.33,3.32a49.31,49.31,0,0,1-30-19.67c-8.23-11.67-8.87-26-6.14-39.62a65.48,65.48,0,0,1,4.28-14,149.19,149.19,0,0,0-35.16-10.76c3.14,8.24,1.91,20.13,1.05,27.92A109.62,109.62,0,0,1,361,96.5c-14.91,35.78-51.67,67.64-92.54,61-37.56-6.14-80.84-33.68-85.84-74.28A251.79,251.79,0,0,0,160,102c7.26,11.59,9.56,27.5,10.06,40.83s-.56,27.09-10.13,37.35c-8.55,9.16-20.11,16.43-32.64,18.11-10,1.34-22.18-.28-30.23-7-12.85,29.35-20.44,62-13.71,93.25a108.34,108.34,0,0,1,10.26-11.75,100.38,100.38,0,0,1,26.63-19.5c19.52-9.66,42.27-12.15,63.23-5.79,44.75,13.57,57.82,60,57.22,102.08q2.72-1,5.44-2a229.51,229.51,0,0,1,22.39-7.12,6.37,6.37,0,0,1,.73-.39l1.24-.51c-1.75-12.86,1.55-27.82,12.4-35.78,11.61-8.53,27.79-10.13,41.63-7.79,30.9,5.22,52.48,31.83,57.77,61.73a7.4,7.4,0,0,1,.1,1.39A174.47,174.47,0,0,0,408.89,366c-5.61-8.13-6.17-26.11-6.51-31.73C401.43,318.43,405.5,301.58,419.47,292.42Zm-241-56.73a6.12,6.12,0,0,1-4.24,1.76,6.34,6.34,0,0,1-4.24-1.76l-.15-.13a6,6,0,0,1-1.76-4.25,6,6,0,0,1,10.26-4.25l.13.15a6.67,6.67,0,0,1,1.76,4.24A6,6,0,0,1,178.43,235.69Zm13.73-15.82a17.35,17.35,0,0,1-6.8-26.36c2.65-3.54,6.91-6.19,11.34-5.6a7.73,7.73,0,0,1,3.3-.43,14.82,14.82,0,0,1,7.42,2.76,18,18,0,0,1,8,15.07C215.13,216.89,202.57,224.4,192.16,219.87Zm131.42,11.61c-4.09,7.12-11.22,12.46-19.68,12.34-9.3-.13-15.08-7.68-19.16-15.11-3.38-6.15-8.72-16.77-1.67-22.3a2.45,2.45,0,0,1,3.76.49c4.57,6,7.91,25.95,18.46,24.93,12-1.16,10.61-21,13.3-28.55a5.16,5.16,0,0,1,9.86,0C331.62,211.8,328,223.85,323.58,231.48Zm106-3.95a6.74,6.74,0,0,1-1.94,4.68,6.84,6.84,0,0,1-4.68,1.94,6.62,6.62,0,0,1-4.68-11.3,6.82,6.82,0,0,1,4.68-1.94A6.73,6.73,0,0,1,429.56,227.53ZM384.9,196.66a17.78,17.78,0,0,1,9.89-12.52,10.59,10.59,0,0,1,3-.84c6.64-1.51,14.47,1.21,18.23,7.15,6.18,9.75.42,23.22-10.79,25.57A17,17,0,0,1,384.9,196.66Z"/><path class="cls-3" d="M345.37,359.29l-1.24-.55c-11.13-5-22.22-11.51-34.35-13.76-1.18-.21-2.37-.36-3.55-.48a190.45,190.45,0,0,0-32.77,6.67c-3.55,1.09-7.08,2.29-10.59,3.56,6.06,39.89-9.82,76.87-26.43,112.08-12.9,27.34-23.86,60.9-10.88,88.61,8.17,6.74,18.57,10.52,29.81,12.23,20.09,3.07,41.2,2.21,61.45,1.57,20-.64,41.05-.9,60.55-5.6a57.77,57.77,0,0,0,8.63-2.81c15.69-28.46,8.93-63.55-2.68-93-7-17.71-15.47-34.78-22-52.65a212.61,212.61,0,0,1-7.1-22.23C348.51,382.41,344.34,371.26,345.37,359.29Z"/><path class="cls-1" d="M443.36,111.93a51.61,51.61,0,0,0,15.11-1.42c1.93-.46,3.77-1.08,5.62-1.65-.41-.67-.81-1.34-1.23-2-10.75-17.23-23.5-34-40-46.19A110.67,110.67,0,0,0,411,53.1c-.7,2.62-.92,5.51-1.32,7.71a88.76,88.76,0,0,0-1.77,14.88c-.11,9.81,3.2,18.7,10.33,25.52A39.63,39.63,0,0,0,443.36,111.93Z"/><path class="cls-4" d="M391.88,478.48c8.45,25.64,11.58,56.36-1.65,80.36,11.52-6.15,18.93-16.45,21.1-31.11,3.12-21.15-3.74-42.68-13.11-61.4-9.24-18.44-20.82-35.71-31.72-53.19l-2.75-4.37c1.55,4.54,3.25,9,5,13.49C376.32,441.06,385.53,459.2,391.88,478.48Z"/><path class="cls-1" d="M127.23,186.44c9.49-2,18.73-8.78,24.8-16.25,7.1-8.73,5.87-22.94,4.81-33.5-.91-9-3.73-17.15-6-25.63A271.17,271.17,0,0,0,108.1,169c-2.45,4.47-4.83,9.07-7.09,13.76C109.74,185.59,117.71,188.49,127.23,186.44Z"/><path class="cls-1" d="M180.42,258.56a75.35,75.35,0,0,0-56.92,4.62,94.57,94.57,0,0,0-23.14,16.48c-5.17,5-9.3,11-13.88,16.45,5.76,17,16.24,33,31.26,43.14,17.66,11.94,40.89,17.79,61.85,20.22,17.34,2,33.07-.84,48.84-5.69C230,316,221.15,271.78,180.42,258.56Z"/><path class="cls-4" d="M226,480c8.34-20,19.42-38.78,26.06-59.45,6.87-21.36,8.11-42.54,7.89-64.69q-3,1.13-6,2.28c4,19.61-4.24,37.48-13.3,55.21-11,21.55-20.75,44.14-27.44,67.45-5.42,18.89-8.19,39.84.09,58.37a46.26,46.26,0,0,0,4.09,7.26C212,524.83,217.89,499.27,226,480Z"/><path class="cls-5" d="M516.37,331.15c21-43.33,10.4-94.17-1.64-138.51s-31.8-89.71-63-124.18a128.8,128.8,0,0,0-55.12-36.35c-21.74-7.26-45.32-10.19-68.18-10.22a258.45,258.45,0,0,0-129.75,35c-35.51,20.7-65.77,49.88-88.74,83.88C85,177.72,65,223.67,67.84,269.06c1.24,20,7.19,39.95,18.46,56.63,12,17.69,28.68,29.46,48.64,36.66,22.08,8,46.87,13.11,70.37,10.34,13.39-1.58,26-6,38.57-10.75a76.25,76.25,0,0,1-3.94,23.38c-4,11.26-10.54,21.63-15.75,32.33C214.31,438,205.24,459.2,199.3,481c-5.44,20-7.17,41.7.79,61.29,7.26,17.89,21.43,30.28,39.88,35.75,19.68,5.83,41.47,5.24,61.78,5.18,22.84-.07,46.06-.78,68.68-4.1,18-2.65,36-9.26,46.25-25.27,11.07-17.36,10.93-40.29,6.58-59.71-5.42-24.22-18.42-45.81-31.4-66.65-7-11.23-14.07-22.43-21.06-33.67-5.62-9-10.9-18.32-12-28.76,17.19,7.1,34.86,13,53.39,15.41C454,386,497.15,370.77,516.37,331.15Zm-34.53,21c-15.82,11.67-35.83,16-55.2,15.55-2.75-.06-5.48-.26-8.21-.51-.09-4.26-3.09-8.61-3.87-12.89a133.65,133.65,0,0,1-2.37-22.83c-.09-15.26,5.56-28.73,20.82-33.83,26-8.69,54.1-2.73,77,11.21C505.16,325.72,496.12,341.63,481.84,352.17Zm10.32-184.88a447.64,447.64,0,0,1,17.73,66.47c1.37,7.16,2.54,14.44,3.36,21.76-5.09-.94-10.69-.37-15.76-1A72.84,72.84,0,0,1,474.73,248c-12.22-6-22.87-17.2-25.22-31-2.44-14.36,4.84-30.07,12.52-41.83a58.38,58.38,0,0,1,14-15.44c3.44-2.52,7.28-3.91,11.07-5.45C488.9,158.55,490.59,162.9,492.16,167.29ZM409.66,60.81c.4-2.2.62-5.09,1.32-7.71a110.67,110.67,0,0,1,11.89,7.57c16.49,12.14,29.24,29,40,46.19.42.66.82,1.33,1.23,2-1.85.57-3.69,1.19-5.62,1.65a51.61,51.61,0,0,1-15.11,1.42,39.63,39.63,0,0,1-25.14-10.72c-7.13-6.82-10.44-15.71-10.33-25.52A88.76,88.76,0,0,1,409.66,60.81ZM298.37,36.88a244,244,0,0,1,57.79-.37c-.84,4.63.32,9.17.57,13.88a94.79,94.79,0,0,1-.47,15.8,98.56,98.56,0,0,1-8.14,29.18c-8.85,19.45-23.67,36-42.83,45.73-23.9,12.08-51.13,5.16-73.41-7.52C210,121.13,196.06,102,190,78A245.68,245.68,0,0,1,298.37,36.88ZM108.1,169a271.17,271.17,0,0,1,42.7-57.93c2.31,8.48,5.13,16.68,6,25.63,1.06,10.56,2.29,24.77-4.81,33.5-6.07,7.47-15.31,14.21-24.8,16.25s-17.49-.85-26.22-3.69C103.27,178.06,105.65,173.46,108.1,169ZM228.43,353.78c-15.77,4.85-31.5,7.69-48.84,5.69-21-2.43-44.19-8.28-61.85-20.22-15-10.16-25.5-26.11-31.26-43.14,4.58-5.49,8.71-11.45,13.88-16.45a94.57,94.57,0,0,1,23.14-16.48,75.35,75.35,0,0,1,56.92-4.62C221.15,271.78,230,316,228.43,353.78ZM213.22,539.13c-8.28-18.53-5.51-39.48-.09-58.37,6.69-23.31,16.43-45.9,27.44-67.45,9.06-17.73,17.26-35.6,13.3-55.21q3-1.16,6-2.28c.22,22.15-1,43.33-7.89,64.69C245.38,441.18,234.3,460,226,480c-8.07,19.31-14,44.87-8.65,66.43A46.26,46.26,0,0,1,213.22,539.13Zm153.28-126c10.9,17.48,22.48,34.75,31.72,53.19,9.37,18.72,16.23,40.25,13.11,61.4-2.17,14.66-9.58,25-21.1,31.11,13.23-24,10.1-54.72,1.65-80.36-6.35-19.28-15.56-37.42-23.1-56.22-1.78-4.46-3.48-8.95-5-13.49Zm-5.22,2c6.57,17.87,15.08,34.94,22,52.65,11.61,29.48,18.37,64.57,2.68,93a57.77,57.77,0,0,1-8.63,2.81c-19.5,4.7-40.59,5-60.55,5.6-20.25.64-41.36,1.5-61.45-1.57-11.24-1.71-21.64-5.49-29.81-12.23-13-27.71-2-61.27,10.88-88.61,16.61-35.21,32.49-72.19,26.43-112.08,3.51-1.27,7-2.47,10.59-3.56a190.45,190.45,0,0,1,32.77-6.67c1.18.12,2.37.27,3.55.48,12.13,2.25,23.22,8.74,34.35,13.76l1.24.55c-1,12,3.14,23.12,8.81,33.61A212.61,212.61,0,0,0,361.28,415.13Zm1.21-63.45c-19.17-8-39.58-22.26-61.15-20.77-7.86.54-15.34,2.76-22.65,5.5,1.66-10.69,2.1-21.27,13.63-26.75,11-5.22,24.21-5.1,35.68-1.59,21.49,6.55,35.59,25.24,41,46.25C366.83,353.46,364.65,352.58,362.49,351.68Zm19.88,7.54a7.4,7.4,0,0,0-.1-1.39c-5.29-29.9-26.87-56.51-57.77-61.73-13.84-2.34-30-.74-41.63,7.79-10.85,8-14.15,22.92-12.4,35.78l-1.24.51a6.37,6.37,0,0,0-.73.39,229.51,229.51,0,0,0-22.39,7.12q-2.73,1-5.44,2c.6-42-12.47-88.51-57.22-102.08-21-6.36-43.71-3.87-63.23,5.79a100.38,100.38,0,0,0-26.63,19.5,108.34,108.34,0,0,0-10.26,11.75c-6.73-31.25.86-63.9,13.71-93.25,8,6.67,20.27,8.29,30.23,7,12.53-1.68,24.09-9,32.64-18.11,9.57-10.26,10.63-23.91,10.13-37.35S167.24,113.63,160,102a251.79,251.79,0,0,1,22.65-18.86c5,40.6,48.28,68.14,85.84,74.28,40.87,6.68,77.63-25.18,92.54-61a109.62,109.62,0,0,0,7.78-30.31c.86-7.79,2.09-19.68-1.05-27.92A149.19,149.19,0,0,1,402.9,49a65.48,65.48,0,0,0-4.28,14c-2.73,13.6-2.09,28,6.14,39.62a49.31,49.31,0,0,0,30,19.67c10.11,2.1,25.32,2.28,35.33-3.32q7.28,12.91,13.33,26.47c-11.48,2.23-22.6,13.72-28.51,21.86-10,13.78-18.33,32.45-16.42,49.79,1.81,16.32,12.68,30.43,26.4,38.9a77.43,77.43,0,0,0,25.47,9.65c7,1.38,16.42,3.57,23.89,1.87a136.58,136.58,0,0,1-1.56,29.63c-13.34-8.12-28.89-12.67-44.37-14-15.73-1.33-35.29.33-48.82,9.22-14,9.16-18,26-17.09,41.83.34,5.62.9,23.6,6.51,31.73A174.47,174.47,0,0,1,382.37,359.22Z"/><path class="cls-5" d="M207.42,190.24a14.82,14.82,0,0,0-7.42-2.76,7.73,7.73,0,0,0-3.3.43c-4.43-.59-8.69,2.06-11.34,5.6a17.35,17.35,0,0,0,6.8,26.36c10.41,4.53,23-3,23.26-14.56A18,18,0,0,0,207.42,190.24Zm-9.29,19c-3.57-.4-5.39-4.28-4.5-7.47a6.56,6.56,0,0,1,2.59-3.75l.13.08c1.88,1.2,4.16,1.81,5.52,3.71C204.11,204.88,202.4,209.68,198.13,209.2Z"/><path class="cls-5" d="M416,190.45c-3.76-5.94-11.59-8.66-18.23-7.15a10.59,10.59,0,0,0-3,.84,17.78,17.78,0,0,0-9.89,12.52A17,17,0,0,0,405.21,216C416.42,213.67,422.18,200.2,416,190.45Zm-19.49,10.61a6.51,6.51,0,0,1-.21-3.89,20.39,20.39,0,0,1,4.95-1.57c3.71-.35,6.23,3.2,4.16,6.58S397.88,204.68,396.51,201.06Z"/><path class="cls-5" d="M318.59,203.28c-2.69,7.6-1.29,27.39-13.3,28.55-10.55,1-13.89-18.88-18.46-24.93a2.45,2.45,0,0,0-3.76-.49c-7.05,5.53-1.71,16.15,1.67,22.3,4.08,7.43,9.86,15,19.16,15.11,8.46.12,15.59-5.22,19.68-12.34,4.38-7.63,8-19.68,4.87-28.2A5.16,5.16,0,0,0,318.59,203.28Z"/><path class="cls-5" d="M178.3,227.06A6,6,0,0,0,168,231.31a6,6,0,0,0,1.76,4.25l.15.13a6.34,6.34,0,0,0,4.24,1.76,6.12,6.12,0,0,0,4.24-1.76,6,6,0,0,0,1.76-4.24,6.67,6.67,0,0,0-1.76-4.24Z"/><path class="cls-5" d="M416.32,227.53a6.73,6.73,0,0,0,6.62,6.62,6.84,6.84,0,0,0,4.68-1.94,6.62,6.62,0,0,0-4.68-11.3,6.82,6.82,0,0,0-4.68,1.94A6.69,6.69,0,0,0,416.32,227.53Z"/></svg>