<svg id="Layer_1" data-name="Layer 1" xmlns="http://www.w3.org/2000/svg" viewBox="0 0 600 600"><defs><style>.cls-1{fill:#fff;}.cls-2{fill:#f7941e;}.cls-3{fill:#231f20;}</style></defs><title>doodle</title><path class="cls-1" d="M208.6,158.65a1.52,1.52,0,0,0,.36-2.42c-.64-.61-1.25-.41-2-.3l-.5.07a2.26,2.26,0,0,0-.19,1.05C206.33,158.18,207.46,159.26,208.6,158.65Z"/><path class="cls-2" d="M179.76,85.94c4.12-.36,8.33-.4,12.5-.42,0-1.91.11-3.79.28-5.59-.29-1.29,2.14-1.8,2.27-.12.14,1.88.33,3.78.52,5.7,2.07,0,4.13,0,6.14-.1l6.78-.23c-.05-2.12-.09-4.23-.17-6.26,0-1.07,1.73-1.33,1.88-.26.29,2.1.64,4.25,1,6.43q9.74-.33,19.47-.66c.08-1.08.18-2.15.32-3.14s1.61-.85,1.72,0c.14,1,.24,2,.32,3.06l18.73-.59c-.08-1.18-.16-2.36-.28-3.53s1.73-1.32,1.9-.26.42,2.44.66,3.72l17.86-.53c-.16-2.22-.33-4.43-.57-6.61-.1-1,1.51-1.17,1.71-.23.45,2.19.92,4.47,1.33,6.77q8.77-.25,17.56-.46l2.92-.07c0-1.89.09-3.74.22-5.48a.94.94,0,0,1,1.87,0c.2,1.78.47,3.59.76,5.41,7.32-.17,14.63-.37,21.92-.72-.24-1.94-.49-3.86-.84-5.73-.25-1.3,1.68-1.87,2-.55.51,2,1.09,4,1.62,6.14,6.45-.35,12.88-.83,19.3-1.54-.17-2-.32-4-.49-5.86-.09-1,1.46-1.15,1.72-.23.5,1.85,1,3.8,1.47,5.79q3.76-.47,7.52-1l6.44-1a17.46,17.46,0,0,1,0-6.68c.24-1,1.9-.77,1.76.24a17.61,17.61,0,0,0,.6,6c6.45-1,12.9-2.14,19.35-3.19l3.48-.59c-.43-2-.88-4-1.43-5.92-.31-1.09,1.37-1.84,1.85-.79.88,1.94,1.75,4,2.48,6.2,7.76-1.37,15.6-2.76,23.44-2.75a3.31,3.31,0,0,1,.55.05q-.81-2.55-1.66-5.09c-2.62-7.78-5.42-15.5-8.51-23.1-2.76-6.81-6-13.48-13-16.74s-15.65-4-23.34-4.39a186.4,186.4,0,0,0-25.45.56c-34.46,2.79-68.87,7.81-103.2,11.91-13.18,1.57-27.48,2.73-39.26,9.44C182.39,50.6,179,64.51,179,79q0,3.43.09,6.85Z"/><path class="cls-2" d="M400.35,285.93c1.11-.15,2.32-.25,3.6-.3,0-1.27.07-2.54.08-3.81.08-8.36-1.42-17.67-.15-26.08-6-8.83-13.27-17.86-23.55-18.63l-4.2.1a45.44,45.44,0,0,0-17.58,6.14l-2.42,1.46a79.89,79.89,0,0,0-14.95,12.29c-9.49,10-15.49,23.5-11.23,37.21,4.52,14.56,17,27.1,27,38.15a336.31,336.31,0,0,0,33.67,32.36l1,.79c.55-1.87,1.19-3.73,1.68-5.56s.91-3.49,1.35-5.24A79.24,79.24,0,0,1,387,352.5a.86.86,0,0,1,.46-1.65c2.62.37,5.21.85,7.8,1.36.59-2.45,1.16-4.9,1.68-7.36q1.06-5,2-10a24.72,24.72,0,0,1-4.25-1.16.78.78,0,0,1,.21-1.52,24.27,24.27,0,0,1,4.51.06c1.13-6.37,2.07-12.78,2.76-19.22l.09-.92a38.86,38.86,0,0,0-6.1-1.1.72.72,0,0,1-.19-1.4,14.07,14.07,0,0,1,6.55-.24c.69-7.09,1.17-14.2,1.39-21.32-1.25-.24-2.49-.53-3.71-.89A.65.65,0,0,1,400.35,285.93Z"/><path class="cls-1" d="M319.16,249.28c-.7,1.81,1.88,3.39,3.14,4.71s2.31,2.4,3.44,3.61q1.11,1.18,2.16,2.4c.9-1.36,1.85-2.67,2.86-3.95C326.69,251.85,320.41,246.05,319.16,249.28Z"/><path class="cls-1" d="M377,145.19c.14-.34.26-.63.29-.73a4.78,4.78,0,0,0,0-3.8,1.34,1.34,0,0,0-.46-.52c-.62.19-1.16,1.13-1.79,1.83a5.21,5.21,0,0,0,.52,1.67A5.52,5.52,0,0,0,377,145.19Z"/><path class="cls-1" d="M255,233.32a23.69,23.69,0,0,0-2.26,3.35A34.67,34.67,0,0,0,250.3,243a36.82,36.82,0,0,1,7.39,1.18,19.66,19.66,0,0,0,.57-2.35c.36-2.36.74-7.35-.84-9.33C256.39,231.22,256.1,232,255,233.32Z"/><path class="cls-1" d="M297.59,262.14c-1.73-3.29-6.73,1.85-10,5.78q1.44,2.41,2.65,4.95l2.43-2.76C293.91,268.63,298.82,264.48,297.59,262.14Z"/><path class="cls-1" d="M372.06,224.92a41.6,41.6,0,0,0-2.12-4.78,27.88,27.88,0,0,0-1.35-2.46q-.87-2.38-2.19-.21c-3,2,.28,7.71,1.48,12.7a46.64,46.64,0,0,1,5.3-1.21A31.85,31.85,0,0,0,372.06,224.92Z"/><path class="cls-1" d="M280.67,240c-1.79-1-5.64,4.08-6.58,5.58a17,17,0,0,0-2,5.43c.2.14.42.27.61.42,1.18.87,2.3,1.78,3.39,2.72.71-2,1.87-3.86,2.65-5.81C279.25,246.94,282.14,240.77,280.67,240Z"/><path class="cls-1" d="M349.54,239c-1-1.19-2-2.36-3-3.56s-1.95-2.88-3.19-3.78c-2-1.48-4.49-2.2-4,1.08.53,3.77,2.84,6.94,4.78,10.2C345.84,241.54,347.67,240.22,349.54,239Z"/><path class="cls-2" d="M158.24,246.54c3,.87,6,2.35,8.94,3.43l1.85.64a38.67,38.67,0,0,1,4.56-7.4c.69-.85,2.06.08,1.78,1a47.69,47.69,0,0,1-3.17,7.43c3.1,1,6.23,1.9,9.39,2.66,1,.25,2.08.48,3.13.7a23.78,23.78,0,0,1,4.18-6.46,1,1,0,0,1,1.57.92,53.22,53.22,0,0,1-2.52,6.17q4.7.86,9.45,1.42c4,.47,8.69.2,12.15,2.43a1.74,1.74,0,0,1,0,3c-4,2.49-9.51,1.61-14,1.1q-5.15-.57-10.2-1.61a8.27,8.27,0,0,1-2.6,3.53c-.65.48-1.51-.32-1.32-1,.28-1,.6-2.1.94-3.18-.54-.12-1.07-.23-1.6-.37a106.92,106.92,0,0,1-11-3.42c-.92,2.61-1.69,5.25-2.58,7.89a.87.87,0,0,1-1.7-.23,27.59,27.59,0,0,1,1.32-8.82c-.53-.21-1.07-.41-1.6-.64-3.15-1.34-6.62-2.68-9.39-4.81-2.54,4.51-5.12,9-7.65,13.5-15.81,28.17-31,57.08-39.42,88.43-7.45,27.73-9.36,59.73,14.62,80,9.94,8.41,22.34,13.57,34.62,17.48,6.14,2,12.38,3.65,18.66,5.14,4.65,1.09,8.05,1.23,11.87-2,2.81-2.39,5.37-5.14,8-7.74a616.82,616.82,0,0,0,62.91-72.56c16.62-22.71,34.18-50.41,29.31-79.91-1.92-11.69-7-23.19-15.42-31.64-8.69-8.72-24.38-16.52-36-8.79-5.56,3.72-9.13,9.94-12.41,15.6-4.26,7.33-8.46,14.7-12.69,22-8.55,14.86-16.95,29.8-25.57,44.62-1.93,3.33-7,.34-5.15-3,9.07-16.15,18.36-32.16,27.5-48.26,4.38-7.71,8.54-15.59,13.23-23.1,3.41-5.47,7.5-10.82,13.08-14.21a24.24,24.24,0,0,1,9-3.21c.27-6.63,5.74-18.72,13.13-18.35,8.66.42,8,15,6.44,21.42a44.66,44.66,0,0,1,4.43,2.22,19.89,19.89,0,0,1,3.33-8.77c2.23-3.28,6.87-7.39,11.19-6.27s4.9,6,4.21,9.59a46.78,46.78,0,0,1-3.09,9.06c-1,2.33-1.77,4.57-3.44,6.27a55.55,55.55,0,0,1,4.09,5c3.53-5.83,10.38-10.86,15.88-7.06,8.66,6-1.69,17.26-7.55,23.19a78,78,0,0,1,2.16,41.83c-7.11,32.26-29.86,59.81-50.35,84.71C233.4,419.94,221.51,433.29,209,446c-1.34,1.37-2.7,2.8-4.06,4.25,4.05,13.56,8.15,27.12,12.53,40.59,1.43-.39,3-.58,4.57-.88,3.67-.68,7.33-1.52,10.95-2.43,1.19-.3,2.38-.63,3.56-1a44.7,44.7,0,0,1-1.6-5.41.73.73,0,0,1,1.33-.56,30,30,0,0,1,3.12,5.19c5.08-1.46,10.11-3.07,15.17-4.58a32.85,32.85,0,0,1-.24-4.67c0-.86,1.29-1.32,1.7-.47a32,32,0,0,1,1.64,4.24c7.17-2,14.46-3.4,21.72-4.84-.26-2-.42-3.92-.48-5.71a1.32,1.32,0,0,1,2.58-.35c.57,1.75,1,3.55,1.41,5.35a168.84,168.84,0,0,0,17.93-4.45c2.8-.89,4.52,2.72,2.73,4.68-4.9,5.37-12.06,6.3-18.93,7.27a31.34,31.34,0,0,1,1.19,7.34,1,1,0,0,1-1.82.5,29.87,29.87,0,0,1-3.09-7.27,191.3,191.3,0,0,0-21.1,4.87,44.85,44.85,0,0,1,2.22,9.25c.1,1.13-1.46,1.36-2,.54a34.6,34.6,0,0,1-3.88-8.73c-4.62,1.34-9.23,2.69-13.87,3.9,1.13,2.9,2.23,6,2.16,9a1.09,1.09,0,0,1-2,.55c-1.68-2.61-2.45-5.77-3.4-8.74-2,.48-4,.94-6,1.36-3.83.79-9,2.27-13.61,2,1.35,4.06,2.72,8.12,4.14,12.16Q229,524.66,235,540.14c3.11,8,6.35,16.22,11.4,23.27,4.31,6,10.65,11.52,18.28,12.29,9.81,1,12.93-7.3,14.14-15.44,1.41-9.49,2-19.12,3.5-28.59,1.12-7,4.53-11.63,11.87-12.65,9-1.26,18.59-1.07,27.7-.88,7.72.16,19-.86,25.82,3.38,6.6,4.08,9.15,14.6,11,21.56,2.26,8.24,2.52,16.58,3.88,24.95,1.51,9.39,6.6,14.37,16.28,14.81,9.39.43,15.7-2.71,19.23-11.63,7-17.82,9.55-37.47,12.9-56.21q6.47-36.17,12.89-72.34a82.44,82.44,0,0,1-12.41-.59c-4.9-.4-9.78-.91-14.66-1.48a21.59,21.59,0,0,1-.88,3.29,1.19,1.19,0,0,1-2.33-.31,19.72,19.72,0,0,1-.1-3.35q-8.73-1.1-17.41-2.45a25.19,25.19,0,0,1-2,5.42.81.81,0,0,1-1.49-.41,29.13,29.13,0,0,1,.43-5.53c-4.66-.77-9.3-1.59-13.93-2.52-1.86-.37-3.71-.76-5.56-1.15a36.15,36.15,0,0,1-2.82,5.53,1.07,1.07,0,0,1-1.94-.82,42.47,42.47,0,0,1,1.45-5.42c-6-1.31-11.91-2.71-17.81-4.25A48.47,48.47,0,0,1,330,438a.83.83,0,0,1-1.62-.22,49.62,49.62,0,0,1,.57-10.11q-8.12-2.19-16.14-4.74a23.4,23.4,0,0,1-2.12,5.72c-.54,1-2.35.61-2.2-.6a34.37,34.37,0,0,1,1.45-6c-7-2.31-13.92-4.84-20.77-7.66a1.22,1.22,0,0,1,.65-2.36q10.71,2.63,21.45,5.21a41.18,41.18,0,0,1,1.89-6c.35-.81,1.55-.33,1.57.43a25.75,25.75,0,0,1-.7,6.24q8.07,1.9,16.16,3.69c.4-1.59.85-3.15,1.33-4.64a.85.85,0,0,1,1.66.23c0,1.63,0,3.32-.11,5q9.58,2.07,19.23,3.85a30.61,30.61,0,0,1,2-5.72,1.06,1.06,0,0,1,2,.53,26.6,26.6,0,0,1-.62,5.8l4.37.77c4.76.8,9.53,1.54,14.31,2.25a12.24,12.24,0,0,1,2.07-5.65c.35-.45,1-.13,1.13.29a11,11,0,0,1,.12,5.85q8.18,1.15,16.39,2.07a27.37,27.37,0,0,1,.59-4.1,1,1,0,0,1,2,0,27.1,27.1,0,0,1,.62,4.46q8.6.92,17.2,1.65a81.89,81.89,0,0,1,10.71,1.25q3.21-17.94,6.46-35.86a105,105,0,0,1-16.19-6.77c-14.8-7.71-28-18.42-40.3-29.55A341.53,341.53,0,0,1,339.61,326c-9.79-12-20.26-25.4-19.88-41.72a43.73,43.73,0,0,1,5.18-19.18,62.54,62.54,0,0,1-10.65-10.61c-2.62-3.3-3-7.67.49-10.56,6.34-5.18,15.14.8,20.65,6.83.82-.86,1.65-1.69,2.51-2.5l1.41-1.29a38.48,38.48,0,0,1-4.29-7.7c-1.84-4.15-3.44-9.06-.54-13.14,6.27-8.8,15.68,2.3,21.14,9.16a65.37,65.37,0,0,1,6.78-3.2c-.11-.29-.21-.58-.32-.88a68,68,0,0,1-3.16-10.2c-.94-4.8.62-10.88,6.07-12.1,8.59-1.92,14.56,10.53,16.25,19.61,13.39,1.07,22.19,11.94,29.94,22.43a744.67,744.67,0,0,1,57.44,91.38c2.85,5.31-5.23,10-8.08,4.72q-11.26-21-23.75-41.34c-8.38-13.65-17.21-27-26.37-40.15.54,5.86.38,11.92.45,17.26,0,1,0,2,0,3.06A30,30,0,0,1,421,288.5c.94.48.4,1.77-.5,1.84-3.22.26-6.46-.59-9.63-1.12-.07,7.19-.39,14.38-1,21.54a31.15,31.15,0,0,1,7.74,2.33c.92.44.42,1.79-.49,1.81a30,30,0,0,1-7.55-.88c0,.33-.06.66-.1,1q-.95,9.14-2.42,18.21a28.28,28.28,0,0,1,5.88,1.26,1,1,0,0,1-.28,2,28.25,28.25,0,0,1-6.09-.42q-.94,5.43-2.13,10.81c-.49,2.26-1,4.5-1.58,6.75a19,19,0,0,1,5,1.63c.86.45.35,1.56-.44,1.65a17.68,17.68,0,0,1-5.32-.37c-.56,2.16-1.12,4.32-1.72,6.47a79,79,0,0,1-2.35,7.71C419.28,386.93,445.36,400,472.48,394c74.62-16.62,7.44-112.34-12.37-148.22a315.23,315.23,0,0,1-18.47-38.58,211.4,211.4,0,0,1-9.72-34.66c-3.95,1.43-8.12,2.45-12.13,3.62a21.81,21.81,0,0,1,.89,4.29c.12,1.27-1.8,1.71-2.37.64a27,27,0,0,1-1.66-4c-5.26,1.58-10.53,3.12-15.81,4.66-1.25.37-2.52.76-3.81,1.18a26.47,26.47,0,0,1,1.73,5.44,1.08,1.08,0,0,1-2,.82,26.7,26.7,0,0,1-2.59-5.35c-4.47,1.47-9.1,3-13.74,4.13a59.91,59.91,0,0,0,3.11,7.2.9.9,0,0,1-1.23,1.23c-2.69-1.59-3.81-4.35-4.83-7.19-.06-.19-.13-.37-.2-.56a42.91,42.91,0,0,1-10.29.83c-1.74-.1-2.29-2.79-.43-3.18a94.26,94.26,0,0,0,9.14-2.45,36.69,36.69,0,0,1-1.36-6.52,1,1,0,0,1,1.86-.5c.9,2,1.67,4,2.4,6.07,4.55-1.55,9.07-3.28,13.57-4.91a27.15,27.15,0,0,0-1.8-4.9.71.71,0,0,1,1.11-.85,12.57,12.57,0,0,1,3.05,4.9c1.52-.54,3.05-1.08,4.56-1.57,5.12-1.66,10.23-3.32,15.36-4.94a36.82,36.82,0,0,1-2.33-7.44,1,1,0,0,1,1.85-.78,27.78,27.78,0,0,1,3.47,7.26c4.3-1.38,8.7-3.1,13.13-4.14-.25-1.39-.5-2.79-.73-4.19-4.89-29.08-9.63-57.74-18.12-85.9a3.28,3.28,0,0,1-1.31.85c-7.21,2.45-14.84,3.66-22.43,4.81a22.59,22.59,0,0,1,.09,3.07,1.1,1.1,0,0,1-2.14.29c-.31-1-.59-1.94-.85-2.92q-2.61.39-5.18.82c-6,1-12,2-17.95,3a25.21,25.21,0,0,1,.29,4.06,1.1,1.1,0,0,1-2.14.29,24.36,24.36,0,0,1-.94-3.9q-4.63.73-9.28,1.4c-1.44.21-2.89.38-4.34.56a37.34,37.34,0,0,1,.22,6.9,1,1,0,0,1-1.93.26,49.31,49.31,0,0,1-1.49-6.77c-6.24.69-12.48,1.18-18.73,1.52a24.63,24.63,0,0,1,0,4.46,1,1,0,0,1-2,.26,36.5,36.5,0,0,1-1.2-4.57c-7.29.35-14.59.55-21.9.72a53.1,53.1,0,0,1,.46,6.73c0,1-1.47,1.48-1.91.52a28.86,28.86,0,0,1-2-7.17l-2.44.05q-8.79.19-17.57.35a42.83,42.83,0,0,1,0,6c-.08,1-1.68,1.39-1.91.26-.42-2-.71-4.11-.94-6.2q-8.71.17-17.43.29a19.07,19.07,0,0,1-.39,5.89.94.94,0,0,1-1.79,0,20.67,20.67,0,0,1-.81-5.85l-18.44.28a35,35,0,0,1,.4,5.58,1.12,1.12,0,0,1-2.19.29,25.74,25.74,0,0,1-1.2-5.83l-18.63.23a48.07,48.07,0,0,1,.22,8.2,1.15,1.15,0,0,1-2.24.3,48.6,48.6,0,0,1-1.27-8.46l-7.09.09c-1.82,0-3.67.08-5.54.15.18,2.49.29,5,.26,7.4a1,1,0,0,1-1.88.25,34.52,34.52,0,0,1-1.71-7.51c-4.43.18-8.92.35-13.31.13.41,11.83,1.12,23.66,1.2,35.5.1,16.91-.18,33.87-1.23,50.76-1,15.65-3.67,30.65-9.77,45.16A236.5,236.5,0,0,1,158.24,246.54ZM185.31,405c1.51-7.85,5.23-15,9.94-21.69-2.06-1.43-4.67-2.92-6.31-4.82a.64.64,0,0,1-.41-.46c0-.05,0-.1,0-.16a.78.78,0,0,1,.35-.85l.26-.17a1.07,1.07,0,0,1,1,0c2.35,1.22,4.58,2.66,6.8,4.11,2.61-3.5,5.47-6.89,8.37-10.2-1.05-1.05-2-2.09-2.95-3.05s.37-1.93,1.24-1.25c1.1.84,2.21,1.67,3.32,2.49,4.47-5,9-9.9,12.89-14.74.75-.92,1.47-1.86,2.2-2.79-1.22-.93-2.44-1.88-3.67-2.83-.85-.66.25-2,1.13-1.46l4,2.41q3.8-4.86,7.46-9.81c-1.73-1.28-3.46-2.56-5.16-3.88-.83-.66.24-1.84,1.08-1.4,1.92,1,3.78,2.09,5.6,3.25q4.52-6.12,8.89-12.35c.83-1.18,1.64-2.38,2.47-3.57a41.37,41.37,0,0,1-4.45-3.19c-.7-.59.05-1.95.92-1.59a44.46,44.46,0,0,1,5,2.6q3-4.32,5.83-8.69c2.94-4.49,5.53-9.51,9.6-13.09a2.5,2.5,0,0,1,4.14,2.41c-1.45,5.54-5.1,10.3-8.22,15q-2.61,3.93-5.28,7.82A12.79,12.79,0,0,1,255,326a1,1,0,0,1-.91,1.57,13.34,13.34,0,0,1-4.46-2c-.76,1.09-1.51,2.19-2.28,3.27q-4.53,6.39-9.33,12.59c2.58,1.8,5.32,3.68,7.14,6.24.43.6-.3,1.6-1,1.3-2.88-1.2-5.4-3.33-7.89-5.28q-3.63,4.65-7.36,9.25c2.15,1.33,4.49,2.68,6,4.63.58.73.08,2-1,1.69-2.52-.74-4.72-2.49-6.86-4.09-4.87,5.93-10,11.64-15,17.43,2.12,1.39,4.48,2.64,6.26,4.42a1.22,1.22,0,0,1-1.18,2,22.6,22.6,0,0,1-7.14-4c-2.65,3.11-5.25,6.24-7.74,9.45a23.32,23.32,0,0,1,3.71,3.09c.69.74,0,2.29-1.09,1.86a25.68,25.68,0,0,1-4.52-2.45,112.74,112.74,0,0,0-11.88,19.39C187.62,408.26,185,406.8,185.31,405ZM370.24,134.49c3.36-4.2,10.63-4,14.07,1.15a12.75,12.75,0,0,1,1.36,10.65c-1,3.54-3.08,8.05-7.34,8.14-6.55.14-11.45-7.21-11.18-13.2A9.28,9.28,0,0,1,370.24,134.49Zm-92.45,11.18a1.7,1.7,0,0,1,3.06.4c1.84,4.85,2.66,17.73,11.47,12.87,7.34-4.05,4.76-13.37,5.66-20.09.24-1.77,3-3.28,4-1.07,4.17,9.75,2.3,25.86-9.95,28.7C281.1,169,271.5,154.92,277.79,145.67Zm-78.13,6.7a3.56,3.56,0,0,1,.5-1.46,8.67,8.67,0,0,1,9.4-4.15,10.88,10.88,0,0,1,7.35,5,10.46,10.46,0,0,1-5.79,15.4c-6.31,1.83-13.15-2.9-13.06-9.6A9.45,9.45,0,0,1,199.66,152.37Z"/><path class="cls-3" d="M211.12,167.12a10.46,10.46,0,0,0,5.79-15.4,10.88,10.88,0,0,0-7.35-5,8.67,8.67,0,0,0-9.4,4.15,3.56,3.56,0,0,0-.5,1.46,9.45,9.45,0,0,0-1.6,5.15C198,164.22,204.81,169,211.12,167.12ZM206.42,156l.5-.07c.79-.11,1.4-.31,2,.3a1.52,1.52,0,0,1-.36,2.42c-1.14.61-2.27-.47-2.37-1.6A2.26,2.26,0,0,1,206.42,156Z"/><path class="cls-3" d="M378.33,154.43c4.26-.09,6.33-4.6,7.34-8.14a12.75,12.75,0,0,0-1.36-10.65c-3.44-5.1-10.71-5.35-14.07-1.15a9.28,9.28,0,0,0-3.09,6.74C366.88,147.22,371.78,154.57,378.33,154.43Zm-1.55-14.29a1.34,1.34,0,0,1,.46.52,4.78,4.78,0,0,1,0,3.8c0,.1-.15.39-.29.73a5.52,5.52,0,0,1-1.44-1.55A5.21,5.21,0,0,1,375,142C375.62,141.27,376.16,140.33,376.78,140.14Z"/><path class="cls-3" d="M292,166.48c12.25-2.84,14.12-18.95,9.95-28.7-.94-2.21-3.72-.7-4,1.07-.9,6.72,1.68,16-5.66,20.09-8.81,4.86-9.63-8-11.47-12.87a1.7,1.7,0,0,0-3.06-.4C271.5,154.92,281.1,169,292,166.48Z"/><path class="cls-3" d="M501.6,302.13c-13.59-29.22-32.33-55.7-45.88-84.94a209.8,209.8,0,0,1-15.6-49.55c-3.44-18.07-5.61-36.35-9.5-54.34a456.72,456.72,0,0,0-14.53-52.14c-2.86-8.32-5.9-16.61-9.36-24.7-2.79-6.52-6.38-12.6-12.42-16.59s-13.46-5.28-20.49-6.21a153.24,153.24,0,0,0-28.41-.85c-19.11,1-38.15,4-57.14,6.23S250.08,23.65,231,25.91c-13.59,1.61-27.91,3.28-39.92,10.36-12.89,7.6-18.86,20.51-20,35A166.23,166.23,0,0,0,170.64,88a2.47,2.47,0,0,0,.09,3.07c.36,10.93,1.31,21.92,1.44,32.73.23,18.91,0,37.92-1.27,56.79a130.46,130.46,0,0,1-14,51c-15.85,31.43-34.93,60.84-47.7,93.82-11.1,28.67-21.47,64.82-7,94.16,12.78,25.85,42.2,36.6,68.32,43.43,7,1.84,14.11,3.74,20.7-.49a58.22,58.22,0,0,0,9.4-7.93c4.18,17.69,9.29,35.13,14.84,52.45,5.63,17.59,11.06,36.13,19.55,52.6,6.48,12.54,18.47,25.83,34.06,23.84,18.22-2.31,17.89-24.73,19.62-38.57.55-4.44.33-10.18,2-14.34,2-5,9.53-3.88,14.06-4a253.26,253.26,0,0,1,31,1.38c2.91.28,6,.23,8.08,2.56,1.46,1.66,2.15,4.07,2.93,6.1A91.8,91.8,0,0,1,351,551c1.73,8.36,1.17,17.39,4.07,25.49,5.54,15.43,26.09,19.75,39.85,12.54,6.89-3.61,10.22-10.66,12.64-17.68a231.33,231.33,0,0,0,7.89-31c9-46,16.91-92.18,25.07-138.3,21.51,4.81,44.58,2.29,61.56-13.14C527.54,365.81,513.83,328.42,501.6,302.13ZM195.81,43c11.78-6.71,26.08-7.87,39.26-9.44,34.33-4.1,68.74-9.12,103.2-11.91a186.4,186.4,0,0,1,25.45-.56c7.69.43,16.25,1.08,23.34,4.39s10.21,9.93,13,16.74c3.09,7.6,5.89,15.32,8.51,23.1q.85,2.53,1.66,5.09a3.31,3.31,0,0,0-.55-.05c-7.84,0-15.68,1.38-23.44,2.75-.73-2.16-1.6-4.26-2.48-6.2-.48-1.05-2.16-.3-1.85.79.55,1.94,1,3.92,1.43,5.92l-3.48.59c-6.45,1-12.9,2.14-19.35,3.19a17.86,17.86,0,0,1-.6-6c.14-1-1.52-1.21-1.76-.24a17.46,17.46,0,0,0,0,6.68l-6.44,1q-3.75.57-7.52,1c-.46-2-1-3.94-1.47-5.79-.26-.92-1.81-.78-1.72.23.17,1.91.32,3.88.49,5.86-6.42.71-12.85,1.19-19.3,1.54-.53-2.1-1.11-4.16-1.62-6.14-.34-1.32-2.27-.75-2,.55.35,1.87.6,3.79.84,5.73-7.29.35-14.6.55-21.92.72-.29-1.82-.56-3.63-.76-5.41a.94.94,0,0,0-1.87,0c-.13,1.74-.21,3.59-.22,5.48l-2.92.07q-8.78.21-17.56.46c-.41-2.3-.88-4.58-1.33-6.77-.2-.94-1.81-.75-1.71.23.24,2.18.41,4.39.57,6.61l-17.86.53c-.24-1.28-.48-2.53-.66-3.72s-2-.82-1.9.26.2,2.35.28,3.53l-18.73.59c-.08-1-.18-2-.32-3.06a.9.9,0,0,0-1.72,0c-.14,1-.24,2.06-.32,3.14q-9.74.31-19.47.66c-.34-2.18-.69-4.33-1-6.43-.15-1.07-1.92-.81-1.88.26.08,2,.12,4.14.17,6.26l-6.78.23c-2,.06-4.07.09-6.14.1-.19-1.92-.38-3.82-.52-5.7-.13-1.68-2.56-1.17-2.27.12-.16,1.8-.26,3.68-.28,5.59-4.17,0-8.38.06-12.5.42l-.66-.06Q179,82.46,179,79C179,64.51,182.39,50.6,195.81,43ZM472.48,394c-27.12,6-53.2-7-74.43-23.22A79,79,0,0,0,400.4,363c.6-2.15,1.16-4.31,1.72-6.47a17.68,17.68,0,0,0,5.32.37c.79-.09,1.3-1.2.44-1.65a19,19,0,0,0-5-1.63c.55-2.25,1.09-4.49,1.58-6.75q1.19-5.37,2.13-10.81a28.25,28.25,0,0,0,6.09.42,1,1,0,0,0,.28-2,28.28,28.28,0,0,0-5.88-1.26q1.49-9.06,2.42-18.21c0-.33.06-.66.1-1a30,30,0,0,0,7.55.88c.91,0,1.41-1.37.49-1.81a31.15,31.15,0,0,0-7.74-2.33c.63-7.16.95-14.35,1-21.54,3.17.53,6.41,1.38,9.63,1.12.9-.07,1.44-1.36.5-1.84a30,30,0,0,0-10.14-2.64c0-1,0-2,0-3.06-.07-5.34.09-11.4-.45-17.26,9.16,13.14,18,26.5,26.37,40.15S453,333,460.55,347c2.85,5.31,10.93.59,8.08-4.72a744.67,744.67,0,0,0-57.44-91.38c-7.75-10.49-16.55-21.36-29.94-22.43-1.69-9.08-7.66-21.53-16.25-19.61-5.45,1.22-7,7.3-6.07,12.1a68,68,0,0,0,3.16,10.2c.11.3.21.59.32.88a65.37,65.37,0,0,0-6.78,3.2c-5.46-6.86-14.87-18-21.14-9.16-2.9,4.08-1.3,9,.54,13.14a39,39,0,0,0,4.29,7.7l-1.41,1.29c-.86.81-1.69,1.64-2.51,2.5-5.51-6-14.31-12-20.65-6.83-3.52,2.89-3.11,7.26-.49,10.56a62.54,62.54,0,0,0,10.65,10.61,43.73,43.73,0,0,0-5.18,19.18c-.38,16.32,10.09,29.73,19.88,41.72a341.53,341.53,0,0,0,35.53,37.33c12.34,11.13,25.5,21.84,40.3,29.55a105,105,0,0,0,16.19,6.77q-3.25,17.92-6.46,35.86a81.89,81.89,0,0,0-10.71-1.25q-8.61-.72-17.19-1.65a28.18,28.18,0,0,0-.63-4.46,1,1,0,0,0-2,0,27.37,27.37,0,0,0-.59,4.1q-8.22-.92-16.39-2.07a11,11,0,0,0-.12-5.85c-.15-.42-.79-.74-1.13-.29a12.24,12.24,0,0,0-2.07,5.65c-4.78-.71-9.55-1.45-14.31-2.25l-4.37-.77a26.6,26.6,0,0,0,.62-5.8,1.06,1.06,0,0,0-2-.53,30.61,30.61,0,0,0-2,5.72q-9.65-1.77-19.23-3.85c.09-1.71.13-3.4.11-5a.85.85,0,0,0-1.66-.23c-.48,1.49-.93,3.05-1.33,4.63q-8.1-1.77-16.16-3.68a25.75,25.75,0,0,0,.7-6.24c0-.76-1.22-1.24-1.57-.43a41.18,41.18,0,0,0-1.89,6q-10.74-2.57-21.45-5.21a1.22,1.22,0,0,0-.65,2.36C296.05,417.2,303,419.73,310,422a34.37,34.37,0,0,0-1.45,6c-.15,1.21,1.66,1.56,2.2.6a23.4,23.4,0,0,0,2.12-5.72q8,2.56,16.14,4.74a49.62,49.62,0,0,0-.57,10.11A.83.83,0,0,0,330,438a48.47,48.47,0,0,0,2.37-9.42c5.9,1.54,11.83,2.94,17.81,4.25a42.47,42.47,0,0,0-1.45,5.42,1.07,1.07,0,0,0,1.94.82,36.15,36.15,0,0,0,2.82-5.53c1.85.39,3.7.78,5.56,1.15,4.63.93,9.27,1.75,13.93,2.52a29.13,29.13,0,0,0-.43,5.53.81.81,0,0,0,1.49.41,25.19,25.19,0,0,0,2-5.42q8.68,1.37,17.41,2.45a19.72,19.72,0,0,0,.1,3.35,1.19,1.19,0,0,0,2.33.31,21.59,21.59,0,0,0,.88-3.29c4.88.57,9.76,1.08,14.66,1.48a82.44,82.44,0,0,0,12.41.59Q417.42,478.82,411,515c-3.35,18.74-5.86,38.39-12.9,56.21-3.53,8.92-9.84,12.06-19.23,11.63-9.68-.44-14.77-5.42-16.28-14.81-1.36-8.37-1.62-16.71-3.88-24.95-1.9-7-4.45-17.48-11-21.56-6.86-4.24-18.1-3.22-25.82-3.38-9.11-.19-18.66-.38-27.7.88-7.34,1-10.75,5.62-11.87,12.65-1.51,9.47-2.09,19.1-3.5,28.59-1.21,8.14-4.33,16.44-14.14,15.44-7.63-.77-14-6.28-18.28-12.29-5-7-8.29-15.23-11.4-23.27q-6-15.46-11.41-31.13c-1.42-4-2.79-8.1-4.14-12.16,4.56.26,9.78-1.22,13.61-2,2-.42,4-.88,6-1.36.95,3,1.72,6.13,3.4,8.74a1.09,1.09,0,0,0,2-.55c.07-3.06-1-6.12-2.16-9,4.64-1.21,9.25-2.56,13.87-3.9a34.6,34.6,0,0,0,3.88,8.73c.54.82,2.1.59,2-.54a44.85,44.85,0,0,0-2.22-9.25,191.3,191.3,0,0,1,21.1-4.87,29.87,29.87,0,0,0,3.09,7.27,1,1,0,0,0,1.82-.5,31.34,31.34,0,0,0-1.19-7.34c6.87-1,14-1.9,18.93-7.27,1.79-2,.07-5.57-2.73-4.68a168.84,168.84,0,0,1-17.93,4.45c-.4-1.8-.84-3.6-1.41-5.35a1.32,1.32,0,0,0-2.58.35c.06,1.79.22,3.73.48,5.71-7.26,1.44-14.55,2.81-21.72,4.84a32,32,0,0,0-1.64-4.24c-.41-.85-1.68-.39-1.7.47a32.85,32.85,0,0,0,.24,4.67c-5.06,1.51-10.09,3.12-15.17,4.58a30,30,0,0,0-3.12-5.19.73.73,0,0,0-1.33.56,44.7,44.7,0,0,0,1.6,5.41c-1.18.33-2.37.66-3.56,1-3.62.91-7.27,1.75-10.95,2.43-1.61.3-3.14.49-4.57.88-4.38-13.47-8.48-27-12.53-40.59,1.36-1.45,2.71-2.88,4.06-4.25,12.56-12.7,24.45-26.05,35.81-39.85,20.49-24.9,43.24-52.45,50.35-84.71A78,78,0,0,0,293,279.6c5.86-5.93,16.21-17.21,7.55-23.19-5.5-3.8-12.35,1.23-15.88,7.06a55.55,55.55,0,0,0-4.09-5c1.67-1.7,2.46-3.94,3.44-6.27a46.78,46.78,0,0,0,3.09-9.06c.69-3.62,0-8.5-4.21-9.59s-9,3-11.19,6.27a19.89,19.89,0,0,0-3.33,8.77,44.66,44.66,0,0,0-4.43-2.22c1.54-6.43,2.22-21-6.44-21.42-7.39-.37-12.86,11.72-13.13,18.35a24.24,24.24,0,0,0-9,3.21c-5.58,3.39-9.67,8.74-13.08,14.21-4.69,7.51-8.85,15.39-13.23,23.1-9.14,16.1-18.43,32.11-27.5,48.26-1.89,3.35,3.22,6.34,5.15,3,8.62-14.82,17-29.76,25.57-44.62,4.23-7.35,8.43-14.72,12.69-22,3.28-5.66,6.85-11.88,12.41-15.6,11.59-7.73,27.28.07,36,8.79,8.44,8.45,13.5,19.94,15.42,31.64,4.87,29.5-12.69,57.2-29.31,79.91a616.82,616.82,0,0,1-62.91,72.56c-2.62,2.6-5.18,5.35-8,7.74-3.82,3.25-7.22,3.11-11.87,2-6.28-1.49-12.52-3.18-18.66-5.14-12.28-3.91-24.68-9.07-34.62-17.48-24-20.28-22.07-52.28-14.62-80,8.43-31.35,23.61-60.26,39.42-88.43,2.53-4.5,5.11-9,7.65-13.5,2.77,2.13,6.24,3.47,9.39,4.81.53.23,1.07.43,1.6.64a27.87,27.87,0,0,0-1.32,8.82.87.87,0,0,0,1.7.23c.89-2.64,1.66-5.28,2.58-7.89a106.92,106.92,0,0,0,11,3.42c.53.14,1.06.25,1.6.37-.34,1.09-.66,2.16-.94,3.18-.19.7.67,1.5,1.32,1a8.27,8.27,0,0,0,2.6-3.53q5.05,1,10.2,1.61c4.51.51,10,1.39,14-1.1a1.74,1.74,0,0,0,0-3c-3.46-2.23-8.15-2-12.15-2.44q-4.76-.56-9.45-1.41a53.22,53.22,0,0,0,2.52-6.17,1,1,0,0,0-1.57-.92,23.78,23.78,0,0,0-4.18,6.46c-1.05-.22-2.09-.45-3.13-.7-3.16-.76-6.29-1.66-9.39-2.66a47.69,47.69,0,0,0,3.17-7.43c.28-1-1.09-1.89-1.78-1a38.67,38.67,0,0,0-4.56,7.4l-1.85-.64c-3-1.08-5.89-2.56-8.94-3.43a236.5,236.5,0,0,0,11.25-22.67c6.1-14.51,8.79-29.51,9.77-45.16,1.05-16.89,1.33-33.85,1.23-50.76-.08-11.84-.79-23.67-1.2-35.5,4.39.22,8.88,0,13.31-.13a34.52,34.52,0,0,0,1.71,7.51,1,1,0,0,0,1.88-.25c0-2.44-.08-4.91-.26-7.4,1.87-.07,3.72-.13,5.54-.15l7.09-.09a48.6,48.6,0,0,0,1.27,8.46,1.15,1.15,0,0,0,2.24-.3,48.07,48.07,0,0,0-.22-8.2l18.63-.23a25.74,25.74,0,0,0,1.2,5.83,1.12,1.12,0,0,0,2.19-.29,33.87,33.87,0,0,0-.4-5.58l18.44-.28a20.67,20.67,0,0,0,.81,5.85.94.94,0,0,0,1.79,0,19.07,19.07,0,0,0,.39-5.89q8.71-.14,17.43-.29c.23,2.09.52,4.17.94,6.2.23,1.13,1.83.78,1.91-.26a42.83,42.83,0,0,0,0-6q8.78-.15,17.57-.35l2.44-.05a28.86,28.86,0,0,0,2,7.17c.44,1,1.9.43,1.91-.52a53.1,53.1,0,0,0-.46-6.73c7.31-.17,14.61-.37,21.9-.72a36.5,36.5,0,0,0,1.2,4.57,1,1,0,0,0,2-.26,24.63,24.63,0,0,0,0-4.46c6.25-.34,12.49-.83,18.73-1.52a49.31,49.31,0,0,0,1.49,6.77,1,1,0,0,0,1.93-.26,37.34,37.34,0,0,0-.22-6.9c1.45-.18,2.9-.35,4.34-.56q4.65-.66,9.28-1.4a24.36,24.36,0,0,0,.94,3.9,1.1,1.1,0,0,0,2.14-.29A25.21,25.21,0,0,0,362,85.3c6-1,12-2,17.95-3q2.56-.43,5.18-.82c.26,1,.54,2,.85,2.92a1.1,1.1,0,0,0,2.14-.29,22.59,22.59,0,0,0-.09-3.07c7.59-1.15,15.22-2.36,22.43-4.81a3.28,3.28,0,0,0,1.31-.85c8.49,28.16,13.23,56.82,18.12,85.9.23,1.4.48,2.8.73,4.19-4.43,1-8.83,2.76-13.13,4.14a27.78,27.78,0,0,0-3.47-7.26,1,1,0,0,0-1.85.78,36.82,36.82,0,0,0,2.33,7.44c-5.13,1.62-10.24,3.28-15.36,4.94-1.51.49-3,1-4.56,1.57a12.57,12.57,0,0,0-3.05-4.9.71.71,0,0,0-1.11.85,27.15,27.15,0,0,1,1.8,4.9c-4.5,1.63-9,3.36-13.57,4.91-.73-2-1.5-4.08-2.4-6.07a1,1,0,0,0-1.86.5,36.69,36.69,0,0,0,1.36,6.52,94.26,94.26,0,0,1-9.14,2.45c-1.86.39-1.31,3.08.43,3.18a42.91,42.91,0,0,0,10.29-.83c.07.19.14.37.2.56,1,2.84,2.14,5.6,4.83,7.19a.9.9,0,0,0,1.23-1.23,59.91,59.91,0,0,1-3.11-7.2c4.64-1.11,9.27-2.66,13.74-4.13a26.7,26.7,0,0,0,2.59,5.35,1.08,1.08,0,0,0,2-.82A26.47,26.47,0,0,0,397,182.9c1.29-.42,2.56-.81,3.81-1.18,5.28-1.54,10.55-3.08,15.81-4.66a27,27,0,0,0,1.66,4,1.28,1.28,0,0,0,2.37-.64,21.81,21.81,0,0,0-.89-4.29c4-1.17,8.18-2.19,12.13-3.62a210.42,210.42,0,0,0,9.72,34.66,315.23,315.23,0,0,0,18.47,38.58C479.92,281.63,547.1,377.35,472.48,394ZM387,352.5a79.24,79.24,0,0,0,7.61,2.31c-.44,1.75-.88,3.5-1.35,5.24s-1.13,3.69-1.68,5.56l-1-.79a336.31,336.31,0,0,1-33.67-32.36c-10-11-22.47-23.59-27-38.15-4.26-13.71,1.74-27.25,11.23-37.21a79.89,79.89,0,0,1,14.95-12.29l2.42-1.46a45.44,45.44,0,0,1,17.58-6.14l4.2-.1c10.28.77,17.56,9.8,23.55,18.63-1.27,8.41.23,17.72.15,26.08,0,1.27,0,2.54-.08,3.81-1.28.05-2.49.15-3.6.3a.65.65,0,0,0-.17,1.26c1.22.36,2.46.65,3.71.89-.22,7.12-.7,14.23-1.39,21.32a14.07,14.07,0,0,0-6.55.24.72.72,0,0,0,.19,1.4,38.86,38.86,0,0,1,6.1,1.1l-.09.92c-.69,6.44-1.63,12.85-2.76,19.22a24.27,24.27,0,0,0-4.51-.06.78.78,0,0,0-.21,1.52,24.72,24.72,0,0,0,4.25,1.16q-.93,5-2,10c-.52,2.46-1.09,4.91-1.68,7.36-2.59-.51-5.18-1-7.8-1.36A.86.86,0,0,0,387,352.5ZM327.9,260q-1-1.22-2.16-2.4c-1.13-1.21-2.29-2.41-3.44-3.61s-3.84-2.9-3.14-4.71c1.25-3.23,7.53,2.57,11.6,6.77C329.75,257.33,328.8,258.64,327.9,260Zm11.42-27.29c-.47-3.28,2-2.56,4-1.08,1.24.9,2.22,2.62,3.19,3.78s2,2.37,3,3.56c-1.87,1.26-3.7,2.57-5.44,3.94C342.16,239.65,339.85,236.48,339.32,232.71Zm27.08-15.24q1.32-2.17,2.19.21a27.88,27.88,0,0,1,1.35,2.46,41.6,41.6,0,0,1,2.12,4.78,31.85,31.85,0,0,1,1.12,4,46.64,46.64,0,0,0-5.3,1.21C366.68,225.18,363.44,219.48,366.4,217.47Zm-76.21,55.4q-1.21-2.53-2.65-4.95c3.32-3.93,8.32-9.07,10-5.78,1.23,2.34-3.68,6.49-5,8ZM278.7,248.29c-.78,2-1.94,3.83-2.65,5.81-1.09-.94-2.21-1.85-3.39-2.72-.2-.15-.41-.28-.61-.42a17,17,0,0,1,2-5.43c.94-1.5,4.79-6.58,6.58-5.58C282.14,240.77,279.25,246.94,278.7,248.29Zm-20.44-6.44a19.66,19.66,0,0,1-.57,2.35A36.82,36.82,0,0,0,250.3,243a34.67,34.67,0,0,1,2.48-6.35,23.69,23.69,0,0,1,2.26-3.35c1.06-1.31,1.35-2.1,2.38-.8C259,234.5,258.62,239.49,258.26,241.85Z"/><path class="cls-3" d="M188.53,406.34A112.74,112.74,0,0,1,200.41,387a25.68,25.68,0,0,0,4.52,2.45c1.1.43,1.78-1.12,1.09-1.86a23.32,23.32,0,0,0-3.71-3.09c2.49-3.21,5.09-6.34,7.74-9.45a22.6,22.6,0,0,0,7.14,4,1.22,1.22,0,0,0,1.18-2c-1.78-1.78-4.14-3-6.26-4.42,5-5.79,10.13-11.5,15-17.43,2.14,1.6,4.34,3.35,6.86,4.09,1.06.32,1.56-1,1-1.69-1.53-1.95-3.87-3.3-6-4.63q3.73-4.59,7.36-9.25c2.49,1.95,5,4.08,7.89,5.28.71.3,1.44-.7,1-1.3-1.82-2.56-4.56-4.44-7.14-6.24q4.78-6.21,9.33-12.59c.77-1.08,1.52-2.18,2.28-3.27a13.34,13.34,0,0,0,4.46,2A1,1,0,0,0,255,326a12.79,12.79,0,0,0-3.61-2.94q2.67-3.89,5.28-7.82c3.12-4.72,6.77-9.48,8.22-15a2.5,2.5,0,0,0-4.14-2.41c-4.07,3.58-6.66,8.6-9.6,13.09q-2.87,4.38-5.83,8.69a44.46,44.46,0,0,0-5-2.6c-.87-.36-1.62,1-.92,1.59a41.37,41.37,0,0,0,4.45,3.19c-.83,1.19-1.64,2.39-2.47,3.57q-4.38,6.23-8.89,12.35c-1.82-1.16-3.68-2.25-5.6-3.25-.84-.44-1.91.74-1.08,1.4,1.7,1.32,3.43,2.6,5.16,3.88q-3.68,4.95-7.46,9.81l-4-2.41c-.88-.52-2,.8-1.13,1.46,1.23.95,2.45,1.9,3.67,2.83-.73.93-1.45,1.87-2.2,2.79-3.91,4.84-8.42,9.71-12.89,14.74-1.11-.82-2.22-1.65-3.32-2.49-.87-.68-2,.39-1.24,1.25s1.9,2,2.95,3.05c-2.9,3.31-5.76,6.7-8.37,10.2-2.22-1.45-4.45-2.89-6.8-4.11a1.07,1.07,0,0,0-1,0l-.26.17a.78.78,0,0,0-.35.85c0,.06,0,.11,0,.16a.64.64,0,0,0,.41.46c1.64,1.9,4.25,3.39,6.31,4.82-4.71,6.7-8.43,13.84-9.94,21.69C185,406.8,187.62,408.26,188.53,406.34Z"/></svg>