<svg id="Layer_1" data-name="Layer 1" xmlns="http://www.w3.org/2000/svg" viewBox="0 0 600 600"><defs><style>.cls-1{fill:#be1e2d;}.cls-2{fill:#fff200;}.cls-3{fill:#88e0ff;}.cls-4{fill:#f7941e;}.cls-5{fill:#00aeef;}.cls-6{fill:#f2b879;}.cls-7{fill:#231f20;}</style></defs><title>doodle</title><path class="cls-1" d="M435.68,65.76a57.91,57.91,0,0,1-1,19.15c5.55,4.63,7.65,12.67,6.94,20.3A54.88,54.88,0,0,0,451.54,88a23.56,23.56,0,0,0-2.11-8.76A27.39,27.39,0,0,0,435.68,65.76Z"/><path class="cls-2" d="M126.81,93.22c4.46,2.28,9.36,2.41,14,3.63a52.84,52.84,0,0,1-8.45-16.07c-4-2.84-7.28-8.27-8.85-11.66a34.87,34.87,0,0,1-3.26-12.91c-3.66,9.24-3.45,20.41-1.08,30.14A19.67,19.67,0,0,0,126.81,93.22Z"/><path class="cls-1" d="M155.73,127.88a43.39,43.39,0,0,0,4,5.83,19.24,19.24,0,0,0,11.41,6.79c.43-7.84,1.77-15.74,4.73-22.6a38.26,38.26,0,0,1-12.24-3,19.88,19.88,0,0,1-8.43,8.86,3,3,0,0,1,.59,1.88C155.76,126.37,155.75,127.13,155.73,127.88Z"/><path class="cls-2" d="M154.37,44.68a44,44,0,0,1,14-13.28,68.28,68.28,0,0,0-23.82,4.07,25.94,25.94,0,0,0-6,9,24.49,24.49,0,0,0-1.47,9C141.49,48.56,147.73,45.88,154.37,44.68Z"/><path class="cls-2" d="M161.32,113.82a52.68,52.68,0,0,1-7.08-4.19c-.73,4.38-9.71,6.52-13.38,6.93,3,1.63,6.09,3,9.11,4.58a.82.82,0,0,1,.85.14c.17.16.33.34.49.51a11.77,11.77,0,0,0,2.18-.81A20.59,20.59,0,0,0,161.32,113.82Z"/><path class="cls-1" d="M152.72,108.55a61.62,61.62,0,0,1-9.84-9.18,32.53,32.53,0,0,1-21.38-5.69,48,48,0,0,0,12.92,18.5c.31.27.63.51.94.76a14.72,14.72,0,0,0,3.54.45C142.63,113.42,150.21,111.85,152.72,108.55Z"/><path class="cls-2" d="M329.48,41.77a73.46,73.46,0,0,1,26,13.93,38.65,38.65,0,0,1,1-12.3A23.37,23.37,0,0,1,358.61,38a4.13,4.13,0,0,1-.64-.36c-1.91-1.31-3.83-2.52-5.77-3.67-1.85.23-3.71.52-5.56.91C340.49,36.16,334.09,37.47,329.48,41.77Z"/><path class="cls-1" d="M131.05,74.93a26.46,26.46,0,0,1,3.07-17.54c-1.12-6.17.52-13.38,4-19.12a54.24,54.24,0,0,0-8.83,5.61,27.24,27.24,0,0,0-5.59,5.93c-.35,5.67-.38,10.95,1.86,16.53A26.22,26.22,0,0,0,131.05,74.93Z"/><path class="cls-1" d="M274.27,38.79a34.77,34.77,0,0,1,9.81-15.28c-1.16.12-2.33.25-3.49.39-6.81.8-13.62,1.84-20.35,3.26-6.07,4.83-10.42,10.07-12.38,17.58A150,150,0,0,1,274.27,38.79Z"/><path class="cls-2" d="M286.67,37.49a137.17,137.17,0,0,1,14.5-.28c2.07-5.27,7.11-8.95,12.21-11.54,1.88-1,3.93-1.92,6.08-2.78a150.84,150.84,0,0,0-30,.08,42.8,42.8,0,0,0-12.58,15.47C280.14,38,283.39,37.73,286.67,37.49Z"/><path class="cls-2" d="M180.22,46.08a66.08,66.08,0,0,1,24.54,12.57,23.06,23.06,0,0,1,4.41-14.41c-1.67-1.14-4.6-2.59-6.18-3.45a29.72,29.72,0,0,0-12,1.05A114.79,114.79,0,0,0,180.22,46.08Z"/><path class="cls-1" d="M303.61,37.31a107.93,107.93,0,0,1,23.85,3.84c3-4.8,9.31-6.65,14.57-8.11,1.91-.53,3.89-1,5.91-1.48A77.61,77.61,0,0,0,327,24a45,45,0,0,0-8.87,2.59C312.14,29.1,307.05,32.24,303.61,37.31Z"/><path class="cls-2" d="M245.39,45.57a30.07,30.07,0,0,1,8.06-16.84c-3,.78-6.07,1.65-9,2.64-2.36.77-4.67,1.66-7,2.59-5.8,5-8.47,11.49-9.12,19.17A117.42,117.42,0,0,1,245.39,45.57Z"/><path class="cls-1" d="M207.36,60.9q2,1.82,3.87,3.8a107.93,107.93,0,0,1,15.11-10.46,30.14,30.14,0,0,1,3.74-17c-1,.46-1.91.92-2.86,1.41-4.37,2.23-8.56,5-13.13,6.86a4,4,0,0,1-.77.56,2,2,0,0,1-2.09,0,21.82,21.82,0,0,0-2.66,5.23A27.41,27.41,0,0,0,207.36,60.9Z"/><path class="cls-1" d="M157.31,44.24a59.91,59.91,0,0,1,15.23.26c1.54.22,3.06.51,4.58.83,4.57-3.59,11.53-6,16.81-7.12,1-.21,2-.4,3.09-.52-1.53-.71-3.08-1.37-4.67-1.94a72.67,72.67,0,0,0-17.16-4,27.64,27.64,0,0,0-7.41,3.1A41.52,41.52,0,0,0,157.31,44.24Z"/><path class="cls-1" d="M204.64,228.61a103.23,103.23,0,0,1-15.36-18.07,25.33,25.33,0,0,1-13.56-1.15q3.45,5.84,7.4,11.36,2.55,3.58,5.32,7.05A46.62,46.62,0,0,0,204.64,228.61Z"/><path class="cls-2" d="M187.54,207.88c-1.29-2-2.52-4.13-3.65-6.27a106,106,0,0,1-7.14-16.76c-4.55.52-10.8-2.37-14.47-4.71a150,150,0,0,0,10.47,24A26.1,26.1,0,0,0,187.54,207.88Z"/><path class="cls-1" d="M175.7,181.47A113.92,113.92,0,0,1,172,163.16c-5.12-.36-11.35-5.53-14-8.32-.45-.46-.89-1-1.33-1.46a123.87,123.87,0,0,0,4.08,21.48c.33.31.64.63,1,.92a26,26,0,0,0,9.31,5C171.92,181,174,181.18,175.7,181.47Z"/><path class="cls-1" d="M237,258.34a39.23,39.23,0,0,0,9.2-2.77,35.94,35.94,0,0,0,3.68-1.83l-.09,0a173.65,173.65,0,0,1-20.93-8.52,34,34,0,0,1-7.89,2.66,45.33,45.33,0,0,1-12.84-.2,92.63,92.63,0,0,0,8.47,5.95,102.22,102.22,0,0,0,9.36,5.11A43.24,43.24,0,0,0,237,258.34Z"/><path class="cls-2" d="M226.06,243.78a100.82,100.82,0,0,1-15.67-10.16c-.94-.75-1.86-1.55-2.77-2.34-3.82,1.21-8.46,1.17-11.84,1-1.28,0-2.57-.17-3.87-.32a124.6,124.6,0,0,0,10.92,11.24,48,48,0,0,0,9.06,1.73C215.69,245.3,221.55,245.43,226.06,243.78Z"/><path class="cls-3" d="M270.69,288.91c5.39-.64,13.71-.59,18.16,3.27.09-1.86.23-3.71.42-5.51a17.37,17.37,0,0,1,1.35-5.61A167.1,167.1,0,0,1,246,276.33c-3-.75-5.89-1.62-8.78-2.58-.36,5.15-1.76,9.93-1.47,15.24a153,153,0,0,0,1.9,17.49c2,11.53,6.07,21.41,13.48,30.48a1.63,1.63,0,0,1,.28.49,82.16,82.16,0,0,0,9.76-5.49c9.89-6.3,18.59-14.23,27.25-22.09a4.5,4.5,0,0,1,1.57-.95,29.7,29.7,0,0,1-.67-3.38c-.09-.64-.16-1.29-.23-1.94-.2,2.63-6.78,4.71-8.06,5.24-4.82,2-10.32,5.76-15.67,5a2.23,2.23,0,0,1-1.55-2.74c2-4.81,7.66-6.9,12.27-8.56,3.55-1.27,9.8-3.87,12.59-.2a2.15,2.15,0,0,1,.36.73c-.21-2.24-.3-4.53-.29-6.81-4.54,1.78-10.11-.35-15,0-5.54.37-9.59,3.39-14.73,4.61a2.35,2.35,0,0,1-2.86-2.86C257.93,292.09,265.18,289.55,270.69,288.91Z"/><path class="cls-2" d="M233,261.85A121.14,121.14,0,0,0,245.23,266a45.17,45.17,0,0,0,13.4-1.63,35.37,35.37,0,0,0,8.43-3.87c.31-.19,1-.6,1.75-1.11-5.31-1.33-10.58-2.88-15.8-4.59-2.9,2.54-8.13,4.44-10,5.05A44.25,44.25,0,0,1,233,261.85Z"/><path class="cls-1" d="M358.31,58.29c.94.9,1.87,1.83,2.76,2.81a49,49,0,0,1,3.58-5.33A43.26,43.26,0,0,1,377.5,44.46c-.86-6.43,1.54-13.78,5.7-19.78-.48.19-1,.37-1.43.58-7,3-11.36,7.76-16.75,12.91a3.16,3.16,0,0,1-3.08.68C358.41,44.48,357.44,51.43,358.31,58.29Z"/><path class="cls-3" d="M306.76,314.16c3.07.35,7.64.94,10.41-.73,5.87-3.51,3.75-17.05,3.19-22.51a94.25,94.25,0,0,0-1.92-12.25c-6.46.95-13,1.65-19.5,2.05a2.75,2.75,0,0,1-.74,1.38c-1.74,1.79-.69,10.58-.68,12.83,0,3.83-.11,8,.94,11.72C299.71,311.06,302.16,313.63,306.76,314.16Z"/><path class="cls-2" d="M380.2,243.19a27,27,0,0,0,1.74-7.72,135.35,135.35,0,0,1-15.3,10.91,27.32,27.32,0,0,1-3.37,11.11c3.52-1.35,7-2.84,10.36-4.52A31.34,31.34,0,0,0,380.2,243.19Z"/><path class="cls-2" d="M301.19,269.33a24.4,24.4,0,0,0,4.45-5,134.91,134.91,0,0,1-17-1.15,18.47,18.47,0,0,1-6.65,8.1c5.41.15,10.86.06,16.31-.26A11,11,0,0,0,301.19,269.33Z"/><path class="cls-1" d="M304.08,270.63c4.71-.41,9.42-1,14.1-1.68a42.17,42.17,0,0,0,6.19-6.08,110.84,110.84,0,0,1-15.49,1.44A25.46,25.46,0,0,1,304.08,270.63Z"/><path class="cls-4" d="M197.82,206.93A92.13,92.13,0,0,0,225,232.31c11.89,7.21,25.42,11.47,38.7,15.36,27.7,8.11,56,10,82.87-2.15,23.14-10.47,46.85-29.68,56.33-53.88a79.68,79.68,0,0,0,4.8-36.54c-1.27-13.47-7-24.68-11.31-37.2a3.57,3.57,0,0,1,.17-2.81c-.85-2.51,0-5.46,3.36-6.15,11.19-2.27,19.64-10.52,23.29-21.23,3.22-9.42,4.1-22.06-1.06-31-6.05-10.5-20.75-10.16-31.06-7.51a37.32,37.32,0,0,0-15.35,8l-.4.37a59.38,59.38,0,0,0-4.27,5.23c-1.95,2.91-3.05,6.12-4.74,9.13-2,3.57-6.39,3.58-8.34.45a5,5,0,0,1-1.32-1.16c-16.92-21-44.34-26-70-24.38-26.89,1.7-52.35,9.16-72.66,27.51-1.67,1.51-4.83,2-6.43,0a57.75,57.75,0,0,0-31.72-20.11C165.44,51.71,149.27,51,142.3,61c-7.56,10.8.81,26.12,8.5,34.34A45.33,45.33,0,0,0,154.72,99a.83.83,0,0,1,.6.27c.43.44.87.87,1.32,1.28a63.74,63.74,0,0,0,12.26,7.15,69.86,69.86,0,0,0,12.27,3.16.88.88,0,0,1,.58.34c2.07.15,4,1.84,3.08,4.19C173.06,144.67,179.94,181.69,197.82,206.93Zm90,37.41c-12.43-2.76-25.44-4.45-37.25-9.37a137.62,137.62,0,0,1-32.12-19.4c-.8-.63.23-1.84,1-1.37,11.44,6.55,22.32,14,34.71,18.7a95.86,95.86,0,0,0,18.64,4.69c5.43.91,11.15,1.67,15.75,4.88A1,1,0,0,1,287.83,244.34ZM242.2,140.16c-3.23,2.14-6.74,3.78-10.12,5.67-3,1.68-5.93,3.95-9.25,5-.94.3-1.4-.86-.88-1.51,2.31-2.88,6-4.69,9.21-6.41a39.13,39.13,0,0,1,10.45-4.15A.77.77,0,0,1,242.2,140.16Zm3.06,22.29c.88-.37,1.26,1,.6,1.43-3.22,2.29-5.23,6.2-7.43,9.4s-4.31,6.43-7.12,9a.9.9,0,0,1-1.4-1.08c2-4.65,5.43-8.79,8.45-12.82C240.32,165.78,242.21,163.72,245.26,162.45Zm97,73.66C332,241,323.62,246,311.75,243.59c-.82-.17-.51-1.26.18-1.34,6.5-.78,12.32-.76,18.37-3.6,3.88-1.83,7.25-3.72,11.67-3.73C342.57,234.92,342.88,235.83,342.29,236.11Zm54.3-83.27c.69,12-1.48,26.7-8.43,36.83a1,1,0,0,1-1.88-.8c2.8-11.65,7.12-22,7-34.29-.14-11.27-3.52-21.76-9-31.54-.45-.8.71-1.78,1.32-1C392.64,130.76,396,141.73,396.59,152.84ZM412.81,86c2.13-2.71,2.42-5.75,3.82-8.74a.83.83,0,0,1,1.42,0c1.65,3.25-.34,7-2.41,9.64-2.84,3.58-7,5.71-10.91,7.84A.77.77,0,0,1,404,93.4C407.17,91.28,410.4,89,412.81,86Zm-33.2-13.78c2.22-5.62,6.28-9.49,11.54-12.35,4.67-2.54,10.6-5.73,15.81-3.36.76.34.33,1.47-.4,1.48-9.49.16-21.12,6.29-25.61,14.79C380.57,73.5,379.31,73,379.61,72.21Zm2.44,133.25c.67-.53,1.95-.07,1.6.93-2.16,6.12-8.38,11.4-13.24,15.42a66.24,66.24,0,0,1-17.57,10.36c-.86.34-1.4-1-.62-1.48a97.59,97.59,0,0,0,16.71-11.57C373.67,215,377.19,209.31,382.05,205.46Zm-15.43-39.59c-7.91-3.73-14.93-10.27-22.14-15.19-.91-.62-.09-2.08.87-1.49,7.47,4.55,16.36,8.76,22.55,15C368.8,165.1,367.66,166.36,366.62,165.87Zm.59-36.54c.39,1-.92,1.39-1.55.9-5.34-4.16-14.58-4.58-21.07-4.8a.94.94,0,0,1,0-1.87,59.64,59.64,0,0,1,15.38.86C363.18,125,366,126.18,367.21,129.33Zm-20.07-25.24c5.14-1.28,11.53-3.47,16.83-2.87.78.09,1.26,1.17.43,1.61-3.57,1.94-8,2.17-12,2.85s-9.16.67-12,3.91c-.53.62-1.57-.2-1.12-.86C341.24,105.85,343.83,104.91,347.14,104.09ZM289.43,57.44a80.75,80.75,0,0,1,29.12.45c7.62,1.49,16.52,4.39,21.42,10.78.63.82-.54,1.67-1.3,1.3-7.31-3.64-13.68-7.48-21.84-9.13-9-1.82-18.19-1.11-27.25-2.3C289,58.46,288.75,57.56,289.43,57.44ZM278.63,137A89.06,89.06,0,0,1,287,148.27a58,58,0,0,1,12.22-22.84c3.26-3.8,11.54-10.67,15.06-3.16,1.73,3.7.86,9,.24,12.84a85.56,85.56,0,0,1-4.68,16.13c-4.2,11.33-7.82,22.4-9.23,34.47a2,2,0,0,1-.14.56.91.91,0,0,1-.48.7h0a1.66,1.66,0,0,1-1.93.29c-3-.31-6.54-3.59-8.6-5a96.22,96.22,0,0,1-12.94-10.9c-7.8-7.81-16.89-18.12-20.21-28.84-1.8-5.83-.36-20.36,9.1-17C270.59,127.37,275.11,133.05,278.63,137ZM221,78.66A76.81,76.81,0,0,1,244,64c8.09-3.26,18-6.35,26.79-5.1,1.08.15.95,1.82,0,2.06-8.41,2.17-16.86,2.69-25.13,5.7a93.5,93.5,0,0,0-23.83,13C221.15,80.21,220.38,79.17,221,78.66Zm-3,40.41c4.06-.15,8.56,1.16,12.52,2a23.33,23.33,0,0,1,10.2,4.44c.5.4,0,1.34-.64,1.09a57,57,0,0,0-11.67-3.33c-3.59-.62-7.69-.72-10.82-2.72A.81.81,0,0,1,218,119.07Zm-24.62,59.34c-4.11-7.25-5.33-16.64-6.11-24.86-.85-8.9-.84-18.51,1.71-27.15a.7.7,0,0,1,1.36.19c-.34,8.4-1.19,16.61-.56,25,.68,9,3.65,17.34,5,26.18C194.93,178.64,193.83,179.24,193.36,178.41ZM205.89,200a.9.9,0,0,1-1.5.87c-3.51-3.7-5.27-9.5-6.63-14.3-.21-.74.92-1.24,1.26-.53C201.23,190.59,204.44,195.17,205.89,200ZM164.56,64.11c6.58-1.59,14.4.9,20.46,3.4,5.57,2.3,13.09,5.76,16.2,11.2.56,1-.52,1.81-1.42,1.42-5.63-2.46-10.24-7.16-16-9.71-6.24-2.76-12.91-3.25-19.23-5.51A.42.42,0,0,1,164.56,64.11Zm-11.84,8.35c-.72,2.39-.44,4.87-.3,7.32,0,.77-1,.78-1.24.17-1.09-2.78-1.77-5.63-.93-8.57.59-2,1.89-4.88,4.2-5.28a.85.85,0,0,1,1,1C155,69.08,153.32,70.48,152.72,72.46Zm2.78,18.88c-.5-.7.45-1.49,1.12-1.12,4.26,2.4,7.89,5.71,12.23,8,5.27,2.78,10.61,3.66,16.41,4.52.53.08.49.92,0,1C174.64,106.23,161.73,100,155.5,91.34Z"/><path class="cls-5" d="M232.39,287.12c-.07-4.67.11-10.15,3.13-13.95-1.73-.6-3.45-1.23-5.15-1.91a8.76,8.76,0,0,0-1.12.53c-2.75,1.63-4.07,4.52-4.82,7.49-1.52,6-.56,13,.13,19.1a151.25,151.25,0,0,0,8.87,35.85c2.39,6.36,7.12,7,13.14,5.11.6-.19,1.19-.39,1.78-.61-8.53-8.35-12.32-20.9-14.11-32.36A139.68,139.68,0,0,1,232.39,287.12Z"/><path class="cls-1" d="M408,117.26a66.19,66.19,0,0,1,12.16,4.42h0a5.33,5.33,0,0,1,3.33-3.78,5.09,5.09,0,0,1,1-.7,33.34,33.34,0,0,0,.24-5.66,23.35,23.35,0,0,0-.94-4.94A38.67,38.67,0,0,1,408,117.26Z"/><path class="cls-6" d="M322.16,427.7C321,392.49,320,357.28,319,322.07a19.28,19.28,0,0,1-6.33,1.19c-4.54.14-9.51-.11-13.63-2.16,2.66,17.22,3.19,34.95,4.4,52.24,1.41,20.28,2.53,40.57,3.69,60.85,2.06,36.37,4,72.75,7.19,109,.77,8.78,1,18,2.9,26.6,1.13,5,6.83,16.31,13.79,11.19,5.16-3.8,1.76-14.53.91-19.53-1.46-8.58-2.66-17.21-3.67-25.86C324,499.81,323.34,463.7,322.16,427.7Zm-7.11-56.37c-2-6.27-1.39-13.57-1.83-20.09-.49-7.31-1-14.61-1.4-21.93,0-.85,1.35-1.05,1.5-.2,1.26,7,2.13,14,2.73,21.08.57,6.76,2,14.48.43,21.14A.75.75,0,0,1,315.05,371.33Zm1.69,18a16.35,16.35,0,0,1-.84-5,19,19,0,0,1-.22-5.32.87.87,0,0,1,1.45-.38c2,2.51,2.76,7.75,1.29,10.67A1,1,0,0,1,316.74,389.34Zm5.6,112.1a.94.94,0,0,1-1.81,0c-1.87-9.11-.92-19.25-1.14-28.54-.25-10.12-.51-20.22-.43-30.35,0-.8,1.1-.74,1.2,0,1.32,10.09,2,20.18,2.4,30.35C322.91,482.12,324.15,492.35,322.34,501.44Z"/><path class="cls-2" d="M340.49,263.43a20,20,0,0,0,4.3-6.2c-1,.4-2.05.78-3.08,1.15a101.71,101.71,0,0,1-13.93,3.85,19.32,19.32,0,0,1-4.27,5.85q7.74-1.36,15.3-3.2A21,21,0,0,0,340.49,263.43Z"/><path class="cls-1" d="M357.9,259.41a19.54,19.54,0,0,0,2.26-2.89,26.86,26.86,0,0,0,3.28-8.23A134.7,134.7,0,0,1,347.82,256a14.21,14.21,0,0,1-3.19,7.38c3.65-1,7.26-2,10.8-3.15C356.26,260,357.08,259.69,357.9,259.41Z"/><path class="cls-1" d="M255,268.36l3.07.59a158,158,0,0,0,18.42,2.13,16,16,0,0,0,4-2.38,19.68,19.68,0,0,0,4.56-6c-4.2-.64-8.38-1.47-12.54-2.42a38.63,38.63,0,0,1-10,5.86A37.39,37.39,0,0,1,255,268.36Z"/><path class="cls-2" d="M427.23,46.31c4.55,4.73,7.09,11,8.18,17.65a.68.68,0,0,1,.28,0,29.37,29.37,0,0,1,17.7,18.1c.07-.27.15-.54.21-.81C456.12,71,457,60,454,50.08a21.07,21.07,0,0,0-5-2.88C442.53,44.52,434.57,45.19,427.23,46.31Z"/><path class="cls-2" d="M420.78,125.62c-1.38-.85-8.95-5.11-13.41-6.53a60.58,60.58,0,0,1,6.23,13.35,29.16,29.16,0,0,1,13,11.54c-.28-6.27-1.45-12.36-4.48-17.47C421.71,126.21,421.26,125.91,420.78,125.62Z"/><path class="cls-2" d="M434,87.9a46.64,46.64,0,0,1-8.07,16.19A22.54,22.54,0,0,1,428,115.67a40,40,0,0,0,9.47-6.25c1.85-7.87,2.05-16.47-3.2-22.58C434.13,87.19,434.05,87.56,434,87.9Z"/><path class="cls-1" d="M404,37.62c7.89,0,15.63,2,21.43,7,8.45-2,17.75-3.23,25.61.21.39.17.78.35,1.16.54a35.25,35.25,0,0,0-6.12-9.29,45.63,45.63,0,0,0-17-11.63,29,29,0,0,0-12.76,3.82A50.43,50.43,0,0,0,404,37.62Z"/><path class="cls-2" d="M382,42.2a56.88,56.88,0,0,1,19.61-4.53c5.05-6.54,12.89-12.77,21.05-15.36a62.94,62.94,0,0,0-18.53-1.86,68.7,68.7,0,0,0-15.39,2.39,30.12,30.12,0,0,0-4.51,5.73c-2.9,4.81-3.88,9.69-4.94,14.92C380.13,43,381,42.59,382,42.2Z"/><path class="cls-1" d="M414.34,134.78A100.23,100.23,0,0,1,418,154.26a36,36,0,0,1,7.35,12.15c0-.4.09-.8.12-1.2.29-3.11.64-6.45.89-9.87a22.55,22.55,0,0,0-2-9.77A24.94,24.94,0,0,0,414.34,134.78Z"/><path class="cls-1" d="M385,232.89a28,28,0,0,1-4,16,80.8,80.8,0,0,0,13.39-10.15c.83-.78,1.63-1.58,2.41-2.38a34.77,34.77,0,0,0,1.71-6.28,42.71,42.71,0,0,0,.19-11.45A116.81,116.81,0,0,1,385,232.89Z"/><path class="cls-2" d="M408.5,204a94.68,94.68,0,0,1-7.6,11.8,38.55,38.55,0,0,1,.77,15.06,91.69,91.69,0,0,0,10-15.22,24.79,24.79,0,0,0,.22-3.13,36.9,36.9,0,0,0-2-11.23C409.45,202.21,409,203.11,408.5,204Z"/><path class="cls-3" d="M390.17,295.1c-.1-12.09-.89-25.68-8.13-35.8a132.58,132.58,0,0,1-30.72,12.45c-7.81,2.12-15.83,4-24,5.45.41,1.85.61,3.84.89,5.63.15.95.29,1.89.43,2.84a46.85,46.85,0,0,1,15.6-2.7c5.86-.09,16.61-.05,19.79,5.78.55,1,.35,2.73-.85,3.24-5.52,2.37-13-1.21-18.94-1.42a79.34,79.34,0,0,0-14.89,1.26q.3,3.32.35,6.63c8.91-.29,19.86,4.51,21.72,13.63A1.68,1.68,0,0,1,349,314c-3.51-2.23-6.51-5.22-10.1-7.38a29.73,29.73,0,0,0-9.25-3.49,31.79,31.79,0,0,1-2.09,10.24c.11.1.21.21.31.32,5.18.61,10.39,2.32,15.31,3.68,6.85,1.88,13.66,3.95,20.49,5.91,6.23,1.79,12.49,3.73,18.81,5.17.82.19,1.61.35,2.39.47.21-.53.44-1.06.68-1.62a43.31,43.31,0,0,0,3.18-10.83A134.68,134.68,0,0,0,390.17,295.1Z"/><path class="cls-5" d="M389.79,260.37a25.35,25.35,0,0,0-4.33-3.09c-.64.4-1.29.77-1.94,1.15,8.51,7.2,9.46,21.22,10,31.5a139.52,139.52,0,0,1-1.07,25.76,49,49,0,0,1-3.54,13.42c3.64-.2,6.68-1.79,8.87-5.9,6-11.36,5.49-25.36,2.5-37.49a100.87,100.87,0,0,0-6.69-18.8C392.56,264.68,391.51,262.18,389.79,260.37Z"/><path class="cls-2" d="M418.32,158.46a89.59,89.59,0,0,1-1.62,22.76,36.13,36.13,0,0,1,4.25,9.9c1.13-4.29,2.07-8.64,2.82-13-.48-7.22-1.83-13.77-5.46-19.77C418.31,158.38,418.32,158.42,418.32,158.46Z"/><path class="cls-1" d="M416.08,184a82.61,82.61,0,0,1-4.84,14.37,25.42,25.42,0,0,1,3.8,10.07c.41-1,.84-1.93,1.22-2.91.95-2.41,1.81-4.85,2.6-7.32a25.94,25.94,0,0,0-.18-5.47A33.72,33.72,0,0,0,416.08,184Z"/><path class="cls-2" d="M165.77,157.2a31.77,31.77,0,0,0,5.86,3.06q-.12-1.19-.21-2.37a138.08,138.08,0,0,1-.39-15.11,16,16,0,0,1-11.23-4.61,57.87,57.87,0,0,1-4.13-4.3c0,4.44.1,8.83.37,13.19a24.5,24.5,0,0,0,2.59,3.79A31.32,31.32,0,0,0,165.77,157.2Z"/><path class="cls-7" d="M215.93,286.54c-.18,17.06,3.69,34.83,9.76,50.71,11.21,29.31,49.71-4,65.54-18.16.08,17.72,2.15,35.55,3.12,53.2q1.62,29.91,3.09,59.81c2,39.52,4.17,79,7.81,118.45,1.28,13.84.84,34.49,16.92,40,6.08,2.08,12.85.83,17-4.24s4.17-12,3.34-18.2c-2.56-19.12-5.61-38-7-57.25-1.4-19.65-2-39.34-2.55-59q-1.81-65.79-3.81-131.59c5.33,2.67,11.31,4.52,16.69,6.36,8.33,2.86,16.75,5.48,25.18,8,7,2.09,14.47,4.8,21.84,3.41,7.22-1.36,11.55-6.83,14.38-13.24,6.41-14.57,5.37-31.08.9-46.05-1.89-6.34-6.42-22.43-14.22-27.32a93.59,93.59,0,0,0,28.22-34.74c7.2-15.19,11.08-31.59,12.91-48.24,1.56-14.19,3.18-30.66-3.45-43.73,26.29-12.56,38.89-46.35,32.8-74.22-6.74-30.8-41-41.62-68.82-37.46-11.22,1.68-26.12,6.61-33.11,16.72h0c-22.22-18.61-54.86-18-81.9-14.51-13,1.66-25.92,4.12-38.27,8.58C233,27.19,221.06,32,214.24,40.08c-18.85-18.81-51.82-21.19-75.41-11.35C125.52,34.29,114,43.37,110.73,58c-3.29,15-1.63,31.2,5.52,44.82a55.15,55.15,0,0,0,15,17.83c4.81,3.73,10.93,7.68,17.23,8.4-5,30,6,62.93,21.41,88.21,8.59,14.09,19.24,27.56,32.23,37.83a110.69,110.69,0,0,0,20.29,12.65h0C217.24,272.62,216,279.78,215.93,286.54Zm30.64,52.8c-6,1.87-10.75,1.25-13.14-5.11a151.25,151.25,0,0,1-8.87-35.85c-.69-6.07-1.65-13.09-.13-19.1.75-3,2.07-5.86,4.82-7.49a8.76,8.76,0,0,1,1.12-.53c1.7.68,3.42,1.31,5.15,1.91-3,3.8-3.2,9.28-3.13,13.95a139.68,139.68,0,0,0,1.85,19.25c1.79,11.46,5.58,24,14.11,32.36C247.76,339,247.17,339.15,246.57,339.34ZM181.75,111.21a.88.88,0,0,0-.58-.34,69.86,69.86,0,0,1-12.27-3.16,63.74,63.74,0,0,1-12.26-7.15c-.45-.41-.89-.84-1.32-1.28a.83.83,0,0,0-.6-.27,45.33,45.33,0,0,1-3.92-3.71c-7.69-8.22-16.06-23.54-8.5-34.34,7-10,23.14-9.25,33.56-6.78a57.75,57.75,0,0,1,31.72,20.11c1.6,2,4.76,1.51,6.43,0,20.31-18.35,45.77-25.81,72.66-27.51,25.64-1.62,53.06,3.37,70,24.38A5,5,0,0,0,358,72.32c1.95,3.13,6.31,3.12,8.34-.45,1.69-3,2.79-6.22,4.74-9.13a59.38,59.38,0,0,1,4.27-5.23l.4-.37a37.32,37.32,0,0,1,15.35-8c10.31-2.65,25-3,31.06,7.51,5.16,9,4.28,21.59,1.06,31-3.65,10.71-12.1,19-23.29,21.23-3.35.69-4.21,3.64-3.36,6.15a3.57,3.57,0,0,0-.17,2.81c4.35,12.52,10,23.73,11.31,37.2a79.68,79.68,0,0,1-4.8,36.54c-9.48,24.2-33.19,43.41-56.33,53.88-26.84,12.14-55.17,10.26-82.87,2.15-13.28-3.89-26.81-8.15-38.7-15.36a92.13,92.13,0,0,1-27.16-25.38c-17.88-25.24-24.76-62.26-13-91.53C185.78,113.05,183.82,111.36,181.75,111.21Zm242.72,6a5.09,5.09,0,0,0-1,.7,5.33,5.33,0,0,0-3.33,3.78h0A66.19,66.19,0,0,0,408,117.26a38.67,38.67,0,0,0,15.79-10.65,23.35,23.35,0,0,1,.94,4.94A33.34,33.34,0,0,1,424.47,117.21Zm-96.69,145a101.71,101.71,0,0,0,13.93-3.85c1-.37,2.05-.75,3.08-1.15a20,20,0,0,1-4.3,6.2,21,21,0,0,1-1.68,1.45q-7.55,1.83-15.3,3.2A19.32,19.32,0,0,0,327.78,262.23Zm-9.6,6.72c-4.68.71-9.39,1.27-14.1,1.68a25.46,25.46,0,0,0,4.8-6.32,110.84,110.84,0,0,0,15.49-1.44A42.17,42.17,0,0,1,318.18,269ZM347.82,256a134.7,134.7,0,0,0,15.62-7.72,26.86,26.86,0,0,1-3.28,8.23,19.54,19.54,0,0,1-2.26,2.89c-.82.28-1.64.57-2.47.83-3.54,1.12-7.15,2.17-10.8,3.15A14.21,14.21,0,0,0,347.82,256Zm18.82-9.63a135.35,135.35,0,0,0,15.3-10.91,27,27,0,0,1-1.74,7.72,31.34,31.34,0,0,1-6.57,9.78c-3.37,1.68-6.84,3.17-10.36,4.52A27.32,27.32,0,0,0,366.64,246.38ZM285,262.7a19.68,19.68,0,0,1-4.56,6,16,16,0,0,1-4,2.38A158,158,0,0,1,258.08,269l-3.07-.59a37.39,37.39,0,0,0,7.45-2.22,38.63,38.63,0,0,0,10-5.86C276.66,261.23,280.84,262.06,285,262.7Zm-16.23-3.31c-.78.51-1.44.92-1.75,1.11a35.37,35.37,0,0,1-8.43,3.87,45.17,45.17,0,0,1-13.4,1.63A121.14,121.14,0,0,1,233,261.85a44.25,44.25,0,0,0,10-2c1.88-.61,7.11-2.51,10-5.05C258.23,256.51,263.5,258.06,268.81,259.39Zm-9.76,41.42c5.14-1.22,9.19-4.24,14.73-4.61,4.84-.31,10.41,1.82,15,0,0,2.28.08,4.57.29,6.81a2.15,2.15,0,0,0-.36-.73c-2.79-3.67-9-1.07-12.59.2-4.61,1.66-10.29,3.75-12.27,8.56a2.23,2.23,0,0,0,1.55,2.74c5.35.78,10.85-3,15.67-5,1.28-.53,7.86-2.61,8.06-5.24.07.65.14,1.3.23,1.94a29.7,29.7,0,0,0,.67,3.38,4.5,4.5,0,0,0-1.57.95c-8.66,7.86-17.36,15.79-27.25,22.09a82.16,82.16,0,0,1-9.76,5.49,1.63,1.63,0,0,0-.28-.49c-7.41-9.07-11.52-18.95-13.48-30.48a153,153,0,0,1-1.9-17.49c-.29-5.31,1.11-10.09,1.47-15.24,2.89,1,5.82,1.83,8.78,2.58a167.1,167.1,0,0,0,44.63,4.73,17.37,17.37,0,0,0-1.35,5.61c-.19,1.8-.33,3.65-.42,5.51-4.45-3.86-12.77-3.91-18.16-3.27s-12.76,3.18-14.5,9A2.35,2.35,0,0,0,259.05,300.81ZM282,271.31a18.47,18.47,0,0,0,6.65-8.1,134.91,134.91,0,0,0,17,1.15,24.4,24.4,0,0,1-4.45,5,11,11,0,0,1-2.91,1.72C292.83,271.37,287.38,271.46,282,271.31Zm15.55,23.62c0-2.25-1.06-11,.68-12.83a2.75,2.75,0,0,0,.74-1.38c6.52-.4,13-1.1,19.5-2.05a94.25,94.25,0,0,1,1.92,12.25c.56,5.46,2.68,19-3.19,22.51-2.77,1.67-7.34,1.08-10.41.73-4.6-.53-7.05-3.1-8.3-7.51C297.41,302.93,297.54,298.76,297.52,294.93Zm34.36,266.55c.85,5,4.25,15.73-.91,19.53-7,5.12-12.66-6.14-13.79-11.19-1.94-8.61-2.13-17.82-2.9-26.6-3.17-36.28-5.13-72.66-7.19-109-1.16-20.28-2.28-40.57-3.69-60.85-1.21-17.29-1.74-35-4.4-52.24,4.12,2,9.09,2.3,13.63,2.16a19.28,19.28,0,0,0,6.33-1.19c1.05,35.21,2.05,70.42,3.2,105.63,1.18,36,1.88,72.11,6,107.92C329.22,544.27,330.42,552.9,331.88,561.48Zm56.87-245a43.31,43.31,0,0,1-3.18,10.83c-.24.56-.47,1.09-.68,1.62-.78-.12-1.57-.28-2.39-.47-6.32-1.44-12.58-3.38-18.81-5.17-6.83-2-13.64-4-20.49-5.91-4.92-1.36-10.13-3.07-15.31-3.68-.1-.11-.2-.22-.31-.32a31.79,31.79,0,0,0,2.09-10.24,29.73,29.73,0,0,1,9.25,3.49c3.59,2.16,6.59,5.15,10.1,7.38a1.68,1.68,0,0,0,2.44-1.87c-1.86-9.12-12.81-13.92-21.72-13.63q0-3.31-.35-6.63a79.34,79.34,0,0,1,14.89-1.26c5.9.21,13.42,3.79,18.94,1.42,1.2-.51,1.4-2.23.85-3.24-3.18-5.83-13.93-5.87-19.79-5.78a46.85,46.85,0,0,0-15.6,2.7c-.14-.95-.28-1.89-.43-2.84-.28-1.79-.48-3.78-.89-5.63,8.13-1.48,16.15-3.33,24-5.45A132.58,132.58,0,0,0,382,259.3c7.24,10.12,8,23.71,8.13,35.8A134.68,134.68,0,0,1,388.75,316.43Zm11.55-30.71c3,12.13,3.54,26.13-2.5,37.49-2.19,4.11-5.23,5.7-8.87,5.9a49,49,0,0,0,3.54-13.42,139.52,139.52,0,0,0,1.07-25.76c-.56-10.28-1.51-24.3-10-31.5.65-.38,1.3-.75,1.94-1.15a25.35,25.35,0,0,1,4.33,3.09c1.72,1.81,2.77,4.31,3.82,6.55A100.87,100.87,0,0,1,400.3,285.72Zm-1.8-55.63a34.77,34.77,0,0,1-1.71,6.28c-.78.8-1.58,1.6-2.41,2.38A80.8,80.8,0,0,1,381,248.9a28,28,0,0,0,4-16,116.81,116.81,0,0,0,13.73-14.25A42.71,42.71,0,0,1,398.5,230.09Zm13.14-14.44a91.69,91.69,0,0,1-10,15.22,38.55,38.55,0,0,0-.77-15.06,94.68,94.68,0,0,0,7.6-11.8c.49-.9.95-1.8,1.4-2.72a36.9,36.9,0,0,1,2,11.23A24.79,24.79,0,0,1,411.64,215.65Zm7.22-17.41c-.79,2.47-1.65,4.91-2.6,7.32-.38,1-.81,1.94-1.22,2.91a25.42,25.42,0,0,0-3.8-10.07A82.61,82.61,0,0,0,416.08,184a33.72,33.72,0,0,1,2.6,8.74A25.94,25.94,0,0,1,418.86,198.24Zm2.09-7.12a36.13,36.13,0,0,0-4.25-9.9,89.59,89.59,0,0,0,1.62-22.76s0-.08,0-.12c3.63,6,5,12.55,5.46,19.77C423,182.48,422.08,186.83,421,191.12Zm4.52-25.91c0,.4-.09.8-.12,1.2A36,36,0,0,0,418,154.26a100.23,100.23,0,0,0-3.66-19.48,24.94,24.94,0,0,1,10,10.79,22.55,22.55,0,0,1,2,9.77C426.11,158.76,425.76,162.1,425.47,165.21ZM413.6,132.44a60.58,60.58,0,0,0-6.23-13.35c4.46,1.42,12,5.68,13.41,6.53.48.29.93.59,1.36.89,3,5.11,4.2,11.2,4.48,17.47A29.16,29.16,0,0,0,413.6,132.44Zm23.82-23a40,40,0,0,1-9.47,6.25,22.54,22.54,0,0,0-2.07-11.58A46.64,46.64,0,0,0,434,87.9c.1-.34.18-.71.27-1.06C439.47,93,439.27,101.55,437.42,109.42Zm4.2-4.21c.71-7.63-1.39-15.67-6.94-20.3a57.91,57.91,0,0,0,1-19.15,27.39,27.39,0,0,1,13.75,13.52A23.56,23.56,0,0,1,451.54,88,54.88,54.88,0,0,1,441.62,105.21ZM454,50.08c3,9.88,2.15,20.91-.37,31.21-.06.27-.14.54-.21.81A29.37,29.37,0,0,0,435.69,64a.68.68,0,0,0-.28,0c-1.09-6.65-3.63-12.92-8.18-17.65,7.34-1.12,15.3-1.79,21.79.89A21.07,21.07,0,0,1,454,50.08Zm-7.9-14a35.25,35.25,0,0,1,6.12,9.29c-.38-.19-.77-.37-1.16-.54-7.86-3.44-17.16-2.16-25.61-.21-5.8-5-13.54-6.93-21.43-7a50.43,50.43,0,0,1,12.33-9.38,29,29,0,0,1,12.76-3.82A45.63,45.63,0,0,1,446.07,36.05ZM388.69,22.84a68.7,68.7,0,0,1,15.39-2.39,62.94,62.94,0,0,1,18.53,1.86c-8.16,2.59-16,8.82-21.05,15.36A56.88,56.88,0,0,0,382,42.2c-.92.39-1.82.83-2.71,1.29,1.06-5.23,2-10.11,4.94-14.92A30.12,30.12,0,0,1,388.69,22.84ZM365,38.17c5.39-5.15,9.72-9.87,16.75-12.91.47-.21,1-.39,1.43-.58-4.16,6-6.56,13.35-5.7,19.78a43.26,43.26,0,0,0-12.85,11.31,49,49,0,0,0-3.58,5.33c-.89-1-1.82-1.91-2.76-2.81-.87-6.86.1-13.81,3.63-19.44A3.16,3.16,0,0,0,365,38.17Zm-7-.55a4.13,4.13,0,0,0,.64.36,23.37,23.37,0,0,0-2.12,5.42,38.65,38.65,0,0,0-1,12.3,73.46,73.46,0,0,0-26-13.93c4.61-4.3,11-5.61,17.16-6.91,1.85-.39,3.71-.68,5.56-.91C354.14,35.1,356.06,36.31,358,37.62Zm-10-6.06c-2,.45-4,.95-5.91,1.48-5.26,1.46-11.54,3.31-14.57,8.11a107.93,107.93,0,0,0-23.85-3.84c3.44-5.07,8.53-8.21,14.5-10.7A45,45,0,0,1,327,24,77.61,77.61,0,0,1,347.94,31.56ZM289.49,23a150.84,150.84,0,0,1,30-.08c-2.15.86-4.2,1.82-6.08,2.78-5.1,2.59-10.14,6.27-12.21,11.54a137.17,137.17,0,0,0-14.5.28c-3.28.24-6.53.55-9.76.95A42.8,42.8,0,0,1,289.49,23Zm-29.25,4.19c6.73-1.42,13.54-2.46,20.35-3.26,1.16-.14,2.33-.27,3.49-.39a34.77,34.77,0,0,0-9.81,15.28,150,150,0,0,0-26.41,6C249.82,37.23,254.17,32,260.24,27.16ZM237.44,34c2.29-.93,4.6-1.82,7-2.59,3-1,6-1.86,9-2.64a30.07,30.07,0,0,0-8.06,16.84,117.42,117.42,0,0,0-17.07,7.56C229,45.45,231.64,39,237.44,34ZM213.32,46.08a4,4,0,0,0,.77-.56c4.57-1.83,8.76-4.63,13.13-6.86.95-.49,1.9-.95,2.86-1.41a30.14,30.14,0,0,0-3.74,17A107.93,107.93,0,0,0,211.23,64.7q-1.86-2-3.87-3.8a27.41,27.41,0,0,1,1.21-9.57,21.82,21.82,0,0,1,2.66-5.23A2,2,0,0,0,213.32,46.08ZM203,40.79c1.58.86,4.51,2.31,6.18,3.45a23.06,23.06,0,0,0-4.41,14.41,66.08,66.08,0,0,0-24.54-12.57A114.79,114.79,0,0,1,191,41.84,29.72,29.72,0,0,1,203,40.79Zm-10.64-5c1.59.57,3.14,1.23,4.67,1.94-1.05.12-2.08.31-3.09.52-5.28,1.14-12.24,3.53-16.81,7.12-1.52-.32-3-.61-4.58-.83a59.91,59.91,0,0,0-15.23-.26,41.52,41.52,0,0,1,10.47-9.37,27.64,27.64,0,0,1,7.41-3.1A72.67,72.67,0,0,1,192.35,35.75Zm-47.81-.28a68.28,68.28,0,0,1,23.82-4.07,44,44,0,0,0-14,13.28c-6.64,1.2-12.88,3.88-17.35,8.79a24.49,24.49,0,0,1,1.47-9A25.94,25.94,0,0,1,144.54,35.47ZM123.69,49.81a27.24,27.24,0,0,1,5.59-5.93,54.24,54.24,0,0,1,8.83-5.61c-3.47,5.74-5.11,12.95-4,19.12a26.46,26.46,0,0,0-3.07,17.54,26.22,26.22,0,0,1-5.5-8.59C123.31,60.76,123.34,55.48,123.69,49.81Zm-3.42,6.4a34.87,34.87,0,0,0,3.26,12.91c1.57,3.39,4.85,8.82,8.85,11.66a52.84,52.84,0,0,0,8.45,16.07c-4.66-1.22-9.56-1.35-14-3.63a19.67,19.67,0,0,1-7.62-6.87C116.82,76.62,116.61,65.45,120.27,56.21Zm15.09,56.73c-.31-.25-.63-.49-.94-.76a48,48,0,0,1-12.92-18.5,32.53,32.53,0,0,0,21.38,5.69,61.62,61.62,0,0,0,9.84,9.18c-2.51,3.3-10.09,4.87-13.82,4.84A14.72,14.72,0,0,1,135.36,112.94Zm15.95,8.85c-.16-.17-.32-.35-.49-.51a.82.82,0,0,0-.85-.14c-3-1.59-6.13-3-9.11-4.58,3.67-.41,12.65-2.55,13.38-6.93a52.68,52.68,0,0,0,7.08,4.19,20.59,20.59,0,0,1-7.83,7.16A11.77,11.77,0,0,1,151.31,121.79Zm12.31-6.92a38.26,38.26,0,0,0,12.24,3c-3,6.86-4.3,14.76-4.73,22.6a19.24,19.24,0,0,1-11.41-6.79,43.39,43.39,0,0,1-4-5.83c0-.75,0-1.51.05-2.27a3,3,0,0,0-.59-1.88A19.88,19.88,0,0,0,163.62,114.87Zm-8,19a57.87,57.87,0,0,0,4.13,4.3A16,16,0,0,0,171,142.78a138.08,138.08,0,0,0,.39,15.11q.09,1.19.21,2.37a31.77,31.77,0,0,1-5.86-3.06,31.32,31.32,0,0,1-7.14-6.35,24.5,24.5,0,0,1-2.59-3.79C155.77,142.7,155.67,138.31,155.67,133.87Zm5,41a123.87,123.87,0,0,1-4.08-21.48c.44.5.88,1,1.33,1.46,2.7,2.79,8.93,8,14,8.32a113.92,113.92,0,0,0,3.75,18.31c-1.73-.29-3.78-.44-4.75-.73a26,26,0,0,1-9.31-5C161.29,175.49,161,175.17,160.65,174.86Zm1.63,5.28c3.67,2.34,9.92,5.23,14.47,4.71a106,106,0,0,0,7.14,16.76c1.13,2.14,2.36,4.22,3.65,6.27a26.1,26.1,0,0,1-14.79-3.7A150,150,0,0,1,162.28,180.14Zm20.84,40.61q-3.94-5.52-7.4-11.36a25.33,25.33,0,0,0,13.56,1.15,103.23,103.23,0,0,0,15.36,18.07,46.62,46.62,0,0,1-16.2-.81Q185.68,224.34,183.12,220.75ZM191.91,232c1.3.15,2.59.27,3.87.32,3.38.13,8,.17,11.84-1,.91.79,1.83,1.59,2.77,2.34a100.82,100.82,0,0,0,15.67,10.16c-4.51,1.65-10.37,1.52-14.17,1.19a48,48,0,0,1-9.06-1.73A124.6,124.6,0,0,1,191.91,232Zm24.64,21.6a92.63,92.63,0,0,1-8.47-5.95,45.33,45.33,0,0,0,12.84.2,34,34,0,0,0,7.89-2.66,173.65,173.65,0,0,0,20.93,8.52l.09,0a35.94,35.94,0,0,1-3.68,1.83,39.23,39.23,0,0,1-9.2,2.77,43.24,43.24,0,0,1-11,.37A102.22,102.22,0,0,1,216.55,253.6Z"/><path class="cls-7" d="M185.26,102.74c-5.8-.86-11.14-1.74-16.41-4.52-4.34-2.29-8-5.6-12.23-8-.67-.37-1.62.42-1.12,1.12,6.23,8.66,19.14,14.89,29.76,12.43C185.75,103.66,185.79,102.82,185.26,102.74Z"/><path class="cls-7" d="M154.45,66.1c-2.31.4-3.61,3.23-4.2,5.28-.84,2.94-.16,5.79.93,8.57.24.61,1.28.6,1.24-.17-.14-2.45-.42-4.93.3-7.32.6-2,2.3-3.38,2.76-5.33A.85.85,0,0,0,154.45,66.1Z"/><path class="cls-7" d="M164.56,64.91c6.32,2.26,13,2.75,19.23,5.51,5.77,2.55,10.38,7.25,16,9.71.9.39,2-.44,1.42-1.42-3.11-5.44-10.63-8.9-16.2-11.2-6.06-2.5-13.88-5-20.46-3.4A.42.42,0,0,0,164.56,64.91Z"/><path class="cls-7" d="M221.79,79.74a93.5,93.5,0,0,1,23.83-13c8.27-3,16.72-3.53,25.13-5.7.95-.24,1.08-1.91,0-2.06-8.81-1.25-18.7,1.84-26.79,5.1a76.81,76.81,0,0,0-23,14.62C220.38,79.17,221.15,80.21,221.79,79.74Z"/><path class="cls-7" d="M289.58,58.54c9.06,1.19,18.24.48,27.25,2.3,8.16,1.65,14.53,5.49,21.84,9.13.76.37,1.93-.48,1.3-1.3-4.9-6.39-13.8-9.29-21.42-10.78a80.75,80.75,0,0,0-29.12-.45C288.75,57.56,289,58.46,289.58,58.54Z"/><path class="cls-7" d="M381,72.77c4.49-8.5,16.12-14.63,25.61-14.79.73,0,1.16-1.14.4-1.48-5.21-2.37-11.14.82-15.81,3.36-5.26,2.86-9.32,6.73-11.54,12.35C379.31,73,380.57,73.5,381,72.77Z"/><path class="cls-7" d="M404.73,94.73c3.93-2.13,8.07-4.26,10.91-7.84,2.07-2.62,4.06-6.39,2.41-9.64a.83.83,0,0,0-1.42,0c-1.4,3-1.69,6-3.82,8.74C410.4,89,407.17,91.28,404,93.4A.77.77,0,0,0,404.73,94.73Z"/><path class="cls-7" d="M384.28,123c5.46,9.78,8.84,20.27,9,31.54.14,12.27-4.18,22.64-7,34.29a1,1,0,0,0,1.88.8c6.95-10.13,9.12-24.78,8.43-36.83-.63-11.11-3.95-22.08-11-30.82C385,121.26,383.83,122.24,384.28,123Z"/><path class="cls-7" d="M190.32,126.59a.7.7,0,0,0-1.36-.19c-2.55,8.64-2.56,18.25-1.71,27.15.78,8.22,2,17.61,6.11,24.86.47.83,1.57.23,1.44-.61-1.39-8.84-4.36-17.13-5-26.18C189.13,143.2,190,135,190.32,126.59Z"/><path class="cls-7" d="M197.76,186.58c1.36,4.8,3.12,10.6,6.63,14.3a.9.9,0,0,0,1.5-.87c-1.45-4.84-4.66-9.42-6.87-14C198.68,185.34,197.55,185.84,197.76,186.58Z"/><path class="cls-7" d="M288.61,242.47c-4.6-3.21-10.32-4-15.75-4.88a95.86,95.86,0,0,1-18.64-4.69c-12.39-4.72-23.27-12.15-34.71-18.7-.82-.47-1.85.74-1,1.37A137.62,137.62,0,0,0,250.58,235c11.81,4.92,24.82,6.61,37.25,9.37A1,1,0,0,0,288.61,242.47Z"/><path class="cls-7" d="M342,234.92c-4.42,0-7.79,1.9-11.67,3.73-6.05,2.84-11.87,2.82-18.37,3.6-.69.08-1,1.17-.18,1.34,11.87,2.4,20.22-2.57,30.54-7.48C342.88,235.83,342.57,234.92,342,234.92Z"/><path class="cls-7" d="M352.84,232.17a66.24,66.24,0,0,0,17.57-10.36c4.86-4,11.08-9.3,13.24-15.42.35-1-.93-1.46-1.6-.93-4.86,3.85-8.38,9.52-13.12,13.66a97.59,97.59,0,0,1-16.71,11.57C351.44,231.12,352,232.51,352.84,232.17Z"/><path class="cls-7" d="M256.31,142.49c3.32,10.72,12.41,21,20.21,28.84a96.22,96.22,0,0,0,12.94,10.9c2.06,1.44,5.57,4.72,8.6,5A1.66,1.66,0,0,0,300,187h0a.91.91,0,0,0,.48-.7,2,2,0,0,0,.14-.56c1.41-12.07,5-23.14,9.23-34.47a85.56,85.56,0,0,0,4.68-16.13c.62-3.88,1.49-9.14-.24-12.84-3.52-7.51-11.8-.64-15.06,3.16A58,58,0,0,0,287,148.27,89.06,89.06,0,0,0,278.63,137c-3.52-4-8-9.67-13.22-11.52C256,122.13,254.51,136.66,256.31,142.49Z"/><path class="cls-7" d="M217.57,120.57c3.13,2,7.23,2.1,10.82,2.72a57,57,0,0,1,11.67,3.33c.6.25,1.14-.69.64-1.09a23.33,23.33,0,0,0-10.2-4.44c-4-.86-8.46-2.17-12.52-2A.81.81,0,0,0,217.57,120.57Z"/><path class="cls-7" d="M241.61,138.75a39.13,39.13,0,0,0-10.45,4.15c-3.22,1.72-6.9,3.53-9.21,6.41-.52.65-.06,1.81.88,1.51,3.32-1,6.22-3.31,9.25-5,3.38-1.89,6.89-3.53,10.12-5.67A.77.77,0,0,0,241.61,138.75Z"/><path class="cls-7" d="M238.36,168.4c-3,4-6.45,8.17-8.45,12.82a.9.9,0,0,0,1.4,1.08c2.81-2.59,5-5.89,7.12-9s4.21-7.11,7.43-9.4c.66-.47.28-1.8-.6-1.43C242.21,163.72,240.32,165.78,238.36,168.4Z"/><path class="cls-7" d="M340.41,109.59c2.83-3.24,8.08-3.23,12-3.91s8.43-.91,12-2.85c.83-.44.35-1.52-.43-1.61-5.3-.6-11.69,1.59-16.83,2.87-3.31.82-5.9,1.76-7.85,4.64C338.84,109.39,339.88,110.21,340.41,109.59Z"/><path class="cls-7" d="M344.59,123.56a.94.94,0,0,0,0,1.87c6.49.22,15.73.64,21.07,4.8.63.49,1.94.07,1.55-.9-1.26-3.15-4-4.32-7.24-4.91A59.64,59.64,0,0,0,344.59,123.56Z"/><path class="cls-7" d="M344.48,150.68c7.21,4.92,14.23,11.46,22.14,15.19,1,.49,2.18-.77,1.28-1.67-6.19-6.25-15.08-10.46-22.55-15C344.39,148.6,343.57,150.06,344.48,150.68Z"/><path class="cls-7" d="M316.48,371.33c1.56-6.66.14-14.38-.43-21.14-.6-7.06-1.47-14.11-2.73-21.08-.15-.85-1.54-.65-1.5.2.36,7.32.91,14.62,1.4,21.93.44,6.52-.15,13.82,1.83,20.09A.75.75,0,0,0,316.48,371.33Z"/><path class="cls-7" d="M317.13,378.67a.87.87,0,0,0-1.45.38,19,19,0,0,0,.22,5.32,16.35,16.35,0,0,0,.84,5,1,1,0,0,0,1.68,0C319.89,386.42,319.17,381.18,317.13,378.67Z"/><path class="cls-7" d="M320.16,442.55c-.1-.74-1.19-.8-1.2,0-.08,10.13.18,20.23.43,30.35.22,9.29-.73,19.43,1.14,28.54a.94.94,0,0,0,1.81,0c1.81-9.09.57-19.32.22-28.54C322.18,462.73,321.48,452.64,320.16,442.55Z"/></svg>