<svg id="Layer_1" data-name="Layer 1" xmlns="http://www.w3.org/2000/svg" viewBox="0 0 600 600"><defs><style>.cls-1{fill:#fff200;}.cls-2{fill:#be1e2d;}.cls-3{fill:#f2b879;}.cls-4{fill:#009444;}.cls-5{fill:#231f20;}</style></defs><title>doodle</title><path class="cls-1" d="M211.42,189.27a110.89,110.89,0,0,1,1.86-26.69c-7.26-1-14.32-2.51-21.75-1.37-8.49,1.29-18.32,5.91-21.19,14.73C163.5,197,199,190.62,211.42,189.27Z"/><path class="cls-1" d="M308.18,73.52c4.07-.32,8.23-.51,12.42-.51-.46-8.6-2.4-35.13-11.08-31.4-5.08,2.19-6.44,13.91-6.45,18.21a61.47,61.47,0,0,0,2,14Z"/><path class="cls-2" d="M251.18,251.67a88.64,88.64,0,0,0,89,19,89.59,89.59,0,0,0,40.41-28.23c12.7-15.8,15.94-33.43,13.94-53.23-1.77-17.5-5.21-35.92-15.41-50.65a72.18,72.18,0,0,0-35.63-26.49c-14.34-4.91-30-5.55-44.45-.66-17.76,6-27,20.06-33.76,36.67-3.85,9.44-7.86,19.45-7.7,29.8.13,8.7,3.25,17.31,6.29,25.36,6.48,17.18,17.82,28.84,37.17,28.54,15.09-.24,31.2-6.78,40.53-19,10.51-13.73,8.8-36.41,1.45-51.33-7.85-16-31.17-24.42-41.07-5-4.41,8.64-2.86,21.4,4.81,27.84,9.89,8.3,23-3.51,13.75-13.72-3.32-3.66,1.78-8.78,5.43-5.43,6.16,5.66,8.57,14.7,4.41,22.33-10.52,19.33-33.74,6.91-39.35-9.13-6.61-18.93,4.78-40.89,25.28-43.7,21-2.89,36.26,15.76,40.64,34.35,4.72,20,2.51,42-13.26,56.55a64.88,64.88,0,0,1-52.28,16.07c-21.41-3.23-32.4-19.55-39.17-38.66-3.92-11.07-6.63-22.18-4.82-34,1.73-11.31,6.4-22.32,11.17-32.67,9.31-20.23,25.13-34,47.4-38,27-4.82,54.51,4.77,73.32,23.52-5.36-11.54-12.41-22.3-22.64-28.7-14.89-9.32-33.75-9.33-50.66-7.76-10,.91-20.55,2-29.65,6.46-8.79,4.28-16.3,11.26-23,18.33a113.32,113.32,0,0,0-26.88,47.33C217.38,190.58,225.79,228,251.18,251.67Zm79.49-51.56c1.08-1.26,2.28-2.42,3.3-3.73s1.52-3.1,2.92-3.81a1.36,1.36,0,0,1,2,.8c.62,1.87-1.06,4-2.22,5.37a9.18,9.18,0,0,1-4.93,3.14A1.07,1.07,0,0,1,330.67,200.11Zm-39.74,9.1c11,5.76,19.58-.31,30.1-2.66a1.53,1.53,0,0,1,1.47,2.53c-8.15,8.95-25.08,9.72-34.89,3.33-10-6.49-19.6-18.55-17.25-30.95.22-1.13,2.16-.86,2,.28C271.1,192.18,282,204.54,290.93,209.21ZM375,228.87c-.83.73-2.53,0-2-1.19,2.87-7.3,6.07-13.64,6.9-21.59a1.15,1.15,0,0,1,2.3,0C383,214,381.22,223.39,375,228.87ZM344.6,132.41a.68.68,0,0,1,0-1.36c13.82-.67,25.07,8.88,32,20.09,6.68,10.74,12,27.47,7,39.79-.44,1.09-2.4,1.5-2.64,0-1.91-11.64-1.29-22.48-6.48-33.47C369,145.66,358.2,133.91,344.6,132.41Zm-99.52,90.64a56.64,56.64,0,0,0,5.16,6.21c1.57,1.7,3.31,3.2,4.08,5.45a1.18,1.18,0,0,1-1.44,1.44c-5.16-1.12-7.95-8-9.61-12.34C242.84,222.69,244.49,222.19,245.08,223.05Zm-6.77-75.13a1,1,0,0,1,2,.55,114.9,114.9,0,0,0-3.24,33.31c.51,11.41,4.11,21.72,5.88,32.84a1.31,1.31,0,0,1-2.39,1c-5.58-9.31-7-21.85-7.45-32.54C232.63,171,234.67,159.4,238.31,147.92Z"/><path class="cls-1" d="M380.93,101.1c5.05-7.57,12.22-13.94,14.75-23,2.73-9.72,1.71-24.42-8.59-29.11-11-5-23.49,2.55-31.26,10.13A43.21,43.21,0,0,0,345.3,75.89a60.28,60.28,0,0,1,20.78,9.61A65.87,65.87,0,0,1,380.93,101.1Z"/><path class="cls-1" d="M218.2,258.81c6.65-2.47,9.43-7.43,12.69-12.76a104,104,0,0,1-15.79-33.49c-8.7,9.37-18,19.53-17.67,33.16C197.75,257,207.94,262.62,218.2,258.81Z"/><path class="cls-1" d="M231.34,119.23a63.22,63.22,0,0,0-20.6-13.14,84.1,84.1,0,0,0-9.75-3.43c-2.84-.76-7.67-2.19-10.21-.09-3.18,2.63-4.06,7.07-3.38,10.93,2.67,15.37,17.14,26.2,31.46,29.8A124.89,124.89,0,0,1,231.34,119.23Z"/><path class="cls-1" d="M248.31,98.61c7.81-7.73,16.66-15,27-19a69.62,69.62,0,0,1,7.93-2.52c-2.74-6-4.6-12.13-9-17.51-5.91-7.18-15.4-15.56-25-10-14.67,8.54-10.69,36.71-1.83,50C247.7,99.24,248,98.92,248.31,98.61Z"/><path class="cls-1" d="M248.83,265.07a57.11,57.11,0,0,0-6.62,19.64c-1.25,8.6-2.63,20.07,4.38,26.65,8.8,8.27,20.85-1.75,26.08-9.33,4.16-6,6-12.91,8.72-19.52a100.06,100.06,0,0,1-30.49-15.8C250.2,266.18,249.52,265.62,248.83,265.07Z"/><path class="cls-1" d="M398,141.5c0,.1,0,.21,0,.31,14.13-2.36,33.23-5.07,35.59-20.62,2.16-14.21-14.63-14.58-24.08-11.91-6.14,1.74-14.83,3.66-19.29,8.79a125.61,125.61,0,0,1,5,13.47A40.48,40.48,0,0,1,398,141.5Z"/><path class="cls-3" d="M319.19,339.09c-7.89-5.39-14.71-12.85-20.62-20.69a120.75,120.75,0,0,1-8.5,12c2.71,17,3.09,34.61,3.63,51.79.58,18.64,1,37.28,1.33,55.93q.95,51.53,1.81,103c.17,10.74-1.79,34.52,10.85,39.87,16.44,7,11-33.37,10.67-40.31C315.49,473.55,315.62,406.23,319.19,339.09Z"/><path class="cls-1" d="M406.75,206.38c14.46.8,40.48,7.19,39.39-13.6-.65-12.31-9.42-16.2-20.4-17.49a112.34,112.34,0,0,0-11.74-.65c-2.17,0-7-.87-9.94,0,.51,3.09,1,6.18,1.37,9.29A135.43,135.43,0,0,1,406.75,206.38Z"/><path class="cls-1" d="M315,287.19c2,12.74,10,31.2,23.16,30.78,15.46-.49,8.66-23.88,6.31-36.16A99.66,99.66,0,0,1,315,287.19Z"/><path class="cls-1" d="M377.67,262.45c4.11,5.57,7,11.61,13.77,15.25,8.28,4.47,22.57,6.25,26.23-5.11,5.1-15.83-6.13-30.17-16.94-40.32C395.52,243.82,387.29,254.08,377.67,262.45Z"/><path class="cls-4" d="M181.92,212.81c5.71-1.92,8.46,5.32,5.34,9.17-11.73,14.48-18.77,35-8.88,52.31,8.42,14.76,29,20.09,41,6.35,3.84-4.4,9.92.41,9,5.24-3.61,18.92-1.1,45.73,20.94,52.28,21.53,6.41,35.33-17.44,43.89-32.94,2.17-3.94,7.45-3.36,9.74,0,9.8,14.34,23,31,42.12,30.74,7.93-.12,15.94-3.28,19.89-10.52,5-9.17,2.54-20.87.65-30.54-1-4.95,3.84-9,8.48-6.52,16.14,8.51,37.35,12.4,52.43-.5,15.68-13.4,9.4-34.53,3.45-51.2-1.6-4.47,3.18-8.13,7.23-7.23,21.31,4.74,30.73-19.79,29.19-36.71-1.49-16.41-9.93-35.06-27-39.85-4.79-1.34-5.74-8.11-1.39-10.62,13-7.49,20.2-24.06,15.27-38.58C448.1,88.3,430.48,79.66,415,83a5.5,5.5,0,0,1-6.12-8c8.42-16.95,1.13-40.3-16.25-48.53-17.68-8.37-39.69,1-47.95,18-2.05,4.24-8.73,3-9.83-1.29-2.82-11-9.63-21.64-21.45-24.09s-24.5,6.61-21,19.54c1.31,4.81-5.21,9.14-8.74,5.08-12-13.81-29.1-29.39-46.48-13.68-13.34,12-21.65,32.7-18,50.59l.44.36c5.24,4.68-2.51,12.41-7.71,7.71-9.95-9-26.92-5.89-34.58,4.67-9.12,12.59-4.23,30.31,6.07,40.48,2.3,2.28,2.08,7-1.1,8.49-17.26,8.2-37.59,20.66-39.12,41.92S162.68,219.3,181.92,212.81Zm-16.87-34.35c2.09-22.08,31.78-25,49.26-20.62.46-1.89.94-3.76,1.5-5.63.63-2.14,1.35-4.27,2.1-6.38-9.65-.57-18.28-5.55-24.81-12.71-6.22-6.84-13-18.07-9.91-27.65,3.52-10.92,14.86-8.75,23.41-6,10.15,3.32,20.09,7.88,27.65,15.53a131.5,131.5,0,0,1,10.68-13c-6.82-6.52-8.73-19-9.46-27.74-.94-11.22.37-21.67,10.31-28.18C256,39.52,266,44,274.09,51.71c6.17,5.87,13.15,15.16,14.43,24.21,4.25-.81,8.57-1.35,12.86-1.78C299,66.76,298,58.81,299.64,51.23c1.16-5.17,4.74-14.25,10.86-15.42,6-1.14,8.73,6,10.37,10.31,3.17,8.36,5.07,17.94,4.42,27A98.17,98.17,0,0,1,341.46,75c4.22-19.43,29.44-38.66,47.86-30.42,11.35,5.08,13.44,18.72,12.21,29.84C400.81,81,398,86.52,394.31,92c-3.12,4.57-6.43,9.59-10.57,13.41a101.29,101.29,0,0,1,5,9.3c4.7-6.54,16.72-9.41,23.29-11,9.37-2.21,21.47-1,25.85,9,9.27,21.18-20.23,32.6-38.83,33.93,1.15,5.32,2.51,11.21,2.72,16.74.66,2.68,1.21,5.38,1.71,8.08.41-.12.85-.24,1.34-.36,7-1.76,16.39-1.14,23.48-.31,11.08,1.3,19.71,5.31,22.11,17,2.17,10.57-1.14,18.92-11.49,22.84-9,3.41-22.47,3.92-32.54.67a64.83,64.83,0,0,1-4.56,18.31c16.19,7.22,29.37,34,18.22,49.58-6,8.4-17.78,8.47-26.58,5.07-9.41-3.63-14.72-10.61-19.76-18.55-2.37,1.88-4.81,3.65-7.29,5.28a98.74,98.74,0,0,1-17.35,9.09c3.85,8.15,4.37,19.59,3.34,27.77-.92,7.25-4.62,13.74-12.38,14.79-16.49,2.22-28.43-19.8-28.37-35.4a101.16,101.16,0,0,1-25.81-3.44c-2.2,11-8.38,22.6-17.05,29.43-6.84,5.39-16.23,8.59-23.82,2.9-9.22-6.92-8.82-19.47-7.5-29.72,1.06-8.24,3-17.34,8.38-23.84a97.14,97.14,0,0,1-11.51-12C227.59,264,206,270.82,196.5,256.8c-10-14.84,3.95-38.71,17.59-48.25a110.69,110.69,0,0,1-2.45-15.92C197.08,198.58,163,200.46,165.05,178.46Z"/><path class="cls-5" d="M211.64,192.63a110.69,110.69,0,0,0,2.45,15.92c-13.64,9.54-27.63,33.41-17.59,48.25,9.48,14,31.09,7.2,37.86-6.21a97.14,97.14,0,0,0,11.51,12c-5.39,6.5-7.32,15.6-8.38,23.84-1.32,10.25-1.72,22.8,7.5,29.72,7.59,5.69,17,2.49,23.82-2.9,8.67-6.83,14.85-18.46,17.05-29.43a101.16,101.16,0,0,0,25.81,3.44c-.06,15.6,11.88,37.62,28.37,35.4,7.76-1,11.46-7.54,12.38-14.79,1-8.18.51-19.62-3.34-27.77A98.74,98.74,0,0,0,366.43,271c2.48-1.63,4.92-3.4,7.29-5.28,5,7.94,10.35,14.92,19.76,18.55,8.8,3.4,20.58,3.33,26.58-5.07,11.15-15.61-2-42.36-18.22-49.58a64.83,64.83,0,0,0,4.56-18.31c10.07,3.25,23.5,2.74,32.54-.67,10.35-3.92,13.66-12.27,11.49-22.84-2.4-11.66-11-15.67-22.11-17-7.09-.83-16.49-1.45-23.48.31-.49.12-.93.24-1.34.36-.5-2.7-1.05-5.4-1.71-8.08-.21-5.53-1.57-11.42-2.72-16.74,18.6-1.33,48.1-12.75,38.83-33.93-4.38-10-16.48-11.25-25.85-9-6.57,1.56-18.59,4.43-23.29,11a101.29,101.29,0,0,0-5-9.3c4.14-3.82,7.45-8.84,10.57-13.41,3.71-5.45,6.5-11,7.22-17.57,1.23-11.12-.86-24.76-12.21-29.84-18.42-8.24-43.64,11-47.86,30.42a98.17,98.17,0,0,0-16.17-1.88c.65-9-1.25-18.62-4.42-27-1.64-4.31-4.41-11.45-10.37-10.31-6.12,1.17-9.7,10.25-10.86,15.42-1.69,7.58-.6,15.53,1.74,22.91-4.29.43-8.61,1-12.86,1.78-1.28-9-8.26-18.34-14.43-24.21C266,44,256,39.52,245.78,46.17c-9.94,6.51-11.25,17-10.31,28.18.73,8.69,2.64,21.22,9.46,27.74a131.5,131.5,0,0,0-10.68,13c-7.56-7.65-17.5-12.21-27.65-15.53-8.55-2.8-19.89-5-23.41,6-3.08,9.58,3.69,20.81,9.91,27.65,6.53,7.16,15.16,12.14,24.81,12.71-.75,2.11-1.47,4.24-2.1,6.38-.56,1.87-1,3.74-1.5,5.63-17.48-4.38-47.17-1.46-49.26,20.62S197.08,198.58,211.64,192.63Zm202.36-18a112.34,112.34,0,0,1,11.74.65c11,1.29,19.75,5.18,20.4,17.49,1.09,20.79-24.93,14.4-39.39,13.6a135.43,135.43,0,0,0-1.32-22.49c-.4-3.11-.86-6.2-1.37-9.29C407,173.77,411.83,174.61,414,174.64ZM272.67,302c-5.23,7.58-17.28,17.6-26.08,9.33-7-6.58-5.63-18.05-4.38-26.65a57.11,57.11,0,0,1,6.62-19.64c.69.55,1.37,1.11,2.07,1.64a100.06,100.06,0,0,0,30.49,15.8C278.66,289.12,276.83,296,272.67,302ZM338.12,318c-13.18.42-21.17-18-23.16-30.78a99.66,99.66,0,0,0,29.47-5.38C346.78,294.09,353.58,317.48,338.12,318Zm62.61-85.7c10.81,10.15,22,24.49,16.94,40.32-3.66,11.36-17.95,9.58-26.23,5.11-6.76-3.64-9.66-9.68-13.77-15.25C387.29,254.08,395.52,243.82,400.73,232.27Zm8.87-123c9.45-2.67,26.24-2.3,24.08,11.91-2.36,15.55-21.46,18.26-35.59,20.62,0-.1,0-.21,0-.31a40.48,40.48,0,0,0-2.77-10,125.61,125.61,0,0,0-5-13.47C394.77,112.94,403.46,111,409.6,109.28ZM355.83,59.15C363.6,51.57,376.12,44,387.09,49c10.3,4.69,11.32,19.39,8.59,29.11-2.53,9-9.7,15.4-14.75,23a65.87,65.87,0,0,0-14.85-15.6,60.28,60.28,0,0,0-20.78-9.61A43.21,43.21,0,0,1,355.83,59.15ZM309.52,41.61c8.68-3.73,10.62,22.8,11.08,31.4-4.19,0-8.35.19-12.42.51l-3.12.27a61.47,61.47,0,0,1-2-14C303.08,55.52,304.44,43.8,309.52,41.61Zm-60.3,8c9.59-5.57,19.08,2.81,25,10,4.42,5.38,6.28,11.51,9,17.51a69.62,69.62,0,0,0-7.93,2.52c-10.33,4-19.18,11.28-27,19-.32.31-.61.63-.92.94C238.53,86.29,234.55,58.12,249.22,49.58Zm4.12,60.64c6.65-7.07,14.16-14,23-18.33,9.1-4.42,19.69-5.55,29.65-6.46,16.91-1.57,35.77-1.56,50.66,7.76,10.23,6.4,17.28,17.16,22.64,28.7-18.81-18.75-46.31-28.34-73.32-23.52-22.27,4-38.09,17.78-47.4,38-4.77,10.35-9.44,21.36-11.17,32.67-1.81,11.79.9,22.9,4.82,34,6.77,19.11,17.76,35.43,39.17,38.66a64.88,64.88,0,0,0,52.28-16.07c15.77-14.53,18-36.53,13.26-56.55-4.38-18.59-19.64-37.24-40.64-34.35-20.5,2.81-31.89,24.77-25.28,43.7,5.61,16,28.83,28.46,39.35,9.13,4.16-7.63,1.75-16.67-4.41-22.33-3.65-3.35-8.75,1.77-5.43,5.43,9.29,10.21-3.86,22-13.75,13.72-7.67-6.44-9.22-19.2-4.81-27.84,9.9-19.42,33.22-11,41.07,5,7.35,14.92,9.06,37.6-1.45,51.33-9.33,12.19-25.44,18.73-40.53,19-19.35.3-30.69-11.36-37.17-28.54-3-8.05-6.16-16.66-6.29-25.36-.16-10.35,3.85-20.36,7.7-29.8,6.77-16.61,16-30.65,33.76-36.67,14.43-4.89,30.11-4.25,44.45.66a72.18,72.18,0,0,1,35.63,26.49c10.2,14.73,13.64,33.15,15.41,50.65,2,19.8-1.24,37.43-13.94,53.23a89.59,89.59,0,0,1-40.41,28.23,88.64,88.64,0,0,1-89-19c-25.39-23.68-33.8-61.09-24.72-94.12A113.32,113.32,0,0,1,253.34,110.22ZM187.4,113.5c-.68-3.86.2-8.3,3.38-10.93,2.54-2.1,7.37-.67,10.21.09a84.1,84.1,0,0,1,9.75,3.43,63.22,63.22,0,0,1,20.6,13.14,124.89,124.89,0,0,0-12.48,24.07C204.54,139.7,190.07,128.87,187.4,113.5Zm27.7,99.06a104,104,0,0,0,15.79,33.49c-3.26,5.33-6,10.29-12.69,12.76-10.26,3.81-20.45-1.86-20.77-13.09C197.05,232.09,206.4,221.93,215.1,212.56Zm-44.76-36.62c2.87-8.82,12.7-13.44,21.19-14.73,7.43-1.14,14.49.34,21.75,1.37a110.89,110.89,0,0,0-1.86,26.69C199,190.62,163.5,197,170.34,175.94Z"/><path class="cls-5" d="M132.5,190.64c2.27,20.64,19.95,34.74,39.29,34.85-10.25,18-13.55,39.94-.63,58,10.32,14.4,30.08,20.19,45.41,12.84-.81,21.3,6,43.6,28,51.63,16.13,5.87,29.45-.76,40.05-11.43-1.47,15.15-1.38,30.56-1.4,45.69,0,19.14.15,38.27.37,57.41.45,38.11-.27,76.46,1.55,114.53.63,13.15,3.37,29.22,15.61,36.74,11.44,7,24.45.1,28.66-11.86,2.83-8,1.76-16.83,1.38-25.15-.45-9.73-.78-19.48-1.07-29.22q-.85-28.5-1-57c-.16-40.8.84-81.59,2.73-122.35a41.14,41.14,0,0,0,19.2,1.7c10.41-1.49,20-7.21,24.79-16.78,4.29-8.52,4.38-17.95,3.2-27.22,18.09,6.75,38.48,7.21,54.42-5.54C451,283.09,449.84,261.4,444,241.57c20.91-1.42,34.48-22.92,34.37-43.83-.12-19.69-8.75-41.57-26-51.81,12.32-11.87,17.61-30.7,11.35-47.12-6.59-17.26-24.25-27.87-42.15-27.49,5.1-20.6-3.74-44.33-23.51-54.1C378.88,7.74,354.71,14.07,341.3,30c-6.37-12.62-17.94-22.41-33.05-22a27.72,27.72,0,0,0-25.93,19.53c-14-12.68-31.65-20.72-49.18-6.91-15.56,12.27-24.94,34.46-23,54.57a35.93,35.93,0,0,0-40.25,10.44c-12,14.67-9.47,35.78,1.17,50.37C150.31,147.05,129.68,165,132.5,190.64ZM307.69,581c-12.64-5.35-10.68-29.13-10.85-39.87q-.81-51.51-1.81-103c-.35-18.65-.75-37.29-1.33-55.93-.54-17.18-.92-34.75-3.63-51.79a120.75,120.75,0,0,0,8.5-12c5.91,7.84,12.73,15.3,20.62,20.69-3.57,67.14-3.7,134.46-.83,201.64C318.65,547.67,324.13,588,307.69,581ZM143.21,184.35c1.53-21.26,21.86-33.72,39.12-41.92,3.18-1.51,3.4-6.21,1.1-8.49-10.3-10.17-15.19-27.89-6.07-40.48C185,82.9,202,79.78,211.94,88.79c5.2,4.7,12.95-3,7.71-7.71l-.44-.36c-3.68-17.89,4.63-38.55,18-50.59,17.38-15.71,34.47-.13,46.48,13.68,3.53,4.06,10-.27,8.74-5.08-3.52-12.93,9.08-22,21-19.54S332,32.32,334.83,43.28c1.1,4.26,7.78,5.53,9.83,1.29,8.26-17.07,30.27-26.4,47.95-18,17.38,8.23,24.67,31.58,16.25,48.53A5.5,5.5,0,0,0,415,83c15.5-3.38,33.12,5.26,38.35,20.65,4.93,14.52-2.27,31.09-15.27,38.58-4.35,2.51-3.4,9.28,1.39,10.62,17.05,4.79,25.49,23.44,27,39.85,1.54,16.92-7.88,41.45-29.19,36.71-4.05-.9-8.83,2.76-7.23,7.23,5.95,16.67,12.23,37.8-3.45,51.2-15.08,12.9-36.29,9-52.43.5-4.64-2.45-9.44,1.57-8.48,6.52,1.89,9.67,4.36,21.37-.65,30.54-3.95,7.24-12,10.4-19.89,10.52-19.14.27-32.32-16.4-42.12-30.74-2.29-3.36-7.57-3.94-9.74,0-8.56,15.5-22.36,39.35-43.89,32.94-22-6.55-24.55-33.36-20.94-52.28.92-4.83-5.16-9.64-9-5.24-12,13.74-32.62,8.41-41-6.35-9.89-17.36-2.85-37.83,8.88-52.31,3.12-3.85.37-11.09-5.34-9.17C162.68,219.3,141.68,205.54,143.21,184.35Z"/><path class="cls-5" d="M240.57,215.62a1.31,1.31,0,0,0,2.39-1c-1.77-11.12-5.37-21.43-5.88-32.84a114.9,114.9,0,0,1,3.24-33.31,1,1,0,0,0-2-.55c-3.64,11.48-5.68,23.08-5.19,35.16C233.55,193.77,235,206.31,240.57,215.62Z"/><path class="cls-5" d="M252.88,236.15a1.18,1.18,0,0,0,1.44-1.44c-.77-2.25-2.51-3.75-4.08-5.45a56.64,56.64,0,0,1-5.16-6.21c-.59-.86-2.24-.36-1.81.76C244.93,228.17,247.72,235,252.88,236.15Z"/><path class="cls-5" d="M272.38,181.74c.14-1.14-1.8-1.41-2-.28-2.35,12.4,7.29,24.46,17.25,30.95,9.81,6.39,26.74,5.62,34.89-3.33a1.53,1.53,0,0,0-1.47-2.53c-10.52,2.35-19.09,8.42-30.1,2.66C282,204.54,271.1,192.18,272.38,181.74Z"/><path class="cls-5" d="M331.7,201.88a9.18,9.18,0,0,0,4.93-3.14c1.16-1.35,2.84-3.5,2.22-5.37a1.36,1.36,0,0,0-2-.8c-1.4.71-2,2.61-2.92,3.81s-2.22,2.47-3.3,3.73A1.07,1.07,0,0,0,331.7,201.88Z"/><path class="cls-5" d="M374.52,157.46c5.19,11,4.57,21.83,6.48,33.47.24,1.5,2.2,1.09,2.64,0,5-12.32-.32-29.05-7-39.79-7-11.21-18.22-20.76-32-20.09a.68.68,0,0,0,0,1.36C358.2,133.91,369,145.66,374.52,157.46Z"/><path class="cls-5" d="M379.87,206.09c-.83,7.95-4,14.29-6.9,21.59-.48,1.23,1.22,1.92,2,1.19,6.2-5.48,8-14.87,7.15-22.78A1.15,1.15,0,0,0,379.87,206.09Z"/></svg>