<svg id="Layer_1" data-name="Layer 1" xmlns="http://www.w3.org/2000/svg" viewBox="0 0 600 600"><defs><style>.cls-1{fill:#8dc63f;}.cls-2{fill:#009444;}.cls-3{fill:#fff;}.cls-4{fill:#231f20;}</style></defs><title>doodle</title><path class="cls-1" d="M186.68,307.26c16.87-13.28,37-20.72,58.11-24.08l2.63-49.62a43.93,43.93,0,0,1-5.16,3.09c-13.17,6.61-28.69,9-43.09,11.28-26.35,4.23-53.81,5.83-78.29,17.42-22.18,10.51-39.1,27.46-43.15,52.33-.93,5.75-3.47,15.66-.1,20.94,2.73,4.28,8.89,4.45,13.27,3.11,6.35-1.93,11.08-7.29,15.57-11.88a100.21,100.21,0,0,1,11.85-10.61c18.15-13.46,46-20.42,67.74-12.27A5.88,5.88,0,0,1,186.68,307.26Z"/><path class="cls-2" d="M358.49,278.86c-19.3,11-42,12.14-63.71,11.84-20.32-.29-40.63-1.34-60.49,3.81-16.26,4.21-32,11.61-44.87,22.56-11.68,10-24.45,25.42-26.07,41.36-2.33,22.92,37.62,2.09,46.94-.54,20-5.64,37.18,3.8,54.73,12.33,19.06,9.24,39.78,16.47,61.08,17.59,18.44,1,36.56-3,52.11-13.14A68.6,68.6,0,0,0,396.5,357.5c4.74-6.64,7.5-14.29,11.23-21.47,1.63-3.12,6.15-1.45,6.29,1.7.86,19.23-16.86,37-32,46.44-18.33,11.44-40.2,15.27-61.53,13.05-21.78-2.27-42.47-9.87-62-19.64-4.92-2.46-9.92-5.19-15.08-7.47,1.18,9.24.81,18.91,1.11,28.07.4,11.89.66,23.79,1,35.68q.79,31.5,1.6,63,.39,15.74.8,31.48c.24,9.55.15,19.29,2.22,28.66,1.83,8.22,5.31,16.48,12.9,20.93,8.28,4.86,14.67,0,17.72-8.12,7-18.51,8.05-38.95,8.5-58.49-5.3-1.25-10.47-3.08-14.44-6.23-1-.76,0-2,.89-2.14,4.71-.62,9.33.52,14,1.19s9.53,1.28,14.31,1.73a226.37,226.37,0,0,0,26.93,1,196.82,196.82,0,0,0,27.52-2.69c4.75-.8,9.47-1.79,14.14-2.94,4.27-1.06,8.11-2.58,12.51-1.87,2.84.45,3.64,4.55,1.68,6.36-3.45,3.18-8.11,3.89-12.58,4.95-1,.24-2,.47-3,.69a3.77,3.77,0,0,1,.16.7c2.24,17.89,4.89,36,11.34,53,2.51,6.57,6.26,14.13,13,17.24,7.56,3.49,16.23-.2,22-5.35,10.63-9.44,14-24.59,15.63-38.12,2.06-17.07,2.52-34.44,3.42-51.6q5.36-102.32,2.87-204.83c-.79-33.47-1.58-67.13-4.65-100.48-2.78-30.22-8.72-60.81-23.76-87.52A123.18,123.18,0,0,0,385.36,62c-10.73-9.4-24.4-17.91-39.12-17.85-28.27.1-50.34,29.62-63.16,51.58-16.05,27.5-21.67,57.34-23.46,88.79q-.84,15-1.64,30a12.85,12.85,0,0,1-.37,6.92q-1.61,30.25-3.17,60.53a196.34,196.34,0,0,1,22.75-.93c22.51.35,45.81,2.25,67.43-5.44,18-6.41,34.8-22.36,35.86-42.47.21-4,6.19-4.06,6.29,0C387.27,252.72,375.18,269.39,358.49,278.86Zm-84.76-85.52c-5,0-5-7.77,0-7.77S278.73,193.34,273.73,193.34Zm-3.32-31c-.24-6.32,6.67-13,12.95-10.54a10.12,10.12,0,0,1,5.9,3c4.79,5.06,2.86,13.74-3.07,17C279.49,175.47,270.69,169.73,270.41,162.34Zm59.4,94.17c-5.72,1.65-11-1.59-14-6.21a6.53,6.53,0,0,1-7,2.28c-4.56-1.25-6.44-5.84-7.93-10.1-5.28,8.2-19.81,3.23-17.6-8.14.13-.66,1.1-.46,1.12.15.14,3.8,1.83,7.52,5.45,9.07,4.32,1.85,8.79-1.12,9.74-5.41.34-1.52,2.29-1.19,2.76,0,.83,2,1.44,4.2,2.39,6.2a10,10,0,0,0,2,3.43q3.72,4.5,7.13-1.38a1.53,1.53,0,0,1,2.94-.81c1.56,4.58,5.75,8.83,11,8.07s7.72-6,6.15-10.68a1.49,1.49,0,0,1,2.71-1.14C339.54,247.55,335.9,254.76,329.81,256.51Zm17.3-69c-2.69,5.75-8.05,10.68-14.63,11.1-15.3,1-22.87-18.09-14.7-29.59a1.37,1.37,0,0,1,2.53.69c.38,4.75.12,10,2.29,14.39,2,4,6.49,7.35,11,5.56,10.29-4,4.22-16.51,9.25-23.27,1-1.3,3-2,4.24-.54C351.79,171.14,349.86,181.68,347.11,187.55Zm6,168.59C347.36,358,341.56,355.4,338,351a8.89,8.89,0,0,1-9.92,4.89c-7.2-1.43-10.12-8.82-10.26-15.39,0-1,1.51-1.2,1.7-.23.72,3.66,1.68,7.62,4.49,10.3,3.88,3.7,11.92,3.36,11.79-3.42a1.53,1.53,0,0,1,2.82-.77c5.31,10.44,21.46,8.77,19.79-4.41-.22-1.73,2.54-2,3-.4C363,347.62,359,354.19,353.09,356.14Zm-63.8,126.7c-5.36,7.12-15.68,5-19-2a9.34,9.34,0,0,1-10,3.58c-7.67-1.95-9.18-11.19-6.81-17.7a.81.81,0,0,1,1.58.21c.39,4.43-.92,9.14,2.62,12.64,4.39,4.34,10.36,1.6,11.51-3.56a13.11,13.11,0,0,1,.25-2.59c.34-1.76,2.94-1.23,3,.41a11.15,11.15,0,0,1-.22,2.59c.3,8.2,11.58,10.78,15.55,2.73a1.63,1.63,0,0,1,2.8,0c2.29,4,6.25,6.23,10.83,5.42s7-4.73,8.28-9a1.47,1.47,0,0,1,2.88.39C312.07,488.63,296.47,491.22,289.29,482.84Zm14.22-49.31c-7.67-.38-13-6-15.13-12.87-3.14,3.94-8.5,6-13.48,3.87A11.2,11.2,0,0,1,270,408.47c.47-.75,1.82-.27,1.49.62-1.6,4.28-.77,9.82,3.47,12.33,4.79,2.83,10.86-.38,12.52-5.29.44-1.3,2.67-1.6,2.94,0,1,6.07,4.11,11.76,10.36,13.68,6.95,2.15,13.72-3,12.89-10.28-.19-1.66,2.4-2.27,3.13-.84,2.73,5.4,10.12,6.78,13.91,1.55,2.53-3.48,2.52-8.27,2.29-12.36-.13-2.22,3.32-2.21,3.44,0,.34,6.51-.62,14.9-7.31,18.08a11.48,11.48,0,0,1-12.41-2A12.92,12.92,0,0,1,303.51,433.53Zm40.71,34.13a8.72,8.72,0,0,1-9-5.07,10,10,0,0,1-9.58.89c-5.07-2.19-6.75-7.34-5.19-12.37a.78.78,0,0,1,1.5.41,9,9,0,0,0,3.47,8.78c2.64,1.78,8.16,1.88,9.46-2,.06-.29.12-.58.21-.87a1.43,1.43,0,0,1,2.75.76c-1.22,4.05,2.84,6.59,6.21,6.4a9.65,9.65,0,0,0,4.95-2c1.62-1.12,3.93-4.9,6-5.17a1.06,1.06,0,0,1-1-1.75l.45-.56a1.35,1.35,0,0,1,1.61-.21l.77.4a1.49,1.49,0,0,1,.74,1.3C356.93,461.87,349.26,467.19,344.22,467.66Zm32.39-22.76c-5,8.49-24.16,2.16-20.35-8.62.31-.88,1.77-.8,1.72.23-.48,9.07,16.77,14,16.73,3.63,0-2,2.91-1.94,3.08,0,.55,6.18,8.39,5.82,11.83,2.79,2.59-2.27,3.59-5.49,5.58-8.15a1.24,1.24,0,0,1,2.26,1c-.85,5.64-6.27,12-12.17,12.57A9.91,9.91,0,0,1,376.61,444.9Zm43,21.65c-3.83,2.76-11.85,4.28-16.42,1.47-1.34,4.83-4.09,9.56-9.07,11.19a10.8,10.8,0,0,1-12.93-5.29c-.41-.82.64-1.73,1.31-1,3.45,3.7,8.3,5.35,12.78,2.27,3.48-2.4,4.81-6.53,5.52-10.5.25-1.38,2.17-1.39,2.82-.37,3.21,5,14.42.73,16.6-3,3.07-5.26.56-10.87-.18-16.31-.18-1.34,1.74-2.52,2.42-1C425.67,451,426.68,461.48,419.65,466.55Zm3.46-93.32a1.09,1.09,0,0,1,2-.55c2.77,4.8,3.14,13.5.95,18.65-1.84,4.36-5.49,5.1-9.43,4.43a12,12,0,0,1-4.95,11.55c-4.66,3.29-10.56,2.75-15.44.36-1.46,6-6.67,10.67-13.36,9.75-3-.41-11.48-5.1-6.41-8.39.65-.42,1.58.44,1.1,1.1-2.92,4,8.29,4.39,9.46,4,4.06-1.26,6.2-4.93,6.45-8.94a1.59,1.59,0,0,1,2.37-1.36c3.83,2.39,8.76,3.73,13,1.42A8.86,8.86,0,0,0,412.72,394c-.49-1.18.93-2.35,2-2C427.63,395.8,422.74,380.25,423.11,373.23ZM395.65,148.7a10.54,10.54,0,0,1,.94-1.2A6.75,6.75,0,0,1,400,144c8.28-4.15,17.21,3.5,15.28,12.25a10.76,10.76,0,0,1-19.06,4.25A10,10,0,0,1,395.65,148.7Zm11,27.78.12,0,.59.07c.27,0,.55.06.83.11l.24.1a7.29,7.29,0,0,1,1.63.68,4.07,4.07,0,0,1,2,3.13,4.21,4.21,0,0,1-1.18,3.59c-.23.23-.48.46-.73.67a6,6,0,0,1-4,1.53,4.92,4.92,0,0,1-4.82-4.26,5.05,5.05,0,0,1,.58-3.14,5.27,5.27,0,0,1,2.94-2.26,4,4,0,0,1,1.91-.22Zm-21.54,43.18c-5.06.73-9.9-1.79-11.54-6.66-.33-1,1.12-1.53,1.61-.68A9,9,0,0,0,386.67,216c4.44-1.9,6.53-6.39,7.5-10.83a1.59,1.59,0,0,1,2.88-.37c4.9,10.38,20.1,5.56,17.58-5.75-.46-2.08,2.74-3,3.19-.88,2.92,13.59-13.82,20.85-21.62,11.2C394.31,214.38,390.7,218.84,385.12,219.66ZM375.69,304c1.45,1.88,3.58,4.63,6.07,5.27,3.46.89,6.81-1.36,8.66-4.1,2.2-3.28,2.74-7.44,3.34-11.25a1.5,1.5,0,0,1,2.48-.66c2.67,2.57,5.7,5.51,9.83,4.5,3.68-.89,6-4.52,6.86-7.91,1.32-5,0-10.26,0-15.36a1.31,1.31,0,0,1,2.57-.35c1.65,7.44,2.37,17.49-3.47,23.38-5.18,5.22-10.93,3.51-15.8-.35-1,5.68-2.88,11.51-8.45,14.23-5,2.43-9,.34-12.32-3.05-1.32,4.89-5.41,9-10.79,9.22-6.55.31-11.77-5.18-11.91-11.49a.85.85,0,0,1,1.67-.23c1,4.72,4.56,8.62,9.55,8.61,5.39,0,9-4.55,8.88-9.69C372.82,303.1,374.83,302.88,375.69,304Z"/><path class="cls-3" d="M403.54,156.2c2,.75,4.3-1.78,2.87-3.63-1-1.3-2.76-.87-4.48-.41a3.51,3.51,0,0,0-.38,1A2.76,2.76,0,0,0,403.54,156.2Z"/><path class="cls-1" d="M370.45,40.28c.95.45,1.88.92,2.81,1.4,0-.08,0-.16,0-.25,1.65-8.69-3.24-19.18-12.09-21.87-9.3-2.83-19.7,5.58-19.38,15.15A55.76,55.76,0,0,1,370.45,40.28Z"/><path class="cls-3" d="M278.89,162.16a3.54,3.54,0,0,1-.53.5c.66,1.42,2.44,2.51,3.84,1.66,1-.6,1.81-2.58.86-3.55C281.57,159.24,279.76,161.16,278.89,162.16Z"/><path class="cls-1" d="M448.16,253.67c7.9-1,15-8.32,13.77-16.69-1-7.12-7.95-12.24-14.89-12.51Q447.7,239.07,448.16,253.67Z"/><path class="cls-1" d="M449.39,317.93q0,5.49,0,11c15.38-3.56,28.76-17.33,29.29-33.48.56-16.82-13.68-32.1-30.29-32.87Q449.21,290.24,449.39,317.93Z"/><path class="cls-1" d="M424.76,99.73c7.34-17,10.62-37-.53-53.16-5.19-7.52-13.22-12.72-22.48-13-8.48-.21-16.79,3.45-21.2,10.88a4,4,0,0,1-.76.94C399.78,58.09,414.74,78.46,424.76,99.73Z"/><path class="cls-1" d="M449.28,362.81a15.24,15.24,0,0,0,.14-20Q449.39,352.79,449.28,362.81Z"/><path class="cls-1" d="M436.86,134.16c7.67-2.5,14.45-11.22,10.64-19.37-3.09-6.59-12.59-8.93-18.25-4.58A195.3,195.3,0,0,1,436.86,134.16Z"/><path class="cls-1" d="M438.81,142.51c4.4,20.71,6.16,42.05,7.31,63.13.13,2.49.25,5,.38,7.47,6.83-3.28,14.32-5.29,20-10.61a37.1,37.1,0,0,0,11.68-26.19C478.52,155.89,458.63,139.87,438.81,142.51Z"/><path class="cls-4" d="M248,222.87c-5.35,5.31-12.73,8.25-20.62,10.37-14.71,3.94-29.85,5.74-44.92,7.73-26,3.45-52.27,7.31-75.26,20.87A87.89,87.89,0,0,0,81.6,284c-7.89,10.4-11.8,22.25-13.54,35.1-1.54,11.28-3.33,25.5,9.35,31,10.72,4.64,21.74-.54,29.77-7.78,5.41-4.89,10-10.59,15.87-15a69.16,69.16,0,0,1,18.74-10c12.34-4.3,24.17-4.46,36.65-2.83-.87.85-1.74,1.7-2.59,2.59A88.46,88.46,0,0,0,161,337.72c-3.78,7.37-7.5,16-6.88,24.44,1.74,23.43,30.58,15.32,44.45,9.73,9-3.63,18.21-7.51,28.12-6.57a45.4,45.4,0,0,1,9.59,2.05c-1.25,10.44-.24,21.45-.1,31.86.17,12.25.48,24.49.75,36.73q.78,36.21,1.57,72.42c.25,11.73.2,23.51.92,35.22.59,9.71,2,19.8,6.47,28.57,7.19,14,27.26,24.4,38.85,9.09,6.43-8.48,8.31-20.87,10.17-31.06A171.41,171.41,0,0,0,298.06,513l3,.49A176.43,176.43,0,0,0,330,515.81a194,194,0,0,0,29.09-2.2c2.16-.32,4.31-.7,6.45-1.1-.51,16.93,2.75,33.88,7.89,50,3.77,11.84,10,25.81,23.48,28.77,13.27,2.91,26-5.75,33.27-16.22,7.45-10.78,10.06-24.2,11.55-37,2-17.19,2.55-34.63,3.48-51.9q1.53-28.18,2.5-56.4,1-27.72,1.42-55.46c14.55-7.66,16.82-26.78,6.87-38,17.39-6,31.34-21.79,31.82-40.89.41-16.72-10.83-32.34-25.9-38.67,6-5,9.64-12.61,8.53-20.71a23.38,23.38,0,0,0-14.08-18,66.26,66.26,0,0,0,7.94-3.35A41.28,41.28,0,0,0,477,203.94a45,45,0,0,0,9.53-33.18c-2.35-18.9-17.9-32.84-35.75-36.11,5.73-6.57,8.17-15.89,3.84-24.11-4-7.64-13-11.57-21.2-10.56,8-20.56,9.84-44.08-5.6-61.91C416.08,24.5,394.4,21.46,380.77,32.3c-2.11-10-9.29-18.93-20.06-20.56-13.5-2-26.92,10.35-24.84,23.84a50.3,50.3,0,0,0-8.51,2.59c-13.89,5.63-25.29,16.11-34.85,27.41a174.62,174.62,0,0,0-39,84.15C250.58,167.35,250,185.24,249,203ZM118.32,319.24a100.21,100.21,0,0,0-11.85,10.61c-4.49,4.59-9.22,9.95-15.57,11.88-4.38,1.34-10.54,1.17-13.27-3.11-3.37-5.28-.83-15.19.1-20.94,4-24.87,21-41.82,43.15-52.33,24.48-11.59,51.94-13.19,78.29-17.42,14.4-2.32,29.92-4.67,43.09-11.28a43.93,43.93,0,0,0,5.16-3.09l-2.63,49.62c-21.08,3.36-41.24,10.8-58.11,24.08a5.88,5.88,0,0,0-.62-.29C164.29,298.82,136.47,305.78,118.32,319.24Zm331,43.57q.11-10,.14-20A15.24,15.24,0,0,1,449.28,362.81Zm29.44-67.38c-.53,16.15-13.91,29.92-29.29,33.48q0-5.49,0-11-.21-27.69-1-55.37C465,263.33,479.28,278.61,478.72,295.43ZM461.93,237c1.21,8.37-5.87,15.68-13.77,16.69q-.46-14.59-1.12-29.2C454,224.74,460.89,229.86,461.93,237Zm16.28-60.67a37.1,37.1,0,0,1-11.68,26.19c-5.71,5.32-13.2,7.33-20,10.61-.13-2.49-.25-5-.38-7.47-1.15-21.08-2.91-42.42-7.31-63.13C458.63,139.87,478.52,155.89,478.21,176.31ZM447.5,114.79c3.81,8.15-3,16.87-10.64,19.37a195.3,195.3,0,0,0-7.61-24C434.91,105.86,444.41,108.2,447.5,114.79ZM380.55,44.5c4.41-7.43,12.72-11.09,21.2-10.88,9.26.23,17.29,5.43,22.48,13,11.15,16.18,7.87,36.11.53,53.16-10-21.27-25-41.64-45-54.29A4,4,0,0,0,380.55,44.5ZM361.19,19.56c8.85,2.69,13.74,13.18,12.09,21.87,0,.09,0,.17,0,.25-.93-.48-1.86-1-2.81-1.4a55.76,55.76,0,0,0-28.64-5.57C341.49,25.14,351.89,16.73,361.19,19.56Zm25.58,213.53c-.1-4.06-6.08-4-6.29,0-1.06,20.11-17.82,36.06-35.86,42.47-21.62,7.69-44.92,5.79-67.43,5.44a196.34,196.34,0,0,0-22.75.93q1.59-30.27,3.17-60.53a12.85,12.85,0,0,0,.37-6.92q.79-15,1.64-30c1.79-31.45,7.41-61.29,23.46-88.79,12.82-22,34.89-51.48,63.16-51.58C361,44.09,374.63,52.6,385.36,62a123.18,123.18,0,0,1,25.85,32.39c15,26.71,21,57.3,23.76,87.52,3.07,33.35,3.86,67,4.65,100.48q2.42,102.44-2.87,204.83c-.9,17.16-1.36,34.53-3.42,51.6-1.63,13.53-5,28.68-15.63,38.12-5.8,5.15-14.47,8.84-22,5.35-6.73-3.11-10.48-10.67-13-17.24-6.45-16.95-9.1-35.1-11.34-53a3.77,3.77,0,0,0-.16-.7c1-.22,2-.45,3-.69,4.47-1.06,9.13-1.77,12.58-4.95,2-1.81,1.16-5.91-1.68-6.36-4.4-.71-8.24.81-12.51,1.87-4.67,1.15-9.39,2.14-14.14,2.94A196.82,196.82,0,0,1,331,506.86a226.37,226.37,0,0,1-26.93-1c-4.78-.45-9.55-1.05-14.31-1.73s-9.29-1.81-14-1.19c-.93.12-1.85,1.38-.89,2.14,4,3.15,9.14,5,14.44,6.23-.45,19.54-1.51,40-8.5,58.49-3.05,8.09-9.44,13-17.72,8.12-7.59-4.45-11.07-12.71-12.9-20.93-2.07-9.37-2-19.11-2.22-28.66q-.4-15.74-.8-31.48-.81-31.48-1.6-63c-.31-11.89-.57-23.79-1-35.68-.3-9.16.07-18.83-1.11-28.07,5.16,2.28,10.16,5,15.08,7.47,19.48,9.77,40.17,17.37,62,19.64,21.33,2.22,43.2-1.61,61.53-13.05,15.16-9.46,32.88-27.21,32-46.44-.14-3.15-4.66-4.82-6.29-1.7-3.73,7.18-6.49,14.83-11.23,21.47a68.6,68.6,0,0,1-18.29,17.17c-15.55,10.16-33.67,14.11-52.11,13.14-21.3-1.12-42-8.35-61.08-17.59-17.55-8.53-34.7-18-54.73-12.33-9.32,2.63-49.27,23.46-46.94.54,1.62-15.94,14.39-31.39,26.07-41.36,12.84-10.95,28.61-18.35,44.87-22.56,19.86-5.15,40.17-4.1,60.49-3.81,21.67.3,44.41-.88,63.71-11.84C375.18,269.39,387.27,252.72,386.77,233.09Z"/><path class="cls-4" d="M289.26,154.78a10.12,10.12,0,0,0-5.9-3c-6.28-2.42-13.19,4.22-12.95,10.54.28,7.39,9.08,13.13,15.78,9.44C292.12,168.52,294.05,159.84,289.26,154.78Zm-7.06,9.54c-1.4.85-3.18-.24-3.84-1.66a3.54,3.54,0,0,0,.53-.5c.87-1,2.68-2.92,4.17-1.39C284,161.74,283.19,163.72,282.2,164.32Z"/><path class="cls-4" d="M415.23,156.29c1.93-8.75-7-16.4-15.28-12.25a6.75,6.75,0,0,0-3.36,3.46,10.54,10.54,0,0,0-.94,1.2,10,10,0,0,0,.52,11.84A10.76,10.76,0,0,0,415.23,156.29Zm-13.68-3.16a3.51,3.51,0,0,1,.38-1c1.72-.46,3.47-.89,4.48.41,1.43,1.85-.86,4.38-2.87,3.63A2.76,2.76,0,0,1,401.55,153.13Z"/><path class="cls-4" d="M404.86,176.72a5.27,5.27,0,0,0-2.94,2.26,5.05,5.05,0,0,0-.58,3.14,4.92,4.92,0,0,0,4.82,4.26,6,6,0,0,0,4-1.53c.25-.21.5-.44.73-.67a4.21,4.21,0,0,0,1.18-3.59,4.07,4.07,0,0,0-2-3.13,7.29,7.29,0,0,0-1.63-.68l-.24-.1c-.28-.05-.56-.07-.83-.11l-.59-.07-.12,0,.11,0A4,4,0,0,0,404.86,176.72Z"/><path class="cls-4" d="M273.73,185.57c-5,0-5,7.77,0,7.77S278.74,185.57,273.73,185.57Z"/><path class="cls-4" d="M342.87,166.43c-5,6.76,1,19.23-9.25,23.27-4.53,1.79-9-1.56-11-5.56-2.17-4.38-1.91-9.64-2.29-14.39a1.37,1.37,0,0,0-2.53-.69c-8.17,11.5-.6,30.57,14.7,29.59,6.58-.42,11.94-5.35,14.63-11.1s4.68-16.41,0-21.66C345.84,164.47,343.84,165.13,342.87,166.43Z"/><path class="cls-4" d="M334,243c1.57,4.71-.94,9.92-6.15,10.68s-9.42-3.49-11-8.07a1.53,1.53,0,0,0-2.94.81q-3.41,5.88-7.13,1.38a10,10,0,0,1-2-3.43c-.95-2-1.56-4.15-2.39-6.2-.47-1.19-2.42-1.52-2.76,0-.95,4.29-5.42,7.26-9.74,5.41-3.62-1.55-5.31-5.27-5.45-9.07,0-.61-1-.81-1.12-.15-2.21,11.37,12.32,16.34,17.6,8.14,1.49,4.26,3.37,8.85,7.93,10.1a6.53,6.53,0,0,0,7-2.28c3,4.62,8.27,7.86,14,6.21,6.09-1.75,9.73-9,6.89-14.67A1.49,1.49,0,0,0,334,243Z"/><path class="cls-4" d="M364,314.45c-5,0-8.59-3.89-9.55-8.61a.85.85,0,0,0-1.67.23c.14,6.31,5.36,11.8,11.91,11.49,5.38-.25,9.47-4.33,10.79-9.22,3.29,3.39,7.33,5.48,12.32,3.05,5.57-2.72,7.42-8.55,8.45-14.23,4.87,3.86,10.62,5.57,15.8.35,5.84-5.89,5.12-15.94,3.47-23.38a1.31,1.31,0,0,0-2.57.35c0,5.1,1.34,10.31,0,15.36-.88,3.39-3.18,7-6.86,7.91-4.13,1-7.16-1.93-9.83-4.5a1.5,1.5,0,0,0-2.48.66c-.6,3.81-1.14,8-3.34,11.25-1.85,2.74-5.2,5-8.66,4.1-2.49-.64-4.62-3.39-6.07-5.27-.86-1.11-2.87-.89-2.85.77C372.91,309.9,369.35,314.44,364,314.45Z"/><path class="cls-4" d="M358.37,341.94c1.67,13.18-14.48,14.85-19.79,4.41a1.53,1.53,0,0,0-2.82.77c.13,6.78-7.91,7.12-11.79,3.42-2.81-2.68-3.77-6.64-4.49-10.3-.19-1-1.72-.74-1.7.23.14,6.57,3.06,14,10.26,15.39A8.89,8.89,0,0,0,338,351c3.6,4.43,9.4,7.06,15.13,5.17,6-1.95,9.87-8.52,8.24-14.6C360.91,340,358.15,340.21,358.37,341.94Z"/><path class="cls-4" d="M329.17,426c6.69-3.18,7.65-11.57,7.31-18.08-.12-2.21-3.57-2.22-3.44,0,.23,4.09.24,8.88-2.29,12.36-3.79,5.23-11.18,3.85-13.91-1.55-.73-1.43-3.32-.82-3.13.84.83,7.24-5.94,12.43-12.89,10.28-6.25-1.92-9.33-7.61-10.36-13.68-.27-1.6-2.5-1.3-2.94,0-1.66,4.91-7.73,8.12-12.52,5.29-4.24-2.51-5.07-8.05-3.47-12.33.33-.89-1-1.37-1.49-.62a11.2,11.2,0,0,0,4.86,16.06c5,2.17,10.34.07,13.48-3.87,2.17,6.82,7.46,12.49,15.13,12.87A12.92,12.92,0,0,0,316.76,424,11.48,11.48,0,0,0,329.17,426Z"/><path class="cls-4" d="M414.74,391.93c-1.09-.33-2.51.84-2,2a8.86,8.86,0,0,1-3.84,11.32c-4.26,2.31-9.19,1-13-1.42a1.59,1.59,0,0,0-2.37,1.36c-.25,4-2.39,7.68-6.45,8.94-1.17.37-12.38-.06-9.46-4,.48-.66-.45-1.52-1.1-1.1-5.07,3.29,3.41,8,6.41,8.39,6.69.92,11.9-3.71,13.36-9.75,4.88,2.39,10.78,2.93,15.44-.36a12,12,0,0,0,4.95-11.55c3.94.67,7.59-.07,9.43-4.43,2.19-5.15,1.82-13.85-.95-18.65a1.09,1.09,0,0,0-2,.55C422.74,380.25,427.63,395.8,414.74,391.93Z"/><path class="cls-4" d="M385.29,448.3c5.9-.59,11.32-6.93,12.17-12.57a1.24,1.24,0,0,0-2.26-1c-2,2.66-3,5.88-5.58,8.15-3.44,3-11.28,3.39-11.83-2.79-.17-1.94-3.09-2-3.08,0,0,10.4-17.21,5.44-16.73-3.63,0-1-1.41-1.11-1.72-.23-3.81,10.78,15.35,17.11,20.35,8.62A9.91,9.91,0,0,0,385.29,448.3Z"/><path class="cls-4" d="M356.76,455.28l-.77-.4a1.35,1.35,0,0,0-1.61.21l-.45.56a1.06,1.06,0,0,0,1,1.75c-2.05.27-4.36,4.05-6,5.17a9.65,9.65,0,0,1-4.95,2c-3.37.19-7.43-2.35-6.21-6.4a1.43,1.43,0,0,0-2.75-.76c-.09.29-.15.58-.21.87-1.3,3.86-6.82,3.76-9.46,2a9,9,0,0,1-3.47-8.78.78.78,0,0,0-1.5-.41c-1.56,5,.12,10.18,5.19,12.37a10,10,0,0,0,9.58-.89,8.72,8.72,0,0,0,9,5.07c5-.47,12.71-5.79,13.28-11.08A1.49,1.49,0,0,0,356.76,455.28Z"/><path class="cls-4" d="M309.7,475.55c-1.25,4.24-3.57,8.14-8.28,9s-8.54-1.46-10.83-5.42a1.63,1.63,0,0,0-2.8,0c-4,8-15.25,5.47-15.55-2.73a11.15,11.15,0,0,0,.22-2.59c-.06-1.64-2.66-2.17-3-.41a13.11,13.11,0,0,0-.25,2.59c-1.15,5.16-7.12,7.9-11.51,3.56-3.54-3.5-2.23-8.21-2.62-12.64a.81.81,0,0,0-1.58-.21c-2.37,6.51-.86,15.75,6.81,17.7a9.34,9.34,0,0,0,10-3.58c3.33,7,13.65,9.17,19,2,7.18,8.38,22.78,5.79,23.29-6.9A1.47,1.47,0,0,0,309.7,475.55Z"/><path class="cls-4" d="M420.08,445c.74,5.44,3.25,11.05.18,16.31-2.18,3.73-13.39,8-16.6,3-.65-1-2.57-1-2.82.37-.71,4-2,8.1-5.52,10.5-4.48,3.08-9.33,1.43-12.78-2.27-.67-.72-1.72.19-1.31,1a10.8,10.8,0,0,0,12.93,5.29c5-1.63,7.73-6.36,9.07-11.19,4.57,2.81,12.59,1.29,16.42-1.47,7-5.07,6-15.6,2.85-22.58C421.82,442.48,419.9,443.66,420.08,445Z"/><path class="cls-4" d="M396.2,209.4c7.8,9.65,24.54,2.39,21.62-11.2-.45-2.07-3.65-1.2-3.19.88,2.52,11.31-12.68,16.13-17.58,5.75a1.59,1.59,0,0,0-2.88.37c-1,4.44-3.06,8.93-7.5,10.83a9,9,0,0,1-11.48-3.71c-.49-.85-1.94-.29-1.61.68,1.64,4.87,6.48,7.39,11.54,6.66C390.7,218.84,394.31,214.38,396.2,209.4Z"/></svg>