<svg id="Layer_1" data-name="Layer 1" xmlns="http://www.w3.org/2000/svg" viewBox="0 0 600 600"><defs><style>.cls-1{fill:#8dc63f;}.cls-2{fill:#00aeef;}.cls-3{fill:#fff;}.cls-4{fill:#be1e2d;}.cls-5{fill:#231f20;}</style></defs><title>doodle</title><path class="cls-1" d="M550.42,261.25c-3.65,51.2-6.65,102.63-11.33,153.8q-.36,21.43-1.08,42.83c-.56,16.2-1.24,32.4-1.87,48.59-.48,12.21-.66,24.51-3,36.54a67.66,67.66,0,0,1-4,13.29l2.69-1.39c13.52-7,23.36-16.1,27.44-31.19,3.61-13.32,3.49-27.51,4.17-41.21q1.22-24.75,2.41-49.51,2.33-47.69,4.64-95.36c1.34-27.48,5.87-57.05,1.33-84.41-2.1-12.64-6.93-24.67-16.23-33.74a56.87,56.87,0,0,0-5.41-4.57C554.35,229.16,551.5,246.2,550.42,261.25Z"/><path class="cls-2" d="M474.64,571.35c11.87,0,25.7,1.54,35.23-7,16.23-14.47,13.64-43.75,14.4-63.32,1.17-30,2.33-60,4.22-90a5.62,5.62,0,0,1,.69-2.41c2.6-51.59,6.81-103.2,10.34-154.67.89-12.93,4.84-30.54-2.7-42.06-7.17-11-22.22-13.89-34.17-16.14-31.54-5.95-63.26-11.34-95-15.87a882.7,882.7,0,0,0-88-8.47c-28.18-1.15-56.48.21-84.59-2.45-51.08-4.84-105.44-27-156.3-10.11-7.63,2.53-15.8,5.67-20.35,12.73-3.16,4.9-4.38,10.84-5.53,16.46C50.07,201.7,48,215.5,46.14,229.24c-3.94,28.71-6.41,57.61-7.9,86.54-1.46,28.34-1.94,56.73-1.84,85.1Q36.49,424,37,447c.28,12.62-.06,25.58,2.14,38.05,10.66,60.6,88.14,50.75,133.26,55,57.21,5.43,113.31,18.52,170.32,25.4A852.37,852.37,0,0,0,428.17,571C443.66,571.25,459.15,571.32,474.64,571.35Zm41.19-271c.83-17.46-.09-35.39,2.46-52.69.13-.87,1.55-.83,1.72,0,3.55,17.65,2.28,36.62,1.47,54.5-.8,17.49-.17,37.8-6.19,54.44a1.38,1.38,0,0,1-2.7-.37C510.69,338.1,515,318.56,515.83,300.34Zm-6,78.9c.65-4.18.78-8.85,3-12.53a1.14,1.14,0,0,1,2,.27c1.48,4.07.55,8.73,0,12.94a47.87,47.87,0,0,1-3.36,12.92,1.39,1.39,0,0,1-2.71-.36A74.33,74.33,0,0,1,509.87,379.24ZM454.5,293c6.88-4.18,16.78-3,21.47,2.7a19.11,19.11,0,0,1,7.61,23.44c-5.12,13.27-21.22,17.08-32.06,8C440.45,317.84,442.23,300.42,454.5,293ZM63.76,447.13c-4.67-12.76-3.48-29.31-3.4-42.73.09-13.94.16-29,4.16-42.48a.82.82,0,0,1,1.61.22c1.1,13.95-.55,28.26-.39,42.26.15,13.71,3.35,28.72,1.57,42.25A1.82,1.82,0,0,1,63.76,447.13ZM78.12,488.7c-6.31-5.17-10.39-14.05-12-21.91a1.23,1.23,0,0,1,2.23-.94c4.31,6.81,9.2,14,12.32,21.38C81.29,488.78,79.12,489.52,78.12,488.7ZM94.64,327.24C88.86,332,79,332,72.11,330.06c-8.4-2.37-9.27-10-8.84-17.54.44-7.95,2.73-16.49,10.17-20.63,6.54-3.64,13.64-2.64,17.91,3.52a3,3,0,0,1,.54,1.56l.16.13a4.43,4.43,0,0,1,2.63,1,15.43,15.43,0,0,1,5.47,13.47C100.94,317.41,99.41,323.34,94.64,327.24Zm258.28,82.58c-5.65,23.3-15.48,48.88-37.29,61.55S259,483.08,238,468.69c-23.64-16.19-26.74-47-29.53-73.18-3.69-34.69-3.62-70.12,3-104.44a3.72,3.72,0,0,1,4.4-2.89,4.73,4.73,0,0,1,2.2-.56c28.79.34,57.42,2.88,86.25,2,7.17-.23,14.35-.62,21.5-1.22,6-.5,12.27-2,18.26-1.26a15.75,15.75,0,0,1,9.28,4.52,4.78,4.78,0,0,1,4.31,3.8C365.35,332.49,361.79,373.3,352.92,409.82Z"/><path class="cls-3" d="M458.92,318.84c3.5,2.59,8.55,3.08,11.9-.18a9,9,0,0,0,2.15-10.2,2,2,0,0,1-.15-.33,7.79,7.79,0,0,0-5.34-3.94c-3-.68-6.27,0-8.19,2.59-2.5,3.37-1.21,6.92-.45,10.61A4.76,4.76,0,0,1,458.92,318.84Z"/><path class="cls-1" d="M346.31,303c-1.82-7.58-27.43-2-33.05-1.76q-15.24.71-30.51.4c-20.53-.4-41.27-1.3-61.7-3.56-.1.23-.23.44-.33.67a2.56,2.56,0,0,1-1.68,1.48c-1.44,24.27-2.16,48.49-1,72.68a61.59,61.59,0,0,1,49.11,8,97.29,97.29,0,0,1,44,.78A111.08,111.08,0,0,1,336,391c2.45,1.27,5.32,2.63,8,4.26,5.69-29.92,5.5-59.5,3.54-90A4.68,4.68,0,0,1,346.31,303Z"/><path class="cls-1" d="M455,111.35a5.74,5.74,0,0,1,4.11-5.41c7.68-2.24,16.9-5.55,17.2-15,.21-6.28-3.85-12.7-9.32-15.56-12.05-6.33-44.23,4.66-33.28,21.74,3.66,5.72,10.18,7.8,14.48,12.63,3.47,3.9,2.37,7.82,1.39,12.58-1.71,8.35-3.68,16.65-5.52,25-.55,2.5-5.83,22.63-6.18,25.25q8.52,1.38,17,2.82Q454.95,143.38,455,111.35Z"/><path class="cls-4" d="M337.84,405.42q-2.49-1.6-5-3.07c-2.56-1.45-5.18-2.81-7.87-4a102.58,102.58,0,0,0-21-6.86A117,117,0,0,0,277.23,389c12.11,12,22.88,31.51,18.67,47.83-1.23,4.76-7.88,4.38-9.28,0-2.46-7.73-2.5-15.67-5.92-23.26a55.55,55.55,0,0,0-14.38-19.26,51.65,51.65,0,0,0-5.44-4c-.45.07-.9.11-1.34.18a3.75,3.75,0,0,1-4.43-3.39c-11.2-5.39-24.21-7-36.5-5.3.62,8.81,1.51,17.63,2.74,26.43,2.21,15.77,5,33.51,16.37,45.53,10.71,11.26,27,14.73,42,14.62,16.87-.13,32.33-4.88,43.2-18.29,9.26-11.43,14.17-25.89,17.79-40,.23-.88.42-1.75.64-2.63a3.9,3.9,0,0,1,.08-1.07C340.45,407.48,339.26,407.18,337.84,405.42Z"/><path class="cls-3" d="M79.83,314.77c4.57,2.84,7.68.17,8.87-3.66a16.13,16.13,0,0,0-.69-1.82C83.52,299.43,72.15,310,79.83,314.77Z"/><path class="cls-1" d="M149.57,92.25c.73,7.81-2.87,17.26-4.31,25-1.55,8.33-3.07,16.68-4.84,25,4.83.48,9.65,1.08,14.46,1.77q-.9-29-3.67-57.87c-.26-2.75,2.73-5.77,5.5-5.5,23.34,2.28,35.31-32.46,14.15-44.1C153.73,27.06,132.5,42.26,129,59.61c-1.59,8,.58,18.73,8.12,23.12C142.14,85.63,148.89,85,149.57,92.25Z"/><path class="cls-5" d="M447.83,583.28c14.89.14,30.17,1.13,45-.18a48.32,48.32,0,0,0,8.41-1.47,3.51,3.51,0,0,0,1.86-.51l.24-.15a39.57,39.57,0,0,0,11.89-6.16c19-8.72,39.75-14.73,50.27-34.76,6.28-12,7.83-25.67,8.63-39,1-17.18,1.66-34.39,2.49-51.58l5.13-106.37c1.46-30.34,6.12-62.69.64-92.84-4.69-25.84-21-42.48-43.1-52.49a39,39,0,0,0-4.16-3.14c-9.46-6.18-20.93-8.67-31.87-10.73-12.35-2.32-24.74-4.48-37.13-6.61,0-.06,0-.11,0-.17l0-61.72c8.06-2.79,15.8-7,19.33-15.27,3.44-8,1.84-17.46-2.82-24.66C470.93,57.34,444.68,60,430,72.89c-7.2,6.27-11.3,15.3-8.05,24.71a29,29,0,0,0,7,10.48,53.73,53.73,0,0,0,6.07,5.1c1,.81,2.1,1.58,3.19,2.3q3.71,1,1.29,4.09c.38,6.54-3.26,14.92-4.68,21.42-1.82,8.33-3.78,16.64-5.42,25a27.37,27.37,0,0,0-.47,5.16c-21.38-3.33-42.82-6.26-64.35-8.42-31.46-3.15-62.81-3.55-94.39-4s-61.6-5.38-92.46-11c-3.9-.7-7.81-1.39-11.73-2q-.8-27.09-3.24-54.07c20.09-1.75,33-22.46,28.74-42.41C186.33,25.2,160,17,139.76,28.65,122.22,38.73,112,61.89,121.7,80.77a27.78,27.78,0,0,0,7.41,9.12c2.14,1.69,5,2.28,7.06,3.87,1.8-.26,2.59.35,2.39,1.83a8.45,8.45,0,0,1-.46,4.78c-1.75,13.76-4.8,27.34-6.91,41.07a170,170,0,0,0-35.56,1.23c-12.41,1.84-26,5.12-36.63,12-9.92,6.42-14.61,16.3-17.12,27.55-6.54,29.21-9.75,59.59-12.44,89.37-5.65,62.41-5.69,125.19-4,187.79.7,25.71,3.73,50.71,24.91,67.94,19.92,16.2,45.67,20.35,70.58,21.7,31.54,1.72,62.63,3.55,93.93,8.21,31.05,4.62,61.89,10.45,92.91,15.26a852.2,852.2,0,0,0,91.84,9.56C415.67,582.81,431.75,583.13,447.83,583.28ZM555.54,219.49c9.3,9.07,14.13,21.1,16.23,33.74,4.54,27.36,0,56.93-1.33,84.41q-2.33,47.69-4.64,95.36-1.21,24.76-2.41,49.51c-.68,13.7-.56,27.89-4.17,41.21-4.08,15.09-13.92,24.14-27.44,31.19l-2.69,1.39a67.66,67.66,0,0,0,4-13.29c2.37-12,2.55-24.33,3-36.54.63-16.19,1.31-32.39,1.87-48.59q.74-21.4,1.08-42.83c4.68-51.17,7.68-102.6,11.33-153.8,1.08-15.05,3.93-32.09-.29-46.33A56.87,56.87,0,0,1,555.54,219.49ZM444,147.33c1.84-8.32,3.81-16.62,5.52-25,1-4.76,2.08-8.68-1.39-12.58-4.3-4.83-10.82-6.91-14.48-12.63C422.74,80.07,454.92,69.08,467,75.41c5.47,2.86,9.53,9.28,9.32,15.56-.3,9.42-9.52,12.73-17.2,15a5.74,5.74,0,0,0-4.11,5.41q0,32-.08,64.05-8.5-1.44-17-2.82C438.21,170,443.49,149.83,444,147.33ZM137.16,82.73c-7.54-4.39-9.71-15.16-8.12-23.12,3.46-17.35,24.69-32.55,41.82-23.13,21.16,11.64,9.19,46.38-14.15,44.1-2.77-.27-5.76,2.75-5.5,5.5Q154,115,154.88,144c-4.81-.69-9.63-1.29-14.46-1.77,1.77-8.28,3.29-16.63,4.84-25,1.44-7.71,5-17.16,4.31-25C148.89,85,142.14,85.63,137.16,82.73Zm35.28,457.35c-45.12-4.27-122.6,5.58-133.26-55C37,472.59,37.32,459.63,37,447q-.52-23.07-.64-46.13c-.1-28.37.38-56.76,1.84-85.1,1.49-28.93,4-57.83,7.9-86.54,1.89-13.74,3.93-27.54,6.71-41.13,1.15-5.62,2.37-11.56,5.53-16.46,4.55-7.06,12.72-10.2,20.35-12.73C129.59,142.05,184,164.19,235,169c28.11,2.66,56.41,1.3,84.59,2.45a882.7,882.7,0,0,1,88,8.47c31.77,4.53,63.49,9.92,95,15.87,12,2.25,27,5.17,34.17,16.14,7.54,11.52,3.59,29.13,2.7,42.06-3.53,51.47-7.74,103.08-10.34,154.67a5.62,5.62,0,0,0-.69,2.41c-1.89,30-3,60-4.22,90-.76,19.57,1.83,48.85-14.4,63.32-9.53,8.5-23.36,7-35.23,7-15.49,0-31-.1-46.47-.4a852.37,852.37,0,0,1-85.41-5.47C285.75,558.6,229.65,545.51,172.44,540.08Z"/><path class="cls-5" d="M451.52,327.11c10.84,9.07,26.94,5.26,32.06-8A19.11,19.11,0,0,0,476,295.66c-4.69-5.66-14.59-6.88-21.47-2.7C442.23,300.42,440.45,317.84,451.52,327.11Zm7.77-20.33c1.92-2.57,5.15-3.27,8.19-2.59a7.79,7.79,0,0,1,5.34,3.94,2,2,0,0,0,.15.33,9,9,0,0,1-2.15,10.2c-3.35,3.26-8.4,2.77-11.9.18a4.76,4.76,0,0,0-.08-1.45C458.08,313.7,456.79,310.15,459.29,306.78Z"/><path class="cls-5" d="M94.68,298.15a4.43,4.43,0,0,0-2.63-1l-.16-.13a3,3,0,0,0-.54-1.56c-4.27-6.16-11.37-7.16-17.91-3.52C66,296,63.71,304.57,63.27,312.52c-.43,7.56.44,15.17,8.84,17.54,6.9,2,16.75,1.89,22.53-2.82,4.77-3.9,6.3-9.83,5.51-15.62A15.43,15.43,0,0,0,94.68,298.15ZM79.83,314.77c-7.68-4.76,3.69-15.34,8.18-5.48a16.13,16.13,0,0,1,.69,1.82C87.51,314.94,84.4,317.61,79.83,314.77Z"/><path class="cls-5" d="M353.34,291.64a15.75,15.75,0,0,0-9.28-4.52c-6-.72-12.28.76-18.26,1.26-7.15.6-14.33,1-21.5,1.22-28.83.9-57.46-1.64-86.25-2a4.73,4.73,0,0,0-2.2.56,3.72,3.72,0,0,0-4.4,2.89c-6.59,34.32-6.66,69.75-3,104.44,2.79,26.18,5.89,57,29.53,73.18,21,14.39,55.69,15.42,77.62,2.68s31.64-38.25,37.29-61.55c8.87-36.52,12.43-77.33,4.73-114.38A4.78,4.78,0,0,0,353.34,291.64Zm-12,115.82c-.22.88-.41,1.75-.64,2.63-3.62,14.06-8.53,28.52-17.79,40-10.87,13.41-26.33,18.16-43.2,18.29-15,.11-31.3-3.36-42-14.62-11.41-12-14.16-29.76-16.37-45.53-1.23-8.8-2.12-17.62-2.74-26.43,12.29-1.67,25.3-.09,36.5,5.3a3.75,3.75,0,0,0,4.43,3.39c.44-.07.89-.11,1.34-.18a51.65,51.65,0,0,1,5.44,4,55.55,55.55,0,0,1,14.38,19.26c3.42,7.59,3.46,15.53,5.92,23.26,1.4,4.38,8.05,4.76,9.28,0,4.21-16.32-6.56-35.84-18.67-47.83a117,117,0,0,1,26.69,2.48,102.58,102.58,0,0,1,21,6.86c2.69,1.22,5.31,2.58,7.87,4q2.56,1.47,5,3.07c1.42,1.76,2.61,2.06,3.6,1A3.9,3.9,0,0,0,341.36,407.46ZM344,395.28c-2.69-1.63-5.56-3-8-4.26a111.08,111.08,0,0,0-24.8-9.32,97.29,97.29,0,0,0-44-.78,61.59,61.59,0,0,0-49.11-8c-1.2-24.19-.48-48.41,1-72.68a2.56,2.56,0,0,0,1.68-1.48c.1-.23.23-.44.33-.67,20.43,2.26,41.17,3.16,61.7,3.56q15.25.28,30.51-.4c5.62-.27,31.23-5.82,33.05,1.76a4.68,4.68,0,0,0,1.24,2.29C349.51,335.78,349.7,365.36,344,395.28Z"/><path class="cls-5" d="M515.29,356.59c6-16.64,5.39-36.95,6.19-54.44.81-17.88,2.08-36.85-1.47-54.5-.17-.83-1.59-.87-1.72,0-2.55,17.3-1.63,35.23-2.46,52.69-.87,18.22-5.14,37.76-3.24,55.88A1.38,1.38,0,0,0,515.29,356.59Z"/><path class="cls-5" d="M511.57,392.84a47.87,47.87,0,0,0,3.36-12.92c.53-4.21,1.46-8.87,0-12.94a1.14,1.14,0,0,0-2-.27c-2.21,3.68-2.34,8.35-3,12.53a74.33,74.33,0,0,0-1,13.24A1.39,1.39,0,0,0,511.57,392.84Z"/><path class="cls-5" d="M67.31,446.65c1.78-13.53-1.42-28.54-1.57-42.25-.16-14,1.49-28.31.39-42.26a.82.82,0,0,0-1.61-.22c-4,13.47-4.07,28.54-4.16,42.48-.08,13.42-1.27,30,3.4,42.73A1.82,1.82,0,0,0,67.31,446.65Z"/><path class="cls-5" d="M68.32,465.85a1.23,1.23,0,0,0-2.23.94c1.64,7.86,5.72,16.74,12,21.91,1,.82,3.17.08,2.52-1.47C77.52,479.81,72.63,472.66,68.32,465.85Z"/></svg>