<svg id="Layer_1" data-name="Layer 1" xmlns="http://www.w3.org/2000/svg" viewBox="0 0 600 600"><defs><style>.cls-1{fill:#e27683;}.cls-2{fill:#8b5e3c;}.cls-3{fill:#231f20;}</style></defs><title>doodle</title><path class="cls-1" d="M462.33,114a142.45,142.45,0,0,1,17.8,31.25c1.11,2.66-2.62,5.26-4.85,3.73a20.25,20.25,0,0,0-6.78-3.08c9.87,11.19,18.65,23.68,24.94,37.1,10.12-15.49,16-33.51,22.77-50.61q5.49-13.84,11-27.7c3.5-8.84,8.06-17.82,10.6-27,.79-2.87.68-5.07-.12-6.74-14.25,4.62-27,12.73-40.16,19.91C485,97.71,472.16,103.56,462.33,114Z"/><path class="cls-2" d="M299,96.74a105.58,105.58,0,0,1,13.72-3.24,175.21,175.21,0,0,0-28-48.35c-5.44-6.63-11.34-13.48-18-18.88-1.85-1.49-4.61-3.51-7.2-3.78,8.93,10.28,15.68,23.47,22,35.36A350.64,350.64,0,0,1,299,96.74Z"/><path class="cls-1" d="M268.26,139.6a89.19,89.19,0,0,0-17.68-2.52c-3.13-.13-4.16-3.49-2.39-5.76A102.34,102.34,0,0,1,292.57,99a343.64,343.64,0,0,0-17.31-38.65c-6.3-12-14.43-23.07-20.68-35-.48.86-.85,1.8-1.24,2.65C251,33.11,249,38.5,247.08,43.85a299.43,299.43,0,0,0-14.7,57.43c-2.7,18.21-2.52,36.81,6.07,53.41A153.12,153.12,0,0,1,268.26,139.6Z"/><path class="cls-2" d="M454.27,104.37c1.58,1.7,3.09,3.46,4.56,5.24,7.48-11.69,23.94-18,35.39-24.32q12-6.63,24-13.22a111.52,111.52,0,0,1,10.41-5.46c-11.83-.77-31,5.83-36.38,7.69a201.32,201.32,0,0,0-45.54,22.85A84.59,84.59,0,0,1,454.27,104.37Z"/><path class="cls-2" d="M186.7,302.51c-2.57-2.5-8.52-12.08-12.83-6.36-.9,1.2-.91,4-1.17,5.46a68.28,68.28,0,0,0-1,9.12,32.72,32.72,0,0,0,1.51,12c.8,2.34,4.06,8.2,6.09,9.45l3.19,1.41,0,.06a32.33,32.33,0,0,1,16,8.7,120.75,120.75,0,0,1,23.14-19.68C208.14,320.17,196.45,312,186.7,302.51Z"/><path class="cls-2" d="M194,347.54c-11.53-11.64-30.53-10.64-40.17,3.3-1.78,2.58-6.13,1.78-6.13-1.66,0-9.17.05-18.33,0-27.49,0-2.62.57-8.44-1.89-10.15-4.25-3-7.27,5.22-8.46,7.84-7,15.48-11.25,32.64-10.17,49.71,1,15.77,7.05,30.79,18.25,42.06a57.64,57.64,0,0,0,16.28,11.6c5.49,2.59,11.14,3.23,16.86,4.39-7.78-20.21-4.6-45,5-63.6A97.32,97.32,0,0,1,194,347.54Z"/><path class="cls-2" d="M458.6,144.82c-1.54-1.62-1.13-5.11,1.45-5.5a27,27,0,0,1,10.32.34,131.33,131.33,0,0,0-19.56-29.19c-9.17-10.3-21-19.78-35.51-18.91-2.89.18-4.25-3.68-2.32-5.59l15.7-15.48a247.34,247.34,0,0,0-27.36,6.41c-9,2.67-24.12,5.73-25.82,16.88-.4,2.58-3.86,3-5.48,1.45-8.8-8.2-19.89-18.12-32.53-17.8a101,101,0,0,0,14.72,17.68c2.57,2.47-.13,6.35-3.3,5.67-33.35-7.12-68.88,4.89-91.53,30a92.37,92.37,0,0,1,22.72,5.33c3.06,1.14,3.37,5.51,0,6.53-36.88,11.17-72.93,36.41-81.21,75.72a160.88,160.88,0,0,1,19.94-11.2c3.08-1.45,6.41,2.28,3.77,4.88a89.07,89.07,0,0,0-19.22,28.2c18,.59,36.28,4.39,51.57,13.63.94.57.3,2.27-.77,1.83a149.62,149.62,0,0,0-52.45-11.37,90.77,90.77,0,0,0-3.93,13.85c16.08-2.84,33.07-3.57,47.42,5.06.57.35.19,1.37-.47,1.11-15.47-6.13-31.71-5.31-47.64-2.32a88.36,88.36,0,0,0-1.06,15.27,41.3,41.3,0,0,1,10.44-8.12c1.82-1,4.93.21,4.63,2.66a104,104,0,0,0-.51,21.59,50.69,50.69,0,0,1,11-13.49,3.17,3.17,0,0,1,5.21,1.37,129.28,129.28,0,0,0,16.89,29.72l3.45,4.35a132,132,0,0,0,40.17,32.63c3,1.56.35,5.95-2.62,4.47a131.79,131.79,0,0,1-42.77-34.06c-20.58,11.36-39.58,25.05-51.12,46.27-12.67,23.31-12.47,50.15,1.25,72.76a3.86,3.86,0,0,1,.45,1.13c1.77,1,2.41,4.13.17,5.14-25,11.21-51.24,20.66-70.95,40.53a94,94,0,0,0-21.39,34.44c-4.68,12.85-8.76,27.28-7.3,41a36.77,36.77,0,0,0,8,19.79c4,4.72,11.27,10.16,17.85,8.18,11.09-3.35,8.86-24.06,9.59-32.71,2.12-25.28,8-51.46,23.29-72.22,13-17.58,31.64-30.56,53.48-33.28A92.36,92.36,0,0,1,211,398a89.09,89.09,0,0,1,12.93-21.72c4.54-5.61,11.78-14.45,20.11-11.83,11.57,3.64,9,18.74,4.63,30.7,11.93-5.16,26.67-2.49,36.83,6.43,16.87,14.84,17.7,39.2,10.31,59-1.61,4.3-8.55,2.43-6.93-1.91,6.15-16.47,6.87-36.27-6-49.83-11-11.57-29.87-13.15-40.52-.26-2.61,3.16-7.37-.91-5.49-4.24,4.37-7.77,8.76-18,8.09-27.17-.13-1.78-.43-3.93-1.82-5.18-3-2.7-7.14,1.45-9.24,3.57a72.82,72.82,0,0,0-8,9.68,85.43,85.43,0,0,0-15.12,48.16c-.05,14.27,2.43,35,17.07,41.52,16.05,7.13,34.9,10.84,52.36,11.66,18.12.85,36.19-2.07,52.64-9.86,14.88-7.05,28.8-16.61,41.57-26.95A262.31,262.31,0,0,0,435,379.64a276.45,276.45,0,0,0,20.89-44.18c3.18-8.49,6.12-17.07,9.28-25.57.52-1.39,1.06-2.78,1.6-4.16a100.66,100.66,0,0,0-25.24-16.9c-.87-.41-.23-1.92.66-1.55a96.38,96.38,0,0,1,25.67,15.64c.75-1.9,1.51-3.79,2.3-5.67.35-.83,1.34-2.55,2.3-4.38-10.08-6.71-20.81-12.26-32.75-15.37-1-.26-.55-1.68.41-1.49,12.22,2.32,23.29,7.59,33.63,14.16l0-.07,0-1.66a2.37,2.37,0,0,1-.33-1.09c0-3.37,2.42-4,4.3-2.8a3.43,3.43,0,0,1,2.43,1.46,130.38,130.38,0,0,0,3.7-16.4c-23.73-9.35-48.46-11.56-74.09-9.87a.71.71,0,0,1-.19-1.38C434,252.73,460.89,257,484.36,266a131.15,131.15,0,0,0-1.87-44.89c-.86-4,4-5.67,6.24-2.63l7.91,10.69C498.37,197.34,479.92,167.24,458.6,144.82ZM327.43,260.51c7.92,2.78,8.79-5.22,9.77-12.41a11,11,0,0,1-7.27-4c-5.06-6.8,4.18-10.64,9.72-10.47,4.7.14,16.66,4,11.36,10.7a7.7,7.7,0,0,1-5.91,2.86,13,13,0,0,1-1.88.63c.37,7.63-.93,18.47,9.07,17.14,3-.4,3.33,3.78,1.4,5.17-4.53,3.26-10.8.15-13.46-4.1a14.43,14.43,0,0,1-1.33-2.78c-.18.23-.36.45-.56.66-3.44,3.67-10.74,5.23-13.57.09C323.83,262.28,325.4,259.8,327.43,260.51Zm-41.8-48.37c-12.08-3.82-13.28-20.14-5.42-28.41,1.48-1.56,4.53,0,3.75,2.18-1.49,4.05-3.46,8.21-2.57,12.66,1,5.1,5.47,8.66,10.76,7.76,8.41-1.45,11.83-9.67,16.73-15.54,1.77-2.12,5.85.16,4.78,2.79C309.37,204.15,298.28,216.14,285.63,212.14ZM408.38,353.91c-6.43,16-20.82,28.61-36.63,34.84-16,6.31-35.18,6.42-51-.63-6.31-2.81-12.21-7.32-14.4-14.13s-.11-14.39,4.5-19.61,11.59-8.08,18.54-8.62c5-.38,10,.56,15-.11s9.64-3.06,14-5.6c15.78-9.09,35-20.83,33.94-41.68-.13-2.59,4-3.14,4.52-.61,4,19.16-11.27,33.31-26,42.59-7.93,5-16.5,10.84-26,12-9.95,1.19-20.89-2.3-28.64,6.18-8.84,9.67-1.36,20.05,8.67,24.08a60.49,60.49,0,0,0,32.78,3.06c20.44-3.67,34.69-16.84,44.81-34.25C404.23,348.29,409.78,350.43,408.38,353.91Zm44.93-145c-4.16,5.89-10.13,11.37-15.68,16-4.24,3.51-9.44,6.15-15.1,5.15-14.81-2.63-8.66-18.47-4.88-27.51,1.07-2.56,5-1.67,4.28,1.18-1,3.84-2.3,7.78-2.85,11.71-1,6.8,4,10.12,10.05,7.4,8.1-3.67,13.15-12.69,20.5-17.57C451.81,203.84,454.86,206.77,453.31,209Z"/><path class="cls-3" d="M556.59,325.25c-2.4-6.23-7.36-11.81-11.66-16.86a145.27,145.27,0,0,0-15-15.1,152.25,152.25,0,0,0-36.9-23.65l-2.2-1a138.8,138.8,0,0,0,.53-35.22q2.39,3.2,4.75,6.4c1.51,2,5.69,2.39,6.2-.82,2.78-17.13.15-33.63-5.89-49a3.49,3.49,0,0,0,1.53-1.26c9.54-13.8,15.16-29.77,21.29-45.26q10.14-25.65,20.28-51.3c2.52-6.38,7.27-14.32,5.5-21.45-1.36-5.49-6.34-9.36-11.65-10.68-7-1.72-14.63.3-21.43,1.84a189.27,189.27,0,0,0-23.24,6.83A185.62,185.62,0,0,0,442,93.52a45.8,45.8,0,0,0-19.14-8.13L440.51,68c2.55-2.52-.18-5.88-3.18-5.47a255.55,255.55,0,0,0-45.94,10.61c-7.8,2.6-16.86,6.38-20.63,13.91-11.1-9.81-24.19-18.65-39.64-15.38a3.31,3.31,0,0,0-2,4.82,102.26,102.26,0,0,0,11.37,16.13,102.59,102.59,0,0,0-20.73-.06,4,4,0,0,0-.15-.54,181.13,181.13,0,0,0-40.23-62.8c-5.12-5.18-11-11.72-18.52-13.07-6.77-1.21-10.82,3.17-13.31,8.89a284.1,284.1,0,0,0-10.05,27.1,285.28,285.28,0,0,0-12,53.82c-2,17.57-1.29,36.58,8,52.12-22.09,16-38.66,38.42-42.11,67.13-.28,2.29,2.92,4.06,4.75,2.73q5.58-4.08,11.45-7.63a97,97,0,0,0-10.7,19.87c-4.77.05-9.51.29-14.15.71A241.4,241.4,0,0,0,143.86,248c-12.94,3.36-26.74,6.81-38.81,12.67-1.38.67-.36,2.62,1,2.36,12.45-2.44,24.55-7.35,36.82-10.62a239.4,239.4,0,0,1,39.9-7.48c4.25-.38,8.45-.58,12.63-.62a97.3,97.3,0,0,0-3.92,15.14L189,260a303,303,0,0,0-31.73,8.67c-10.24,3.42-21.62,6.84-30.79,12.7a1.33,1.33,0,0,0,1,2.42c9.81-2.75,19.17-7.44,28.84-10.72S176,266.88,186,264.48q2.44-.59,4.91-1.12a96.15,96.15,0,0,0-.37,22.31c.3,2.92,4,4.26,5.67,1.54a35.81,35.81,0,0,1,8.2-9.22,109.37,109.37,0,0,0,1.68,27.84c.6,3.15,5.15,2.74,6,0a44.53,44.53,0,0,1,10.7-18.3,134.29,134.29,0,0,0,15.3,26q-4.38,2-8.64,4.4a3.14,3.14,0,0,0-1.05-.31c-13.57-1.49-25.1-8.36-34.95-17.53-5.65-5.27-14.29-19.63-22.91-10.75-3.59,3.7-4,9.69-4.69,14.53a50.66,50.66,0,0,0,0,16.53,29.19,29.19,0,0,0,5.7,12.78,33.12,33.12,0,0,0-17.25,7.58c0-6.71,0-13.42,0-20.12,0-5.12-.53-11.45-5-14.74-12.55-9.15-20.32,16.38-22.8,23.82-9.78,29.36-8.06,63.83,15.16,86.48,9.28,9.05,25.59,19.12,39.34,16.19a53.83,53.83,0,0,0,4.8,7.77c-22.58,8.25-45.56,19-63.62,34.88C101.27,493.29,89,521,86.48,548.41c-1.16,12.71,1.37,25.92,9.86,35.82,6.81,8,19.83,14.64,29.36,7.26,8.91-6.9,8.43-20.43,9.14-30.51,1.07-15.17,3.25-30.34,7.95-44.84,9.38-28.89,31.94-56.42,63.85-59.79,1.61,6.48,4.05,13.15,8.34,18,6.3,7.13,16.91,9.72,25.67,12.3,20.1,5.93,41.46,8.73,62.33,6,21.35-2.83,40.15-12.24,57.82-24.18a266.46,266.46,0,0,0,77.84-81.53c11.86-19.39,20.31-40.11,27.69-61.55q2.57-7.47,5.22-14.92c.59.62,1.19,1.22,1.76,1.85C482.6,322.48,487.56,334,493.92,346c.55,1,2,.28,1.78-.75-2.34-13-11.44-25.57-20.27-35-.9-1-1.84-1.89-2.78-2.81.41-1.1.87-2.19,1.35-3.3.61,2.8,5,4.24,6.39,1.15.75-1.71,1.45-3.42,2.13-5.15q4.1,3.12,8.1,6.36c7,5.67,14.15,11.31,20.63,17.61,6.79,6.59,11.27,14.05,16.31,21.92a.89.89,0,0,0,1.62-.68c-1.34-8.5-7.7-15.91-13.55-21.87-7.15-7.29-15.38-13.62-23.4-19.92-2.8-2.2-5.64-4.38-8.53-6.49a140.35,140.35,0,0,0,6.57-24.67c.57.26,1.14.49,1.7.76A151.5,151.5,0,0,1,527.21,296a143.4,143.4,0,0,1,13.87,13.91c4.62,5.32,8.19,11.69,13,16.75C555.09,327.7,557.13,326.67,556.59,325.25ZM537.65,71c.8,1.67.91,3.87.12,6.74-2.54,9.17-7.1,18.15-10.6,27q-5.48,13.86-11,27.7c-6.76,17.1-12.65,35.12-22.77,50.61-6.29-13.42-15.07-25.91-24.94-37.1a20.25,20.25,0,0,1,6.78,3.08c2.23,1.53,6-1.07,4.85-3.73A142.45,142.45,0,0,0,462.33,114c9.83-10.46,22.65-16.31,35.16-23.13C510.67,83.71,523.4,75.6,537.65,71ZM492.26,74.3c5.42-1.86,24.55-8.46,36.38-7.69a111.52,111.52,0,0,0-10.41,5.46q-12,6.6-24,13.22c-11.44,6.34-27.9,12.63-35.38,24.32-1.47-1.78-3-3.54-4.56-5.24a84.59,84.59,0,0,0-7.55-7.22A201.32,201.32,0,0,1,492.26,74.3Zm-225.56-48c6.7,5.4,12.6,12.25,18,18.88a175.21,175.21,0,0,1,28,48.35A105.58,105.58,0,0,0,299,96.74a350.64,350.64,0,0,0-17.55-38.89c-6.29-11.89-13-25.08-22-35.36C262.09,22.76,264.85,24.78,266.7,26.27Zm-34.32,75a299.43,299.43,0,0,1,14.7-57.43C249,38.5,251,33.11,253.34,27.93c.39-.85.76-1.79,1.24-2.65,6.25,12,14.38,23,20.68,35A343.64,343.64,0,0,1,292.57,99a102.34,102.34,0,0,0-44.38,32.35c-1.77,2.26-.74,5.63,2.39,5.76a89.19,89.19,0,0,1,17.68,2.52,153.12,153.12,0,0,0-29.81,15.09C229.86,138.09,229.68,119.49,232.38,101.28ZM171.65,310.73a68.28,68.28,0,0,1,1-9.12c.26-1.51.27-4.26,1.17-5.46,4.31-5.72,10.26,3.86,12.83,6.36,9.75,9.48,21.44,17.66,34.87,20.16a120.75,120.75,0,0,0-23.14,19.68,32.33,32.33,0,0,0-16-8.7l0-.06-3.19-1.41c-2-1.25-5.29-7.11-6.09-9.45A32.72,32.72,0,0,1,171.65,310.73Zm6.93,116.41c-5.72-1.16-11.37-1.8-16.86-4.39a57.64,57.64,0,0,1-16.28-11.6c-11.2-11.27-17.26-26.29-18.25-42.06-1.08-17.07,3.13-34.23,10.17-49.71,1.19-2.62,4.21-10.79,8.46-7.84,2.46,1.71,1.89,7.53,1.89,10.15,0,9.16,0,18.32,0,27.49,0,3.44,4.35,4.24,6.13,1.66,9.64-13.94,28.64-14.94,40.17-3.3a97.32,97.32,0,0,0-10.42,16C174,382.16,170.8,406.93,178.58,427.14ZM488.73,218.49c-2.25-3-7.1-1.34-6.24,2.63A131.15,131.15,0,0,1,484.36,266c-23.47-9.06-50.36-13.28-74.81-7.65a.71.71,0,0,0,.19,1.38c25.63-1.69,50.36.52,74.09,9.87a130.38,130.38,0,0,1-3.7,16.4,3.43,3.43,0,0,0-2.43-1.46c-1.88-1.19-4.35-.57-4.3,2.8a2.37,2.37,0,0,0,.33,1.09l0,1.66,0,.07c-10.34-6.57-21.41-11.84-33.63-14.16-1-.19-1.38,1.23-.41,1.49,11.94,3.11,22.67,8.66,32.75,15.37-1,1.83-1.95,3.55-2.3,4.38-.79,1.88-1.55,3.77-2.3,5.67a96.38,96.38,0,0,0-25.67-15.64c-.89-.37-1.53,1.14-.66,1.55a100.66,100.66,0,0,1,25.24,16.9c-.54,1.38-1.08,2.77-1.6,4.16-3.16,8.5-6.1,17.08-9.28,25.57A276.45,276.45,0,0,1,435,379.64a262.31,262.31,0,0,1-60.58,70.11c-12.77,10.34-26.69,19.9-41.57,26.95-16.45,7.79-34.52,10.71-52.64,9.86-17.46-.82-36.31-4.53-52.36-11.66-14.64-6.51-17.12-27.25-17.07-41.52a85.43,85.43,0,0,1,15.12-48.16,72.82,72.82,0,0,1,8-9.68c2.1-2.12,6.25-6.27,9.24-3.57,1.39,1.25,1.69,3.4,1.82,5.18.67,9.16-3.72,19.4-8.09,27.17-1.88,3.33,2.88,7.4,5.49,4.24,10.65-12.89,29.56-11.31,40.52.26,12.87,13.56,12.15,33.36,6,49.83-1.62,4.34,5.32,6.21,6.93,1.91,7.39-19.79,6.56-44.15-10.31-59-10.16-8.92-24.9-11.59-36.83-6.43,4.37-12,6.94-27.06-4.63-30.7-8.33-2.62-15.57,6.22-20.11,11.83A89.09,89.09,0,0,0,211,398a92.36,92.36,0,0,0-5.77,51.55c-21.84,2.72-40.53,15.7-53.48,33.28-15.3,20.76-21.17,46.94-23.29,72.22-.73,8.65,1.5,29.36-9.59,32.71-6.58,2-13.89-3.46-17.85-8.18a36.77,36.77,0,0,1-8-19.79c-1.46-13.77,2.62-28.2,7.3-41a94,94,0,0,1,21.39-34.44c19.71-19.87,46-29.32,71-40.53,2.24-1,1.6-4.12-.17-5.14a3.86,3.86,0,0,0-.45-1.13c-13.72-22.61-13.92-49.45-1.25-72.76,11.54-21.22,30.54-34.91,51.12-46.27a131.79,131.79,0,0,0,42.77,34.06c3,1.48,5.59-2.91,2.62-4.47a132,132,0,0,1-40.17-32.63l-3.45-4.35a129.28,129.28,0,0,1-16.89-29.72A3.17,3.17,0,0,0,221.6,280a50.69,50.69,0,0,0-11,13.49,104,104,0,0,1,.51-21.59c.3-2.45-2.81-3.67-4.63-2.66a41.3,41.3,0,0,0-10.44,8.12,88.36,88.36,0,0,1,1.06-15.27c15.93-3,32.17-3.81,47.64,2.32.66.26,1-.76.47-1.11-14.35-8.63-31.34-7.9-47.42-5.06a90.77,90.77,0,0,1,3.93-13.85,149.62,149.62,0,0,1,52.45,11.37c1.07.44,1.71-1.26.77-1.83-15.29-9.24-33.53-13-51.57-13.63a89.07,89.07,0,0,1,19.22-28.2c2.64-2.6-.69-6.33-3.77-4.88a160.88,160.88,0,0,0-19.94,11.2c8.28-39.31,44.33-64.55,81.21-75.72,3.37-1,3.06-5.39,0-6.53a92.37,92.37,0,0,0-22.72-5.33c22.65-25.15,58.18-37.16,91.53-30,3.17.68,5.87-3.2,3.3-5.67a101,101,0,0,1-14.72-17.68c12.64-.32,23.73,9.6,32.53,17.8,1.62,1.51,5.08,1.13,5.48-1.45,1.7-11.15,16.82-14.21,25.82-16.88a247.34,247.34,0,0,1,27.36-6.41L413,86c-1.93,1.91-.57,5.77,2.32,5.59,14.53-.87,26.34,8.61,35.51,18.91a131.33,131.33,0,0,1,19.56,29.19,27,27,0,0,0-10.32-.34c-2.58.39-3,3.88-1.45,5.5,21.32,22.42,39.77,52.52,38,84.36Z"/><path class="cls-3" d="M338.34,263.88c.2-.21.38-.43.56-.66a14.43,14.43,0,0,0,1.33,2.78c2.66,4.25,8.93,7.36,13.46,4.1,1.93-1.39,1.64-5.57-1.4-5.17-10,1.33-8.7-9.51-9.07-17.14a13,13,0,0,0,1.88-.63A7.7,7.7,0,0,0,351,244.3c5.3-6.71-6.66-10.56-11.36-10.7-5.54-.17-14.78,3.67-9.72,10.47a11,11,0,0,0,7.27,4c-1,7.19-1.85,15.19-9.77,12.41-2-.71-3.6,1.77-2.66,3.46C327.6,269.11,334.9,267.55,338.34,263.88Z"/><path class="cls-3" d="M402.42,351.4c-10.12,17.41-24.37,30.58-44.81,34.25a60.45,60.45,0,0,1-32.77-3.06c-10-4-17.52-14.41-8.68-24.08,7.75-8.48,18.69-5,28.64-6.18,9.53-1.14,18.1-7,26-12,14.75-9.28,30-23.43,26-42.59-.52-2.53-4.65-2-4.52.61,1.1,20.85-18.17,32.59-33.94,41.68-4.4,2.54-8.94,4.91-14,5.6s-10-.27-15,.11c-6.95.54-13.86,3.32-18.54,8.62s-6.65,12.9-4.5,19.61,8.09,11.32,14.4,14.13c15.81,7.05,35,6.94,51,.63,15.81-6.23,30.2-18.88,36.63-34.84C409.78,350.43,404.23,348.29,402.42,351.4Z"/><path class="cls-3" d="M308.88,190.8c-4.9,5.86-8.32,14.08-16.73,15.53-5.29.9-9.73-2.66-10.76-7.76-.89-4.45,1.08-8.61,2.57-12.66.78-2.14-2.27-3.74-3.75-2.18-7.86,8.27-6.66,24.59,5.42,28.41,12.65,4,23.74-8,28-18.56C314.73,191,310.65,188.66,308.88,190.8Z"/><path class="cls-3" d="M449.63,205.29c-7.35,4.88-12.4,13.9-20.5,17.57-6,2.72-11-.6-10.05-7.4.55-3.93,1.87-7.87,2.85-11.71.74-2.85-3.21-3.74-4.28-1.18-3.78,9-9.93,24.88,4.88,27.51,5.66,1,10.86-1.64,15.1-5.15,5.55-4.6,11.52-10.08,15.68-16C454.86,206.77,451.81,203.84,449.63,205.29Z"/></svg>