<svg id="Layer_1" data-name="Layer 1" xmlns="http://www.w3.org/2000/svg" viewBox="0 0 600 600"><defs><style>.cls-1{fill:#754c29;}.cls-2{fill:#fff;}.cls-3{fill:#a97c50;}.cls-4{fill:#be1e2d;}.cls-5{fill:#231f20;}</style></defs><title>doodle</title><path class="cls-1" d="M386.9,76.91a73.92,73.92,0,0,1,14-15.67,82.14,82.14,0,0,1,41.16-18.12,103.83,103.83,0,0,1,49.54,5.13,61.92,61.92,0,0,1,11,5.21c-8-8.65-18.95-14.25-31.47-16.25-20.36-3.25-43.4,2.32-61.38,12-17.12,9.23-29.36,24-33.09,43.21l2.41,1C380,87.64,384,81.38,386.9,76.91Z"/><path class="cls-2" d="M250.58,233.18c.06-.36.12-.72.21-1.05C250.05,232.33,249.66,232.62,250.58,233.18Z"/><path class="cls-1" d="M112.67,197.17c-8-1.81-11.2-15.12-12-21.69a34.85,34.85,0,0,1,7.46-26.82c6.56-7.92,16.35-11.42,26.49-10.6,4.25.34,11.67,1.44,14.81,5.17,2.75-2.23,5.65-4.31,8.65-6.29-19.35-13.16-39.55-25.19-63.9-24.86-17.37.24-34.23,7.31-45.45,20.2a53.08,53.08,0,0,0-4.58,14.47C38,184.3,69.31,215.53,105.59,216.17,107.81,209.8,110.12,203.44,112.67,197.17Z"/><path class="cls-3" d="M125.76,145.7a22.63,22.63,0,0,0-13.93,10.06c-5.89,9.09-6.63,28.23,3.65,34.74a175.89,175.89,0,0,1,11.09-21.39,100.87,100.87,0,0,1,17.77-21.52C140.35,143.91,129.8,144.81,125.76,145.7Z"/><path class="cls-1" d="M161.36,134.83l1.83-1.12C154.58,118.58,141,109.29,124,104.58c-16.83-4.66-36.12-5.6-51.83,3A55.82,55.82,0,0,0,53.61,124c10.14-8.88,23.79-14,37.22-15C115.9,107,142.25,119.09,161.36,134.83Z"/><path class="cls-1" d="M513.76,72.73a54.45,54.45,0,0,0-2-5.28,28.82,28.82,0,0,0-8.85-9.62c-6.27-4.35-13.71-6.83-21-8.75-14.59-3.81-30.13-4.79-45-1.76a77.57,77.57,0,0,0-36.59,18.21,70.07,70.07,0,0,0-12.52,14.89c-2.71,4.35-4.14,9.45-6.55,13.89,1.06.45,2.12.91,3.17,1.38.32-11,12-17.47,21.62-20a56.64,56.64,0,0,1,39.22,4c5.3,2.61,10.09,6.23,12.54,11.75,2.75,6.23,2.39,13.44,2.8,20.1.8,12.84.44,26-10.61,34.41l-.14.08c6.83,7.58,13.3,15.56,19.5,23.77,18-8.31,32.78-19.88,41.23-38.5A82.63,82.63,0,0,0,513.76,72.73Z"/><path class="cls-3" d="M444.9,140.65a3.46,3.46,0,0,1,.57-.58c8.95-7,8.22-18.35,7.62-28.56-.28-4.74,0-10-1.27-14.61-1.45-5.15-4.87-8-9.43-10.39a49.91,49.91,0,0,0-28.67-5.16c-8.86,1-22.45,5.12-23,16a3.6,3.6,0,0,1-.31,1.3C410.93,109,428.84,123.69,444.9,140.65Z"/><path class="cls-2" d="M313.34,274.77a53.86,53.86,0,0,1-14.12-1.71c4.06,11.15,6.08,23,10.11,34.14C311,296.43,312.29,285.62,313.34,274.77Z"/><path class="cls-2" d="M214.79,284.73c1.54,5.77,2.58,11.72,4.19,17.46.9,3.21,1.9,6.38,3,9.53,1.83-9.85,3.77-19.69,5.67-29.54A49.7,49.7,0,0,1,214.79,284.73Z"/><path class="cls-2" d="M261.85,232.28a6.48,6.48,0,0,0-2.69.53,27.71,27.71,0,0,1,4.34-.55Z"/><path class="cls-2" d="M259.86,471.06a59.83,59.83,0,0,0,17.49,3.35c-6.93-11-13.62-22.22-20.27-33.42A171,171,0,0,0,259.86,471.06Z"/><path class="cls-1" d="M425.94,132.83C398.11,108,364,91.27,326.36,90,286.22,88.6,247.14,102.1,211,118.22c-17.13,7.63-35,15.25-50.79,25.41-15.62,10-26.46,24.83-34.62,41.26a306.91,306.91,0,0,0-14.2,34.25,4,4,0,0,1-1.32,3.8c-1.63,4.74-3.19,9.5-4.7,14.24-1.71,5.4-3.26,10.86-4.61,16.35a3.48,3.48,0,0,1,.19,2.22A276.61,276.61,0,0,0,96,283.66a124,124,0,0,0,.08,15.42,2.13,2.13,0,0,1-1.67,2.4,262.14,262.14,0,0,0,2.27,52.35,85.29,85.29,0,0,1,9.19-12.16c2.59-2.88,7.19.16,6.28,3.65-9.5,36.58-19.61,78.68-.36,113.35q3.22-13.46,6.43-26.91c1.07-4.47,7-2.9,7.4,1,5.3,46.2,18.53,106.07,69,121.35L193,538.48c-.37-3.62,5.57-5.29,7-1.9C208,555,226.39,565.7,245.69,568.66c24.24,3.7,48.71-4.83,71-13.33,3-1.13,5.09,2.12,4.65,4.65a42.85,42.85,0,0,1-5.19,14.3c51-6.09,106.27-21.69,133.59-69,1.73-3,7.53-2,7,1.9a162.78,162.78,0,0,0-1.4,20.3,269.6,269.6,0,0,0,23.18-77.16c.56-3.93,6.36-3.3,7.33,0q3.47,11.75,7,23.5a435.46,435.46,0,0,0,8.79-123.34c-.21-3,3.36-4.64,5.72-3.29a91.92,91.92,0,0,1,19.52,15,401,401,0,0,0-45.22-133.35c-1.54-2.8,1-6.61,4.3-5.59l12.68,4C477.76,193.39,455.85,159.48,425.94,132.83Zm-84.7-17.68a35.6,35.6,0,0,1,21.19,9.07,1.36,1.36,0,0,1-.95,2.31c-1.25-.11-2.48-.3-3.69-.52a25.46,25.46,0,0,1-6.11-1.6,41.37,41.37,0,0,1-10.85-5.63,1.4,1.4,0,0,1-.41-1.88A1.08,1.08,0,0,1,341.24,115.15ZM153.79,170.63c.78-.84,1.58-1.63,2.4-2.39a1.23,1.23,0,0,1,.35-.46c5.44-4.77,11.12-9.31,18.59-9.9a1.44,1.44,0,0,1,1,2.44q-2.73,2.72-5.66,5.2a1.05,1.05,0,0,1-.2.48,5.66,5.66,0,0,1-2.3,1.56c-.88.7-1.78,1.38-2.69,2-3.34,2.41-6.7,4.39-10.89,3.34A1.39,1.39,0,0,1,153.79,170.63Zm-4,238.28a.59.59,0,0,1-1.16.15c-6.32-28,.09-60.06,10.5-86.21.41-1,2.08-.58,1.67.47a173.67,173.67,0,0,0-10.82,43C148.25,380.67,149.3,394.6,149.74,408.91Zm12.81,32.71c-5.64-17.51-5.15-37.77-.28-55.4.28-1,1.76-.59,1.58.44-3.32,18.66-2.67,35.91.13,54.57A.74.74,0,0,1,162.55,441.62ZM144.73,208.21c1.29-2.85,5-.6,4.61,1.94-2.67,17.74,17.88,27,31.6,17.81,12-8,11.15-22.4,14.83-34.6a3.26,3.26,0,0,1,6.37.87c.76,17.33-7.92,39.39-26.33,43.73C158.7,242,136,227.54,144.73,208.21Zm41.16,283.28c-10.46-12-14.88-27.81-14.37-43.54a.86.86,0,0,1,1.72,0c.29,15.56,5.67,29.56,13.87,42.6C187.58,491.29,186.47,492.15,185.89,491.49Zm69.28,41.84C241,531,228.89,520.76,221.1,509.19c-.55-.82.75-1.55,1.31-.77,8.47,11.83,20,18.18,33.2,23.3A.84.84,0,0,1,255.17,533.33ZM357.42,384c-.71,25.22-2.48,54.31-18.4,74.75a3.65,3.65,0,0,1-3.49,4.09,59.38,59.38,0,0,1-7.24,6.58c-12.21,9.35-27.9,11.84-42.89,12.49-15.18.67-29.83-2.34-42.24-11.44-25.92-19-33.73-51.5-38.85-81.49-6.05-35.41-10.73-71.88-10.76-107.86a31.49,31.49,0,0,1-13-10.91c-2.1-3.1,2.4-6,4.9-3.78,12.75,11.28,28.38,14.74,44.22,7.35,7.18-3.36,14.29-8.57,18.85-15.15a31.37,31.37,0,0,0,4.76-12.65c-4.42-.22-9-1.35-11.84-4.07-4.13-3.91-1.33-9.39,2.13-12.84a9,9,0,0,1,1.4-1.51c5.36-4.57,14.69-4.74,21.16-3,4.84,1.29,13,4.64,11.06,11-1,3.36-4.46,5.84-8.23,7.52,10.52,16.19,29.67,26.59,49.24,24.1a50,50,0,0,0,27.94-13.64,51.83,51.83,0,0,0,9.13-11.6c2.49-4.3,3.75-9.11,6.15-13.43,1.47-2.64,5.49-1.38,5.54,1.5.23,11.38-9.25,23.38-17.39,30.48-1.14,1-2.32,1.94-3.53,2.85C355,302.69,358.55,343.6,357.42,384ZM383.29,178c-1.47,4.83-3,10.11-5.63,14.47-4.57,7.53-13.85,10.67-22.26,11.14C334,204.85,324.81,184.38,324.74,166c0-3,4.72-3.75,5.3-.72,2.86,15,7.38,33.43,26.82,30.94,9.08-1.16,14-5.36,17.14-13.87,2.58-7.09,3.52-14.95,6.72-21.75,1.36-2.87,5.28-1.14,5.48,1.48C386.61,167.41,384.84,173,383.29,178Zm14.94,324.72c-.59.59-1.69-.2-1.19-.92,12.84-18.11,17.52-37.9,19-59.81.1-1.47,2.39-1.48,2.29,0C417.05,462.82,413.92,487.41,398.23,502.75Zm51.55-88.2c-.21,1.25-2.34.95-2.21-.3,3-28.92,1.18-58.21-7.35-86.1-.4-1.33,1.64-1.88,2.07-.57C451.46,355.69,454.64,385.26,449.78,414.55ZM452.14,308c-2.95-10.32-6.4-19.68-13.55-27.9-.79-.91.5-2.23,1.33-1.33,7.41,8,13.19,17.95,13.69,29A.75.75,0,0,1,452.14,308Zm12.14-23.47c.16.76-1,1.35-1.34.56-8.93-20-20.61-38-40-49.38a.72.72,0,0,1,.73-1.25C442.52,245.14,459.62,262.73,464.28,284.56Z"/><path class="cls-4" d="M316.23,386.61c-8.66,5.85-13.78,16.07-18.71,25-1.43,2.58-6,.76-4.84-2,3.15-7.67,6.74-15.56,12.08-21.93-15.55-5.69-34.77-.58-46.88,9.93-12.44,10.81-22,24.65-34.25,35.62,5.91,13.64,14.5,25.76,27.68,33.82.67.4,1.35.78,2,1.15a148.34,148.34,0,0,1-2.77-39,3.48,3.48,0,0,1,6.43-1.74c9.65,15.61,19.52,31.16,28.72,47.05,3.39-.15,6.79-.46,10.15-.88a66.88,66.88,0,0,0,16.75-4.18c-1.3-6.21-1.2-13.05-1.48-19.16-.39-8.5-.46-17-.29-25.51a3.54,3.54,0,0,1,6.55-1.77c5.83,9.5,11.75,19,17.52,28.5,8-11.73,11.51-25.87,13.1-39.84,1.11-9.84,1.61-19.79,1.77-29.74C339.14,379.67,325.11,380.61,316.23,386.61Z"/><path class="cls-2" d="M318,450.21c.21,5.25.95,10.68,1.08,16a47,47,0,0,0,11-8.73q-6.27-10.15-12.38-20.42Q317.74,443.66,318,450.21Z"/><path class="cls-5" d="M515.47,139.66c10.64-19.78,12.94-43.67,7.21-65.32C517,53,502,37.11,480.64,31.13c-22.17-6.2-46.83-1.19-67.41,8.1-20.82,9.38-39.9,27.37-42.45,51a148,148,0,0,0-29.82-7C299.79,78,258.7,90,221.09,105.85a558.61,558.61,0,0,0-52.22,24.65c-13.46-32.76-65.13-44.64-95-32-38.29,16.16-49,65.51-24.26,97.88C62.27,213,82.33,222.62,103,223.6L101.57,228A261.12,261.12,0,0,0,94,254.76,262.45,262.45,0,0,0,91.24,366.1c.57,3,5.47,3.74,6.78.89.64-1.41,1.33-2.77,2-4.13-8.36,36.26-12.63,75.44,10.08,107.27,1.75,2.46,6,2.48,6.86-.9q1.88-7.87,3.77-15.76c3.39,22.59,8.79,45,20.44,64.81,12.53,21.29,32.23,39,56.73,44.54,2.16.49,5.05-1.07,4.78-3.65l-.54-5.13c10,11.54,24.7,18.89,39.79,21.6,23.9,4.29,47.8-2.39,70.21-10.58a35.82,35.82,0,0,1-6.6,11.21c-1.91,2.21-.87,6.82,2.67,6.46C359.41,577.52,415.75,564,448,521.56a169.12,169.12,0,0,0,.29,21c.27,3.57,5.21,5.51,7.15,1.94a271.68,271.68,0,0,0,27.78-76.43q3.19,10.88,6.41,21.76c1,3.54,6.42,3.74,7.37,0a437.7,437.7,0,0,0,12.73-132.14,81.09,81.09,0,0,1,19.4,18.58c2,2.64,7.64,2.3,7.14-1.94a407.94,407.94,0,0,0-43.54-140.91l13.6,4.36c3.21,1,6.07-2.85,4.35-5.66-11.27-18.44-23.24-37.61-36.5-55.84C491.74,170.55,506.93,155.57,515.47,139.66ZM409.77,49.23c18-9.7,41-15.27,61.38-12,12.52,2,23.46,7.6,31.47,16.25a61.92,61.92,0,0,0-11-5.21,103.83,103.83,0,0,0-49.54-5.13,82.14,82.14,0,0,0-41.16,18.12,73.92,73.92,0,0,0-14,15.67C384,81.38,380,87.64,379.09,93.42l-2.41-1C380.41,73.2,392.65,58.46,409.77,49.23ZM72.13,107.57c15.71-8.59,35-7.65,51.83-3,17,4.71,30.62,14,39.23,29.13l-1.83,1.12C142.25,119.09,115.9,107,90.83,109,77.4,110,63.75,115.12,53.61,124A55.82,55.82,0,0,1,72.13,107.57Zm-28,39.18a53.08,53.08,0,0,1,4.58-14.47c11.22-12.89,28.08-20,45.45-20.2,24.35-.33,44.55,11.7,63.9,24.86-3,2-5.9,4.06-8.65,6.29-3.14-3.73-10.56-4.83-14.81-5.17-10.14-.82-19.93,2.68-26.49,10.6a34.85,34.85,0,0,0-7.46,26.82c.83,6.57,4.07,19.88,12,21.69-2.55,6.27-4.86,12.63-7.08,19C69.31,215.53,38,184.3,44.12,146.75Zm100.22.84a100.87,100.87,0,0,0-17.77,21.52,175.89,175.89,0,0,0-11.09,21.39c-10.28-6.51-9.54-25.65-3.65-34.74a22.63,22.63,0,0,1,13.93-10.06C129.8,144.81,140.35,143.91,144.34,147.59Zm354.31,79.69-12.68-4c-3.26-1-5.84,2.79-4.3,5.59a401,401,0,0,1,45.22,133.35,91.92,91.92,0,0,0-19.52-15c-2.36-1.35-5.93.33-5.72,3.29a435.46,435.46,0,0,1-8.79,123.34q-3.48-11.74-7-23.5c-1-3.3-6.77-3.93-7.33,0a269.6,269.6,0,0,1-23.18,77.16,162.78,162.78,0,0,1,1.4-20.3c.51-3.86-5.29-4.89-7-1.9-27.32,47.29-82.55,62.89-133.59,69a42.85,42.85,0,0,0,5.19-14.3c.44-2.53-1.69-5.78-4.65-4.65-22.32,8.5-46.79,17-71,13.33-19.3-3-37.7-13.66-45.64-32.08-1.46-3.39-7.4-1.72-7,1.9l1.62,15.63c-50.47-15.28-63.7-75.15-69-121.35-.45-3.9-6.33-5.47-7.4-1q-3.21,13.46-6.43,26.91c-19.25-34.67-9.14-76.77.36-113.35.91-3.49-3.69-6.53-6.28-3.65a85.29,85.29,0,0,0-9.19,12.16,262.14,262.14,0,0,1-2.27-52.35,2.13,2.13,0,0,0,1.67-2.4A124,124,0,0,1,96,283.66a276.61,276.61,0,0,1,4.88-27.91,3.48,3.48,0,0,0-.19-2.22c1.35-5.49,2.9-10.95,4.61-16.35,1.51-4.74,3.07-9.5,4.7-14.24a4,4,0,0,0,1.32-3.8,306.91,306.91,0,0,1,14.2-34.25c8.16-16.43,19-31.23,34.62-41.26C176,133.47,193.82,125.85,211,118.22,247.14,102.1,286.22,88.6,326.36,90,364,91.27,398.11,108,425.94,132.83,455.85,159.48,477.76,193.39,498.65,227.28ZM390.46,98.61a3.6,3.6,0,0,0,.31-1.3c.5-10.84,14.09-14.94,23-16a49.91,49.91,0,0,1,28.67,5.16c4.56,2.41,8,5.24,9.43,10.39,1.3,4.59,1,9.87,1.27,14.61.6,10.21,1.33,21.58-7.62,28.56a3.46,3.46,0,0,0-.57.58C428.84,123.69,410.93,109,390.46,98.61Zm78.88,71.16c-6.2-8.21-12.67-16.19-19.5-23.77l.14-.08c11-8.46,11.41-21.57,10.61-34.41-.41-6.66,0-13.87-2.8-20.1-2.45-5.52-7.24-9.14-12.54-11.75a56.64,56.64,0,0,0-39.22-4c-9.62,2.51-21.3,8.94-21.62,20-1.05-.47-2.11-.93-3.17-1.38,2.41-4.44,3.84-9.54,6.55-13.89a70.07,70.07,0,0,1,12.52-14.89A77.57,77.57,0,0,1,436.9,47.32c14.82-3,30.36-2,45,1.76,7.32,1.92,14.76,4.4,21,8.75a28.82,28.82,0,0,1,8.85,9.62,54.45,54.45,0,0,1,2,5.28,82.63,82.63,0,0,1-3.19,58.54C502.12,149.89,487.37,161.46,469.34,169.77Z"/><path class="cls-5" d="M202.14,194.23a3.26,3.26,0,0,0-6.37-.87c-3.68,12.2-2.86,26.63-14.83,34.6-13.72,9.15-34.27-.07-31.6-17.81.39-2.54-3.32-4.79-4.61-1.94C136,227.54,158.7,242,175.81,238,194.22,233.62,202.9,211.56,202.14,194.23Z"/><path class="cls-5" d="M380.72,160.57c-3.2,6.8-4.14,14.66-6.72,21.75-3.11,8.51-8.06,12.71-17.14,13.87-19.44,2.49-24-16-26.82-30.94-.58-3-5.31-2.27-5.3.72.07,18.41,9.3,38.88,30.66,37.67,8.41-.47,17.69-3.61,22.26-11.14,2.63-4.36,4.16-9.64,5.63-14.47,1.55-5.08,3.32-10.62,2.91-16C386,159.43,382.08,157.7,380.72,160.57Z"/><path class="cls-5" d="M366.92,230c-.05-2.88-4.07-4.14-5.54-1.5-2.4,4.32-3.66,9.13-6.15,13.43a51.83,51.83,0,0,1-9.13,11.6,50,50,0,0,1-27.94,13.64c-19.57,2.49-38.72-7.91-49.24-24.1,3.77-1.68,7.2-4.16,8.23-7.52,2-6.37-6.22-9.72-11.06-11-6.47-1.72-15.8-1.55-21.16,3a9,9,0,0,0-1.4,1.51c-3.46,3.45-6.26,8.93-2.13,12.84,2.87,2.72,7.42,3.85,11.84,4.07a31.37,31.37,0,0,1-4.76,12.65c-4.56,6.58-11.67,11.79-18.85,15.15-15.84,7.39-31.47,3.93-44.22-7.35-2.5-2.23-7,.68-4.9,3.78a31.49,31.49,0,0,0,13,10.91c0,36,4.71,72.45,10.76,107.86,5.12,30,12.93,62.48,38.85,81.49,12.41,9.1,27.06,12.11,42.24,11.44,15-.65,30.68-3.14,42.89-12.49a59.38,59.38,0,0,0,7.24-6.58,3.65,3.65,0,0,0,3.49-4.09c15.92-20.44,17.69-49.53,18.4-74.75C358.55,343.6,355,302.69,346,263.29c1.21-.91,2.39-1.85,3.53-2.85C357.67,253.34,367.15,241.34,366.92,230Zm-53.58,44.81c-1,10.85-2.33,21.66-4,32.43-4-11.18-6.05-23-10.11-34.14A53.86,53.86,0,0,0,313.34,274.77ZM219,302.19c-1.61-5.74-2.65-11.69-4.19-17.46a49.7,49.7,0,0,0,12.81-2.55c-1.9,9.85-3.84,19.69-5.67,29.54C220.88,308.57,219.88,305.4,219,302.19Zm40.88,168.87A171,171,0,0,1,257.08,441c6.65,11.2,13.34,22.4,20.27,33.42A59.83,59.83,0,0,1,259.86,471.06Zm59.22-4.81c-.13-5.36-.87-10.79-1.08-16q-.27-6.56-.28-13.11,6.13,10.25,12.38,20.42A47,47,0,0,1,319.08,466.25Zm30.71-84.4c-.16,9.95-.66,19.9-1.77,29.74-1.59,14-5.11,28.11-13.1,39.84-5.77-9.54-11.69-19-17.52-28.5a3.54,3.54,0,0,0-6.55,1.77c-.17,8.51-.1,17,.29,25.51.28,6.11.18,13,1.48,19.16a66.88,66.88,0,0,1-16.75,4.18c-3.36.42-6.76.73-10.15.88-9.2-15.89-19.07-31.44-28.72-47.05a3.48,3.48,0,0,0-6.43,1.74,148.34,148.34,0,0,0,2.77,39c-.68-.37-1.36-.75-2-1.15-13.18-8.06-21.77-20.18-27.68-33.82,12.25-11,21.81-24.81,34.25-35.62,12.11-10.51,31.33-15.62,46.88-9.93-5.34,6.37-8.93,14.26-12.08,21.93-1.15,2.8,3.41,4.62,4.84,2,4.93-8.9,10.05-19.12,18.71-25C325.11,380.61,339.14,379.67,349.79,381.85Z"/><path class="cls-5" d="M422.93,235.74c19.4,11.39,31.08,29.34,40,49.38.35.79,1.5.2,1.34-.56-4.66-21.83-21.76-39.42-40.62-50.07A.72.72,0,0,0,422.93,235.74Z"/><path class="cls-5" d="M438.59,280.13c7.15,8.22,10.6,17.58,13.55,27.9a.75.75,0,0,0,1.47-.2c-.5-11.08-6.28-21.07-13.69-29C439.09,277.9,437.8,279.22,438.59,280.13Z"/><path class="cls-5" d="M440.22,328.15c8.53,27.89,10.37,57.18,7.35,86.1-.13,1.25,2,1.55,2.21.3,4.86-29.29,1.68-58.86-7.49-87C441.86,326.27,439.82,326.82,440.22,328.15Z"/><path class="cls-5" d="M160.75,323.32c.41-1.05-1.26-1.49-1.67-.47-10.41,26.15-16.82,58.25-10.5,86.21a.59.59,0,0,0,1.16-.15c-.44-14.31-1.49-28.24.19-42.55A173.67,173.67,0,0,1,160.75,323.32Z"/><path class="cls-5" d="M163.85,386.66c.18-1-1.3-1.48-1.58-.44-4.87,17.63-5.36,37.89.28,55.4a.74.74,0,0,0,1.43-.39C161.18,422.57,160.53,405.32,163.85,386.66Z"/><path class="cls-5" d="M173.24,448a.86.86,0,0,0-1.72,0c-.51,15.73,3.91,31.53,14.37,43.54.58.66,1.69-.2,1.22-.94C178.91,477.51,173.53,463.51,173.24,448Z"/><path class="cls-5" d="M255.61,531.72c-13.25-5.12-24.73-11.47-33.2-23.3-.56-.78-1.86-.05-1.31.77,7.79,11.57,19.9,21.84,34.07,24.14A.84.84,0,0,0,255.61,531.72Z"/><path class="cls-5" d="M416.09,442c-1.53,21.91-6.21,41.7-19,59.81-.5.72.6,1.51,1.19.92,15.69-15.34,18.82-39.93,20.15-60.73C418.48,440.54,416.19,440.55,416.09,442Z"/><path class="cls-5" d="M340.83,118.78a41.37,41.37,0,0,0,10.85,5.63,25.46,25.46,0,0,0,6.11,1.6c1.21.22,2.44.41,3.69.52a1.36,1.36,0,0,0,.95-2.31,35.6,35.6,0,0,0-21.19-9.07,1.08,1.08,0,0,0-.82,1.75A1.4,1.4,0,0,0,340.83,118.78Z"/><path class="cls-5" d="M154.4,172.93c4.19,1,7.55-.93,10.89-3.34.91-.65,1.81-1.33,2.69-2a5.66,5.66,0,0,0,2.3-1.56,1.05,1.05,0,0,0,.2-.48q2.93-2.49,5.66-5.2a1.44,1.44,0,0,0-1-2.44c-7.47.59-13.15,5.13-18.59,9.9a1.23,1.23,0,0,0-.35.46c-.82.76-1.62,1.55-2.4,2.39A1.39,1.39,0,0,0,154.4,172.93Z"/></svg>