<svg id="Layer_1" data-name="Layer 1" xmlns="http://www.w3.org/2000/svg" viewBox="0 0 600 600"><defs><style>.cls-1{fill:#be1e2d;}.cls-2{fill:#f7941e;}.cls-3{fill:#88e0ff;}.cls-4{fill:#fff;}.cls-5{fill:#231f20;}</style></defs><title>doodle</title><path class="cls-1" d="M214.41,275.2c37.4,7.36,75.86,8.47,113.85,6.63,18.72-.9,37.4-2.54,56-4.56,4.81-.52,9.88-.68,14.6-1.71,5-1.09,6.45-4.78,8-9.29,0-.1.06-.19.09-.29a613.07,613.07,0,0,1-122.41,3.16q-30-2.17-59.69-7.21c-10.57-1.79-25-3.43-32.07-12.45a40,40,0,0,0,1,12.57C196.19,271.44,206.1,273.56,214.41,275.2Z"/><path class="cls-2" d="M160.13,423.62c-1.2,8.29-3,17.06-2.31,25.49.86,10.05,7.81,17.23,18.38,14.48,9.5-2.47,14.91-11.53,19.25-19.59a4,4,0,0,1,.27-.4c-2-52.3-3.09-104.8-1.73-157.1-8.05,14.18-11.74,30.83-15.73,46.44q-7.55,29.52-13,59.5Q162.4,408,160.13,423.62Z"/><path class="cls-3" d="M195.74,225.64c8.33,2.84,16.58,5.43,24.94,7.63-1.88-20.34.34-41.76,2.26-61.92,1.82-19,3.13-39.8,9.58-57.92,2.6-7.3,6.54-15.87,13.43-20.11,5.5-3.39,12.24-2.72,16.33,2.4,4.23,5.3,4.19,12.81,4,19.22q-.51,13.66-1.11,27.31c11.59-2.77,24.12-3.48,35.86-3.83a230.55,230.55,0,0,1,36.67,2c2.12-14.07,8.39-29.18,19.67-38,5-3.92,11.46-5.25,16.95-1.46,6.14,4.24,7.39,12,7.15,18.92-.7,20.32-2.67,40.67-4,61q-2,30.12-4.11,60.24l8.28-.37c4.94-.25,9.88-.52,14.82-.84,3.81-.25,7.3-.31,10.48-2.64a3.38,3.38,0,0,1,1-.49c24.6-35.83,32.41-82,19.78-123.74-3.18-10.52-7.43-21-14.56-29.57-6.13-7.33-13.56-13.7-21-19.66a194.85,194.85,0,0,0-51.92-30.12c-35.5-13.53-75.2-14.43-109.25,3.76-31.74,17-55.67,47.56-62.79,83-7.39,36.8,3.08,76.42,27.42,104.92A3,3,0,0,1,195.74,225.64Zm212.1-44.2c-.73,1.27-2.44.35-2.22-.94,1.11-6.48,2.88-12.32,2.38-19a.88.88,0,0,1,1.73-.23C411,167.73,411.27,175.52,407.84,181.44Zm-45.71-115c17.51,7.17,32.45,17.69,40.57,35.26,6.89,14.92,10.63,35,6.56,51.23a1.2,1.2,0,0,1-2.35-.32c-.42-8.27.27-16.48-.73-24.74a84.08,84.08,0,0,0-6.57-24.37,62.83,62.83,0,0,0-13.36-19.39c-7.15-6.93-16.08-11.61-24.45-16.88C361.41,67,361.67,66.27,362.13,66.46Z"/><path class="cls-2" d="M367.79,367c-1.79,8.64-5.69,13-14.67,14-12,1.37-24.4,1.3-36.5,1.74-24.78.9-49.95,2.31-74.74,1.26-7.31-.31-15.37-1.4-21.23-6.17-7.21-5.88-7.42-14.89-6.88-23.48,1.45-23.42,2.08-47.32,5.12-70.63-6.14-1-12.46-2.17-18.12-4.58a3.7,3.7,0,0,1,.29,1.47h0a.68.68,0,0,1,0,.14,1.23,1.23,0,0,1,0,.27c0,30.13-.25,60.25.18,90.38q1.17,80.9,6.44,161.68c.46,6.89.9,13.79,1.43,20.68.46,5.81,1,12.47,5,17,5.12,5.73,12.31,4,16-2.22,3.09-5.22,3.08-11.82,3.49-17.68q2.81-39.78,5.52-79.55a71.88,71.88,0,0,1-19.28-9.72c-2.18-1.6-.93-5.94,2-4.76,9.48,3.84,18.7,7.68,28.72,9.94a154.1,154.1,0,0,0,31.09,3.55A313,313,0,0,0,314.81,469c10.29-.89,20.63-1.29,30.35-4.94,3.23-1.21,4.83,3.09,3,5.23a14.37,14.37,0,0,1-6,4.1c1.84,30.58,5.68,60.84,13,90.63,1.37,5.63,2.21,15.26,7.56,18.66,7.23,4.59,11.4-7.16,12.83-12.32,3.44-12.42,2.86-26.16,3.49-38.94q2-41.32,4.11-82.65,4.14-82.2,8.5-164.37c-5,.56-10,1.09-14.94,1.59A446.73,446.73,0,0,1,367.79,367Z"/><path class="cls-1" d="M389.54,248.39q-14.82.86-29.66,1.31-29.67.9-59.36.23c-34.6-.79-73.06-2.24-105.12-17-.53,2.58-1.07,5.23-1.54,7.91a2.73,2.73,0,0,1,1,.91c4.3,6.38,11.06,9,18.32,10.69,8.16,1.84,16.54,3,24.82,4.19q28.2,4.13,56.72,5.59a655.34,655.34,0,0,0,112.38-4.07,3.63,3.63,0,0,1,1.54.12,45.39,45.39,0,0,0-.27-12.8C402.88,248.49,395.68,248,389.54,248.39Z"/><path class="cls-2" d="M400.12,283.42l-.45.08q-2.7,53-5.46,105.89l-.87,16.74c10.2,16.27,18.45,36.57,34.21,48,7.57,5.48,23.49,11.23,28.07-.9,4.14-11-4.95-24.49-9.11-34.28a1010.11,1010.11,0,0,1-46.45-133.2A3.79,3.79,0,0,1,400.12,283.42Z"/><path class="cls-4" d="M246.53,182a1.64,1.64,0,0,0,1,1.88c1.09.24,2.17-1.08,2.07-2.08a2.46,2.46,0,0,0-.64-1.37C247.85,180.71,246.77,181.15,246.53,182Z"/><path class="cls-4" d="M256.92,101.13c-5.69-9.06-14.49,7.47-16.38,12.08-2.72,6.65-4.15,13.76-5.34,20.82-2.93,17.3-4.94,34.77-6.28,52.27-1.23,16.1-.88,32.38-2.3,48.44,6.39,1.52,12.88,2.77,19.53,3.69,17.25,2.39,34.69,3.13,52.08,3.5q28,.6,55.95-.16c3.79-.1,7.59-.24,11.38-.38,2-31.36,4.27-62.72,6.45-94.08.56-8.09,1.19-16.18,1.69-24.28.35-5.78-.19-21.56-10.32-15.73-5.89,3.39-10.08,10.79-13,16.71a58.93,58.93,0,0,0-5.74,20.6,3.84,3.84,0,0,1-4.75,3.62,239.07,239.07,0,0,0-40-2.46c-13.05.27-25.7,2.52-38.64,3.73a2.5,2.5,0,0,1-2.06-.67,3.26,3.26,0,0,1-1.76-3.19c.32-8.4.7-16.81,1.06-25.21C258.71,114.61,260.23,106.42,256.92,101.13Zm-9.67,89.52c-4.67-.26-8-5-7.23-9.47.56-3.15,2.79-4.86,5.47-5.66a2.91,2.91,0,0,1,1.87-2c5.06-1.82,9.36,4.42,9.14,8.86A8.93,8.93,0,0,1,247.25,190.65Zm75.37-7.56a8,8,0,0,1,2.36-4.46,9,9,0,0,1,8.22-2.25c5.69,1.41,8.28,8.75,5.08,13.52-3.36,5-11.65,4.93-14.76-.32A8.89,8.89,0,0,1,322.62,183.09ZM275,191c.61-2.94,5.36-2.25,5.21.71-.18,3.63-.15,7.27,0,10.9.07,1.82-.38,3,1.38,3.69a5.93,5.93,0,0,0,3.74-.21c7-2.28,5.94-9.28,6.46-15.05.24-2.7,3.95-4.21,5.44-1.48,4.8,8.82-1.55,21.23-11.1,23.3-4.21.91-10,0-11.86-4.49C272.24,203.41,274,196,275,191Z"/><path class="cls-1" d="M229.94,378.38c8.54,2.72,18.14,1.86,27,1.77q32.18-.31,64.31-1.66c10.48-.44,21.22-.39,31.63-1.66,3.58-.43,6.06-1.05,8.25-4.06,1.87-2.57,2.26-4.9,2.88-8q1.57-7.83,2.84-15.7a457.27,457.27,0,0,0,5.67-62.69C334,290.16,295.19,292,256.6,288.72q-16.11-1.38-32.07-4.07l-2.7-.44c-.11,23.36-2.91,46.86-4.3,70.15C216.88,365.18,218.49,374.73,229.94,378.38Zm49.21-35.82c-.29,1.72-.57,3.45-.85,5.17-.21,1.27-.2,3-1.06,4.06-1.5,1.83-5.15,1-7.2,1-2.33,0-4.13-.33-4.26-3a55.44,55.44,0,0,1,.5-9.89c.11-.8.85-.86,1.39-.53a1.57,1.57,0,0,1,.74-.21,24.15,24.15,0,0,1,9.64,1.48A1.64,1.64,0,0,1,279.15,342.56Zm30.58,10.23a1.63,1.63,0,0,1-1.54,1.17c-2.71.05-5.43.13-8.14.14-1.51,0-3,0-4.2-1.08-2.85-2.5-.5-6.36-.24-9.42a1.62,1.62,0,0,1,1.51-2.15l7.33,0c1.38,0,3.12-.25,4.26.74C311.25,344.35,310.4,350,309.73,352.79Zm7.45-30.57c1.25-11.08,14-19.63,24.64-16.05a.64.64,0,0,1,.42.46,16.43,16.43,0,0,1,9.29,13c1.49,11.21-3.2,24.72-16.56,23.55C324.59,342.29,316,332.73,317.18,322.22Zm-54.35-8.66a7.51,7.51,0,0,1,.47-2.66,1.81,1.81,0,0,1,1.72-1.31c13,1,26.07,2.29,39.11,3.44,2.89.26,5.87-.13,6.9,2.94.7,2.11.19,4.83.18,7q0,5.25-.07,10.5a1.77,1.77,0,0,1-1.76,1.77q-22.54-1.89-45.18-2.36a1.55,1.55,0,0,1-1.51-1.52A86.18,86.18,0,0,1,262.83,313.56ZM234.07,309c4.22-1.27,9.24-.17,13.44.85a1.8,1.8,0,0,1,1.3,1.71c-.11,5.66.77,12.48-.57,18-.93,3.8-4.07,5.77-7.93,5.4-3.39-.33-8.21-1.95-8.77-5.78-.76-5.23.63-12.47,2.11-17.73A1.42,1.42,0,0,1,234.07,309Zm-2.72,33.39a1.55,1.55,0,0,1,1.25,0c4.82-1.26,10.39-.37,15.28-.16a1.64,1.64,0,0,1,1.61,1.61q0,6.87.07,13.76a1.71,1.71,0,0,1-1.69,1.69c-5.62.24-11.24.49-16.86.7a1.72,1.72,0,0,1-1.67-1.27C228.72,354.57,226.22,344.59,231.35,342.36Z"/><path class="cls-4" d="M268.46,342.32c.11,1.46.16,2.92.19,4.39,0,.41-.25,2.87,0,3.06s1.71,0,2.22,0a18.64,18.64,0,0,0,3,0c.54.25.89.15,1-.3s.18-1.15.26-1.73c.23-1.51.47-3,.7-4.53A22,22,0,0,0,268.46,342.32Z"/><path class="cls-4" d="M332.22,185.82a2,2,0,0,0-.7-2.36,1.57,1.57,0,0,0-1.63.48,4.76,4.76,0,0,0-.23.56,1.35,1.35,0,0,0,.12,1.42A1.89,1.89,0,0,0,332.22,185.82Z"/><path class="cls-4" d="M336.27,325.3c1.85,0,3.41-2.28,2.33-3.93-1-1.45-2.51-1.06-3.9-1.58a3,3,0,0,0,1.57,5.51Z"/><path class="cls-4" d="M305.37,344.67c-2.47-.14-5,0-7.47,0a6.77,6.77,0,0,1,0,1.49c-.13,1.19-.82,2.72-.34,3.88.6,1.45,3.55.85,4.9.82l4.43-.1a13.48,13.48,0,0,0,.18-3.7C306.91,345.5,307,344.77,305.37,344.67Z"/><path class="cls-4" d="M333,339.39c21,4.7,20-36.89-2-29.82a1.12,1.12,0,0,1-1.09-.21c-5.14,2.82-9.23,7.88-9.73,13.27C319.5,330.59,325.33,337.67,333,339.39Zm-2.18-18.29a5.27,5.27,0,0,1,3.37-3.42c2.35-2.65,6.94.45,7.83,3.14a6.06,6.06,0,0,1-5.79,7.67A5.94,5.94,0,0,1,330.84,321.1Z"/><path class="cls-4" d="M307.69,331.6c.27-4.3,1-11-1.23-13.51-2.47-2.76-9.81-2.14-13.51-2.47-8.92-.78-17.86-1.51-26.78-2.35a9.42,9.42,0,0,1-.76,1.18,1.52,1.52,0,0,1-.65.5c.31,5,.45,9.95.85,14.92Q286.69,330,307.69,331.6Z"/><path class="cls-4" d="M238.6,331c2.54.39,5.83-2.08,6.36-4.5a28.73,28.73,0,0,0,.1-5l.18-8.58c-3-.56-6.1-.6-9.12-1C235.46,317.35,232.42,330.09,238.6,331Z"/><path class="cls-4" d="M246.19,356q0-5.29.07-10.59a69.4,69.4,0,0,1-10.57-.74,1.71,1.71,0,0,1-.91.35,6.16,6.16,0,0,1-1.87-.17c-2.09,2.42-1.06,8.16-.45,11.65Q239.32,356.18,246.19,356Z"/><path class="cls-5" d="M160.91,377.26q-5.72,28.68-9.47,57.71c-1.62,12.56-1.83,29.14,12.08,34.85,13.34,5.48,25-2.76,32.72-13.19q.16,3.94.34,7.89c1.3,30.06,2.75,60.2,5.27,90.19.85,10.14,3.37,22.12,14.13,26.18,9.58,3.61,18.52-3.09,22-11.82,2.72-6.76,2.73-14.43,3.23-21.6q.9-12.62,1.78-25.24,1.72-24.35,3.47-48.67c12,3.06,24.67,4.14,36.33,4.39a318.58,318.58,0,0,0,36.54-1.73c4.5-.42,10.64-.3,16.32-1.18a430.28,430.28,0,0,0,11.25,86.56c2.36,10.27,4.19,27.2,17,29.65,11.37,2.16,17.23-12,19.31-20.78,3.17-13.36,2.73-27.74,3.48-41.38q1.26-23.3,2.53-46.57,1.74-32.08,3.4-64.18c6.32,12.47,13.56,24.92,22.94,34.86s27.86,20.64,40.94,10.73c15.95-12.09,2.07-35.31-3.59-48.95q-12.57-30.3-23.4-61.3c-8.11-23.1-15.26-46.49-22-70a3.66,3.66,0,0,0-1.59-2.18,12.94,12.94,0,0,0,1.2-.78c3.42-2.54,5.16-6.58,6.61-10.46a49.77,49.77,0,0,0,1.34-30.1c23.39-33.58,31.71-76.65,23.56-116.67-4.47-21.88-13.39-41-30-56.15a210.23,210.23,0,0,0-52.3-35.42c-37-17.36-79.77-22.58-118.08-6.38-34.79,14.72-63,44.65-74.29,80.84-13.08,41.88-2.84,89.52,25.55,122.76A72.26,72.26,0,0,0,186.06,259c.57,6.47,3,12,7.6,15.91-10.08,12.85-14.75,28.54-19,44.14Q166.74,347.92,160.91,377.26Zm222.27,71.5q-2.08,41.33-4.11,82.65c-.63,12.78-.05,26.52-3.49,38.94-1.43,5.16-5.6,16.91-12.83,12.32-5.35-3.4-6.19-13-7.56-18.66-7.29-29.79-11.13-60.05-13-90.63a14.37,14.37,0,0,0,6-4.1c1.78-2.14.18-6.44-3-5.23-9.72,3.65-20.06,4.05-30.35,4.94a313,313,0,0,1-33.12,1.39,154.1,154.1,0,0,1-31.09-3.55c-10-2.26-19.24-6.1-28.72-9.94-2.94-1.18-4.19,3.16-2,4.76a71.88,71.88,0,0,0,19.28,9.72q-2.75,39.78-5.52,79.55c-.41,5.86-.4,12.46-3.49,17.68-3.67,6.22-10.86,7.95-16,2.22-4.07-4.57-4.59-11.23-5-17-.53-6.89-1-13.79-1.43-20.68q-5.33-80.73-6.44-161.68c-.43-30.13-.15-60.25-.18-90.38a1.23,1.23,0,0,0,0-.27.68.68,0,0,0,0-.14h0a3.7,3.7,0,0,0-.29-1.47c5.66,2.41,12,3.58,18.12,4.58-3,23.31-3.67,47.21-5.12,70.63-.54,8.59-.33,17.6,6.88,23.48,5.86,4.77,13.92,5.86,21.23,6.17,24.79,1.05,50-.36,74.74-1.26,12.1-.44,24.47-.37,36.5-1.74,9-1,12.88-5.35,14.67-14a446.73,446.73,0,0,0,8.95-81c5-.5,10-1,14.94-1.59Q387.36,366.58,383.18,448.76ZM221.83,284.21l2.7.44q15.94,2.69,32.07,4.07c38.59,3.3,77.37,1.44,115.88-2.32a457.27,457.27,0,0,1-5.67,62.69q-1.28,7.88-2.84,15.7c-.62,3.08-1,5.41-2.88,8-2.19,3-4.67,3.63-8.25,4.06-10.41,1.27-21.15,1.22-31.63,1.66q-32.13,1.35-64.31,1.66c-8.82.09-18.42,1-27-1.77-11.45-3.65-13.06-13.2-12.41-24C218.92,331.07,221.72,307.57,221.83,284.21ZM446.51,418.92c4.16,9.79,13.25,23.32,9.11,34.28-4.58,12.13-20.5,6.38-28.07.9-15.76-11.4-24-31.7-34.21-48l.87-16.74q2.76-53,5.46-105.89l.45-.08a3.79,3.79,0,0,0-.06,2.3A1010.11,1010.11,0,0,0,446.51,418.92ZM408.68,258.26a3.63,3.63,0,0,0-1.54-.12,655.34,655.34,0,0,1-112.38,4.07q-28.47-1.5-56.72-5.59c-8.28-1.21-16.66-2.35-24.82-4.19-7.26-1.64-14-4.31-18.32-10.69a2.73,2.73,0,0,0-1-.91c.47-2.68,1-5.33,1.54-7.91,32.06,14.77,70.52,16.22,105.12,17q29.67.67,59.36-.23,14.85-.44,29.66-1.31c6.14-.36,13.34.1,18.87-2.93A45.39,45.39,0,0,1,408.68,258.26ZM259.17,148.83a2.5,2.5,0,0,0,2.06.67c12.94-1.21,25.59-3.46,38.64-3.73a239.07,239.07,0,0,1,40,2.46,3.84,3.84,0,0,0,4.75-3.62,58.93,58.93,0,0,1,5.74-20.6c2.93-5.92,7.12-13.32,13-16.71,10.13-5.83,10.67,10,10.32,15.73-.5,8.1-1.13,16.19-1.69,24.28-2.18,31.36-4.41,62.72-6.45,94.08-3.79.14-7.59.28-11.38.38q-28,.78-55.95.16c-17.39-.37-34.83-1.11-52.08-3.5-6.65-.92-13.14-2.17-19.53-3.69,1.42-16.06,1.07-32.34,2.3-48.44,1.34-17.5,3.35-35,6.28-52.27,1.19-7.06,2.62-14.17,5.34-20.82,1.89-4.61,10.69-21.14,16.38-12.08,3.31,5.29,1.79,13.48,1.55,19.3-.36,8.4-.74,16.81-1.06,25.21A3.26,3.26,0,0,0,259.17,148.83ZM168.1,120.41c7.12-35.44,31.05-66,62.79-83,34.05-18.19,73.75-17.29,109.25-3.76a194.85,194.85,0,0,1,51.92,30.12c7.45,6,14.88,12.33,21,19.66,7.13,8.52,11.38,19,14.56,29.57,12.63,41.75,4.82,87.91-19.78,123.74a3.38,3.38,0,0,0-1,.49c-3.18,2.33-6.67,2.39-10.48,2.64-4.94.32-9.88.59-14.82.84l-8.28.37q2.14-30.12,4.11-60.24c1.36-20.28,3.33-40.63,4-60.95.24-6.92-1-14.68-7.15-18.92-5.49-3.79-11.93-2.46-16.95,1.46-11.28,8.81-17.55,23.92-19.67,38a230.55,230.55,0,0,0-36.67-2c-11.74.35-24.27,1.06-35.86,3.83q.61-13.65,1.11-27.31c.24-6.41.28-13.92-4-19.22-4.09-5.12-10.83-5.79-16.33-2.4-6.89,4.24-10.83,12.81-13.43,20.11-6.45,18.12-7.76,38.9-9.58,57.92-1.92,20.16-4.14,41.58-2.26,61.92-8.36-2.2-16.61-4.79-24.94-7.63a3,3,0,0,0-.22-.31C171.18,196.83,160.71,157.21,168.1,120.41Zm24.68,129.07c7,9,21.5,10.66,32.07,12.45q29.66,5,59.69,7.21A613.07,613.07,0,0,0,407,266c0,.1-.05.19-.09.29-1.52,4.51-3,8.2-8,9.29-4.72,1-9.79,1.19-14.6,1.71-18.63,2-37.31,3.66-56,4.56-38,1.84-76.45.73-113.85-6.63-8.31-1.64-18.22-3.76-20.65-13.15A40,40,0,0,1,192.78,249.48Zm1.21,37c-1.36,52.3-.31,104.8,1.73,157.1a4,4,0,0,0-.27.4c-4.34,8.06-9.75,17.12-19.25,19.59-10.57,2.75-17.52-4.43-18.38-14.48-.72-8.43,1.11-17.2,2.31-25.49q2.26-15.63,5.1-31.18,5.46-30,13-59.5C182.25,317.33,185.94,300.68,194,286.5Z"/><path class="cls-5" d="M286.13,212.83c9.55-2.07,15.9-14.48,11.1-23.3-1.49-2.73-5.2-1.22-5.44,1.48-.52,5.77.58,12.77-6.46,15.05a5.93,5.93,0,0,1-3.74.21c-1.76-.71-1.31-1.87-1.38-3.69-.14-3.63-.17-7.27,0-10.9.15-3-4.6-3.65-5.21-.71-1,5-2.77,12.44-.74,17.37C276.1,212.8,281.92,213.74,286.13,212.83Z"/><path class="cls-5" d="M338.28,189.9c3.2-4.77.61-12.11-5.08-13.52a9,9,0,0,0-8.22,2.25,8,8,0,0,0-2.36,4.46,8.89,8.89,0,0,0,.9,6.49C326.63,194.83,334.92,194.91,338.28,189.9Zm-8.62-5.4a4.76,4.76,0,0,1,.23-.56,1.57,1.57,0,0,1,1.63-.48,2,2,0,0,1,.7,2.36,1.89,1.89,0,0,1-2.44.1A1.35,1.35,0,0,1,329.66,184.5Z"/><path class="cls-5" d="M247.36,173.52a2.91,2.91,0,0,0-1.87,2c-2.68.8-4.91,2.51-5.47,5.66-.79,4.51,2.56,9.21,7.23,9.47a8.93,8.93,0,0,0,9.25-8.27C256.72,177.94,252.42,171.7,247.36,173.52Zm.17,10.38a1.64,1.64,0,0,1-1-1.88c.24-.87,1.32-1.31,2.43-1.57a2.46,2.46,0,0,1,.64,1.37C249.7,182.82,248.62,184.14,247.53,183.9Z"/><path class="cls-5" d="M361.8,67.25c8.37,5.27,17.3,10,24.45,16.88a62.83,62.83,0,0,1,13.36,19.39,84.08,84.08,0,0,1,6.57,24.37c1,8.26.31,16.47.73,24.74a1.2,1.2,0,0,0,2.35.32c4.07-16.2.33-36.31-6.56-51.23-8.12-17.57-23.06-28.09-40.57-35.26C361.67,66.27,361.41,67,361.8,67.25Z"/><path class="cls-5" d="M408,161.47c.5,6.71-1.27,12.55-2.38,19-.22,1.29,1.49,2.21,2.22.94,3.43-5.92,3.14-13.71,1.89-20.2A.88.88,0,0,0,408,161.47Z"/><path class="cls-5" d="M231.54,329.16c.56,3.83,5.38,5.45,8.77,5.78,3.86.37,7-1.6,7.93-5.4,1.34-5.53.46-12.35.57-18a1.8,1.8,0,0,0-1.3-1.71c-4.2-1-9.22-2.12-13.44-.85a1.42,1.42,0,0,0-.42,2.46C232.17,316.69,230.78,323.93,231.54,329.16Zm4.58-17.22c3,.41,6.08.45,9.12,1l-.18,8.58a28.73,28.73,0,0,1-.1,5c-.53,2.42-3.82,4.89-6.36,4.5C232.42,330.09,235.46,317.35,236.12,311.94Z"/><path class="cls-5" d="M335,343.21c13.36,1.17,18-12.34,16.56-23.55a16.43,16.43,0,0,0-9.29-13,.64.64,0,0,0-.42-.46c-10.68-3.58-23.39,5-24.64,16.05C316,332.73,324.59,342.29,335,343.21Zm-14.74-20.58c.5-5.39,4.59-10.45,9.73-13.27a1.12,1.12,0,0,0,1.09.21c21.93-7.07,23,34.52,2,29.82C325.33,337.67,319.5,330.59,320.23,322.63Z"/><path class="cls-5" d="M336.25,328.49a6.06,6.06,0,0,0,5.79-7.67c-.89-2.69-5.48-5.79-7.83-3.14a5.27,5.27,0,0,0-3.37,3.42A5.94,5.94,0,0,0,336.25,328.49Zm-2.79-6.88a3.13,3.13,0,0,1,1.24-1.82c1.39.52,2.94.13,3.9,1.58,1.08,1.65-.48,3.89-2.33,3.93A3.11,3.11,0,0,1,333.46,321.61Z"/><path class="cls-5" d="M264.2,332.89q22.64.44,45.18,2.36a1.77,1.77,0,0,0,1.76-1.77q0-5.25.07-10.5c0-2.18.52-4.9-.18-7-1-3.07-4-2.68-6.9-2.94-13-1.15-26.07-2.4-39.11-3.44a1.81,1.81,0,0,0-1.72,1.31,7.51,7.51,0,0,0-.47,2.66,86.18,86.18,0,0,0-.14,17.81A1.55,1.55,0,0,0,264.2,332.89Zm1.21-18.44a9.42,9.42,0,0,0,.76-1.18c8.92.84,17.86,1.57,26.78,2.35,3.7.33,11-.29,13.51,2.47,2.26,2.52,1.5,9.21,1.23,13.51q-21-1.62-42.08-1.73c-.4-5-.54-9.95-.85-14.92A1.52,1.52,0,0,0,265.41,314.45Z"/><path class="cls-5" d="M278.05,340.62a24.15,24.15,0,0,0-9.64-1.48,1.57,1.57,0,0,0-.74.21c-.54-.33-1.28-.27-1.39.53a55.44,55.44,0,0,0-.5,9.89c.13,2.66,1.93,3,4.26,3,2,0,5.7.86,7.2-1,.86-1.05.85-2.79,1.06-4.06.28-1.72.56-3.45.85-5.17A1.64,1.64,0,0,0,278.05,340.62Zm-2.87,7.15c-.08.58-.17,1.16-.26,1.73s-.5.55-1,.3a18.64,18.64,0,0,1-3,0c-.51,0-1.83.24-2.22,0s0-2.65,0-3.06c0-1.47-.08-2.93-.19-4.39a22,22,0,0,1,7.42.92C275.65,344.75,275.41,346.26,275.18,347.77Z"/><path class="cls-5" d="M304.45,341.43l-7.33,0a1.62,1.62,0,0,0-1.51,2.15c-.26,3.06-2.61,6.92.24,9.42,1.19,1.05,2.69,1.08,4.2,1.08,2.71,0,5.43-.09,8.14-.14a1.63,1.63,0,0,0,1.54-1.17c.67-2.75,1.52-8.44-1-10.62C307.57,341.18,305.83,341.43,304.45,341.43Zm2.43,9.37-4.43.1c-1.35,0-4.3.63-4.9-.82-.48-1.16.21-2.69.34-3.88a6.77,6.77,0,0,0,0-1.49c2.48,0,5-.18,7.47,0,1.6.1,1.54.83,1.69,2.43A13.48,13.48,0,0,1,306.88,350.8Z"/><path class="cls-5" d="M231,360c5.62-.21,11.24-.46,16.86-.7a1.71,1.71,0,0,0,1.69-1.69q0-6.88-.07-13.76a1.64,1.64,0,0,0-1.61-1.61c-4.89-.21-10.46-1.1-15.28.16a1.55,1.55,0,0,0-1.25,0c-5.13,2.23-2.63,12.21-2,16.34A1.72,1.72,0,0,0,231,360Zm1.9-15.17a6.16,6.16,0,0,0,1.87.17,1.71,1.71,0,0,0,.91-.35,69.4,69.4,0,0,0,10.57.74q0,5.29-.07,10.59-6.87.24-13.73.5C231.85,353,230.82,347.22,232.91,344.8Z"/></svg>