<svg id="Layer_1" data-name="Layer 1" xmlns="http://www.w3.org/2000/svg" viewBox="0 0 600 600"><defs><style>.cls-1{fill:#fff;}.cls-2{fill:#be1e2d;}.cls-3{fill:#fff200;}.cls-4{fill:#231f20;}</style></defs><title>doodle</title><path class="cls-1" d="M210.17,263.08c-18.46,1.91-37-3.91-53.1-13a203.7,203.7,0,0,1-24.68-16.82c-7-5.48-13.78-11.44-19.12-18.65a52.39,52.39,0,0,1-6.47-11.46c-.52-1.3-.91-3.55-2.94-3.53-.76,0-2.43,1.29-3.22,1.73-2.43,1.37-4.82,2.82-7.23,4.23-8.42,4.92-16.87,9.79-25.15,14.93-16.12,10-31.85,21.31-43.84,36.21a40.26,40.26,0,0,0-4.64,6.3c-.93,1.81-1.21,1.36.51,2a9.85,9.85,0,0,0,4.22.21c4.92-.44,9.73-2.6,14.24-4.47a182.94,182.94,0,0,0,28.52-15.1c2.65-1.71,5.53,2.17,3.32,4.3q-12.31,11.91-23.71,24.69c-6.85,7.72-14.75,15.87-18,25.89-.39,1.2-1.66,4.35-.05,5.29.57.33,2-.07,2.61-.21,2.5-.59,4.83-2.17,7-3.46A116.93,116.93,0,0,0,51.65,293c8.22-6.55,15.74-13.91,23.24-21.26,2.13-2.08,6,.71,4.22,3.26-5.51,7.87-11,15.8-15.33,24.42a72.86,72.86,0,0,0-5.15,13.28,46.16,46.16,0,0,0-1.42,6.88c-.46,4.05,2.64,4.71,5.8,3.13,4.26-2.15,7.46-6.36,10.64-9.79q5.22-5.62,10.43-11.26l21.45-23.14c1.85-2,5.24.09,4.5,2.62-2.51,8.66-4.68,17.41-6.45,26.25-.88,4.41-1.77,8.85-2.36,13.31-.45,3.34-1.17,8.17,1.44,10.86,5.85,6,17.31-5.09,21.48-8.71A121.64,121.64,0,0,0,141,304.88c1.8-2.35,5.68-1.07,4.94,2.09a126.45,126.45,0,0,0-3.43,28.41c0,6.73-.66,16.43,3.93,22,3.07,3.73,8.06,3.1,11.48.13,3.22-2.78,4.56-7,5.4-11,1.56-7.45,1.63-15,5.51-21.74,1.39-2.41,4.71-1.16,4.92,1.33q.67,8.25,1.34,16.51c.15,1.81-.22,6.17.86,7.63,1.47,2,3.35,1,4.3-.58a11.52,11.52,0,0,0,1.26-3.37,2.58,2.58,0,0,1,.41-.9,95.66,95.66,0,0,1-2-13.1c-.89-10.85-.1-23.3,4-34C187.59,283.81,197.74,271.93,210.17,263.08Zm-98.11,2.59c-2.87,2.78-7.81,1.59-10.36-1.15a8.88,8.88,0,0,1-2.21-6.27,11,11,0,0,1,.43-2.68c.18-.61,1.85-3.19,1.79-3.46-.24-1.15-3.75-1.06-5.08-2.11a8,8,0,0,1-2.79-5.69c-.46-4.87,1.3-12.44,5.58-15.22a.31.31,0,0,1,.45.34c-.87,4.66-3.73,8.42-3.69,13.41l.28,2.58,4,3.42c.58.15,1.4-.25,2-.14a2.59,2.59,0,0,1,1.77.8c1.77,2-.72,4-1.46,5.8-1.14,2.7-.94,6,1.44,7.95,2.08,1.74,4.43,1.29,6.84.72A1,1,0,0,1,112.06,265.67Zm64.36,30.78c-2.07,4.94-8,5.32-10.59,1.41-2.28,2.42-5.3,4.19-8.64,2.44s-5-6.32-5.95-10.19c-2.57,2.54-5.54,4.79-9.31,4.81a7.37,7.37,0,0,1-7.45-5.17c-2.62-8.62,1-22.57,7.17-29,.38-.4,1.16,0,1,.55-2.55,6.83-5.51,12.61-5.94,20.07-.23,3.95-.77,10.26,4.67,10.75,4.1.38,7.25-3.22,9.75-5.9a1.41,1.41,0,0,1,2.34.62,28.76,28.76,0,0,0,1.91,6.53,14.27,14.27,0,0,0,1.09,2.22l5.31,2.1c1.18-.23,2.6-2.3,3.24-3.2a1.43,1.43,0,0,1,2.58.34q1.13,5,6.47.59C174.76,294.18,177,295.06,176.42,296.45Z"/><path class="cls-2" d="M368.25,387.39c0-3.21-2.39-5.7-4.74-7.58a50.32,50.32,0,0,0-15.2-7.91c-11.24-3.83-23.19-4.71-35-4.83a311.85,311.85,0,0,0-39.6,2.06c-13.43,1.57-26.51,4.56-39.76,7.1a80.59,80.59,0,0,0,9.72,11.16,68.67,68.67,0,0,0,23.08,14.71c8.56,3.22,16.87,3.58,25.86,4.15.58-2,3.05-3.43,4.66-1.37,2.47,3.18,5.93,4.9,10,4.16a3,3,0,0,1,3.7,2.82c0,7.68,7.74,11.11,13.71,6.73,1.51-1.1,3.93,0,4.32,1.76,1.38,6.07,4.49,12,10.48,14.62a12.22,12.22,0,0,0,15.79-5c3.53-5.73,3.29-12.74,3-19.22s-.66-12.76-1-19.15c-.16-2.9,4.16-4.05,5.49-1.49C364.73,393.9,368.28,390.17,368.25,387.39Z"/><path class="cls-1" d="M218.62,301.27c-2-.62-3,1.38-3.78,2.83a.88.88,0,0,0,.07.23c.62,1.6,3.49,2.5,4.64,1C220.42,304.17,220.13,301.75,218.62,301.27Z"/><path class="cls-1" d="M362,294.53a10,10,0,0,0-2.19.19,6.15,6.15,0,0,0-.18,3.42c.74,2.62,3.34,1.81,4.93.25C366.66,296.34,364.1,294.62,362,294.53Z"/><path class="cls-3" d="M375,273.24a104.58,104.58,0,0,0-63.22-30.41c-14.66-1.45-29.2,1.68-43.5,4.5-13.09,2.59-26.25,5.55-38.58,10.76-14.07,6-27.34,15.81-35.45,28.68a1.68,1.68,0,0,1-.1.72c-3.17,8.23-6.49,16.05-7.92,24.84a2.54,2.54,0,0,0,0,.29c0,.32,0,.63,0,.95a2,2,0,0,1-.22.92,83.67,83.67,0,0,0,.53,24.88c5.27,31.17,26.58,59.69,50,80.06,12.61,11,28.48,16.05,45,17.1a139.67,139.67,0,0,0,24-.68c7.46-.8,14.76-2.5,22.15-3.63a29.28,29.28,0,0,1-3.26-6.73A14.1,14.1,0,0,1,305.45,415a15.36,15.36,0,0,1-10.89-4.4,2.23,2.23,0,0,1-1.22.63c-10.33,2.13-22-.86-31.53-4.94a75.53,75.53,0,0,1-26.1-18.94A93,93,0,0,1,218.64,360c-.91-2.23-5.54-15.59-3.36-20.33a2.13,2.13,0,0,1,2-2c12.48-1.58,25.58-.79,38.14-.89,12.14-.11,24.27-.14,36.41-.21q37.26-.19,74.54-.31a2.93,2.93,0,0,1,2.9,2.9,77.78,77.78,0,0,1-8.94,29.95,2.75,2.75,0,0,1-.88,1C367,374,375,379.83,374.16,388.56c-.51,5.53-5.85,9.5-10.6,8.93.35,4.78.76,9.63.85,14.44a73.75,73.75,0,0,0,25-25.72c7.65-13.44,9.67-28.71,10.16-44,.45-14-.76-28.11-6-41.18A85.75,85.75,0,0,0,375,273.24ZM225.16,396.11c1.32,1,2.65,2,4,3a22.14,22.14,0,0,1,3.75,2.84.62.62,0,0,1-.6,1c-3-.86-5.8-3.79-7.81-6C224.14,396.52,224.66,395.73,225.16,396.11Zm-7.62-10.58a.62.62,0,0,1-1,.75C210.15,379.6,206,370.77,203,362.1c-3.1-9-5.14-19.05-4.45-28.6a.55.55,0,0,1,1.09,0c1.08,9.35,2.31,18.34,5.41,27.27S213,377.39,217.54,385.53Zm5.73-76.17c-4,3.94-11.16,2-13.17-3-1.83-4.58,1.72-10.23,6.46-10.6a7.53,7.53,0,0,1,4.67.54C226.05,298.59,227,305.66,223.27,309.36Zm100.22-53.2c-.58-.14-.32-1,.25-.88,13.91,2.26,30.33,9,38.33,21.3.36.57-.4,1.4-1,1-5.66-4.29-10.7-9.21-16.86-12.85A76.94,76.94,0,0,0,323.49,256.16ZM364.06,305c-6.39,2-10.59-3.53-9.84-9.55a2.15,2.15,0,0,1-.69-3.46,13,13,0,0,1,6.13-2.89,4.92,4.92,0,0,1,1-.14,9.64,9.64,0,0,1,8.93,3.55C373.4,297.52,369.28,303.33,364.06,305Zm27.53,18c0,.66-1,.86-1.19.16a108.92,108.92,0,0,0-3.11-13c-1.58-4.69-4.06-8.81-6.22-13.23a.4.4,0,0,1,.62-.48C388.27,302.91,392.09,313.86,391.59,323Z"/><path class="cls-1" d="M579.29,237.09c-2.46-1.74-5-3.36-7.61-4.88a105,105,0,0,0-16.33-7.81,108.5,108.5,0,0,0-36.11-6.92,2.78,2.78,0,0,1-.73-5.43c11.17-3.31,22.73-2.59,34.23-2.24a101.15,101.15,0,0,0,17.83-.56,47.93,47.93,0,0,0,8.52-2.08c1.88-.64,3-.19,1.61-2.21a7.55,7.55,0,0,0-3.05-1.88c-4.66-2-10.14-2.49-15.09-3.38q-8.41-1.51-16.84-2.88c-11.77-1.9-23.59-3.67-35.47-4.8-11.47-1.08-23.06-1.54-34.53-.26-5.7.64-13.76.68-16.87,6.28-1.93,3.46-3,7.49-4.67,11.09a106.77,106.77,0,0,1-33.06,40.13c-12.07,9-27.71,17-43.25,18.25a101.88,101.88,0,0,1,8.14,9,88.06,88.06,0,0,1,16.41,31.94,94.15,94.15,0,0,1,2,9.44c3,6.25,6,12.55,10,18.21,2.81,4,12.44,16,17.83,11.64s5.18-12.49,4.87-18.6c-.44-8.44-1.4-16.87-2.13-25.29-.24-2.75,3.78-3.59,5-1.37a166.61,166.61,0,0,0,11.16,17.26c2.56,3.45,9.62,15,15.29,13.18s.81-17.7-.18-21.3a190.22,190.22,0,0,0-7-19.64c-1-2.49,2.94-4.81,4.6-2.68A127.89,127.89,0,0,0,482.76,309c5.43,4.57,16,14.52,23.89,11.62,8.41-3.09,3.73-17.21,1.85-23.13A78.8,78.8,0,0,0,496.13,274c-1.71-2.26,1.55-5.1,3.75-3.75,8.66,5.29,17.43,10.72,27.13,13.92a51.46,51.46,0,0,0,15.44,2.76c4.28.06,11.46-.1,14.95-3,5.23-4.36-16.62-17.78-20.26-19.93a117,117,0,0,0-26-11.34c-2.82-.86-2.41-5.67.73-5.34,21.76,2.27,50.86,14.76,70.06-1.79C586.08,241.92,582.37,239.28,579.29,237.09Zm-127.1,49.68c-2.17,1.88-5.65,2.7-8.41,3a12.55,12.55,0,0,1-4.53-.15c-1.31-.34-2.42-1.54-3.63-1.82-2-.48-5.13,4.06-7.21,4.92a11.87,11.87,0,0,1-6.89.73c-5.77-1.13-9.75-6.25-10.74-11.84a.49.49,0,0,1,1-.26c2.28,5.48,7,11.12,13.64,9.8,3.12-.63,4.54-2.3,6.3-4.7.59-.79.89-1.33,1.87-1.64,1.33-.41,2.19.26,3.36.8,3.35,1.52,5.34,2,9.07,1.05s6.3-3.19,5.82-7.35a30.21,30.21,0,0,0-2.46-8.08c-.54-1.3,1.56-2.09,2.22-.94C454,274.7,456.77,282.79,452.19,286.77Zm26.16-53.43c-1.27,5.48-6.28,8.11-11.26,7.31A10.75,10.75,0,0,1,461.25,254c-7,3.17-14-.47-18.17-6.2-.39-.54.48-1.2.91-.71,3.53,4,8.76,6.93,14.2,5.54,6-1.53,9.13-8.12,5.36-13.35-.81-1.12.71-2.19,1.72-1.72,6.34,3,12.79-2.91,10.07-9.39-1.52-3.64-5.11-5.88-8.46-7.66-1.4-.74-.33-2.53,1-2.34a25.58,25.58,0,0,0,5.59.45c3.22-.24,6.15-2.14,6.8-5.58.53-2.84-3.33-8.81-6.63-10,0,.15-.07.31-.1.47-.27,1.18-1.87.78-2-.26l-.15-1.7a1.28,1.28,0,0,1,1.26-1.27c5.72,0,11.1,9.06,10,14.34-1.07,5-5.62,6.36-10.15,6.42C476.41,224,479.55,228.14,478.35,233.34Zm25,5.48c-.37,3.61-2.59,7-5.84,7.1a8.17,8.17,0,0,1-2,8c-3.95,4.3-10.47,3.37-15.38,1.52a.59.59,0,0,1,.31-1.14c3.48.65,7.09,1.31,10.48,0s6.3-5.77,3.47-9.21a1.23,1.23,0,0,1,1.48-1.93c6.6,3.27,4.85-8.44,4-10.41-1-2.28-2.74-3.78-4.19-5.73a1,1,0,0,1,1.1-1.43C501.61,227.5,503.89,233.93,503.38,238.82Z"/><path class="cls-4" d="M581.46,231.9A111.6,111.6,0,0,0,561.67,221a113.91,113.91,0,0,0-17.87-5.88c3.73.1,7.47.28,11.2.38a98.19,98.19,0,0,0,15.62-.62c4.62-.62,10.38-1.43,14.32-4.09,3.25-2.2,3.19-5.52,1-8.46-2.61-3.54-7-5.14-11.11-6.11-11.83-2.76-24.05-4.42-36.06-6.21-24.18-3.61-49.53-7.19-73.77-2-4.25.91-7.82,2.45-10.21,6.24-2.66,4.22-3.91,9.42-6.1,13.9a100.7,100.7,0,0,1-16.37,23.94,102.53,102.53,0,0,1-25.83,20.31C396.43,258,384.69,262.73,373,263a111.56,111.56,0,0,0-49.19-24.32c-15.59-3.33-30.72-2-46.23,1-14.83,2.86-29.8,5.77-44,11.07a106.1,106.1,0,0,0-13.23,6,2.37,2.37,0,0,0-1.67-.17c-23.64,5.52-47.06-3.4-66.76-16.15a177.26,177.26,0,0,1-25.87-19.83,66.45,66.45,0,0,1-10-11.66,47.7,47.7,0,0,1-3.38-6.05c-1-2.19-1.52-4.91-3.08-6.82-2.6-3.18-6.49-2.36-9.72-.7-5.64,2.9-11,6.42-16.51,9.62-8.91,5.21-17.81,10.45-26.41,16.16a195.46,195.46,0,0,0-23.81,18.27,122.93,122.93,0,0,0-10.83,11.18c-2.91,3.42-7.15,7.72-8.78,12s1.58,7.07,5.63,7.9c5.65,1.16,11.43-.66,16.66-2.65a174,174,0,0,0,16.65-7.37c-5.42,5.72-10.7,11.58-15.78,17.61-3.93,4.68-7.81,9.54-10.57,15-2,3.92-5.09,10.1-3.06,14.51,5,10.92,24.26-3.22,38.88-16.17a100.51,100.51,0,0,0-5.61,11.35c-2.47,6-9.63,23,.27,26,10.09,3.11,19.25-10.36,24.89-16.44L102,290.26c-2.09,8.19-3.87,16.46-5.28,24.81-1.22,7.26-3.3,17.75,4.6,22.14,7.64,4.25,16.32-2.24,22.08-6.78A122.85,122.85,0,0,0,138.67,316a129.23,129.23,0,0,0-1.49,25.25c.32,7.46.85,17.23,7.6,22s15.54,1.12,19.81-5.24c3.55-5.27,4.14-11.48,5-17.6.09,1,.17,2,.25,3,.3,3.66.1,8.34,2.56,11.36,3.94,4.86,8.59,2.32,11.52-1.65a120.65,120.65,0,0,0,11.69,26.16c8.72,14.72,20,28.11,32.28,40a78.19,78.19,0,0,0,44.22,21.92,125.33,125.33,0,0,0,28.12.72c10.17-.82,21.2-2,30.85-5.55a20.92,20.92,0,0,0,4,3c6.21,3.56,14.2,3.75,20.09-.55s8.38-11.41,9-18.37c0-.55.08-1.11.11-1.66,24.18-12.25,37.75-37,40.53-63.38a168.36,168.36,0,0,0,.95-22.94A70.73,70.73,0,0,0,412.93,343c4.22,5,12.85,13.73,20.12,10.57,6.76-2.93,9.09-11.43,9.49-18.1a120,120,0,0,0-.94-20.08c3,4.56,6.24,9,9.69,13.25,3.94,4.86,10.54,12.26,17.65,9.09,6.82-3,5.5-12.31,4.62-18.23a88.67,88.67,0,0,0-3.75-15.08,127.5,127.5,0,0,0,14.37,12.68c6.95,5.26,17.68,13.19,26.6,7.61,7.73-4.85,6.35-15.39,4.56-22.95A81.11,81.11,0,0,0,507.25,281c7.68,4.37,15.68,8.21,24.35,10.1a50,50,0,0,0,17.79.82c4.45-.63,11.27-1.81,13.78-6.12,2.37-4.07-.21-8.55-3.07-11.55-4.16-4.38-9.52-8.08-14.52-11.43-3.22-2.15-6.54-4.11-9.94-5.93,7.56,1.43,15.14,2.55,22.86,2.2a50.66,50.66,0,0,0,18.41-4c4.49-2,10.92-5.44,12.51-10.45C591.26,238.78,585.58,234.76,581.46,231.9ZM183.85,298.22c-4.07,10.75-4.86,23.2-4,34a95.66,95.66,0,0,0,2,13.1,2.58,2.58,0,0,0-.41.9,11.52,11.52,0,0,1-1.26,3.37c-.95,1.59-2.83,2.56-4.3.58-1.08-1.46-.71-5.82-.86-7.63q-.66-8.26-1.34-16.51c-.21-2.49-3.53-3.74-4.92-1.33-3.88,6.77-4,14.29-5.51,21.74-.84,4-2.18,8.26-5.4,11-3.42,3-8.41,3.6-11.48-.13-4.59-5.59-4-15.29-3.93-22A126.45,126.45,0,0,1,145.91,307c.74-3.16-3.14-4.44-4.94-2.09a121.64,121.64,0,0,1-16.83,17.94c-4.17,3.62-15.63,14.73-21.48,8.71-2.61-2.69-1.89-7.52-1.44-10.86.59-4.46,1.48-8.9,2.36-13.31,1.77-8.84,3.94-17.59,6.45-26.25.74-2.53-2.65-4.61-4.5-2.62L84.08,301.63q-5.2,5.64-10.43,11.26c-3.18,3.43-6.38,7.64-10.64,9.79-3.16,1.58-6.26.92-5.8-3.13a46.16,46.16,0,0,1,1.42-6.88,72.86,72.86,0,0,1,5.15-13.28c4.3-8.62,9.82-16.55,15.33-24.42,1.79-2.55-2.09-5.34-4.22-3.26-7.5,7.35-15,14.71-23.24,21.26a116.93,116.93,0,0,1-13.23,9.19c-2.18,1.29-4.51,2.87-7,3.46-.58.14-2,.54-2.61.21-1.61-.94-.34-4.09.05-5.29,3.28-10,11.18-18.17,18-25.89Q58.25,261.86,70.59,250c2.21-2.13-.67-6-3.32-4.3a182.94,182.94,0,0,1-28.52,15.1c-4.51,1.87-9.32,4-14.24,4.47a9.85,9.85,0,0,1-4.22-.21c-1.72-.69-1.44-.24-.51-2a40.26,40.26,0,0,1,4.64-6.3c12-14.9,27.72-26.18,43.84-36.21,8.28-5.14,16.73-10,25.15-14.93,2.41-1.41,4.8-2.86,7.23-4.23.79-.44,2.46-1.72,3.22-1.73,2,0,2.42,2.23,2.94,3.53a52.39,52.39,0,0,0,6.47,11.46c5.34,7.21,12.07,13.17,19.12,18.65A203.7,203.7,0,0,0,157.07,250c16.14,9.14,34.64,15,53.1,13C197.74,271.93,187.59,283.81,183.85,298.22Zm173.44,93.42c.35,6.39.72,12.77,1,19.15s.53,13.49-3,19.22a12.22,12.22,0,0,1-15.79,5c-6-2.58-9.1-8.55-10.48-14.62-.39-1.72-2.81-2.86-4.32-1.76-6,4.38-13.75,1-13.71-6.73a3,3,0,0,0-3.7-2.82c-4.08.74-7.54-1-10-4.16-1.61-2.06-4.08-.66-4.66,1.37-9-.57-17.3-.93-25.86-4.15a68.67,68.67,0,0,1-23.08-14.71A80.59,80.59,0,0,1,234,376.23c13.25-2.54,26.33-5.53,39.76-7.1a311.85,311.85,0,0,1,39.6-2.06c11.79.12,23.74,1,35,4.83a50.32,50.32,0,0,1,15.2,7.91c2.35,1.88,4.71,4.37,4.74,7.58,0,2.78-3.52,6.51-5.47,2.76C361.45,387.59,357.13,388.74,357.29,391.64Zm42.28-49.39c-.49,15.25-2.51,30.52-10.16,44a73.75,73.75,0,0,1-25,25.72c-.09-4.81-.5-9.66-.85-14.44,4.75.57,10.09-3.4,10.6-8.93.81-8.73-7.2-14.61-14.71-18.38a2.75,2.75,0,0,0,.88-1,77.78,77.78,0,0,0,8.94-29.95,2.93,2.93,0,0,0-2.9-2.9q-37.28.14-74.54.31c-12.14.07-24.27.1-36.41.21-12.56.1-25.66-.69-38.14.89a2.13,2.13,0,0,0-2,2c-2.18,4.74,2.45,18.1,3.36,20.33a93,93,0,0,0,17.07,27.31,75.53,75.53,0,0,0,26.1,18.94c9.5,4.08,21.2,7.07,31.53,4.94a2.23,2.23,0,0,0,1.22-.63,15.36,15.36,0,0,0,10.89,4.4,14.1,14.1,0,0,0,18.93,10.51,29.28,29.28,0,0,0,3.26,6.73c-7.39,1.13-14.69,2.83-22.15,3.63a139.67,139.67,0,0,1-24,.68c-16.5-1-32.37-6.14-45-17.1-23.43-20.37-44.74-48.89-50-80.06a83.67,83.67,0,0,1-.53-24.88,2,2,0,0,0,.22-.92c0-.32,0-.63,0-.95a2.54,2.54,0,0,1,0-.29c1.43-8.79,4.75-16.61,7.92-24.84a1.68,1.68,0,0,0,.1-.72c8.11-12.87,21.38-22.73,35.45-28.68,12.33-5.21,25.49-8.17,38.58-10.76,14.3-2.82,28.84-6,43.5-4.5A104.58,104.58,0,0,1,375,273.24a85.75,85.75,0,0,1,18.53,27.83C398.81,314.14,400,328.28,399.57,342.25ZM582,245.47c-19.2,16.55-48.3,4.06-70.06,1.79-3.14-.33-3.55,4.48-.73,5.34a117,117,0,0,1,26,11.34c3.64,2.15,25.49,15.57,20.26,19.93-3.49,2.91-10.67,3.07-14.95,3A51.46,51.46,0,0,1,527,284.12c-9.7-3.2-18.47-8.63-27.13-13.92-2.2-1.35-5.46,1.49-3.75,3.75A78.8,78.8,0,0,1,508.5,297.5c1.88,5.92,6.56,20-1.85,23.13-7.88,2.9-18.46-7.05-23.89-11.62a127.89,127.89,0,0,1-18.85-19.72c-1.66-2.13-5.59.19-4.6,2.68a190.22,190.22,0,0,1,7,19.64c1,3.6,5.81,19.46.18,21.3s-12.73-9.73-15.29-13.18A166.61,166.61,0,0,1,440,302.47c-1.26-2.22-5.28-1.38-5,1.37.73,8.42,1.69,16.85,2.13,25.29.31,6.11.37,14.35-4.87,18.6s-15-7.68-17.83-11.64c-4-5.66-7.05-12-10-18.21a94.15,94.15,0,0,0-2-9.44A88.06,88.06,0,0,0,386,276.5a101.88,101.88,0,0,0-8.14-9c15.54-1.21,31.18-9.25,43.25-18.25a106.77,106.77,0,0,0,33.06-40.13c1.67-3.6,2.74-7.63,4.67-11.09,3.11-5.6,11.17-5.64,16.87-6.28,11.47-1.28,23.06-.82,34.53.26,11.88,1.13,23.7,2.9,35.47,4.8q8.43,1.37,16.84,2.88c5,.89,10.43,1.35,15.09,3.38A7.55,7.55,0,0,1,580.7,205c1.41,2,.27,1.57-1.61,2.21a47.93,47.93,0,0,1-8.52,2.08,101.15,101.15,0,0,1-17.83.56c-11.5-.35-23.06-1.07-34.23,2.24a2.78,2.78,0,0,0,.73,5.43,108.5,108.5,0,0,1,36.11,6.92,105,105,0,0,1,16.33,7.81c2.6,1.52,5.15,3.14,7.61,4.88C582.37,239.28,586.08,241.92,582,245.47Z"/><path class="cls-4" d="M221.23,296.3a7.53,7.53,0,0,0-4.67-.54c-4.74.37-8.29,6-6.46,10.6,2,5,9.2,6.94,13.17,3C227,305.66,226.05,298.59,221.23,296.3Zm-1.68,9c-1.15,1.51-4,.61-4.64-1a.88.88,0,0,1-.07-.23c.75-1.45,1.83-3.45,3.78-2.83C220.13,301.75,220.42,304.17,219.55,305.32Z"/><path class="cls-4" d="M360.66,288.92a4.92,4.92,0,0,0-1,.14,13,13,0,0,0-6.13,2.89,2.15,2.15,0,0,0,.69,3.46c-.75,6,3.45,11.54,9.84,9.55,5.22-1.63,9.34-7.44,5.53-12.49A9.64,9.64,0,0,0,360.66,288.92Zm3.91,9.47c-1.59,1.56-4.19,2.37-4.93-.25a6.15,6.15,0,0,1,.18-3.42,10,10,0,0,1,2.19-.19C364.1,294.62,366.66,296.34,364.57,298.39Z"/><path class="cls-4" d="M111.07,264c-2.41.57-4.76,1-6.84-.72-2.38-2-2.58-5.25-1.44-7.95.74-1.78,3.23-3.84,1.46-5.8a2.59,2.59,0,0,0-1.77-.8c-.64-.11-1.46.29-2,.14l-4-3.42-.28-2.58c0-5,2.82-8.75,3.69-13.41a.31.31,0,0,0-.45-.34c-4.28,2.78-6,10.35-5.58,15.22A8,8,0,0,0,96.63,250c1.33,1.05,4.84,1,5.08,2.11.06.27-1.61,2.85-1.79,3.46a11,11,0,0,0-.43,2.68,8.88,8.88,0,0,0,2.21,6.27c2.55,2.74,7.49,3.93,10.36,1.15A1,1,0,0,0,111.07,264Z"/><path class="cls-4" d="M174,295.44q-5.34,4.37-6.47-.59a1.43,1.43,0,0,0-2.58-.34c-.64.9-2.06,3-3.24,3.2l-5.31-2.1a14.27,14.27,0,0,1-1.09-2.22,28.76,28.76,0,0,1-1.91-6.53,1.41,1.41,0,0,0-2.34-.62c-2.5,2.68-5.65,6.28-9.75,5.9-5.44-.49-4.9-6.8-4.67-10.75.43-7.46,3.39-13.24,5.94-20.07.2-.55-.58-.95-1-.55-6.21,6.41-9.79,20.36-7.17,29a7.37,7.37,0,0,0,7.45,5.17c3.77,0,6.74-2.27,9.31-4.81.91,3.87,2.57,8.42,5.95,10.19s6.36,0,8.64-2.44c2.6,3.91,8.52,3.53,10.59-1.41C177,295.06,174.76,294.18,174,295.44Z"/><path class="cls-4" d="M449.33,271.26a30.21,30.21,0,0,1,2.46,8.08c.48,4.16-2.1,6.37-5.82,7.35s-5.72.47-9.07-1.05c-1.17-.54-2-1.21-3.36-.8-1,.31-1.28.85-1.87,1.64-1.76,2.4-3.18,4.07-6.3,4.7-6.65,1.32-11.36-4.32-13.64-9.8a.49.49,0,0,0-1,.26c1,5.59,5,10.71,10.74,11.84a11.87,11.87,0,0,0,6.89-.73c2.08-.86,5.22-5.4,7.21-4.92,1.21.28,2.32,1.48,3.63,1.82a12.55,12.55,0,0,0,4.53.15c2.76-.33,6.24-1.15,8.41-3,4.58-4,1.85-12.07-.64-16.45C450.89,269.17,448.79,270,449.33,271.26Z"/><path class="cls-4" d="M472.48,221c4.53-.06,9.08-1.38,10.15-6.42,1.13-5.28-4.25-14.29-10-14.34a1.28,1.28,0,0,0-1.26,1.27l.15,1.7c.1,1,1.7,1.44,2,.26,0-.16.07-.32.1-.47,3.3,1.19,7.16,7.16,6.63,10-.65,3.44-3.58,5.34-6.8,5.58a25.58,25.58,0,0,1-5.59-.45c-1.31-.19-2.38,1.6-1,2.34,3.35,1.78,6.94,4,8.46,7.66,2.72,6.48-3.73,12.37-10.07,9.39-1-.47-2.53.6-1.72,1.72,3.77,5.23.6,11.82-5.36,13.35-5.44,1.39-10.67-1.56-14.2-5.54-.43-.49-1.3.17-.91.71,4.19,5.73,11.19,9.37,18.17,6.2a10.75,10.75,0,0,0,5.84-13.31c5,.8,10-1.83,11.26-7.31C479.55,228.14,476.41,224,472.48,221Z"/><path class="cls-4" d="M496.78,225.54a1,1,0,0,0-1.1,1.43c1.45,1.95,3.2,3.45,4.19,5.73.85,2,2.6,13.68-4,10.41a1.23,1.23,0,0,0-1.48,1.93c2.83,3.44-.08,7.85-3.47,9.21s-7,.69-10.48,0a.59.59,0,0,0-.31,1.14c4.91,1.85,11.43,2.78,15.38-1.52a8.17,8.17,0,0,0,2-8c3.25-.12,5.47-3.49,5.84-7.1C503.89,233.93,501.61,227.5,496.78,225.54Z"/><path class="cls-4" d="M362.07,276.58c-8-12.3-24.42-19-38.33-21.3-.57-.1-.83.74-.25.88a76.94,76.94,0,0,1,20.75,8.54c6.16,3.64,11.2,8.56,16.86,12.85C361.67,278,362.43,277.15,362.07,276.58Z"/><path class="cls-4" d="M381.07,296.92c2.16,4.42,4.64,8.54,6.22,13.23a108.92,108.92,0,0,1,3.11,13c.15.7,1.15.5,1.19-.16.5-9.11-3.32-20.06-9.9-26.53A.4.4,0,0,0,381.07,296.92Z"/><path class="cls-4" d="M199.65,333.5a.55.55,0,0,0-1.09,0c-.69,9.55,1.35,19.62,4.45,28.6,3,8.67,7.14,17.5,13.56,24.18a.62.62,0,0,0,1-.75c-4.55-8.14-9.4-15.88-12.48-24.76S200.73,342.85,199.65,333.5Z"/><path class="cls-4" d="M232.33,403a.62.62,0,0,0,.6-1,22.14,22.14,0,0,0-3.75-2.84c-1.37-1-2.7-2-4-3-.5-.38-1,.41-.64.83C226.53,399.19,229.34,402.12,232.33,403Z"/></svg>