<svg id="Layer_1" data-name="Layer 1" xmlns="http://www.w3.org/2000/svg" viewBox="0 0 600 600"><defs><style>.cls-1{fill:#fff;}.cls-2{fill:#00aeef;}.cls-3{fill:#88e0ff;}.cls-4{fill:#231f20;}</style></defs><title>doodle</title><path class="cls-1" d="M379.71,248.9a4.14,4.14,0,0,1-.45.07,10.83,10.83,0,0,0-1.49,3.41c-.47,2.11-.55,3.7,1.44,4.7a8.36,8.36,0,0,0,6.13.46c3.18-1.25,4.85-7.15,2.12-9.64C384.92,245.59,382.2,248.33,379.71,248.9Z"/><path class="cls-2" d="M412.42,171.3a513.85,513.85,0,0,0-10.94-78.1q-4.22-19.08-10-37.76c-3-9.56-6-27.6-16.89-31.42-15-5.26-13.42,22.57-14.15,31.09q-1.79,20.86-2.57,41.8c-1.06,28.34-.56,56.59.06,84.93.08,3.57-3.62,4.45-5.88,2.9a.7.7,0,0,1-.14,0c-12.93,1.76-26,1.48-38.92,3.73-6.36,1.11-12.63,2.59-18.93,4-3.85.86-7.78,1.53-11.34-.07a4.25,4.25,0,0,1-4.77-3.87A771.61,771.61,0,0,0,259.11,99q-6-21.81-13.14-43.24c-2.37-7.1-4.73-14.25-7.38-21.25-1.5-4-3.39-8.38-6.74-10.92-4.69,22.15-3,45.19-2.44,67.68.67,24.8,1.58,49.6,2,74.41,1.46,82.15-5.27,163.82-29.31,242.74-11.35,37.26-25.84,74.12-44.6,108.31-4.7,8.56-9.66,17-14.51,25.48-2.4,4.2-5.87,12,1.77,10.67,3.59-.61,6.66-2.66,9.58-4.71,14.21-10,25.25-23.11,34.7-37.47a102.42,102.42,0,0,1-11.1-3.17,2.58,2.58,0,0,1,.68-5c13.18-.65,26.35,1.48,39.43,2.92,12.77,1.41,25.56,2.61,38.35,3.85q19.8,1.91,39.63,3.36c6.42.46,12.83.89,19.25,1.33,5.66.39,11.49.19,16.64,2.76,3.62,1.8,2.2,6.8-1,8-3.94,1.42-8.4,1.28-12.76.9-4.22,14.46-8.53,29.38-10.74,44.3-.8,5.36,0,12.91,5.93,5.61,4.48-5.47,8-12.13,11.68-18.16A493,493,0,0,0,362.84,480c18.62-47.91,31.2-98.2,39.88-148.8C411.76,278.49,415.83,224.72,412.42,171.3ZM249.92,206c-1.16.78-3.22.53-3.44-1.1q-5-37-9.82-74.06c-.8-6-1.71-12-2.32-18-.45-4.48-1.75-10.9.27-15.19,2.88-6.12,7.79-1.3,9.39,2.73,8.86,22.35,14.9,46.28,19,69.94q1.21,7.08,2.15,14.21c.58,4.36,2.3,10.1.94,14.46C264.07,205.37,255.87,206.59,249.92,206Zm31.75,70c-7.14,6.25-19,3.47-22.26-5.54a13.11,13.11,0,0,1,1.85-12.62c.26-.32.54-.63.84-.94a11.17,11.17,0,0,1,2.4-3.46c4-3.83,9.57-3.48,14-.68,4.17,2.66,7.26,6.46,7.75,11.49A14.13,14.13,0,0,1,281.67,276Zm79.09,28.57a21.51,21.51,0,0,1-6.55-.13,52.81,52.81,0,0,1-3.58,24A19.82,19.82,0,0,1,330.53,341c-8.63-.48-17-3.67-20.23-12.19-2.15-5.61-4-14-3.31-21.12-3.35.84-6.74,1-9.66-.18-1.31-.55-2.33-2.42-.94-3.56,4.57-3.78,11.24-4.62,16.5-7.37a52.92,52.92,0,0,0,15.88-13,4.18,4.18,0,0,1,5.86,0,43.91,43.91,0,0,0,12.86,9.29c4.58,2.18,9.7,2.59,14.16,4.83C364.37,299.09,363.94,304.09,360.76,304.56Zm4.15-222.88c.12-5.16.5-13.16,6-15.61,5.1-2.25,9.09,2,11.05,6.25,3.77,8.31,5.24,18.36,7.08,27.25,4,19.21,7,39.16,7.63,58.79a112.89,112.89,0,0,1-.43,14.94c-.19,1.82-.19,4.21-1.5,5.66-2.15,2.38-6.87,2.25-9.75,2.75s-5.9.91-8.88,1.16a2.17,2.17,0,0,1-3.89-1.1c-1.95-23.63-3.73-47.27-5.51-70.91C366,101.21,364.68,91.37,364.91,81.68Zm26.54,184.26c-8.56,5.26-23.22.7-23.5-10.4-.17-6.43,4.21-13.84,10.32-15.93a10.48,10.48,0,0,1,4-2.24,12.83,12.83,0,0,1,11.87,2.75C401.65,247,400,260.66,391.45,265.94Z"/><path class="cls-3" d="M427.46,326.3A179.59,179.59,0,0,1,418,302.17q-2,15.45-4.65,30.82a4.74,4.74,0,0,1,1,1.32c5.52,11.14,9.94,21,19.72,29.29a60.51,60.51,0,0,0,27.39,13.17c-3.35-8.54-11.57-15.63-16.86-22.58A158,158,0,0,1,427.46,326.3Z"/><path class="cls-3" d="M387.27,177.38c3.46-.72,4.32-1.38,5.06-5.22a45,45,0,0,0,.32-8,225.68,225.68,0,0,0-2.14-27.72c-2.35-19.34-5.65-38.73-11-57.49-.47-1.65-1-5.08-2.36-6.37q-7-1.82-7.32,3.09l-.45,3.83a90.61,90.61,0,0,0,.38,13.38c.73,10,1.53,20,2.29,30q2.19,28.62,4.23,57.24C379.89,179,383.56,178.16,387.27,177.38Z"/><path class="cls-3" d="M256.19,157.93A407.47,407.47,0,0,0,241.77,107c-.27-.77-2.21-7.22-3.46-6.86-.56.16-.15,7.25-.11,8,.23,4.4.87,8.78,1.45,13.14q1.83,13.86,3.68,27.71,3.66,27.47,7.29,54.93c4.61-.71,10.9-2.24,11.91-6.93.91-4.25-1.08-9.84-1.74-14.12Q258.86,170.32,256.19,157.93Z"/><path class="cls-1" d="M273.13,261.89c-1.89-1.24-1.88-.63-3.42,1-.58.62-1.12,1.29-1.69,1.91a4.88,4.88,0,0,0,.19,1.26c.71,2.56,4.18,4.35,6.42,2.29S275.2,263.27,273.13,261.89Z"/><path class="cls-1" d="M314.57,304.89c1.28,4.74,1.36,10,2.4,14.69.63,2.83,1.21,6.81,3.3,9a10.78,10.78,0,0,0,5.47,2.64c-.19-7.33,0-14.69.11-22,0-3.54-.11-7.54.29-11.39a54.11,54.11,0,0,1-9.12,5.87C316.25,304.08,315.43,304.48,314.57,304.89Z"/><path class="cls-1" d="M334.92,309.21c.07,7.42.31,14.88.1,22.31,10.78-2.83,9.56-19.45,10-30.16a59.44,59.44,0,0,1-11-7.16C335.14,299.07,334.88,304.53,334.92,309.21Z"/><path class="cls-3" d="M211.38,324.81c-9.06,13.16-21.27,24.68-32.15,35.42-4.57,4.52-9.17,9-13.73,13.52-.94.94-2,1.85-2.85,2.86-1.22,1.42-2.67,1.13.45,1.79s6.55-.39,9.5-1.41a110.3,110.3,0,0,0,18.49-8.73c4.55-2.58,8.78-6.17,13.56-8.31Q208.46,342.48,211.38,324.81Z"/><path class="cls-4" d="M278.47,252.75c-4.4-2.8-10-3.15-14,.68a11.17,11.17,0,0,0-2.4,3.46c-.3.31-.58.62-.84.94a13.11,13.11,0,0,0-1.85,12.62c3.22,9,15.12,11.79,22.26,5.54a14.13,14.13,0,0,0,4.55-11.75C285.73,259.21,282.64,255.41,278.47,252.75Zm-3.84,15.58c-2.24,2.06-5.71.27-6.42-2.29a4.88,4.88,0,0,1-.19-1.26c.57-.62,1.11-1.29,1.69-1.91,1.54-1.61,1.53-2.22,3.42-1C275.2,263.27,277,266.18,274.63,268.33Z"/><path class="cls-4" d="M382.28,237.37a10.48,10.48,0,0,0-4,2.24c-6.11,2.09-10.49,9.5-10.32,15.93.28,11.1,14.94,15.66,23.5,10.4s10.2-18.94,2.7-25.82A12.83,12.83,0,0,0,382.28,237.37Zm3.06,20.17a8.36,8.36,0,0,1-6.13-.46c-2-1-1.91-2.59-1.44-4.7a10.83,10.83,0,0,1,1.49-3.41,4.14,4.14,0,0,0,.45-.07c2.49-.57,5.21-3.31,7.75-1C390.19,250.39,388.52,256.29,385.34,257.54Z"/><path class="cls-4" d="M439,327.85a174.33,174.33,0,0,1-13.16-31.93c-2-6.49-3.42-13.13-4.87-19.75a660.33,660.33,0,0,0,2.82-91.46A523.58,523.58,0,0,0,413,97a441.36,441.36,0,0,0-11.82-44.19c-3.71-11.36-7.06-25.85-16.71-33.83-9.38-7.74-23.85-6.77-29.09,5.12-2.91,6.59-2.95,14.47-3.63,21.52Q350.45,59.28,349.58,73c-2.14,33.83-2.64,68.09.15,101.93-11-1.13-23,.93-33.8,2.69-9.41,1.53-18.54,4.52-27.87,6.24a746.74,746.74,0,0,0-21.18-96.62q-7-23.94-15.65-47.32c-4-10.91-8.67-24.14-21.36-27a4.66,4.66,0,0,0-5.6,3.18c-6.43,21.62-5.94,44.36-5.39,66.68.58,24,1.47,48,2,72,1,45.89.55,91.79-4.88,137.41-.51,4.34-1.08,8.68-1.67,13-8.08,11.44-16.21,22.48-25.89,32.77C178,349,166.54,359,156.31,370.27c-11.27,12.39,4.67,19.12,16,16.6,6.93-1.53,13.79-4.8,20.08-8,2.89-1.48,6-3,9-4.8q-5.25,21.84-11.95,43.3C176.72,458,160.12,499,137.83,535.41c-4.33,7.08-11.6,17.61-2.92,24.54,6.12,4.89,15.17,2.12,21.2-1.5a107.78,107.78,0,0,0,41.25-46.07c6,1.06,12.14,1.84,18.2,2.67,12.79,1.76,25.61,3.47,38.46,4.84s25.6,2.57,38.43,3.64q7.6.63,15.22,1.19a394.37,394.37,0,0,0-10.19,42.43c-1.51,8.77-.56,21.38,10.7,22.52,12.06,1.23,19.61-15.65,24.73-23.95q11.64-18.88,21.39-38.83c25.48-51.84,42-107.62,53.47-164.1.88-4.34,1.72-8.69,2.55-13,4.54,8.76,12,16.67,19,22.23a70.3,70.3,0,0,0,38.11,15,4.68,4.68,0,0,0,4.67-4.67c-1-10.18-6.77-17.71-13.18-25.3A169.56,169.56,0,0,1,439,327.85Zm-247.9,40.41A110.3,110.3,0,0,1,172.6,377c-2.95,1-6.36,2.08-9.5,1.41s-1.67-.37-.45-1.79c.86-1,1.91-1.92,2.85-2.86,4.56-4.52,9.16-9,13.73-13.52,10.88-10.74,23.09-22.26,32.15-35.42q-2.92,17.65-6.73,35.14C199.87,362.09,195.64,365.68,191.09,368.26Zm211.63-37.07C394,381.79,381.46,432.08,362.84,480A493,493,0,0,1,325,557.34c-3.67,6-7.2,12.69-11.68,18.16-6,7.3-6.73-.25-5.93-5.61,2.21-14.92,6.52-29.84,10.74-44.3,4.36.38,8.82.52,12.76-.9,3.24-1.17,4.66-6.17,1-8-5.15-2.57-11-2.37-16.64-2.76-6.42-.44-12.83-.87-19.25-1.33q-19.83-1.45-39.63-3.36c-12.79-1.24-25.58-2.44-38.35-3.85-13.08-1.44-26.25-3.57-39.43-2.92a2.58,2.58,0,0,0-.68,5,102.42,102.42,0,0,0,11.1,3.17c-9.45,14.36-20.49,27.51-34.7,37.47-2.92,2.05-6,4.1-9.58,4.71-7.64,1.29-4.17-6.47-1.77-10.67,4.85-8.49,9.81-16.92,14.51-25.48,18.76-34.19,33.25-71.05,44.6-108.31,24-78.92,30.77-160.59,29.31-242.74-.44-24.81-1.35-49.61-2-74.41-.61-22.49-2.25-45.53,2.44-67.68,3.35,2.54,5.24,7,6.74,10.92,2.65,7,5,14.15,7.38,21.25Q253.11,77.21,259.11,99a771.61,771.61,0,0,1,18.83,89.55,4.25,4.25,0,0,0,4.77,3.87c3.56,1.6,7.49.93,11.34.07,6.3-1.41,12.57-2.89,18.93-4,12.94-2.25,26-2,38.92-3.73a.7.7,0,0,0,.14,0c2.26,1.55,6,.67,5.88-2.9-.62-28.34-1.12-56.59-.06-84.93q.78-20.93,2.57-41.8c.73-8.52-.86-36.35,14.15-31.09,10.88,3.82,13.94,21.86,16.89,31.42q5.77,18.66,10,37.76a513.85,513.85,0,0,1,10.94,78.1C415.83,224.72,411.76,278.49,402.72,331.19ZM434,363.6c-9.78-8.28-14.2-18.15-19.72-29.29a4.74,4.74,0,0,0-1-1.32q2.61-15.36,4.65-30.82a179.59,179.59,0,0,0,9.49,24.13,158,158,0,0,0,17.07,27.89c5.29,6.95,13.51,14,16.86,22.58A60.51,60.51,0,0,1,434,363.6Z"/><path class="cls-4" d="M361.65,297.72c-4.46-2.24-9.58-2.65-14.16-4.83a43.91,43.91,0,0,1-12.86-9.29,4.18,4.18,0,0,0-5.86,0,52.92,52.92,0,0,1-15.88,13c-5.26,2.75-11.93,3.59-16.5,7.37-1.39,1.14-.37,3,.94,3.56,2.92,1.23,6.31,1,9.66.18-.72,7.12,1.16,15.51,3.31,21.12,3.26,8.52,11.6,11.71,20.23,12.19a19.82,19.82,0,0,0,20.1-12.57,52.81,52.81,0,0,0,3.58-24,21.51,21.51,0,0,0,6.55.13C363.94,304.09,364.37,299.09,361.65,297.72Zm-35.8,11.49c-.07,7.33-.3,14.69-.11,22a10.78,10.78,0,0,1-5.47-2.64c-2.09-2.2-2.67-6.18-3.3-9-1-4.68-1.12-9.95-2.4-14.69.86-.41,1.68-.81,2.45-1.2a54.11,54.11,0,0,0,9.12-5.87C325.74,301.67,325.88,305.67,325.85,309.21ZM335,331.52c.21-7.43,0-14.89-.1-22.31,0-4.68.22-10.14-.86-15a59.44,59.44,0,0,0,11,7.16C344.58,312.07,345.8,328.69,335,331.52Z"/><path class="cls-4" d="M266.05,199c1.36-4.36-.36-10.1-.94-14.46q-.94-7.12-2.15-14.21c-4.06-23.66-10.1-47.59-19-69.94-1.6-4-6.51-8.85-9.39-2.73-2,4.29-.72,10.71-.27,15.19.61,6,1.52,12,2.32,18q4.89,37,9.82,74.06c.22,1.63,2.28,1.88,3.44,1.1C255.87,206.59,264.07,205.37,266.05,199ZM262.53,197c-1,4.69-7.3,6.22-11.91,6.93Q247,176.42,243.33,149q-1.85-13.84-3.68-27.71c-.58-4.36-1.22-8.74-1.45-13.14,0-.72-.45-7.81.11-8,1.25-.36,3.19,6.09,3.46,6.86a407.47,407.47,0,0,1,14.42,50.94q2.67,12.38,4.6,24.9C261.45,187.11,263.44,192.7,262.53,197Z"/><path class="cls-4" d="M376.16,182.87c3-.25,5.94-.66,8.88-1.16s7.6-.37,9.75-2.75c1.31-1.45,1.31-3.84,1.5-5.66a112.89,112.89,0,0,0,.43-14.94c-.63-19.63-3.67-39.58-7.63-58.79-1.84-8.89-3.31-18.94-7.08-27.25-2-4.29-5.95-8.5-11.05-6.25-5.55,2.45-5.93,10.45-6,15.61-.23,9.69,1.12,19.53,1.85,29.18,1.78,23.64,3.56,47.28,5.51,70.91A2.17,2.17,0,0,0,376.16,182.87Zm-6.4-90a90.61,90.61,0,0,1-.38-13.38l.45-3.83q.36-4.91,7.32-3.09c1.35,1.29,1.89,4.72,2.36,6.37,5.35,18.76,8.65,38.15,11,57.49a225.68,225.68,0,0,1,2.14,27.72,45,45,0,0,1-.32,8c-.74,3.84-1.6,4.5-5.06,5.22-3.71.78-7.38,1.64-11,2.74q-2-28.63-4.23-57.24C371.29,112.87,370.49,102.85,369.76,92.84Z"/></svg>