<svg id="Layer_1" data-name="Layer 1" xmlns="http://www.w3.org/2000/svg" viewBox="0 0 600 600"><defs><style>.cls-1{fill:#939598;}.cls-2{fill:#fff200;}.cls-3{fill:#be1e2d;}.cls-4{fill:#58595b;}.cls-5{fill:#2b3990;}.cls-6{fill:#231f20;}</style></defs><title>doodle</title><path class="cls-1" d="M420.83,422.48c-2.36-43.36-3.36-86.84-4.93-130.23q-2.14-59-4.32-117.94c-.72-19.33-1.26-38.69-2.6-58-.65-9.42-1.5-18.84-2.71-28.21-1.11-8.62-1.48-19.47-5.88-27.19C392.63,47.29,370,49.76,356.83,49.24q-29.19-1.14-58.37-2.39T240.1,44.37c-17.93-.81-36-1.65-53.9.6.3,13.44-.6,26.89-.74,40.34s0,27.16.26,40.73c1,49.18,2.91,98.29,4.3,147.45q1,36.51,2,73,.54,18.72,1.06,37.44.27,9.36.53,18.72c.15,5.31.5,10.51-.31,15.73,1.53,8.06,11.18,10.85,18.26,12,8.84,1.47,17.78,2.53,26.69,3.55a706,706,0,0,0,95.88,4.53q23.79-.53,47.5-2.71,11.85-1.11,23.65-2.62c6-.77,16.56-1.32,15.49-9.72A3.47,3.47,0,0,1,420.83,422.48ZM398,167.75a80.56,80.56,0,0,1,.54,10.31c.12,3.43.55,6.94-.06,10.33-.17.94-1.47.76-1.74,0-2-5.8-1.78-14.72-.34-20.64C396.62,167,397.9,166.92,398,167.75Zm-4.16-85.83a.6.6,0,0,1,1.15,0c1.11,6,.71,12.38.78,18.49s.19,12.22.38,18.33c.4,12.75,2.08,25.67,1.36,38.42a.74.74,0,0,1-1.44.2c-2.82-12.23-2.74-25.22-3.11-37.71q-.3-9.62-.26-19.24C392.76,94.31,392.5,87.9,393.88,81.92Zm-131.95-5C279,59.42,307.36,58.42,326.54,73c20.63,15.65,29.11,45.9,15.41,68.83-13,21.75-40.13,26.86-61.71,15A51.15,51.15,0,0,1,260.49,137c-6.86-6.64-10-17.93-10.55-26.8A43.81,43.81,0,0,1,261.93,76.92ZM201.61,371.41c-1.78-6-2-12.33-2.52-18.52q-.81-10.06-1.22-20.16c-.54-13.52-.24-26.9.5-40.4a.59.59,0,0,1,1.17,0c.12,13.15.67,26.35,1.34,39.48q.5,9.63,1.26,19.25c.53,6.66,1.68,13.43,1.24,20.11A.9.9,0,0,1,201.61,371.41Zm3.62,31.93c-.12.94-1.6.85-1.81,0a67.8,67.8,0,0,1-1-21.83c.1-.91,1.49-1.27,1.71-.23A68.45,68.45,0,0,1,205.23,403.34Zm193.31-80.49c-4.33,21.85-15.47,39.75-34.72,51.32a166.79,166.79,0,0,1-30.28,13.73c-11.16,3.94-23.08,6.59-35,5.53-22.42-2-40.3-14.85-56.8-29.1a2.46,2.46,0,0,1-.66-.88,104.67,104.67,0,0,1-20.35-27.22C210.71,317,206.94,295,211,273.65c7.55-39.52,39.64-70.78,79.59-76.07,21.83-2.89,45.93.91,65.35,11.52,19,10.35,30.69,30.69,37.72,50.47A120.1,120.1,0,0,1,398.54,322.85Z"/><path class="cls-2" d="M473.85,98.23a33.66,33.66,0,0,1,17.82,9.07c.1-2.25.38-4.52.47-6.6.1-2.56.08-5.28.38-7.93a7.79,7.79,0,0,1-2.52-.39,9.1,9.1,0,0,1-4.91-4.14,10.55,10.55,0,0,1-6.55,4.85,2.56,2.56,0,0,1-3.08-1.75c-2.49-8-1.65-15.57.33-23a2.16,2.16,0,0,1,.32-1.57,3.28,3.28,0,0,1,.2-.31c2.75-9.55,7.05-18.95,8.36-28.79a36.17,36.17,0,0,0,.28-7.43,30.45,30.45,0,0,0-1.51-5.77c-.33.66-.74,1.33-.93,1.75-1.17,2.68-2.29,5.39-3.37,8.11a277.34,277.34,0,0,0-9.38,28.11c-.87,3.1-5.18,2.92-6.12,0-3.93-12.23-2-26-6-38.12-4,14.79-2.24,30.44-.43,45.6.27,2.28-2.53,3.25-4.2,2.41-3-1.49-4.42-4.25-6-7-.72-1.24-1.61-3.64-3.31-2.22-2.14,1.8,2.29,7.94,3.23,9.73A126.56,126.56,0,0,1,457.71,101,25.77,25.77,0,0,1,473.85,98.23Z"/><path class="cls-2" d="M479.71,86.75c3.9-4,5.46-14.41,1.81-17.77C479.86,74.82,478.91,80.71,479.71,86.75Z"/><path class="cls-2" d="M488.09,78.78c.65,1.31.69,2.68,1.19,4.37s1.43,4.26,3.46,2.22c.91-.91.58-3.92.67-5.32.17-3,.47-6.65-1.1-9.31a3.83,3.83,0,0,0-4.66-1.85A24.23,24.23,0,0,1,488.09,78.78Z"/><path class="cls-2" d="M461.76,118.88a7,7,0,0,1,.46-.65c3.16-3.91,8.45-2.77,12.2-.47a45,45,0,0,1,13.36,12.16c2.36,3.45,4.76,8.61,3.69,12.91.1.58.18,1.17.24,1.76l.12-.17a34.58,34.58,0,0,0,3.35-6.11c2.06-5.06,1.05-10.35-1.31-15.12-3.82-7.71-10.55-14.8-18.95-17.33s-19.11.46-22.11,9.57c-2.36,7.18,1.87,13.23,6.76,18.17-.07-3.77-.11-7.54-.1-11.3A3.36,3.36,0,0,1,461.76,118.88Z"/><path class="cls-3" d="M422.18,257.16q.66,17.05,1.34,34.11c13.56,4.2,32.38-1.57,43-10.51,11.89-10,15.66-27.86,17.51-42.57,2.07-16.39,1.76-33.11,1.57-49.61q-.15-12.81-.63-25.63c-.17-4.27-.37-8.54-.55-12.81-.12-3-.5-6.14,0-9.11a23.12,23.12,0,0,0-.71-2.68,20.21,20.21,0,0,0-4.8-7.42,59.89,59.89,0,0,0-6.39-5.62c-1.06-.82-4.21-3.1-5.46-2.37,1.7,15.42,1.33,31.34,1.12,46.83-.21,14.41-.38,29.08-3.48,43.22-2.69,12.22-8,24.2-17.17,32.95C440.7,252.45,431.68,257.6,422.18,257.16Z"/><path class="cls-4" d="M289,151.75c19.9,7.69,42.09-.8,49.12-21.66,7.1-21.1-4-44.61-23.2-54.8-17.45-9.25-41.79-4.67-52.59,12.62a37.12,37.12,0,0,0-4.62,11.24c.94,10.39,1.47,20.52,6.82,30C270.14,139.16,278.17,147.57,289,151.75Zm-10.3-49.62a21.94,21.94,0,0,1,8.63-15.2c5.24-3.84,12.48-4.68,18.77-3.6s10.37,5.48,12.12,11.59,2.55,13.55.48,19.53c-2.25,6.49-8.16,9.88-14.61,11-6.71,1.21-14.08,1.19-19.12-4a22.06,22.06,0,0,1-4.72-8.33A22.09,22.09,0,0,1,278.7,102.13Z"/><path class="cls-4" d="M362.54,224.77c-7.18-6.94-16.4-11.26-25.81-14.3-19.85-6.4-41.81-7.75-61.8-1.21-33.51,11-57,44.81-57.88,79.72-.44,17.39,4.62,34.67,13.52,49.55,7.42,12.38,17.18,22.07,28.24,30.71,14.59,9.15,31,16.3,48.11,15.34,12.38-.7,24.44-5.14,35.74-10,9.93-4.25,19.92-9.27,27.95-16.6,14.61-13.34,20.22-34,21-53.2a114.65,114.65,0,0,0-12.28-56C374.92,240.16,369.57,231.56,362.54,224.77ZM339.79,327a59.18,59.18,0,0,1-34.23,15.36,49.05,49.05,0,0,1-25.85-4.6,2,2,0,0,1-1.86-.1,47.27,47.27,0,0,1-9.2-7.17c-6.09-5.35-11.57-12.82-12.84-20.77-4.55-13.17-4.41-28,1.36-40.58,9.5-20.67,32.06-33.9,54.71-29.6a49.58,49.58,0,0,1,28.57,16.76c8.41,10.22,10.71,22.44,11.06,35.38C351.88,305,350,317.51,339.79,327Z"/><path class="cls-5" d="M301,247.14c-18.71.56-34.87,15.35-39.91,32.89a45.34,45.34,0,0,0,1.77,29.75,47.58,47.58,0,0,0,5.21,8.49,44.88,44.88,0,0,0,12.41,10.38c9.91,5.64,21.89,6.36,32.75,3.26,10.05-2.86,21.73-9.47,26.44-19.25,4.46-9.24,3.56-22.5,2-32.35C338.43,260.92,320.61,246.56,301,247.14Z"/><path class="cls-3" d="M295.12,518c2.21-12.13-1.76-25.24-12.79-30.63a59.42,59.42,0,0,1-1.2,13.81c-.83,4.67-2,9.75-5.59,13.12-6.52,6.11-17.34,3.57-23-2.39-7.83-8.27-9.78-21.77-11.77-32.5-2.21-11.9-4.31-25.71-1.49-37.72q-9.61-1.22-19.2-2.72c-2.09-.34-4.36-.69-6.7-1.13.88,17.63,1.25,34.92,4.8,52.36,5,24.51,19.45,58.55,50.14,55.6C283.59,544.36,292.5,532.42,295.12,518Z"/><path class="cls-2" d="M304.18,529.1c-.5-3.11-1.58-6.54-2.19-9.89-2.71,15.45-12.11,29.3-28.13,32.64-.85.18-1.7.32-2.54.44.35,3.41-.16,6.88.82,10.34a25.31,25.31,0,0,0,5.9,10.55c5.72,6.06,16.89,9.56,23.76,3.24,3.78-3.48,4.32-9,4.5-13.86.21-5.53.05-11.1-.29-16.62S305.07,534.68,304.18,529.1Z"/><path class="cls-2" d="M279.42,479.56c13.53,2.11,20.9,13.77,22.73,26.24A14.58,14.58,0,0,0,304,502a29.65,29.65,0,0,0,.5-12.51c-1.07-7.68-3.37-15.48-10.94-19a15.25,15.25,0,0,0-19.7,6c-3.3,5.8-2.79,14.92,1.5,20.28.48-4.09.21-8.22.58-12.31A3.37,3.37,0,0,1,279.42,479.56Z"/><path class="cls-2" d="M321.36,509c-1.46-12.18,5.31-24.83,16.66-29.83a3.58,3.58,0,0,1,.91-.26,2.8,2.8,0,0,1,4.78,1.14c1.34,3.8,2.59,7.74,4.25,11.46,1.78-5.33,1.5-11.74-1.58-16.36-4.26-6.4-15.16-10-22.31-7.29-8.08,3-9.89,12.81-10.18,20.47-.23,5.93,1.05,11.56,2.73,17.15a26.71,26.71,0,0,1,2.52,2.24,7.56,7.56,0,0,0,1.63,1.05C321,508.9,321.16,509,321.36,509Z"/><path class="cls-3" d="M369.1,445.08c2.18,10.26,1.49,21.58,1.8,32,.16,5.47.41,11,.37,16.43,0,4.09-.48,8.29-2.85,11.75-4.49,6.53-12.72,5.86-18.11.91-5.16-4.74-9.23-12.51-11.2-19.77-12.17,7.78-14.49,23.57-4.75,34.87,9.16,10.63,27.47,18.36,41.25,13.39,17-6.11,16.92-28,17.05-42.82l.24-27.35c.06-7.13-.12-14.34.49-21.46-1.5.11-3,.24-4.43.38Q379,444.38,369.1,445.08Z"/><path class="cls-2" d="M355.4,541.79a58.24,58.24,0,0,1-10-3.64c-10.23-4.81-19.81-13.4-23.06-24.49a3.12,3.12,0,0,1-.7.18,4,4,0,0,1-1.64-.2c2.28,9.57,1.6,20.26,2,29.93.45,10,.92,20.94,7.27,29.25,6,7.85,18.42,11.09,24.65,1.65,5.47-8.28,3.76-21.36,1.24-30.39A3,3,0,0,1,355.4,541.79Z"/><path class="cls-3" d="M150.16,226a346,346,0,0,1-11.23-72.8,3,3,0,0,1-1.08-1.4c-1.84-4.93-13.36,2.38-15.61,4.21-4.11,3.34-5.44,7.11-6.62,11.64,1.58,6.49,1.8,13.26,2.56,19.87.84,7.33,2,14.63,3.34,21.88a293.39,293.39,0,0,0,10.81,41c4.39,12.82,10,24.9,20.57,33.77a56.82,56.82,0,0,0,15.44,9.23c4.93,2,10.15,2.37,15.11,3.85l-.82-29.66C163.82,264.68,154.38,242.23,150.16,226Z"/><path class="cls-2" d="M112,128.33c6.58-4.19,16.62-8.17,25-6.69.24-5.29,2.72-10,5.14-14.84,2.64-5.22,5.8-11.49,3.4-17.16-4.15,1.43-6.24,6.89-7.6,10.64a2.87,2.87,0,0,1-5.61-.76c-.4-7.34-1-14.67-1.91-22-.35-2.77-.59-15.11-4.21-18.06-5.4,14.4.13,30.43-2.55,45.37-.66,3.69-5.61,2.27-6-.8A202,202,0,0,0,114,82.47q-1.17-5.11-2.6-10.16c-.47-1.68-1-3.36-1.5-5C109.5,66,109.56,64,108,64.13c-2,.16.35,17.52.56,20,.6,7.16,1.36,14.3,2,21.46.28,3.34-5.26,4.06-5.83.79a177.19,177.19,0,0,0-5.26-22.05q-1.55-5-3.4-9.9c-.33-.89-1.63-5.6-2.58-5.63-1.18,0-1,2.28-1.09,3.53-.8,15.4,1.76,31.24,5.81,46.05a2.67,2.67,0,0,1-4.85,2,13,13,0,0,0-6.85-5.91c-.25,4.77,3.16,9.51,5.34,13.57,2.29,4.27,4.61,8.52,6.8,12.84A47.71,47.71,0,0,1,112,128.33Z"/><path class="cls-2" d="M142.74,147.63c1-2.28.68-5.32.45-7.71-.39-4.14-1.58-8.6-5.74-10.33-7.74-3.21-18.94,2.36-25.12,6.82C104.56,142,98,151.25,98.53,161.23a17,17,0,0,0,5.54,11.51c2.15,2,4.61,2.51,7,3.37a53.83,53.83,0,0,1,.22-5.68l0-.06C106,154.74,136.41,137.32,142.74,147.63Z"/><path class="cls-5" d="M302,118.07c4.64-.73,8.85-2.64,10-7.58.88-3.91.3-8.48-.56-12.36-1.13-5.07-3.63-7.81-9-8.17-4.55-.3-9.12.3-12.65,3.4a16.4,16.4,0,0,0-5,8.46c2.61,3.37,2,8,4,11.82C291.43,118.8,296.88,118.89,302,118.07Z"/><path class="cls-6" d="M356,209.1c-19.42-10.61-43.52-14.41-65.35-11.52-40,5.29-72,36.55-79.59,76.07-4.08,21.36-.31,43.36,9.73,62.58a104.67,104.67,0,0,0,20.35,27.22,2.46,2.46,0,0,0,.66.88c16.5,14.25,34.38,27.1,56.8,29.1,11.9,1.06,23.82-1.59,35-5.53a166.79,166.79,0,0,0,30.28-13.73c19.25-11.57,30.39-29.47,34.72-51.32a120.1,120.1,0,0,0-4.86-63.28C386.65,239.79,374.91,219.45,356,209.1Zm35.63,95.71c-.76,19.21-6.37,39.86-21,53.2-8,7.33-18,12.35-27.95,16.6-11.3,4.83-23.36,9.27-35.74,10-17.14,1-33.52-6.19-48.11-15.34-11.06-8.64-20.82-18.33-28.24-30.71-8.9-14.88-14-32.16-13.52-49.55.87-34.91,24.37-68.76,57.88-79.72,20-6.54,41.95-5.19,61.8,1.21,9.41,3,18.63,7.36,25.81,14.3,7,6.79,12.38,15.39,16.77,24.06A114.65,114.65,0,0,1,391.59,304.81Z"/><path class="cls-6" d="M340.45,256.3a49.58,49.58,0,0,0-28.57-16.76c-22.65-4.3-45.21,8.93-54.71,29.6-5.77,12.54-5.91,27.41-1.36,40.58,1.27,7.95,6.75,15.42,12.84,20.77a47.27,47.27,0,0,0,9.2,7.17,2,2,0,0,0,1.86.1,49.05,49.05,0,0,0,25.85,4.6A59.18,59.18,0,0,0,339.79,327c10.24-9.49,12.09-22,11.72-35.32C351.16,278.74,348.86,266.52,340.45,256.3Zm-.83,56.36c-4.71,9.78-16.39,16.39-26.44,19.25-10.86,3.1-22.84,2.38-32.75-3.26A44.88,44.88,0,0,1,268,318.27a47.58,47.58,0,0,1-5.21-8.49A45.34,45.34,0,0,1,261,280c5-17.54,21.2-32.33,39.91-32.89,19.66-.58,37.48,13.78,40.63,33.17C343.18,290.16,344.08,303.42,339.62,312.66Z"/><path class="cls-6" d="M285,121.45c5,5.24,12.41,5.26,19.12,4,6.45-1.17,12.36-4.56,14.61-11,2.07-6,1.23-13.55-.48-19.53s-5.71-10.49-12.12-11.59-13.53-.24-18.77,3.6a22.23,22.23,0,0,0-7.08,26.19A22.06,22.06,0,0,0,285,121.45Zm4.8-28.09c3.53-3.1,8.1-3.7,12.65-3.4,5.39.36,7.89,3.1,9,8.17.86,3.88,1.44,8.45.56,12.36-1.11,4.94-5.32,6.85-10,7.58-5.16.82-10.61.73-13.34-4.43-2-3.8-1.35-8.45-4-11.82A16.4,16.4,0,0,1,289.77,93.36Z"/><path class="cls-6" d="M260.49,137a51.15,51.15,0,0,0,19.75,19.78c21.58,11.9,48.72,6.79,61.71-15,13.7-22.93,5.22-53.18-15.41-68.83C307.36,58.42,279,59.42,261.93,76.92a43.81,43.81,0,0,0-12,33.27C250.52,119.06,253.63,130.35,260.49,137Zm1.84-49.08c10.8-17.29,35.14-21.87,52.59-12.62,19.22,10.19,30.3,33.7,23.2,54.8-7,20.86-29.22,29.35-49.12,21.66-10.83-4.18-18.86-12.59-24.47-22.57-5.35-9.51-5.88-19.64-6.82-30A37.12,37.12,0,0,1,262.33,87.91Z"/><path class="cls-6" d="M445.16,237.76c-6.32,7.42-14.19,11.9-23.16,14.82q-1.46-36.79-2.88-73.59c-.78-20.28-1.35-40.59-2.72-60.84-.67-10-1.58-20.06-2.87-30-1.1-8.53-1.82-17.78-4.71-25.93-5.23-14.74-20-18.5-34.11-19.38-19.81-1.24-39.73-1.55-59.58-2.25-22.85-.82-45.7-1.69-68.56-2.42-22.12-.71-44.24-1.49-66.11,2.63a2.52,2.52,0,0,0-1.84,2.41c.29,5.58.67,11.14,1.06,16.71-1.49,18.27-.91,36.94-.75,55.05.22,24.76.64,49.58,1.72,74.32,1,23.81,1.14,47.64,1.79,71.47A34.78,34.78,0,0,1,165.9,247.2c-5.63-8.65-8.21-18.84-10.56-28.76-4.92-20.73-7.63-41.62-9.35-62.79,8.59-4,5.06-22.65.71-28.24a15.42,15.42,0,0,0-3.43-3.25c1-12.34,13.86-23.8,7.83-36.63-2.33-5-6.46-4.78-10.64-1.73a16,16,0,0,0-3.28,3.3q-1-10.72-2.59-21.39c-1-6.25-2.48-14-10.08-14.65A2.84,2.84,0,0,0,122,54.5c-3.2,6-4.06,12.29-4.11,18.76a98.69,98.69,0,0,0-3.57-11.41c-1.08-2.73-2.84-4.93-6-4.88-8.46.13-7,10.78-6.41,16.55C100,68.41,96,58,89.52,63.9c-2.32,2.09-2.73,5.52-2.8,8.45a139,139,0,0,0,.61,16.06,169.83,169.83,0,0,0,3.49,22.32,18.11,18.11,0,0,0-5.62-2,2.68,2.68,0,0,0-3.2,1.81c-1.91,5.4.25,10.39,2.8,15.18,3.49,6.58,7.07,13.16,10.89,19.55.06.1.12.17.18.26a28.75,28.75,0,0,0-3.26,15.66,23,23,0,0,0,7.21,14.85c2.67,2.45,7.41,5.42,11.47,5.07.22,3,.55,6,.87,9,.78,7.32,1.81,14.62,3.17,21.86a275.52,275.52,0,0,0,12.79,46.69c4.79,12.71,11.59,24,22.46,32.41,8.53,6.57,21.77,13.61,33,12.58l.94,33.41,1.15,41.18.57,20.6c.2,7.08-.17,14.41,1.68,21.29a2.34,2.34,0,0,0,.27.6c1.76,9.57,10.91,13.73,20.29,16-2.21,18.59.37,38.42,4.1,56.61,3.38,16.5,9.21,33.2,21.43,45.3,8.5,8.42,19.66,13.81,31.42,13.93-1.08,3.67-.4,8.32.44,11.67a31,31,0,0,0,7.07,13c6.87,7.59,18.26,11.33,28,7.29,11.7-4.86,12.34-17.88,12.33-28.87a183.31,183.31,0,0,0-1.59-23.17c-.84-6.35-1-15.39-4.66-20.78l-.05-.05a19.58,19.58,0,0,0,4-8.56,24.28,24.28,0,0,0,3.05,5.32,7.5,7.5,0,0,0,1.64,2.37c0,.05,0,.08-.05.13-1.65,7.34-.86,15.07-.61,22.52.23,7,.25,14.11,1,21.11,1.3,11.34,5.58,23.92,16.34,29.61,9.61,5.08,21.29,2.92,27.36-6.35,3.07-4.69,4.25-10.32,4.43-15.85.21-6-.07-13.3-2.33-19,8.38,1,16.87-.4,23.69-5.81,11.85-9.4,13.75-25.22,13.82-39.34,0-9.92-.08-19.85-.12-29.77,0-8.47.32-17.08-.44-25.54,6.33-.5,12.77-1.19,18.49-3.12,6.45-2.17,12.51-8.14,11.2-15.19-.84-40.88-3-81.78-4.61-122.64-.06-1.59-.13-3.19-.19-4.78,13.45,5.21,30.37.69,42.24-6.53,14.43-8.78,20.62-25,23.84-40.83,3.69-18.17,3.56-36.93,3.47-55.39q-.07-14.65-.58-29.3-.21-5.79-.5-11.56c5-1.32,8.35-8.06,10.12-12.43,2.55-6.29,2-13-.64-19.14a42.47,42.47,0,0,0-4.29-7.72c1.46-3.85,1-8.23,1.09-12.32.1-4.36.63-9.13-.56-13.38a25.19,25.19,0,0,0,1.35-7.35c.3-5.58.07-14.16-6.12-16.69a8.29,8.29,0,0,0-7.7.85,7.84,7.84,0,0,0-2.17-1.6c4.63-13.42,11.2-26.68,6.56-40.9-1-3.11-2.56-7.66-6.65-7.07-4.55.66-6,7.18-7.52,10.72q-4.69,11-8.39,22.44C465.86,37,466.1,25,459.84,14.53c-1.46-2.44-4.58-1.59-5.53.72-6,14.56-5.55,30.22-3.83,45.59a7.9,7.9,0,0,0-2.9-2.75c-3.86-2-8.06.59-9.1,4.57-1.58,6,4.32,13,6.7,18.06a151.1,151.1,0,0,1,8.46,23.14,20.81,20.81,0,0,0-6.16,9.42c-3.27,10.34,3.43,21,12.22,26.26.56,21.67,1.7,43.42-1.34,64.94C456.69,216.38,453.06,228.46,445.16,237.76ZM91.86,128.11c-2.18-4.06-5.59-8.8-5.34-13.57a13,13,0,0,1,6.85,5.91,2.67,2.67,0,0,0,4.85-2c-4-14.81-6.61-30.65-5.81-46.05.07-1.25-.09-3.56,1.09-3.53,1,0,2.25,4.74,2.58,5.63q1.86,4.89,3.4,9.9a177.19,177.19,0,0,1,5.26,22.05c.57,3.27,6.11,2.55,5.83-.79-.61-7.16-1.37-14.3-2-21.46-.21-2.5-2.52-19.86-.56-20,1.52-.13,1.46,1.82,1.87,3.16.53,1.66,1,3.34,1.5,5q1.44,5,2.6,10.16a202,202,0,0,1,3.63,21.6c.36,3.07,5.31,4.49,6,.8,2.68-14.94-2.85-31,2.55-45.37,3.62,3,3.86,15.29,4.21,18.06.9,7.29,1.51,14.62,1.91,22a2.87,2.87,0,0,0,5.61.76c1.36-3.75,3.45-9.21,7.6-10.64,2.4,5.67-.76,11.94-3.4,17.16-2.42,4.79-4.9,9.55-5.14,14.84-8.34-1.48-18.38,2.5-25,6.69A47.71,47.71,0,0,0,98.66,141C96.47,136.63,94.15,132.38,91.86,128.11Zm19.4,42.26,0,.06a53.83,53.83,0,0,0-.22,5.68c-2.4-.86-4.86-1.4-7-3.37a17,17,0,0,1-5.54-11.51c-.55-10,6-19.2,13.8-24.82,6.18-4.46,17.38-10,25.12-6.82,4.16,1.73,5.35,6.19,5.74,10.33.23,2.39.55,5.43-.45,7.71C136.41,137.32,106,154.74,111.26,170.37Zm57.08,123.09a56.82,56.82,0,0,1-15.44-9.23c-10.57-8.87-16.18-21-20.57-33.77a293.39,293.39,0,0,1-10.81-41c-1.36-7.25-2.5-14.55-3.34-21.88-.76-6.61-1-13.38-2.56-19.87,1.18-4.53,2.51-8.3,6.62-11.64,2.25-1.83,13.77-9.14,15.61-4.21a3,3,0,0,0,1.08,1.4A346,346,0,0,0,150.16,226c4.22,16.19,13.66,38.64,32.47,41.61l.82,29.66C178.49,295.83,173.27,295.42,168.34,293.46Zm49.85,196.77c-3.55-17.44-3.92-34.73-4.8-52.36,2.34.44,4.61.79,6.7,1.13q9.57,1.51,19.2,2.72c-2.82,12-.72,25.82,1.49,37.72,2,10.73,3.94,24.23,11.77,32.5,5.65,6,16.47,8.5,23,2.39,3.6-3.37,4.76-8.45,5.59-13.12a59.42,59.42,0,0,0,1.2-13.81c11,5.39,15,18.5,12.79,30.63-2.62,14.39-11.53,26.33-26.79,27.8C237.64,548.78,223.18,514.74,218.19,490.23Zm57.7-5.72c-.37,4.09-.1,8.22-.58,12.31-4.29-5.36-4.8-14.48-1.5-20.28a15.25,15.25,0,0,1,19.7-6c7.57,3.52,9.87,11.32,10.94,19A29.65,29.65,0,0,1,304,502a14.58,14.58,0,0,1-1.8,3.79c-1.83-12.47-9.2-24.13-22.73-26.24A3.37,3.37,0,0,0,275.89,484.51Zm30.41,78c-.18,4.83-.72,10.38-4.5,13.86-6.87,6.32-18,2.82-23.76-3.24a25.31,25.31,0,0,1-5.9-10.55c-1-3.46-.47-6.93-.82-10.34.84-.12,1.69-.26,2.54-.44,16-3.34,25.42-17.19,28.13-32.64.61,3.35,1.69,6.78,2.19,9.89q1.33,8.37,1.83,16.84C306.35,551.46,306.51,557,306.3,562.56Zm3.27-82.85c-2.72-8.07-8-14.75-17.11-16.85A22.15,22.15,0,0,0,268,474.69c-4.34,9.05-2.34,22,5.74,28.21a2.79,2.79,0,0,0,.58.32c-.64,2.85-1.74,5.59-3.9,7.06-8.2,5.57-16-4.82-18.43-11.41-3.09-8.38-4.82-17.58-6.22-26.38-1.61-10.16-1.14-20-1.34-30.15q15.55,1.83,31.18,2.89a669.86,669.86,0,0,0,88.14.21c-.76,6.78-.13,13.77.08,20.56q.36,12,.63,23.92c.08,3.46.71,7.82-1.16,10.91-2.65,4.39-7.18,2.57-10-.59-.43-.48-.83-1-1.21-1.49,5.59-6.31,4.69-19,.91-25.79-5-8.9-17.52-13.63-27.27-11.61S311.41,470.8,309.57,479.71Zm7.05,25.81c-1.68-5.59-3-11.22-2.73-17.15.29-7.66,2.1-17.47,10.18-20.47,7.15-2.67,18.05.89,22.31,7.29,3.08,4.62,3.36,11,1.58,16.36-1.66-3.72-2.91-7.66-4.25-11.46a2.8,2.8,0,0,0-4.78-1.14,3.58,3.58,0,0,0-.91.26c-11.35,5-18.12,17.65-16.66,29.83-.2-.07-.39-.14-.59-.23a7.56,7.56,0,0,1-1.63-1.05A26.71,26.71,0,0,0,316.62,505.52Zm37.3,69c-6.23,9.44-18.65,6.2-24.65-1.65-6.35-8.31-6.82-19.22-7.27-29.25-.42-9.67.26-20.36-2-29.93a4,4,0,0,0,1.64.2,3.12,3.12,0,0,0,.7-.18c3.25,11.09,12.83,19.68,23.06,24.49a58.24,58.24,0,0,0,10,3.64,3,3,0,0,0-.24,2.29C357.68,553.11,359.39,566.19,353.92,574.47Zm39-110-.24,27.35c-.13,14.79-.09,36.71-17.05,42.82-13.78,5-32.09-2.76-41.25-13.39-9.74-11.3-7.42-27.09,4.75-34.87,2,7.26,6,15,11.2,19.77,5.39,4.95,13.62,5.62,18.11-.91,2.37-3.46,2.82-7.66,2.85-11.75,0-5.47-.21-11-.37-16.43-.31-10.38.38-21.7-1.8-32q9.94-.7,19.86-1.71c1.45-.14,2.93-.27,4.43-.38C392.78,450.11,393,457.32,392.9,464.45Zm12.43-31.28q-11.81,1.53-23.65,2.62Q358,438,334.18,438.5A706,706,0,0,1,238.3,434c-8.91-1-17.85-2.08-26.69-3.55-7.08-1.17-16.73-4-18.26-12,.81-5.22.46-10.42.31-15.73q-.27-9.36-.53-18.72-.52-18.72-1.06-37.44-1-36.51-2-73c-1.39-49.16-3.3-98.27-4.3-147.45-.27-13.57-.41-27.15-.26-40.73s1-26.9.74-40.34c17.86-2.25,36-1.41,53.9-.6q29.18,1.31,58.36,2.48t58.37,2.39c13.12.52,35.8-2,43.56,11.68,4.4,7.72,4.77,18.57,5.88,27.19,1.21,9.37,2.06,18.79,2.71,28.21,1.34,19.3,1.88,38.66,2.6,58q2.21,59,4.32,117.94c1.57,43.39,2.57,86.87,4.93,130.23a3.47,3.47,0,0,0,0,1C421.89,431.85,411.29,432.4,405.33,433.17Zm87-362.43c1.57,2.66,1.27,6.36,1.1,9.31-.09,1.4.24,4.41-.67,5.32-2,2-3-.57-3.46-2.22s-.54-3.06-1.19-4.37a24.23,24.23,0,0,0-.44-9.89A3.83,3.83,0,0,1,492.31,70.74Zm-12.6,16c-.8-6,.15-11.93,1.81-17.77C485.17,72.34,483.61,82.75,479.71,86.75Zm-32.82-14C446,71,441.52,64.84,443.66,63c1.7-1.42,2.59,1,3.31,2.22,1.6,2.77,3,5.53,6,7,1.67.84,4.47-.13,4.2-2.41-1.81-15.16-3.56-30.81.43-45.6,4,12.1,2.09,25.89,6,38.12.94,2.92,5.25,3.1,6.12,0a277.34,277.34,0,0,1,9.38-28.11c1.08-2.72,2.2-5.43,3.37-8.11.19-.42.6-1.09.93-1.75A30.45,30.45,0,0,1,485,30.19a36.17,36.17,0,0,1-.28,7.43c-1.31,9.84-5.61,19.24-8.36,28.79a3.28,3.28,0,0,0-.2.31,2.16,2.16,0,0,0-.32,1.57c-2,7.48-2.82,15.07-.33,23a2.56,2.56,0,0,0,3.08,1.75,10.55,10.55,0,0,0,6.55-4.85A9.1,9.1,0,0,0,490,92.38a7.79,7.79,0,0,0,2.52.39c-.3,2.65-.28,5.37-.38,7.93-.09,2.08-.37,4.35-.47,6.6a33.66,33.66,0,0,0-17.82-9.07A25.77,25.77,0,0,0,457.71,101,126.56,126.56,0,0,0,446.89,72.77Zm12.58,49.53c0,3.76,0,7.53.1,11.3-4.89-4.94-9.12-11-6.76-18.17,3-9.11,13.61-12.13,22.11-9.57s15.13,9.62,18.95,17.33c2.36,4.77,3.37,10.06,1.31,15.12a34.58,34.58,0,0,1-3.35,6.11l-.12.17c-.06-.59-.14-1.18-.24-1.76,1.07-4.3-1.33-9.46-3.69-12.91a45,45,0,0,0-13.36-12.16c-3.75-2.3-9-3.44-12.2.47a7,7,0,0,0-.46.65A3.36,3.36,0,0,0,459.47,122.3ZM464.69,213c3.1-14.14,3.27-28.81,3.48-43.22.21-15.49.58-31.41-1.12-46.83,1.25-.73,4.4,1.55,5.46,2.37a59.89,59.89,0,0,1,6.39,5.62,20.21,20.21,0,0,1,4.8,7.42,23.12,23.12,0,0,1,.71,2.68c-.54,3-.16,6.08,0,9.11.18,4.27.38,8.54.55,12.81q.48,12.81.63,25.63c.19,16.5.5,33.22-1.57,49.61-1.85,14.71-5.62,32.53-17.51,42.57-10.57,8.94-29.39,14.71-43,10.51q-.67-17.06-1.34-34.11c9.5.44,18.52-4.71,25.34-11.22C456.68,237.19,462,225.21,464.69,213Z"/><path class="cls-6" d="M393,119.65c.37,12.49.29,25.48,3.11,37.71a.74.74,0,0,0,1.44-.2c.72-12.75-1-25.67-1.36-38.42q-.29-9.17-.38-18.33c-.07-6.11.33-12.46-.78-18.49a.6.6,0,0,0-1.15,0c-1.38,6-1.12,12.39-1.14,18.49Q392.69,110,393,119.65Z"/><path class="cls-6" d="M396.44,167.75c-1.44,5.92-1.66,14.84.34,20.64.27.76,1.57.94,1.74,0,.61-3.39.18-6.9.06-10.33a80.56,80.56,0,0,0-.54-10.31C397.9,166.92,396.62,167,396.44,167.75Z"/><path class="cls-6" d="M203.38,371.17c.44-6.68-.71-13.45-1.24-20.11q-.76-9.62-1.26-19.25c-.67-13.13-1.22-26.33-1.34-39.48a.59.59,0,0,0-1.17,0c-.74,13.5-1,26.88-.5,40.4q.4,10.09,1.22,20.16c.5,6.19.74,12.55,2.52,18.52A.9.9,0,0,0,203.38,371.17Z"/><path class="cls-6" d="M202.4,381.51a67.8,67.8,0,0,0,1,21.83c.21.85,1.69.94,1.81,0a68.45,68.45,0,0,0-1.12-22.06C203.89,380.24,202.5,380.6,202.4,381.51Z"/></svg>