<svg id="Layer_1" data-name="Layer 1" xmlns="http://www.w3.org/2000/svg" viewBox="0 0 600 600"><defs><style>.cls-1{fill:#58595b;}.cls-2{fill:#939598;}.cls-3{fill:#231f20;}</style></defs><title>doodle</title><path class="cls-1" d="M315.53,238.11c-2.62.47-5.39.52-8,.79-3.13.31-6.28.7-9.42.73q.88,5.49,1.81,11c1.79,10.55,2.78,23.82,7.84,33.44,2.77,5.25,11.39,9.86,12.94,1,.91-5.17-.76-11.24-1.4-16.37Z"/><path class="cls-2" d="M283.36,43c-2-2.5-3.88-5.07-5.79-7.44q-3.65-4.55-7.21-9.15c-.83-1.07-5.65-8.69-6.63-8.6s-3,19.61-3.24,21.47c-.6,3.74-1.19,7.48-1.91,11.19A40.61,40.61,0,0,1,268.81,47C273.27,45.91,278.42,44.05,283.36,43Z"/><path class="cls-1" d="M319.52,88,300.61,63.61l-5.74-7.38c-.66-.85-1.83-2.77-2.92-4.14-.64-.51-1.25-1.05-1.86-1.6-3.9-1.64-13,2.16-17,3.09-5.18,1.21-11.82,2-14.83,7-2.53,4.17-3.28,10.12-4.47,14.74-2.26,8.75-3.77,18-6.15,26.84,8-6.48,18.84-9.38,28.72-11.22C290,88.42,305.28,86.49,319.52,88Z"/><path class="cls-1" d="M314.58,230.45q-2.11-17.16-4.25-34.34l-2.1-16.94c-.61-4.89.08-13.82-3.72-17.42a4,4,0,0,1-.81-1.09c-5.25-1.86-12.4-3.57-14.8,2.28-1.78,4.34-.36,10.85.13,15.41,1.31,12.28,3.41,24.52,5.27,36.72q1.33,8.84,2.72,17.67c3.16-.69,6.41-1,9.63-1.38C309.29,231.05,311.94,230.58,314.58,230.45Z"/><path class="cls-1" d="M345.37,563.48c2.73,9.27,10.72,20.33,21,19.39,12.06-1.1,16.38-12,18.12-22.32a97.42,97.42,0,0,1-13.31,2.71A94.59,94.59,0,0,1,345.37,563.48Z"/><path class="cls-2" d="M362.35,527a73.26,73.26,0,0,0,18.51-4.46c5.5-2.14,9.88-5.49,14.74-8.55a38.12,38.12,0,0,1-.44-4.67c-4.9-29.4-7.82-59.23-12.18-88.71q-12.24-82.86-27.28-165.25-7.56-41.19-15.82-82.25c-5.15-25.54-12-51.18-15.74-77-26.23.23-56.76-3-77.52,15.94,6.38,29.53,11.31,59.41,16.72,89.13q29.48,161.94,58.79,323.92a4.79,4.79,0,0,1,.06,1c3.92.43,18.45,1.22,20.15,1.3A128.53,128.53,0,0,0,362.35,527Zm3.36-124.55c1.46,4.53,3.12,10,2.93,14.77a.94.94,0,0,1-1.84.25c-1.78-4.41-2.06-10.15-2.22-14.87C364.56,402,365.52,401.88,365.71,402.47ZM353.54,298.33c3.3,14.8,5.41,29.8,7.29,44.84q1.47,11.77,2.64,23.58c.77,7.73,2.21,15.88,1.4,23.63-.13,1.24-1.93,1.66-2.28.31-1.91-7.33-1.87-15.24-2.59-22.76s-1.49-14.95-2.34-22.41c-1.8-15.67-4.1-31.28-5.79-47C351.77,297.59,353.34,297.42,353.54,298.33Zm-31.74-2.06c-6.83,3.64-14.9-.17-19-6-6.14-8.74-7.23-21.7-9.05-31.91-4.48-25-8.25-50.3-11.51-75.51-1.07-8.28-3.92-21.26,3.47-27.52,6.35-5.39,14.38-3.13,21.13.09a3.62,3.62,0,0,1,3,1c3.51,3.2,4.06,7.38,4.63,11.88.91,7.26,1.77,14.52,2.66,21.78q2.66,21.78,5.34,43.56,2.37,19.37,4.75,38.72C328.22,280.35,330.56,291.59,321.8,296.27Z"/><path class="cls-1" d="M355.3,535.27c-10.21.36-20.49-.65-30.61-1.89-.61-.08-1.23-.17-1.84-.28a81.55,81.55,0,0,0,2.57,8.64,33.79,33.79,0,0,0,3,6.87c2.35,3.6,5.13,4.37,9,5.37a83.25,83.25,0,0,0,32.74,1.69c8.93-1.29,24.07-3.81,27.8-13.61,2.25-5.92.93-12.69-.57-19.39C386.38,532,368.68,534.8,355.3,535.27Z"/><path class="cls-3" d="M403,513.22c-2-26.88-6.66-53.79-10.45-80.46-3.94-27.64-8.06-55.26-12.52-82.82q-13.38-82.67-29.84-164.8-4.71-23.46-9.7-46.86c-3.15-14.71-5.78-29.79-10.1-44.22a3.32,3.32,0,0,0-.86-4.08,3.94,3.94,0,0,0-.81-2q-14.42-18.56-28.82-37.12c-1.58-2-3.08-4.54-5-6.3-4.7-7-11.42-13.3-16.46-19.64-3.5-4.41-9.73-17.17-17.29-14.66-6.77,2.24-5.72,14.27-6.41,19.55-1.34,10.15-3.56,20.29-4.37,30.51a64.68,64.68,0,0,0-1.94,6.39c-3.7,13.91-8.62,29.05-9.09,43.5a2.5,2.5,0,0,0,.84,2.08C248,166.42,259,220.23,268.67,274.06q14.56,81,29.14,162,8.24,45.6,16.49,91.2a3.73,3.73,0,0,0,.7,1.64c1.24,10.79,4.48,26,14.82,30.39a54.54,54.54,0,0,0,9.19,3c1.49,13.92,12.93,29.43,28.23,28,15.61-1.51,25.58-17.48,24.82-32.32a1.38,1.38,0,0,1,0-.2c4.62-2.19,8.67-5.17,11.26-9.34,3.24-5.23,3.38-11.34,2.63-17.26A157.62,157.62,0,0,0,403,513.22ZM260.49,39.31c.29-1.86,2.2-21.36,3.24-21.47s5.8,7.53,6.63,8.6q3.57,4.61,7.21,9.15c1.91,2.37,3.8,4.94,5.79,7.44-4.94,1-10.09,2.88-14.55,3.95a40.61,40.61,0,0,0-10.23,3.52C259.3,46.79,259.89,43.05,260.49,39.31Zm-6.7,36c1.19-4.62,1.94-10.57,4.47-14.74,3-5,9.65-5.81,14.83-7,4-.93,13.1-4.73,17-3.09.61.55,1.22,1.09,1.86,1.6,1.09,1.37,2.26,3.29,2.92,4.14l5.74,7.38L319.52,88c-14.24-1.51-29.52.42-43.16,3-9.88,1.84-20.77,4.74-28.72,11.22C250,93.34,251.53,84.09,253.79,75.34Zm68.34,449.79q-29.29-162-58.79-323.92c-5.41-29.72-10.34-59.6-16.72-89.13,20.76-18.89,51.29-15.71,77.52-15.94,3.72,25.81,10.59,51.45,15.74,77q8.28,41.06,15.82,82.25Q370.82,337.75,383,420.63c4.36,29.48,7.28,59.31,12.18,88.71a38.12,38.12,0,0,0,.44,4.67c-4.86,3.06-9.24,6.41-14.74,8.55A73.26,73.26,0,0,1,362.35,527a128.53,128.53,0,0,1-20,.4c-1.7-.08-16.23-.87-20.15-1.3A4.79,4.79,0,0,0,322.13,525.13Zm44.22,57.74c-10.26.94-18.25-10.12-21-19.39a94.59,94.59,0,0,0,25.79-.22,97.42,97.42,0,0,0,13.31-2.71C382.73,570.84,378.41,581.77,366.35,582.87Zm31.59-40.81c-3.73,9.8-18.87,12.32-27.8,13.61A83.25,83.25,0,0,1,337.4,554c-3.86-1-6.64-1.77-9-5.37a33.79,33.79,0,0,1-3-6.87,81.55,81.55,0,0,1-2.57-8.64c.61.11,1.23.2,1.84.28,10.12,1.24,20.4,2.25,30.61,1.89,13.38-.47,31.08-3.3,42.07-12.6C398.87,529.37,400.19,536.14,397.94,542.06Z"/><path class="cls-3" d="M322.49,233.62q-2.69-21.78-5.34-43.56c-.89-7.26-1.75-14.52-2.66-21.78-.57-4.5-1.12-8.68-4.63-11.88a3.62,3.62,0,0,0-3-1c-6.75-3.22-14.78-5.48-21.13-.09-7.39,6.26-4.54,19.24-3.47,27.52,3.26,25.21,7,50.48,11.51,75.51,1.82,10.21,2.91,23.17,9.05,31.91,4.11,5.84,12.18,9.65,19,6,8.76-4.68,6.42-15.92,5.44-23.93Q324.87,253,322.49,233.62ZM294.3,215.07c-1.86-12.2-4-24.44-5.27-36.72-.49-4.56-1.91-11.07-.13-15.41,2.4-5.85,9.55-4.14,14.8-2.28a4,4,0,0,0,.81,1.09c3.8,3.6,3.11,12.53,3.72,17.42l2.1,16.94q2.13,17.17,4.25,34.34c-2.64.13-5.29.6-7.93.91-3.22.38-6.47.69-9.63,1.38Q295.63,223.92,294.3,215.07Zm26.41,70c-1.55,8.83-10.17,4.22-12.94-1-5.06-9.62-6-22.89-7.84-33.44q-.93-5.49-1.81-11c3.14,0,6.29-.42,9.42-.73,2.6-.27,5.37-.32,8-.79l3.78,30.6C320,273.84,321.62,279.91,320.71,285.08Z"/><path class="cls-3" d="M360,367.93c.72,7.52.68,15.43,2.59,22.76.35,1.35,2.15.93,2.28-.31.81-7.75-.63-15.9-1.4-23.63s-1.66-15.73-2.64-23.58c-1.88-15-4-30-7.29-44.84-.2-.91-1.77-.74-1.67.23,1.69,15.68,4,31.29,5.79,47Q358.93,356.71,360,367.93Z"/><path class="cls-3" d="M364.58,402.62c.16,4.72.44,10.46,2.22,14.87a.94.94,0,0,0,1.84-.25c.19-4.81-1.47-10.24-2.93-14.77C365.52,401.88,364.56,402,364.58,402.62Z"/></svg>