<svg id="Layer_1" data-name="Layer 1" xmlns="http://www.w3.org/2000/svg" viewBox="0 0 600 600"><defs><style>.cls-1{fill:#2e3192;}.cls-2{fill:#231f20;}</style></defs><title>doodle</title><path class="cls-1" d="M427.51,88.81c-48.69-38.6-111-61.88-173.58-52.74C189.76,45.44,134.22,89.28,98.78,142,78.06,172.86,63.25,209.39,56,247c-.76,15.17-.22,30.47.45,45.24C57.87,325,62.51,357.87,72,389.35,90.42,450,127.53,501.48,184.61,530.64c52.91,27,114.38,32.64,171.8,18.31a308.13,308.13,0,0,0,88.87-38.12c27.62-17.32,55-38.73,75-64.71,19.86-25.83,29-59.79,33.63-91.6,4.68-32.31,2.52-64.81-7.32-96-10.62-33.7-28.43-64.43-48.26-93.48A348.3,348.3,0,0,0,427.51,88.81ZM180,417.55c-7.13,7.6-14.73,18.59-24.48,23.13.05,4.09-6.2,7-9.79,3.05-44.34-48.4-69.38-117.78-58-183.21,5.36-30.81,18.38-59.67,38.7-83.5,22.81-26.76,53.58-51.06,85-66.81a4.68,4.68,0,0,1,5.51.54,4,4,0,0,1,5.17,2.23c6.42,15.41,8.66,33.73,12.53,50q6,25.11,12,50.2c8,33.45,16.49,66.8,24.07,100.33a5.06,5.06,0,0,1-1.69,5.05,5.18,5.18,0,0,1-1.21,2.59c-18.62,22.18-39,43.06-58.46,64.5C199.54,396.32,189.83,407,180,417.55Zm303.53-28.14C463.91,443,409.3,478,358.08,496.56c-26.73,9.67-54.47,14.4-82.86,11.18-24.6-2.79-52.88-10.77-72.34-26.68-2.71-2.21-2.43-5.76-.7-8.1-2.08.6-3.94-2-3.09-3.93,5.45-11.91,15.77-21.31,24.52-30.84Q238,422.5,252.18,406.56C271,385.33,288.65,362.83,308,342.07a6.79,6.79,0,0,1,3.73-2.13,3.1,3.1,0,0,1,1.68-.85c12.72-2.28,26.64,4.16,38.7,7.68q20.6,6,41.19,12c26.32,7.69,52.7,15.18,79,22.83C476.84,376.76,486.15,382.08,483.48,389.41Zm29.85-59.06c.5,4.45-3.64,7.73-7.81,7.19-1.36-.17-2.65-.3-3.9-.43a4.72,4.72,0,0,1-1.44.44c-7.54,1-15.1-2.27-22.35-4.27-7.59-2.09-15.12-4.35-22.69-6.51q-22.69-6.48-45.49-12.5c-15.82-4.17-31.71-8-47.55-12-7.61-1.93-15.23-3.9-22.78-6.06-4.4-1.26-7.73-1.7-10.33-4.27a4.09,4.09,0,0,1-5.91-1.33c-8.68-13.72-11.28-32.85-15.77-48.38-4.79-16.56-9.45-33.15-14.14-49.74-4.87-17.23-9.81-34.44-14.55-51.7-3-10.93-9.6-25.59-8.1-37.55-3.1-2.92-2.15-8.78,3.06-9.4,14.72-1.77,30.84,3,44.83,7.28a430.87,430.87,0,0,1,40.45,15c29,12.06,57.56,26.78,80.54,48.51C484,206.69,506.74,270.39,513.33,330.35Z"/><path class="cls-2" d="M267.72,321.13a5.18,5.18,0,0,0,1.21-2.59,5.06,5.06,0,0,0,1.69-5.05C263,280,254.51,246.61,246.55,213.16q-6-25.09-12-50.2c-3.87-16.25-6.11-34.57-12.53-50a4,4,0,0,0-5.17-2.23,4.68,4.68,0,0,0-5.51-.54C180,126,149.19,150.26,126.38,177c-20.32,23.83-33.34,52.69-38.7,83.5-11.38,65.43,13.66,134.81,58,183.21,3.59,3.92,9.84,1,9.79-3.05,9.75-4.54,17.35-15.53,24.48-23.13,9.88-10.54,19.59-21.23,29.31-31.92C228.74,364.19,249.1,343.31,267.72,321.13Zm-95.86,89.8c-6.51,7.21-15.56,14.85-19.78,24C113.33,386.12,88.91,327.46,100,264.2a163.62,163.62,0,0,1,38.4-79.64c22.29-25.5,50.93-41.53,76.9-62.45,2.06,13.45,6.67,27.07,9.76,40.1q6.19,26.07,12.38,52.14c7.84,33,15.17,66.19,23.33,99.13a6,6,0,0,0-1.21,1c-19.89,21.11-38.67,43.29-58.37,64.58C191.39,389.64,181.54,400.2,171.86,410.93Z"/><path class="cls-2" d="M358.86,116a430.87,430.87,0,0,0-40.45-15c-14-4.23-30.11-9-44.83-7.28-5.21.62-6.16,6.48-3.06,9.4-1.5,12,5.1,26.62,8.1,37.55,4.74,17.26,9.68,34.47,14.55,51.7,4.69,16.59,9.35,33.18,14.14,49.74,4.49,15.53,7.09,34.66,15.77,48.38a4.09,4.09,0,0,0,5.91,1.33c2.6,2.57,5.93,3,10.33,4.27,7.55,2.16,15.17,4.13,22.78,6.06,15.84,4,31.73,7.88,47.55,12q22.82,6,45.49,12.5c7.57,2.16,15.1,4.42,22.69,6.51,7.25,2,14.81,5.31,22.35,4.27a4.72,4.72,0,0,0,1.44-.44c1.25.13,2.54.26,3.9.43,4.17.54,8.31-2.74,7.81-7.19-6.59-60-29.36-123.66-73.93-165.82C416.42,142.8,387.83,128.08,358.86,116ZM493.17,324.41c-3-.87-6.18-1.48-9.45-2.3-7.61-1.93-15.23-3.73-22.86-5.56q-23.87-5.71-47.56-12c-15.21-4-30.35-8.25-45.5-12.47C360.24,290,352.65,287.93,345,286c-5.17-1.29-9.21-3.09-13.5-2.15-.88-14.63-7.72-30.31-11.56-44.15-4.61-16.61-9.33-33.19-14-49.78s-9.35-33.18-14.15-49.74c-2.77-9.53-4.74-23.53-10-33.66,10.94,2.21,22,3.7,32.77,7.1,13.18,4.13,26.08,9.18,38.81,14.49,27.45,11.46,54.31,25.17,76.27,45.57,42.44,39.42,58.67,94.89,68.91,150A18.66,18.66,0,0,0,493.17,324.41Z"/><path class="cls-2" d="M472.35,381.61c-26.34-7.65-52.72-15.14-79-22.83q-20.6-6-41.19-12c-12.06-3.52-26-10-38.7-7.68a3.1,3.1,0,0,0-1.68.85,6.79,6.79,0,0,0-3.73,2.13c-19.36,20.76-37,43.26-55.83,64.49Q238,422.49,223.61,438.19c-8.75,9.53-19.07,18.93-24.52,30.84-.85,1.88,1,4.53,3.09,3.93-1.73,2.34-2,5.89.7,8.1C222.34,497,250.62,505,275.22,507.74c28.39,3.22,56.13-1.51,82.86-11.18C409.3,478,463.91,443,483.48,389.41,486.15,382.08,476.84,376.76,472.35,381.61ZM355.69,484.81c-25.3,9.7-51.47,15.12-78.58,11.89-25.52-3-45.85-13.64-68.15-25.43a5.28,5.28,0,0,0-2.49-.63c9.12-5.7,16.56-14.17,23.92-21.89q15.38-16.17,30.43-32.62c19.52-21.34,39.95-42.6,57.39-65.7a8.76,8.76,0,0,0,.7-1.14c8.88,5,20.08,7.08,29.38,9.94q20.38,6.28,40.87,12.26c25.76,7.49,51.56,14.79,77.5,21.63C444.12,438.16,402.58,466.83,355.69,484.81Z"/><path class="cls-2" d="M298.87,21.17c-68.39-5.22-133.13,26.71-179.19,76a290.9,290.9,0,0,0-34.81,45.64,4.49,4.49,0,0,0-1.71,1.57c-9.28,14-19.13,27.95-26.21,43.2-7.22,15.56-10.52,32.06-11.73,49.09-.4,5.75-.67,11.52-.87,17.29q-.72,5.32-1.22,10.66c-4.55,49.15,4,100.89,23.86,146.88,14.94,40.17,38.12,76.89,71.71,104.88,46.73,38.94,109.43,56.74,169.71,54.08C378,567.37,444.58,537,497,491.91c27.51-23.7,48.77-49.82,60.32-84.62,10.45-31.48,16.14-64.67,14.53-97.89-3.59-73.63-47-142-96-194.57C429.4,65.07,368,26.45,298.87,21.17ZM546.55,258.53c9.84,31.18,12,63.68,7.32,96-4.6,31.81-13.77,65.77-33.63,91.6-20,26-47.34,47.39-75,64.71A308.13,308.13,0,0,1,356.41,549c-57.42,14.33-118.89,8.71-171.8-18.31C127.53,501.48,90.42,450,72,389.35,62.51,357.87,57.87,325,56.41,292.19,55.74,277.42,55.2,262.12,56,247c7.29-37.56,22.1-74.09,42.82-104.92,35.44-52.75,91-96.59,155.15-106,62.6-9.14,124.89,14.14,173.58,52.74a348.3,348.3,0,0,1,70.78,76.24C518.12,194.1,535.93,224.83,546.55,258.53Z"/></svg>