<svg id="Layer_1" data-name="Layer 1" xmlns="http://www.w3.org/2000/svg" viewBox="0 0 600 600"><defs><style>.cls-1{fill:#f7941e;}.cls-2{fill:#f2b879;}.cls-3{fill:#414042;}.cls-4{fill:#e27683;}.cls-5{fill:#58595b;}.cls-6{fill:#939598;}.cls-7{fill:#231f20;}</style></defs><title>doodle</title><polygon class="cls-1" points="96.23 401.48 202.41 281.34 335.21 131.72 364.83 166.96 423.04 218.53 449.6 234.36 367.38 335.5 260.66 447.81 211.64 500.92 146.28 455.98 96.23 401.48"/><path class="cls-2" d="M188.27,470.12a41.72,41.72,0,0,0-40.91-7.78c-3.39,1.19-6.2-1.86-6.47-4.92-1.31-14.7-2.24-30.46-13.4-41.56a33,33,0,0,0-17.87-9.09c-4.71-.73-11.84-.43-16.46,2.55L91,411.75a3.25,3.25,0,0,1-1.1.81,2.85,2.85,0,0,1-1,.73c-3,11.74-8.73,23.31-13,34.46C71.06,460,66.36,472.26,61.58,484.5q-12.88,33-25.66,66.15l-.07.18a127.71,127.71,0,0,1,12.71,9.93c2.06,1.73,4.68,3.56,6.42,5.81q10.73-3.84,21.41-7.78c21.51-8,42.85-16.41,64.08-25.07q17.06-7,34-14.19c9.29-4,18.47-8.49,27.94-12C202.15,493.17,199.74,480.22,188.27,470.12Z"/><path class="cls-3" d="M32.19,559.42A25.64,25.64,0,0,0,30,568.69c0,8.18,9.54,3.38,14.08,1.79l0,0c-.5-.45-1-.91-1.48-1.34C39.05,566,35.45,562.86,32.19,559.42Z"/><path class="cls-4" d="M392.67,121.55q13.47,13.42,27.44,26.37c17.49,16.16,36.28,36,59.5,43.41a5.67,5.67,0,0,1,2.45,1.5q15.76-17.7,32.26-34.75c6.29-6.47,12.88-12.68,19.1-19.22,5.92-6.21,12-13.45,13.36-22.22,2.81-18.37-15.22-34.08-27.07-45.37a312.59,312.59,0,0,0-44.24-35.12c-7.59-5-16.31-11.06-25.73-11.32S433.87,31.31,428,37.67q-27.94,30.46-55.55,61.26c2.7,3.11,5.07,6.51,7.81,9.61C384.26,113,388.43,117.32,392.67,121.55Zm132.18,10c6-8,2.9-15,.16-23.69a.57.57,0,0,1,1-.55c3.92,4.49,7.16,9.46,7,15.67-.1,4.57-2.06,9-6.4,10.81A1.54,1.54,0,0,1,524.85,131.5ZM483,61.83a119.77,119.77,0,0,1,20.5,15.25c5.53,5.18,11.9,11.25,14.79,18.4.42,1-1,1.49-1.65,1-6.22-4.87-10.95-11.91-16.57-17.48a201.36,201.36,0,0,0-18-15.93C481.37,62.48,482.27,61.4,483,61.83Z"/><path class="cls-5" d="M409.1,167.06c17.82,16.9,38.07,31.15,61.49,38.84,1.29-1.49,2.57-3,3.86-4.46-23.87-8.43-43.08-28-61.26-44.87Q397.47,142,382.7,126.48c-5.69-6-12.67-12.92-16.22-20.87l-5.15,5.75c7.35,9.9,14.48,19.76,22.63,29.12C392,149.68,400.25,158.67,409.1,167.06Z"/><path class="cls-6" d="M367.24,161.38c8.7,8.82,17.28,17.77,26.2,26.37,17.11,16.51,35.58,31.56,57.55,41q8.07-9.58,16.27-19c-23-7.84-43-22.09-60.56-38.76a366.86,366.86,0,0,1-28.5-30.76c-6.77-8.08-14.52-16.8-18.79-26.71q-9.87,11-19.71,22C350,142.63,358.55,152.59,367.24,161.38Z"/><path class="cls-7" d="M544.6,82.7c-11.92-15-27.14-28-42.24-39.76-13.52-10.51-29.72-24.36-47-27.6-18.49-3.47-29.9,10.16-41,22.59l-43.73,49q-43.74,49-87.42,98c-58.63,65.63-116.82,131.65-175.3,197.42q-8.09,9.09-16.15,18.21a17.12,17.12,0,0,0-4.85,3.72,3.05,3.05,0,0,0-2.81,1.53c-6.92,10.77-10.78,24.05-15.49,35.9-5,12.62-10.07,25.23-15,37.89q-14.58,37.32-29,74.73c-3.21,8.33-7.25,19.06.89,26,7.9,6.78,21.31-1.19,29.39-4q36.64-12.8,72.9-26.68Q148,541.9,168,533.73c13.68-5.57,28-10.6,41.09-17.52a4.61,4.61,0,0,0,2-2.1,4.81,4.81,0,0,0,2.52-2.21L367.87,346c50.54-59.3,97.1-122,151.21-178.24,11.93-12.39,27.94-24.35,35-40.45S554.85,95.63,544.6,82.7ZM260,224.75q38-42.31,75.76-84.81a118.78,118.78,0,0,0,13.35,16.63C319.22,189.09,290.85,223,261.48,256c-13.77,15.44-29.06,29.14-43.9,43.49-15.51,15-29.63,31.32-43.88,47.49-16,18.12-32.41,35.95-47.86,54.53a39.17,39.17,0,0,0-21.33-4.67Q182.4,310.92,260,224.75Zm91.47-65.65c3.27,3.45,6.57,6.83,9.7,10.2,7.16,7.73,14.34,15.45,21.71,23-63.18,67-124,136.35-186.55,204q-13.53,14.64-27.17,29.17c-5.92,6.31-12.28,12.52-18.06,19.11-1.59-16.21-9.07-32.79-22.59-41.51,29.3-30.92,55.86-64.43,85.87-94.68,14.57-14.67,30.39-28,44.4-43.24,14.83-16.11,29-32.84,43.45-49.3C318.73,197,335.39,178.31,351.46,159.1ZM44.05,570.48c-4.54,1.59-14,6.39-14.08-1.79a25.64,25.64,0,0,1,2.22-9.27c3.26,3.44,6.86,6.54,10.42,9.7.49.43,1,.89,1.48,1.34Zm130.41-51q-16.94,7.25-34,14.19c-21.23,8.66-42.57,17.11-64.08,25.07Q65.71,562.73,55,566.57c-1.74-2.25-4.36-4.08-6.42-5.81a127.71,127.71,0,0,0-12.71-9.93l.07-.18q12.77-33.09,25.66-66.15c4.78-12.24,9.48-24.5,14.22-36.75,4.32-11.15,10-22.72,13-34.46a2.85,2.85,0,0,0,1-.73,3.25,3.25,0,0,0,1.1-.81l2.2-2.43c4.62-3,11.75-3.28,16.46-2.55a33,33,0,0,1,17.87,9.09c11.16,11.1,12.09,26.86,13.4,41.56.27,3.06,3.08,6.11,6.47,4.92a41.72,41.72,0,0,1,40.91,7.78c11.47,10.1,13.88,23.05,14.14,37.4C192.93,511,183.75,515.56,174.46,519.53Zm20.32-57.34c-12.16-10.21-28-13.72-43.36-11.21,0-.43,0-.87,0-1.3,6.67-6.07,12.78-13,18.94-19.41q12-12.54,23.88-25.19c15.86-16.85,31.53-33.87,47.18-50.92q47.24-51.45,94.25-103.09c16.85-18.46,34-36.73,50.59-55.41.67.67,1.32,1.35,2,2,11.69,11.57,24.18,22.24,38.05,30.78q-87.06,97.89-174,195.9c-15.3,17.19-31,34-46.51,51A51.86,51.86,0,0,0,194.78,462.19Zm173.6-133.75c-27.18,32-55.3,63.32-86,92-24.49,22.88-43.67,46.75-69.78,73.06A52.06,52.06,0,0,0,207.28,478c30.69-29,57.85-62.15,85.93-93.63q44.66-50.1,89.28-100.22Q406.28,257.46,430,230.7a139.56,139.56,0,0,0,13.58,6.91C418.41,267.79,393.81,298.49,368.38,328.44ZM451,228.79c-22-9.48-40.44-24.53-57.55-41-8.92-8.6-17.5-17.55-26.2-26.37S350,142.63,339.7,135.52q9.84-11,19.71-22c4.27,9.91,12,18.63,18.79,26.71A366.86,366.86,0,0,0,406.7,171c17.55,16.67,37.58,30.92,60.56,38.76Q459.07,219.22,451,228.79Zm19.6-22.89c-23.42-7.69-43.67-21.94-61.49-38.84-8.85-8.39-17.13-17.38-25.14-26.58-8.15-9.36-15.28-19.22-22.63-29.12l5.15-5.75c3.55,8,10.53,14.86,16.22,20.87q14.74,15.55,30.49,30.09c18.18,16.86,37.39,36.44,61.26,44.87C473.16,202.92,471.88,204.41,470.59,205.9Zm76.19-89.26c-1.34,8.77-7.44,16-13.36,22.22-6.22,6.54-12.81,12.75-19.1,19.22q-16.55,17-32.26,34.75a5.67,5.67,0,0,0-2.45-1.5c-23.22-7.45-42-27.25-59.5-43.41q-14-12.91-27.44-26.37c-4.24-4.23-8.41-8.52-12.38-13-2.74-3.1-5.11-6.5-7.81-9.61Q400.13,68.18,428,37.67c5.84-6.36,12.39-13.11,21.71-12.84s18.14,6.34,25.73,11.32a312.59,312.59,0,0,1,44.24,35.12C531.56,82.56,549.59,98.27,546.78,116.64Z"/><path class="cls-7" d="M500.06,79c5.62,5.57,10.35,12.61,16.57,17.48.66.53,2.07.08,1.65-1-2.89-7.15-9.26-13.22-14.79-18.4A119.77,119.77,0,0,0,483,61.83c-.72-.43-1.62.65-.92,1.2A201.36,201.36,0,0,1,500.06,79Z"/><path class="cls-7" d="M526.57,133.74c4.34-1.81,6.3-6.24,6.4-10.81.15-6.21-3.09-11.18-7-15.67a.57.57,0,0,0-1,.55c2.74,8.73,5.87,15.64-.16,23.69A1.54,1.54,0,0,0,526.57,133.74Z"/></svg>