<svg id="Layer_1" data-name="Layer 1" xmlns="http://www.w3.org/2000/svg" viewBox="0 0 600 600"><defs><style>.cls-1{fill:#2b3990;}.cls-2{fill:#fff;}.cls-3{fill:#8dc63f;}.cls-4{fill:#fff200;}.cls-5{fill:#231f20;}</style></defs><title>doodle</title><path class="cls-1" d="M490.05,225.46c10-6.33,21.72-16.81,19.21-30-3.72-19.61-26.42-10.88-37.17-3.13-7.74,5.58-13.06,13.35-14.35,22.05C460.4,230.48,476.35,234.13,490.05,225.46Z"/><path class="cls-1" d="M516.65,313.42c11.85,3.45,22.62,10.71,34.1,1.22,9.72-8,18.33-23.84,4.61-32.65-10.46-6.72-28.43-5.35-37.32,3.3C509.63,293.47,509.57,305.7,516.65,313.42Z"/><path class="cls-2" d="M132.34,240c6-4.46,10.17-13.87,12.06-20.87a33.52,33.52,0,0,0,1.15-5.31l.21-2.9-.45.95c-2.24-.41-6.88,2.07-9.73,2.05-1.36,2.32-2.51,4.69-3.46,6.7-1.93,4-4.15,8.32-5.17,12.7C125.79,238.32,126.27,244.46,132.34,240Z"/><path class="cls-1" d="M476.58,127c9.64,4.5,19.13,1.39,28.7-.87a208.89,208.89,0,0,0-39.89-25.86C465.07,110.94,465.16,121.68,476.58,127Z"/><path class="cls-3" d="M288.8,355.32c28.79,10.86,59.32-12.95,73-36.29,7.77-13.29,12.55-28.07,15.79-43.06,3.53-16.33,5.46-34,.16-50.13-4.31-13.14-13.64-25.18-27.27-29.3-12.75-3.85-27,0-38.23,6.51a4.5,4.5,0,0,1-3.21.6,104.8,104.8,0,0,0-13.13,14.94,126.47,126.47,0,0,0-20.46,44.09c-4.18,16.5-5,33.65-3.65,50.57C272.9,327,273.52,349.56,288.8,355.32Zm4.4-85.8c4.07-9.89,15.7-27,28.25-21.87,3.59-.18,7.1,1.66,9.33,5.48,4,6.89,1.56,17.52-.41,24.69-3.28,11.94-14.16,36.53-30.11,33.42C282.54,307.79,288.58,280.73,293.2,269.52Z"/><path class="cls-2" d="M305.71,291.51c2.06-3.58,4.69-6.67,6.51-10.44,2.09-4.33,6.49-14.35,4.4-20-7.16,7.89-11.62,17-12,28.9C304.49,293.44,303,296.23,305.71,291.51Z"/><path class="cls-1" d="M465.6,384.48c12.41-11.22,15.39-32.27,1.72-43.93-14.66-12.5-30.12-3.34-40.25,8.94A40,40,0,0,0,421.45,371C422.23,395.1,450.51,398.12,465.6,384.48Z"/><path class="cls-1" d="M555.14,228.12c2.76,6.43,7.22,8.57,12.48,9.53a244.77,244.77,0,0,0-10.08-36.39C552.37,208.82,551.53,219.71,555.14,228.12Z"/><path class="cls-1" d="M343.28,449.56c-4.19-10.83-10.86-17-22.81-17.59-17.84-.84-31.52,9.11-39.82,24.53-7.79,14.48-3.62,31.42,8.25,41.63q19.83,1.78,39.78,2.06a37.3,37.3,0,0,0,7.92-6.83,41.39,41.39,0,0,0,9.24-19.72A45.71,45.71,0,0,0,343.28,449.56Z"/><path class="cls-1" d="M548.09,421.37c-15.51-6.82-39-2.13-50.31,10.25a50.89,50.89,0,0,0-11.43,21.24c-1.53,5.79-2.37,16.55.21,24A150.23,150.23,0,0,0,505,468.27c20.26-11.31,34.86-27.76,45.25-46.86A2.63,2.63,0,0,1,548.09,421.37Z"/><path class="cls-3" d="M96.5,305.18c14.3,6.63,30.75.49,42.51-8.4,23.15-17.52,40.07-45.77,49.79-72.71,4.9-13.6,24.93-79.86-4-77.5a4.66,4.66,0,0,1-3.8-1.35,87.57,87.57,0,0,0-30,13.32A173,173,0,0,0,116,190.64C98.22,211.84,79,242.15,78.44,270.58,78.15,284,83.57,299.19,96.5,305.18ZM118,217.62c5-10.21,20.69-33.71,33.58-21.24a12.53,12.53,0,0,1,3.77,1.71c7.19,4.81,6.66,13.74,5.24,21.25-2.72,14.37-14.12,38.14-31.38,38.49-7.68.15-14.23-5.18-16.66-12.35C109.22,235.77,113.76,226.27,118,217.62Z"/><path class="cls-4" d="M35.33,371.59c2.78,6.51,5.69,13,9,19.23,6.12,11.75,13.39,22.85,23.21,31.87,10.51,9.64,23.37,16.45,36,22.83A503.64,503.64,0,0,0,180,476.46a521.25,521.25,0,0,0,103.8,21.17,35,35,0,0,1-8.41-40.58c8.68-19.67,26.58-32,48.09-30.55,33.71,2.34,36.36,51.68,16,73.73h2.42A506.38,506.38,0,0,0,424,492.68c19.4-3.42,39.59-7.37,58.43-14.23-2.74-6.43-2.95-15.62-2.48-20.78.92-10.15,5.66-20.43,12.11-28.24a43.67,43.67,0,0,1,28.64-15.65c8.64-1.14,23.81-3.27,30.36,3.79a2.63,2.63,0,0,1,.63,1.08c13.94-27,19.79-59,21.37-89.28,1.46-27.88.71-56.7-4.1-84.64-7.95-.67-16.14-7.08-19.07-13.8-4.43-10.18-4.16-27.11,6.18-33.56-1.71-4.41-3.52-8.79-5.53-13.09a166.57,166.57,0,0,0-40.44-54.05c-12,5.05-27.67,7.15-39-.2-10.85-7-12-20.07-9.7-31.75A271.84,271.84,0,0,0,434.07,87c-98.85-34.75-211.77-15.49-293.28,50.3A328,328,0,0,0,29.36,314.51c-.59,3.56-1.12,7.23-1.55,10.95,2.24,8,1.42,17.5,2.62,25.46A176.35,176.35,0,0,0,35.33,371.59Zm158.37-37c-5.39,7.16-13.64,15.75-23.64,13.78s-12.91-11.72-12.68-20.64c.19-7.17.37-19.93,9.17-21.89,3.59-.79,7.16,3.95,3.89,6.69-2,1.7-.25,12.33-.07,15.2.14,2.2-.28,6.5,2.66,7.17,1.68.38,4.71-3.23,5.63-4.16,7.58-7.73,10.68-18.38,17.42-26.63,1.92-2.36,6.51-1.12,7,1.86C205,316.43,199.83,326.45,193.7,334.6Zm362.17-58.66c16.45,7.3,14.59,25.29,4.57,37.37-12.66,15.26-32.79,16.12-47.23,2.14a1.44,1.44,0,0,1-.42-.83c-6.89-7.39-8.34-18.68-2-28.31C520.18,272,541.05,269.36,555.87,275.94ZM515.39,195c3,18.64-17,36.94-33.62,41-8,2-17.58-.83-23.42-6.46a1.05,1.05,0,0,1-1-.44,27.8,27.8,0,0,1-1.49-2.53,15.35,15.35,0,0,1-2.82-9.31C450.26,186.55,509.67,159.41,515.39,195ZM422.12,348.74c9.08-17.78,31.69-26.84,48.77-12.82,17.89,14.7,13.32,42.48-4.15,55.31-17.7,13-47.22,8.24-50-16.69A42.68,42.68,0,0,1,422.12,348.74ZM335.77,132.36c3.91-7,13.61-6.89,20.69-7.75,8.39-1,22.39-4.62,28.39,2.94,1.58,2,2.67,5,1,7.38-5.6,7.68-14.25,5.86-22.93,5.52A133,133,0,0,1,337.66,137,3.2,3.2,0,0,1,335.77,132.36ZM267.3,242.93c6.78-16.65,16.84-32.08,30.21-44.2,7.2-6.52,17-13.59,27-15.18a49.18,49.18,0,0,1,32.12.08c18.25,6.27,30.74,22.73,36,40.82,6.09,20.9,2.77,43.61-2.74,64.26-5,18.57-12.75,36.52-24.89,51.56-11.5,14.26-27.62,25.37-45.54,29.71-15.82,3.84-36.54,3.2-48.53-9.39-12.3-12.91-12.94-37.21-13.65-53.94C256.37,285.16,259.15,262.94,267.3,242.93ZM221,93.4c1.21-2.26,4.4-2.71,6.55-1.81s4,3.33,5.4,5.19a24.43,24.43,0,0,1,5.26,14,5.76,5.76,0,0,1-2.9,5,6.6,6.6,0,0,1-3,.8,5.89,5.89,0,0,1-5-2.89c-2-3.1-3.23-6.52-4.69-10S219.08,97,221,93.4ZM78,223.7a210.69,210.69,0,0,1,30.93-46c12.23-13.82,26.72-26.2,43-35,11.81-6.41,26.94-12.3,40.5-9.45a16.3,16.3,0,0,1,9.22,3.57c.2.12.42.21.62.34a2.79,2.79,0,0,1,1,1c6.74,6.29,10.74,17.38,11,26.16.63,20.82-4,42.75-10.89,62.29-11.74,33.18-34.13,71.83-66.47,88.7-15,7.85-33.61,10-48.95,1.73-14-7.57-21.82-22.95-23.54-38.3C62.27,259.46,69.65,240.63,78,223.7Z"/><path class="cls-5" d="M88,317c15.34,8.31,33.91,6.12,48.95-1.73,32.34-16.87,54.73-55.52,66.47-88.7,6.91-19.54,11.52-41.47,10.89-62.29-.27-8.78-4.27-19.87-11-26.16a2.79,2.79,0,0,0-1-1c-.2-.13-.42-.22-.62-.34a16.3,16.3,0,0,0-9.22-3.57c-13.56-2.85-28.69,3-40.5,9.45-16.27,8.84-30.76,21.22-43,35A210.69,210.69,0,0,0,78,223.7c-8.39,16.93-15.77,35.76-13.61,55C66.15,294.05,74,309.43,88,317Zm28-126.36A173,173,0,0,1,151,158.54a87.57,87.57,0,0,1,30-13.32,4.66,4.66,0,0,0,3.8,1.35c28.89-2.36,8.86,63.9,4,77.5C179.08,251,162.16,279.26,139,296.78c-11.76,8.89-28.21,15-42.51,8.4-12.93-6-18.35-21.2-18.06-34.6C79,242.15,98.22,211.84,116,190.64Z"/><path class="cls-5" d="M129.17,257.83c17.26-.35,28.66-24.12,31.38-38.49,1.42-7.51,1.95-16.44-5.24-21.25a12.53,12.53,0,0,0-3.77-1.71c-12.89-12.47-28.61,11-33.58,21.24-4.2,8.65-8.74,18.15-5.45,27.86C114.94,252.65,121.49,258,129.17,257.83ZM127,233.3c1-4.38,3.24-8.67,5.17-12.7.95-2,2.1-4.38,3.46-6.7,2.85,0,7.49-2.46,9.73-2.05l.45-.95-.21,2.9a33.52,33.52,0,0,1-1.15,5.31c-1.89,7-6,16.41-12.06,20.87S125.79,238.32,127,233.3Z"/><path class="cls-5" d="M196.08,304.12c-6.74,8.25-9.84,18.9-17.42,26.63-.92.93-3.95,4.54-5.63,4.16-2.94-.67-2.52-5-2.66-7.17-.18-2.87-2-13.5.07-15.2,3.27-2.74-.3-7.48-3.89-6.69-8.8,2-9,14.72-9.17,21.89-.23,8.92,2.79,18.69,12.68,20.64s18.25-6.62,23.64-13.78c6.13-8.15,11.25-18.17,9.41-28.62C202.59,303,198,301.76,196.08,304.12Z"/><path class="cls-5" d="M270.93,360.59c12,12.59,32.71,13.23,48.53,9.39,17.92-4.34,34-15.45,45.54-29.71,12.14-15,19.93-33,24.89-51.56,5.51-20.65,8.83-43.36,2.74-64.26-5.28-18.09-17.77-34.55-36-40.82a49.18,49.18,0,0,0-32.12-.08c-10,1.59-19.78,8.66-27,15.18-13.37,12.12-23.43,27.55-30.21,44.2-8.15,20-10.93,42.23-10,63.72C258,323.38,258.63,347.68,270.93,360.59Zm4.49-97.91a126.47,126.47,0,0,1,20.46-44.09A104.8,104.8,0,0,1,309,203.65a4.5,4.5,0,0,0,3.21-.6c11.24-6.53,25.48-10.36,38.23-6.51,13.63,4.12,23,16.16,27.27,29.3,5.3,16.18,3.37,33.8-.16,50.13-3.24,15-8,29.77-15.79,43.06-13.65,23.34-44.18,47.15-73,36.29-15.28-5.76-15.9-28.28-17-42.07C270.38,296.33,271.24,279.18,275.42,262.68Z"/><path class="cls-5" d="M300.26,311.24c15.95,3.11,26.83-21.48,30.11-33.42,2-7.17,4.43-17.8.41-24.69-2.23-3.82-5.74-5.66-9.33-5.48-12.55-5.12-24.18,12-28.25,21.87C288.58,280.73,282.54,307.79,300.26,311.24ZM304.61,290c.39-11.94,4.85-21,12-28.9,2.09,5.62-2.31,15.64-4.4,20-1.82,3.77-4.45,6.86-6.51,10.44C303,296.23,304.49,293.44,304.61,290Z"/><path class="cls-5" d="M337.66,137a133,133,0,0,0,25.22,3.44c8.68.34,17.33,2.16,22.93-5.52,1.71-2.35.62-5.39-1-7.38-6-7.56-20-4-28.39-2.94-7.08.86-16.78.78-20.69,7.75A3.2,3.2,0,0,0,337.66,137Z"/><path class="cls-5" d="M227.33,113.78a5.89,5.89,0,0,0,5,2.89,6.6,6.6,0,0,0,3-.8,5.76,5.76,0,0,0,2.9-5,24.43,24.43,0,0,0-5.26-14c-1.37-1.86-3.21-4.27-5.4-5.19s-5.34-.45-6.55,1.81c-1.94,3.64.16,7,1.62,10.43S225.3,110.68,227.33,113.78Z"/><path class="cls-5" d="M13.93,359.47C22.34,385.45,32.5,412,52,431.86c20.31,20.6,49.3,32.8,75.54,43.89a536.44,536.44,0,0,0,174.21,40.8c58.78,3.76,120.2-1.41,176.68-18.75,27.24-8.36,52.25-21.87,70.51-44.19,17.65-21.57,28.64-47.52,34.5-74.64,11.66-54,9.92-115.17-5.64-168.24-7.24-24.68-18.22-48.36-33.91-68.81-17.08-22.26-39.39-39.26-64.16-52.2-99.9-52.16-226.46-45.12-320.44,16.8C116.27,134.89,80,174.07,54.11,218.59a329,329,0,0,0-30.58,70.3c-6,20-10.69,42.32-8.07,63.46C13.76,353.92,12.92,356.34,13.93,359.47ZM328.68,500.19q-19.94-.29-39.78-2.06c-11.87-10.21-16-27.15-8.25-41.63,8.3-15.42,22-25.37,39.82-24.53,11.95.57,18.62,6.76,22.81,17.59a45.71,45.71,0,0,1,2.56,24.08,41.39,41.39,0,0,1-9.24,19.72A37.3,37.3,0,0,1,328.68,500.19ZM505,468.27a150.23,150.23,0,0,1-18.39,8.61c-2.58-7.47-1.74-18.23-.21-24a50.89,50.89,0,0,1,11.43-21.24c11.36-12.38,34.8-17.07,50.31-10.25a2.63,2.63,0,0,0,2.11,0C539.81,440.51,525.21,457,505,468.27Zm62.67-230.62c-5.26-1-9.72-3.1-12.48-9.53-3.61-8.41-2.77-19.3,2.4-26.86A244.77,244.77,0,0,1,567.62,237.65ZM465.39,100.27a208.89,208.89,0,0,1,39.89,25.86c-9.57,2.26-19.06,5.37-28.7.87C465.16,121.68,465.07,110.94,465.39,100.27Zm-436,214.24A328,328,0,0,1,140.79,137.33C222.3,71.54,335.22,52.28,434.07,87a271.84,271.84,0,0,1,27.27,11.25C459,110,460.19,123,471,130c11.35,7.35,27,5.25,39,.2a166.57,166.57,0,0,1,40.44,54.05c2,4.3,3.82,8.68,5.53,13.09-10.34,6.45-10.61,23.38-6.18,33.56,2.93,6.72,11.12,13.13,19.07,13.8,4.81,27.94,5.56,56.76,4.1,84.64-1.58,30.24-7.43,62.24-21.37,89.28a2.63,2.63,0,0,0-.63-1.08c-6.55-7.06-21.72-4.93-30.36-3.79A43.67,43.67,0,0,0,492,429.43c-6.45,7.81-11.19,18.09-12.11,28.24-.47,5.16-.26,14.35,2.48,20.78-18.84,6.86-39,10.81-58.43,14.23a506.38,506.38,0,0,1-82.08,7.54h-2.42c20.37-22.05,17.72-71.39-16-73.73C302,425,284.06,437.38,275.38,457.05a35,35,0,0,0,8.41,40.58A521.25,521.25,0,0,1,180,476.46a503.64,503.64,0,0,1-76.48-30.94c-12.65-6.38-25.51-13.19-36-22.83-9.82-9-17.09-20.12-23.21-31.87-3.26-6.27-6.17-12.72-9-19.23a176.35,176.35,0,0,1-4.9-20.67c-1.2-8-.38-17.42-2.62-25.46C28.24,321.74,28.77,318.07,29.36,314.51Z"/><path class="cls-5" d="M466.74,391.23c17.47-12.83,22-40.61,4.15-55.31-17.08-14-39.69-5-48.77,12.82a42.68,42.68,0,0,0-5.42,25.8C419.52,399.47,449,404.22,466.74,391.23Zm-39.67-41.74c10.13-12.28,25.59-21.44,40.25-8.94C481,352.21,478,373.26,465.6,384.48c-15.09,13.64-43.37,10.62-44.15-13.51A40,40,0,0,1,427.07,349.49Z"/><path class="cls-5" d="M510.79,286.31c-6.34,9.63-4.89,20.92,2,28.31a1.44,1.44,0,0,0,.42.83c14.44,14,34.57,13.12,47.23-2.14,10-12.08,11.88-30.07-4.57-37.37C541.05,269.36,520.18,272,510.79,286.31ZM555.36,282c13.72,8.81,5.11,24.62-4.61,32.65-11.48,9.49-22.25,2.23-34.1-1.22-7.08-7.72-7-19.95,1.39-28.13C526.93,276.64,544.9,275.27,555.36,282Z"/><path class="cls-5" d="M455.82,226.64a27.8,27.8,0,0,0,1.49,2.53,1.05,1.05,0,0,0,1,.44c5.84,5.63,15.39,8.43,23.42,6.46,16.66-4.1,36.62-22.4,33.62-41-5.72-35.62-65.13-8.48-62.39,22.3A15.35,15.35,0,0,0,455.82,226.64Zm16.27-34.32c10.75-7.75,33.45-16.48,37.17,3.13,2.51,13.2-9.22,23.68-19.21,30-13.7,8.67-29.65,5-32.31-11.09C459,205.67,464.35,197.9,472.09,192.32Z"/></svg>