<svg id="Layer_1" data-name="Layer 1" xmlns="http://www.w3.org/2000/svg" viewBox="0 0 600 600"><defs><style>.cls-1{fill:#754c29;}.cls-2{fill:#009344;}.cls-3{fill:#be1e2d;}.cls-4{fill:#fff;}.cls-5{fill:#f7941e;}.cls-6{fill:#ef4136;}.cls-7{fill:#231f20;}</style></defs><title>doodle</title><path class="cls-1" d="M143.68,255.41c9.12,17.77,16.24,36.55,24.15,54.86.84,2-.54,4.41-2.89,3.76a156.66,156.66,0,0,1-25.46-9.47c2.2,8.7,15.46,10.94,22.65,14a27.12,27.12,0,0,1,16.09,18.61q2.76-3.26,5.71-6.33c-3.8-11.78-7.27-23.68-10.87-35.53-3.83-12.56-7.93-25.08-11.46-37.73-3.41-12.26-3-25.23-4.9-37.75a227,227,0,0,0-6.25-28.39c.15,2.95.23,5.81.3,6.53q.65,6.94,1.28,13.88,1.35,14.64,2.71,29.29a2.62,2.62,0,0,1-3.3,2.51c-7.3-2.67-12.05-10.75-17.41-16a164.79,164.79,0,0,0-15.33-13.26c2.81,6.12,6.65,11.76,10.47,17.3A214.61,214.61,0,0,1,143.68,255.41Z"/><path class="cls-2" d="M475.87,306.7q-14,21.24-29.14,41.73c-2.23,3-4.56,6-6.86,9a69.49,69.49,0,0,1,9,12.88c5.13,9.58,8.32,20.07,11.25,30.49,3.37,12,6.74,24.08,8.14,36.52a93.23,93.23,0,0,1,.3,17.59q1.55-1.59,3.15-3C477.19,447,483.56,444.39,490,441c11.86-6.37,17.82-20.73,20.45-33.29s2.26-25.68.64-38.35a153.3,153.3,0,0,0-10.24-39c-4.84-11.74-11.58-22.41-19-32.63Q478.85,302.2,475.87,306.7Z"/><path class="cls-1" d="M426.66,346.61c-6.36,8.39-12.64,16.8-19.51,24.77-.86,3.71-.63,7.9,2.61,10.43,3.49,2.72,7.29,1,9.83-2.12,2.22-2.7,3.35-6.24,4.92-9.32a71.79,71.79,0,0,1,6-9.52c17-23.62,34.25-46.86,49.84-71.47,7.62-12,15-24.24,21-37.19a230,230,0,0,0,13.25-38.52c-1.12-.71-2.25-1.41-3.38-2.11a314.57,314.57,0,0,1-15.06,37.62c-5.43,11.57-10.28,25.18-20.13,33.8a2.6,2.6,0,0,1-4.31-2.5l3-13.78c.43-2,1.89-5.07,0-6.4a11,11,0,0,0-3-1.31,203.48,203.48,0,0,1-24.24,59C441.2,328,433.76,337.24,426.66,346.61Z"/><path class="cls-2" d="M390.18,282.44c5.16,1.38,10.33,2.75,15.44,4.35,9.41,2.94,20.62,6.54,27.54,13.91a.78.78,0,0,1-.94,1.22c-6-3-11.6-6.6-17.91-9.11a178.24,178.24,0,0,0-17.78-5.8c-4.22-1.19-9.08-2.06-13.21-4,7.36,6.84,15.34,12.88,24.75,16.76S430,305,436.24,313.87c1.41,2-1.33,4.53-3.29,3.29a75.11,75.11,0,0,0-15.26-7.71,124.21,124.21,0,0,1-15.57-6.18,61.82,61.82,0,0,1-19.8-15.69,93.51,93.51,0,0,1,4,18.09c3.31.85,6.57,3.09,9.21,4.77,4.2,2.67,8.31,5.54,12.26,8.56,7.29,5.56,14.35,11.92,17.6,20.7,5.86-7.8,11.6-15.67,16.69-24a176.21,176.21,0,0,0,13.69-28.46c-1.5-.39-3-1-4.51-1.24-2.25-.4-4.57-.45-6.85-.67-4-.39-8.05-.84-12.06-1.36a169.46,169.46,0,0,1-23.94-4.62,92.39,92.39,0,0,1-22.77-9.48,53.49,53.49,0,0,1-6.56-4.45,38.54,38.54,0,0,1-1.31,9C380.35,279.12,384.52,280.92,390.18,282.44Z"/><path class="cls-3" d="M267.57,449.73c-.78-.22-1.89.26-2.71.28a3.07,3.07,0,0,1-.53-.06,7.3,7.3,0,0,0-.85,3.26c-.15,2.17.51,5.86,3.49,5.24,2.58-.53,3.15-3.48,2.62-5.67C269.34,451.76,268.74,450.06,267.57,449.73Z"/><path class="cls-2" d="M211.94,330.55c5.3,5.92,11.73,10.27,18.29,14.67,2.45,1.65,1,6.11-2.12,5-12.72-4.52-23.24-15.22-29.87-27.39.19,17.67,9.52,33.12,25.72,41.83,8.51,4.57,18.17,6.62,27.52,8.72a256.73,256.73,0,0,0,31.29,5.28c19,1.88,38.49.82,56.55-5.77,17.52-6.4,31.65-18.16,37.5-36.28,5.77-17.85,2.62-35.92-2.88-53.29-5.36,8.75-14.16,15.92-22.17,22.09-7.08,5.46-18.18,12.61-27.62,9.57a2,2,0,0,1,0-3.84c4.36-1.56,8.78-2.13,13-4.3a68.42,68.42,0,0,0,11.35-7.39c6.73-5.38,14.22-11.52,19.07-18.7,8.06-11.95,5.52-26.43-2.46-37.32a34.37,34.37,0,0,1-3.64,8.49,3.33,3.33,0,0,1-.3.87c-2.72,5.38-8,8.07-13.48,10-6.85,2.39-13.92,4.26-20.95,6a344.93,344.93,0,0,1-43.73,8,131.07,131.07,0,0,1-44.2-2,180.34,180.34,0,0,1-21.47-6.22c-1.51-.53-3-1.08-4.45-1.69a22.44,22.44,0,0,1-4.74-1.71,3.08,3.08,0,0,1-2-1.07l-.2-.24a12.54,12.54,0,0,1-1.89-1.71,33.94,33.94,0,0,0-3.44,5.93c0,3.88-.42,7.66.28,11.62a36.64,36.64,0,0,0,11.15,20.72c2.56,2.43,5.76,4.14,8.22,6.6a.57.57,0,0,1-.55.94c-7.48-1.47-14.1-10-17.35-16.44A41.24,41.24,0,0,1,198,275.74c-2.73,11.14-1.56,23.8,1.74,33.8A59.52,59.52,0,0,0,211.94,330.55Zm115.34-27.27a62.12,62.12,0,0,0,16.19-10.84.65.65,0,0,1,1,.78c-2.86,6.48-10.47,9.09-16.71,11.23A.64.64,0,0,1,327.28,303.28Zm-75.21,32.24c18.07,3.78,36.6,4.34,54.52-.55a105.2,105.2,0,0,0,23.28-9.48c6.92-3.84,12.68-9.18,19.37-13.26.89-.54,1.58.63,1,1.33-5.13,6.48-13.66,11.25-20.84,15.06a105.73,105.73,0,0,1-22.82,8.87c-17.87,4.64-37.19,4.72-54.79-1.05A.48.48,0,0,1,252.07,335.52Z"/><path class="cls-4" d="M210.19,177.88a3.07,3.07,0,0,0-.73-.23.77.77,0,0,1-.5.06,2.48,2.48,0,0,0-.45-.05l-.26.08a2.18,2.18,0,0,0-.77,1,4.41,4.41,0,0,0,.38,3.83,3.26,3.26,0,0,0,2.92-1.48,2.6,2.6,0,0,0,.36-1.09,7.72,7.72,0,0,0-.53-1.73A2.86,2.86,0,0,0,210.19,177.88Z"/><path class="cls-4" d="M211.6,260.64c3.7,1.62,7.86,2.47,11.6,3.51,6.22,1.73,12.5,3.3,18.83,4.55a127.78,127.78,0,0,0,40.23,1.23,329.3,329.3,0,0,0,39.68-7.18q9.49-2.31,18.83-5.17c5.29-1.62,11.54-3.16,14.86-8a3.82,3.82,0,0,1,.55-.63c.56-2,1.28-3.91,1.94-5.86a106.66,106.66,0,0,0,1.61-61.77,114.23,114.23,0,0,0-3.92-11.58c-1.09-2.72-2.62-5.55-3.21-8.48a77,77,0,0,1-15.21,4.05,254.91,254.91,0,0,1-87.6-.35,234.46,234.46,0,0,1-42.42-11.76c-1.44,2.17-3.08,4.28-4.27,6.52a69.35,69.35,0,0,0-5.18,13.42,125,125,0,0,0-4.52,30c-.66,20.44,4.39,40.36,17.52,56.31A3.63,3.63,0,0,1,211.6,260.64Zm124.8-61.39a1.82,1.82,0,0,1,.38-.71,1.66,1.66,0,0,1,.39-.31,2.29,2.29,0,0,1,2-1.13,2.71,2.71,0,0,1,2,4.14,2.74,2.74,0,0,1-4.33.35A2.48,2.48,0,0,1,336.4,199.25Zm-15.7-24.69a6.22,6.22,0,0,1,1.14,0h.05a4.84,4.84,0,0,1,.77,0,4.39,4.39,0,0,1,4.69,4,4.64,4.64,0,0,1,.06.91,6.35,6.35,0,0,1-.26,4.5c-2,4.23-8,4.73-10.27.49a5.72,5.72,0,0,1-.6-2.37C315.55,178.94,317.27,175,320.7,174.56ZM201.56,203.79a2.35,2.35,0,0,1-3.39-1.46,1.54,1.54,0,0,1,0-.31,1.44,1.44,0,0,1,0-1.34,2.49,2.49,0,1,1,3.46,3.11Zm82.63,5.28c-.08-1.63,2.27-1.8,2.73-.37,1.54,4.79.43,12.07-1.28,16.74a14.81,14.81,0,0,1-7.38,8.68,12.26,12.26,0,0,1-11.94-.94c-3-2.07-5.82-6.38-4.53-10.11a.66.66,0,0,1,1.19-.15c1.66,3.17,2.3,6.42,5.83,8.23a9.46,9.46,0,0,0,10.67-1.56C284.72,224.64,284.51,215.67,284.19,209.07Zm-60-6.38h0a21.26,21.26,0,0,1,2.76-1.34,8.53,8.53,0,0,1,2.71-.76c4.6-1.83,9.44-3.18,14.11-4.58,7.1-2.13,14.32-4.05,21.59-5.52,1.57-.32,3.07-.73,4.45-.23a.57.57,0,0,1,.68.13c.32.33.62.66.91,1a4.81,4.81,0,0,1,.42.48,21.11,21.11,0,0,1,4.81,13.08v.13a13.79,13.79,0,0,1-.59,7.32c-.75,1.7-2,2.21-3.76,2.45a82.58,82.58,0,0,1-10.2.3,126.38,126.38,0,0,1-19.64-1c-5.87-.84-13.22-2-18.26-5.3C221.94,207.27,220.76,203.65,224.22,202.69Zm-20.47-20.15c-1-3,.94-7.11,4.1-7.74l.18,0a4.41,4.41,0,0,1,3.4.38,4.82,4.82,0,0,1,1.46,1.21,7.44,7.44,0,0,1,2.33,4.38c.47,3.44-1.92,7.28-5.55,7.67C205.66,188.84,203.88,185.76,203.75,182.54Z"/><path class="cls-3" d="M266.94,408.47c1.54-1.24,1.15-4-.33-5.1s-3.16-.79-4.83-.38a5.67,5.67,0,0,0-.14,3.6C262.36,408.64,265,410,266.94,408.47Z"/><path class="cls-4" d="M150.61,458.59a150.37,150.37,0,0,0,23,61.11c11.93,18,28.31,31.68,47.78,40.93,19.22,9.13,40.26,14.08,61.09,18,12.16,2.27,24.5,3.94,36.9,3.54,12.15-.39,24.05-2.94,35.9-5.45,11.13-2.37,22.1-4.94,31.79-11.17,9.36-6,17.42-14.06,25.27-21.88,15.63-15.56,29.87-32.82,39.13-53a107.32,107.32,0,0,0,9.36-32.85c1.3-12-.09-23.79-2.81-35.48-2.49-10.75-5.38-21.52-8.81-32-3.17-9.65-7.29-19.12-13.72-27-1.17,1.66-2.29,3.34-3.35,5.07-3.59,5.87-5.25,13.56-10.65,18.15a12,12,0,0,1-16,.06c-5.19-4.55-5.66-11.71-3.47-17.88a2.79,2.79,0,0,1,1.21-1.51,16.28,16.28,0,0,1,3.51-5.15,66.1,66.1,0,0,1,7.07-7c3.15-4.29,6.36-8.54,9.56-12.79a1.47,1.47,0,0,1-1.15-.56,99.83,99.83,0,0,0-18.56-18.29c-3.66-2.71-7.44-5.31-11.29-7.73a55.79,55.79,0,0,0-5.65-3.16,73.66,73.66,0,0,1-6,32.67c-17.73,40-70,44.52-107.8,39.08a289.25,289.25,0,0,1-33.32-7c-9.79-2.61-19-6.28-27.08-12.57-10.54-8.24-18.5-21-19.86-34.36-15.13,16.51-27.51,35-35.07,56.26A150.57,150.57,0,0,0,150.61,458.59ZM270.21,464c-5.8,2.52-11.76-1.32-12.62-7.41-.76-5.45,1.31-11.44,6.59-12.36a6.22,6.22,0,0,1,4.18-1.08c3.26.32,5.61,2.87,6.84,5.74C277.56,454.44,276,461.5,270.21,464Zm-13.44-63.77a2.07,2.07,0,0,1,.35-1c3.62-5.43,12.64-3.71,15.77,1.34s1.29,12.15-4.46,14.25a9.87,9.87,0,0,1-13.06-8.4A9.68,9.68,0,0,1,256.77,400.27Zm-87.63,90.37A77.32,77.32,0,0,0,178.3,507c3.47,4.79,8.21,8.51,11.61,13.28.45.64-.41,1.28-1,1-5.25-2.64-9.36-8.36-12.66-13.08A68.85,68.85,0,0,1,167.71,491C167.39,490.12,168.79,489.78,169.14,490.64ZM161.8,399a127.72,127.72,0,0,0-3.12,37.38,113.38,113.38,0,0,0,3.09,19.38c1.45,5.78,3.53,11.4,4.86,17.2a.47.47,0,0,1-.85.36c-6.7-10.33-8.8-24.18-9.65-36.25a103,103,0,0,1,4.42-38.42A.65.65,0,0,1,161.8,399Z"/><path class="cls-4" d="M321.46,182.13a2.58,2.58,0,0,0,1.46-.88,2.76,2.76,0,0,0,.06-3.13,4,4,0,0,0-1-.58,3,3,0,0,0-.68.18,3.7,3.7,0,0,0-1.52,1.58C318.88,181.24,320.11,182.18,321.46,182.13Z"/><path class="cls-5" d="M232,208.81c1.41.45,2.84.83,4.28,1.17.07-.19.15-.38.21-.57a12.17,12.17,0,0,1,.92-3.13.72.72,0,0,1,1.22,0,5.4,5.4,0,0,1-.38,4.16c1.61.34,3.24.61,4.86.84a24.51,24.51,0,0,0,.38-2.67c.06-1.72-.52-3.37-.44-5.06,0-.6.86-1.09,1.3-.54,1.45,1.82,1.81,5.9.67,8.52,2.48.29,5,.47,7.44.59,1.81.08,3.62.12,5.43.14,0-.69.06-1.39.09-2.09a5.47,5.47,0,0,1,.45-2.89.67.67,0,0,1,1-.13,3.92,3.92,0,0,1,.69,3,9.42,9.42,0,0,1-.3,2.1c1.92,0,3.83,0,5.75-.06H266a11.84,11.84,0,0,0-.19-4.47c-.4-1.58-1.34-3-1.36-4.65a.72.72,0,0,1,1.22-.5c2.33,2,3.28,6.72,1.85,9.65,2,.05,4.1,0,5.3-1.25a3.7,3.7,0,0,0,.78-1.3c.08-.28.16-.55.22-.82a15.35,15.35,0,0,0-.34-4.92,27,27,0,0,0-2.12-6.95c-1.26-2.73-1.95-4-5.11-3.67l-.16,0c.38.36.73.73,1,1.05,1.13,1.29,2.54,3.17,2.37,5a.8.8,0,0,1-1.35.56c-1.17-1.1-1.77-2.82-2.79-4.08a27.17,27.17,0,0,0-2.09-2.05c-2,.4-3.95.91-5.91,1.45a13.54,13.54,0,0,1,.91,2.12,6.38,6.38,0,0,1,.56,4c-.15.49-.89.81-1.26.33a9.74,9.74,0,0,1-1.31-3.5c-.23-.79-.56-1.59-.77-2.41-1,.28-2,.55-3,.8-1.53.39-3.06.82-4.6,1.26,2.55,2.76,4.29,7,3.44,10.6a.88.88,0,0,1-1.68,0,46,46,0,0,0-1.09-5.57,20,20,0,0,0-2.38-4.53c-2.52.74-5,1.52-7.56,2.28.07.14.13.28.21.41.24.39.6.78.42,1.27a.63.63,0,0,1-.58.45c-.67,0-1-.7-1.17-1.23a2.4,2.4,0,0,1-.12-.53c-1.38.41-2.76.81-4.14,1.19.07.37.14.75.22,1.12a3.58,3.58,0,0,1,.13,2.51.69.69,0,0,1-.93.24c-.93-.39-1.14-1.63-1.27-2.52-.05-.28-.08-.55-.11-.83-.74.19-1.48.39-2.22.56-.38.13-.76.25-1.11.39-.92.35-1.83.81-2.76,1.19l0,0C223.74,205.73,231.38,208.61,232,208.81Z"/><path class="cls-3" d="M343.19,114a3.68,3.68,0,0,1,1-1.19,20.69,20.69,0,0,1,1.38-4c.25-.8.52-1.6.84-2.37,1.65-10,4.1-20,6.1-30l3.81-18.94c.29-1.42.68-2.88,1-4.34a33.92,33.92,0,0,1-12.62,4.44c-9,1.3-18.35.07-27.33-1.09a272.43,272.43,0,0,1-30.9-5.78A247.62,247.62,0,0,1,256,41c-4.78-1.87-10-3.74-13.89-7-2.71,28-4.3,56.12-8.45,83.91,14,13.83,37.53,15,56.07,15.5C308.81,134,332.92,133.14,343.19,114Zm1.29-35.14c1-4.83,1.58-9.82,3-14.55a.59.59,0,0,1,1.15.16c.09,4.77-.95,9.58-1.88,14.24-.91,4.5-1.49,9.75-3.85,13.76a.6.6,0,0,1-1.1-.3C341.8,87.75,343.57,83.23,344.48,78.89Zm-6.69,29c.6-2.64.83-5.56,2.33-7.86a.35.35,0,0,1,.64.08c.69,2.57-.07,5.29-.59,7.84a29.6,29.6,0,0,1-2.77,8.43.59.59,0,0,1-1.09-.29A49.85,49.85,0,0,1,337.79,107.87Z"/><path class="cls-6" d="M212.52,139.4c7.21,2.43,14.47,4.74,21.8,6.8,13.46,3.77,27.27,6.68,41.27,7.24a271.34,271.34,0,0,0,40.7-1.65,148.15,148.15,0,0,0,37.6-8.79c2-.79,8.06-2.42,8.6-4.82.49-2.21-1.34-5.63-2.38-7.44-2.82-4.92-7.32-7.8-11.13-11.75-12,20.39-37.85,22.39-59.22,21.6C277.4,140.13,264.9,139,253,135.3c-8.8-2.76-20.09-7-24.28-15.94-3.24.46-6.87.11-9.95.38A56.36,56.36,0,0,0,206.45,122c-4.41,1.4-9.17,3.19-10.69,8C200,135,206.42,137.35,212.52,139.4Z"/><path class="cls-3" d="M321.59,157.87a247.85,247.85,0,0,1-48.32,1.86c-16-1.06-31.56-5.14-46.76-10.17-7-2.32-14.13-4.59-21-7.4a37.05,37.05,0,0,1-9.92-5.73q.07.45.18.9c.83,3.62,3.18,5.9,6.43,7.53a55.2,55.2,0,0,0,5.33,2.3l2.15.78c4.12,1.43,8.39,2.58,12.46,3.76a260,260,0,0,0,75.71,10.47A240.34,240.34,0,0,0,337,158.5c5.81-1,11.77-2.3,16.92-5.29a20.59,20.59,0,0,0,5.86-5C347.87,153.59,334.26,156.19,321.59,157.87Z"/><path class="cls-6" d="M252.37,32.57c4.49,1.8,9.05,3.44,13.64,5,9,3,18.05,5.59,27.26,7.67a256.89,256.89,0,0,0,25.54,4.48c7.26.89,14.74,1.84,22.07,1.33a25.94,25.94,0,0,0,10.72-2.8c1.12-.63,3-1.64,3.69-2.8.91-1.61-.62-3.5-1.68-4.82-4.61-5.73-12.18-7.92-19.16-9-8.54-1.26-17.19-1.72-25.74-3s-17.31-2.88-26-4.3c-8.84-1.46-17.69-2.65-26.61-3.42-3.57-.31-8.69-1.66-11.19,1.66a10.36,10.36,0,0,0-1.67,3.75C245.08,29.61,249.05,31.23,252.37,32.57Z"/><path class="cls-7" d="M520.23,213.16a2.75,2.75,0,0,0-1.24-3c-2.67-1.51-5.34-3-8-4.6a2.55,2.55,0,0,0-3.71,1.51c-4.13,13.6-9.81,26.58-15.75,39.47-3.79,8.22-7.25,17.75-12.66,25.46l.39-1.7c.66-2.89,1.71-5.93,1.88-8.9.32-5.69-6.55-6.63-10.68-8.12a2.61,2.61,0,0,0-3.15,1.79c-3.15,8.65-6.05,17.33-9.2,25.88-4.5-3.21-12.1-2.69-17.09-3a182.65,182.65,0,0,1-24.44-3.21,112.16,112.16,0,0,1-22.69-7.13,76.54,76.54,0,0,1-9.77-5.16,41.67,41.67,0,0,1-5.59-4.4c-1.33-8.24-5.28-16-11.86-21,.35-1.62.65-3.19.94-4.66a112.54,112.54,0,0,0-1.86-52.05,104.08,104.08,0,0,0-4.44-12.76c-1.2-2.81-2.48-5.89-4.56-8.2,6.79-3.53,12.22-8.83,13.1-16.91a14.32,14.32,0,0,0,.2-7.73,24.52,24.52,0,0,0-3.89-9,40.4,40.4,0,0,0-14.71-12.34c3.9-13.92,6-28.58,8.87-42.74,1.41-6.95,3.06-13.91,4.22-20.91.5-3,.36-7.15-2.23-8.75-2.17-5.6-9-10.4-13.56-12.48-9.19-4.21-19.61-4.15-29.47-5.32-11.14-1.32-22.16-3.43-33.22-5.29-11.38-1.92-23.27-4.24-34.85-4-7.43.18-11.31,4.24-13.11,10A3.09,3.09,0,0,0,237,26.18c-2.37,28.81-6.37,57.6-7.8,86.48-4.44-.54-9.81.55-13.88,1.16a48.17,48.17,0,0,0-15.39,4.67c-4.08,2.13-7.43,5.15-8.72,9.7a22.59,22.59,0,0,0-.8,5.37,17.81,17.81,0,0,0,2.09,9.78c2.18,3.87,5.95,6.12,9.91,7.86a40.93,40.93,0,0,0-3.73,5.19,60.12,60.12,0,0,0-6.08,13.3,125.43,125.43,0,0,0-5.74,33.4c-.79,19,3.29,39,14.32,54.73-6.38,5.17-8.84,14.27-10.14,22.06A67.15,67.15,0,0,0,192.86,310c.46,1.53,1,3.06,1.57,4.59l0,.07a36.63,36.63,0,0,0-1.68,8.43,2.91,2.91,0,0,0-1.51.73c-1.23,1.09-2.44,2.22-3.63,3.37-3.9-13.55-8.17-27-12.26-40.49-4.43-14.63-10.15-29.33-11.15-44.69a245.5,245.5,0,0,0-6.6-44.87c-.91-3.62-1.92-7.23-3-10.8-.74-2.42-1.1-6.48-3.71-7.57-5.57-2.31-6.61,4.82-6.26,8.41,1.59,16.34,3,32.69,4.52,49-1.88-1.74-3.46-4-5.08-5.76-2.95-3.28-6-6.46-9.25-9.48a148.67,148.67,0,0,0-20.14-16,2.61,2.61,0,0,0-3.8,2.92c5.54,17.82,18.91,31.85,27.51,48.18,8.73,16.57,15.73,34.11,22.87,51.44A178.5,178.5,0,0,1,138,298.13a2.61,2.61,0,0,0-3.87,2.22c-1.07,9.82,7.92,16.18,16,19.22,5.1,1.91,10.66,3.14,15.11,6.44a22.14,22.14,0,0,1,8.43,14.44,2.15,2.15,0,0,0,.75,1.39c-22,28.45-33.29,65.8-32,101.27,1.68,45.35,22.8,92.2,62.29,116.59,19,11.73,40.73,18.36,62.39,23.11A292.44,292.44,0,0,0,304.23,589a143.42,143.42,0,0,0,37.68-2.07c12.11-2.15,24.83-4.27,36.35-8.67,11.08-4.23,20.33-11.42,29-19.38,17.07-15.72,33.28-33.06,44.92-53.27a127.25,127.25,0,0,0,14.39-36.88c3.31-4.87,6.47-9.54,11.22-13.32,5.62-4.48,12.52-6.48,18.41-10.45,10.77-7.28,17-20.84,19.89-33.11,6.22-26,1.55-55.55-8.07-80.14-5.46-14-12.87-27.56-23.45-38.28,6-9.33,11.72-18.8,16.85-28.6C509.87,248.61,516.66,231.12,520.23,213.16ZM379.05,265.44a53.49,53.49,0,0,0,6.56,4.45,92.39,92.39,0,0,0,22.77,9.48A169.46,169.46,0,0,0,432.32,284c4,.52,8,1,12.06,1.36,2.28.22,4.6.27,6.85.67,1.55.27,3,.85,4.51,1.24a176.21,176.21,0,0,1-13.69,28.46c-5.09,8.31-10.83,16.18-16.69,24-3.25-8.78-10.31-15.14-17.6-20.7-3.95-3-8.06-5.89-12.26-8.56-2.64-1.68-5.9-3.92-9.21-4.77a93.51,93.51,0,0,0-4-18.09,61.82,61.82,0,0,0,19.8,15.69,124.21,124.21,0,0,0,15.57,6.18A75.11,75.11,0,0,1,433,317.16c2,1.24,4.7-1.29,3.29-3.29-6.28-8.88-18.75-10.22-28.17-14.12s-17.39-9.92-24.75-16.76c4.13,2,9,2.83,13.21,4a178.24,178.24,0,0,1,17.78,5.8c6.31,2.51,11.87,6.09,17.91,9.11a.78.78,0,0,0,.94-1.22c-6.92-7.37-18.13-11-27.54-13.91-5.11-1.6-10.28-3-15.44-4.35-5.66-1.52-9.83-3.32-12.44-8A38.54,38.54,0,0,0,379.05,265.44ZM245,22.58c2.5-3.32,7.62-2,11.19-1.66,8.92.77,17.77,2,26.61,3.42,8.65,1.42,17.28,3,26,4.3s17.2,1.73,25.74,3c7,1,14.55,3.23,19.16,9,1.06,1.32,2.59,3.21,1.68,4.82-.66,1.16-2.57,2.17-3.69,2.8A25.94,25.94,0,0,1,340.88,51c-7.33.51-14.81-.44-22.07-1.33a256.89,256.89,0,0,1-25.54-4.48c-9.21-2.08-18.3-4.68-27.26-7.67-4.59-1.52-9.15-3.16-13.64-5-3.32-1.34-7.29-3-9.09-6.24A10.36,10.36,0,0,1,245,22.58Zm-2.81,11.48c3.91,3.24,9.11,5.11,13.89,7a247.62,247.62,0,0,0,30.44,9.71,272.43,272.43,0,0,0,30.9,5.78c9,1.16,18.3,2.39,27.33,1.09a33.92,33.92,0,0,0,12.62-4.44c-.34,1.46-.73,2.92-1,4.34l-3.81,18.94c-2,10-4.45,20-6.1,30-.32.77-.59,1.57-.84,2.37a20.69,20.69,0,0,0-1.38,4,3.68,3.68,0,0,0-1,1.19c-10.27,19.11-34.38,20-53.43,19.44-18.54-.52-42.06-1.67-56.07-15.5C237.84,90.18,239.43,62,242.14,34.06Zm-35.69,88a56.36,56.36,0,0,1,12.36-2.29c3.08-.27,6.71.08,9.95-.38,4.19,8.91,15.48,13.18,24.28,15.94,11.86,3.71,24.36,4.83,36.72,5.29,21.37.79,47.2-1.21,59.22-21.6,3.81,4,8.31,6.83,11.13,11.75,1,1.81,2.87,5.23,2.38,7.44-.54,2.4-6.58,4-8.6,4.82a148.15,148.15,0,0,1-37.6,8.79,271.34,271.34,0,0,1-40.7,1.65c-14-.56-27.81-3.47-41.27-7.24-7.33-2.06-14.59-4.37-21.8-6.8-6.1-2.05-12.5-4.37-16.76-9.39C197.28,125.22,202,123.43,206.45,122Zm-4.22,22.83c-3.25-1.63-5.6-3.91-6.43-7.53q-.11-.45-.18-.9a37.05,37.05,0,0,0,9.92,5.73c6.84,2.81,14,5.08,21,7.4,15.2,5,30.73,9.11,46.76,10.17a247.85,247.85,0,0,0,48.32-1.86c12.67-1.68,26.28-4.28,38.14-9.7a20.59,20.59,0,0,1-5.86,5c-5.15,3-11.11,4.25-16.92,5.29a240.34,240.34,0,0,1-39.07,3.67,260,260,0,0,1-75.71-10.47c-4.07-1.18-8.34-2.33-12.46-3.76l-2.15-.78A55.2,55.2,0,0,1,202.23,144.86Zm-8.83,58.23a125,125,0,0,1,4.52-30,69.35,69.35,0,0,1,5.18-13.42c1.19-2.24,2.83-4.35,4.27-6.52A234.46,234.46,0,0,0,249.79,165a254.91,254.91,0,0,0,87.6.35,77,77,0,0,0,15.21-4.05c.59,2.93,2.12,5.76,3.21,8.48a114.23,114.23,0,0,1,3.92,11.58,106,106,0,0,1-1.61,61.77c-.66,1.95-1.38,3.88-1.94,5.86a3.82,3.82,0,0,0-.55.63c-3.32,4.84-9.57,6.38-14.86,8q-9.34,2.85-18.83,5.17a329.3,329.3,0,0,1-39.68,7.18A127.78,127.78,0,0,1,242,268.7c-6.33-1.25-12.61-2.82-18.83-4.55-3.74-1-7.9-1.89-11.6-3.51a3.63,3.63,0,0,0-.68-1.24C197.79,243.45,192.74,223.53,193.4,203.09ZM198,275.74a41.24,41.24,0,0,0,4.38,15.83c3.25,6.4,9.87,15,17.35,16.44a.57.57,0,0,0,.55-.94c-2.46-2.46-5.66-4.17-8.22-6.6a36.64,36.64,0,0,1-11.15-20.72c-.7-4-.32-7.74-.28-11.62a33.94,33.94,0,0,1,3.44-5.93,12.54,12.54,0,0,0,1.89,1.71l.2.24a3.08,3.08,0,0,0,2,1.07,22.44,22.44,0,0,0,4.74,1.71c1.45.61,2.94,1.16,4.45,1.69a180.34,180.34,0,0,0,21.47,6.22,131.07,131.07,0,0,0,44.2,2,344.93,344.93,0,0,0,43.73-8c7-1.77,14.1-3.64,20.95-6,5.48-1.91,10.76-4.6,13.48-10a3.33,3.33,0,0,0,.3-.87,34.37,34.37,0,0,0,3.64-8.49c8,10.89,10.52,25.37,2.46,37.32-4.85,7.18-12.34,13.32-19.07,18.7a68.42,68.42,0,0,1-11.35,7.39c-4.21,2.17-8.63,2.74-13,4.3a2,2,0,0,0,0,3.84c9.44,3,20.54-4.11,27.62-9.57,8-6.17,16.81-13.34,22.17-22.09,5.5,17.37,8.65,35.44,2.88,53.29-5.85,18.12-20,29.88-37.5,36.28-18.06,6.59-37.55,7.65-56.55,5.77a256.73,256.73,0,0,1-31.29-5.28c-9.35-2.1-19-4.15-27.52-8.72-16.2-8.71-25.53-24.16-25.72-41.83,6.63,12.17,17.15,22.87,29.87,27.39,3.07,1.09,4.57-3.37,2.12-5-6.56-4.4-13-8.75-18.29-14.67a59.52,59.52,0,0,1-12.18-21C196.46,299.54,195.29,286.88,198,275.74Zm-35.89,42.85c-7.19-3.09-20.45-5.33-22.65-14A156.66,156.66,0,0,0,164.94,314c2.35.65,3.73-1.81,2.89-3.76-7.91-18.31-15-37.09-24.15-54.86a214.61,214.61,0,0,0-14.51-23.72c-3.82-5.54-7.66-11.18-10.47-17.3A164.79,164.79,0,0,1,134,227.65c5.36,5.28,10.11,13.36,17.41,16a2.62,2.62,0,0,0,3.3-2.51q-1.35-14.64-2.71-29.29-.65-6.94-1.28-13.88c-.07-.72-.15-3.58-.3-6.53a227,227,0,0,1,6.25,28.39c1.91,12.52,1.49,25.49,4.9,37.75,3.53,12.65,7.63,25.17,11.46,37.73,3.6,11.85,7.07,23.75,10.87,35.53q-3,3.08-5.71,6.33A27.12,27.12,0,0,0,162.13,318.59ZM460.88,457.8a107.32,107.32,0,0,1-9.36,32.85c-9.26,20.18-23.5,37.44-39.13,53-7.85,7.82-15.91,15.87-25.27,21.88-9.69,6.23-20.66,8.8-31.79,11.17-11.85,2.51-23.75,5.06-35.9,5.45-12.4.4-24.74-1.27-36.9-3.54-20.83-3.9-41.87-8.85-61.09-18-19.47-9.25-35.85-22.92-47.78-40.93a151.38,151.38,0,0,1-15.94-133.19c7.56-21.27,19.94-39.75,35.07-56.26,1.36,13.38,9.32,26.12,19.86,34.36,8,6.29,17.29,10,27.08,12.57a289.25,289.25,0,0,0,33.32,7c37.8,5.44,90.07,1,107.8-39.08a73.66,73.66,0,0,0,6-32.67,55.79,55.79,0,0,1,5.65,3.16c3.85,2.42,7.63,5,11.29,7.73a99.83,99.83,0,0,1,18.56,18.29,1.47,1.47,0,0,0,1.15.56c-3.2,4.25-6.41,8.5-9.56,12.79a66.1,66.1,0,0,0-7.07,7,16.28,16.28,0,0,0-3.51,5.15,2.79,2.79,0,0,0-1.21,1.51c-2.19,6.17-1.72,13.33,3.47,17.88a12,12,0,0,0,16-.06c5.4-4.59,7.06-12.28,10.65-18.15,1.06-1.73,2.18-3.41,3.35-5.07,6.43,7.92,10.55,17.39,13.72,27,3.43,10.48,6.32,21.25,8.81,32C460.79,434,462.18,445.82,460.88,457.8Zm39.93-127.52a153.3,153.3,0,0,1,10.24,39c1.62,12.67,2,25.8-.64,38.35S501.82,434.58,490,441c-6.4,3.44-12.77,6-18.29,10.92q-1.6,1.42-3.15,3a93.23,93.23,0,0,0-.3-17.59c-1.4-12.44-4.77-24.5-8.14-36.52-2.93-10.42-6.12-20.91-11.25-30.49a69.49,69.49,0,0,0-9-12.88c2.3-3,4.63-6,6.86-9Q461.88,328,475.87,306.7q3-4.51,5.92-9.05C489.23,307.87,496,318.54,500.81,330.28Zm-20.47-40.9c-15.59,24.61-32.83,47.85-49.84,71.47a71.79,71.79,0,0,0-6,9.52c-1.57,3.08-2.7,6.62-4.92,9.32-2.54,3.08-6.34,4.84-9.83,2.12-3.24-2.53-3.47-6.72-2.61-10.43,6.87-8,13.15-16.38,19.51-24.77,7.1-9.37,14.54-18.58,20.75-28.58a203.48,203.48,0,0,0,24.24-59,11,11,0,0,1,3,1.31c1.85,1.33.39,4.37,0,6.4l-3,13.78A2.6,2.6,0,0,0,476,283c9.85-8.62,14.7-22.23,20.13-33.8a314.57,314.57,0,0,0,15.06-37.62c1.13.7,2.26,1.4,3.38,2.11a230,230,0,0,1-13.25,38.52C495.33,265.14,488,277.36,480.34,289.38Z"/><path class="cls-7" d="M268.43,414.9c5.75-2.1,7.59-9.19,4.46-14.25s-12.15-6.77-15.77-1.34a2.07,2.07,0,0,0-.35,1,9.68,9.68,0,0,0-1.4,6.23A9.87,9.87,0,0,0,268.43,414.9ZM261.78,403c1.67-.41,3.41-.72,4.83.38s1.87,3.86.33,5.1c-1.9,1.53-4.58.17-5.3-1.88A5.67,5.67,0,0,1,261.78,403Z"/><path class="cls-7" d="M268.36,443.19a6.22,6.22,0,0,0-4.18,1.08c-5.28.92-7.35,6.91-6.59,12.36.86,6.09,6.82,9.93,12.62,7.41s7.35-9.6,5-15.11C274,446.06,271.62,443.51,268.36,443.19ZM267,458.45c-3,.62-3.64-3.07-3.49-5.24a7.3,7.3,0,0,1,.85-3.26,3.07,3.07,0,0,0,.53.06c.82,0,1.93-.5,2.71-.28,1.17.33,1.77,2,2,3C270.12,455,269.55,457.92,267,458.45Z"/><path class="cls-7" d="M342.88,92.5c2.36-4,2.94-9.26,3.85-13.76.93-4.66,2-9.47,1.88-14.24a.59.59,0,0,0-1.15-.16c-1.4,4.73-2,9.72-3,14.55-.91,4.34-2.68,8.86-2.7,13.31A.6.6,0,0,0,342.88,92.5Z"/><path class="cls-7" d="M337.4,116.36a29.6,29.6,0,0,0,2.77-8.43c.52-2.55,1.28-5.27.59-7.84a.35.35,0,0,0-.64-.08c-1.5,2.3-1.73,5.22-2.33,7.86a49.85,49.85,0,0,0-1.48,8.2A.59.59,0,0,0,337.4,116.36Z"/><path class="cls-7" d="M316.88,184.49c2.23,4.24,8.31,3.74,10.27-.49a6.35,6.35,0,0,0,.26-4.5,4.64,4.64,0,0,0-.06-.91,4.39,4.39,0,0,0-4.69-4,4.84,4.84,0,0,0-.77,0h-.05a6.22,6.22,0,0,0-1.14,0c-3.43.43-5.15,4.38-4.42,7.56A5.72,5.72,0,0,0,316.88,184.49Zm2.88-5.19a3.7,3.7,0,0,1,1.52-1.58,3,3,0,0,1,.68-.18,4,4,0,0,1,1,.58,2.76,2.76,0,0,1-.06,3.13,2.58,2.58,0,0,1-1.46.88C320.11,182.18,318.88,181.24,319.76,179.3Z"/><path class="cls-7" d="M215.22,180.74a7.44,7.44,0,0,0-2.33-4.38,4.82,4.82,0,0,0-1.46-1.21,4.41,4.41,0,0,0-3.4-.38l-.18,0c-3.16.63-5.13,4.74-4.1,7.74.13,3.22,1.91,6.3,5.92,5.87C213.3,188,215.69,184.18,215.22,180.74Zm-4.44.39a3.26,3.26,0,0,1-2.92,1.48,4.41,4.41,0,0,1-.38-3.83,2.18,2.18,0,0,1,.77-1l.26-.08a2.48,2.48,0,0,1,.45.05.77.77,0,0,0,.5-.06,3.07,3.07,0,0,1,.73.23,2.86,2.86,0,0,1,.42.43,7.72,7.72,0,0,1,.53,1.73A2.6,2.6,0,0,1,210.78,181.13Z"/><path class="cls-7" d="M341.22,201.24a2.71,2.71,0,0,0-2-4.14,2.29,2.29,0,0,0-2,1.13,1.66,1.66,0,0,0-.39.31,1.82,1.82,0,0,0-.38.71,2.48,2.48,0,0,0,.49,2.34A2.74,2.74,0,0,0,341.22,201.24Z"/><path class="cls-7" d="M198.1,200.68a1.44,1.44,0,0,0,0,1.34,1.54,1.54,0,0,0,0,.31,2.35,2.35,0,0,0,3.39,1.46,2.49,2.49,0,1,0-3.46-3.11Z"/><path class="cls-7" d="M224.26,208.79c5,3.32,12.39,4.46,18.26,5.3a126.38,126.38,0,0,0,19.64,1,82.58,82.58,0,0,0,10.2-.3c1.76-.24,3-.75,3.76-2.45a13.79,13.79,0,0,0,.59-7.32v-.13a21.11,21.11,0,0,0-4.81-13.08,4.81,4.81,0,0,0-.42-.48c-.29-.33-.59-.66-.91-1a.57.57,0,0,0-.68-.13c-1.38-.5-2.88-.09-4.45.23-7.27,1.47-14.49,3.39-21.59,5.52-4.67,1.4-9.51,2.75-14.11,4.58a8.53,8.53,0,0,0-2.71.76,21.26,21.26,0,0,0-2.76,1.34h0C220.76,203.65,221.94,207.27,224.26,208.79Zm.88-3.93,0,0c.93-.38,1.84-.84,2.76-1.19.35-.14.73-.26,1.11-.39.74-.17,1.48-.37,2.22-.56,0,.28.06.55.11.83.13.89.34,2.13,1.27,2.52a.69.69,0,0,0,.93-.24,3.58,3.58,0,0,0-.13-2.51c-.08-.37-.15-.75-.22-1.12,1.38-.38,2.76-.78,4.14-1.19a2.4,2.4,0,0,0,.12.53c.17.53.5,1.28,1.17,1.23a.63.63,0,0,0,.58-.45c.18-.49-.18-.88-.42-1.27-.08-.13-.14-.27-.21-.41,2.52-.76,5-1.54,7.56-2.28a20,20,0,0,1,2.38,4.53,46,46,0,0,1,1.09,5.57.88.88,0,0,0,1.68,0c.85-3.59-.89-7.84-3.44-10.6,1.54-.44,3.07-.87,4.6-1.26,1-.25,2-.52,3-.8.21.82.54,1.62.77,2.41a9.74,9.74,0,0,0,1.31,3.5c.37.48,1.11.16,1.26-.33a6.38,6.38,0,0,0-.56-4,13.54,13.54,0,0,0-.91-2.12c2-.54,3.93-1,5.91-1.45a27.17,27.17,0,0,1,2.09,2.05c1,1.26,1.62,3,2.79,4.08a.8.8,0,0,0,1.35-.56c.17-1.81-1.24-3.69-2.37-5-.29-.32-.64-.69-1-1.05l.16,0c3.16-.37,3.85.94,5.11,3.67a27,27,0,0,1,2.12,6.95,15.35,15.35,0,0,1,.34,4.92c-.06.27-.14.54-.22.82a3.7,3.7,0,0,1-.78,1.3c-1.2,1.27-3.33,1.3-5.3,1.25,1.43-2.93.48-7.62-1.85-9.65a.72.72,0,0,0-1.22.5c0,1.65,1,3.07,1.36,4.65a11.84,11.84,0,0,1,.19,4.47h-.34c-1.92,0-3.83.06-5.75.06a9.42,9.42,0,0,0,.3-2.1,3.92,3.92,0,0,0-.69-3,.67.67,0,0,0-1,.13,5.47,5.47,0,0,0-.45,2.89c0,.7-.11,1.4-.09,2.09-1.81,0-3.62-.06-5.43-.14-2.48-.12-5-.3-7.44-.59,1.14-2.62.78-6.7-.67-8.52-.44-.55-1.27-.06-1.3.54-.08,1.69.5,3.34.44,5.06a24.51,24.51,0,0,1-.38,2.67c-1.62-.23-3.25-.5-4.86-.84a5.4,5.4,0,0,0,.38-4.16.72.72,0,0,0-1.22,0,12.17,12.17,0,0,0-.92,3.13c-.06.19-.14.38-.21.57-1.44-.34-2.87-.72-4.28-1.17C231.38,208.61,223.74,205.73,225.14,204.86Z"/><path class="cls-7" d="M268.81,231.15c-3.53-1.81-4.17-5.06-5.83-8.23a.66.66,0,0,0-1.19.15c-1.29,3.73,1.51,8,4.53,10.11a12.26,12.26,0,0,0,11.94.94,14.81,14.81,0,0,0,7.38-8.68c1.71-4.67,2.82-11.95,1.28-16.74-.46-1.43-2.81-1.26-2.73.37.32,6.6.53,15.57-4.71,20.52A9.46,9.46,0,0,1,268.81,231.15Z"/><path class="cls-7" d="M251.82,336.44c17.6,5.77,36.92,5.69,54.79,1.05a105.73,105.73,0,0,0,22.82-8.87c7.18-3.81,15.71-8.58,20.84-15.06.55-.7-.14-1.87-1-1.33-6.69,4.08-12.45,9.42-19.37,13.26A105.2,105.2,0,0,1,306.59,335c-17.92,4.89-36.45,4.33-54.52.55A.48.48,0,0,0,251.82,336.44Z"/><path class="cls-7" d="M327.77,304.45c6.24-2.14,13.85-4.75,16.71-11.23a.65.65,0,0,0-1-.78,62.12,62.12,0,0,1-16.19,10.84A.64.64,0,0,0,327.77,304.45Z"/><path class="cls-7" d="M156.13,437.11c.85,12.07,3,25.92,9.65,36.25a.47.47,0,0,0,.85-.36c-1.33-5.8-3.41-11.42-4.86-17.2a113.38,113.38,0,0,1-3.09-19.38A127.72,127.72,0,0,1,161.8,399a.65.65,0,0,0-1.25-.35A103,103,0,0,0,156.13,437.11Z"/><path class="cls-7" d="M176.26,508.23c3.3,4.72,7.41,10.44,12.66,13.08.58.29,1.44-.35,1-1-3.4-4.77-8.14-8.49-11.61-13.28a77.32,77.32,0,0,1-9.16-16.4c-.35-.86-1.75-.52-1.43.4A68.85,68.85,0,0,0,176.26,508.23Z"/></svg>