<svg id="Layer_1" data-name="Layer 1" xmlns="http://www.w3.org/2000/svg" viewBox="0 0 600 600"><defs><style>.cls-1{fill:#be1e2d;}.cls-2{fill:#009444;}.cls-3{fill:#fff;}.cls-4{fill:#8dc63f;}.cls-5{fill:#231f20;}</style></defs><title>doodle</title><path class="cls-1" d="M347.25,152.82a.46.46,0,0,1-.07-.07c-1.15-1.74-1.1-3.86-1.4-5.87-.11-.75-.19-1.5-.28-2.25-3.8.08-7.6.13-11.41.13a31.15,31.15,0,0,1,.79,4.05c.29,2.19.76,4.64-.15,6.69Q341,154.29,347.25,152.82Z"/><path class="cls-1" d="M332.17,156c-1.09-1.85-.89-4-1.06-6.14-.13-1.7-.36-3.41-.5-5.12-3.49,0-7-.08-10.47-.19-2.54-.09-5.08-.21-7.62-.34a26.2,26.2,0,0,1,2,14.54C320.43,158,326.31,157.07,332.17,156Z"/><path class="cls-1" d="M294.35,160.71a1.17,1.17,0,0,1-.15-.32c-.89-3.06-.57-6.34-.72-9.51-.14-2.76-.53-5.54-.47-8.3-4.15-.47-8.3-1-12.42-1.69,2.36,5.69,3,14.24,1.06,20.38Q288,161.12,294.35,160.71Z"/><path class="cls-1" d="M297,160.51c4.49-.32,9-.75,13.43-1.26-.09-2-.06-3.92-.19-5.89-.19-3.11-.88-6.22-.88-9.34q-6.55-.41-13.08-1.08a34.35,34.35,0,0,1,1.14,6.43c.38,3.59.89,7.57-.35,11A1.27,1.27,0,0,1,297,160.51Z"/><path class="cls-1" d="M359.34,148.81c-1-.9-1.17-2.26-1.44-3.54-.07-.34-.12-.69-.18-1l-6.09.24-2.71.06c.9,2.61,1.48,5.44.63,7.73a310.17,310.17,0,0,0,30.31-8.94c-2.4-.11-5.2,0-5.27,0-2.41.15-4.83.3-7.24.43l-6.12.31.09.25c.42,1.25,1,2.51.54,3.82A1.53,1.53,0,0,1,359.34,148.81Z"/><path class="cls-1" d="M199.24,115.73c-1,4.57-2.62,9-4,13.51-2.14,6.9-3,13.55-4,20.65a.85.85,0,0,1-.06.17q8.19,2.24,16.48,4.08c-.51-5.21,1-10.61,2.29-15.62,1.52-5.8,3.28-12,6.56-17-5.62-2.09-11.29-4.06-17.09-5.7Z"/><path class="cls-2" d="M188.41,446.31l-1.5-.2c3.78,17.4,2,36.69,2.19,54.36,0,1.91-1.47,4.23-3.47,4.56-22.29,3.68-44.89,13-61.55,28.66-7.11,6.67-13.64,16.44-10.88,26.67,2.63,9.7,12.7,12.68,21.62,13.46,20.76,1.79,42.73-3.22,61.27-12.48,9-4.51,17-10.13,21.6-19.4,4.09-8.29,5.46-17.77,6.41-26.88a559.21,559.21,0,0,0,2.71-64.45C213.93,449.49,201.11,448,188.41,446.31Z"/><path class="cls-3" d="M315.36,210.11c1.54-.93,2.39-3.81.75-5s-4.27.23-5.78,1a3.85,3.85,0,0,1-.63.27,4.3,4.3,0,0,0,.19,1.24C310.58,209.54,313.35,211.33,315.36,210.11Z"/><path class="cls-1" d="M168,103.09c-3.11,6-6.58,11.31-8.8,17.85a117.76,117.76,0,0,0-4.37,17.37q7.09,2.63,14.21,5c.1-6.16,2.44-12.79,4.2-18.14,1.61-4.91,3-13.06,8.22-15.38a91.77,91.77,0,0,1-8.49-4C171.41,105,169.73,104.07,168,103.09Z"/><path class="cls-2" d="M321.48,451.32c-3.53.31-7,.56-10.46.77q-9,.57-18,.79c0,.14.06.28.08.44.69,7.5.79,15,.91,22.54.1,6,.85,12.48-.31,18.41-2.21,11.29-13,18-21.18,24.89C256.89,532.46,235.89,555,247,577.35c4.89,9.8,15,15.66,25.79,12.36,9.67-3,18.73-9.62,26-16.52a90.2,90.2,0,0,0,27-50.22c2-11.77.71-23.72-.52-35.5Q323.34,469.41,321.48,451.32Z"/><path class="cls-1" d="M263.15,161.23q7.1.22,14.18.13c0-3.18.71-6.43.71-9.61,0-3.79-.73-7.59-.64-11.38-4.32-.74-8.62-1.58-12.9-2.56,1.33,4.69.82,9.81.24,14.59A48.87,48.87,0,0,1,263.15,161.23Z"/><path class="cls-3" d="M157.71,195.53c1.86-.89,2-3.34.07-4-1.31-.45-3,0-4.34.26l-.18,0C153.62,194.09,155.4,196.64,157.71,195.53Z"/><path class="cls-1" d="M175.14,267.25c.83-1.59,3.12-1.06,3.63.48,4.15,12.54,15.76,22.37,29.21,23,13.75.68,26.31-7.9,31.63-20.35.67-1.57,3.39-1.13,3.68.48,2.22,12.34,16.08,18.4,27.3,19.89,15.16,2,21.64-10.17,26.37-22.31a2.12,2.12,0,0,1,3.5-.92c6.7,6.83,13.67,16.18,22.15,20.82,7.27,4,20.5,4.11,28.38,1.92,17.48-4.86,23.94-28.48,30-43.39-.48-30.13-1.42-60.27-2.6-90.45A323.16,323.16,0,0,1,255.9,172.21c-39.83-2.57-81.57-11.56-117.29-30.25-1.05,8.37-3.38,17-4.67,24.95q-3,18.39-5.43,36.87-3.28,25-5.64,50.17c1.34,7.89,4.17,15.41,10.08,21C146.13,287.46,167,282.82,175.14,267.25Zm141.93-28.67a4.59,4.59,0,1,1,4.6-4.59A4.67,4.67,0,0,1,317.07,238.58Zm-13.54-38.72a11.21,11.21,0,0,1,2.67-2.4c4.4-4.62,13.24-3.78,17.7,1,5.49,5.83,3.29,15.88-3.26,19.92-7,4.33-16.73.07-19.22-7.54A11.81,11.81,0,0,1,303.53,199.86Zm-100.1,1.31a3,3,0,0,1,5.49,1.49c.39,5.4.06,10.18,3,15s7.76,8,13.43,8c14.54,0,15.47-15.11,17.13-25.84.85-5.48,9.33-3.9,9.37,1.27.16,17.29-9.41,36.44-29.46,33.76C209,233.07,193.71,214.31,203.43,201.17Zm-58.57-10.39a11.1,11.1,0,0,1,.44-2.12,3.16,3.16,0,0,1,.46-2.46,11.16,11.16,0,0,1,2.14-2.28,13.33,13.33,0,0,1,3.24-2.75c2.72-1.63,7-2.42,9.6-.18a1.67,1.67,0,0,1,.51,1.47,11.39,11.39,0,0,1,5.63,4.27c4.27,6.34.35,15.47-6.76,17.6C152,206.77,144.06,198.8,144.86,190.78Zm-2.47,23.16c5.53,0,5.52,8.57,0,8.57S136.88,213.94,142.39,213.94Z"/><path class="cls-4" d="M470.91,190.94l.44.59a95.77,95.77,0,0,1,11.08,1,94.43,94.43,0,0,1,24.24,6.82,19.38,19.38,0,0,1,4.95-5.06c-.06-.3-.12-.6-.16-.92-3.69-35.48-16.57-69.12-38.8-97.19C427.92,39.72,354,18.7,284.12,24.93,249,28.05,214,39.78,186.42,62.27a150,150,0,0,0-27.51,29.32c3.57,2.31,6.91,5.12,10.49,7.31a99.9,99.9,0,0,0,15.24,7.62c4.41,1.73,8.93,3.08,13.47,4.38.48-.79,2-.5,1.89.53,5.69,1.6,11.39,3.16,16.92,5.25,21.34,8,41.65,15.92,64.33,19.47,22.86,3.57,46.08,4.11,69.16,3.38q8.47-.27,16.94-.74c4.91-.27,11.12-1.76,15.93-.55a6.32,6.32,0,0,1,3.47,2.17c14.2-9.7,35.59,5.1,47.74,14.08A167.69,167.69,0,0,1,460,177.42C463.85,181.74,467.48,186.27,470.91,190.94ZM410.83,67.12c-10.56-4.61-20.17-10.86-31-15.07a193.78,193.78,0,0,0-29.38-8.77C329,38.63,307,37.45,285.07,37.45c-.92,0-.87-1.31,0-1.39a221.09,221.09,0,0,1,67.55,3.6,185.36,185.36,0,0,1,32.43,9.9c9.51,3.92,19.8,8.36,27.44,15.4C413.74,66.11,412.14,67.7,410.83,67.12Zm40.85,27.29c-4.66-2.3-8.61-5.94-13-8.72a85.13,85.13,0,0,0-15.53-7.79c-1.1-.4-.66-2.15.49-1.78,10.09,3.25,23,8,29.19,17.14C453.34,94,452.38,94.75,451.68,94.41Z"/><path class="cls-4" d="M356.57,392.62c-7.45-5.23-14.31-11.47-17.63-19.69a48.05,48.05,0,0,1-39.8,29.55c-15.77,1.5-36.15-6-41.28-21.81a33.78,33.78,0,0,1-34.48,18.07c-17.58-2.46-26.83-16.9-31.92-32.38-11.13,15.4-32.47,18.92-50.36,14.13-9.64-2.58-16.56-8.42-20.37-17.66A86.18,86.18,0,0,1,117,351.09q-.53,16.05-.78,32.1c-.13,8.12.59,17,0,25.39a3.26,3.26,0,0,1,.45,1c4,16.21,23.45,19.35,37.41,21.62q31.22,5.07,62.78,7.47c36.83,2.84,75.49,5.13,112.18-.34,14.92-2.23,34.07-4.9,42.5-19.07,3.6-6.06,5.41-12.91,6.41-19.95C371,401.46,362.68,396.91,356.57,392.62Z"/><path class="cls-2" d="M370.82,278.22c-4.57,7.18-10.28,13.59-18.78,15.89s-20.72,2.54-29.09-.85c-9.26-3.76-16.43-13-23.25-20.43-5.21,12.43-12.9,23.94-28.28,22.44-11.69-1.15-25.89-7.14-30.64-18.52-7.23,11.73-20.62,19.37-34.64,17.94-13.18-1.34-24.39-10.14-29.69-22-9.19,13.12-26.93,17.9-41.24,9.09a33,33,0,0,1-13.36-16.53c-.29,3.37-.6,6.74-.86,10.11-1.57,19.84-2.66,39.71-3.46,59.59,4,16.3,4.88,35.92,23.61,41.24,17.79,5,39.81,1.28,49.12-16.21a2.23,2.23,0,0,1,4,.52c3.91,14.14,10.71,29.15,26.23,33.19,14.85,3.85,28.94-4.31,34.66-17.8-3.78-1.73-6.72-4.54-5.81-9.28.64-3.36,3.66-5.66,6.27-7.47a116.65,116.65,0,0,0,12-9.11c14.26-12.88,22.27-28.8,30-46,.8-1.77,3.84-.9,3.68,1-1.12,13.77-7.77,27.39-16,38.3a99.42,99.42,0,0,1-14.57,15.56c-2.34,2-4.78,3.9-7.28,5.69-.21.15-4.75,2.86-4.78,3.05s4.58,1.29,4.89,1.35c15.35,3.24,31.78-3.58,42.69-14.31,11.37-11.2,16.53-25.59,20.6-40.64,1.83-6.72,11.09-3.7,10.15,2.8-5.12,35.13-36.24,68.25-73.89,61.38-.82-.15-1.73-.35-2.65-.56,5.91,16,24.94,23,41.25,20.28,17.55-2.94,31-16.29,35.31-33.34.65-2.6,4.09-1.74,4.33.58.93,8.86,6.85,15.42,13.56,20.75,5.41,4.3,16.37,13.11,23.47,8.37.51-5.53.67-11.08.92-16.38,1.88-40,2.28-79.83,1.81-119.69A116.68,116.68,0,0,1,370.82,278.22Z"/><path class="cls-1" d="M451.54,284.25c7.42.94,12.74-.11,14.13,8.85,2.64,17,12.39,35.13,32.06,34.84,8.15-.12,16.22-3.72,20.43-10.94,4.69-8,4.2-18.12,4-27.1-.1-4.13,4.54-6.46,8-4.58,15,8.26,34.69,1.17,38.36-16.28a23.41,23.41,0,0,0-28.12-27.61c-5.62,1.3-8.48-5.77-5.24-9,2.66-8.78,4.58-18.86-1.68-26.54a13.66,13.66,0,0,0-9.16-4.84,19,19,0,0,0-5.26,2.61c-2.72,2.2-4.5,5.11-6.74,7.75-3.94,4.65-7.61,4.52-13.29,3-7.75-2-15.44-4.29-23.19-6.33-7-1.86-15.61-3.29-21,1.79-2.88,6.88-.48,16.67,4.5,22.8,2.94,3.59.33,10.1-4.91,8.44-17.26-5.48-31.7,15-22.87,30A27.75,27.75,0,0,0,451.54,284.25Zm84.49-9.1c4.25-3.93,11-8.92,7-15.5-.79-1.31,1.14-2.35,2-1.17,5.17,7.06-.23,16.44-8.06,18.36A1,1,0,0,1,536,275.15Zm-35.57-40.24c1.11-.5,2.1,1.11,1,1.67-12.37,6.13-16.23,21.64-6.74,32.12,4.91,5.43,12.13,8.69,19.37,6.08s10-8.84,12.76-15.32c.55-1.32,2.68-1.29,2.66.36-.27,18.53-22.66,25.12-35.27,13.65C481.22,261.65,484.57,242.06,500.46,234.91Zm-14.19,57.84c.49-1.31,2.56-.8,2.14.59-1.69,5.49,7.74,5.42,10.31,3.82a11.22,11.22,0,0,0,4.54-7.47,1.3,1.3,0,0,1,2.49,0c.94,6-2.69,11.4-9,12.24C491.72,302.6,484,298.92,486.27,292.75Zm-30.18-42c.78-.18,1.35,1,.57,1.35a10,10,0,0,0-5.7,9.32c.37,4.86,4.7,6.82,8.7,8.15a1.15,1.15,0,0,1,0,2.19c-5.66,1.58-11.35-3.66-12.1-9.1A10.75,10.75,0,0,1,456.09,250.76Z"/><path class="cls-1" d="M214.09,139.66c-1.23,5-1.65,10.31-3.53,15.09,4.09.88,8.2,1.66,12.33,2.38.94-4.18,2.66-8.42,3.64-12.28,1.46-5.79,2.24-12.24,4.9-17.64-4.16-1.6-8.31-3.24-12.49-4.82C217.8,128.24,215.51,133.87,214.09,139.66Z"/><path class="cls-1" d="M151.08,136.89c-.49-5.65,2.42-12,4.15-17,2.15-6.26,4.82-13.8,9.7-18.62a46.12,46.12,0,0,1-8.22-6.4c-.68,1-1.37,2-2,3.07C148,108.64,143.17,120.15,139,132a1.42,1.42,0,0,1,0,.2C143.07,133.82,147.07,135.37,151.08,136.89Z"/><path class="cls-1" d="M176.35,129.82c-1.42,4.9-1.76,10-2.71,15q7.2,2.32,14.47,4.38c-1.58-6.2.39-12.74,2.33-18.69a147.2,147.2,0,0,1,5.67-15.7c-4.37-1.29-8.67-2.68-12.88-4.33a1.32,1.32,0,0,1-.07.92A107.2,107.2,0,0,0,176.35,129.82Z"/><path class="cls-1" d="M242.76,159.88c4.72.48,9.47.86,14.27,1.11l1.7.06c.41-3.33,1.39-6.66,1.79-10,.56-4.62.31-9.36,1.32-13.9-.6-.15-1.21-.27-1.81-.42-4.35-1.09-8.62-2.38-12.85-3.8a49.34,49.34,0,0,1-.85,13.1C245.57,150.6,244.8,155.63,242.76,159.88Z"/><path class="cls-2" d="M67.29,329c-2.59,1.11-7.48,2.4-9.57,4.43-1.37,1.32-1.74.3-.69,2,.54.88,2.41,1.55,3.3,2a37.56,37.56,0,0,0,17.19,3.77c12.18-.11,21.39-5.38,30.21-13.25a4.13,4.13,0,0,1,1.51-.87q.6-17.62,1.72-35.24a64.82,64.82,0,0,1-12.18,18.88C90.13,319.81,78.54,324.21,67.29,329Z"/><path class="cls-1" d="M230.56,147.28c-.85,3.37-1.5,7.16-2.65,10.68,3.68.57,7.38,1,11.1,1.49.51-4.14,2-8.17,2.78-12.25,1-5,1.4-10.21,2.72-15.13q-5.28-1.84-10.48-3.86C234.32,134.53,232.08,141.25,230.56,147.28Z"/><path class="cls-5" d="M420.48,250c-6.35,15.58,2.67,32.55,16.84,40.08a36.4,36.4,0,0,0,16.19,4.46c.28,0,1.31.2,2,.21.06.63.29,1.54.34,1.91a52.76,52.76,0,0,0,8.87,23.8c9.72,13.82,26.38,21.27,43.06,16.55,18.91-5.34,24.14-22.08,24.89-39.31,20.07,5.78,42.63-5.45,46.39-27.7a34.1,34.1,0,0,0-33.46-39.75c4-12.7,2.41-27.4-9.26-35.75a21.48,21.48,0,0,0-12.37-4c-4.92-67.24-50.4-130.49-111.68-157.86-36.52-16.32-78.12-22.75-118-20.38C256.64,14.53,218.57,25.41,188,48.14,162,67.43,137.43,97,131.69,130a5,5,0,0,0-1,1.57l-.09.26a4.94,4.94,0,0,0-.9,2.47c-3.38,10.12-3.91,22.28-5.45,32.62q-2.55,17.15-4.71,34.35-4.62,36.33-7.33,72.85c-.15,2-.29,4-.43,6-9.53,13.84-18.33,27.54-34,35.09-7.35,3.53-15.18,6-22.47,9.67-4.78,2.4-9.72,6.17-7.67,12.2,3.7,10.91,23.08,13.39,32.67,12.88,10.09-.54,20.72-4.08,28.64-10.67q-.09,3.35-.15,6.67-.3,18,0,36c.19,11.23-.93,24.36,2.15,35.24a1.92,1.92,0,0,0,.67,1c3.52,9,12.89,14.5,22.16,17.87,15.19,5.51,32.2,7.44,48.38,9.49-3.71,16.27-2.43,34.26-2.42,51-22.17,4.15-43.88,13.83-60.78,28.89-14.65,13.05-24.36,39.1-4,52.12,8.59,5.49,19.56,6,29.45,5.9a133.53,133.53,0,0,0,37-5.77c11.19-3.42,22.79-8.17,32.16-15.28,8.89-6.74,14.35-16.19,17.28-26.85,3.48-12.64,4.16-26.2,5-39.21,1-15,1.22-29.95.81-44.94,16.38,1.19,32.82,1.78,49.19,1.6a3.23,3.23,0,0,0-.06.33c-.58,7.09-.63,14.17-.66,21.29s1.5,16.7-2.79,22.86c-3.33,4.78-8.71,8.24-13.14,11.91a184.4,184.4,0,0,0-14.47,13c-15.38,15.78-27.88,41.26-14.65,62.23,5.14,8.15,13.46,14.44,23.17,15.61,11.23,1.34,22.25-4.5,31.26-10.6a99.08,99.08,0,0,0,38.14-50.83c9.4-28.38,2.43-59.7-.73-88.65,11.32-1.51,22.59-4.05,32.59-8.83,13.89-6.62,21.33-20,24.27-34.62,3.48-17.41,3.14-35.75,3.76-53.42q1.08-31.06,1.28-62.16c.28-46.55-.3-93.4-3.87-139.83a5.87,5.87,0,0,0-1.12-3.11,6.8,6.8,0,0,0-.52-2.45c7.74-2.14,16.68,2.15,23.18,6a168.37,168.37,0,0,1,23.13,16.46,174.84,174.84,0,0,1,19.54,19.52c1.56,1.82,3.06,3.68,4.53,5.56a22.13,22.13,0,0,0-4.21,2c-12.69,8-13.38,22.76-8.1,35C435.15,231.42,424.85,239.34,420.48,250Zm-311.24,77.1a4.13,4.13,0,0,0-1.51.87c-8.82,7.87-18,13.14-30.21,13.25a37.56,37.56,0,0,1-17.19-3.77c-.89-.45-2.76-1.12-3.3-2-1.05-1.74-.68-.72.69-2,2.09-2,7-3.32,9.57-4.43,11.25-4.81,22.84-9.21,31.49-18.24A64.82,64.82,0,0,0,111,291.9Q109.87,309.51,109.24,327.14ZM154.69,97.89c.65-1,1.34-2,2-3.07a46.12,46.12,0,0,0,8.22,6.4c-4.88,4.82-7.55,12.36-9.7,18.62-1.73,5-4.64,11.4-4.15,17-4-1.52-8-3.07-12-4.69a1.42,1.42,0,0,0,0-.2C143.17,120.15,148,108.64,154.69,97.89Zm28.54,12.6c4.21,1.65,8.51,3,12.88,4.33a147.2,147.2,0,0,0-5.67,15.7c-1.94,5.95-3.91,12.49-2.33,18.69q-7.28-2.06-14.47-4.38c1-5,1.29-10.11,2.71-15a107.2,107.2,0,0,1,6.81-18.41A1.32,1.32,0,0,0,183.23,110.49Zm64,22.49c4.23,1.42,8.5,2.71,12.85,3.8.6.15,1.21.27,1.81.42-1,4.54-.76,9.28-1.32,13.9-.4,3.29-1.38,6.62-1.79,10L257,161c-4.8-.25-9.55-.63-14.27-1.11,2-4.25,2.81-9.28,3.57-13.8A49.34,49.34,0,0,0,247.18,133Zm-5.39,14.22c-.82,4.08-2.27,8.11-2.78,12.25-3.72-.44-7.42-.92-11.1-1.49,1.15-3.52,1.8-7.31,2.65-10.68,1.52-6,3.76-12.75,3.47-19.07q5.21,2,10.48,3.86C243.19,137,242.8,142.2,241.79,147.2Zm-15.26-2.35c-1,3.86-2.7,8.1-3.64,12.28-4.13-.72-8.24-1.5-12.33-2.38,1.88-4.78,2.3-10.1,3.53-15.09,1.42-5.79,3.71-11.42,4.85-17.27,4.18,1.58,8.33,3.22,12.49,4.82C228.77,132.61,228,139.06,226.53,144.85Zm-16.59-6.33c-1.32,5-2.8,10.41-2.29,15.62q-8.29-1.84-16.48-4.08a.85.85,0,0,0,.06-.17c1-7.1,1.86-13.75,4-20.65,1.39-4.49,3-8.94,4-13.51l.17,0c5.8,1.64,11.47,3.61,17.09,5.7C213.22,126.56,211.46,132.72,209.94,138.52Zm-36.67-13.35c-1.76,5.35-4.1,12-4.2,18.14q-7.12-2.38-14.21-5a117.76,117.76,0,0,1,4.37-17.37c2.22-6.54,5.69-11.9,8.8-17.85,1.7,1,3.38,1.9,5,2.74a91.77,91.77,0,0,0,8.49,4C176.24,112.11,174.88,120.26,173.27,125.17Zm-44.76,78.61q2.42-18.48,5.43-36.87c1.29-8,3.62-16.58,4.67-24.95,35.72,18.69,77.46,27.68,117.29,30.25a323.16,323.16,0,0,0,122.51-15.77c1.18,30.18,2.12,60.32,2.6,90.45-6.08,14.91-12.54,38.53-30,43.39-7.88,2.19-21.11,2.06-28.38-1.92-8.48-4.64-15.45-14-22.15-20.82a2.12,2.12,0,0,0-3.5.92c-4.73,12.14-11.21,24.34-26.37,22.31-11.22-1.49-25.08-7.55-27.3-19.89-.29-1.61-3-2.05-3.68-.48-5.32,12.45-17.88,21-31.63,20.35-13.45-.65-25.06-10.48-29.21-23-.51-1.54-2.8-2.07-3.63-.48-8.19,15.57-29,20.21-42.19,7.71-5.91-5.6-8.74-13.12-10.08-21Q125.24,228.83,128.51,203.78Zm136-66c4.28,1,8.58,1.82,12.9,2.56-.09,3.79.63,7.59.64,11.38,0,3.18-.67,6.43-.71,9.61q-7.08.09-14.18-.13a48.87,48.87,0,0,0,1.59-8.83C265.32,147.62,265.83,142.5,264.5,137.81Zm16.09,3.08c4.12.66,8.27,1.22,12.42,1.69-.06,2.76.33,5.54.47,8.3.15,3.17-.17,6.45.72,9.51a1.17,1.17,0,0,0,.15.32q-6.35.4-12.7.56C283.56,155.13,283,146.58,280.59,140.89Zm16.81,8.48a34.35,34.35,0,0,0-1.14-6.43q6.53.67,13.08,1.08c0,3.12.69,6.23.88,9.34.13,2,.1,3.93.19,5.89-4.47.51-8.94.94-13.43,1.26a1.27,1.27,0,0,0,.07-.12C298.29,156.94,297.78,153,297.4,149.37Zm15.12-5.16c2.54.13,5.08.25,7.62.34,3.49.11,7,.16,10.47.19.14,1.71.37,3.42.5,5.12.17,2.1,0,4.29,1.06,6.14-5.86,1.07-11.74,2-17.65,2.75A26.2,26.2,0,0,0,312.52,144.21Zm22.36,4.6a31.15,31.15,0,0,0-.79-4.05c3.81,0,7.61,0,11.41-.13.09.75.17,1.5.28,2.25.3,2,.25,4.13,1.4,5.87a.46.46,0,0,0,.07.07q-6.24,1.47-12.52,2.68C335.64,153.45,335.17,151,334.88,148.81Zm26.44-4.48-.09-.25,6.12-.31c2.41-.13,4.83-.28,7.24-.43.07,0,2.87-.12,5.27,0a310.17,310.17,0,0,1-30.31,8.94c.85-2.29.27-5.12-.63-7.73l2.71-.06,6.09-.24c.06.34.11.69.18,1,.27,1.28.4,2.64,1.44,3.54a1.53,1.53,0,0,0,2.52-.66C362.31,146.84,361.74,145.58,361.32,144.33ZM224.1,515.06c-.95,9.11-2.32,18.59-6.41,26.88-4.57,9.27-12.57,14.89-21.6,19.4-18.54,9.26-40.51,14.27-61.27,12.48-8.92-.78-19-3.76-21.62-13.46-2.76-10.23,3.77-20,10.88-26.67,16.66-15.62,39.26-25,61.55-28.66,2-.33,3.49-2.65,3.47-4.56-.2-17.67,1.59-37-2.19-54.36l1.5.2c12.7,1.72,25.52,3.18,38.4,4.3A559.21,559.21,0,0,1,224.1,515.06ZM325.76,523a90.2,90.2,0,0,1-27,50.22c-7.24,6.9-16.3,13.57-26,16.52C262,593,251.93,587.15,247,577.35c-11.15-22.36,9.85-44.89,25.47-58.19,8.15-6.94,19-13.6,21.18-24.89,1.16-5.93.41-12.4.31-18.41-.12-7.53-.22-15-.91-22.54,0-.16,0-.3-.08-.44q9-.22,18-.79c3.43-.21,6.93-.46,10.46-.77q1.84,18.09,3.76,36.15C326.47,499.25,327.72,511.2,325.76,523Zm45.69-103.69c-8.43,14.17-27.58,16.84-42.5,19.07-36.69,5.47-75.35,3.18-112.18.34q-31.52-2.43-62.78-7.47c-14-2.27-33.43-5.41-37.41-21.62a3.26,3.26,0,0,0-.45-1c.63-8.4-.09-17.27,0-25.39q.24-16.05.78-32.1a86.18,86.18,0,0,0,3.78,11.74c3.81,9.24,10.73,15.08,20.37,17.66,17.89,4.79,39.23,1.27,50.36-14.13,5.09,15.48,14.34,29.92,31.92,32.38a33.78,33.78,0,0,0,34.48-18.07c5.13,15.8,25.51,23.31,41.28,21.81a48.05,48.05,0,0,0,39.8-29.55c3.32,8.22,10.18,14.46,17.63,19.69,6.11,4.29,14.38,8.84,21.29,6.71C376.86,406.37,375.05,413.22,371.45,419.28Zm7.91-41.37c-.25,5.3-.41,10.85-.92,16.38-7.1,4.74-18.06-4.07-23.47-8.37-6.71-5.33-12.63-11.89-13.56-20.75-.24-2.32-3.68-3.18-4.33-.58-4.28,17.05-17.76,30.4-35.31,33.34-16.31,2.72-35.34-4.32-41.25-20.28.92.21,1.83.41,2.65.56,37.65,6.87,68.77-26.25,73.89-61.38.94-6.5-8.32-9.52-10.15-2.8-4.07,15.05-9.23,29.44-20.6,40.64C295.4,365.4,279,372.22,263.62,369c-.31-.06-4.93-1.08-4.89-1.35s4.57-2.9,4.78-3.05c2.5-1.79,4.94-3.69,7.28-5.69a99.42,99.42,0,0,0,14.57-15.56c8.23-10.91,14.88-24.53,16-38.3.16-1.9-2.88-2.77-3.68-1-7.76,17.2-15.77,33.12-30,46a116.65,116.65,0,0,1-12,9.11c-2.61,1.81-5.63,4.11-6.27,7.47-.91,4.74,2,7.55,5.81,9.28-5.72,13.49-19.81,21.65-34.66,17.8-15.52-4-22.32-19.05-26.23-33.19a2.23,2.23,0,0,0-4-.52c-9.31,17.49-31.33,21.25-49.12,16.21-18.73-5.32-19.63-24.94-23.61-41.24.8-19.88,1.89-39.75,3.46-59.59.26-3.37.57-6.74.86-10.11a33,33,0,0,0,13.36,16.53c14.31,8.81,32,4,41.24-9.09,5.3,11.86,16.51,20.66,29.69,22,14,1.43,27.41-6.21,34.64-17.94,4.75,11.38,19,17.37,30.64,18.52,15.38,1.5,23.07-10,28.28-22.44,6.82,7.42,14,16.67,23.25,20.43,8.37,3.39,20.52,3.16,29.09.85s14.21-8.71,18.78-15.89a116.68,116.68,0,0,0,10.35-20C381.64,298.08,381.24,338,379.36,377.91Zm55.13-223.42c-12.15-9-33.54-23.78-47.74-14.08a6.32,6.32,0,0,0-3.47-2.17c-4.81-1.21-11,.28-15.93.55q-8.46.47-16.94.74c-23.08.73-46.3.19-69.16-3.38-22.68-3.55-43-11.43-64.33-19.47-5.53-2.09-11.23-3.65-16.92-5.25.13-1-1.41-1.32-1.89-.53-4.54-1.3-9.06-2.65-13.47-4.38A99.9,99.9,0,0,1,169.4,98.9c-3.58-2.19-6.92-5-10.49-7.31a150,150,0,0,1,27.51-29.32C214,39.78,249,28.05,284.12,24.93,354,18.7,427.92,39.72,472.66,96.2c22.23,28.07,35.11,61.71,38.8,97.19,0,.32.1.62.16.92a19.38,19.38,0,0,0-4.95,5.06,94.43,94.43,0,0,0-24.24-6.82,95.77,95.77,0,0,0-11.08-1l-.44-.59c-3.43-4.67-7.06-9.2-10.93-13.52A167.69,167.69,0,0,0,434.49,154.49Zm19.9,86.71c5.24,1.66,7.85-4.85,4.91-8.44-5-6.13-7.38-15.92-4.5-22.8,5.39-5.08,14-3.65,21-1.79,7.75,2,15.44,4.3,23.19,6.33,5.68,1.48,9.35,1.61,13.29-3,2.24-2.64,4-5.55,6.74-7.75a19,19,0,0,1,5.26-2.61,13.66,13.66,0,0,1,9.16,4.84c6.26,7.68,4.34,17.76,1.68,26.54-3.24,3.18-.38,10.25,5.24,9A23.41,23.41,0,0,1,568.48,269c-3.67,17.45-23.33,24.54-38.36,16.28-3.43-1.88-8.07.45-8,4.58.21,9,.7,19.06-4,27.1-4.21,7.22-12.28,10.82-20.43,10.94-19.67.29-29.42-17.87-32.06-34.84-1.39-9-6.71-7.91-14.13-8.85a27.75,27.75,0,0,1-20-13.06C422.69,256.19,437.13,235.72,454.39,241.2Z"/><path class="cls-5" d="M160.12,204.33c7.11-2.13,11-11.26,6.76-17.6a11.39,11.39,0,0,0-5.63-4.27,1.67,1.67,0,0,0-.51-1.47c-2.56-2.24-6.88-1.45-9.6.18a13.33,13.33,0,0,0-3.24,2.75,11.16,11.16,0,0,0-2.14,2.28,3.16,3.16,0,0,0-.46,2.46,11.1,11.1,0,0,0-.44,2.12C144.06,198.8,152,206.77,160.12,204.33Zm-6.68-12.54c1.32-.27,3-.71,4.34-.26,1.9.66,1.79,3.11-.07,4-2.31,1.11-4.09-1.44-4.45-3.72Z"/><path class="cls-5" d="M320.64,218.34c6.55-4,8.75-14.09,3.26-19.92-4.46-4.74-13.3-5.58-17.7-1a11.21,11.21,0,0,0-2.67,2.4,11.81,11.81,0,0,0-2.11,10.94C303.91,218.41,313.63,222.67,320.64,218.34Zm-10.31-12.27c1.51-.77,4.08-2.26,5.78-1s.79,4.11-.75,5c-2,1.22-4.78-.57-5.47-2.53a4.3,4.3,0,0,1-.19-1.24A3.85,3.85,0,0,0,310.33,206.07Z"/><path class="cls-5" d="M317.07,229.4a4.59,4.59,0,1,0,4.6,4.59A4.64,4.64,0,0,0,317.07,229.4Z"/><path class="cls-5" d="M142.39,222.51c5.52,0,5.53-8.57,0-8.57S136.87,222.51,142.39,222.51Z"/><path class="cls-5" d="M222.41,234.87c20.05,2.68,29.62-16.47,29.46-33.76,0-5.17-8.52-6.75-9.37-1.27-1.66,10.73-2.59,25.86-17.13,25.84-5.67,0-10.52-3.24-13.43-8s-2.63-9.63-3-15a3,3,0,0,0-5.49-1.49C193.71,214.31,209,233.07,222.41,234.87Z"/><path class="cls-5" d="M459.66,271.77a1.15,1.15,0,0,0,0-2.19c-4-1.33-8.33-3.29-8.7-8.15a10,10,0,0,1,5.7-9.32c.78-.38.21-1.53-.57-1.35a10.75,10.75,0,0,0-8.53,11.91C448.31,268.11,454,273.35,459.66,271.77Z"/><path class="cls-5" d="M494.21,273.47c12.61,11.47,35,4.88,35.27-13.65,0-1.65-2.11-1.68-2.66-.36-2.72,6.48-5.61,12.74-12.76,15.32s-14.46-.65-19.37-6.08c-9.49-10.48-5.63-26,6.74-32.12,1.13-.56.14-2.17-1-1.67C484.57,242.06,481.22,261.65,494.21,273.47Z"/><path class="cls-5" d="M537,276.84c7.83-1.92,13.23-11.3,8.06-18.36-.86-1.18-2.79-.14-2,1.17,4,6.58-2.79,11.57-7,15.5A1,1,0,0,0,537,276.84Z"/><path class="cls-5" d="M496.78,301.93c6.28-.84,9.91-6.24,9-12.24a1.3,1.3,0,0,0-2.49,0,11.22,11.22,0,0,1-4.54,7.47c-2.57,1.6-12,1.67-10.31-3.82.42-1.39-1.65-1.9-2.14-.59C484,298.92,491.72,302.6,496.78,301.93Z"/><path class="cls-5" d="M385.05,49.56a185.36,185.36,0,0,0-32.43-9.9,221.09,221.09,0,0,0-67.55-3.6c-.87.08-.92,1.39,0,1.39,21.94,0,43.92,1.18,65.41,5.83a193.78,193.78,0,0,1,29.38,8.77c10.8,4.21,20.41,10.46,31,15.07,1.31.58,2.91-1,1.66-2.16C404.85,57.92,394.56,53.48,385.05,49.56Z"/><path class="cls-5" d="M423.64,76.12c-1.15-.37-1.59,1.38-.49,1.78a85.13,85.13,0,0,1,15.53,7.79c4.39,2.78,8.34,6.42,13,8.72.7.34,1.66-.4,1.15-1.15C446.66,84.09,433.73,79.37,423.64,76.12Z"/></svg>