<svg id="Layer_1" data-name="Layer 1" xmlns="http://www.w3.org/2000/svg" viewBox="0 0 600 600"><defs><style>.cls-1{fill:#f7941e;}.cls-2{fill:#fff;}.cls-3{fill:#231f20;}</style></defs><title>doodle</title><path class="cls-1" d="M507.8,105.77C501.57,87,489.65,74.31,470.75,68c-20.44-6.83-42.1-10.93-63.3-14.56-44.66-7.67-90-10.54-135.25-12.25-42.23-1.6-87.33-5.63-127.82,9.08C126.09,56.92,109.12,68,97.31,83.63s-18.29,34.25-22.75,53c-4.94,20.8-7.88,42.18-10.24,63.41S59.73,243,60.76,264.38c1,20.18,6.7,39.45,19.95,55,11.26,13.25,26.12,23.22,42.05,30,40.48,17.27,83.28,9.91,125.7,12.65,5,.32,6.6,8,1.24,9.13a266.4,266.4,0,0,1-54.45,6.13c-20.37,18.35-43.17,34.2-58.18,57.73-2.86,4.49-13.06,18-5,21.61,6.47,2.87,17-8.27,21.21-11.79a452.88,452.88,0,0,0,36.78-34.12c3.93-4.06,12.35-1.21,11.79,4.88-2.91,31.62-6.48,63.25-8.74,94.92-1.32,18.45-.45,78.51,32.51,62.49,24.15-11.74,33.84-43.53,42-66.87,10.57-30.13,18-61.05,23.32-92.51,1.22-7.21,12.59-6.77,14.13,0,6.13,26.91,16.11,53.64,33.57,75.36,1.82,2.27,10.32,14.33,14.25,12,3.06-1.8,2.17-18.62,2.13-21.58a105.88,105.88,0,0,0-10-42.72c-4.11-8.88,8.14-16.47,13.34-7.79a120.91,120.91,0,0,0,42.51,42.55c9.07,5.28,44.26,23.59,49.11,4.82,2.35-9.11-4.77-19.63-9.86-26.52-5.65-7.67-12.76-14.24-20.12-20.23-15-12.23-32.16-21.58-47.44-33.52a4.19,4.19,0,0,1-.69-.71,240.78,240.78,0,0,1-29-3.46c-10.24-1.91-5.79-17.16,4.26-15.49,25.1,4.15,51.4,4,76.76,2.82,22.45-1,43.64-6.11,59.33-23.2,14.78-16.1,22.32-38,27.7-58.73,6-23.17,8.63-47,9.11-70.9a551,551,0,0,0-2.83-64.73C515.42,143,513.76,123.71,507.8,105.77ZM113.54,300a8.47,8.47,0,1,1,2.49-6A8.71,8.71,0,0,1,113.54,300Zm32.76-50.09a19.83,19.83,0,0,1-16.86,1.79c-8.62-.82-16.84-6.42-19.87-14.65-2.61-7.11-1.37-15.81,3.55-21.55a20.07,20.07,0,0,1,10.5-8.91c11.9-4.36,24.64,2.4,29.47,13.69C157.26,230,156,243.69,146.3,249.87Zm151.26,43.8c-20,1.82-32.21-19.71-28.38-37.37.78-3.62,5.74-3.07,6.79,0,3.19,9.35,6.7,26,19.93,24.93,14.71-1.22,10.47-20.85,13.57-30.33.75-2.27,4.12-3.76,5.89-1.56C327.24,264.17,317.44,291.87,297.56,293.67ZM453,299.16c-2.06,3.91-7.44,5-11.13,2.92a11.31,11.31,0,0,1-5.08-12.61,7.65,7.65,0,0,1,2.76-4,7.26,7.26,0,0,1,4.67-1.65c.25,0,.51,0,.76.06a7.64,7.64,0,0,1,2.72.77h0a6.42,6.42,0,0,1,.65.41,8.54,8.54,0,0,1,3.2,4.27,8.48,8.48,0,0,1,2.26,3.58A8.17,8.17,0,0,1,453,299.16Zm-3.84-43.57c-16.62,1.41-28.08-15.28-24.62-30.69a18.11,18.11,0,0,1,3.5-7.3c7.95-13.54,28.1-8.18,36.13,3.34C473.4,234.18,465.92,254.16,449.17,255.59Z"/><path class="cls-2" d="M135.87,221.37c-2.22-1.29-5-1.27-7.69,1.17-6.32,5.73,1,14.25,6.8,15.25a8.77,8.77,0,0,0,5.09-10.46A12.15,12.15,0,0,0,135.87,221.37Z"/><path class="cls-2" d="M440.17,225.48c-1.8,2.59-.93,7.92.64,10.46,2.24,3.64,5.92,3.72,9.74,3.33a5.75,5.75,0,0,1,1.92.15,7.47,7.47,0,0,0,1.66-5.4C453.89,229.06,444.41,219.4,440.17,225.48Z"/><path class="cls-3" d="M123.62,206.55a20.07,20.07,0,0,0-10.5,8.91C108.2,221.2,107,229.9,109.57,237c3,8.23,11.25,13.83,19.87,14.65a19.83,19.83,0,0,0,16.86-1.79c9.65-6.18,11-19.88,6.79-29.63C148.26,209,135.52,202.19,123.62,206.55ZM135,237.79c-5.82-1-13.12-9.52-6.8-15.25,2.7-2.44,5.47-2.46,7.69-1.17a12.15,12.15,0,0,1,4.2,6A8.77,8.77,0,0,1,135,237.79Z"/><path class="cls-3" d="M309.47,250.9c-3.1,9.48,1.14,29.11-13.57,30.33-13.23,1.1-16.74-15.58-19.93-24.93-1.05-3.07-6-3.62-6.79,0-3.83,17.66,8.34,39.19,28.38,37.37,19.88-1.8,29.68-29.5,17.8-44.33C313.59,247.14,310.22,248.63,309.47,250.9Z"/><path class="cls-3" d="M428.05,217.6a18.11,18.11,0,0,0-3.5,7.3c-3.46,15.41,8,32.1,24.62,30.69s24.23-21.41,15-34.65C456.15,209.42,436,204.06,428.05,217.6Zm24.42,21.82a5.75,5.75,0,0,0-1.92-.15c-3.82.39-7.5.31-9.74-3.33-1.57-2.54-2.44-7.87-.64-10.46,4.24-6.08,13.72,3.58,14,8.54A7.47,7.47,0,0,1,452.47,239.42Z"/><path class="cls-3" d="M451.57,289.32a8.54,8.54,0,0,0-3.2-4.27,6.42,6.42,0,0,0-.65-.41h0a7.64,7.64,0,0,0-2.72-.77c-.25,0-.51-.05-.76-.06a7.26,7.26,0,0,0-4.67,1.65,7.65,7.65,0,0,0-2.76,4,11.31,11.31,0,0,0,5.08,12.61c3.69,2.12,9.07,1,11.13-2.92a8.17,8.17,0,0,0,.82-6.26A8.48,8.48,0,0,0,451.57,289.32Z"/><path class="cls-3" d="M107.55,285.49a8.76,8.76,0,0,0-6,2.48,8.48,8.48,0,1,0,6-2.48Z"/><path class="cls-3" d="M510.67,75.14c-13.74-17.26-34.55-23.11-55.15-28-48.08-11.4-97.47-16.75-146.74-19.45C283.92,26.33,259,25.54,234.1,25.1c-24.49-.44-49.24,0-73.26,5.27C119.2,39.56,85.73,64.25,69.5,104.2,61.41,124.11,57.38,145.39,54,166.53a702.19,702.19,0,0,0-8,74.73c-1.22,24.08.06,48.84,11.51,70.57,9.73,18.47,25.79,33.26,43.75,43.59C124,368.54,150.78,375.1,178,376.86a215.46,215.46,0,0,0-31.21,25.22,152,152,0,0,0-19.13,22.63c-5.08,7.42-11.17,16.54-12.12,25.72-2.12,20.74,21,23.38,34.48,14.28,12.92-8.73,24.93-19.45,36.28-30.53-2.3,23.63-4.62,47.25-6.61,70.9-2,23.16-2.54,49.06,11,69.19,5.84,8.7,13.83,15.34,24.83,15.14s21.43-6.39,29.36-13.54c17.51-15.79,25.88-40,33.84-61.53a573.51,573.51,0,0,0,20.51-68A193.9,193.9,0,0,0,310,471.25a163.27,163.27,0,0,0,15.61,24.24c5.24,6.76,11.07,14.55,18.93,18.38,6.36,3.09,13.64,3,18.56-2.53,5.41-6.1,5.65-16.59,6.26-24.33a109.36,109.36,0,0,0-.31-20.32,138.44,138.44,0,0,0,31.08,22.21c17.37,9.07,47.47,20.6,61.75.15s-5-46.81-19.38-61.13C429.05,414.58,413,404.34,396,396.07c7.3,0,14.6-.12,21.87-.29,21.13-.51,43.29-3,61.34-15,35.89-23.79,49-71.89,54.62-112,6.56-46.58,3.57-94.48-3.5-140.84C527.46,109.33,522.61,90.13,510.67,75.14Zm9.41,151.27c-.48,23.9-3.1,47.73-9.11,70.9-5.38,20.77-12.92,42.63-27.7,58.73-15.69,17.09-36.88,22.19-59.33,23.2-25.36,1.14-51.66,1.33-76.76-2.82-10.05-1.67-14.5,13.58-4.26,15.49a240.78,240.78,0,0,0,29,3.46,4.19,4.19,0,0,0,.69.71C387.86,408,405,417.37,420,429.6c7.36,6,14.47,12.56,20.12,20.23,5.09,6.89,12.21,17.41,9.86,26.52-4.85,18.77-40,.46-49.11-4.82A120.91,120.91,0,0,1,358.38,429c-5.2-8.68-17.45-1.09-13.34,7.79a105.88,105.88,0,0,1,10,42.72c0,3,.93,19.78-2.13,21.58-3.93,2.31-12.43-9.75-14.25-12-17.46-21.72-27.44-48.45-33.57-75.36-1.54-6.77-12.91-7.21-14.13,0-5.33,31.46-12.75,62.38-23.32,92.51-8.19,23.34-17.88,55.13-42,66.87-33,16-33.83-44-32.51-62.49,2.26-31.67,5.83-63.3,8.74-94.92.56-6.09-7.86-8.94-11.79-4.88a452.88,452.88,0,0,1-36.78,34.12c-4.25,3.52-14.74,14.66-21.21,11.79-8.06-3.58,2.14-17.12,5-21.61,15-23.53,37.81-39.38,58.18-57.73a266.4,266.4,0,0,0,54.45-6.13c5.36-1.17,3.77-8.81-1.24-9.13-42.42-2.74-85.22,4.62-125.7-12.65-15.93-6.8-30.79-16.77-42.05-30-13.25-15.59-19-34.86-19.95-55-1-21.38,1.2-43.09,3.56-64.32s5.3-42.61,10.24-63.41c4.46-18.77,11-37.49,22.75-53s28.78-26.71,47.07-33.36C184.87,35.56,230,39.59,272.2,41.19c45.23,1.71,90.59,4.58,135.25,12.25,21.2,3.63,42.86,7.73,63.3,14.56,18.9,6.31,30.82,19,37.05,37.77,6,17.94,7.62,37.21,9.45,55.91A551,551,0,0,1,520.08,226.41Z"/></svg>