<svg id="Layer_1" data-name="Layer 1" xmlns="http://www.w3.org/2000/svg" viewBox="0 0 600 600"><defs><style>.cls-1{fill:#939598;}.cls-2{fill:#231f20;}</style></defs><title>doodle</title><path class="cls-1" d="M302.27,303.06c7.84.31,15.77,2,23.48,3.28,7.24,1.23,14.69,2.27,21.85,4.05,0-.46,0-.93,0-1.38,0-1,0-2.08,0-3.12-7.9-1.55-15.58-3.94-23.55-5.27-6.88-1.14-14-1.36-20.84-2.49Z"/><path class="cls-1" d="M286.53,381.24c4.14.33,8.24,1.11,12.36,1.55,3.93.42,8,.34,11.85,1.31a10.61,10.61,0,0,0,2.24-3.81c-3.15-.15-6.3-.71-9.43-1.16-5.3-.77-10.87-1.42-15.94-3.26Z"/><path class="cls-1" d="M293.15,348.37a145.55,145.55,0,0,1,15.18,1c5.76.49,11.85.58,17.58,1.7.28-2,.68-4,1.13-5.93-5.32-.32-10.88-2-15.94-3-5.36-1-10.76-1.85-16.13-2.82C294.36,342.34,293.76,345.36,293.15,348.37Z"/><path class="cls-1" d="M309.42,267.66c10,.72,20.14,3.27,29.91,5.11,9.37,1.76,20.19,2.76,29.51,5.75a51.78,51.78,0,0,0,1.8-7.19c-12.24-1.34-24.55-4.33-36.5-6.92-7.09-1.55-14.2-3.12-21.21-5l-1.75-.45C310.59,261.87,310,264.76,309.42,267.66Z"/><path class="cls-1" d="M317,230.27c10.62,1.42,21.08,4.56,31.62,6.43,11.79,2.09,23.67,3.54,35.6,4.46.14-.91.26-1.82.32-2.74,0-.4,0-.79,0-1.18-4.52-.16-9.19-1.53-13.53-2.37q-9-1.74-17.95-3.66c-11.42-2.45-23.57-4.49-34.57-8.53Z"/><path class="cls-1" d="M269.4,335.38c-4.32.07-8.83-1.32-13-2-5.43-.93-10.85-1.89-16.26-2.93,0,1.62-.08,3.24,0,4.86.11,2.22.59,4.38.86,6.57a255.88,255.88,0,0,1,26.88,2.68Z"/><path class="cls-1" d="M254.87,493.69q23,45.09,46.07,90.15c17.3-57.32,4.21-118.23-20.64-171.62q-1.16,5.68-2.29,11.35c-1.54,7.65-1.92,17.55-6.6,24.14-3.14,4.44-9.09,6.55-13.83,3.13s-5.37-10.36-4.84-15.71c.89-9.05,2.87-18.11,4.45-27.09-22,14.68-35.05,40.92-47.12,63.62-12.83,24.11-23.58,49.65-28.12,76.66q34.43-26.61,67.13-55.38C250.76,491.47,253.73,491.45,254.87,493.69Z"/><path class="cls-1" d="M263,373.77c-5.51.29-11.31-1.11-16.49-2.95,0,.58.05,1.17.08,1.75.08,1.59.12,3.2.11,4.8,2.59.35,5.18,1.32,7.72,1.72s5.08.31,7.6.47C262.31,377.63,262.63,375.7,263,373.77Z"/><path class="cls-1" d="M307.47,148.65c-6.17,44.61-14.59,89-22,133.43q-5.44,32.78-10.87,65.56l-.44,2.66q-4.17,25.2-8.36,50.4-2.43,14.69-4.88,29.36c-.61,3.73-1.72,8.07-.57,11.82,1.77,5.8,5.5,1.56,6.75-2.31,2.82-8.69,3.82-18.34,5.61-27.29q2.91-14.55,5.83-29.11,23.2-115.8,46.29-231.62Z"/><path class="cls-1" d="M282.52,256.92c-4.54.38-9.39-.94-13.85-1.69q-7.4-1.24-14.76-2.66c-8.21-1.57-17.28-2.72-25.27-5.69-.44,3.72-1.34,7.45-1.8,11.19,8.23.66,16.44,2.37,24.59,3.52,5.29.74,10.59,1.37,15.9,1.94,4.49.48,9.54.32,13.79,1.9C281.59,262.59,282.06,259.76,282.52,256.92Z"/><path class="cls-1" d="M256.57,176.43c-6.82-1.11-13.64-2.21-20.44-3.43a56.52,56.52,0,0,1-11.08-2.77c-.64,4.51-1.31,9-2.09,13.52h0c10.82-.08,21.92,1.59,32.64,2.62l37.71,4.35c.46-2.75.91-5.51,1.39-8.27C282,180.48,269.27,178.51,256.57,176.43Z"/><path class="cls-1" d="M369.3,150.79c10.69,1.76,21.81,4.68,32.62,5.36,4.16.26,4.67-.21,5.41-4.33q.53-2.91.94-5.83c.63-4.52,1-9.07,1.28-13.62a170.19,170.19,0,0,0-25.82-99.2l-29.55,53c-1.91,3.44-7.64,2-7.49-2,.4-10.85.54-21.71.35-32.57-.14-8.54,1.11-19.39-2.59-27.35-4.47-9.58-18.81-2.92-26.11,0a120.65,120.65,0,0,0-23.11,12.33A157.11,157.11,0,0,0,256.41,74.1C245.57,89,237,107.34,242,126c0,.2.06.38.09.57,9.47,3.06,18.54,6.26,28.5,8.11,11.5,2.13,23.09,3.8,34.64,5.65Q337.26,145.5,369.3,150.79Zm-70.62-48.54c-2.12-5.92-3.2-12.28-4.23-18.56a66.12,66.12,0,0,1-11.24-1c-3.52-.64-2.42-5.81.81-6s6.15-.17,9.22-.24c-1.26-7-2.77-14.2-2.47-21.31.13-3,4-3.27,5-.68,2.69,6.86,3.74,14.4,5,21.68q1-.06,1.92-.15c5.42-.52,11.72-2.95,17-1.46,1.84.52,2.83,3.21,1.21,4.57-4.5,3.75-11.46,3.7-17.16,4.15l-1.6.11a116.93,116.93,0,0,1,2.82,18C305.23,105.26,299.84,105.48,298.68,102.25Z"/><path class="cls-1" d="M323.87,196.19c12.13,1.27,24.34,4.56,36.42,6.36,12.52,1.87,26.47,2.48,38.55,6.5.77-3.93,1.62-7.84,2.26-11.8-6.57-.16-13.51-1.81-19.89-2.64l-22.2-2.9q-10.41-1.35-20.8-2.73c-3.44-.47-8.81-.44-12.43-2.25Q324.82,191.47,323.87,196.19Z"/><path class="cls-1" d="M274.47,305.19c.44-2.63.89-5.25,1.32-7.87-6.4.43-13.43-1.3-19.66-2.07-6-.73-12.29-1.24-18.3-2.44-.07,1.56-.25,3.11-.41,4.7-.11,1.18-.16,2.41-.32,3.6,12.16.65,24.44,3.11,36.56,3.94A3.43,3.43,0,0,1,274.47,305.19Z"/><path class="cls-1" d="M288,223c-9.86-.69-20.09-3.66-29.71-5.47-10.06-1.89-20.15-3.63-30.07-6.15-.37,3.45-.9,6.89-1.51,10.31,9.45,1,18.84,2.91,28.23,4.31,10.62,1.58,21.26,2.81,31.92,4.11Z"/><path class="cls-2" d="M414,86.28a175.82,175.82,0,0,0-27-63c-1.66-2.41-5.43-2.82-7,0L355.11,67.94q.09-7,0-14.06c-.11-8.87.24-18.21-1.47-27-1.18-6-4.15-11.83-10-14.46-7.23-3.27-16.05-.07-23.06,2.35-30.34,10.45-57.13,33.52-74.55,60.24-10.25,15.71-16.78,34.39-11.81,53.09a4,4,0,0,0,.73,1.49,2.74,2.74,0,0,0,1.15,1.22c8.2,5.93,19.56,8.48,29.3,10.51,11.32,2.35,22.78,4,34.17,6l1.47.25q-2.7,13.83-5.12,27.72c-12.11-1.9-24.22-3.79-36.34-5.59s-24.54-2.92-36.47-5.87c-1-.24-2.43-.59-3.24.32a5.15,5.15,0,0,0-1,2.65c-.92,5-1.8,10.07-2.54,15.12a41.37,41.37,0,0,1-.82,4.35c-.24,1.62,1.89,2.33,3.79,2.79,11.37,2.75,23.58,3.29,35.2,4.48l37.68,4.67c-1,6.18-2.05,11.37-3.06,17.57-9.92-2.95-21.19-3.73-31.28-5.46-9.92-1.71-19.8-3.51-29.81-4.54-1.92-.24-4.56-1.53-5.23.94a133.59,133.59,0,0,0-3,15c-.26,1.78-.54,2.59.39,3.79.31.52,2.41.95,3.07,1.15,10.72,3.31,22.15,4.82,33.21,6.52,9.68,1.48,19.42,2.86,29.17,3.88q-1.1,6.79-2.2,13.59c-4.1-1.51-8.6-1.78-12.92-2.47-4.94-.8-9.87-1.64-14.79-2.55-9.52-1.74-19.5-4.93-29.19-5.11a2.39,2.39,0,0,0-1.64.63,2.63,2.63,0,0,0-.91.85c-3.27,5.06-3.82,9.25-4.1,15.14-.13,2.75,1.38,4.75,4.48,5.94,9.68,3.36,20.24,4.59,30.25,6.06,4.27.62,8.56,1.14,12.85,1.63,4.14.48,8,1.18,12.26,1.71-.22,1.32-.14,1.68-.36,3q-1.27,7.62-2.56,15.23c-6.64-.86-13.45-1.78-19.63-2.42-7.47-.78-15.16-2-22.67-1.72a2.76,2.76,0,0,0-2.64,3l-1.82,11.73c-.35,1.74-.68,4.54,1.31,4.93a384.88,384.88,0,0,0,41.85,6q-1.4,8.25-2.78,16.51C266,328,260.5,327,256,326.27c-5.7-.89-11.4-1.73-17.12-2.48h0l-.12,0h-.1c-2.33-.2-3.76-.23-4.36,1.84-1.75,6.1-1.7,14.28,1,20.1.75,1.63,1.49.8,4,1.28l26.93,4.34c-1.28,10.05-.7,5.53-2,15.58l-19.45-1.81a2.38,2.38,0,0,0-2,.41,2.41,2.41,0,0,0-1.44,1.1c-1.06,1.79-1,4-1.07,6s-.17,4.3-.12,6.44,1.3,3.13,3.45,4.05l17.35,3.54q-1.16,6.86-2.3,13.72a3.09,3.09,0,0,0-1.8.43c-25.17,14.28-39.5,42.78-52.61,67.41-14.7,27.62-26.47,56.83-30.24,88.08a3.26,3.26,0,0,0,5.19,3q36.66-27.81,71.49-57.84,23.94,47.22,47.83,94.46c1.64,3.22,6.05,2,7.11-.93,22.74-62.61,8.53-130.15-19.11-188.66a3.33,3.33,0,0,0-4.51-1.77q1.75-8.76,3.53-17.53l28,2.56c5.06.58,5.45-2.65,5.78-7l.63-6.82c-.34-2.29-2.31-1.54-4.56-1.91l-26.54-3.51q1.62-8.07,3.25-16.14c5,1.11,10.18,1.4,15.2,1.92l17.73,1.53a6.74,6.74,0,0,0,7.14-5.15c.89-3.72,1.82-8,2.3-10.08.72-3.11-1.32-3.1-4.87-3.74l-33.22-5.76q2.4-11.91,4.8-23.82l49.21,7.48c5.84,1,4.13-5.23,4.11-7.57a69.62,69.62,0,0,0-.2-7.37c-.34-2.93-2.1-1.64-5-2.45l-44.71-7.11,3.72-18.38c10.17,3,21.19,4.31,31.55,6.37s21.56,5.77,32.07,6.07c2.77.07,2.94-1.56,3.44-4.31.94-4.72,1.66-7.31,2.08-10.4.69-2.69,2.4-5.68-.74-6.37-11.92-2.59-24.11-4.1-36.07-6.61-6-1.25-12-2.57-17.95-3.85-3-.65-6-1.32-9-1.86-.36-.07-.74-.12-1.11-.18q1.68-8.33,3.37-16.64l71.07,12.75c3,.24,2.85-2.41,3.21-4.94l.53-9.42a2.33,2.33,0,0,0-1.42-2.55c-5-2.45-10.88-2.76-16.31-3.75q-9.59-1.75-19.12-3.72c-11.32-2.33-22.69-5.67-34.14-7.31q1.54-7.6,3.08-15.2L399.19,216a3.28,3.28,0,0,0,1.06-.09,3,3,0,0,0,3.95-2,85.81,85.81,0,0,0,3.7-16.63,15.21,15.21,0,0,0,.29-3.15c-.13-1.89-.64-2.64-2.74-3.35-6.11-2.05-13.17-2.1-19.56-2.9l-22.21-2.74c-12.17-1.51-24.42-3.63-36.59-4.93q2.76-13.68,5.52-27.36,20.19,3.36,40.37,6.67l17.47,2.88c5.2.86,11.1,2.71,16.36,2.6,8.88-.17,8.77-13.08,9.6-19.35A176.51,176.51,0,0,0,414,86.28ZM255.6,186.37c-10.72-1-21.82-2.7-32.64-2.62h0c.78-4.49,1.45-9,2.09-13.52A56.52,56.52,0,0,0,236.13,173c6.8,1.22,13.62,2.32,20.44,3.43,12.7,2.08,25.42,4,38.13,6-.48,2.76-.93,5.52-1.39,8.27Zm-.66,39.6c-9.39-1.4-18.78-3.33-28.23-4.31.61-3.42,1.14-6.86,1.51-10.31,9.92,2.52,20,4.26,30.07,6.15,9.62,1.81,19.85,4.78,29.71,5.47l-1.14,7.11C276.2,228.78,265.56,227.55,254.94,226Zm12.39,37.56c-5.31-.57-10.61-1.2-15.9-1.94-8.15-1.15-16.36-2.86-24.59-3.52.46-3.74,1.36-7.47,1.8-11.19,9.28,3.45,20,4.45,29.18,6.5,2.93.65,5.89,1.19,8.87,1.56,5,.6,10.61,2.42,15.83,2-.46,2.84-.93,5.67-1.4,8.51C276.87,263.85,271.82,264,267.33,263.53ZM237.1,301.11c.16-1.19.21-2.42.32-3.6.16-1.59.34-3.14.41-4.7,6,1.2,12.27,1.71,18.3,2.44,6.23.77,13.26,2.5,19.66,2.07l-1.32,7.87a3.43,3.43,0,0,0-.81-.14C261.54,304.22,249.26,301.76,237.1,301.11ZM241,341.84c-.27-2.19-.75-4.35-.86-6.57-.08-1.62,0-3.24,0-4.86,5.41,1,10.83,2,16.26,2.93,4.18.72,8.69,2.11,13,2l-1.53,9.14A255.88,255.88,0,0,0,241,341.84Zm13.39,37.25c-2.54-.4-5.13-1.37-7.72-1.72,0-1.6,0-3.2-.11-4.8,0-.58-.05-1.17-.08-1.75,5.18,1.84,11,3.24,16.49,2.95-.33,1.93-.65,3.86-1,5.79C259.46,379.4,256.89,379.48,254.38,379.09Zm46.56,204.75q-23-45.09-46.07-90.15c-1.14-2.24-4.11-2.22-5.79-.75Q216.37,521.62,182,548.32c4.54-27,15.29-52.55,28.12-76.66,12.07-22.7,25.11-48.94,47.12-63.62-1.59,9-3.56,18-4.45,27.09-.53,5.35.09,12.29,4.84,15.71s10.69,1.31,13.83-3.13c4.68-6.59,5.06-16.49,6.6-24.14q1.14-5.67,2.29-11.35C305.15,465.61,318.25,526.52,300.94,583.84Zm2.61-204.71c3.13.45,6.28,1,9.43,1.16a10.61,10.61,0,0,1-2.24,3.81c-3.83-1-7.92-.89-11.85-1.31-4.12-.44-8.22-1.22-12.36-1.55l1.08-5.37C292.68,377.71,298.25,378.36,303.55,379.13Zm7.55-37c5.07,1,10.62,2.64,15.94,3-.45,2-.85,3.94-1.13,5.93-5.73-1.12-11.82-1.22-17.58-1.7a145.55,145.55,0,0,0-15.18-1c.61-3,1.21-6,1.82-9.05C300.34,340.29,305.74,341.12,311.1,342.14Zm13-41.52c8,1.33,15.65,3.72,23.55,5.27,0,1,0,2.08,0,3.12,0,.45,0,.92,0,1.38-7.16-1.78-14.61-2.82-21.85-4.05-7.71-1.32-15.64-3-23.48-3.28l1-4.93C310.14,299.26,317.22,299.48,324.1,300.62Zm-11.17-41.2c7,1.87,14.12,3.44,21.21,5,11.95,2.59,24.26,5.58,36.5,6.92a51.78,51.78,0,0,1-1.8,7.19c-9.32-3-20.14-4-29.51-5.75-9.77-1.84-19.93-4.39-29.91-5.11.59-2.9,1.17-5.79,1.76-8.69Zm45-27.12c3.95.93,7.92,1.68,11.91,2.36,4.67.79,9.78,2.41,14.71,2.58,0,.39,0,.78,0,1.18-.06.92-.18,1.83-.32,2.74L317,230.27l1.53-7.59C331.09,227.3,345.18,229.31,357.94,232.3ZM278.56,383.17q-2.91,14.55-5.83,29.11c-1.79,9-2.79,18.6-5.61,27.29-1.25,3.87-5,8.11-6.75,2.31-1.15-3.75,0-8.09.57-11.82q2.44-14.67,4.88-29.36,4.19-25.2,8.36-50.4l.44-2.66q5.43-32.77,10.87-65.56c7.39-44.43,15.81-88.82,22-133.43l17.38,2.9Q301.62,267.35,278.56,383.17ZM338.21,189q10.4,1.4,20.8,2.73l22.2,2.9c6.38.83,13.32,2.48,19.89,2.64-.64,4-1.49,7.87-2.26,11.8-12.08-4-26-4.63-38.55-6.5-12.08-1.8-24.29-5.09-36.42-6.36q.94-4.73,1.91-9.46C329.4,188.54,334.77,188.51,338.21,189Zm71.34-56.61c-.24,4.55-.65,9.1-1.28,13.62q-.42,2.92-.94,5.83c-.74,4.12-1.25,4.59-5.41,4.33-10.81-.68-21.93-3.6-32.62-5.36q-32.06-5.26-64.11-10.44c-11.55-1.85-23.14-3.52-34.64-5.65-10-1.85-19-5-28.5-8.11,0-.19,0-.37-.09-.57-5-18.68,3.61-37,14.45-51.92A154.52,154.52,0,0,1,304.06,31a121.85,121.85,0,0,1,15.09-7.18c7.5-3,21-8.88,25.3.36,3.7,8,2.45,18.81,2.59,27.35.19,10.86,0,21.72-.35,32.57-.15,4,5.58,5.47,7.49,2l29.55-53A170.19,170.19,0,0,1,409.55,132.37Z"/><path class="cls-2" d="M303.82,83.33c5.7-.45,12.66-.4,17.16-4.15,1.62-1.36.63-4.05-1.21-4.57-5.32-1.49-11.62.94-17,1.46q-1,.09-1.92.15c-1.3-7.28-2.35-14.82-5-21.68-1-2.59-4.87-2.33-5,.68-.3,7.11,1.21,14.31,2.47,21.31-3.07.07-6.14.1-9.22.24s-4.33,5.31-.81,6a66.12,66.12,0,0,0,11.24,1c1,6.28,2.11,12.64,4.23,18.56,1.16,3.23,6.55,3,6.36-.86a116.93,116.93,0,0,0-2.82-18Z"/></svg>