<svg id="Layer_1" data-name="Layer 1" xmlns="http://www.w3.org/2000/svg" viewBox="0 0 600 600"><defs><style>.cls-1{fill:#f7941e;}.cls-2{fill:#fff200;}.cls-3{fill:#fff;}.cls-4{fill:#be1e2d;}.cls-5{fill:#231f20;}</style></defs><title>doodle</title><path class="cls-1" d="M266,478.74a11.19,11.19,0,0,1-2.27-5.68c-2.77-5.86-2.36-14.09-2.83-20.14-.32-4.15-1.62-10.9-.81-16.26-3.52-.22-7-.48-10.53-.82.82,5.14,1,10.48,1.43,15.57.69,7.28,1.66,14.65,1.74,22a3.93,3.93,0,0,1-2.3,3.62c-2.37,4.9-6.51,8.28-11.22,11.24-6.6,4.15-13.15,8.13-19.26,13a146,146,0,0,0-28.18,30.13c8.1-2.39,16-10.55,21.57-15.39a226.41,226.41,0,0,0,20.86-20.7c3.31-3.73,8.39,1,6.48,5a300.64,300.64,0,0,0-13.23,31.83q-2.67,7.64-4.9,15.41c-.79,2.76-1.57,5.53-2.3,8.31-.77,3-2.89,6.74.38,8.56,1.42,1.84,2.47,1.61,3.13-.7q.93-1.65,1.77-3.36c1.3-2.53,2.56-5.09,3.79-7.65q3.72-7.69,7.15-15.51c4.44-10.09,8.4-20.38,12-30.8,1.62-4.68,7.63-3.45,8.2,1.11,2.37,19.22,5,38.52,12.32,56.5,1.38-3.17,1.18-7.3,1.14-10.61-.07-6.54-.19-13.08-.28-19.63q-.31-20.79-.56-41.57a4.34,4.34,0,0,1,3.05-4,33,33,0,0,0,17.8-17.91,81.41,81.41,0,0,0-18.39,10C269.76,481.68,267.3,480.42,266,478.74Z"/><path class="cls-1" d="M107.46,277.94a46.27,46.27,0,0,0-4.16,6.18c-3.71,6.64-7.08,13.5-10.34,20.36Q87.47,316,82.71,327.87c-1.67,4.16-3.79,8.68-5,13.29l10-10.87c2.55-2.77,8.45-.78,7.94,3.29a318.48,318.48,0,0,0-2.53,40.48q0,10.14.73,20.28c.41,6,.08,13.27,2.68,18.75,4.12,8.69,9.11,1.34,10.81-4.06,2-6.31,3.71-12.72,5.56-19.08l10.74-37a132.79,132.79,0,0,1-7.22-16.34A158.92,158.92,0,0,1,107.46,277.94Z"/><path class="cls-2" d="M164.65,390.82c11.29,11.49,23.47,20.84,38.88,26,30.63,10.26,64.43,10.75,96.38,9.6,17.24-.63,35.06-1.16,52.06-4.22,16-2.87,29.92-10.49,44-18.2,26.13-14.25,50.56-30.49,64.07-58,12.66-25.73,16.69-56.7,16.17-85.13-.57-31.16-16.32-62.54-35.66-86.48-18.58-23-45-39.48-75.22-39.28-5.67,0-5.49-8.24,0-8.69a77.13,77.13,0,0,1,16,.39,40.81,40.81,0,0,1,.78-10.33c.82-4.46,2.26-9,.7-13.47-3.86-11.11-18.8,3.88-22.55,8.59-2.79,3.49-7.75.25-8-3.33-.59-7.33-1.32-14.66-2.45-21.93-.4-2.56-.28-6.19-3.48-4.66-2.27,1.09-4,4.37-5.41,6.33A180,180,0,0,0,322.22,122c-1.58,3.78-8.49,5.34-9.34,0a373.08,373.08,0,0,0-12.1-52.28c-2.55-8.19-5.37-16.32-8.38-24.36q-2.26-6-4.73-12c-.31-.75-2-5.61-3-6.25-2.43-1.49-5.23,1.31-6.71,2.75-10.76,10.42-18.17,26.4-22.43,40.51a105.6,105.6,0,0,0-3.66,46.32c.71,4.6-4.66,7-7.43,3.14-4-5.53-33.26-46.18-40.6-33.37-2.07,3.62.32,9.75,1.41,13.29a87.28,87.28,0,0,0,5,12.49,125,125,0,0,0,13.64,21.58,73.85,73.85,0,0,1,14.77.7c2.44.37,2.45,4.57,0,4.93-15.56,2.28-31.36,5.38-45.66,12.15A124.2,124.2,0,0,0,155.2,179.2c-21.7,23.33-33.94,54.65-37.16,86.14a2.84,2.84,0,0,1-.06.5c-.07.69-.16,1.38-.22,2.08-2.58,29.75,2.35,60.58,17.69,86.52C143.4,367.88,153.75,379.71,164.65,390.82ZM448.79,279.47c-.37,1-2.13.94-2-.27a133.23,133.23,0,0,0,.32-23.12c-.07-1.16,1.56-1.21,1.91-.25A35.14,35.14,0,0,1,448.79,279.47ZM417,168.23a65.73,65.73,0,0,1,25.48,29.86c4.61,10.59,9.35,26.59,4.9,37.94-.34.86-1.84,1.14-2.05,0-1.1-6.18-.45-12.6-1.46-18.84a74.84,74.84,0,0,0-5.22-17.86,86,86,0,0,0-22.32-30.23C415.83,168.68,416.45,167.9,417,168.23Zm-5.72,105.62a6,6,0,0,1,1.53-2.6,5.63,5.63,0,0,1,6.18-1.17,5.69,5.69,0,0,1,3.48,5.17c0,.06,0,.13,0,.19l0-.21a5.05,5.05,0,0,1-.38,2.39,4.94,4.94,0,0,1-1.61,2.09,5.34,5.34,0,0,1-2,1l-.06,0-.34.08a5.77,5.77,0,0,1-3.45-.34,4.33,4.33,0,0,1-1.82-1.17c-.16-.17-.31-.34-.45-.52a3.44,3.44,0,0,1-.59-.81c-.17-.38-.33-.77-.49-1.15A5.67,5.67,0,0,1,411.26,273.85ZM342.75,102.56c.14-1,1.62-1.41,1.94-.26.93,3.31,1.29,7.59-.4,10.73a1.22,1.22,0,0,1-2.22-.29C341.6,109.5,342.34,105.81,342.75,102.56ZM325.31,222.17c2-14.87,9.75-29.39,22.5-36,5.59-3.6,13-4.85,19.39-4.46,5.55.35,12.15.73,17.29,3s8.13,6.66,11.06,11.14c11.54,17.68,18.5,41.31,5.24,60.05-11.06,15.63-31.55,22.8-49.54,15.46C331,263,322.48,243.05,325.31,222.17Zm-30-127.36c1.72,4.59,4.51,10.65,2.58,15.59a1.15,1.15,0,0,1-2.2,0c-.88-2.17-.75-4.54-1-6.85a60.71,60.71,0,0,0-1-8.3A.84.84,0,0,1,295.34,94.81ZM281.43,47.94C286.17,58.61,291,70,291.89,81.79c.11,1.49-2,1.52-2.42.33-4.1-10.82-6.31-22.35-10.18-33.28C278.85,47.59,280.89,46.74,281.43,47.94ZM255.67,280.68c.32-8.91,0-18.69,2.67-27.33a2.11,2.11,0,0,1,.08-2c4-6,13.1-7.76,19.69-9.49,6.05-1.6,15-4.71,21-2.13a3.84,3.84,0,0,1,2.35,4.7,9.77,9.77,0,0,1,1,3.77c.51,5.2.38,10.6.39,15.81,0,9.64-.32,19.31-1.19,28.92-1.26,14-5.46,30.16-20.86,34.41-14.52,4-23.46-7.78-25-20.85C254.81,297.94,255.37,289.2,255.67,280.68ZM206.48,399.25c-5.74.59-12.31-4.32-15.48-8.7-.54-.75.55-1.88,1.3-1.3a40.4,40.4,0,0,0,7,4.59c2.53,1.23,5.37,1.7,7.84,3C208.41,397.45,207.65,399.13,206.48,399.25ZM185.29,193.39c10.64-5.38,24-5.6,33.78.35a25.36,25.36,0,0,1,9.44,8.12c6.42,9,6.58,20.64,5.17,31.18-2.41,18-14,33-32.77,35.47-17.65,2.37-33.87-10.21-38-27.23C158.34,222.64,168.27,202,185.29,193.39ZM147.11,316.33c1.63,13.63,3.21,26.21,10.12,38.42a72,72,0,0,0,12.08,15.85c4.45,4.4,9.7,7.73,14.39,11.82a1.16,1.16,0,0,1-1.13,1.93c-12.71-4.1-23-17-29.09-28.4-6.23-11.59-10.75-26.65-7.5-39.78C146.15,315.48,147,315.72,147.11,316.33ZM135.2,278.67a5.36,5.36,0,0,1-1-2,5.62,5.62,0,0,1,0-3,5.76,5.76,0,0,1,2.58-3.36,5.82,5.82,0,0,1,4.34-.57,5.67,5.67,0,0,1,3.94,3.93,7,7,0,0,1,.26,2,6.75,6.75,0,0,1-.84,3.1,4.82,4.82,0,0,1-2.56,2.18,5,5,0,0,1-2.76.37,5.31,5.31,0,0,1-3.07-1.47l-.84-1.08Z"/><path class="cls-3" d="M207.4,221.66c.48-3.26-3.66-5.83-6.38-3.9-1.5,1.07-2,2.71-2.25,4.47a3.69,3.69,0,0,0,.5,1C201.64,226.71,206.76,226,207.4,221.66Z"/><path class="cls-3" d="M183,254.69c12.7,9.14,31.09,2.76,37.73-10.84,7.39-15.17,7.89-45.81-13.28-47.26-1.16-.08-4.56,0-4.66,1.21a31.35,31.35,0,0,0-21.7,10.26C169,221.11,167.51,243.55,183,254.69Zm7-38.4a13,13,0,0,1,4.1-6,8.09,8.09,0,0,1,6.24-2.87c.27,0,.53-.09.8-.12,10.73-1.17,19.27,9.84,14.27,19.74-4.89,9.69-19,10-23.83.11C189,224.56,188.86,219.59,190,216.29Z"/><path class="cls-4" d="M276.78,319.29c9.45-1.25,13.25-9.61,15-18.31-5.05-2.37-8.3-7.54-13.34-10.19-4.57-2.4-9.29-2.17-14.06-2.56,0,1.58,0,3.16,0,4.74C264.3,301.47,263.2,321.08,276.78,319.29Z"/><path class="cls-1" d="M374.67,476.06c-1.41-9.48-1-19.4-.91-29,0-6.49-.44-13.66.33-20.42-2.72,1.06-5.45,2-8.21,2.8,1.46,5.87,2,12,2.75,18,.94,7.31,1.93,14.64,2.46,22a3.69,3.69,0,0,1-.58,2.34c.51,2.21-2,4.81-4.17,3.2l-2-1.51a3.51,3.51,0,0,1-1.38-1c-6.85-5.11-13.61-9.74-21.74-12.47-.17,5.76,5.92,11.36,9.81,14.68a66.79,66.79,0,0,0,18.35,11,4.42,4.42,0,0,1,3,5.21c-3.69,26.52-4.31,52.88-5.15,79.54,2.21-3,2.57-13.36,2.73-15q.82-8.43,1.61-16.87,1.65-17.43,3.28-34.87a3.43,3.43,0,0,1,6.71-.91c7.08,20.38,19.16,38.7,34.26,54,.77-4-1.78-8.93-3.38-12.29-2.51-5.26-5.15-10.46-7.84-15.63q-8.58-16.47-18-32.51c-2.39-4.07,2.93-7.59,6.21-4.79a223.8,223.8,0,0,0,32.72,22.82c8.92,5.19,19.74,12.63,30.55,14.2a32.26,32.26,0,0,0-5.22-4.38q-5.16-3.9-10.42-7.67Q430.8,509.61,421,503q-19.5-13.08-39.88-24.72C378.71,479.85,375.19,479.57,374.67,476.06Z"/><path class="cls-1" d="M493.48,354.88c2.83,4.41,15.79,24.8,20.42,14.11,2-4.49,1.42-9.9,1.23-14.65a169.45,169.45,0,0,0-1.59-18A175.14,175.14,0,0,0,505.28,303c-1.48-4.18,4.89-8.15,7.72-4.5l7.81,10.06c-2.68-8.85-5.62-17.65-9.93-25.85-6.3-12-16.88-20.77-25.05-31.22a174.39,174.39,0,0,1,0,29.27A239,239,0,0,1,479.3,323a4.27,4.27,0,0,1,1.37,2.28A101.76,101.76,0,0,0,493.48,354.88Z"/><path class="cls-3" d="M375.91,263.41c21.27-7.19,26.32-29.81,19.06-49.1a80.62,80.62,0,0,0-7.64-14.83c-3.24-5.08-6.12-7.26-12-8.31-5.75-1-12.15-2.16-18-1.11a21.93,21.93,0,0,0-12.6,6.77c-9.32,10.67-13,27.12-10.65,40.75C337.29,256.46,357.45,269.65,375.91,263.41Zm-14-56.4a9.38,9.38,0,0,1,1-1.25c3.31-3.46,8.57-3.93,12.78-2,8.8,4.06,11.29,18.76,3.05,24.71-8.69,6.28-19-1.73-19.87-11.1A14.84,14.84,0,0,1,361.87,207Z"/><path class="cls-3" d="M372.25,221.58c3.42-.66,2.49-6.92.62-8.69-3-2.85-3.83,1.14-5.25,3.13,0,0,0,0,0,0C367.6,219.33,369.09,222.2,372.25,221.58Z"/><path class="cls-5" d="M280.82,327.29c15.4-4.25,19.6-20.39,20.86-34.41.87-9.61,1.2-19.28,1.19-28.92,0-5.21.12-10.61-.39-15.81-.13-1.4-.21-2.68-.39-4.49-.42-3-.76-3-3-4-6.05-2.58-15,.53-21,2.13-6.59,1.73-15.65,3.48-19.69,9.49a11.86,11.86,0,0,0-1.52,3.44c-1.47,9.19-.91,17-1.23,25.94-.3,8.52-.86,17.26.14,25.76C257.36,319.51,266.3,331.29,280.82,327.29ZM264.3,293c0-1.58,0-3.16,0-4.74,4.77.39,9.49.16,14.06,2.56,5,2.65,8.29,7.82,13.34,10.19-1.71,8.7-5.51,17.06-15,18.31C263.2,321.08,264.3,301.47,264.3,293Z"/><path class="cls-5" d="M351.25,271.33c18,7.34,38.48.17,49.54-15.46,13.26-18.74,6.3-42.37-5.24-60.05-2.93-4.48-6-8.94-11.06-11.14s-11.74-2.63-17.29-3c-6.37-.39-13.8.86-19.39,4.46-12.75,6.62-20.48,21.14-22.5,36C322.48,243.05,331,263,351.25,271.33Zm-6.53-74.5a21.93,21.93,0,0,1,12.6-6.77c5.82-1.05,12.22.08,18,1.11,5.92,1.05,8.8,3.23,12,8.31A80.62,80.62,0,0,1,395,214.31c7.26,19.29,2.21,41.91-19.06,49.1-18.46,6.24-38.62-7-41.84-25.83C331.74,224,335.4,207.5,344.72,196.83Z"/><path class="cls-5" d="M378.69,228.49c8.24-6,5.75-20.65-3.05-24.71-4.21-1.95-9.47-1.48-12.78,2a9.38,9.38,0,0,0-1,1.25,14.84,14.84,0,0,0-3.05,10.38C359.65,226.76,370,234.77,378.69,228.49ZM367.62,216c1.42-2,2.22-6,5.25-3.13,1.87,1.77,2.8,8-.62,8.69-3.16.62-4.65-2.25-4.65-5.53C367.6,216,367.61,216,367.62,216Z"/><path class="cls-5" d="M411.75,277.92a3.44,3.44,0,0,0,.59.81c.14.18.29.35.45.52a4.33,4.33,0,0,0,1.82,1.17,5.77,5.77,0,0,0,3.45.34l.34-.08.06,0a5.34,5.34,0,0,0,2-1,4.94,4.94,0,0,0,1.61-2.09,5.05,5.05,0,0,0,.38-2.39l0,.21c0-.06,0-.13,0-.19a5.69,5.69,0,0,0-3.48-5.17,5.63,5.63,0,0,0-6.18,1.17,6,6,0,0,0-1.53,2.6,5.67,5.67,0,0,0,0,2.92C411.42,277.15,411.58,277.54,411.75,277.92Z"/><path class="cls-5" d="M200.91,268.51C219.68,266,231.27,251,233.68,233c1.41-10.54,1.25-22.17-5.17-31.18a25.36,25.36,0,0,0-9.44-8.12c-9.77-6-23.14-5.73-33.78-.35-17,8.62-26.95,29.25-22.4,47.89C167,258.3,183.26,270.88,200.91,268.51Zm-19.83-60.45a31.35,31.35,0,0,1,21.7-10.26,25,25,0,0,1,3.94.46c20.93,3.4,21.39,30.42,14,45.59-6.64,13.6-25,20-37.73,10.84C167.51,243.55,169,221.11,181.08,208.06Z"/><path class="cls-5" d="M215.36,227.07c5-9.9-3.54-20.91-14.27-19.74-.27,0-.53.07-.8.12a8.09,8.09,0,0,0-6.24,2.87,13,13,0,0,0-4.1,6c-1.09,3.3-1,8.27,1.58,10.89C196.35,237.1,210.47,236.76,215.36,227.07ZM201,217.76c2.72-1.93,6.86.64,6.38,3.9-.64,4.35-5.76,5.05-8.13,1.61a3.69,3.69,0,0,1-.5-1C199,220.47,199.52,218.83,201,217.76Z"/><path class="cls-5" d="M139.15,281.33a5,5,0,0,0,2.76-.37,4.82,4.82,0,0,0,2.56-2.18,6.75,6.75,0,0,0,.84-3.1,7,7,0,0,0-.26-2,5.67,5.67,0,0,0-3.94-3.93,5.82,5.82,0,0,0-4.34.57,5.76,5.76,0,0,0-2.58,3.36,5.62,5.62,0,0,0,0,3,5.36,5.36,0,0,0,1,2l0,.11.84,1.08A5.31,5.31,0,0,0,139.15,281.33Z"/><path class="cls-5" d="M108.37,264.48c-4.55,2.83-8,7.71-10.81,12.1-5.09,8-9.24,16.72-13.32,25.27Q78,314.93,72.64,328.4c-3.41,8.54-6.56,16.9-4.31,26.15a4.68,4.68,0,0,0,7.76,2.05L85,347a310.6,310.6,0,0,0-.91,38.35c.32,8.4.66,17,2.11,25.32,1.06,6.09,3.94,12.08,9.82,14.79,13.79,6.37,19.35-10.18,22.22-20.05l12-41.2a170.71,170.71,0,0,0,10.46,14.51c10.42,13,22.18,25.84,35.74,35.58,13,9.31,28.38,14.16,43.86,17.29,6.8,1.37,13.64,2.46,20.52,3.32-.12,6.2,1,12.61,1.49,18.72.56,6.45,1,13,1.94,19.38-2.66,6.54-11,9.66-16.53,13.28a152.3,152.3,0,0,0-46.3,47.36c-1.14,1.82-.16,5.11,2.22,5.44,11.54,1.61,20.67-5.31,29.28-12.15q5.9-4.68,11.42-9.79-4.31,10.86-7.74,22c-2.66,8.73-11.35,28.58.62,34.24s18.41-14.93,22-22.37c4.15-8.62,7.93-17.41,11.42-26.32,2.45,16.76,6,33.33,13.63,48.61a4.14,4.14,0,0,0,5.6,1.47c10.72-6.21,8.39-21.4,8.3-31.81q-.21-24.11-.46-48.22a41.71,41.71,0,0,0,22.79-29.73c.55-2.95-1.87-6.15-5.12-5.12a110.65,110.65,0,0,0-22.93,10,3.94,3.94,0,0,0-1.22-3.22c-.27-5-1.61-10.31-2-14.89s-.57-9-.95-13.44c0-.43-.07-.86-.11-1.27,2.34.1,4.67.17,7,.22a547,547,0,0,0,56.24-2.16,197.73,197.73,0,0,0,26.36-3.61c.26,6,1.33,12.12,2,18.11.43,3.7.82,7.41,1.23,11.11a58.45,58.45,0,0,0-21.56-10,4.24,4.24,0,0,0-4.72,1.92c-8.47,17.83,14.1,32.91,29,39.69-3.67,27-6.27,54.89-4.39,82a4.1,4.1,0,0,0,2.86,3.76c14,5.31,14.21-16,14.89-23.82,1.06-12.08,2.18-24.14,3.29-36.21A146,146,0,0,0,414,565.57a3.85,3.85,0,0,0,5.33,0c8.88-8.74,1.28-21.82-3.07-30.86q-6-12.45-12.65-24.53a224.18,224.18,0,0,0,20.11,13.45c11.65,6.84,25.78,15.74,39.8,13.75,1.79-.25,3.28-2.48,3.2-4.2-.35-7.66-5.79-12-11.51-16.36q-11.19-8.43-22.75-16.38c-15.87-10.94-32.21-21.19-48.88-30.88.26-7.83-.34-15.82-.45-23.58-.11-7.4.6-15.52-.67-23a378.17,378.17,0,0,0,42.32-24.21c13.15-8.67,25.15-18.84,34.49-31.61a119.76,119.76,0,0,0,15.54-29.57,107.21,107.21,0,0,0,14.49,27.52c5.88,8,16.57,22.56,27.94,14.62,9.77-6.82,7.73-22.84,6.89-32.9a186.08,186.08,0,0,0-3.77-24.6c2.34,1.78,5.15,2.75,8.12,1.43,5.12-2.26,4.31-7.78,3.06-12.19-1.71-6-3.57-12.05-5.72-17.94-4.11-11.28-9.51-21.71-17.33-30.88-8-9.35-17.07-17.72-24.67-27.41a3.31,3.31,0,0,0-.81-.75,102.2,102.2,0,0,0-4.22-13.21,214.12,214.12,0,0,0-25.52-46.76c-15.3-21-37-39.3-62.13-45.8a3.44,3.44,0,0,0,0-.45c-1.67-7.67,2.55-15.13,1.85-22.86-.45-5.08-2.47-10.48-6.75-13.56-7.79-5.62-17.68-.7-25.09,5.57C360,83.9,356.81,65.74,343,72.77,335.72,76.43,331,85.45,326.9,92c-2.62,4.2-5,8.49-7.3,12.88a365.06,365.06,0,0,0-13-47.95c-3.4-9.84-7.4-19.5-11.76-28.95-3.37-7.32-8.94-12.82-17.31-8.55-7.31,3.73-12.59,12.34-16.82,19.1A117.07,117.07,0,0,0,249.22,62.9a119.66,119.66,0,0,0-6.34,41.24A159.9,159.9,0,0,0,225.7,85.77c-6.47-5.87-17-12.92-25.3-5.79-7.92,6.82-2.58,20,.38,27.94a90.78,90.78,0,0,0,15.29,26.67c-21.89,3.2-43,14.93-59.15,29.27-23.1,20.47-38.14,49.1-45,79A184.74,184.74,0,0,0,108.37,264.48Zm377.5,16.3a174.39,174.39,0,0,0,0-29.27c8.17,10.45,18.75,19.25,25.05,31.22,4.31,8.2,7.25,17,9.93,25.85L513,298.52c-2.83-3.65-9.2.32-7.72,4.5a175.14,175.14,0,0,1,8.26,33.32,169.45,169.45,0,0,1,1.59,18c.19,4.75.72,10.16-1.23,14.65-4.63,10.69-17.59-9.7-20.42-14.11a101.76,101.76,0,0,1-12.81-29.61A4.27,4.27,0,0,0,479.3,323,239,239,0,0,0,485.87,280.78ZM271.79,480.25a81.41,81.41,0,0,1,18.39-10,33,33,0,0,1-17.8,17.91,4.34,4.34,0,0,0-3.05,4q.26,20.79.56,41.57c.09,6.55.21,13.09.28,19.63,0,3.31.24,7.44-1.14,10.61-7.32-18-9.95-37.28-12.32-56.5-.57-4.56-6.58-5.79-8.2-1.11-3.61,10.42-7.57,20.71-12,30.8q-3.44,7.81-7.15,15.51c-1.23,2.56-2.49,5.12-3.79,7.65q-.84,1.71-1.77,3.36c-.66,2.31-1.71,2.54-3.13.7-3.27-1.82-1.15-5.6-.38-8.56.73-2.78,1.51-5.55,2.3-8.31q2.23-7.77,4.9-15.41a300.64,300.64,0,0,1,13.23-31.83c1.91-4-3.17-8.74-6.48-5A226.41,226.41,0,0,1,213.37,516c-5.59,4.84-13.47,13-21.57,15.39A146,146,0,0,1,220,501.25c6.11-4.89,12.66-8.87,19.26-13,4.71-3,8.85-6.34,11.22-11.24a3.93,3.93,0,0,0,2.3-3.62c-.08-7.31-1-14.68-1.74-22-.47-5.09-.61-10.43-1.43-15.57,3.5.34,7,.6,10.53.82-.81,5.36.49,12.11.81,16.26.47,6.05.06,14.28,2.83,20.14a11.19,11.19,0,0,0,2.27,5.68C267.3,480.42,269.76,481.68,271.79,480.25ZM421,503q9.85,6.6,19.47,13.55,5.25,3.78,10.42,7.67a32.26,32.26,0,0,1,5.22,4.38c-10.81-1.57-21.63-9-30.55-14.2a223.8,223.8,0,0,1-32.72-22.82c-3.28-2.8-8.6.72-6.21,4.79q9.41,16,18,32.51c2.69,5.17,5.33,10.37,7.84,15.63,1.6,3.36,4.15,8.28,3.38,12.29-15.1-15.29-27.18-33.61-34.26-54a3.43,3.43,0,0,0-6.71.91q-1.63,17.44-3.28,34.87-.78,8.43-1.61,16.87c-.16,1.61-.52,12-2.73,15,.84-26.66,1.46-53,5.15-79.54a4.42,4.42,0,0,0-3-5.21,66.79,66.79,0,0,1-18.35-11c-3.89-3.32-10-8.92-9.81-14.68,8.13,2.73,14.89,7.36,21.74,12.47a3.51,3.51,0,0,0,1.38,1l2,1.51c2.13,1.61,4.68-1,4.17-3.2a3.69,3.69,0,0,0,.58-2.34c-.53-7.36-1.52-14.69-2.46-22-.78-6-1.29-12.11-2.75-18,2.76-.81,5.49-1.74,8.21-2.8-.77,6.76-.29,13.93-.33,20.42-.07,9.57-.5,19.49.91,29,.52,3.51,4,3.79,6.4,2.22Q401.44,489.94,421,503ZM117.76,267.92c.06-.7.15-1.39.22-2.08a2.84,2.84,0,0,0,.06-.5c3.22-31.49,15.46-62.81,37.16-86.14a124.2,124.2,0,0,1,37.74-27.59c14.3-6.77,30.1-9.87,45.66-12.15,2.45-.36,2.44-4.56,0-4.93a73.85,73.85,0,0,0-14.77-.7,125,125,0,0,1-13.64-21.58,87.28,87.28,0,0,1-5-12.49c-1.09-3.54-3.48-9.67-1.41-13.29,7.34-12.81,36.61,27.84,40.6,33.37,2.77,3.84,8.14,1.46,7.43-3.14a105.6,105.6,0,0,1,3.66-46.32c4.26-14.11,11.67-30.09,22.43-40.51,1.48-1.44,4.28-4.24,6.71-2.75,1.05.64,2.71,5.5,3,6.25q2.47,5.94,4.73,12c3,8,5.83,16.17,8.38,24.36A373.08,373.08,0,0,1,312.88,122c.85,5.34,7.76,3.78,9.34,0A180,180,0,0,1,341,88.05c1.38-2,3.14-5.24,5.41-6.33,3.2-1.53,3.08,2.1,3.48,4.66,1.13,7.27,1.86,14.6,2.45,21.93.29,3.58,5.25,6.82,8,3.33,3.75-4.71,18.69-19.7,22.55-8.59,1.56,4.47.12,9-.7,13.47a40.81,40.81,0,0,0-.78,10.33,77.13,77.13,0,0,0-16-.39c-5.49.45-5.67,8.73,0,8.69,30.24-.2,56.64,16.28,75.22,39.28,19.34,23.94,35.09,55.32,35.66,86.48.52,28.43-3.51,59.4-16.17,85.13-13.51,27.48-37.94,43.72-64.07,58-14.11,7.71-28,15.33-44,18.2-17,3.06-34.82,3.59-52.06,4.22-32,1.15-65.75.66-96.38-9.6-15.41-5.17-27.59-14.52-38.88-26-10.9-11.11-21.25-22.94-29.2-36.38C120.11,328.5,115.18,297.67,117.76,267.92ZM123.7,353,113,390c-1.85,6.36-3.58,12.77-5.56,19.08-1.7,5.4-6.69,12.75-10.81,4.06-2.6-5.48-2.27-12.8-2.68-18.75q-.7-10.12-.73-20.28a318.48,318.48,0,0,1,2.53-40.48c.51-4.07-5.39-6.06-7.94-3.29l-10,10.87c1.2-4.61,3.32-9.13,5-13.29Q87.45,316,93,304.48c3.26-6.86,6.63-13.72,10.34-20.36a46.27,46.27,0,0,1,4.16-6.18,158.92,158.92,0,0,0,9,58.71A132.79,132.79,0,0,0,123.7,353Z"/><path class="cls-5" d="M438.63,199.33a74.84,74.84,0,0,1,5.22,17.86c1,6.24.36,12.66,1.46,18.84.21,1.14,1.71.86,2.05,0,4.45-11.35-.29-27.35-4.9-37.94A65.73,65.73,0,0,0,417,168.23c-.53-.33-1.15.45-.67.87A86,86,0,0,1,438.63,199.33Z"/><path class="cls-5" d="M447.11,256.08a133.23,133.23,0,0,1-.32,23.12c-.13,1.21,1.63,1.27,2,.27a35.14,35.14,0,0,0,.23-23.64C448.67,254.87,447,254.92,447.11,256.08Z"/><path class="cls-5" d="M153.48,356c6.1,11.36,16.38,24.3,29.09,28.4a1.16,1.16,0,0,0,1.13-1.93c-4.69-4.09-9.94-7.42-14.39-11.82a72,72,0,0,1-12.08-15.85c-6.91-12.21-8.49-24.79-10.12-38.42-.07-.61-1-.85-1.13-.16C142.73,329.3,147.25,344.36,153.48,356Z"/><path class="cls-5" d="M207.14,396.8c-2.47-1.26-5.31-1.73-7.84-3a40.4,40.4,0,0,1-7-4.59c-.75-.58-1.84.55-1.3,1.3,3.17,4.38,9.74,9.29,15.48,8.7C207.65,399.13,208.41,397.45,207.14,396.8Z"/><path class="cls-5" d="M289.47,82.12c.46,1.19,2.53,1.16,2.42-.33C291,70,286.17,58.61,281.43,47.94c-.54-1.2-2.58-.35-2.14.9C283.16,59.77,285.37,71.3,289.47,82.12Z"/><path class="cls-5" d="M294.76,103.55c.21,2.31.08,4.68,1,6.85a1.15,1.15,0,0,0,2.2,0c1.93-4.94-.86-11-2.58-15.59a.84.84,0,0,0-1.61.44A60.71,60.71,0,0,1,294.76,103.55Z"/><path class="cls-5" d="M344.29,113c1.69-3.14,1.33-7.42.4-10.73-.32-1.15-1.8-.78-1.94.26-.41,3.25-1.15,6.94-.68,10.18A1.22,1.22,0,0,0,344.29,113Z"/></svg>