<svg id="Layer_1" data-name="Layer 1" xmlns="http://www.w3.org/2000/svg" viewBox="0 0 600 600"><defs><style>.cls-1{fill:#88e0ff;}.cls-2{fill:#2b3990;}.cls-3{fill:#27aae1;}.cls-4{fill:#fff;}.cls-5{fill:#231f20;}</style></defs><title>doodle</title><path class="cls-1" d="M338.09,87.2c3.29-3.09,2.5-7.11.79-10.7-3,3-5.92,5.86-8.65,8.76-.79.84-1.56,1.7-2.34,2.55C331.07,89.5,335.77,89.39,338.09,87.2Z"/><path class="cls-2" d="M194.53,385.86c14.95,5.21,27.28,15.71,38,27a268.41,268.41,0,0,1,43.15,60.6c9.94-7.88,12.5-21.21,14-33.75,1-8,1.94-16.11,5-23.66a76.41,76.41,0,0,1,10.61-17.83c8.13-10.6,17.47-20.35,23.55-32.38A81.35,81.35,0,0,0,337,323.24c-2.11-29.64-14.46-58.19-4.43-87.76,4.37-12.89,11.58-24.53,19.87-35.25,8.81-11.37,20.56-21.38,24.58-35.65,4.07-14.46,3.39-30.87,2.47-45.72-.83-13.42-3.46-26.56-5.16-39.85-1.79-8.58-1.19-18.23-1.23-26.3q0-8.48-.12-17c-6.5,13.2-17.57,24.53-28.44,35.18,4.91,8.25,4.49,20.4-5.72,24.34a15.27,15.27,0,0,1-14.77-2.15l-.51-.45a210.77,210.77,0,0,0-38.24,64.53c6.81.38,13,10.72,15.54,16.15a33.14,33.14,0,0,1,2.67,22.39c-3.62,14.18-18.94,25-33.29,19.49-2.41,11.61-4.81,23.24-7.74,34.72a220.34,220.34,0,0,1-17.1,46.36c2.5,3.14,3.65,7.71,4.74,11.38a60,60,0,0,1,2.57,16.3,40.58,40.58,0,0,1-9.53,27.39,37.81,37.81,0,0,1-24.62,12.86c-6.6.62-18.16-.45-23.53-6l-3.59,3.32c-7.46,6.84-14.85,14.44-22.71,21.27A58.61,58.61,0,0,1,194.53,385.86Zm94,15.05c-2.43,4.43-5.9,8.1-7.08,13.17-1.25,5.29-.45,10.7-.06,16,.43,6.1.71,14.63-4.82,18.67-.24.18-.61-.12-.51-.4,1.57-4.58,3-8.55,3-13.5,0-4.67-.87-9.29-.93-13.95a29.38,29.38,0,0,1,8.75-21.3A1.06,1.06,0,0,1,288.49,400.91Zm7.18-11.27a12.82,12.82,0,0,1-3.34,2.41.65.65,0,0,1-.65-1.12,12.13,12.13,0,0,0,2.74-2.66c.63-.84,1.08-2.17,2-2.7a.8.8,0,0,1,1.19.68C297.74,387.41,296.42,388.85,295.67,389.64ZM311.18,368c-.31.32-.91-.11-.63-.49a67.15,67.15,0,0,0,10.67-21.09c2.22-7.8,2.14-15.49,2.42-23.5a.74.74,0,0,1,1.44-.2C329.5,338.11,322.14,357.06,311.18,368ZM364.27,92.66c5.21,12.51,7.93,27.31,8.33,40.84.3,10.55-.42,25.4-7.72,33.78-.26.3-.67,0-.61-.36,1.13-5.89,3.65-11.4,4.59-17.39a83.09,83.09,0,0,0,.77-17.76c-.79-13.28-5.17-25.58-7.23-38.59A1,1,0,0,1,364.27,92.66Zm-6.94,82.89c.19,4.49-3.74,8.07-7.09,10.4-.59.41-1.26-.51-.75-1,3-2.85,4.28-6.73,6.84-9.82C356.68,174.72,357.31,175.09,357.33,175.55Zm-29-37.19c1.25-8.55,14.74-11,20.46-5.41,6.24,6.14,7,19.71-.08,25.46s-18,1-20.72-7.13A19.58,19.58,0,0,1,328.33,138.36Zm-1.18,70.84a31.54,31.54,0,0,1,7.28-6.14A34.41,34.41,0,0,0,343,195a1,1,0,0,1,1.78.75c-.9,5.66-7.58,8.43-11.71,11.42-7.51,5.43-10.73,15.33-13.68,23.74a.37.37,0,0,1-.71-.2C319.87,223.37,322.45,215.09,327.15,209.2Zm-37,44.74a1.08,1.08,0,0,1,.89.06c8.64-3.44,20.13-.26,25,8.45,6.86,12.38,6.9,32.44-6.06,41-13.49,8.87-30.24-1-34.59-15C271.45,275.91,276.83,258.46,290.1,253.94Zm-4.28,84.44.06,0c13.3,2.91,9.7,33.82-7.1,29C261.38,362.46,268.09,332.38,285.82,338.38Z"/><path class="cls-1" d="M217,356.73a30.92,30.92,0,0,0,20.56-11c5.67-6.82,7.62-15.64,7-24.34A58.1,58.1,0,0,0,242.19,309c-.39-1.31-.95-2.66-1.51-4a170.51,170.51,0,0,1-16.78,23.88,301.47,301.47,0,0,1-24,24.9,55.21,55.21,0,0,0,5.72,2.08A32.61,32.61,0,0,0,217,356.73Z"/><path class="cls-1" d="M296.37,192.32c1.18-6.15-.55-12.48-3.59-17.84a39.42,39.42,0,0,0-6-8,25.54,25.54,0,0,1-3.37-3.7c-5,15-8.5,30.44-11.75,45.91,5.49-.38,11,.76,16-2.58C292.31,203.06,295.33,197.74,296.37,192.32Z"/><path class="cls-1" d="M284.24,359.1c2.83-2.21,2.91-7.4,2-10.46-.69-2.29-2.07-4.25-3.13-6.37-4,1.09-7.23,5.53-7.52,9.54S279.4,362.89,284.24,359.1Z"/><path class="cls-1" d="M304.79,297.55c10-5.45,9.16-21,5.16-29.92-2.56-5.71-7-8-13.15-7.65a34,34,0,0,0-9.91,1.71c-4.3,6.21-7.07,13.12-5.53,21.16C283.32,293.05,294,303.39,304.79,297.55Z"/><path class="cls-1" d="M344.9,151.86c2.52-3.23,2-11-1.23-13.79-3.61-3.1-6.95.51-10.27,2.62a16.29,16.29,0,0,0,.49,7.64C335.45,152.47,341.43,156.3,344.9,151.86Z"/><path class="cls-1" d="M412.48,99.73A87.61,87.61,0,0,0,410,131.28c.87,8.3,4.91,36.24,19.27,26.2,11-7.71,6.51-28.36,4.16-39.22-2.19-10.1-7.6-27.38-20.74-18.63C412.6,99.67,412.54,99.69,412.48,99.73Zm8.33,5.87a36.5,36.5,0,0,1,11.41,22.53c1,7.84.72,18.16-5.56,23.85a2.25,2.25,0,0,1-3.8-1.57c-.06-7.13,2.46-13.79,1.82-21a51.82,51.82,0,0,0-7-21.38C416.49,106,419.21,104.06,420.81,105.6Z"/><path class="cls-1" d="M455,237.49c-.15-6.63-.38-14.24-4.33-19.88-3.53-5-8.23-5.4-13.4-4.59a62.64,62.64,0,0,0-9.79,31.76,52.75,52.75,0,0,0,2.81,18.14c1.48,4.33,6,16.15,12.46,13,5.92-2.89,9.05-12.46,10.48-18.32A77.37,77.37,0,0,0,455,237.49Zm-8.66,20c-1.74,2.32-5.37,1.62-5.54-1.5-.29-5.47,1.93-10.85,1.89-16.39a40.85,40.85,0,0,0-3.28-15.08c-.83-2,2.05-3.23,3.4-2A23,23,0,0,1,450.06,238C450.67,244.17,450.18,252.38,446.33,257.53Z"/><path class="cls-1" d="M414.9,403.77a1.94,1.94,0,0,1-2.33-.85c-.13,0-.25-.07-.39-.09a1.59,1.59,0,0,1-.33-.09,76.88,76.88,0,0,0-11.64,7.39,54,54,0,0,0-12.59,13.06,50.66,50.66,0,0,0-7,15.31c-1.5,5.66-3.34,14.67.94,19.51,7.9,8.94,25.32-15.1,28.79-21.09S423.86,408.9,414.9,403.77Zm2.39,7.26c2.3,8.18-3.6,17-8.63,23.08-5.74,6.9-13.27,12.27-22.14,14.14a1.91,1.91,0,0,1-1.46-3.47c6.65-4.46,13.16-9.44,18.05-15.86,4.45-5.82,6.39-13.3,11.31-18.65A1.73,1.73,0,0,1,417.29,411Z"/><path class="cls-3" d="M269.51,482.06a258,258,0,0,0-46.42-65.56c-9.47-9.64-20.19-18.81-33.22-23.14-11.33-3.78-32.49-5.43-38,8.41-5.37,13.41-1.84,30.47,2.68,43.58,4.73,13.75,13.05,25.49,19.2,38.46,2.16-1.75,4.32-3.5,6.5-5.22,4.28-3.38,8.56-7,13-10.22-5.95-6.07-10-14.23-13.19-21.91s-9.92-22.12-3.77-29.67c4.4-5.41,12.57-4.77,18.31-2.07,9,4.26,15.61,12.62,21.79,20.17,13,15.88,25,32.73,33.71,51.41a147.69,147.69,0,0,1,10.14,28.87c1.7,7.35,3.12,17.46-7.23,18.41-8.83.82-16.34-8.9-21.51-14.75a107.32,107.32,0,0,1-15.81-22.6l-6.57,6.6q-5.57,5.6-11.08,11.22c12.65,11.47,24.94,24.28,39.21,33.68,12.09,8,29.26,14.51,43.09,6.89,13.65-7.5,8.08-23.15,4.35-35A255.37,255.37,0,0,0,269.51,482.06Z"/><path class="cls-1" d="M221.62,490.27c4.52,7.41,9,14.7,14.68,21.32a118,118,0,0,0,8.89,9.28c1.4,1.31,3.07,3.17,4.9,3.88,3.16,1.23,3.29-.45,2.89-3.19-4.47-30.33-23.94-58.48-42.66-81.83-4.84-6-9.77-12.43-16.31-16.74-2.57-1.69-5.81-3.28-9-2.8-4.55.69-3.66,5-2.85,8.57A96,96,0,0,0,190,450.35c2.5,5,5.67,9.65,8.37,14.53l1.52-.95c5.24-3.14,10.88-4.95,16.49-2.76a2.66,2.66,0,0,1,1.77.48c6.5,4.47,13.86,11.16,10.58,20C227.41,485.06,224.28,487.72,221.62,490.27Z"/><path class="cls-3" d="M438.82,292c-1-2.8-2.72-5.74-3.17-8.69a16.71,16.71,0,0,1-5.42-3.88c-8.9-9.45-11.51-25.07-10.49-37.56a53.18,53.18,0,0,1,10.74-28.59c-3.31-2.71-4.8-13.31-5.17-15.34a148,148,0,0,1-2-16.13c-.3-4.33-.82-9.29-.06-13.72a17.3,17.3,0,0,1-4.82-1c-13.58-4.89-15.8-22.59-16.86-34.93-1.08-12.5-.18-25.92,6.08-36.92.05-.14.09-.29.15-.42A9,9,0,0,1,409.76,92c.3-.42.58-.85.9-1.26a2.54,2.54,0,0,1,2.43-.9l.19-.07c-2.59-7.33-4.57-14.33-8.84-21-4-6.26-9.23-11.27-14.37-16.57a49.37,49.37,0,0,1-10.46-15.76q.25,7.2.53,14.38c.25,6.36.37,12.73.89,19.07.31,3.94,1,7.89,1.33,11.85,4.19,13.78,5.55,28.64,6.17,42.82.72,16.32,1.11,34.66-5.72,49.86-6,13.42-17.94,23.42-26.47,35.2s-15.65,24.94-18.2,39.41c-5.49,31.24,11.35,61.65,7,93.09a86.76,86.76,0,0,1-15.85,39.28c-8,10.89-18.19,20.23-24.73,32.17-7.65,13.95-5.75,30-10.41,44.79-2.64,8.4-7.55,17.07-15.33,21.27q3.11,6.36,5.88,12.86c5.91,13.93,12.51,29.46,13.88,44.66a25.54,25.54,0,0,1-5.35,18.41c1.45-.53,2.87-1.09,4.23-1.73a96.46,96.46,0,0,0,14.86-8.54,88.65,88.65,0,0,0,24.4-26.37c6.13-10,10.88-20.81,16.34-31.2a141.92,141.92,0,0,1,9.1-15.29c3.05-4.36,6.48-9.59,11.14-12.32a4.5,4.5,0,0,1,.63-.3,21.22,21.22,0,0,1-2.08-7.18c-1.4-12.55,4-25.93,11.52-35.75a56.92,56.92,0,0,1,14-13.11c4.59-3,9.11-4.34,14.11-5.46a2.17,2.17,0,0,1,.77-.35,11.72,11.72,0,0,1,2-.27c1.86-3.28,4.44-6.26,6.5-9.33a162.11,162.11,0,0,0,8.68-14.51,125,125,0,0,0,11.75-31.41A99,99,0,0,0,442.78,309,85.62,85.62,0,0,0,438.82,292ZM318,528.19a.62.62,0,0,1-.87-.87,100.74,100.74,0,0,0,11.7-17.64c3.23-6.4,4.65-13.18,7.19-19.8.34-.91,1.81-.84,1.78.24C337.44,504,327.93,519.05,318,528.19ZM351.57,474c-1.06,1.45-2,3-3,4.5-.38.61-1.45.22-1.2-.5a24.48,24.48,0,0,1,2.47-5c.8-1.23,1.78-3.1,3.3-3.47.37-.09.86.18.81.61C353.81,471.68,352.43,472.84,351.57,474ZM403.1,369.7c-1.59,15.77-9.3,32.11-21.84,42.1-12.85,10.23-31.71,9-38.73-7.23-6.65-15.39.9-34.78,9.37-48,5.88-9.17,16.9-23.34,29.14-25a2.82,2.82,0,0,1,.95-.34c8.52-1.48,14.21,6.81,17.28,13.66A48.58,48.58,0,0,1,403.1,369.7Zm-.67-93.87c-4.34,6.4-10.34,13.53-18.46,14.65s-15.21-4.28-19.81-10.43c-9.77-13.05-9.15-31.31-5.51-46.42,2.92-12.14,11.41-32.9,26.19-32.79,6.79-2.1,14-2.89,19.43,2.76,5.81,6.06,7.54,15.48,8.61,23.48C415.1,243.76,412,261.77,402.43,275.83Zm24.62,79.32a1,1,0,0,1-1.74-.73c2.57-9.42,6.95-18.09,7.85-27.95.87-9.6-1.79-18-4.71-26.92-.19-.59.6-.81.91-.39C441.24,315.09,436.06,339.19,427.05,355.15Z"/><path class="cls-4" d="M212.47,489.68c2.93-2.94,9.36-7.33,9.81-11.76.4-3.91-3.06-7.18-6.1-9.67a4,4,0,0,1-.56-.12c-5.23-1.67-10.46.78-15.17,4a1.8,1.8,0,0,1-.91.63c-2.73,2-5.27,4.12-7.53,5.81q-10.84,8.11-21.31,16.76c-3.36,2.78-6.7,5.58-10,8.45-2.75,2.39-5.45,5.74-8.91,7.09C145,513.56,137.93,507,131.7,505c-13.19-4.1-34.43.33-34.2,17.77.25,20.33,27.07,16.48,39.4,10.6,2.93-1.39,7.52,1.81,5,5.05-5.35,7-11.35,14.56-13,23.47-1.37,7.44.66,16.32,8.14,19.71,18,8.14,29.77-13.49,32.27-27.76a131.83,131.83,0,0,0,1.46-14.17c.23-3.47.08-7.14,2-10.18s5.26-5.66,7.88-8.28c3.67-3.67,7.38-7.3,11.07-10.95C198.74,503.47,205.6,496.57,212.47,489.68Z"/><path class="cls-1" d="M382,337.36l-.28-.12c-6,2.4-11.24,8.2-15.26,12.7a74.84,74.84,0,0,0-12.28,18.86c-3.36,7.39-6.12,15.93-5.89,24.1.23,8.37,4.87,17.11,14.12,17.55,16.13.78,27.34-19.56,30.92-32.83C396.58,365.6,396.81,342,382,337.36Zm10.89,21.5c1,4.88-.92,10.09-2.48,14.7a52.85,52.85,0,0,1-6.5,13.52c-5.07,7.25-13.44,14.9-22.53,15.7-2.42.21-2.38-3.12-.52-3.87,3.82-1.56,7.07-5.6,10-8.41a41.87,41.87,0,0,0,8.08-10.13,62.63,62.63,0,0,0,4.81-12.11c1.13-3.78,1.83-7.56,4.36-10.67C389.43,355.94,392.47,356.86,392.88,358.86Z"/><path class="cls-1" d="M400.14,211c-5-8-12.47-.83-19.29-3.14-5.25,4-8.8,11-11.05,16.56a77.06,77.06,0,0,0-5.38,25c-.33,7.61.52,15.63,4.17,22.44,2,3.67,4.81,7.25,8.53,9.27,4.8,2.61,8.9.87,12.57-2.63,12-11.45,16.35-29.14,15.54-45.21C404.88,226,404.06,217.2,400.14,211Zm-.42,32.55c-1.52,10-6.29,23.37-15.05,29.29-2,1.38-4.23-.91-3.84-3,.89-4.68,3.57-8.64,5.69-12.83a58,58,0,0,0,5.07-13.91c2.19-10.19-.82-19.28-3.72-28.95-.66-2.2,2.24-3,3.42-1.44C398.3,222,401.51,231.77,399.72,243.51Z"/><path class="cls-5" d="M424.68,129.39c.64,7.23-1.88,13.89-1.82,21a2.25,2.25,0,0,0,3.8,1.57c6.28-5.69,6.55-16,5.56-23.85a36.5,36.5,0,0,0-11.41-22.53c-1.6-1.54-4.32.43-3.13,2.41A51.82,51.82,0,0,1,424.68,129.39Z"/><path class="cls-5" d="M404.27,203.6c-5.4-5.65-12.64-4.86-19.43-2.76-14.78-.11-23.27,20.65-26.19,32.79-3.64,15.11-4.26,33.37,5.51,46.42,4.6,6.15,11.72,11.55,19.81,10.43s14.12-8.25,18.46-14.65c9.56-14.06,12.67-32.07,10.45-48.75C411.81,219.08,410.08,209.66,404.27,203.6Zm-14.58,74.83c-3.67,3.5-7.77,5.24-12.57,2.63-3.72-2-6.56-5.6-8.53-9.27-3.65-6.81-4.5-14.83-4.17-22.44a77.06,77.06,0,0,1,5.38-25c2.25-5.61,5.8-12.54,11.05-16.56,6.82,2.31,14.26-4.89,19.29,3.14,3.92,6.24,4.74,15.08,5.09,22.26C406,249.29,401.67,267,389.69,278.43Z"/><path class="cls-5" d="M387.87,214.15c2.9,9.67,5.91,18.76,3.72,28.95A58,58,0,0,1,386.52,257c-2.12,4.19-4.8,8.15-5.69,12.83-.39,2.05,1.8,4.34,3.84,3,8.76-5.92,13.53-19.26,15.05-29.29,1.79-11.74-1.42-21.47-8.43-30.8C390.11,211.13,387.21,212,387.87,214.15Z"/><path class="cls-5" d="M442.8,222.58c-1.35-1.25-4.23,0-3.4,2a40.85,40.85,0,0,1,3.28,15.08c0,5.54-2.18,10.92-1.89,16.39.17,3.12,3.8,3.82,5.54,1.5,3.85-5.15,4.34-13.36,3.73-19.56A23,23,0,0,0,442.8,222.58Z"/><path class="cls-5" d="M382,331.22a2.82,2.82,0,0,0-.95.34c-12.24,1.67-23.26,15.84-29.14,25-8.47,13.22-16,32.61-9.37,48,7,16.24,25.88,17.46,38.73,7.23,12.54-10,20.25-26.33,21.84-42.1a48.58,48.58,0,0,0-3.83-24.82C396.2,338,390.51,329.74,382,331.22Zm11.33,46.4c-3.58,13.27-14.79,33.61-30.92,32.83-9.25-.44-13.89-9.18-14.12-17.55-.23-8.17,2.53-16.71,5.89-24.1a74.84,74.84,0,0,1,12.28-18.86c4-4.5,9.23-10.3,15.26-12.7l.28.12C396.81,342,396.58,365.6,393.32,377.62Z"/><path class="cls-5" d="M378.91,380.37a41.87,41.87,0,0,1-8.08,10.13c-2.91,2.81-6.16,6.85-10,8.41-1.86.75-1.9,4.08.52,3.87,9.09-.8,17.46-8.45,22.53-15.7a52.85,52.85,0,0,0,6.5-13.52c1.56-4.61,3.49-9.82,2.48-14.7-.41-2-3.45-2.92-4.8-1.27-2.53,3.11-3.23,6.89-4.36,10.67A62.63,62.63,0,0,1,378.91,380.37Z"/><path class="cls-5" d="M458.89,266.34c5-12.94,5.77-29.75,2.57-43.24-1.74-7.31-5.87-14-13-17-4.66-2-11.29-2.5-15.05,1.13-.21-2-.25-4-.49-5.41-.76-4.4-1.35-8.84-1.74-13.28-.62-7,.38-14.69-.86-21.6,7.55-3.16,12.82-11.84,13.92-20.13,1-7.43.09-15.06-1-22.42s-2.73-15.31-5.91-22.24c-2.73-5.94-7.3-11.22-13.84-12.88a17.88,17.88,0,0,0-2.36-.42c-1.48-13.59-10-27-19.47-36.42-5.26-5.25-11-10.05-14.84-16.52-3.6-6.12-6-13.32-8.14-20.17.06-.91.11-1.82.13-2.74.07-3.84-6-4.83-6.83-.93-5.49,27-26.38,44.51-44.76,63.3a225,225,0,0,0-47.82,72.05C257.17,202,260.72,265.14,224.76,314.19c-10.23,13.94-22.57,26.34-35,38.35-6.46,6.25-13,12.43-19.51,18.63-5.63,5.37-11.47,10.68-16.44,16.69a29.41,29.41,0,0,0-2.73,1.88c-6.37,5-8.26,12.79-9.12,20.48a80.78,80.78,0,0,0,2.53,29.27,131.21,131.21,0,0,0,24.38,48.28q-4.82,4-9.54,8.1c-3,2.58-7.4,8.18-11.67,8.18-1.86,0-4.33-2.12-6-2.95a59.6,59.6,0,0,0-5.57-2.41c-12.93-4.84-28.38-3.81-38.56,6.29-8.63,8.56-10.41,22.78-2.54,32.51s21.9,9.72,34,6.56c-6.34,10-10.68,21.33-5.82,33,5.51,13.28,21.66,16.6,33.71,10.28,14.4-7.55,19.18-24.64,20.66-39.61.4-4-.21-9.23,1-13.09,1.25-4.06,7.22-8.1,10.13-11l3.78-3.86c21.77,20.8,49.21,53.16,82.85,46.37a33.47,33.47,0,0,0,6.24-1.9c10.58,1.31,23.27-5.48,31.94-10.8A93.16,93.16,0,0,0,340,528.91c7.41-10.15,12.59-21.61,18.23-32.77,2.68-5.32,5.47-10.6,8.65-15.64,3.42-5.39,8.34-9.85,11.55-15.28a12.63,12.63,0,0,0,3.08,1.66c6.6,2.49,12.34-1.55,17.38-5.47a73.76,73.76,0,0,0,23.45-31.8c2.52-6.53,4.93-14.57,3.59-21.62a13.22,13.22,0,0,0-5.56-8.76c2.13-2.44,3.94-5.26,5.72-7.75A162.64,162.64,0,0,0,436,375.75a126.93,126.93,0,0,0,12.89-32.94,99.71,99.71,0,0,0,1.73-35.53,82.22,82.22,0,0,0-4.17-17.37c-.62-1.72-1.3-3.91-2.23-5.93a12.28,12.28,0,0,0,2.62-1.1C452.74,279.56,456.52,272.41,458.89,266.34Zm-25.5-148.08c2.35,10.86,6.86,31.51-4.16,39.22-14.36,10-18.4-17.9-19.27-26.2a87.61,87.61,0,0,1,2.52-31.55c.06,0,.12-.06.17-.1C425.79,90.88,431.2,108.16,433.39,118.26Zm-103.16-33c2.73-2.9,5.65-5.81,8.65-8.76,1.71,3.59,2.5,7.61-.79,10.7-2.32,2.19-7,2.3-10.2.61C328.67,87,329.44,86.1,330.23,85.26Zm-46.85,77.55a25.54,25.54,0,0,0,3.37,3.7,39.42,39.42,0,0,1,6,8c3,5.36,4.77,11.69,3.59,17.84-1,5.42-4.06,10.74-8.72,13.82-5.06,3.34-10.53,2.2-16,2.58C274.88,193.25,278.37,177.83,283.38,162.81Zm-59.48,166A170.51,170.51,0,0,0,240.68,305c.56,1.37,1.12,2.72,1.51,4a58.1,58.1,0,0,1,2.42,12.45c.6,8.7-1.35,17.52-7,24.34a30.92,30.92,0,0,1-20.56,11,32.61,32.61,0,0,1-11.39-.92,55.21,55.21,0,0,1-5.72-2.08A301.47,301.47,0,0,0,223.9,328.83ZM191.46,361.6l3.59-3.32c5.37,5.5,16.93,6.57,23.53,6a37.81,37.81,0,0,0,24.62-12.86A40.58,40.58,0,0,0,252.73,324a60,60,0,0,0-2.57-16.3c-1.09-3.67-2.24-8.24-4.74-11.38a220.34,220.34,0,0,0,17.1-46.36c2.93-11.48,5.33-23.11,7.74-34.72,14.35,5.46,29.67-5.31,33.29-19.49a33.14,33.14,0,0,0-2.67-22.39c-2.59-5.43-8.73-15.77-15.54-16.15a210.77,210.77,0,0,1,38.24-64.53l.51.45a15.27,15.27,0,0,0,14.77,2.15c10.21-3.94,10.63-16.09,5.72-24.34,10.87-10.65,21.94-22,28.44-35.18q.08,8.49.12,17c0,8.07-.56,17.72,1.23,26.3,1.7,13.29,4.33,26.43,5.16,39.85.92,14.85,1.6,31.26-2.47,45.72-4,14.27-15.77,24.28-24.58,35.65-8.29,10.72-15.5,22.36-19.87,35.25-10,29.57,2.32,58.12,4.43,87.76a81.35,81.35,0,0,1-8.15,42.64c-6.08,12-15.42,21.78-23.55,32.38a76.41,76.41,0,0,0-10.61,17.83c-3.05,7.55-4,15.64-5,23.66-1.54,12.54-4.1,25.87-14,33.75a268.41,268.41,0,0,0-43.15-60.6c-10.74-11.33-23.07-21.83-38-27a58.61,58.61,0,0,0-25.78-3C176.61,376,184,368.44,191.46,361.6Zm.36,148.7c-3.69,3.65-7.4,7.28-11.07,10.95-2.62,2.62-5.86,5.15-7.88,8.28s-1.8,6.71-2,10.18a131.83,131.83,0,0,1-1.46,14.17c-2.5,14.27-14.24,35.9-32.27,27.76-7.48-3.39-9.51-12.27-8.14-19.71,1.63-8.91,7.63-16.45,13-23.47,2.47-3.24-2.12-6.44-5-5.05-12.33,5.88-39.15,9.73-39.4-10.6-.23-17.44,21-21.87,34.2-17.77,6.23,1.94,13.33,8.52,20.1,5.86,3.46-1.35,6.16-4.7,8.91-7.09,3.29-2.87,6.63-5.67,10-8.45q10.45-8.64,21.31-16.76c2.26-1.69,4.8-3.85,7.53-5.81a1.8,1.8,0,0,0,.91-.63c4.71-3.25,9.94-5.7,15.17-4a4,4,0,0,0,.56.12c3,2.49,6.5,5.76,6.1,9.67-.45,4.43-6.88,8.82-9.81,11.76C205.6,496.57,198.74,503.47,191.82,510.3Zm26.3-48.65a2.66,2.66,0,0,0-1.77-.48c-5.61-2.19-11.25-.38-16.49,2.76l-1.52.95c-2.7-4.88-5.87-9.52-8.37-14.53a96,96,0,0,1-7.82-21.59c-.81-3.57-1.7-7.88,2.85-8.57,3.2-.48,6.44,1.11,9,2.8,6.54,4.31,11.47,10.71,16.31,16.74,18.72,23.35,38.19,51.5,42.66,81.83.4,2.74.27,4.42-2.89,3.19-1.83-.71-3.5-2.57-4.9-3.88a118,118,0,0,1-8.89-9.28c-5.69-6.62-10.16-13.91-14.68-21.32,2.66-2.55,5.79-5.21,7.08-8.67C232,472.81,224.62,466.12,218.12,461.65Zm62.2,93c-13.83,7.62-31,1.07-43.09-6.89-14.27-9.4-26.56-22.21-39.21-33.68q5.52-5.62,11.08-11.22l6.57-6.6a107.32,107.32,0,0,0,15.81,22.6c5.17,5.85,12.68,15.57,21.51,14.75,10.35-1,8.93-11.06,7.23-18.41a147.69,147.69,0,0,0-10.14-28.87c-8.66-18.68-20.72-35.53-33.71-51.41-6.18-7.55-12.75-15.91-21.79-20.17-5.74-2.7-13.91-3.34-18.31,2.07-6.15,7.55.62,22.06,3.77,29.67s7.24,15.84,13.19,21.91c-4.46,3.26-8.74,6.84-13,10.22-2.18,1.72-4.34,3.47-6.5,5.22-6.15-13-14.47-24.71-19.2-38.46-4.52-13.11-8-30.17-2.68-43.58,5.55-13.84,26.71-12.19,38-8.41,13,4.33,23.75,13.5,33.22,23.14a258,258,0,0,1,46.42,65.56,255.37,255.37,0,0,1,15.16,37.56C288.4,531.47,294,547.12,280.32,554.62Zm130-117.7c-3.47,6-20.89,30-28.79,21.09-4.28-4.84-2.44-13.85-.94-19.51a50.66,50.66,0,0,1,7-15.31,54,54,0,0,1,12.59-13.06,76.88,76.88,0,0,1,11.64-7.39,1.59,1.59,0,0,0,.33.09c.14,0,.26.06.39.09a1.94,1.94,0,0,0,2.33.85C423.86,408.9,413.78,431,410.33,436.92Zm30.77-94.51a125,125,0,0,1-11.75,31.41,162.11,162.11,0,0,1-8.68,14.51c-2.06,3.07-4.64,6.05-6.5,9.33a11.72,11.72,0,0,0-2,.27,2.17,2.17,0,0,0-.77.35c-5,1.12-9.52,2.46-14.11,5.46a56.92,56.92,0,0,0-14,13.11c-7.51,9.82-12.92,23.2-11.52,35.75a21.22,21.22,0,0,0,2.08,7.18,4.5,4.5,0,0,0-.63.3c-4.66,2.73-8.09,8-11.14,12.32a141.92,141.92,0,0,0-9.1,15.29c-5.46,10.39-10.21,21.17-16.34,31.2a88.65,88.65,0,0,1-24.4,26.37,96.46,96.46,0,0,1-14.86,8.54c-1.36.64-2.78,1.2-4.23,1.73a25.54,25.54,0,0,0,5.35-18.41c-1.37-15.2-8-30.73-13.88-44.66q-2.76-6.51-5.88-12.86c7.78-4.2,12.69-12.87,15.33-21.27,4.66-14.79,2.76-30.84,10.41-44.79,6.54-11.94,16.72-21.28,24.73-32.17a86.76,86.76,0,0,0,15.85-39.28c4.39-31.44-12.45-61.85-7-93.09,2.55-14.47,9.66-27.62,18.2-39.41s20.43-21.78,26.47-35.2c6.83-15.2,6.44-33.54,5.72-49.86-.62-14.18-2-29-6.17-42.82-.37-4-1-7.91-1.33-11.85-.52-6.34-.64-12.71-.89-19.07q-.27-7.18-.53-14.38a49.37,49.37,0,0,0,10.46,15.76c5.14,5.3,10.35,10.31,14.37,16.57,4.27,6.67,6.25,13.67,8.84,21l-.19.07a2.54,2.54,0,0,0-2.43.9c-.32.41-.6.84-.9,1.26a9,9,0,0,0-1.94,2.83c-.06.13-.1.28-.15.42-6.26,11-7.16,24.42-6.08,36.92,1.06,12.34,3.28,30,16.86,34.93a17.3,17.3,0,0,0,4.82,1c-.76,4.43-.24,9.39.06,13.72a148,148,0,0,0,2,16.13c.37,2,1.86,12.63,5.17,15.34a53.18,53.18,0,0,0-10.74,28.59c-1,12.49,1.59,28.11,10.49,37.56a16.71,16.71,0,0,0,5.42,3.88c.45,2.95,2.21,5.89,3.17,8.69a85.62,85.62,0,0,1,4,16.94A99,99,0,0,1,441.1,342.41Zm1.64-66.52c-6.5,3.18-11-8.64-12.46-13a52.75,52.75,0,0,1-2.81-18.14A62.64,62.64,0,0,1,437.26,213c5.17-.81,9.87-.45,13.4,4.59,3.95,5.64,4.18,13.25,4.33,19.88a77.37,77.37,0,0,1-1.77,20.08C451.79,263.43,448.66,273,442.74,275.89Z"/><path class="cls-5" d="M414.42,410.27c-4.92,5.35-6.86,12.83-11.31,18.65-4.89,6.42-11.4,11.4-18.05,15.86a1.91,1.91,0,0,0,1.46,3.47c8.87-1.87,16.4-7.24,22.14-14.14,5-6,10.93-14.9,8.63-23.08A1.73,1.73,0,0,0,414.42,410.27Z"/><path class="cls-5" d="M278.78,367.43c16.8,4.79,20.4-26.12,7.1-29l-.06,0C268.09,332.38,261.38,362.46,278.78,367.43Zm-3.21-15.62c.29-4,3.5-8.45,7.52-9.54,1.06,2.12,2.44,4.08,3.13,6.37.93,3.06.85,8.25-2,10.46C279.4,362.89,275.29,355.78,275.57,351.81Z"/><path class="cls-5" d="M309.89,303.41c13-8.52,12.92-28.58,6.06-41-4.83-8.71-16.32-11.89-25-8.45a1.08,1.08,0,0,0-.89-.06c-13.27,4.52-18.65,22-14.8,34.44C279.65,302.44,296.4,312.28,309.89,303.41Zm-23-41.72A34,34,0,0,1,296.8,260c6.17-.34,10.59,1.94,13.15,7.65,4,9,4.88,24.47-5.16,29.92-10.78,5.84-21.47-4.5-23.43-14.7C279.82,274.81,282.59,267.9,286.89,261.69Z"/><path class="cls-5" d="M348.71,158.41c7.11-5.75,6.32-19.32.08-25.46-5.72-5.63-19.21-3.14-20.46,5.41a19.58,19.58,0,0,0-.34,12.92C330.75,159.36,341.54,164.22,348.71,158.41ZM333.4,140.69c3.32-2.11,6.66-5.72,10.27-2.62,3.23,2.78,3.75,10.56,1.23,13.79-3.47,4.44-9.45.61-11-3.53A16.29,16.29,0,0,1,333.4,140.69Z"/><path class="cls-5" d="M323.64,322.92c-.28,8-.2,15.7-2.42,23.5a67.15,67.15,0,0,1-10.67,21.09c-.28.38.32.81.63.49,11-10.94,18.32-29.89,13.9-45.28A.74.74,0,0,0,323.64,322.92Z"/><path class="cls-5" d="M319.35,230.87c2.95-8.41,6.17-18.31,13.68-23.74,4.13-3,10.81-5.76,11.71-11.42A1,1,0,0,0,343,195a34.41,34.41,0,0,1-8.53,8.1,31.54,31.54,0,0,0-7.28,6.14c-4.7,5.89-7.28,14.17-8.51,21.47A.37.37,0,0,0,319.35,230.87Z"/><path class="cls-5" d="M350.24,186c3.35-2.33,7.28-5.91,7.09-10.4,0-.46-.65-.83-1-.41-2.56,3.09-3.87,7-6.84,9.82C349,185.44,349.65,186.36,350.24,186Z"/><path class="cls-5" d="M368.86,149.53c-.94,6-3.46,11.5-4.59,17.39-.06.33.35.66.61.36,7.3-8.38,8-23.23,7.72-33.78-.4-13.53-3.12-28.33-8.33-40.84a1,1,0,0,0-1.87.52c2.06,13,6.44,25.31,7.23,38.59A83.09,83.09,0,0,1,368.86,149.53Z"/><path class="cls-5" d="M286.84,399.64a29.38,29.38,0,0,0-8.75,21.3c.06,4.66.91,9.28.93,13.95,0,4.95-1.43,8.92-3,13.5-.1.28.27.58.51.4,5.53-4,5.25-12.57,4.82-18.67-.39-5.34-1.19-10.75.06-16,1.18-5.07,4.65-8.74,7.08-13.17A1.06,1.06,0,0,0,286.84,399.64Z"/><path class="cls-5" d="M296.4,385.57c-.9.53-1.35,1.86-2,2.7a12.13,12.13,0,0,1-2.74,2.66.65.65,0,0,0,.65,1.12,12.82,12.82,0,0,0,3.34-2.41c.75-.79,2.07-2.23,1.92-3.39A.8.8,0,0,0,296.4,385.57Z"/><path class="cls-5" d="M336.05,489.88c-2.54,6.62-4,13.4-7.19,19.8a100.74,100.74,0,0,1-11.7,17.64.62.62,0,0,0,.87.87c9.9-9.14,19.41-24.2,19.8-38.07C337.86,489,336.39,489,336.05,489.88Z"/><path class="cls-5" d="M353.16,469.56c-1.52.37-2.5,2.24-3.3,3.47a24.48,24.48,0,0,0-2.47,5c-.25.72.82,1.11,1.2.5,1-1.52,1.92-3,3-4.5.86-1.19,2.24-2.35,2.4-3.86C354,469.74,353.53,469.47,353.16,469.56Z"/><path class="cls-5" d="M428.45,299.55c2.92,9,5.58,17.32,4.71,26.92-.9,9.86-5.28,18.53-7.85,27.95a1,1,0,0,0,1.74.73c9-16,14.19-40.06,2.31-56C429.05,298.74,428.26,299,428.45,299.55Z"/></svg>