<svg id="Layer_1" data-name="Layer 1" xmlns="http://www.w3.org/2000/svg" viewBox="0 0 600 600"><defs><style>.cls-1{fill:#f7941e;}.cls-2{fill:#fff200;}.cls-3{fill:#662d91;}.cls-4{fill:#fff;}.cls-5{fill:#231f20;}</style></defs><title>doodle</title><path class="cls-1" d="M317.12,275.67a16.93,16.93,0,0,1,4.19,11.21c.16,6.63-2.9,14.68,1.06,20.68a38.56,38.56,0,0,0,3,3.73,75.35,75.35,0,0,1,0-9c.44-8.61.94-17-5.3-23.76C319.13,277.5,318.14,276.57,317.12,275.67Z"/><path class="cls-1" d="M369.39,462.31c.58-6,2.43-11.84,3.35-17.8-4.29,9.82-10.15,20.33-8.2,30.95,1,5.76,4.15,9.39,9.09,12.21,3.21,1.83,5.63,4.18,5.07,8.16-.38,2.74-1.92,5.14-2.66,7.78a16.82,16.82,0,0,0,.16,9.61c1.7,5.34,6.28,8.8,9.47,13.19a26.94,26.94,0,0,1,4.39,9.68,13.12,13.12,0,0,0-.47-7c-1.53-4.12-5.13-7.1-7.08-11-4.46-8.93,2.05-15.15,4.39-23.36,2.28-8-7.52-10.81-12.13-15.24S368.79,468.62,369.39,462.31Z"/><path class="cls-1" d="M350.54,423.6c-.22-6.18-3.33-11.86-6.92-16.74-6.32-8.61-15.21-15.54-19.12-25.77-2.46-6.45-2.73-14-1.65-21.25a70.56,70.56,0,0,0-3.41,10.36,28.9,28.9,0,0,0,3.75,22.74c3.9,6.19,9.31,11.26,14.39,16.46,5.45,5.58,10.68,11,9.28,19.43-.78,4.67-3,9-4.79,13.36l-1.1,2.63c1.07-1.38,2.08-2.69,2.95-3.92C347.54,435.79,350.76,430.07,350.54,423.6Z"/><path class="cls-1" d="M344.44,515.51c.63-4.26,3-7.92,4.36-11.95,1.5-4.53,1.5-9.67-1.17-13.79-4.23-6.56-12.64-8.77-15.74-16.36a16.2,16.2,0,0,1-.69-2.07,15.48,15.48,0,0,0,.48,6c2,6.62,9.9,9.11,11.45,16.13s-4.41,12.82-3.91,19.65c.23,3.29,2.61,5.71,5.48,7.78A15,15,0,0,1,344.44,515.51Z"/><path class="cls-2" d="M371.92,308.78c1.67-3.51,2.32-7.15.49-10.76-1.7-3.38-4.64-6-7-8.85s-4.48-5.86-5.33-9.48c-1-4.4-.2-8.88.78-13.21l.48-2c-.42-5.48-1.73-10.74-5.94-14.95-5.28-5.3-13.63-5.65-18.6-11.4a21.24,21.24,0,0,1-4.62-16.31c.78-6.49,4.58-12.52,5.23-18.92-.21-.62-.45-1.25-.72-1.88-2.61-6.11-6.43-13-2.93-19.33a24.32,24.32,0,0,1-8.66-4.72,24.16,24.16,0,0,1-2.56,6c-.58,7.61-1,15,.4,22.6a101.63,101.63,0,0,0,6.9,22.13c5.38,12.5,12.24,24.29,17.44,36.88a119.6,119.6,0,0,1,8.85,39.64A153.06,153.06,0,0,1,352.3,345a171.51,171.51,0,0,1-5.75,20c-1.8,5.11-3.7,10.41-8.56,13.35-2.37,1.43-4.44-1-4-3.08a2.31,2.31,0,0,1,0-.87c1.05-6.94,3.05-13.69,4.06-20.65a136,136,0,0,0,1.32-20.17c-.16-25.28-7.7-48.8-20.48-70.45C307,243,296,219,299.8,195.06a27,27,0,0,1-9.26-2.06A28.47,28.47,0,0,0,283,213.39c.21,8.12,3.9,14.32,9.46,20,5.77,5.85,10,11.23,9.74,19.81,0,.33,0,.66,0,1a25.52,25.52,0,0,0,2,5.67,26,26,0,0,0,6.16,7.5c4.42,3.94,9.58,7.19,13.16,12,4.5,6,4.64,13.28,4.24,20.49a72.73,72.73,0,0,0,0,12.17c.12,1,.3,2,.51,2.91a15.42,15.42,0,0,1,.81,1.37,26.23,26.23,0,0,1,2.64,9.08c.81,7.09-.85,14.36-3.25,21-.55,1.53-1.15,3-1.77,4.56-2.44,11.25-3.91,23.56,2,33.81,5.49,9.59,14.7,16.35,20.21,25.93s4.94,19.28-.87,28.52c-2.91,4.61-6.56,8.7-9.57,13.24-.67,1-1.27,2-1.8,3-.62,1.46-1.31,3-2,4.59a49,49,0,0,0-1.73,6.57A14.67,14.67,0,0,0,337,477.25c4.43,4.69,11,7.2,13.73,13.39s1.06,12.22-1.45,18.05c-1.72,4-3.45,8.14-2.09,12.53a12.59,12.59,0,0,0,.76,1.87,41.76,41.76,0,0,1,5.22,3.6,33.73,33.73,0,0,1,10.48,17.86c1.87,8.64-.84,16.84-1.23,25.45a21.15,21.15,0,0,0,2.24,11,25.3,25.3,0,0,1,3.06-13.75c4.75-9,13.86-14.55,19.1-23.15.46-.76.9-1.55,1.3-2.37a16.58,16.58,0,0,0-.83-7.6c-1.94-5.64-6.24-9.36-9.77-13.94a19.61,19.61,0,0,1-4.32-12.35,20,20,0,0,1,1.5-7c1.36-3.55,3.53-7.42-.49-10.31-3.48-2.5-6.91-3.85-9.22-7.74a22.08,22.08,0,0,1-2.83-12.27c.26-5.63,2.19-11,4.25-16.2a112.51,112.51,0,0,1,6.84-15.09,16.05,16.05,0,0,0-.94-6.12c-1.46-3.74-4.79-5.81-7.94-8s-6.23-4.72-8-8.35-2.2-7.5-2.34-11.39c-.16-4.29.21-8.7-.67-12.94s-3.59-7.67-3.92-12c-1-13.36,15.93-17,19.25-28.16,2.31-7.77-4.88-15.52-5.05-23.33S368.78,315.36,371.92,308.78Z"/><path class="cls-3" d="M304.45,194.84a87.92,87.92,0,0,0,6.68,41.1c5.14,12.49,12.8,23.49,18.95,35.44a137,137,0,0,1,12,33.6,140.75,140.75,0,0,1,3.14,36.21c-.13,2.83-.31,5.75-.58,8.69a170.22,170.22,0,0,0,3.73-17.73,132.66,132.66,0,0,0,.17-40.81c-2.13-13.27-6.95-25.55-12.76-37.59-5.62-11.68-11.72-23.31-15.37-35.81-2.64-9-4.58-19.59-2.78-29.19a25.41,25.41,0,0,1-6.44,4.14c1,1.46.68,3.08.8,4.92a73.78,73.78,0,0,0,1.11,8.88c1,5.24,3,10.44,3.42,15.74a.77.77,0,0,1-1.42.39c-2.34-4.93-3.33-10.85-4.24-16.19-.42-2.49-.75-5-.93-7.5-.14-1.84-.59-4.08.18-5.79A25.31,25.31,0,0,1,304.45,194.84Zm23.25,60.41c4.22,5.21,7.16,11.76,9.87,17.86,2.6,5.87,4.94,12.09,5.43,18.55.05.54-.74.58-.89.12a190.26,190.26,0,0,0-7-19.36c-2.55-5.62-6-11-7.87-16.9C327.15,255.27,327.52,255,327.7,255.25Zm-10.34-27.42a82.66,82.66,0,0,1,4.07,9.83c1.36,3.55,3.37,7.28,3.91,11.05a.54.54,0,0,1-1,.42c-2.07-2.79-3.13-6.5-4.36-9.72a67.91,67.91,0,0,1-3.62-11.16C316.26,227.67,317.05,227.26,317.36,227.83Z"/><path class="cls-1" d="M338.47,207.25c-.9,3.57-2.47,7.13-3.5,10.67-2.41,8.36-.26,18,7.83,22.4,3.57,1.93,7.59,2.92,11,5.14a20.09,20.09,0,0,1,6.42,6.92,26.46,26.46,0,0,1,2.27,5.33,18,18,0,0,0-.34-5.55A18.77,18.77,0,0,0,355,241.24c-6.16-4.46-14.58-6.18-16.87-14.48-1.15-4.18-.28-8.48.31-12.67A23.79,23.79,0,0,0,338.47,207.25Z"/><path class="cls-1" d="M305.94,265.83a20.54,20.54,0,0,1-4-6.6,10.11,10.11,0,0,0,2.5,7.06c2.12,2.24,5,3.6,7.65,5.23A50.47,50.47,0,0,1,305.94,265.83Z"/><path class="cls-3" d="M356.12,177.57A20.45,20.45,0,0,1,352,180.5c.45,2.25.51,4.63,1,6.89q.79,3.75,1.9,7.41c1.52,5.07,3.56,10.08,4.51,15.3a.35.35,0,0,1-.64.27,64.87,64.87,0,0,1-6.44-16.18c-.93-3.39-2.86-8.82-2.11-12.84a19.7,19.7,0,0,1-2.2.77,21.79,21.79,0,0,1-2.19.48,78.81,78.81,0,0,0,9.3,27.78c4.91,8.78,11,16.77,17.06,24.8C383,249.6,393,264.53,396.3,282.58s.44,35.69-6.94,52.33c-3.86,8.71-8.52,17.1-11.6,26.15a65.23,65.23,0,0,0-3.35,28.56c1,8.86,4.39,17.14,8.85,24.79-1.68-10.3-1.13-21.13.52-31.1C390,345.94,416,308.63,403.52,269.8c-5.76-17.93-18.46-32.44-29.21-47.52C365.53,210,355.39,193.59,356.12,177.57Zm4.74,37.26a30,30,0,0,1,3.16,4,25.93,25.93,0,0,1,3,4.67.63.63,0,0,1-1,.76,23.23,23.23,0,0,1-3.12-4.05,32.9,32.9,0,0,1-3-4.7A.57.57,0,0,1,360.86,214.83Z"/><path class="cls-3" d="M296.67,385.73c4-18.31,9.76-35.91,8.92-54.91-.82-18.53-6.73-36-16.38-51.79-4.69-7.67-9.78-15.12-13.31-23.43a82.29,82.29,0,0,1-6-25.35,132.2,132.2,0,0,1,.84-27c.74-6,1.46-12.31,2.81-18.37a18.07,18.07,0,0,1-2.87,3.56A15.85,15.85,0,0,1,264.6,192c-1.09,6.66-2.19,13.17-2.11,20,.07,6.6,1.57,13,2,19.52,0,.54-.83.8-1.06.29-2.68-6-3.13-13.32-3.19-19.81a69.11,69.11,0,0,1,2.2-19.41,18.82,18.82,0,0,1-5.3.21c-5.74,18.47-1.22,37.92,6.32,55.24,6.85,15.76,15.8,30.56,21.55,46.79,6,16.79,7.46,34.83,5.74,52.49a199.59,199.59,0,0,1-4.51,26.26c-2.09,8.9-4.55,17.88-4.81,27.08a42.52,42.52,0,0,0,6.7,24.52,97.44,97.44,0,0,0,10,12.57,101.29,101.29,0,0,1-4.21-21C293,406.28,294.44,395.9,296.67,385.73ZM269.05,249.48c-2.17-3.23-4.33-8.11-4.21-12.06a.44.44,0,0,1,.81-.22,25.93,25.93,0,0,1,2.24,5.54c.75,2.11,1.57,4.17,2.11,6.35A.52.52,0,0,1,269.05,249.48Zm16.8,36q-3.42-8.13-7.45-16c-1.16-2.26-2.36-4.5-3.57-6.74-1.05-2-2.51-3.76-2.44-6a.16.16,0,0,1,.23-.13c2,1,2.89,3.21,4,5.11,1.48,2.56,2.88,5.18,4.23,7.82q3.92,7.62,7.26,15.53,3.15,7.44,5.76,15.1c1.77,5.19,3.74,10.64,4.42,16.1a.71.71,0,0,1-1.31.35c-2.08-4.9-3.34-10.21-5.06-15.25Q289.15,293.29,285.85,285.45Z"/><path class="cls-2" d="M273.07,172.44c.69-2.52,4-2.25,4.84,0,3.43,9.63,12,17.15,22.56,17.23s19.83-7.8,20-18.64a2.59,2.59,0,0,1,.14-.81,2,2,0,0,1,2-1.72,2.59,2.59,0,0,1,3.27,2.18,38.07,38.07,0,0,0,6.87,4.83,19.06,19.06,0,0,0,11.76,1.76c8-1.45,13.92-8.89,11.61-17.06-.83-2.92,2.64-4.4,4.7-2.74,5.35,4.34,13.9,9.52,21.13,8.34,8.74-1.44,9.15-12.73,7.48-19.38-.87-3.49,4.06-4.7,5.29-1.46.11.28.21.56.3.85,7.11,5.36,20.19-.61,21.26-9.39.69-5.7-4.84-8.23-9.29-10.13-3.32-1.43-8.07-.51-11.19-2.4-5.8,6.5-16.28,8.74-24.24,11.23a290.46,290.46,0,0,1-59.94,11.66,405.6,405.6,0,0,1-62.06.71c-10.14-.62-20.27-1.52-30.35-2.77-8.32-1-17-1.69-24.63-5.3a2.64,2.64,0,0,1-1.39.33,16.89,16.89,0,0,1-3.25,1.76,30.16,30.16,0,0,0-5.89,3.75,27.89,27.89,0,0,0-8.1,11c-1,2.54-1.9,5.72-.16,8.14a8.23,8.23,0,0,0,6.05,2.93c5.18.38,9.81-3.43,13.56-6.5a2.48,2.48,0,0,1,4.1,2.38c-.79,5.49-.15,11.48,2.2,16.14a1.58,1.58,0,0,1,.91,1.13c.06.23.1.47.15.71,2.81,4.24,7.35,6.94,13.93,6.33a25,25,0,0,0,13.58-5.81c3.41-2.86,5.41-6.3,7.32-10.11a.77.77,0,0,0,0-.15,1.68,1.68,0,0,1,1.1-1.86c1.42-1.64,4.37.07,3.88,2.29-.07.32-.15.63-.23.94,2.45,7.27,6.73,14.32,15.17,15.19C267.33,189,270.89,180.42,273.07,172.44Z"/><path class="cls-3" d="M237.82,181.27c-3.58,6.47-7.5,12.78-10.93,19.33a135.19,135.19,0,0,0-6.59,14.32c-1.75,4.61-2.64,9.48-4.37,14.06-.28.75-1.5.7-1.47-.19.17-4.89,2.13-9.89,3.86-14.41a131.84,131.84,0,0,1,6-13.15c2.61-5.06,5.4-10.12,8.37-15.06A32.77,32.77,0,0,1,226.2,190a1.74,1.74,0,0,1-.1.41c-3,8.2-7.17,16-10.61,24-3.54,8.27-6.66,16.72-9.37,25.29-2.45,7.72-4.82,15.66-5.32,23.79a57.49,57.49,0,0,0,2.79,21c4.59,14.33,13.73,25.41,23.17,36.76,9.13,11,13.28,24,12.94,38.22A88.31,88.31,0,0,1,237.8,375a64.3,64.3,0,0,0,7.71-16c4.41-15,1.75-31.4-4.46-45.48-6.33-14.39-16-26.86-19.41-42.48-6.71-30.24,3.92-62,20.76-87.19a26.81,26.81,0,0,1-2.85-5A28.26,28.26,0,0,1,237.82,181.27Zm-24.06,55.57c.19-.45.76-.09.71.29-.77,5.7-1.43,11.4-2.21,17.09a.46.46,0,0,1-.88,0A32.78,32.78,0,0,1,213.76,236.84Zm13,68.5c.19.69-.83,1.14-1.16.49-3.92-7.68-6.72-16.08-9.83-24.12-2.89-7.47-6.31-15.77-4.24-23.88a.48.48,0,0,1,.94.13C212.15,274.81,222.3,289.53,226.73,305.34Z"/><path class="cls-3" d="M202.21,207.86a74.32,74.32,0,0,1-10.88,17.45c-.43.5-1.25-.16-.9-.7a147,147,0,0,0,9.78-17.22,95.18,95.18,0,0,0,4-10.41c.67-2.1,1.11-4.32,1.84-6.41a19.38,19.38,0,0,1-3-1.8c-.66,5.9-3.2,11.73-6.13,16.7-4.73,8-11.31,14.76-17.56,21.6-22.18,24.28-35.77,56.28-29.67,89.51a86.49,86.49,0,0,0,7.55,23c3.79,7.58,9,14,14.14,20.67a62.94,62.94,0,0,1,10.71,19.69c.24-9.57-1.94-19.33-4.7-28.54-4.5-15-9.63-29.68-11.19-45.4a82.49,82.49,0,0,1,6.59-42.41c5.55-12.38,13.78-23.29,21.44-34.4s16.8-23.16,16.86-37a20,20,0,0,1-3-.78C207.36,197,204.47,203,202.21,207.86ZM170,254.63c-1.77,5-4.66,9.52-6.59,14.44A93.45,93.45,0,0,0,159,283.81c-2.27,10.77-1.93,21.21-1.51,32.11a.3.3,0,0,1-.59.08c-2.71-10.29-1.95-21.79.07-32.14A91.23,91.23,0,0,1,161.61,268c1.87-4.73,4-10.06,7.49-13.84A.51.51,0,0,1,170,254.63Zm12.94-18.06c-.88,1.64-2.43,2.87-3.63,4.3s-2.41,3.25-3.69,4.82c-.26.32-.79,0-.67-.39a17,17,0,0,1,3-5.31c1.24-1.53,2.65-3.25,4.57-3.91C182.81,236,183,236.33,182.89,236.57Z"/><path class="cls-4" d="M376.11,87.3c3.57-2.72-.25-6.58-3.34-7.33-3.89-.94-4,2-4.9,4.74a2.26,2.26,0,0,1-.79,1.14A5.35,5.35,0,0,0,368,87,6.72,6.72,0,0,0,376.11,87.3Z"/><path class="cls-3" d="M385.82,170.6a16.79,16.79,0,0,1-1.83.56c3,14.66,12.19,25.7,23.83,34.87,11.42,9,25.32,16.39,33.55,28.73.31.47-.38,1-.75.58a172.42,172.42,0,0,0-18.87-16.22c-6.06-4.49-12.32-8.74-18.11-13.58-10-8.4-20.58-20.31-21.1-34.09a20.13,20.13,0,0,1-7.24-.31,107.73,107.73,0,0,0,22.55,36.37,148.39,148.39,0,0,0,15.47,14.08c5.5,4.37,11.49,8,17.06,12.32a32.24,32.24,0,0,1,11.83,16.5,79,79,0,0,1,3.68,23.72c-.16,16.26-8,30.91-10.17,46.81-1.42,10.26.61,21.37,7.63,28.42-4.3-11.64-2.24-24.87,2.18-36.7,2.83-7.61,6.5-14.91,8.7-22.76a71.87,71.87,0,0,0,2.51-23.58,71.08,71.08,0,0,0-15.32-39.93A72.14,72.14,0,0,0,426,211.9c-6.36-4.39-13.27-7.91-19.36-12.68-9.08-7.1-17-17.71-19.49-29.22A14.55,14.55,0,0,1,385.82,170.6Z"/><path class="cls-4" d="M211.7,102.07h0c3,.76,5.74-2.54,6.22-5.29.7-4-4.78-5.16-7.24-3a4.17,4.17,0,0,0-.36.37,12.29,12.29,0,0,0-1.09,4.14A8,8,0,0,0,211.7,102.07Z"/><path class="cls-3" d="M224.22,140c10.53,1.07,21.08,2,31.66,2.44a385,385,0,0,0,63.24-1.95,277.73,277.73,0,0,0,54.5-12c4.72-1.56,10-3,14.29-5.48,3.72-2.15,5.84-5.55,7.26-9.54a51.31,51.31,0,0,0,2.31-23.62C393.06,55.09,362,33.74,330.31,25.77c-18.44-4.63-38-6.44-56.66-2.13a136,136,0,0,0-48.34,22.21c-13.9,10-25.78,23.37-32,39.5a68.12,68.12,0,0,0-4.74,25.23c.09,8.18,1.53,17,6.1,24C203.64,138.77,214.54,139,224.22,140ZM366.53,54.65c3.35.9,6.74,3.08,7.05,6.87a.49.49,0,0,1-.83.35c-2-2.33-3.69-5.09-6.49-6.58A.35.35,0,0,1,366.53,54.65Zm7.15,20.21c6,1.36,11.45,7.73,7.92,13.86-3,5.21-11.2,6.07-15.74,2.56a8.76,8.76,0,0,1-1.62-12.7A9.15,9.15,0,0,1,373.68,74.86ZM320.22,32a60.51,60.51,0,0,1,22.63,5c6.85,2.9,14.59,6.9,19.45,12.7.52.61-.14,1.64-.9,1.16-6.39-4-12-8.6-19-11.69a93.7,93.7,0,0,0-22.28-6.37C319.67,32.71,319.79,32,320.22,32ZM281.51,92.85a.57.57,0,0,1,1,.13c.57,4,.66,8.18,3.61,11.25,3.13,3.26,7.33,2.89,10.89.53a15.25,15.25,0,0,0,6-8.05c.93-2.93.46-5.85,1-8.8.28-1.5,2.24-1.4,3-.39,2.63,3.69,1.2,9.46-.59,13.22A18.54,18.54,0,0,1,296,110.31C285.58,114,276.67,102.43,281.51,92.85Zm-73.22-4c5.54-3.55,14.74-.44,15.08,6.77.31,6.72-6.69,13.58-13.43,11.2a7,7,0,0,1-3.76-2.81C202.14,99.8,203.16,92.11,208.29,88.83Z"/><path class="cls-5" d="M300.15,448a6.16,6.16,0,0,0,4.29,1.79,2.93,2.93,0,0,0,2.82-3.69,109.12,109.12,0,0,1-7.2-28.12A92.09,92.09,0,0,1,302,389.81c3.71-17.84,9.65-35.13,9.69-53.54a111.42,111.42,0,0,0-12-50.47c-4.14-8.16-9.51-15.59-14.07-23.5a77,77,0,0,1-9.27-25c-1.8-10-1.67-20.24-.85-30.31.64-7.72,2.31-15.45,3.09-23.19a30.73,30.73,0,0,0,7.64,6.94A32.93,32.93,0,0,0,280.06,225c2.77,6.88,8.2,11.09,12.79,16.63A15.44,15.44,0,0,1,296.72,252c0,4-.75,8.14.37,12.1,1.92,6.82,8.29,9.2,13.58,12.9,6.62,4.61,5.22,11.74,4.58,18.79a27.74,27.74,0,0,0,.52,10.35c1,3.55,3.33,6,5.66,8.77,5.21,6.18,5.64,14,4,21.69-3.44,16.14-15.39,30.54-11.9,47.8,1.46,7.24,5.73,13.52,10.47,19,4.92,5.71,11.54,10.63,15.64,17,2.94,4.55,1.22,9.36-.62,14s-3.86,9.27-5.79,13.91c-3.15,7.56-7.15,15.29-7.78,23.59a19,19,0,0,0,1.9,10.14c1.71,3.29,4.57,5.51,7.12,8.1s3.59,5.33,2.65,9-2.73,6.8-3.43,10.4c-1.61,8.19,3.57,13.26,9.85,17.47,7.35,5,12.83,11.21,14.35,20.24,1.66,9.85-3,19.57-1.27,29.45,1.28,7.07,6,14.21,13.56,15.37,3,.46,5.05-2.67,3-5.1-6.07-7.13-.79-17.27,4.36-23.15,5.56-6.36,12.43-11.75,16.16-19.51s3.69-15.71-1.36-22.81c-2-2.83-5-5.83-5.22-9.5s2.18-7.33,3.74-10.59c3.13-6.57,4-13.48-1.8-18.86-4.71-4.38-11.8-6.4-13.46-13.29-1.52-6.33.94-13.35,2.24-19.51,1.25-5.9,2.39-12.39.31-18.24a18.66,18.66,0,0,0-5.91-8.19c-3.18-2.6-7.25-4.43-9.64-7.88-4.54-6.54-2-16.14-3.28-23.57-.72-4.15-3.8-8-4-12.09-.12-2.7,1.38-5,3.08-7,3.88-4.46,8.91-7.76,12.54-12.46.17-.21.31-.42.46-.63a71.06,71.06,0,0,0-3.66,28.05,69.54,69.54,0,0,0,9.48,29.14,121,121,0,0,0,8.7,12.95,72.76,72.76,0,0,0,6,7.27q.45.66.93,1.32a3,3,0,0,0,1.95,1.22c.32.24.63.48,1,.7,1.31.9,3.41-.61,2.81-2.16-.13-.34-.29-.67-.43-1a3,3,0,0,0-.41-1.6c-8.63-15.35-10.49-32.69-7.64-49.91,3.11-18.73,10.51-36.33,16.1-54.37,5.52-17.81,9.3-36.84,5.64-55.41-3.56-18.1-14.59-33.22-25.54-47.57-6.21-8.15-12.5-16.33-17.32-25.41-5.37-10.14-7.39-20.39-8.2-31.73,0,0,0,0,0-.06a18.31,18.31,0,0,0,1.47-5.76,48.49,48.49,0,0,0,8,4.21c4.92,27.82,28.68,50,50.78,65.38,6.44,4.49,12.23,8.85,14.76,16.62a69.92,69.92,0,0,1,3.55,25.18c-1,17-9.95,32.52-10.53,49.68-.46,13.53,6.2,30.05,20.45,33.1a2.51,2.51,0,0,0,2.39.36c.23,0,.46.06.69.07,2.57.18,3.06-3.22,1.25-4.44l0,0c-9.91-12.87-6.27-29.53-.76-43.47,2.89-7.32,6.29-14.46,8.23-22.13a77.29,77.29,0,0,0-10.42-61.58c-7.8-11.69-18.26-19.74-30.23-26.81-7.38-4.36-14-9.05-19.64-15.6-4.64-5.44-7.65-11.61-10.56-18,4.22-3.9,6.11-10.3,5.84-16.26a23.29,23.29,0,0,0,8.35.91A19.44,19.44,0,0,0,420,142.1c7.05-14.15-8.9-22.29-21.18-22.64,3.18-5.89,4.39-13.13,4.73-19.6.91-17-5.73-33.83-16.24-47C376,38.71,359.79,29.23,342.84,23.41c-18.39-6.32-39.37-9.75-58.76-7.51-19.19,2.22-37.81,9.63-54.2,19.73-17.63,10.87-33,26-41.13,45.26-7,16.58-10,40.06,1,55.69-4.1.95-8.88,5-11,7-4.61,4.39-9,11.36-8.82,17.94.19,5.87,5.14,9.78,10.66,10.51,5,.66,9.56-1.45,13.61-4.25-.13,5.31.74,10.6,3.6,15.23.3.49.63,1,1,1.42A47.85,47.85,0,0,1,191.42,205c-4.76,7.3-11,13.44-16.91,19.82a123.43,123.43,0,0,0-24.63,38.59c-11.33,28.94-9.6,63,8.25,89,5.12,7.46,11.73,14,15.78,22.13,4.28,8.62,3.84,17.07,2.77,26.25a2.32,2.32,0,0,0-.11,1h0c-.19,1.57,1.37,2.58,2.8,2.53a2.52,2.52,0,0,0,2.23-1.31c16.81-27.66-3.4-60.3-8.55-88.29-2.85-15.45-2.64-31.43,3.23-46.17,5.27-13.23,14-24.78,22-36.44a184.83,184.83,0,0,0,12-19.51c3.1-6,6.34-13.25,5.16-20.16a27.57,27.57,0,0,0,5.91-.86A120.77,120.77,0,0,0,211.79,210q-4.72,10.59-8.61,21.53c-5,14.14-9.59,28.81-7.46,44,1.94,13.87,8.49,26.79,16.83,37.9,4.29,5.71,9.45,10.82,13.35,16.82A47,47,0,0,1,233,350.71a75,75,0,0,1-1.87,25.06c-1,4.26-2.24,8.44-3.53,12.62-.71,2.29-1.49,4.58-2.15,6.89,0,.1,0,.2-.08.3a48,48,0,0,0-2.5,6.66c-1,3.59,4.07,4.73,5.42,1.5,5.55-13.31,15.78-24,21.35-37.23,5.71-13.62,5.46-28.91,1.57-43-4.2-15.23-13.8-27.51-20-41.8-6.44-14.82-7.34-31.8-4.36-47.55,3.18-16.77,10.52-32,18.67-46.83a20.85,20.85,0,0,0,7,4.34c-12.69,33.88,11.64,67,24,97.19a118.44,118.44,0,0,1,8.35,54.56,182.6,182.6,0,0,1-4.63,28.45c-2.13,9.06-4.52,18.15-5,27.48-1,19.72,10.25,36.07,24.7,48.47A2,2,0,0,0,300.15,448Zm4.32-181.72a10.11,10.11,0,0,1-2.5-7.06,20.54,20.54,0,0,0,4,6.6,50.47,50.47,0,0,0,6.18,5.69C309.52,269.89,306.59,268.53,304.47,266.29Zm20.89,36a75.35,75.35,0,0,0,0,9,38.56,38.56,0,0,1-3-3.73c-4-6-.9-14.05-1.06-20.68a16.93,16.93,0,0,0-4.19-11.21c1,.9,2,1.83,2.94,2.83C326.3,285.28,325.8,293.65,325.36,302.26Zm16.71,139.93c1.82-4.33,4-8.69,4.79-13.36,1.4-8.41-3.83-13.85-9.28-19.43-5.08-5.2-10.49-10.27-14.39-16.46a28.9,28.9,0,0,1-3.75-22.74,70.56,70.56,0,0,1,3.41-10.36c-1.08,7.26-.81,14.8,1.65,21.25,3.91,10.23,12.8,17.16,19.12,25.77,3.59,4.88,6.7,10.56,6.92,16.74.22,6.47-3,12.19-6.62,17.3-.87,1.23-1.88,2.54-2.95,3.92Zm-2.85,71c-.5-6.83,5.47-12.53,3.91-19.65s-9.46-9.51-11.45-16.13a15.48,15.48,0,0,1-.48-6,16.2,16.2,0,0,0,.69,2.07c3.1,7.59,11.51,9.8,15.74,16.36,2.67,4.12,2.67,9.26,1.17,13.79-1.33,4-3.73,7.69-4.36,11.95a15,15,0,0,0,.26,5.42C341.83,518.86,339.45,516.44,339.22,513.15Zm35.55-33.65c4.61,4.43,14.41,7.2,12.13,15.24-2.34,8.21-8.85,14.43-4.39,23.36,1.95,3.9,5.55,6.88,7.08,11a13.12,13.12,0,0,1,.47,7,26.94,26.94,0,0,0-4.39-9.68c-3.19-4.39-7.77-7.85-9.47-13.19a16.82,16.82,0,0,1-.16-9.61c.74-2.64,2.28-5,2.66-7.78.56-4-1.86-6.33-5.07-8.16-4.94-2.82-8-6.45-9.09-12.21-2-10.62,3.91-21.13,8.2-30.95-.92,6-2.77,11.77-3.35,17.8C368.79,468.62,370.05,475,374.77,479.5Zm-6.1-127.2c-3.32,11.2-20.29,14.8-19.25,28.16.33,4.28,3.06,7.8,3.92,12s.51,8.65.67,12.94c.14,3.89.6,7.85,2.34,11.39s4.77,6.08,8,8.35,6.48,4.27,7.94,8a16.05,16.05,0,0,1,.94,6.12,112.51,112.51,0,0,0-6.84,15.09c-2.06,5.18-4,10.57-4.25,16.2A22.08,22.08,0,0,0,365,482.78c2.31,3.89,5.74,5.24,9.22,7.74,4,2.89,1.85,6.76.49,10.31a20,20,0,0,0-1.5,7,19.61,19.61,0,0,0,4.32,12.35c3.53,4.58,7.83,8.3,9.77,13.94a16.58,16.58,0,0,1,.83,7.6c-.4.82-.84,1.61-1.3,2.37-5.24,8.6-14.35,14.15-19.1,23.15A25.3,25.3,0,0,0,364.65,581a21.15,21.15,0,0,1-2.24-11c.39-8.61,3.1-16.81,1.23-25.45a33.73,33.73,0,0,0-10.48-17.86,41.76,41.76,0,0,0-5.22-3.6,12.59,12.59,0,0,1-.76-1.87c-1.36-4.39.37-8.53,2.09-12.53,2.51-5.83,4.18-11.94,1.45-18.05s-9.3-8.7-13.73-13.39a14.67,14.67,0,0,1-4.18-10.64,49,49,0,0,1,1.73-6.57c.67-1.59,1.36-3.13,2-4.59.53-1,1.13-2,1.8-3,3-4.54,6.66-8.63,9.57-13.24,5.81-9.24,6.35-19,.87-28.52S334,394.31,328.55,384.72c-5.87-10.25-4.4-22.56-2-33.81.62-1.51,1.22-3,1.77-4.56,2.4-6.65,4.06-13.92,3.25-21a26.23,26.23,0,0,0-2.64-9.08,15.42,15.42,0,0,0-.81-1.37c-.21-.95-.39-1.92-.51-2.91a72.73,72.73,0,0,1,0-12.17c.4-7.21.26-14.47-4.24-20.49-3.58-4.81-8.74-8.06-13.16-12a26,26,0,0,1-6.16-7.5,25.52,25.52,0,0,1-2-5.67c0-.33,0-.66,0-1,.21-8.58-4-14-9.74-19.81-5.56-5.64-9.25-11.84-9.46-20A28.47,28.47,0,0,1,290.54,193a27,27,0,0,0,9.26,2.06c-3.77,24,7.24,48,19.11,68.08,12.78,21.65,20.32,45.17,20.48,70.45a136,136,0,0,1-1.32,20.17c-1,7-3,13.71-4.06,20.65a2.31,2.31,0,0,0,0,.87c-.48,2.1,1.59,4.51,4,3.08,4.86-2.94,6.76-8.24,8.56-13.35a171.51,171.51,0,0,0,5.75-20,153.06,153.06,0,0,0,3.79-40.81,119.6,119.6,0,0,0-8.85-39.64c-5.2-12.59-12.06-24.38-17.44-36.88a101.63,101.63,0,0,1-6.9-22.13c-1.36-7.6-1-15-.4-22.6a24.16,24.16,0,0,0,2.56-6,24.32,24.32,0,0,0,8.66,4.72c-3.5,6.35.32,13.22,2.93,19.33.27.63.51,1.26.72,1.88-.65,6.4-4.45,12.43-5.23,18.92a21.24,21.24,0,0,0,4.62,16.31c5,5.75,13.32,6.1,18.6,11.4,4.21,4.21,5.52,9.47,5.94,14.95l-.48,2c-1,4.33-1.81,8.81-.78,13.21.85,3.62,3,6.68,5.33,9.48s5.34,5.47,7,8.85c1.83,3.61,1.18,7.25-.49,10.76-3.14,6.58-8.47,12.49-8.3,20.19S371,344.53,368.67,352.3ZM310,199.13c.18,2.51.51,5,.93,7.5.91,5.34,1.9,11.26,4.24,16.19a.77.77,0,0,0,1.42-.39c-.45-5.3-2.45-10.5-3.42-15.74a73.78,73.78,0,0,1-1.11-8.88c-.12-1.84.19-3.46-.8-4.92a25.41,25.41,0,0,0,6.44-4.14c-1.8,9.6.14,20.15,2.78,29.19,3.65,12.5,9.75,24.13,15.37,35.81,5.81,12,10.63,24.32,12.76,37.59a132.66,132.66,0,0,1-.17,40.81,170.22,170.22,0,0,1-3.73,17.73c.27-2.94.45-5.86.58-8.69A140.75,140.75,0,0,0,342.12,305a137,137,0,0,0-12-33.6c-6.15-11.95-13.81-22.95-18.95-35.44a87.92,87.92,0,0,1-6.68-41.1,25.31,25.31,0,0,0,5.7-1.5C309.38,195.05,309.83,197.29,310,199.13Zm28.15,27.63c2.29,8.3,10.71,10,16.87,14.48a18.77,18.77,0,0,1,7.16,10.92,18,18,0,0,1,.34,5.55,26.46,26.46,0,0,0-2.27-5.33,20.09,20.09,0,0,0-6.42-6.92c-3.41-2.22-7.43-3.21-11-5.14-8.09-4.38-10.24-14-7.83-22.4,1-3.54,2.6-7.1,3.5-10.67a23.79,23.79,0,0,1,0,6.84C337.84,218.28,337,222.58,338.12,226.76ZM369.52,330c-.44-4,1.27-7.57,3.18-10.92,3.51-6.15,8-12.48,6.26-19.95-1.65-7.14-8.21-11.2-11.77-17.21-2.83-4.78-1.66-10-.46-15.06S369,256.8,368,251.61c-1.72-9.28-8.14-14.75-16-19-4.22-2.26-8.11-4.59-8.41-9.88-.29-4.93,1.58-9.74,1.24-14.68-.29-4.28-2.06-8.16-3.77-12s-4.17-8.43-1.45-12.37a3.25,3.25,0,0,0,.41-.84c.44,0,.88.06,1.31.07C340.81,200,351.44,216.64,361,230c10.87,15.19,23.09,29.93,27.85,48.39,4.89,19,2,37.91-6.07,55.52-2.65,5.77-5.53,11.44-8.05,17.26A22.52,22.52,0,0,0,373.18,341C371.87,337.43,370,333.83,369.52,330Zm4.79-107.71c10.75,15.08,23.45,29.59,29.21,47.52C416,308.63,390,345.94,383.78,383.31c-1.65,10-2.2,20.8-.52,31.1-4.46-7.65-7.83-15.93-8.85-24.79a65.23,65.23,0,0,1,3.35-28.56c3.08-9.05,7.74-17.44,11.6-26.15,7.38-16.64,10.29-34.31,6.94-52.33s-13.3-33-24.13-47.4c-6-8-12.15-16-17.06-24.8a78.81,78.81,0,0,1-9.3-27.78,21.79,21.79,0,0,0,2.19-.48,19.7,19.7,0,0,0,2.2-.77c-.75,4,1.18,9.45,2.11,12.84a64.87,64.87,0,0,0,6.44,16.18.35.35,0,0,0,.64-.27c-.95-5.22-3-10.23-4.51-15.3q-1.11-3.66-1.9-7.41c-.48-2.26-.54-4.64-1-6.89a20.45,20.45,0,0,0,4.13-2.93C355.39,193.59,365.53,210,374.31,222.28Zm32.33-23.06c6.09,4.77,13,8.29,19.36,12.68a72.14,72.14,0,0,1,15.42,14.49,71.08,71.08,0,0,1,15.32,39.93,71.87,71.87,0,0,1-2.51,23.58c-2.2,7.85-5.87,15.15-8.7,22.76-4.42,11.83-6.48,25.06-2.18,36.7-7-7.05-9.05-18.16-7.63-28.42,2.19-15.9,10-30.55,10.17-46.81a79,79,0,0,0-3.68-23.72,32.24,32.24,0,0,0-11.83-16.5c-5.57-4.28-11.56-7.95-17.06-12.32a148.39,148.39,0,0,1-15.47-14.08,107.73,107.73,0,0,1-22.55-36.37,20.13,20.13,0,0,0,7.24.31c.52,13.78,11.06,25.69,21.1,34.09,5.79,4.84,12.05,9.09,18.11,13.58a172.42,172.42,0,0,1,18.87,16.22c.37.37,1.06-.11.75-.58C433.14,222.42,419.24,215,407.82,206,396.18,196.86,387,185.82,384,171.16a16.79,16.79,0,0,0,1.83-.56,14.55,14.55,0,0,0,1.33-.6C389.67,181.51,397.56,192.12,406.64,199.22ZM188.57,110.58a68.12,68.12,0,0,1,4.74-25.23c6.22-16.13,18.1-29.48,32-39.5a136,136,0,0,1,48.34-22.21c18.66-4.31,38.22-2.5,56.66,2.13,31.68,8,62.75,29.32,67.17,64.08a51.31,51.31,0,0,1-2.31,23.62c-1.42,4-3.54,7.39-7.26,9.54-4.32,2.5-9.57,3.92-14.29,5.48a277.73,277.73,0,0,1-54.5,12,385,385,0,0,1-63.24,1.95c-10.58-.48-21.13-1.37-31.66-2.44-9.68-1-20.58-1.2-29.55-5.4C190.1,127.63,188.66,118.76,188.57,110.58Zm5.68,118.58c-7.66,11.11-15.89,22-21.44,34.4A82.49,82.49,0,0,0,166.22,306c1.56,15.72,6.69,30.38,11.19,45.4,2.76,9.21,4.94,19,4.7,28.54a62.94,62.94,0,0,0-10.71-19.69c-5.18-6.65-10.35-13.09-14.14-20.67a86.49,86.49,0,0,1-7.55-23c-6.1-33.23,7.49-65.23,29.67-89.51,6.25-6.84,12.83-13.56,17.56-21.6,2.93-5,5.47-10.8,6.13-16.7a19.38,19.38,0,0,0,3,1.8c-.73,2.09-1.17,4.31-1.84,6.41a95.18,95.18,0,0,1-4,10.41,147,147,0,0,1-9.78,17.22c-.35.54.47,1.2.9.7a74.32,74.32,0,0,0,10.88-17.45c2.26-4.9,5.15-10.87,5.88-16.45a20,20,0,0,0,3,.78C211.05,206,201.82,218.19,194.25,229.16Zm27.39,41.92c3.46,15.62,13.08,28.09,19.41,42.48,6.21,14.08,8.87,30.51,4.46,45.48a64.3,64.3,0,0,1-7.71,16,88.31,88.31,0,0,0,1.9-15.61c.34-14.26-3.81-27.23-12.94-38.22-9.44-11.35-18.58-22.43-23.17-36.76a57.49,57.49,0,0,1-2.79-21c.5-8.13,2.87-16.07,5.32-23.79,2.71-8.57,5.83-17,9.37-25.29,3.44-8,7.62-15.78,10.61-24a1.74,1.74,0,0,0,.1-.41,32.77,32.77,0,0,0,6.47-3.78c-3,4.94-5.76,10-8.37,15.06a131.84,131.84,0,0,0-6,13.15c-1.73,4.52-3.69,9.52-3.86,14.41,0,.89,1.19.94,1.47.19,1.73-4.58,2.62-9.45,4.37-14.06a135.19,135.19,0,0,1,6.59-14.32c3.43-6.55,7.35-12.86,10.93-19.33a28.26,28.26,0,0,0,1.73-2.38,26.81,26.81,0,0,0,2.85,5C225.56,209,214.93,240.84,221.64,271.08Zm20.65-98.29c.08-.31.16-.62.23-.94.49-2.22-2.46-3.93-3.88-2.29a1.68,1.68,0,0,0-1.1,1.86.77.77,0,0,1,0,.15c-1.91,3.81-3.91,7.25-7.32,10.11a25,25,0,0,1-13.58,5.81c-6.58.61-11.12-2.09-13.93-6.33,0-.24-.09-.48-.15-.71a1.58,1.58,0,0,0-.91-1.13c-2.35-4.66-3-10.65-2.2-16.14a2.48,2.48,0,0,0-4.1-2.38c-3.75,3.07-8.38,6.88-13.56,6.5a8.23,8.23,0,0,1-6.05-2.93c-1.74-2.42-.84-5.6.16-8.14a27.89,27.89,0,0,1,8.1-11,30.16,30.16,0,0,1,5.89-3.75,16.89,16.89,0,0,0,3.25-1.76,2.64,2.64,0,0,0,1.39-.33c7.63,3.61,16.31,4.26,24.63,5.3,10.08,1.25,20.21,2.15,30.35,2.77a405.6,405.6,0,0,0,62.06-.71,290.46,290.46,0,0,0,59.94-11.66c8-2.49,18.44-4.73,24.24-11.23,3.12,1.89,7.87,1,11.19,2.4,4.45,1.9,10,4.43,9.29,10.13-1.07,8.78-14.15,14.75-21.26,9.39-.09-.29-.19-.57-.3-.85-1.23-3.24-6.16-2-5.29,1.46,1.67,6.65,1.26,17.94-7.48,19.38-7.23,1.18-15.78-4-21.13-8.34-2.06-1.66-5.53-.18-4.7,2.74,2.31,8.17-3.62,15.61-11.61,17.06a19.06,19.06,0,0,1-11.76-1.76,38.07,38.07,0,0,1-6.87-4.83,2.59,2.59,0,0,0-3.27-2.18,2,2,0,0,0-2,1.72,2.59,2.59,0,0,0-.14.81c-.18,10.84-9.43,18.73-20,18.64s-19.13-7.6-22.56-17.23c-.8-2.25-4.15-2.52-4.84,0-2.18,8-5.74,16.57-15.61,15.54C249,187.11,244.74,180.06,242.29,172.79Zm45.84,252.37a42.52,42.52,0,0,1-6.7-24.52c.26-9.2,2.72-18.18,4.81-27.08a199.59,199.59,0,0,0,4.51-26.26c1.72-17.66.22-35.7-5.74-52.49-5.75-16.23-14.7-31-21.55-46.79-7.54-17.32-12.06-36.77-6.32-55.24a18.82,18.82,0,0,0,5.3-.21,69.11,69.11,0,0,0-2.2,19.41c.06,6.49.51,13.81,3.19,19.81.23.51,1.09.25,1.06-.29-.43-6.54-1.93-12.92-2-19.52-.08-6.79,1-13.3,2.11-20a15.85,15.85,0,0,0,6.06-3.55,18.07,18.07,0,0,0,2.87-3.56c-1.35,6.06-2.07,12.34-2.81,18.37a132.2,132.2,0,0,0-.84,27,82.29,82.29,0,0,0,6,25.35c3.53,8.31,8.62,15.76,13.31,23.43,9.65,15.75,15.56,33.26,16.38,51.79.84,19-4.9,36.6-8.92,54.91-2.23,10.17-3.63,20.55-2.73,31a101.29,101.29,0,0,0,4.21,21A97.44,97.44,0,0,1,288.13,425.16Z"/><path class="cls-5" d="M209.94,106.8c6.74,2.38,13.74-4.48,13.43-11.2-.34-7.21-9.54-10.32-15.08-6.77-5.13,3.28-6.15,11-2.11,15.16A7,7,0,0,0,209.94,106.8Zm.38-12.64a4.17,4.17,0,0,1,.36-.37c2.46-2.16,7.94-1,7.24,3-.48,2.75-3.18,6-6.22,5.29h0a8,8,0,0,1-2.47-3.77A12.29,12.29,0,0,1,210.32,94.16Z"/><path class="cls-5" d="M365.86,91.28c4.54,3.51,12.75,2.65,15.74-2.56,3.53-6.13-2-12.5-7.92-13.86a9.15,9.15,0,0,0-9.44,3.72A8.76,8.76,0,0,0,365.86,91.28Zm2-6.57c.92-2.74,1-5.68,4.9-4.74,3.09.75,6.91,4.61,3.34,7.33A6.72,6.72,0,0,1,368,87a5.35,5.35,0,0,1-.95-1.18A2.26,2.26,0,0,0,367.87,84.71Z"/><path class="cls-5" d="M296,110.31a18.54,18.54,0,0,0,10.34-9.57c1.79-3.76,3.22-9.53.59-13.22-.72-1-2.68-1.11-3,.39-.54,3-.07,5.87-1,8.8a15.25,15.25,0,0,1-6,8.05c-3.56,2.36-7.76,2.73-10.89-.53-2.95-3.07-3-7.3-3.61-11.25a.57.57,0,0,0-1-.13C276.67,102.43,285.58,114,296,110.31Z"/><path class="cls-5" d="M320.12,32.78a93.7,93.7,0,0,1,22.28,6.37c7,3.09,12.61,7.69,19,11.69.76.48,1.42-.55.9-1.16-4.86-5.8-12.6-9.8-19.45-12.7a60.51,60.51,0,0,0-22.63-5C319.79,32,319.67,32.71,320.12,32.78Z"/><path class="cls-5" d="M366.26,55.29c2.8,1.49,4.5,4.25,6.49,6.58a.49.49,0,0,0,.83-.35c-.31-3.79-3.7-6-7.05-6.87A.35.35,0,0,0,366.26,55.29Z"/><path class="cls-5" d="M362.94,220.22a23.23,23.23,0,0,0,3.12,4.05.63.63,0,0,0,1-.76,25.93,25.93,0,0,0-3-4.67,30,30,0,0,0-3.16-4,.57.57,0,0,0-.89.69A32.9,32.9,0,0,0,362.94,220.22Z"/><path class="cls-5" d="M267.89,242.74a25.93,25.93,0,0,0-2.24-5.54.44.44,0,0,0-.81.22c-.12,4,2,8.83,4.21,12.06a.52.52,0,0,0,.95-.39C269.46,246.91,268.64,244.85,267.89,242.74Z"/><path class="cls-5" d="M298.28,316.24c-.68-5.46-2.65-10.91-4.42-16.1S290.2,290,288.1,285q-3.35-7.91-7.26-15.53c-1.35-2.64-2.75-5.26-4.23-7.82-1.1-1.9-2-4.09-4-5.11a.16.16,0,0,0-.23.13c-.07,2.26,1.39,4.07,2.44,6,1.21,2.24,2.41,4.48,3.57,6.74q4,7.84,7.45,16,3.3,7.85,6.06,15.89c1.72,5,3,10.35,5.06,15.25A.71.71,0,0,0,298.28,316.24Z"/><path class="cls-5" d="M320,239.41c1.23,3.22,2.29,6.93,4.36,9.72a.54.54,0,0,0,1-.42c-.54-3.77-2.55-7.5-3.91-11.05a82.66,82.66,0,0,0-4.07-9.83c-.31-.57-1.1-.16-1,.42A67.91,67.91,0,0,0,320,239.41Z"/><path class="cls-5" d="M335.1,272.42a190.26,190.26,0,0,1,7,19.36c.15.46.94.42.89-.12-.49-6.46-2.83-12.68-5.43-18.55-2.71-6.1-5.65-12.65-9.87-17.86-.18-.22-.55,0-.47.27C329.13,261.4,332.55,266.8,335.1,272.42Z"/><path class="cls-5" d="M212.26,254.22c.78-5.69,1.44-11.39,2.21-17.09.05-.38-.52-.74-.71-.29a32.78,32.78,0,0,0-2.38,17.38A.46.46,0,0,0,212.26,254.22Z"/><path class="cls-5" d="M211.5,257.83c-2.07,8.11,1.35,16.41,4.24,23.88,3.11,8,5.91,16.44,9.83,24.12.33.65,1.35.2,1.16-.49-4.43-15.81-14.58-30.53-14.29-47.38A.48.48,0,0,0,211.5,257.83Z"/><path class="cls-5" d="M169.1,254.14c-3.48,3.78-5.62,9.11-7.49,13.84A91.23,91.23,0,0,0,157,283.86c-2,10.35-2.78,21.85-.07,32.14a.3.3,0,0,0,.59-.08c-.42-10.9-.76-21.34,1.51-32.11a93.45,93.45,0,0,1,4.38-14.74c1.93-4.92,4.82-9.48,6.59-14.44A.51.51,0,0,0,169.1,254.14Z"/><path class="cls-5" d="M182.52,236.08c-1.92.66-3.33,2.38-4.57,3.91a17,17,0,0,0-3,5.31c-.12.37.41.71.67.39,1.28-1.57,2.39-3.26,3.69-4.82s2.75-2.66,3.63-4.3C183,236.33,182.81,236,182.52,236.08Z"/></svg>