<svg id="Layer_1" data-name="Layer 1" xmlns="http://www.w3.org/2000/svg" viewBox="0 0 600 600"><defs><style>.cls-1{fill:#88e0ff;}.cls-2{fill:#231f20;}</style></defs><title>doodle</title><path class="cls-1" d="M296.34,546c-18.82,0-33.37-6.39-43.27-19-10.94-13.93-16-34.92-14.91-62.41a211,211,0,0,1,3-27.8,314.92,314.92,0,0,1-27.05,21.51c-26.34,18.59-49.23,28-68,28-9.75,0-18.36-2.6-25.6-7.72-10.09-7.15-16-16.72-17.6-28.46-3.16-23.33,11.49-49.57,21-63.7-10.2,4.66-25.95,10.38-41.95,10.38-12.7,0-23.44-3.64-31.94-10.82-10.19-8.6-17.09-22.3-20.5-40.73-7.51-40.59-4.29-69.6,9.85-88.69,11.44-15.43,29.89-24.43,57.87-28.15a97.71,97.71,0,0,1-5.39-28.88c-.53-17.12,3.75-41.69,27.17-61.57,11.71-9.95,23.12-15,33.9-15,15.77,0,26.35,10.52,31.91,18.07a77.47,77.47,0,0,1,13.18-30.48c8.18-11.39,19.4-20.57,33.34-27.28C248.5,75,270,70.44,295.12,69.83c1.4,0,2.8,0,4.16,0,30.85,0,52.19,8.66,63.43,25.75,8.23,12.51,10.84,29.74,7.55,49.84a128.17,128.17,0,0,1-2.94,13.34,183.55,183.55,0,0,1,19.5-16.62c16.64-12.28,42.93-26.92,73.6-26.92,24.17,0,47.64,9,69.75,26.66,26.75,21.39,39.46,43,37.79,64.25-1.61,20.45-16.27,36.31-29.37,46.55,1.19-.1,2.39-.15,3.61-.15,11.77,0,21.45,5,28.79,15a25,25,0,0,1,4.59,19.47c-3,18.6-23.46,37.08-33.59,45.22,8.24,1.83,21.7,6.65,30.23,19.16,9.38,13.75,10.15,32.87,2.29,56.82-4.32,13.17-10,23-17,29.25a31.29,31.29,0,0,1-21.34,8.31c-8.87,0-17.46-3.44-24.57-7.54,1.65,2.48,3.33,5.17,5,8,11.82,20.35,16.22,38.44,13.07,53.75-3.19,15.5-14.1,27.58-32.44,35.91a67.42,67.42,0,0,1-28,6.28c-13.7,0-27.56-4.49-41.19-13.35-10.75-7-21.39-16.73-31.62-28.92a234.49,234.49,0,0,1-21.84-31c-.47,13.65-3.78,35.86-18.62,53.11-13,15.07-32,23.13-56.69,24-1,0-1.95.05-2.9.05Z"/><path class="cls-2" d="M299.28,72.75c103.12,0,60.82,98.07,60.82,98.07s42.51-52.68,100.32-52.68c21,0,44.1,7,67.89,26,76.83,61.46,12.62,105.29-6.6,116.24a46.07,46.07,0,0,0-5,2.67s1.93-.91,5-2.67c4.71-2.19,12.26-4.93,20.49-4.93,8.9,0,18.6,3.2,26.4,13.76,19.81,26.83-34,64.79-34,64.79s59.94,3.38,37,73.19c-8.93,27.21-22.42,35.51-35.56,35.51-20.58,0-40.29-20.35-40.29-20.35s71.44,78.37.11,110.75a64.07,64.07,0,0,1-26.74,6c-57.52,0-97.95-82.44-97.95-82.44s9.78,83.49-72.11,86.24c-.95,0-1.88.05-2.8.05-78.44,0-50.53-114.6-50.53-114.6s-56,54.94-99.78,54.94a40.37,40.37,0,0,1-23.88-7.18C78.57,445.29,133.63,378,133.63,378s-25.86,15.85-51.77,15.85c-21.18,0-42.39-10.59-49.52-49.12-15.85-85.64,18.76-108.15,69-113.82,0,0-24-53.66,19.55-90.67,12.39-10.52,23.06-14.29,32-14.29,22.47,0,33.87,23.87,33.87,23.87s.19-74.38,108.5-77c1.39,0,2.76,0,4.09,0m0-5.94c-1.38,0-2.81,0-4.24,0-25.55.62-47.44,5.23-65.07,13.72-14.4,6.93-26,16.43-34.47,28.23a81,81,0,0,0-12.29,25.71c-6.48-7.1-16.57-14.53-30.38-14.53-11.52,0-23.57,5.28-35.84,15.69a78.7,78.7,0,0,0-23.15,32.21,81.86,81.86,0,0,0-5.06,31.72A101.2,101.2,0,0,0,93.21,226c-26.87,4.12-44.87,13.37-56.32,28.82-14.66,19.79-18.06,49.55-10.39,91,8.26,44.61,34.67,54,55.36,54,12.42,0,24.67-3.33,34.44-7-9.06,15.22-19.16,37.47-16.4,57.77,1.7,12.59,8,22.84,18.83,30.48,7.75,5.49,16.94,8.27,27.31,8.27,10.84,0,23.13-3.07,36.52-9.11a205.45,205.45,0,0,0,33.23-19.45c8.24-5.81,15.49-11.6,21.16-16.39-.78,5.79-1.48,12.68-1.76,20.14a144.06,144.06,0,0,0,2.22,33.12c2.48,12.63,7,23.14,13.33,31.23,10.48,13.35,25.83,20.11,45.61,20.11,1,0,2,0,3,0,25.52-.85,45.32-9.26,58.84-25,9.75-11.33,16.12-26.67,18.42-44.35.07-.48.13-1,.18-1.43a235.18,235.18,0,0,0,17.33,23.64c10.42,12.41,21.28,22.34,32.28,29.49,14.12,9.19,28.53,13.84,42.81,13.84a70.32,70.32,0,0,0,29.2-6.55c19.25-8.74,30.73-21.53,34.12-38,1.84-9,1.21-19-1.89-29.7a117,117,0,0,0-11.2-25.58,46.06,46.06,0,0,0,16.69,3.42,34.12,34.12,0,0,0,23.31-9.06c7.39-6.6,13.41-16.87,17.89-30.54,8.16-24.88,7.27-44.87-2.66-59.43-7.31-10.72-18-16.12-26.44-18.84,2.52-2.18,5.33-4.73,8.18-7.56,12.89-12.8,20.33-24.86,22.1-35.82a27.83,27.83,0,0,0-5.14-21.71c-6.87-9.31-16-14.76-26.73-15.93,11.64-10.52,22.84-25.19,24.28-43.44,1.75-22.28-11.33-44.75-38.9-66.8-22.65-18.12-46.74-27.31-71.6-27.31a112,112,0,0,0-42.31,8.67,154.4,154.4,0,0,0-33.06,18.83c-4.7,3.47-8.92,6.94-12.59,10.18.26-1.31.51-2.66.73-4a95.9,95.9,0,0,0,1-25.55,58.76,58.76,0,0,0-9-26.4c-11.82-18-34-27.09-65.91-27.09Z"/></svg>