<svg id="Layer_1" data-name="Layer 1" xmlns="http://www.w3.org/2000/svg" viewBox="0 0 600 600"><defs><style>.cls-1{fill:#be1e2d;}.cls-2{fill:#009444;}.cls-3{fill:#e27683;}.cls-4{fill:#754c29;}.cls-5{fill:#231f20;}</style></defs><title>doodle</title><path class="cls-1" d="M231.11,479.72c-10.13,1.35-19.17,4.66-27.21,11.83a44.56,44.56,0,0,0-15.06,29.34c-1.58,17.93,6,45,25.54,50.13,20.17,5.26,42.28,3.7,57.07-12.36,13.72-14.9,16-38.12,6.49-55.83a44.89,44.89,0,0,0-19.85-19.09C249.17,479.42,240.48,479.44,231.11,479.72Zm27.51,15.94c4.68,5.51,6.48,14,5.84,21.08-1.29,14.14-13.23,30.89-28.11,32.19-2.11.18-4.15-2.4-3.36-4.41a71.06,71.06,0,0,0,5.33-25.06c.1-8.42-2.4-15.46-4.42-23.37-2.24-1.47-1.31-5.85,1.77-5.65a137,137,0,0,1,16.77,2.1C255.08,493,256.82,493.54,258.62,495.66Z"/><path class="cls-2" d="M294.19,240.65l.93-.16c1-.14,2-.26,3-.39-.53-6.06,1.88-13.44,3.08-18.78a195,195,0,0,1,6.32-22.78,197.81,197.81,0,0,1,9.27-21.66c3.43-6.89,7-14.13,12.93-19.26,1.39-1.21,3.84-.07,3.25,1.9-2.12,7.13-6.3,13.45-9.64,20A205.19,205.19,0,0,0,314,201.33a199.41,199.41,0,0,0-6.87,21.61c-1.21,4.91-1.47,11.31-3.18,16.54,2.94-.25,5.91-.39,8.88-.39a4.92,4.92,0,0,1,.6-.91c13.5-15.83,27.4-31.4,40.39-47.65,12.43-15.56,23.19-32.48,29-51.66s7.31-39.27,7.73-59.22c.22-10.1.29-20.24,0-30.33-.14-4.75-.38-9.51-1-14.22Q389,30.63,388,26.23c-.08-.37-.16-.82-.25-1.31-.67,3.37-2.14,6.73-3.19,9.78-2,5.84-4.09,11.65-6.23,17.44-4.26,11.52-7.7,24.83-15,34.84-1.32,1.8-5.06,1.51-4.77-1.3,1.31-12.63,7.54-25,11.94-36.83,2.41-6.48,4.83-13,7.34-19.39.8-2.06,1.54-4.23,2.5-6.25-1.72,1.23-3.3,2.48-4.44,3.31A88.14,88.14,0,0,0,364.15,37a248,248,0,0,0-20,24.18,288.56,288.56,0,0,0-31.19,52.84,264.85,264.85,0,0,0-19.32,60.44,160.78,160.78,0,0,0-2.42,34.63C291.53,219.71,293.56,230.11,294.19,240.65Zm47.16-110c2.45-5.46,4.6-14.9,10.22-17.75a1.45,1.45,0,0,1,2.09.85c1.32,5.7-3.43,11.91-5.83,16.87-2.81,5.81-5.21,13.56-9.87,18.14a1.37,1.37,0,0,1-2.27-.6C334.43,142.43,339.06,135.81,341.35,130.7Z"/><path class="cls-3" d="M241.87,540.35c8.5-4.46,14.79-17.07,15.33-25.35.28-4.24-.38-13.18-4.45-15.73-1.86-1.17-6.26-.95-8.52-1.28l-4-.57C247.83,509.31,246.16,526.79,241.87,540.35Z"/><path class="cls-4" d="M324.48,257.9c0-3.2.4-6.51,0-9.61a1.85,1.85,0,0,1,0-.23L323,248c-1.72.25-4.15-.21-5.89-.27a115.6,115.6,0,0,0-20.79.94,124.27,124.27,0,0,0-20.44,4.58c-6.19,2-16.22,3.79-19,10.5a2.2,2.2,0,0,1-.15.26,37.47,37.47,0,0,0,.31,4c1.21,5.72,8.43,1.07,11.57-.27,5.76-2.44,12-3.39,18.11-4.46,7.47-1.3,15-2.43,22.47-3.55C314.2,259,319.4,257.75,324.48,257.9Z"/><path class="cls-2" d="M281.93,243.33c-3.58-3.55-5.54-8.94-7.57-13.38a169.23,169.23,0,0,1-7.48-19.52,173.12,173.12,0,0,1-5.27-21.4c-1.13-6.29-2.41-13-1.14-19.34.44-2.25,3.42-1.78,4.09,0,2.42,6.43,2.68,13.8,4,20.52a175,175,0,0,0,4.75,18.44,182,182,0,0,0,7.56,19.79c2,4.36,5,8.84,5.69,13.66,1.45-.33,2.9-.64,4.36-.91-8-17.54-7.72-39.76-5.45-58.41a198.9,198.9,0,0,1,4.38-23.49,2.92,2.92,0,0,1-.69-1.31c-2.62-10.22-4-20.08-8.53-29.76a140.38,140.38,0,0,0-15.26-24.58c-3.08-4.09-6.35-8-9.65-12q-2-2.34-4-4.65a32,32,0,0,1-2.66-3.09,3.11,3.11,0,0,0-.49-.56c-.45,1.36-1.64,3.67-1.91,4.27q-1.41,3.12-2.65,6.32c-1.52,3.91-2.88,7.9-4.08,11.93a156.26,156.26,0,0,0-5.93,52c.87,17.73,4.13,36.25,11.52,52.5a71.3,71.3,0,0,0,14.17,20.87c5.58,5.6,12.16,8.86,18.66,13.1C279.58,244,280.75,243.67,281.93,243.33ZM258,155.77c-1.95-5.6-3.6-13.48-2-19.29.47-1.66,3.12-2.26,3.92-.52,2.67,5.82,2.24,13.63,1.12,19.81C260.81,157.45,258.5,157.12,258,155.77Z"/><path class="cls-1" d="M402.69,461.77c-6.07-8.61-16.63-12.5-26.44-15s-19-2.71-28.32,1.06c-6.2,4.23-11.45,9.68-16.69,15.44-8.76,9.61-14.62,19.2-14.47,32.6.11,10.18,2.21,22.87,8.08,31.41s16.51,13,26.55,13.85c18.94,1.65,38.67-7.38,49.3-23.27S414.14,478,402.69,461.77Zm-22,56.31c-5.73,1.78-12.58.54-17.8-2.28-6.65-3.61-3.42-9-.67-14.06a46.61,46.61,0,0,0,5.49-21.5c.11-8-2.36-15.14-4.33-22.75-.45-1.78,1.67-3.4,3.15-2.41a2.38,2.38,0,0,1,2.14-.1c13.65,5.56,21.23,18.13,23.4,32.36C393.74,498.24,393.57,514.08,380.7,518.08Z"/><path class="cls-3" d="M372.13,464.33a47.43,47.43,0,0,1,2.55,19.38,51.53,51.53,0,0,1-5.88,20.86c-1.45,2.74-4.25,5.1-.25,6.38,6.08,1.95,13,1.1,15.6-5.48,1.9-4.86,1.42-10.64.77-15.71C383.66,480,379.65,470.49,372.13,464.33Z"/><path class="cls-5" d="M404.06,528.13c15.33-18.11,19.8-45.53,8.85-67-6.48-12.69-19.33-19-32.68-22.17a62.52,62.52,0,0,0-20.8-1.71,2.59,2.59,0,0,0-1-.12c-.66.06-1.32.14-2,.24a30.37,30.37,0,0,0-3.69-4.56,110,110,0,0,1-7.74-9.75,174.18,174.18,0,0,1-11.36-18.92,315.15,315.15,0,0,1-19.3-44.57,324.45,324.45,0,0,1-12-45c-2.87-15-3.54-30.15-5.67-45.19,2-.25,4.07-.51,6.08-.8,8.14-1.21,18.15-1.35,25.65-5.18a3.25,3.25,0,0,0,2.82-3.21c.36-6.87,2.7-18.47-6.26-20.13-.57-.1-1.16-.17-1.73-.26,22.21-25.46,47.19-51.09,61.39-81.93,14.85-32.27,15.1-68.66,14.41-103.51A184.6,184.6,0,0,0,397,28c-.85-5.14-1.71-17.2-9.05-17.23-6.31,0-13.94,6.65-18.52,10.41a141.8,141.8,0,0,0-17.76,18,300.2,300.2,0,0,0-51,86.45c-2.39,6.18-4.61,12.47-6.61,18.84a89.21,89.21,0,0,0-5.14-15.4,131.38,131.38,0,0,0-16-27.41c-6.07-8.15-12.56-17.37-20.07-24.25S241.43,82,239.06,87.64c-15.33,36.51-16.38,81.91-1.93,118.91a86.67,86.67,0,0,0,15.32,26c4.89,5.56,11.41,11.53,18.63,14.54-1.51.63-3,1.28-4.48,2-4.81,2.29-13.19,6.24-13.06,12.43a1.73,1.73,0,0,0-.38.57c-1.84,4.85-3.42,11.12,2.32,14,6.47,3.21,14.17-2.16,20.4-3.53,2.05-.45,4.13-.82,6.22-1.15-4.13,5.21-7,12.08-9.71,17.73a224.55,224.55,0,0,0-9.56,23.74c-5.58,16.38-9.5,33.27-12.9,50.21-3.66,18.25-7,36.58-10.12,54.93-1.65,9.66-3.17,19.35-4.44,29.07-1.09,8.38-3.15,17.87-2.25,26.45l-.31.06c-21.42-2.43-43,16.28-49.22,35.67-3.57,11.14-3,23.42.16,34.58,3,10.85,8.58,23.54,18.26,30.05,10,6.7,25.49,7.89,37.16,7.56a54.19,54.19,0,0,0,31.74-11.11c19.06-14.6,26.54-41.44,17.88-63.88a53.26,53.26,0,0,0-48.53-33.56c1.87-7.9,1.66-16.83,2.63-24.73,1.25-10.15,2.75-20.27,4.4-30.36q4.32-26.47,9.45-52.85c3.19-16.34,6.87-32.63,12.07-48.47a210.37,210.37,0,0,1,9.39-24c3.42-7.3,8.89-14.48,11.31-22.16l.82-.1c-.65,15.29,2.31,31.44,5.14,46.32a324.21,324.21,0,0,0,12.93,47.83,327.83,327.83,0,0,0,19.44,44.29,167.68,167.68,0,0,0,12,19.64c2.43,3.36,5.42,8.14,9.08,11.3-7.83,3.41-14.39,9.75-20.33,15.84-9,9.28-16.93,18.72-18.89,31.95-1.82,12.32.41,26.23,5.24,37.67,4.64,11,14.14,18.28,25.36,21.76C362.62,553.76,389,546,404.06,528.13Zm-146-44.39a44.89,44.89,0,0,1,19.85,19.09c9.51,17.71,7.23,40.93-6.49,55.83-14.79,16.06-36.9,17.62-57.07,12.36-19.51-5.09-27.12-32.2-25.54-50.13a44.56,44.56,0,0,1,15.06-29.34c8-7.17,17.08-10.48,27.21-11.83C240.48,479.44,249.17,479.42,258.09,483.74Zm35.5-309.24a264.85,264.85,0,0,1,19.32-60.44A288.56,288.56,0,0,1,344.1,61.22a248,248,0,0,1,20-24.18A88.14,88.14,0,0,1,375.9,26.52c1.14-.83,2.72-2.08,4.44-3.31-1,2-1.7,4.19-2.5,6.25-2.51,6.44-4.93,12.91-7.34,19.39-4.4,11.83-10.63,24.2-11.94,36.83-.29,2.81,3.45,3.1,4.77,1.3,7.31-10,10.75-23.32,15-34.84,2.14-5.79,4.23-11.6,6.23-17.44,1.05-3.05,2.52-6.41,3.19-9.78.09.49.17.94.25,1.31q1,4.39,1.52,8.87c.6,4.71.84,9.47,1,14.22.3,10.09.23,20.23,0,30.33-.42,19.95-1.91,40-7.73,59.22s-16.58,36.1-29,51.66c-13,16.25-26.89,31.82-40.39,47.65a4.92,4.92,0,0,0-.6.91c-3,0-5.94.14-8.88.39,1.71-5.23,2-11.63,3.18-16.54A199.41,199.41,0,0,1,314,201.33a205.19,205.19,0,0,1,9.39-21.77c3.34-6.59,7.52-12.91,9.64-20,.59-2-1.86-3.11-3.25-1.9-5.9,5.13-9.5,12.37-12.93,19.26a197.81,197.81,0,0,0-9.27,21.66,195,195,0,0,0-6.32,22.78c-1.2,5.34-3.61,12.72-3.08,18.78-1,.13-2,.25-3,.39l-.93.16c-.63-10.54-2.66-20.94-3-31.52A160.78,160.78,0,0,1,293.59,174.5Zm-33.84,56.79a71.3,71.3,0,0,1-14.17-20.87c-7.39-16.25-10.65-34.77-11.52-52.5a156.26,156.26,0,0,1,5.93-52c1.2-4,2.56-8,4.08-11.93q1.25-3.19,2.65-6.32c.27-.6,1.46-2.91,1.91-4.27a3.11,3.11,0,0,1,.49.56A32,32,0,0,0,251.78,87q2,2.31,4,4.65c3.3,3.91,6.57,7.87,9.65,12a140.38,140.38,0,0,1,15.26,24.58c4.56,9.68,5.91,19.54,8.53,29.76a2.92,2.92,0,0,0,.69,1.31,198.9,198.9,0,0,0-4.38,23.49c-2.27,18.65-2.52,40.87,5.45,58.41-1.46.27-2.91.58-4.36.91-.71-4.82-3.73-9.3-5.69-13.66a182,182,0,0,1-7.56-19.79,175,175,0,0,1-4.75-18.44c-1.36-6.72-1.62-14.09-4-20.52-.67-1.78-3.65-2.25-4.09,0-1.27,6.33,0,13.05,1.14,19.34a173.12,173.12,0,0,0,5.27,21.4A169.23,169.23,0,0,0,274.36,230c2,4.44,4,9.83,7.57,13.38-1.18.34-2.35.68-3.52,1.06C271.91,240.15,265.33,236.89,259.75,231.29Zm27,32c-6.12,1.07-12.35,2-18.11,4.46-3.14,1.34-10.36,6-11.57.27a37.47,37.47,0,0,1-.31-4,2.2,2.2,0,0,0,.15-.26c2.74-6.71,12.77-8.52,19-10.5a124.27,124.27,0,0,1,20.44-4.58,115.6,115.6,0,0,1,20.79-.94c1.74.06,4.17.52,5.89.27l1.37,0a1.85,1.85,0,0,0,0,.23c.44,3.1.09,6.41,0,9.61-5.08-.15-10.28,1.08-15.22,1.82C301.76,260.84,294.26,262,286.79,263.27ZM351.4,541.15c-10-.88-20.68-5.32-26.55-13.85s-8-21.23-8.08-31.41c-.15-13.4,5.71-23,14.47-32.6,5.24-5.76,10.49-11.21,16.69-15.44,9.29-3.77,18.42-3.57,28.32-1.06s20.37,6.37,26.44,15c11.45,16.23,8.58,40.31-2,56.11S370.34,542.8,351.4,541.15Z"/><path class="cls-5" d="M261.11,155.77c1.12-6.18,1.55-14-1.12-19.81-.8-1.74-3.45-1.14-3.92.52-1.64,5.81,0,13.69,2,19.29C258.5,157.12,260.81,157.45,261.11,155.77Z"/><path class="cls-5" d="M338,148.81c4.66-4.58,7.06-12.33,9.87-18.14,2.4-5,7.15-11.17,5.83-16.87a1.45,1.45,0,0,0-2.09-.85c-5.62,2.85-7.77,12.29-10.22,17.75-2.29,5.11-6.92,11.73-5.66,17.51A1.37,1.37,0,0,0,338,148.81Z"/><path class="cls-5" d="M233.9,496.09c2,7.91,4.52,15,4.42,23.37A71.06,71.06,0,0,1,233,544.52c-.79,2,1.25,4.59,3.36,4.41,14.88-1.3,26.82-18,28.11-32.19.64-7.05-1.16-15.57-5.84-21.08-1.8-2.12-3.54-2.62-6.18-3.12a137,137,0,0,0-16.77-2.1C232.59,490.24,231.66,494.62,233.9,496.09Zm10.33,1.9c2.26.33,6.66.11,8.52,1.28,4.07,2.55,4.73,11.49,4.45,15.73-.54,8.28-6.83,20.89-15.33,25.35,4.29-13.56,6-31-1.68-42.93Z"/><path class="cls-5" d="M368.68,455a2.38,2.38,0,0,0-2.14.1c-1.48-1-3.6.63-3.15,2.41,2,7.61,4.44,14.76,4.33,22.75a46.61,46.61,0,0,1-5.49,21.5c-2.75,5.09-6,10.45.67,14.06,5.22,2.82,12.07,4.06,17.8,2.28,12.87-4,13-19.84,11.38-30.74C389.91,473.11,382.33,460.54,368.68,455Zm15.47,50.49c-2.57,6.58-9.52,7.43-15.6,5.48-4-1.28-1.2-3.64.25-6.38a51.53,51.53,0,0,0,5.88-20.86,47.43,47.43,0,0,0-2.55-19.38c7.52,6.16,11.53,15.63,12.79,25.43C385.57,494.83,386.05,500.61,384.15,505.47Z"/></svg>