<svg id="Layer_1" data-name="Layer 1" xmlns="http://www.w3.org/2000/svg" viewBox="0 0 600 600"><defs><style>.cls-1{fill:#8dc63f;}.cls-2{fill:#fff;}.cls-3{fill:#009444;}.cls-4{fill:#231f20;}</style></defs><title>doodle</title><path class="cls-1" d="M146.3,316.09C135.4,307,121,301.91,107,300.38c-28.25-3.11-52.61,9.67-61.19,37.5-7.79,25.3-7,56.87,12.63,76.37s49.37,37.56,77.75,29.47a7.08,7.08,0,0,1,8.58,4.87c8.93,28.81,30.24,50.75,52.67,69.92,11.87,10.15,24,20.9,37.27,29.16,8.44,5.25,17.07,7.72,26,9.1-4.51-3.29-8.76-7-12.85-10.63-10.27-9.19-20.51-18.55-29.78-28.76a141.38,141.38,0,0,1-15.46-20.54c-5.85-5.33-10.51-11.89-15.37-18.34-7.91-10.5-15.87-21.13-23.19-32.07-4.13-6.17-14-18.33-9.34-26.36,2-3.45,6.18-5.51,8.83-8.49,3.68-4.14,4.76-9.34,7.51-13.79q-3.93-22.57-6.07-45.41C162.25,338.27,157.71,325.61,146.3,316.09ZM158.17,381c-.34,13.14-3.5,26.32-14.11,34.95-7.2,5.85-20.07,12.36-30.09,10.46a53.17,53.17,0,0,1-11.93-.07c-15.37-1.9-31.42-6.77-39.49-21-12.61-22.21-11.18-53.63,4.55-73.85,14.35-18.42,41.7-26,62.93-15.31C153.38,328,158.79,357.25,158.17,381Z"/><path class="cls-1" d="M425.65,347.57a3.73,3.73,0,0,1,.54.64c3.76,6.09,5.74,13.12,10.27,18.8a37.75,37.75,0,0,0,19,12.58,6.36,6.36,0,0,1,4.36,7.67c-6,24.76-23.92,46.9-39,66.87C407,472.39,391.39,489,377,506.69c-10.89,18.21-24.39,35.62-40.66,48.26,2-.82,4-1.66,5.9-2.56,23.35-10.87,43.33-27.43,62.11-44.79,35.79-33.09,72.65-70.27,88.77-117.44,1.45-4.24,5-5.79,9.18-5.21,27.59,3.83,52-19.36,62.06-43,10.33-24.13,10-53.38-1.49-77.05-22.27-45.7-93.37-69.51-130.22-28.36q-.15,35.24-2.93,70.42C428.62,320.48,427.31,334,425.65,347.57ZM437,283.73a57.82,57.82,0,0,1,27.53-33.89c24.43-13.58,55.31-9.63,73.81,11.88,19,22.09,21.94,54.45,4.14,78.13-16.91,22.5-52.4,36.25-78.25,20.44-8.92-5.45-16.15-14.22-21.28-23.82-.1-.11-.2-.22-.29-.34C432.16,321.75,432,300.31,437,283.73Z"/><path class="cls-2" d="M513.14,292.45c1.09-2.35,1.44-8.48-2.6-8-2,.25-3.9,3.18-5.7,5.68a13.2,13.2,0,0,0,1,3.89C508,298.93,511.22,296.59,513.14,292.45Z"/><path class="cls-2" d="M452.68,323.7c5.59,12.23,14.64,24.54,28.55,27.27,21.52,4.23,44.73-8.83,54-28.31,9.15-19.23,2.3-43.27-13.52-56.85-16.24-13.94-40.14-12.94-57.09-.8-8.74,6.25-14.3,15-17.15,25.21-.36,4.13-.94,8.26-.62,12.47A64.78,64.78,0,0,0,452.68,323.7ZM496,278.1a19,19,0,0,1,3.69-4.7,17,17,0,0,1,18.6-2.5c13.72,6.62,13.59,24.83,3.85,34.9-4.76,4.93-12.13,7.62-18.78,5.34s-10.28-8.89-11.5-15.39C490.66,289.5,491.26,282.72,496,278.1Z"/><path class="cls-2" d="M428.85,145.93c23.14-12.88,19.95-51.09,3.74-68.25-9.32-9.87-22-12.31-34.54-7.37-10.31,4.06-17.61,10.86-25.21,18.06-5.42,12.45-6.3,27.06-.36,38.75C382.51,146.85,409,157,428.85,145.93Zm-37.53-47.1A18.11,18.11,0,0,1,398.09,86a14.79,14.79,0,0,1,6.36-3.25,6.88,6.88,0,0,1,1.9-.08l.47-.2c10.49-3.68,20.37,8.13,21.38,17.52a17.16,17.16,0,0,1-19,19.18C399.2,118.11,390.69,109.1,391.32,98.83Z"/><path class="cls-2" d="M412.61,100.16c-1.05-2.66-3.72-3.64-6-5a7.24,7.24,0,0,0-1.44,3.65,5.82,5.82,0,0,0,4.75,5.56C412.9,104.9,413.6,102.66,412.61,100.16Z"/><path class="cls-3" d="M354.14,512.55c29.89-41.36,44.62-91.24,53-141,9.73-58,12.28-117.27,9.83-176-.19-4.45,3.61-7,7.5-7.5,27.88-3.48,45.05-33.77,46.37-59.49,2.41-47-40.68-95.92-90.29-79.1-48.92,16.59-57.95,114.31,1.12,122.78,3.51.5,5.23,4.34,5.6,7.35a799.74,799.74,0,0,1,5.62,106.17C392.21,340.24,388,397,371.91,449.34c-7.16,23.3-17,46.13-31.14,66.09a173.39,173.39,0,0,1-23.08,26.79c-6.13,5.72-12.83,10.76-19.38,16C321.6,551.34,340.32,531.68,354.14,512.55Zm3-395.33a49.09,49.09,0,0,1,4.21-27.63c.33-13.81,15.64-23,26.77-28.45,13.58-6.68,28.34-8.49,42.11-1.31,23.61,12.3,32,43.91,26.39,68.48-5.67,24.73-30.26,38.25-54.56,34C379.57,158.41,360.22,140.17,357.17,117.22Z"/><path class="cls-2" d="M100.63,326.35C76,331.72,65.33,357.42,69,380.64c.93,6,2.63,12.36,5.65,17.65,4.3,7.52,11,10.14,19,12.26,7.07,1.88,14.55,3.41,21.87,2.34.74-.11,1.45-.25,2.14-.41,2.58-1,5.23-1.77,7.83-2.7,2.19-1,4.36-2,6.64-3a20.34,20.34,0,0,0,6-5.38c7.13-9.65,6-25,4.71-36.32C140.22,342.35,126.28,320.77,100.63,326.35ZM114,380.3c-9.06,7.58-27.64,3-32.17-7.75-2.2-5.23-1.71-12,2.38-16.18A13.93,13.93,0,0,1,89.28,353c5.73-4.42,15.12-5.49,21.13-2C120.6,356.77,123.45,372.4,114,380.3Z"/><path class="cls-2" d="M102,363.59c-3-.4-5.27,3.16-7.48,5a4.62,4.62,0,0,0,.5.37c1.94,1.16,8.85,2.18,10,0S104,363.86,102,363.59Z"/><path class="cls-1" d="M251.36,373.69A66,66,0,0,0,261.87,383c3.14,2.21,6.78,3.83,9.17,6.92,3.52,4.54,2.57,10.29,2.28,15.66-.35,6.25-.79,12.49-1.2,18.73-.82,12.47-1.68,25-1.57,37.47a165.34,165.34,0,0,0,12.86,63A182.07,182.07,0,0,0,297,538.27a486.79,486.79,0,0,1-2.17-83.46c.87-14.28,2.42-28.52,4.51-42.68,1.73-11.66,2.11-22.24,14.57-26.49,22.92-7.82,35.91-26.61,39.5-50.34,3-19.87.68-43.54-12.4-59.65-27.5-33.88-83.11-15.38-101.62,18.09-9.18,16.61-9.65,36.24-3.5,53.94A74.7,74.7,0,0,0,251.36,373.69Zm-2.81-63.24a50,50,0,0,1,16.2-25.72,4.38,4.38,0,0,1,1.33-1.88c10.39-8.49,24.28-13.78,37.78-11.11,12.54,2.49,22.28,12.11,28.95,22.54,12.64,19.77,14.47,45.65-1.19,64.27-14.12,16.78-41.59,25.82-61.24,13.26C251,359.4,242.79,332.17,248.55,310.45Z"/><path class="cls-3" d="M173.87,251.7a4.56,4.56,0,0,1,1.31,3.06c.53,15-.66,30.13-.48,45.17.17,14.55.82,29.12,2,43.62A550.91,550.91,0,0,0,191.06,431c6.84,27.64,15.33,53.27,34.6,74.87,8.62,9.67,18.18,18.47,27.71,27.22,9.8,9,19.37,17,31.86,21.94l.16.08c2.48-2.65,5.06-5.2,7.68-7.7-42.47-29.79-60.51-85.07-68.5-133.93-4.32-26.41-6.9-53.19-8.89-79.86-1.05-14.14-1.74-28.32-1.63-42.5.08-9.39.6-19.36,5.28-27.74,5.61-10.06,16.32-11.68,24.45-18.69,9-7.74,13.37-20.3,16.11-31.47,5.8-23.67,2.79-49.95-9.86-71a83.54,83.54,0,0,0-49.92-37.45c-11.29-3-24-3.66-35.08.48-11.26,4.19-19.1,14-25.29,23.85-13.68,21.81-23,45.68-15.77,71.49,6.3,22.59,23.85,40.36,45.94,47.87A7,7,0,0,1,173.87,251.7Zm-29.44-31.34c-7.09-7.57-10.92-18.79-13-28.6-3.12-15-1.23-31,7.29-43.93,14.8-22.53,43.31-32.14,68.44-21.93,27.35,11.12,39.55,40,36.72,68.29s-23.2,54.19-53.78,54C170.39,248.07,153.43,236.59,144.43,220.36Z"/><path class="cls-2" d="M303.42,362.72c23.58-8.11,31.94-32.88,21.74-54.77-4.23-9.08-11.34-19.09-21.21-22.52-11.24-3.9-22.29,2.61-32.49,6.59A48.66,48.66,0,0,0,259,326.16c.51,11.21,5,22.8,13,30.8C280.46,365.46,292.38,366.52,303.42,362.72Zm-18.3-52c2.06-5.16,5.7-10.12,11.55-11.13a9.18,9.18,0,0,1,1.89-.1A14,14,0,0,1,308.64,301a18.06,18.06,0,0,1,9.17,14.59c1,12-7.12,28.32-21.23,25C283,337.46,280.63,321.94,285.12,310.69Z"/><path class="cls-2" d="M299.16,325.55c1.41,1,1,.31,1.45-.87.8-2.15,1.85-4.31,1.93-6.66.11-3.3-1.49-3.74-3.68-4-.05.14-.1.26-.16.41C297.68,317.29,296.07,323.4,299.16,325.55Z"/><path class="cls-2" d="M221.94,157.59c-13-22.45-43.51-28.15-63.31-11.47A43.5,43.5,0,0,0,143,178.93a64.25,64.25,0,0,0,.47,9,4,4,0,0,1,2.66,2.14c6.54,12.7,9.86,27.53,22.33,36a37.89,37.89,0,0,0,37.82,2.67C231,216.67,234.62,179.54,221.94,157.59ZM183.21,188a18.94,18.94,0,0,1-2-15.17,16.56,16.56,0,0,1,2.7-5.31c.35-4.1,3.17-7.65,7.33-9.77a17.54,17.54,0,0,1,16.78.93c10.09,6.17,12,23.67,3.75,32.07C203.72,199,189.39,197.81,183.21,188Z"/><path class="cls-2" d="M196.75,172.53c-1,.63-1.79,1.24-2.64,1.78a7.48,7.48,0,0,0,.81,4.81c1,1.72,3.12,3,5.07,1.6s2-7,.13-8.56C199,171.22,197.85,171.83,196.75,172.53Z"/><path class="cls-4" d="M135,293.9c-23.79-10.61-55.39-12-77.48,3.4C37.8,311.06,29.6,335,27.84,358.07c-1,13.51-.49,28.22,4.09,41.08,4.5,12.67,13.29,22.72,23.45,31.27,21.58,18.15,49.45,33.36,78.14,28.22,10.93,28.95,32.71,51.57,56.15,71.33,12.84,10.82,26.06,22.53,40.69,30.86a82,82,0,0,0,27.93,9.45,6.64,6.64,0,0,0,1.23.84c24.61,12.86,57.3,7.89,82.07-2,25.77-10.3,48-27.35,68.44-45.82,38.79-35,76.24-73.81,95.25-123.2,51.31,3,84.61-53,82.3-99.94-2.56-52-42.14-94.35-94.46-98.39-20.76-1.61-45.34,3.56-60.58,18.34-.08-6.15-.2-12.3-.41-18.46,26.8-6.64,46.21-29.77,52.16-56.88A97.83,97.83,0,0,0,462,59.66C442.58,38,411.46,27.53,383,33.74c-33.52,7.3-51.66,40.18-56.08,72.05-4.61,33.28,11,71.78,45.79,80.18,6.18,57.92,7.15,116.29,1.46,174.32-4.73,48.29-14,98-39.62,140a165.27,165.27,0,0,1-24.28,31,486.12,486.12,0,0,1-1.52-74.87c.88-15.14,2.46-30.24,4.83-45.22.41-2.63.32-7.79,1.74-10s4.53-2.49,6.78-3.25A59.3,59.3,0,0,0,337,390.44c36.87-25.82,42.57-89.46,14.65-123.79C323.59,232.12,268.78,241.51,241,271a74.85,74.85,0,0,0-15.42,24.51c-.37-9.58,0-19.81,4.67-27,3.46-5.33,9.63-7.07,14.88-10.07A43.77,43.77,0,0,0,258,247c30.11-38.72,21.54-101.33-13.52-133.66C227.72,97.93,205.66,88.1,182.73,88c-26.56-.15-44.53,15.31-57.51,37.2-15.17,25.56-23.8,53.94-13.93,83.17,8.49,25.18,28.32,44.36,53.1,53.3-2.52,17.56-2.77,35.83-2,53.9A73,73,0,0,0,135,293.9Zm297.63-57.34c36.85-41.15,108-17.34,130.22,28.36,11.53,23.67,11.82,52.92,1.49,77.05-10.11,23.62-34.47,46.81-62.06,43-4.2-.58-7.73,1-9.18,5.21-16.12,47.17-53,84.35-88.77,117.44-18.78,17.36-38.76,33.92-62.11,44.79-1.94.9-3.91,1.74-5.9,2.56,16.27-12.64,29.77-30.05,40.66-48.26,14.42-17.68,30.07-34.3,43.84-52.56,15.06-20,33-42.11,39-66.87a6.36,6.36,0,0,0-4.36-7.67,37.75,37.75,0,0,1-19-12.58c-4.53-5.68-6.51-12.71-10.27-18.8a3.73,3.73,0,0,0-.54-.64c1.66-13.53,3-27.09,4-40.59Q432.5,271.82,432.62,236.56ZM396.1,468.33c13.07-31.43,21.14-64.58,26.42-98.21,5.37,8.62,14.66,15.67,23.69,19.47-3.19,10.1-8.58,19.2-14.26,28.22q-10.67,16.94-22.5,33.09Q403,459.75,396.1,468.33Zm-78.41,73.89a173.39,173.39,0,0,0,23.08-26.79c14.11-20,24-42.79,31.14-66.09C388,397,392.21,340.24,392.86,285.78a799.74,799.74,0,0,0-5.62-106.17c-.37-3-2.09-6.85-5.6-7.35-59.07-8.47-50-106.19-1.12-122.78,49.61-16.82,92.7,32.08,90.29,79.1-1.32,25.72-18.49,56-46.37,59.49-3.89.49-7.69,3.05-7.5,7.5,2.45,58.69-.1,118-9.83,176-8.35,49.78-23.08,99.66-53,141-13.82,19.13-32.54,38.79-55.83,45.66C304.86,553,311.56,547.94,317.69,542.22Zm-78.3-248.48c18.51-33.47,74.12-52,101.62-18.09,13.08,16.11,15.41,39.78,12.4,59.65-3.59,23.73-16.58,42.52-39.5,50.34-12.46,4.25-12.84,14.83-14.57,26.49-2.09,14.16-3.64,28.4-4.51,42.68A486.79,486.79,0,0,0,297,538.27a182.07,182.07,0,0,1-13.59-13.48,165.34,165.34,0,0,1-12.86-63c-.11-12.5.75-25,1.57-37.47.41-6.24.85-12.48,1.2-18.73.29-5.37,1.24-11.12-2.28-15.66-2.39-3.09-6-4.71-9.17-6.92a66,66,0,0,1-10.51-9.32,74.7,74.7,0,0,1-15.47-26C229.74,330,230.21,310.35,239.39,293.74ZM240.3,380a77.44,77.44,0,0,0,12.56,11.78c2.41,1.83,6,3.37,7.4,6,1.68,3.07.64,7.46.44,10.93-.93,16.13-2.34,32.22-2.16,48.39.14,12.7,1.15,26.34,4.18,39.36-2.56-4.44-5-9-7.15-13.79-12.19-26.43-18-55.54-21.7-84.26-1.42-11.21-2.74-22.47-3.87-33.75A84.43,84.43,0,0,0,240.3,380ZM124,200.66c-7.2-25.81,2.09-49.68,15.77-71.49,6.19-9.86,14-19.66,25.29-23.85,11.09-4.14,23.79-3.43,35.08-.48A83.54,83.54,0,0,1,250,142.29c12.65,21,15.66,47.29,9.86,71-2.74,11.17-7.14,23.73-16.11,31.47-8.13,7-18.84,8.63-24.45,18.69-4.68,8.38-5.2,18.35-5.28,27.74-.11,14.18.58,28.36,1.63,42.5,2,26.67,4.57,53.45,8.89,79.86,8,48.86,26,104.14,68.5,133.93-2.62,2.5-5.2,5-7.68,7.7l-.16-.08c-12.49-4.95-22.06-12.94-31.86-21.94-9.53-8.75-19.09-17.55-27.71-27.22-19.27-21.6-27.76-47.23-34.6-74.87a550.91,550.91,0,0,1-14.35-87.48c-1.19-14.5-1.84-29.07-2-43.62-.18-15,1-30.15.48-45.17a4.56,4.56,0,0,0-1.31-3.06,7,7,0,0,0-4-3.17C147.82,241,130.27,223.25,124,200.66Zm61.78,259.11c-4.08-5.72-8.17-11.44-12.05-17.3-2.73-4.11-6.46-8.87-8-13.62s3.12-5.68,6.24-8.89c.94-1,1.87-2,2.77-3.13q2.64,12.65,5.85,25.18C182.14,448.09,183.85,454,185.75,459.77ZM165,352.38q2.15,22.81,6.07,45.41c-2.75,4.45-3.83,9.65-7.51,13.79-2.65,3-6.81,5-8.83,8.49-4.7,8,5.21,20.19,9.34,26.36,7.32,10.94,15.28,21.57,23.19,32.07,4.86,6.45,9.52,13,15.37,18.34a141.38,141.38,0,0,0,15.46,20.54c9.27,10.21,19.51,19.57,29.78,28.76,4.09,3.66,8.34,7.34,12.85,10.63-8.93-1.38-17.56-3.85-26-9.1-13.28-8.26-25.4-19-37.27-29.16-22.43-19.17-43.74-41.11-52.67-69.92a7.08,7.08,0,0,0-8.58-4.87c-28.38,8.09-58.17-10.08-77.75-29.47S38,363.18,45.82,337.88c8.58-27.83,32.94-40.61,61.19-37.5,14,1.53,28.39,6.61,39.29,15.71C157.71,325.61,162.25,338.27,165,352.38Z"/><path class="cls-4" d="M270.38,371.81c19.65,12.56,47.12,3.52,61.24-13.26,15.66-18.62,13.83-44.5,1.19-64.27-6.67-10.43-16.41-20-28.95-22.54-13.5-2.67-27.39,2.62-37.78,11.11a4.38,4.38,0,0,0-1.33,1.88,50,50,0,0,0-16.2,25.72C242.79,332.17,251,359.4,270.38,371.81ZM271.46,292c10.2-4,21.25-10.49,32.49-6.59,9.87,3.43,17,13.44,21.21,22.52,10.2,21.89,1.84,46.66-21.74,54.77-11,3.8-23,2.74-31.48-5.76-8-8-12.47-19.59-13-30.8A48.66,48.66,0,0,1,271.46,292Z"/><path class="cls-4" d="M296.58,340.62c14.11,3.29,22.27-13,21.23-25A18.06,18.06,0,0,0,308.64,301a14,14,0,0,0-10.08-1.54,9.18,9.18,0,0,0-1.89.1c-5.85,1-9.49,6-11.55,11.13C280.63,321.94,283,337.46,296.58,340.62Zm2.12-26.19c.06-.15.11-.27.16-.41,2.19.26,3.79.7,3.68,4-.08,2.35-1.13,4.51-1.93,6.66-.43,1.18,0,1.85-1.45.87C296.07,323.4,297.68,317.29,298.7,314.43Z"/><path class="cls-4" d="M456.65,128.31c5.63-24.57-2.78-56.18-26.39-68.48-13.77-7.18-28.53-5.37-42.11,1.31C377,66.61,361.71,75.78,361.38,89.59a49.09,49.09,0,0,0-4.21,27.63c3.05,22.95,22.4,41.19,44.92,45.11C426.39,166.56,451,153,456.65,128.31Zm-84.17-1.19c-5.94-11.69-5.06-26.3.36-38.75,7.6-7.2,14.9-14,25.21-18.06,12.51-4.94,25.22-2.5,34.54,7.37,16.21,17.16,19.4,55.37-3.74,68.25C409,157,382.51,146.85,372.48,127.12Z"/><path class="cls-4" d="M428.2,100c-1-9.39-10.89-21.2-21.38-17.52l-.47.2a6.88,6.88,0,0,0-1.9.08A14.79,14.79,0,0,0,398.09,86a18.11,18.11,0,0,0-6.77,12.83c-.63,10.27,7.88,19.28,17.87,20.34A17.16,17.16,0,0,0,428.2,100Zm-18.31,4.4a5.82,5.82,0,0,1-4.75-5.56,7.24,7.24,0,0,1,1.44-3.65c2.31,1.34,5,2.32,6,5C413.6,102.66,412.9,104.9,409.89,104.39Z"/><path class="cls-4" d="M503.32,311.14c6.65,2.28,14-.41,18.78-5.34,9.74-10.07,9.87-28.28-3.85-34.9a17,17,0,0,0-18.6,2.5,19,19,0,0,0-3.69,4.7c-4.7,4.62-5.3,11.4-4.14,17.65C493,302.25,496.74,308.88,503.32,311.14Zm7.22-26.65c4-.52,3.69,5.61,2.6,8-1.92,4.14-5.18,6.48-7.32,1.61a13.2,13.2,0,0,1-1-3.89C506.64,287.67,508.54,284.74,510.54,284.49Z"/><path class="cls-4" d="M442.91,336.47c5.13,9.6,12.36,18.37,21.28,23.82,25.85,15.81,61.34,2.06,78.25-20.44,17.8-23.68,14.85-56-4.14-78.13-18.5-21.51-49.38-25.46-73.81-11.88A57.82,57.82,0,0,0,437,283.73c-4.94,16.58-4.8,38,5.66,52.4C442.71,336.25,442.81,336.36,442.91,336.47Zm4.55-46.25c2.85-10.18,8.41-19,17.15-25.21,16.95-12.14,40.85-13.14,57.09.8,15.82,13.58,22.67,37.62,13.52,56.85-9.26,19.48-32.47,32.54-54,28.31-13.91-2.73-23-15-28.55-27.27a64.78,64.78,0,0,1-5.84-21C446.52,298.48,447.1,294.35,447.46,290.22Z"/><path class="cls-4" d="M243.92,194.19c2.83-28.33-9.37-57.17-36.72-68.29-25.13-10.21-53.64-.6-68.44,21.93-8.52,13-10.41,28.94-7.29,43.93,2,9.81,5.87,21,13,28.6,9,16.23,26,27.71,45.71,27.83C220.72,248.38,241.07,222.66,243.92,194.19Zm-75.46,31.89c-12.47-8.49-15.79-23.32-22.33-36a4,4,0,0,0-2.66-2.14,64.25,64.25,0,0,1-.47-9,43.5,43.5,0,0,1,15.63-32.81c19.8-16.68,50.35-11,63.31,11.47,12.68,21.95,9.07,59.08-15.66,71.16A37.89,37.89,0,0,1,168.46,226.08Z"/><path class="cls-4" d="M208,158.72a17.54,17.54,0,0,0-16.78-.93c-4.16,2.12-7,5.67-7.33,9.77a16.56,16.56,0,0,0-2.7,5.31,18.94,18.94,0,0,0,2,15.17c6.18,9.77,20.51,10.92,28.52,2.75C220,182.39,218.07,164.89,208,158.72Zm-8,22c-2,1.41-4,.12-5.07-1.6a7.48,7.48,0,0,1-.81-4.81c.85-.54,1.66-1.15,2.64-1.78s2.22-1.31,3.37-.37C202,173.69,201.94,179.31,200,180.72Z"/><path class="cls-4" d="M130,316.18c-21.23-10.71-48.58-3.11-62.93,15.31-15.73,20.22-17.16,51.64-4.55,73.85,8.07,14.2,24.12,19.07,39.49,21a53.17,53.17,0,0,0,11.93.07c10,1.9,22.89-4.61,30.09-10.46,10.61-8.63,13.77-21.81,14.11-34.95C158.79,357.25,153.38,328,130,316.18Zm8,85.19a20.34,20.34,0,0,1-6,5.38c-2.28,1-4.45,2.06-6.64,3-2.6.93-5.25,1.73-7.83,2.7-.69.16-1.4.3-2.14.41-7.32,1.07-14.8-.46-21.87-2.34-8-2.12-14.68-4.74-19-12.26-3-5.29-4.72-11.66-5.65-17.65-3.63-23.22,7-48.92,31.67-54.29,25.65-5.58,39.59,16,42.14,38.7C144.05,376.38,145.19,391.72,138.06,401.37Z"/><path class="cls-4" d="M110.41,350.91c-6-3.45-15.4-2.38-21.13,2a13.93,13.93,0,0,0-5.06,3.42c-4.09,4.21-4.58,10.95-2.38,16.18C86.37,383.3,105,387.88,114,380.3,123.45,372.4,120.6,356.77,110.41,350.91Zm-5.32,18c-1.19,2.15-8.1,1.13-10,0a4.62,4.62,0,0,1-.5-.37c2.21-1.79,4.52-5.35,7.48-5C104,363.86,106.19,366.94,105.09,368.94Z"/></svg>