<svg id="Layer_1" data-name="Layer 1" xmlns="http://www.w3.org/2000/svg" viewBox="0 0 600 600"><defs><style>.cls-1{fill:#be1e2d;}.cls-2{fill:#e27683;}.cls-3{fill:#231f20;}</style></defs><title>doodle</title><path class="cls-1" d="M172,161.88c30.59,4.65,56.63,21.38,77.72,43.34-2.7-17-4-34.08-2.91-50.68-16.3-7.68-30.94-15.8-49.39-17.6-19.64-1.92-39.08,2.31-57,10.3-15.88,7.09-32.41,17.14-43.91,30.83C118.19,163.63,146.07,157.93,172,161.88Z"/><path class="cls-2" d="M304.25,86.78c-55.54,40.78-34.7,116.53-17.68,171,4.32,13.79-16.08,19.36-22.68,8.22-28.27-47.69-77.33-97.47-138.12-77.12-66.54,22.27-45.48,98.68-20.53,145.26,31.88,59.5,83,103.25,137.29,141.66,46.78,33.08,96.55,68.36,149.55,91.1,28.79-1.43,31.45-55,34.39-75.3q7.45-51.6,11.35-103.62c5.13-68.5,9.22-140.12-8.47-207.21C416.41,131.65,367.77,40.13,304.25,86.78Z"/><path class="cls-1" d="M427.15,97.61a130.32,130.32,0,0,0-25-19.28A117.77,117.77,0,0,1,413.8,90.56c41,49.8,51.74,119.24,53.66,181.74,2.22,72.29-4.65,145.52-15.07,217-1.73,11.84-2.89,25.37-5.27,38.64,8.61-10.8,17-22.3,27-31.34-2.28-20.71.79-42.08,2.66-62.68q3.3-36.36,6.56-72.72c4.16-47,7.94-94.77.7-141.66C477.16,174.9,460,129.71,427.15,97.61Z"/><path class="cls-3" d="M421,62.61c-24.92-16.26-52.17-31.19-94.23-14.52-19.08,8.66-33,15.28-46.29,28.55-16.56,16.49-25.89,35.53-30.47,55.82-30.51-24.19-73.92-17.72-107.33-3.76C107.32,143.49,75.55,180.84,63.64,220c-16.78,48,9.63,105.1,35.14,144.75,32.34,50.27,77.28,92.14,125.72,126.69,28.28,20.16,57.68,38.86,87.38,56.84,20.15,12.2,39.87,19.67,62,30.27.05,0,.07.11.13.15,21.4,12.9,36.92,11.64,51.61-2.5l67.56-72.81c1.24-2.81,2.23-6.21,3-13.07,3-25.9,3.71-42.74,5.85-66.31,2.6-28.63,5.45-57.24,7.7-85.89,4.22-53.75,5.64-109.31-9.88-161.54C486.56,131.89,460.78,88.57,421,62.61ZM140.48,147.24c17.88-8,37.32-12.22,57-10.3,18.45,1.8,33.09,9.92,49.39,17.6-1.13,16.6.21,33.7,2.91,50.68-21.09-22-47.13-38.69-77.72-43.34-26-3.95-53.83,1.75-75.45,16.19C108.07,164.38,124.6,154.33,140.48,147.24ZM437.82,387.93q-3.88,52-11.35,103.62c-2.94,20.29-5.6,73.87-34.39,75.3-53-22.74-102.77-58-149.55-91.1-54.32-38.41-105.41-82.16-137.29-141.66-24.95-46.58-46-123,20.53-145.26,60.79-20.35,109.85,29.43,138.12,77.12,6.6,11.14,27,5.57,22.68-8.22-17-54.42-37.86-130.17,17.68-171,63.52-46.65,112.16,44.87,125.1,93.94C447,247.81,443,319.43,437.82,387.93Zm45.54-26.73q-3.21,36.38-6.56,72.72c-1.87,20.6-4.94,42-2.66,62.68-10,9-18.41,20.54-27,31.34,2.38-13.27,3.54-26.8,5.27-38.64,10.42-71.48,17.29-144.71,15.07-217-1.92-62.5-12.64-131.94-53.66-181.74a117.77,117.77,0,0,0-11.67-12.23,130.32,130.32,0,0,1,25,19.28c32.82,32.1,50,77.29,56.91,121.93C491.3,266.43,487.52,314.21,483.36,361.2Z"/></svg>