<svg id="Layer_1" data-name="Layer 1" xmlns="http://www.w3.org/2000/svg" viewBox="0 0 600 600"><defs><style>.cls-1{fill:#754c29;}.cls-2{fill:#be1e2d;}.cls-3{fill:#e27683;}.cls-4{fill:#fff;}.cls-5{fill:#231f20;}</style></defs><title>doodle</title><path class="cls-1" d="M231.23,97.66a730.74,730.74,0,0,0,73.7,18.83,700.56,700.56,0,0,0,76.7,11.06c18.9,1.68,37.74,2.08,56.62,2.47,0-.06,0-.11,0-.17A264.26,264.26,0,0,0,443.79,81c.15-8-.08-16-.68-24-.59-7.78-.08-16.41-8.55-19.36-10-3.48-33.1-9.48-39.89,1.43-5.36,8.61-7,18.57-16.29,24.24-9,5.46-19.83,4.89-29.85,3.49a420.31,420.31,0,0,1-41.89-8.31c-28-6.84-55.42-16-83.62-22C216.2,35,207.27,32,200.45,34.7c-5.71,2.28-8.65,8-10.43,13.57-3.4,10.65-3,21.52-7.43,31.66,4.86,2.06,9.61,4.29,14.08,5.94Q213.8,92.21,231.23,97.66Z"/><path class="cls-2" d="M271.79,244.15c-30.62,3.94-48.08,28.22-54.44,56.15a52.46,52.46,0,0,0-.67,8.17c0,16,8.18,30.14,20.52,40,21.27,17,52.12,20.42,76.66,8.69,27.73-13.26,36.87-45.55,25.58-73.28A64.3,64.3,0,0,0,271.79,244.15Zm9.57,93c-1.19,1.64-3.5,2.53-5.23,1.07-8.07-6.84-12.13-18.37-15.34-28.2-3.12-9.57-6.43-21.67-1.37-31.16,3.8-7.14,12.81-11.37,20.48-7.79,4.61,2.15,7.26,6.5,8.7,11.42A25.64,25.64,0,0,1,300.16,275c8.68-2.54,15.92,2.59,17.8,11.16C323,308.94,298.87,328.1,281.36,337.18Z"/><path class="cls-3" d="M304.69,285.66c-7.12-1.22-12.42,7-14.88,12.93-2,4.84-9.88,4.07-9.47-1.67.29-4.2-1.09-23.38-9.7-15.25-5.09,4.81-2.39,13.95-1,19.69,2,8.56,6.28,16.22,9.53,24.2,8.91-5.91,18.22-11.34,24.46-20.36a31.29,31.29,0,0,0,4.26-8.51,19.79,19.79,0,0,0,1.1-6.27Q309.82,284.91,304.69,285.66Z"/><path class="cls-4" d="M340.94,195.55q-48.33-8.6-95.82-21.21c-15.71-4.18-31.38-8.64-46.89-13.53-4.34-1.37-8.68-2.83-12.94-4.49-.16,3.55-.84,7.17-1.2,10.7-.87,8.55-1.85,17.09-2.82,25.64q-2.73,24-5.43,48.07-5.58,49.7-11.24,99.38t-11,99.4c-3.46,31.58-5.71,63.59-10.38,95,0,.06.07.11.1.18,6.33,13.87,24.07,17.82,37.33,21.79a371.68,371.68,0,0,0,50.69,11,373.1,373.1,0,0,0,51.49,4.35c7.6.09,15.48-.12,22.63-3a42.28,42.28,0,0,0,13-8.77c.59-4.65,2.39-9.24,3.72-13.76,2.41-8.27,4.81-16.55,7.27-24.81q7.37-24.78,14.71-49.57c9.47-32,18.77-64.1,28.17-96.14s18.72-64.11,27.94-96.2Q407.4,254.8,414.63,230c3-10.4,5.89-21,9.44-31.27C396.72,203,367.89,200.34,340.94,195.55Zm-28.53,178c-31.22,11-70.5,3.32-92.51-22.43-23-26.91-16.25-70.67,7.64-94.84a2.69,2.69,0,0,1,.58-.44c13.46-14.49,33.23-23.94,52.41-24.6,35.79-1.24,66.71,23.8,75.77,57.92C365.86,325.17,347.55,361.2,312.41,373.55Z"/><path class="cls-1" d="M302.85,128a709,709,0,0,1-75-19.69q-18.83-6-37.31-13.15c-9.42-3.63-21.45-6.84-29.4-13.63-2.26,11.68-8,22.63-4.52,34.91,4.15,14.48,18.26,23.28,31.42,28.47,24.86,9.81,51.69,16.05,77.59,22.45,27.47,6.8,55.21,12.74,83.13,17.35,24,4,49.32,5.27,73.51,1.81a67.71,67.71,0,0,0,7.06-1.38l7.46-2.58c5.79-2.67,10.64-6.84,13.28-13.43,3.43-8.55,2.47-17.57,2.75-26.49C403,144.84,351.46,137.89,302.85,128Z"/><path class="cls-5" d="M455.66,130.42l-3.93-.1a267.9,267.9,0,0,0,5.33-42.81c.57-14.65,1-31-2.23-45.37-3.34-14.74-16.17-18-29.53-20.4-12.48-2.2-28.61-4.9-38.47,5.12-8.06,8.19-8.23,23.89-21.19,26.33C351.28,55.9,334,50.42,320.07,47.3c-32.26-7.26-63.91-17-96.65-22.13-13.2-2.06-27.43-3.78-36.65,7.92-9.94,12.61-6.83,29.51-12.86,43.53a54.68,54.68,0,0,0-10.32-2.36,6.15,6.15,0,0,0-2.26-.4c-1-.2-2.47-.35-3.35.5-19.24,18.74-16.66,50.22,2.53,67.51a69.51,69.51,0,0,0,15.85,10.53c-1.36,4.53-1.46,9.64-2.09,14.22-1.17,8.53-2.22,17.07-3.27,25.62q-3,24-5.87,48.06-6,49.65-11.66,99.36t-11.23,99.39c-3.68,33-8.17,58.44-10.11,91.61-.2,3.4,1.41,9.36,4,13.25,5.94,12.47,20.68,17.86,33.4,22.18a379,379,0,0,0,62.76,15.76c20.21,3.18,41.68,5.79,62.14,3.9,8.88-.82,17.84-3,25.07-8.49,4.19-3.16,6.77-6.48,8.23-10.33,3.54-4.8,4.72-11,6.49-16.72,2.53-8.24,5.08-16.47,7.54-24.73q7.41-24.78,14.7-49.58c9.6-32.54,19.18-65.1,28.48-97.73s18.53-65.3,27.66-98q7-24.9,13.68-49.88c3-11.15,6.16-22.4,8.37-33.79,10.71-3.15,20.17-9.28,25.43-19.68,5.54-10.92,6.51-26.2,2.63-38.35C460.86,133.55,460.55,130.55,455.66,130.42ZM190,48.27c1.78-5.58,4.72-11.29,10.43-13.57C207.27,32,216.2,35,223,36.47c28.2,6,55.62,15.13,83.62,22a420.31,420.31,0,0,0,41.89,8.31c10,1.4,20.87,2,29.85-3.49,9.31-5.67,10.93-15.63,16.29-24.24,6.79-10.91,29.91-4.91,39.89-1.43,8.47,2.95,8,11.58,8.55,19.36.6,8,.83,16,.68,24a264.26,264.26,0,0,1-5.52,48.89c0,.06,0,.11,0,.17-18.88-.39-37.72-.79-56.62-2.47a700.56,700.56,0,0,1-76.7-11.06,730.74,730.74,0,0,1-73.7-18.83q-17.43-5.44-34.56-11.79c-4.47-1.65-9.22-3.88-14.08-5.94C187,69.79,186.62,58.92,190,48.27ZM414.63,230q-7.19,24.83-14.37,49.66-13.83,48.14-27.94,96.2c-9.4,32-18.7,64.11-28.17,96.14q-7.32,24.79-14.71,49.57c-2.46,8.26-4.86,16.54-7.27,24.81-1.33,4.52-3.13,9.11-3.72,13.76a42.28,42.28,0,0,1-13,8.77c-7.15,2.89-15,3.1-22.63,3a373.1,373.1,0,0,1-51.49-4.35,371.68,371.68,0,0,1-50.69-11c-13.26-4-31-7.92-37.33-21.79,0-.07-.07-.12-.1-.18,4.67-31.44,6.92-63.45,10.38-95q5.43-49.71,11-99.4t11.24-99.38q2.7-24,5.43-48.07c1-8.55,1.95-17.09,2.82-25.64.36-3.53,1-7.15,1.2-10.7,4.26,1.66,8.6,3.12,12.94,4.49,15.51,4.89,31.18,9.35,46.89,13.53q47.44,12.61,95.82,21.21c26.95,4.79,55.78,7.43,83.13,3.16C420.52,209,417.63,219.58,414.63,230Zm35.42-60.88c-2.64,6.59-7.49,10.76-13.28,13.43l-7.46,2.58a67.71,67.71,0,0,1-7.06,1.38c-24.19,3.46-49.5,2.16-73.51-1.81-27.92-4.61-55.66-10.55-83.13-17.35-25.9-6.4-52.73-12.64-77.59-22.45-13.16-5.19-27.27-14-31.42-28.47-3.52-12.28,2.26-23.23,4.52-34.91,7.95,6.79,20,10,29.4,13.63q18.45,7.14,37.31,13.15a709,709,0,0,0,75,19.69c48.61,9.92,100.13,16.87,150,14.64C452.52,151.53,453.48,160.55,450.05,169.1Z"/><path class="cls-5" d="M280.53,231.24c-19.18.66-38.95,10.11-52.41,24.6a2.69,2.69,0,0,0-.58.44c-23.89,24.17-30.65,67.93-7.64,94.84,22,25.75,61.29,33.4,92.51,22.43,35.14-12.35,53.45-48.38,43.89-84.39C347.24,255,316.32,230,280.53,231.24Zm33.33,125.92c-24.54,11.73-55.39,8.3-76.66-8.69-12.34-9.86-20.53-24-20.52-40a52.46,52.46,0,0,1,.67-8.17c6.36-27.93,23.82-52.21,54.44-56.15a64.3,64.3,0,0,1,67.65,39.73C350.73,311.61,341.59,343.9,313.86,357.16Z"/><path class="cls-5" d="M300.16,275a25.64,25.64,0,0,0-11.56,7.49c-1.44-4.92-4.09-9.27-8.7-11.42-7.67-3.58-16.68.65-20.48,7.79-5.06,9.49-1.75,21.59,1.37,31.16,3.21,9.83,7.27,21.36,15.34,28.2,1.73,1.46,4,.57,5.23-1.07,17.51-9.08,41.6-28.24,36.6-51C316.08,277.62,308.84,272.49,300.16,275ZM309,290.42a19.79,19.79,0,0,1-1.1,6.27,31.29,31.29,0,0,1-4.26,8.51c-6.24,9-15.55,14.45-24.46,20.36-3.25-8-7.52-15.64-9.53-24.2-1.35-5.74-4.05-14.88,1-19.69,8.61-8.13,10,11.05,9.7,15.25-.41,5.74,7.47,6.51,9.47,1.67,2.46-6,7.76-14.15,14.88-12.93Q309.82,284.91,309,290.42Z"/></svg>