<svg id="Layer_1" data-name="Layer 1" xmlns="http://www.w3.org/2000/svg" viewBox="0 0 600 600"><defs><style>.cls-1{fill:#58595b;}.cls-2{fill:#414042;}.cls-3{fill:#fff;}.cls-4{fill:#231f20;}</style></defs><title>doodle</title><path class="cls-1" d="M298.69,510.94a119.22,119.22,0,0,1-1.12-36c1-8.18,2-18.47,6.32-26.12-11.83-2.36-23.61-5-35.5-7-1.81,3.5-4.36,6.75-5.95,10.34a73.29,73.29,0,0,0-5,16.79c-2.23,12.48-2.26,25.57-2,38.22.27,11.23,2.4,22.16,7.44,32.27,4.56,9.13,10.79,16.15,18,23a208.08,208.08,0,0,0,41.92-6.44C309.92,544.75,301.81,527.28,298.69,510.94Z"/><path class="cls-2" d="M353,521.05a109.84,109.84,0,0,1-12.79-22.87A106,106,0,0,1,333,471.62c-.66-4.93-2-12.28-.92-18.18-7.64-.84-15.2-2.1-22.75-3.53-.95,3.92-2.27,7.79-3.06,11.74a138.81,138.81,0,0,0-2.15,16.74,112.27,112.27,0,0,0,1.69,31.48,82.09,82.09,0,0,0,10,26c4.22,6.94,9.52,12.39,15.51,17.61,3.8-1.29,7.55-2.74,11.24-4.38a117.74,117.74,0,0,0,23.88-14.29C360.75,532.09,356.56,525.9,353,521.05Z"/><path class="cls-1" d="M204,534.69a125.7,125.7,0,0,1-5.24-36,147.78,147.78,0,0,1,4.37-36.44c1.63-6.57,3.61-14.43,7.22-20.94-13.28,3.06-25.07,9.33-36.29,17-4.83,3.3-9.65,6.66-14.35,10.17a3.2,3.2,0,0,1,.26,1.49c-.24,4.28-2,8.51-2.77,12.74A82,82,0,0,0,155.88,495a89.45,89.45,0,0,0,2.75,25,92.62,92.62,0,0,0,9.77,24,166.88,166.88,0,0,0,11.42,16.19q18.5,1.62,37,2.42a68.73,68.73,0,0,1-6.67-12A121.66,121.66,0,0,1,204,534.69Z"/><path class="cls-1" d="M379.22,479.31c-4.34-7.14-7.78-16.7-6.8-25.42a251.64,251.64,0,0,1-30.95.35c-1.17-.06-2.33-.16-3.5-.25.08,1.13.11,2.26.17,3.37.25,4.17.62,8.35,1.28,12.48A115.36,115.36,0,0,0,345,491.47,104.17,104.17,0,0,0,355.28,512c4,6.22,9.39,15.17,16.84,17.45a3.46,3.46,0,0,1,.56.23A127.42,127.42,0,0,0,398,499C390.18,495.41,383.42,486.2,379.22,479.31Z"/><path class="cls-2" d="M250.5,467.07a73.45,73.45,0,0,1,5.69-17.66,49.55,49.55,0,0,1,5-8.68c-2.54-.36-5.09-.69-7.65-1a148,148,0,0,0-32.32-.32,42.25,42.25,0,0,0-7.3,12.75,133.15,133.15,0,0,0-4.41,15.68,139.67,139.67,0,0,0-3.34,33.05,132.92,132.92,0,0,0,4.91,33.34,108.21,108.21,0,0,0,5.71,15.79c2,4.29,4.58,8.33,6.31,12.72q18,.63,36.14.47c3.59,0,7.2-.1,10.81-.22-14-14-21.32-34.71-21.94-54.14C247.67,495.06,247.83,480.67,250.5,467.07Z"/><path class="cls-2" d="M148.26,495a95.38,95.38,0,0,1,1.3-13.71c.3-1.81.6-3.77,1-5.71a134,134,0,0,0-24.76,26l0,0c2.85,4,1.07,11.11,1.38,15.87A46.71,46.71,0,0,0,131,533.4c4.15,9.32,11.79,16.18,16.42,25.1a127.35,127.35,0,0,1,22.18.64l2,.19c-10-10-16.57-24.34-20.07-37.44A97.35,97.35,0,0,1,148.26,495Z"/><path class="cls-1" d="M123.92,535a50.87,50.87,0,0,1-4-16.61c-.15-1.85-.4-4-.51-6.23-.45.85-.89,1.7-1.31,2.57-9.81,20.13-13,43.24-10,65.42,3.73-7,10.68-12.58,17.59-16a54.08,54.08,0,0,1,15.88-4.92C134,553,127.7,543.61,123.92,535Z"/><path class="cls-3" d="M231.28,431c5.23-.15,10.47,0,15.66.36,29.86,2.12,58.54,11.76,88.31,14.42,15.61,1.4,31.29.61,46.88-.68,6.82-.56,13.84-.79,20.56-2.17a30.68,30.68,0,0,0,8-2.58l19.89-33.41a4,4,0,0,1,6.25-.83,348.83,348.83,0,0,0,9.79-66,4.06,4.06,0,0,1,6-3.46,36.2,36.2,0,0,1,6.18,4c-2-33.85-6-67.72-14-100.7-.56-2.3,1.19-5.58,4-5.21a24.38,24.38,0,0,1,6.92,1.9A330.44,330.44,0,0,0,446.86,189c-2.22,2.39-5.49,4.27-7.88,5.66a78.3,78.3,0,0,1-13.66,6.15,128.62,128.62,0,0,1-33.22,6.74c-11.48.79-23.25-.3-34-4.6-5.85-2.34-12.92-6-17.94-11a33.56,33.56,0,0,1-36,20c-8.69-1.31-16.46-6.37-22.16-13.23-1.9,3.3-5.3,6.28-7.82,8.38A60,60,0,0,1,260,215.93c-11.95,5.27-25,6-37.86,5.32-11.72-.62-23.54-2.45-34.58-6.53a79.1,79.1,0,0,1-14.73-7.13,67.86,67.86,0,0,1-8-5.59,131.74,131.74,0,0,0-4.47,38.76,70,70,0,0,1,5.77-6c2.15-2,6.64-.06,5.38,3.13-10.39,26.3-11.33,54.43-3.89,81.3a67.23,67.23,0,0,1,3.63-6.93,3.24,3.24,0,0,1,6,1.62c1.55,35,6,72.87,27.16,101.76.24-2.82.59-5.63,1.07-8.44.53-3.09,5.6-3.76,6.89-.9A70.76,70.76,0,0,0,231.28,431Zm190.8-105.27a.6.6,0,0,1,1.18.16,36.49,36.49,0,0,0,1.24,8.57,10.59,10.59,0,0,0,1.62,3.82c1.51,1.73,1.35,1.3,2.13-.18,1.15-2.17,1.35-5.66,1.78-8.06.49-2.69.64-5.48,1.49-8.08a1,1,0,0,1,2,.27c.5,4.89-1.08,10.43-2.27,15.14-.47,1.85-1,5.71-3.63,5.78s-4.17-4.26-4.89-6.22A18.58,18.58,0,0,1,422.08,325.69Zm-17.14-76.6c2,3.73,3.7,7.22,6.33,10.39a44.08,44.08,0,0,0,.56-6.18c0-2.36-.53-4.89.22-7.14a.79.79,0,0,1,1.43-.19c1.45,2.25,1.21,5.32,1.14,7.9a49.24,49.24,0,0,1-1.13,9,1.4,1.4,0,0,1-2.32.61c-3.73-3.72-7.19-8.59-7.78-13.95C403.3,248.67,404.56,248.4,404.94,249.09Zm-39.71,4.53c.18-.58,1.2-.69,1.3,0,.86,6.05,1.4,11.23,4.13,16.48a32.89,32.89,0,0,0,1.95-7.2c.45-3.06.09-6,.33-9.08a1.14,1.14,0,0,1,2.22-.31c2.16,6.45-.23,14.54-3.11,20.38a1.41,1.41,0,0,1-2.43,0C366,268.21,363.23,260.36,365.23,253.62Zm9,64.16c5.88,2.76,9.25,11.5,11.92,16.92q6.11,12.39,12.13,24.82c3.87,8,7.78,16,11.6,24.09,3,6.27,7.13,13.1,5,20.24A3,3,0,0,1,412,406a16.24,16.24,0,0,1-8-1.75c.64,3.83,1.27,7.66,1.83,11.5.52,3.53.3,7.92-3.83,9.09-4.59,1.3-6.72-3.87-8.22-7.2-.16-.36-.3-.71-.45-1.06-1,2.57-2.7,4.4-5.42,4.45-3.47,0-4.34-3.24-5-6-.46-2-.91-3.95-1.36-5.92-1.07,2.93-2.73,5.21-5.36,5.46-6.16.61-8.13-8.18-8.65-12.59a531.75,531.75,0,0,1-3.15-54C364.31,342.94,360.8,311.48,374.21,317.78ZM330,352c.16-.43.94-.41.87.12-.92,7.31,0,14.27,4.12,20.32,1.48-5.31,1.75-10.45,2.25-16.05.1-1.12,1.84-1.54,2.09-.28,1.28,6.36-.31,13.53-2.61,19.48a1.32,1.32,0,0,1-2.37.31C329.13,369.17,326.9,360.09,330,352Zm-40.73-81c.27-.34.82,0,.82.33,0,3.11-.78,6-.32,9.16a18.45,18.45,0,0,0,3.27,8.13,83.74,83.74,0,0,0,4-16.8c.22-1.49,2.72-1.12,2.62.35a61.68,61.68,0,0,1-5.07,19.74,1.32,1.32,0,0,1-2.06.27C288.06,287,284.43,277,289.22,271Zm-28,93.75c.58-9.91.8-19.86,1.72-29.75.52-5.6.9-17.4,7.39-19.74,6.71-2.42,9.35,7,10.8,11.4l18.75,57.5c1.53,4.7,3.61,9.5,4.53,14.37.47,2.46.38,5.2-1.27,7.22-2.45,3-5.34,2.93-7.91,1.53.3,3.18.56,6.37.6,9.54s-.75,6.39-4,7.54c-3.57,1.28-6-1.07-7.6-4.55-1.18,3.17-3.14,5.27-6.53,4-3.86-1.44-4-7-4.67-10.34l-.84-4a5.39,5.39,0,0,1-3.4,1.34c-7.81.55-8.48-11.58-8.76-16.74C259.58,384.3,260.67,374.44,261.24,364.71Zm-56.8-99.49c-.35,2.54-2.66,4.73-4.38,6.55a44.17,44.17,0,0,1-6.81,5.76,1.41,1.41,0,0,1-2.1-1.21,27.68,27.68,0,0,1,2.15-11.78c1.13-2.65,2.72-6,5.53-7.1.46-.18.84.34.75.75-.67,2.88-3.08,5.32-4.14,8.15a24,24,0,0,0-1.47,7.12,43.07,43.07,0,0,0,4.47-4.19c1.6-1.73,2.64-3.87,4.7-5A.89.89,0,0,1,204.44,265.22Zm15.71,75c-1-6-1.87-12.81-.14-18.75a.56.56,0,0,1,1.09.15c.51,4.91.46,9.73,1.11,14.59a29.46,29.46,0,0,0,2.81-6.23c.95-3,1-6.21,1.87-9.23a.93.93,0,0,1,1.78,0c1.81,6.65-2.27,15-6.27,20.07A1.35,1.35,0,0,1,220.15,340.18Z"/><path class="cls-2" d="M269.48,404.47c.52-.48.2-3.44.22-4.23,0-.95.08-1.91.13-2.86-.09-.48-.19-1-.27-1.45a2.52,2.52,0,0,1,.45-2l0-.49c.1-1.71,2.9-2.31,3.16-.43l0,.14a2.18,2.18,0,0,1,1,1.47c1.51,6.37,2.69,12.82,4,19.24.05.21.46,3.88,1.16,3.88a23.44,23.44,0,0,0,.55-3.47c.45-3.07.91-6.13,1.36-9.19s5-2.07,5.19.7a33.92,33.92,0,0,0,1.73,9c.35,1,1.13,4.4,1.95,3.32.54-.74.15-2,.08-2.87q-.69-8-1.39-15.9c-.26-2.82,4-3.83,5.27-1.43a27.27,27.27,0,0,0,1.42,2.53q4.37,1.62,2.93-1.57a25.29,25.29,0,0,0-1.45-4.57q-2-6-3.92-12.07-3.61-11.16-7.25-22.32t-7.24-22.31c-1.3-4-2.51-8-3.9-12-.13-.37-1.24-4.48-2.1-4.41-1.12.11-1.64,3.23-1.92,4.23-2.14,7.49-2.23,15.66-3,23.38s-1.39,15.32-1.88,23c-.46,7.4-1.14,14.86-.75,22.28C265.19,395,265.92,407.79,269.48,404.47Z"/><path class="cls-3" d="M335.71,182.35c2-12.2-4.92-24.27-15.89-29.69a28.9,28.9,0,0,0-19.18-2c-5.41,1.22-9.89,4.12-14.69,6.58-.41.4-.82.81-1.21,1.24a22.42,22.42,0,0,0-4.94,23.11c4.36,12.85,15.11,24.23,29.37,24.07a27.25,27.25,0,0,0,26-20.7c-.11-.24-.23-.47-.33-.71A1.43,1.43,0,0,1,335.71,182.35ZM322,168.5c-2.74,10.77-22.39,9.61-29.23,4.28a3.3,3.3,0,0,1-.51-4.59,2.44,2.44,0,0,1,.67-1.12c3-2.81,8.33-2.74,12.2-3.68,4.6-1.12,9.07-1.83,13.7-.48A4.63,4.63,0,0,1,322,168.5Z"/><path class="cls-2" d="M393,452.21c-4.67.43-9.35.85-14,1.22.14,8.08,1.44,15.21,5.94,22.58,4,6.54,9.66,13.27,16.37,17.25a125.15,125.15,0,0,0,13.92-46.4A3.67,3.67,0,0,1,414,447C408.07,450.77,399.9,451.56,393,452.21Z"/><path class="cls-1" d="M380.62,116c-23.42.71-36.38,19.34-49.95,35.61a35.36,35.36,0,0,1,11.5,34.1c2.43,1.89,4.78,3.94,7.36,5.57a58,58,0,0,0,14.15,6.41c9.71,2.91,20,3.3,30,2.33a128.65,128.65,0,0,0,29.58-6.51,67.83,67.83,0,0,0,13.13-6.11c2.79-1.7,5.4-4.27,8.5-5.36A276.46,276.46,0,0,0,434,151.26c-1.31-3.07.85-7.31,4.69-6.1,1,.32,2,.7,3,1.11q-2.49-6.12-5.45-12a38.87,38.87,0,0,0-4.68-2.91,151.77,151.77,0,0,0-15.54-7C404.82,119.75,392.87,115.58,380.62,116Zm-12.68,41.32c-4.48,6.46-14.72,7.48-18.26-.44a14.15,14.15,0,0,1-.94-4.87,1.08,1.08,0,0,1-.08-.19c-2.69-8.61,5-16.29,13.57-12.86A12.25,12.25,0,0,1,367.94,157.27Z"/><path class="cls-3" d="M357.66,146.2c-1.5.35-1.4,2-2.05,3.31a8.25,8.25,0,0,1-.68,1.1,6.5,6.5,0,0,0,1.23,3.56c2.15,2.39,5.67-.6,6-3.1C362.41,149,360.15,145.63,357.66,146.2Z"/><path class="cls-1" d="M174.93,176.26a126.37,126.37,0,0,0-7.78,18.28c3.1,2.28,5.94,5,9.27,7a76.84,76.84,0,0,0,14.46,6.63,117.53,117.53,0,0,0,30.58,5.79c11.62.74,23.57.53,34.5-3.92a58.31,58.31,0,0,0,14.53-8.63c2.61-2.11,5.19-5.35,8.15-7.32a41,41,0,0,1-6-16.34,25.81,25.81,0,0,1,4.16-17.6c-3.69-2.92-6.77-6.57-10.42-9.58a82.06,82.06,0,0,0-39.52-17.48c-20-2.94-38.32,2.51-55.64,11.73a293.67,293.67,0,0,0-7.38,33l6-5.47A3.26,3.26,0,0,1,174.93,176.26Zm58.75-15.49c-.09-2.59,2.4-4.87,4.8-5.52a10.32,10.32,0,0,1,9.22,2.11c5.08,4.37,5.2,13,1.28,18.15-5,6.61-14,3.24-16.53-3.81A13.81,13.81,0,0,1,233.68,160.77Z"/><path class="cls-3" d="M242.9,169.48c.7-1.73.84-5-1.18-6a2.71,2.71,0,0,0-1.15-.22,6.52,6.52,0,0,0-1.18,3.8C239.48,169.13,241.6,172.71,242.9,169.48Z"/><path class="cls-3" d="M283,152.72c-6.48-7.15-12.85-14-20.89-19.59a90,90,0,0,0-27.05-12.83,75.11,75.11,0,0,0-31.28-2.08,79.08,79.08,0,0,0-15,3.87c-4,1.43-7.72,3.69-11.67,5.2q-1.92,4.86-3.57,9.83c15.61-9.68,35.69-13.18,53.44-10.89a88,88,0,0,1,29.84,9.48c8.37,4.42,18.75,10.95,24.12,19.13.53-.54,1.06-1.07,1.62-1.58C282.72,153.08,282.87,152.9,283,152.72Z"/><path class="cls-1" d="M179.91,105.74q2-3.6,4.26-7.12c-2-4.08-3-9-4-13.1a132.36,132.36,0,0,1-3-17.79,145.46,145.46,0,0,1-.58-18.9c.15-4.53,0-9.94,2.1-14.09,4.89-9.7,16.85-4.51,23.47,0a301.05,301.05,0,0,1,28.08,21.75q3.53-2.05,7.19-3.89A153.81,153.81,0,0,0,206.06,31.3c-10.28-5.22-28.18-12.09-35.11,1.85-3,6-3.07,13.7-3.24,20.25a155.74,155.74,0,0,0,1.14,21.8c1.46,12.75,5,25,7.39,37.6C177.4,110.42,178.62,108.06,179.91,105.74Z"/><path class="cls-2" d="M370.92,377.48c.38,7.71.72,15.49,1.52,23.17a18.57,18.57,0,0,0,1.41,6.5c1,2,1.69,2.57,2.58,0a68.89,68.89,0,0,0,2.63-11.52c.35-2.18,3.44-2,4.26-.36a2.47,2.47,0,0,1,.62,1.17c1.3,5.75,2.67,11.49,3.9,17.26.24,1.08.32,1.59.34,1.76a3.17,3.17,0,0,1,.09-1.17,21.26,21.26,0,0,0,.78-4.84c.27-2.72.37-5.43.37-8.16,0-3.63,5.08-3.41,5.49,0a49.44,49.44,0,0,0,2.19,9.91,45.14,45.14,0,0,0,2.07,5.11c.84,1.74,1.33,4,1.08,1-.59-7-2.31-14.16-3.41-21.15a2.86,2.86,0,0,1,5.51-1.51,9.11,9.11,0,0,0,7,5.59c0-3.64-1.78-6.93-3.38-10.21q-2.74-5.61-5.45-11.23L390.46,357.9c-3.58-7.44-7-14.95-10.59-22.39a65.42,65.42,0,0,0-4.5-8.32c-1.32-2-3.36-5.36-5-2.16-.57,1.09-.33,3.11-.35,4.22C369.65,345.31,370.12,361.43,370.92,377.48Z"/><path class="cls-3" d="M381.41,109.25c14-.58,27.71,3.92,40.48,9.25,2.42,1,4.89,2,7.33,3.06-.19-.3-.37-.61-.55-.91-4.62-1.86-8.44-6.29-12.72-8.88A70.72,70.72,0,0,0,401.42,105c-11-3.62-23.72-5.05-34.94-1.59-11.41,3.52-20.39,12.91-28.06,21.68A66.82,66.82,0,0,0,328.87,139c-1.32,2.62-2,6-3.12,9l.91.58C338.64,128.73,357.11,110.24,381.41,109.25Z"/><path class="cls-1" d="M392.93,34.67c8.9-4.3,21.76-9.89,31.16-4.13,10,6.14,11.08,18.92,8.79,29.29a143.31,143.31,0,0,1-6.23,19.48c-1.68,4.47-3.28,11.19-6.76,15q3.28,3.86,6.35,7.88c6.8-13.67,13.4-27.53,17.48-42.3a98.58,98.58,0,0,0,3.8-24.12c.17-7.36-.74-15.39-9.44-16.78-6.93-1.11-14.69.69-21.46,2.18a121.15,121.15,0,0,0-22.14,7.07C381.73,33.72,371,41.59,360.09,50q4.26,1.8,8.43,3.86C374.81,45.56,383.65,39.14,392.93,34.67Z"/><path class="cls-3" d="M184.65,111c-1.5,2.81-2.89,5.66-4.2,8.54,6.55-4,14.94-6.26,21.65-7.47a82.69,82.69,0,0,1,33.49.82c20.28,4.72,40.5,18,53.14,34.77a36.29,36.29,0,0,1,15-4.79,35.42,35.42,0,0,1,16.4,2.28,41.29,41.29,0,0,1,2.89-7.92,70.87,70.87,0,0,1,9.89-15.49c8-9.86,18-19.91,30.17-24.27s26.52-3.44,38.82.14a75.94,75.94,0,0,1,14.68,6c-23.35-28.92-55.9-49.87-92.8-56.1-36.6-6.18-73,2.16-104.23,21.46A140.18,140.18,0,0,0,184.65,111Z"/><path class="cls-3" d="M188.06,92.83C196.49,81,207,70.39,219.67,63.5c1.49-1.12,3-2.18,4.56-3.22-6.8-6-13.81-11.67-21.12-17-3.69-2.69-7.7-6.19-12.21-7.37-6.47-1.68-7.22,3.62-7.52,8.62a158.12,158.12,0,0,0,1,29.18c.61,4.84,1.49,9.64,2.5,14.42C187.23,89.68,187.65,91.25,188.06,92.83Z"/><path class="cls-3" d="M419.91,36.45c-4.49-2.62-10.13-.79-14.76.6a74.56,74.56,0,0,0-13.57,5.56A102.88,102.88,0,0,0,372.72,56a152.57,152.57,0,0,1,13.25,8,169.54,169.54,0,0,1,28.7,24.52c1.12-3.56,3.35-7.21,4.55-10.32,1.83-4.77,3.54-9.6,5-14.49C426.89,55,429.43,42,419.91,36.45Z"/><path class="cls-4" d="M318.79,162.91c-4.63-1.35-9.1-.64-13.7.48-3.87.94-9.2.87-12.2,3.68a2.44,2.44,0,0,0-.67,1.12,3.3,3.3,0,0,0,.51,4.59c6.84,5.33,26.49,6.49,29.23-4.28A4.63,4.63,0,0,0,318.79,162.91Z"/><path class="cls-4" d="M362.23,138.91c-8.56-3.43-16.26,4.25-13.57,12.86a1.08,1.08,0,0,0,.08.19,14.15,14.15,0,0,0,.94,4.87c3.54,7.92,13.78,6.9,18.26.44A12.25,12.25,0,0,0,362.23,138.91Zm-.09,12.16c-.31,2.5-3.83,5.49-6,3.1a6.5,6.5,0,0,1-1.23-3.56,8.25,8.25,0,0,0,.68-1.1c.65-1.29.55-3,2.05-3.31C360.15,145.63,362.41,149,362.14,151.07Z"/><path class="cls-4" d="M249,175.51c3.92-5.16,3.8-13.78-1.28-18.15a10.32,10.32,0,0,0-9.22-2.11c-2.4.65-4.89,2.93-4.8,5.52a13.81,13.81,0,0,0-1.23,10.93C234.93,178.75,244,182.12,249,175.51Zm-8.41-12.23a2.71,2.71,0,0,1,1.15.22c2,.94,1.88,4.25,1.18,6-1.3,3.23-3.42-.35-3.51-2.4A6.52,6.52,0,0,1,240.57,163.28Z"/><path class="cls-4" d="M423.51,438.85a3.6,3.6,0,0,0-.93-2.58l10.35-17.42c.2.63.38,1.26.59,1.89,1.26,3.84,6.91,4.09,8.06,0a360.46,360.46,0,0,0,12.62-73.31,28.83,28.83,0,0,1,5.81,7c2.1,3.51,7.94,2.12,7.85-2.13-.78-36.1-6-71.7-13.47-106.94a12.65,12.65,0,0,1,2.84,2.82c2.22,3.06,8.22,2.47,7.9-2.14-2.1-29.87-9-59.06-19.34-87.07.51.5,1,1,1.5,1.57,2.8,3.2,8.33-.19,7.09-4.13a178.78,178.78,0,0,0-7.07-18.63c.14-2.57-1.29-4.89-3.22-6.87a179.52,179.52,0,0,0-12.56-21.39c6.53-13.16,13-26.42,17.69-40.39,4.27-12.87,7.91-28,5.78-41.61C452.94,14.28,441.88,10,429.69,11.31A128.54,128.54,0,0,0,391.74,22c-13.46,6-27.29,14.4-37,25.65a1,1,0,0,0-.08.11,151,151,0,0,0-82.52-6.91,140.05,140.05,0,0,0-27.45,8.39,2.44,2.44,0,0,0-.27-.29A163.07,163.07,0,0,0,205,23.56c-11.42-5.12-27.06-8.63-36.59,2.14-4.6,5.2-5.73,12.31-6.41,19a123.87,123.87,0,0,0,0,24.43c1.61,16.51,5.25,34,11.58,49.39a191.42,191.42,0,0,0-9.17,25.58,1.71,1.71,0,0,0-.33,1.17,327.57,327.57,0,0,0-8.19,40.41c-.46,3.17,2.92,5.62,5.54,3.22l1.47-1.36q-.94,2.5-1.78,5a2.87,2.87,0,0,0-1.17,3.62,136.3,136.3,0,0,0-5.38,53.44,3.24,3.24,0,0,0,5.8,1.88c-6.74,25.94-5.8,54.15,3.8,79.16,1.13,2.94,5.7,3.53,6.59,0,.3-1.23.65-2.44,1-3.63,2.72,36.36,8.2,73.5,33.52,101.69,2.2,2.45,6.62.53,6.52-2.7-.06-1.88-.06-3.76,0-5.63A72,72,0,0,0,220.63,431a3.44,3.44,0,0,0-1.87.61l-.51.38a104,104,0,0,0-13.09,2.57c-13.52,3.6-25.58,10.56-36.94,18.55-21.7,15.27-42.93,32-55.06,56.21s-15.47,52.4-7.62,78.31c-.11.73-.18,1.47-.22,2.22-.06,1.55,2.42,2.36,3.07.83,4.83-11.25,12.59-19.27,24.42-23.14,13.82-4.53,28.8-2.36,42.91-.62,30.05,3.7,60.67,4.54,90.93,3.91q6.23-.14,12.46-.47a3,3,0,0,0,2.55-.14c22.53-1.41,45-5.25,65.65-14.62,21-9.5,38.82-25.06,52.06-43.8A131,131,0,0,0,423.51,438.85Zm-22.28,54.41c-6.71-4-12.37-10.71-16.37-17.25-4.5-7.37-5.8-14.5-5.94-22.58,4.68-.37,9.36-.79,14-1.22,6.95-.65,15.12-1.44,21-5.18a3.67,3.67,0,0,0,1.18-.17A125.15,125.15,0,0,1,401.23,493.26Zm30.33-361.92a38.87,38.87,0,0,1,4.68,2.91q3,5.91,5.45,12c-1-.41-2-.79-3-1.11-3.84-1.21-6,3-4.69,6.1A276.46,276.46,0,0,1,444.93,182c-3.1,1.09-5.71,3.66-8.5,5.36a67.83,67.83,0,0,1-13.13,6.11A128.65,128.65,0,0,1,393.72,200c-10.05,1-20.33.58-30-2.33a58,58,0,0,1-14.15-6.41c-2.58-1.63-4.93-3.68-7.36-5.57a35.36,35.36,0,0,0-11.5-34.1c13.57-16.27,26.53-34.9,49.95-35.61,12.25-.37,24.2,3.8,35.4,8.35A151.77,151.77,0,0,1,431.56,131.34Zm-96.72,52.87c.1.24.22.47.33.71a27.25,27.25,0,0,1-26,20.7c-14.26.16-25-11.22-29.37-24.07a22.42,22.42,0,0,1,4.94-23.11c.39-.43.8-.84,1.21-1.24,4.8-2.46,9.28-5.36,14.69-6.58a28.9,28.9,0,0,1,19.18,2c11,5.42,17.89,17.49,15.89,29.69A1.43,1.43,0,0,0,334.84,184.21Zm-78-48.5A88,88,0,0,0,227,126.23c-17.75-2.29-37.83,1.21-53.44,10.89q1.65-5,3.57-9.83c4-1.51,7.69-3.77,11.67-5.2a79.08,79.08,0,0,1,15-3.87,75.11,75.11,0,0,1,31.28,2.08,90,90,0,0,1,27.05,12.83c8,5.58,14.41,12.44,20.89,19.59-.14.18-.29.36-.42.54-.56.51-1.09,1-1.62,1.58C275.6,146.66,265.22,140.13,256.85,135.71Zm68.9,12.22c1.14-3,1.8-6.35,3.12-9a66.82,66.82,0,0,1,9.55-13.83c7.67-8.77,16.65-18.16,28.06-21.68,11.22-3.46,23.94-2,34.94,1.59A70.72,70.72,0,0,1,416,111.77c4.28,2.59,8.1,7,12.72,8.88.18.3.36.61.55.91-2.44-1.06-4.91-2-7.33-3.06-12.77-5.33-26.45-9.83-40.48-9.25-24.3,1-42.77,19.48-54.75,39.26ZM394.48,28.2a121.15,121.15,0,0,1,22.14-7.07c6.77-1.49,14.53-3.29,21.46-2.18,8.7,1.39,9.61,9.42,9.44,16.78a98.58,98.58,0,0,1-3.8,24.12c-4.08,14.77-10.68,28.63-17.48,42.3q-3.06-4-6.35-7.88c3.48-3.77,5.08-10.49,6.76-15a143.31,143.31,0,0,0,6.23-19.48c2.29-10.37,1.21-23.15-8.79-29.29-9.4-5.76-22.26-.17-31.16,4.13-9.28,4.47-18.12,10.89-24.41,19.14q-4.17-2.07-8.43-3.86C371,41.59,381.73,33.72,394.48,28.2Zm24.74,49.94c-1.2,3.11-3.43,6.76-4.55,10.32A169.54,169.54,0,0,0,386,63.94a152.57,152.57,0,0,0-13.25-8,102.88,102.88,0,0,1,18.86-13.35,74.56,74.56,0,0,1,13.57-5.56c4.63-1.39,10.27-3.22,14.76-.6,9.52,5.56,7,18.59,4.34,27.2C422.76,68.54,421.05,73.37,419.22,78.14ZM323.81,47.47c36.9,6.23,69.45,27.18,92.8,56.1a75.94,75.94,0,0,0-14.68-6c-12.3-3.58-26.6-4.52-38.82-.14s-22.18,14.41-30.17,24.27a70.87,70.87,0,0,0-9.89,15.49,41.29,41.29,0,0,0-2.89,7.92,35.42,35.42,0,0,0-16.4-2.28,36.29,36.29,0,0,0-15,4.79c-12.64-16.78-32.86-30-53.14-34.77a82.69,82.69,0,0,0-33.49-.82c-6.71,1.21-15.1,3.44-21.65,7.47,1.31-2.88,2.7-5.73,4.2-8.54a140.18,140.18,0,0,1,34.93-42.07C250.77,49.63,287.21,41.29,323.81,47.47ZM184.4,73.71a158.12,158.12,0,0,1-1-29.18c.3-5,1.05-10.3,7.52-8.62,4.51,1.18,8.52,4.68,12.21,7.37,7.31,5.33,14.32,11,21.12,17-1.55,1-3.07,2.1-4.56,3.22C207,70.39,196.49,81,188.06,92.83c-.41-1.58-.83-3.15-1.16-4.7C185.89,83.35,185,78.55,184.4,73.71ZM168.85,75.2a155.74,155.74,0,0,1-1.14-21.8c.17-6.55.25-14.24,3.24-20.25,6.93-13.94,24.83-7.07,35.11-1.85a153.81,153.81,0,0,1,31.41,21.28q-3.66,1.83-7.19,3.89A301.05,301.05,0,0,0,202.2,34.72c-6.62-4.49-18.58-9.68-23.47,0-2.09,4.15-1.95,9.56-2.1,14.09a145.46,145.46,0,0,0,.58,18.9,132.36,132.36,0,0,0,3,17.79c1,4.15,2,9,4,13.1q-2.23,3.52-4.26,7.12c-1.29,2.32-2.51,4.68-3.67,7.06C173.85,100.25,170.31,88,168.85,75.2Zm2.33,69.58c17.32-9.22,35.62-14.67,55.64-11.73a82.06,82.06,0,0,1,39.52,17.48c3.65,3,6.73,6.66,10.42,9.58a25.81,25.81,0,0,0-4.16,17.6,41,41,0,0,0,6,16.34c-3,2-5.54,5.21-8.15,7.32A58.31,58.31,0,0,1,256,210c-10.93,4.45-22.88,4.66-34.5,3.92a117.53,117.53,0,0,1-30.58-5.79,76.84,76.84,0,0,1-14.46-6.63c-3.33-2-6.17-4.68-9.27-7a126.37,126.37,0,0,1,7.78-18.28,3.26,3.26,0,0,0-5.09-3.93l-6,5.47A293.67,293.67,0,0,1,171.18,144.78Zm41.24,261.47c-1.29-2.86-6.36-2.19-6.89.9-.48,2.81-.83,5.62-1.07,8.44-21.11-28.89-25.61-66.8-27.16-101.76a3.24,3.24,0,0,0-6-1.62,67.23,67.23,0,0,0-3.63,6.93c-7.44-26.87-6.5-55,3.89-81.3,1.26-3.19-3.23-5.14-5.38-3.13a70,70,0,0,0-5.77,6A131.74,131.74,0,0,1,164.89,202a67.86,67.86,0,0,0,8,5.59,79.1,79.1,0,0,0,14.73,7.13c11,4.08,22.86,5.91,34.58,6.53,12.89.69,25.91-.05,37.86-5.32a60,60,0,0,0,14.15-8.84c2.52-2.1,5.92-5.08,7.82-8.38,5.7,6.86,13.47,11.92,22.16,13.23a33.56,33.56,0,0,0,36-20c5,5,12.09,8.68,17.94,11,10.76,4.3,22.53,5.39,34,4.6a128.62,128.62,0,0,0,33.22-6.74A78.3,78.3,0,0,0,439,194.63c2.39-1.39,5.66-3.27,7.88-5.66a330.44,330.44,0,0,1,8.83,47.62,24.38,24.38,0,0,0-6.92-1.9c-2.77-.37-4.52,2.91-4,5.21,8,33,12.06,66.85,14,100.7a36.2,36.2,0,0,0-6.18-4,4.06,4.06,0,0,0-6,3.46,348.83,348.83,0,0,1-9.79,66,4,4,0,0,0-6.25.83l-19.89,33.41a30.68,30.68,0,0,1-8,2.58c-6.72,1.38-13.74,1.61-20.56,2.17-15.59,1.29-31.27,2.08-46.88.68-29.77-2.66-58.45-12.3-88.31-14.42-5.19-.36-10.43-.51-15.66-.36A70.76,70.76,0,0,1,212.42,406.25ZM125.67,564.09c-6.91,3.44-13.86,9-17.59,16-3-22.18.18-45.29,10-65.42.42-.87.86-1.72,1.31-2.57.11,2.21.36,4.38.51,6.23a50.87,50.87,0,0,0,4,16.61c3.78,8.65,10,18,17.63,24.21A54.08,54.08,0,0,0,125.67,564.09Zm43.93-5a127.35,127.35,0,0,0-22.18-.64c-4.63-8.92-12.27-15.78-16.42-25.1a46.71,46.71,0,0,1-3.78-15.9c-.31-4.76,1.47-11.86-1.38-15.87l0,0a134,134,0,0,1,24.76-26c-.42,1.94-.72,3.9-1,5.71a95.38,95.38,0,0,0-1.3,13.71,97.35,97.35,0,0,0,3.3,26.91c3.5,13.1,10.06,27.42,20.07,37.44Zm10.22,1a166.88,166.88,0,0,1-11.42-16.19,92.62,92.62,0,0,1-9.77-24,89.45,89.45,0,0,1-2.75-25,82,82,0,0,1,1.28-12.31c.78-4.23,2.53-8.46,2.77-12.74a3.2,3.2,0,0,0-.26-1.49c4.7-3.51,9.52-6.87,14.35-10.17,11.22-7.64,23-13.91,36.29-17-3.61,6.51-5.59,14.37-7.22,20.94a147.78,147.78,0,0,0-4.37,36.44,125.7,125.7,0,0,0,5.24,36,121.66,121.66,0,0,0,6.18,15.86,68.73,68.73,0,0,0,6.67,12Q198.3,561.74,179.82,560.1Zm79.43,3.14q-18.12.16-36.14-.47c-1.73-4.39-4.35-8.43-6.31-12.72a108.21,108.21,0,0,1-5.71-15.79,132.92,132.92,0,0,1-4.91-33.34,139.67,139.67,0,0,1,3.34-33.05,133.15,133.15,0,0,1,4.41-15.68,42.25,42.25,0,0,1,7.3-12.75,148,148,0,0,1,32.32.32c2.56.28,5.11.61,7.65,1a49.55,49.55,0,0,0-5,8.68,73.45,73.45,0,0,0-5.69,17.66c-2.67,13.6-2.83,28-2.38,41.81C248.74,528.31,256,549,270.06,563,266.45,563.14,262.84,563.21,259.25,563.24Zm21.64-.72c-7.19-6.9-13.42-13.92-18-23-5-10.11-7.17-21-7.44-32.27-.3-12.65-.27-25.74,2-38.22a73.29,73.29,0,0,1,5-16.79c1.59-3.59,4.14-6.84,5.95-10.34,11.89,2,23.67,4.64,35.5,7-4.3,7.65-5.36,17.94-6.32,26.12a119.22,119.22,0,0,0,1.12,36c3.12,16.34,11.23,33.81,24.12,45.14A208.08,208.08,0,0,1,280.89,562.52Zm61.66-13.42c-3.69,1.64-7.44,3.09-11.24,4.38-6-5.22-11.29-10.67-15.51-17.61a82.09,82.09,0,0,1-10-26,112.27,112.27,0,0,1-1.69-31.48,138.81,138.81,0,0,1,2.15-16.74c.79-3.95,2.11-7.82,3.06-11.74,7.55,1.43,15.11,2.69,22.75,3.53-1,5.9.26,13.25.92,18.18a106,106,0,0,0,7.23,26.56A109.84,109.84,0,0,0,353,521.05c3.57,4.85,7.76,11,13.44,13.76A117.74,117.74,0,0,1,342.55,549.1Zm30.13-19.46a3.46,3.46,0,0,0-.56-.23c-7.45-2.28-12.81-11.23-16.84-17.45A104.17,104.17,0,0,1,345,491.47a115.36,115.36,0,0,1-5.59-21.63c-.66-4.13-1-8.31-1.28-12.48-.06-1.11-.09-2.24-.17-3.37,1.17.09,2.33.19,3.5.25a251.64,251.64,0,0,0,30.95-.35c-1,8.72,2.46,18.28,6.8,25.42,4.2,6.89,11,16.1,18.81,19.66A127.42,127.42,0,0,1,372.68,529.64Z"/><path class="cls-4" d="M268.86,410.8a5.39,5.39,0,0,0,3.4-1.34l.84,4c.7,3.37.81,8.9,4.67,10.34,3.39,1.25,5.35-.85,6.53-4,1.62,3.48,4,5.83,7.6,4.55,3.2-1.15,4-4.51,4-7.54s-.3-6.36-.6-9.54c2.57,1.4,5.46,1.47,7.91-1.53,1.65-2,1.74-4.76,1.27-7.22-.92-4.87-3-9.67-4.53-14.37l-18.75-57.5c-1.45-4.44-4.09-13.82-10.8-11.4-6.49,2.34-6.87,14.14-7.39,19.74-.92,9.89-1.14,19.84-1.72,29.75-.57,9.73-1.66,19.59-1.14,29.35C260.38,399.22,261.05,411.35,268.86,410.8Zm-3-39c.49-7.67,1.16-15.33,1.88-23s.82-15.89,3-23.38c.28-1,.8-4.12,1.92-4.23.86-.07,2,4,2.1,4.41,1.39,4,2.6,8,3.9,12q3.62,11.16,7.24,22.31t7.25,22.32q2,6,3.92,12.07a25.29,25.29,0,0,1,1.45,4.57q1.44,3.19-2.93,1.57a27.27,27.27,0,0,1-1.42-2.53c-1.26-2.4-5.53-1.39-5.27,1.43q.71,7.95,1.39,15.9c.07.84.46,2.13-.08,2.87-.82,1.08-1.6-2.3-1.95-3.32a33.92,33.92,0,0,1-1.73-9c-.18-2.77-4.73-3.82-5.19-.7s-.91,6.12-1.36,9.19a23.44,23.44,0,0,1-.55,3.47c-.7,0-1.11-3.67-1.16-3.88-1.32-6.42-2.5-12.87-4-19.24a2.18,2.18,0,0,0-1-1.47l0-.14c-.26-1.88-3.06-1.28-3.16.43l0,.49a2.52,2.52,0,0,0-.45,2c.08.48.18,1,.27,1.45-.05.95-.1,1.91-.13,2.86,0,.79.3,3.75-.22,4.23-3.56,3.32-4.29-9.49-4.34-10.41C264.75,386.64,265.43,379.18,265.89,371.78Z"/><path class="cls-4" d="M367.54,402c.52,4.41,2.49,13.2,8.65,12.59,2.63-.25,4.29-2.53,5.36-5.46.45,2,.9,3.95,1.36,5.92.64,2.77,1.51,6.06,5,6,2.72-.05,4.39-1.88,5.42-4.45.15.35.29.7.45,1.06,1.5,3.33,3.63,8.5,8.22,7.2,4.13-1.17,4.35-5.56,3.83-9.09-.56-3.84-1.19-7.67-1.83-11.5a16.24,16.24,0,0,0,8,1.75,3,3,0,0,0,2.85-2.16c2.14-7.14-2-14-5-20.24-3.82-8.05-7.73-16.07-11.6-24.09q-6-12.45-12.13-24.82c-2.67-5.42-6-14.16-11.92-16.92-13.41-6.3-9.9,25.16-9.82,30.23A531.75,531.75,0,0,0,367.54,402Zm2.81-77c1.66-3.2,3.7.19,5,2.16a65.42,65.42,0,0,1,4.5,8.32c3.57,7.44,7,14.95,10.59,22.39l10.05,20.88q2.7,5.63,5.45,11.23c1.6,3.28,3.38,6.57,3.38,10.21a9.11,9.11,0,0,1-7-5.59,2.86,2.86,0,0,0-5.51,1.51c1.1,7,2.82,14.11,3.41,21.15.25,3-.24.73-1.08-1a45.14,45.14,0,0,1-2.07-5.11,49.44,49.44,0,0,1-2.19-9.91c-.41-3.41-5.49-3.63-5.49,0,0,2.73-.1,5.44-.37,8.16a21.26,21.26,0,0,1-.78,4.84,3.17,3.17,0,0,0-.09,1.17c0-.17-.1-.68-.34-1.76-1.23-5.77-2.6-11.51-3.9-17.26a2.47,2.47,0,0,0-.62-1.17c-.82-1.66-3.91-1.82-4.26.36a68.89,68.89,0,0,1-2.63,11.52c-.89,2.6-1.56,2.06-2.58,0a18.57,18.57,0,0,1-1.41-6.5c-.8-7.68-1.14-15.46-1.52-23.17-.8-16.05-1.27-32.17-.92-48.23C370,328.14,369.78,326.12,370.35,325Z"/><path class="cls-4" d="M203.14,264.22c-2.06,1.18-3.1,3.32-4.7,5a43.07,43.07,0,0,1-4.47,4.19,24,24,0,0,1,1.47-7.12c1.06-2.83,3.47-5.27,4.14-8.15.09-.41-.29-.93-.75-.75-2.81,1.11-4.4,4.45-5.53,7.1a27.68,27.68,0,0,0-2.15,11.78,1.41,1.41,0,0,0,2.1,1.21,44.17,44.17,0,0,0,6.81-5.76c1.72-1.82,4-4,4.38-6.55A.89.89,0,0,0,203.14,264.22Z"/><path class="cls-4" d="M228.67,320.71a.93.93,0,0,0-1.78,0c-.89,3-.92,6.2-1.87,9.23a29.46,29.46,0,0,1-2.81,6.23c-.65-4.86-.6-9.68-1.11-14.59a.56.56,0,0,0-1.09-.15c-1.73,5.94-.9,12.75.14,18.75a1.35,1.35,0,0,0,2.25.6C226.4,335.67,230.48,327.36,228.67,320.71Z"/><path class="cls-4" d="M294.53,291.87a61.68,61.68,0,0,0,5.07-19.74c.1-1.47-2.4-1.84-2.62-.35a83.74,83.74,0,0,1-4,16.8,18.45,18.45,0,0,1-3.27-8.13c-.46-3.14.33-6.05.32-9.16,0-.38-.55-.67-.82-.33-4.79,6-1.16,16,3.25,21.18A1.32,1.32,0,0,0,294.53,291.87Z"/><path class="cls-4" d="M372.05,273.89c2.88-5.84,5.27-13.93,3.11-20.38a1.14,1.14,0,0,0-2.22.31c-.24,3,.12,6-.33,9.08a32.89,32.89,0,0,1-1.95,7.2c-2.73-5.25-3.27-10.43-4.13-16.48-.1-.69-1.12-.58-1.3,0-2,6.74.76,14.59,4.39,20.27A1.41,1.41,0,0,0,372.05,273.89Z"/><path class="cls-4" d="M413.49,262.85a49.24,49.24,0,0,0,1.13-9c.07-2.58.31-5.65-1.14-7.9a.79.79,0,0,0-1.43.19c-.75,2.25-.18,4.78-.22,7.14a44.08,44.08,0,0,1-.56,6.18c-2.63-3.17-4.31-6.66-6.33-10.39-.38-.69-1.64-.42-1.55.42.59,5.36,4.05,10.23,7.78,13.95A1.4,1.4,0,0,0,413.49,262.85Z"/><path class="cls-4" d="M336.67,375.57c2.3-5.95,3.89-13.12,2.61-19.48-.25-1.26-2-.84-2.09.28-.5,5.6-.77,10.74-2.25,16.05-4.11-6.05-5-13-4.12-20.32.07-.53-.71-.55-.87-.12-3.05,8.11-.82,17.19,4.35,23.9A1.32,1.32,0,0,0,336.67,375.57Z"/><path class="cls-4" d="M427.63,343.11c2.67-.07,3.16-3.93,3.63-5.78,1.19-4.71,2.77-10.25,2.27-15.14a1,1,0,0,0-2-.27c-.85,2.6-1,5.39-1.49,8.08-.43,2.4-.63,5.89-1.78,8.06-.78,1.48-.62,1.91-2.13.18a10.59,10.59,0,0,1-1.62-3.82,36.49,36.49,0,0,1-1.24-8.57.6.6,0,0,0-1.18-.16,18.58,18.58,0,0,0,.66,11.2C423.46,338.85,424.86,343.18,427.63,343.11Z"/></svg>