<svg id="Layer_1" data-name="Layer 1" xmlns="http://www.w3.org/2000/svg" viewBox="0 0 600 600"><defs><style>.cls-1{fill:#fff200;}.cls-2{fill:#f7941e;}.cls-3{fill:#231f20;}</style></defs><title>doodle</title><path class="cls-1" d="M398.21,441.3c-3-.75-3.45-4.32-1.93-6.33a5.46,5.46,0,0,1-.09-2.4q7.57-40.41,11.37-81.38c-25.05,20.58-50.24,41.07-76.08,60.63-4.92,3.73-9.24,5.64-15.3,3.5-7.85-2.77-15.39-7.34-22.76-11.18-12-6.25-23.71-13-35.26-20.06,4,11.53,8.38,22.95,13.19,34.17,3,7,6.16,14,9.33,21,1.88,4.12,4.13,8.15,1.74,12.55-2.85,5.23-9.69,9.4-14.11,13.27q-9.49,8.31-19.14,16.44c-9.5,8-19,16.12-29,23.56l51.51-5.66q14.35-1.59,28.73-3.12c6.4-.68,16-3.82,22-.27s8.57,13.53,11.51,19.39l12.83,25.54q9.56,19,19.13,38,4.85-25,9.72-50c2.81-14.41,5.68-33.15,16.85-43.75l65.16-29.43a41,41,0,0,1,8.39-1.43C443.32,450.25,420.43,446.89,398.21,441.3Z"/><path class="cls-2" d="M328.66,527.62,323,516.28c-1.71-3.4-3.27-8.88-6.59-10.63s-10.49.29-14.37.72l-12.77,1.42-5.67.62c14.35,12.79,27.62,27.2,41.17,40.69q11.64,11.58,23.26,23.16c1.91,1.91,3.87,3.72,5.86,5.48Q347,564,340.07,550.32Z"/><path class="cls-2" d="M256.85,462.5c4.24-3.7,12.68-8.77,15.33-13.59,2.5-4.53-3.89-13.72-6.08-18.79-2.59-6-5-12.07-7.43-18.14q-7-17.84-13.07-36c-13.65-19.64-20.15-42.82-25.09-66.16-10.6-50-14.36-101.82-8.78-152.74a394.13,394.13,0,0,1,14.94-73.32c2.68-8.67,5.57-17.57,9-26.25-3.65,4.3-7.2,8.68-10.59,13.23a361.87,361.87,0,0,0-28.21,44.57c-15.34,28.52-27.11,58.85-36,90C151.17,238.92,143.31,274,144,309.19c.69,37.57,9.95,74.49,22.69,109.66a357.6,357.6,0,0,0,43,83.21,5.57,5.57,0,0,1,.68-.37c10.07-8.88,20.68-17.17,30.93-25.84Q249.13,469.24,256.85,462.5Z"/><path class="cls-2" d="M219.49,202.71a487.78,487.78,0,0,0,8.21,91.36c4.77,25.95,10.71,52.4,24.25,75.23,13.39,8.34,27.13,16.1,41.09,23.41,6.76,3.54,13.57,7,20.44,10.32l.49.24c-13.27-20.87-22.3-45.61-29.94-68.62-8.16-24.55-14.53-49.65-20.64-74.78-6.56-27-12.71-54.13-16.66-81.66-6.17-43-6.93-87.7,4.4-129.77-10.18,19.9-16.36,42.36-21.3,63.63A411.34,411.34,0,0,0,219.49,202.71Z"/><path class="cls-2" d="M459.76,442.13a208.16,208.16,0,0,1-25.44-21.34c-6.83-6.55-15.86-14-22.26-22.6q-2.6,18-5.83,35.85C424.09,435.38,442,438.57,459.76,442.13Z"/><path class="cls-2" d="M295.61,339c7.82,22.87,18.22,43.8,28.75,65.34a18.18,18.18,0,0,0,2.45-1.61c2.9-2.23,5.77-4.51,8.65-6.76q36.71-28.75,72.71-58.37c-6.48-10.88-15.69-19.81-23.83-29.48-9.11-10.82-17.62-22.16-25.61-33.82-16.61-24.27-30.82-50.11-43.6-76.57-22.52-46.63-46-97.09-53.1-149.2a262.62,262.62,0,0,0-9.24,64c-1.25,52.91,10.67,105,23,156.13C281.54,292.35,287.72,316,295.61,339Z"/><path class="cls-3" d="M489.23,446.94c-1.27-.77-3.47-1.91-5.32-2.81-15.16-7.31-28.19-17.06-40.44-28.55-10.89-10.2-20.92-20.22-29.38-32.28q2.81-21.76,4.64-43.65a4.11,4.11,0,0,0-1.61-3.8c-4.19-11-12.42-19.4-20.14-28.35a411.08,411.08,0,0,1-26.9-34.91A582.66,582.66,0,0,1,327.4,198.8c-13-26.51-24.89-53.72-35.37-81.34-11.31-29.82-20.22-60.6-21.84-92.62-.19-3.83-3.75-5.41-6.61-4.74a4.26,4.26,0,0,0-6.61.27c-.37.43-.72.87-1.08,1.3a5.91,5.91,0,0,0-1.15.7c-25.35,20.34-45.31,49.13-61.4,77.08C176.76,128.27,164,159.22,154.11,191c-10.6,34.14-19.36,70.12-20.52,106-1.24,38.48,6.95,76.7,19.27,113S181,485.64,208,513.73a3.57,3.57,0,0,0,.77.6,4.36,4.36,0,0,0,3.79,1.82l51.09-5.56,8.09-.89c14.58,17.34,31.8,33,47.77,49,8,8.07,16,16.18,24.13,24.21,6.49,6.44,13.6,14.11,22.55,16.89a4.2,4.2,0,0,0,3.64-.57,4.49,4.49,0,0,0,3-3.32q6-30.52,12.07-61c3.16-16,5.2-36.17,21.59-44.25l81.79-35.51C490,452.87,491.52,448.36,489.23,446.94Zm-54.91-26.15a208.16,208.16,0,0,0,25.44,21.34c-17.73-3.56-35.67-6.75-53.53-8.09q3.22-17.88,5.83-35.85C418.46,406.76,427.49,414.24,434.32,420.79ZM252.79,112.54a262.62,262.62,0,0,1,9.24-64c7.07,52.11,30.58,102.57,53.1,149.2,12.78,26.46,27,52.3,43.6,76.57,8,11.66,16.5,23,25.61,33.82,8.14,9.67,17.35,18.6,23.83,29.48q-36,29.59-72.71,58.37c-2.88,2.25-5.75,4.53-8.65,6.76a18.18,18.18,0,0,1-2.45,1.61c-10.53-21.54-20.93-42.47-28.75-65.34-7.89-23.06-14.07-46.66-19.79-70.34C263.46,217.56,251.54,165.45,252.79,112.54Zm-1.66-64.1c-11.33,42.07-10.57,86.75-4.4,129.77,4,27.53,10.1,54.66,16.66,81.66C269.5,285,275.87,310.1,284,334.65c7.64,23,16.67,47.75,29.94,68.62l-.49-.24c-6.88-3.32-13.68-6.78-20.44-10.32-14-7.31-27.7-15.07-41.08-23.41-13.55-22.83-19.49-49.28-24.26-75.23a487.78,487.78,0,0,1-8.21-91.36,411.34,411.34,0,0,1,10.34-90.64C234.77,90.8,241,68.34,251.13,48.44ZM210.37,501.69a5.57,5.57,0,0,0-.68.37,357.6,357.6,0,0,1-43-83.21c-12.74-35.17-22-72.09-22.69-109.66-.65-35.19,7.21-70.27,16.87-103.94,8.93-31.1,20.7-61.43,36-89.95a361.87,361.87,0,0,1,28.21-44.57c3.39-4.55,6.94-8.93,10.59-13.23-3.43,8.68-6.32,17.58-9,26.25a394.13,394.13,0,0,0-14.94,73.32c-5.58,50.92-1.82,102.7,8.78,152.74C225.45,333.15,232,356.33,245.6,376q6,18.19,13.07,36c2.4,6.07,4.84,12.14,7.43,18.14,2.19,5.07,8.58,14.26,6.08,18.79-2.65,4.82-11.09,9.89-15.33,13.59q-7.73,6.74-15.55,13.35C231.05,484.52,220.44,492.81,210.37,501.69ZM348,572.26q-11.61-11.61-23.26-23.16c-13.55-13.49-26.82-27.9-41.17-40.69l5.67-.62L302,506.37c3.88-.43,11-2.51,14.37-.72s4.88,7.23,6.59,10.63l5.71,11.34,11.41,22.7Q347,564,353.84,577.74C351.85,576,349.89,574.17,348,572.26Zm51-91A27.85,27.85,0,0,0,385,494.34c-5.35,10.62-7.44,24.09-9.49,34.64q-4.87,25-9.72,50-9.58-19-19.13-38L333.87,515.4c-2.94-5.86-5.54-15.83-11.51-19.39s-15.57-.41-22,.27q-14.37,1.55-28.73,3.12l-51.51,5.66c11.76-8.76,22.87-18.44,34.07-27.8,4.76-4,9.4-8.08,14.06-12.17,4.42-3.88,11.29-8,14.14-13.3,2.39-4.4.14-8.43-1.74-12.55-3.17-7-6.31-13.95-9.33-21-4.81-11.22-9.16-22.64-13.19-34.17,11.55,7,23.26,13.81,35.26,20.06,7.37,3.84,14.91,8.41,22.76,11.18,6.06,2.14,10.38.23,15.3-3.5,25.84-19.56,51-40.05,76.08-60.63q-3.87,40.92-11.37,81.38a5.46,5.46,0,0,0,.09,2.4c-1.52,2-1.07,5.58,1.93,6.33,22.22,5.59,42.22,8.43,64.85,12.55Z"/></svg>