<svg id="Layer_1" data-name="Layer 1" xmlns="http://www.w3.org/2000/svg" viewBox="0 0 600 600"><defs><style>.cls-1{fill:#00aeef;}.cls-2{fill:#009444;}.cls-3{fill:#8dc63f;}.cls-4{fill:#fff200;}.cls-5{fill:#f7941e;}.cls-6{fill:#231f20;}</style></defs><title>doodle</title><path class="cls-1" d="M203.32,352.61l5.67.77c1.44-.54,3.28-3.87,3.95-5.13a28.31,28.31,0,0,0,2.58-7.26c1.14-5,1.27-10.19,1.44-15.29a96.13,96.13,0,0,1,1.67-17.57c.22-1.11.48-2.21.8-3.27a21.07,21.07,0,0,1,.75-2.1,36,36,0,0,1,3.13-6.56,2.36,2.36,0,0,1,1.94-1.18c5.85-6.19,14.57-9.19,21.62-1.75,4.53,4.77,5.41,11.66,6,17.92a209.28,209.28,0,0,1,.67,23.89c-.41,16.47-4.28,32.58-4.75,49-.23,8.24.7,18.37,6.88,24.45,2.25,2.23,6,4.9,9.39,3.81,3.17-1,4.67-5.4,5.83-8.16,5.79-13.83,5.75-29.15,5.29-43.88-.45-14.3-1.46-28.84.84-43,.89-5.5,2.06-12.21,7.38-15.21a7.81,7.81,0,0,1,11,3.72c1.37,2.89,1.37,6.43,1.85,9.55a115.25,115.25,0,0,0,3.05,14.12A95.2,95.2,0,0,0,303.79,340c.66,1.59,2.21,6.49,4.63,6.25,1.66-.16,1.32-3.5,1.35-4.1.34-7.94-3.81-15.71-3.54-23.82.2-5.82,1.92-11.31,5.95-15.62,1.13-1.22,3.16-2.16,4.8-1.22,11.06,6.33,12,18.71,14.6,30,1.87,8.08,4.47,17.48,9.41,24.31,1.75,2.42,4.35,5.42,7.7,5.19,5.42-.37,7-7.3,7.23-11.53.38-8.61-1.2-17.65-1.9-26.23-.73-8.81-1.43-17.61-2.19-26.41q-2.29-26.52-4.38-53.06c-2.49-31.11-4.63-62.29-7.67-93.35-3-30.54-8.8-62.41-19.51-91.26-8.47-22.83-28.72-38.43-53.36-39.41-12.9-.51-27.2,3.3-35.58,13.68-8.81,10.9-13.08,26.33-16,39.76-6.25,28.65-7.17,58.6-9.11,87.78-2.11,32-4.05,63.92-6,95.88-.93,15.26-2,30.52-2.74,45.79-.66,14.28-2.9,32.65,3.4,46A15.84,15.84,0,0,0,203.32,352.61Zm99.32-165.55c-5.08-1-8.91-6.3-7.68-11.47.6-2.51,2.59-4.75,5.26-4.9a4.56,4.56,0,0,1,1.41.15c4.16-2.14,10.18,2.55,10.95,6.74C313.61,183.25,308.11,188.14,302.64,187.06Zm14.21-48a5.61,5.61,0,0,1-7.89,1,5.63,5.63,0,0,1-1-7.89,5.62,5.62,0,0,1,7.89-.95,5.62,5.62,0,0,1,1,7.88Zm-8.85-57c4.18-.89,8.61,1.9,9.08,6.11,2.08,4.82,2.24,12.54-4,13.93-5.21,1.17-10.65-2.72-12-7.69S302.65,83.2,308,82.06ZM297.5,52.79c5.31-.64,6.3,7.61,1,8.25S292.19,53.43,297.5,52.79ZM237.57,97.12c4.89-.6,5.8,7,.92,7.59S232.68,97.71,237.57,97.12Zm21.84,118.53c-5.5,5.6-15.56,4.77-20.23-1.46a11.34,11.34,0,0,1-2.34-6.59,3.44,3.44,0,0,1-.37-1.89c.31-4.38,5.43-7.77,9.12-9.35a12.58,12.58,0,0,1,11.81.6C263.59,201,264.56,210.41,259.41,215.65Zm6.29-35.52a4.05,4.05,0,0,1-2.45.33,3.69,3.69,0,0,1-3-3.07,3.62,3.62,0,0,1,2.16-3.69,4.07,4.07,0,0,1,2.46-.25,3.59,3.59,0,0,1,2.95,3A3.55,3.55,0,0,1,265.7,180.13Zm22.87,28c-5.07.62-6-7.26-1-7.87S293.63,207.55,288.57,208.16Zm.32-64.76c4.55-.55,5.4,6.52.85,7.07S284.34,144,288.89,143.4Zm-5.34-30.52c-4.58.56-5.44-6.56-.86-7.11S288.13,112.33,283.55,112.88Zm-20.75-82a4.57,4.57,0,1,1-4,5.09A4.67,4.67,0,0,1,262.8,30.86Zm-4.08,43.42c.69-5.07,6.39-10.78,11.54-9.27,6.86-.65,12.93,6,13.08,12.63.16,6.86-6.14,13-13.07,12.5C262.76,89.54,257.74,81.4,258.72,74.28Zm-.47,56.12c3.33,1.45,5.28,4.74,6.11,8.14,1.65,6.82-1.21,14.1-9,14.48-7.18.36-12.46-6.51-12.37-13.27.07-5.34,3.66-9.36,8.16-8.94A7.37,7.37,0,0,1,258.25,130.4ZM227,55.24c5.16-3.89,13.72-4.11,18.22.87a8.59,8.59,0,0,1-2.57,13.71c-4.55,2.23-12.17,2.09-15.48-2.23a8,8,0,0,1-.77-8.18A2.86,2.86,0,0,1,227,55.24ZM228.86,160a4.06,4.06,0,1,1-3.55,4.52A4.12,4.12,0,0,1,228.86,160Z"/><path class="cls-2" d="M329.3,350.33c.23,3.67.43,7.34.65,11,.91,15.05,1.93,30.09,2.79,45.14.67,11.72,2.61,23.87,1.6,35.61,0,.47-.1.94-.16,1.4a40.27,40.27,0,0,0,4.11-2.91c6.32-5.26,10.81-11.95,11.15-20.35.66-16.9-1.94-33.93-2.1-50.86C338.51,368.66,332.54,358.27,329.3,350.33Z"/><path class="cls-3" d="M323.94,386q-.78-17.85-1.67-35.7c-.32-6.35-.48-12.7-.71-19.06-.11-3.28-.37-6.54-.26-9.79-.93-3.88-2.28-7.81-5-10.56-3.43,6.48-1.42,14.37.1,21.42,1.28,6,4.25,15.84-1.75,20.42-4.48,3.41-10.92,1.69-14.42-2.23-5.31-5.94-7.24-15.75-9.09-23.29a132.82,132.82,0,0,1-2.49-13.11c0,.17-.23-4.38-1-4.17-1.49.44-2,5.39-2.2,6.64a114.45,114.45,0,0,0-1.7,22.1c.08,14.05,1.56,28.06.88,42.12-.57,11.67-2.34,30.23-12.2,38.21-9.66,7.81-22.8-.13-28.06-9.28-8.15-14.15-5.37-31.62-3.22-47a251.93,251.93,0,0,0,2.21-51.56c-.45-6.85-3.2-18.14-11.82-11-6.31,5.25-6.77,14.64-7.12,22.22-.54,12.08-.63,24.39-8,34,2.3,12.31,1.42,25.89,1.91,38.31.53,13.56,1.15,27.12,1.64,40.69.19,5.44-.5,11.69,3.61,15.88,3.42,3.49,8.53,5.45,13.06,7a83,83,0,0,0,29.63,4.22,192.13,192.13,0,0,0,29.87-3.3c8.38-1.55,22.69-2,27.35-10.23,4.41-7.81,2.49-18.86,2.16-27.36C325.19,409.79,324.47,397.9,323.94,386Z"/><path class="cls-4" d="M238.56,63.82c2.21-.84,2.38-2.67.07-3.76-2.08-1-4.42-.21-6.68.35a3.74,3.74,0,0,0,0,3C233.09,65.05,237,64.41,238.56,63.82Z"/><path class="cls-4" d="M301.2,176.1a2.78,2.78,0,0,0,0,2.34c.49,1.15,1.78,2.45,3.08,1.73,1.09-.61,1.14-1.39.22-2.1C303.43,177.21,302.21,176.84,301.2,176.1Z"/><path class="cls-5" d="M302.39,467.77c-4.78.82-9.57,1.43-14.1,2-4.94.67-9.92,1.13-14.9,1.34,5.12,18.33,3.12,38.8,4.08,57.53q.79,15.74,2.34,31.41c.73,7.43.21,25.17,11.35,24.56,10.38-.56,13.56-11.92,14-20.46.52-10.8-.57-21.82-.91-32.61C303.56,510.31,302.74,489,302.39,467.77Z"/><path class="cls-4" d="M271.66,81.91A4.66,4.66,0,0,0,275,76.4c-.71-2.92-3.63-4.47-6.07-5.81l-.12-.08a5.68,5.68,0,0,0-2.3,6C266.91,78.91,268.7,82.57,271.66,81.91Z"/><path class="cls-4" d="M254.58,146.26c5.82-.06,3.94-11.87-2.34-10.07a2.58,2.58,0,0,1-2.18-.29,8,8,0,0,0-.75,5.36C250,143.64,251.85,146.28,254.58,146.26Z"/><path class="cls-4" d="M249.84,204.05c-2.25.64-4,2.37-5.89,3.66a6,6,0,0,0,3.8,3.79c2.54.62,6-.57,6.5-3.38A3.38,3.38,0,0,0,249.84,204.05Z"/><path class="cls-4" d="M311.15,95a1,1,0,0,0,0-.38,10.41,10.41,0,0,1,0-1.94c-.07-1.28-.14-2.57-.28-3.85,0,0,0-.08,0-.13l-.25,0A2.93,2.93,0,0,0,308,92,3.87,3.87,0,0,0,311.15,95Z"/><path class="cls-6" d="M200.18,358c3.3,2.76,6.39,3.13,9.15,2.09a4.37,4.37,0,0,0,.44.31c-.68,11.21.81,23,1.18,34,.46,14,.84,27.95,1.35,41.93.39,10.48,1.44,18.52,11.1,24.23,9.36,5.53,20.28,8.53,31,9.86a107.25,107.25,0,0,0,12.27.8c3.54,18.48,3,37.13,3.86,55.91q.71,15.15,2.1,30.26c.75,8.16.62,17.72,4.35,25.21,6,12.06,21.29,11,29.47,1.77,10.61-12,6.67-33.32,6.2-47.85-.76-23.46-1.33-46.94-2.45-70.39A68.72,68.72,0,0,0,320.33,463a21.18,21.18,0,0,0,10.6-9.32c5-1.84,9.79-5.57,13.33-8.66,5.66-4.94,10.32-11.19,12-18.63,2-8.89.34-19,0-28-.4-10.21-.44-20.52-1.25-30.71,12.81-6.54,9.41-24.35,8.51-35.94q-2.13-27.63-4.18-55.28c-2.73-36.24-5.7-72.47-8.56-108.71A498.94,498.94,0,0,0,332.41,66.22c-4.15-14.23-10-27.49-21-37.69A67.8,67.8,0,0,0,279,12.38a62.66,62.66,0,0,0-36.22,3.25c-14.22,5.91-22,17.31-27.57,31.19C203,77,202.1,111,200,143.06c-2.33,36-4.22,71.95-6.4,107.92-1.2,19.9-2.77,39.82-3.16,59.76-.18,8.86-.48,18,.9,26.77C192.44,344.35,194.57,353.34,200.18,358Zm105,206.16c-.41,8.54-3.59,19.9-14,20.46-11.14.61-10.62-17.13-11.35-24.56q-1.53-15.68-2.34-31.41c-1-18.73,1-39.2-4.08-57.53,5-.21,10-.67,14.9-1.34,4.53-.61,9.32-1.22,14.1-2,.35,21.27,1.17,42.54,1.83,63.81C304.56,542.37,305.65,553.39,305.13,564.19ZM323.5,449.06c-4.66,8.27-19,8.68-27.35,10.23a192.13,192.13,0,0,1-29.87,3.3,83,83,0,0,1-29.63-4.22c-4.53-1.59-9.64-3.55-13.06-7-4.11-4.19-3.42-10.44-3.61-15.88-.49-13.57-1.11-27.13-1.64-40.69-.49-12.42.39-26-1.91-38.31,7.41-9.63,7.5-21.94,8-34,.35-7.58.81-17,7.12-22.22,8.62-7.15,11.37,4.14,11.82,11a251.93,251.93,0,0,1-2.21,51.56c-2.15,15.34-4.93,32.81,3.22,47,5.26,9.15,18.4,17.09,28.06,9.28,9.86-8,11.63-26.54,12.2-38.21.68-14.06-.8-28.07-.88-42.12a114.45,114.45,0,0,1,1.7-22.1c.24-1.25.71-6.2,2.2-6.64.73-.21,1,4.34,1,4.17a132.82,132.82,0,0,0,2.49,13.11c1.85,7.54,3.78,17.35,9.09,23.29,3.5,3.92,9.94,5.64,14.42,2.23,6-4.58,3-14.45,1.75-20.42-1.52-7.05-3.53-14.94-.1-21.42,2.71,2.75,4.06,6.68,5,10.56-.11,3.25.15,6.51.26,9.79.23,6.36.39,12.71.71,19.06q.9,17.85,1.67,35.7c.53,11.9,1.25,23.79,1.72,35.7C326,430.2,327.91,441.25,323.5,449.06Zm25.94-28.83c-.34,8.4-4.83,15.09-11.15,20.35a40.27,40.27,0,0,1-4.11,2.91c.06-.46.12-.93.16-1.4,1-11.74-.93-23.89-1.6-35.61-.86-15.05-1.88-30.09-2.79-45.14-.22-3.67-.42-7.34-.65-11,3.24,7.94,9.21,18.33,18,19C347.5,386.3,350.1,403.33,349.44,420.23Zm-152-117.64c.71-15.27,1.81-30.53,2.74-45.79,2-32,3.9-63.93,6-95.88,1.94-29.18,2.86-59.13,9.11-87.78,2.93-13.43,7.2-28.86,16-39.76C239.71,23,254,19.19,266.91,19.7c24.64,1,44.89,16.58,53.36,39.41C331,88,336.8,119.83,339.78,150.37c3,31.06,5.18,62.24,7.67,93.35q2.13,26.54,4.38,53.06c.76,8.8,1.46,17.6,2.19,26.41.7,8.58,2.28,17.62,1.9,26.23-.19,4.23-1.81,11.16-7.23,11.53-3.35.23-5.95-2.77-7.7-5.19-4.94-6.83-7.54-16.23-9.41-24.31-2.61-11.28-3.54-23.66-14.6-30-1.64-.94-3.67,0-4.8,1.22-4,4.31-5.75,9.8-5.95,15.62-.27,8.11,3.88,15.88,3.54,23.82,0,.6.31,3.94-1.35,4.1-2.42.24-4-4.66-4.63-6.25a95.2,95.2,0,0,1-3.54-10.54,115.25,115.25,0,0,1-3.05-14.12c-.48-3.12-.48-6.66-1.85-9.55a7.81,7.81,0,0,0-11-3.72c-5.32,3-6.49,9.71-7.38,15.21-2.3,14.2-1.29,28.74-.84,43,.46,14.73.5,30-5.29,43.88-1.16,2.76-2.66,7.13-5.83,8.16-3.4,1.09-7.14-1.58-9.39-3.81-6.18-6.08-7.11-16.21-6.88-24.45.47-16.41,4.34-32.52,4.75-49a209.28,209.28,0,0,0-.67-23.89c-.56-6.26-1.44-13.15-6-17.92-7.05-7.44-15.77-4.44-21.62,1.75a2.36,2.36,0,0,0-1.94,1.18,36,36,0,0,0-3.13,6.56,21.07,21.07,0,0,0-.75,2.1c-.32,1.06-.58,2.16-.8,3.27A96.13,96.13,0,0,0,217,325.7c-.17,5.1-.3,10.28-1.44,15.29a28.31,28.31,0,0,1-2.58,7.26c-.67,1.26-2.51,4.59-3.95,5.13l-5.67-.77a15.84,15.84,0,0,1-2.46-4C194.56,335.24,196.8,316.87,197.46,302.59Z"/><path class="cls-6" d="M257.4,197a12.58,12.58,0,0,0-11.81-.6c-3.69,1.58-8.81,5-9.12,9.35a3.44,3.44,0,0,0,.37,1.89,11.34,11.34,0,0,0,2.34,6.59c4.67,6.23,14.73,7.06,20.23,1.46C264.56,210.41,263.59,201,257.4,197Zm-3.15,11.16c-.54,2.81-4,4-6.5,3.38a6,6,0,0,1-3.8-3.79c1.91-1.29,3.64-3,5.89-3.66A3.38,3.38,0,0,1,254.25,208.12Z"/><path class="cls-6" d="M301.63,170.84a4.56,4.56,0,0,0-1.41-.15c-2.67.15-4.66,2.39-5.26,4.9-1.23,5.17,2.6,10.47,7.68,11.47,5.47,1.08,11-3.81,9.94-9.48C311.81,173.39,305.79,168.7,301.63,170.84Zm2.68,9.33c-1.3.72-2.59-.58-3.08-1.73a2.78,2.78,0,0,1,0-2.34c1,.74,2.23,1.11,3.33,2C305.45,178.78,305.4,179.56,304.31,180.17Z"/><path class="cls-6" d="M287.61,200.29c-5.06.61-4.11,8.49,1,7.87S292.69,199.68,287.61,200.29Z"/><path class="cls-6" d="M289.74,150.47c4.55-.55,3.7-7.62-.85-7.07S285.18,151,289.74,150.47Z"/><path class="cls-6" d="M229.83,168a4.06,4.06,0,1,0-4.52-3.54A4.14,4.14,0,0,0,229.83,168Z"/><path class="cls-6" d="M243,139.75c-.09,6.76,5.19,13.63,12.37,13.27,7.8-.38,10.66-7.66,9-14.48-.83-3.4-2.78-6.69-6.11-8.14a7.37,7.37,0,0,0-7.11.41C246.64,130.39,243.05,134.41,243,139.75Zm7.08-3.85a2.58,2.58,0,0,0,2.18.29c6.28-1.8,8.16,10,2.34,10.07-2.73,0-4.58-2.62-5.27-5A8,8,0,0,1,250.06,135.9Z"/><path class="cls-6" d="M283.55,112.88c4.58-.55,3.73-7.67-.86-7.11S279,113.44,283.55,112.88Z"/><path class="cls-6" d="M238.49,104.71c4.88-.6,4-8.19-.92-7.59S233.59,105.3,238.49,104.71Z"/><path class="cls-6" d="M270.27,90.14c6.93.54,13.23-5.64,13.07-12.5C283.19,71,277.12,64.36,270.26,65c-5.15-1.51-10.85,4.2-11.54,9.27C257.74,81.4,262.76,89.54,270.27,90.14Zm-1.44-19.63.12.08c2.44,1.34,5.36,2.89,6.07,5.81a4.66,4.66,0,0,1-3.36,5.51c-3,.66-4.75-3-5.13-5.39A5.68,5.68,0,0,1,268.83,70.51Z"/><path class="cls-6" d="M227.13,67.59c3.31,4.32,10.93,4.46,15.48,2.23a8.59,8.59,0,0,0,2.57-13.71c-4.5-5-13.06-4.76-18.22-.87a2.86,2.86,0,0,0-.6,4.17A8,8,0,0,0,227.13,67.59ZM232,60.41c2.26-.56,4.6-1.33,6.68-.35,2.31,1.09,2.14,2.92-.07,3.76-1.56.59-5.47,1.23-6.57-.45A3.74,3.74,0,0,1,232,60.41Z"/><path class="cls-6" d="M263.9,39.94a4.57,4.57,0,1,0-5.09-4A4.63,4.63,0,0,0,263.9,39.94Z"/><path class="cls-6" d="M298.5,61c5.3-.64,4.31-8.89-1-8.25S293.18,61.68,298.5,61Z"/><path class="cls-6" d="M301.06,94.41c1.38,5,6.82,8.86,12,7.69,6.23-1.39,6.07-9.11,4-13.93-.47-4.21-4.9-7-9.08-6.11C302.65,83.2,299.65,89.36,301.06,94.41Zm9.46-5.7.25,0s0,.08,0,.13c.14,1.28.21,2.57.28,3.85a10.41,10.41,0,0,0,0,1.94,1,1,0,0,1,0,.38A3.87,3.87,0,0,1,308,92,2.93,2.93,0,0,1,310.52,88.71Z"/><path class="cls-6" d="M315.89,131.15a5.62,5.62,0,0,0-7.89.95,5.63,5.63,0,0,0,1,7.89,5.61,5.61,0,0,0,7.89-1,5.62,5.62,0,0,0-1-7.88Z"/><path class="cls-6" d="M264.89,173.45a4.07,4.07,0,0,0-2.46.25,3.62,3.62,0,0,0-2.16,3.69,3.69,3.69,0,0,0,3,3.07,4.05,4.05,0,0,0,2.45-.33,3.55,3.55,0,0,0,2.14-3.65A3.59,3.59,0,0,0,264.89,173.45Z"/></svg>