<svg id="Layer_1" data-name="Layer 1" xmlns="http://www.w3.org/2000/svg" viewBox="0 0 600 600"><defs><style>.cls-1{fill:#fff;}.cls-2{fill:#88e0ff;}.cls-3{fill:#231f20;}</style></defs><title>doodle</title><path class="cls-1" d="M225.19,243.22c32.61,10.37,68.22,10.69,100.8,0a161.92,161.92,0,0,0,42.47-21.36,158.77,158.77,0,0,0,18.22-14.93c5-4.75,9.36-10.08,14.12-15a497.12,497.12,0,0,0-14.29-71.74c-4.72,5.43-10.78,10-16.39,14.31a185.87,185.87,0,0,1-22.29,14.67,190.44,190.44,0,0,1-87.7,24.16c-24.26.61-58.39-2.27-75.12-22.8-4.42,21.3-6,43.28-5.57,65.44C190.79,230.06,208.2,237.82,225.19,243.22Zm140.44-75.47c2.88-6.77,14.31-4.58,17.27,1.1,3.58,6.85,1.61,17.5-6.36,20-7.62,2.37-14.84-3.58-15.09-11.3A13.61,13.61,0,0,1,365.63,167.75Zm-90.4,34.59a1.71,1.71,0,0,1,2.93,0c2.42,4.82,8.23,19.09,16.11,12.41,6.74-5.71,2.89-16,7.22-22.6a2.05,2.05,0,0,1,3.18-.41c4.61,4.88,2.76,14.48.63,20.21-1.9,5.13-5.47,10.26-11,11.77C283.46,226.66,269.49,213.13,275.23,202.34Zm-77.54-7.91c3-3.18,7.52-4.05,11.74-3.53,4.41.55,8.51,2.21,10,6.78a12.42,12.42,0,0,1-2,10.94c-4.67,6.33-14.33,6.78-19.09.25a9.68,9.68,0,0,1-1.72-4.08C193.93,201.63,195,197.29,197.69,194.43Z"/><path class="cls-1" d="M373.67,180c1.63-.66,1.88-5.82.76-6.81-.52-.45-2.37,0-3.41,0a6.25,6.25,0,0,0-.94,2.48C369.84,177.61,371.09,181.05,373.67,180Z"/><path class="cls-2" d="M176,280.78c-15.56-10.7-23.8-27-24.77-45.67-1-19.72,4-41.43-12.78-56.06-16.12-14-38.47-13.78-57.38-21.52-7.7-3.15-14.46-8.12-17.69-16-2.76-6.77-2.4-14.05-1.54-21.18-6.55,1.16-17.91,3.2-20.22,3.87C40.07,133,39.3,141.18,42,150c2.79,9.27,8.47,17.67,16.67,23,16.45,10.65,37.7,9.47,55,18.46,17.62,9.17,22.75,25.82,24.51,44.43,1,10.77,2.16,21.34,5,31.82,2.57,9.52,5.77,20,13.21,26.87,7,6.46,17.13,9.42,24.77,15-1.73-9.43-3.34-19-4.76-28.6Z"/><path class="cls-1" d="M209.3,203.91c.59-.54,1.65-2.31,1.21-3.16-.27-.53-1.87-.55-2.65-.61a4.26,4.26,0,0,0-3.24.85,4.19,4.19,0,0,0,.24,2.15A2.84,2.84,0,0,0,209.3,203.91Z"/><path class="cls-2" d="M234.2,300.09a224.05,224.05,0,0,0,64.85.51c39.41-5.42,79.82-20.32,106.16-51.26a1.59,1.59,0,0,1,.66-.46c-.93-17.11-2.32-34.35-4.38-51.51-9.6,12.85-23.81,23.59-36.93,31.95a165,165,0,0,1-100.09,25.31,166.58,166.58,0,0,1-52.53-12.48c-11.94-5-24.49-11.52-32.41-22a503.45,503.45,0,0,0,5.64,59.66c7,5.87,14.13,10.62,22.91,13.88A135,135,0,0,0,234.2,300.09Z"/><path class="cls-2" d="M288.8,166.39a188.1,188.1,0,0,0,53.14-18.54,184.87,184.87,0,0,0,22.62-14.14c7.36-5.39,13.66-12,20.81-17.53L385,114.8c-4.73-15.85-11.42-33-20.73-48.26-12.23,28.72-47.63,40.65-75.26,48-8.09,2.16-16.26,4.63-24.65,5.27-9.29.71-18.83-.61-27.94-2.41a106.7,106.7,0,0,1-25-8c-3.86-1.83-7.67-4-10.41-7.2a212.19,212.19,0,0,0-15.15,44.51C211.51,172.74,255,172.74,288.8,166.39Z"/><path class="cls-2" d="M370.1,474.87a176.48,176.48,0,0,1-47,13.24,277.92,277.92,0,0,1-51.17,2.4c-13.38-.54-28-2.2-39.71-9.17q2.05,7.21,4.14,14.41,5.19,17.88,10.51,35.72c3.39,11.4,6.74,22.95,12.19,33.57,1.78,3.46,6.15,12.05,11,8.17,3-2.37,3.32-8.18,3.69-11.59a303.72,303.72,0,0,0,1.52-36.31,3.7,3.7,0,0,1,2.52-3.74,4.48,4.48,0,0,1,5.51-2.15c11.18,3.46,22-2.5,32.3-6.35,15.4-5.77,36.29-6.12,42.88,12.17,3.09,8.57.77,19.76,6.81,27.14,8,9.76,18.44-7.65,21.24-14,4.35-9.79,5.91-20.73,7-31.3,1.26-11.86,2.33-23.74,3.46-35.62q.63-6.67,1.25-13.36c-2.38,1.77-4.83,3.4-7.06,4.92A137.33,137.33,0,0,1,370.1,474.87Z"/><path class="cls-1" d="M269.86,115.51c7.46-1.32,14.83-3.53,22.13-5.54,15.37-4.23,30.82-9.27,44.21-18.14a74.21,74.21,0,0,0,25.63-29.11C350.11,44.79,334.54,29.94,314,23.62,272.24,10.78,232,50,211.85,82.24q-5.13,8.22-9.31,16.72c9.49,10.36,26.58,13.81,39.71,15.9C251.36,116.31,260.72,117.12,269.86,115.51Zm-7.5-68.15c6.27-3.4,13.39-5.46,20.32-7a30.16,30.16,0,0,1,10.59-.76c11.65.8,24.21,7.86,23.39,20.71C315.8,74,299.84,81.62,288.3,84.26c-12.24,2.8-29.11,4.49-37.51-7.08C242.55,65.83,252,53,262.36,47.36Z"/><path class="cls-2" d="M272.72,82.37c12.42-.22,27.7-3.6,36-13.58,6-7.19,4.42-16.47-3.25-21.69-5.17-3.51-11-3.84-16.95-4.56a81.9,81.9,0,0,0-10.21,2.59c-6.26,1.82-12.66,4-18,7.9-6.3,4.63-11.72,13.19-7.16,20.84C257.22,80.58,265.47,82.5,272.72,82.37Z"/><path class="cls-1" d="M181,380.58c-10.06,10.47-22.66,18-31.17,30a81.79,81.79,0,0,0-14.71,39.88,80.64,80.64,0,0,0-.22,10.43c.1,2.53-.22,10,1.83,11.69,1.41,1.14,5.7.18,7.77.09A69.76,69.76,0,0,1,156,419.92c6-8.36,13.87-14.32,21.83-20.64a77,77,0,0,0,10.82-9.9c3-3.46,4.46-7.6,6.85-11.36q-1.64-6.94-3.2-13.89A57.34,57.34,0,0,1,181,380.58Z"/><path class="cls-1" d="M313,432.71C293.47,435,273.39,436,253.83,434c-12.87-1.31-27.12-4.2-37.9-11.95q7.29,27.73,15.19,55.3c13.87,6.78,28.24,9,43.7,9.42A277.09,277.09,0,0,0,324.17,484a170.87,170.87,0,0,0,45.63-13.33,139.78,139.78,0,0,0,17.95-10c3.93-2.6,7.49-5.91,11.21-8.9,1.62-17.87,3.13-35.76,4.4-53.66.09-1.25.17-2.5.25-3.75-10.19,10.31-22.23,19.35-35.21,25.36C351.18,427.68,331.65,430.54,313,432.71Z"/><path class="cls-1" d="M367.49,283.92c-30.66,15.51-65.71,22.87-100,22.69-17.12-.09-34.67-1.82-51.22-6.34-10.57-2.89-22.19-7.48-30.33-15.35,3.63,23.16,8.37,45.95,13.15,67.82.14.64.29,1.28.43,1.92A64.46,64.46,0,0,0,221,365.37c9.48,2.54,19.35,3,29.11,3.37A331.65,331.65,0,0,0,309,366.06a216.64,216.64,0,0,0,50.92-13.51c16.59-6.76,33.71-16.05,46.38-28.91a2,2,0,0,1,.64-.45c.48-23,.3-46.09-.82-69.11C395.92,266.89,382,276.57,367.49,283.92Z"/><path class="cls-1" d="M498.69,387.81a97.81,97.81,0,0,0-15.25-51.1c-11-17.33-26.89-27.52-43.4-39-7.46-5.17-14.79-10.72-20.78-17.59q-.6-.69-1.2-1.41.18,9.53.17,19.06c4.34,8.05,9.45,15,16.61,20.92,7,5.77,14.65,10.63,21.67,16.36,12.44,10.14,20.35,23,22.24,39.08,2,17-2.24,33.74-7,49.92-5,17.17-11.4,35.74-7.91,53.83,2.45,12.72,9.3,25.38,21.39,30.72a52.31,52.31,0,0,1,9.36-12.07c-5.47-4.75-8.47-12.69-9.9-19.47-2.08-9.89-1.47-19.92.65-29.74C489.7,427.27,498.88,408.75,498.69,387.81Z"/><path class="cls-2" d="M306.6,370.36a335.18,335.18,0,0,1-62.94,1.95c-14.47-.84-32-3.07-43.16-13.38,4.41,19.74,9.25,39.38,14.34,58.94a101.09,101.09,0,0,0,42.58,12.55c18.07,1.33,36.46.41,54.44-1.63,18.85-2.13,38.95-5,56.16-13.41,13.93-6.83,25.12-16.85,36-27.55,1.29-19.67,2.28-39.36,2.78-59.07-11.87,12-28.81,20.55-44.06,26.92A220.08,220.08,0,0,1,306.6,370.36Z"/><path class="cls-3" d="M508.65,387.81c-.59-35.57-19.12-67.5-48.62-86.87-9.4-6.17-19.49-11.44-28.28-18.51a71,71,0,0,1-11.11-10.95,44.77,44.77,0,0,1-2.87-4.13c-1.5-47.9-6.92-95.51-18.86-141.94-10.21-39.71-28.28-81.78-65-103.67C314,9.9,291.45,8.69,270.08,17.35c-20.4,8.25-38,23.08-52,39.88-49.28,59.27-53,136-43.67,209.8-11.17-11.45-13.77-26.92-13.5-43.3.29-17.43.32-35.22-12.61-48.59-13.14-13.59-31.88-17.46-49.63-21.25-8.47-1.81-18.42-3.56-24.84-9.9-7.26-7.17-6.13-18.26-5.09-27.53.25-2.22-2.23-3.45-4-3.08-7.51,1.52-17.16,2-24,5.41-2,1-3.59,2.84-3.51,4.65-6.48,12.71-3.1,30.13,3.92,41.76,10.06,16.65,27.86,21.94,45.69,26.3,9.56,2.33,19.41,4.91,27.57,10.66,8.69,6.12,12.35,15.57,13.9,25.74,1.61,10.59,1.72,21.3,3.71,31.86,1.93,10.22,4.72,20.71,9.51,30,4.44,8.59,11.17,14.5,19.58,19,8.18,4.41,16.48,7.68,21.23,16.15a3.89,3.89,0,0,0,2.12,1.81q1.13,5.7,2.29,11.31,1.26,6.12,2.59,12.23c-2.43,5.84-3.79,11.94-7.57,17.38-4.57,6.57-11,11.7-17.1,16.72-11.88,9.7-22.38,19.91-29.24,33.86a88.59,88.59,0,0,0-9.11,42.68c.25,5.78.11,14.64,5.2,18.49s11.19,0,16.51,2.33c3.16,1.4,7.39-.92,6.23-4.78-6.15-20.43-.55-43.68,14.52-58.9,6.69-6.76,14.89-11.76,21.89-18.18a49,49,0,0,0,8-9.09c8.47,34.61,18,69,28.13,103.1C234,518.39,240,544.27,251,567.45c3.53,7.46,9.8,17.54,19.64,15,8.29-2.1,10.77-11.31,11.65-18.75A243.94,243.94,0,0,0,283.77,530c10.7,2.14,21-1.7,31-5.65,8.28-3.26,19.2-7.42,27.88-3.1,9.9,4.94,7.21,19.32,9.9,28.25,2.64,8.71,9.2,16.82,19.15,16.19,10.4-.65,18-10.13,22.51-18.63,5.36-10.08,7.72-21.31,9.21-32.53,3.36-25.34,5.21-51,7.44-76.44,3.61-41.25,6.58-83.1,7.21-125,5.46,8.59,15.26,15.42,22.66,20.88,7.24,5.35,14.81,10.79,20.29,18.05a46.82,46.82,0,0,1,8.89,24.78c2.8,36.65-23.76,70.54-14.17,107.34,4.1,15.72,14.45,29.85,30.46,34.64a4.65,4.65,0,0,0,5.2-2.12,46.5,46.5,0,0,1,13.55-17c3.43-2.71.72-6.94-2.77-7.48-3.62-6.58-7.29-12.38-8.3-20.3-1.19-9.39.32-18.73,2.74-27.79C501.68,425.29,509,407.61,508.65,387.81ZM211.85,82.24C232,50,272.24,10.78,314,23.62c20.56,6.32,36.13,21.17,47.85,39.1A74.21,74.21,0,0,1,336.2,91.83C322.81,100.7,307.36,105.74,292,110c-7.3,2-14.67,4.22-22.13,5.54-9.14,1.61-18.5.8-27.61-.65-13.13-2.09-30.22-5.54-39.71-15.9Q206.74,90.47,211.85,82.24ZM201,102.17c2.74,3.16,6.55,5.37,10.41,7.2a106.7,106.7,0,0,0,25,8c9.11,1.8,18.65,3.12,27.94,2.41,8.39-.64,16.56-3.11,24.65-5.27,27.63-7.34,63-19.27,75.26-48,9.31,15.27,16,32.41,20.73,48.26l.39,1.38c-7.15,5.56-13.45,12.14-20.81,17.53a184.87,184.87,0,0,1-22.62,14.14,188.1,188.1,0,0,1-53.14,18.54c-33.83,6.35-77.29,6.35-103-19.71A212.19,212.19,0,0,1,201,102.17Zm-16,48.31c16.73,20.53,50.86,23.41,75.12,22.8a190.44,190.44,0,0,0,87.7-24.16,185.87,185.87,0,0,0,22.29-14.67c5.61-4.3,11.67-8.88,16.39-14.31a497.12,497.12,0,0,1,14.29,71.74c-4.76,5-9.12,10.28-14.12,15a158.77,158.77,0,0,1-18.22,14.93A161.92,161.92,0,0,1,326,243.2c-32.58,10.71-68.19,10.39-100.8,0-17-5.4-34.4-13.16-45.75-27.3C179.05,193.76,180.59,171.78,185,150.48ZM156.32,294.59c-7.44-6.91-10.64-17.35-13.21-26.87-2.82-10.48-4-21.05-5-31.82-1.76-18.61-6.89-35.26-24.51-44.43-17.28-9-38.53-7.81-55-18.46C50.44,167.7,44.76,159.3,42,150c-2.67-8.85-1.9-17.06-.34-25.82,2.31-.67,13.67-2.71,20.22-3.87-.86,7.13-1.22,14.41,1.54,21.18,3.23,7.89,10,12.86,17.69,16,18.91,7.74,41.26,7.5,57.38,21.52,16.82,14.63,11.76,36.34,12.78,56.06,1,18.7,9.21,35,24.77,45.67l.32.19c1.42,9.62,3,19.17,4.76,28.6C173.45,304,163.28,301.05,156.32,294.59Zm23.21-74.43c7.92,10.47,20.47,17,32.41,22a166.58,166.58,0,0,0,52.53,12.48,165,165,0,0,0,100.09-25.31c13.12-8.36,27.33-19.1,36.93-31.95,2.06,17.16,3.45,34.4,4.38,51.51a1.59,1.59,0,0,0-.66.46c-26.34,30.94-66.75,45.84-106.16,51.26a224.05,224.05,0,0,1-64.85-.51,135,135,0,0,1-26.12-6.39c-8.78-3.26-15.91-8-22.91-13.88A503.45,503.45,0,0,1,179.53,220.16Zm9.15,169.22a77,77,0,0,1-10.82,9.9c-8,6.32-15.85,12.28-21.83,20.64a69.76,69.76,0,0,0-11.5,52.77c-2.07.09-6.36,1.05-7.77-.09-2-1.65-1.73-9.16-1.83-11.69a80.64,80.64,0,0,1,.22-10.43,81.79,81.79,0,0,1,14.71-39.88c8.51-12,21.11-19.55,31.17-30a57.34,57.34,0,0,0,11.3-16.45q1.57,6.94,3.2,13.89C193.14,381.78,191.64,385.92,188.68,389.38Zm208.44,82.13c-1.13,11.88-2.2,23.76-3.46,35.62-1.13,10.57-2.69,21.51-7,31.3-2.8,6.3-13.24,23.71-21.24,14-6-7.38-3.72-18.57-6.81-27.14C352,507,331.09,507.3,315.69,513.07c-10.27,3.85-21.12,9.81-32.3,6.35a4.48,4.48,0,0,0-5.51,2.15,3.7,3.7,0,0,0-2.52,3.74,303.72,303.72,0,0,1-1.52,36.31c-.37,3.41-.71,9.22-3.69,11.59-4.89,3.88-9.26-4.71-11-8.17-5.45-10.62-8.8-22.17-12.19-33.57q-5.31-17.84-10.51-35.72-2.08-7.2-4.14-14.41c11.74,7,26.33,8.63,39.71,9.17a277.92,277.92,0,0,0,51.17-2.4,176.48,176.48,0,0,0,47-13.24,137.33,137.33,0,0,0,21.21-11.8c2.23-1.52,4.68-3.15,7.06-4.92Q397.74,464.83,397.12,471.51Zm6.24-73.4c-1.27,17.9-2.78,35.79-4.4,53.66-3.72,3-7.28,6.3-11.21,8.9a139.78,139.78,0,0,1-17.95,10A170.87,170.87,0,0,1,324.17,484a277.09,277.09,0,0,1-49.35,2.78c-15.46-.38-29.83-2.64-43.7-9.42q-7.86-27.57-15.19-55.3c10.78,7.75,25,10.64,37.9,11.95,19.56,2,39.64,1,59.13-1.28,18.69-2.17,38.22-5,55.44-13,13-6,25-15.05,35.21-25.36C403.53,395.61,403.45,396.86,403.36,398.11Zm.69-10.28c-10.91,10.7-22.1,20.72-36,27.55-17.21,8.42-37.31,11.28-56.16,13.41-18,2-36.37,3-54.44,1.63a101.09,101.09,0,0,1-42.58-12.55c-5.09-19.56-9.93-39.2-14.34-58.94,11.15,10.31,28.69,12.54,43.16,13.38a335.18,335.18,0,0,0,62.94-1.95,220.08,220.08,0,0,0,56.17-14.68c15.25-6.37,32.19-14.89,44.06-26.92C406.33,348.47,405.34,368.16,404.05,387.83ZM407,323.19a2,2,0,0,0-.64.45c-12.67,12.86-29.79,22.15-46.38,28.91A216.64,216.64,0,0,1,309,366.06a331.65,331.65,0,0,1-58.93,2.68c-9.76-.34-19.63-.83-29.11-3.37a64.46,64.46,0,0,1-21.44-10.71c-.14-.64-.29-1.28-.43-1.92-4.78-21.87-9.52-44.66-13.15-67.82,8.14,7.87,19.76,12.46,30.33,15.35,16.55,4.52,34.1,6.25,51.22,6.34,34.27.18,69.32-7.18,100-22.69,14.52-7.35,28.43-17,38.65-29.84C407.26,277.1,407.44,300.15,407,323.19ZM484.72,477.1c1.43,6.78,4.43,14.72,9.9,19.47a52.31,52.31,0,0,0-9.36,12.07c-12.09-5.34-18.94-18-21.39-30.72-3.49-18.09,2.88-36.66,7.91-53.83,4.73-16.18,9-32.93,7-49.92-1.89-16.09-9.8-28.94-22.24-39.08-7-5.73-14.7-10.59-21.67-16.36-7.16-5.92-12.27-12.87-16.61-20.92q0-9.53-.17-19.06.6.72,1.2,1.41c6,6.87,13.32,12.42,20.78,17.59,16.51,11.44,32.43,21.63,43.4,39a97.81,97.81,0,0,1,15.25,51.1c.19,20.94-9,39.46-13.32,59.55C483.25,457.18,482.64,467.21,484.72,477.1Z"/><path class="cls-3" d="M198.27,208.87c4.76,6.53,14.42,6.08,19.09-.25a12.42,12.42,0,0,0,2-10.94c-1.45-4.57-5.55-6.23-10-6.78-4.22-.52-8.7.35-11.74,3.53-2.73,2.86-3.76,7.2-1.14,10.36A9.68,9.68,0,0,0,198.27,208.87Zm6.35-7.88a4.26,4.26,0,0,1,3.24-.85c.78.06,2.38.08,2.65.61.44.85-.62,2.62-1.21,3.16a2.84,2.84,0,0,1-4.44-.77A4.19,4.19,0,0,1,204.62,201Z"/><path class="cls-3" d="M294.28,223.72c5.55-1.51,9.12-6.64,11-11.77,2.13-5.73,4-15.33-.63-20.21a2.05,2.05,0,0,0-3.18.41c-4.33,6.56-.48,16.89-7.22,22.6-7.88,6.68-13.69-7.59-16.11-12.41a1.71,1.71,0,0,0-2.93,0C269.49,213.13,283.46,226.66,294.28,223.72Z"/><path class="cls-3" d="M376.54,188.84c8-2.49,9.94-13.14,6.36-20-3-5.68-14.39-7.87-17.27-1.1a13.61,13.61,0,0,0-4.18,9.79C361.7,185.26,368.92,191.21,376.54,188.84Zm-6.46-13.14a6.25,6.25,0,0,1,.94-2.48c1-.07,2.89-.47,3.41,0,1.12,1,.87,6.15-.76,6.81C371.09,181.05,369.84,177.61,370.08,175.7Z"/><path class="cls-3" d="M288.3,84.26c11.54-2.64,27.5-10.24,28.36-23.92.82-12.85-11.74-19.91-23.39-20.71a30.16,30.16,0,0,0-10.59.76c-6.93,1.51-14.05,3.57-20.32,7C252,53,242.55,65.83,250.79,77.18,259.19,88.75,276.06,87.06,288.3,84.26ZM260.38,53c5.31-3.89,11.71-6.08,18-7.9a81.9,81.9,0,0,1,10.21-2.59c5.91.72,11.78,1.05,16.95,4.56,7.67,5.22,9.25,14.5,3.25,21.69-8.34,10-23.62,13.36-36,13.58-7.25.13-15.5-1.79-19.5-8.5C248.66,66.22,254.08,57.66,260.38,53Z"/></svg>