<svg id="Layer_1" data-name="Layer 1" xmlns="http://www.w3.org/2000/svg" viewBox="0 0 600 600"><defs><style>.cls-1{fill:#88e0ff;}.cls-2{fill:#00aeef;}.cls-3{fill:#fff200;}.cls-4{fill:#8dc63f;}.cls-5{fill:#fff;}.cls-6{fill:#be1e2d;}.cls-7{fill:#231f20;}</style></defs><title>doodle</title><path class="cls-1" d="M151.56,385.93c-.12-1.59-.24-3.19-.35-4.79-6.46,5.13-14.3,8.79-21.67,12.22-8.5,3.95-17.47,8.87-26.61,11.26a34.66,34.66,0,0,0,12.35,6.17c5.51-4.28,11.44-8.05,17.19-12C138.79,394.51,145,390,151.56,385.93Z"/><path class="cls-2" d="M150.92,377.28l-.39-5.43c-9,4.9-18.83,8.73-28.26,12.64-8.73,3.63-18.31,8.33-27.81,10.26a32,32,0,0,0,7.06,8.73c7.93-5.52,17.67-8.8,26.37-12.94A223.46,223.46,0,0,0,150.92,377.28Z"/><path class="cls-1" d="M121.93,381.07c9.55-4.06,18.78-8.92,28.34-12.94-.07-.93-.13-1.87-.19-2.8a58,58,0,0,1-6.47,1.48q-9.36,2-18.63,4.38c-11.4,2.91-22.65,6.33-34,9.36a28.17,28.17,0,0,0,.57,6.32,27.78,27.78,0,0,0,2,5.9c3.86-1.93,8.07-3.33,12-4.93C111,385.62,116.48,383.39,121.93,381.07Z"/><path class="cls-2" d="M132.47,413.42c1.07-.47,2.16-.9,3.26-1.36,5.66-2.3,11.47-4.84,17.37-6.43-.43-5.37-.86-10.72-1.27-16.09-5.53,3.94-11.33,7.57-17,11.31-5.38,3.55-10.69,7.31-16.22,10.64a30.57,30.57,0,0,0,10.32-.09A3.11,3.11,0,0,1,132.47,413.42Z"/><path class="cls-2" d="M136.78,364.76c4.3-1,8.86-1.63,13.05-3.12-.11-1.62-.22-3.25-.32-4.87a1.36,1.36,0,0,1-1.24,1.08c-17.46,2.63-35.17,6.16-52.81,7.28A32.24,32.24,0,0,0,91.1,378.2a276,276,0,0,1,28.11-9Q128,366.82,136.78,364.76Z"/><path class="cls-1" d="M130.83,420.25a2.23,2.23,0,0,1-.79.51,27.81,27.81,0,0,0-4,6,121.54,121.54,0,0,0,14.15-3.33c4.48-1.24,9.38-2.88,14.1-2.66-.32-4-.63-8-.94-12.06-4.18,1.88-8.61,3.31-12.93,4.81-2.19.76-4.61,1.37-7,2.09a2.75,2.75,0,0,1-.53,2.16A18.45,18.45,0,0,1,130.83,420.25Z"/><path class="cls-1" d="M149.45,355.83c-.11-1.66-.21-3.32-.32-5-5.87,1-12.83-.15-18.61-.28-3.75-.09-7.51-.2-11.26-.39-1.25-.07-2.63-.27-4-.44a3.93,3.93,0,0,1-.55.21,32.53,32.53,0,0,0-17.46,12.43c16.41-3.72,33.49-5.47,50.11-7.93A1.91,1.91,0,0,1,149.45,355.83Z"/><path class="cls-2" d="M147.38,317.56c-.09-2-.15-4-.23-6q-15.84,3.78-31.69,7.53c-10.67,2.52-21.14,5.12-32.13,5a54.68,54.68,0,0,0,16.11,13.18c6.28-4,12.43-7.64,19.65-10.13C128.33,323.89,137.83,319.94,147.38,317.56Z"/><path class="cls-2" d="M146.64,294.67c0-1.72-.06-3.45-.09-5.18-11.45.39-23.2-.86-34.63-1.13-10.72-.24-21.86.39-32.56-.85a33.15,33.15,0,0,0-3.63,19.63c11-4.59,24.41-5.64,36.12-7.54C123.32,297.75,135,295.6,146.64,294.67Z"/><path class="cls-1" d="M147,307.91c-.1-3.13-.2-6.26-.28-9.4-11.59,1.88-23.34,3-34.94,4.78-6.5,1-13,2.09-19.49,3.15-5.35.88-10.89,2.17-16.34,2.16.11.56.22,1.12.36,1.67a35.84,35.84,0,0,0,5.58,11.86c11.76-.32,23.34-4.05,34.7-6.82Q131.81,311.59,147,307.91Z"/><path class="cls-2" d="M114.15,343.55l.54.17a3.27,3.27,0,0,1,2.29,3c3.18,0,6.4.41,8.42.42,4.44,0,8.88.13,13.31.2,3.32.06,6.9-.25,10.22.3q-.52-8.7-1-17.4c-3.92,2.05-8.36,3.45-12.45,5.09C128.58,338.09,121.43,341.25,114.15,343.55Z"/><path class="cls-1" d="M125.31,335.82c4-1.61,8.06-3.21,12.08-4.87,2.94-1.22,7.55-2.28,10.37-4.56-.08-1.71-.14-3.43-.22-5.14-8.28,3.32-17.23,5.59-25.65,8.3a80.08,80.08,0,0,0-14.83,6.07c-1.75,1-3.46,2-5.2,2.89a80.75,80.75,0,0,0,7.77,3.45C114.77,339.7,120.14,337.87,125.31,335.82Z"/><path class="cls-2" d="M155,429.85l-.51-6.49c-5.36,1.37-10.89,2.26-16.26,3.62a50,50,0,0,1-13.11,1.83c-2.4,6.08-2.41,12.88,1.6,18.38a90.72,90.72,0,0,1,12.39-8.43C144.24,435.63,149.46,432.22,155,429.85Z"/><path class="cls-1" d="M145.75,447.78c3.29-3.07,6.53-6.21,9.93-9.17-.11-1.45-.22-2.91-.34-4.37l-.09-1.23c-4.46,2.79-9.23,5.14-13.76,7.82s-8.79,5.67-13.44,8l0,0a23.33,23.33,0,0,0,10.12,6.27C140.86,452.83,143.25,450.1,145.75,447.78Z"/><path class="cls-2" d="M181.84,122.64c5.21,2.82,11.12,5.06,15.8,8.69a1.13,1.13,0,0,1,.35.46q3.07-3.89,6.35-7.68a193.94,193.94,0,0,1-39.73-28,50.07,50.07,0,0,0,2.22,18.07Q174.26,118.51,181.84,122.64Z"/><path class="cls-1" d="M206.66,121.47c1.83-2,3.71-4,5.62-6-4-2-7.31-5.63-10.63-8.56q-6.06-5.32-12-10.82c-6.61-6.15-14.15-12.48-19.86-19.72a50.3,50.3,0,0,0-5,17c6,4.28,12,8.71,18,12.91C190.62,111.66,198.7,116.44,206.66,121.47Z"/><path class="cls-1" d="M204.77,81.53q5.32,5.93,10.45,12c2.9,3.44,6.44,6.89,8.45,11q3.63-3.19,7.41-6.19c-7-7.25-12.28-16-18.26-24a126.41,126.41,0,0,0-11.59-13.2,40.26,40.26,0,0,1-5.82-7.05,44.66,44.66,0,0,0-11.59,5.86C191.32,66.51,198.11,74.12,204.77,81.53Z"/><path class="cls-2" d="M204.18,104.35c3.3,2.87,7.45,5.54,10,9.15q3.63-3.66,7.46-7.13c-3.93-3.18-6.91-8-10.15-11.86s-6.47-7.58-9.79-11.3c-6.55-7.34-13.61-14.23-20.15-21.56-.76.61-1.51,1.25-2.22,1.92a45.22,45.22,0,0,0-8.16,10.33c7.21,5.67,13.57,12.86,20.26,19Q197.73,98.73,204.18,104.35Z"/><path class="cls-2" d="M184.53,151q2.75-4.47,5.73-8.79c-4.75-3-9.16-6.92-13.55-10.28-2-1.48-4-2.91-5.79-4.51a3.88,3.88,0,0,1-4.48,1,25.8,25.8,0,0,0-9.35-2.18A113.7,113.7,0,0,1,170,136.6C174.87,141,180.74,145.55,184.53,151Z"/><path class="cls-2" d="M302.88,67.56c2.18-.33,4.36-.62,6.54-.89-1.92-8.08-3.62-16.21-5.41-24.31-1.53-6.89-3.71-14-3.93-21.14a35,35,0,0,0-17.79-5.58c3.35,7.72,6.1,15.72,9.17,23.54C295.13,48.51,300.25,57.92,302.88,67.56Z"/><path class="cls-1" d="M163,143.85c5.51,4.09,12.76,8.8,17.25,14.47.93-1.64,1.9-3.26,2.87-4.88-5.4-3.83-9.85-9.39-14.74-13.87s-10-8.53-14.53-13.24a29.57,29.57,0,0,0-9.59,2.38c2.46,1.9,4.62,4.45,7,6.35C155,138.14,159,140.92,163,143.85Z"/><path class="cls-2" d="M284.77,71.19a239,239,0,0,1-18.58-50.86,34.09,34.09,0,0,0-12.12,14.73c7.23,13.12,15.15,25.61,23.31,38.2C279.82,72.5,282.29,71.82,284.77,71.19Z"/><path class="cls-1" d="M288.43,70.29c3.91-.9,7.85-1.64,11.81-2.3-4.7-7.94-7.6-17.53-10.94-26.1S282.43,24.63,280,15.72A29.53,29.53,0,0,0,270.69,18,26.26,26.26,0,0,0,268,19.26c3.24,8.51,6.29,17.09,9.6,25.57S284.82,61.81,288.43,70.29Z"/><path class="cls-1" d="M264.14,78.18q4.51-2,9.17-3.59l.53-.18c-4.28-6.61-8.57-13.22-12.77-19.88-3.12-5-6.42-10.22-8.5-15.82A66.23,66.23,0,0,0,249,54.13c2.35,3.22,4.33,6.76,6.42,10.1Q259.83,71.19,264.14,78.18Z"/><path class="cls-2" d="M250.73,85q5-2.9,10.28-5.35-4.23-6.84-8.43-13.68c-1.28-2.11-2.66-4.21-4-6.35,0,.12,0,.24,0,.36a3.55,3.55,0,0,1-6,2.47c-.31-.26-.64-.49-1-.74.92,2,1.75,4.07,2.61,6.09C246.6,73.21,249.73,79.1,250.73,85Z"/><path class="cls-2" d="M233.86,96.17c2.28-1.73,4.6-3.41,7-5-4.4-6.6-8-13.89-12.36-20.56-3.91-6-9.15-12.18-12-18.87a51.06,51.06,0,0,0-18,1.4c5.51,6.33,11.71,12,16.79,18.74C221.46,80,226.84,88.68,233.86,96.17Z"/><path class="cls-1" d="M243.26,89.53c1.73-1.13,3.49-2.22,5.26-3.28a1,1,0,0,1-.17-.19c-2.72-4.42-4.15-9.77-6.13-14.57-1.77-4.28-4.09-8.7-5.49-13.23a48.9,48.9,0,0,0-16.67-6c4.52,5.28,8,12,11.77,17.6C235.85,75.8,241.17,82.44,243.26,89.53Z"/><path class="cls-2" d="M178.4,161.57c-2.91-2.18-5.43-5.07-8.15-7.44-4.05-3.51-8.28-6.79-12.59-10-4.85-3.6-13-8.28-16-14.17a26.94,26.94,0,0,0-10.55,10.36c15.31,7.93,30.39,16.31,45.31,25C177.07,164.05,177.73,162.81,178.4,161.57Z"/><path class="cls-1" d="M101.11,261.73c.85-.13,1.71-.33,2.58-.51a14.67,14.67,0,0,1-1.82-8,117.64,117.64,0,0,0-12.28-1.09,70.09,70.09,0,0,0,5.11,10.62C96.82,262.35,99,262.07,101.11,261.73Z"/><path class="cls-2" d="M102.26,250c1.22-5.89,5.28-10.14,10.25-13.15-3.73-.86-7.38-2.23-11-3.42-5.41-1.79-10.67-3.71-15.91-5.86a58.63,58.63,0,0,0,3,21.74A81.12,81.12,0,0,1,102.26,250Z"/><path class="cls-1" d="M118.08,234.1c1.11-.45,2.23-.86,3.34-1.22a89.9,89.9,0,0,1,10-2.61c-6.69-2.56-13.33-5.24-19.9-8.09C104.24,219,96.08,216,89.3,211.54a48.11,48.11,0,0,0-3.54,14.06c5.29,1.23,10.47,2.63,15.68,4.25C106.91,231.55,112.35,233.72,118.08,234.1Z"/><path class="cls-2" d="M137.05,228.47a2,2,0,0,1,.92.71,98.17,98.17,0,0,1,16.8-.67C136.71,218.68,119.2,207,102.54,195a1.69,1.69,0,0,1-.5-.58,46.07,46.07,0,0,0-11.82,15.12c7.44,2.32,14.64,6.2,21.76,9.14Q124.43,223.8,137.05,228.47Z"/><path class="cls-1" d="M113,284.69c11,.18,22.5-.24,33.51,1,0-1.32,0-2.64,0-4-4.61-.85-9.05-2.14-13.77-2.66-4.46-.49-8.94-.7-13.39-1.24a118.76,118.76,0,0,1-19.93-4.49,4.33,4.33,0,0,1-2.65,1.49c-6.73.79-12,4.68-15.67,10C91.53,283.73,102.52,284.53,113,284.69Z"/><path class="cls-1" d="M158.88,212.14c-13.9-9-28.1-17.42-42.16-26.1a45.55,45.55,0,0,0-12.28,6.46c17.07,11.17,34.48,21.72,51.73,32.59Q157.31,218.57,158.88,212.14Z"/><path class="cls-1" d="M173.07,172.05c.57-1.2,1.17-2.39,1.76-3.59-15.07-8.42-30-17.14-44.62-26.28a28.34,28.34,0,0,0-1.83,17c7,.81,14,3,20.61,4.94A253.15,253.15,0,0,1,173.07,172.05Z"/><path class="cls-2" d="M162.19,200.15c-4.89-1.08-9.73-4.26-13.65-6.94a55.65,55.65,0,0,1-10.23-8.59,4.08,4.08,0,0,1-.83-.08,39,39,0,0,0-18,.64,425.39,425.39,0,0,1,40.3,23.23C160.55,205.64,161.35,202.89,162.19,200.15Z"/><path class="cls-2" d="M150.14,177c6.05,1.75,12.6,2.83,18.46,5.16.94-2.29,1.93-4.57,3-6.83-7.83-2.63-15.58-5.44-23.49-7.84-6.23-1.9-12.79-3.31-19-5.45a32.36,32.36,0,0,0,4.81,9.92C139.35,173.33,144.79,175.44,150.14,177Z"/><path class="cls-1" d="M380.22,68.82c.81-4,2.71-7.94,4-11.74s2.37-8.08,4-11.91a19.66,19.66,0,0,0-8.82-2.94c-.22,4-1.48,8.16-2.18,12.06-.75,4.19-1.09,8.87-2.22,13.11C376.78,67.82,378.51,68.3,380.22,68.82Z"/><path class="cls-2" d="M382.48,69.55c1.85.62,3.66,1.31,5.45,2a33.6,33.6,0,0,1,2.92-5.78c1.67-3.12,3.37-7.06,6.13-9.37a22.85,22.85,0,0,0-5.29-8.57c-.29-.29-.6-.56-.9-.83a113.12,113.12,0,0,1-4,11.78C385.58,62.3,384.42,66.26,382.48,69.55Z"/><path class="cls-3" d="M422.63,415.62c1.09-18-.7-37.22-8.15-53.8s-21.8-25-39.1-28.6a122.4,122.4,0,0,0-56,1.89c-18.61,5-35,13.71-44.88,30.86-18.25,31.84-15.16,70.33-16.92,105.62-.85,17.08-2.65,34.42-8,50.74a98.49,98.49,0,0,1-10.2,22.1,36.08,36.08,0,0,1-3.73,5.11q3.84.72,7.69,1.4a317.9,317.9,0,0,0,37.16,4.44l1,0a1.88,1.88,0,0,1,.49.06c6.48.33,13,.42,19.46.21a201,201,0,0,0,57-10.52c8.65-2.87,17.15-6.18,25.54-9.73,5.15-20.64,16-39.07,23.89-58.68S421.35,436.63,422.63,415.62Z"/><path class="cls-1" d="M362.3,65.12s0,0,0,0c-.91-5.57.74-12,2.77-17.78-1.77-.15-3.46-1.42-3.21-3.39a18.68,18.68,0,0,0-5.27-15.31c.72,11.79-.77,24.12-1.5,35.89C357.48,64.63,359.9,64.84,362.3,65.12Z"/><path class="cls-1" d="M312.65,66.29c2-.23,4.06-.43,6.09-.63-2.12-11.44-5-22.75-7-34.2a1.44,1.44,0,0,1,.06-.67,65.25,65.25,0,0,0-8.69-7.54c.9,6.84,2.87,13.61,4.39,20.29C309.25,51.12,311.06,58.68,312.65,66.29Z"/><path class="cls-1" d="M390.52,72.64q4.11,1.77,8,3.86a48.31,48.31,0,0,0-.58-16.94c-1.2,2.47-3,4.79-4.33,7.12C392.61,68.41,391.77,70.8,390.52,72.64Z"/><path class="cls-1" d="M150.37,190.08c4,2.63,8.76,4.29,12.85,6.77q1.92-5.94,4.2-11.75c-6.44-.79-13-3.3-19.12-5.2-3.29-1-6.75-2-10.13-3.17.62.56,1.26,1.09,1.93,1.59a3.58,3.58,0,0,1,1.19,4.51A91.29,91.29,0,0,0,150.37,190.08Z"/><path class="cls-2" d="M106,264.21a39.62,39.62,0,0,1-4.47.59,46.27,46.27,0,0,1-5.36.37c1,1.63,2.17,3.2,3.34,4.72A2.69,2.69,0,0,1,100,271c7.72.93,15.28,3.11,23.08,3.75,7.41.61,16.26.33,23.31,3.37q0-3.21,0-6.42C135.18,272.45,114.74,272.89,106,264.21Z"/><path class="cls-1" d="M196.31,133.62c-5.68-1.51-11.09-5.16-16.22-8-3.85-2.13-7.64-4.35-11.41-6.62a46.58,46.58,0,0,0,2.44,4.77,3.58,3.58,0,0,1,.24.48q4.68,3.41,9.37,6.8c3.77,2.74,7.92,5.34,11.51,8.4,1.32-1.85,2.66-3.68,4-5.49l.26-.32A1.94,1.94,0,0,1,196.31,133.62Z"/><path class="cls-4" d="M260.2,87.82C206.33,115.42,169.85,174,161.66,233a3.37,3.37,0,0,1-3.25,2.48,98,98,0,0,0-28,1.62c-8,1.67-19.38,4.57-21.85,13.68-4.69,17.29,28.7,15.41,39.22,14.75a3.36,3.36,0,0,1,5.26,2.64c.69,27.55,1.43,55.05,3,82.57,2.87,48.81,7,97.55,10.7,146.3,1.83,23.81,3,47.76,5.5,71.5.46,4.45,1.18,10.68,5.51,13.16s9.18-.25,12.2-3.46c7.56-8,4.18-20.82,6.48-30.7a92.54,92.54,0,0,1-10-3.43c-2.26-.94-2.31-5.05.64-4.73,9.37,1,18.7,3.79,27.88,5.86q5.58,1.26,11.18,2.41a2.27,2.27,0,0,1,2.27-.49c3.3,1.06,8.24-10.5,9.36-12.76a99.55,99.55,0,0,0,5.81-14.62,157.52,157.52,0,0,0,6.08-30.33c2.23-20.53,1.61-41.2,2.85-61.78,2.06-34.14,10-74.27,43.46-91.21,16.43-8.33,35.24-12.42,53.6-12.82,16.73-.36,34.84,1.94,49.62,10.29,31,17.53,33.85,62.47,29.61,93.84-2.55,18.94-8.13,37.27-15.57,54.84-7,16.44-15.87,32.06-21.1,49.16a179.84,179.84,0,0,1,17.67-7.57c3.8-1.3,5.94,4.38,2.66,6.31a111.38,111.38,0,0,1-12.18,6.06c2,11.76,3.53,23.61,7.28,35,1.89,5.77,5.17,11.63,12,11.72s12.3-4.85,15.74-10.34c6-9.52,9.23-21.18,11.91-32a233.35,233.35,0,0,0,5.52-33.74c2.18-22.66,2.13-45.44,3.16-68.16,2.24-49.48,9.7-98.62,9.87-148.21a3.3,3.3,0,0,1,1.63-3,3.11,3.11,0,0,1,3.6-1.26,81.68,81.68,0,0,0,36.18,2.24c8.87-1.53,23.26-6.3,21.36-18-.89-5.51-6.38-7.88-11.13-9.45-5.5-1.81-11.14-3.29-16.75-4.73-11.44-2.93-23.23-4.56-34.58-7.75a2.72,2.72,0,0,1-1.05-4.53,3.61,3.61,0,0,1-.38-1.74c.92-39.25-6.78-80.69-26.43-115.06-16.07-28.09-42.14-50.57-75-55.07-17.26-2.36-35.19-1-52.41,1.13C293.42,75.76,275.92,79.76,260.2,87.82Zm-59.34,71.45c-3.36,8.85-8.53,16.92-12.48,25.52a173.23,173.23,0,0,0-10.33,29.51c-.14.58-1.09.46-1-.14.91-10.15,3.88-19.69,7.85-29s8.33-18.79,14.56-26.7C200,157.75,201.16,158.48,200.86,159.27ZM241.8,480a181.22,181.22,0,0,1-4.61,19.27c-.83,2.7-7.47,23.89-11.9,20.54-.49-.37,0-1.19.49-.84,1,.66,9.82-26.31,10.4-28.76,2.29-9.62,2.46-20.42,5.92-29.64a1.08,1.08,0,0,1,2.12.28C244.64,467.13,243,473.81,241.8,480Zm4.09-41.24c-.12,2.85,0,5.76-.85,8.52a1.07,1.07,0,0,1-2,0,36.23,36.23,0,0,1-.2-8.52c.1-2.84.06-5.78,1-8.48a.91.91,0,0,1,1.74,0C246.27,433,246,435.89,245.89,438.73Zm2.16-282.09c-5.74,2.39-12-.6-12.56-7.06-.33-3.86,1.76-6.79,4.71-8.63a8.31,8.31,0,0,1,4-1.7c.38-.1.76-.19,1.15-.26a2.58,2.58,0,0,1,1.63.22,9.34,9.34,0,0,1,7.21,4.27C257.12,148.69,252.93,154.62,248.05,156.64Zm205.49,41.15c2.36,3.59,4.53,9.67,3.08,13.92a1,1,0,0,1-1.87,0c-.85-2.06-.82-4.44-1.26-6.63s-1.06-4.4-1.54-6.62A.87.87,0,0,1,453.54,197.79Zm-11.61-47.38c2.79,5.71,4.55,11.82,6.26,17.93,1.64,5.85,4.12,12.51,3.87,18.63,0,1-1.56,1.61-2.07.56-2.56-5.28-3.23-11.69-4.73-17.36-1.69-6.34-3.82-12.57-5.15-19C439.89,150.12,441.41,149.34,441.93,150.41Zm-8,262.3a.89.89,0,0,1,1.71,0c1.76,4.67,1.16,12.22-.45,16.9-.19.57-1.13.69-1.27,0a44.66,44.66,0,0,1-.46-8.42C433.48,418.39,433.19,415.42,434,412.71Zm.54,30.73c1.65,9.12-2.67,20.22-5.71,28.73a181.2,181.2,0,0,1-13.27,28.28c-.33.59-1.39.18-1.12-.47,3.78-9.19,7.7-18.37,10.93-27.77,1.56-4.55,3-9.15,4.07-13.83,1.15-4.92,1.4-10.25,3.26-14.94C433,442.66,434.31,442.41,434.5,443.44ZM415.39,133.91a8.09,8.09,0,0,1,4.72.61,9.13,9.13,0,0,1,1.8,15.37c-4.92,4.08-12.75,1.76-15-4.18C404.88,140.11,409.37,133.34,415.39,133.91Zm-81.91,34c8.15-12.84,27-12.45,40.56-10.8,14,1.7,28.77,5.59,39,15.82,10.6,10.56,13.67,26.55,14.26,41a101.59,101.59,0,0,1-8.73,45.27c-5.81,13.06-14.76,25.46-28.31,31.14-12.93,5.42-27.94,4.25-40.79-.8-22.68-8.9-38.35-28.59-40.85-51.86a3,3,0,0,1-.2-2.4,62.07,62.07,0,0,1,.33-12,115,115,0,0,1,15-43A52.71,52.71,0,0,1,333.48,167.86Z"/><path class="cls-1" d="M334.72,64.49q3.51-.17,7-.24c-1.56-6.77-1.14-14.39-1.17-21.31a133.1,133.1,0,0,1,.86-18.51,17.67,17.67,0,0,0-10.52,8.76c.57,4.16.45,8.58.89,12.59C332.49,52.06,333.5,58.3,334.72,64.49Z"/><path class="cls-2" d="M326.23,65c1.72-.13,3.44-.24,5.17-.35-1.08-5.59-2-11.21-2.6-16.87-.14-1.27-.32-2.6-.49-4a3.65,3.65,0,0,1-6-.06,94.47,94.47,0,0,0-6.81-9c3.19,9.83,5,20.4,6.57,30.57C323.46,65.25,324.85,65.12,326.23,65Z"/><path class="cls-5" d="M247.6,146.26c-1.35-.69-3.13-.27-4.79-.24a3.91,3.91,0,0,0-1,2.64c.06,2.56,2.27,2.59,4.13,1.58C247.12,149.61,249.62,147.29,247.6,146.26Z"/><path class="cls-5" d="M417,145.25a2.56,2.56,0,0,0,.88-4.26c-1.81-1.46-3.23.58-3.35,2.32a3.52,3.52,0,0,1-.41,1.43A3.15,3.15,0,0,0,417,145.25Z"/><path class="cls-2" d="M343.83,42.94c.07,7,1.21,14.33.59,21.28q3.69,0,7.37.11c.44-12.42.1-25.54,2.33-37.74A15.59,15.59,0,0,0,347.31,24a15.1,15.1,0,0,0-3.49,0C344.08,30.28,343.77,36.62,343.83,42.94Z"/><path class="cls-5" d="M361,187.73a66.77,66.77,0,0,0,8.34,1.09c1.38-8.22,1.43-16.75,2.81-24.95a93.59,93.59,0,0,0-11.56-.69c-1,6.16-2.49,12.18-2.8,18.48C357.63,185.55,357,186.94,361,187.73Z"/><path class="cls-6" d="M359.52,285.47c12.12,2.86,25.39,1.65,35.58-6a41.24,41.24,0,0,0,5.19-4.6c-.82-1.63-1.44-3.4-2.37-5a41.18,41.18,0,0,0-5.47-7.52,51.41,51.41,0,0,0-15.87-11.57c-12-5.67-24.74-6.19-37.6-5.71a68.3,68.3,0,0,1,10.78,11.18c3,3.86,6.52,8.12,7.54,13a2.65,2.65,0,0,1-4.4,2.56c-3.25-3-5.19-7.22-7.85-10.72a68.42,68.42,0,0,0-9.15-9.87c-6.2-5.47-12.91-8.43-20.37-10.8C319.27,262.53,337.66,280.31,359.52,285.47Z"/><path class="cls-5" d="M382.62,189.07c3.4-.08,8.89,1,10.56-2.94,1.08-2.53.6-6.79.77-9.52a52.64,52.64,0,0,1,.64-7.47A73.08,73.08,0,0,0,378,164.65c.81,8-.59,16.56-2,24.45Q379.33,189.15,382.62,189.07Z"/><path class="cls-2" d="M364.44,65.39c2.57.35,5.13.8,7.67,1.33.17-4.12,1.2-8.42,1.87-12.31s1.06-8.26,2.36-12.13a13.83,13.83,0,0,0-8.19,3.78c-.54,2.52-1.06,5-1.53,7.56-.72,3.77-.68,7.87-2,11.46A1.2,1.2,0,0,1,364.44,65.39Z"/><path class="cls-2" d="M145.85,451.67c-1.57,1.38-3.16,2.89-4.87,4.2,5.22,1.23,10.82,1.45,16.21,2.09L156,442.6C152.69,445.7,149.25,448.68,145.85,451.67Z"/><path class="cls-7" d="M69.35,308.3C72.07,327.1,88.14,340,105,347c-14.3,8-23.1,25.08-19.6,41.53,3.76,17.66,21,29.64,38.48,29.39-7,8.92-9.7,21.83-3.27,31.76,7.61,11.73,23.88,15.11,37.07,14.23q2,26,4,51.92l3.18,40.8c.7,9-.15,21.49,6.78,28.49,6.75,6.81,17,4,22.92-2.31,8.27-8.79,7.43-22.65,7-33.93,4.9,1.24,9.86,2.29,14.68,3.42,9.38,2.18,18.79,4.19,28.28,5.82,19.43,3.33,39.17,5.37,58.9,4.61a206.51,206.51,0,0,0,56-10.25c9.12-3,18.06-6.42,26.91-10.12,2.67-1.13,5.4-2.23,8.13-3.35a153.19,153.19,0,0,0,6.27,32.85c2.57,8.64,7.42,17.15,17.33,18,23.86,2.12,32.25-31.55,36.42-49,5.88-24.53,6.94-49.92,7.74-75,.86-27.13,2.53-54.11,5-81.15,2.74-30.1,5.62-60.22,5.83-90.46a84.13,84.13,0,0,0,39.53.65c10.88-2.5,22.5-9.27,23.16-21.7.7-13.1-12.1-17.42-22.43-20.3-13.34-3.72-27.53-7.71-41.5-8.9a3.76,3.76,0,0,0,.31-1.43c1.34-56.58-16.33-130-67.13-162.34,2.06-13.55,1.14-29.8-10.33-39.14-7.23-5.88-17.74-7.82-26-3.87-1.84-10.4-10.7-19.37-21.56-20.2s-20.32,6.63-23.83,16.33c-13-16.29-32.67-30.36-54.12-22.12-17.12,6.58-25,24.84-27,42.17-20.2-12.88-48.18-11.87-66.56,4.29-17.27,15.19-22.38,41.38-13.87,62.36-14.07-2.31-29.25,4.07-36.44,17s-4.66,28.9,4.16,40.1c-18.63.47-36.37,12-44.74,28.94C74.5,226.64,78.84,251,91.24,269.5,75.71,274.58,67,292.13,69.35,308.3Zm10-20.79c10.7,1.24,21.84.61,32.56.85,11.43.27,23.18,1.52,34.63,1.13,0,1.73,0,3.46.09,5.18-11.62.93-23.32,3.08-34.79,4.93-11.71,1.9-25.09,2.95-36.12,7.54A33.15,33.15,0,0,1,79.36,287.51Zm-3,22.76c-.14-.55-.25-1.11-.36-1.67,5.45,0,11-1.28,16.34-2.16,6.5-1.06,13-2.15,19.49-3.15,11.6-1.81,23.35-2.9,34.94-4.78.08,3.14.18,6.27.28,9.4q-15.19,3.69-30.41,7.4c-11.36,2.77-22.94,6.5-34.7,6.82A35.84,35.84,0,0,1,76.32,310.27Zm7,13.77c11,.16,21.46-2.44,32.13-5s21.13-5,31.69-7.53c.08,2,.14,4,.23,6-9.55,2.38-19,6.33-28.29,9.53-7.22,2.49-13.37,6.16-19.65,10.13A54.68,54.68,0,0,1,83.33,324Zm18.53,14.47c1.74-.92,3.45-1.91,5.2-2.89a80.08,80.08,0,0,1,14.83-6.07c8.42-2.71,17.37-5,25.65-8.3.08,1.71.14,3.43.22,5.14-2.82,2.28-7.43,3.34-10.37,4.56-4,1.66-8,3.26-12.08,4.87-5.17,2.05-10.54,3.88-15.68,6.14A80.75,80.75,0,0,1,101.86,338.51ZM148,330.24q.45,8.7,1,17.4c-3.32-.55-6.9-.24-10.22-.3-4.43-.07-8.87-.17-13.31-.2-2,0-5.24-.41-8.42-.42a3.27,3.27,0,0,0-2.29-3l-.54-.17c7.28-2.3,14.43-5.46,21.35-8.22C139.59,333.69,144,332.29,148,330.24ZM114.69,350a3.93,3.93,0,0,0,.55-.21c1.39.17,2.77.37,4,.44,3.75.19,7.51.3,11.26.39,5.78.13,12.74,1.29,18.61.28.11,1.65.21,3.31.32,5a1.91,1.91,0,0,0-2.11-1.37c-16.62,2.46-33.7,4.21-50.11,7.93A32.53,32.53,0,0,1,114.69,350ZM95.46,365.13c17.64-1.12,35.35-4.65,52.81-7.28a1.36,1.36,0,0,0,1.24-1.08c.1,1.62.21,3.25.32,4.87-4.19,1.49-8.75,2.12-13.05,3.12q-8.82,2.07-17.57,4.43a276,276,0,0,0-28.11,9A32.24,32.24,0,0,1,95.46,365.13Zm-3.93,21.74a28.17,28.17,0,0,1-.57-6.32c11.37-3,22.62-6.45,34-9.36q9.27-2.35,18.63-4.38a58,58,0,0,0,6.47-1.48c.06.93.12,1.87.19,2.8-9.56,4-18.79,8.88-28.34,12.94-5.45,2.32-10.94,4.55-16.44,6.77-3.94,1.6-8.15,3-12,4.93A27.78,27.78,0,0,1,91.53,386.87Zm2.93,7.88c9.5-1.93,19.08-6.63,27.81-10.26,9.43-3.91,19.25-7.74,28.26-12.64l.39,5.43a223.46,223.46,0,0,1-23,13.26c-8.7,4.14-18.44,7.42-26.37,12.94A32,32,0,0,1,94.46,394.75Zm8.47,9.87c9.14-2.39,18.11-7.31,26.61-11.26,7.37-3.43,15.21-7.09,21.67-12.22.11,1.6.23,3.2.35,4.79-6.53,4-12.77,8.58-19.09,12.89-5.75,3.92-11.68,7.69-17.19,12A34.66,34.66,0,0,1,102.93,404.62Zm15.69,6.87c5.53-3.33,10.84-7.09,16.22-10.64,5.66-3.74,11.46-7.37,17-11.31.41,5.37.84,10.72,1.27,16.09-5.9,1.59-11.71,4.13-17.37,6.43-1.1.46-2.19.89-3.26,1.36a3.11,3.11,0,0,0-3.53-2A30.57,30.57,0,0,1,118.62,411.49Zm14.81,4.1c2.37-.72,4.79-1.33,7-2.09,4.32-1.5,8.75-2.93,12.93-4.81.31,4,.62,8.05.94,12.06-4.72-.22-9.62,1.42-14.1,2.66A121.54,121.54,0,0,1,126,426.74a27.81,27.81,0,0,1,4-6,2.23,2.23,0,0,0,.79-.51,18.45,18.45,0,0,0,2.07-2.5A2.75,2.75,0,0,0,133.43,415.59Zm-8.31,13.22A50,50,0,0,0,138.23,427c5.37-1.36,10.9-2.25,16.26-3.62l.51,6.49c-5.54,2.37-10.76,5.78-15.89,8.91a90.72,90.72,0,0,0-12.39,8.43C122.71,441.69,122.72,434.89,125.12,428.81Zm2.95,20,0,0c4.65-2.3,9-5.33,13.44-8s9.3-5,13.76-7.82l.09,1.23c.12,1.46.23,2.92.34,4.37-3.4,3-6.64,6.1-9.93,9.17-2.5,2.32-4.89,5.05-7.56,7.32A23.33,23.33,0,0,1,128.07,448.83Zm12.91,7c1.71-1.31,3.3-2.82,4.87-4.2,3.4-3,6.84-6,10.14-9.07l1.2,15.36C151.8,457.32,146.2,457.1,141,455.87Zm242.94,79.55c-8.39,3.55-16.89,6.86-25.54,9.73a201,201,0,0,1-57,10.52c-6.49.21-13,.12-19.46-.21a1.88,1.88,0,0,0-.49-.06l-1,0a317.9,317.9,0,0,1-37.16-4.44q-3.86-.68-7.69-1.4a36.08,36.08,0,0,0,3.73-5.11,98.49,98.49,0,0,0,10.2-22.1c5.39-16.32,7.19-33.66,8-50.74,1.76-35.29-1.33-73.78,16.92-105.62,9.84-17.15,26.27-25.87,44.88-30.86a122.4,122.4,0,0,1,56-1.89c17.3,3.57,31.66,12,39.1,28.6s9.24,35.84,8.15,53.8c-1.28,21-7,41.65-14.82,61.12S389.07,514.78,383.92,535.42ZM398.5,76.5q-3.87-2.09-8-3.86c1.25-1.84,2.09-4.23,3.07-6,1.31-2.33,3.13-4.65,4.33-7.12A48.31,48.31,0,0,1,398.5,76.5Zm-6.81-28.64A22.85,22.85,0,0,1,397,56.43c-2.76,2.31-4.46,6.25-6.13,9.37a33.6,33.6,0,0,0-2.92,5.78c-1.79-.72-3.6-1.41-5.45-2,1.94-3.29,3.1-7.25,4.35-10.74a113.12,113.12,0,0,0,4-11.78C391.09,47.3,391.4,47.57,391.69,47.86Zm-12.24-5.63a19.66,19.66,0,0,1,8.82,2.94c-1.64,3.83-2.64,8-4,11.91s-3.23,7.73-4,11.74c-1.71-.52-3.44-1-5.17-1.42,1.13-4.24,1.47-8.92,2.22-13.11C378,50.39,379.23,46.26,379.45,42.23Zm-11.3,3.83a13.83,13.83,0,0,1,8.19-3.78c-1.3,3.87-1.68,8.23-2.36,12.13s-1.7,8.19-1.87,12.31c-2.54-.53-5.1-1-7.67-1.33a1.2,1.2,0,0,0,.18-.31c1.32-3.59,1.28-7.69,2-11.46C367.09,51.1,367.61,48.58,368.15,46.06ZM356.57,28.6a18.68,18.68,0,0,1,5.27,15.31c-.25,2,1.44,3.24,3.21,3.39-2,5.76-3.68,12.21-2.77,17.78,0,0,0,0,0,0-2.4-.28-4.82-.49-7.23-.63C355.8,52.72,357.29,40.39,356.57,28.6ZM347.31,24a15.59,15.59,0,0,1,6.81,2.61c-2.23,12.2-1.89,25.32-2.33,37.74q-3.68-.14-7.37-.11c.62-6.95-.52-14.29-.59-21.28-.06-6.32.25-12.66,0-19A15.1,15.1,0,0,1,347.31,24Zm16,48.52c32.83,4.5,58.9,27,75,55.07,19.65,34.37,27.35,75.81,26.43,115.06a3.61,3.61,0,0,0,.38,1.74,2.72,2.72,0,0,0,1.05,4.53c11.35,3.19,23.14,4.82,34.58,7.75,5.61,1.44,11.25,2.92,16.75,4.73,4.75,1.57,10.24,3.94,11.13,9.45,1.9,11.71-12.49,16.48-21.36,18A81.68,81.68,0,0,1,471,286.6a3.11,3.11,0,0,0-3.6,1.26,3.3,3.3,0,0,0-1.63,3c-.17,49.59-7.63,98.73-9.87,148.21-1,22.72-1,45.5-3.16,68.16a233.35,233.35,0,0,1-5.52,33.74c-2.68,10.82-5.94,22.48-11.91,32-3.44,5.49-8.85,10.43-15.74,10.34s-10.14-5.95-12-11.72c-3.75-11.38-5.31-23.23-7.28-35a111.38,111.38,0,0,0,12.18-6.06c3.28-1.93,1.14-7.61-2.66-6.31a179.84,179.84,0,0,0-17.67,7.57c5.23-17.1,14.14-32.72,21.1-49.16,7.44-17.57,13-35.9,15.57-54.84,4.24-31.37,1.42-76.31-29.61-93.84-14.78-8.35-32.89-10.65-49.62-10.29-18.36.4-37.17,4.49-53.6,12.82-33.41,16.94-41.4,57.07-43.46,91.21-1.24,20.58-.62,41.25-2.85,61.78a157.52,157.52,0,0,1-6.08,30.33,99.55,99.55,0,0,1-5.81,14.62c-1.12,2.26-6.06,13.82-9.36,12.76a2.27,2.27,0,0,0-2.27.49q-5.6-1.15-11.18-2.41c-9.18-2.07-18.51-4.86-27.88-5.86-3-.32-2.9,3.79-.64,4.73a92.54,92.54,0,0,0,10,3.43c-2.3,9.88,1.08,22.65-6.48,30.7-3,3.21-7.92,5.91-12.2,3.46s-5-8.71-5.51-13.16c-2.48-23.74-3.67-47.69-5.5-71.5-3.74-48.75-7.83-97.49-10.7-146.3-1.61-27.52-2.35-55-3-82.57a3.36,3.36,0,0,0-5.26-2.64c-10.52.66-43.91,2.54-39.22-14.75,2.47-9.11,13.8-12,21.85-13.68a98,98,0,0,1,28-1.62,3.37,3.37,0,0,0,3.25-2.48c8.19-59,44.67-117.58,98.54-145.18,15.72-8.06,33.22-12.06,50.67-14.19C328.09,71.53,346,70.14,363.28,72.5ZM146.4,278.07c-7.05-3-15.9-2.76-23.31-3.37-7.8-.64-15.36-2.82-23.08-3.75a2.69,2.69,0,0,0-.5-1.06c-1.17-1.52-2.29-3.09-3.34-4.72a46.27,46.27,0,0,0,5.36-.37,39.62,39.62,0,0,0,4.47-.59c8.74,8.68,29.18,8.24,40.38,7.44Q146.37,274.86,146.4,278.07Zm-6.3-99.75c-.67-.5-1.31-1-1.93-1.59,3.38,1.16,6.84,2.15,10.13,3.17,6.12,1.9,12.68,4.41,19.12,5.2q-2.28,5.81-4.2,11.75c-4.09-2.48-8.84-4.14-12.85-6.77a91.29,91.29,0,0,1-9.08-7.25A3.58,3.58,0,0,0,140.1,178.32Zm52.14-38.87c-3.59-3.06-7.74-5.66-11.51-8.4q-4.69-3.39-9.37-6.8a3.58,3.58,0,0,0-.24-.48,46.58,46.58,0,0,1-2.44-4.77c3.77,2.27,7.56,4.49,11.41,6.62,5.13,2.84,10.54,6.49,16.22,8a1.94,1.94,0,0,0,.24,0l-.26.32C194.9,135.77,193.56,137.6,192.24,139.45Zm149.2-115a133.1,133.1,0,0,0-.86,18.51c0,6.92-.39,14.54,1.17,21.31q-3.53.07-7,.24c-1.22-6.19-2.23-12.43-2.91-18.71-.44-4-.32-8.43-.89-12.59A17.67,17.67,0,0,1,341.44,24.43ZM322.31,43.78a3.65,3.65,0,0,0,6,.06c.17,1.36.35,2.69.49,4,.63,5.66,1.52,11.28,2.6,16.87-1.73.11-3.45.22-5.17.35-1.38.1-2.77.23-4.16.35-1.53-10.17-3.38-20.74-6.57-30.57A94.47,94.47,0,0,1,322.31,43.78Zm-10.49-13a1.44,1.44,0,0,0-.06.67c2,11.45,4.86,22.76,7,34.2-2,.2-4.06.4-6.09.63-1.59-7.61-3.4-15.17-5.13-22.75C306,36.86,304,30.09,303.13,23.25A65.25,65.25,0,0,1,311.82,30.79Zm-11.74-9.57c.22,7.13,2.4,14.25,3.93,21.14,1.79,8.1,3.49,16.23,5.41,24.31-2.18.27-4.36.56-6.54.89-2.63-9.64-7.75-19.05-11.42-28.38-3.07-7.82-5.82-15.82-9.17-23.54A35,35,0,0,1,300.08,21.22ZM270.69,18A29.53,29.53,0,0,1,280,15.72c2.45,8.91,6,17.58,9.32,26.17s6.24,18.16,10.94,26.1c-4,.66-7.9,1.4-11.81,2.3-3.61-8.48-7.51-16.85-10.86-25.46s-6.36-17.06-9.6-25.57A26.26,26.26,0,0,1,270.69,18Zm-4.5,2.38a239,239,0,0,0,18.58,50.86c-2.48.63-4.95,1.31-7.39,2.07-8.16-12.59-16.08-25.08-23.31-38.2A34.09,34.09,0,0,1,266.19,20.33ZM252.57,38.71c2.08,5.6,5.38,10.86,8.5,15.82,4.2,6.66,8.49,13.27,12.77,19.88l-.53.18q-4.65,1.6-9.17,3.59-4.32-7-8.68-14c-2.09-3.34-4.07-6.88-6.42-10.1A66.23,66.23,0,0,1,252.57,38.71ZM242.64,62.4a3.55,3.55,0,0,0,6-2.47c0-.12,0-.24,0-.36,1.29,2.14,2.67,4.24,4,6.35q4.2,6.85,8.43,13.68Q255.76,82,250.73,85c-1-5.85-4.13-11.74-6.44-17.2-.86-2-1.69-4.08-2.61-6.09C242,61.91,242.33,62.14,242.64,62.4Zm-5.91-4.14c1.4,4.53,3.72,8.95,5.49,13.23,2,4.8,3.41,10.15,6.13,14.57a1,1,0,0,0,.17.19c-1.77,1.06-3.53,2.15-5.26,3.28-2.09-7.09-7.41-13.73-11.43-19.72-3.73-5.56-7.25-12.32-11.77-17.6A48.9,48.9,0,0,1,236.73,58.26Zm-20.25-6.54c2.84,6.69,8.08,12.92,12,18.87,4.38,6.67,8,14,12.36,20.56-2.37,1.61-4.69,3.29-7,5-7-7.49-12.4-16.13-18.57-24.31C210.21,65.12,204,59.45,198.5,53.12A51.06,51.06,0,0,1,216.48,51.72Zm-21.07,2.33a40.26,40.26,0,0,0,5.82,7.05,126.41,126.41,0,0,1,11.59,13.2c6,8.08,11.24,16.78,18.26,24q-3.78,3-7.41,6.19c-2-4.06-5.55-7.51-8.45-11q-5.13-6.1-10.45-12c-6.66-7.41-13.45-15-21-21.62A44.66,44.66,0,0,1,195.41,54.05Zm-16.1,9.52c.71-.67,1.46-1.31,2.22-1.92,6.54,7.33,13.6,14.22,20.15,21.56q5,5.58,9.79,11.3c3.24,3.87,6.22,8.68,10.15,11.86q-3.83,3.47-7.46,7.13c-2.53-3.61-6.68-6.28-10-9.15q-6.47-5.62-12.77-11.43c-6.69-6.16-13-13.35-20.26-19A45.22,45.22,0,0,1,179.31,63.57Zm-9.48,12.77c5.71,7.24,13.25,13.57,19.86,19.72q5.91,5.49,12,10.82c3.32,2.93,6.61,6.58,10.63,8.56-1.91,2-3.79,4-5.62,6-8-5-16-9.81-23.8-15.18-6.08-4.2-12-8.63-18-12.91A50.3,50.3,0,0,1,169.83,76.34Zm-5.22,19.72a193.94,193.94,0,0,0,39.73,28.05q-3.27,3.8-6.35,7.68a1.13,1.13,0,0,0-.35-.46c-4.68-3.63-10.59-5.87-15.8-8.69q-7.59-4.12-15-8.51A50.07,50.07,0,0,1,164.61,96.06Zm1.83,32.4a3.88,3.88,0,0,0,4.48-1c1.83,1.6,3.84,3,5.79,4.51,4.39,3.36,8.8,7.29,13.55,10.28q-3,4.32-5.73,8.79c-3.79-5.49-9.66-10.07-14.58-14.44a113.7,113.7,0,0,0-12.86-10.32A25.8,25.8,0,0,1,166.44,128.46Zm-12.64-2.13c4.53,4.71,9.72,8.84,14.53,13.24s9.34,10,14.74,13.87c-1,1.62-1.94,3.24-2.87,4.88-4.49-5.67-11.74-10.38-17.25-14.47-3.93-2.93-8-5.71-11.77-8.79-2.35-1.9-4.51-4.45-7-6.35A29.57,29.57,0,0,1,153.8,126.33ZM141.67,130c3,5.89,11.14,10.57,16,14.17,4.31,3.2,8.54,6.48,12.59,10,2.72,2.37,5.24,5.26,8.15,7.44-.67,1.24-1.33,2.48-2,3.73-14.92-8.66-30-17-45.31-25A26.94,26.94,0,0,1,141.67,130Zm-11.46,12.21c14.64,9.14,29.55,17.86,44.62,26.28-.59,1.2-1.19,2.39-1.76,3.59a253.15,253.15,0,0,0-24.08-8c-6.64-1.9-13.65-4.13-20.61-4.94A28.34,28.34,0,0,1,130.21,142.18ZM129.06,162c6.21,2.14,12.77,3.55,19,5.45,7.91,2.4,15.66,5.21,23.49,7.84-1,2.26-2,4.54-3,6.83-5.86-2.33-12.41-3.41-18.46-5.16-5.35-1.54-10.79-3.65-16.27-5A32.36,32.36,0,0,1,129.06,162Zm8.42,22.52a4.08,4.08,0,0,0,.83.08,55.65,55.65,0,0,0,10.23,8.59c3.92,2.68,8.76,5.86,13.65,6.94-.84,2.74-1.64,5.49-2.37,8.26a425.39,425.39,0,0,0-40.3-23.23A39,39,0,0,1,137.48,184.54ZM116.72,186c14.06,8.68,28.26,17.14,42.16,26.1q-1.56,6.42-2.71,13c-17.25-10.87-34.66-21.42-51.73-32.59A45.55,45.55,0,0,1,116.72,186ZM102,194.39a1.69,1.69,0,0,0,.5.58c16.66,12,34.17,23.71,52.23,33.54a98.17,98.17,0,0,0-16.8.67,2,2,0,0,0-.92-.71q-12.63-4.69-25.07-9.82c-7.12-2.94-14.32-6.82-21.76-9.14A46.07,46.07,0,0,1,102,194.39ZM89.3,211.54c6.78,4.46,14.94,7.47,22.27,10.64,6.57,2.85,13.21,5.53,19.9,8.09a89.9,89.9,0,0,0-10,2.61c-1.11.36-2.23.77-3.34,1.22-5.73-.38-11.17-2.55-16.64-4.25-5.21-1.62-10.39-3-15.68-4.25A48.11,48.11,0,0,1,89.3,211.54ZM85.6,227.6c5.24,2.15,10.5,4.07,15.91,5.86,3.62,1.19,7.27,2.56,11,3.42-5,3-9,7.26-10.25,13.15a81.12,81.12,0,0,0-13.66-.69A58.63,58.63,0,0,1,85.6,227.6Zm4,24.56a117.64,117.64,0,0,1,12.28,1.09,14.67,14.67,0,0,0,1.82,8c-.87.18-1.73.38-2.58.51-2.14.34-4.29.62-6.41,1A70.09,70.09,0,0,1,89.59,252.16Zm7.1,22.65a4.33,4.33,0,0,0,2.65-1.49,118.76,118.76,0,0,0,19.93,4.49c4.45.54,8.93.75,13.39,1.24,4.72.52,9.16,1.81,13.77,2.66,0,1.33,0,2.65,0,4-11-1.23-22.48-.81-33.51-1-10.45-.16-21.44-1-31.95.1C84.65,279.49,90,275.6,96.69,274.81Z"/><path class="cls-7" d="M421.91,149.89a9.13,9.13,0,0,0-1.8-15.37,8.09,8.09,0,0,0-4.72-.61c-6-.57-10.51,6.2-8.43,11.8C409.16,151.65,417,154,421.91,149.89Zm-7.43-6.58c.12-1.74,1.54-3.78,3.35-2.32a2.56,2.56,0,0,1-.88,4.26,3.15,3.15,0,0,1-2.88-.51A3.52,3.52,0,0,0,414.48,143.31Z"/><path class="cls-7" d="M247,139.21a2.58,2.58,0,0,0-1.63-.22c-.39.07-.77.16-1.15.26a8.31,8.31,0,0,0-4,1.7c-2.95,1.84-5,4.77-4.71,8.63.54,6.46,6.82,9.45,12.56,7.06,4.88-2,9.07-7.95,6.14-13.16A9.34,9.34,0,0,0,247,139.21Zm-1,11c-1.86,1-4.07,1-4.13-1.58a3.91,3.91,0,0,1,1-2.64c1.66,0,3.44-.45,4.79.24C249.62,147.29,247.12,149.61,246,150.24Z"/><path class="cls-7" d="M308.46,235.2a3,3,0,0,0,.2,2.4c2.5,23.27,18.17,43,40.85,51.86,12.85,5.05,27.86,6.22,40.79.8,13.55-5.68,22.5-18.08,28.31-31.14a101.59,101.59,0,0,0,8.73-45.27c-.59-14.42-3.66-30.41-14.26-41-10.27-10.23-25.07-14.12-39-15.82-13.54-1.65-32.41-2-40.56,10.8a52.71,52.71,0,0,0-9.7,12.33,115,115,0,0,0-15,43A62.07,62.07,0,0,0,308.46,235.2ZM378,164.65a73.08,73.08,0,0,1,16.57,4.49,52.64,52.64,0,0,0-.64,7.47c-.17,2.73.31,7-.77,9.52-1.67,3.91-7.16,2.86-10.56,2.94q-3.3.08-6.58,0C377.43,181.21,378.83,172.68,378,164.65Zm-20.21,17c.31-6.3,1.77-12.32,2.8-18.48a93.59,93.59,0,0,1,11.56.69c-1.38,8.2-1.43,16.73-2.81,24.95a66.77,66.77,0,0,1-8.34-1.09C357,186.94,357.63,185.55,357.81,181.66ZM335.9,251.22a68.42,68.42,0,0,1,9.15,9.87c2.66,3.5,4.6,7.72,7.85,10.72a2.65,2.65,0,0,0,4.4-2.56c-1-4.86-4.55-9.12-7.54-13A68.3,68.3,0,0,0,339,245.09c12.86-.48,25.62,0,37.6,5.71a51.41,51.41,0,0,1,15.87,11.57,41.18,41.18,0,0,1,5.47,7.52c.93,1.62,1.55,3.39,2.37,5a41.24,41.24,0,0,1-5.19,4.6c-10.19,7.61-23.46,8.82-35.58,6-21.86-5.16-40.25-22.94-44-45.05C323,242.79,329.7,245.75,335.9,251.22Z"/><path class="cls-7" d="M199.42,158.42c-6.23,7.91-10.65,17.47-14.56,26.7s-6.94,18.89-7.85,29c0,.6.9.72,1,.14a173.23,173.23,0,0,1,10.33-29.51c4-8.6,9.12-16.67,12.48-25.52C201.16,158.48,200,157.75,199.42,158.42Z"/><path class="cls-7" d="M445.26,170.17c1.5,5.67,2.17,12.08,4.73,17.36.51,1.05,2,.47,2.07-.56.25-6.12-2.23-12.78-3.87-18.63-1.71-6.11-3.47-12.22-6.26-17.93-.52-1.07-2-.29-1.82.76C441.44,157.6,443.57,163.83,445.26,170.17Z"/><path class="cls-7" d="M452,198.46c.48,2.22,1.11,4.4,1.54,6.62s.41,4.57,1.26,6.63a1,1,0,0,0,1.87,0c1.45-4.25-.72-10.33-3.08-13.92A.87.87,0,0,0,452,198.46Z"/><path class="cls-7" d="M242.1,460.54c-3.46,9.22-3.63,20-5.92,29.64-.58,2.45-9.36,29.42-10.4,28.76-.54-.35-1,.47-.49.84,4.43,3.35,11.07-17.84,11.9-20.54A181.22,181.22,0,0,0,241.8,480c1.16-6.16,2.84-12.84,2.42-19.15A1.08,1.08,0,0,0,242.1,460.54Z"/><path class="cls-7" d="M243.8,430.25c-1,2.7-.91,5.64-1,8.48a36.23,36.23,0,0,0,.2,8.52,1.07,1.07,0,0,0,2,0c.8-2.76.73-5.67.85-8.52s.38-5.71-.35-8.48A.91.91,0,0,0,243.8,430.25Z"/><path class="cls-7" d="M425.33,472.21c-3.23,9.4-7.15,18.58-10.93,27.77-.27.65.79,1.06,1.12.47a181.2,181.2,0,0,0,13.27-28.28c3-8.51,7.36-19.61,5.71-28.73-.19-1-1.54-.78-1.84,0-1.86,4.69-2.11,10-3.26,14.94C428.3,463.06,426.89,467.66,425.33,472.21Z"/><path class="cls-7" d="M434,429.61c.14.69,1.08.57,1.27,0,1.61-4.68,2.21-12.23.45-16.9a.89.89,0,0,0-1.71,0c-.77,2.71-.48,5.68-.47,8.48A44.66,44.66,0,0,0,434,429.61Z"/></svg>