<svg id="Layer_1" data-name="Layer 1" xmlns="http://www.w3.org/2000/svg" viewBox="0 0 600 600"><defs><style>.cls-1{fill:#58595b;}.cls-2{fill:#939598;}.cls-3{fill:#fff;}.cls-4{fill:#231f20;}</style></defs><title>doodle</title><path class="cls-1" d="M459.21,445.51l-6.26-.18c3.36,13.34.64,29.53-1,42.74-1.52,12.44-3.6,24.81-5.91,37.13,10.61-5.91,16.14-25.42,18.84-34.9,4.2-14.77,6.2-29.67,7.72-44.86A120.15,120.15,0,0,1,459.21,445.51Z"/><path class="cls-1" d="M168.36,464.22c.57,6.59,1.56,13.1,2.7,19.6,2.13,12.12,4,24.67,8.57,36.15,1.79,4.5,1.9,4.37,2.69-.29a49,49,0,0,0,.35-9.14,152.68,152.68,0,0,1,.57-17.37c1-10.13,2.25-24.14,8-33A97.19,97.19,0,0,1,168,452.74C168.25,456.57,168.05,460.5,168.36,464.22Z"/><path class="cls-1" d="M233.39,489.73A194.71,194.71,0,0,1,229.47,510q-1.26,5-2.78,10c-.48,1.54-1.12,3.09-1.51,4.66a1.54,1.54,0,0,1,.35-.24c23.86-11.45,26.05-43.31,31.31-66.15-7.51-1-15-2.06-22.52-2.89C236.43,466.56,235,478.61,233.39,489.73Z"/><path class="cls-2" d="M156.59,131.86q1-7.32,2-14.65c-10,5.53-17.43,15.52-24.36,24.27a322.06,322.06,0,0,0-25.78,38c-2.08,3.57-7.33,2.65-8.53-1.11-.36-1.13-.66-2.26-1-3.39a91.71,91.71,0,0,0-12,39.33c-.44,5.66.66,54.64,11.41,49.19,3.47-1.76,6.81.47,7.21,4.13.87,8,1.78,17.93,7.48,24.17,4.26,4.66,13.78,7.09,17.83.92,2.12-3.22,7.59-3,8.57,1.12,1.74,7.25,10.72-2.42,12.55-4.52,2.9-3.32,7.75-.4,8,3.33a19.94,19.94,0,0,0,15,17.64c9.47,2.16,18.6-3.79,26.28-8.53,2.86-1.76,7,.5,6.86,3.94a10.87,10.87,0,0,0,12.23,11.4c2.62-3.61,5.34-7.14,8.09-10.56,4.95-6.16,11.42-11.56,19.79-11.2,16.39.72,21.36,26.69,22.82,39.29,3.86,33.54-16.81,70.27-51.22,77.85-6.84,1.5-9.44-8.17-2.88-10.43,25-8.63,42.23-30,43.23-56.82a70.49,70.49,0,0,0-2.6-21.86c-1.49-5.32-4.5-17.82-11.34-17.62s-13,10.17-17,14.68A172.2,172.2,0,0,1,213,337.33a2.35,2.35,0,0,1-3.67-2.83c1.84-3.41,3.87-6.75,6-10a18.84,18.84,0,0,1-14.92-11.4c-9.56,5.57-20.18,9.7-31.18,5.41a29.14,29.14,0,0,1-16.58-16.64c-3.13,2.43-6.72,4.1-10.94,3.83a12.63,12.63,0,0,1-7.7-3.19c-6.14,4.16-14.43,4.16-21.35.63-.29,25.32-14.26,48.06-29.82,67.55C73.85,382,63.78,392.49,53.57,402.77c-5.32,5.36-11.92,13.1-19.5,16.91A13.88,13.88,0,0,1,32,423.75a20.74,20.74,0,0,0,9.21,4.58c5.82,1.26,12.09,1.33,18,1.69A124.65,124.65,0,0,0,95,426.89c5.48-1.22,9.46,6.78,4,9.43A52,52,0,0,1,78.67,441a35.06,35.06,0,0,0,11.51,6.35,62.16,62.16,0,0,0,21.67,2.26A64.82,64.82,0,0,0,135,443.77c5.14-2.39,10.52-7.95,16.26-8.81a3.58,3.58,0,0,1,4.32.11,94.63,94.63,0,0,0,47.14,16.42,5.42,5.42,0,0,1,4.63-7.59c24-1,47.88,4.66,71.87,5.54a320,320,0,0,0,54.57-2.69l-.7-.31c-5.09-2.26-2.3-10.11,2.73-10.07,14.14.09,28.29-.33,42.43-.55,11.8-.18,24.21.64,36.1-.27a4.74,4.74,0,0,1,.88-.92l.63-.5a6,6,0,0,1,6.45-1.09l31.43.79c7.86.2,17,1.54,24.51-1.37a4.21,4.21,0,0,1,3.77-4.19c14.43-2.16,27-8.35,34.5-21.31,2.35-4,8.46-3.37,10.31.35a107.54,107.54,0,0,0,9.39-39.5c.21-5,6.74-8.5,10.49-4.35a63.32,63.32,0,0,1,5.74,7.4c5-21.1-1.39-43.63-7.28-64.18a6.32,6.32,0,0,1,7.7-7.71c7,2,10.61,6.76,13.67,12.11-1.33-33.1-11.72-65.74-30.81-93-3.35-4.78,2.2-9.56,6.8-8.84a56.28,56.28,0,0,1,7.92,1.84c-2.24-3-4.65-5.8-6.8-8.63-6-7.87-11.72-16.37-19.14-23-7.6-6.82-17-11.09-26.15-15.49-9.52-4.6-19.09-9.08-28.68-13.53-4.51-2.1-3-9.13,1.34-10.28,4.17-1.1,8.33-2.24,12.49-3.34a140.38,140.38,0,0,0-34.57-25.39c-8.59-3-17.19-5.94-25.8-8.85-3.75-1.27-6.17-6.74-2.56-9.7a44.8,44.8,0,0,1,8.74-5.66c-23.48-7.86-49.26-7.18-73.89-6-33.4,1.61-67.73,3.36-98.89,16.64-5.5,2.35-10.46-3.54-6.42-8.31q3.25-3.86,6.56-7.67c-36.66,4.62-74.09,18.53-91.23,53.71C162.77,141,155.92,136.73,156.59,131.86Zm77,237c.54-5.52,3.27-10.51,4-16.05s-.36-11.07-.12-16.62c.09-2.13,2.77-3.48,4.36-1.81,8.79,9.25,8,30-2.27,37.88C237.27,374,233.36,371.62,233.64,368.83ZM152,394.14c-4.11,11.49-19.55,12.78-26.44,3.07a15.72,15.72,0,0,1-2.12-4.63c-2.1-2.83-1.88-6.78-.65-10.27.63-3.65,2.3-6.8,5.33-8.14a18.28,18.28,0,0,1,10.9-5.3C152.25,367.69,155.49,384.25,152,394.14Zm319.5-173.45A67,67,0,0,1,493,228.43c5.38,2.95,13,7.1,16.2,12.64,7.6,13.11-21.52,4.57-25.69,2.29-1.25-.68-.54-2.32.66-2.45,5-.54,10.14,1.17,15,2.14l3.95.78c2.8,0,3.26-.63,1.36-2-.85-2.12-4.29-4-6-5.35-7.74-5.84-16.16-9.51-25.13-12.8l.13.23c.37.65-.55,1.41-1.06.81a20.32,20.32,0,0,0-2-2.22A1.07,1.07,0,0,1,471.46,220.69Zm-21,154.39c6.58-3.21,13.53-1,19.2,3.05.86.67,1.74,1.32,2.64,1.94q5.88-2.07,3.78-6.44c-.37-2.52-2.09-6-3.12-8.13a129.32,129.32,0,0,0-8.39-14.1,2.16,2.16,0,0,1,1.86-3.24c8.74.9,14.17,7.28,20.87,12.09-.43-4-3.33-9.1-4.72-11.8a65.35,65.35,0,0,0-5.67-9.11,75.53,75.53,0,0,0-19.66-18.4,1.09,1.09,0,0,1,1.1-1.87,65.33,65.33,0,0,1,23.15,20.07c4,5.69,12.47,17.95,9.55,25.33a2.14,2.14,0,0,1-3.1,1.26c-5.75-3.31-10.58-9.26-16.72-12a82.83,82.83,0,0,1,7.54,14.31c1.44,3.7,4.19,10.29,1.9,14.23-1.84,3.15-5.89,3.55-9,2.34-2.87-1.11-4.9-3.62-7.62-5-4.19-2.09-8.25-1.58-12.67-1.26A1.8,1.8,0,0,1,450.42,375.08ZM394.3,259.85A51.59,51.59,0,0,1,435,269.44c2.68,2,7.71,5.82,3.82,9.31-1.69,1.51-4.68,1.25-6.74,1.36-1.36.07-2.72.11-4.08.17a69.06,69.06,0,0,1,9.72,4.8c3,1.79,9.18,4.79,8.33,9.32-1,5.18-9.16,3.82-12.72,3.88-8.42.16-16.61-.1-24.77-2.2a1.3,1.3,0,0,1,.34-2.54c5.47-.25,10.8,0,16.27.11,1.69.05,12.78,1.21,13.59,0,3.37-5.18-20-12.18-23.22-12.95-2.35-.56-1.7-4,.55-4.05,1.62-.07,17.91.63,18.66-.7,1.44-2.58-6.63-6.64-9.4-8.13-9.5-5.12-20.06-6.59-30.7-5.5C393.24,262.43,393,260.11,394.3,259.85ZM323.89,142.62c7.28-6.73,16.17-9.62,25.82-11.17,7.41-1.19,16.86-3.62,22.88,2.12a1.84,1.84,0,0,1-.37,2.84q-4.49,3.43-9.16,6.59c4.56-.71,9.12-1.4,13.68-1.79,3.22-.29,7.21-.51,9.1,2.78,2.67,4.65-1.76,7.57-7,9.45,7.17,1.09,14.41,3.42,13.34,8.53-.88,4.2-7.11,4.58-10.38,5.33-8.65,2-17.33,4.44-26.13,5.67-2.27.32-3.27-2.79-1-3.52,8.87-2.82,18.23-4.4,27.31-6.43.51-.12,6.16-1.13,5.7-2.35-.29-.78-6.52-2.16-7.48-2.4a66.51,66.51,0,0,0-13.4-1.76,2,2,0,0,1-.54-4c3.79-1.08,7.65-2.05,11.4-3.26,2.3-.75,4-.34,2.66-2.84s-4-1.2-6.51-.87c-6.41.82-12.8,1.74-19.2,2.6-2,.27-2.45-2.69-1-3.6,5-3.09,9.82-6.37,14.61-9.75-5.82-3.3-16.26-.66-22,.38-7.59,1.36-14.91,3.81-20.93,8.81C324.32,144.8,323,143.49,323.89,142.62Zm.78,265.8c0-1.19-2.57-4.89-3.13-5.95a2.11,2.11,0,0,1,1.79-3.12A68.52,68.52,0,0,1,354,402.18a99.73,99.73,0,0,0-31.72-32.48,1,1,0,0,1,1-1.67,94.54,94.54,0,0,1,37,36.91c.79,1.42-.56,3.63-2.27,3a69.22,69.22,0,0,0-31.13-4.74c2.63,4.37,5.74,9.91-.2,12.35-7.46,3.07-20.41.86-27-3.3a1.46,1.46,0,0,1,1.12-2.65c5.47.83,10.64,2.56,16.25,2.68C319.54,412.29,324.68,412.93,324.67,408.42ZM257.4,244.61a54.23,54.23,0,0,1,21.1-7.84c2.86-.42,8.23-1.38,7.79,3.24-.17,1.83-2.05,3.49-3.14,4.79-2.92,3.5-5.86,7-8.8,10.45,2.95-.46,8.9-2.5,10.2-2.7a44.11,44.11,0,0,1,10.46-.34c4.69.44,10.13,1.47,13.54,5,5.32,5.5,1.84,15.46-6.12,15.24a1.44,1.44,0,0,1-.39-2.81c5.24-2,6.14-7.07,2-10.93-1.66-1.54-7.23-2.31-9-2.5a41.08,41.08,0,0,0-14.31,1.13c-4,1-8.4,3.79-11.37-.17a2,2,0,0,1,.31-2.38c3.3-3.88,6.62-7.74,9.91-11.63l1.82-2.16q2.34-2-1.3-.92c-1.85-.17-4.28.64-6.11,1.07-3.78.89-24.54,7.39-22.67,14,.39,1.41-1.64,1.9-2.14.59C247.16,250.56,253.67,247,257.4,244.61Zm-79.58-46.32c4.57,2,1.52,6.75-.12,9.59-4.62,8-7.7,16.43-11.36,24.85-.76,1.74-3.3.44-2.92-1.23a70.58,70.58,0,0,1,4.81-13.31c1-2.28,2.1-4.51,3.26-6.72.88-1.68,3.57-4.7,3.68-6.51,1.37-1.48.59-2.21-2.36-2.2a38.75,38.75,0,0,0-3.76,2,37.56,37.56,0,0,0-6.39,4.91,40,40,0,0,0-8.33,11.71c-.83,1.7-3.32.77-3.37-.91a91.8,91.8,0,0,1,1.13-18,52.57,52.57,0,0,1,2.25-9.78c.58-1.51.93-2.35,1.07-2.69-.16.36-.57,1.25-1.23,2.5-6.42,12.14-8.27,25.08-8.41,38.65,0,1.21-2,1.55-2.18.29a64.67,64.67,0,0,1,1.61-25,75.58,75.58,0,0,1,4-11.45c1-2.2,2.41-7.14,4.66-8.54,2.86-1.79,4.89.24,4.93,3.28.05,4.28-2.49,9.43-3.2,13.73a79.21,79.21,0,0,0-1,10.29,41.2,41.2,0,0,1,9.1-9.69C166.7,201.74,173.53,196.47,177.82,198.29Z"/><path class="cls-1" d="M407,446.69l-6.54,0a235.36,235.36,0,0,0-.51,34.2,142.7,142.7,0,0,0,3,21.18c.62,2.82,2,6.05,2.39,9,0-.44,0-.87,0-1.22.71-12.44,1.65-24.93,4-37.19,1.58-8.36,3.64-17.92,7.61-26C413.67,447,410.28,446.67,407,446.69Z"/><path class="cls-3" d="M138.67,380.83c-4,2.06-4.25,6.1-5.62,9.66a5,5,0,0,0,.4.59c2.91,3.57,7.77,2.67,8.48-1.95C142.31,386.66,143,378.64,138.67,380.83Z"/><path class="cls-4" d="M139,368.87a18.28,18.28,0,0,0-10.9,5.3c-3,1.34-4.7,4.49-5.33,8.14-1.23,3.49-1.45,7.44.65,10.27a15.72,15.72,0,0,0,2.12,4.63c6.89,9.71,22.33,8.42,26.44-3.07C155.49,384.25,152.25,367.69,139,368.87Zm3,20.26c-.71,4.62-5.57,5.52-8.48,1.95a5,5,0,0,1-.4-.59c1.37-3.56,1.59-7.6,5.62-9.66C143,378.64,142.31,386.66,141.93,389.13Z"/><path class="cls-4" d="M163.18,105c-14.79,4.33-24.74,16.24-34,27.84a334.82,334.82,0,0,0-22.56,31.8c-.06-.57-.13-1.14-.16-1.72-.22-3.58-5.22-6.7-8-3.29C83.54,178.27,77,201.5,77.14,225.26c.1,11.72,2,49.71,19.6,48.49,1.32,9.59,3.81,19.59,11.06,26a169.77,169.77,0,0,1-33.52,65.78C66.34,375.1,57.66,384,48.93,392.86c-4.26,4.33-8.42,8.84-13,12.81a38.88,38.88,0,0,1-3.26,2.48,10,10,0,0,0-8.55-4.75c-4.95.09-9,4.21-10.1,8.83-1,4.18-.23,12.52,4.82,13.79a8.49,8.49,0,0,0,1.17.68,9.64,9.64,0,0,0,5.94,1c4,8.14,17.78,10.3,25.7,11.4,5.52.77,11.34,1.52,17.2,1.86,2.93,15,27.69,19.41,39.81,19.46a74.28,74.28,0,0,0,27.65-5.21c5.11-2,13.73-5.3,18-10.34,2.11,1.47,4.29,2.84,6.51,4.12-1.69,5.62-1.07,12.23-.67,17.84.59,8.21,2,16.38,3.35,24.49a232.28,232.28,0,0,0,5.15,25.08c1.46,5.17,3.16,13.65,8.41,16.54,12.34,6.8,15.8-13.88,15.74-21.33a147.11,147.11,0,0,1,1.56-25.93c1.36-8.1,5.12-16.13,5.68-24.26a98.73,98.73,0,0,0,15.29.3c3.67-.22,6.43-4.08,4.51-7.51,2.41.1,4.82.26,7.23.46-1.21,7.32-1.39,14.76-2.22,22.17A221.71,221.71,0,0,1,220,504.72c-2.22,9.16-14,33.24,5.46,30.37,14.22-2.1,23.74-16,29.41-28,7-14.76,10.88-31.41,12.68-47.6,4.77.5,9.55.87,14.33,1a336.35,336.35,0,0,0,72.9-5.93c3.26-.61,4.8-4.77,3.69-7.7,8.42,0,16.84,0,25.25-.06l8.73-.05c-1.42,4.49-1.67,9.65-2.11,13.93a136,136,0,0,0-.1,25.28,158.31,158.31,0,0,0,4.37,26.3c1.43,5.54,3.27,12.76,9.72,14.21,14.78,3.32,11.81-24.47,12.52-32.23A173.86,173.86,0,0,1,421,468.5c2.06-8.31,6.07-15.77,8.53-23.84l14.8.42c-.85,5.72-.59,11.51-.85,17.29-.34,7.68-1,15.36-1.93,23-1.86,15.3-4.86,30.42-7.62,45.57-.64,3.51,1.48,6.85,5.27,6.92,18.16.36,28.1-20.85,33.29-35.31,6.75-18.79,11-39.66,11.23-59.67a25.54,25.54,0,0,0,5.21-3,6.32,6.32,0,0,0,1.49-1.58,47.86,47.86,0,0,0,24.39-11.32c0,1.05-.11,2.1-.16,3.15-.32,6.52,8.07,7.54,11.29,3.06a120.47,120.47,0,0,0,20.43-47.58c.35.86.68,1.73,1,2.63,1.59,4.71,8.82,6.57,11.38,1.48,9.45-18.83,9.11-38.84,5.39-58.61a27.76,27.76,0,0,0,4,4.26,6.36,6.36,0,0,0,10.71-4.43c2.51-36.73-6.11-72.64-23.82-104.43a51.31,51.31,0,0,1,5.8,3.87c3.56,2.75,10-.94,9.41-5.4-1.34-10.45-7.43-17.79-13.68-25.88-6.73-8.7-13.1-18-20.89-25.79s-17.06-12.63-26.84-17.11q-9.34-4.29-18.67-8.58,3.18-.69,6.36-1.44c4.86-1.15,5.46-6.89,2.7-10.25a118.38,118.38,0,0,0-41.07-32.15,5.68,5.68,0,0,0-3-2.3L439.41,96a31.66,31.66,0,0,1,9.51-.64c6.05.47,7.94-8.32,3-11.12-29-16.53-63.05-15.85-95.39-13.77-28.77,1.85-58.16,3.55-86,11.48l2.48-2.89c2.67-3.15,1.22-9.47-3.75-9-36.71,3.15-76.47,13.9-100.44,42.49.08-.55.15-1.1.23-1.65C169.55,107.43,167.07,103.82,163.18,105Zm20.06,388.22a152.68,152.68,0,0,0-.57,17.37,49,49,0,0,1-.35,9.14c-.79,4.66-.9,4.79-2.69.29-4.57-11.48-6.44-24-8.57-36.15-1.14-6.5-2.13-13-2.7-19.6-.31-3.72-.11-7.65-.33-11.48a97.19,97.19,0,0,0,23.23,7.45C185.49,469,184.27,483,183.24,493.17Zm42.29,31.22a1.54,1.54,0,0,0-.35.24c.39-1.57,1-3.12,1.51-4.66q1.51-5,2.78-10a194.71,194.71,0,0,0,3.92-20.29c1.58-11.12,3-23.17.93-34.38,7.51.83,15,1.91,22.52,2.89C251.58,481.08,249.39,512.94,225.53,524.39Zm183.75-51.72c-2.32,12.26-3.26,24.75-4,37.19,0,.35,0,.78,0,1.22-.38-2.92-1.77-6.15-2.39-9a142.7,142.7,0,0,1-3-21.18,235.36,235.36,0,0,1,.51-34.2l6.54,0c3.33,0,6.72.29,9.94,0C412.92,454.75,410.86,464.31,409.28,472.67Zm55.63,17.63c-2.7,9.48-8.23,29-18.84,34.9,2.31-12.32,4.39-24.69,5.91-37.13,1.61-13.21,4.33-29.4,1-42.74l6.26.18a120.15,120.15,0,0,0,13.42-.07C471.11,460.63,469.11,475.53,464.91,490.3ZM256.64,81.87q-3.3,3.82-6.56,7.67c-4,4.77.92,10.66,6.42,8.31,31.16-13.28,65.49-15,98.89-16.64,24.63-1.19,50.41-1.87,73.89,6a44.8,44.8,0,0,0-8.74,5.66c-3.61,3-1.19,8.43,2.56,9.7,8.61,2.91,17.21,5.89,25.8,8.85a140.38,140.38,0,0,1,34.57,25.39c-4.16,1.1-8.32,2.24-12.49,3.34-4.38,1.15-5.85,8.18-1.34,10.28,9.59,4.45,19.16,8.93,28.68,13.53,9.11,4.4,18.55,8.67,26.15,15.49,7.42,6.64,13.13,15.14,19.14,23,2.15,2.83,4.56,5.67,6.8,8.63a56.28,56.28,0,0,0-7.92-1.84c-4.6-.72-10.15,4.06-6.8,8.84,19.09,27.26,29.48,59.9,30.81,93-3.06-5.35-6.65-10.15-13.67-12.11a6.32,6.32,0,0,0-7.7,7.71c5.89,20.55,12.27,43.08,7.28,64.18a63.32,63.32,0,0,0-5.74-7.4c-3.75-4.15-10.28-.69-10.49,4.35a107.54,107.54,0,0,1-9.39,39.5c-1.85-3.72-8-4.4-10.31-.35-7.53,13-20.07,19.15-34.5,21.31a4.21,4.21,0,0,0-3.77,4.19c-7.53,2.91-16.65,1.57-24.51,1.37L422.27,433a6,6,0,0,0-6.45,1.09l-.63.5a4.74,4.74,0,0,0-.88.92c-11.89.91-24.3.09-36.1.27-14.14.22-28.29.64-42.43.55-5,0-7.82,7.81-2.73,10.07l.7.31a320,320,0,0,1-54.57,2.69c-24-.88-47.85-6.56-71.87-5.54a5.42,5.42,0,0,0-4.63,7.59,94.63,94.63,0,0,1-47.14-16.42,3.58,3.58,0,0,0-4.32-.11c-5.74.86-11.12,6.42-16.26,8.81a64.82,64.82,0,0,1-23.11,5.88,62.16,62.16,0,0,1-21.67-2.26A35.06,35.06,0,0,1,78.67,441,52,52,0,0,0,99,436.32c5.48-2.65,1.5-10.65-4-9.43A124.65,124.65,0,0,1,59.22,430c-5.94-.36-12.21-.43-18-1.69A20.74,20.74,0,0,1,32,423.75a13.88,13.88,0,0,0,2.09-4.07c7.58-3.81,14.18-11.55,19.5-16.91C63.78,392.49,73.85,382,82.9,370.65c15.56-19.49,29.53-42.23,29.82-67.55,6.92,3.53,15.21,3.53,21.35-.63a12.63,12.63,0,0,0,7.7,3.19c4.22.27,7.81-1.4,10.94-3.83a29.14,29.14,0,0,0,16.58,16.64c11,4.29,21.62.16,31.18-5.41a18.84,18.84,0,0,0,14.92,11.4c-2.15,3.29-4.18,6.63-6,10a2.35,2.35,0,0,0,3.67,2.83,172.2,172.2,0,0,0,16.33-16.86c4-4.51,10.11-14.47,17-14.68s9.85,12.3,11.34,17.62a70.49,70.49,0,0,1,2.6,21.86c-1,26.79-18.28,48.19-43.23,56.82-6.56,2.26-4,11.93,2.88,10.43,34.41-7.58,55.08-44.31,51.22-77.85-1.46-12.6-6.43-38.57-22.82-39.29-8.37-.36-14.84,5-19.79,11.2-2.75,3.42-5.47,6.95-8.09,10.56a10.87,10.87,0,0,1-12.23-11.4c.17-3.44-4-5.7-6.86-3.94-7.68,4.74-16.81,10.69-26.28,8.53a19.94,19.94,0,0,1-15-17.64c-.29-3.73-5.14-6.65-8-3.33-1.83,2.1-10.81,11.77-12.55,4.52-1-4.12-6.45-4.34-8.57-1.12-4.05,6.17-13.57,3.74-17.83-.92-5.7-6.24-6.61-16.18-7.48-24.17-.4-3.66-3.74-5.89-7.21-4.13C87.63,269,86.53,220,87,214.35A91.71,91.71,0,0,1,99,175c.29,1.13.59,2.26,1,3.39,1.2,3.76,6.45,4.68,8.53,1.11a322.06,322.06,0,0,1,25.78-38c6.93-8.75,14.39-18.74,24.36-24.27q-1,7.32-2,14.65c-.67,4.87,6.18,9.14,8.82,3.72C182.55,100.4,220,86.49,256.64,81.87Z"/><path class="cls-4" d="M239.57,372.23c10.27-7.88,11.06-28.63,2.27-37.88-1.59-1.67-4.27-.32-4.36,1.81-.24,5.55.8,11.07.12,16.62s-3.42,10.53-4,16.05C233.36,371.62,237.27,374,239.57,372.23Z"/><path class="cls-4" d="M154.59,213.73a79.21,79.21,0,0,1,1-10.29c.71-4.3,3.25-9.45,3.2-13.73,0-3-2.07-5.07-4.93-3.28-2.25,1.4-3.69,6.34-4.66,8.54a75.58,75.58,0,0,0-4,11.45,64.67,64.67,0,0,0-1.61,25c.18,1.26,2.16.92,2.18-.29.14-13.57,2-26.51,8.41-38.65.66-1.25,1.07-2.14,1.23-2.5-.14.34-.49,1.18-1.07,2.69a52.57,52.57,0,0,0-2.25,9.78,91.8,91.8,0,0,0-1.13,18c0,1.68,2.54,2.61,3.37.91a40,40,0,0,1,8.33-11.71,37.56,37.56,0,0,1,6.39-4.91,38.75,38.75,0,0,1,3.76-2c2.95,0,3.73.72,2.36,2.2-.11,1.81-2.8,4.83-3.68,6.51-1.16,2.21-2.25,4.44-3.26,6.72a70.58,70.58,0,0,0-4.81,13.31c-.38,1.67,2.16,3,2.92,1.23,3.66-8.42,6.74-16.85,11.36-24.85,1.64-2.84,4.69-7.64.12-9.59-4.29-1.82-11.12,3.45-14.13,5.75A41.2,41.2,0,0,0,154.59,213.73Z"/><path class="cls-4" d="M251.29,255.15c-1.87-6.61,18.89-13.11,22.67-14,1.83-.43,4.26-1.24,6.11-1.07q3.65-1.11,1.3.92l-1.82,2.16c-3.29,3.89-6.61,7.75-9.91,11.63a2,2,0,0,0-.31,2.38c3,4,7.41,1.17,11.37.17A41.08,41.08,0,0,1,295,256.21c1.79.19,7.36,1,9,2.5,4.15,3.86,3.25,9-2,10.93a1.44,1.44,0,0,0,.39,2.81c8,.22,11.44-9.74,6.12-15.24-3.41-3.53-8.85-4.56-13.54-5a44.11,44.11,0,0,0-10.46.34c-1.3.2-7.25,2.24-10.2,2.7,2.94-3.48,5.88-6.95,8.8-10.45,1.09-1.3,3-3,3.14-4.79.44-4.62-4.93-3.66-7.79-3.24a54.23,54.23,0,0,0-21.1,7.84c-3.73,2.37-10.24,5.95-8.25,11.13C249.65,257.05,251.68,256.56,251.29,255.15Z"/><path class="cls-4" d="M394.63,262.28c10.64-1.09,21.2.38,30.7,5.5,2.77,1.49,10.84,5.55,9.4,8.13-.75,1.33-17,.63-18.66.7-2.25.09-2.9,3.49-.55,4.05,3.19.77,26.59,7.77,23.22,12.95-.81,1.25-11.9.09-13.59,0-5.47-.15-10.8-.36-16.27-.11a1.3,1.3,0,0,0-.34,2.54c8.16,2.1,16.35,2.36,24.77,2.2,3.56-.06,11.75,1.3,12.72-3.88.85-4.53-5.35-7.53-8.33-9.32a69.06,69.06,0,0,0-9.72-4.8c1.36-.06,2.72-.1,4.08-.17,2.06-.11,5.05.15,6.74-1.36,3.89-3.49-1.14-7.27-3.82-9.31a51.59,51.59,0,0,0-40.68-9.59C393,260.11,393.24,262.43,394.63,262.28Z"/><path class="cls-4" d="M299.59,412.21c6.56,4.16,19.51,6.37,27,3.3,5.94-2.44,2.83-8,.2-12.35a69.22,69.22,0,0,1,31.13,4.74c1.71.67,3.06-1.54,2.27-3a94.54,94.54,0,0,0-37-36.91,1,1,0,0,0-1,1.67A99.73,99.73,0,0,1,354,402.18a68.52,68.52,0,0,0-30.63-2.83,2.11,2.11,0,0,0-1.79,3.12c.56,1.06,3.13,4.76,3.13,5.95,0,4.51-5.13,3.87-7.71,3.82-5.61-.12-10.78-1.85-16.25-2.68A1.46,1.46,0,0,0,299.59,412.21Z"/><path class="cls-4" d="M325.27,144c6-5,13.34-7.45,20.93-8.81,5.78-1,16.22-3.68,22-.38-4.79,3.38-9.63,6.66-14.61,9.75-1.48.91-1.05,3.87,1,3.6,6.4-.86,12.79-1.78,19.2-2.6,2.53-.33,5.12-1.68,6.51.87s-.36,2.09-2.66,2.84c-3.75,1.21-7.61,2.18-11.4,3.26a2,2,0,0,0,.54,4,66.51,66.51,0,0,1,13.4,1.76c1,.24,7.19,1.62,7.48,2.4.46,1.22-5.19,2.23-5.7,2.35-9.08,2-18.44,3.61-27.31,6.43-2.3.73-1.3,3.84,1,3.52,8.8-1.23,17.48-3.69,26.13-5.67,3.27-.75,9.5-1.13,10.38-5.33,1.07-5.11-6.17-7.44-13.34-8.53,5.28-1.88,9.71-4.8,7-9.45-1.89-3.29-5.88-3.07-9.1-2.78-4.56.39-9.12,1.08-13.68,1.79q4.67-3.17,9.16-6.59a1.84,1.84,0,0,0,.37-2.84c-6-5.74-15.47-3.31-22.88-2.12-9.65,1.55-18.54,4.44-25.82,11.17C323,143.49,324.32,144.8,325.27,144Z"/><path class="cls-4" d="M472.45,224.69c.51.6,1.43-.16,1.06-.81l-.13-.23c9,3.29,17.39,7,25.13,12.8,1.74,1.31,5.18,3.23,6,5.35,1.9,1.4,1.44,2.08-1.36,2l-3.95-.78c-4.88-1-10-2.68-15-2.14-1.2.13-1.91,1.77-.66,2.45,4.17,2.28,33.29,10.82,25.69-2.29-3.21-5.54-10.82-9.69-16.2-12.64a67,67,0,0,0-21.58-7.74,1.07,1.07,0,0,0-1,1.78A20.32,20.32,0,0,1,472.45,224.69Z"/><path class="cls-4" d="M451.32,378.41c4.42-.32,8.48-.83,12.67,1.26,2.72,1.37,4.75,3.88,7.62,5,3.13,1.21,7.18.81,9-2.34,2.29-3.94-.46-10.53-1.9-14.23a82.83,82.83,0,0,0-7.54-14.31c6.14,2.69,11,8.64,16.72,12a2.14,2.14,0,0,0,3.1-1.26c2.92-7.38-5.52-19.64-9.55-25.33a65.33,65.33,0,0,0-23.15-20.07,1.09,1.09,0,0,0-1.1,1.87,75.53,75.53,0,0,1,19.66,18.4,65.35,65.35,0,0,1,5.67,9.11c1.39,2.7,4.29,7.77,4.72,11.8-6.7-4.81-12.13-11.19-20.87-12.09a2.16,2.16,0,0,0-1.86,3.24,129.32,129.32,0,0,1,8.39,14.1c1,2.13,2.75,5.61,3.12,8.13q2.1,4.37-3.78,6.44c-.9-.62-1.78-1.27-2.64-1.94-5.67-4-12.62-6.26-19.2-3.05A1.8,1.8,0,0,0,451.32,378.41Z"/></svg>