<svg id="Layer_1" data-name="Layer 1" xmlns="http://www.w3.org/2000/svg" viewBox="0 0 600 600"><defs><style>.cls-1{fill:#00aeef;}.cls-2{fill:#2e3192;}.cls-3{fill:#525ac1;}.cls-4{fill:#231f20;}</style></defs><title>doodle</title><path class="cls-1" d="M359.41,333.79,353.08,275c-2.17-20.21-4-40.46-6.24-60.66-1.22-10.89-3.14-22.15-4.29-33.36-.56,1.55-1.11,3.1-1.64,4.63q-4.76,13.83-9.69,27.61c-6.77,18.92-14,37.7-21.19,56.46-7.45,19.33-15.31,38.49-23.43,57.54Q280.87,340.65,275,354c-3.81,8.64-7,18.17-12.72,25.75a4.71,4.71,0,0,1-1,1c4.92,9.44,6.8,21.07,9.4,31.16.15.57.31,1.14.45,1.71l.36,1.1c1.35,4.22,2.91,8.55,4.37,12.94,1.74,3.86,3.4,7.77,4.9,11.73,1.29,3.43,2,9.51,4.27,12.35,4.46,5.65,18.87,5.48,25.83,6.74,4.69.85,9.62,2.18,14.37,2.49,5.49.35,5-1.22,8.53-5.87L351.4,431.7c5.49-7.27,15.43-16.56,16.93-25.8,1.3-8.08-3.91-15.36-3.53-23.42a0,0,0,0,0,0,0C361.73,366.56,361.11,349.6,359.41,333.79Z"/><path class="cls-2" d="M203.73,390c7.74-2.05,15.61-3.62,23.35-5.69s14.3-5.73,21.61-8.58a40.16,40.16,0,0,0,6.65-7.23c2.46-6.71,6-13.17,8.9-19.6q6.38-14.14,12.55-28.39c7.76-17.87,15.29-35.83,22.74-53.83,7.69-18.55,14.94-37.27,22.12-56q5.55-14.49,10.9-29c2.27-6.18,4.24-12.67,6.85-18.8.27-2.56.57-5.12.94-7.67a51.93,51.93,0,0,1,1.07-6.55c.71-6.39,1.89-12.77,2.72-19q2.69-20,5.35-40t5.66-39.95c.7-4.72,1.18-9.87,1.87-15-11,13.7-21.42,28-31.95,41.92-14.19,18.83-28.29,37.71-41.61,57.19-27.4,40.06-52.12,82.14-71.77,126.57C194.43,299.28,181,340,173.22,382c-1.33,7.18-2.37,14.27-3,21.33,4.09-1.72,8.29-3.29,12.16-5.26A106.6,106.6,0,0,1,203.73,390Z"/><path class="cls-3" d="M264.77,469.33c2.64-3.8,5.48-8.67,9.33-11.62a71.83,71.83,0,0,1-2.68-7.53c-2.17-6.56-4.55-13.06-7.25-19.42-4.05-9.55-14.16-25.27-15.44-38.73-11.66,6.53-26.61,8-39.24,10.62-9.5,2-18,5.28-26.85,9-4,1.69-8.56,3.46-13,3.69a118.8,118.8,0,0,0,4.89,35.81,208.11,208.11,0,0,0,24.56,52.64,163.45,163.45,0,0,0,24.57,29.76c2.4-4.61,5.72-8.95,8.36-13.26q7.91-12.94,16.09-25.73C253.56,486.07,259,477.62,264.77,469.33Z"/><path class="cls-2" d="M331.59,477.77c-.57-1-1.12-2-1.63-2.89-6.4.66-13.71-1.92-19.64-3-8-1.5-20.39-2.08-28.59-6.3-1.74,4.33-5,8.42-7.33,12.14-5.1,8-10.3,16-15.39,24q-8.12,12.82-16,25.8c-2.84,4.68-5.32,10.54-8.83,15.15,17.49,13.7,38,23.1,60.94,25.79,29.1,3.41,56-6.65,77.37-24.66C363.77,529.48,355,515.16,346,501,341.17,493.27,336,485.73,331.59,477.77Z"/><path class="cls-3" d="M380.54,411.38c-3,10.31-11.75,19.16-18,27.45-7.2,9.63-14,21.65-22.46,30.45,1.15,1.5,2.23,3.1,3.37,4.62,5.06,6.78,9.59,14,14.28,21.09q12.84,19.32,25.08,39a133.29,133.29,0,0,0,9.55-11.31c22-29.31,31.21-65.74,35.5-101.85-9.6.48-20.62-3.51-29.43-5.38C393.1,414.34,386.47,413.4,380.54,411.38Z"/><path class="cls-2" d="M369.57,38.89c-.53,3.83-1.11,7.6-1.53,11.21q-2.31,20.07-4.91,40.08Q360.4,111.1,357.65,132c-1,7.55-1.57,15.4-3.06,23-.34,4-.84,7.94-1.39,11.85,3.1,15.14,3.74,31.28,5.54,46.37,2.33,19.59,5.14,39.11,7.56,58.69l7.28,58.71c1.9,15.3,5.19,31.56,6,47.3.14.82.28,1.64.41,2.46,1,6.08,2.67,12.56,3.06,18.82,6.76.48,13.83,2.42,19.6,3.41,8.2,1.4,18.42,1.51,26.67,4.58q.27-3,.51-6.08c3.53-45.49.22-90.95-5.24-136.15-5.23-43.31-12.32-86.6-21.35-129.29C396.06,101.68,385.24,69.51,369.57,38.89Z"/><path class="cls-4" d="M371.54,14.48a7.92,7.92,0,0,0-2-1.8c-1.05-2.54-4.67-2.23-6.21-.28a6.85,6.85,0,0,0-3.92,5.81c-31.62,31.17-58.47,68.22-83.69,104.53-25.81,37.16-49.3,76-69,116.77-20,41.48-35.75,85.12-45.24,130.21-4.88,23.19-8.59,47-4.2,70.6,3.66,19.66,11,38.76,20.13,56.49,18.79,36.39,49.22,67.8,88.5,81.4,38.93,13.48,80.7,7.7,113.18-18.06,72.94-57.82,72.71-168.1,67.57-252.51-3.27-53.6-12.1-107.19-22.78-159.79C414.55,101.64,401.35,52.07,371.54,14.48ZM173.22,382C181,340,194.43,299.28,211.68,260.3c19.65-44.43,44.37-86.51,71.77-126.57,13.32-19.48,27.42-38.36,41.61-57.19C335.59,62.57,346,48.32,357,34.62c-.69,5.17-1.17,10.32-1.87,15q-3,20-5.66,40t-5.35,40c-.83,6.21-2,12.59-2.72,19a51.93,51.93,0,0,0-1.07,6.55c-.37,2.55-.67,5.11-.94,7.67-2.61,6.13-4.58,12.62-6.85,18.8q-5.35,14.55-10.9,29c-7.18,18.76-14.43,37.48-22.12,56-7.45,18-15,36-22.74,53.83q-6.18,14.24-12.55,28.39c-2.89,6.43-6.44,12.89-8.9,19.6a40.16,40.16,0,0,1-6.65,7.23c-7.31,2.85-13.92,6.52-21.61,8.58S211.47,388,203.73,390a106.6,106.6,0,0,0-21.33,8.06c-3.87,2-8.07,3.54-12.16,5.26C170.85,396.26,171.89,389.17,173.22,382ZM368.33,405.9c-1.5,9.24-11.44,18.53-16.93,25.8l-17.65,23.39c-3.51,4.65-3,6.22-8.53,5.87-4.75-.31-9.68-1.64-14.37-2.49-7-1.26-21.37-1.09-25.83-6.74-2.24-2.84-3-8.92-4.27-12.35-1.5-4-3.16-7.87-4.9-11.73-1.46-4.39-3-8.72-4.37-12.94l-.36-1.1c-.14-.57-.3-1.14-.45-1.71-2.6-10.09-4.48-21.72-9.4-31.16a4.71,4.71,0,0,0,1-1C268,372.2,271.17,362.67,275,354q5.89-13.38,11.62-26.82c8.12-19,16-38.21,23.43-57.54,7.23-18.76,14.42-37.54,21.19-56.46q4.93-13.78,9.69-27.61c.53-1.53,1.08-3.08,1.64-4.63,1.15,11.21,3.07,22.47,4.29,33.36,2.27,20.2,4.07,40.45,6.24,60.66l6.33,58.8c1.7,15.81,2.32,32.77,5.4,48.65,0,0,0,0,0,0C364.42,390.54,369.63,397.82,368.33,405.9ZM223.68,533.56a163.45,163.45,0,0,1-24.57-29.76,208.11,208.11,0,0,1-24.56-52.64,118.8,118.8,0,0,1-4.89-35.81c4.42-.23,9-2,13-3.69,8.9-3.73,17.35-7.06,26.85-9,12.63-2.6,27.58-4.09,39.24-10.62,1.28,13.46,11.39,29.18,15.44,38.73,2.7,6.36,5.08,12.86,7.25,19.42a71.83,71.83,0,0,0,2.68,7.53c-3.85,3-6.69,7.82-9.33,11.62-5.73,8.29-11.21,16.74-16.64,25.24S237.31,511.67,232,520.3C229.4,524.61,226.08,529,223.68,533.56Zm71.47,34.9c-22.89-2.69-43.45-12.09-60.94-25.79,3.51-4.61,6-10.47,8.83-15.15q7.85-13,16-25.8c5.09-8,10.29-16,15.39-24,2.36-3.72,5.59-7.81,7.33-12.14,8.2,4.22,20.58,4.8,28.59,6.3,5.93,1.1,13.24,3.68,19.64,3,.51.92,1.06,1.87,1.63,2.89,4.42,8,9.58,15.5,14.44,23.19,9,14.2,17.74,28.52,26.49,42.84C351.16,561.81,324.25,571.87,295.15,568.46Zm97.26-45.76A133.29,133.29,0,0,1,382.86,534q-12.24-19.69-25.08-39c-4.69-7.05-9.22-14.31-14.28-21.09-1.14-1.52-2.22-3.12-3.37-4.62,8.44-8.8,15.26-20.82,22.46-30.45,6.2-8.29,15-17.14,18-27.45,5.93,2,12.56,3,17.94,4.09,8.81,1.87,19.83,5.86,29.43,5.38C423.62,457,414.46,493.39,392.41,522.7Zm37.42-121.59q-.24,3-.51,6.08c-8.25-3.07-18.47-3.18-26.67-4.58-5.77-1-12.84-2.93-19.6-3.41-.39-6.26-2.07-12.74-3.06-18.82-.13-.82-.27-1.64-.41-2.46-.81-15.74-4.1-32-6-47.3l-7.28-58.71c-2.42-19.58-5.23-39.1-7.56-58.69-1.8-15.09-2.44-31.23-5.54-46.37.55-3.91,1.05-7.88,1.39-11.85,1.49-7.58,2.08-15.43,3.06-23q2.75-20.91,5.48-41.84,2.63-20,4.91-40.08c.42-3.61,1-7.38,1.53-11.21,15.67,30.62,26.49,62.79,33.67,96.78,9,42.69,16.12,86,21.35,129.29C430.05,310.16,433.36,355.62,429.83,401.11Z"/></svg>