<svg id="Layer_1" data-name="Layer 1" xmlns="http://www.w3.org/2000/svg" viewBox="0 0 600 600"><defs><style>.cls-1{fill:#58595b;}.cls-2{fill:#939598;}.cls-3{fill:#8dc63f;}.cls-4{fill:#fff;}.cls-5{fill:#88e0ff;}.cls-6{fill:#231f20;}</style></defs><title>doodle</title><path class="cls-1" d="M263.8,528.23c-40.36-2-80.62-7.71-119.76-17.91-13.38-3.49-26.77-7.4-39.81-12.16,7.74,9.93,15.88,19.72,27.28,25.49,8.17,4.13,17.41,5.86,26.3,7.72s17.65,3.48,26.53,4.92c65.9,10.68,132.45,7.27,198.82,4,32.73-1.62,63.54-9.87,94.26-20.92,25-9,54.64-24.64,56.32-54.24A313.64,313.64,0,0,1,490.33,492C420.84,527.4,340.49,532.11,263.8,528.23Z"/><path class="cls-1" d="M380.84,548.22c-35.79,1.6-71.76,3.59-107.59,3.22a598.77,598.77,0,0,1-105.92-10.58c-3-.56-6-1.11-9-1.69,8,7.87,16.31,15.3,25.75,21.41A69.49,69.49,0,0,0,223,572.37c52.4.39,105,.11,157.38-1.31,23.14-.63,48.86.4,70.88-7.75,19-7,29.57-23.22,38.38-40.28-3.41,1.44-6.8,2.75-10.11,3.94C447.29,538.54,415.15,546.68,380.84,548.22Z"/><path class="cls-2" d="M548.31,392.59a147.12,147.12,0,0,0-15.07-12.34c-3.69-2.5-7.7-4.05-11.62-5.88-25,18.35-51.14,35.34-79.72,47.54-54.32,23.21-113,21.49-170.91,19.48-39.18-1.37-79.1-6.41-117.35-16.76l-4.51-1.24a383.35,383.35,0,0,1-45.42-15.9l-15.33,12.1a116,116,0,0,0-11.82,11.32c-8.13,9-13.92,20.21-22.2,29,14.18,14.34,30.89,23.31,49.77,30a503.25,503.25,0,0,0,61.66,17.44,612,612,0,0,0,117.15,13.43c40,.87,81.05-.51,120.46-7.82,65.74-12.2,126.33-46.4,171.18-95.86C565.3,409.81,557.13,400.43,548.31,392.59Zm-423.5,92.76c-10.28-1.08-20.1-5.93-29.24-10.58-9.37-4.77-20.16-10.19-27.3-18.12-.31-.34,0-1.1.51-.88,9.34,3.94,17.79,10.16,26.88,14.69,9.68,4.81,20.23,8,29.56,13.38C125.87,484.22,125.64,485.44,124.81,485.35ZM147.67,493a28.66,28.66,0,0,1-7.3-1.51,43.43,43.43,0,0,1-6.92-2.37c-.78-.36-.3-1.4.39-1.46,4.55-.39,10.58.48,14.44,3.1A1.21,1.21,0,0,1,147.67,493Zm337.92-82.2c-3.23,3.49-7.84,5.47-11.93,7.83q-7.05,4.06-14.1,8.13c-7.08,4.06-14.42,8.35-22.77,8.7-1,0-1.09-1.39-.23-1.7,8.61-3.1,16.31-7.3,24.17-11.92,7.25-4.26,15.49-11.06,23.73-13A1.18,1.18,0,0,1,485.59,410.79Zm17.87-11.48c-1.66,2.71-5.5,4.07-8.39,4.85a.75.75,0,0,1-.57-1.36c1.36-.84,2.67-1.76,4-2.61a17.84,17.84,0,0,1,3.9-2.24A.94.94,0,0,1,503.46,399.31Z"/><path class="cls-3" d="M155.73,361.31c-3.36,18.63-2.51,36.55-1.36,55.11,13.57,3.75,27.29,7,41.27,9.51,28.73,5.16,57.65,7.17,86.8,7.86,28.94.69,58.05,1.64,86.9-1.37a240.85,240.85,0,0,0,80.84-23.16,382.53,382.53,0,0,0,48.89-28.93c-19.62-42.23-46.29-79.27-83.58-107.71-2-1.56-2.7-4.16-.8-6.19a181.6,181.6,0,0,0,22.13-29.05,4.14,4.14,0,0,1,4.47-1.82c9.44,1.44,24.17,2.1,23.93-11.29-.17-10-7.54-21.31-15.72-26.68-8.36-5.48-22.12-5.6-27,4.68-4.55,9.58,1.91,21.11,8.26,28.14a3.8,3.8,0,0,1,0,5.26c-8.45,8.8-16.6,18.16-25.75,26.27.25,2.74-3.21,5.64-6.12,4-8.93-5.06-17.5-9.46-27.44-12.25a167,167,0,0,0-27.43-5,226.85,226.85,0,0,0-52.28.61,233.2,233.2,0,0,0-51.63,12.93,219.66,219.66,0,0,0-25.73,11.55c-8,4.22-15.47,9.57-23.55,13.58a3.11,3.11,0,0,1-3.73-.76,4,4,0,0,1-.91-.44,336.8,336.8,0,0,0-46.71-25.38c-2.34-1-2.21-4.28-.76-5.9,6.48-7.2-1.35-16-9.36-16s-14.2,6.23-17.46,13c-3.15,6.54-4.58,16.57,1.19,22.23,4,4,12.06,4.75,15.43-.44,1-1.56,3.5-2.64,5.19-1.37a328.41,328.41,0,0,0,41.39,26.5,3.81,3.81,0,0,1,1.35,5.16A182.9,182.9,0,0,0,155.73,361.31Zm242.47-51.7a12.58,12.58,0,0,1,6.4-.95c9.14,1,13.89,11.69,9.09,19.41-2.89,4.63-8,5.72-12.7,4.52a12.16,12.16,0,0,1-7.69-4.41,13.34,13.34,0,0,1-2.57-3.65C387.78,318.26,391.87,310.17,398.2,309.61Zm-116,43.66c.83-3,5.43-2.38,5.45.74,0,7.89,5.6,15.65,14.32,13.4,9.61-2.48,8.11-11.34,7.78-19-.11-2.42,3.35-4,5-2.07,8.72,10.48.06,26.26-12.19,28.45S278.79,365.58,282.15,353.27Zm-92.09-7.93c2.76-8.3,12.34-14.16,20.78-9.89,7.69,3.89,8.41,14.35,1.94,19.8s-17.36,2-20.26-5.84A3.29,3.29,0,0,1,190.06,345.34Z"/><path class="cls-4" d="M201.6,349.26c2.59,1.65,6.31,1.29,7.5-1.85,1.06-2.8-.71-4.83-3.15-5.31a1.86,1.86,0,0,1-1.72.16,2.63,2.63,0,0,0-.63-.15,9,9,0,0,0-4.19,2.28C198.7,346.24,200,348.25,201.6,349.26Z"/><path class="cls-5" d="M102.63,400c14.79,5.16,29.58,10,44.52,14.39-3-17.65-1.59-36.75,1.32-54a186.11,186.11,0,0,1,19.61-56.9,316.84,316.84,0,0,1-35.75-22.88c-6.42,5.73-16.79,5.51-23.56-.29-9.8-8.38-8.24-23.74-2.5-33.92,6.15-10.93,18.94-18.67,31.41-13.41a17.23,17.23,0,0,1,9.13,22.87A336.19,336.19,0,0,1,190,279.54a3,3,0,0,1,.38.3c12.94-10.93,30.36-18.42,45.72-24.53a229.66,229.66,0,0,1,55.61-14.2,226.55,226.55,0,0,1,58.29,0c17.13,2.24,35.9,6.22,50.46,16.21,7-8.58,14.95-16.45,22.63-24.42-7.91-10-13.52-24.2-6.39-35.91,7.62-12.51,25.19-13.42,36.65-6s22,23.87,19.36,37.9c-2.8,14.93-18,16.21-30.49,14.77a190.41,190.41,0,0,1-19,25.14c35.36,28,65.5,65,82.34,107.06q6.19-4.38,12.28-8.88c.2-66.42-8.38-133.52-32.24-195.81a364.76,364.76,0,0,0-41.68-79c-9.29-13.23-19.76-25.9-33-35.36s-28.4-16-43.62-21.46c-15.71-5.6-32.14-9.6-48.89-9.81-17.56-.21-34.74,4-51.64,8.27-27.38,7-54.86,14.7-80.46,26.84-26,12.31-49.83,29.41-66.39,53.2-17.31,24.87-26.62,54.61-30.41,84.47-4.37,34.4-1.8,69.2,1.39,103.57,3,32.83,6.29,65.64,9.21,98.48A2.72,2.72,0,0,1,102.63,400ZM454.44,141c3.41,5.5,7,12.05,8.45,18.38a1.18,1.18,0,0,1-2.15.9c-3.84-5.22-6.54-12.18-8.53-18.34C451.77,140.55,453.73,139.83,454.44,141ZM381,66.1c7.75,2.76,15.47,5.21,22.19,10.13s12.46,11,18.13,16.92a214,214,0,0,1,15.82,18.22c4.9,6.39,10.38,13.49,12.46,21.39.27,1-1.09,1.94-1.85,1.08-4.76-5.43-8.26-12-12.56-17.8A222.3,222.3,0,0,0,419.7,97.63c-5.42-5.89-10.9-12-17-17.26-6.5-5.63-14.32-9.33-22.27-12.46C379.36,67.48,379.81,65.69,381,66.1Z"/><path class="cls-4" d="M407.4,321.88a4.63,4.63,0,0,1,.46-.59,5.31,5.31,0,0,0-1.19-3.4c-2.85-3.33-8.77-.79-7.89,3.64C399.74,326.43,405.26,325.26,407.4,321.88Z"/><path class="cls-6" d="M580.08,412c-3.89-4.63-8.68-8.66-13.06-12.75q-8.19-7.65-16.69-15c-6.41-5.54-15.05-13.44-24.1-16.1.29-62.17-7-125-27-184.09A385.2,385.2,0,0,0,459,99.67c-8.41-13.09-17.55-26-28.56-37.08-11.39-11.44-25-20-39.65-26.64-30.65-14-62.88-22-96.56-16.62-16.85,2.71-33.49,7.36-49.91,12-14.16,4-28.21,8.35-41.92,13.68-26.29,10.2-51.64,23.85-71.84,43.83-21.91,21.67-35.91,49.91-43.45,79.58-9.52,37.44-8.81,76.46-5.74,114.69,3.28,40.71,7.8,81.36,12.16,122a3.94,3.94,0,0,0,.26,1,94.54,94.54,0,0,0-7.58,5.66A110.59,110.59,0,0,0,72.06,425a146.17,146.17,0,0,0-11.3,14.69c-4.19,6.08-9,12.29-12.09,19a2.72,2.72,0,0,0,.32,2.77,2.58,2.58,0,0,0,.47,2c9.73,13.68,24.95,22.43,40.12,28.94,1.32.57,2.65,1.1,4,1.64,0,.06,0,.12.08.17,7.45,11.88,16.09,23.58,27.64,31.78,8.22,5.83,17.86,9,27.72,11.26a2.71,2.71,0,0,0,.47,1c13.17,17.68,34,35.24,56,40.07,12.85,2.81,26.57,1.67,39.62,1.61l42.59-.23c28.51-.15,57-.1,85.54-.73,14.15-.31,28.3-.78,42.42-1.69,11.42-.73,23-1.81,34-5.25,26.12-8.17,39.23-29.74,50.71-53a4.19,4.19,0,0,0,.38-1.22c22.22-11.48,41.94-29.14,40.88-56.17a3.91,3.91,0,0,0-.65-2A314.22,314.22,0,0,0,583.93,419C586.8,415.75,583,414.37,580.08,412ZM90.92,301.84c-3.19-34.37-5.76-69.17-1.39-103.57,3.79-29.86,13.1-59.6,30.41-84.47C136.5,90,160.38,72.91,186.33,60.6c25.6-12.14,53.08-19.87,80.46-26.84,16.9-4.31,34.08-8.48,51.64-8.27,16.75.21,33.18,4.21,48.89,9.81,15.22,5.43,30.42,12,43.62,21.46s23.71,22.13,33,35.36a364.76,364.76,0,0,1,41.68,79c23.86,62.29,32.44,129.39,32.24,195.81q-6.09,4.5-12.28,8.88c-16.84-42-47-79.09-82.34-107.06a190.41,190.41,0,0,0,19-25.14c12.47,1.44,27.69.16,30.49-14.77,2.62-14-7.95-30.56-19.36-37.9s-29-6.47-36.65,6c-7.13,11.71-1.52,26,6.39,35.91-7.68,8-15.63,15.84-22.63,24.42-14.56-10-33.33-14-50.46-16.21a226.55,226.55,0,0,0-58.29,0,229.66,229.66,0,0,0-55.61,14.2c-15.36,6.11-32.78,13.6-45.72,24.53a3,3,0,0,0-.38-.3,336.19,336.19,0,0,0-43.22-23.69A17.23,17.23,0,0,0,137.68,233c-12.47-5.26-25.26,2.48-31.41,13.41-5.74,10.18-7.3,25.54,2.5,33.92,6.77,5.8,17.14,6,23.56.29a316.84,316.84,0,0,0,35.75,22.88,186.11,186.11,0,0,0-19.61,56.9c-2.91,17.24-4.32,36.34-1.32,54-14.94-4.34-29.73-9.23-44.52-14.39a2.72,2.72,0,0,0-2.5.34C97.21,367.48,94,334.67,90.92,301.84Zm84.18-3.11a328.41,328.41,0,0,1-41.39-26.5c-1.69-1.27-4.18-.19-5.19,1.37-3.37,5.19-11.38,4.43-15.43.44-5.77-5.66-4.34-15.69-1.19-22.23,3.26-6.79,9.46-13.05,17.46-13s15.84,8.84,9.36,16c-1.45,1.62-1.58,4.86.76,5.9a337.37,337.37,0,0,1,46.71,25.38,4,4,0,0,0,.91.44,3.11,3.11,0,0,0,3.73.76c8.08-4,15.54-9.36,23.55-13.58a219.66,219.66,0,0,1,25.73-11.55,233.2,233.2,0,0,1,51.63-12.93,226.85,226.85,0,0,1,52.28-.61,167,167,0,0,1,27.43,5c9.94,2.79,18.51,7.19,27.44,12.25,2.91,1.65,6.37-1.25,6.12-4,9.15-8.11,17.3-17.47,25.75-26.27a3.8,3.8,0,0,0,0-5.26c-6.35-7-12.81-18.56-8.26-28.14,4.88-10.28,18.64-10.16,27-4.68,8.19,5.37,15.55,16.7,15.72,26.68.24,13.39-14.49,12.73-23.93,11.29a4.14,4.14,0,0,0-4.47,1.82,181,181,0,0,1-22.13,29.05c-1.9,2-1.24,4.63.8,6.19,37.29,28.44,64,65.48,83.58,107.71a382.53,382.53,0,0,1-48.89,28.93,240.85,240.85,0,0,1-80.84,23.16c-28.85,3-58,2.06-86.9,1.37-29.15-.69-58.07-2.7-86.8-7.86-14-2.52-27.7-5.76-41.27-9.51-1.15-18.56-2-36.48,1.36-55.11a182.9,182.9,0,0,1,20.72-57.42A3.81,3.81,0,0,0,175.1,298.73ZM451.25,563.31c-22,8.15-47.74,7.12-70.88,7.75-52.37,1.42-105,1.7-157.38,1.31a69.49,69.49,0,0,1-38.93-11.79c-9.44-6.11-17.78-13.54-25.75-21.41,3,.58,6.05,1.13,9,1.69a598.77,598.77,0,0,0,105.92,10.58c35.83.37,71.8-1.62,107.59-3.22,34.31-1.54,66.45-9.68,98.68-21.25,3.31-1.19,6.7-2.5,10.11-3.94C480.82,540.09,470.22,556.29,451.25,563.31Zm26.17-43.94c-30.72,11-61.53,19.3-94.26,20.92-66.37,3.27-132.92,6.68-198.82-4q-13.32-2.16-26.53-4.92c-8.89-1.86-18.13-3.59-26.3-7.72-11.4-5.77-19.54-15.56-27.28-25.49,13,4.76,26.43,8.67,39.81,12.16,39.14,10.2,79.4,15.87,119.76,17.91,76.69,3.88,157-.83,226.53-36.28a313.64,313.64,0,0,0,43.41-26.82C532.06,494.73,502.43,510.37,477.42,519.37Zm-74-6.36c-39.41,7.31-80.46,8.69-120.46,7.82A612,612,0,0,1,165.79,507.4,503.25,503.25,0,0,1,104.13,490c-18.88-6.74-35.59-15.71-49.77-30,8.28-8.79,14.07-20,22.2-29a116,116,0,0,1,11.82-11.32l15.33-12.1a383.35,383.35,0,0,0,45.42,15.9l4.51,1.24C191.89,435,231.81,440,271,441.39c57.91,2,116.59,3.73,170.91-19.48,28.58-12.2,54.75-29.19,79.72-47.54,3.92,1.83,7.93,3.38,11.62,5.88a147.12,147.12,0,0,1,15.07,12.34c8.82,7.84,17,17.22,26.27,24.56C529.73,466.61,469.14,500.81,403.4,513Z"/><path class="cls-6" d="M393.3,328.18a12.16,12.16,0,0,0,7.69,4.41c4.74,1.2,9.81.11,12.7-4.52,4.8-7.72.05-18.42-9.09-19.41a12.58,12.58,0,0,0-6.4.95c-6.33.56-10.42,8.65-7.47,14.92A13.34,13.34,0,0,0,393.3,328.18Zm13.37-10.29a5.31,5.31,0,0,1,1.19,3.4,4.63,4.63,0,0,0-.46.59c-2.14,3.38-7.66,4.55-8.62-.35C397.9,317.1,403.82,314.56,406.67,317.89Z"/><path class="cls-6" d="M302.48,374.84c12.25-2.19,20.91-18,12.19-28.45-1.62-1.94-5.08-.35-5,2.07.33,7.61,1.83,16.47-7.78,19-8.72,2.25-14.28-5.51-14.32-13.4,0-3.12-4.62-3.79-5.45-.74C278.79,365.58,290.19,377,302.48,374.84Z"/><path class="cls-6" d="M192.52,349.41c2.9,7.82,13.67,11.39,20.26,5.84s5.75-15.91-1.94-19.8c-8.44-4.27-18,1.59-20.78,9.89A3.29,3.29,0,0,0,192.52,349.41Zm6.89-5a9,9,0,0,1,4.19-2.28,2.63,2.63,0,0,1,.63.15,1.86,1.86,0,0,0,1.72-.16c2.44.48,4.21,2.51,3.15,5.31-1.19,3.14-4.91,3.5-7.5,1.85C200,348.25,198.7,346.24,199.41,344.39Z"/><path class="cls-6" d="M484.46,408.84c-8.24,1.93-16.48,8.73-23.73,13-7.86,4.62-15.56,8.82-24.17,11.92-.86.31-.8,1.74.23,1.7,8.35-.35,15.69-4.64,22.77-8.7q7.06-4,14.1-8.13c4.09-2.36,8.7-4.34,11.93-7.83A1.18,1.18,0,0,0,484.46,408.84Z"/><path class="cls-6" d="M502.42,398a17.84,17.84,0,0,0-3.9,2.24c-1.35.85-2.66,1.77-4,2.61a.75.75,0,0,0,.57,1.36c2.89-.78,6.73-2.14,8.39-4.85A.94.94,0,0,0,502.42,398Z"/><path class="cls-6" d="M125.22,483.84c-9.33-5.42-19.88-8.57-29.56-13.38-9.09-4.53-17.54-10.75-26.88-14.69-.52-.22-.82.54-.51.88,7.14,7.93,17.93,13.35,27.3,18.12,9.14,4.65,19,9.5,29.24,10.58C125.64,485.44,125.87,484.22,125.22,483.84Z"/><path class="cls-6" d="M148.28,490.75c-3.86-2.62-9.89-3.49-14.44-3.1-.69.06-1.17,1.1-.39,1.46a43.43,43.43,0,0,0,6.92,2.37,28.66,28.66,0,0,0,7.3,1.51A1.21,1.21,0,0,0,148.28,490.75Z"/><path class="cls-6" d="M380.46,67.91c8,3.13,15.77,6.83,22.27,12.46,6.07,5.24,11.55,11.37,17,17.26A222.3,222.3,0,0,1,435.15,116c4.3,5.81,7.8,12.37,12.56,17.8.76.86,2.12-.06,1.85-1.08-2.08-7.9-7.56-15-12.46-21.39a214,214,0,0,0-15.82-18.22c-5.67-5.89-11.5-12.09-18.13-16.92S388.71,68.86,381,66.1C379.81,65.69,379.36,67.48,380.46,67.91Z"/><path class="cls-6" d="M460.74,160.25a1.18,1.18,0,0,0,2.15-.9c-1.49-6.33-5-12.88-8.45-18.38-.71-1.14-2.67-.42-2.23.94C454.2,148.07,456.9,155,460.74,160.25Z"/></svg>