<svg id="Layer_1" data-name="Layer 1" xmlns="http://www.w3.org/2000/svg" viewBox="0 0 600 600"><defs><style>.cls-1{fill:#f7941e;}.cls-2{fill:#fff200;}.cls-3{fill:#fff;}.cls-4{fill:#231f20;}</style></defs><title>doodle</title><path class="cls-1" d="M508.8,331.83a129.83,129.83,0,0,0,20.57,7.43c7.43,2,14.49,1.76,22,2.44,7.95-13.88,14-29,18.86-44.19a40.54,40.54,0,0,1-11.86,2.75c-10.94.88-22.43-1.73-32.67-5.41a102.3,102.3,0,0,1-27.82-15.15,56.83,56.83,0,0,1-9.12-8.39c-1.49,9.47-2.92,18.94-4.41,28.4-.21,1.34-.41,2.68-.62,4C486.18,317.28,496.28,326.12,508.8,331.83Z"/><path class="cls-2" d="M262,414a79,79,0,0,0-4.71-12.37c-1.16-2.41-3.56-8.76-5.9-10.2-6-3.72-6,7.77-5.92,11,.11,4.08.59,8.18,1,12.24q1.22,13.17,2.85,26.31c2,16.6,4.95,33.06,7.43,49.6q10-1,20.1-1.59-4.8-25.12-9.56-50.27C265.73,430.43,264.39,422.05,262,414Z"/><path class="cls-2" d="M220.91,442a5.65,5.65,0,0,0-2.72-2.93q-1.92-2.19-3.7.93c-2.67,2-2.55,1.6-2.28,4.29s.91,5.49,1.46,8.2q1.52,7.48,3.52,14.86c2.48,9.12,6.1,17.86,8.86,26.86,4.88-.93,9.87-1.54,14.8-2.06a178.35,178.35,0,0,1-9.28-22.7C228.4,460.4,225.85,450.25,220.91,442Z"/><path class="cls-2" d="M311.86,450.2c-1.29-4.15-2.69-9.63-5.44-13.07-.32-1.51-1.27-2-2.86-1.55-1.34-.67-2.24-.42-2.72.75a9.07,9.07,0,0,0-1.81,3.5,25.34,25.34,0,0,0-1.13,6.23c-.36,4.52-.3,9.09-.32,13.61,0,5.28.06,10.55.2,15.82q.11,3.72.24,7.44c.05,1.23.21,2.5.15,3.72a12.35,12.35,0,0,1-.3,1.44q9.86-.22,19.7-.11a231,231,0,0,0-2.68-25.16A103,103,0,0,0,311.86,450.2Z"/><path class="cls-2" d="M360.46,425.81a54.32,54.32,0,0,0-1.84-10.51c-.31-1.1-.66-2.17-1.06-3.24l-4.87-2.57c-1.41.31-2.71,2.69-3.37,3.91-3.05,5.58-2.95,12.75-3.57,18.9q-1.08,10.63-2.18,21.26c-1.2,11.63-3.09,23.37-3.13,35.08,5,.2,10,.46,14.92,1.11,2.13-14.43,4.2-28.89,5-43.46A145.82,145.82,0,0,0,360.46,425.81Z"/><path class="cls-1" d="M505.31,383.42q4-2.13,7.93-4.34c-5.8-1.85-11.46-5.7-15.4-8.74a162.46,162.46,0,0,1-17.65-15.81c-1.58-1.65-3.27-3.36-4.73-5.21-.73,2.83-1.51,5.63-2.37,8.4-4.21,13.52-12,27-25.18,33.22-.28,1.83-.6,3.65-1,5.45-.23,2.22-.49,4.43-.75,6.65C467.56,403.63,487,393.32,505.31,383.42Z"/><path class="cls-1" d="M515.87,234.54a87.94,87.94,0,0,0,22.89,8.37c14.84,3.18,28.79,1.72,43.11-1.78.12-2.26.19-4.52.19-6.78,0-17.11-4.71-34.9-17.69-46.9-6.41-5.92-14.86-9.93-23.71-10-9.58-.07-17.73,5.22-24.37,11.63-9.46,9.14-14.66,20.42-18.11,32.47C502.06,227.31,511.32,232.1,515.87,234.54Z"/><path class="cls-2" d="M502.86,279.93a101.05,101.05,0,0,0,24.45,12.13c9,3.05,18.85,5.21,28.43,4.94a32.38,32.38,0,0,0,16-4.44l.12-.38c4.6-15.27,8.51-31.34,9.76-47.39-15.62,5.24-34,4.23-49.39-.32a85,85,0,0,1-25.83-12.55c-2.76-2-6.47-4.64-8.95-7.77-1.32,5-2.37,10.09-3.33,15.21-1.78,9.59-3.38,19.21-4.9,28.85C492.88,272.93,498.16,276.74,502.86,279.93Z"/><path class="cls-2" d="M484.58,355.12c3.79,3.66,7.76,7.14,11.87,10.45,4.4,3.53,9,7.15,14.2,9.39a19.8,19.8,0,0,0,6.9,1.63A99.37,99.37,0,0,0,531.32,367a90.19,90.19,0,0,0,18.4-22.45c-7.36,1.36-16-.74-22.88-2.72a120.51,120.51,0,0,1-22.46-8.84c-9.19-4.79-18.79-12.85-21.59-23.06-1.83,12.15-3.69,24.45-6.57,36.39.72,1,1.54,1.86,2.34,2.75C480.47,351.14,482.52,353.15,484.58,355.12Z"/><path class="cls-3" d="M347.15,169.42c-1.45,0-2.56-.15-2.35,1.49.27,2.14,2.58,3.15,4,2.18a6.64,6.64,0,0,0,.4-2C349.21,169.39,348.85,169.48,347.15,169.42Z"/><path class="cls-1" d="M45.4,431.39c-3.4,2.76-6.8,5.62-10.46,8.05-4.08,2.7-9.8,5.28-15,5.08a34.82,34.82,0,0,0,8,10.12,37.65,37.65,0,0,0,5,3.67A56.72,56.72,0,0,0,48.6,448a49.6,49.6,0,0,0,7.08-8.75c1.44-2.2,2.63-5,5.14-6.08a1.59,1.59,0,0,1,2.28.92c2.3,6.05-6.13,14.54-10.16,18.22a42.6,42.6,0,0,1-14.3,8.8c18,7.1,39.85-.26,54.91-11.44,19.54-14.5,32.54-35.43,44.35-56.21A470,470,0,0,1,132,334.12c-.24-6.81-.41-13.63-.55-20.45A130,130,0,0,1,123,330.91a151.68,151.68,0,0,1-22.66,29.77c-17,17.56-37.61,31.6-59,43.27-10.35,5.63-22.69,9.6-24.69,22.73a27.52,27.52,0,0,0,1,12.2,22.81,22.81,0,0,0,7.76-1.26,40.12,40.12,0,0,0,10.4-6.5c2.83-2.26,5.6-4.59,8.35-6.95,2.36-2,4-4.1,7.24-4.19a1.93,1.93,0,0,1,1.93,1.91C53,426.24,48.55,428.82,45.4,431.39Z"/><path class="cls-1" d="M156.28,444.05c4.88,18.21,10.52,36.17,16.23,54.14,5.39,16.92,10.24,34.18,18,50.22,3.17,6.55,7.48,17.42,14.65,20.6,8.13,3.59,10.64-7,11-12.76,1.18-18.45-1.95-37.53-5.52-55.57a3.82,3.82,0,0,1-.06-.74,1.92,1.92,0,0,1,.14-.78,3.11,3.11,0,0,1,3.67-2,80.88,80.88,0,0,1,9.41-2.54c-5.53-10.89-8.71-23.61-11.46-35.28-1.24-5.29-7.73-23,2.36-24.15,3.84-.45,6.83,2.32,8.63,5.37,3.07,5.21,5,11.33,7,17,4.18,11.61,7.92,23.28,13.62,34.24,2.55-.25,5.07-.49,7.54-.75l2.71-.26c-3.43-15.8-5.64-32-7.69-48q-1.6-12.66-2.86-25.37c-.68-7-2.06-14.5-.91-21.51.57-3.51,2.47-10.31,7.37-9.34,4.48.89,7.31,8.36,9.12,11.88,7,13.7,9.12,29.05,12,44q4.46,23.14,8.87,46.3c4.24-.23,8.49-.43,12.74-.57,1,0,1.94,0,2.92-.06-1.52-7.59-1-24.71-1.06-27.54-.05-7.6-2.25-25.14,7.15-29.16,4.16-1.79,6.28,2.62,7.83,5.65a81.22,81.22,0,0,1,6.32,17c2.84,11.05,3.9,22.55,4.58,33.94q6.84.11,13.67.37l3.74.15a140.82,140.82,0,0,1,.94-17.42q1.29-13.87,2.66-27.73c.78-7.95,1.1-16.11,2.59-24,.95-5,3-10.77,8-13.16,12.28-5.9,11.67,27,11.53,32.55-.43,17.24-2.85,34.34-5.35,51.38a58.79,58.79,0,0,1,12.9,3.61,4.19,4.19,0,0,1,2.15,3.72c-.63,15.74-4.65,31-7.24,46.45a116,116,0,0,0-2,23.3c.07,1.73-.47,5.29,2.14,5.22,1.32,0,3.28-1.89,4.3-2.56a19.35,19.35,0,0,1,4.2-2.21c9.17-8,16.18-18.94,22-29.12,9-15.62,15.94-32.44,22.37-49.22a292.55,292.55,0,0,0,15.2-55q2.43-14,3.92-28.13c.57-5.35.91-10.77,1.51-16.14-.18-11.75,1.31-23.7,1.8-35.39.58-13.47.91-27,.92-40.44a702,702,0,0,0-3.54-72.2c-.69-6.71-1.54-13.4-2.5-20.07a26.09,26.09,0,0,1-4,3.88c-5.38,4.17-12.09,6.19-18.69,7.56a210.32,210.32,0,0,1-52.39,4c-16-.76-34-2.29-48.8-8.68s-19.73-20.55-22-35.41a107.75,107.75,0,0,1-.43-29.89c0-1.19,0-2.39,0-3.59-8.15-3.41-17.66-8.4-26.53-8.55-5.2-.09-10.59,1.62-15.48,3.2-4,1.28-7.9,3.31-11.94,4.47,3.55,8.58,4.78,17.93,4.94,27.19.19,11.1.84,24.71-4.24,34.9-10.85,21.74-39.64,20.11-60.11,19.8-12.44-.19-24.9-.27-37.33-.77-.6,30.08-.71,60.22-.07,90.26C140.33,369.06,146.26,406.66,156.28,444.05ZM328.77,302.32a418.77,418.77,0,0,0,46.07-14.42,83.08,83.08,0,0,0,19.41-10.25c5.68-4.19,9.76-9.7,14-15.23a1.64,1.64,0,0,1,3,1.25c-2.3,12.68-15.29,21.56-26.21,26.8-14.12,6.77-29.58,11.31-44.63,15.53-25.14,7-56.23,8.33-71.11,33a41,41,0,0,0-5.1,13c1.41.31,2.81.65,4.24.82a30.27,30.27,0,0,0,9.21-.36,31.88,31.88,0,0,0,9.08-3.39c2.21-1.19,3.86-2.42,6.4-2.59a2.36,2.36,0,0,1,2.26,2.95c-1.41,6.44-11.58,9.3-17.23,10.17-4.32.67-10.06.8-14.74-.8A37.73,37.73,0,0,0,265,370.68a34.11,34.11,0,0,0,2.39,5.91,28.31,28.31,0,0,0,15.27-1.38c6-2.21,10.22-6.69,15.84-9.41a2.3,2.3,0,0,1,3.13,3.11c-3.05,6.68-12.11,10.73-18.85,12.51a27.31,27.31,0,0,1-11.8.69c4.75,5.88,11.4,9.93,19.19,12.38l.92.28A22.87,22.87,0,0,0,307,389.23c3.46-3.14,5.15-7.34,8-10.93,1.18-1.48,3.21-.07,3.36,1.38.64,6-4.14,11.76-8.87,15a23,23,0,0,1-6.21,3c22.09,3.93,45.23.65,64-12.3,11.09-7.63,20.39-17.74,29.25-27.74,9-10.21,16.29-21.11,23.23-32.78,2.16-3.64,8.41-1.21,7,2.93C421.6,343,409.5,355.3,398.88,366.93s-21.95,23-36,30.37C338.51,410,307,409.73,282,399c-18.09-7.79-27-26.94-24.64-45.37a.28.28,0,0,1,0-.09A44.75,44.75,0,0,1,261,340.7c5-11,14.18-20.1,24.87-25.81C299.06,307.88,314.49,306,328.77,302.32Zm-82.89-43.74c.29-1.54,2.27-1.76,3.29-.87,1.41,1.25,2.48,3.22,4.41,3.78,3.17.91,5-1.55,5.92-4.09,1.44-4,1.54-8.81,1.94-13,.66-7.07.12-14.5.82-21.63a16.69,16.69,0,0,1-9.69-1.93c-3.45-1.85-7.19-4.77-5.24-9.09s7.69-4.48,11.92-4.74a80.1,80.1,0,0,1,19.12,1.25c2.47.44,3,3.3,2.12,5.17-2.11,4.63-6.89,6-11.66,6.55a1.7,1.7,0,0,1-.81,1l-.22.11c1.24,6.38.59,13.39.14,19.68-.35,5-.5,11-1.86,16.19a11.84,11.84,0,0,0,8,6c5,.88,6.76-4.18,9.75-7a1.68,1.68,0,0,1,2.84,1.17,11.63,11.63,0,0,1-14,11,15.4,15.4,0,0,1-8.81-5.61,10.45,10.45,0,0,1-10.56,4.92C248.86,266.72,245,263.16,245.88,258.58Z"/><path class="cls-1" d="M357.32,129.23c-13.57-.69-28.66-3.33-41.26,3.13a32.4,32.4,0,0,0-6.37,4.31c-.4,1.15-.72,2.25-1,3-1,2.7-1.87,5.44-2.67,8.2a124.07,124.07,0,0,0-3.82,18.07,126.3,126.3,0,0,0-1,18.44c0,1.07.15,2.27.3,3.53.46,1.91,1,3.8,1.59,5.68,2.12,6.43,5.37,13.4,10.58,17.94,4.55,4,10.63,6.22,16.35,7.91,13.16,3.86,27,4.05,40.59,4.08,8.3,0,16.6,0,24.89,0,6.74,0,14,.5,20.34-2.32,9.1-4.06,14-12.79,17-21.94-1.72-9.59-3.6-19.15-5.58-28.71q-3.8-18.28-7.13-36.62c-5.26-1.75-11-2-16.48-2.26C388.24,130.77,372.78,130,357.32,129.23Zm-4.48,51.13c-3.22,3.38-7.95,5.11-12.52,2.91a10.31,10.31,0,0,1-5.58-10.86,7.72,7.72,0,0,1,2.62-4.81,8.1,8.1,0,0,1,5.51-5.4c4.37-1.3,10.56-.39,12.83,3.93a10.46,10.46,0,0,1,1.06,6.15A8.07,8.07,0,0,1,352.84,180.36Z"/><path class="cls-1" d="M192.89,225.56c4.82-.85,9.65-1.65,14.47-2.5,3.59-.63,7.37-1.17,10.4-3.33,6.87-4.88,8.5-14.14,9.14-21.9a173.6,173.6,0,0,0,.67-24.45c-.43-7.23-2.74-13.38-4.8-20a30.72,30.72,0,0,0-6.51-6.12c-7.76-5.39-18.34-6.74-27.37-8.82a236,236,0,0,0-32.77-5.64c-3.08-.27-6.56-.61-10.13-.78q-1.31,10.63-2.29,21.29c-1.94,21-3,42-3.58,63.1-.1,3.58-.18,7.16-.27,10.75C157.82,229.7,175,228.71,192.89,225.56ZM164.3,172.38a9.25,9.25,0,0,1,6.25-7.39c3.18-.91,7.47.06,9.71,2.54l0,0,0,0a.68.68,0,0,1,.12.12l0,.06c4.66,4.86,3.11,13.36-3.45,15.64A9.7,9.7,0,0,1,164.3,172.38Z"/><path class="cls-2" d="M270.13,127.75c6-5,5.36-16.36,6.18-23.3.94-7.93,1.69-15.91,2.83-23.81l-3.8-.19c-3.91-.2-7.82-.32-11.73-.41.65,8.38.52,16.81,1.18,25.2C265.38,112.8,265.64,121.3,270.13,127.75Z"/><path class="cls-3" d="M175.69,173.75a1.89,1.89,0,0,0-1.78-1.31c-1.24.08-1.11,1.36-1.37,2.36a3.11,3.11,0,0,1-.77,1.39,2.33,2.33,0,0,0,1.81.72A2.18,2.18,0,0,0,175.69,173.75Z"/><path class="cls-2" d="M299.55,90.19c.06,1.65,0,3.31.14,5,.07.83.14,1.65.22,2.48,2.27,1.62,3.57,1.5,3.92-.37,1.53-1.92,2.12-6.08,2.73-8.47.55-2.15.84-4.4,1.36-6.56l-9.1-.53h0A80.57,80.57,0,0,1,299.55,90.19Z"/><path class="cls-2" d="M232.46,106.1c4.71,5.2,5-2.17,5.4-4.6s.8-5.06,1.19-7.59c.72-4.56,1.3-9.18,2.19-13.72-4.91.18-9.81.46-14.7.87.69,3.71,1.21,7.46,2,11.15S229.79,103.15,232.46,106.1Z"/><path class="cls-1" d="M202.72,128.05c8.79,2.17,17.95,5.39,24.56,11.8a23.28,23.28,0,0,1,7,13.45c3.87-2.63,8.68-4.26,12.93-5.79,5.48-2,11.41-4.08,17.32-4,6.18.06,12,2.49,17.76,4.55,2.28.82,5.36,1.51,8,2.69.05-5.45.42-11.09,2.82-15.69,6.58-12.59,24.42-18.57,37.53-20.64,17.59-2.77,35.28-.28,52.8,1.74,11.2,1.29,23.27,1.76,34.4,4.72q-1.9-11.19-3.6-22.43c-3.27-21.94-5.76-44-8.83-66-12.92,16.93-22.81,35.37-31,55.06,0,2.66-2.13,5.24-5.29,4-14.42-5.44-29.64-7.33-44.95-8.35-4.41-.29-8.84-.55-13.26-.82-.24,4.41-1.92,9.13-3.3,13.12-.89,2.54-1.83,6.46-4.93,7.14-8.71,1.9-6.07-16.77-5.69-20.72a1,1,0,0,1,.11-.34q-7.49-.42-15-.81c-1,10.68-2.61,21.35-3.91,32-.82,6.68-1.42,14.2-7.68,18.15a1.42,1.42,0,0,1-1.71-.22c-4.52-5.78-5.59-12.68-6.26-19.78-1-10.15-1.84-20.76-.74-30.93-5.89-.1-11.78-.09-17.67.08-.86,7.73-2.39,15.47-3.67,23.13-.52,3.14-1.37,8.4-5.7,8.06-5-.38-6.32-7.49-7.21-11.2a101.89,101.89,0,0,1-3.08-18.84c-15,1.3-30.49,3.13-44.53,8.86a3.71,3.71,0,0,1-4.55-2.57q-4.35-22.17-8.73-44.33a243,243,0,0,0-9.13,25.53c-2.51,8.5-4,17.35-6.08,26-1,8.42-2.66,16.76-3.89,25.16,5.64.21,11.3.91,17.2,1.67C177.52,123.16,190.26,125,202.72,128.05Z"/><path class="cls-4" d="M261,340.7a44.75,44.75,0,0,0-3.66,12.79.28.28,0,0,0,0,.09C255,372,263.92,391.16,282,399c25,10.78,56.5,11,80.84-1.65,14.08-7.34,25.46-18.81,36-30.37s22.72-24,27.93-39.11c1.42-4.14-4.83-6.57-7-2.93-6.94,11.67-14.19,22.57-23.23,32.78-8.86,10-18.16,20.11-29.25,27.74-18.81,12.95-41.95,16.23-64,12.3a23,23,0,0,0,6.21-3c4.73-3.26,9.51-9,8.87-15-.15-1.45-2.18-2.86-3.36-1.38-2.85,3.59-4.54,7.79-8,10.93a22.87,22.87,0,0,1-15.95,5.54l-.92-.28C282.36,392,275.71,388,271,382.11a27.31,27.31,0,0,0,11.8-.69c6.74-1.78,15.8-5.83,18.85-12.51a2.3,2.3,0,0,0-3.13-3.11c-5.62,2.72-9.8,7.2-15.84,9.41a28.31,28.31,0,0,1-15.27,1.38,34.11,34.11,0,0,1-2.39-5.91,37.73,37.73,0,0,1-1.58-11.92c4.68,1.6,10.42,1.47,14.74.8,5.65-.87,15.82-3.73,17.23-10.17a2.36,2.36,0,0,0-2.26-2.95c-2.54.17-4.19,1.4-6.4,2.59a31.88,31.88,0,0,1-9.08,3.39,30.27,30.27,0,0,1-9.21.36c-1.43-.17-2.83-.51-4.24-.82a41,41,0,0,1,5.1-13c14.88-24.65,46-25.94,71.11-33,15.05-4.22,30.51-8.76,44.63-15.53,10.92-5.24,23.91-14.12,26.21-26.8a1.64,1.64,0,0,0-3-1.25c-4.24,5.53-8.32,11-14,15.23a83.08,83.08,0,0,1-19.41,10.25,418.77,418.77,0,0,1-46.07,14.42c-14.28,3.71-29.71,5.56-42.86,12.57C275.22,320.6,266.07,329.67,261,340.7Z"/><path class="cls-4" d="M253.23,267.47a10.45,10.45,0,0,0,10.56-4.92,15.4,15.4,0,0,0,8.81,5.61,11.63,11.63,0,0,0,14-11,1.68,1.68,0,0,0-2.84-1.17c-3,2.81-4.73,7.87-9.75,7a11.84,11.84,0,0,1-8-6c1.36-5.19,1.51-11.16,1.86-16.19.45-6.29,1.1-13.3-.14-19.68L268,221a1.7,1.7,0,0,0,.81-1c4.77-.51,9.55-1.92,11.66-6.55.85-1.87.35-4.73-2.12-5.17A80.1,80.1,0,0,0,259.25,207c-4.23.26-9.9.28-11.92,4.74s1.79,7.24,5.24,9.09a16.69,16.69,0,0,0,9.69,1.93c-.7,7.13-.16,14.56-.82,21.63-.4,4.21-.5,9-1.94,13-.91,2.54-2.75,5-5.92,4.09-1.93-.56-3-2.53-4.41-3.78-1-.89-3-.67-3.29.87C245,263.16,248.86,266.72,253.23,267.47Z"/><path class="cls-4" d="M355.7,166.13c-2.27-4.32-8.46-5.23-12.83-3.93a8.1,8.1,0,0,0-5.51,5.4,7.72,7.72,0,0,0-2.62,4.81,10.31,10.31,0,0,0,5.58,10.86c4.57,2.2,9.3.47,12.52-2.91a8.07,8.07,0,0,0,3.92-8.08A10.46,10.46,0,0,0,355.7,166.13Zm-6.93,7c-1.39,1-3.7,0-4-2.18-.21-1.64.9-1.54,2.35-1.49,1.7.06,2.06,0,2,1.66A6.64,6.64,0,0,1,348.77,173.09Z"/><path class="cls-4" d="M177,183.4c6.56-2.28,8.11-10.78,3.45-15.64l0-.06a.68.68,0,0,0-.12-.12l0,0,0,0c-2.24-2.48-6.53-3.45-9.71-2.54a9.25,9.25,0,0,0-6.25,7.39A9.7,9.7,0,0,0,177,183.4Zm-4.49-8.6c.26-1,.13-2.28,1.37-2.36a1.89,1.89,0,0,1,1.78,1.31,2.18,2.18,0,0,1-2.11,3.16,2.33,2.33,0,0,1-1.81-.72A3.11,3.11,0,0,0,172.54,174.8Z"/><path class="cls-4" d="M22,459.58c18.66,17.07,47,14.13,67.49,2.22C111.5,449,128,427.58,140,405.18q4.68,25,11.69,49.74c5.57,19.76,11.59,39.41,17.84,59,5.58,17.44,11.51,35.39,21.55,50.89,4.19,6.47,10.76,13.59,19.34,12.08,7.25-1.27,11-8,12.3-14.67,1.87-9.73.61-20.35-.41-30.11a207.12,207.12,0,0,0-5.33-30.37c11.49,0,23.25-2.16,34.6-3.12,12.82-1.1,25.66-1.76,38.52-2.05s25.74-.24,38.6.19c3.45.11,7,.14,10.71.22a1.14,1.14,0,0,0,.66,0c8.38.2,17,.74,24.6,3.39-1.27,18.73-7.13,36.81-8.39,55.55-.44,6.6-1.94,17.85,4,22.56a8.91,8.91,0,0,0,9.05,1c2.63-1,4.29-3,6-4.89,7-4.2,12.61-10.86,17.52-17.16,8.94-11.47,15.81-24.28,21.81-37.47,12.9-28.35,23.16-57.22,27.91-88.06,1.05-6.79,1.89-13.6,2.66-20.43,19.76,1.6,38.29-6.38,55.49-15.26,17.45-9,35.24-18.24,47.71-33.79,12-15,20-32.95,26.58-50.8a270.62,270.62,0,0,0,15-60.19c2.37-18.87,1.48-38.89-8.21-55.77-8.41-14.66-23.5-26.31-41.09-26.34-18.53,0-34.18,15.14-42.66,30.29-9.92,17.73-12.26,39.24-15.41,59-3.86,24.17-6.83,48.48-11.16,72.58C468,350,464.26,370.7,448.85,383c.65-7.53.76-15.15,1.1-22.61q.8-17.85.91-35.73c.17-24.43-.62-48.87-2.81-73.2-1.24-13.71-3.09-27.32-5.29-40.87.32-1,.61-1.95.87-2.93,3.19-12.15,4.29-25.29,4.13-38.09a64,64,0,0,0-.2-10c-.1-.94-.23-1.88-.38-2.82-1.17-13.91-6.05-26.33-19.63-32.51l-1.25-.53c-.94-5-1.86-10-2.73-15.08-4.81-27.76-9.43-55.7-13-83.65-.3-2.29-3.34-4.44-5.25-2.15-14.85,17.72-27.42,38.07-35.24,59.88-14.18-5-29.15-6.72-44.11-7.62-16.85-1-33.74-1.59-50.61-2.22a395.84,395.84,0,0,0-50.85.92c-14.31,1.31-29.12,2.9-42.73,7.79Q176.62,56,171.53,30.4c-.58-2.93-5.32-3.62-6.62-.86A247.6,247.6,0,0,0,150.9,66c-2.55,8.71-5.31,18.22-6.35,27.6-2.26,8.33-3.41,17-4.67,25.51l-.12.84a64.07,64.07,0,0,0-10.7,1.51c-10.44,2.4-19.59,6.78-25.58,15.94-6.15,9.42-7.4,20.93-8,31.87-.7,12.17-2.13,24.73-1.45,36.91.58,10.33,4.31,19.57,13,25.71,7.19,5.08,15.83,7,24.49,7.76-.36,18.19-.51,36.4-.35,54.6a2.68,2.68,0,0,0-.35.62c-4.69,12.15-8.72,24-15.71,35.15A155.53,155.53,0,0,1,90.35,359.9a217.22,217.22,0,0,1-32.63,25.18c-11.23,7.19-23.25,12.9-34.63,19.79C2.85,417.12,6,445,22,459.58Zm494.34-270.5c6.64-6.41,14.79-11.7,24.37-11.63,8.85.07,17.3,4.08,23.71,10,13,12,17.68,29.79,17.69,46.9,0,2.26-.07,4.52-.19,6.78-14.32,3.5-28.27,5-43.11,1.78a87.94,87.94,0,0,1-22.89-8.37c-4.55-2.44-13.81-7.23-17.69-13C501.63,209.5,506.83,198.22,516.29,189.08Zm-22.15,50.28c1-5.12,2-10.22,3.33-15.21,2.48,3.13,6.19,5.77,8.95,7.77a85,85,0,0,0,25.83,12.55c15.39,4.55,33.77,5.56,49.39.32-1.25,16-5.16,32.12-9.76,47.39l-.12.38a32.38,32.38,0,0,1-16,4.44c-9.58.27-19.39-1.89-28.43-4.94a101.05,101.05,0,0,1-24.45-12.13c-4.7-3.19-10-7-13.62-11.72C490.76,258.57,492.36,249,494.14,239.36Zm-9.8,60.35c1.49-9.46,2.92-18.93,4.41-28.4a56.83,56.83,0,0,0,9.12,8.39,102.3,102.3,0,0,0,27.82,15.15c10.24,3.68,21.73,6.29,32.67,5.41a40.54,40.54,0,0,0,11.86-2.75c-4.86,15.23-10.91,30.31-18.86,44.19-7.5-.68-14.56-.48-22-2.44a129.83,129.83,0,0,1-20.57-7.43c-12.52-5.71-22.62-14.55-25.08-28.1C483.93,302.39,484.13,301.05,484.34,299.71Zm-1.55,10.17c2.8,10.21,12.4,18.27,21.59,23.06a120.51,120.51,0,0,0,22.46,8.84c6.9,2,15.52,4.08,22.88,2.72A90.19,90.19,0,0,1,531.32,367a99.37,99.37,0,0,1-13.77,9.64,19.8,19.8,0,0,1-6.9-1.63c-5.23-2.24-9.8-5.86-14.2-9.39-4.11-3.31-8.08-6.79-11.87-10.45-2.06-2-4.11-4-6-6.1-.8-.89-1.62-1.79-2.34-2.75C479.1,334.33,481,322,482.79,309.88Zm-35.87,86.51c.39-1.8.71-3.62,1-5.45,13.16-6.2,21-19.7,25.18-33.22.86-2.77,1.64-5.57,2.37-8.4,1.46,1.85,3.15,3.56,4.73,5.21a162.46,162.46,0,0,0,17.65,15.81c3.94,3,9.6,6.89,15.4,8.74q-4,2.22-7.93,4.34c-18.34,9.9-37.75,20.21-59.14,19.62C446.43,400.82,446.69,398.61,446.92,396.39Zm-220.87,97.8c-2.76-9-6.38-17.74-8.86-26.86q-2-7.36-3.52-14.86c-.55-2.71-1.17-5.45-1.46-8.2s-.39-2.29,2.28-4.29q1.78-3.12,3.7-.93a5.65,5.65,0,0,1,2.72,2.93c4.94,8.27,7.49,18.42,10.66,27.45a178.35,178.35,0,0,0,9.28,22.7C235.92,492.65,230.93,493.26,226.05,494.19Zm30.71-3.63c-2.48-16.54-5.38-33-7.43-49.6q-1.64-13.12-2.85-26.31c-.38-4.06-.86-8.16-1-12.24-.08-3.26-.09-14.75,5.92-11,2.34,1.44,4.74,7.79,5.9,10.2A79,79,0,0,1,262,414c2.35,8.1,3.69,16.48,5.26,24.75q4.76,25.14,9.56,50.27Q266.79,489.6,256.76,490.56Zm41.11-2.47a12.35,12.35,0,0,0,.3-1.44c.06-1.22-.1-2.49-.15-3.72q-.13-3.72-.24-7.44c-.14-5.27-.22-10.54-.2-15.82,0-4.52,0-9.09.32-13.61a25.34,25.34,0,0,1,1.13-6.23,9.07,9.07,0,0,1,1.81-3.5c.48-1.17,1.38-1.42,2.72-.75,1.59-.48,2.54,0,2.86,1.55,2.75,3.44,4.15,8.92,5.44,13.07a103,103,0,0,1,3,12.62A231,231,0,0,1,317.57,488Q307.73,487.88,297.87,488.09Zm42.57.55c0-11.71,1.93-23.45,3.13-35.08q1.1-10.62,2.18-21.26c.62-6.15.52-13.32,3.57-18.9.66-1.22,2-3.6,3.37-3.91l4.87,2.57c.4,1.07.75,2.14,1.06,3.24a54.32,54.32,0,0,1,1.84,10.51,145.82,145.82,0,0,1-.07,20.48c-.83,14.57-2.9,29-5,43.46C350.43,489.1,345.42,488.84,340.44,488.64ZM435.61,149a41.63,41.63,0,0,1,2.95,13.73c.05,1.3.07,2.61.1,3.92A88.82,88.82,0,0,1,437.32,180c-2.6-13.53-5.34-27-8-40.58A29,29,0,0,1,435.61,149Zm-8.31,21.51c2,9.56,3.86,19.12,5.58,28.71-3,9.15-7.94,17.88-17,21.94-6.3,2.82-13.6,2.29-20.34,2.32-8.29,0-16.59.06-24.89,0-13.61,0-27.43-.22-40.59-4.08-5.72-1.69-11.8-3.95-16.35-7.91-5.21-4.54-8.46-11.51-10.58-17.94-.62-1.88-1.13-3.77-1.59-5.68-.15-1.26-.28-2.46-.3-3.53a126.3,126.3,0,0,1,1-18.44A124.07,124.07,0,0,1,306,147.84c.8-2.76,1.68-5.5,2.67-8.2.26-.72.58-1.82,1-3a32.4,32.4,0,0,1,6.37-4.31c12.6-6.46,27.69-3.82,41.26-3.13,15.46.79,30.92,1.54,46.37,2.37,5.49.29,11.22.51,16.48,2.26Q423.49,152.2,427.3,170.48ZM307.92,82.22c-.52,2.16-.81,4.41-1.36,6.56-.61,2.39-1.2,6.55-2.73,8.47-.35,1.87-1.65,2-3.92.37-.08-.83-.15-1.65-.22-2.48-.1-1.64-.08-3.3-.14-5a80.57,80.57,0,0,0-.73-8.49h0Zm-32.58-1.77,3.8.19c-1.14,7.9-1.89,15.88-2.83,23.81-.82,6.94-.21,18.31-6.18,23.3-4.49-6.45-4.75-15-5.34-22.51-.66-8.39-.53-16.82-1.18-25.2C267.52,80.13,271.43,80.25,275.34,80.45Zm-34.1-.26c-.89,4.54-1.47,9.16-2.19,13.72q-.59,3.8-1.19,7.59c-.38,2.43-.69,9.8-5.4,4.6-2.67-2.95-3.14-10.16-3.93-13.89s-1.3-7.44-2-11.15C231.43,80.65,236.33,80.37,241.24,80.19ZM151.49,94.7c2.09-8.63,3.57-17.48,6.08-26a243,243,0,0,1,9.13-25.53q4.38,22.17,8.73,44.33A3.71,3.71,0,0,0,180,90.09c14-5.73,29.48-7.56,44.53-8.86a101.89,101.89,0,0,0,3.08,18.84c.89,3.71,2.23,10.82,7.21,11.2,4.33.34,5.18-4.92,5.7-8.06,1.28-7.66,2.81-15.4,3.67-23.13,5.89-.17,11.78-.18,17.67-.08-1.1,10.17-.23,20.78.74,30.93.67,7.1,1.74,14,6.26,19.78a1.42,1.42,0,0,0,1.71.22c6.26-4,6.86-11.47,7.68-18.15,1.3-10.64,2.92-21.31,3.91-32q7.5.39,15,.81a1,1,0,0,0-.11.34c-.38,4-3,22.62,5.69,20.72,3.1-.68,4-4.6,4.93-7.14,1.38-4,3.06-8.71,3.3-13.12,4.42.27,8.85.53,13.26.82,15.31,1,30.53,2.91,44.95,8.35,3.16,1.19,5.26-1.39,5.29-4,8.2-19.69,18.09-38.13,31-55.06,3.07,22,5.56,44,8.83,66q1.68,11.24,3.6,22.43c-11.13-3-23.2-3.43-34.4-4.72-17.52-2-35.21-4.51-52.8-1.74-13.11,2.07-30.95,8-37.53,20.64-2.4,4.6-2.77,10.24-2.82,15.69-2.67-1.18-5.75-1.87-8-2.69-5.72-2.06-11.58-4.49-17.76-4.55-5.91,0-11.84,2.07-17.32,4-4.25,1.53-9.06,3.16-12.93,5.79a23.28,23.28,0,0,0-7-13.45c-6.61-6.41-15.77-9.63-24.56-11.8-12.46-3.07-25.2-4.89-37.92-6.52-5.9-.76-11.56-1.46-17.2-1.67C148.83,111.46,150.51,103.12,151.49,94.7ZM140.12,216.38c.59-21.06,1.64-42.12,3.58-63.1q1-10.65,2.29-21.29c3.57.17,7,.51,10.13.78a236,236,0,0,1,32.77,5.64c9,2.08,19.61,3.43,27.37,8.82a30.72,30.72,0,0,1,6.51,6.12c2.06,6.65,4.37,12.8,4.8,20a173.6,173.6,0,0,1-.67,24.45c-.64,7.76-2.27,17-9.14,21.9-3,2.16-6.81,2.7-10.4,3.33-4.82.85-9.65,1.65-14.47,2.5-17.94,3.15-35.07,4.14-53,1.57C139.94,223.54,140,220,140.12,216.38Zm-.55,23.72c12.43.5,24.89.58,37.33.77,20.47.31,49.26,1.94,60.11-19.8,5.08-10.19,4.43-23.8,4.24-34.9-.16-9.26-1.39-18.61-4.94-27.19,4-1.16,8-3.19,11.94-4.47,4.89-1.58,10.28-3.29,15.48-3.2,8.87.15,18.38,5.14,26.53,8.55,0,1.2,0,2.4,0,3.59a107.75,107.75,0,0,0,.43,29.89c2.26,14.86,7.16,29,22,35.41s32.83,7.92,48.8,8.68a210.32,210.32,0,0,0,52.39-4c6.6-1.37,13.31-3.39,18.69-7.56a26.09,26.09,0,0,0,4-3.88c1,6.67,1.81,13.36,2.5,20.07a702,702,0,0,1,3.54,72.2c0,13.49-.34,27-.92,40.44-.49,11.69-2,23.64-1.8,35.39-.6,5.37-.94,10.79-1.51,16.14q-1.5,14.13-3.92,28.13a292.55,292.55,0,0,1-15.2,55c-6.43,16.78-13.39,33.6-22.37,49.22-5.85,10.18-12.86,21.12-22,29.12a19.35,19.35,0,0,0-4.2,2.21c-1,.67-3,2.52-4.3,2.56-2.61.07-2.07-3.49-2.14-5.22a116,116,0,0,1,2-23.3c2.59-15.47,6.61-30.71,7.24-46.45a4.19,4.19,0,0,0-2.15-3.72,58.79,58.79,0,0,0-12.9-3.61c2.5-17,4.92-34.14,5.35-51.38.14-5.59.75-38.45-11.53-32.55-5,2.39-7.05,8.15-8,13.16-1.49,7.85-1.81,16-2.59,24q-1.35,13.86-2.66,27.73a140.82,140.82,0,0,0-.94,17.42l-3.74-.15q-6.82-.27-13.67-.37c-.68-11.39-1.74-22.89-4.58-33.94a81.22,81.22,0,0,0-6.32-17c-1.55-3-3.67-7.44-7.83-5.65-9.4,4-7.2,21.56-7.15,29.16,0,2.83-.46,19.95,1.06,27.54-1,0-1.95,0-2.92.06-4.25.14-8.5.34-12.74.57q-4.42-23.14-8.87-46.3c-2.88-14.92-5-30.27-12-44-1.81-3.52-4.64-11-9.12-11.88-4.9-1-6.8,5.83-7.37,9.34-1.15,7,.23,14.51.91,21.51q1.25,12.7,2.86,25.37c2.05,16,4.26,32.15,7.69,48l-2.71.26c-2.47.26-5,.5-7.54.75-5.7-11-9.44-22.63-13.62-34.24-2-5.66-4-11.78-7-17-1.8-3.05-4.79-5.82-8.63-5.37-10.09,1.16-3.6,18.86-2.36,24.15,2.75,11.67,5.93,24.39,11.46,35.28a80.88,80.88,0,0,0-9.41,2.54,3.11,3.11,0,0,0-3.67,2,1.92,1.92,0,0,0-.14.78,3.82,3.82,0,0,0,.06.74c3.57,18,6.7,37.12,5.52,55.57-.36,5.76-2.87,16.35-11,12.76-7.17-3.18-11.48-14-14.65-20.6-7.77-16-12.62-33.3-18-50.22-5.71-18-11.35-35.93-16.23-54.14-10-37.39-15.95-75-16.78-113.69C138.86,300.32,139,270.18,139.57,240.1Zm-15.39-15.88c-3.75-.82-8.35-1.57-11.36-4.13-3.25-2.78-3.19-7.36-3.51-11.29-.37-4.74-.56-9.5-.61-14.25a192.26,192.26,0,0,1,2.09-31c.7-4.57,1.91-9.19,3-13.83,2.88-5.47,6.57-10.75,11.59-14,3.59-2.33,8.06-3.35,12.73-3.69q-1.05,8.3-1.9,16.61c-2.05,20.35-3.24,40.77-3.92,61.21-.18,5.29-.32,10.6-.46,15.9C129.27,225.29,126.72,224.78,124.18,224.22ZM51.32,420c-3.22.09-4.88,2.17-7.24,4.19-2.75,2.36-5.52,4.69-8.35,6.95a40.12,40.12,0,0,1-10.4,6.5,22.81,22.81,0,0,1-7.76,1.26,27.52,27.52,0,0,1-1-12.2c2-13.13,14.34-17.1,24.69-22.73,21.42-11.67,42-25.71,59-43.27A151.68,151.68,0,0,0,123,330.91a130,130,0,0,0,8.46-17.24c.14,6.82.31,13.64.55,20.45a470,470,0,0,0,5.93,59.36c-11.81,20.78-24.81,41.71-44.35,56.21-15.06,11.18-36.94,18.54-54.91,11.44a42.6,42.6,0,0,0,14.3-8.8c4-3.68,12.46-12.17,10.16-18.22a1.59,1.59,0,0,0-2.28-.92c-2.51,1.09-3.7,3.88-5.14,6.08A49.6,49.6,0,0,1,48.6,448,56.72,56.72,0,0,1,33,458.31a37.65,37.65,0,0,1-5-3.67,34.82,34.82,0,0,1-8-10.12c5.24.2,11-2.38,15-5.08C38.6,437,42,434.15,45.4,431.39c3.15-2.57,7.6-5.15,7.85-9.5A1.93,1.93,0,0,0,51.32,420Z"/></svg>