<svg id="Layer_1" data-name="Layer 1" xmlns="http://www.w3.org/2000/svg" viewBox="0 0 600 600"><defs><style>.cls-1{fill:#88e0ff;}.cls-2{fill:#58595b;}.cls-3{fill:#939598;}.cls-4{fill:#231f20;}</style></defs><title>doodle</title><path class="cls-1" d="M220.77,192.78c5.1,18.34,9.11,37.07,13.56,55.52,5.23,21.62,9,44.36,16.14,65.42,3,8.77,8,16.11,17.67,17.87,9.86,1.8,21.18-.54,30.94-1.94a401.11,401.11,0,0,0,59.14-13c16.46-4.95,38.33-10.54,39.45-31.26.52-9.61-2.24-19.19-4.48-28.45q-3.57-14.77-7.68-29.43-8.22-29.29-18.46-58c-1.87-5.21-3.75-10.41-5.75-15.56-1.75-4.49-3.11-9.49-8.23-11.14-7.85-2.52-20,3.12-27.4,5.13q-30.48,8.28-60.92,16.71L234.31,173c-3.71,1-8.91,1.61-12.1,4-4.9,3.68-2.66,10.44-1.5,15.36C220.74,192.51,220.75,192.64,220.77,192.78Z"/><path class="cls-2" d="M202.52,338.16c15.79,68.86,28.33,146,78.33,198-8.85-17.77-14.61-37.74-20.74-55.65a1628.86,1628.86,0,0,1-46.37-164.85c-6.45-28.22-12.48-56.57-17.86-85-3.69-19.54-7.42-41-5.09-61.36-6.74,11.14-10.36,24.26-11.4,37.12-1.78,21.95,3,43.67,7.82,64.94Q194.83,304.76,202.52,338.16Z"/><path class="cls-3" d="M207.25,247.29C218.11,301,230.7,354.44,245.82,407.12q11.25,39.17,24.59,77.68c8.17,23.46,16,47.2,29.31,68.27,1.39,1.08,2.76,2.16,4.2,3.2a3.18,3.18,0,0,1,1.18,3.67q3.58,2.41,7.44,4.52c20.95,11.38,47.75,17.29,71.51,17,22.11-.28,45.51-8.05,58.8-26.72C454.5,538.38,457,517.55,457.28,498c.67-42.87-3.86-86.42-10-128.8a1022.89,1022.89,0,0,0-26.95-128.33c-5.55-20-11.64-39.77-18.42-59.35-6.32-18.24-13.58-36.47-24.82-52.3-6.37-9-14.69-20.67-26.83-20-9.87.57-20,3.31-29.63,5.34q-31.83,6.67-62.94,16.37c-19.19,6-42,11.31-56.85,25.62-.17.16-.32.33-.48.49a173.08,173.08,0,0,0-1.25,43.16C200.78,216.06,204.1,231.7,207.25,247.29ZM255.3,392.53c-.16-6.1,1-13.14,6.77-16.42,7.37-4.2,17.14-5.94,25.32-7.9,5.79-1.38,12.94-3,17.87,1.49,4.57,4.14,5.93,12.49,4.94,18.29-1.17,6.89-6.13,11.14-12.21,14-5.37,2.5-11.42,5.16-17.45,4.87-5.44,1.44-11,2.36-16,.86C257.9,405.67,255.45,398.9,255.3,392.53Zm10,42.05c-.15-6.11,1-13.15,6.77-16.42,7.38-4.2,17.15-6,25.32-7.9,5.8-1.38,12.94-3,17.87,1.49,4.58,4.14,5.93,12.49,4.95,18.29-1.17,6.88-6.14,11.13-12.22,14-5.36,2.51-11.41,5.17-17.45,4.88-5.44,1.43-11,2.36-16,.85C268,447.72,265.5,440.94,265.34,434.58Zm56.89-75.06c7.38-4.2,17.15-5.94,25.32-7.9,5.8-1.38,12.94-3,17.87,1.49,4.58,4.14,5.93,12.49,4.95,18.29-1.17,6.89-6.14,11.14-12.22,14-5.36,2.5-11.41,5.16-17.45,4.87-5.44,1.44-11,2.36-16,.86-6.67-2-9.12-8.8-9.28-15.17C315.31,369.84,316.49,362.8,322.23,359.52Zm9.23,110.73c-1.17,6.89-6.14,11.14-12.22,14-5.36,2.5-11.41,5.16-17.45,4.87-5.44,1.44-11,2.36-16,.86-6.67-2-9.12-8.8-9.28-15.17-.15-6.11,1-13.15,6.77-16.42,7.38-4.2,17.14-5.94,25.32-7.9,5.8-1.38,12.94-3,17.87,1.49C331.08,456.1,332.44,464.45,331.46,470.25ZM325.51,418c-.16-6.11,1-13.15,6.77-16.42,7.37-4.2,17.14-5.95,25.32-7.9,5.79-1.39,12.94-3,17.87,1.48,4.57,4.15,5.93,12.5,4.94,18.3-1.17,6.88-6.13,11.13-12.21,14-5.37,2.51-11.42,5.17-17.45,4.88-5.45,1.43-11,2.36-16,.85C328.11,431.12,325.66,424.35,325.51,418Zm11.21,40.21c-.16-6.11,1-13.15,6.77-16.42,7.37-4.2,17.14-5.95,25.32-7.9,5.79-1.38,12.94-3,17.87,1.49,4.57,4.14,5.92,12.49,4.94,18.29-1.17,6.89-6.13,11.14-12.21,14C374,470.14,368,472.8,362,472.51c-5.45,1.44-11,2.36-16,.86C339.32,471.34,336.87,464.57,336.72,458.2Zm68.86,37.17c-1.17,6.88-6.13,11.13-12.21,14-5.37,2.51-11.42,5.16-17.46,4.88-5.44,1.43-11,2.36-16,.85-6.67-2-9.12-8.8-9.28-15.16-.15-6.11,1-13.15,6.78-16.42,7.37-4.2,17.14-5.95,25.32-7.9,5.79-1.39,12.93-3,17.87,1.48C405.21,481.22,406.56,489.57,405.58,495.37Zm46.21-61c-1.17,6.88-6.14,11.13-12.22,14-5.36,2.51-11.41,5.16-17.45,4.88-5.44,1.43-11,2.36-16,.85-6.66-2-9.11-8.8-9.27-15.16-.15-6.11,1-13.15,6.77-16.42,7.38-4.2,17.14-5.95,25.32-7.9,5.8-1.39,12.94-3,17.87,1.49C451.41,420.26,452.77,428.61,451.79,434.41Zm-11.21-40.22c-1.17,6.89-6.14,11.14-12.22,14-5.36,2.5-11.41,5.16-17.45,4.88-5.44,1.43-11,2.36-16,.85-6.67-2-9.12-8.8-9.28-15.16-.15-6.11,1-13.15,6.77-16.42,7.38-4.21,17.15-5.95,25.32-7.9,5.8-1.39,12.94-3,17.87,1.48C440.2,380.05,441.56,388.39,440.58,394.19Zm-15-60.33c4.57,4.14,5.93,12.49,4.94,18.29-1.17,6.89-6.13,11.14-12.21,14-5.37,2.51-11.42,5.17-17.45,4.88-5.45,1.43-11,2.36-16,.86-6.67-2-9.12-8.81-9.27-15.17-.16-6.11,1-13.15,6.77-16.42,7.37-4.2,17.14-5.95,25.32-7.9C413.51,331,420.66,329.39,425.59,333.86Zm-214-156.66a14.33,14.33,0,0,1,5.43-7.13c4.34-3.08,9.94-4.08,15-5.46l20.76-5.69q41.53-11.4,83.05-22.84c7.44-2,16.09-4.22,23.33-.35,8.31,4.44,10.68,15.46,13.71,23.59q12.82,34.35,22.51,69.74c3.24,11.88,6.33,23.84,8.92,35.88,2.07,9.63,3.73,20,.8,29.66-5.62,18.46-25.32,24.65-41.87,29.74a409.53,409.53,0,0,1-71.15,15c-19.25,2.33-38.79,2.73-47.76-17.57-4.12-9.3-5.9-19.62-8.27-29.46l-8.69-36.18c-5.24-21.82-11.23-43.69-15.47-65.78a29,29,0,0,1-1.13-6.25c-.19-1.11-.41-2.23-.6-3.34A3.51,3.51,0,0,1,211.59,177.2Z"/><path class="cls-2" d="M383.1,362.33a7,7,0,0,0,6.35,3.71c-5.32-5.12-7.41-13.25-4.39-20.06-2.57,2.17-3.09,5.61-3.18,9.1A14.62,14.62,0,0,0,383.1,362.33Z"/><path class="cls-1" d="M313.22,455.72a167.47,167.47,0,0,0-17.63,4.65c-.81.25-1.65.49-2.49.73a2.43,2.43,0,0,1-.27,1.08c-3.34,6.35-3.72,14.15,3.05,18.55,5.71,3.72,12.07,1.42,17.79-1,6.06-2.52,11.7-5.68,11.73-13,0-3.13-.61-6.56-2.63-9C320.16,454.63,317,455,313.22,455.72Z"/><path class="cls-1" d="M334.79,381.89c5.71,3.71,12.07,1.41,17.79-1,6.06-2.51,11.7-5.68,11.73-13,0-3.13-.61-6.56-2.63-9-2.61-3.14-5.75-2.77-9.55-2.05a168.11,168.11,0,0,0-17.63,4.65c-.81.25-1.65.49-2.49.73a2.27,2.27,0,0,1-.27,1.08C328.4,369.68,328,377.48,334.79,381.89Z"/><path class="cls-2" d="M316.35,106.23q4-.86,8.07-1.68c-6.3-14.59-12.69-29.15-19-43.73-.69-1.61-.91-3.88.67-5.14C323.72,41.51,310.13,15,288.49,18.4c-13.12,2.05-15.66,13.37-15.42,24.92.18,8.93,7.14,25,18.63,17.39,1.83-1.22,5.13-.51,6.07,1.6,3.72,8.29,7.36,16.62,11,25C311.36,93.17,315.38,99.66,316.35,106.23Z"/><path class="cls-1" d="M274.63,398.48c5.7,3.71,12.07,1.42,17.78-1,6.06-2.51,11.71-5.68,11.74-13,0-3.13-.62-6.56-2.64-9-2.6-3.14-5.75-2.77-9.55-2.05a167.94,167.94,0,0,0-17.62,4.65c-.82.25-1.66.49-2.5.73a2.27,2.27,0,0,1-.27,1.08C268.23,386.27,267.86,394.07,274.63,398.48Z"/><path class="cls-1" d="M284.67,440.52c5.71,3.72,12.07,1.42,17.79-.95,6.06-2.52,11.7-5.68,11.73-13,0-3.12-.61-6.55-2.63-9-2.61-3.15-5.75-2.77-9.55-2.05a165.06,165.06,0,0,0-17.63,4.65c-.81.25-1.65.49-2.49.73a2.3,2.3,0,0,1-.27,1.08C278.28,428.32,277.9,436.11,284.67,440.52Z"/><path class="cls-2" d="M274.78,423.87c-2.58,2.17-3.1,5.61-3.19,9.1-.06,2.4.06,5.09,1.22,7.25,1.43,2.66,3.76,3.57,6.36,3.71C273.84,438.81,271.76,430.68,274.78,423.87Z"/><path class="cls-2" d="M264.73,381.83c-2.57,2.17-3.09,5.6-3.18,9.09a14.66,14.66,0,0,0,1.22,7.26c1.43,2.66,3.75,3.57,6.35,3.71C263.8,396.76,261.71,388.64,264.73,381.83Z"/><path class="cls-1" d="M395,362.63c5.7,3.72,12.07,1.42,17.78-.95,6.06-2.52,11.71-5.68,11.74-13,0-3.12-.62-6.55-2.64-9-2.6-3.15-5.75-2.77-9.55-2.05a165.51,165.51,0,0,0-17.62,4.65c-.82.25-1.66.49-2.5.73a2.3,2.3,0,0,1-.27,1.08C388.56,350.43,388.19,358.22,395,362.63Z"/><path class="cls-2" d="M406.31,428.24c-2.57,2.17-3.09,5.61-3.18,9.1-.06,2.4.06,5.09,1.22,7.25,1.43,2.66,3.76,3.57,6.36,3.71C405.38,443.18,403.29,435.05,406.31,428.24Z"/><path class="cls-1" d="M433.55,419.88a167.42,167.42,0,0,0-17.63,4.64l-2.49.74a2.43,2.43,0,0,1-.27,1.08c-3.34,6.35-3.72,14.14,3,18.55,5.71,3.71,12.07,1.42,17.79-.95,6.05-2.52,11.7-5.68,11.73-13,0-3.12-.61-6.55-2.63-9C440.49,418.78,437.35,419.15,433.55,419.88Z"/><path class="cls-1" d="M387.34,480.84a167.24,167.24,0,0,0-17.62,4.64l-2.5.74a2.3,2.3,0,0,1-.27,1.08c-3.34,6.35-3.72,14.14,3.06,18.55,5.7,3.71,12.06,1.42,17.78-1,6.06-2.52,11.7-5.68,11.74-13,0-3.12-.62-6.55-2.64-9C394.29,479.74,391.14,480.11,387.34,480.84Z"/><path class="cls-2" d="M395.11,388c-2.58,2.17-3.1,5.61-3.19,9.09-.06,2.41.06,5.1,1.22,7.26,1.43,2.66,3.76,3.57,6.36,3.71C394.17,403,392.08,394.84,395.11,388Z"/><path class="cls-1" d="M422.34,379.66a167.47,167.47,0,0,0-17.63,4.65c-.81.25-1.65.49-2.49.73a2.47,2.47,0,0,1-.27,1.09c-3.34,6.34-3.72,14.14,3.05,18.55,5.71,3.71,12.07,1.42,17.79-1,6-2.51,11.7-5.68,11.73-13,0-3.13-.61-6.55-2.63-9C429.28,378.57,426.14,378.94,422.34,379.66Z"/><path class="cls-2" d="M360.11,489.2c-2.57,2.17-3.1,5.61-3.19,9.1-.06,2.4.07,5.09,1.23,7.25,1.42,2.66,3.75,3.57,6.35,3.71C359.17,504.14,357.09,496,360.11,489.2Z"/><path class="cls-1" d="M356.05,464.14c5.7,3.72,12.07,1.42,17.78-.95,6.06-2.52,11.7-5.68,11.74-13,0-3.13-.62-6.56-2.64-9-2.6-3.14-5.75-2.77-9.55-2.05a167.94,167.94,0,0,0-17.62,4.65c-.82.25-1.66.49-2.5.73a2.3,2.3,0,0,1-.27,1.08C349.65,451.94,349.28,459.74,356.05,464.14Z"/><path class="cls-2" d="M334.94,407.28c-2.57,2.17-3.09,5.61-3.18,9.1a14.62,14.62,0,0,0,1.22,7.25c1.43,2.66,3.75,3.57,6.35,3.71C334,422.22,331.92,414.09,334.94,407.28Z"/><path class="cls-2" d="M286,464.08c-2.57,2.18-3.09,5.61-3.18,9.1-.06,2.4.06,5.09,1.22,7.25a7,7,0,0,0,6.36,3.71C285.05,479,283,470.89,286,464.08Z"/><path class="cls-1" d="M344.84,423.93c5.7,3.72,12.07,1.42,17.78-.95,6.06-2.52,11.7-5.68,11.74-13,0-3.12-.62-6.55-2.64-9-2.6-3.15-5.75-2.78-9.55-2.05a167.89,167.89,0,0,0-17.62,4.64l-2.5.74a2.3,2.3,0,0,1-.27,1.08C338.44,411.73,338.07,419.52,344.84,423.93Z"/><path class="cls-2" d="M329.29,385.29c-5.33-5.12-7.41-13.25-4.39-20.05-2.58,2.17-3.1,5.6-3.19,9.09-.06,2.4.07,5.1,1.22,7.26A7,7,0,0,0,329.29,385.29Z"/><path class="cls-2" d="M346.15,447.49c-2.57,2.18-3.09,5.61-3.18,9.1a14.62,14.62,0,0,0,1.22,7.25,7,7,0,0,0,6.35,3.71C345.22,462.43,343.13,454.3,346.15,447.49Z"/><path class="cls-4" d="M217.82,435.81c9.55,32,22.94,63.62,43.6,89.94,10.39,15.16,22.12,29.67,37.13,40.44,18.13,13,40.78,19.38,62.61,22.66,39.12,5.89,82-4.92,97.83-44.82,7.17-18,7.92-38.13,7.52-57.3-.48-23.8-2.07-47.6-4.35-71.28a1036,1036,0,0,0-23.25-140q-8.37-35.25-19.25-69.83c-6.48-20.56-13.1-41.37-22.66-60.75a144.05,144.05,0,0,0-15.46-25c-5.67-7.28-12.82-16.34-22.13-18.92-8.38-2.32-17.77,0-26.27,1.85-6.38-14.31-12.65-28.68-19-43a30.06,30.06,0,0,0,4.51-35.71c-7.48-12.7-24.58-17.27-37.95-12-15.39,6.11-18,24.39-15.18,39.12,2.32,12,14.1,23.08,26.17,19.26q4.35,10,8.77,20.05c2.4,5.45,4.39,12.32,8,17.43-4.23,1-8.46,2-12.68,3a601.51,601.51,0,0,0-68.11,21c-11.46,4.35-22,9.73-30.82,17.39a3.13,3.13,0,0,0-2.14,2,65.48,65.48,0,0,0-11.59,14.57c-23.14,39.52-8.67,87.2.82,128.51C194.79,341.53,204,389.46,217.82,435.81Zm79.95-373.5c-.94-2.11-4.24-2.82-6.07-1.6-11.49,7.65-18.45-8.46-18.63-17.39-.24-11.55,2.3-22.87,15.42-24.92,21.64-3.39,35.23,23.11,17.58,37.28-1.58,1.26-1.36,3.53-.67,5.14,6.33,14.58,12.72,29.14,19,43.73q-4,.83-8.07,1.68c-1-6.57-5-13.06-7.57-19C305.13,78.93,301.49,70.6,297.77,62.31Zm-97.38,94.75c.16-.16.31-.33.48-.49,14.89-14.31,37.66-19.63,56.85-25.62q31-9.69,62.94-16.37c9.65-2,19.76-4.77,29.63-5.34,12.14-.7,20.46,11,26.83,20,11.24,15.83,18.5,34.06,24.82,52.3,6.78,19.58,12.87,39.39,18.42,59.35a1022.89,1022.89,0,0,1,26.95,128.33c6.11,42.38,10.64,85.93,10,128.8-.31,19.56-2.78,40.39-14.43,56.75-13.29,18.67-36.69,26.44-58.8,26.72-23.76.29-50.56-5.62-71.51-17q-3.85-2.1-7.44-4.52a3.18,3.18,0,0,0-1.18-3.67c-1.44-1-2.81-2.12-4.2-3.2-13.29-21.07-21.14-44.81-29.31-68.27q-13.4-38.48-24.59-77.68C230.7,354.44,218.11,301,207.25,247.29c-3.15-15.59-6.47-31.23-8.11-47.07A173.08,173.08,0,0,1,200.39,157.06Zm-21,49.34c1-12.86,4.66-26,11.4-37.12-2.33,20.32,1.4,41.82,5.09,61.36,5.38,28.44,11.41,56.79,17.86,85A1628.86,1628.86,0,0,0,260.11,480.5c6.13,17.91,11.89,37.88,20.74,55.65-50-52-62.54-129.13-78.33-198q-7.65-33.41-15.31-66.82C182.36,250.07,177.61,228.35,179.39,206.4Z"/><path class="cls-4" d="M210.74,184.13a29,29,0,0,0,1.13,6.25c4.24,22.09,10.23,44,15.47,65.78L236,292.34c2.37,9.84,4.15,20.16,8.27,29.46,9,20.3,28.51,19.9,47.76,17.57a409.53,409.53,0,0,0,71.15-15c16.55-5.09,36.25-11.28,41.87-29.74,2.93-9.63,1.27-20-.8-29.66-2.59-12-5.68-24-8.92-35.88q-9.64-35.37-22.51-69.74c-3-8.13-5.4-19.15-13.71-23.59-7.24-3.87-15.89-1.69-23.33.35q-41.54,11.37-83.05,22.84L232,164.61c-5,1.38-10.64,2.38-15,5.46a14.33,14.33,0,0,0-5.43,7.13,3.51,3.51,0,0,0-1.45,3.59C210.33,181.9,210.55,183,210.74,184.13ZM222.21,177c3.19-2.39,8.39-3,12.1-4l30.44-8.36q30.47-8.37,60.92-16.71c7.37-2,19.55-7.65,27.4-5.13,5.12,1.65,6.48,6.65,8.23,11.14,2,5.15,3.88,10.35,5.75,15.56q10.26,28.63,18.46,58,4.11,14.64,7.68,29.43c2.24,9.26,5,18.84,4.48,28.45-1.12,20.72-23,26.31-39.45,31.26a401.11,401.11,0,0,1-59.14,13c-9.76,1.4-21.08,3.74-30.94,1.94-9.66-1.76-14.68-9.1-17.67-17.87-7.18-21.06-10.91-43.8-16.14-65.42-4.45-18.45-8.46-37.18-13.56-55.52,0-.14,0-.27-.06-.42C219.55,187.44,217.31,180.68,222.21,177Z"/><path class="cls-4" d="M280.54,406.84c6,.29,12.08-2.37,17.45-4.87,6.08-2.84,11-7.09,12.21-14,1-5.8-.37-14.15-4.94-18.29-4.93-4.47-12.08-2.87-17.87-1.49-8.18,2-17.95,3.7-25.32,7.9-5.74,3.28-6.93,10.32-6.77,16.42.15,6.37,2.6,13.14,9.27,15.17C269.52,409.2,275.1,408.28,280.54,406.84Zm-17.77-8.66a14.66,14.66,0,0,1-1.22-7.26c.09-3.49.61-6.92,3.18-9.09-3,6.81-.93,14.93,4.39,20.06C266.52,401.75,264.2,400.84,262.77,398.18Zm8.8-18.26a2.27,2.27,0,0,0,.27-1.08c.84-.24,1.68-.48,2.5-.73A167.94,167.94,0,0,1,292,373.46c3.8-.72,7-1.09,9.55,2.05,2,2.43,2.65,5.86,2.64,9,0,7.34-5.68,10.51-11.74,13-5.71,2.38-12.08,4.67-17.78,1C267.86,394.07,268.23,386.27,271.57,379.92Z"/><path class="cls-4" d="M324.74,391.11c4.94,1.5,10.52.58,16-.86,6,.29,12.09-2.37,17.45-4.87,6.08-2.84,11.05-7.09,12.22-14,1-5.8-.37-14.15-4.95-18.29-4.93-4.47-12.07-2.87-17.87-1.49-8.17,2-17.94,3.7-25.32,7.9-5.74,3.28-6.92,10.32-6.77,16.42C315.62,382.31,318.07,389.08,324.74,391.11Zm7-27.78a2.27,2.27,0,0,0,.27-1.08c.84-.24,1.68-.48,2.49-.73a168.11,168.11,0,0,1,17.63-4.65c3.8-.72,6.94-1.09,9.55,2.05,2,2.43,2.65,5.86,2.63,9,0,7.34-5.67,10.51-11.73,13-5.72,2.37-12.08,4.67-17.79,1C328,377.48,328.4,369.68,331.74,363.33Zm-10,11c.09-3.49.61-6.92,3.19-9.09-3,6.8-.94,14.93,4.39,20.05a7,7,0,0,1-6.36-3.7C321.78,379.43,321.65,376.73,321.71,374.33Z"/><path class="cls-4" d="M375.63,356.69c.15,6.36,2.6,13.14,9.27,15.17,4.94,1.5,10.52.57,16-.86,6,.29,12.08-2.37,17.45-4.88,6.08-2.83,11-7.08,12.21-14,1-5.8-.37-14.15-4.94-18.29-4.93-4.47-12.08-2.87-17.87-1.49-8.18,1.95-18,3.7-25.32,7.9C376.66,343.54,375.47,350.58,375.63,356.69Zm16.27-12.61a2.3,2.3,0,0,0,.27-1.08c.84-.24,1.68-.48,2.5-.73a165.51,165.51,0,0,1,17.62-4.65c3.8-.72,6.95-1.1,9.55,2.05,2,2.43,2.65,5.86,2.64,9,0,7.35-5.68,10.51-11.74,13-5.71,2.37-12.08,4.67-17.78.95C388.19,358.22,388.56,350.43,391.9,344.08Zm-6.84,1.9c-3,6.81-.93,14.94,4.39,20.06a7,7,0,0,1-6.35-3.71,14.62,14.62,0,0,1-1.22-7.25C382,351.59,382.49,348.15,385.06,346Z"/><path class="cls-4" d="M290.58,448.89c6,.29,12.09-2.37,17.45-4.88,6.08-2.84,11.05-7.09,12.22-14,1-5.8-.37-14.15-4.95-18.29-4.93-4.47-12.07-2.87-17.87-1.49-8.17,1.95-17.94,3.7-25.32,7.9-5.74,3.27-6.92,10.31-6.77,16.42.16,6.36,2.61,13.14,9.28,15.16C279.56,451.25,285.14,450.32,290.58,448.89Zm-17.77-8.67c-1.16-2.16-1.28-4.85-1.22-7.25.09-3.49.61-6.93,3.19-9.1-3,6.81-.94,14.94,4.39,20.06C276.57,443.79,274.24,442.88,272.81,440.22ZM281.62,422a2.3,2.3,0,0,0,.27-1.08c.84-.24,1.68-.48,2.49-.73A165.06,165.06,0,0,1,302,415.51c3.8-.72,6.94-1.1,9.55,2.05,2,2.43,2.65,5.86,2.63,9,0,7.35-5.67,10.51-11.73,13-5.72,2.37-12.08,4.67-17.79.95C277.9,436.11,278.28,428.32,281.62,422Z"/><path class="cls-4" d="M350.75,432.3c6,.29,12.08-2.37,17.45-4.88,6.08-2.84,11-7.09,12.21-14,1-5.8-.37-14.15-4.94-18.3-4.93-4.46-12.08-2.87-17.87-1.48-8.18,1.95-18,3.7-25.32,7.9-5.74,3.27-6.93,10.31-6.77,16.42.15,6.36,2.6,13.13,9.27,15.16C339.73,434.66,345.3,433.73,350.75,432.3ZM333,423.63a14.62,14.62,0,0,1-1.22-7.25c.09-3.49.61-6.93,3.18-9.1-3,6.81-.93,14.94,4.39,20.06C336.73,427.2,334.41,426.29,333,423.63Zm8.8-18.25a2.3,2.3,0,0,0,.27-1.08l2.5-.74a167.89,167.89,0,0,1,17.62-4.64c3.8-.73,6.95-1.1,9.55,2.05,2,2.43,2.65,5.86,2.64,9,0,7.35-5.68,10.51-11.74,13-5.71,2.37-12.08,4.67-17.78.95C338.07,419.52,338.44,411.73,341.78,405.38Z"/><path class="cls-4" d="M417.76,374.42c-8.17,1.95-17.94,3.69-25.32,7.9-5.74,3.27-6.92,10.31-6.77,16.42.16,6.36,2.61,13.13,9.28,15.16,4.94,1.51,10.52.58,16-.85,6,.28,12.09-2.38,17.45-4.88,6.08-2.84,11.05-7.09,12.22-14,1-5.8-.38-14.14-4.95-18.29C430.7,371.43,423.56,373,417.76,374.42Zm-24.62,30c-1.16-2.16-1.28-4.85-1.22-7.26.09-3.48.61-6.92,3.19-9.09-3,6.81-.94,14.94,4.39,20.06C396.9,408,394.57,407,393.14,404.38Zm38.75-22.67c2,2.44,2.65,5.86,2.63,9,0,7.34-5.68,10.51-11.73,13-5.72,2.38-12.08,4.67-17.79,1-6.77-4.41-6.39-12.21-3.05-18.55a2.47,2.47,0,0,0,.27-1.09c.84-.24,1.68-.48,2.49-.73a167.47,167.47,0,0,1,17.63-4.65C426.14,378.94,429.28,378.57,431.89,381.71Z"/><path class="cls-4" d="M308.64,450.47c-8.18,2-17.94,3.7-25.32,7.9-5.74,3.27-6.92,10.31-6.77,16.42.16,6.37,2.61,13.14,9.28,15.17,4.94,1.5,10.52.58,16-.86,6,.29,12.09-2.37,17.45-4.87,6.08-2.84,11.05-7.09,12.22-14,1-5.8-.38-14.15-4.95-18.29C321.58,447.49,314.44,449.09,308.64,450.47Zm-24.62,30c-1.16-2.16-1.28-4.85-1.22-7.25.09-3.49.61-6.92,3.18-9.1-3,6.81-.93,14.94,4.4,20.06A7,7,0,0,1,284,480.43Zm29.65-.65c-5.72,2.37-12.08,4.67-17.79,1-6.77-4.4-6.39-12.2-3.05-18.55a2.43,2.43,0,0,0,.27-1.08c.84-.24,1.68-.48,2.49-.73a167.47,167.47,0,0,1,17.63-4.65c3.8-.72,6.94-1.09,9.55,2,2,2.43,2.65,5.86,2.63,9C325.37,474.1,319.73,477.26,313.67,479.78Z"/><path class="cls-4" d="M362,472.51c6,.29,12.08-2.37,17.45-4.87,6.08-2.84,11-7.09,12.21-14,1-5.8-.37-14.15-4.94-18.29-4.93-4.47-12.08-2.87-17.87-1.49-8.18,1.95-17.95,3.7-25.32,7.9-5.74,3.27-6.93,10.31-6.77,16.42.15,6.37,2.6,13.14,9.27,15.17C350.93,474.87,356.51,474,362,472.51Zm-17.77-8.67a14.62,14.62,0,0,1-1.22-7.25c.09-3.49.61-6.92,3.18-9.1-3,6.81-.93,14.94,4.39,20.06A7,7,0,0,1,344.19,463.84Zm8.8-18.25a2.3,2.3,0,0,0,.27-1.08c.84-.24,1.68-.48,2.5-.73a167.94,167.94,0,0,1,17.62-4.65c3.8-.72,6.95-1.09,9.55,2.05,2,2.43,2.65,5.86,2.64,9,0,7.34-5.68,10.5-11.74,13-5.71,2.37-12.08,4.67-17.78.95C349.28,459.74,349.65,451.94,353,445.59Z"/><path class="cls-4" d="M382.77,475.59c-8.18,2-17.95,3.7-25.32,7.9-5.75,3.27-6.93,10.31-6.78,16.42.16,6.36,2.61,13.13,9.28,15.16,4.94,1.51,10.52.58,16-.85,6,.28,12.09-2.37,17.46-4.88,6.08-2.84,11-7.09,12.21-14,1-5.8-.37-14.15-4.94-18.3C395.7,472.6,388.56,474.2,382.77,475.59Zm-24.62,30c-1.16-2.16-1.29-4.85-1.23-7.25.09-3.49.62-6.93,3.19-9.1-3,6.81-.94,14.94,4.39,20.06C361.9,509.12,359.57,508.21,358.15,505.55Zm29.64-.65c-5.72,2.37-12.08,4.66-17.78,1-6.78-4.41-6.4-12.2-3.06-18.55a2.3,2.3,0,0,0,.27-1.08l2.5-.74a167.24,167.24,0,0,1,17.62-4.64c3.8-.73,7-1.1,9.55,2,2,2.44,2.65,5.87,2.64,9C399.49,499.22,393.85,502.38,387.79,504.9Z"/><path class="cls-4" d="M429,414.63c-8.18,1.95-17.94,3.7-25.32,7.9-5.74,3.27-6.92,10.31-6.77,16.42.16,6.36,2.61,13.13,9.27,15.16,5,1.51,10.53.58,16-.85,6,.28,12.09-2.37,17.45-4.88,6.08-2.84,11.05-7.09,12.22-14,1-5.8-.38-14.15-5-18.29C441.91,411.65,434.77,413.24,429,414.63Zm-24.62,30c-1.16-2.16-1.28-4.85-1.22-7.25.09-3.49.61-6.93,3.18-9.1-3,6.81-.93,14.94,4.4,20.06C408.11,448.16,405.78,447.25,404.35,444.59Zm38.75-22.67c2,2.44,2.65,5.87,2.63,9,0,7.35-5.68,10.51-11.73,13-5.72,2.37-12.08,4.66-17.79.95-6.77-4.41-6.39-12.2-3-18.55a2.43,2.43,0,0,0,.27-1.08l2.49-.74a167.42,167.42,0,0,1,17.63-4.64C437.35,419.15,440.49,418.78,443.1,421.92Z"/></svg>