<svg id="Layer_1" data-name="Layer 1" xmlns="http://www.w3.org/2000/svg" viewBox="0 0 600 600"><defs><style>.cls-1{fill:#88e0ff;}.cls-2{fill:#231f20;}</style></defs><title>doodle</title><path class="cls-1" d="M410.42,342.16c12.46-14.46,181.83-4,181.83-4s-156.92-35.33-156.92-68.25,112.08-95.56,112.08-95.56S398,228.93,383.86,212.87c-16-18.19,21.58-127.67,21.58-127.67S336.78,192.54,310,192c-39.85-.81-75.55-125.27-75.55-125.27s14.11,139.72-19.1,154.17S65.87,166.3,65.87,166.3s85.52,80.3,78.87,106.8-137,48-137,48,149.45-.63,153.6,35.5S77.49,497.94,77.49,497.94,205.35,397.56,236.07,406.4s77.21,126.87,77.21,126.87-9.26-97.17.49-134.95C322,419.9,334,448.7,340.68,452.17c10.8,5.62,45.67-6.43,45.67-6.43L403,510s15.24-83.52,9.28-90.74-49.13,2.4-49.13,2.4l-2.21-37.81c56.45,13,129.24,69.13,129.24,69.13S398,356.61,410.42,342.16Z"/><path class="cls-2" d="M313.28,536.32a3,3,0,0,1-2.83-1.93C297.67,502,259.24,416.23,235.23,409.33c-6.66-1.92-27,1-88.27,42.06-35.3,23.65-67.27,48.7-67.58,48.95A3.05,3.05,0,0,1,75.16,496c.21-.26,22.18-26.57,43.34-56.93,34.95-50.13,40.94-72.31,39.82-82.09-1.49-13-28.37-23.18-75.67-28.62a723.62,723.62,0,0,0-74.88-4.18h0a3,3,0,0,1-.49-6.05c.32-.06,32.86-5.47,65.77-14,56.6-14.72,67.37-26.19,68.76-31.72s-1.44-20.92-36.26-60.55c-20.21-23-41.53-43.09-41.75-43.29a3,3,0,0,1,3.65-4.84c.29.17,29.34,17.38,62,32.6,53.84,25.05,75.74,25.7,84.63,21.83,12.22-5.32,19.39-33.65,20.17-79.77A698.73,698.73,0,0,0,231.38,67a3,3,0,0,1,6-1.14,540.18,540.18,0,0,0,22.71,62C277.72,167.53,295,188.65,310,189c5.68.09,20.43-6.49,55.32-52,20.2-26.36,37.36-53.12,37.53-53.39a3,3,0,0,1,5.45,2.64c-.09.27-9.44,27.61-16.72,56.8-12.52,50.21-8.79,64.07-5.46,67.87.88,1,5.52,3.91,28.69-.23,14-2.52,32.62-7.2,55.23-13.93,38.59-11.48,75.93-25.1,76.31-25.23A3,3,0,0,1,548.9,177c-.28.16-28.24,15.83-55.81,35.29-35.28,24.9-54.71,45.36-54.71,57.61,0,6.86,9.92,21.65,76.36,43.58,38.65,12.75,77.79,21.61,78.18,21.7a3,3,0,0,1-.86,6c-.42,0-42.8-2.61-86.13-3.4-80.12-1.47-91.59,4.5-93.2,6.37h0c-.62.72-4.94,8.47,35.2,56.87,21.17,25.52,44.17,49.6,44.4,49.84a3.05,3.05,0,0,1-4.06,4.53c-.71-.55-69.52-53.26-124.1-67.6l1.77,30.15c4.13-.84,11.41-2.22,19.1-3.22,21.93-2.86,27.31-.12,29.54,2.59,1.49,1.8,4.58,5.55-1.74,50.44-3,21.59-6.85,42.57-6.89,42.78a3,3,0,0,1-5.95.22l-15.79-61.09c-9.34,3-34.94,10.42-44.94,5.21-2.06-1.07-8-4.19-24.53-45.65C308.63,451,316.23,532.1,316.32,533a3.06,3.06,0,0,1-2.33,3.26A3.36,3.36,0,0,1,313.28,536.32ZM231.73,402.81a18.66,18.66,0,0,1,5.18.66c13.59,3.91,31.09,26.89,52,68.3,7.91,15.67,14.87,31.16,19.76,42.53-2.17-30.45-5.06-88.86,2.13-116.74a3,3,0,0,1,5.8-.33c17.24,45.13,23.86,51.39,25.48,52.24,7,3.65,30.25-2.12,43.26-6.61a3.1,3.1,0,0,1,2.44.2A3.07,3.07,0,0,1,389.3,445l13.06,50.55c1.28-7.65,2.89-17.64,4.33-27.81,5.57-39.29,3.66-45.64,3.16-46.57-.36-.35-3.8-3-24-.39-11.27,1.47-21.95,3.85-22.06,3.87a3,3,0,0,1-3.7-2.8L357.84,384a3.08,3.08,0,0,1,1.08-2.51,3,3,0,0,1,2.65-.64c23.74,5.47,52.91,18.87,86.71,39.83,7.21,4.46,13.87,8.82,19.7,12.76-7.49-8.34-16.25-18.32-24.72-28.53-39.54-47.66-39.55-59.65-35.15-64.76,2.39-2.77,8.61-6.16,35.8-7.78,15.67-.94,36.58-1.18,62.15-.71,19.81.36,39.41,1.1,54.93,1.8-13.93-3.71-31.09-8.59-48.16-14.22-54.2-17.89-80.55-34-80.55-49.37,0-8.47,6-18.6,18.41-31,9.42-9.41,22.51-20.06,38.92-31.64,10.63-7.5,21.32-14.44,30.48-20.17-13.67,4.63-30.86,10.26-48.29,15.45-22.83,6.79-41.63,11.53-55.9,14.08-25.13,4.49-31.55,1.43-34.33-1.74-4.29-4.88-5.64-14.67-4.12-29.94,1.14-11.49,3.92-26.12,8.25-43.47,3.32-13.32,7.07-26.25,10.18-36.45-6.81,10-15.9,22.84-25.7,35.62-28.05,36.6-47.69,54.39-60,54.4h-.26c-17.81-.36-36.46-22.14-55.44-64.74-6.1-13.68-11.26-27.42-15.14-38.54.73,13,1.33,29.72,1,46.69-.36,21.53-2.07,39.34-5.07,52.92-4,18-10.12,28.57-18.76,32.33a31.88,31.88,0,0,1-12.66,2.21c-16.73,0-42.53-8.07-77-24.12-16-7.45-31.1-15.36-42.47-21.55,7.5,7.61,16.71,17.27,25.71,27.51,28.36,32.28,40.67,53.9,37.61,66.09S120.68,298,74.52,310c-13.4,3.49-26.75,6.46-37.91,8.76,13.42.57,30.08,1.62,46.73,3.53,22.21,2.56,40.13,6.14,53.25,10.66,17.59,6.05,26.68,13.68,27.79,23.32,1.81,15.75-11.95,44.79-40.9,86.31-10,14.3-20.11,27.71-28.11,37.95,12.61-9.39,30-22,48.2-34.2C187.14,417.13,216.12,402.81,231.73,402.81Zm178.69-60.65h0Z"/></svg>