<svg id="Layer_1" data-name="Layer 1" xmlns="http://www.w3.org/2000/svg" viewBox="0 0 600 600"><defs><style>.cls-1{fill:#009444;}.cls-2{fill:#231f20;}</style></defs><title>doodle</title><path class="cls-1" d="M440.5,235.75c-2.25,8.34-4.5,16.67-6.81,25-2.37,8.53-3.61,19.42-12.67,23.45-14.57,6.49-31.2-.77-42.63-10.17C365,263,355,245.92,337.58,240.66c-15.12-4.55-31.6-.33-46.15,4.38-16.4,5.3-32.73,11.61-50.21,11.7-13.78.07-27.25-3.9-39.71-9.56C174.94,235.1,151.23,214.48,122,209c-30.91-5.79-60,6.62-86.92,20.62a5.9,5.9,0,0,1-.43,2.43A174,174,0,0,0,22.7,298.19c18.26-17.36,45-25.35,70-21,14.21,2.48,26.53,8.75,37.49,18.05,12.77,10.84,24.71,24.87,42.59,26,17.06,1,36.25-1.48,52.87-5.32,16.25-3.76,29.27-12.54,43.76-20.23,11.85-6.29,25.35-10.63,38.6-6.08,14.53,5,23,18.45,31.63,30.25,9.34,12.84,20.15,22.74,36.11,26.23,15.14,3.32,31.46.53,44.11-8.54,4.38-3.14,9.53-.06,9.62,5.1a191.84,191.84,0,0,0,8.28,52.5,789.83,789.83,0,0,1,128.1-75.93,578,578,0,0,1-62.89-35.79C480.93,269,460.54,252.69,440.5,235.75Z"/><path class="cls-2" d="M582.27,313.56c-50.84-23.63-100.37-54.51-141.65-92.68-2.69-2.49-7.68-.47-8.68,2.72-2.73,8.73-5.48,17.46-8.16,26.21-1.35,4.37-2.69,8.75-4,13.14-1.65,5.64-2.52,10.19-9.07,10.85-15.88,1.61-28.58-13.25-38.37-23.4-11.35-11.77-23.5-21.56-40.19-23.75-14.76-1.93-29.6,1.69-43.57,6.14C272.32,238,255.82,245,238.39,244.25c-14.12-.63-27.41-5.85-39.87-12.19-25.24-12.84-49-30.43-77.68-34.56-32.33-4.65-65.91,7.9-91.93,26.74A5.52,5.52,0,0,0,23.47,228a186.4,186.4,0,0,0-11.64,86.09c.51,5.21,7.85,6.52,10.66,2.44,16-23.23,47-33.77,74.15-26.51,15.51,4.15,26.35,14.52,38.13,24.8,12.22,10.68,25.09,18.22,41.74,18,16.84-.19,34.52-1.84,50.92-5.71,15.51-3.65,28.36-11,42-18.75,12.61-7.16,27.31-14.06,40.93-5.19,13.27,8.64,19.68,24.9,30.47,36.05,20,20.65,52,25,77.22,12.81a205,205,0,0,0,11,55.41c1.36,3.93,6.49,4.35,9.39,2.19A773.86,773.86,0,0,1,582.67,324.9C587.84,322.57,587,315.74,582.27,313.56ZM437.72,395.13a191.84,191.84,0,0,1-8.28-52.5c-.09-5.16-5.24-8.24-9.62-5.1-12.65,9.07-29,11.86-44.11,8.54-16-3.49-26.77-13.39-36.11-26.23C331,308,322.5,294.57,308,289.59c-13.25-4.55-26.75-.21-38.6,6.08-14.49,7.69-27.51,16.47-43.76,20.23-16.62,3.84-35.81,6.36-52.87,5.32-17.88-1.1-29.82-15.13-42.59-26-11-9.3-23.28-15.57-37.49-18.05-25-4.36-51.7,3.63-70,21a174,174,0,0,1,11.92-66.14,5.9,5.9,0,0,0,.43-2.43c26.88-14,56-26.41,86.92-20.62,29.26,5.48,53,26.1,79.54,38.18,12.46,5.66,25.93,9.63,39.71,9.56,17.48-.09,33.81-6.4,50.21-11.7,14.55-4.71,31-8.93,46.15-4.38C355,245.92,365,263,378.39,274c11.43,9.4,28.06,16.66,42.63,10.17,9.06-4,10.3-14.92,12.67-23.45,2.31-8.32,4.56-16.65,6.81-25,20,16.94,40.43,33.2,62.43,47.66a578,578,0,0,0,62.89,35.79A789.83,789.83,0,0,0,437.72,395.13Z"/></svg>