<svg id="Layer_1" data-name="Layer 1" xmlns="http://www.w3.org/2000/svg" viewBox="0 0 600 600"><defs><style>.cls-1{fill:#fff200;}.cls-2{fill:#f7941e;}.cls-3{fill:#fff;}.cls-4{fill:#231f20;}</style></defs><title>doodle</title><path class="cls-1" d="M406.85,517.91c-.09,1.47-.18,3-.28,4.42a211.07,211.07,0,0,0,25.81-90.91c.11-2.36,3.64-3.77,4.81-1.31l4.89,10.33c12.66-47.83,20.56-97.71,12.86-147-.36-2.27,2.44-4.68,4.31-2.52q5.28,6.12,10.57,12.22A243,243,0,0,0,468,239a46.91,46.91,0,0,1-1.91-6.28c-.73-3.24,4.24-4.61,5-1.37.18.79.4,1.56.62,2.34L470,213.84c-11.76,2.25-24.76,2.7-35-4.42-9.76-6.81-15.34-18.79-16.73-30.37-1.53-12.75,1.85-28.17,9.84-38.44,7.26-9.34,18.64-12.31,29.76-14.33a237.26,237.26,0,0,0-17.21-28.9c-14.82,9.62-32.42,14.05-49.95,15-16.66.86-32.92-1.6-47.35-10.34a75.12,75.12,0,0,1-29.56-33.08c-3.53-7.86-5.33-16.23-6.38-24.75-.81-6.56-2.47-14.44-.65-21.1a2.58,2.58,0,0,1-.47,0,120.24,120.24,0,0,0-62.77,6.87l6.41-.37c3.12-.19,3.22,4.11.69,5.07a189.63,189.63,0,0,0-81.43,59.52l16.83-7.81c2.51-1.17,5.4,1.93,3.12,4.05a200.27,200.27,0,0,0-57.67,96.83L143,177c2.14-1.89,5.64.53,4.06,3.13a234.4,234.4,0,0,0-33.71,105.77l17-22.5c1.66-2.19,5.58-1,4.71,2a199.74,199.74,0,0,0-7.28,68.92l3.1-4.73c1.35-2.06,4.85-1.36,4.8,1.3a484.88,484.88,0,0,0,4.79,77.2,105.7,105.7,0,0,1,11.19-24.48c1.65-2.65,5.14-.78,4.72,2a214.36,214.36,0,0,0,5.36,88.81c.29-.69.57-1.38.85-2.07a2.6,2.6,0,0,1,5.07.69,187,187,0,0,0,7.61,33.68,81.73,81.73,0,0,1,5.24-13.82c.86-1.76,2.74-1.57,3.86-.51a2.7,2.7,0,0,1,2.88,2.47,127.1,127.1,0,0,0,11.33,43q1.17-3.12,2.52-6.18c1-2.2,4.08-1.25,4.72.61a93.73,93.73,0,0,0,38,48.35q2-7.86,3.89-15.73c.5-2,3.79-2.68,4.71-.61A44.42,44.42,0,0,0,266,581.64a178.54,178.54,0,0,1-8.63-40.13c-.48-5-2.34-13.06,2.94-16.28,2.49-1.52,5.76-1.22,8.51-1.18,4,.07,8,.18,12,.26l26.06.57c5.81.13,13.41-.82,17.33,4.47,1.6,2.16,2.18,4.87,2.92,7.41,1.34,4.64,2.66,9.29,4,13.93l6.78,23.7a23.36,23.36,0,0,0,16.79-13.26c1.1-2.31,4.95-1.18,4.81,1.31a90.42,90.42,0,0,0,.38,15.61c5.84-1.18,9.85-6.63,13.24-11.27,3.67-5,7.15-10.23,10.46-15.52A287.61,287.61,0,0,0,402,516.61C403.1,514.27,407,515.45,406.85,517.91ZM390.13,192.8a11.91,11.91,0,0,1,2-2.47c2-4.45,9.39-5.56,13.75-3.15,6.45,3.57,7.22,12.91,2.33,18.12-2.82,3-6.93,3.92-10.91,3.41-3.75-.48-8.4-1.77-9.38-6C387.18,199.56,388.46,195.47,390.13,192.8Zm-23.8,13c3.14,10,3.08,28.23-11.13,29.37-12.42,1-20.25-17.76-21.72-27.56-1.23-8.2,2.3-23.15,11.82-23.34C355.18,182.13,364,198.33,366.33,205.84Zm-50.75-88.6a9.59,9.59,0,0,1,6.84-2.3c25.91-2.5,38.82,47.71,10.6,46.45-12.48-.56-20.86-13.58-22.59-24.86C309.47,130.26,310.38,121.65,315.58,117.24ZM277.05,76.42a9.76,9.76,0,0,1,8.09-5.66,8.06,8.06,0,0,1,4.8.39c3.45,1.41,5.28,4.71,5.78,8.25.53,3.74.88,9.78-1.82,12.87-2.18,2.49-6.44,3.2-9.55,2.75C276,93.8,273.7,83.07,277.05,76.42ZM267.53,203.7c1.45-7.81,6.66-18.68,14.91-20.38,3.44-1.36,7.24-1.48,9.92,1.68,3.15,3.72,4,10,4,14.65,0,9.91-5.37,23.78-16,26.62C267,229.82,265.91,212.41,267.53,203.7Zm-92.84,12.63a10.44,10.44,0,0,1-2.08-5.6c-1.89-3-.29-7.47,1.8-10.08a12.42,12.42,0,0,1,10.91-4.71c8.56.92,14.14,10.59,10,18.3S180,223.64,174.69,216.33Zm215.47,107c-1.55,5.84-6,11.18-12.21,12-6.53.87-12.3-3.68-14.88-9.42-1-2.26-2.6-7.51-2.14-11.41-17.24,6-35.73,9.34-53.25,12.46-23.72,4.23-48.4,6.71-72.18,3.5.08,5.74-.43,11.72-4.12,16.37-3.35,4.23-9.09,7-14.49,5.42s-8.33-6.84-9.24-12c-.75-4.29-1.69-11.73.42-16.38a117.82,117.82,0,0,1-13.65-6c-2.95-1.53-.34-6,2.61-4.46a117,117,0,0,0,32.85,11,4.87,4.87,0,0,1,3.72.63c24.57,3.79,50.27,1,74.71-3.41,31.57-5.75,66.65-11.92,90.52-35.21,2.38-2.32,6,1.33,3.65,3.65a92.35,92.35,0,0,1-13.42,10.79c2.21,3.16,1.76,7.05,1.89,11A40,40,0,0,1,390.16,323.34Z"/><path class="cls-2" d="M282.09,222.21c6.77-3.77,10.46-12.9,11-20.27A28.41,28.41,0,0,0,292,191.81c-1.6-5.3-4.61-6.31-8.71-5.93-6.47,2.3-10.39,9.14-12.17,15.92C269.25,208.83,268.63,229.72,282.09,222.21Z"/><path class="cls-2" d="M283.89,92c3.55.87,7.68-.73,8.58-4.4a22.39,22.39,0,0,0,.21-6.28c-.2-3.16-1.26-6.52-4.71-7.49-2-.56-4.09.39-5.94,1.11a.64.64,0,0,1-.45,0,9.9,9.9,0,0,0-2.71,4.28C277.6,83.6,278.77,90.74,283.89,92Z"/><path class="cls-2" d="M334.45,158.22c14.5-.71,12.58-17.85,7.94-27.05-4.46-8.86-11.9-12.32-20.91-13.27-2.94.49-5.41,2.2-6.91,6.11a25,25,0,0,0,.1,16.82C317.55,149.37,324.42,158.71,334.45,158.22Z"/><path class="cls-3" d="M183.42,204.94c-1.77.47-2.54,2.07-3.24,3.73a4.93,4.93,0,0,0,.58,2c1.52,2.75,5.39,2.14,6.77-.42S186.31,204.17,183.42,204.94Z"/><path class="cls-3" d="M215.19,326.19c1,5-.76,11.25,2.06,15.56,2.29,3.51,6.09,1.7,7.82-1.41,1.86-3.32,1.67-7.61,1.65-11.32C222.84,328.25,219,327.32,215.19,326.19Z"/><path class="cls-3" d="M382.63,304.83a125.06,125.06,0,0,1-14.9,7.14,3.4,3.4,0,0,1,.07.46c.13,3.68,1.35,8.77,3.57,11.73,3,4,7.31,3.8,9.73-.55C384.22,318,381.57,310.79,382.63,304.83Z"/><path class="cls-2" d="M318.2,69.81a71.72,71.72,0,0,0,29,30.11c27.22,15.2,65.28,10.32,91.18-5.79a235.68,235.68,0,0,0-42.55-45.08A2.59,2.59,0,0,1,397,44.74c5.53-1,11.88.36,17.46-.76A161.26,161.26,0,0,0,311.09,23.71a2.79,2.79,0,0,1-1.24-.1c-1.43,7.61.46,16.85,1.58,24A74.75,74.75,0,0,0,318.2,69.81Z"/><path class="cls-2" d="M429.94,143.82c-7,10-10,24.56-8.09,36.57s8.77,24.49,20.53,29.24c5.76,2.33,12.07,2.7,18.22,2.39,2.81-.15,6.23-1.14,9.15-.76q-1.72-20-3.46-40c-.18-2,2.3-3.1,3.88-2.23l5.05,2.79a234.56,234.56,0,0,0-15.73-42.33C448.43,131.41,436.77,134.08,429.94,143.82Z"/><path class="cls-3" d="M401.35,199.41a3.16,3.16,0,0,0,.92-3.26c-.46-1.35-1.67-1.54-3-1.49a16.24,16.24,0,0,0-2,.25c-.13.49-.22.91-.28,1.17a17.32,17.32,0,0,0-.55,3.52C398,200.12,400.45,200.11,401.35,199.41Z"/><path class="cls-2" d="M342.23,188.14a1,1,0,0,1-.33.05c-6.27,4.63-6,17.43-3.85,24.12,2.24,7,8.57,20.84,17.65,19.32,11.52-1.92,9.79-17.77,7.11-25.71S352.56,184.37,342.23,188.14Z"/><path class="cls-4" d="M405.54,534.41a216.52,216.52,0,0,0,31.25-93.12l3.73,7.89c1,2.06,4.17,1.4,4.72-.62,13.18-48,21.86-97.92,15.9-147.61l8.73,10.1c1.64,1.9,4.15.16,4.41-1.82a247,247,0,0,0,0-62.42,2.81,2.81,0,0,0,1.45-1.35,2.13,2.13,0,0,0,1.9-2.44q-2.9-33.59-5.81-67.18l6,3.33a2.61,2.61,0,0,0,3.79-2.91,241.25,241.25,0,0,0-77.57-127c6,0,12,.77,17.53-2.52a2.61,2.61,0,0,0,0-4.45A166.84,166.84,0,0,0,310.56,18.62a1.43,1.43,0,0,0-1.72-.07,2.34,2.34,0,0,0-1.13-.48,126.27,126.27,0,0,0-79,13c-2.22,1.17-1.25,5,1.3,4.81l5.28-.31a195.69,195.69,0,0,0-76.45,63.9c-1.64,2.32,1.45,4.51,3.54,3.54l12.86-6a205,205,0,0,0-50.56,96.81,2.6,2.6,0,0,0,4.31,2.51l6-5.34a240,240,0,0,0-27.23,103.15c-.1,2.81,3.4,3.17,4.81,1.31L127,276.4A203.23,203.23,0,0,0,123.3,342a2.6,2.6,0,0,0,4.81,1.3l2.37-3.62a491.1,491.1,0,0,0,7,82.09c.42,2.48,4.52,2.44,5,0a102.6,102.6,0,0,1,7.38-23.6,220,220,0,0,0,9.07,84.7c.81,2.61,4,2.27,5,0,.05-.12.11-.25.16-.38a192.25,192.25,0,0,0,9.41,34.43c.8,2.09,4.55,2.78,5,0a76.15,76.15,0,0,1,4.35-16.22,133.85,133.85,0,0,0,14.07,45.24c1.07,2.05,4.09,1.41,4.72-.61.55-1.79,1.15-3.55,1.79-5.3a99.17,99.17,0,0,0,40.93,47,2.6,2.6,0,0,0,3.79-1.54l3.12-12.62a48.82,48.82,0,0,0,18.51,17.36c1.8,1,4.65-.68,3.79-2.91a176.32,176.32,0,0,1-9.88-36.94c-.72-4.81-4.66-19.1,1.85-21.16,2.44-.77,6.77.12,9.37.18l10,.21,20,.44c3.18.07,6.39,0,9.56.22,4.59.34,6.22,2.72,7.44,6.91,3.95,13.59,7.78,27.21,11.68,40.81a2.6,2.6,0,0,0,2.49,1.9,28.93,28.93,0,0,0,18.2-8.91,100.33,100.33,0,0,0,.93,10.63,2.58,2.58,0,0,0,2.49,1.89c12.68-.11,20.18-14,26.32-23.29A284.89,284.89,0,0,0,400.86,531c0,.69-.08,1.39-.13,2.09C400.56,535.77,404.27,536.47,405.54,534.41Zm69.68-362.6L470.17,169c-1.58-.87-4.06.2-3.88,2.23q1.72,20,3.46,40c-2.92-.38-6.34.61-9.15.76-6.15.31-12.46-.06-18.22-2.39-11.76-4.75-18.6-17.2-20.53-29.24s1.06-26.54,8.09-36.57c6.83-9.74,18.49-12.41,29.55-14.34A234.56,234.56,0,0,1,475.22,171.81ZM309.85,23.61a2.79,2.79,0,0,0,1.24.1A161.26,161.26,0,0,1,414.43,44c-5.58,1.12-11.93-.24-17.46.76a2.59,2.59,0,0,0-1.14,4.31,235.68,235.68,0,0,1,42.55,45.08c-25.9,16.11-64,21-91.18,5.79a71.72,71.72,0,0,1-29-30.11,74.75,74.75,0,0,1-6.77-22.2C310.31,40.46,308.42,31.22,309.85,23.61Zm73.71,527.65c-3.31,5.29-6.79,10.48-10.46,15.52-3.39,4.64-7.4,10.09-13.24,11.27a90.42,90.42,0,0,1-.38-15.61c.14-2.49-3.71-3.62-4.81-1.31a23.36,23.36,0,0,1-16.79,13.26l-6.78-23.7c-1.33-4.64-2.65-9.29-4-13.93-.74-2.54-1.32-5.25-2.92-7.41-3.92-5.29-11.52-4.34-17.33-4.47l-26.06-.57c-4-.08-8-.19-12-.26-2.75,0-6-.34-8.51,1.18-5.28,3.22-3.42,11.27-2.94,16.28A178.54,178.54,0,0,0,266,581.64a44.42,44.42,0,0,1-13.47-17.29c-.92-2.07-4.21-1.41-4.71.61q-2,7.86-3.89,15.73a93.73,93.73,0,0,1-38-48.35c-.64-1.86-3.75-2.81-4.72-.61q-1.35,3.06-2.52,6.18a127.1,127.1,0,0,1-11.33-43,2.7,2.7,0,0,0-2.88-2.47c-1.12-1.06-3-1.25-3.86.51a81.73,81.73,0,0,0-5.24,13.82A187,187,0,0,1,167.68,473a2.6,2.6,0,0,0-5.07-.69c-.28.69-.56,1.38-.85,2.07a214.36,214.36,0,0,1-5.36-88.81c.42-2.77-3.07-4.64-4.72-2a105.7,105.7,0,0,0-11.19,24.48,484.88,484.88,0,0,1-4.79-77.2c.05-2.66-3.45-3.36-4.8-1.3l-3.1,4.73a199.74,199.74,0,0,1,7.28-68.92c.87-3-3.05-4.18-4.71-2l-17,22.5a234.4,234.4,0,0,1,33.71-105.77c1.58-2.6-1.92-5-4.06-3.13l-11.5,10.18a200.27,200.27,0,0,1,57.67-96.83c2.28-2.12-.61-5.22-3.12-4.05l-16.83,7.81a189.63,189.63,0,0,1,81.43-59.52c2.53-1,2.43-5.26-.69-5.07l-6.41.37A120.24,120.24,0,0,1,306.33,23a2.58,2.58,0,0,0,.47,0c-1.82,6.66-.16,14.54.65,21.1,1.05,8.52,2.85,16.89,6.38,24.75A75.12,75.12,0,0,0,343.39,102c14.43,8.74,30.69,11.2,47.35,10.34,17.53-.91,35.13-5.34,49.95-15a237.26,237.26,0,0,1,17.21,28.9c-11.12,2-22.5,5-29.76,14.33-8,10.27-11.37,25.69-9.84,38.44,1.39,11.58,7,23.56,16.73,30.37,10.19,7.12,23.19,6.67,35,4.42l1.71,19.82c-.22-.78-.44-1.55-.62-2.34-.74-3.24-5.71-1.87-5,1.37A46.91,46.91,0,0,0,468,239a243,243,0,0,1,1.82,64.14q-5.28-6.11-10.57-12.22c-1.87-2.16-4.67.25-4.31,2.52,7.7,49.32-.2,99.2-12.86,147l-4.89-10.33c-1.17-2.46-4.7-1.05-4.81,1.31a211.07,211.07,0,0,1-25.81,90.91c.1-1.47.19-3,.28-4.42.16-2.46-3.75-3.64-4.81-1.3A287.61,287.61,0,0,1,383.56,551.26Z"/><path class="cls-4" d="M389.06,300.88a92.35,92.35,0,0,0,13.42-10.79c2.38-2.32-1.27-6-3.65-3.65-23.87,23.29-58.95,29.46-90.52,35.21-24.44,4.45-50.14,7.2-74.71,3.41a4.87,4.87,0,0,0-3.72-.63,117,117,0,0,1-32.85-11c-2.95-1.52-5.56,2.93-2.61,4.46a117.82,117.82,0,0,0,13.65,6c-2.11,4.65-1.17,12.09-.42,16.38.91,5.2,3.85,10.5,9.24,12s11.14-1.19,14.49-5.42c3.69-4.65,4.2-10.63,4.12-16.37,23.78,3.21,48.46.73,72.18-3.5,17.52-3.12,36-6.43,53.25-12.46-.46,3.9,1.13,9.15,2.14,11.41,2.58,5.74,8.35,10.29,14.88,9.42,6.24-.84,10.66-6.18,12.21-12a40,40,0,0,0,.79-11.5C390.82,307.93,391.27,304,389.06,300.88Zm-164,39.46c-1.73,3.11-5.53,4.92-7.82,1.41-2.82-4.31-1.1-10.57-2.06-15.56,3.81,1.13,7.65,2.06,11.53,2.83C226.74,332.73,226.93,337,225.07,340.34Zm156-16.73c-2.42,4.35-6.77,4.52-9.73.55-2.22-3-3.44-8.05-3.57-11.73a3.4,3.4,0,0,0-.07-.46,125.06,125.06,0,0,0,14.9-7.14C381.57,310.79,384.22,318,381.1,323.61Z"/><path class="cls-4" d="M195.3,214.24c4.16-7.71-1.42-17.38-10-18.3a12.42,12.42,0,0,0-10.91,4.71c-2.09,2.61-3.69,7.06-1.8,10.08a10.44,10.44,0,0,0,2.08,5.6C180,223.64,191.18,221.86,195.3,214.24Zm-7.77-4c-1.38,2.56-5.25,3.17-6.77.42a4.93,4.93,0,0,1-.58-2c.7-1.66,1.47-3.26,3.24-3.73C186.31,204.17,188.91,207.7,187.53,210.26Z"/><path class="cls-4" d="M397.29,208.71c4,.51,8.09-.41,10.91-3.41,4.89-5.21,4.12-14.55-2.33-18.12-4.36-2.41-11.77-1.3-13.75,3.15a11.91,11.91,0,0,0-2,2.47c-1.67,2.67-2.95,6.76-2.22,9.92C388.89,206.94,393.54,208.23,397.29,208.71ZM397,196.08c.06-.26.15-.68.28-1.17a16.24,16.24,0,0,1,2-.25c1.31,0,2.52.14,3,1.49a3.16,3.16,0,0,1-.92,3.26c-.9.7-3.4.71-4.87.19A17.32,17.32,0,0,1,397,196.08Z"/><path class="cls-4" d="M333,161.39c28.22,1.26,15.31-48.95-10.6-46.45a9.59,9.59,0,0,0-6.84,2.3c-5.2,4.41-6.11,13-5.15,19.29C312.16,147.81,320.54,160.83,333,161.39ZM314.57,124c1.5-3.91,4-5.62,6.91-6.11,9,.95,16.45,4.41,20.91,13.27,4.64,9.2,6.56,26.34-7.94,27.05-10,.49-16.9-8.85-19.78-17.39A25,25,0,0,1,314.57,124Z"/><path class="cls-4" d="M284.35,95c3.11.45,7.37-.26,9.55-2.75,2.7-3.09,2.35-9.13,1.82-12.87-.5-3.54-2.33-6.84-5.78-8.25a8.06,8.06,0,0,0-4.8-.39,9.76,9.76,0,0,0-8.09,5.66C273.7,83.07,276,93.8,284.35,95Zm-5.48-15.8a9.9,9.9,0,0,1,2.71-4.28.64.64,0,0,0,.45,0c1.85-.72,3.93-1.67,5.94-1.11,3.45,1,4.51,4.33,4.71,7.49a22.39,22.39,0,0,1-.21,6.28c-.9,3.67-5,5.27-8.58,4.4C278.77,90.74,277.6,83.6,278.87,79.22Z"/><path class="cls-4" d="M280.34,226.27c10.62-2.84,16-16.71,16-26.62,0-4.68-.82-10.93-4-14.65-2.68-3.16-6.48-3-9.92-1.68-8.25,1.7-13.46,12.57-14.91,20.38C265.91,212.41,267,229.82,280.34,226.27Zm-9.25-24.47c1.78-6.78,5.7-13.62,12.17-15.92,4.1-.38,7.11.63,8.71,5.93a28.41,28.41,0,0,1,1.09,10.13c-.51,7.37-4.2,16.5-11,20.27C268.63,229.72,269.25,208.83,271.09,201.8Z"/><path class="cls-4" d="M345.3,184.31c-9.52.19-13.05,15.14-11.82,23.34,1.47,9.8,9.3,28.55,21.72,27.56,14.21-1.14,14.27-19.34,11.13-29.37C364,198.33,355.18,182.13,345.3,184.31Zm17.51,21.61c2.68,7.94,4.41,23.79-7.11,25.71-9.08,1.52-15.41-12.36-17.65-19.32-2.15-6.69-2.42-19.49,3.85-24.12a1,1,0,0,0,.33-.05C352.56,184.37,360.08,197.83,362.81,205.92Z"/></svg>