<svg id="Layer_1" data-name="Layer 1" xmlns="http://www.w3.org/2000/svg" viewBox="0 0 600 600"><defs><style>.cls-1{fill:#be1e2d;}.cls-2{fill:#fff;}.cls-3{fill:#a97c50;}.cls-4{fill:#754c29;}.cls-5{fill:#231f20;}</style></defs><title>doodle</title><path class="cls-1" d="M257.71,319.37a24.58,24.58,0,0,0-5-.55c4.19,6.41,3.3,19.95,2.2,25-.85,3.9-6.84,2.91-6.82-.92a108.32,108.32,0,0,0-.47-11.53c-.11-1.12-.54-9.66-2.14-10.27a3,3,0,0,1-.92-.6c-4.26,1.8-8.05,4.86-12.12,8.25a.08.08,0,0,0,0,0c-3,8-6.48,15.86-1.47,24.05S245.49,361.71,254,360c7.15-1.48,14.7-5,18.35-11.66,3.27-6,4.36-17.62.81-24.14A127.82,127.82,0,0,0,257.71,319.37Z"/><path class="cls-2" d="M328.57,177.54a4.32,4.32,0,0,0,2.39-3.21,1.69,1.69,0,0,0-.85-1.86,2.42,2.42,0,0,1-3,.92,2.89,2.89,0,0,0,.27,2.78A6.12,6.12,0,0,0,328.57,177.54Z"/><path class="cls-2" d="M245.39,231.62l-.63-.27a13.1,13.1,0,0,0-3.25-.13,10.79,10.79,0,0,0-4.8,1.55,5.87,5.87,0,0,0-.75.64,18.9,18.9,0,0,0,4-.22C241.06,233,244.25,232.58,245.39,231.62Z"/><path class="cls-3" d="M209.06,332.7a3.29,3.29,0,0,1,2.69-1.48c.44,0,.87-.08,1.29-.14a54.53,54.53,0,0,0,17.27-12.35,2.44,2.44,0,0,1,1.75-.79l.78-.65c5.69-4.58,12.13-7.43,19.54-7.28,17.61.37,35.23,17.19,52.71,7.92,18.38-9.76,20.18-33.07,19.29-51.49-.91-18.8-5.33-39-20.37-51.68-16.23-13.7-34.79-7.69-52.79-1.49-18.95,6.53-37.95,9.21-57.91,9.48-11.68.16-20.12,3.1-27.74,12.2a134.87,134.87,0,0,0-14.22,21.41c-9,16.39-12.75,34.61-4.28,52C159,333,186.05,341,209.06,332.7ZM221.91,231c2.32-8.33,11.84-11.17,19.15-8.12a19.61,19.61,0,0,1,9.06,1.37c3.81,1.86,6,5.85,4.13,9.95s-7.18,6-11.13,6.79C236.84,242.36,219,241.44,221.91,231Z"/><path class="cls-3" d="M343.68,113.71c10.83,21.39,35.46,33.13,59,33.13,11.3,0,22.78-3.91,28.3-14.48,5.39-10.33,4.15-23.09.77-33.83-7.38-23.45-27-40.4-51.54-43.1-23.15-2.54-47.45,3.09-70,9.61C328.65,73.46,334.81,96.17,343.68,113.71Z"/><path class="cls-2" d="M115.28,191.91a7.72,7.72,0,0,0-4.63,2,4.69,4.69,0,0,0-.59,1.9c-.17,2.84,2.84,5.25,5,2.83C116.64,196.87,119.41,192,115.28,191.91Z"/><path class="cls-3" d="M515.62,259.65a5.2,5.2,0,0,1,.69,0c30.94,2,56.93-25.68,50.14-56.79-2.92-13.37-13.21-27.19-28.26-26.33-11.41.64-20,12.33-15.53,21.9,3.44-6,9.74-10.85,16.48-8,8.37,3.57,10.55,16.33,9.81,24.28-1.75,18.77-19.66,32.42-37.7,28.95a123.82,123.82,0,0,1,4.29,15.61C515.57,259.4,515.59,259.53,515.62,259.65Z"/><path class="cls-4" d="M514,448.68q-.13-11.52-.28-23-.32-23.7-.68-47.4c-.46-30.29-.06-60.75-3-90.94-1.47-15.27-3.67-30.71-9.14-45.13-5.1-13.44-12.88-25.8-20.19-38.11-13.1-22-27.39-44.11-49-58.59A35.88,35.88,0,0,1,412.61,155c-22.73,4.06-52-5.47-67.39-22.77-16.14-18.12-17.91-57.53-46.65-61.46a3.74,3.74,0,0,1-3.15-4C249.57,65.24,202.35,71,161.49,93c-39.51,21.24-66.91,57-81.81,98.87-16.5,46.41-18,96-15.55,144.71,2.69,53.34,7.86,106.37,8.44,159.82.13,12.17-1.17,25.17,1.19,37.17,1.1,5.56,3.24,12.28,8.19,15.59,7,4.67,10.25-2.81,11.74-8.47,6.41-24.35,9.52-49.71,12.52-74.68a29.74,29.74,0,0,1-12.59-4.57c-2.79-1.9-1.12-6.76,2.39-5.66,10.49,3.27,21,2.64,31.89,2.42s21.91-.57,32.86-1.12q32.82-1.67,65.51-5.47A976.34,976.34,0,0,0,358,426.7c5.76-1.5,8.19,7.4,2.45,8.89-2,.52-6,1-8,1.51l1.81,5.35c3.08,12.28,6,24.44,10.32,36.51,2.47,7,5,13.92,7.72,20.8,2.62,6.67,5.9,14.3,12.72,17.66,12,5.91,12.62-11,13.47-18.55q1.32-11.79,2.33-23.62c1.37-16.22,2-32.44,2.76-48.69.19-3.95,4.52-5.1,7-3.42a128.68,128.68,0,0,0,59.52-18.23c2.31-1.39,5.87-.16,6.45,2.62q5.39,26,10.77,51.92c1.53,7.35,2.61,16.34,8.69,21.49,8.33,7.06,15.92-.88,17.59-9.34C515,464.23,514.13,456.14,514,448.68ZM113.48,208.06c-6.83.16-11.08-5.64-11.25-11.66a3.66,3.66,0,0,1-.67-4.26,15.26,15.26,0,0,1,5.33-6,13.27,13.27,0,0,1,7.9-3.55,6.49,6.49,0,0,1,4.22,1.21,9.9,9.9,0,0,1,5.23,3.86C129.41,195,122.22,207.85,113.48,208.06ZM310.35,325c-9.28,5.37-18,4.87-26.72,2.57,1.4,7.6-.46,17.24-2.59,22.38-4.3,10.44-15.06,16.43-25.74,18.4-11.74,2.16-24,.11-31-10.52a27.16,27.16,0,0,1-3.12-21.51,20.72,20.72,0,0,1-4.4,1.33,57.24,57.24,0,0,1-34.77,6.22c-20.11-2.69-36.75-17.15-44.19-35.76-7.6-19-3.34-38.52,6.27-55.92s21.62-36.05,43.31-37.58c12.52-.88,24.7-.55,37.13-2.94s24.11-7,36.21-10.71c19.74-6.1,39.07-3.82,53.61,11.82s18.43,37.82,18.83,58.52C333.63,291.34,329.19,314.08,310.35,325Zm20-139.28c-7.48,2.26-16.19-3.38-15.25-11.61a8.65,8.65,0,0,1,6.84-7.63c5.08-4.31,13.79-3.17,16.56,3.3S336.73,183.76,330.37,185.68Z"/><path class="cls-3" d="M250.54,457.47c2.89,5.52,3.64,12.08,4.85,18.14,1.28,6.42,2.44,12.87,3.76,19.28,1.94,9.45,7,29.49,20.27,28,6.74-.73,6.81-8.53,7.26-14.15.56-7,.8-14,.86-21a348.9,348.9,0,0,0-1.7-35.85Q268.26,455,250.54,457.47Z"/><path class="cls-3" d="M61.06,124.82c-11,13.63-19.6,30.47-22.67,47.79-3.22,18.22,2.6,40.27,21.88,46.79a4.18,4.18,0,0,1,2,1.35,252.16,252.16,0,0,1,11.91-39.47c14.13-35.6,37.13-66,68.19-87.1a36.85,36.85,0,0,0-17.44-4.7,62.2,62.2,0,0,0-25.48,5.38C84.37,101.37,71.3,112.1,61.06,124.82Z"/><path class="cls-5" d="M570.39,188.15c-8.28-15.53-27.2-25.63-44.09-17.1-14.23,7.19-18.25,28.26-5.17,38.66,3,2.38,6.64.76,7.11-3s4-11,9.37-7.19c1.78,1.24,2.59,5.61,3,7.66a25.64,25.64,0,0,1-2.81,17.25c-6,10.66-18.58,13.81-29.75,10.72a193.94,193.94,0,0,0-10.7-21.45c-15.87-27.78-32.8-57.31-59.89-75.53,5.88-9.94,7.31-22.86,4.69-35.42-4.88-23.39-21.59-44.32-44.29-52.41-14.9-5.32-31.26-4.6-46.67-2.44a231,231,0,0,0-45.41,11,4.52,4.52,0,0,0-2.34-.82c-46.34-3-94.79,2.43-137.17,22.34a175.38,175.38,0,0,0-16.8,9.06c-13.59-11.65-36-9.21-51.38-3.07-18.17,7.28-33.71,20.16-45.5,35.66-12.66,16.64-22.75,37.76-23.45,59C28.46,201,38.49,220.86,58,227.48a3.69,3.69,0,0,0,2.83-.1c-7.16,37.06-7.2,75.5-5.09,113.16,1.66,29.73,4.5,59.37,6.17,89.09,1.65,29.56,2.14,59.1,2.39,88.7.1,11.73.93,25.29,9.26,34.46,7,7.74,18.45,8.66,24.42-.78,3.25-5.12,4.24-11.46,5.48-17.28q2.63-12.24,4.74-24.58c2.47-14.42,4.56-28.95,5.87-43.53,2.43.07,4.85.06,7.22.06q17.74,0,35.49-.72Q191,464.6,225,460.74c6.66-.75,13.3-1.6,19.93-2.49a.29.29,0,0,1,0,.09c-1.07,8.35,2,17.93,3.55,26.11,1.61,8.49,2.76,17.3,5.77,25.44,4,10.89,13.71,23.3,26.74,22.16,13.76-1.21,14.26-18.18,14.88-28.53a315.71,315.71,0,0,0-1.24-53.25q25.49-4.78,50.72-10.87c1.5,17.47,8.44,35.14,14.4,51.28,5.1,13.8,10.81,35,28.59,36.6,18.91,1.75,18.5-23.59,19.83-36.28,2.08-19.95,3.72-40.1,4.07-60.19a125.53,125.53,0,0,0,57.05-15.32q4.9,23.81,9.82,47.61c2.5,12,6.85,27.23,21.17,29.35,13.06,1.93,21-10.43,22.44-21.84,2.07-16.84.13-34.79,0-51.73-.35-36.46.14-73-1.6-109.46a373.69,373.69,0,0,0-3.8-40.73c19.31,1,38.3-7.88,49.39-23.88C577.93,228.49,579.78,205.76,570.39,188.15ZM380.23,55.43c24.55,2.7,44.16,19.65,51.54,43.1,3.38,10.74,4.62,23.5-.77,33.83-5.52,10.57-17,14.48-28.3,14.48-23.56,0-48.19-11.74-59-33.13-8.87-17.54-15-40.25-33.41-48.67C332.78,58.52,357.08,52.89,380.23,55.43Zm-320,164c-19.28-6.52-25.1-28.57-21.88-46.79,3.07-17.32,11.69-34.16,22.67-47.79,10.24-12.72,23.31-23.45,38.35-30a62.2,62.2,0,0,1,25.48-5.38,36.85,36.85,0,0,1,17.44,4.7c-31.06,21.12-54.06,51.5-68.19,87.1a252.16,252.16,0,0,0-11.91,39.47A4.18,4.18,0,0,0,60.27,219.4ZM287.54,487.73c-.06,7-.3,14-.86,21-.45,5.62-.52,13.42-7.26,14.15-13.3,1.45-18.33-18.59-20.27-28-1.32-6.41-2.48-12.86-3.76-19.28-1.21-6.06-2-12.62-4.85-18.14q17.72-2.48,35.3-5.59A348.9,348.9,0,0,1,287.54,487.73Zm226-16.13c-1.67,8.46-9.26,16.4-17.59,9.34-6.08-5.15-7.16-14.14-8.69-21.49q-5.4-25.95-10.77-51.92c-.58-2.78-4.14-4-6.45-2.62a128.68,128.68,0,0,1-59.52,18.23c-2.46-1.68-6.79-.53-7,3.42-.79,16.25-1.39,32.47-2.76,48.69q-1,11.82-2.33,23.62c-.85,7.53-1.48,24.46-13.47,18.55-6.82-3.36-10.1-11-12.72-17.66-2.7-6.88-5.25-13.83-7.72-20.8-4.29-12.07-7.24-24.23-10.32-36.51l-1-5,7.21-1.84c5.74-1.49,3.31-10.39-2.45-8.89a976.34,976.34,0,0,1-131.77,24.88q-32.65,3.82-65.51,5.47-16.42.82-32.86,1.12c-10.86.22-21.4.85-31.89-2.42-3.51-1.1-5.18,3.76-2.39,5.66A29.74,29.74,0,0,0,106.21,466c-3,25-6.11,50.33-12.52,74.68C92.2,546.32,89,553.8,82,549.13c-5-3.31-7.09-10-8.19-15.59-2.36-12-1.06-25-1.19-37.17-.58-53.45-5.75-106.48-8.44-159.82-2.46-48.72-.95-98.3,15.55-144.71C94.58,149.93,122,114.21,161.49,93c40.86-22,88.08-27.73,133.93-26.2a3.74,3.74,0,0,0,3.15,4c28.74,3.93,30.51,43.34,46.65,61.46,15.42,17.3,44.66,26.83,67.39,22.77a35.88,35.88,0,0,0,19.15-9.53c21.64,14.48,35.93,36.56,49,58.59,7.31,12.31,15.09,24.67,20.19,38.11,5.47,14.42,7.67,29.86,9.14,45.13,2.9,30.19,2.5,60.65,3,90.94q.36,23.7.68,47.4.15,11.52.28,23C514.13,456.14,515,464.23,513.58,471.6Zm2.73-212a5.2,5.2,0,0,0-.69,0c0-.12,0-.25-.08-.38a123.82,123.82,0,0,0-4.29-15.61c18,3.47,36-10.18,37.7-28.95.74-8-1.44-20.71-9.81-24.28-6.74-2.87-13,2-16.48,8-4.47-9.57,4.12-21.26,15.53-21.9,15-.86,25.34,13,28.26,26.33C573.24,234,547.25,261.59,516.31,259.63Z"/><path class="cls-5" d="M330.37,185.68c6.37-1.92,10.86-9.59,8.15-15.94S327,162.13,322,166.44a8.65,8.65,0,0,0-6.84,7.63C314.18,182.3,322.89,187.94,330.37,185.68Zm-3.27-12.29a2.42,2.42,0,0,0,3-.92,1.69,1.69,0,0,1,.85,1.86,4.32,4.32,0,0,1-2.39,3.21,6.12,6.12,0,0,1-1.2-1.37A2.89,2.89,0,0,1,327.1,173.39Z"/><path class="cls-5" d="M114.79,182.6a13.27,13.27,0,0,0-7.9,3.55,15.26,15.26,0,0,0-5.33,6,3.66,3.66,0,0,0,.67,4.26c.17,6,4.42,11.82,11.25,11.66,8.74-.21,15.93-13.1,10.76-20.39a9.9,9.9,0,0,0-5.23-3.86A6.49,6.49,0,0,0,114.79,182.6Zm.3,16c-2.19,2.42-5.2,0-5-2.83a4.69,4.69,0,0,1,.59-1.9,7.72,7.72,0,0,1,4.63-2C119.41,192,116.64,196.87,115.09,198.59Z"/><path class="cls-5" d="M243.12,241c3.95-.84,9.3-2.82,11.13-6.79s-.32-8.09-4.13-9.95a19.61,19.61,0,0,0-9.06-1.37c-7.31-3-16.83-.21-19.15,8.12C219,241.44,236.84,242.36,243.12,241Zm-6.41-8.25a10.79,10.79,0,0,1,4.8-1.55,13.1,13.1,0,0,1,3.25.13l.63.27c-1.14,1-4.33,1.39-5.46,1.57a18.9,18.9,0,0,1-4,.22A5.87,5.87,0,0,1,236.71,232.77Z"/><path class="cls-5" d="M182.06,343.83a57.24,57.24,0,0,0,34.77-6.22,20.72,20.72,0,0,0,4.4-1.33,27.16,27.16,0,0,0,3.12,21.51c6.91,10.63,19.21,12.68,31,10.52,10.68-2,21.44-8,25.74-18.4,2.13-5.14,4-14.78,2.59-22.38,8.7,2.3,17.44,2.8,26.72-2.57,18.84-10.88,23.28-33.62,22.88-53.7-.4-20.7-4.24-42.83-18.83-58.52s-33.87-17.92-53.61-11.82c-12.1,3.74-23.72,8.3-36.21,10.71s-24.61,2.06-37.13,2.94c-21.69,1.54-33.65,20.08-43.31,37.58s-13.87,36.94-6.27,55.92C145.31,326.68,162,341.14,182.06,343.83Zm90.29,4.47C268.7,355,261.15,358.48,254,360c-8.51,1.75-18.1,1-23.05-7.13s-1.54-16,1.47-24.05a.08.08,0,0,1,0,0c4.07-3.39,7.86-6.45,12.12-8.25a3,3,0,0,0,.92.6c1.6.61,2,9.15,2.14,10.27a108.32,108.32,0,0,1,.47,11.53c0,3.83,6,4.82,6.82.92,1.1-5,2-18.58-2.2-25a24.58,24.58,0,0,1,5,.55,127.82,127.82,0,0,1,15.45,4.79C276.71,330.68,275.62,342.3,272.35,348.3Zm-121-91.94A134.87,134.87,0,0,1,165.57,235c7.62-9.1,16.06-12,27.74-12.2,20-.27,39-2.95,57.91-9.48,18-6.2,36.56-12.21,52.79,1.49,15,12.7,19.46,32.88,20.37,51.68.89,18.42-.91,41.73-19.29,51.49-17.48,9.27-35.1-7.55-52.71-7.92-7.41-.15-13.85,2.7-19.54,7.28l-.78.65a2.44,2.44,0,0,0-1.75.79A54.53,54.53,0,0,1,213,331.08c-.42.06-.85.12-1.29.14a3.29,3.29,0,0,0-2.69,1.48c-23,8.28-50,.3-62-24.3C138.6,291,142.3,272.75,151.35,256.36Z"/></svg>