<svg id="Layer_1" data-name="Layer 1" xmlns="http://www.w3.org/2000/svg" viewBox="0 0 600 600"><defs><style>.cls-1{fill:#009444;}.cls-2{fill:#fff;}.cls-3{fill:#231f20;}</style></defs><title>doodle</title><path class="cls-1" d="M413,403.28c3-1,6.31-1.64,9.15-2.51l10.77-3.32c.45-.14,1-.27,1.51-.41-6.65-2.05-13.32-4.71-18.94-8.56Q414.24,395.89,413,403.28Z"/><path class="cls-1" d="M391.6,497.55c4.7-1.15,9.62-1.89,14.47-2.61-1.67-1.13-3.34-2.25-5.05-3.34-2.09-1.33-4.42-2.56-6.59-4Q393,492.6,391.6,497.55Z"/><path class="cls-1" d="M391,36.63a231.79,231.79,0,0,0-21.12,19,122.83,122.83,0,0,1,12,9.14C385,55.38,388,46,391,36.63Z"/><path class="cls-2" d="M332.82,152.59c2-.84,2.13-4.29.7-5.64a2.78,2.78,0,0,0-2.09-.66,4.76,4.76,0,0,0-1.05,2.05C330,149.93,330.25,153.68,332.82,152.59Z"/><path class="cls-1" d="M263.64,47.48c3.63-2.06,7.34-4,11.13-5.7-2.24-2.55-4.15-5.69-6.29-8l-5.53-6c.16,2.91.3,5.81.4,8.72C263.46,40.12,263.71,43.82,263.64,47.48Z"/><path class="cls-1" d="M104.69,282.16a125.13,125.13,0,0,0,33.86,46.55,130.81,130.81,0,0,0,22.89,15.81c7.32,4,15.46,6.23,22.85,9.87a4.07,4.07,0,0,1,4.87,3.49q1,9.4,2,18.82c.43,4,1.61,8.55-1,12s-7.77,4.79-11.57,6.53l-5.17,2.37,4,.64c4.49.72,9.5.93,13.69,2.82,7.13,3.21,8.43,11.29,10.13,18.11,4.87,19.54,10.1,38.94,16,58.21s12.5,38.21,19.57,57q5.11,13.64,10.71,27.09c3,7.24,7.35,21.11,16.95,21-1-15.9-3.29-31.66-5.74-47.4a4,4,0,0,1-.45-2.93c-.07-.39-.13-.78-.19-1.18-.44-2.82,3-4.31,4.54-2.51a4,4,0,0,1,.83.08c24.2,4.74,55.2,10.5,75.19-8.41,3-2.85,6.95.11,6.43,3.74a190.28,190.28,0,0,0-1.77,37.56c.23,4.18-.36,11.73,2.67,15.14,3.86,4.35,8.54-3.87,10-6.81,9.22-18.29,16.16-38.07,22.49-57.51,6.22-19.12,11.45-38.56,16-58.15,4.6-20,8.46-40.12,11.85-60.33s5-40.86,9.7-60.65a3.15,3.15,0,0,1,3.31-2.43A113.69,113.69,0,0,0,480.61,292a111.22,111.22,0,0,0,24.25-65.41c.4-11.6-1.27-24.68-10.54-32.76-4.23-3.69-12-7.26-17-2.87-4.39,3.85-4.15,10.61-3.21,15.8,1.08,6.06,3,11.89,3.71,18A82.06,82.06,0,0,1,478,241a75.61,75.61,0,0,1-9.67,31.69,67.73,67.73,0,0,1-48.53,32.72c-1.78.26-4-.75-3.86-2.94,1.52-18.89,2.68-37.82,3.69-56.74.89-16.6,1.14-33.33,3.19-49.84a26.35,26.35,0,0,0-8.6,6.64c-1.44,1.79-5.05.36-4.74-2,.9-6.85,7.17-9.25,12.71-12.07s10.67-5.82,15.84-9c-10.13-1.36-21.33,1.76-30.85-2.54a1.49,1.49,0,0,1,0-2.57,30.88,30.88,0,0,1,10.61-2.17c-3.13-9.48-4.25-19.81-7-29.42a3.36,3.36,0,0,1,.16-2.47,4.24,4.24,0,0,1,.74-4.71c5.39-6.08,11-12,16.83-17.6a115.71,115.71,0,0,0-17.74,5.37c-2,.8-4.58-.88-5.06-2.87A93.23,93.23,0,0,0,382,76.6c-10.66-10.94-24.1-18.91-37.63-25.79-14.84-7.55-30.54-11.94-47.16-8.38-15.84,3.4-30.2,11.51-43.51,20.48A250.45,250.45,0,0,0,216.59,93.1a3.52,3.52,0,0,1-4.92,0,214.07,214.07,0,0,0-21.55-21.36c4.19,11.7,8.72,23.35,12.27,35.21a2.34,2.34,0,0,1,1.65,1.77c.57,3.75-1,6.3-2.49,9.69l-5.48,12.44c-3.47,7.89-7,15.74-10.34,23.7a236.6,236.6,0,0,0-8.42,23.08,127.43,127.43,0,0,0-3.13,12.75c-.73,3.91-.82,7.91-2.4,11.58-.75,1.74-3.09,1.52-4.19.3-6.36-.31-12.67-.7-19-.89,2.27,1.22,4.52,2.46,6.74,3.76,3.47,2,7.28,4,10.3,6.76,1.64-.48,3.47.06,3.84,2.19.83,4.77-.09,9.7-.34,14.52q-.37,6.84-.44,13.68c-.1,9.76.22,19.55,1,29.28.81,10.06,2.09,20.11,3.83,30.05,1.59,9.12,4.43,18.2,4.81,27.47a1.56,1.56,0,0,1-2.89.78c-3.77-6.48-5.75-14-7.38-21.4-19.35-3.17-33.23-19.37-41.86-36-4.64-8.91-8.24-18.32-12.32-27.49-2.1-4.71-4.31-9.38-6.86-13.87a35,35,0,0,0-4.18-6.48c-2.54-2.76-4.67-1.13-5.93,1.69-3.79,8.56-1.7,19.71-.15,28.57A127.89,127.89,0,0,0,104.69,282.16Zm87.72,6.07c.27,2.59,1.27,5.32,1.05,7.91a1.05,1.05,0,0,1-1.94.53c-3-4.12-2.57-11.69-2.24-16.51a1.52,1.52,0,0,1,2.26-1.29c3.75,2.23,8.15,3.84,11.44,6.75.68.61,0,1.66-.86,1.47-3.48-.86-6.7-2.86-9.92-4.55A45.1,45.1,0,0,0,192.41,288.23Zm6.76,43.45a3.18,3.18,0,0,1,0-5.45c5-2.73,9.9-4.19,15.58-3.84a2.06,2.06,0,0,1,.55,4c-2.41.75-4.87,1.61-7.28,2.59.74.32,1.49.64,2.25.94,2.33.92,5.34,1.42,6.95,3.44a2.55,2.55,0,0,1-1.11,4.2c-2.86.87-5.9-.76-8.53-1.86A86.66,86.66,0,0,1,199.17,331.68Zm8.69,51c3.33-2.32,6.6-4.79,10-6.93,1.87-1.16,3.84-2.05,5.71-.56.55.44,0,1.22-.52,1.26-2.72.2-4.85,2.37-7,3.88l-4.32,3.07c2.87.85,5.91,1.74,8.22,3.36.77.53.57,2-.52,1.9-3.78-.19-7.72-2.13-11.27-3.37A1.45,1.45,0,0,1,207.86,382.69Zm24,57.51c-2.27,3-5.9,2.29-9.28,1.69a33.47,33.47,0,0,1-11.15-4.23,3.49,3.49,0,0,1-.7-5.41,42.74,42.74,0,0,1,7.91-7.35c2.27-1.62,5.54-3.92,8.28-2.32a1.91,1.91,0,0,1,1,1.66c-.19,2.88-2.91,4.12-5,5.74a43.33,43.33,0,0,0-4.18,3.7,24.57,24.57,0,0,0,5.1,1.59c2.64.5,5.82-.07,7.7,2.15A2.31,2.31,0,0,1,231.84,440.2Zm3.54-48.28q-3.82-24.9-6.4-50-2.62-25.56-3.88-51.23-.61-13.08-.88-26.17c-.17-8.32-.52-16.6,1.4-24.74a2.15,2.15,0,0,1,4.12,0c1.92,8.15,1.72,16.41,1.93,24.74s.55,16.78,1,25.17q1.31,25.16,3.79,50.23,2.64,26,6.68,51.92c1.24,8,2.62,15.91,4,23.84s4.08,16.79,3.36,24.76c-.2,2.29-3.35,3.58-4.61,1.25-3.82-7-4.76-16.17-6.21-23.95C238.11,409.18,236.71,400.55,235.38,391.92ZM271,503.3c-6.39,3-15.66,1.21-22.59,1.05-3-.06-4.48-3.11-3.26-5.69,3-6.41,5.94-12.88,8.94-19.31,2.78-6,5.19-12.23,9.38-17.34a2,2,0,0,1,3.3,1.36c-.7,6.88-3.76,13.33-6.4,19.67-1.91,4.6-4,9.15-6,13.68,5.78-.15,12.15-.26,16.67,2.16C272.63,499.74,272.76,502.48,271,503.3Zm11.6-198.13a93.46,93.46,0,0,1-22.3-4.91c1.21,1.27,2.63,2.41,3.5,3.3l6.37,6.4c4.1,4.13,9.09,8.12,12.11,13.14,1.61,2.67-1.63,6-4.33,4.32-6.77-4.23-12.27-11.65-17.81-17.36-4.57-4.7-10-9.14-8.62-16.29a3.41,3.41,0,0,1,4.18-2.37c9,3.78,18.3,6.86,27.33,10.61C284.59,302.64,284.61,305.33,282.63,305.17Zm34.94,196c-.6,3.13-2.15,6.13-3.39,9a1.31,1.31,0,0,1-2.25,0,153.35,153.35,0,0,1-6.62-16.85c-.31-.91,1.09-1.26,1.43-.39,1.77,4.56,3.93,9,6.15,13.38a29.88,29.88,0,0,1,2.84-5.95A1,1,0,0,1,317.57,501.19Zm-.29-80.92c-7.93,1.14-19.33,3.53-26.95.43-2.29-.93-2.59-4.15,0-5,3.68-1.16,7.6-.73,11.43-.89,1.76-.07,3.52-.19,5.27-.34a139.77,139.77,0,0,1-22.29-20c-1.38-1.58.45-4.4,2.37-3.07,10.47,7.32,20.45,15.28,31,22.48C320.31,415.37,320.54,419.8,317.28,420.27Zm-8.14-89.61c-1.87-.56-1.59-3.76.48-3.52a159.06,159.06,0,0,1,23.79,4.38c2.23.6,3.23,3.72,1.41,5.34C328,343,318.49,349.88,309,348a1.69,1.69,0,0,1-.74-2.82c5.16-4,11.43-6.14,17.12-9.45C320,334,314.57,332.28,309.14,330.66Zm8.56,38.51a1.55,1.55,0,0,1,1.08,2.61c-3,3.06-7.31,7.05-11.86,7.11a.84.84,0,0,1-.58-1.42c2-2.13,4.69-3.6,7.15-5.31a51.52,51.52,0,0,0-11.76,2.21.93.93,0,0,1-.71-1.69C306,369.55,312,368.73,317.7,369.17ZM302.26,266.8c-4.48-2.49-8.79-5.19-13.09-7.95.39,6,1.71,11.74,2.11,17.7a1,1,0,0,1-1.79.48c-3-6.25-3.28-14-3.27-20.86a1.44,1.44,0,0,1,2.14-1.23c5,3.47,10,6.95,14.75,10.75C303.75,266.21,302.92,267.16,302.26,266.8ZM343.44,394c-1,11-2.25,22-3.65,32.88s-3,21.89-4.79,32.79q-1.31,7.92-2.74,15.81c-.95,5.17-1.53,10.52-4.21,15.12-1.09,1.85-4.67,1.78-5-.66-.69-5,.41-9.66,1.31-14.57q1.54-8.38,2.93-16.79,2.69-16.31,4.83-32.69c1.42-10.95,2.58-21.91,3.7-32.89,1-10.23.73-21.8,4.29-31.53.64-1.74,3.4-2.08,3.89,0C346.4,371.82,344.35,383.58,343.44,394ZM351.8,288.2q-.18,11.7-1.09,23.36c-.55,7.08-.51,15.08-3.71,21.54a2.61,2.61,0,0,1-4.72-.62c-1.5-7.09.31-14.78.92-21.93q.94-11.16,1.45-22.35c.67-15.15-1.11-30.74.82-45.76.24-1.85,2.87-2.51,3.44-.47C353,256.62,352,273.11,351.8,288.2Zm34.07,180.37a39.25,39.25,0,0,1-14.42,4.79c-4,.49-9,2.06-12.91,1.15a2.44,2.44,0,0,1-1.68-2.95c.94-4,4.81-4.84,8.47-5.24a80.16,80.16,0,0,0,9.77-1.44q-3.56-1.72-7.21-3.24c-2.94-1.22-7.22-1.87-8-5.37-.92-4.23,6.78-2,8.09-1.63a94.86,94.86,0,0,1,17.88,7.63A3.68,3.68,0,0,1,385.87,468.57Zm-18.27-51c-.82-.37-.22-1.77.61-1.44A131.73,131.73,0,0,1,385,423.87a1.33,1.33,0,0,1-.31,2.4c-3.78,1.07-8.1,2.92-12.06,2.76a.86.86,0,0,1-.43-1.58c2.45-1.57,5.61-2.3,8.61-3C376.53,422,372.13,419.63,367.6,417.58Zm23-48c-4.09,3.6-8.25,7.1-12.53,10.46-3.63,2.85-7.32,6.44-11.84,7.68-2.35.65-4.8-2.14-3.32-4.32,2.65-3.87,7-6.31,10.7-9.18,1.85-1.45,3.68-2.94,5.5-4.45-6.77-.67-13.67-1.54-19.85-3.75-1.68-.6-2.21-3.66,0-4,9.39-1.27,19.37.35,28.74,1.26C390.87,363.62,393.17,367.3,390.57,369.6Zm9.66-60.33a105.28,105.28,0,0,1-13.35,6.89c-3.93,1.68-8.17,3.89-12.52,3.64-2.78-.16-3.36-3.36-1.33-4.91,3.33-2.55,7.85-3.4,11.68-5,1.11-.47,2.2-1,3.29-1.49a91.71,91.71,0,0,1-20.17-5.89c-1.79-.76-.39-3.19,1.23-2.91a250.91,250.91,0,0,0,29.53,3.64A3.28,3.28,0,0,1,400.23,309.27ZM371.42,269.1a.79.79,0,0,1,0-1.52c6.14-1.06,12.67-.57,18.88-.56a1.44,1.44,0,0,1,1,2.44c-3.23,2.8-7,5.36-11.46,5.28a.83.83,0,0,1-.42-1.53c2.08-1.21,4.22-2.16,6.27-3.32A75.35,75.35,0,0,1,371.42,269.1Zm32.19-49.83c.85,5.38-2,9.08-5.2,13.15-3.49,4.39-7.43,10.31-13,12.07a2.66,2.66,0,0,1-3.25-3.24c1.3-3.77,4.27-6.24,6.86-9.19a71.31,71.31,0,0,0,5.67-6.51c-9.22,2.72-19.39,5.37-28.51,3.9-1.34-.21-1.51-2.29-.38-2.87,4.91-2.5,10.57-3.55,15.89-4.85,5.89-1.43,11.71-3.1,17.48-5C400.89,216.22,403.32,217.41,403.61,219.27ZM364.42,125c5.11-8.72,12.16-16.22,19.65-22.94,2.81-2.52,6.35,0,5.88,3.43a172.17,172.17,0,0,1-4.06,20.61c-1.54,5.84-2.82,12.68-6.6,17.5-1.6,2.05-5.1.29-5-2.08.22-6.11,3.38-12.34,4.91-18.26.77-3,1.45-5.93,2.06-8.92-4.39,4.44-8.51,9.13-12.68,13.85C366.54,130.46,362.94,127.49,364.42,125Zm-27-24.6a35,35,0,0,1,5.49-4.82c1-.69,2,.27,2.13,1.22.31,3,.1,7-2.24,9.31a.91.91,0,0,1-1.54-.64,34.12,34.12,0,0,1,.78-4,16.8,16.8,0,0,0,.21-1.86,33.7,33.7,0,0,0-2.91,2.7c-1.3,1.37-2.42,3.37-4.05,4.34-.51.31-1.41-.08-1.32-.76C334.28,103.77,336.06,101.91,337.45,100.37ZM320,128.57a25.47,25.47,0,0,1,3.71-1.27,3.13,3.13,0,0,1,.93-.71c15.22-7.9,30.17,5.48,33.8,20,3.16,12.69-.27,27.57-11.67,35.06a29,29,0,0,1-35.11-3.12,30.86,30.86,0,0,1-6.16-36.2A29.22,29.22,0,0,1,320,128.57ZM290.2,57.82c1.13-2.58,4.72-1.43,5.49.72,4.11,11.49,9,23,12.34,34.73.92,3.25-4.19,5.55-5.56,2.35-3.84-9-6.85-18.47-10-27.82a260.31,260.31,0,0,0-9.23,29.4c-.55,2.1-4,1.7-3.84-.52C280.74,83.13,284.73,70.24,290.2,57.82Zm-14.47,130a2,2,0,0,1,2.44-.7c3.29-2.34,8.56-2.57,12.38-2.86,4.09-.31,7.8,1,9.53,5,1.94,4.43,1.44,10.87,1.15,15.57-.3,4.9-1.27,9.9-3.85,14.14-4.46,7.34-15.06,11.07-20.25,2.25-2.78-4.72-3.55-10.86-4-16.23S272.47,192.39,275.73,187.77ZM241.6,94.24a86.75,86.75,0,0,1,8,7.12c2,2.06,4.39,4.18,5.49,6.88.3.73-.72,1.46-1.34,1-2.46-1.71-4.21-4.46-6.3-6.6q-2.23-2.3-4.65-4.39c1.22,4.47,2.77,8.79,4.33,13.18.31.89-1.06,1.43-1.5.63a63.91,63.91,0,0,1-6-16.72A1.18,1.18,0,0,1,241.6,94.24Zm-25,46.76c4.7-4.86,13.44-10.24,20.88-9.93,6.59-2.28,14.37,2.65,19,7.08a34.47,34.47,0,0,1,10.38,20.41c1.64,13.06-5.55,26.6-18,31.53-14,5.55-26.94-1.25-35.68-12.32C203.86,165.86,206.43,151.57,216.64,141Zm-31.81,76.92c3.4-.88,6.79-1.84,10.24-2.52,3.08-.61,6.35-1.42,9.39-.35a2.54,2.54,0,0,1,.6,4.57c-2.58,1.77-5.82,1.94-8.83,2.45-1.79.31-3.57.61-5.34.94a37.77,37.77,0,0,0,4.42,4.89c2.4,2.21,5.63,3.87,7.38,6.68a2,2,0,0,1-1.74,3c-3.84-.07-7.19-3-9.93-5.43a45.61,45.61,0,0,1-8.06-9.67A3.14,3.14,0,0,1,184.83,217.92Z"/><path class="cls-2" d="M330.24,177.9c28.12.73,26-45.44,1.28-46.12-11,2.27-20.78,11.77-21.4,23.06C309.49,166.45,318.31,177.59,330.24,177.9ZM323,147.15a11.51,11.51,0,0,1,2.82-5.11,7.18,7.18,0,0,1,6-3.86,10,10,0,0,1,8.94,4.69c3.91,6,1.43,15.45-5.83,17.51C326.53,162.76,321.18,154.67,323,147.15Z"/><path class="cls-2" d="M236.56,156.93a4,4,0,0,0,.52-5.52,14.23,14.23,0,0,0-3.65.43L233,152a9.24,9.24,0,0,0-.68,1.71c-.27.84-.5,1.77-.79,2.67A3.58,3.58,0,0,0,236.56,156.93Z"/><path class="cls-2" d="M234.89,183.81c12.61,2.4,23.47-7.84,24.38-20.1a26,26,0,0,0-5.84-17.92,26.59,26.59,0,0,0-6.17-5.61,1.53,1.53,0,0,1-2,.11c-11.23-7.78-25.73,5.06-29.25,15.8C212.23,167.71,223.46,181.63,234.89,183.81ZM225,149.09a8.74,8.74,0,0,1,.77-1,10.26,10.26,0,0,1,9.11-5.21c7.26,0,12.14,6.76,10.62,13.72-1.46,6.7-9.16,10.63-15.48,8.09A10.9,10.9,0,0,1,225,149.09Z"/><path class="cls-3" d="M93.2,274.65a133.71,133.71,0,0,0,33,53.62,131.08,131.08,0,0,0,27.09,20.45c8.43,4.79,18.78,10.42,28.76,11.88l1.23,11.14c.35,3.26,2.58,10.86-.18,13.3s-8.43,3.87-11.77,5.39l-12.41,5.67c-2.8,1.28-2.2,6.3.89,6.8l15.66,2.54c4.13.66,11.26.51,14.39,3.68s3.63,9.94,4.8,13.89c1.48,5,3,9.95,4.43,14.94,5.84,19.93,11.59,39.88,17.88,59.68,6.18,19.42,12.93,38.66,20.92,57.41,5.36,12.56,12.52,37.24,30.74,33.23a3.15,3.15,0,0,0,2.31-3c-1-16-2.58-32-5.92-47.75,24.27,4.72,50.25,7.75,71.29-5.86a178.44,178.44,0,0,0-1,26.86c.29,7.84-.47,20.29,6.8,25.55s15.1-.64,19.21-6.92c5.82-8.9,9.42-20,13.34-29.91,5.49-13.79,10.36-27.8,14.72-42,9-.54,18.3-3.09,27.07-4.64,3.4-.6,3.09-5,.86-6.62q-6.53-4.78-13.44-9a58.3,58.3,0,0,0-7.51-4.13c6.05-22.77,11-45.85,15.17-69a.13.13,0,0,1,0-.06c2.25-.23,4.42-1.19,6.79-1.93l12.71-4c5.65-1.76,12.84-2.71,16.13-8.2a3.76,3.76,0,0,0-2.23-5.48c-9.69-2.47-18.92-6.73-28.51-9.35q.81-5.13,1.57-10.26c1.71-11.55,3.87-23.27,4.6-34.95A119,119,0,0,0,512.28,236c1.43-12.25,1.26-25.47-4.25-36.77-4.62-9.5-14.21-18.23-25.33-18.08-10.92.14-17.08,10-17.11,20,0,6.69,2.45,13.09,3.79,19.56a72.53,72.53,0,0,1,1.53,19.38c-1.85,27.73-21.25,52.8-48.61,58.64,1.53-17.34,3-34.68,4.12-52,1.16-17.72,2.69-35.65,1.51-53.4.61-.29,1.22-.59,1.82-.91a199.57,199.57,0,0,0,19.07-11c2.09-1.37,2.74-5.22,0-6.42-6.32-2.78-12.81-2.87-19.64-2.85-1.83,0-3.75,0-5.7-.05.91-10.17-2.24-21-5.56-30.46a237.65,237.65,0,0,1,27-27c2.63-2.27.65-7.72-3-7.27a150.4,150.4,0,0,0-29.34,6.7,99.35,99.35,0,0,0-19.44-37.88c-1.63-2-3.35-3.88-5.13-5.71,4.46-14.23,9.23-28.37,13.74-42.59.9-2.86-2.84-6.23-5.47-4.2-11.37,8.77-22.17,17.86-32,28.34-3.2-2-6.46-3.81-9.75-5.58C339.12,38.1,322.83,31.49,305,33.23a90.3,90.3,0,0,0-23.29,5.64c-.83-3-3.23-5.65-5.35-8-5-5.61-10.19-11-15.28-16.56-2.22-2.41-6.93-.61-6.7,2.78.45,6.49.81,13,1.13,19.47.25,5,.09,10.29.85,15.31a253.59,253.59,0,0,0-42.15,33.82,261.51,261.51,0,0,0-28.61-25.93c-2.43-1.92-6.58-.25-5.57,3.24,4.65,16,9.35,32.91,16.72,48-.93,1.69-1.58,3.58-2.41,5.47l-5.46,12.46c-3.46,7.87-7,15.73-10.25,23.69a191.46,191.46,0,0,0-8.69,25c-1.29,5-3.19,11.28-3.48,17.09-9.85-.93-19.94-.64-29.79-.24a3.53,3.53,0,0,0-3,5.23c2.26,4.83,9.73,6.61,14.1,8.84,4.68,2.41,9.48,6,14.53,8-.94,3.89-.88,8.19-1.12,12.09q-.47,7.82-.49,15.63a274.86,274.86,0,0,0,5.64,56.09c-19.21-5.62-30.4-24.12-38.22-41.59-3.76-8.39-18.89-55.46-34.24-41.63-6.91,6.22-7.31,17.57-6.77,26.1A126.77,126.77,0,0,0,93.2,274.65ZM401,491.6c1.71,1.09,3.38,2.21,5.05,3.34-4.85.72-9.77,1.46-14.47,2.61q1.45-4.95,2.83-9.92C396.6,489,398.93,490.27,401,491.6ZM434.38,397c-.54.14-1.06.27-1.51.41l-10.77,3.32c-2.84.87-6.14,1.46-9.15,2.51q1.29-7.39,2.49-14.8C421.06,392.33,427.73,395,434.38,397ZM391,36.63c-3,9.37-6,18.75-9.09,28.1a122.83,122.83,0,0,0-12-9.14A231.79,231.79,0,0,1,391,36.63ZM268.48,33.77c2.14,2.32,4,5.46,6.29,8-3.79,1.73-7.5,3.64-11.13,5.7.07-3.66-.18-7.36-.29-10.95-.1-2.91-.24-5.81-.4-8.72ZM96.91,226.35c1.26-2.82,3.39-4.45,5.93-1.69a35,35,0,0,1,4.18,6.48c2.55,4.49,4.76,9.16,6.86,13.87,4.08,9.17,7.68,18.58,12.32,27.49,8.63,16.59,22.51,32.79,41.86,36,1.63,7.42,3.61,14.92,7.38,21.4a1.56,1.56,0,0,0,2.89-.78c-.38-9.27-3.22-18.35-4.81-27.47-1.74-9.94-3-20-3.83-30.05-.78-9.73-1.1-19.52-1-29.28q.06-6.84.44-13.68c.25-4.82,1.17-9.75.34-14.52-.37-2.13-2.2-2.67-3.84-2.19-3-2.75-6.83-4.74-10.3-6.76-2.22-1.3-4.47-2.54-6.74-3.76,6.33.19,12.64.58,19,.89,1.1,1.22,3.44,1.44,4.19-.3,1.58-3.67,1.67-7.67,2.4-11.58a127.43,127.43,0,0,1,3.13-12.75,236.6,236.6,0,0,1,8.42-23.08c3.31-8,6.87-15.81,10.34-23.7l5.48-12.44c1.49-3.39,3.06-5.94,2.49-9.69a2.34,2.34,0,0,0-1.65-1.77c-3.55-11.86-8.08-23.51-12.27-35.21A214.07,214.07,0,0,1,211.67,93.1a3.52,3.52,0,0,0,4.92,0,250.45,250.45,0,0,1,37.13-30.19c13.31-9,27.67-17.08,43.51-20.48,16.62-3.56,32.32.83,47.16,8.38,13.53,6.88,27,14.85,37.63,25.79a93.23,93.23,0,0,1,23.62,43.88c.48,2,3,3.67,5.06,2.87A115.71,115.71,0,0,1,428.44,118c-5.86,5.62-11.44,11.52-16.83,17.6a4.24,4.24,0,0,0-.74,4.71,3.36,3.36,0,0,0-.16,2.47c2.78,9.61,3.9,19.94,7,29.42a30.88,30.88,0,0,0-10.61,2.17,1.49,1.49,0,0,0,0,2.57c9.52,4.3,20.72,1.18,30.85,2.54-5.17,3.2-10.41,6.26-15.84,9s-11.81,5.22-12.71,12.07c-.31,2.33,3.3,3.76,4.74,2a26.35,26.35,0,0,1,8.6-6.64c-2,16.51-2.3,33.24-3.19,49.84-1,18.92-2.17,37.85-3.69,56.74-.17,2.19,2.08,3.2,3.86,2.94a67.73,67.73,0,0,0,48.53-32.72A75.61,75.61,0,0,0,478,241a82.06,82.06,0,0,0-.13-16.21c-.72-6.13-2.63-12-3.71-18-.94-5.19-1.18-11.95,3.21-15.8,5-4.39,12.77-.82,17,2.87,9.27,8.08,10.94,21.16,10.54,32.76A111.22,111.22,0,0,1,480.61,292a113.69,113.69,0,0,1-61.32,38.73,3.15,3.15,0,0,0-3.31,2.43c-4.69,19.79-6.34,40.56-9.7,60.65s-7.25,40.35-11.85,60.33c-4.51,19.59-9.74,39-16,58.15-6.33,19.44-13.27,39.22-22.49,57.51-1.49,2.94-6.17,11.16-10,6.81-3-3.41-2.44-11-2.67-15.14a190.28,190.28,0,0,1,1.77-37.56c.52-3.63-3.41-6.59-6.43-3.74-20,18.91-51,13.15-75.19,8.41a4,4,0,0,0-.83-.08c-1.51-1.8-5-.31-4.54,2.51.06.4.12.79.19,1.18a4,4,0,0,0,.45,2.93c2.45,15.74,4.73,31.5,5.74,47.4-9.6.1-14-13.77-16.95-21q-5.56-13.46-10.71-27.09c-7.07-18.83-13.71-37.8-19.57-57s-11.1-38.67-16-58.21c-1.7-6.82-3-14.9-10.13-18.11-4.19-1.89-9.2-2.1-13.69-2.82l-4-.64,5.17-2.37c3.8-1.74,8.93-3.07,11.57-6.53s1.46-8,1-12q-1-9.42-2-18.82a4.07,4.07,0,0,0-4.87-3.49c-7.39-3.64-15.53-5.91-22.85-9.87a130.81,130.81,0,0,1-22.89-15.81,125.13,125.13,0,0,1-33.86-46.55,127.89,127.89,0,0,1-7.93-27.24C95.21,246.06,93.12,234.91,96.91,226.35Z"/><path class="cls-3" d="M283.27,97.2a260.31,260.31,0,0,1,9.23-29.4c3.12,9.35,6.13,18.81,10,27.82,1.37,3.2,6.48.9,5.56-2.35C304.69,81.54,299.8,70,295.69,58.54c-.77-2.15-4.36-3.3-5.49-.72-5.47,12.42-9.46,25.31-10.77,38.86C279.22,98.9,282.72,99.3,283.27,97.2Z"/><path class="cls-3" d="M368.56,128.16c4.17-4.72,8.29-9.41,12.68-13.85-.61,3-1.29,6-2.06,8.92-1.53,5.92-4.69,12.15-4.91,18.26-.08,2.37,3.42,4.13,5,2.08,3.78-4.82,5.06-11.66,6.6-17.5A172.17,172.17,0,0,0,390,105.46c.47-3.39-3.07-5.95-5.88-3.43-7.49,6.72-14.54,14.22-19.65,22.94C362.94,127.49,366.54,130.46,368.56,128.16Z"/><path class="cls-3" d="M365.84,226.58c-1.13.58-1,2.66.38,2.87,9.12,1.47,19.29-1.18,28.51-3.9a71.31,71.31,0,0,1-5.67,6.51c-2.59,2.95-5.56,5.42-6.86,9.19a2.66,2.66,0,0,0,3.25,3.24c5.53-1.76,9.47-7.68,13-12.07,3.22-4.07,6-7.77,5.2-13.15-.29-1.86-2.72-3.05-4.4-2.51-5.77,1.87-11.59,3.54-17.48,5C376.41,223,370.75,224.08,365.84,226.58Z"/><path class="cls-3" d="M398.59,303.2a250.91,250.91,0,0,1-29.53-3.64c-1.62-.28-3,2.15-1.23,2.91A91.71,91.71,0,0,0,388,308.36c-1.09.52-2.18,1-3.29,1.49-3.83,1.64-8.35,2.49-11.68,5-2,1.55-1.45,4.75,1.33,4.91,4.35.25,8.59-2,12.52-3.64a105.28,105.28,0,0,0,13.35-6.89A3.28,3.28,0,0,0,398.59,303.2Z"/><path class="cls-3" d="M388,363.34c-9.37-.91-19.35-2.53-28.74-1.26-2.21.3-1.68,3.36,0,4,6.18,2.21,13.08,3.08,19.85,3.75-1.82,1.51-3.65,3-5.5,4.45-3.66,2.87-8.05,5.31-10.7,9.18-1.48,2.18,1,5,3.32,4.32,4.52-1.24,8.21-4.83,11.84-7.68,4.28-3.36,8.44-6.86,12.53-10.46C393.17,367.3,390.87,363.62,388,363.34Z"/><path class="cls-3" d="M385.87,462.27A94.86,94.86,0,0,0,368,454.64c-1.31-.39-9-2.6-8.09,1.63.77,3.5,5.05,4.15,8,5.37q3.66,1.51,7.21,3.24a80.16,80.16,0,0,1-9.77,1.44c-3.66.4-7.53,1.22-8.47,5.24a2.44,2.44,0,0,0,1.68,2.95c3.9.91,8.93-.66,12.91-1.15a39.25,39.25,0,0,0,14.42-4.79A3.68,3.68,0,0,0,385.87,462.27Z"/><path class="cls-3" d="M345.47,242.44c-1.93,15-.15,30.61-.82,45.76q-.51,11.18-1.45,22.35c-.61,7.15-2.42,14.84-.92,21.93a2.61,2.61,0,0,0,4.72.62c3.2-6.46,3.16-14.46,3.71-21.54q.92-11.67,1.09-23.36c.23-15.09,1.21-31.58-2.89-46.23C348.34,239.93,345.71,240.59,345.47,242.44Z"/><path class="cls-3" d="M340.1,361.5c-3.56,9.73-3.25,21.3-4.29,31.53-1.12,11-2.28,21.94-3.7,32.89s-3,21.82-4.83,32.69q-1.39,8.4-2.93,16.79c-.9,4.91-2,9.59-1.31,14.57.34,2.44,3.92,2.51,5,.66,2.68-4.6,3.26-9.95,4.21-15.12S334.13,465,335,459.7q2.7-16.35,4.79-32.79c1.4-10.93,2.68-21.9,3.65-32.88.91-10.45,3-22.21.55-32.53C343.5,359.42,340.74,359.76,340.1,361.5Z"/><path class="cls-3" d="M309,348c9.47,1.92,19-5,25.8-11.1,1.82-1.62.82-4.74-1.41-5.34a159.06,159.06,0,0,0-23.79-4.38c-2.07-.24-2.35,3-.48,3.52,5.43,1.62,10.85,3.32,16.26,5-5.69,3.31-12,5.44-17.12,9.45A1.69,1.69,0,0,0,309,348Z"/><path class="cls-3" d="M318.12,413.87c-10.56-7.2-20.54-15.16-31-22.48-1.92-1.33-3.75,1.49-2.37,3.07a139.77,139.77,0,0,0,22.29,20c-1.75.15-3.51.27-5.27.34-3.83.16-7.75-.27-11.43.89-2.59.82-2.29,4,0,5,7.62,3.1,19,.71,26.95-.43C320.54,419.8,320.31,415.37,318.12,413.87Z"/><path class="cls-3" d="M283.06,302c-9-3.75-18.31-6.83-27.33-10.61a3.41,3.41,0,0,0-4.18,2.37c-1.41,7.15,4,11.59,8.62,16.29,5.54,5.71,11,13.13,17.81,17.36,2.7,1.69,5.94-1.65,4.33-4.32-3-5-8-9-12.11-13.14l-6.37-6.4c-.87-.89-2.29-2-3.5-3.3a93.46,93.46,0,0,0,22.3,4.91C284.61,305.33,284.59,302.64,283.06,302Z"/><path class="cls-3" d="M250.52,440.46c.72-8-2-16.93-3.36-24.76s-2.79-15.87-4-23.84q-4-25.86-6.68-51.92-2.52-25.06-3.79-50.23-.66-12.58-1-25.17c-.21-8.33,0-16.59-1.93-24.74a2.15,2.15,0,0,0-4.12,0c-1.92,8.14-1.57,16.42-1.4,24.74q.25,13.09.88,26.17,1.22,25.67,3.88,51.23,2.57,25.07,6.4,50c1.33,8.63,2.73,17.26,4.32,25.84,1.45,7.78,2.39,16.93,6.21,23.95C247.17,444,250.32,442.75,250.52,440.46Z"/><path class="cls-3" d="M271,498.88c-4.52-2.42-10.89-2.31-16.67-2.16,2.08-4.53,4.13-9.08,6-13.68,2.64-6.34,5.7-12.79,6.4-19.67a2,2,0,0,0-3.3-1.36c-4.19,5.11-6.6,11.38-9.38,17.34-3,6.43-5.9,12.9-8.94,19.31-1.22,2.58.23,5.63,3.26,5.69,6.93.16,16.2,2,22.59-1.05C272.76,502.48,272.63,499.74,271,498.88Z"/><path class="cls-3" d="M223.78,435.27a24.57,24.57,0,0,1-5.1-1.59,43.33,43.33,0,0,1,4.18-3.7c2.09-1.62,4.81-2.86,5-5.74a1.91,1.91,0,0,0-1-1.66c-2.74-1.6-6,.7-8.28,2.32a42.74,42.74,0,0,0-7.91,7.35,3.49,3.49,0,0,0,.7,5.41,33.47,33.47,0,0,0,11.15,4.23c3.38.6,7,1.31,9.28-1.69a2.31,2.31,0,0,0-.36-2.78C229.6,435.2,226.42,435.77,223.78,435.27Z"/><path class="cls-3" d="M216.11,337.59a2.55,2.55,0,0,0,1.11-4.2c-1.61-2-4.62-2.52-6.95-3.44-.76-.3-1.51-.62-2.25-.94,2.41-1,4.87-1.84,7.28-2.59a2.06,2.06,0,0,0-.55-4c-5.68-.35-10.57,1.11-15.58,3.84a3.18,3.18,0,0,0,0,5.45,86.66,86.66,0,0,0,8.41,4.05C210.21,336.83,213.25,338.46,216.11,337.59Z"/><path class="cls-3" d="M191,232.18c2.74,2.45,6.09,5.36,9.93,5.43a2,2,0,0,0,1.74-3c-1.75-2.81-5-4.47-7.38-6.68a37.77,37.77,0,0,1-4.42-4.89c1.77-.33,3.55-.63,5.34-.94,3-.51,6.25-.68,8.83-2.45a2.54,2.54,0,0,0-.6-4.57c-3-1.07-6.31-.26-9.39.35-3.45.68-6.84,1.64-10.24,2.52a3.14,3.14,0,0,0-1.87,4.59A45.61,45.61,0,0,0,191,232.18Z"/><path class="cls-3" d="M277.13,221.14c5.19,8.82,15.79,5.09,20.25-2.25,2.58-4.24,3.55-9.24,3.85-14.14.29-4.7.79-11.14-1.15-15.57-1.73-4-5.44-5.28-9.53-5-3.82.29-9.09.52-12.38,2.86a2,2,0,0,0-2.44.7c-3.26,4.62-3,11.74-2.57,17.14S274.35,216.42,277.13,221.14Z"/><path class="cls-3" d="M311.64,178.54a29,29,0,0,0,35.11,3.12c11.4-7.49,14.83-22.37,11.67-35.06-3.63-14.53-18.58-27.91-33.8-20a3.13,3.13,0,0,0-.93.71,25.47,25.47,0,0,0-3.71,1.27,29.22,29.22,0,0,0-14.5,13.77A30.86,30.86,0,0,0,311.64,178.54Zm-1.52-23.7c.62-11.29,10.39-20.79,21.4-23.06,24.69.68,26.84,46.85-1.28,46.12C318.31,177.59,309.49,166.45,310.12,154.84Z"/><path class="cls-3" d="M334.88,160.38c7.26-2.06,9.74-11.5,5.83-17.51a10,10,0,0,0-8.94-4.69,7.18,7.18,0,0,0-6,3.86,11.51,11.51,0,0,0-2.82,5.11C321.18,154.67,326.53,162.76,334.88,160.38Zm-4.5-12a4.76,4.76,0,0,1,1.05-2.05,2.78,2.78,0,0,1,2.09.66c1.43,1.35,1.28,4.8-.7,5.64C330.25,153.68,330,149.93,330.38,148.34Z"/><path class="cls-3" d="M249,190.09c12.41-4.93,19.6-18.47,18-31.53a34.47,34.47,0,0,0-10.38-20.41c-4.64-4.43-12.42-9.36-19-7.08-7.44-.31-16.18,5.07-20.88,9.93-10.21,10.57-12.78,24.86-3.37,36.77C222,188.84,235,195.64,249,190.09Zm-32.91-34c3.52-10.74,18-23.58,29.25-15.8a1.53,1.53,0,0,0,2-.11,26.59,26.59,0,0,1,6.17,5.61,26,26,0,0,1,5.84,17.92c-.91,12.26-11.77,22.5-24.38,20.1C223.46,181.63,212.23,167.71,216,156.09Z"/><path class="cls-3" d="M230,164.65c6.32,2.54,14-1.39,15.48-8.09,1.52-7-3.36-13.69-10.62-13.72a10.26,10.26,0,0,0-9.11,5.21,8.74,8.74,0,0,0-.77,1A10.9,10.9,0,0,0,230,164.65Zm2.31-11A9.24,9.24,0,0,1,233,152l.43-.14a14.23,14.23,0,0,1,3.65-.43,4,4,0,0,1-.52,5.52,3.58,3.58,0,0,1-5-.57C231.82,155.46,232.05,154.53,232.32,153.69Z"/><path class="cls-3" d="M245.6,112.09c.44.8,1.81.26,1.5-.63-1.56-4.39-3.11-8.71-4.33-13.18q2.41,2.1,4.65,4.39c2.09,2.14,3.84,4.89,6.3,6.6.62.43,1.64-.3,1.34-1-1.1-2.7-3.47-4.82-5.49-6.88a86.75,86.75,0,0,0-8-7.12,1.18,1.18,0,0,0-2,1.13A63.91,63.91,0,0,0,245.6,112.09Z"/><path class="cls-3" d="M335.32,106.64c1.63-1,2.75-3,4.05-4.34a33.7,33.7,0,0,1,2.91-2.7,16.8,16.8,0,0,1-.21,1.86,34.12,34.12,0,0,0-.78,4,.91.91,0,0,0,1.54.64c2.34-2.26,2.55-6.27,2.24-9.31-.1-1-1.17-1.91-2.13-1.22a35,35,0,0,0-5.49,4.82c-1.39,1.54-3.17,3.4-3.45,5.51C333.91,106.56,334.81,107,335.32,106.64Z"/><path class="cls-3" d="M379.85,274.74c4.42.08,8.23-2.48,11.46-5.28a1.44,1.44,0,0,0-1-2.44c-6.21,0-12.74-.5-18.88.56a.79.79,0,0,0,0,1.52,75.35,75.35,0,0,0,14.28.79c-2.05,1.16-4.19,2.11-6.27,3.32A.83.83,0,0,0,379.85,274.74Z"/><path class="cls-3" d="M288.36,254.94a1.44,1.44,0,0,0-2.14,1.23c0,6.82.28,14.61,3.27,20.86a1,1,0,0,0,1.79-.48c-.4-6-1.72-11.74-2.11-17.7,4.3,2.76,8.61,5.46,13.09,7.95.66.36,1.49-.59.85-1.11C298.33,261.89,293.38,258.41,288.36,254.94Z"/><path class="cls-3" d="M203,285.62c-3.29-2.91-7.69-4.52-11.44-6.75a1.52,1.52,0,0,0-2.26,1.29c-.33,4.82-.71,12.39,2.24,16.51a1.05,1.05,0,0,0,1.94-.53c.22-2.59-.78-5.32-1.05-7.91a45.1,45.1,0,0,1-.21-5.69c3.22,1.69,6.44,3.69,9.92,4.55C202.93,287.28,203.66,286.23,203,285.62Z"/><path class="cls-3" d="M220,386.77c-2.31-1.62-5.35-2.51-8.22-3.36l4.32-3.07c2.14-1.51,4.27-3.68,7-3.88.57,0,1.07-.82.52-1.26-1.87-1.49-3.84-.6-5.71.56-3.44,2.14-6.71,4.61-10,6.93a1.45,1.45,0,0,0,.35,2.61c3.55,1.24,7.49,3.18,11.27,3.37C220.57,388.73,220.77,387.3,220,386.77Z"/><path class="cls-3" d="M301.73,374.37a51.52,51.52,0,0,1,11.76-2.21c-2.46,1.71-5.11,3.18-7.15,5.31a.84.84,0,0,0,.58,1.42c4.55-.06,8.85-4.05,11.86-7.11a1.55,1.55,0,0,0-1.08-2.61c-5.73-.44-11.75.38-16.68,3.51A.93.93,0,0,0,301.73,374.37Z"/><path class="cls-3" d="M372.66,429c4,.16,8.28-1.69,12.06-2.76a1.33,1.33,0,0,0,.31-2.4,131.73,131.73,0,0,0-16.82-7.73c-.83-.33-1.43,1.07-.61,1.44,4.53,2.05,8.93,4.42,13.24,6.9-3,.67-6.16,1.4-8.61,3A.86.86,0,0,0,372.66,429Z"/><path class="cls-3" d="M315.73,500.42a29.88,29.88,0,0,0-2.84,5.95c-2.22-4.37-4.38-8.82-6.15-13.38-.34-.87-1.74-.52-1.43.39a153.35,153.35,0,0,0,6.62,16.85,1.31,1.31,0,0,0,2.25,0c1.24-2.91,2.79-5.91,3.39-9A1,1,0,0,0,315.73,500.42Z"/></svg>