<svg id="Layer_1" data-name="Layer 1" xmlns="http://www.w3.org/2000/svg" viewBox="0 0 600 600"><defs><style>.cls-1{fill:#8dc63f;}.cls-2{fill:#fff;}.cls-3{fill:#009344;}.cls-4{fill:#231f20;}</style></defs><title>doodle</title><path class="cls-1" d="M246.59,143.91c7.32-1.29,13.68-5.33,16.37-12.51,2-5.22,1.3-10.65,2.08-16a228.52,228.52,0,0,0-42.37,13q-5.05,2.16-10.06,4.55C221.86,141,234.29,146.08,246.59,143.91Z"/><path class="cls-1" d="M265.46,178c4.4.54,5.77-3.85,6-7.44.24-4-1.78-6.88-5.68-7.87a1.11,1.11,0,0,1-.66-.45C258.68,164.46,257.82,177,265.46,178Z"/><path class="cls-1" d="M217.69,205.81c13.6-1,18.29-15.84,15-27.43A30,30,0,0,0,225,166.25c-4.16-4.06-8.44-5.11-13.68-5.32C190.41,167.19,193.41,207.58,217.69,205.81Z"/><path class="cls-1" d="M188.94,310.07c-3,.19-3.86,2.91-5.27,5l-.07.07a4.69,4.69,0,0,0,2,3.88c2.54,1.86,7.08-1.16,7.57-4A4.27,4.27,0,0,0,188.94,310.07Z"/><path class="cls-1" d="M195.85,278c6.44,2.77,14.48,3.26,20.17-1.47,5.38-4.48,6.5-11.67,6.85-18.29.68-12.55-1.39-25.72-14.53-30.67a1.39,1.39,0,0,1-.88-1.16c-9.84-2-20.06,8.83-23.19,18.2-2.06,6.15-3.7,13.89-1.92,20.27S190,275.52,195.85,278Z"/><path class="cls-1" d="M145.5,301.06c7.37-2.16,10.88-11.06,8.71-18-2.1-6.68-9-10.94-15.11-8.83a15,15,0,0,0-7.39,10.53C130.43,292.83,136.09,303.82,145.5,301.06Z"/><path class="cls-2" d="M332.53,83.27a6.89,6.89,0,0,0-1.14-1.69c-1.46-1.62-5.36-2.48-8.07-2.13a16.13,16.13,0,0,0-3.7,6.6c.16,1.89.77,3.67,1.74,4.48C326.7,95,332.43,88,332.53,83.27Z"/><path class="cls-3" d="M35.12,329.37c-8,6.62-8.49,18.05-6,27.33,8.78,33.11,39.59,60,71,71a3.78,3.78,0,0,1,1.29.75,3.27,3.27,0,0,1,.15,6.27c-19.76,6.51-37.48,17.51-50.78,33.67-2.17,2.63-8.49,9.35-7,13.37,2.16,6,13.82-2.08,17.13-3.9A326.88,326.88,0,0,0,90.92,459c2.87-2,6.85,2,4.86,4.86a89.44,89.44,0,0,0-11,22.49c-1.19,3.5-2.26,7-3.31,10.58-1,3.29-4,10-1.47,13,4.37,5.3,9.79-4.78,11.65-7.41,2.27-3.2,4.45-6.47,6.56-9.78,4.4-6.94,8.41-14.1,12.1-21.43,1.63-3.24,6.66-1.61,6.65,1.8,0,9.9-.91,20.21,0,30.07.42,4.33,5.9,16.18,11.13,8.17,2.34-3.57,2.65-9.73,3.48-13.77a276,276,0,0,0,5.39-60.82c-.06-3,3.15-4.39,5.57-3.2a119.16,119.16,0,0,0,86.2,7.24c-15.5-21.08-24.89-46.65-25.5-72.87-.11-4.74,7.16-4.7,7.35,0a124.79,124.79,0,0,0,66.53,104.79A130.82,130.82,0,0,0,310,484c8.26,1.79,23,1.09,27.93,9.55,2.57,4.44,1.78,10.22,2.29,15.11a90.43,90.43,0,0,0,3.95,18.45,89.37,89.37,0,0,0,7.69,17.25c2.61,4.53,5.91,10.79,10.83,13.16,8.34,4,8.29-5.75,8.17-11.23-.12-5.75-.27-11.5-.66-17.23-.85-12.72-2.88-25.38-8-37.12-1.73-4,2.65-7.75,6.08-4.69,11.86,10.56,33.92,19.06,49,10.24,20.66-12-20.15-31.11-29.52-34.14-3.95-1.27-3.47-8.09,1-7.59a49.23,49.23,0,0,0,16.51-.67c1.9-.43,6.53-1.08,7.89-2.53,4.05-4.34-4.06-5.3-5.79-5.61-11.85-2.16-23.93-3.07-35.88-4.49-20.21-2.38-40.45-5.7-59-14.54a84,84,0,0,1-39.63-38.39c-8.59-17.2-12.38-36.53-13.87-55.57-.28-3.57,5.67-4.35,6.24-.85,3.11,19.11,6.29,38.71,15.78,55.88a72.22,72.22,0,0,0,21.39,24c10.36,1.47,20.46,3.56,31,3.75a180.29,180.29,0,0,0,33.93-2.7c39.16-6.79,75.43-25.72,107.71-48.33,16.76-11.75,26.69-30.55,35-48.8A202.24,202.24,0,0,0,520.92,288a93.35,93.35,0,0,0,2.82-14.16,2.37,2.37,0,0,1-.73.17c-30.36,1.32-60.75,1.93-91.14,1.58q-22.78-.27-45.57-1.08c-14.14-.51-29.59.05-43.44-3.05-.81-.19-.53-1.28.19-1.35,7.43-.79,15.28,0,22.76.25s15.18.51,22.77.72q22.21.63,44.43.68,45,.06,90-1.95a1.93,1.93,0,0,1,1.14.28c.26-2.73.45-5.47.58-8.25l-81.28-.29c-39.88-.14-79.89.78-119.75-.23-4.09-.11-4-6,0-6.31,39.75-2.67,79.94-1.54,119.75-1.4l116.67.39a541.35,541.35,0,0,0-10.5-85.41c-5.07-24-17.46-54.6-46.37-55.43-2.7-.08-5-3.24-3.29-5.72,5.51-8,11.52-16.6,12.66-26.53a35.34,35.34,0,0,0-6.38-24.06c-10.39-14.67-31.61-17.83-46.36-7.84-8.11,5.5-13.08,14.58-16.41,23.56C441.45,78.05,441,88.33,435,91c-4,1.81-9.38,1.06-13.62,1.36-5.19.36-10.38.86-15.54,1.54a265.9,265.9,0,0,0-34,6.83c-3.43.92-5.39-2.72-4.37-5.23a25.35,25.35,0,0,1-.06-5.59,53.26,53.26,0,0,0-2.53-19.7A51.18,51.18,0,0,0,354.05,51.5c-5.77-6.24-12.32-8.35-20.66-8.66-14.77-.55-28.77,4.69-37.56,17s-9.83,28.92-3.58,42.71a3.68,3.68,0,0,1,.17,2.65c1.77,1.41,1.73,5-1,5.4-7.64,1.24-15.2,2.56-22.68,4.08,2.9,14.58-5.47,29.87-20.32,32.89a39.89,39.89,0,0,1-38.07-13.47C198.48,140,187.06,147,177.41,156l0,.05c1.21,6.18,1.59,13.94-3.17,18.83-3.9,4-9.41,3.78-14,1.55-4.12,5.85-8,11.94-11.63,18.13,16,9.11,26.28,29.56,13.42,45.94a22.63,22.63,0,0,1-23.58,7.89c-2.46-.6-10.37-4-13.64-7.78-13.38,31.63-20.57,65.93-13.48,100.15.87,4.17-4.23,6.07-6.62,2.79C94.78,329.94,77.84,324,61.46,323.52,52.92,323.29,42,323.66,35.12,329.37ZM294.07,467c4.54,1.06,9.49,1.86,13.86,3.48.61.23.78,1.27,0,1.41-4.86.92-10.37-.8-14.48-3.44A.8.8,0,0,1,294.07,467ZM550.87,208.2c.89,4.86,2.12,10.23,1.22,15.15a1.29,1.29,0,0,1-2.46,0c-1.17-4.76-.81-9.94-1.32-14.8C548.16,207.08,550.6,206.77,550.87,208.2Zm-27-74.22c8.47,5.27,13.32,13.84,16.29,23.16,2,6.2,3.18,12.64,4.52,19,1.26,6,2.7,11.9,2.84,18,0,1.24-1.61,1.26-2,.27-8-19.87-5.08-43.86-22.54-59.28C522.33,134.58,523.16,133.54,523.87,134ZM479.15,66.59a11.35,11.35,0,0,1,8.56,4.83,11.87,11.87,0,0,1,3.5,3.36,12.53,12.53,0,0,1-2.24,17,13.85,13.85,0,0,1-17.42-.21,15.77,15.77,0,0,1-5.67-9.69,3.11,3.11,0,0,1-.25-1C465.19,73.7,471.88,66.13,479.15,66.59Zm-163.31,8c3.55-3.2,10.35-3.15,15.05-1.76,6,.26,9.9,6,9.47,11.87,0,.09,0,.17,0,.26.8,11.85-12.83,18.79-22.85,13.58-4.05-2.11-5.52-6.13-5.33-10.32C311.55,83.38,312.61,77.47,315.84,74.56ZM196.51,316.32c-1.35,4.76-8.06,8.55-12.46,5.58-3.22-2.18-3.81-5.78-2.68-9,.15-3.87,5.06-7,8.74-6.49A8,8,0,0,1,196.51,316.32ZM266.4,160.16c11.29-2.46,12.27,23.36-1.41,21.3C253,179.65,255.23,159.91,266.4,160.16ZM252.28,441c9.52,9.63,20.67,14.69,32.3,21.09,1.05.57.25,1.9-.74,1.76-13.21-1.8-25.8-11.44-34.7-20.89a74.83,74.83,0,0,1-19.09-35.7.71.71,0,0,1,1.37-.38A90.84,90.84,0,0,0,252.28,441Zm-44.36-281a1.06,1.06,0,0,1,.49-1c11.78-7.48,26.1,9,28.51,19.3,3.13,13.42-2.14,29.27-17.17,31.51C191.09,214,184.58,169,207.92,159.93Zm-25.63,79.7c4.72-10.47,17.29-19.2,27.59-14.5,16.9,1.62,18.34,24.72,16.76,37.61-.95,7.75-3.9,15.33-11.16,19.13-6.7,3.51-14.7,2.77-21.43-.23s-13.41-8.2-15.41-15.71C176.43,257.61,178.83,247.29,182.29,239.63Zm-54,45.76a16.77,16.77,0,0,1,3.87-9.37,1.58,1.58,0,0,1,.18-.5c3.55-5.92,9.55-6.83,14.9-4.82a19.79,19.79,0,0,1,2,.51.75.75,0,0,1,.55.73,17.94,17.94,0,0,1,7.33,8c4.19,9.36-.37,21.43-10.39,24.74C135.19,308.47,127.32,295.59,128.26,285.39Zm-61.75,111C53.1,388,43.07,369.26,45.65,353.49c.13-.83,1.43-.6,1.44.2a45.14,45.14,0,0,0,7.17,24c4,6.28,9.68,11.06,13.68,17.24A1,1,0,0,1,66.51,396.37Z"/><path class="cls-1" d="M137.76,244.61A21,21,0,0,0,149,245c7.18-1.84,12.2-7.95,14.11-14.92,3.72-13.59-5.17-25.62-16.5-32.06-3.19,5.54-6.25,11.12-9.24,16.64-3.89,7.18-7.56,14.56-10.88,22.1C127.07,240.42,135,243.79,137.76,244.61Z"/><path class="cls-1" d="M468.9,379.25a328.76,328.76,0,0,1-44.93,25,123.41,123.41,0,0,0,37,25.27c6.21,2.73,15,3.67,20.26,8.08,5.45,4.59,3.29,12.58,3.77,18.85a69,69,0,0,0,6.39,24c3.28,7,8.17,15.85,14.83,20.13,10.26,6.59,16.47-8.13,16.38-16-.1-9.77-2.74-19.77-4.38-29.37-.68-4,5.18-7.28,7.06-3,5,11.44,11.48,22.94,20.23,32,8.1,8.36,24.21,13.49,29-.92,6.71-20.21-12-41.48-29.08-49.09-3.48-1.55-1.74-7.44,1.94-7.17,7.56.55,16.54,1.55,23.26-2.73,6.23-4,9.34-12.51,2.45-17.41-6.16-4.38-14.54-2.87-21.58-2.36a157,157,0,0,1-18.91.3C509.56,403.76,484.58,397.22,468.9,379.25Z"/><path class="cls-2" d="M477.24,85.6c3.62,2.57,5.67-1.95,5.69-5.06a7.65,7.65,0,0,0-.73-3.12,5.25,5.25,0,0,0-5.88,1.09C474.24,80.52,475,84,477.24,85.6Z"/><path class="cls-1" d="M173,171.27c2.33-3.78,1.89-8.1,1.44-12.31-1.08,1.1-2.13,2.22-3.15,3.38-3.4,3.87-6.6,7.94-9.65,12.16C165.87,175.58,170.36,175.54,173,171.27Z"/><path class="cls-4" d="M30.64,323.58c-13.38,10.92-11.41,29.95-5.35,44.18a119.65,119.65,0,0,0,27.56,39.33A124.46,124.46,0,0,0,90,431.51a105.41,105.41,0,0,0-26.67,14.81c-9.42,7.15-20.63,16.91-25.33,28.07C33.16,486,41.88,494.47,53.41,489.6c10-4.21,19.62-10,28.85-16.09a152.47,152.47,0,0,0-6.47,17.65c-2.44,8-7.33,20.11,1.51,26.09,8.22,5.56,15-3.55,19.29-9.45a237.9,237.9,0,0,0,13.21-20.47q0,3.9,0,7.79c0,5.73-.28,11.93,2.31,17.22,3.78,7.71,15,12.15,21.13,4.43,3.46-4.34,4.12-11,5.21-16.25q2.11-10.08,3.49-20.3a293.12,293.12,0,0,0,2.59-37.67,125.87,125.87,0,0,0,89.41,4.68,129.44,129.44,0,0,0,37.24,30.84,136.22,136.22,0,0,0,35.76,13c6.25,1.4,12.73,2,18.94,3.5,5,1.21,5.83,3.3,6.27,8,.34,3.66.48,7.3,1,11a97.43,97.43,0,0,0,13.06,36.34c5.07,8.34,13.36,19.67,24.71,15.33,4.74-1.82,7.05-6.3,7.6-11.11.87-7.5,0-15.6-.46-23.12a142.92,142.92,0,0,0-4.81-30.76,60,60,0,0,0,22.34,7.64c10.14,1.33,22.19.51,30-6.93,15.29-14.52-3.2-29.44-19.86-38.23,10.44-1.68,20.45-6,16-15.82-3.2-7-12.13-7.48-18.74-8.43-9.37-1.33-18.78-2.29-28.18-3.35-17.9-2-36.64-5-53.27-11.84,2.61.23,5.2.41,7.73.56a169,169,0,0,0,32.89-1.23,216.65,216.65,0,0,0,54.48-15.18,129.36,129.36,0,0,0,45,30.45c2.33.94,4.69,1.82,7.08,2.61,1.89.64,5.24,1,6.81,2.29,3.44,2.77,1.72,10.72,2.06,14.56a79.16,79.16,0,0,0,7,26.1c5.76,12.56,19,33.8,35.35,23.56,10.12-6.34,11.51-17.7,10.32-29.29,4.59,6.86,10,13.09,16.47,17.52,10.7,7.36,26.27,7.13,33.25-5.06,6-10.57,3.52-23.95-1.43-34.38a58.25,58.25,0,0,0-17.18-21.11c10.31-1.07,20-5.1,23.07-16.39,4.18-15.5-12.48-22.49-25-22-15.94.61-31.26,1.82-47-1.6a81.85,81.85,0,0,1-38-19.07q2-1.35,4-2.71c17.38-12.1,27.75-29.64,36.68-48.5a223.18,223.18,0,0,0,12.49-32.34c2.79-9.48,5.17-20.13,4.15-30.21l32.71.11a4,4,0,0,0,4-4c-1.4-33.07-4.58-67.15-12.75-99.31-6-23.43-20.5-48.24-45.65-52.49,7.08-11.21,12.28-22.9,9.77-36.73C517.22,56.24,508.21,44.26,495.72,39c-12.94-5.48-28.79-4.12-40.35,4a48,48,0,0,0-14,16c-3.94,7.08-5.51,14.67-8.56,22-1.28,3.09-2.61,3.35-5.88,3.51q-4.46.21-8.91.58c-5,.41-10,1-14.92,1.65a273.34,273.34,0,0,0-29.31,5.73c.1-3,.85-6.46.73-8.92a61.14,61.14,0,0,0-1.72-11.74,58.5,58.5,0,0,0-9.62-20.51c-4.37-6-9.79-11.4-16.93-13.79C338.67,35,329.61,35,321.74,36.16c-32.5,4.78-48.44,39.81-36.23,68.73-20.4,1.48-41,7.35-59.81,14.82-19.25,7.63-39,17.32-54,31.92-15.32,14.94-26.44,34.44-36.9,52.91-11.27,19.88-21.06,40.83-27.1,62.93-5.63,20.61-7.8,42.08-5.29,63.23a60.07,60.07,0,0,0-27.55-13C61.26,315.05,42,314.31,30.64,323.58Zm502,81.28a157,157,0,0,0,18.91-.3c7-.51,15.42-2,21.58,2.36,6.89,4.9,3.78,13.45-2.45,17.41-6.72,4.28-15.7,3.28-23.26,2.73-3.68-.27-5.42,5.62-1.94,7.17,17.08,7.61,35.79,28.88,29.08,49.09-4.79,14.41-20.9,9.28-29,.92-8.75-9-15.23-20.52-20.23-32-1.88-4.3-7.74-1-7.06,3,1.64,9.6,4.28,19.6,4.38,29.37.09,7.86-6.12,22.58-16.38,16-6.66-4.28-11.55-13.16-14.83-20.13a69,69,0,0,1-6.39-24c-.48-6.27,1.68-14.26-3.77-18.85-5.24-4.41-14-5.35-20.26-8.08a123.41,123.41,0,0,1-37-25.27,328.76,328.76,0,0,0,44.93-25C484.58,397.22,509.56,403.76,532.64,404.86Zm-310-276.39a228.52,228.52,0,0,1,42.37-13c-.78,5.3-.13,10.73-2.08,16-2.69,7.18-9,11.22-16.37,12.51-12.3,2.17-24.73-2.9-34-10.89Q217.61,130.62,222.67,128.47Zm-51.39,33.87c1-1.16,2.07-2.28,3.15-3.38.45,4.21.89,8.53-1.44,12.31-2.63,4.27-7.12,4.31-11.36,3.23C164.68,170.28,167.88,166.21,171.28,162.34Zm-33.92,52.3c3-5.52,6-11.1,9.24-16.64,11.33,6.44,20.22,18.47,16.5,32.06-1.91,7-6.93,13.08-14.11,14.92a21,21,0,0,1-11.23-.37c-2.72-.82-10.69-4.19-11.28-7.87C129.8,229.2,133.47,221.82,137.36,214.64Zm-32.67,129c2.39,3.28,7.49,1.38,6.62-2.79-7.09-34.22.1-68.52,13.48-100.15,3.27,3.8,11.18,7.18,13.64,7.78A22.63,22.63,0,0,0,162,240.54c12.86-16.38,2.55-36.83-13.42-45.94,3.66-6.19,7.51-12.28,11.63-18.13,4.63,2.23,10.14,2.46,14-1.55,4.76-4.89,4.38-12.65,3.17-18.83l0-.05c9.65-9.06,21.07-16.08,33-21.95a39.89,39.89,0,0,0,38.07,13.47c14.85-3,23.22-18.31,20.32-32.89,7.48-1.52,15-2.84,22.68-4.08,2.69-.44,2.73-4,1-5.4a3.68,3.68,0,0,0-.17-2.65c-6.25-13.79-5.31-30.27,3.58-42.71s22.79-17.54,37.56-17c8.34.31,14.89,2.42,20.66,8.66a51.18,51.18,0,0,1,10.84,18.74,53.26,53.26,0,0,1,2.53,19.7,25.35,25.35,0,0,0,.06,5.59c-1,2.51.94,6.15,4.37,5.23a265.9,265.9,0,0,1,34-6.83c5.16-.68,10.35-1.18,15.54-1.54,4.24-.3,9.66.45,13.62-1.36,5.93-2.7,6.43-13,8.45-18.42,3.33-9,8.3-18.06,16.41-23.56,14.75-10,36-6.83,46.36,7.84A35.34,35.34,0,0,1,512.62,81c-1.14,9.93-7.15,18.51-12.66,26.53-1.7,2.48.59,5.64,3.29,5.72,28.91.83,41.3,31.44,46.37,55.43A541.35,541.35,0,0,1,560.12,254l-116.67-.39c-39.81-.14-80-1.27-119.75,1.4-4,.27-4.09,6.2,0,6.31,39.86,1,79.87.09,119.75.23l81.28.29c-.13,2.78-.32,5.52-.58,8.25a1.93,1.93,0,0,0-1.14-.28q-45,2.08-90,1.95-22.22,0-44.43-.68-11.38-.31-22.77-.72c-7.48-.25-15.33-1-22.76-.25-.72.07-1,1.16-.19,1.35,13.85,3.1,29.3,2.54,43.44,3.05q22.79.82,45.57,1.08c30.39.35,60.78-.26,91.14-1.58a2.37,2.37,0,0,0,.73-.17A93.35,93.35,0,0,1,520.92,288a202.24,202.24,0,0,1-10.76,28.8c-8.35,18.25-18.28,37.05-35,48.8-32.28,22.61-68.55,41.54-107.71,48.33a180.29,180.29,0,0,1-33.93,2.7c-10.57-.19-20.67-2.28-31-3.75a72.22,72.22,0,0,1-21.39-24c-9.49-17.17-12.67-36.77-15.78-55.88-.57-3.5-6.52-2.72-6.24.85,1.49,19,5.28,38.37,13.87,55.57a84,84,0,0,0,39.63,38.39c18.53,8.84,38.77,12.16,59,14.54,12,1.42,24,2.33,35.88,4.49,1.73.31,9.84,1.27,5.79,5.61-1.36,1.45-6,2.1-7.89,2.53a49.23,49.23,0,0,1-16.51.67c-4.5-.5-5,6.32-1,7.59,9.37,3,50.18,22.1,29.52,34.14-15.12,8.82-37.18.32-49-10.24-3.43-3.06-7.81.73-6.08,4.69,5.14,11.74,7.17,24.4,8,37.12.39,5.73.54,11.48.66,17.23.12,5.48.17,15.26-8.17,11.23-4.92-2.37-8.22-8.63-10.83-13.16a89.37,89.37,0,0,1-7.69-17.25,90.43,90.43,0,0,1-3.95-18.45c-.51-4.89.28-10.67-2.29-15.11C333,485.05,318.24,485.75,310,484a130.82,130.82,0,0,1-32.77-11.28,124.79,124.79,0,0,1-66.53-104.79c-.19-4.7-7.46-4.74-7.35,0,.61,26.22,10,51.79,25.5,72.87a119.16,119.16,0,0,1-86.2-7.24c-2.42-1.19-5.63.22-5.57,3.2a276,276,0,0,1-5.39,60.82c-.83,4-1.14,10.2-3.48,13.77-5.23,8-10.71-3.84-11.13-8.17-1-9.86-.09-20.17,0-30.07,0-3.41-5-5-6.65-1.8-3.69,7.33-7.7,14.49-12.1,21.43-2.11,3.31-4.29,6.58-6.56,9.78-1.86,2.63-7.28,12.71-11.65,7.41-2.49-3,.5-9.69,1.47-13,1-3.54,2.12-7.08,3.31-10.58a89.44,89.44,0,0,1,11-22.49c2-2.87-2-6.88-4.86-4.86a326.88,326.88,0,0,1-30.06,18.85c-3.31,1.82-15,9.87-17.13,3.9-1.45-4,4.87-10.74,7-13.37,13.3-16.16,31-27.16,50.78-33.67a3.27,3.27,0,0,0-.15-6.27,3.78,3.78,0,0,0-1.29-.75c-31.42-10.94-62.23-37.86-71-71-2.47-9.28-1.94-20.71,6-27.33,6.85-5.71,17.8-6.08,26.34-5.85C77.84,324,94.78,329.94,104.69,343.59Z"/><path class="cls-4" d="M317.54,98.51c10,5.21,23.65-1.73,22.85-13.58,0-.09,0-.17,0-.26.43-5.87-3.51-11.61-9.47-11.87-4.7-1.39-11.5-1.44-15.05,1.76-3.23,2.91-4.29,8.82-3.63,13.63C312,92.38,313.49,96.4,317.54,98.51Zm5.78-19.06c2.71-.35,6.61.51,8.07,2.13a6.89,6.89,0,0,1,1.14,1.69c-.1,4.71-5.83,11.72-11.17,7.26-1-.81-1.58-2.59-1.74-4.48A16.13,16.13,0,0,1,323.32,79.45Z"/><path class="cls-4" d="M471.55,91.57a13.85,13.85,0,0,0,17.42.21,12.53,12.53,0,0,0,2.24-17,11.87,11.87,0,0,0-3.5-3.36,11.35,11.35,0,0,0-8.56-4.83c-7.27-.46-14,7.11-13.52,14.24a3.11,3.11,0,0,0,.25,1A15.77,15.77,0,0,0,471.55,91.57Zm4.77-13.06a5.25,5.25,0,0,1,5.88-1.09,7.65,7.65,0,0,1,.73,3.12c0,3.11-2.07,7.63-5.69,5.06C475,84,474.24,80.52,476.32,78.51Z"/><path class="cls-4" d="M146.75,304.65c10-3.31,14.58-15.38,10.39-24.74a17.94,17.94,0,0,0-7.33-8,.75.75,0,0,0-.55-.73,19.79,19.79,0,0,0-2-.51c-5.35-2-11.35-1.1-14.9,4.82a1.58,1.58,0,0,0-.18.5,16.77,16.77,0,0,0-3.87,9.37C127.32,295.59,135.19,308.47,146.75,304.65Zm-15-19.88a15,15,0,0,1,7.39-10.53c6.07-2.11,13,2.15,15.11,8.83,2.17,6.93-1.34,15.83-8.71,18C136.09,303.82,130.43,292.83,131.71,284.77Z"/><path class="cls-4" d="M194.05,281.64c6.73,3,14.73,3.74,21.43.23,7.26-3.8,10.21-11.38,11.16-19.13,1.58-12.89.14-36-16.76-37.61-10.3-4.7-22.87,4-27.59,14.5-3.46,7.66-5.86,18-3.65,26.3C180.64,273.44,187.23,278.6,194.05,281.64Zm-9.78-37c3.13-9.37,13.35-20.23,23.19-18.2a1.39,1.39,0,0,0,.88,1.16c13.14,5,15.21,18.12,14.53,30.67-.35,6.62-1.47,13.81-6.85,18.29-5.69,4.73-13.73,4.24-20.17,1.47-5.85-2.51-11.71-6.69-13.5-13.12S182.21,250.79,184.27,244.64Z"/><path class="cls-4" d="M190.11,306.45c-3.68-.47-8.59,2.62-8.74,6.49-1.13,3.18-.54,6.78,2.68,9,4.4,3,11.11-.82,12.46-5.58A8,8,0,0,0,190.11,306.45Zm3,8.57c-.49,2.81-5,5.83-7.57,4a4.69,4.69,0,0,1-2-3.88l.07-.07c1.41-2.06,2.31-4.78,5.27-5A4.27,4.27,0,0,1,193.13,315Z"/><path class="cls-4" d="M219.75,209.7c15-2.24,20.3-18.09,17.17-31.51-2.41-10.33-16.73-26.78-28.51-19.3a1.06,1.06,0,0,0-.49,1C184.58,169,191.09,214,219.75,209.7Zm-8.41-48.77c5.24.21,9.52,1.26,13.68,5.32a30,30,0,0,1,7.65,12.13c3.31,11.59-1.38,26.44-15,27.43C193.41,207.58,190.41,167.19,211.34,160.93Z"/><path class="cls-4" d="M265,181.46c13.68,2.06,12.7-23.76,1.41-21.3C255.23,159.91,253,179.65,265,181.46Zm.11-19.25a1.11,1.11,0,0,0,.66.45c3.9,1,5.92,3.86,5.68,7.87-.21,3.59-1.58,8-6,7.44C257.82,177,258.68,164.46,265.1,162.21Z"/><path class="cls-4" d="M545.51,194.42c.4,1,2,1,2-.27-.14-6.12-1.58-12.05-2.84-18-1.34-6.35-2.55-12.79-4.52-19-3-9.32-7.82-17.89-16.29-23.16-.71-.44-1.54.6-.9,1.16C540.43,150.56,537.46,174.55,545.51,194.42Z"/><path class="cls-4" d="M552.09,223.35c.9-4.92-.33-10.29-1.22-15.15-.27-1.43-2.71-1.12-2.56.35.51,4.86.15,10,1.32,14.8A1.29,1.29,0,0,0,552.09,223.35Z"/><path class="cls-4" d="M230.05,407.24a74.83,74.83,0,0,0,19.09,35.7c8.9,9.45,21.49,19.09,34.7,20.89,1,.14,1.79-1.19.74-1.76-11.63-6.4-22.78-11.46-32.3-21.09a90.84,90.84,0,0,1-20.86-34.12A.71.71,0,0,0,230.05,407.24Z"/><path class="cls-4" d="M293.45,468.47c4.11,2.64,9.62,4.36,14.48,3.44.78-.14.61-1.18,0-1.41-4.37-1.62-9.32-2.42-13.86-3.48A.8.8,0,0,0,293.45,468.47Z"/><path class="cls-4" d="M47.09,353.69c0-.8-1.31-1-1.44-.2C43.07,369.26,53.1,388,66.51,396.37A1,1,0,0,0,67.94,395c-4-6.18-9.73-11-13.68-17.24A45.14,45.14,0,0,1,47.09,353.69Z"/></svg>