<svg id="Layer_1" data-name="Layer 1" xmlns="http://www.w3.org/2000/svg" viewBox="0 0 600 600"><defs><style>.cls-1{fill:#754c29;}.cls-2{fill:#8dc63f;}.cls-3{fill:#fff200;}.cls-4{fill:#fff;}.cls-5{fill:#fbb040;}.cls-6{fill:#231f20;}</style></defs><title>doodle</title><path class="cls-1" d="M520,366.46a26.57,26.57,0,0,0,6.44-15A35.48,35.48,0,0,1,517.64,362c-24.07,18.88-53.68,1.74-80.2,8.46-13.23,3.35-24.62,11.87-37.38,16.56s-25.73,3.86-38.85.6c-13.74-3.42-27.33-7.75-41.64-5.13-11.9,2.19-18.14,9.47-25.55,16.85q36.76-1.43,73.33-3.75c35.47-2.22,70.89-5.87,105.77-12.8C487.61,379.87,509.69,378.3,520,366.46Z"/><path class="cls-1" d="M101.06,395.68c17.41,4.87,37,4.16,54.92,4.68,19.64.58,39.35.77,59.09.69-11.21-7-21.62-15.24-33.32-21.42-15.45-8.16-28.43-8.84-45-4.49-12.67,3.34-22.93,1.88-33.44-6-4.57-3.44-8.94-8.18-14.28-10.38-4.18-1.73-8.42-1.56-12.6-.65C78.49,375.17,82,390.34,101.06,395.68Z"/><path class="cls-2" d="M563.39,286.25c-2.81-2.4-5.57-4.46-8-6.69-7.94,12.91-21,21.53-34.73,27.83A308.67,308.67,0,0,1,464,326.66c-36.16,8.69-73.46,11.94-110.55,12.95-37.58,1-75.55.78-113.08-1.29-40-2.21-79-12.54-119-14.65-16.17-.85-33.59-.42-46.95-11a37.09,37.09,0,0,1-5.08-4.86l-5-5.29C53.77,308,44.55,315.62,38.19,326c-3.44,5.59-8.12,14.68-4.65,21.29,3.26,6.23,11.86,5.29,17.49,4,13.18-3.06,24.93-11.47,39.07-7.68,10.9,2.93,17.09,12.35,26.89,17,11.81,5.61,26.31-4.09,38.93-3.71,11.21.33,22,4.1,31.91,9.1,20.95,10.55,38.84,30.14,62.86,33.73,14,2.09,24.39-2.6,33.67-12.82,7-7.67,14.14-14,24.05-17.48,10.7-3.77,22.36-3.94,33.49-2.46,12.18,1.61,24,6.58,36.27,7.15,24.16,1.12,43.11-19.94,67.33-21.5,21.19-1.37,54.44,12.27,68-11,4.86-8.35,7.44-17.9,14.71-24.72s16.78-7.54,26.38-8.45c6.24-.59,12.7-1.28,14.85-8.26C571.32,294,567.71,289.94,563.39,286.25Z"/><path class="cls-3" d="M538.47,332.41a8.22,8.22,0,0,1-.94-1.06.23.23,0,0,0-.07.07c6.35,11.41,5.83,25.66-.11,37.52-8.85,17.65-27.79,22.15-45.58,26.11C417.9,411.5,341.54,413.31,266,414.78a54.54,54.54,0,0,1-13,.26l-8.26.16c-42.37.86-85.17.78-127.32-4.06-14.1-1.62-29.41-4.52-39.64-15.26-6.75-7.09-9.73-16.21-10.5-25.64a44.17,44.17,0,0,0,13.94,39.29c15.27,14.17,37.65,17.88,57.61,19.76,83.93,7.87,168.65-1.35,252.18-9.48,39.1-3.81,78.62-8,115.91-21.1,15.13-5.31,37.16-12.4,43.4-29C555.64,355.64,548.65,342,538.47,332.41Z"/><path class="cls-4" d="M315.66,236q1.38,3.95,5.32.93a11.38,11.38,0,0,0-.68-4.23c-1.37-4.84-4.7-9.42-7.32-13.7-1-1.63-2.83-6-5.59-5.11-.5.16-1.43,1.84-2.29,3.18,1,4.65,4.28,9.15,6.62,12.91C312.8,231.66,314,234.62,315.66,236Z"/><path class="cls-4" d="M276.9,289.61c1.35-.39,8.33-2.16,7.26-4.56-.45-1-6.88-.39-9-.46a27,27,0,0,0-2.91,1.61,7.86,7.86,0,0,0-1.79,1.4l.69,2.5C272.46,291.05,275.52,290,276.9,289.61Z"/><path class="cls-5" d="M391,436.56c-51.57,4.89-103.18,9.62-155,10.77-25.26.56-50.57.27-75.79-1.38-21.12-1.39-43.14-2.81-63-10.6a80.94,80.94,0,0,1-21-11.91,68.23,68.23,0,0,0,4.39,8.65c11.84,19.57,33.34,25.44,54.35,30.44,41.05,9.77,83.59,10.24,125.56,9.54,42.44-.72,85-1.6,127.33-4.83,21.84-1.66,43.69-3.83,65.36-7.06,18.94-2.82,38.32-6.39,54.93-16.44A94.72,94.72,0,0,0,541.72,408a90.47,90.47,0,0,0,4.14-8.74A120,120,0,0,1,526,409.51C483.26,427.4,436.75,432.22,391,436.56Z"/><path class="cls-5" d="M111.46,308.79a360.82,360.82,0,0,1,54.32,4.44c35.24,5.28,69.62,9.71,105.3,10.3,32.69.54,65.42.89,98.08-.8,33.27-1.72,66.49-5.69,98.69-14.46,25.08-6.82,62-15.81,74.95-41.07C535,244.8,523,224.35,510.39,204.33S486,163.5,465,151.35c-18.81-10.93-40.41-18.23-61.18-24.42s-41.92-10.5-63.49-11.55c-43-2.1-88.48,5.27-130.29,15.18-37.09,8.79-73.73,23.54-99.4,52.83-24.2,27.63-42.65,70-39.11,108C78.28,306.22,94.92,308.81,111.46,308.79Zm325.48-76.87c.58-6.14,3.92-10.73,8.29-14.37a2.43,2.43,0,0,1,1-1.45c5-3.45,15-11,19.29-2,3.95,8.34-7.22,16.33-12.69,20.61C447.1,239.16,435.86,243.32,436.94,231.92ZM369.7,191.1a23.3,23.3,0,0,1,.59-2.66c1.7-8.21,8.31-15.54,15.29-19.89,10.91-6.81,11.1,9.65,8.66,16.06-2.31,6.08-6.66,11-11.33,15.4-2.57,2.44-6.47,7.19-10.43,4.59C368.89,202.26,369.13,194.61,369.7,191.1Zm-1.8,68.18s0,0,0,0c5.63-7.55,19.85-4.71,27.06-1.13,4.49,2.23,17.09,12.77,6.15,15.61-5.8,1.5-13.7.14-19.57-.74-4.52-.67-10.61-1.66-13.77-5.42S365.53,261.19,367.9,259.28Zm-66.33-47.9c0-.1,0-.19.07-.29a1.69,1.69,0,0,1,1.05-1.11,8,8,0,0,1,10.4-.91c4.32,3.22,7.18,9.93,9.71,14.49,2.43,4.39,4.69,9.2,4.16,14.34-1,9.17-9.26,11.16-14.35,4-4.67-6.56-11-15.4-11.68-24.1l0,0A7.17,7.17,0,0,1,301.57,211.38Zm-36.44,75c1.9-4.55,6.67-6.07,11.4-6.63,5-1.78,12.84-.91,13.34,5,.59,7-8.53,9.81-13.9,10.73C270.34,296.47,262.13,293.55,265.13,286.36ZM238.16,166c4.69-4.39,14.46-12.12,21.47-9.63,8.7,3.1,2.32,13.49-1.46,17.89a38.25,38.25,0,0,1-22.36,12.67,3.33,3.33,0,0,1-4-2.26,13.1,13.1,0,0,1-.45-2.07C228.17,176.91,233.91,170,238.16,166Zm-28.94,77.8a3.21,3.21,0,0,1,.45.24c8.31-2.43,18.41-2.83,25.74.66,10.21,4.85,2.91,12.85-4.49,15.45-8.31,2.92-22.89,1.32-29.18-5.49C196.13,248.59,201.8,241.16,209.22,243.78Zm-87.78-11.56a1.23,1.23,0,0,1,1.24.2,7.25,7.25,0,0,1,3-.35,3.32,3.32,0,0,1,3,2.07c7.34,3,14.71,6.89,18.4,14.3,2.25,4.54,3.63,15.91-4.83,14.74-4.2-.58-9.12-5.87-12.46-8.34-3.1-2.29-6.64-4.53-8.95-7.69C117.89,243.23,115.68,234.75,121.44,232.22Z"/><path class="cls-4" d="M210.55,252.6l2.06.76a33.21,33.21,0,0,0,6,1.49c3.41.52,13.14,1.07,12.74-3.61s-14.06-3.85-21.95-3a3.16,3.16,0,0,1-.79.22Q205.8,252.18,210.55,252.6Z"/><path class="cls-4" d="M236.94,179c.09.3.16.61.24.91a33.83,33.83,0,0,0,9.69-4.33c3.35-2.24,8.78-6.53,10-10.58,1.63-5.32-3.47-2.09-5.63-1.06a45.49,45.49,0,0,0-6.25,3.58c-2.49,1.7-7.88,5.64-9.89,9.65A2.56,2.56,0,0,1,236.94,179Z"/><path class="cls-4" d="M128.81,246.93c3.77,2.64,7.6,5.21,11.38,7.82l2.47,1.71q-.32-1.65-.78-3.27a16.33,16.33,0,0,0-4.41-6.49c-3.49-3.26-8.11-5.21-12.45-7a4.23,4.23,0,0,1-1-.54l-.86.9a2.06,2.06,0,0,1-.35.61A25,25,0,0,0,128.81,246.93Z"/><path class="cls-4" d="M385.89,187.87c1.65-2.35,7.05-11.81,4.25-14.82-1.68-1.82-7.53,3.74-10.23,6.56a2,2,0,0,1,0,1.73c-2.62,5-6.19,11.61-4,17.37C379.3,196.78,384.48,189.88,385.89,187.87Z"/><path class="cls-4" d="M383.55,267.85c2.56.25,5.15.33,7.72.38,1.72,0,3.44,0,5.16,0,2.9.61,3.36.18,1.39-1.31-3.08-4.12-10.53-6-15.42-6.3-3.48-.23-6.83.81-10.21,1a2.7,2.7,0,0,0,.16,3.34C373.83,267.15,381.6,267.66,383.55,267.85Z"/><path class="cls-4" d="M449.2,230c2.4-1.89,12.2-8.79,11.14-12.47-.48-1.66-3.26-1.53-4.44-1.21a12.38,12.38,0,0,0-2.92,1.84,19.77,19.77,0,0,1-3.22,1.68,33.8,33.8,0,0,0-4.64,5.57c-.57.87-3.89,6.87-2.61,8.07S448.2,230.76,449.2,230Z"/><path class="cls-6" d="M585,289.21c-4.13-13.25-18.06-17-25.86-27.16-7.58-21.33-18.43-41.12-30.45-60.27-11.77-18.74-23.41-39.71-40.53-54.17S449,125.32,428.26,118c-22.82-8.06-46.32-14.07-70.38-16.91-47.59-5.61-97.59,4-144,14.3-40.71,9-81.91,24.55-110.63,56.09-16.1,17.69-27.71,39-35.55,61.54-6.47,18.59-11.34,38.65-7.21,57.61C40.6,298.74,21.4,317.2,19.14,339.29c-1.05,10.3,3.55,20,13.13,24.42,7.59,3.51,15.72,2.82,23.56.82-3.6,9-3.31,19.1-.44,28.68,1.63,31,19.69,62.47,48.86,73.89,42.1,16.48,89.77,18.78,134.46,19,47.15.23,94.46-.82,141.54-3.47,24.17-1.36,48.26-3.5,72.25-6.77,20.58-2.8,41.42-6.29,59.92-16.25a109.05,109.05,0,0,0,41.84-41c8.15-14,16.4-33.74,14.13-50.72,0-.21.09-.4.12-.61,2.48-15.28-2.51-33.18-15-42.8,7.34-.9,15.22-1,21.17-5C584.22,313.08,588.32,300,585,289.21ZM110.68,183.39c25.67-29.29,62.31-44,99.4-52.83,41.81-9.91,87.28-17.28,130.29-15.18,21.57,1.05,42.83,5.39,63.49,11.55s42.37,13.49,61.18,24.42c20.91,12.15,32.8,33.1,45.35,53S535,244.8,542.8,267.2c-12.91,25.26-49.87,34.25-74.95,41.07-32.2,8.77-65.42,12.74-98.69,14.46-32.66,1.69-65.39,1.34-98.08.8-35.68-.59-70.06-5-105.3-10.3a360.82,360.82,0,0,0-54.32-4.44c-16.54,0-33.18-2.57-39.89-17.42C68,253.39,86.48,211,110.68,183.39ZM541.72,408a94.72,94.72,0,0,1-33.66,35.74c-16.61,10.05-36,13.62-54.93,16.44-21.67,3.23-43.52,5.4-65.36,7.06-42.34,3.23-84.89,4.11-127.33,4.83-42,.7-84.51.23-125.56-9.54-21-5-42.51-10.87-54.35-30.44a68.23,68.23,0,0,1-4.39-8.65,80.94,80.94,0,0,0,21,11.91c19.9,7.79,41.92,9.21,63,10.6,25.22,1.65,50.53,1.94,75.79,1.38,51.83-1.15,103.44-5.88,155-10.77,45.74-4.34,92.25-9.16,135-27.05a120,120,0,0,0,19.83-10.25A90.47,90.47,0,0,1,541.72,408Zm8.6-38.25c-6.24,16.56-28.27,23.65-43.4,29C469.63,411.79,430.11,416,391,419.81c-83.53,8.13-168.25,17.35-252.18,9.48-20-1.88-42.34-5.59-57.61-19.76a44.17,44.17,0,0,1-13.94-39.29c.77,9.43,3.75,18.55,10.5,25.64,10.23,10.74,25.54,13.64,39.64,15.26,42.15,4.84,85,4.92,127.32,4.06L253,415a54.54,54.54,0,0,0,13-.26c75.51-1.47,151.87-3.28,225.74-19.73,17.79-4,36.73-8.46,45.58-26.11,5.94-11.86,6.46-26.11.11-37.52a.23.23,0,0,1,.07-.07,8.22,8.22,0,0,0,.94,1.06C548.65,342,555.64,355.64,550.32,369.75ZM76.47,358.07c4.18-.91,8.42-1.08,12.6.65,5.34,2.2,9.71,6.94,14.28,10.38,10.51,7.92,20.77,9.38,33.44,6,16.53-4.35,29.51-3.67,45,4.49,11.7,6.18,22.11,14.44,33.32,21.42-19.74.08-39.45-.11-59.09-.69-17.94-.52-37.51.19-54.92-4.68C82,390.34,78.49,375.17,76.47,358.07ZM294,399.3c7.41-7.38,13.65-14.66,25.55-16.85,14.31-2.62,27.9,1.71,41.64,5.13,13.12,3.26,26,4.14,38.85-.6s24.15-13.21,37.38-16.56c26.52-6.72,56.13,10.42,80.2-8.46a35.48,35.48,0,0,0,8.79-10.52,26.57,26.57,0,0,1-6.44,15c-10.3,11.84-32.38,13.41-46.87,16.29-34.88,6.93-70.3,10.58-105.77,12.8Q330.83,397.83,294,399.3Zm275.43-99.18c-2.15,7-8.61,7.67-14.85,8.26-9.6.91-19,1.52-26.38,8.45s-9.85,16.37-14.71,24.72c-13.57,23.28-46.82,9.64-68,11-24.22,1.56-43.17,22.62-67.33,21.5-12.3-.57-24.09-5.54-36.27-7.15-11.13-1.48-22.79-1.31-33.49,2.46-9.91,3.48-17.08,9.81-24.05,17.48-9.28,10.22-19.63,14.91-33.67,12.82-24-3.59-41.91-23.18-62.86-33.73-9.93-5-20.7-8.77-31.91-9.1-12.62-.38-27.12,9.32-38.93,3.71-9.8-4.65-16-14.07-26.89-17C76,339.76,64.21,348.17,51,351.23c-5.63,1.31-14.23,2.25-17.49-4-3.47-6.61,1.21-15.7,4.65-21.29,6.36-10.34,15.58-17.93,26.19-23.45l5,5.29a37.09,37.09,0,0,0,5.08,4.86c13.36,10.59,30.78,10.16,47,11,40,2.11,79,12.44,119,14.65,37.53,2.07,75.5,2.31,113.08,1.29,37.09-1,74.39-4.26,110.55-12.95a308.67,308.67,0,0,0,56.66-19.27c13.71-6.3,26.79-14.92,34.73-27.83,2.43,2.23,5.19,4.29,8,6.69C567.71,289.94,571.32,294,569.45,300.12Z"/><path class="cls-6" d="M129.73,254.84c3.34,2.47,8.26,7.76,12.46,8.34,8.46,1.17,7.08-10.2,4.83-14.74-3.69-7.41-11.06-11.27-18.4-14.3a3.32,3.32,0,0,0-3-2.07,7.25,7.25,0,0,0-3,.35,1.23,1.23,0,0,0-1.24-.2c-5.76,2.53-3.55,11-.66,14.93C123.09,250.31,126.63,252.55,129.73,254.84Zm-6.56-14.79.86-.9a4.23,4.23,0,0,0,1,.54c4.34,1.8,9,3.75,12.45,7a16.33,16.33,0,0,1,4.41,6.49q.47,1.62.78,3.27l-2.47-1.71c-3.78-2.61-7.61-5.18-11.38-7.82a25,25,0,0,1-6-6.27A2.06,2.06,0,0,0,123.17,240.05Z"/><path class="cls-6" d="M231.84,184.65a3.33,3.33,0,0,0,4,2.26,38.25,38.25,0,0,0,22.36-12.67c3.78-4.4,10.16-14.79,1.46-17.89-7-2.49-16.78,5.24-21.47,9.63-4.25,4-10,10.93-6.77,16.6A13.1,13.1,0,0,0,231.84,184.65ZM245,167.52a45.49,45.49,0,0,1,6.25-3.58c2.16-1,7.26-4.26,5.63,1.06-1.24,4.05-6.67,8.34-10,10.58a33.83,33.83,0,0,1-9.69,4.33c-.08-.3-.15-.61-.24-.91a2.56,2.56,0,0,0-1.82-1.83C237.13,173.16,242.52,169.22,245,167.52Z"/><path class="cls-6" d="M230.92,260.13c7.4-2.6,14.7-10.6,4.49-15.45-7.33-3.49-17.43-3.09-25.74-.66a3.21,3.21,0,0,0-.45-.24c-7.42-2.62-13.09,4.81-7.48,10.86C208,261.45,222.61,263.05,230.92,260.13Zm-22.34-11.67a3.16,3.16,0,0,0,.79-.22c7.89-.85,21.57-1.53,21.95,3s-9.33,4.13-12.74,3.61a33.21,33.21,0,0,1-6-1.49l-2.06-.76Q205.81,252.18,208.58,248.46Z"/><path class="cls-6" d="M300.93,217.79c.68,8.7,7,17.54,11.68,24.1,5.09,7.17,13.39,5.18,14.35-4,.53-5.14-1.73-10-4.16-14.34-2.53-4.56-5.39-11.27-9.71-14.49a8,8,0,0,0-10.4.91,1.69,1.69,0,0,0-1.05,1.11c0,.1,0,.19-.07.29a7.17,7.17,0,0,0-.66,6.38Zm6.46-3.95c2.76-.87,4.58,3.48,5.59,5.11,2.62,4.28,5.95,8.86,7.32,13.7a11.38,11.38,0,0,1,.68,4.23q-3.93,3-5.32-.93c-1.62-1.33-2.86-4.29-3.94-6-2.34-3.76-5.6-8.26-6.62-12.91C306,215.68,306.89,214,307.39,213.84Z"/><path class="cls-6" d="M372.48,204.6c4,2.6,7.86-2.15,10.43-4.59,4.67-4.4,9-9.32,11.33-15.4,2.44-6.41,2.25-22.87-8.66-16.06-7,4.35-13.59,11.68-15.29,19.89a23.3,23.3,0,0,0-.59,2.66C369.13,194.61,368.89,202.26,372.48,204.6Zm7.39-23.26a2,2,0,0,0,0-1.73c2.7-2.82,8.55-8.38,10.23-6.56,2.8,3-2.6,12.47-4.25,14.82-1.41,2-6.59,8.91-10,10.84C373.68,193,377.25,186.38,379.87,181.34Z"/><path class="cls-6" d="M452.82,234.67c5.47-4.28,16.64-12.27,12.69-20.61-4.25-9-14.31-1.41-19.29,2a2.43,2.43,0,0,0-1,1.45c-4.37,3.64-7.71,8.23-8.29,14.37C435.86,243.32,447.1,239.16,452.82,234.67Zm-7.7-9.29a33.8,33.8,0,0,1,4.64-5.57,19.77,19.77,0,0,0,3.22-1.68,12.38,12.38,0,0,1,2.92-1.84c1.18-.32,4-.45,4.44,1.21,1.06,3.68-8.74,10.58-11.14,12.47-1,.79-5.39,4.7-6.69,3.48S444.55,226.25,445.12,225.38Z"/><path class="cls-6" d="M381.56,273c5.87.88,13.77,2.24,19.57.74,10.94-2.84-1.66-13.38-6.15-15.61-7.21-3.58-21.43-6.42-27.06,1.13,0,0,0,0,0,0-2.37,1.91-3.17,4.64-.11,8.28S377,272.31,381.56,273Zm-9.37-11.3c3.38-.23,6.73-1.27,10.21-1,4.89.33,12.34,2.18,15.42,6.3,2,1.49,1.51,1.92-1.39,1.31-1.72,0-3.44,0-5.16,0-2.57-.05-5.16-.13-7.72-.38-1.95-.19-9.72-.7-11.2-2.83A2.7,2.7,0,0,1,372.19,261.68Z"/><path class="cls-6" d="M276,295.51c5.37-.92,14.49-3.77,13.9-10.73-.5-6-8.35-6.83-13.34-5-4.73.56-9.5,2.08-11.4,6.63C262.13,293.55,270.34,296.47,276,295.51Zm-3.71-9.31a27,27,0,0,1,2.91-1.61c2.11.07,8.54-.56,9,.46,1.07,2.4-5.91,4.17-7.26,4.56s-4.44,1.44-5.74.49l-.69-2.5A7.86,7.86,0,0,1,272.26,286.2Z"/></svg>