<svg id="Layer_1" data-name="Layer 1" xmlns="http://www.w3.org/2000/svg" viewBox="0 0 600 600"><defs><style>.cls-1{fill:#fff;}.cls-2{fill:#009344;}.cls-3{fill:#fff200;}.cls-4{fill:#8dc63f;}.cls-5{fill:#231f20;}</style></defs><title>doodle</title><path class="cls-1" d="M212.11,344.09a5,5,0,0,1-1.45,1.21c-.35,3,.23,5.55,3.31,5.84C219.67,351.68,213.75,342.13,212.11,344.09Z"/><path class="cls-1" d="M368.87,332.59c1.9-.72,1-6.43,0-7.57a3.11,3.11,0,0,0-3.33-.69,10.35,10.35,0,0,0-.67,3.71C364.93,329.64,366.58,333.46,368.87,332.59Z"/><path class="cls-2" d="M256.28,113.5c.15-.61.3-1.23.46-1.84-.89-10.75-1.41-21.56-1.81-32.33-.26-7.33-.37-14.66-.39-22,0-3.32.8-7.63.11-10.81s-2.52-4-4.81-3.77c.77,13.07,1.24,26.14,2.46,39.19C253.29,92.47,255.1,103,256.28,113.5Z"/><path class="cls-1" d="M257.79,122.55c-.1-.88-.19-1.77-.28-2.65a4.36,4.36,0,0,1-.65-.48c.09,1.07.19,2.14.26,3.21Z"/><path class="cls-2" d="M310.59,76.88a3.16,3.16,0,0,1,1.87,4.59c-2.17,4-6.3,5.52-10.15,7.58A147.6,147.6,0,0,0,289,97a136.73,136.73,0,0,0-13.13,10.11l-.67.6c33.23-.57,67,.07,97.13-16.26,13.26-7.18,25.24-17.17,33.07-30.2,7.35-12.24,10.38-26.37,15.1-39.79-56.82,9-123.93,24.42-150.59,78.66a159.39,159.39,0,0,1,12.55-9.92C289.41,85,301.29,74.74,310.59,76.88Zm16.87-4.63c6.78-4.92,14.61-8.16,22.26-11.47C356.41,57.9,363.54,54,370.94,54a3.47,3.47,0,0,1,2.43,5.86c-5.62,5.34-14,7.52-21.13,10.11-7.74,2.8-15.4,5.6-23.58,6.68C326.06,77,325.82,73.44,327.46,72.25Z"/><path class="cls-3" d="M209.83,241.76c-13.22,16.59-26.58,32.46-36.41,51.43s-16.57,40-17.84,61.44C153.27,393.7,170,432.44,192.3,463.79c21.18,29.83,53.37,44.49,81.93,65.7a150.33,150.33,0,0,1,19.63,17c6.12,6.44,10.83,14,16.81,20.54,5.76,6.3,15.86,13.47,24.12,7,5.1-4,7.48-11.39,10.49-16.9,8.53-15.64,23.2-26.4,35.33-39a241.18,241.18,0,0,0,33-43.24c37.29-62.46,42.17-144,.37-205.71-19.54-28.85-47.47-50.77-74.28-72.48-13.81-11.19-27.61-22.43-40.43-34.74-11.55-11.09-28.28-34.63-47.11-26.23a5.94,5.94,0,0,1-3.78.39c-10.85,10.17-8.49,36.85-10.64,48.89C233.9,206.45,223.32,224.83,209.83,241.76Zm-9,40a4.63,4.63,0,0,1,3.27-3.61,1.78,1.78,0,0,1,2,.8,5.59,5.59,0,0,1,0,5.23,2.82,2.82,0,0,1-1.66,2.67,1.79,1.79,0,0,1-1.78,0l-.11-.1-.09,0C199.55,287,199.27,283,200.87,281.76Zm.63,109.05a6.66,6.66,0,0,1-4.57,1.89,6.46,6.46,0,0,1-4.56-11,6.66,6.66,0,0,1,4.56-1.89,6.46,6.46,0,0,1,4.57,11Zm9.78,60.57a1.62,1.62,0,0,1-2.24,0,7.46,7.46,0,0,1-1.09-1.87,3.45,3.45,0,0,1-.85-2.4,4.33,4.33,0,0,1,1.79-3.33c1.12-.78,2.83-1.06,3.65.27A5.94,5.94,0,0,1,211.28,451.38Zm10.12-91.07c-7.61,4.88-17.41.08-20.46-7.87a16.68,16.68,0,0,1,3.49-16.61c4.06-6.09,14.53-3,18.92,1.9C229.2,344.24,229.27,355.25,221.4,360.31Zm192.7-48.75c.53-.36,1.15.28,1,.78,1.81-.8,4.1-.56,5.15,1.46,1.14,2.2-.2,4.19-2.1,5.07a10.72,10.72,0,0,1-.3,1.05,1.45,1.45,0,0,1-1.39,1.06C412,320.43,410.21,314.16,414.1,311.56ZM409.21,409a4.67,4.67,0,0,1,3.35-2.1.22.22,0,0,1,.08,0c.22-.17.45-.32.67-.46a1.8,1.8,0,0,1,2.1.27,5.77,5.77,0,0,1,1.18,6.88,1.63,1.63,0,0,1-1.41.81l-4.84,0a1.64,1.64,0,0,1-1.5-1.15A4.88,4.88,0,0,1,409.21,409Zm-24.5-49.26.38-.29a4.82,4.82,0,0,1,2.08-1.34,3.15,3.15,0,0,1,1.64-.44,6.39,6.39,0,0,1,4.13.76,6.77,6.77,0,0,1,3.21,5.6,6.44,6.44,0,0,1-4,5.92,6.25,6.25,0,0,1-4.22.33l-1.54-.66-1.31-1-.38-.29a5.84,5.84,0,0,1-1.78-4.29A6,6,0,0,1,384.71,359.75Zm-2,115.37a2.93,2.93,0,0,1,1.36.95c1.9.11,3.8,2,4.79,3.57a1.83,1.83,0,0,1-1.09,2.66,5.6,5.6,0,0,1-3.3-.11,1.76,1.76,0,0,1-.53.27,2.22,2.22,0,0,1-3-1.69,2.71,2.71,0,0,1-1.17-1.42,2.62,2.62,0,0,1,.63-2.85s.07-.05.11-.08A1.79,1.79,0,0,1,382.73,475.12ZM356.87,233.58a1.7,1.7,0,0,1,1.21-.82,4.18,4.18,0,0,1,3.24,0h2a1.67,1.67,0,0,1,1.47.84,4.59,4.59,0,0,1-.52,4.75,4.52,4.52,0,0,1-3.26,1.76,3.12,3.12,0,0,1-3.45-.8A5,5,0,0,1,356.87,233.58Zm.23,85.28c.16-.22.33-.4.5-.6,2.26-6.41,13.57-7.13,18.78-2.31,6.94,6.41,7.34,20.15-.64,25.93-8.18,5.93-19.48-.59-21.49-9.68A16.76,16.76,0,0,1,357.1,318.86ZM352,419.77a1.65,1.65,0,0,1,2.56-.33,8.93,8.93,0,0,0,.94.79,1.8,1.8,0,0,1,1.4-.5,3.16,3.16,0,0,1,1.68.81c1.6,1.48,1.41,4.11.23,5.78a3.73,3.73,0,0,1-.32.36,3,3,0,0,1-.6.75A2.19,2.19,0,0,1,356,428a4.2,4.2,0,0,1-3.43-1.29A5.6,5.6,0,0,1,352,419.77Zm-61.19,51.17a1.63,1.63,0,0,1-1,.44.92.92,0,0,1-.32.14,2.45,2.45,0,0,1-2.8-1.88,6,6,0,0,1-.45-.75,4.59,4.59,0,0,1,.08-4.25c1-1.65,3.15-1.29,4.58-.4a4.4,4.4,0,0,1,2.2,3.75A3.1,3.1,0,0,1,290.83,470.94Zm31-154.29a1.78,1.78,0,0,1,1.69-1.29c2.52-.07,5.25.94,6.53,3.24a5.34,5.34,0,0,1-.76,6.14,3.73,3.73,0,0,1-5.64,0,4,4,0,0,1-.91-3.45A6.7,6.7,0,0,1,321.85,316.65Zm-5.31,209.26a2.45,2.45,0,0,1,1.25.84,1.8,1.8,0,0,1,.27,2.07,2.17,2.17,0,0,1-1.57,1.28,3.83,3.83,0,0,1-1.72,1.39,1.18,1.18,0,0,1-.76,0l-.14,0c-2.36-.13-2.29-2.86-1.16-4.32a2,2,0,0,1,.27-1.32,1.15,1.15,0,0,1,.78-.83c.07,0,.11-.09.17-.13a1.69,1.69,0,0,1,2,.26A2.77,2.77,0,0,1,316.54,525.91Zm-2.46-123.52a4,4,0,0,1,.09,4.33,2.83,2.83,0,0,1-3.08,1.08,1.54,1.54,0,0,1-.43-.06,5,5,0,0,1-2.7-7.35,1.55,1.55,0,0,1,1.72-.7C311.32,400.21,313.11,400.87,314.08,402.39ZM301.79,258.24l.24-.09a3.52,3.52,0,0,1,.51-.1,1.88,1.88,0,0,1,2.58.11,4.09,4.09,0,0,1,1,2.14,3.77,3.77,0,0,1,.85,3.28c-.41,2-2.92,3.58-4.63,2a3.43,3.43,0,0,1-1.41-.48,4.19,4.19,0,0,1-1.59-4.39A3.15,3.15,0,0,1,301.79,258.24Zm-2.68-60.42a2.17,2.17,0,0,1-1.81,3.3,2.63,2.63,0,0,1-.49-.07,1.85,1.85,0,0,1-2.71-.53C292.58,197.51,297.48,194.85,299.11,197.82ZM273,355.77c4.85,6.43,7.61,16.77,17.91,14.07,11.21-2.94,6.08-15.68,8.42-23.62a3.92,3.92,0,0,1,7.08-.92c7.5,12.39.05,31.58-14.42,34.1-14,2.42-25.32-9.27-22.66-23.15C269.73,354.37,272.11,354.54,273,355.77Zm-10.39-197a6,6,0,0,1,4.38-.73,4.11,4.11,0,0,1,1-.09c3.89.26,3.29,5.64,1.25,7.66l-.19.16a.34.34,0,0,1,0,.1,1.69,1.69,0,0,1-.84,1.46,5.83,5.83,0,0,1-5,.37,1.64,1.64,0,0,1-1.17-1.53c0-.32,0-.64.07-.95a5.27,5.27,0,0,1-1.11-1.76A3.57,3.57,0,0,1,262.65,158.8ZM255,298a4.59,4.59,0,0,1-2,3.49,6.1,6.1,0,0,1-1.7,2.47,1.65,1.65,0,0,1-2.56-.33,9.66,9.66,0,0,1-.8-1.87,3.62,3.62,0,0,1-1.75-2.18,4.51,4.51,0,0,1,1.75-4.69,3.56,3.56,0,0,1,3.54-2.33C253.78,292.66,255.1,296,255,298Zm-8.85-72.75a3.57,3.57,0,0,1,.08-1,2.88,2.88,0,0,1,4.26-1.82,3.4,3.4,0,0,1,.81,4.78,2.75,2.75,0,0,1-1.11.89,2.58,2.58,0,0,1-.53.19l-.7,0a1.73,1.73,0,0,1-2.91,1A2.91,2.91,0,0,1,246.12,225.21ZM246,420a2.73,2.73,0,0,1,1.06-1.46,4.39,4.39,0,0,1,6,1.57,1.51,1.51,0,0,1-.23,1.78,4.53,4.53,0,0,1-1.7,1.26c-.4,1.5-1.85,2.66-3.47,1.6a4.23,4.23,0,0,1-1.6-2.25,4.55,4.55,0,0,1-1-1A1,1,0,0,1,246,420Z"/><path class="cls-4" d="M194.71,124.94c11.61,3.18,25.38,1.74,37.52-2.45-1.06-.35-2.1-.72-3.09-1.07-5.63-2-11-4.71-15.07-9.14a2.42,2.42,0,0,1,2.33-4c5.53,1,10.75,3,16.15,4.55,4,1.14,8.6,1.53,11.81,4.23l.41-.22c-4.17-4.93-8.16-10-13.68-13.73-7.42-5-16.21-7.64-25-9-15-2.39-34.2-3.74-48.86,2.54C167.58,108.64,179.09,120.66,194.71,124.94Z"/><path class="cls-5" d="M195.07,135.76c10,2,20.37.63,30.36-1a68.52,68.52,0,0,0,16.81-4.64c-6.36,5.9-10.32,15.06-11.74,23.86-1.76,10.9-1.31,21.92-3.82,32.75a102.91,102.91,0,0,1-12.24,30.21C203.51,235,188,249.81,176.19,267.29a192,192,0,0,0-26.05,55.12c-11.6,41.24-3.27,82.22,16.2,119.64,9.52,18.31,21,36.12,36.17,50.3,13.73,12.85,29.89,22.67,45.62,32.82s31.23,21,42.86,35.74c10.51,13.35,23.39,32.71,43.53,26.66,8-2.4,13.23-9.17,17.06-16.22,4.51-8.33,8.62-15.92,15.25-22.86,13.5-14.13,28-26.71,40-42.24,48.62-62.63,65.8-148.37,30.85-221.65-16.87-35.36-45.79-61.93-75.7-86.28-14.9-12.13-30.09-23.94-44.44-36.73-13.93-12.42-26.51-30.38-44.51-37a35.4,35.4,0,0,0-5.64-1.57c-.11-1.46-.21-2.92-.31-4.38,37.11,2.45,77.74.9,111.09-17.14,13.88-7.52,26.28-18,35.15-31.08,10.95-16.2,13.25-35.85,21.27-53.33,2.24-4.87-1.41-9.37-6.58-8.57-38.72,6-78.64,12.37-113,32.43-20.28,11.83-38.61,28.6-49.8,49.26-.55-9.65-1-19.3-1.21-29-.14-6.79,1.65-17-3.08-22.72-4-4.87-10.94-4.47-16.44-2.91a4.13,4.13,0,0,0-3,3.91c-.27,14.56.93,29.26,2.37,43.74.7,7,1.33,14.22,2.28,21.36C236.59,93.91,223.26,87,208.79,84.39c-19.82-3.54-44.73-5.15-62.41,6.07-3,1.92-3.28,5.61-1.06,8.24C158.66,114.46,173.8,131.53,195.07,135.76ZM420.47,21.42c-4.72,13.42-7.75,27.55-15.1,39.79-7.83,13-19.81,23-33.07,30.2-30.14,16.33-63.9,15.69-97.13,16.26l.67-.6A136.73,136.73,0,0,1,289,97a147.6,147.6,0,0,1,13.34-7.91c3.85-2.06,8-3.63,10.15-7.58a3.16,3.16,0,0,0-1.87-4.59c-9.3-2.14-21.18,8.07-28.16,13.28a159.39,159.39,0,0,0-12.55,9.92C296.54,45.84,363.65,30.43,420.47,21.42ZM254.65,46.53c.69,3.18-.12,7.49-.11,10.81,0,7.33.13,14.66.39,22,.4,10.77.92,21.58,1.81,32.33-.16.61-.31,1.23-.46,1.84-1.18-10.52-3-21-4-31.55-1.22-13-1.69-26.12-2.46-39.19C252.13,42.54,253.93,43.26,254.65,46.53ZM248.4,136a5.94,5.94,0,0,0,3.78-.39c18.83-8.4,35.56,15.14,47.11,26.23,12.82,12.31,26.62,23.55,40.43,34.74,26.81,21.71,54.74,43.63,74.28,72.48,41.8,61.72,36.92,143.25-.37,205.71a241.18,241.18,0,0,1-33,43.24c-12.13,12.64-26.8,23.4-35.33,39-3,5.51-5.39,12.89-10.49,16.9-8.26,6.51-18.36-.66-24.12-7-6-6.54-10.69-14.1-16.81-20.54a150.33,150.33,0,0,0-19.63-17c-28.56-21.21-60.75-35.87-81.93-65.7-22.26-31.35-39-70.09-36.72-109.16,1.27-21.45,8-42.44,17.84-61.44s23.19-34.84,36.41-51.43c13.49-16.93,24.07-35.31,27.93-56.86C239.91,172.86,237.55,146.18,248.4,136ZM206.12,94.07c8.76,1.4,17.55,4,25,9,5.52,3.73,9.51,8.8,13.68,13.73l-.41.22c-3.21-2.7-7.81-3.09-11.81-4.23-5.4-1.53-10.62-3.56-16.15-4.55a2.42,2.42,0,0,0-2.33,4c4.11,4.43,9.44,7.12,15.07,9.14,1,.35,2,.72,3.09,1.07-12.14,4.19-25.91,5.63-37.52,2.45-15.62-4.28-27.13-16.3-37.45-28.33C171.92,90.33,191.13,91.68,206.12,94.07Z"/><path class="cls-5" d="M204.43,335.83a16.68,16.68,0,0,0-3.49,16.61c3.05,7.95,12.85,12.75,20.46,7.87,7.87-5.06,7.8-16.07,1.95-22.58C219,332.83,208.49,329.74,204.43,335.83ZM214,351.14c-3.08-.29-3.66-2.81-3.31-5.84a5,5,0,0,0,1.45-1.21C213.75,342.13,219.67,351.68,214,351.14Z"/><path class="cls-5" d="M375.74,341.88c8-5.78,7.58-19.52.64-25.93-5.21-4.82-16.52-4.1-18.78,2.31-.17.2-.34.38-.5.6a16.76,16.76,0,0,0-2.85,13.34C356.26,341.29,367.56,347.81,375.74,341.88Zm-10.19-17.55a3.11,3.11,0,0,1,3.33.69c1,1.14,1.89,6.85,0,7.57-2.29.87-3.94-2.95-4-4.55A10.35,10.35,0,0,1,365.55,324.33Z"/><path class="cls-5" d="M384.71,368.33l.38.29,1.31,1,1.54.66a6.25,6.25,0,0,0,4.22-.33,6.44,6.44,0,0,0,4-5.92,6.77,6.77,0,0,0-3.21-5.6,6.39,6.39,0,0,0-4.13-.76,3.15,3.15,0,0,0-1.64.44,4.82,4.82,0,0,0-2.08,1.34l-.38.29a6,6,0,0,0-1.78,4.29A5.84,5.84,0,0,0,384.71,368.33Z"/><path class="cls-5" d="M196.93,379.79a6.66,6.66,0,0,0-4.56,1.89,6.46,6.46,0,0,0,4.56,11,6.66,6.66,0,0,0,4.57-1.89,6.46,6.46,0,0,0-4.57-11Z"/><path class="cls-5" d="M269.37,356.25c-2.66,13.88,8.7,25.57,22.66,23.15,14.47-2.52,21.92-21.71,14.42-34.1a3.92,3.92,0,0,0-7.08.92c-2.34,7.94,2.79,20.68-8.42,23.62-10.3,2.7-13.06-7.64-17.91-14.07C272.11,354.54,269.73,354.37,269.37,356.25Z"/><path class="cls-5" d="M328.66,76.66c8.18-1.08,15.84-3.88,23.58-6.68,7.16-2.59,15.51-4.77,21.13-10.11A3.47,3.47,0,0,0,370.94,54c-7.4,0-14.53,3.89-21.22,6.77-7.65,3.31-15.48,6.55-22.26,11.47C325.82,73.44,326.06,77,328.66,76.66Z"/><path class="cls-5" d="M248.93,228.25l.7,0a2.58,2.58,0,0,0,.53-.19,2.75,2.75,0,0,0,1.11-.89,3.4,3.4,0,0,0-.81-4.78,2.88,2.88,0,0,0-4.26,1.82,3.57,3.57,0,0,0-.08,1,2.91,2.91,0,0,0-.1,4A1.73,1.73,0,0,0,248.93,228.25Z"/><path class="cls-5" d="M296.81,201.05a2.63,2.63,0,0,0,.49.07,2.17,2.17,0,0,0,1.81-3.3c-1.63-3-6.53-.31-5,2.7A1.85,1.85,0,0,0,296.81,201.05Z"/><path class="cls-5" d="M300.92,265.09a3.43,3.43,0,0,0,1.41.48c1.71,1.59,4.22,0,4.63-2a3.77,3.77,0,0,0-.85-3.28,4.09,4.09,0,0,0-1-2.14,1.88,1.88,0,0,0-2.58-.11,3.52,3.52,0,0,0-.51.1l-.24.09a3.15,3.15,0,0,0-2.46,2.46A4.19,4.19,0,0,0,300.92,265.09Z"/><path class="cls-5" d="M361,240.09a4.52,4.52,0,0,0,3.26-1.76,4.59,4.59,0,0,0,.52-4.75,1.67,1.67,0,0,0-1.47-.84h-2a4.18,4.18,0,0,0-3.24,0,1.7,1.7,0,0,0-1.21.82,5,5,0,0,0,.66,5.71A3.12,3.12,0,0,0,361,240.09Z"/><path class="cls-5" d="M247.94,294.85a4.51,4.51,0,0,0-1.75,4.69,3.62,3.62,0,0,0,1.75,2.18,9.66,9.66,0,0,0,.8,1.87,1.65,1.65,0,0,0,2.56.33,6.1,6.1,0,0,0,1.7-2.47,4.59,4.59,0,0,0,2-3.49c.13-1.94-1.19-5.3-3.49-5.44A3.56,3.56,0,0,0,247.94,294.85Z"/><path class="cls-5" d="M202.49,286.77l.09,0,.11.1a1.79,1.79,0,0,0,1.78,0,2.82,2.82,0,0,0,1.66-2.67,5.59,5.59,0,0,0,0-5.23,1.78,1.78,0,0,0-2-.8,4.63,4.63,0,0,0-3.27,3.61C199.27,283,199.55,287,202.49,286.77Z"/><path class="cls-5" d="M262.23,165.25c0,.31-.06.63-.07.95a1.64,1.64,0,0,0,1.17,1.53,5.83,5.83,0,0,0,5-.37,1.69,1.69,0,0,0,.84-1.46.34.34,0,0,0,0-.1l.19-.16c2-2,2.64-7.4-1.25-7.66a4.11,4.11,0,0,0-1,.09,6,6,0,0,0-4.38.73,3.57,3.57,0,0,0-1.53,4.69A5.27,5.27,0,0,0,262.23,165.25Z"/><path class="cls-5" d="M323.67,324.72a3.73,3.73,0,0,0,5.64,0,5.34,5.34,0,0,0,.76-6.14c-1.28-2.3-4-3.31-6.53-3.24a1.78,1.78,0,0,0-1.69,1.29,6.7,6.7,0,0,0,.91,4.62A4,4,0,0,0,323.67,324.72Z"/><path class="cls-5" d="M416.48,321a1.45,1.45,0,0,0,1.39-1.06,10.72,10.72,0,0,0,.3-1.05c1.9-.88,3.24-2.87,2.1-5.07-1-2-3.34-2.26-5.15-1.46.13-.5-.49-1.14-1-.78C410.21,314.16,412,320.43,416.48,321Z"/><path class="cls-5" d="M356,428a2.19,2.19,0,0,0,1.88-.52,3,3,0,0,0,.6-.75,3.73,3.73,0,0,0,.32-.36c1.18-1.67,1.37-4.3-.23-5.78a3.16,3.16,0,0,0-1.68-.81,1.8,1.8,0,0,0-1.4.5,8.93,8.93,0,0,1-.94-.79,1.65,1.65,0,0,0-2.56.33,5.6,5.6,0,0,0,.58,6.89A4.2,4.2,0,0,0,356,428Z"/><path class="cls-5" d="M246.11,422.5a4.23,4.23,0,0,0,1.6,2.25c1.62,1.06,3.07-.1,3.47-1.6a4.53,4.53,0,0,0,1.7-1.26,1.51,1.51,0,0,0,.23-1.78,4.39,4.39,0,0,0-6-1.57A2.73,2.73,0,0,0,246,420a1,1,0,0,0-.87,1.54A4.55,4.55,0,0,0,246.11,422.5Z"/><path class="cls-5" d="M308,400.39a5,5,0,0,0,2.7,7.35,1.54,1.54,0,0,0,.43.06,2.83,2.83,0,0,0,3.08-1.08,4,4,0,0,0-.09-4.33c-1-1.52-2.76-2.18-4.4-2.7A1.55,1.55,0,0,0,308,400.39Z"/><path class="cls-5" d="M290.89,464.24c-1.43-.89-3.59-1.25-4.58.4a4.59,4.59,0,0,0-.08,4.25,6,6,0,0,0,.45.75,2.45,2.45,0,0,0,2.8,1.88.92.92,0,0,0,.32-.14,1.63,1.63,0,0,0,1-.44,3.1,3.1,0,0,0,2.26-2.95A4.4,4.4,0,0,0,290.89,464.24Z"/><path class="cls-5" d="M208.89,443.78a4.33,4.33,0,0,0-1.79,3.33,3.45,3.45,0,0,0,.85,2.4,7.46,7.46,0,0,0,1.09,1.87,1.62,1.62,0,0,0,2.24,0,5.94,5.94,0,0,0,1.26-7.33C211.72,442.72,210,443,208.89,443.78Z"/><path class="cls-5" d="M313.93,525c-.06,0-.1.09-.17.13a1.15,1.15,0,0,0-.78.83,2,2,0,0,0-.27,1.32c-1.13,1.46-1.2,4.19,1.16,4.32l.14,0a1.18,1.18,0,0,0,.76,0,3.83,3.83,0,0,0,1.72-1.39,2.17,2.17,0,0,0,1.57-1.28,1.8,1.8,0,0,0-.27-2.07,2.45,2.45,0,0,0-1.25-.84,2.77,2.77,0,0,0-.59-.69A1.69,1.69,0,0,0,313.93,525Z"/><path class="cls-5" d="M380.53,476.42s-.08,0-.11.08a2.62,2.62,0,0,0-.63,2.85,2.71,2.71,0,0,0,1.17,1.42,2.22,2.22,0,0,0,3,1.69,1.76,1.76,0,0,0,.53-.27,5.6,5.6,0,0,0,3.3.11,1.83,1.83,0,0,0,1.09-2.66c-1-1.55-2.89-3.46-4.79-3.57a2.93,2.93,0,0,0-1.36-.95A1.79,1.79,0,0,0,380.53,476.42Z"/><path class="cls-5" d="M410.34,414.37l4.84,0a1.63,1.63,0,0,0,1.41-.81,5.77,5.77,0,0,0-1.18-6.88,1.8,1.8,0,0,0-2.1-.27c-.22.14-.45.29-.67.46a.22.22,0,0,0-.08,0,4.67,4.67,0,0,0-3.35,2.1,4.88,4.88,0,0,0-.37,4.21A1.64,1.64,0,0,0,410.34,414.37Z"/></svg>