<svg id="Layer_1" data-name="Layer 1" xmlns="http://www.w3.org/2000/svg" viewBox="0 0 600 600"><defs><style>.cls-1{fill:#fff;}.cls-2{fill:#f7941e;}.cls-3{fill:#fbb040;}.cls-4{fill:#231f20;}</style></defs><title>doodle</title><path class="cls-1" d="M411,59.56c-2,23.52-14.52,44.29-27,63.74,12.06,9.77,20.94,22,29.16,34.75a84.36,84.36,0,0,0,10.83-20.82l-.45.1c-3.27.58-6.39-2.63-4.49-5.84a92.42,92.42,0,0,0,12.81-51.18A21.77,21.77,0,0,1,429.9,82c-2.38,1.87-7.11,1-6.77-2.8a70.64,70.64,0,0,0-8.64-40.61A75.58,75.58,0,0,0,405,25.05,66.61,66.61,0,0,1,411,59.56Z"/><path class="cls-2" d="M401.9,62.83c2.26-15.27-.81-32.67-11.21-44.44a108.64,108.64,0,0,1-18.34,46.39c-8.82,12.67-21.65,26.57-36.41,33.38a152.44,152.44,0,0,1,41,19.92C387.91,101.08,398.91,83.12,401.9,62.83Zm-36,22c-4.06,4.41-9.52,9.85-15.81,10.26-.88.05-.93-1.19-.19-1.45,5.81-2.1,10.95-7.67,14.83-12.35,3.56-4.27,5.72-9.53,9.35-13.68.48-.56,1.65-.14,1.54.64C374.75,74.51,370,80.31,365.87,84.84ZM376.24,65a37,37,0,0,0,2.27-3.85c.64-1.19,1.05-2.72,2.23-3.47a1.1,1.1,0,0,1,1.59.64c.43,1.52-.67,3.23-1.52,4.44a14.67,14.67,0,0,1-3.43,3.38C376.72,66.68,375.77,65.7,376.24,65Z"/><path class="cls-2" d="M160.13,139.87c.9-1.09,1.84-2.16,2.8-3.2,6.82-8.51,16.72-15.11,25.82-20.33a139.52,139.52,0,0,1,13.45-6.74c-6.72-1.79-12.89-6.84-18-11a131.64,131.64,0,0,1-19.81-19.89A198.67,198.67,0,0,1,139.7,39.17a116.27,116.27,0,0,0,19.68,99.1A3.86,3.86,0,0,1,160.13,139.87Zm9.93-43c2,2.2,5.06,3.67,6.38,6.47a.82.82,0,0,1-.92,1.19c-3.23-1-4.76-4.23-6.59-6.78C168.45,97,169.52,96.25,170.06,96.84Zm-19.8-26.39a.74.74,0,0,1,1.48,0c.36,8.6,9.39,14.42,13.22,21.4a.78.78,0,0,1-1.06,1.06c-4-2.15-6.89-6.29-9.33-10.06S149.89,75.12,150.26,70.45Z"/><path class="cls-1" d="M152.84,150.28c1.22-2,2.56-4.08,4-6.1a4.47,4.47,0,0,1-4.78-1.63c-21.6-28.53-29.38-66.31-21.6-101-1.35,1.79-2.65,3.65-3.85,5.61a97.74,97.74,0,0,0-9.16,19.67,89.64,89.64,0,0,0-3.5,44.42c.74,4.12-5.06,7.28-7.19,3L104.13,109c-1.8,11.37,4.56,24.24,9.57,33.85,6.37,12.22,15.51,24,29.21,28A135.43,135.43,0,0,1,152.84,150.28Z"/><path class="cls-1" d="M315.44,273.1a101.38,101.38,0,0,1-25.81-7.25c-3.07-1.35-8.64-3.47-12.13-6.56a4.45,4.45,0,0,1-.92.78c-28.17,17.65-61.7,19.87-94,17.39-15.66-1.21-31.66-2.76-47-6.23-12-2.72-25.06-7.15-34.32-15.74a51.11,51.11,0,0,1-10.92,4.32,56.35,56.35,0,0,1-6.83,1.38c9.8,8.06,21,13.42,34.3,14.14,4,.21,5.31,4.41,3,7.32a54,54,0,0,1-33.44,19.86c21.41,30,60.76,45.77,97,37.86,4.68-1,7.17,4.09,4.4,7.57a42.93,42.93,0,0,1-20.15,14c17.41,12.22,40.41,13.59,61.16,10.9,12.24-1.59,26.54-3.39,37.24-9.94,9.3-5.69,16-14.78,25.75-19.82a3.6,3.6,0,0,1,5.62-.2c14.8,15.94,43.41,14.7,62.83,10.21a105.86,105.86,0,0,0,49.89-27,91.26,91.26,0,0,1-21.8-6.88c-3.93-1.78-1.67-7.52,2.07-7.64,10.95-.35,22-.43,32.75-2.79a84.71,84.71,0,0,0,27.69-11.94,262.3,262.3,0,0,0,23.66-17.78,87.68,87.68,0,0,0,11.83-11.16,75.46,75.46,0,0,1-40-3.22c-4.55-1.65-3.84-8.26,1.15-8.48,9.86-.43,18.39-5.5,25.51-12,3.73-3.43,6.79-7.59,10-11.54a53.13,53.13,0,0,1-21.21-5,191.72,191.72,0,0,1-93.66,44.48A170,170,0,0,1,315.44,273.1Zm-17.3,32.26c-3.73,5.62-9.72,6.3-16,5.26-6.5-1.07-12.69-4.66-16-10.46-2.68-4.64-4.47-12.11-.35-16.38a2.2,2.2,0,0,1,3.64,1c1.23,4.07.5,7.93,3.1,11.68A16.1,16.1,0,0,0,284,302.9c11.52,1.26,9.31-12.68,15.09-18.84,1.1-1.17,3.54-1,4.25.55C306.28,291.14,301.83,299.82,298.14,305.36Z"/><path class="cls-3" d="M360.26,362c-20.24,4-48.16,4.52-64.53-10.37-9.86,7-17.74,16.81-28.91,21.9-12,5.44-26.08,7.36-39,8.83-19.57,2.22-39.79.27-56.93-8.8-7.09,14.49-7.33,31.65-1.36,46.64,5,12.49,13.81,22.93,24.29,31.21-1.45-10,.25-20,4.35-29.67,1.56-3.66,7.09-1.57,7.11,1.92a50.93,50.93,0,0,0,14.18,35.61c8,8.27,18,14.17,27.53,20.42,9.72,6.36,19.22,13.17,26.45,22.39a69.68,69.68,0,0,1,7.44,11.7,92.38,92.38,0,0,0-1.18-12.06c-.7-4.28,4-7.59,7.48-4.35,12.53,11.75,14.37,29,17.79,44.94,2.5,11.64,7.33,21.84,13.31,31.53,1.46-22.92,20.26-45,27.6-66.1,1.18-3.41,6.32-4.74,8.21-1.07A80.19,80.19,0,0,1,363,540.59c22.38-24.85,30.36-61.16,19.52-93.17-1.55-4.57,4.49-7.36,7.66-4.46a103.46,103.46,0,0,1,26.47,38.8c16.58-17.77,23.84-42.24,25.4-66.28,1-15.13.55-30.72-6.94-44.29-6.73-12.2-17-21.81-26.64-31.68A112.29,112.29,0,0,1,360.26,362Zm-177.5,57.83c-6-7.84-7.21-17.85-5.42-27.35.19-1,1.63-.55,1.49.41-1.33,9.35,1,17.92,5,26.34A.6.6,0,0,1,182.76,419.81Zm64.55,15.89c-4.15-6.06-3.86-14.48-2.61-21.39.16-.92,1.73-.7,1.61.21-1,7.32,1,13.58,2.25,20.65A.69.69,0,0,1,247.31,435.7ZM276,463.56c-11.1-7.58-19.3-22.37-22-35.31-2.65-12.69-.38-27.1,8.89-36.65.42-.43,1.19.14.84.65a45.34,45.34,0,0,0-6.31,37.67,60.13,60.13,0,0,0,8.14,17.51c3.52,5.28,8,9.75,11.64,14.92C277.68,463.07,276.69,464,276,463.56Zm59.38,6.4c3.62-8.41,8.22-16.45,6.56-25.94a.86.86,0,0,1,1.65-.46c3.45,9.76-1.05,19.37-6.81,27.22A.81.81,0,0,1,335.36,470Zm8.75,11c-.68.71-1.58-.2-1.26-1,6.23-14.56,12.1-27.79,11.38-44.07-.69-15.46-6.65-30.19-15.52-42.73-.4-.56.48-1.21.93-.73a69.41,69.41,0,0,1,18.08,43.46C358.56,451.08,354.92,469.55,344.11,480.92Zm64.29-55.59c-.38.84-1.55.34-1.59-.43-.35-5.72.08-11.13-2.14-16.58-.46-1.11,1.41-1.87,1.91-.81C409.22,413,411,419.51,408.4,425.33Zm12.94-34.57a73.32,73.32,0,0,1,.3,23.42c-.95,7.33-1.91,16.05-5.46,22.61a1.13,1.13,0,0,1-2.08-.56c.06-6.82,2.72-13.75,3.74-20.5a79.82,79.82,0,0,0,.58-21.39C416.9,382,411.21,369.25,400.76,362c-.51-.36-.05-1.18.5-.85C412.26,367.61,418.91,378.33,421.34,390.76Z"/><path class="cls-1" d="M195.65,221.67c3.69-1.63,3.73-7.72.91-10.28-2-1.83-5.37.37-8.1,2.55a6.69,6.69,0,0,0-.34,2C188.1,219.71,191.87,223.33,195.65,221.67Z"/><path class="cls-2" d="M110,249.83c-.94.72-1.9,1.41-2.88,2.08a90.94,90.94,0,0,0,31.93,12.91c14.59,3,29.68,4.31,44.52,5.26,29,1.84,59.4-.64,85-15.25-6.16-1.36-11.64-4.59-10.85-10.45.63-4.67,5.12-5.81,9.07-6.83a68.44,68.44,0,0,1,18.19-2.19c4.77.09,10.65.27,14.31,3.8a7.9,7.9,0,0,1,1,10.39c-2.73,3.72-7.61,4.4-11.87,4.74-1.54.12-3.07.18-4.61.21,1,.52,2.11.94,3.09,1.41a94.85,94.85,0,0,0,12.7,5A111.69,111.69,0,0,0,324,265.59a171.6,171.6,0,0,0,48.85-3.27,184.27,184.27,0,0,0,81.06-39.51c-10.34-6.6-19.37-15.75-26.38-25-15.92-21-26.28-46.11-46.15-64-18.92-17-43.49-26.57-68.1-31.76-14.92-3.14-29.05-2.52-44.06-.45A356.17,356.17,0,0,0,228,109.28,158.36,158.36,0,0,0,191,123.63,99.09,99.09,0,0,0,179.82,131a99.23,99.23,0,0,0-11.18,10.8,96.2,96.2,0,0,0-12.72,19.93c-7.8,15.77-11.87,33-18.52,49.28C131.27,225.93,123.08,239.89,110,249.83Zm290.76-37.19a5.09,5.09,0,0,1,3.48-1.44,5.15,5.15,0,0,1,3.48,1.44,4.92,4.92,0,0,1,0,7,4.93,4.93,0,0,1-7,0,4.9,4.9,0,0,1-1.44-3.48A5,5,0,0,1,400.79,212.64Zm-13.68-54.58a22.29,22.29,0,0,1,4.64,5.63c1.27,2,2.71,4.27,3.13,6.67.15.86-.93,1.74-1.63.94-1.6-1.84-2.56-4.18-3.74-6.3a45.34,45.34,0,0,1-3.26-6.45C386.06,158,386.76,157.77,387.11,158.06Zm-2.91,53.05c-6.72,7.43-20,3.13-24.74-4.58a3.53,3.53,0,0,1-1.41-1.91,10.69,10.69,0,0,1-.31-4c-.24-6,3.11-12.58,9.34-12.1a14,14,0,0,1,10.5-1.13C386.21,190.28,390.42,204.25,384.2,211.11Zm-47.66-94.75c15.26,4.94,32.65,12.8,42.47,26.13.59.81-.58,2-1.39,1.39-6.48-4.64-12.16-10.21-18.84-14.63a121.06,121.06,0,0,0-22.49-12C335.75,117,336,116.17,336.54,116.36ZM164.45,237.44c0,.14,0,.29,0,.43a5.12,5.12,0,0,1-.71,2.61l-.8,1a5.17,5.17,0,0,1-7.3,0,3.84,3.84,0,0,1-1.07-1.66,3.9,3.9,0,0,1-.44-2l-.06-.43a5,5,0,0,1,1.53-3.69,5.21,5.21,0,0,1,7.38,0A5.17,5.17,0,0,1,164.45,237.44Zm22.53-92a18.66,18.66,0,0,0,2.51-2.36c.67-.75,1.38-2,2.3-2.41.47-.22,1.27,0,1.19.68a5.64,5.64,0,0,1-2,3,20.76,20.76,0,0,1-3.07,2.29C187.17,147,186.32,146,187,145.44Zm18.36,62.09c5.48,9.21,1.6,22.08-9.87,23.46-9.57,1.15-16.84-7.92-15.57-16.74a3.2,3.2,0,0,1,0-1.68C183.28,201.63,198.77,196.47,205.34,207.53Zm-63.7,16.77c8-12.11,11-26.52,16.12-39.92,4.5-11.77,11.17-25.29,21.27-33.25.78-.62,2.11.17,1.49,1.15-3.89,6.13-8.71,11.56-12.4,17.84a115.72,115.72,0,0,0-9.21,20.12c-4.35,12.28-7.87,24.6-16,35C142.33,226,141.14,225.05,141.64,224.3Z"/><path class="cls-1" d="M372.1,196c-2.55.88-3.88,3.3-5.23,5.72,1.77,2.56,8.72,6.28,10.85,2.55C379.54,201.12,375.84,194.75,372.1,196Z"/><path class="cls-4" d="M111,237.45a53.28,53.28,0,0,1-20,13,38.37,38.37,0,0,1-11.28,2.13c-3.35.1-6.32-.18-9.46,1.17-1.73.75-1.82,3.41-.59,4.58a10.07,10.07,0,0,0,2.87,1.89c8.49,12,22,19.53,36.35,22.48a46.32,46.32,0,0,1-29.33,11.66,4.55,4.55,0,0,0-3.89,6.78C95.36,334,133.3,353.25,171.1,351.21a34.4,34.4,0,0,1-12.21,4c-3.51.46-6.27,4.69-3.15,7.6a70.62,70.62,0,0,0,8.83,7c-9.16,15.84-9.61,35.57-3,52.55,7,18.11,20.86,32.41,37.1,42.67,2.88,1.82,7.51-1.27,6.14-4.71a49.61,49.61,0,0,1-3.42-14.86c5.89,14.56,18,25.86,31.86,35.12,9.79,6.53,20.07,12.55,28.42,20.94a63.8,63.8,0,0,1,17.56,35.42c.68,4.28,7.66,4.11,8.48,0a103.69,103.69,0,0,0,2-19.78c4.05,10.1,5,21.8,7.58,32.15,4.57,18.51,15.55,33.86,27,48.76,3.39,4.42,10.84.53,7.72-4.51-14.87-24,6.53-50.5,18.13-73.41a73.15,73.15,0,0,1,3.53,31.52c-.43,4.18,5,5.47,7.64,3.16,25.94-22.76,38.59-58.43,34.05-92.29A95.7,95.7,0,0,1,410,491.65a4.83,4.83,0,0,0,8,2.1c22.39-19.61,31.92-49.34,34-78.27,1.14-16.08.28-32.42-7.19-47-7-13.64-18.28-24.72-29.7-34.7a106.77,106.77,0,0,0,7.55-7.79,4.16,4.16,0,0,0-2.9-7q-1.38-.09-2.76-.24c3.19-.37,6.37-.85,9.52-1.51,10.68-2.23,20.65-6.9,29.8-12.78,8.68-5.58,16.76-12.12,24.77-18.61s15.67-13.49,20-23c1.42-3.08-1-7.89-4.94-6.42a66.39,66.39,0,0,1-30.07,3.91,55.22,55.22,0,0,0,11.49-7.78c6.17-5.36,13.36-12.85,16.49-21,2.73-1.2,3-5,1.37-7.19a1.89,1.89,0,0,0-.72-.74,3.91,3.91,0,0,0-2.8-.9c-26.88,1.68-47.05-16.25-61.37-37.3-4.4-6.47-8.51-13.17-12.66-19.81a90.16,90.16,0,0,0,16.77-36.7,4.15,4.15,0,0,0-3-4.9,100.67,100.67,0,0,0,5.75-61c-.69-3.16-4.86-3.49-6.76-1.61a77.29,77.29,0,0,0-9.21-26.87,75.23,75.23,0,0,0-14-17.87c-5.12-4.81-11.87-10.65-19-11.77a2.7,2.7,0,0,0-1.63.27,5,5,0,0,0-3.73,4.36,103.07,103.07,0,0,1-17.44,50.4,103.71,103.71,0,0,1-17.56,20c-6.76,6-14.55,10.24-21.82,15.45q-5.67-1.5-11.42-2.67a119.72,119.72,0,0,0-42-.83,395,395,0,0,0-43.13,8.33,196.85,196.85,0,0,0-22.16,7.21c-5-6-12.66-9.76-18.59-14.67a135,135,0,0,1-19-19.52c-11.54-14.41-20.09-30.92-27.27-47.85-1.39-3.26-5.48-2.28-7.16,0-12,9.43-20.6,24.41-25.45,38.51a97.07,97.07,0,0,0-5.23,31.49,4.48,4.48,0,0,0-4.58,1.79c-10.1,14.59-1.33,34.36,5.88,48.27,7.51,14.47,18.16,27.63,34,32.89-1.84,5.09-3.59,10.23-5.38,15.33C129.19,209.36,123,225.51,111,237.45ZM435.09,371.19c7.49,13.57,7.93,29.16,6.94,44.29-1.56,24-8.82,48.51-25.4,66.28A103.46,103.46,0,0,0,390.16,443c-3.17-2.9-9.21-.11-7.66,4.46,10.84,32,2.86,68.32-19.52,93.17A80.19,80.19,0,0,0,354,506.65c-1.89-3.67-7-2.34-8.21,1.07-7.34,21.09-26.14,43.18-27.6,66.1-6-9.69-10.81-19.89-13.31-31.53-3.42-15.91-5.26-33.19-17.79-44.94-3.46-3.24-8.18.07-7.48,4.35a92.38,92.38,0,0,1,1.18,12.06,69.68,69.68,0,0,0-7.44-11.7c-7.23-9.22-16.73-16-26.45-22.39-9.56-6.25-19.54-12.15-27.53-20.42a50.93,50.93,0,0,1-14.18-35.61c0-3.49-5.55-5.58-7.11-1.92-4.1,9.65-5.8,19.68-4.35,29.67-10.48-8.28-19.31-18.72-24.29-31.21-6-15-5.73-32.15,1.36-46.64,17.14,9.07,37.36,11,56.93,8.8,13-1.47,27.08-3.39,39-8.83,11.17-5.09,19.05-14.88,28.91-21.9C312.1,366.5,340,366,360.26,362a112.29,112.29,0,0,0,48.19-22.47C418.08,349.38,428.36,359,435.09,371.19ZM484,232.65c-3.21,3.95-6.27,8.11-10,11.54-7.12,6.54-15.65,11.61-25.51,12-5,.22-5.7,6.83-1.15,8.48a75.46,75.46,0,0,0,40,3.22,87.68,87.68,0,0,1-11.83,11.16,262.3,262.3,0,0,1-23.66,17.78,84.71,84.71,0,0,1-27.69,11.94c-10.75,2.36-21.8,2.44-32.75,2.79-3.74.12-6,5.86-2.07,7.64a91.26,91.26,0,0,0,21.8,6.88,105.86,105.86,0,0,1-49.89,27c-19.42,4.49-48,5.73-62.83-10.21a3.6,3.6,0,0,0-5.62.2c-9.76,5-16.45,14.13-25.75,19.82-10.7,6.55-25,8.35-37.24,9.94-20.75,2.69-43.75,1.32-61.16-10.9a42.93,42.93,0,0,0,20.15-14c2.77-3.48.28-8.59-4.4-7.57-36.28,7.91-75.63-7.83-97-37.86a54,54,0,0,0,33.44-19.86c2.27-2.91.93-7.11-3-7.32-13.26-.72-24.5-6.08-34.3-14.14a56.35,56.35,0,0,0,6.83-1.38,51.11,51.11,0,0,0,10.92-4.32c9.26,8.59,22.27,13,34.32,15.74,15.35,3.47,31.35,5,47,6.23,32.34,2.48,65.87.26,94-17.39a4.45,4.45,0,0,0,.92-.78c3.49,3.09,9.06,5.21,12.13,6.56a101.38,101.38,0,0,0,25.81,7.25,170,170,0,0,0,53.65-1,191.72,191.72,0,0,0,93.66-44.48A53.13,53.13,0,0,0,484,232.65ZM414.49,38.58a70.64,70.64,0,0,1,8.64,40.61c-.34,3.83,4.39,4.67,6.77,2.8a21.77,21.77,0,0,0,1.89-1.68A92.42,92.42,0,0,1,419,131.49c-1.9,3.21,1.22,6.42,4.49,5.84l.45-.1a84.36,84.36,0,0,1-10.83,20.82c-8.22-12.77-17.1-25-29.16-34.75,12.5-19.45,25-40.22,27-63.74a66.61,66.61,0,0,0-6-34.51A75.58,75.58,0,0,1,414.49,38.58Zm-42.14,26.2a108.64,108.64,0,0,0,18.34-46.39c10.4,11.77,13.47,29.17,11.21,44.44-3,20.29-14,38.25-24.93,55.25a152.44,152.44,0,0,0-41-19.92C350.7,91.35,363.53,77.45,372.35,64.78ZM139.7,39.17a198.67,198.67,0,0,0,24.64,39.56,131.64,131.64,0,0,0,19.81,19.89c5.16,4.14,11.33,9.19,18,11a139.52,139.52,0,0,0-13.45,6.74c-9.1,5.22-19,11.82-25.82,20.33-1,1-1.9,2.11-2.8,3.2a3.86,3.86,0,0,0-.75-1.6A116.27,116.27,0,0,1,139.7,39.17Zm-26,103.69c-5-9.61-11.37-22.48-9.57-33.85l2.63,5.25c2.13,4.24,7.93,1.08,7.19-3a89.64,89.64,0,0,1,3.5-44.42,97.74,97.74,0,0,1,9.16-19.67c1.2-2,2.5-3.82,3.85-5.61-7.78,34.72,0,72.5,21.6,101a4.47,4.47,0,0,0,4.78,1.63c-1.44,2-2.78,4.07-4,6.1a135.43,135.43,0,0,0-9.93,20.59C129.21,166.83,120.07,155.08,113.7,142.86Zm42.22,18.82a96.2,96.2,0,0,1,12.72-19.93A99.23,99.23,0,0,1,179.82,131,99.09,99.09,0,0,1,191,123.63,158.36,158.36,0,0,1,228,109.28a356.17,356.17,0,0,1,41.13-7.66c15-2.07,29.14-2.69,44.06.45,24.61,5.19,49.18,14.74,68.1,31.76,19.87,17.89,30.23,43,46.15,64,7,9.23,16,18.38,26.38,25a184.27,184.27,0,0,1-81.06,39.51A171.6,171.6,0,0,1,324,265.59a111.69,111.69,0,0,1-24.29-4.68,94.85,94.85,0,0,1-12.7-5c-1-.47-2.1-.89-3.09-1.41,1.54,0,3.07-.09,4.61-.21,4.26-.34,9.14-1,11.87-4.74a7.9,7.9,0,0,0-1-10.39c-3.66-3.53-9.54-3.71-14.31-3.8a68.44,68.44,0,0,0-18.19,2.19c-3.95,1-8.44,2.16-9.07,6.83-.79,5.86,4.69,9.09,10.85,10.45-25.64,14.61-56,17.09-85,15.25-14.84-.95-29.93-2.28-44.52-5.26a90.94,90.94,0,0,1-31.93-12.91c1-.67,1.94-1.36,2.88-2.08,13-9.94,21.24-23.9,27.37-38.87C144.05,194.73,148.12,177.45,155.92,161.68Z"/><path class="cls-4" d="M299.07,284.06c-5.78,6.16-3.57,20.1-15.09,18.84a16.1,16.1,0,0,1-11.53-6.48c-2.6-3.75-1.87-7.61-3.1-11.68a2.2,2.2,0,0,0-3.64-1c-4.12,4.27-2.33,11.74.35,16.38,3.35,5.8,9.54,9.39,16,10.46,6.32,1,12.31.36,16-5.26s8.14-14.22,5.18-20.75C302.61,283,300.17,282.89,299.07,284.06Z"/><path class="cls-4" d="M179.9,214.25c-1.27,8.82,6,17.89,15.57,16.74,11.47-1.38,15.35-14.25,9.87-23.46-6.57-11.06-22.06-5.9-25.41,5A3.2,3.2,0,0,0,179.9,214.25Zm8.56-.31c2.73-2.18,6.08-4.38,8.1-2.55,2.82,2.56,2.78,8.65-.91,10.28s-7.55-2-7.53-5.75A6.69,6.69,0,0,1,188.46,213.94Z"/><path class="cls-4" d="M367.08,188.52c-6.23-.48-9.58,6.14-9.34,12.1a10.69,10.69,0,0,0,.31,4,3.53,3.53,0,0,0,1.41,1.91c4.74,7.71,18,12,24.74,4.58,6.22-6.86,2-20.83-6.62-23.72A14,14,0,0,0,367.08,188.52Zm10.64,15.78c-2.13,3.73-9.08,0-10.85-2.55,1.35-2.42,2.68-4.84,5.23-5.72C375.84,194.75,379.54,201.12,377.72,204.3Z"/><path class="cls-4" d="M159.24,232.22a5.34,5.34,0,0,0-3.69,1.53,5,5,0,0,0-1.53,3.69l.06.43a3.9,3.9,0,0,0,.44,2,3.84,3.84,0,0,0,1.07,1.66,5.17,5.17,0,0,0,7.3,0l.8-1a5.12,5.12,0,0,0,.71-2.61c0-.14,0-.29,0-.43a5.17,5.17,0,0,0-1.52-3.69A5.37,5.37,0,0,0,159.24,232.22Z"/><path class="cls-4" d="M404.27,221a5.1,5.1,0,0,0,3.48-1.44,4.92,4.92,0,0,0,0-7,5.15,5.15,0,0,0-3.48-1.44,5.09,5.09,0,0,0-3.48,1.44,5,5,0,0,0-1.44,3.48,4.9,4.9,0,0,0,1.44,3.48A5.07,5.07,0,0,0,404.27,221Z"/><path class="cls-4" d="M400.76,362c10.45,7.26,16.14,20,17.66,32.35a79.82,79.82,0,0,1-.58,21.39c-1,6.75-3.68,13.68-3.74,20.5a1.13,1.13,0,0,0,2.08.56c3.55-6.56,4.51-15.28,5.46-22.61a73.32,73.32,0,0,0-.3-23.42c-2.43-12.43-9.08-23.15-20.08-29.62C400.71,360.81,400.25,361.63,400.76,362Z"/><path class="cls-4" d="M404.67,408.32c2.22,5.45,1.79,10.86,2.14,16.58,0,.77,1.21,1.27,1.59.43,2.64-5.82.82-12.34-1.82-17.82C406.08,406.45,404.21,407.21,404.67,408.32Z"/><path class="cls-4" d="M265.54,447.43a60.13,60.13,0,0,1-8.14-17.51,45.34,45.34,0,0,1,6.31-37.67c.35-.51-.42-1.08-.84-.65-9.27,9.55-11.54,24-8.89,36.65,2.7,12.94,10.9,27.73,22,35.31.71.48,1.7-.49,1.2-1.21C273.57,457.18,269.06,452.71,265.54,447.43Z"/><path class="cls-4" d="M246.31,414.52c.12-.91-1.45-1.13-1.61-.21-1.25,6.91-1.54,15.33,2.61,21.39a.69.69,0,0,0,1.25-.53C247.34,428.1,245.35,421.84,246.31,414.52Z"/><path class="cls-4" d="M339.64,392.42c-.45-.48-1.33.17-.93.73,8.87,12.54,14.83,27.27,15.52,42.73.72,16.28-5.15,29.51-11.38,44.07-.32.77.58,1.68,1.26,1,10.81-11.37,14.45-29.84,13.61-45A69.41,69.41,0,0,0,339.64,392.42Z"/><path class="cls-4" d="M343.57,443.56a.86.86,0,0,0-1.65.46c1.66,9.49-2.94,17.53-6.56,25.94a.81.81,0,0,0,1.4.82C342.52,462.93,347,453.32,343.57,443.56Z"/><path class="cls-4" d="M178.83,392.87c.14-1-1.3-1.4-1.49-.41-1.79,9.5-.61,19.51,5.42,27.35a.6.6,0,0,0,1-.6C179.87,410.79,177.5,402.22,178.83,392.87Z"/><path class="cls-4" d="M336.29,117.25a121.06,121.06,0,0,1,22.49,12c6.68,4.42,12.36,10,18.84,14.63.81.58,2-.58,1.39-1.39-9.82-13.33-27.21-21.19-42.47-26.13C336,116.17,335.75,117,336.29,117.25Z"/><path class="cls-4" d="M389.51,165c1.18,2.12,2.14,4.46,3.74,6.3.7.8,1.78-.08,1.63-.94-.42-2.4-1.86-4.63-3.13-6.67a22.29,22.29,0,0,0-4.64-5.63c-.35-.29-1.05,0-.86.49A45.34,45.34,0,0,0,389.51,165Z"/><path class="cls-4" d="M142.89,225.27c8.15-10.43,11.67-22.75,16-35a115.72,115.72,0,0,1,9.21-20.12c3.69-6.28,8.51-11.71,12.4-17.84.62-1-.71-1.77-1.49-1.15-10.1,8-16.77,21.48-21.27,33.25-5.12,13.4-8.1,27.81-16.12,39.92C141.14,225.05,142.33,226,142.89,225.27Z"/><path class="cls-4" d="M187.87,146.6a20.76,20.76,0,0,0,3.07-2.29,5.64,5.64,0,0,0,2-3c.08-.66-.72-.9-1.19-.68-.92.43-1.63,1.66-2.3,2.41a18.66,18.66,0,0,1-2.51,2.36C186.32,146,187.17,147,187.87,146.6Z"/><path class="cls-4" d="M163.9,92.91A.78.78,0,0,0,165,91.85c-3.83-7-12.86-12.8-13.22-21.4a.74.74,0,0,0-1.48,0c-.37,4.67,1.83,8.56,4.31,12.4S159.87,90.76,163.9,92.91Z"/><path class="cls-4" d="M175.52,104.5a.82.82,0,0,0,.92-1.19c-1.32-2.8-4.34-4.27-6.38-6.47-.54-.59-1.61.2-1.13.88C170.76,100.27,172.29,103.52,175.52,104.5Z"/><path class="cls-4" d="M374.05,67.62c-3.63,4.15-5.79,9.41-9.35,13.68-3.88,4.68-9,10.25-14.83,12.35-.74.26-.69,1.5.19,1.45,6.29-.41,11.75-5.85,15.81-10.26s8.88-10.33,9.72-16.58C375.7,67.48,374.53,67.06,374.05,67.62Z"/><path class="cls-4" d="M380.81,62.8c.85-1.21,1.95-2.92,1.52-4.44a1.1,1.1,0,0,0-1.59-.64c-1.18.75-1.59,2.28-2.23,3.47A37,37,0,0,1,376.24,65c-.47.66.48,1.64,1.14,1.14A14.67,14.67,0,0,0,380.81,62.8Z"/></svg>