<svg id="Layer_1" data-name="Layer 1" xmlns="http://www.w3.org/2000/svg" viewBox="0 0 600 600"><defs><style>.cls-1{fill:#fff;}.cls-2{fill:#be1e2d;}.cls-3{fill:#00aeef;}.cls-4{fill:#009444;}.cls-5{fill:#fff200;}.cls-6{fill:#2e3192;}.cls-7{fill:#f7941e;}.cls-8{fill:#231f20;}</style></defs><title>doodle</title><path class="cls-1" d="M569.1,383c-6.86-2.49-15,.09-18.07,6.87-2.4,4.56-8.67.54-6.75-3.95a19.08,19.08,0,0,1,1.09-2.11c6.8-13.63,8.15-29.17,5.1-44.07-2.9-14.21-9.81-26.55-25.3-28.85-14.07-2.09-27.22,6.23-34.58,17.81-8.54,13.43-9.25,30-6.43,45.26a3.75,3.75,0,0,1-6.82,2.88c-2.95-4.26-8-11.72-14.31-9.66-2.87.94-4.17,3.88-4.83,6.95l.12.41a2.92,2.92,0,0,1-.65,3c-.08.77-.14,1.5-.2,2.15-.26,2.9-3.93,5.12-6.21,2.57-2.76-3.08-8.83-10-13.29-5.85-3.93,3.65-1.14,10.48.29,14.58.94,2.71-1.5,4.35-3.72,4.05-1,1.47-3.63,2-4.52,0-4.89-10.59-15.82-18.19-27.64-18.21-12.11,0-22.64,8.93-26.06,20.33-3.91,13.05,3.34,25.28,12.49,34.16,12.24,11.89,26.92,8.42,41.65,3.62,3.67-1.2,5.57,3.44,3.47,6-9.1,10.9-14.35,25.65-11.56,39.86,2.33,11.8,10.25,22.78,21.36,27.73a31.87,31.87,0,0,0,33.74-5.31c10.59-9.66,10.48-25.17,8.31-38.26-.62-3.72,3.43-6.45,6.42-3.73,17,15.45,62.75,3.06,51.41-24.85-.87-2.12,1.32-4.72,3.49-4.58,16.86,1.1,33.67-12.59,33.35-30.1C580.32,394.27,576.54,385.69,569.1,383Z"/><path class="cls-2" d="M407,370.83a35.06,35.06,0,0,1,18.31,8.51c-2.84-7-5.67-13.93-9-20.7a242.33,242.33,0,0,0-18.43-31.74c-24.66-35.58-64-63.53-108.84-62.55a95,95,0,0,0-32.32,6.57c-11.42,4.43-23.24,9.67-33.59,16.26s-17.75,15.94-25.27,25.28q-6.47,8-12.8,16.19c-2.85,3.67-6.51,7.57-8.42,12a31.78,31.78,0,0,1,3.16,4.51,27.07,27.07,0,0,1,8.43-8.48,27.79,27.79,0,0,1,15.33-4.13c10.38-13.58,25.61-24.5,40.64-32.31,14.55-7.55,30.89-13.46,47.39-14.13,16.11-.65,32.16,3.91,46.41,11.24,31,15.92,50.54,44.26,68.69,72.87A4.69,4.69,0,0,1,407,370.83Z"/><path class="cls-1" d="M195.17,341.34a20,20,0,0,0-11.94,14.3,30.39,30.39,0,0,1-.17,8.16c-.52,3.5-6.46,3.46-7,0a27.33,27.33,0,0,1,0-8.61c-2.26-13.59-18.4-21-30.95-23.56-7.92-1.59-17.1-1.84-24.18,2.67-6,3.81-10.15,11.94-7.1,18.83a3.89,3.89,0,0,1-3.25,5.37c-.71,3.06-5.43,2.94-5.54-.52-.41-12.39-13.45-16.61-23.68-17.8-10.07-1.17-20.39-2.69-30.54-1.6-8.6.93-17.46,4.15-23.34,10.75s-7.58,15.85-7.7,24.46c-.2,15.42,2.19,35.37,12.42,47.61,12,14.37,33,12.81,48.54,5.92,2.87-1.27,6.64.82,5.62,4.32-2.79,9.51-6,25.35,1.63,33.51,7.49,8,19.83,5.56,25.78-2.92,2.1-3,7.2-2.1,7.19,1.95-.05,14.58,9.53,26.86,22.28,33.15,12.53,6.18,32.26,9.2,45.22,2.76,11.67-5.79,18.58-19.46,20.38-31.9a44.6,44.6,0,0,0-1.17-18.71c-1.06-3.69-3.58-10.39-7.29-13.9a24.43,24.43,0,0,1-4.88-2.54c-3.26-2.2-1.06-6.5,2.53-6a11.4,11.4,0,0,1,5.67,2.77c7.23,2.37,15.08-.05,20.63-5.8,6.12-6.33,11.34-21.51-.87-24.71-2.23-.58-3.34-3.83-1.44-5.44,13.92-11.77,11.56-35.2-1.17-47C214.13,340.68,203.85,337.87,195.17,341.34Z"/><path class="cls-3" d="M513.5,304.09a233.6,233.6,0,0,0-65-100.77c-27.38-25.06-61.13-43.86-97.28-52.62-38.53-9.33-79.45-7.64-117.35,3.77-39.35,11.86-73.6,34.57-101.08,65C103.69,251.57,79.27,289.26,66.3,330.8c2.78.22,5.52.53,8.19.88a109.21,109.21,0,0,1,12.16,2.24c6.86-20.13,16.73-39.66,27.72-57.79,11.35-18.72,23.63-37.32,39.47-52.59,53.62-51.7,136.8-67.68,207.33-47.08,64.49,18.85,117.6,68.67,142.09,131A39.47,39.47,0,0,1,513.5,304.09Z"/><path class="cls-4" d="M485.41,322.9a49.16,49.16,0,0,1,12.27-12.19s0,0,0,0A217.65,217.65,0,0,0,434.76,223c-54-45.44-128.38-60.86-196.27-42-35,9.73-68,28.61-92,56.09-24.81,28.35-43,62.7-55.44,98.11,5.93,1.91,11.49,4.71,15.18,8.94a24.2,24.2,0,0,1,6.39-12.18,25.22,25.22,0,0,1,8.37-5.75,225.11,225.11,0,0,1,55.9-90.73c11.93-11.81,25.41-21.12,41.18-27,16.61-6.21,34.13-9.62,51.56-12.65,18.58-3.22,35.86-2.1,54.14,2.34a232.23,232.23,0,0,1,48.56,17.26c28.78,14.3,51.79,36.77,69.4,63.43a300.59,300.59,0,0,1,22.64,41.62c4.08,9,8.09,18.18,11.57,27.53A55.84,55.84,0,0,1,485.41,322.9Z"/><path class="cls-5" d="M461.06,360.05c5.07-1.48,9.47-.05,13.26,2.67-6.22-15.05-11.55-30.39-18.55-45.14a278.76,278.76,0,0,0-24.48-42.36c-18-25.26-41.44-45.28-69.87-57.88a240.53,240.53,0,0,0-49.19-15.43c-18.73-3.8-36.18-1.34-54.73,2.2-16.21,3.08-32.71,6.22-47.69,13.4s-27.29,18.39-38.33,30.64c-20.1,22.29-34.9,48.29-45.26,76.3a44.73,44.73,0,0,1,15.77-.6,66.55,66.55,0,0,1,8.45,1.64c12.68-27.8,31.77-53.4,55.44-72.83,21.75-17.84,47.39-25.6,75.37-25.3,14.4.15,28.76,2.43,42.85,5.25S352.93,238,366.2,244c12.4,5.57,22.29,14.8,31.21,24.86a308.48,308.48,0,0,1,25.25,32.61C435.59,320.67,447.36,341.9,455,364A12.09,12.09,0,0,1,461.06,360.05Z"/><path class="cls-6" d="M62.09,330.55c6.33-23.91,18.1-46.34,31.39-67.05,13.69-21.35,29-42.15,47.13-60C199.19,146,288,124.7,366.65,147.76c73.43,21.53,133.06,82.75,154.94,155.75,1.3.05,2.62.16,3.95.34a35.84,35.84,0,0,1,11.23,3.47C528,261,492.58,224.44,459.9,192.74,442.22,175.6,424,160,401.65,149.3a230.57,230.57,0,0,0-66.58-19.78c-45.75-6.54-93.76.31-135.53,20.22-37.64,17.93-70.58,45.72-96.72,78-25.51,31.54-44.65,67.31-60.74,104.38A71.87,71.87,0,0,1,62.09,330.55Z"/><path class="cls-7" d="M354.57,247.09c-13-4.35-26.69-7.17-40.16-9.63-14-2.56-28.32-4.21-42.59-3.7-13.38.48-26.82,2.94-39.16,8.22-12.53,5.37-23.23,13.72-33,23A214.21,214.21,0,0,0,155,326.86a51.88,51.88,0,0,1,18.6,10.65,30.36,30.36,0,0,1,4-6.82c4.55-6.29,9.44-12.37,14.24-18.47,8.74-11.12,17.37-22.41,29.49-30.06A209.35,209.35,0,0,1,257,264.67a97.84,97.84,0,0,1,32.82-6.54c23.18-.6,46.42,6.57,66.14,18.53s36.07,29,49.13,48a239.06,239.06,0,0,1,26.08,48.88,11.74,11.74,0,0,1,3.5-3.57c5.24-3.52,10.74-1.79,15.4,1.47-10.44-25.42-21.9-49.72-37.93-72.31C397.25,278.14,379.82,255.55,354.57,247.09Z"/><path class="cls-8" d="M568.77,374.51a24.24,24.24,0,0,0-12.31.7c5.07-20.18,3.25-45.87-9.9-60.4a4,4,0,0,0,0-.69c-5.24-46-34.71-83-66.45-114.71-17-16.93-34.49-34.25-54.9-47-20.8-13-44.37-21.89-68.26-27.2a250.3,250.3,0,0,0-140.06,9.43c-41.78,15.43-77.75,42.43-106.71,76C78.81,247,54.09,289.25,36.46,333.89a37.92,37.92,0,0,0-13.54,8.65c-12.3,12.32-11.78,30.76-9.67,46.79,2.06,15.64,6,32.7,19.22,42.8,12.88,9.84,29.84,9.42,44.69,4.61-2.67,12.9-2.67,28.37,8.41,36.5,9,6.63,20.2,5.49,28.46-.58,4.91,24.67,31.44,37.8,55.66,38.23,14.63.25,27.2-4.1,36.18-16.06a53.93,53.93,0,0,0,10.65-34.63,48.44,48.44,0,0,0-5-19.48c-.56-1.11-1.21-2.32-1.95-3.55a28.89,28.89,0,0,0,21.91-11.7c6.83-9.05,8.48-24.14-1.51-30.39,14.22-16.38,9.28-45.08-8.64-57a33,33,0,0,0-12.13-4.91c10-9.68,19.87-18.65,32.14-25.67,13.66-7.83,28.95-13.63,44.74-14.9,32-2.59,61.55,14.51,82.89,37.14a240.22,240.22,0,0,1,30.77,40.87c-13.19,1-24.39,10.49-29,22.83-5.69,15.26,1.46,30.3,12.17,41.3,5.72,5.87,12.42,10.4,20.66,11.56,6.4.91,12.78,0,19-1.57-6.78,11.38-9.89,24.76-7.23,38,2.9,14.44,13.15,27.53,26.92,33a39.6,39.6,0,0,0,40.42-7.28c10.53-9.5,12.56-23.48,11.51-36.93,12.08,5.76,27.87,4.91,39.61-.42,12.51-5.69,20.91-19,18.09-32.27,20.91-2,39-20.65,35.56-42.58C585.91,386.1,579.33,376.68,568.77,374.51ZM102.82,227.77c26.14-32.31,59.08-60.1,96.72-78,41.77-19.91,89.78-26.76,135.53-20.22a230.57,230.57,0,0,1,66.58,19.78C424,160,442.22,175.6,459.9,192.74,492.58,224.44,528,261,536.77,307.32a35.84,35.84,0,0,0-11.23-3.47c-1.33-.18-2.65-.29-3.95-.34-21.88-73-81.51-134.22-154.94-155.75C288,124.7,199.19,146,140.61,203.54c-18.13,17.81-33.44,38.61-47.13,60-13.29,20.71-25.06,43.14-31.39,67.05a71.87,71.87,0,0,0-20,1.6C58.17,295.08,77.31,259.31,102.82,227.77Zm319.84,73.69a308.48,308.48,0,0,0-25.25-32.61c-8.92-10.06-18.81-19.29-31.21-24.86-13.27-6-27.92-8.54-42.1-11.38s-28.45-5.1-42.85-5.25c-28-.3-53.62,7.46-75.37,25.3-23.67,19.43-42.76,45-55.44,72.83a66.55,66.55,0,0,0-8.45-1.64,44.73,44.73,0,0,0-15.77.6c10.36-28,25.16-54,45.26-76.3,11-12.25,23.35-23.45,38.33-30.64s31.48-10.32,47.69-13.4c18.55-3.54,36-6,54.73-2.2a240.53,240.53,0,0,1,49.19,15.43c28.43,12.6,51.88,32.62,69.87,57.88a278.76,278.76,0,0,1,24.48,42.36c7,14.75,12.33,30.09,18.55,45.14-3.79-2.72-8.19-4.15-13.26-2.67a12.09,12.09,0,0,0-6,4C447.36,341.9,435.59,320.67,422.66,301.46Zm27.42,70c-4.66-3.26-10.16-5-15.4-1.47a11.74,11.74,0,0,0-3.5,3.57,239.06,239.06,0,0,0-26.08-48.88c-13.06-19-29.32-36-49.13-48s-43-19.13-66.14-18.53A97.84,97.84,0,0,0,257,264.67a209.35,209.35,0,0,0-35.74,17.49c-12.12,7.65-20.75,18.94-29.49,30.06-4.8,6.1-9.69,12.18-14.24,18.47a30.36,30.36,0,0,0-4,6.82A51.88,51.88,0,0,0,155,326.86,214.21,214.21,0,0,1,199.63,265c9.8-9.33,20.5-17.68,33-23,12.34-5.28,25.78-7.74,39.16-8.22,14.27-.51,28.57,1.14,42.59,3.7,13.47,2.46,27.16,5.28,40.16,9.63,25.25,8.46,42.68,31,57.58,52C428.18,321.73,439.64,346,450.08,371.45Zm14.27-51a300.59,300.59,0,0,0-22.64-41.62c-17.61-26.66-40.62-49.13-69.4-63.43a232.23,232.23,0,0,0-48.56-17.26c-18.28-4.44-35.56-5.56-54.14-2.34-17.43,3-35,6.44-51.56,12.65-15.77,5.9-29.25,15.21-41.18,27A225.11,225.11,0,0,0,121,326.18a25.22,25.22,0,0,0-8.37,5.75,24.2,24.2,0,0,0-6.39,12.18c-3.69-4.23-9.25-7-15.18-8.94,12.44-35.41,30.63-69.76,55.44-98.11,24.05-27.48,57-46.36,92-56.09,67.89-18.86,142.29-3.44,196.27,42a217.65,217.65,0,0,1,62.9,87.69s0,0,0,0a49.16,49.16,0,0,0-12.27,12.19A55.84,55.84,0,0,0,475.92,348C472.44,338.61,468.43,329.42,464.35,320.43Zm-103.18-144c-70.53-20.6-153.71-4.62-207.33,47.08-15.84,15.27-28.12,33.87-39.47,52.59-11,18.13-20.86,37.66-27.72,57.79a109.21,109.21,0,0,0-12.16-2.24c-2.67-.35-5.41-.66-8.19-.88,13-41.54,37.39-79.23,66.46-111.36,27.48-30.4,61.73-53.11,101.08-65,37.9-11.41,78.82-13.1,117.35-3.77,36.15,8.76,69.9,27.56,97.28,52.62a233.6,233.6,0,0,1,65,100.77,39.47,39.47,0,0,0-10.24,3.38C478.77,245.13,425.66,195.31,361.17,176.46ZM220.82,346.88c12.73,11.78,15.09,35.21,1.17,47-1.9,1.61-.79,4.86,1.44,5.44,12.21,3.2,7,18.38.87,24.71-5.55,5.75-13.4,8.17-20.63,5.8A11.4,11.4,0,0,0,198,427c-3.59-.5-5.79,3.8-2.53,6a24.43,24.43,0,0,0,4.88,2.54c3.71,3.51,6.23,10.21,7.29,13.9a44.6,44.6,0,0,1,1.17,18.71c-1.8,12.44-8.71,26.11-20.38,31.9-13,6.44-32.69,3.42-45.22-2.76-12.75-6.29-22.33-18.57-22.28-33.15,0-4.05-5.09-4.94-7.19-1.95-5.95,8.48-18.29,10.88-25.78,2.92-7.68-8.16-4.42-24-1.63-33.51,1-3.5-2.75-5.59-5.62-4.32-15.59,6.89-36.54,8.45-48.54-5.92-10.23-12.24-12.62-32.19-12.42-47.61.12-8.61,1.79-17.83,7.7-24.46s14.74-9.82,23.34-10.75c10.15-1.09,20.47.43,30.54,1.6,10.23,1.19,23.27,5.41,23.68,17.8.11,3.46,4.83,3.58,5.54.52a3.89,3.89,0,0,0,3.25-5.37c-3-6.89,1.12-15,7.1-18.83,7.08-4.51,16.26-4.26,24.18-2.67,12.55,2.53,28.69,10,30.95,23.56a27.33,27.33,0,0,0,0,8.61c.56,3.46,6.5,3.5,7,0a30.39,30.39,0,0,0,.17-8.16,20,20,0,0,1,11.94-14.3C203.85,337.87,214.13,340.68,220.82,346.88ZM338,297.37c-14.25-7.33-30.3-11.89-46.41-11.24-16.5.67-32.84,6.58-47.39,14.13-15,7.81-30.26,18.73-40.64,32.31a27.79,27.79,0,0,0-15.33,4.13,27.07,27.07,0,0,0-8.43,8.48,31.78,31.78,0,0,0-3.16-4.51c1.91-4.45,5.57-8.35,8.42-12q6.33-8.16,12.8-16.19c7.52-9.34,15.05-18.76,25.27-25.28s22.17-11.83,33.59-16.26A95,95,0,0,1,289,264.35c44.79-1,84.18,27,108.84,62.55a242.33,242.33,0,0,1,18.43,31.74c3.32,6.77,6.15,13.74,9,20.7A35.06,35.06,0,0,0,407,370.83a4.69,4.69,0,0,0-.3-.59C388.5,341.63,368.91,313.29,338,297.37ZM547.1,431.8c-2.17-.14-4.36,2.46-3.49,4.58,11.34,27.91-34.43,40.3-51.41,24.85-3-2.72-7,0-6.42,3.73,2.17,13.09,2.28,28.6-8.31,38.26a31.87,31.87,0,0,1-33.74,5.31c-11.11-4.95-19-15.93-21.36-27.73-2.79-14.21,2.46-29,11.56-39.86,2.1-2.52.2-7.16-3.47-6-14.73,4.8-29.41,8.27-41.65-3.62-9.15-8.88-16.4-21.11-12.49-34.16,3.42-11.4,13.95-20.35,26.06-20.33,11.82,0,22.75,7.62,27.64,18.21.89,1.92,3.55,1.43,4.52,0,2.22.3,4.66-1.34,3.72-4.05-1.43-4.1-4.22-10.93-.29-14.58,4.46-4.14,10.53,2.77,13.29,5.85,2.28,2.55,5.95.33,6.21-2.57.06-.65.12-1.38.2-2.15a2.92,2.92,0,0,0,.65-3l-.12-.41c.66-3.07,2-6,4.83-6.95,6.29-2.06,11.36,5.4,14.31,9.66a3.75,3.75,0,0,0,6.82-2.88c-2.82-15.27-2.11-31.83,6.43-45.26,7.36-11.58,20.51-19.9,34.58-17.81,15.49,2.3,22.4,14.64,25.3,28.85,3,14.9,1.7,30.44-5.1,44.07a19.08,19.08,0,0,0-1.09,2.11c-1.92,4.49,4.35,8.51,6.75,3.95,3.05-6.78,11.21-9.36,18.07-6.87,7.44,2.7,11.22,11.28,11.35,18.71C580.77,419.21,564,432.9,547.1,431.8Z"/></svg>