<svg id="Layer_1" data-name="Layer 1" xmlns="http://www.w3.org/2000/svg" viewBox="0 0 600 600"><defs><style>.cls-1{fill:#fff200;}.cls-2{fill:#f7941e;}.cls-3{fill:#fff;}.cls-4{fill:#be1e2d;}.cls-5{fill:#231f20;}</style></defs><title>doodle</title><path class="cls-1" d="M92.11,205.71c13-2.9,25.82-6.38,38.46-10.45,25.52-8.23,50.2-19.32,72.44-34.39,20.64-14,39.12-31.56,52.91-52.41,14.37-21.73,23.07-46.29,33-70.21q-5-1.32-10.06-2.54c-29.86-7.19-61.51-11.31-91.9-4.86-49,10.41-85.64,48.87-106.75,92.71-12.84,26.67-20,55.39-24.56,84.7A122.17,122.17,0,0,0,92.11,205.71Z"/><path class="cls-2" d="M147.3,254.92c50.37-13.8,95.95-37.95,133.32-74.74A295.16,295.16,0,0,0,326,123c12.06-19.91,19.84-41.19,29.22-62.3a518,518,0,0,0-57.5-20c-8,26.38-18.2,52.75-33.81,75.58-14.69,21.47-33.85,39.48-55.35,54-23.85,16.14-50.59,27.68-78,36.15a334.42,334.42,0,0,1-44.53,10.93c-10.21,1.67-21.49,2.71-31.65-.08C52.36,231.34,51,245.5,49.77,259.6q.21,7,.36,14c16.34-.12,32.41-3.81,48.37-7.2C114.85,262.9,131.18,259.33,147.3,254.92Z"/><path class="cls-3" d="M138.58,345.9a4.56,4.56,0,0,0-2.78-.9,45.41,45.41,0,0,0-3.17,3.48,4.91,4.91,0,0,0-.15.51c-.19.7-1,3.64-.5,4.21s3.07.32,3.77.24c2.48-.27,5.56-1.51,5.87-4.32,0,0,0-.08,0-.12A8.83,8.83,0,0,0,138.58,345.9Z"/><path class="cls-3" d="M316.79,371.58C306.56,356,297.33,338.64,291.46,321a36.42,36.42,0,0,0-9.43,9.15,4.82,4.82,0,0,1-.83.9c0,.1-.05.19-.08.29-3.05,8,5.76,24.38,10.33,30.6C297.39,370.05,307.25,375.43,316.79,371.58Z"/><path class="cls-3" d="M391,200c2.42,1.44,6-.6,4.72-3.48-.48-1.12-1.28-1.85-2.52-1.52-1.72.46-1.84,2.07-2.63,3.39a5.82,5.82,0,0,1-.4.54A2.09,2.09,0,0,0,391,200Z"/><path class="cls-3" d="M332.62,344.27a65.09,65.09,0,0,0-2.84-18c-1.27-4.54-2.6-13.72-7.88-15.39a4.77,4.77,0,0,1-1.77-1c-7,1.76-14.39,3.77-21.12,6.9,8,16.94,15.94,33.38,25.51,49.45C330,360.44,332.56,352.24,332.62,344.27Z"/><path class="cls-2" d="M287,284.42c-35.7,17.84-63.2,50.15-66.89,89.28a3.93,3.93,0,0,1,0,1c-2.58,29.13,9.73,55.2,29.9,75.65,8.64,8.75,18.53,17.73,29.66,23.16,12.62,6.17,28.25,4.75,41.94,4.66,22.61-.15,46.45-1.83,66.81-12.6,20-10.61,34.45-29.58,43.84-49.85,18.7-40.38,15.43-90.14-16.9-122.58C380.38,258,328.28,263.76,287,284.42ZM407.47,410.81c-5.32,17.44-15.89,31.78-32.55,39.77-17,8.15-38.1,12.42-56.86,13.15-38.66,1.52-67.32-36-71.35-71.72-3.29-29.1,10.46-59.36,34.85-75.05,11.34-10.85,27.63-15.13,43-18.59,20.39-4.6,43.64-7,61.86,5.5C419.55,326.64,417.92,376.51,407.47,410.81Z"/><path class="cls-4" d="M331.66,410.18a49.17,49.17,0,0,1,18.82,6.8c4.31,2.74,1.57,9.88-3.53,8.37-12.82-3.78-24.16-6.83-37.72-5-12.88,1.79-23.34,7.34-34.82,12.54a77.58,77.58,0,0,0,7.38,7.57c15.26,13.6,32,15,51.53,11.54,14.72-2.62,30.47-5.49,43.21-13.77,14.21-9.23,20.5-24.51,23.72-40.54,1-4.92,1.83-10.25,2.42-15.79a2.49,2.49,0,0,1-.37.09C388,384,374.3,386.77,361,392.52,350.32,397.15,341.07,403.61,331.66,410.18Z"/><path class="cls-1" d="M553.65,318c.38-29.82-4.92-59.42-14-87.78-8.71-27.29-20.33-54.5-39.54-76.14-18.61-20.95-42.06-37.33-65.63-52.2a530.28,530.28,0,0,0-71-37.61c-5.29,26.47-20.06,52.63-34.79,74.73C300.63,181.07,262.1,216.3,217.18,239.7c-26,13.54-53.84,22.42-82.28,29.14-27,6.37-56.49,15.1-84.64,13,0,.9,0,1.8.05,2.69.3,32.07,1.13,64.13,2.87,96.15,1.65,30.27,1.93,62.13,8.42,91.82,12,54.92,66.3,85.7,118,95,54.6,9.8,110.36-2.35,160.94-23.19,27.07-11.16,53.06-24.81,78.58-39.11,25-14,51.31-27.58,73.18-46.28C533,424.09,553,370.71,553.65,318ZM127.82,364.23c-5-3.15-7.84-9.53-6.14-15.3a12.34,12.34,0,0,1,1.47-3.16,22.46,22.46,0,0,1,1.27-3.15c3.85-7.74,11.9-8.73,18.33-5.55,4.92.56,8.15,5,8.68,10.1.08.26.16.52.22.78C154.63,360.53,138.32,370.85,127.82,364.23ZM386,187.76a12.6,12.6,0,0,1,10.28-2.56c5.32,1.13,8.93,6.08,9.47,11.32,1.09,10.56-11.61,17.24-20.16,11.43C378.29,203,379.28,192.12,386,187.76Zm45.29,252.86C417,461.7,397.4,477.07,372.65,483.84s-53.8,7.51-79.34,4.77c-24.68-2.65-46.14-23.37-60.72-42.17-15.69-20.22-25.17-45.46-20.78-71.08C213,325.9,253.69,285.57,298.87,268c25.52-9.92,54.74-15.32,81.64-7.92,21.84,6,40.51,20.3,53.79,38.42C465.09,340.52,459.63,398.89,431.27,440.62Z"/><path class="cls-5" d="M151.43,347.17c-.53-5.09-3.76-9.54-8.68-10.1-6.43-3.18-14.48-2.19-18.33,5.55a22.46,22.46,0,0,0-1.27,3.15,12.34,12.34,0,0,0-1.47,3.16c-1.7,5.77,1.14,12.15,6.14,15.3,10.5,6.62,26.81-3.7,23.83-16.28C151.59,347.69,151.51,347.43,151.43,347.17Zm-9.81,1.95c-.31,2.81-3.39,4.05-5.87,4.32-.7.08-3.24.35-3.77-.24s.31-3.51.5-4.21a4.91,4.91,0,0,1,.15-.51A45.41,45.41,0,0,1,135.8,345a4.56,4.56,0,0,1,2.78.9,8.83,8.83,0,0,1,3,3.1S141.63,349.08,141.62,349.12Z"/><path class="cls-5" d="M385.57,208c8.55,5.81,21.25-.87,20.16-11.43-.54-5.24-4.15-10.19-9.47-11.32A12.6,12.6,0,0,0,386,187.76C379.28,192.12,378.29,203,385.57,208Zm5-9.59c.79-1.32.91-2.93,2.63-3.39,1.24-.33,2,.4,2.52,1.52,1.23,2.88-2.3,4.92-4.72,3.48a2.09,2.09,0,0,1-.83-1.07A5.82,5.82,0,0,0,390.53,198.36Z"/><path class="cls-5" d="M386.38,303.87c-18.22-12.5-41.47-10.1-61.86-5.5-15.33,3.46-31.62,7.74-43,18.59-24.39,15.69-38.14,46-34.85,75.05,4,35.68,32.69,73.24,71.35,71.72,18.76-.73,39.87-5,56.86-13.15,16.66-8,27.23-22.33,32.55-39.77C417.92,376.51,419.55,326.64,386.38,303.87Zm-66.25,6a4.77,4.77,0,0,0,1.77,1c5.28,1.67,6.61,10.85,7.88,15.39a65.09,65.09,0,0,1,2.84,18c-.06,8-2.61,16.17-8.1,21.93C315,350.13,307,333.69,299,316.75,305.74,313.62,313.15,311.61,320.13,309.85Zm-39,21.5c0-.1,0-.19.08-.29a4.82,4.82,0,0,0,.83-.9,36.42,36.42,0,0,1,9.43-9.15c5.87,17.63,15.1,35,25.33,50.57-9.54,3.85-19.4-1.53-25.34-9.63C286.88,355.73,278.07,339.31,281.12,331.35ZM402.67,382c-.59,5.54-1.44,10.87-2.42,15.79-3.22,16-9.51,31.31-23.72,40.54-12.74,8.28-28.49,11.15-43.21,13.77-19.48,3.47-36.27,2.06-51.53-11.54a77.58,77.58,0,0,1-7.38-7.57c11.48-5.2,21.94-10.75,34.82-12.54,13.56-1.88,24.9,1.17,37.72,5,5.1,1.51,7.84-5.63,3.53-8.37a49.17,49.17,0,0,0-18.82-6.8c9.41-6.57,18.66-13,29.36-17.66C374.3,386.77,388,384,402.3,382A2.49,2.49,0,0,0,402.67,382Z"/><path class="cls-5" d="M380.51,260.11c-26.9-7.4-56.12-2-81.64,7.92C253.69,285.57,213,325.9,211.81,375.36c-4.39,25.62,5.09,50.86,20.78,71.08,14.58,18.8,36,39.52,60.72,42.17,25.54,2.74,54.49,2,79.34-4.77S417,461.7,431.27,440.62c28.36-41.73,33.82-100.1,3-142.09C421,280.41,402.35,266.13,380.51,260.11ZM432.29,415.7c-9.39,20.27-23.81,39.24-43.84,49.85-20.36,10.77-44.2,12.45-66.81,12.6-13.69.09-29.32,1.51-41.94-4.66-11.13-5.43-21-14.41-29.66-23.16-20.17-20.45-32.48-46.52-29.9-75.65a3.93,3.93,0,0,0,0-1c3.69-39.13,31.19-71.44,66.89-89.28,41.3-20.66,93.4-26.42,128.41,8.7C447.72,325.56,451,375.32,432.29,415.7Z"/><path class="cls-5" d="M530.63,433c15.2-22.36,25.36-48.22,30.43-74.72,11.25-58.73-1.48-122.24-28-175.32S451.73,95.79,400.55,69.49A538.14,538.14,0,0,0,319,35.72c-29.34-9.41-59.91-17.07-90.81-18.38-28.4-1.21-56.77,4-81.73,17.94-21.53,12-39.57,29.46-54.08,49.26-22,30.05-34.42,64.85-41.69,100.9a140.83,140.83,0,0,0-5.86,24.33,4.06,4.06,0,0,0-.6,1.29c-1.55,6-1.51,12.41-1.81,18.61-.11,2.24-.23,4.47-.3,6.69a4,4,0,0,0-.51,1.73q-1.09,18-1.49,36.09c-1.68,1.49-1.9,4.64-.12,6-1,54.4,2.19,109.05,6.87,163.12,2.5,28.91,8.11,55.93,26.83,78.93,16.62,20.42,39.52,35.16,63.74,45,113.45,46,236.55-18.74,331.68-77.78C493.23,474.49,514.58,456.61,530.63,433ZM80.17,123.56c21.11-43.84,57.76-82.3,106.75-92.71,30.39-6.45,62-2.33,91.9,4.86q5,1.22,10.06,2.54c-9.89,23.92-18.59,48.48-33,70.21-13.79,20.85-32.27,38.43-52.91,52.41-22.24,15.07-46.92,26.16-72.44,34.39-12.64,4.07-25.5,7.55-38.46,10.45a122.17,122.17,0,0,1-36.5,2.55C60.15,179,67.33,150.23,80.17,123.56Zm-30.4,136c1.19-14.1,2.59-28.26,4.52-42.33,10.16,2.79,21.44,1.75,31.65.08a334.42,334.42,0,0,0,44.53-10.93c27.45-8.47,54.19-20,78-36.15,21.5-14.54,40.66-32.55,55.35-54,15.61-22.83,25.84-49.2,33.81-75.58a518,518,0,0,1,57.5,20C345.79,81.81,338,103.09,326,123a295.16,295.16,0,0,1-45.33,57.18c-37.37,36.79-83,60.94-133.32,74.74-16.12,4.41-32.45,8-48.8,11.46-16,3.39-32,7.08-48.37,7.2Q50,266.59,49.77,259.6ZM340.58,544.29c-50.58,20.84-106.34,33-160.94,23.19-51.74-9.28-106-40.06-118-95-6.49-29.69-6.77-61.55-8.42-91.82-1.74-32-2.57-64.08-2.87-96.15,0-.89,0-1.79-.05-2.69,28.15,2.1,57.67-6.63,84.64-13,28.44-6.72,56.3-15.6,82.28-29.14C262.1,216.3,300.63,181.07,328.69,139c14.73-22.1,29.5-48.26,34.79-74.73a530.28,530.28,0,0,1,71,37.61c23.57,14.87,47,31.25,65.63,52.2,19.21,21.64,30.83,48.85,39.54,76.14,9.05,28.36,14.35,58,14,87.78C553,370.71,533,424.09,492.34,458.9c-21.87,18.7-48.19,32.28-73.18,46.28C393.64,519.48,367.65,533.13,340.58,544.29Z"/></svg>