<svg id="Layer_1" data-name="Layer 1" xmlns="http://www.w3.org/2000/svg" viewBox="0 0 600 600"><defs><style>.cls-1{fill:#fff;}.cls-2{fill:#fff200;}.cls-3{fill:#00aeef;}.cls-4{fill:#231f20;}</style></defs><title>doodle</title><path class="cls-1" d="M246.23,345.11a25.67,25.67,0,0,0,4.33-5.36,193.38,193.38,0,0,1-7-20.78c-2.32,1-4.67,2-7,2.92a92.84,92.84,0,0,1,5.18,11.51C243.26,337.09,245.53,341.1,246.23,345.11Z"/><path class="cls-2" d="M155,240.47a51.09,51.09,0,0,1,19.48-3c8,.52,12.15,5.35,15.32,11.9l6.35-1.55c2.92-.7,7.45-.95,9.34-3.62,1.41-2,2.09-5,3.13-7.25,1.12-2.39,2.31-4.74,3.62-7a59,59,0,0,1,9.9-13.1c-.06-.07-.13-.14-.19-.22-10.65-14.9-14.79-32.79-19-50.31s-8.17-35.35-10.68-53.3c-4.43-31.7-4.14-64.69,6.45-95.15a42.81,42.81,0,0,1-15-1.54c-7.94,37.21-16.43,74.52-21.85,112.19A715.75,715.75,0,0,0,155,240.47Zm8.37-73.07c.57,7.44-.1,15-.19,22.44s.1,15-.21,22.52a.52.52,0,0,1-1,.09,212.1,212.1,0,0,1-.86-23.38c0-7.21-.18-14.6,1-21.73A.65.65,0,0,1,163.34,167.4Zm.57-9.7a.55.55,0,0,1-1.08-.06c-.12-2.11-.44-4.68.36-6.7a.66.66,0,0,1,1.21.06C164.94,153.11,164.3,155.6,163.91,157.7Z"/><path class="cls-2" d="M124.39,277.87c-1.28-6.56-.64-13.21,3.31-18.95,4.73-6.87,12.39-11.85,19.78-15.39.84-.41,1.71-.79,2.58-1.17a712.11,712.11,0,0,1,6.42-113c2.45-18.14,5.75-36.14,9.35-54.09-2.17,3.44-4.4,6.84-6.39,10.29-4.11,7.13-7.95,14.42-11.58,21.82a355.29,355.29,0,0,0-36,170.53q2.4-.28,4.8-.45A23.76,23.76,0,0,1,124.39,277.87Z"/><path class="cls-1" d="M252.14,336.07c1.69-6.08.19-13.84-1.42-20.24-1.85.84-3.74,1.66-5.62,2.48A169,169,0,0,1,252.14,336.07Z"/><path class="cls-2" d="M261.83,470.46a294.91,294.91,0,0,1-54.13-63.65c-14.49-22.95-26.72-48.43-33.31-74.87-4.54.85-9.1.38-13.07-2.79-7.5-6-13.81-14.51-20-21.81-1.67-2-3.34-4-5-6.07a3.12,3.12,0,0,1-1.36.22c-4.34-.31-8.68-.77-13-1.17-2.34-.22-5-.71-7.5-.94,5.34,42,16.27,82.75,34.84,121a358.94,358.94,0,0,0,66.33,94.25c26.76,27.27,57.83,50.86,95.08,61.28,34.74,9.73,71.64,9.31,107,3.1,19.73-3.47,39.38-8.72,57.42-17.58,15.84-7.77,33.38-19.2,41.34-35.64-31.58,8.31-64,13.1-96.73,11.57C360.94,534.56,305.72,509.22,261.83,470.46Z"/><path class="cls-3" d="M132.27,295.63a54.71,54.71,0,0,1-6.22-11.85c-9.45-2.2-19.68-.11-28.92,2.49-6.25,1.76-9.27,5.91-9.57,12.36A18.39,18.39,0,0,0,92.28,312a8.53,8.53,0,0,0,2.63,2.18l4.32-1.51c.59-.67.36-3.19.41-4a30.73,30.73,0,0,1,.86-6.89c.9-3,2.88-6,5.89-7.22,3.9-1.63,8.9-.45,12.93-.09C123.63,294.89,128,295.22,132.27,295.63Z"/><path class="cls-3" d="M213.05,240.79c-1.2,2.67-2,6-3.86,8.25-2.09,2.45-5.46,2.64-8.44,3.24q-5.82,1.16-11.64,2.27a2.89,2.89,0,0,1-3.82-1.49c-2.34-5.26-4.89-9.49-11.14-9.94a44.5,44.5,0,0,0-14.27,1.82c-9,2.41-18,7.05-24.63,13.75-15.81,16.07,4.24,37.85,15.12,50.36q5,5.79,10.29,11.39c2.76,2.94,5.45,6.16,9.81,6.27,6.47.16,15-4.6,20-8.31,7.81-5.76,7.24-14.24,6.29-22.93-.52-4.77-1.06-9.53-1.58-14.29-.35-3.12-1.44-6.92-.75-10,.65-2.88,2.9-3.65,5.45-4.5,2.73-.9,6.23-2.6,9.21-2.07,5.69,1,8.23,9.25,10.29,13.74,3.45,7.49,7.14,15.23,15.57,18,7.8,2.53,16,.57,23.53-2.07,7.31-2.58,16.3-5.56,20.46-12.65,4.27-7.28,2.57-16.28.26-23.88a243.58,243.58,0,0,0-9.38-25.25c-3.13-7.26-7.13-15.27-14.72-18.7-14.29-6.47-29,4.63-36.35,16.16A83.83,83.83,0,0,0,213.05,240.79Zm-25.4,61.63a18.89,18.89,0,0,1-1.75,4.4c-1.76,5.61-6.26,9.75-13.54,9-10.81-1.13-19.21-10.62-24-19.67-4.55-8.7-7.56-19.3-4.43-29,2.61-8.05,10.33-14.79,19.08-14.43,9.62.4,16.27,9.34,20.19,17.19C188.05,279.58,190.38,291.83,187.65,302.42Zm55.29-77.76a16.57,16.57,0,0,1,6.27-.16c7.67,1.35,12.83,7.93,16.68,14.16,7.75,12.52,13.11,29,3.37,42.11-8.46,11.35-24.61,10.16-34.3,1-10.26-9.66-15.25-29.13-10.66-42.55A22.16,22.16,0,0,1,242.94,224.66Z"/><path class="cls-1" d="M244.6,346.57c-2.59-3.45-3.76-8.3-5.31-12.28a91,91,0,0,1-4.15-11.82c-3.37,1.33-6.78,2.6-10.21,3.78,4.14,8.24,6.75,17.57,9.26,26.45A35.43,35.43,0,0,0,244.6,346.57Z"/><path class="cls-1" d="M210.85,330.4c-3.07.74-6.15,1.37-9.22,1.85a25.3,25.3,0,0,0,18.75,21.15c-2.1-3.06-3.35-6.89-4.77-10.25A113.54,113.54,0,0,1,210.85,330.4Z"/><path class="cls-1" d="M212.91,329.88c1.87,4.07,3.47,8.25,5.27,12.34,1.68,3.82,4,7.61,4.93,11.7a24,24,0,0,0,8.2-.39c-2.64-8.92-6.16-17.58-8.69-26.49C219.4,328.09,216.16,329.05,212.91,329.88Z"/><path class="cls-2" d="M351.29,407.62c-34.91-31.68-62.66-69.94-90.42-107.79a59.21,59.21,0,0,1-15.17,3.44c-7.7.59-15.85-1.21-21.62-6.61-6.64-6.19-9-15-13.24-22.74-1.65-3-3.39-3.62-6.71-2.59-3.1,1-4.12.41-3.91,3.68.32,5.08,1.13,10.19,1.7,15.25.93,8.38,2.88,18-1.56,25.7-4,7-12.08,10.83-19.26,13.87-.7.3-1.42.58-2.13.84,9.47,28.91,21.51,56.28,38.86,81.45,31.22,45.3,75.18,81.94,126.27,102.7,55.1,22.4,115.89,20,172.6,5l1.65-11.52a2.75,2.75,0,0,1-.19-1.64c.34-2,.69-4,1-6-21.89-5.56-43.37-14.17-63.75-23.72A421.11,421.11,0,0,1,351.29,407.62ZM195.78,331.44a2.79,2.79,0,0,1,3.6-2.9c8.6-3.24,17.56-5.56,26.22-8.68q13.23-4.78,26-10.61a2.83,2.83,0,0,1,3.61,1.69c2.36,8.88,5.44,21.21,1,29.9-4.17,8.17-13.81,15.62-22.63,17.89C215.13,363.48,197.4,350.23,195.78,331.44Zm139.3,167.74c-8.25-1.24-16.49-5.81-23.62-9.92A161.91,161.91,0,0,1,290.82,475c-13.75-11.06-25.69-23.78-37.34-37-.28-.33.25-.81.56-.52,12.24,11.62,24.35,23.6,37.52,34.18a164.18,164.18,0,0,0,21.89,15.08c7.2,4.06,15,6.53,22.32,10.22A1.14,1.14,0,0,1,335.08,499.18Zm24,7.6c-1.86-.13-3.63-1.3-5.33-2-1.87-.78-3.77-1.47-5.6-2.33-.33-.16-.27-.77.14-.75a21.65,21.65,0,0,1,6,1.18c1.9.62,4.14,1.25,5.47,2.83C360.17,506.22,359.59,506.81,359.06,506.78Z"/><path class="cls-4" d="M523,495.63c-20.19-6.28-40-12.8-59.37-21.5a418.57,418.57,0,0,1-54.15-29.34,414.44,414.44,0,0,1-93.16-81.67c-17.72-21.07-33.86-43.45-50.89-65.07,2.07-.87,4.09-1.81,6-2.78,7.07-3.54,12.76-8.73,14.92-16.54,2.44-8.84,0-18-2.78-26.38-3.17-9.58-6.67-19.28-11.33-28.24-4-7.7-9.83-14.55-18.5-16.89-7.83-2.12-16.3-.42-23.33,3.39a37.16,37.16,0,0,0-3.81,2.41c-10.24-14.4-14.11-31.84-18.16-48.75-4.1-17.11-7.9-34.31-10.35-51.75-4.56-32.44-4.15-65.89,7.46-96.89.67-1.8-.52-4.54-2.83-4.09a37.8,37.8,0,0,1-19.95-1.27,2.81,2.81,0,0,0-3.89,2c-3.39,16.79-7,33.53-10.52,50.3-4.69,5.07-8.31,11.5-11.86,17.36q-5.79,9.6-11,19.54a344.21,344.21,0,0,0-18.23,41.73,362.65,362.65,0,0,0-20.08,88.61A356.82,356.82,0,0,0,106,278.74c-3.34.58-6.65,1.31-9.89,2.17-5.66,1.5-10,4.07-12.31,9.63a24.11,24.11,0,0,0-1,15.1c1.24,4.9,4.12,10,8.46,12.78,3.79,2.42,9.16,2.61,12-1.43,3.29-4.75-.44-16.05,6.51-17.52,5.38,78.09,41.61,154.94,94.44,212.07,26.8,29,58.5,55.14,96.42,67.73,35.48,11.78,73.83,12.74,110.57,7.15,22.38-3.41,44.87-8.83,65.34-18.71,18.21-8.8,40-22.47,46.81-42.71a3.11,3.11,0,0,0,.07-1.78,64.75,64.75,0,0,0,.61-14.61l.27-2a2.85,2.85,0,0,0-.11-1.32c.38-2.09.76-4.19,1.21-6.27A3,3,0,0,0,523,495.63ZM255.11,213.77c7.59,3.43,11.59,11.44,14.72,18.7a243.58,243.58,0,0,1,9.38,25.25c2.31,7.6,4,16.6-.26,23.88-4.16,7.09-13.15,10.07-20.46,12.65-7.49,2.64-15.73,4.6-23.53,2.07-8.43-2.73-12.12-10.47-15.57-18-2.06-4.49-4.6-12.74-10.29-13.74-3-.53-6.48,1.17-9.21,2.07-2.55.85-4.8,1.62-5.45,4.5-.69,3.07.4,6.87.75,10,.52,4.76,1.06,9.52,1.58,14.29.95,8.69,1.52,17.17-6.29,22.93-5,3.71-13.54,8.47-20,8.31-4.36-.11-7.05-3.33-9.81-6.27q-5.26-5.6-10.29-11.39c-10.88-12.51-30.93-34.29-15.12-50.36,6.58-6.7,15.62-11.34,24.63-13.75a44.5,44.5,0,0,1,14.27-1.82c6.25.45,8.8,4.68,11.14,9.94a2.89,2.89,0,0,0,3.82,1.49q5.82-1.11,11.64-2.27c3-.6,6.35-.79,8.44-3.24,1.91-2.24,2.66-5.58,3.86-8.25a83.83,83.83,0,0,1,5.71-10.86C226.11,218.4,240.82,207.3,255.11,213.77ZM183.73,16.3a42.81,42.81,0,0,0,15,1.54C188.11,48.3,187.82,81.29,192.25,113c2.51,18,6.46,35.68,10.68,53.3s8.34,35.41,19,50.31c.06.08.13.15.19.22a59,59,0,0,0-9.9,13.1c-1.31,2.29-2.5,4.64-3.62,7-1,2.23-1.72,5.26-3.13,7.25-1.89,2.67-6.42,2.92-9.34,3.62l-6.35,1.55c-3.17-6.55-7.34-11.38-15.32-11.9a51.09,51.09,0,0,0-19.48,3,715.75,715.75,0,0,1,6.91-112C167.3,90.82,175.79,53.51,183.73,16.3Zm-35.87,91.05c3.63-7.4,7.47-14.69,11.58-21.82,2-3.45,4.22-6.85,6.39-10.29-3.6,18-6.9,36-9.35,54.09a712.11,712.11,0,0,0-6.42,113c-.87.38-1.74.76-2.58,1.17-7.39,3.54-15,8.52-19.78,15.39-4,5.74-4.59,12.39-3.31,18.95a23.76,23.76,0,0,0-7.72-.44q-2.4.17-4.8.45A355.29,355.29,0,0,1,147.86,107.35ZM106.39,294.6c-3,1.26-5,4.18-5.89,7.22a30.73,30.73,0,0,0-.86,6.89c0,.8.18,3.32-.41,4l-4.32,1.51A8.53,8.53,0,0,1,92.28,312a18.39,18.39,0,0,1-4.72-13.4c.3-6.45,3.32-10.6,9.57-12.36,9.24-2.6,19.47-4.69,28.92-2.49a54.71,54.71,0,0,0,6.22,11.85c-4.31-.41-8.64-.74-13-1.12C115.29,294.15,110.29,293,106.39,294.6ZM475.16,561.39c-18,8.86-37.69,14.11-57.42,17.58-35.32,6.21-72.22,6.63-107-3.1-37.25-10.42-68.32-34-95.08-61.28a358.94,358.94,0,0,1-66.33-94.25c-18.57-38.21-29.5-78.93-34.84-121,2.54.23,5.16.72,7.5.94,4.33.4,8.67.86,13,1.17a3.12,3.12,0,0,0,1.36-.22c1.62,2.07,3.29,4.08,5,6.07,6.15,7.3,12.46,15.84,20,21.81,4,3.17,8.53,3.64,13.07,2.79,6.59,26.44,18.82,51.92,33.31,74.87a294.91,294.91,0,0,0,54.13,63.65c43.89,38.76,99.11,64.1,157.94,66.86,32.73,1.53,65.15-3.26,96.73-11.57C508.54,542.19,491,553.62,475.16,561.39Zm43-54.72a2.75,2.75,0,0,0,.19,1.64l-1.65,11.52c-56.71,15-117.5,17.39-172.6-5-51.09-20.76-95.05-57.4-126.27-102.7C200.48,387,188.44,359.58,179,330.67c.71-.26,1.43-.54,2.13-.84,7.18-3,15.22-6.84,19.26-13.87,4.44-7.74,2.49-17.32,1.56-25.7-.57-5.06-1.38-10.17-1.7-15.25-.21-3.27.81-2.71,3.91-3.68,3.32-1,5.06-.4,6.71,2.59,4.26,7.71,6.6,16.55,13.24,22.74,5.77,5.4,13.92,7.2,21.62,6.61a59.21,59.21,0,0,0,15.17-3.44c27.76,37.85,55.51,76.11,90.42,107.79A421.11,421.11,0,0,0,455.42,477c20.38,9.55,41.86,18.16,63.75,23.72C518.85,502.7,518.5,504.69,518.16,506.67Z"/><path class="cls-4" d="M235,281.8c9.69,9.13,25.84,10.32,34.3-1,9.74-13.06,4.38-29.59-3.37-42.11-3.85-6.23-9-12.81-16.68-14.16a16.57,16.57,0,0,0-6.27.16,22.16,22.16,0,0,0-18.64,14.59C219.71,252.67,224.7,272.14,235,281.8Z"/><path class="cls-4" d="M163.06,252.75c-8.75-.36-16.47,6.38-19.08,14.43-3.13,9.66-.12,20.26,4.43,29,4.74,9.05,13.14,18.54,24,19.67,7.28.76,11.78-3.38,13.54-9a18.89,18.89,0,0,0,1.75-4.4c2.73-10.59.4-22.84-4.4-32.48C179.33,262.09,172.68,253.15,163.06,252.75Z"/><path class="cls-4" d="M256.24,340.84c4.44-8.69,1.36-21-1-29.9a2.83,2.83,0,0,0-3.61-1.69q-12.82,5.81-26,10.61c-8.66,3.12-17.62,5.44-26.22,8.68a2.79,2.79,0,0,0-3.6,2.9c1.62,18.79,19.35,32,37.83,27.29C242.43,356.46,252.07,349,256.24,340.84Zm-5.52-25c1.61,6.4,3.11,14.16,1.42,20.24a169,169,0,0,0-7-17.76C247,317.49,248.87,316.67,250.72,315.83ZM243.6,319a193.38,193.38,0,0,0,7,20.78,25.67,25.67,0,0,1-4.33,5.36c-.7-4-3-8-4.48-11.71a92.84,92.84,0,0,0-5.18-11.51C238.93,320.94,241.28,320,243.6,319Zm-18.67,7.28c3.43-1.18,6.84-2.45,10.21-3.78a91,91,0,0,0,4.15,11.82c1.55,4,2.72,8.83,5.31,12.28a35.43,35.43,0,0,1-10.41,6.13C231.68,343.82,229.07,334.49,224.93,326.25Zm-23.3,6c3.07-.48,6.15-1.11,9.22-1.85a113.54,113.54,0,0,0,4.76,12.75c1.42,3.36,2.67,7.19,4.77,10.25A25.3,25.3,0,0,1,201.63,332.25Zm21.48,21.67c-.88-4.09-3.25-7.88-4.93-11.7-1.8-4.09-3.4-8.27-5.27-12.34,3.25-.83,6.49-1.79,9.71-2.84,2.53,8.91,6,17.57,8.69,26.49A24,24,0,0,1,223.11,353.92Z"/><path class="cls-4" d="M162.06,167.34c-1.2,7.13-1,14.52-1,21.73a212.1,212.1,0,0,0,.86,23.38.52.52,0,0,0,1-.09c.31-7.49.13-15,.21-22.52s.76-15,.19-22.44A.65.65,0,0,0,162.06,167.34Z"/><path class="cls-4" d="M163.19,150.94c-.8,2-.48,4.59-.36,6.7a.55.55,0,0,0,1.08.06c.39-2.1,1-4.59.49-6.7A.66.66,0,0,0,163.19,150.94Z"/><path class="cls-4" d="M313.45,486.81a164.18,164.18,0,0,1-21.89-15.08c-13.17-10.58-25.28-22.56-37.52-34.18-.31-.29-.84.19-.56.52,11.65,13.19,23.59,25.91,37.34,37a161.91,161.91,0,0,0,20.64,14.22c7.13,4.11,15.37,8.68,23.62,9.92a1.14,1.14,0,0,0,.69-2.15C328.44,493.34,320.65,490.87,313.45,486.81Z"/><path class="cls-4" d="M354.28,502.88a21.65,21.65,0,0,0-6-1.18c-.41,0-.47.59-.14.75,1.83.86,3.73,1.55,5.6,2.33,1.7.7,3.47,1.87,5.33,2,.53,0,1.11-.56.69-1.07C358.42,504.13,356.18,503.5,354.28,502.88Z"/></svg>