<svg id="Layer_1" data-name="Layer 1" xmlns="http://www.w3.org/2000/svg" viewBox="0 0 600 600"><defs><style>.cls-1{fill:#fff;}.cls-2{fill:#8dc63f;}.cls-3{fill:#f7941e;}.cls-4{fill:#231f20;}</style></defs><title>doodle</title><path class="cls-1" d="M244.71,287.58c4.11-.57,3-6.68-.72-5.87-1.32.29-2,1.47-2.62,2.68h0A3.07,3.07,0,0,0,244.71,287.58Z"/><path class="cls-1" d="M257.09,347.12c10.35,1.54,20.8,2.46,31.24,3.45,18.45.64,36.73,2.19,55-2.57,11.06-2.88,21.29-7.86,31.05-13.64,8.41-5,18-10.25,24.52-17.56,11.75-13.14,9-32.84,1.84-47.47-8.68-17.62-23.22-29-41.8-35.43-35.6-12.26-77.83-9.66-110.68,9.16-27.76,15.91-50.66,48.49-34.19,80.26C222.78,340.05,239.43,344.49,257.09,347.12Zm120.49-35.76c-.05.34-.1.66-.18,1a4.32,4.32,0,0,1-4.08,3.07,4.27,4.27,0,0,1-4.09-3.07c-.08-.34-.13-.64-.18-1a6.52,6.52,0,0,1,.11-1.92,4.24,4.24,0,0,1,2-2.53,5,5,0,0,1,2.18-.58,4.14,4.14,0,0,1,2.6.91,3.89,3.89,0,0,1,1.55,2.2A6.52,6.52,0,0,1,377.58,311.36Zm-15.9-41.15a15,15,0,0,1,5.59-5.09,14.05,14.05,0,0,1,13.94.69c8.57,5.78,6.54,20.73-1.47,26.1a14.52,14.52,0,0,1-22.17-9.43A13.52,13.52,0,0,1,361.68,270.21Zm-65.44,14.08c.49-2.24,4.34-2.37,4.73,0,1.15,6.89,8,18.94,17,14.51,6.72-3.3,3.91-13,6.47-18.53,1.23-2.65,5.92-2.68,7.13,0,4.62,10.18-2.3,26.75-14.25,28.17C303.61,310.08,293.44,296.85,296.24,284.29ZM242.5,320.45c-6.12,0-6.11-9.35,0-9.35S248.61,320.45,242.5,320.45Zm-8.56-45.85c9.11-9.51,26.19-2.42,25.28,10.78s-19.26,18.3-26.5,6.88a12.27,12.27,0,0,1-1.84-5.53C229.18,283.08,231.47,277.17,233.94,274.6Z"/><path class="cls-2" d="M192.8,443.44a494.46,494.46,0,0,0,43.28,94.45c7.31,12.31,16,25.5,29.31,32.2,2.94,1.48,8.05,4.1,11.43,3.22,4.26-1.11,4.27-8.64,4.67-12.28a94.48,94.48,0,0,0-.8-25.69c-5.21-1.08-10.13-3-14.05-6.69-2.5-2.34.07-7.22,3.52-5.95a69.22,69.22,0,0,0,14.42,3.51,5.66,5.66,0,0,1,4.93.54c1.7.14,3.42.24,5.14.3-7-14.66-14.2-27.94-25.45-40.29a173,173,0,0,1-28.48-43.15c-5.72-12.19-9.57-26.05-4.46-39.12,4.23-10.82,13.43-19,23.7-24.33,26.42-13.61,59.27-10.17,87.61-5.61,12.86,2.07,22.25,7.44,27.52,19.51,6,13.64,7.1,29.09,5.18,43.69-1.87,14.1-6.65,27.62-12.79,40.44-6.47,13.53-15.26,26.49-17.13,41.51,2.18-.68,4.35-1.43,6.48-2.24a89.08,89.08,0,0,0,12.36-5.88c4.15-2.37,7.9-5.42,12.69-6.33a4.25,4.25,0,0,1,4.79,6.12c-2.61,5.55-8.69,9.43-15,12.38a90,90,0,0,0,2.6,29c1,3.83,2.19,10.53,5.46,13.34,5,4.28,10.58-2,13.17-5.67,11-15.44,18.83-34.08,25.43-51.68,13.22-35.28,20.89-72.47,26.8-109.54,5.29-33.19,10-68.09,1.94-101.25-7.77-32.17-28.41-58.75-57.9-74.57-31-16.62-67.44-19.73-101.85-14.29-30.66,4.85-62.29,15.62-85,37.24-25.13,23.92-33.07,58.68-31.75,92.05C172,373.92,181.44,409.79,192.8,443.44Zm241.09-21.82a1.37,1.37,0,0,1-2.53-.68c.19-7.56,2.78-15.49,4.06-22.94.22-1.31,2.06-.83,2.16.28C438.31,405.78,438,415,433.89,421.62Zm-2.52-134.7c7.22,14,8.42,31.62,9,47.11.66,16.29,1.64,34.72-2.5,50.6-.46,1.79-2.82,1.17-3-.4-1.92-15.58,1.09-32,.75-47.7-.35-16.68-4-32.37-6.31-48.77C429.18,286.63,430.75,285.71,431.37,286.92ZM254.78,227.34c38.93-17.4,90.61-18.73,128,3.85,32.09,19.4,53.53,72.15,19.45,99.57-16.5,13.29-37.09,24.93-57.95,29.75-21.61,5-46,3.91-67.78-.9-12.42-1-25.17-1.95-37.25-5-20.68-5.16-35.61-20.21-40-40.86C190.88,274.65,220.82,242.51,254.78,227.34Zm-56.3,212c2.25,4.73,6.07,9.86,6.6,15.15.11,1.12-1.48,1.64-2.21.9-3.72-3.79-5-10.29-6.58-15.14C195.87,439,197.91,438.15,198.48,439.36Zm-18.57-95.69c.13-.84,1.5-.78,1.67,0,2.79,13.11,3.08,26.72,5.55,39.93q1.86,10,4.49,19.77c1.57,5.84,3.88,11.55,4.22,17.62.08,1.4-1.84,1.72-2.54.67-3.82-5.77-5.16-12.92-6.81-19.53s-3-13.18-4.15-19.85C180.23,369.79,178.06,356.28,179.91,343.67Z"/><path class="cls-3" d="M149.34,449.3c10.39-4.83,15.81-17.79,20.71-27.19a4.23,4.23,0,0,1,2.85-2.25c-3.31-11.62-6.32-23.71-8.71-36-1.53,4.58-3.42,9.06-5.14,13.34-4,10-8.57,19.8-13.36,29.48-2.38,4.8-5.8,9.79-7.23,15C136.35,449.34,143.07,452.22,149.34,449.3Z"/><path class="cls-3" d="M415.9,89.78c.39-2.43,3.41-20.36-2.35-18.51-3.75,1.2-8.17,10.21-10,13.54a104.88,104.88,0,0,0-6.78,15.62c-3.84,10.81-6.95,21.89-10.08,32.91-6.49,22.83-11.2,46.07-17.27,69a153,153,0,0,1,14.77,5.36c6.44-21.39,13-42.75,19-64.25,3.31-11.83,6.4-23.73,9.06-35.72C413.61,101.77,414.91,95.79,415.9,89.78Z"/><path class="cls-3" d="M233,211.7l.15.63q6.52-2.94,13.32-5.36c-3.26-19.89-6.53-39.79-10.59-59.55-2.09-10.18-4.31-20.36-7-30.4a124.81,124.81,0,0,0-4-12.53,68.11,68.11,0,0,0-3.13-7c-.72-1.36-4.16-7.39-6.8-5.34-2.21,1.71-.34,12.91-.18,15.61.35,5.49,1,11,1.81,16.41,1.46,10,3.31,19.91,5.08,29.84s3.57,19.78,5.38,29.67q1.31,7.08,2.64,14.18c.71,3.76,3.33,10.51,1.53,13.66A1,1,0,0,1,233,211.7Z"/><path class="cls-1" d="M373.4,282.36c1.31-1.09,2.72-6.23.79-7.13-1.54-.71-3.71,1-5.73,2.62a4.85,4.85,0,0,0-.15,2.28C368.72,282.37,371.33,284.08,373.4,282.36Z"/><path class="cls-3" d="M374.12,441.81c2.63-14.52,2.15-29.95-3.29-43.83-3-7.77-7.83-13.67-16.11-16.33-6.32-2-13.16-2.57-19.72-3.36-26.56-3.2-58.21-5.59-80.79,11.41-12,9.07-17.6,22.33-14.28,37.11,3,13.52,10.9,26.45,18.29,38.1,7.28,11.47,17.44,20.46,25.3,31.46,6.72,9.41,11.47,20,15.66,30.76a205.56,205.56,0,0,0,29.92-2.61,149.06,149.06,0,0,0,15.59-3.19c1.1-13.14,7.15-24.76,13.26-36.38C365.13,471.28,371.37,457.06,374.12,441.81Z"/><path class="cls-3" d="M462.68,413.26a61.18,61.18,0,0,0,13.83,10.12c1.5.76,13.55,5.05,13.94,3.85,1.06-3.26-6.59-11.86-8.55-14.49a255,255,0,0,1-18.62-27.87c-.84-1.51-2.08-3.41-3.34-5.51-1.22,9.11-2.72,18.21-4.38,27.26C458.13,408.5,460.19,410.94,462.68,413.26Z"/><path class="cls-2" d="M383.16,128.34c5-18,9.48-38,20.71-53.43,2.71-3.74,8.48-12.51,14.31-9.29,5.64,3.1,4,15.33,3.42,20.17-2.69,22.06-9.13,44-15.24,65.33-5.61,19.6-11.57,39.12-17.45,58.65q4.84,2.25,9.52,4.85c10.83-28.24,21.55-56.53,30.49-85.41,4.2-13.57,8-27.26,11.23-41.09,3.06-13.15,6.68-27,5.39-40.62-1.07-11.24-7.61-23.7-19.65-26.58s-20.43,7.41-25.31,16.73c-6.19,11.83-9.52,25.27-13,38.06-3.76,13.73-7.44,27.47-11.17,41.21q-5.79,21.37-11.76,42.72c-3.64,13-7.28,25.77-9,39.08q5.28,1.13,10.46,2.6C369.62,176.72,376.44,152.25,383.16,128.34Z"/><path class="cls-2" d="M229.67,213.92c-2.65-2-2.59-6.87-3.23-9.82-1.29-6-2.42-12-3.6-18q-3.68-18.65-7-37.35c-2.12-11.88-4.38-23.79-5.52-35.81-.58-6.11-3.71-21.11,2.23-25.88,13.37-10.73,23.22,37.76,24.57,43.59,5.72,24.7,9.89,49.7,14.06,74.69,4.42-1.44,8.9-2.75,13.43-3.88,0,0,0,0,0,0q-8.57-42.24-21.08-83.59-5.42-17.86-11.61-35.5c-3.56-10.12-7-20.65-13.15-29.58-4.63-6.7-16.33-17.79-25.28-11.58-7.87,5.45-2.76,23.34-1.8,30.85,6.31,49.59,17.11,98.15,28.57,146.76C223.33,217.06,226.47,215.45,229.67,213.92Z"/><path class="cls-4" d="M239.21,354.64c12.08,3,24.83,4,37.25,5,21.76,4.81,46.17,5.9,67.78.9,20.86-4.82,41.45-16.46,57.95-29.75,34.08-27.42,12.64-80.17-19.45-99.57-37.35-22.58-89-21.25-128-3.85-34,15.17-63.9,47.31-55.57,86.44C203.6,334.43,218.53,349.48,239.21,354.64Zm9.09-111.58c32.85-18.82,75.08-21.42,110.68-9.16,18.58,6.39,33.12,17.81,41.8,35.43,7.2,14.63,9.91,34.33-1.84,47.47-6.54,7.31-16.11,12.58-24.52,17.56-9.76,5.78-20,10.76-31.05,13.64-18.31,4.76-36.59,3.21-55,2.57-10.44-1-20.89-1.91-31.24-3.45-17.66-2.63-34.31-7.07-43-23.8C197.64,291.55,220.54,259,248.3,243.06Z"/><path class="cls-4" d="M152.55,458.9c10.54-4.41,19.08-15.78,24-26.59.88,2.85,1.77,5.67,2.67,8.44a519.94,519.94,0,0,0,24.07,60.88c9.09,19.39,18.89,39.45,31.8,56.7,9.4,12.57,26.31,29.67,44.11,26.62,10.45-1.78,12.47-11.13,13.64-20.08a105.15,105.15,0,0,0-.26-28.19l2.26.11a210.61,210.61,0,0,0,34.61-1.18A130.93,130.93,0,0,0,361,528.15l.82-.32a80.38,80.38,0,0,0,.76,20.46c1.35,8.14,3.44,19.12,9.58,25.28,5.11,5.15,13.23,5.56,19.54,2.36,7.88-4,12.28-12.5,16.45-19.79,19.37-33.82,31-71.35,39.2-109.16,2-9.21,4-18.55,5.88-28,2.44,2.29,5.13,4.35,7.5,6.24a58.66,58.66,0,0,0,16.83,9.67c9.09,3.24,27.06,4.18,22.93-10.41-1.87-6.63-6.21-12.4-10.34-17.82-4.6-6.05-9-12.19-13.14-18.57-4.37-6.78-8-13.91-12.1-20.85a28.21,28.21,0,0,0-3.07-4.32,295.19,295.19,0,0,0,1.29-34c-.88-37.42-13.49-73.8-42.64-99a131.64,131.64,0,0,0-11.74-9c11.53-30.12,23.07-60.28,32.42-91.13,4.75-15.65,8.95-31.47,12.29-47.47,3-14.13,5.85-29,2.41-43.31-5.44-22.69-31.78-39.61-52.57-23-9.41,7.5-14.42,19-18.38,29.92-5.57,15.43-9.38,31.47-13.61,47.29-4.86,18.16-9.74,36.32-14.48,54.51-4.11,15.81-10.17,32.67-10.18,49.28A181.33,181.33,0,0,0,314,194.91a229.91,229.91,0,0,0-37.9,4.05c0-.21,0-.42-.06-.63a831.73,831.73,0,0,0-21.33-84.86q-6.48-20.91-14-41.5c-3.81-10.33-8-20.75-15.12-29.36-6.61-8-16.26-14.49-27.11-14.31-10.68.18-18.32,7.59-19.9,17.75-2,12.59,1.77,26.74,3.55,39.21,2.12,14.79,4.52,29.54,7.31,44.22,6,31.64,13.2,63.28,23.13,94-1.46.95-2.92,1.9-4.34,2.9-47.55,33.45-54.37,87.65-46.86,140.75-3.31,5.77-5.38,12.26-7.8,18.39-3,7.71-6.48,15.26-10,22.75-3.39,7.12-7,14.14-10.61,21.14-3,5.71-6.52,12-5.23,18.64C129.84,459.13,142.93,462.93,152.55,458.9Zm307.39-79.54c1.26,2.1,2.5,4,3.34,5.51a255,255,0,0,0,18.62,27.87c2,2.63,9.61,11.23,8.55,14.49-.39,1.2-12.44-3.09-13.94-3.85a61.18,61.18,0,0,1-13.83-10.12c-2.49-2.32-4.55-4.76-7.12-6.64C457.22,397.57,458.72,388.47,459.94,379.36ZM329.1,524.52a205.56,205.56,0,0,1-29.92,2.61c-4.19-10.71-8.94-21.35-15.66-30.76-7.86-11-18-20-25.3-31.46-7.39-11.65-15.25-24.58-18.29-38.1-3.32-14.78,2.24-28,14.28-37.11,22.58-17,54.23-14.61,80.79-11.41,6.56.79,13.4,1.32,19.72,3.36,8.28,2.66,13.07,8.56,16.11,16.33,5.44,13.88,5.92,29.31,3.29,43.83-2.75,15.25-9,29.47-16.17,43.14-6.11,11.62-12.16,23.24-13.26,36.38A149.06,149.06,0,0,1,329.1,524.52Zm35.53-364.88q6-21.34,11.76-42.72c3.73-13.74,7.41-27.48,11.17-41.21,3.5-12.79,6.83-26.23,13-38.06,4.88-9.32,13.32-19.6,25.31-16.73s18.58,15.34,19.65,26.58c1.29,13.59-2.33,27.47-5.39,40.62-3.21,13.83-7,27.52-11.23,41.09-8.94,28.88-19.66,57.17-30.49,85.41q-4.67-2.61-9.52-4.85c5.88-19.53,11.84-39.05,17.45-58.65,6.11-21.33,12.55-43.27,15.24-65.33.59-4.84,2.22-17.07-3.42-20.17-5.83-3.22-11.6,5.55-14.31,9.29-11.23,15.45-15.66,35.42-20.71,53.43-6.72,23.91-13.54,48.38-17.11,73q-5.18-1.47-10.46-2.6C357.35,185.41,361,172.6,364.63,159.64Zm19.57,48.05a153,153,0,0,0-14.77-5.36c6.07-22.92,10.78-46.16,17.27-69,3.13-11,6.24-22.1,10.08-32.91a104.88,104.88,0,0,1,6.78-15.62c1.82-3.33,6.24-12.34,10-13.54,5.76-1.85,2.74,16.08,2.35,18.51-1,6-2.29,12-3.61,17.94-2.66,12-5.75,23.89-9.06,35.72C397.21,164.94,390.64,186.3,384.2,207.69ZM191.69,72c-1-7.51-6.07-25.4,1.8-30.85,8.95-6.21,20.65,4.88,25.28,11.58,6.19,8.93,9.59,19.46,13.15,29.58q6.18,17.63,11.61,35.5,12.51,41.28,21.08,83.59s0,0,0,0c-4.53,1.13-9,2.44-13.43,3.88-4.17-25-8.34-50-14.06-74.69-1.35-5.83-11.2-54.32-24.57-43.59-5.94,4.77-2.81,19.77-2.23,25.88,1.14,12,3.4,23.93,5.52,35.81q3.33,18.71,7,37.35c1.18,6,2.31,12,3.6,18,.64,3,.58,7.8,3.23,9.82-3.2,1.53-6.34,3.14-9.41,4.87C208.8,170.18,198,121.62,191.69,72Zm38,125.78q-1.33-7.09-2.64-14.18-2.72-14.83-5.38-29.67c-1.77-9.93-3.62-19.86-5.08-29.84-.8-5.45-1.46-10.92-1.81-16.41-.16-2.7-2-13.9.18-15.61,2.64-2,6.08,4,6.8,5.34a68.11,68.11,0,0,1,3.13,7,124.81,124.81,0,0,1,4,12.53c2.69,10,4.91,20.22,7,30.4,4.06,19.76,7.33,39.66,10.59,59.55q-6.8,2.42-13.32,5.36l-.15-.63a1,1,0,0,0-1.76-.23C233,208.32,230.38,201.57,229.67,197.81ZM202.32,246.3c22.72-21.62,54.35-32.39,85-37.24,34.41-5.44,70.89-2.33,101.85,14.29,29.49,15.82,50.13,42.4,57.9,74.57,8,33.16,3.35,68.06-1.94,101.25-5.91,37.07-13.58,74.26-26.8,109.54-6.6,17.6-14.41,36.24-25.43,51.68-2.59,3.63-8.18,10-13.17,5.67-3.27-2.81-4.42-9.51-5.46-13.34a90,90,0,0,1-2.6-29c6.3-3,12.38-6.83,15-12.38a4.25,4.25,0,0,0-4.79-6.12c-4.79.91-8.54,4-12.69,6.33a89.08,89.08,0,0,1-12.36,5.88c-2.13.81-4.3,1.56-6.48,2.24,1.87-15,10.66-28,17.13-41.51,6.14-12.82,10.92-26.34,12.79-40.44,1.92-14.6.79-30.05-5.18-43.69-5.27-12.07-14.66-17.44-27.52-19.51-28.34-4.56-61.19-8-87.61,5.61-10.27,5.29-19.47,13.51-23.7,24.33-5.11,13.07-1.26,26.93,4.46,39.12a173,173,0,0,0,28.48,43.15c11.25,12.35,18.48,25.63,25.45,40.29-1.72-.06-3.44-.16-5.14-.3a5.66,5.66,0,0,0-4.93-.54,69.22,69.22,0,0,1-14.42-3.51c-3.45-1.27-6,3.61-3.52,5.95,3.92,3.67,8.84,5.61,14.05,6.69a94.48,94.48,0,0,1,.8,25.69c-.4,3.64-.41,11.17-4.67,12.28-3.38.88-8.49-1.74-11.43-3.22-13.3-6.7-22-19.89-29.31-32.2a494.46,494.46,0,0,1-43.28-94.45c-11.36-33.65-20.83-69.52-22.23-105.09C169.25,305,177.19,270.22,202.32,246.3ZM138.46,441.67c1.43-5.18,4.85-10.17,7.23-15,4.79-9.68,9.35-19.46,13.36-29.48,1.72-4.28,3.61-8.76,5.14-13.34,2.39,12.27,5.4,24.36,8.71,36a4.23,4.23,0,0,0-2.85,2.25c-4.9,9.4-10.32,22.36-20.71,27.19C143.07,452.22,136.35,449.34,138.46,441.67Z"/><path class="cls-4" d="M232.72,292.26c7.24,11.42,25.59,6.25,26.5-6.88s-16.17-20.29-25.28-10.78c-2.47,2.57-4.76,8.48-3.06,12.13A12.27,12.27,0,0,0,232.72,292.26Zm8.65-7.87c.58-1.21,1.3-2.39,2.62-2.68,3.7-.81,4.83,5.3.72,5.87a3.07,3.07,0,0,1-3.34-3.18Z"/><path class="cls-4" d="M379.74,291.91c8-5.37,10-20.32,1.47-26.1a14.05,14.05,0,0,0-13.94-.69,15,15,0,0,0-5.59,5.09,13.52,13.52,0,0,0-4.11,12.27A14.52,14.52,0,0,0,379.74,291.91Zm-11.28-14.06c2-1.61,4.19-3.33,5.73-2.62,1.93.9.52,6-.79,7.13-2.07,1.72-4.68,0-5.09-2.23A4.85,4.85,0,0,1,368.46,277.85Z"/><path class="cls-4" d="M317.34,308.44c12-1.42,18.87-18,14.25-28.17-1.21-2.68-5.9-2.65-7.13,0-2.56,5.52.25,15.23-6.47,18.53-9,4.43-15.87-7.62-17-14.51-.39-2.37-4.24-2.24-4.73,0C293.44,296.85,303.61,310.08,317.34,308.44Z"/><path class="cls-4" d="M242.5,311.1c-6.11,0-6.12,9.35,0,9.35S248.62,311.1,242.5,311.1Z"/><path class="cls-4" d="M375.92,307.24a4.14,4.14,0,0,0-2.6-.91,5,5,0,0,0-2.18.58,4.24,4.24,0,0,0-2,2.53,6.52,6.52,0,0,0-.11,1.92c.05.35.1.65.18,1a4.27,4.27,0,0,0,4.09,3.07,4.32,4.32,0,0,0,4.08-3.07c.08-.33.13-.65.18-1a6.52,6.52,0,0,0-.11-1.92A3.89,3.89,0,0,0,375.92,307.24Z"/><path class="cls-4" d="M434.9,384.23c.19,1.57,2.55,2.19,3,.4,4.14-15.88,3.16-34.31,2.5-50.6-.62-15.49-1.82-33.07-9-47.11-.62-1.21-2.19-.29-2,.84,2.35,16.4,6,32.09,6.31,48.77C436,352.26,433,368.65,434.9,384.23Z"/><path class="cls-4" d="M435.42,398c-1.28,7.45-3.87,15.38-4.06,22.94a1.37,1.37,0,0,0,2.53.68c4.13-6.61,4.42-15.84,3.69-23.34C437.48,397.17,435.64,396.69,435.42,398Z"/><path class="cls-4" d="M186.49,402.13c1.65,6.61,3,13.76,6.81,19.53.7,1,2.62.73,2.54-.67-.34-6.07-2.65-11.78-4.22-17.62q-2.62-9.8-4.49-19.77c-2.47-13.21-2.76-26.82-5.55-39.93-.17-.78-1.54-.84-1.67,0-1.85,12.61.32,26.12,2.43,38.61Q184,392.29,186.49,402.13Z"/><path class="cls-4" d="M202.87,455.41c.73.74,2.32.22,2.21-.9-.53-5.29-4.35-10.42-6.6-15.15-.57-1.21-2.61-.36-2.19.91C197.91,445.12,199.15,451.62,202.87,455.41Z"/></svg>