<svg id="Layer_1" data-name="Layer 1" xmlns="http://www.w3.org/2000/svg" viewBox="0 0 600 600"><defs><style>.cls-1{fill:#939598;}.cls-2{fill:#8b5e3c;}.cls-3{fill:#603913;}.cls-4{fill:#231f20;}</style></defs><title>doodle</title><path class="cls-1" d="M353.35,215.14q-7.86,6.3-15.62,12.71c3.44,3.91,6.57,8,10.67,11.32a55.81,55.81,0,0,0,17.39,9.41c3.82-6,7.57-12.06,11.8-17.69C368.83,227,360.8,221.15,353.35,215.14Z"/><path class="cls-2" d="M482.12,77.69c-1.87,16.56-3.54,33.58-10.83,48.8A66.39,66.39,0,0,1,437,158.94c-15.35,6.33-32.64,7.05-45.77,18.21-12.51,10.64-18.34,25.54-22.78,40.82,1.95,1.19,3.91,2.36,5.88,3.53,6-13.69,14.92-27.37,27.73-35.27,11.36-7,24.66-9.64,37.07-14.14a76.79,76.79,0,0,0,36.18-26.87c9.41-12.9,13-27.51,15.06-43.09,1.14-8.65,2.19-17.31,3.31-26,.92-7.09,1.31-14.71,3.14-21.67a111.05,111.05,0,0,1-.38-14.36,67.8,67.8,0,0,1,1.93-13.75c.26-1,.58-2.07.92-3.09-4.72,7.21-8.85,14.29-11.42,22.88C484.76,56.45,483.32,67.07,482.12,77.69Z"/><path class="cls-1" d="M340.53,266.76a71.8,71.8,0,0,1-10.62-7.36c-4.72-4-9.38-9.26-11.34-15.31-1.09.93-2.18,1.86-3.29,2.78a45.18,45.18,0,0,0,13.42,15.44,76,76,0,0,0,10,6.3c3.38,1.78,7.37,2.84,10.45,5.07l1.26-1.89C347,270.75,343.59,268.52,340.53,266.76Z"/><path class="cls-2" d="M365.19,215.92c3.44-16,11.92-32.24,24.61-42.48s28.26-11.57,42.95-16.9c18.65-6.76,32.51-21.83,38.72-40.54,5.79-17.43,6-36,9-54,1.77-10.5,4.62-23.07,10.65-32.95a60.33,60.33,0,0,0-6.1,6.54,67.54,67.54,0,0,0-12.6,25.57c-3.93,15.67-3,32.42-8.94,47.63-6.19,16-19.61,25-34.12,32.83-16.7,9.05-34,17.33-50.31,27.13-15.36,9.25-21.38,24.3-21.88,41.55C359.81,212.34,362.48,214.17,365.19,215.92Z"/><path class="cls-2" d="M371.8,166.47c7.75-5.68,16.72-9.85,25.13-14.45,9.26-5.08,18.54-10.11,27.81-15.17,8.11-4.42,16.39-8.9,23-15.46a41.81,41.81,0,0,0,9.21-14.1s0-.07,0-.11c.48-4.36.92-8.35,0-12.7-.17-.84-.38-1.67-.6-2.5-3.22,10-10.12,18.93-17.68,25.73-11.41,10.27-25.54,16.7-39.44,22.82-14.39,6.33-30.31,12.43-40.86,24.63-9.36,10.83-11.62,24.06-6.22,36.18C353,187.71,361.06,174.35,371.8,166.47Z"/><path class="cls-3" d="M326.75,283.07a109.68,109.68,0,0,1-14-10.84,50.21,50.21,0,0,1-7.87-8.64C286,285.81,267,307.86,248,330Q195.53,391,142.87,452,116.94,482.08,91,512.13c-12.93,15-25.71,30.23-37.33,46.28,16.2-14.6,30.76-31,46.05-46.56,18.85-19.23,39.72-36.24,60-53.93q31.47-27.51,62-56.12,58.41-54.92,113.18-113.51C331.91,286.68,329.08,284.6,326.75,283.07Z"/><path class="cls-1" d="M333.56,231.29l-3.37,2.78c-3.25,2.7-6.46,5.55-9.71,8.36,3.51,6,7.23,11.28,12.85,15.71a74.27,74.27,0,0,0,10.43,6.74c2.71,1.49,5.8,2.62,8.33,4.43q5-7.51,10-15C350.92,250.17,339.05,242.1,333.56,231.29Z"/><path class="cls-1" d="M323.45,266c-5.12-4.14-10.58-9.36-12.27-15.9-1.21.94-2.44,1.86-3.69,2.73-.8,8.58,10.36,16.1,16.26,20.53a105.18,105.18,0,0,0,12.62,8.14,29,29,0,0,0,3.88,2.16,3,3,0,0,1,1.41.29,2.29,2.29,0,0,0,.74-.11c1.07-.36,2.77-4,3.59-5.38C338,277.27,329.41,270.87,323.45,266Z"/><path class="cls-2" d="M492.94,109.76c-4.22,27.93-20.87,52.48-47.36,63.68-13,5.5-27.41,7.73-39.88,14.57-14.37,7.86-21.13,21.5-29.15,34.82l4.48,2.69c2.27-4.23,5.62-8.2,8.49-11.6a85.14,85.14,0,0,1,16-14.65c12.29-8.68,25.79-12.12,40.14-15.76,15.12-3.85,27.54-11.16,37.51-23.28A102.15,102.15,0,0,0,495.25,141c1.15-4.67,2.17-9.29,3.09-13.81,2-9.92,3.58-19.75,3.24-29.91-.33-9.78-1.91-19.46-3.22-29.15V68c-.66,5.06-1.52,10.11-2.1,15C495.18,91.9,494.28,100.86,492.94,109.76Z"/><path class="cls-2" d="M412.8,198.85A83.28,83.28,0,0,0,394.16,214c-3.79,4.13-6.5,9-9.61,13.55l.27,0c5.44-6.24,15.37-9.52,22.95-11.67,9.83-2.79,20-4.16,29.94-6.34,11.26-2.46,22.07-6.24,31.29-13.36a62.94,62.94,0,0,0,8.56-8A165.57,165.57,0,0,0,491.69,154c-1.31,2-2.66,3.88-4,5.7-8,10.6-18.19,19.31-30.69,24C442.18,189.38,426.65,190.61,412.8,198.85Z"/><path class="cls-2" d="M414.77,217.72a88.7,88.7,0,0,0-15.43,4.81,50.57,50.57,0,0,0-7.94,4.6c4.37.31,8.79,1.5,13.17,2.26a59.44,59.44,0,0,0,29.2-2.72c15.63-5.33,27.52-15.27,36.69-27.64a74,74,0,0,1-24.27,12C435.87,213.94,425.21,215.31,414.77,217.72Z"/><path class="cls-4" d="M341.57,290.7c4.65.46,6.83-4.4,9-7.66l11.34-17c6.86-10.3,14.69-20.45,20.89-31.21l.31-.1c7.95-3.35,17.6,1.37,25.75,2a66.38,66.38,0,0,0,25.9-3.26c18.49-6.08,33.44-19.13,44.34-35,12.18-17.79,18.9-38.68,23.63-59.52,2.29-10.13,4.6-20.42,5.4-30.79.75-9.77-.28-19.55-1.66-29.21-1.62-11.42-3.87-22.81-4.1-34.38a63.69,63.69,0,0,1,2-18.34c.8-2.87,3.53-6.67,3.68-10,1.54-2.27-.9-5.5-3.93-4.24C489,18.3,476.56,32.91,470.06,47.7c-5.68,12.95-6.34,26.81-8.4,40.51-1-3-2.07-5.84-2.9-8.35A2.57,2.57,0,0,0,455.61,78a2.68,2.68,0,0,0-3.3,2.15c-3.08,17.76-13.19,31-28.22,40.78-13.66,8.88-29.09,14.39-43.63,21.58-13.88,6.86-27.58,16.18-34,30.87-5.13,11.82-3.79,25.86,4,36.11q-12,9.66-23.82,19.57c-7.95,6.7-16.76,13.25-23.65,21.06a2.5,2.5,0,0,0-.55,2.15,10.28,10.28,0,0,0-.12,6.06c-71.34,81-141.44,163.09-212,244.78-19.31,22.36-38.5,44.89-54.25,70-2,3.21,2.24,5.77,4.84,3.81,21-15.78,38.52-35.27,56.62-54.11,18.56-19.32,38.8-36.55,59-54.07q62.46-54.09,121.23-112.3,32.48-32.21,63.62-65.74Zm92.2-64a59.44,59.44,0,0,1-29.2,2.72c-4.38-.76-8.8-1.95-13.17-2.26a50.57,50.57,0,0,1,7.94-4.6,88.7,88.7,0,0,1,15.43-4.81c10.44-2.41,21.1-3.78,31.42-6.7a74,74,0,0,0,24.27-12C461.29,211.4,449.4,221.34,433.77,226.67ZM491.69,154a165.57,165.57,0,0,1-14.13,34.07,62.94,62.94,0,0,1-8.56,8c-9.22,7.12-20,10.9-31.29,13.36-10,2.18-20.11,3.55-29.94,6.34-7.58,2.15-17.51,5.43-22.95,11.67l-.27,0c3.11-4.55,5.82-9.42,9.61-13.55a83.28,83.28,0,0,1,18.64-15.17c13.85-8.24,29.38-9.47,44.16-15.06,12.5-4.74,22.7-13.45,30.69-24C489,157.92,490.38,156,491.69,154Zm6.67-85.95c1.31,9.69,2.89,19.37,3.22,29.15.34,10.16-1.21,20-3.24,29.91-.92,4.52-1.94,9.14-3.09,13.81a102.15,102.15,0,0,1-12.05,19.27c-10,12.12-22.39,19.43-37.51,23.28-14.35,3.64-27.85,7.08-40.14,15.76a85.14,85.14,0,0,0-16,14.65c-2.87,3.4-6.22,7.37-8.49,11.6l-4.48-2.69c8-13.32,14.78-27,29.15-34.82,12.47-6.84,26.84-9.07,39.88-14.57,26.49-11.2,43.14-35.75,47.36-63.68,1.34-8.9,2.24-17.86,3.31-26.79.58-4.87,1.44-9.92,2.1-15Zm.9-44.79c-.34,1-.66,2.05-.92,3.09a67.8,67.8,0,0,0-1.93,13.75,111.05,111.05,0,0,0,.38,14.36c-1.83,7-2.22,14.58-3.14,21.67-1.12,8.65-2.17,17.31-3.31,26-2,15.58-5.65,30.19-15.06,43.09a76.79,76.79,0,0,1-36.18,26.87c-12.41,4.5-25.71,7.12-37.07,14.14-12.81,7.9-21.7,21.58-27.73,35.27-2-1.17-3.93-2.34-5.88-3.53,4.44-15.28,10.27-30.18,22.78-40.82C404.33,166,421.62,165.27,437,158.94a66.39,66.39,0,0,0,34.32-32.45c7.29-15.22,9-32.24,10.83-48.8,1.2-10.62,2.64-21.24,5.72-31.51C490.41,37.59,494.54,30.51,499.26,23.3ZM358.39,165.16c10.55-12.2,26.47-18.3,40.86-24.63,13.9-6.12,28-12.55,39.44-22.82,7.56-6.8,14.46-15.78,17.68-25.73.22.83.43,1.66.6,2.5.91,4.35.47,8.34,0,12.7,0,0,0,.08,0,.11a41.81,41.81,0,0,1-9.21,14.1c-6.61,6.56-14.89,11-23,15.46-9.27,5.06-18.55,10.09-27.81,15.17-8.41,4.6-17.38,8.77-25.13,14.45-10.74,7.88-18.78,21.24-19.63,34.87C346.77,189.22,349,176,358.39,165.16Zm20.7,3.61c16.28-9.8,33.61-18.08,50.31-27.13,14.51-7.86,27.93-16.85,34.12-32.83,5.9-15.21,5-32,8.94-47.63a67.54,67.54,0,0,1,12.6-25.57,60.33,60.33,0,0,1,6.1-6.54c-6,9.88-8.88,22.45-10.65,33-3,18-3.25,36.55-9,54-6.21,18.71-20.07,33.78-38.72,40.54-14.69,5.33-30.4,6.76-42.95,16.9s-21.17,26.48-24.61,42.48c-2.71-1.75-5.38-3.58-8-5.6C357.71,193.07,363.73,178,379.09,168.77Zm-157.42,233q-30.45,28.63-62,56.12c-20.25,17.69-41.12,34.7-60,53.93-15.29,15.58-29.85,32-46.05,46.56,11.62-16,24.4-31.25,37.33-46.28Q116.9,482,142.87,452,195.49,391,248,330c19-22.09,38-44.14,56.82-66.36a50.21,50.21,0,0,0,7.87,8.64,109.68,109.68,0,0,0,14,10.84c2.33,1.53,5.16,3.61,8.1,5.22Q280,346.73,221.67,401.8ZM342.4,283.88a2.29,2.29,0,0,1-.74.11,3,3,0,0,0-1.41-.29,29,29,0,0,1-3.88-2.16,105.18,105.18,0,0,1-12.62-8.14c-5.9-4.43-17.06-11.95-16.26-20.53,1.25-.87,2.48-1.79,3.69-2.73,1.69,6.54,7.15,11.76,12.27,15.9,6,4.83,14.51,11.23,22.54,12.46C345.17,279.91,343.47,283.52,342.4,283.88Zm6.78-10.2c-3.08-2.23-7.07-3.29-10.45-5.07a76,76,0,0,1-10-6.3,45.18,45.18,0,0,1-13.42-15.44c1.11-.92,2.2-1.85,3.29-2.78,2,6,6.62,11.31,11.34,15.31a71.8,71.8,0,0,0,10.62,7.36c3.06,1.76,6.43,4,9.91,5Zm2.91-4.37c-2.53-1.81-5.62-2.94-8.33-4.43a74.27,74.27,0,0,1-10.43-6.74c-5.62-4.43-9.34-9.73-12.85-15.71,3.25-2.81,6.46-5.66,9.71-8.36l3.37-2.78c5.49,10.81,17.36,18.88,28.51,23Q357.08,261.81,352.09,269.31Zm-3.69-30.14c-4.1-3.34-7.23-7.41-10.67-11.32q7.77-6.39,15.62-12.71c7.45,6,15.48,11.86,24.24,15.75-4.23,5.63-8,11.73-11.8,17.69A55.81,55.81,0,0,1,348.4,239.17Z"/></svg>