<svg id="Layer_1" data-name="Layer 1" xmlns="http://www.w3.org/2000/svg" viewBox="0 0 600 600"><defs><style>.cls-1{fill:#00aeef;}.cls-2{fill:#fff;}.cls-3{fill:#8dc63f;}.cls-4{fill:#be1e2d;}.cls-5{fill:#231f20;}</style></defs><title>doodle</title><path class="cls-1" d="M288.83,505.34q51-4.8,102.12-9.34c4.38-.38,7.5,3.85,7.74,7.74a157.64,157.64,0,0,0,8.87,44.07c1.52,4.22,4,12.26,8.85,13.85,6,1.94,13.06-6,16.92-9.89,16.16-16.3,24.37-38.61,29.85-60.46,13.8-55,18.49-113.42,19.36-170,1.36-89-7.68-192.23-82-252.6-67.16-54.56-170.81-36.29-231.26,20.2-33.18,31-49.69,72.33-52.65,117.28-3.21,48.73,4.33,98.8,14.41,146.37a751.82,751.82,0,0,0,45.13,142.2c9.34,21.58,18.58,46.75,33.84,65,3.41,4.07,10.11,11.66,16.17,8.18,4-2.29,4.71-9,4.78-13.06.14-8.43-1.86-16.23-1.24-24.37-5.79-9.11,4.14-18.25,12.72-20.51,6.88-1.82,14.69-1.64,21.73-2.31ZM134.67,208.43c-9.55,0-9.53-14.82,0-14.82S144.21,208.43,134.67,208.43Zm15.87-29.49c-10.12-3.45-15.75-16.55-9.89-25.91a16.35,16.35,0,0,1,13-7.71c10-4.34,21.08,7.59,20.45,17.43C173.35,173.85,161.29,182.61,150.54,178.94ZM425,163.57a6.08,6.08,0,1,1,0,10.5l-.8-.47a5.59,5.59,0,0,1,0-9.57Zm-29.82-42.88a18.24,18.24,0,0,1,18.09-1.45c10.75,5.3,13.75,21.29,5.17,29.84-8.42,8.4-24.42,6.26-29.65-4.65a16.46,16.46,0,0,1-1.49-7.75C385.83,130.4,390,124.15,395.22,120.69ZM205.84,290.06l0,0c-13.69-21.68-14.34-53.9-10.64-78.63,3.5-23.4,16.5-43.56,35.72-57.24,33.19-23.63,78.67-18.86,108,8.86,32.48,30.73,38.05,88.6,20,128-17.43,38.14-60.1,60.73-100.72,46C234.39,328.44,216.53,311.21,205.84,290.06Z"/><path class="cls-2" d="M408.48,139.23c1.86-1.86.77-6.2-1.53-7.22-3.21-1.42-5.43,2.08-6.68,4.85.05.2.09.4.16.61C401.4,140.3,406.31,141.38,408.48,139.23Z"/><path class="cls-2" d="M158.16,159.18a20.41,20.41,0,0,0-4.79-2.47,5.2,5.2,0,0,0-1.94,2.78c-.78,3,1.67,7.18,5,6.4C160.18,165,161,161.37,158.16,159.18Z"/><path class="cls-3" d="M350.51,269.29c8.8-34.88.33-81.11-30.63-102.74a71.16,71.16,0,0,0-92.33,8.51c-20.34,20.78-24,51-21.75,80,11.34,32.54,30.71,63.37,66.81,70.59C309.94,333.1,341.79,303.81,350.51,269.29Zm-35.18,26.55c-12.43,8.91-29.45,9.75-44,6.53-13.66-3-26.72-10.59-34.83-22.15-9.85-14-8.73-31.78-7.56-48.09a114.45,114.45,0,0,1,2.93-18.7,5.13,5.13,0,0,1,.16-1.18c3.67-13.93,6.43-33.09,18.95-42.18,13.59-9.86,36.7-5.42,51.65-.83,35,10.74,40.14,53.39,34.88,84.82C334.93,269.68,328.65,286.28,315.33,295.84Z"/><path class="cls-4" d="M319.37,253.05c-8.5-3.25-16.87-5.27-26-5.18a64.76,64.76,0,0,0-10.52,1.23,49.88,49.88,0,0,1,11.56,14.72c3.76,7.67-7.79,14.39-11.46,6.71a37.81,37.81,0,0,0-20-19.15c-7.11-2.9-13.84-2.58-20.93-2.81.27,11.51,2.55,21.91,11.87,29.84,8.25,7,19.45,10.62,30.18,10.89,13.78.34,25-4.55,31.68-16.89a64.41,64.41,0,0,0,6.51-18.91A6.39,6.39,0,0,1,319.37,253.05Z"/><path class="cls-5" d="M282.71,181c-7.47-1-14.81-1.74-20.66.87a41.46,41.46,0,0,0-10.31,13c-1.66,4.31-3,8.65-5,12.64a127.63,127.63,0,0,0-4.48,28.87c9.12-2.77,19.34-.6,28.47,4.21,13.87-9.52,38.46-6.05,52.17-.4a7.15,7.15,0,0,1,.87.46c.11-2.16.18-4.3.16-6.42-.08-12.71-2-29.15-9.54-39.87C307.41,184.57,293.85,182.44,282.71,181Z"/><path class="cls-5" d="M250.09,524.75c2.91-.42,5.88-.54,8.81-.81l19.36-1.79,37-3.41q34.38-3.18,68.73-6.58a178.16,178.16,0,0,0,6.59,33.35c3.06,10,6.61,21.49,15.25,28.12,19.69,15.12,41.89-11.37,51.83-26.35,12.86-19.38,19.54-42.45,24.21-65a825.6,825.6,0,0,0,12.51-84.84c5.77-57.6,7.28-116.82-.47-174.31-6.79-50.35-23-99.76-55.68-139.37-30.54-37-73.35-61-121.65-63.08-46.93-2.07-95.1,12.16-133.74,38.76-39.11,26.92-66.79,66.23-76.34,113-11,53.85-3,111.4,6.93,164.83a768.14,768.14,0,0,0,48.66,160.16c10.35,24.25,20.77,52,38.05,72.22,6.67,7.83,16.68,15.28,27.59,12.48,8.74-2.24,14.07-10.39,15.85-18.81,2.14-10.11-1.66-20.15-1.43-30.15,2.46-1.63,4-4.35,3-7.33.13-.07.26-.14.41-.24A9,9,0,0,1,250.09,524.75ZM242.45,510c-8.58,2.26-18.51,11.4-12.72,20.51-.62,8.14,1.38,15.94,1.24,24.37-.07,4-.78,10.77-4.78,13.06-6.06,3.48-12.76-4.11-16.17-8.18-15.26-18.2-24.5-43.37-33.84-65a751.82,751.82,0,0,1-45.13-142.2C121,305,113.43,254.94,116.64,206.21c3-45,19.47-86.26,52.65-117.28,60.45-56.49,164.1-74.76,231.26-20.2,74.31,60.37,83.35,163.57,82,252.6-.87,56.56-5.56,115-19.36,170-5.48,21.85-13.69,44.16-29.85,60.46-3.86,3.89-10.91,11.83-16.92,9.89-4.89-1.59-7.33-9.63-8.85-13.85a157.64,157.64,0,0,1-8.87-44.07c-.24-3.89-3.36-8.12-7.74-7.74q-51.07,4.51-102.12,9.34l-24.65,2.32C257.14,508.33,249.33,508.15,242.45,510Z"/><path class="cls-5" d="M302.66,169.24c-15-4.59-38.06-9-51.65.83-12.52,9.09-15.28,28.25-18.95,42.18a5.13,5.13,0,0,0-.16,1.18,114.45,114.45,0,0,0-2.93,18.7c-1.17,16.31-2.29,34.05,7.56,48.09,8.11,11.56,21.17,19.13,34.83,22.15,14.52,3.22,31.54,2.38,44-6.53,13.32-9.56,19.6-26.16,22.21-41.78C342.8,222.63,337.71,180,302.66,169.24Zm13.11,103.17c-6.72,12.34-17.9,17.23-31.68,16.89-10.73-.27-21.93-3.86-30.18-10.89-9.32-7.93-11.6-18.33-11.87-29.84,7.09.23,13.82-.09,20.93,2.81a37.81,37.81,0,0,1,20,19.15c3.67,7.68,15.22,1,11.46-6.71a49.88,49.88,0,0,0-11.56-14.72,64.76,64.76,0,0,1,10.52-1.23c9.15-.09,17.52,1.93,26,5.18a6.39,6.39,0,0,0,2.91.45A64.41,64.41,0,0,1,315.77,272.41Zm8-31.7a7.15,7.15,0,0,0-.87-.46c-13.71-5.65-38.3-9.12-52.17.4-9.13-4.81-19.35-7-28.47-4.21a127.63,127.63,0,0,1,4.48-28.87c2-4,3.34-8.33,5-12.64a41.46,41.46,0,0,1,10.31-13c5.85-2.61,13.19-1.82,20.66-.87,11.14,1.42,24.7,3.55,31.68,13.4,7.58,10.72,9.46,27.16,9.54,39.87C324,236.41,323.88,238.55,323.77,240.71Z"/><path class="cls-5" d="M358.87,291c18-39.42,12.45-97.29-20-128-29.28-27.72-74.76-32.49-107.95-8.86-19.22,13.68-32.22,33.84-35.72,57.24-3.7,24.73-3,56.95,10.64,78.63l0,0c10.69,21.15,28.55,38.38,52.31,47C298.77,351.76,341.44,329.17,358.87,291Zm-86.26,34.59c-36.1-7.22-55.47-38.05-66.81-70.59-2.25-29,1.41-59.19,21.75-80a71.16,71.16,0,0,1,92.33-8.51c31,21.63,39.43,67.86,30.63,102.74C341.79,303.81,309.94,333.1,272.61,325.62Z"/><path class="cls-5" d="M153.62,145.32a16.35,16.35,0,0,0-13,7.71c-5.86,9.36-.23,22.46,9.89,25.91,10.75,3.67,22.81-5.09,23.53-16.19C174.7,152.91,163.67,141,153.62,145.32Zm2.86,20.57c-3.38.78-5.83-3.37-5-6.4a5.2,5.2,0,0,1,1.94-2.78,20.41,20.41,0,0,1,4.79,2.47C161,161.37,160.18,165,156.48,165.89Z"/><path class="cls-5" d="M388.83,144.43c5.23,10.91,21.23,13,29.65,4.65,8.58-8.55,5.58-24.54-5.17-29.84a18.24,18.24,0,0,0-18.09,1.45c-5.2,3.46-9.39,9.71-7.88,16A16.46,16.46,0,0,0,388.83,144.43ZM407,132c2.3,1,3.39,5.36,1.53,7.22-2.17,2.15-7.08,1.07-8.05-1.76-.07-.21-.11-.41-.16-.61C401.52,134.09,403.74,130.59,407,132Z"/><path class="cls-5" d="M424.24,173.6l.8.47a6.08,6.08,0,1,0,0-10.5l-.8.46A5.59,5.59,0,0,0,424.24,173.6Z"/><path class="cls-5" d="M134.67,193.61c-9.53,0-9.55,14.82,0,14.82S144.22,193.61,134.67,193.61Z"/></svg>