<svg id="Layer_1" data-name="Layer 1" xmlns="http://www.w3.org/2000/svg" viewBox="0 0 600 600"><defs><style>.cls-1{fill:#00aeef;}.cls-2{fill:#88e0ff;}.cls-3{fill:#231f20;}</style></defs><title>doodle</title><path class="cls-1" d="M350.35,313c-14.16,28.72-27,58.11-42.36,86.21-15.52,28.33-33.38,55.28-49.75,83.11q-12.54,21.3-23.41,43.45c-4,8.17-7.31,17.09-11.44,25.44,24.38-22.33,49.5-43.93,73.76-66.36,30.29-28,60-56.58,89.48-85.44s58.88-57.78,87.75-87.25c14.06-14.36,28-28.9,42.74-42.55,4.35-4,8.8-8.25,13.43-12.32-45-5.21-89.88-12.26-134.6-20.17C379.39,261.81,363.65,286,350.35,313Z"/><path class="cls-1" d="M415.14,215.45c43.8,7.06,87.69,13.64,131.67,20-6.23-21.08-11.54-42.51-17.31-63.7-2.82-10.31-7.26-21.95-10.43-33.66-22.77,17.43-45.36,35.08-68.13,52.51A390.08,390.08,0,0,1,415.14,215.45Z"/><path class="cls-1" d="M149.75,165.51c10.12,2.08,20.26,4.11,30.38,6.17-.74-4.16-1.46-8.21-2.33-12q-5.15-22.34-10.15-44.71c-4.73-21.12-12.74-45.33-13.84-68.16-5.65,6.93-14,12.56-20.36,17.77-10.86,8.89-22,17.38-33.2,25.92C78.35,107.29,58,124.71,39,144.52c14.58.16,29.41,4.23,43.47,7.14Q116.09,158.6,149.75,165.51Z"/><path class="cls-2" d="M291.11,388.91c15.73-29.85,28.56-61.08,43.13-91.48,10.42-21.74,21.84-45,36.71-64.82-29.23-5.38-58.39-11.06-87.44-16.81q-38.88-7.71-77.61-16.1c.69,8.81,0,17.88,0,26.7,0,16.22-.07,32.44,0,48.66q.32,47.22,2.16,94.42,1.91,48.63,5.43,97.17c1.17,16.17,2.56,32.33,3.86,48.49.15,1.79.35,3.62.57,5.48l1.34-3a476,476,0,0,1,22.05-42.71C257.67,446.09,275.66,418.23,291.11,388.91Z"/><path class="cls-2" d="M371.28,178.12c4.68,10.35,11.92,21.2,15.32,32.36,6.57-5.17,14.38-9.49,20.34-13.8,12.36-8.94,24.23-18.63,36-28.33,19.1-15.74,37.71-32.76,57.93-47.23-6.77-1.2-13.61-3.46-20.08-4.85-16-3.42-31.86-7-47.79-10.5-31.85-7-63.63-14.28-95.42-21.53l-3.39-.78c8.75,15.36,12.85,34.81,18.69,50.25Q361.39,156.2,371.28,178.12Z"/><path class="cls-1" d="M263.38,141.05c-11.67,10.64-23.51,21.09-35.76,31-2.87,2.34-5.82,4.92-8.9,7.37q31.46,6.32,62.94,12.48,39.07,7.61,78.25,14.31c-2.63-6-4.91-12.11-7.33-17.67q-8-18.42-15.15-37.21c-7.85-20.64-13.92-41.61-19.79-62.76-6.82,7.73-14.85,14.81-21.81,21.69Q279.92,126,263.38,141.05Z"/><path class="cls-2" d="M175.77,68.57c3.84,14.79,7,29.76,10.43,44.64q5.49,23.73,11.11,47.43c.69,2.9,1.54,5.89,2.42,8.93,5.3-5.86,12.18-10.84,17.6-15.72,11.07-10,22.14-19.93,32.94-30.18,11.45-10.87,22.62-22,33.66-33.28,4.76-4.86,9.36-10.16,14.19-15.19q-29.33-6.75-58.62-13.64c-22.64-5.35-47.4-9.3-70.14-16.69C171.94,52.61,173.73,60.68,175.77,68.57Z"/><path class="cls-1" d="M186.2,371.93q-2-50-2.3-100.14c-.09-16.22-.07-32.44.26-48.66.18-9.28-.25-18.78,1.28-27.85q-18.09-4-36.18-8-33.48-7.5-66.89-15.28c-12.93-3-27-5.23-39.78-9.85C59.09,190.33,69.75,223.54,82,253q23.28,55.79,47.33,111.25T178,474.94q8.64,19.37,17.41,38.68c-1.43-14.82-2.61-29.68-3.7-44.53Q188.16,420.57,186.2,371.93Z"/><path class="cls-3" d="M570.77,240c-1.9-23.49-12.14-48.72-18.12-71.29-3.32-12.56-6.61-25.13-10-37.68-2.72-10.14-4.77-20.66-12.85-27.89l-45.31-9.6c-15.9-3.62-31.82-7.14-47.73-10.71C405,75.73,373.05,68.89,341.16,62q-46.44-10-92.94-19.78c-16-3.33-32-6.49-48-9.67-15.62-3.11-31.5-7.34-47.51-7.26A6,6,0,0,0,149,26.61C137.38,30.13,128.52,42.3,119.41,50c-11.3,9.58-23.11,18.53-34.81,27.6-22.52,17.45-45.71,35.42-63,58.34-2.72,3.61-1.79,7.62.72,10.46-1.84,1-1.67,3.61-.06,4.88.47.37,1,.7,1.45,1.06,4.92,36.45,23,72.61,36.56,106.37q22.6,56.14,46,112t47.86,111.15q12.5,28.32,25.2,56.54a392.81,392.81,0,0,0,23.06,43.88,10.82,10.82,0,0,0,6.09,3.72,8.6,8.6,0,0,0,9.06-2.41c64.69-50.22,124.72-108.29,184.18-164.5,29.29-27.71,57.88-56.19,86.21-84.87,13.58-13.75,27-27.72,41-41,14.32-13.53,32.12-24.54,44.22-40C576.63,248.83,574.65,243.21,570.77,240ZM337.58,84.24c31.79,7.25,63.57,14.53,95.42,21.53,15.93,3.5,31.84,7.08,47.79,10.5,6.47,1.39,13.31,3.65,20.08,4.85-20.22,14.47-38.83,31.49-57.93,47.23-11.77,9.7-23.64,19.39-36,28.33-6,4.31-13.77,8.63-20.34,13.8-3.4-11.16-10.64-22-15.32-32.36q-9.88-21.92-18.4-44.41c-5.84-15.44-9.94-34.89-18.69-50.25Zm-19.94,4.38c5.87,21.15,11.94,42.12,19.79,62.76q7.14,18.76,15.15,37.21c2.42,5.56,4.7,11.71,7.33,17.67Q320.75,199.5,281.66,192q-31.49-6.13-62.94-12.48c3.08-2.45,6-5,8.9-7.37,12.25-10,24.09-20.41,35.76-31q16.51-15,32.45-30.74C302.79,103.43,310.82,96.35,317.64,88.62ZM100.25,90.53c11.15-8.54,22.34-17,33.2-25.92,6.37-5.21,14.71-10.84,20.36-17.77,1.1,22.83,9.11,47,13.84,68.16q5,22.37,10.15,44.71c.87,3.76,1.59,7.81,2.33,12-10.12-2.06-20.26-4.09-30.38-6.17q-33.66-6.91-67.31-13.85c-14.06-2.91-28.89-7-43.47-7.14C58,124.71,78.35,107.29,100.25,90.53ZM178,474.94q-24.6-55.23-48.64-110.73T82,253c-12.28-29.43-22.94-62.64-39.44-90.82C55.41,166.77,69.44,169,82.37,172q33.42,7.75,66.89,15.28,18.09,4,36.18,8c-1.53,9.07-1.1,18.57-1.28,27.85-.33,16.22-.35,32.44-.26,48.66q.28,50.08,2.3,100.14,2,48.63,5.51,97.16c1.09,14.85,2.27,29.71,3.7,44.53Q186.68,494.3,178,474.94Zm21.73-305.37c-.88-3-1.73-6-2.42-8.93q-5.62-23.7-11.11-47.43c-3.44-14.88-6.59-29.85-10.43-44.64-2-7.89-3.83-16-6.41-23.7,22.74,7.39,47.5,11.34,70.14,16.69q29.29,6.91,58.62,13.64c-4.83,5-9.43,10.33-14.19,15.19-11,11.27-22.21,22.41-33.66,33.28-10.8,10.25-21.87,20.21-32.94,30.18C211.91,158.73,205,163.71,199.73,169.57Zm18.19,351.05c-.22-1.86-.42-3.69-.57-5.48-1.3-16.16-2.69-32.32-3.86-48.49q-3.53-48.54-5.43-97.17-1.84-47.19-2.16-94.42c-.11-16.22-.05-32.44,0-48.66,0-8.82.73-17.89,0-26.7q38.74,8.34,77.61,16.1c29.05,5.75,58.21,11.43,87.44,16.81-14.87,19.8-26.29,43.08-36.71,64.82-14.57,30.4-27.4,61.63-43.13,91.48-15.45,29.32-33.44,57.18-49.8,86a476,476,0,0,0-22.05,42.71Zm299.2-251c-14.78,13.65-28.68,28.19-42.74,42.55-28.87,29.47-58.28,58.37-87.75,87.25s-59.19,57.44-89.48,85.44c-24.26,22.43-49.38,44-73.76,66.36,4.13-8.35,7.46-17.27,11.44-25.44q10.85-22.2,23.41-43.45c16.37-27.83,34.23-54.78,49.75-83.11,15.39-28.1,28.2-57.49,42.36-86.21,13.3-27,29-51.18,45.6-75.88,44.72,7.91,89.6,15,134.6,20.17C525.92,261.35,521.47,265.58,517.12,269.6Zm-102-54.15a390.08,390.08,0,0,0,35.8-24.82c22.77-17.43,45.36-35.08,68.13-52.5,3.17,11.7,7.61,23.34,10.43,33.65,5.77,21.19,11.08,42.62,17.31,63.7C502.83,229.08,458.94,222.51,415.14,215.45Z"/></svg>