<svg id="Layer_1" data-name="Layer 1" xmlns="http://www.w3.org/2000/svg" viewBox="0 0 600 600"><defs><style>.cls-1{fill:#754c29;}.cls-2{fill:#603913;}.cls-3{fill:#e27683;}.cls-4{fill:#fff;}.cls-5{fill:#231f20;}</style></defs><title>doodle</title><path class="cls-1" d="M370.75,476.47c2.38-17,4.59-34.1,7.57-51a65.8,65.8,0,0,1-14.68,5.65,79.49,79.49,0,0,1-12.49,2,1.69,1.69,0,0,1,.13.36c1.48,9.19-.4,18.95-1.29,28.16l-2.85,29.63c-1.74,17.95-1.59,37.56-5.53,55.27a115.44,115.44,0,0,0,18.5-9.59c.87-.56,1.72-1.15,2.58-1.74a2.49,2.49,0,0,1-.06-.73C364.14,515.1,368.06,495.72,370.75,476.47Z"/><path class="cls-2" d="M200.26,381.69a49.39,49.39,0,0,1-14.7,2.73c.77,5,1,10.1,1.78,14.93,1.14,7.41,2.44,14.79,3.68,22.18q3.87,23,7.73,45.92c2.39,14.26,3.27,30.88,8.78,44.33a37.19,37.19,0,0,0,6.16,9.78c-3.42-21.89-4.95-44.36-7.19-66.25C204,431.06,200.5,406.21,200.26,381.69Z"/><path class="cls-3" d="M154.28,288.81c10.53,10,26.75,8.45,39.91,5.18,12.38-3.07,23-9.16,30.91-19.22,4-5,10.8-.27,11.3,4.68,1.08,10.7,14.53,14.95,23.23,17.45,10.28,3,21,4.44,31.66,3.25,19.37-2.14,41.36-14.5,43.82-35.77.37-3.18,2.54-6.25,6.12-6.12,18.65.7,26.57-13.87,31.42-29.26-2.52-.85-4.51-4.13-3.06-6.94,5.26-10.2,4.47-25-3.21-33.9-8.82-10.25-25.43-10.49-35.54-2.18-3.91,3.22-10.72,1.43-10.58-4.38.67-27.66-35.88-44.73-59.58-45.89-12.38-.6-25.74,3.48-32.74,14.37-6.71,10.43-6.89,23.6-6.79,35.59,0,5.48-5.81,8.22-10.36,5.94-10.27-5.16-21.52-10.33-32.43-3.68-10.15,6.19-12.5,19-7.24,29.21,1.83,3.53.51,9.21-4.07,10-12.74,2.18-23.83,10.89-26.66,24C137.41,264.81,144.44,279.49,154.28,288.81ZM274.59,159.72c5.43.22,10.7,3.17,12.32,8.64,1.33,4.53-.11,12.5-5.62,13.52-1.28.24-2.77-.83-2.27-2.27,1-3,3.4-5.08,3.29-8.48a8.79,8.79,0,0,0-7.72-8.25C272.6,162.68,272.52,159.63,274.59,159.72Zm-36.93,68.56c.52-1.07,2.21-.3,1.88.79-2.71,9.11,15,8.93,19.3,7.66a19.24,19.24,0,0,0,12.37-11.5c4.62-11.34-1.79-19.71-7.86-28.62-.59-.86.41-2.24,1.41-1.84,16.81,6.74,17.32,31.9,4.14,42.41a24.33,24.33,0,0,1-23.18,3.74C240.37,239,234.71,234.34,237.66,228.28Zm-69.71,16a1,1,0,0,1,1.8.76c-1.52,7.76.95,17,9.15,19.87s15-2.92,19.49-9.18c.77-1,2.93-.87,2.77.75-1,10.72-14.33,16.11-23.68,12.54S162.7,253.15,168,244.25Z"/><path class="cls-3" d="M207.64,175.18c.74-13.2,3.45-26.42,12-36.87A42.33,42.33,0,0,1,230.51,129a43.26,43.26,0,0,1-5.91-13.45c-24.75-25.28-63.19,13.13-44.5,40.91,1.54,2.29-1,4.6-3.25,4.23-12.4-2.05-15.26,10.77-8.83,17.84C180.48,168.72,194.35,170.07,207.64,175.18Z"/><path class="cls-2" d="M274.09,433.15a50.34,50.34,0,0,1-31.43-4.6c1.15,19.16.28,38.71,1.09,57.8.85,20,2.93,40,4,59.94,9.08,3.77,18.74,5.51,28.78,6.94-.9-19.63-1.41-39.29-1.84-58.94C274.22,474.07,272.92,453.43,274.09,433.15Z"/><path class="cls-1" d="M278.48,432.17c1.72,20.58,1.15,41.53,1.77,62.12.6,19.91,1.46,39.8,2.15,59.7a137.46,137.46,0,0,0,23.81.75c-.71-21,1.17-42.33,1.81-63.25.63-20.24.21-41,2.26-61.17-6-.92-12-2.37-16.64-5.6A46,46,0,0,1,278.48,432.17Z"/><path class="cls-1" d="M237.42,425.53c-16.82-11-24.76-29.28-27.42-48.39a49.91,49.91,0,0,1-5.89,3.06c3.81,23.58,5,47.8,7.54,71.48,2.79,25.59,7.26,51.35,9.23,77.05a166.6,166.6,0,0,0,15.61,11.55c1.56,1.06,3.15,2,4.75,2.91-1.86-18.25-2.35-36.8-3-55C237.46,467.71,235.72,446.16,237.42,425.53Z"/><path class="cls-2" d="M344.51,459.78c.87-8.61,1-18.16,4-26.31a1.19,1.19,0,0,1,.09-.15,131.92,131.92,0,0,1-26.77-1.49c-2-.29-4.25-.54-6.53-.82.88,20.05-.68,40.48-1.16,60.48q-.42,17.2-.83,34.42-.21,8.15-.45,16.3c-.1,3.63-.88,8.06-1,12,3.2-.36,6.4-.87,9.58-1.54a118,118,0,0,0,14.58-4.09c-.93-19.29,3.5-40,5.44-59.22Z"/><path class="cls-3" d="M462.76,152.83c-5.3,1.19-11.92-5.06-7.89-10.27,22.59-29.24,15.12-69.8-13.19-92.36-17.28-13.76-36.18-10.79-55.31-2.37-13.88,6.11-39.63,18.69-40,36.23-.16,7.75-10.58,8.65-13,1.76-9-25.69-42.23-48.24-69-33.8-25.15,13.56-38.07,47.35-25.9,73.11a56.15,56.15,0,0,1,22.2-3.49c28.12,1.21,66.32,19.45,71.5,49.65,14.3-5.73,31.82-3.18,42.84,8.24a35.43,35.43,0,0,1,10.07,22.73c23.16-19,57.57-8.79,76.16,13.43a74.13,74.13,0,0,1,5.47,7.41c14.42-8.07,26.45-20.56,28-37.81C496.47,167.05,482.56,148.35,462.76,152.83ZM313.22,94.17c-7.12-4.13-14.75-8.52-23.3-6.5C280.21,90,274,100.18,278.75,109.58a1.22,1.22,0,0,1-2.11,1.24c-5.67-8.69-2.1-20,6.79-25,10.31-5.77,24-2.43,31.37,6.32A1.32,1.32,0,0,1,313.22,94.17Zm76.63,48a1.58,1.58,0,0,1,.38-2.87c4.94-.88,10.26.14,15.06-1.59,7.53-2.71,10.22-10,8.18-17.25-2.32-8.27-16.77-28.21-26.93-20.08-1.33,1.06-3.21-.7-1.91-1.91C397.7,86.31,415.3,107,418.92,119,424.21,136.5,405.91,150.45,389.85,142.16Zm40.86,33.7c-1.74-1-.21-3.39,1.54-2.63,4.16,1.79,6.61-4.3,7.59-7.29,1.08-3.32.85-6.29.35-9.71-.2-1.33,1.44-2.78,2.55-1.48C448.62,161.61,440.93,181.91,430.71,175.86Z"/><path class="cls-2" d="M383.17,422.6c-1.34,17.38-3.67,34.64-6,51.92-2.51,18.39-4.22,37.27-7.82,55.53a56.45,56.45,0,0,0,4.76-4.65c3.55-3.95,5.67-9,9-13,.81-8.9,3.68-17.93,5.35-26.58,2-10.5,4.15-21,5.95-31.55q3-17.52,5.23-35.16c.57-4.53.79-9.37,1.2-14.18A56.59,56.59,0,0,1,383.17,422.6Z"/><path class="cls-3" d="M388,217c-2.9,23.19-15.24,55.22-42.68,54-9.44,23.7-30.26,40.25-56.31,42.43-18.71,1.57-49.93-4.05-61.53-21.92-16.77,15-43.57,22.67-65.14,16.36-13.35,14-20.45,34-6.81,50.88,14.71,18.24,39.2,15.64,55.33,1.05,4-3.59,11.55-1.37,11.2,4.64-1,17.85,5.44,37.58,20,48.74,13.49,10.29,34.71,11.47,47.68-.28a5.88,5.88,0,0,1,9.09,1.17c1.63,2.73,9.24,2.86,12.23,3.42,5.86,1.1,11.74,2.09,17.66,2.72,10.86,1.15,22.17,1.28,32.8-1.48,17-4.43,32.11-16.91,34.54-35,.45-3.31,4.4-4.59,7.16-4.06,22.45,4.28,41.49-13.46,48.36-33.33,5.92-17.16,6.73-40.54-8.7-53-3.95-3.19-1-8.54,2.65-10.06C497.82,261.64,428.27,169.27,388,217ZM204.41,333c-2.19,6-9.48,11.85-16,8.39-6.93-3.71-5.34-12.43-3.23-18.49.8-2.31,4.45-1.35,3.7,1-1.22,3.85-3.44,11,1.35,13.47s8.72-3.68,12-6.05A1.48,1.48,0,0,1,204.41,333Zm43,26.83a13.74,13.74,0,0,1-6-7.56c-3.11-3.38-2.76-10.15-.51-14,3.51-6,10.74-9.48,17.59-7.78a16.49,16.49,0,0,1,12.26,14.18C272,357.34,258.55,366.54,247.42,359.8Zm90.72,11.55a19.41,19.41,0,0,1-18.28,10.39c-13.27-.72-26.41-17.33-15.67-29,2-2.18,5.17-.3,5.4,2.23.67,7.26,3.25,18.2,13.37,15.56,9.46-2.47,7.28-15.83,11.23-22.62,1.51-2.59,4.74-2.12,6.34,0C345.35,354.3,341.53,365,338.14,371.35Zm62.48-12.19c-9.89,4-22.8,0-26.81-10.34-3.14-8.08,1.13-16.44,8.7-18.45,6.51-3.66,15.59-2.87,21.1,2.36C411.46,340.19,411.74,354.69,400.62,359.16Zm19.29-83.42c-4.61,11.65-19.21,18.17-31,13.78a1.86,1.86,0,0,1,.49-3.63c9.6-.37,19.86-.94,25.08-10.5,6-10.91-1.18-20.41-11-25.14-1.73-.83-.21-3.26,1.48-2.54C416.63,252.71,425.13,262.54,419.91,275.74Z"/><path class="cls-4" d="M392.58,343.12c-1.77-.7-3.08.63-4.22,1.81,1.68,1,3.6.64,5.71.73h.32a1.14,1.14,0,0,0-.16-.63C393.7,344.34,393.52,343.49,392.58,343.12Z"/><path class="cls-4" d="M254.63,344.56c-1.06.6-1.39,2.48-1.8,4.1a2.11,2.11,0,0,0,3.06.37C257.84,347.74,257.16,343.13,254.63,344.56Z"/><path class="cls-5" d="M444.41,35.57c-21.23-13.92-45.3-8.4-67,1.64-13.36,6.2-31.08,16.17-39.48,30.1C320.78,43.17,287.89,27.08,260.09,42c-21.24,11.37-38,38.81-36.92,63.86-11.32-8.22-28.88-5-39.51,4-13,10.95-18.27,30-10.94,45.29-13.25,2-18.83,19.16-8.56,27-8.66,9.18-11.18,22-7.94,33.88a45.21,45.21,0,0,0-28.18,29c-5.29,17.28,1.49,36,12.83,49.28a42.72,42.72,0,0,0,11.19,9.26c-18.47,14.44-19.69,44.86-5.24,63a47.23,47.23,0,0,0,28.78,17.26c-1.56,13.6,3.24,30,5.14,42.53,2.86,18.92,5.83,37.84,8.59,56.78,2.28,15.67,2.32,33.79,12.81,46.62,8.92,10.9,22.63,21.19,35.14,27.57,13.76,7,29.65,8.93,44.81,10.73a133.77,133.77,0,0,0,49.26-3,119.37,119.37,0,0,0,43-20.61c7.59-5.87,17.7-15.18,19.23-25.5,4.74-9.44,6.4-20.84,8.7-31.06,2.49-11,4.48-22.14,6.34-33.27q2.66-15.88,4.69-31.86c1.27-9.93,3.73-20.86,2.66-30.94,21.49-2,39.32-16.83,48.12-37.88,8.65-20.72,8.62-46.33-6.3-63.16A41.89,41.89,0,0,0,476,263a49.67,49.67,0,0,0-2.56-26.44c21.49-11.76,39-33.53,35.85-59.32-2.46-19.84-17-35.61-35.64-38.38C492.19,103.17,479,58.22,444.41,35.57ZM176.85,160.68c2.24.37,4.79-1.94,3.25-4.23-18.69-27.78,19.75-66.19,44.5-40.91A43.26,43.26,0,0,0,230.51,129a42.33,42.33,0,0,0-10.85,9.32c-8.57,10.45-11.28,23.67-12,36.87-13.29-5.11-27.16-6.46-39.62,3.34C161.59,171.45,164.45,158.63,176.85,160.68Zm-36.46,90.41c2.83-13.07,13.92-21.78,26.66-24,4.58-.78,5.9-6.46,4.07-10-5.26-10.16-2.91-23,7.24-29.21,10.91-6.65,22.16-1.48,32.43,3.68,4.55,2.28,10.4-.46,10.36-5.94-.1-12,.08-25.16,6.79-35.59,7-10.89,20.36-15,32.74-14.37,23.7,1.16,60.25,18.23,59.58,45.89-.14,5.81,6.67,7.6,10.58,4.38,10.11-8.31,26.72-8.07,35.54,2.18,7.68,8.91,8.47,23.7,3.21,33.9-1.45,2.81.54,6.09,3.06,6.94-4.85,15.39-12.77,30-31.42,29.26-3.58-.13-5.75,2.94-6.12,6.12-2.46,21.27-24.45,33.63-43.82,35.77-10.67,1.19-21.38-.29-31.66-3.25-8.7-2.5-22.15-6.75-23.23-17.45-.5-4.95-7.35-9.69-11.3-4.68-7.94,10.06-18.53,16.15-30.91,19.22-13.16,3.27-29.38,4.78-39.91-5.18C144.44,279.49,137.41,264.81,140.39,251.09Zm67.14,260.69c-5.51-13.45-6.39-30.07-8.78-44.33q-3.87-23-7.73-45.92c-1.24-7.39-2.54-14.77-3.68-22.18-.74-4.83-1-10-1.78-14.93a49.39,49.39,0,0,0,14.7-2.73c.24,24.52,3.77,49.37,6.24,73.62,2.24,21.89,3.77,44.36,7.19,66.25A37.19,37.19,0,0,1,207.53,511.78Zm29,28.5a166.6,166.6,0,0,1-15.61-11.55c-2-25.7-6.44-51.46-9.23-77.05-2.58-23.68-3.73-47.9-7.54-71.48a49.91,49.91,0,0,0,5.89-3.06c2.66,19.11,10.6,37.34,27.42,48.39-1.7,20.63,0,42.18.8,62.64.67,18.22,1.16,36.77,3,55C239.64,542.3,238.05,541.34,236.49,540.28Zm11.23,6c-1-20-3.12-39.95-4-59.94-.81-19.09.06-38.64-1.09-57.8a50.34,50.34,0,0,0,31.43,4.6c-1.17,20.28.13,40.92.57,61.14.43,19.65.94,39.31,1.84,58.94C266.46,551.8,256.8,550.06,247.72,546.29Zm60.3-54.8c-.64,20.92-2.52,42.3-1.81,63.25A137.46,137.46,0,0,1,282.4,554c-.69-19.9-1.55-39.79-2.15-59.7-.62-20.59-.05-41.54-1.77-62.12a46,46,0,0,0,15.16-7.45c4.6,3.23,10.66,4.68,16.64,5.6C308.23,450.53,308.65,471.25,308,491.49Zm28.05,57.13a118,118,0,0,1-14.58,4.09c-3.18.67-6.38,1.18-9.58,1.54.09-4,.87-8.41,1-12q.24-8.15.45-16.3.42-17.2.83-34.42c.48-20,2-40.43,1.16-60.48,2.28.28,4.5.53,6.53.82a131.92,131.92,0,0,0,26.77,1.49,1.19,1.19,0,0,0-.09.15c-3,8.15-3.15,17.7-4,26.31l-3,29.62C339.57,508.63,335.14,529.33,336.07,548.62Zm24-11.68a115.44,115.44,0,0,1-18.5,9.59c3.94-17.71,3.79-37.32,5.53-55.27L350,461.63c.89-9.21,2.77-19,1.29-28.16a1.69,1.69,0,0,0-.13-.36,79.49,79.49,0,0,0,12.49-2,65.8,65.8,0,0,0,14.68-5.65c-3,16.94-5.19,34-7.57,51-2.69,19.25-6.61,38.63-8.12,58a2.49,2.49,0,0,0,.06.73C361.83,535.79,361,536.38,360.11,536.94Zm39.5-117.84q-2.19,17.64-5.23,35.16c-1.8,10.56-3.91,21.05-5.95,31.55-1.67,8.65-4.54,17.68-5.35,26.58-3.33,4-5.45,9.06-9,13a56.45,56.45,0,0,1-4.76,4.65c3.6-18.26,5.31-37.14,7.82-55.53,2.36-17.28,4.69-34.54,6-51.92a56.59,56.59,0,0,0,17.64-17.68C400.4,409.73,400.18,414.57,399.61,419.1Zm46-135.82c-3.67,1.52-6.6,6.87-2.65,10.06,15.43,12.49,14.62,35.87,8.7,53-6.87,19.87-25.91,37.61-48.36,33.33-2.76-.53-6.71.75-7.16,4.06-2.43,18.05-17.51,30.53-34.54,35-10.63,2.76-21.94,2.63-32.8,1.48-5.92-.63-11.8-1.62-17.66-2.72-3-.56-10.6-.69-12.23-3.42a5.88,5.88,0,0,0-9.09-1.17c-13,11.75-34.19,10.57-47.68.28-14.6-11.16-21.06-30.89-20-48.74.35-6-7.24-8.23-11.2-4.64-16.13,14.59-40.62,17.19-55.33-1.05-13.64-16.91-6.54-36.86,6.81-50.88,21.57,6.31,48.37-1.38,65.14-16.36,11.6,17.87,42.82,23.49,61.53,21.92,26-2.18,46.87-18.73,56.31-42.43,27.44,1.21,39.78-30.82,42.68-54C428.27,169.27,497.82,261.64,445.6,283.28Zm49.17-98c-1.6,17.25-13.63,29.74-28,37.81a74.13,74.13,0,0,0-5.47-7.41c-18.59-22.22-53-32.41-76.16-13.43A35.43,35.43,0,0,0,375,179.53c-11-11.42-28.54-14-42.84-8.24-5.18-30.2-43.38-48.44-71.5-49.65a56.15,56.15,0,0,0-22.2,3.49c-12.17-25.76.75-59.55,25.9-73.11,26.79-14.44,60,8.11,69,33.8,2.42,6.89,12.84,6,13-1.76.34-17.54,26.09-30.12,40-36.23,19.13-8.42,38-11.39,55.31,2.37,28.31,22.56,35.78,63.12,13.19,92.36-4,5.21,2.59,11.46,7.89,10.27C482.56,148.35,496.47,167.05,494.77,185.29Z"/><path class="cls-5" d="M258.47,330.46c-6.85-1.7-14.08,1.8-17.59,7.78-2.25,3.85-2.6,10.62.51,14a13.74,13.74,0,0,0,6,7.56c11.13,6.74,24.61-2.46,23.31-15.16A16.49,16.49,0,0,0,258.47,330.46ZM255.89,349a2.11,2.11,0,0,1-3.06-.37c.41-1.62.74-3.5,1.8-4.1C257.16,343.13,257.84,347.74,255.89,349Z"/><path class="cls-5" d="M382.51,330.37c-7.57,2-11.84,10.37-8.7,18.45,4,10.31,16.92,14.32,26.81,10.34,11.12-4.47,10.84-19,3-26.43C398.1,327.5,389,326.71,382.51,330.37Zm11.56,15.29c-2.11-.09-4,.27-5.71-.73,1.14-1.18,2.45-2.51,4.22-1.81.94.37,1.12,1.22,1.65,1.91a1.14,1.14,0,0,1,.16.63Z"/><path class="cls-5" d="M334.19,347.92c-3.95,6.79-1.77,20.15-11.23,22.62-10.12,2.64-12.7-8.3-13.37-15.56-.23-2.53-3.39-4.41-5.4-2.23-10.74,11.66,2.4,28.27,15.67,29a19.41,19.41,0,0,0,18.28-10.39c3.39-6.37,7.21-17.05,2.39-23.43C338.93,345.8,335.7,345.33,334.19,347.92Z"/><path class="cls-5" d="M177.48,269c9.35,3.57,22.63-1.82,23.68-12.54.16-1.62-2-1.8-2.77-.75-4.52,6.26-11.2,12.07-19.49,9.18s-10.67-12.11-9.15-19.87a1,1,0,0,0-1.8-.76C162.7,253.15,168.09,265.41,177.48,269Z"/><path class="cls-5" d="M245.72,240.92a24.33,24.33,0,0,0,23.18-3.74c13.18-10.51,12.67-35.67-4.14-42.41-1-.4-2,1-1.41,1.84,6.07,8.91,12.48,17.28,7.86,28.62a19.24,19.24,0,0,1-12.37,11.5c-4.27,1.27-22,1.45-19.3-7.66.33-1.09-1.36-1.86-1.88-.79C234.71,234.34,240.37,239,245.72,240.92Z"/><path class="cls-5" d="M274.59,162.88a8.79,8.79,0,0,1,7.72,8.25c.11,3.4-2.27,5.51-3.29,8.48-.5,1.44,1,2.51,2.27,2.27,5.51-1,6.95-9,5.62-13.52-1.62-5.47-6.89-8.42-12.32-8.64C272.52,159.63,272.6,162.68,274.59,162.88Z"/><path class="cls-5" d="M283.43,85.79c-8.89,5-12.46,16.34-6.79,25a1.22,1.22,0,0,0,2.11-1.24c-4.77-9.4,1.46-19.63,11.17-21.91,8.55-2,16.18,2.37,23.3,6.5a1.32,1.32,0,0,0,1.58-2.06C307.41,83.36,293.74,80,283.43,85.79Z"/><path class="cls-5" d="M384.63,98.46c-1.3,1.21.58,3,1.91,1.91,10.16-8.13,24.61,11.81,26.93,20.08,2,7.24-.65,14.54-8.18,17.25-4.8,1.73-10.12.71-15.06,1.59a1.58,1.58,0,0,0-.38,2.87c16.06,8.29,34.36-5.66,29.07-23.21C415.3,107,397.7,86.31,384.63,98.46Z"/><path class="cls-5" d="M440.19,156.23c.5,3.42.73,6.39-.35,9.71-1,3-3.43,9.08-7.59,7.29-1.75-.76-3.28,1.6-1.54,2.63,10.22,6,17.91-14.25,12-21.11C441.63,153.45,440,154.9,440.19,156.23Z"/><path class="cls-5" d="M405,247.71c-1.69-.72-3.21,1.71-1.48,2.54,9.82,4.73,17,14.23,11,25.14-5.22,9.56-15.48,10.13-25.08,10.5a1.86,1.86,0,0,0-.49,3.63c11.77,4.39,26.37-2.13,31-13.78C425.13,262.54,416.63,252.71,405,247.71Z"/><path class="cls-5" d="M202.25,331.31c-3.26,2.37-7.2,8.56-12,6.05s-2.57-9.62-1.35-13.47c.75-2.37-2.9-3.33-3.7-1-2.11,6.06-3.7,14.78,3.23,18.49,6.48,3.46,13.77-2.42,16-8.39A1.48,1.48,0,0,0,202.25,331.31Z"/></svg>