<svg id="Layer_1" data-name="Layer 1" xmlns="http://www.w3.org/2000/svg" viewBox="0 0 600 600"><defs><style>.cls-1{fill:#8dc63f;}.cls-2{fill:#be1e2d;}.cls-3{fill:#fff;}.cls-4{fill:#f2b879;}.cls-5{fill:#231f20;}</style></defs><title>doodle</title><path class="cls-1" d="M182.76,414.53a258.05,258.05,0,0,0,10.75,29.13c4.27,9.33,8.66,15.71,19.36,17.46,19.75,3.23,40.09-1.59,59.35-5.61q30.84-6.43,61.68-12.92c18.56-3.9,37.44-7.16,55.47-13.17,15.69-5.23,34.73-13.56,43.3-28.68,5.69-10.06,2.88-20.92.64-31.56q-2.91-13.81-6.48-27.48a571.73,571.73,0,0,0-40.19-107.65c-6.92,6-16.65,8.43-24.48,4.27-2,26.08,20.4,49.39,23.27,75.13,1.24,11-.88,23.34-8.9,31.59-8.95,9.2-20.12,6.39-29.42-.63-18.24-13.77-24.5-36.66-30.46-57.59-1.75-6.13-3.54-12.25-5.81-18.21-2.07-5.45-4.92-14.3-10.55-17.21-5.14-2.64-8.34,1.71-7.14,6.61a66.85,66.85,0,0,0,3.42,9c2.36,5.73,5.5,11.63,6.79,17.72,1.94,9.14-3.38,16.93-12.66,18.15S274,298,269.77,290.26c-2.81-5.2-4.21-10.93-6-16.53-1.62-5.14-8.13-20-12.56-8.35-4.62,12.18,1.16,27.39,3.85,39.46,3.13,14.06,7,28.19,8.94,42.48,1.49,10.85,1.12,22-3.75,32-9.46,19.43-31.37,22.66-48.61,11.32-18.76-12.33-28.92-34.8-34.18-55.88A232.23,232.23,0,0,1,172,299.54c-.88-9.78,0-24.6-7.53-32.21a77.39,77.39,0,0,1-.15,12,3.92,3.92,0,0,1-1.38,2.69,12.57,12.57,0,0,1-2.93,4.36,11.43,11.43,0,0,1-7.29,2.87,15.19,15.19,0,0,1-9.09.94c6.54,18.95,12.07,38.31,18.08,57.39C168.69,369.89,175.63,392.24,182.76,414.53Z"/><path class="cls-2" d="M156.63,268.65a66.54,66.54,0,0,0-.94-7.86c-.51-2.81,1.8-6,4.95-5,11.54,3.81,16.53,14.58,18,26,1.76,13.52,2,27.09,4.54,40.54,4.48,24,15.08,55.54,40.17,65.07,10.86,4.13,21.89.77,28-9.18,7.14-11.53,5.62-25.6,3.06-38.27-2.73-13.49-5.95-26.89-8.94-40.32-2.38-10.68-5.62-22.13-3.21-33.1,1.67-7.64,7.14-17.17,16.35-13.78,9.94,3.66,12.22,16.5,15,25.3,1.84,5.79,4.47,13,10.34,15.82a10,10,0,0,0,7.55.46c4.28-1.58,4.11-5.8,3.26-9.61-2.33-10.54-11.92-20.78-10.37-32.06,1.22-8.85,10.74-12.56,18.48-9.18,9.45,4.12,13.48,16.06,16.71,25,7.8,21.64,10.34,47,26.94,64.35,3.8,4,9,8.5,14.52,9.76,7.08,1.61,12.18-5.66,14.36-11.42,4.2-11.08,1.25-23.52-2.66-34.22-8.11-22.23-23.77-42.84-17.65-67.72.93-3.8,5.66-3.71,7.66-1,6.17,8.35,18.87,1.79,22.36-5.61l0-.07a2.45,2.45,0,0,1,1.16-3c3-9.51.28-20.57-2.39-29.75C377.28,166.68,364.51,146,352,125.6c-11.25-18.38-22.59-36.79-35.51-54.07-5.85-7.82-12.17-15.42-19.7-21.7-8.35-7-18.14-11.2-28.35-14.7-10.4-3.57-21.16-7.58-32.2-8.48-11.63-.95-22,2.72-31.78,8.78-16,9.93-29.88,23.56-40.9,38.81-24,33.25-35.18,73.66-37.5,114.27-1.23,21.5-.9,43.87,2.63,65.15,1.23,7.39,3,17.85,8.4,24.11A3.33,3.33,0,0,1,140,280l.18.48a13.57,13.57,0,0,0,1.51.93C151.82,286.75,155.52,277,156.63,268.65ZM330.49,148.11a4.05,4.05,0,1,1,5,5,5.69,5.69,0,0,1-1.73.24,3.61,3.61,0,0,1-3.52-3.53A5.25,5.25,0,0,1,330.49,148.11ZM300,125.57c2.51-6,10.24-9.47,16.08-4.41,6.7,5.8,7.27,17.09.26,22.83s-16.84,2.36-18.13-6.77A20.22,20.22,0,0,1,300,125.57Zm-73.11,51.06c3.68,8.44,12.83,23,22.81,11.67,7.26-8.25,3.22-19.48,2.21-29-.36-3.35,4.2-3.79,5.77-1.56,8,11.34,5.28,32.33-7.36,39.34-14.51,8-24.7-6.05-28.28-18.41C221.16,175.84,225.63,173.84,226.84,176.63Zm-71.16-7.49c4.95-8,17.23-2.37,19.2,5.14,1.53,5.84-2.43,11.35-7.58,12.88a3.62,3.62,0,0,1-1.69,1.1c-4.57,1.42-9.06-1.31-11-5.5A15.68,15.68,0,0,1,155.68,169.14Zm-5.77,35A4.3,4.3,0,0,1,153,201l-.16.07a6.11,6.11,0,0,1,1.64-.33,4,4,0,0,1,3.81,2.9,3.62,3.62,0,0,1-.49,3.12,6.54,6.54,0,0,1-.3.59,4,4,0,0,1-3.13,2.32,3.92,3.92,0,0,1-3.93-1.88l-.07-.13.08.1A4.37,4.37,0,0,1,149.91,204.17Z"/><path class="cls-3" d="M167.16,176.67a3.65,3.65,0,0,0-2-2.67,4.52,4.52,0,0,0-1.78-.56c-1-.08-.51-.22-.92.2a3,3,0,0,0-.21.32,4.39,4.39,0,0,0,.4,4.8A2.6,2.6,0,0,0,167.16,176.67Z"/><path class="cls-4" d="M331.7,451.33c6.85,23.45,12.83,47.09,20.48,70.31,4,12,8,24.12,12.71,35.88,2.59,6.43,13.11,33.93,22.49,24.89,5-4.79,2-15,.94-20.81-1-5.14-2.16-10.24-3.5-15.3-3.09-11.6-7-23-11-34.27-7.6-21.42-15.6-42.77-19.5-65.24C346.78,448.37,339.23,449.83,331.7,451.33Z"/><path class="cls-2" d="M338.74,88.24c14.67,22.16,29.37,45,41.28,68.74a172.7,172.7,0,0,1,13.48,34.9c2.46,9.73,4.11,20.53,1,30.31,9.21,5.82,16.65,14.66,21.73,24.14,2.9,5.42,5.19,11.86,9.71,16.21,6.53,6.3,16.13,2.9,17-6.28.6-6.55-2.14-13.26-4.22-19.34q-3.39-9.9-7.09-19.69Q424,197.06,415.15,177.4a665.49,665.49,0,0,0-41-76.86c-14-22.48-29.69-45.68-54.83-56.56-11.43-5-23.63-8.76-35.68-12.25,2.46,1.11,4.88,2.28,7.23,3.58C311.79,46.91,325.86,68.77,338.74,88.24Z"/><path class="cls-1" d="M412.66,256.18c-3.21-6.45-6.31-12.75-11-18.33a73.49,73.49,0,0,0-8.26-8.29,561.07,561.07,0,0,1,46.64,131.66c2.17,10,5.43,21,4,31.3a36,36,0,0,1-6.41,15.53c4.79-3.32,9.48-6.81,14-10.47,6-4.82,12.18-9.83,17.34-15.53,6.8-7.49,4.42-15.42,2.11-24.31l-13.53-52c-3.4-13.06-7.09-26.14-10.05-39.33A15.9,15.9,0,0,1,436,273.71C424.32,275.48,417.23,265.34,412.66,256.18Z"/><path class="cls-3" d="M312.05,137a7.4,7.4,0,0,0-1-9.3,2.28,2.28,0,0,0-1.35-.67,2.24,2.24,0,0,1-1.27.56c-1.12,1.15-1.84,3.78-2.61,5.34a18.5,18.5,0,0,0,0,3.8C306.9,140.07,310.23,139.37,312.05,137Z"/><path class="cls-5" d="M481.7,369.88c-.51-9.25-4.06-18.64-6.39-27.55q-3.78-14.5-7.57-29c-5.25-20.08-9.83-40.57-16.55-60.21a3.81,3.81,0,0,0-.35-.73,31.91,31.91,0,0,0-.46-4.36c-2.7-15.49-9.82-31-15.55-45.56a673.94,673.94,0,0,0-43-88.82c-14.34-25-29.94-52.18-53.92-69-14.53-10.18-32.43-14.9-49.21-20-4-1.19-8-2.39-12.13-3.51a118.18,118.18,0,0,0-55.27-1.4l-1.52.32a56.74,56.74,0,0,0-13.35,4.55c-16.27,8.08-30.65,22.11-41.76,35.42C133.6,97.35,120,145.33,118,193.2a358.2,358.2,0,0,0,1.1,44.68c1.1,12.94,2.34,26.83,8.21,38.62a28.7,28.7,0,0,0,7.38,9.29c5.64,21,12.77,41.78,19.26,62.58q10.11,32.47,20.24,64.94c3.08,9.85,6.27,19.66,10.25,29.19,3.3,7.89,6.81,17.23,14.35,22.06,7.36,4.7,17.18,5.25,25.66,5.4,10.35.17,20.68-1.19,30.85-3,23.21-4.11,46.24-9.5,69.32-14.22h0c4.53,22.44,11.48,44.61,18.5,66.37,6.58,20.41,12.63,42.56,24.08,60.89,3.91,6.27,9.74,13.86,18.17,12.22,8-1.56,12-9.53,12.31-17,.41-10.22-2.74-21.19-5.34-31-2.68-10.16-6-20.13-9.47-30-8-22.74-16.61-45.28-20.93-69.05,7.84-1.74,15.63-3.66,23.31-5.92,9.16-2.69,17.42-6.07,27.77-8.9,13.22-4.6,28.8-15,39.75-23.5C464.25,398,482.6,386.33,481.7,369.88ZM319.27,44c25.14,10.88,40.86,34.08,54.83,56.56a665.49,665.49,0,0,1,41,76.86Q424,197,431.6,217.23q3.69,9.79,7.09,19.69c2.08,6.08,4.82,12.79,4.22,19.34-.84,9.18-10.44,12.58-17,6.28-4.52-4.35-6.81-10.79-9.71-16.21-5.08-9.48-12.52-18.32-21.73-24.14,3.11-9.78,1.46-20.58-1-30.31A172.7,172.7,0,0,0,380,157c-11.91-23.79-26.61-46.58-41.28-68.74-12.88-19.47-26.95-41.33-47.92-52.93-2.35-1.3-4.77-2.47-7.23-3.58C295.64,35.22,307.84,39,319.27,44ZM140.15,280.5,140,280a3.33,3.33,0,0,0-2.84-2.25c-5.43-6.26-7.17-16.72-8.4-24.11-3.53-21.28-3.86-43.65-2.63-65.15,2.32-40.61,13.47-81,37.5-114.27,11-15.25,24.87-28.88,40.9-38.81,9.77-6.06,20.15-9.73,31.78-8.78,11,.9,21.8,4.91,32.2,8.48,10.21,3.5,20,7.72,28.35,14.7,7.53,6.28,13.85,13.88,19.7,21.7,12.92,17.28,24.26,35.69,35.51,54.07C364.51,146,377.28,166.68,384,189.79c2.67,9.18,5.37,20.24,2.39,29.75a2.45,2.45,0,0,0-1.16,3l0,.07c-3.49,7.4-16.19,14-22.36,5.61-2-2.71-6.73-2.8-7.66,1C349,254.13,364.7,274.74,372.81,297c3.91,10.7,6.86,23.14,2.66,34.22-2.18,5.76-7.28,13-14.36,11.42-5.53-1.26-10.72-5.79-14.52-9.76-16.6-17.33-19.14-42.71-26.94-64.35-3.23-8.95-7.26-20.89-16.71-25-7.74-3.38-17.26.33-18.48,9.18-1.55,11.28,8,21.52,10.37,32.06.85,3.81,1,8-3.26,9.61a10,10,0,0,1-7.55-.46c-5.87-2.86-8.5-10-10.34-15.82-2.79-8.8-5.07-21.64-15-25.3-9.21-3.39-14.68,6.14-16.35,13.78-2.41,11,.83,22.42,3.21,33.1,3,13.43,6.21,26.83,8.94,40.32,2.56,12.67,4.08,26.74-3.06,38.27-6.16,9.95-17.19,13.31-28,9.18-25.09-9.53-35.69-41.12-40.17-65.07-2.51-13.45-2.78-27-4.54-40.54-1.48-11.38-6.47-22.15-18-26-3.15-1.05-5.46,2.14-4.95,5a66.54,66.54,0,0,1,.94,7.86c-1.11,8.3-4.81,18.1-15,12.78A13.57,13.57,0,0,1,140.15,280.5ZM373.8,512c4,11.31,7.93,22.67,11,34.27,1.34,5.06,2.53,10.16,3.5,15.3,1.1,5.85,4,16-.94,20.81-9.38,9-19.9-18.46-22.49-24.89-4.72-11.76-8.74-23.85-12.71-35.88-7.65-23.22-13.63-46.86-20.48-70.31,7.53-1.5,15.08-3,22.6-4.54C358.2,469.26,366.2,490.61,373.8,512Zm58.87-111.29c-8.57,15.12-27.61,23.45-43.3,28.68-18,6-36.91,9.27-55.47,13.17q-30.84,6.48-61.68,12.92c-19.26,4-39.6,8.84-59.35,5.61-10.7-1.75-15.09-8.13-19.36-17.46a258.05,258.05,0,0,1-10.75-29.13c-7.13-22.29-14.07-44.64-21.1-67-6-19.08-11.54-38.44-18.08-57.39a15.19,15.19,0,0,0,9.09-.94,11.39,11.39,0,0,0,7.29-2.88,12.43,12.43,0,0,0,2.93-4.35,3.92,3.92,0,0,0,1.38-2.69,77.39,77.39,0,0,0,.15-12c7.52,7.61,6.65,22.43,7.53,32.21a232.23,232.23,0,0,0,5.54,35.18c5.26,21.08,15.42,43.55,34.18,55.88,17.24,11.34,39.15,8.11,48.61-11.32,4.87-10,5.24-21.11,3.75-32-2-14.29-5.81-28.42-8.94-42.48-2.69-12.07-8.47-27.28-3.85-39.46,4.43-11.66,10.94,3.21,12.56,8.35,1.76,5.6,3.16,11.33,6,16.53C274,298,281.48,304.1,290.7,302.9s14.6-9,12.66-18.15c-1.29-6.09-4.43-12-6.79-17.72a66.85,66.85,0,0,1-3.42-9c-1.2-4.9,2-9.25,7.14-6.61,5.63,2.91,8.48,11.76,10.55,17.21,2.27,6,4.06,12.08,5.81,18.21,6,20.93,12.22,43.82,30.46,57.59,9.3,7,20.47,9.83,29.42.63,8-8.25,10.14-20.56,8.9-31.59-2.87-25.74-25.27-49.05-23.27-75.13,7.83,4.16,17.56,1.7,24.48-4.27A571.73,571.73,0,0,1,426.83,341.7q3.59,13.67,6.48,27.48C435.55,379.82,438.36,390.68,432.67,400.74ZM469,382.05c-5.16,5.7-11.38,10.71-17.34,15.53-4.54,3.66-9.23,7.15-14,10.47A36,36,0,0,0,444,392.52c1.47-10.3-1.79-21.29-4-31.3a561.07,561.07,0,0,0-46.64-131.66,73.49,73.49,0,0,1,8.26,8.29c4.66,5.58,7.76,11.88,11,18.33,4.57,9.16,11.66,19.3,23.36,17.53a15.9,15.9,0,0,0,11.49-7.28c3,13.19,6.65,26.27,10.05,39.33l13.53,52C473.4,366.63,475.78,374.56,469,382.05Z"/><path class="cls-5" d="M165.61,188.26a3.62,3.62,0,0,0,1.69-1.1c5.15-1.53,9.11-7,7.58-12.88-2-7.51-14.25-13.1-19.2-5.14a15.68,15.68,0,0,0-1.05,13.62C156.55,187,161,189.68,165.61,188.26ZM162.22,174a3,3,0,0,1,.21-.32c.41-.42,0-.28.92-.2a4.52,4.52,0,0,1,1.78.56,3.65,3.65,0,0,1,2,2.67,2.6,2.6,0,0,1-4.54,2.09A4.39,4.39,0,0,1,162.22,174Z"/><path class="cls-5" d="M250.27,197.09c12.64-7,15.34-28,7.36-39.34-1.57-2.23-6.13-1.79-5.77,1.56,1,9.51,5.05,20.74-2.21,29-10,11.32-19.13-3.23-22.81-11.67-1.21-2.79-5.68-.79-4.85,2.05C225.57,191,235.76,205.14,250.27,197.09Z"/><path class="cls-5" d="M316.29,144c7-5.74,6.44-17-.26-22.83-5.84-5.06-13.57-1.58-16.08,4.41a20.22,20.22,0,0,0-1.79,11.65C299.45,146.35,309.28,149.75,316.29,144Zm-10.47-11.1c.77-1.56,1.49-4.19,2.61-5.34a2.24,2.24,0,0,0,1.27-.56,2.28,2.28,0,0,1,1.35.67,7.4,7.4,0,0,1,1,9.3c-1.82,2.41-5.15,3.11-6.2-.27A18.5,18.5,0,0,1,305.82,132.89Z"/><path class="cls-5" d="M333.74,153.34a5.69,5.69,0,0,0,1.73-.24,4.05,4.05,0,1,0-5-5,5.25,5.25,0,0,0-.27,1.7A3.61,3.61,0,0,0,333.74,153.34Z"/><path class="cls-5" d="M150.41,207.67l.07.13a3.92,3.92,0,0,0,3.93,1.88,4,4,0,0,0,3.13-2.32,6.54,6.54,0,0,0,.3-.59,3.62,3.62,0,0,0,.49-3.12,4,4,0,0,0-3.81-2.9,6.11,6.11,0,0,0-1.64.33L153,201a4.3,4.3,0,0,0-3.13,3.16,4.37,4.37,0,0,0,.58,3.6Z"/></svg>