<svg id="Layer_1" data-name="Layer 1" xmlns="http://www.w3.org/2000/svg" viewBox="0 0 600 600"><defs><style>.cls-1{fill:#fff;}.cls-2{fill:#00aeef;}.cls-3{fill:#231f20;}.cls-4{fill:#8dc63f;}</style></defs><title>doodle</title><path class="cls-1" d="M352.8,131.5c-25.19-20.64-61.09-17.53-85,3.51-15.47,13.59-23.07,31.63-24.7,50.67-.69,15.28,1.69,30,9.32,44a70.86,70.86,0,0,0,40.78,33.66c31.43,9.77,66.35-6.75,77.13-38.21,5.71-16.65,6.06-35.52,4.1-52.89C372.6,156.11,365.46,141.88,352.8,131.5Zm-25.06,67.86c-7.66,17.73-39.51,16-47.15-.73-5.92-13-1.1-28.7,9.17-38.07a18.34,18.34,0,0,1,15.33-9.6C329.38,149.67,335.29,181.88,327.74,199.36Z"/><path class="cls-1" d="M310.17,160.32a1.87,1.87,0,0,1-1,1.53c-5.52,2.63-10.65,7-11.37,13.45a13,13,0,0,0,.25,4.37,5.94,5.94,0,0,0,1.37,1.14c3.44,2.06,8.81.12,11.78-1.86C317.89,174.43,318.81,163.43,310.17,160.32Z"/><path class="cls-2" d="M489.44,106.56c-4.95-13.24-11.06-29.17-25.1-35.08-3.62-1.52-3.31-6.8,1-7l9.12-.45A156.27,156.27,0,0,0,401.1,30a147.61,147.61,0,0,0-23.18-2.17c-7.48-.12-15.17,1.18-22.61.17-7.23-1-12.3-5.47-18.38-9a49.85,49.85,0,0,0-14.56-5.71,50.55,50.55,0,0,1,5.15,6.86c1.77,2.83-1.65,5.42-4.06,4.25-23.32-.71-46.34,5.86-67.8,14.5A258.17,258.17,0,0,0,115.41,176.77l12.19-3.14a3.48,3.48,0,0,1,3.89,5.06,192.42,192.42,0,0,0-19.38,145.68,3,3,0,0,1,3.53,2.42,121,121,0,0,0,64.24,86.59,196.45,196.45,0,0,1,5.73-43.62c-25.54-11-40.53-38.95-36.64-66.35,1.62-11.4,7.2-30.17,20.67-32.47,6.13-1.05,12.55,2.6,17.58,5.66a55.11,55.11,0,0,1,12.32,10.07,253,253,0,0,0,25.24,11.8,3,3,0,0,1,2.34.95,286.51,286.51,0,0,0,30.27,10c26.83,7.24,54.17,6.82,81.72,6.57,13.78-.13,27.6-.1,41.32,1.4,10.3,1.11,22.15,2.13,30.61,8.76,16.18,12.68,10.47,39.3-.6,53.23-11.24,14.16-31.32,21.52-49.29,18.48.84,3.11,1.74,6.2,2.74,9.27,5.31,16.37,13.16,31.66,20.51,47.18a3.62,3.62,0,0,1,.46.06c37.58,9.19,80-12.71,93.71-49.08.87-2.3,3.3-3.58,5.6-2.28a14.88,14.88,0,0,1,4.74,4.21c10.16-21.64,19.27-43.79,22.34-67.72,3.69-28.74,0-57.87-5.24-86.17a3.76,3.76,0,0,1,5.45-4.19,80.81,80.81,0,0,1,12.16,7c-1.76-33.59-8.12-66.73-17.38-99.05C501.35,140,495.67,123.19,489.44,106.56ZM117.62,239.68c1.35-14,7.33-28.85,17.47-38.84.62-.61,1.74.2,1.23.95-8.32,12-14.42,23.67-17.58,38.05C118.61,240.46,117.56,240.33,117.62,239.68ZM164,250.18c-5.74,7.8-14.2,13.45-20.24,21.14-6.49,8.27-11.14,17.77-11.83,28.37-.22,3.37-5.32,3.43-5.3,0,.08-10.69,3.86-20.82,10-29.52s14.44-18.49,23.72-23.66C162.45,245.3,165.63,247.9,164,250.18Zm26-82.62c-4,6.86-8.3,13.31-11.14,20.79a86.23,86.23,0,0,0-5.15,23.09c-.1,1-1.63,1.06-1.62,0,.17-15.63,5.24-33.6,16.54-44.93A.87.87,0,0,1,190,167.56Zm11.11-19.45c-1.33,2.2-3.28,4-4.78,6.12a68.49,68.49,0,0,0-4,6.69.93.93,0,0,1-1.69-.71c1.36-4.8,4.62-11,9.14-13.45A1,1,0,0,1,201.08,148.11Zm32.51-4.65c-3.25,5.74-7.81,10.4-10.6,16.52a68.19,68.19,0,0,0-5.3,18.2c-2.25,15,0,30.46,2.88,45.22.65,3.33-4.21,4.74-5.12,1.41-4.34-15.79-7-32.13-4.49-48.49,1.9-12.32,7.3-29.9,18.77-36.71A2.84,2.84,0,0,1,233.59,143.46ZM371.05,242.4c-19.22,30.67-59.95,39.8-91.64,24-27.83-13.86-45.18-44.85-43.53-75.59.59-28,14.77-55.47,39.53-70.37,29.57-17.79,68.36-13.11,91.21,13.41,12.83,14.9,16.24,33.19,16.68,52.38S381.46,225.8,371.05,242.4Zm99.27-118.85c6.78,7.52,10.58,16.44,13.18,26.15,2.87,10.68,6.31,22.39,6.68,33.47,0,1.1-1.41,1.11-1.76.24-4-9.78-4.94-20.83-7.42-31-2.39-9.9-5.68-19.71-11.69-28C468.88,123.73,469.84,123,470.32,123.55Zm14.6,74.67a1.15,1.15,0,0,1-2.2,0c-.76-2.35-.93-4.89-1.46-7.3a43.3,43.3,0,0,0-2.29-7.08c-.47-1.14,1.33-1.78,1.93-.81C483.52,187.33,486,193.09,484.92,198.22Zm-73,39.43c-1.75,2.67-6.27,1-5.29-2.23,4.4-14.48,8.91-27.84,8.69-43.23a103.25,103.25,0,0,0-10.54-44c-1.51-3.06,2.87-5.7,4.6-2.69a97.13,97.13,0,0,1,12.95,45.73C422.83,206.57,420.52,224.55,412,237.65Zm66.31,148.5c-2.07,1.82-6.09.11-5-2.92,2.34-6.6,4-12,3.18-19.12a106.05,106.05,0,0,0-4.94-20.3c-4.44-13.53-11.89-26.82-24.85-33.73-3.07-1.64-.37-6,2.69-4.6,15.15,7,23.92,21,29.15,36.4C482.58,353.93,489.88,375.92,478.27,386.15Zm19.53-59.9c-.26,1.42-2.16.88-2.3-.31-1.17-10.22-1.13-20.25-3.49-30.36a131.36,131.36,0,0,0-10.42-28.82.9.9,0,0,1,1.55-.91C493.38,282.89,501.38,306.15,497.8,326.25Z"/><path class="cls-1" d="M408.82,336.25a3.19,3.19,0,0,1,.82-.18,16.92,16.92,0,0,0-5.27-5.21c-5.79-3.59-13.27-5-20.6-5.68C387.08,336.61,398,340.37,408.82,336.25Z"/><path class="cls-3" d="M166.88,279.75c-8.52,7.15-11.15,21.87-11.18,32.36,0,22.23,12.92,40.21,31.89,50.39A161.2,161.2,0,0,1,210.16,315a27.86,27.86,0,0,1-6.36-1c-7.49-2.16-10-7.77-10.12-14.16a18.72,18.72,0,0,1-18.07-5c-4.27-4.47-5.06-12.49-1.33-17.12A9.45,9.45,0,0,0,166.88,279.75Z"/><path class="cls-1" d="M194.68,291.31a124.67,124.67,0,0,1-14.78-10.14C175,289.54,189.45,298.45,194.68,291.31Z"/><path class="cls-3" d="M359.21,389.9c11,1.28,21.87.8,32-4.51a41,41,0,0,0,20.68-25.56,35.09,35.09,0,0,0,.31-18,2.94,2.94,0,0,1-.77.6c-11.51,6.06-24.67,1.52-31.2-8.49-2.76,5.21-6.82,9.39-13.43,10a15.29,15.29,0,0,1-11.95-4.27A192.88,192.88,0,0,0,359.21,389.9Z"/><path class="cls-1" d="M216.4,306.8q1.38-1.69,2.83-3.34c-6.17-2.61-12.27-5.43-18.18-8.58-.89,5-1.17,10.48,4.63,12.32C209.15,308.3,213.29,308.56,216.4,306.8Z"/><path class="cls-4" d="M350.92,389.92a199.54,199.54,0,0,1-2.78-66.34c-16.08-.05-32.17.52-48.24-.25q-9.09-.43-18-1.65c-4.43,18.94-9,37.41-10.27,56.93-1.28,19.28,1,37.91,2.34,57.07.23,3.46-5,4-5.9.8-5.18-18.72-5.09-39.69-3.65-58.92,1.41-19,4.52-39,11.77-56.75a220.67,220.67,0,0,1-44.42-12.26q-3.09-1.2-6.18-2.45c-.51.65-1,1.31-1.5,2a8,8,0,0,1-3.48,4.71c-26.49,37.2-37.08,82.24-31.78,128a240.75,240.75,0,0,0,19,68.63c9.39,21.4,22,38.87,41.1,52.59,8.71,6.26,17.85,12.23,27.73,16.48,11.15,4.8,23.18,6.7,35.23,7.33,21.55,1.11,45.89,3,63.09-12.37,16.25-14.52,22-36.22,20.54-57.42-1.56-22.69-11.33-43.63-21-63.83S355.6,411.91,350.92,389.92Zm-50.74,132c-6.61-7.07-11.13-16-15.49-24.57a201.6,201.6,0,0,1-11.38-26.89c-1-3.08,4-5.21,5.27-2.22,3.75,8.67,7.63,17.29,12,25.69s9.78,16.3,13.55,25C305.15,521.31,302.27,524.14,300.18,521.91Z"/><path class="cls-1" d="M368.44,336.73c5.07-1.92,6.75-7.33,8.25-12.09-1.77-.11-3.5-.21-5.15-.33-5.11-.35-10.23-.54-15.34-.64-.26,2.05-.47,4.11-.67,6.17a.39.39,0,0,1,.08.1C358.27,334.9,362.31,339,368.44,336.73Z"/><path class="cls-3" d="M305.09,151a18.34,18.34,0,0,0-15.33,9.6c-10.27,9.37-15.09,25.1-9.17,38.07,7.64,16.76,39.49,18.46,47.15.73C335.29,181.88,329.38,149.67,305.09,151Zm6.07,28c-3,2-8.34,3.92-11.78,1.86a5.94,5.94,0,0,1-1.37-1.14,13,13,0,0,1-.25-4.37c.72-6.41,5.85-10.82,11.37-13.45a1.87,1.87,0,0,0,1-1.53C318.81,163.43,317.89,174.43,311.16,179Z"/><path class="cls-3" d="M366.62,133.88c-22.85-26.52-61.64-31.2-91.21-13.41-24.76,14.9-38.94,42.37-39.53,70.37-1.65,30.74,15.7,61.73,43.53,75.59,31.69,15.77,72.42,6.64,91.64-24,10.41-16.6,12.69-37,12.25-56.14S379.45,148.78,366.62,133.88Zm3.7,91.29c-10.78,31.46-45.7,48-77.13,38.21a70.86,70.86,0,0,1-40.78-33.66c-7.63-14-10-28.76-9.32-44,1.63-19,9.23-37.08,24.7-50.67,23.92-21,59.82-24.15,85-3.51,12.66,10.38,19.8,24.61,21.62,40.78C376.38,189.65,376,208.52,370.32,225.17Z"/><path class="cls-3" d="M229.73,139.61C218.26,146.42,212.86,164,211,176.32c-2.51,16.36.15,32.7,4.49,48.49.91,3.33,5.77,1.92,5.12-1.41-2.89-14.76-5.13-30.21-2.88-45.22A68.19,68.19,0,0,1,223,160c2.79-6.12,7.35-10.78,10.6-16.52A2.84,2.84,0,0,0,229.73,139.61Z"/><path class="cls-3" d="M409.42,145.52c-1.73-3-6.11-.37-4.6,2.69a103.25,103.25,0,0,1,10.54,44c.22,15.39-4.29,28.75-8.69,43.23-1,3.24,3.54,4.9,5.29,2.23,8.56-13.1,10.87-31.08,10.41-46.4A97.13,97.13,0,0,0,409.42,145.52Z"/><path class="cls-3" d="M531.37,264c-1.19-38.72-8.5-76.95-19.58-114a542.71,542.71,0,0,0-18.62-53.52c-3.9-9.35-8.9-18.73-16.48-25.36l6.73-.32c3-.15,4.93-3.91,2.54-6.15A160.75,160.75,0,0,0,382.57,21.29c-8.06-.31-16.17.91-24.2.48-9.14-.49-15.37-7.28-23.36-10.9a60.43,60.43,0,0,0-22-5.14c-3.43-.18-3.84,4.16-1.59,5.85a42.58,42.58,0,0,1,7.86,7.59c-20.18-1-40,3.94-59,10.67a245.73,245.73,0,0,0-48.16,23.39,267.22,267.22,0,0,0-77.24,73.53,253.14,253.14,0,0,0-28.68,54.17c-1,2.57,1.92,4.9,4.28,4.28l11.08-2.89a199.23,199.23,0,0,0-14.4,150.35,3.68,3.68,0,0,0,3,2.44c8.66,37.08,34.47,69.34,69,85.66a3.94,3.94,0,0,0,.63.22c0,.94,0,1.88,0,2.81A236.53,236.53,0,0,0,194,495.64c7.7,21.55,17.6,43.47,34.26,59.64,16.27,15.81,37.83,30.22,60.1,35.48,12,2.83,24.35,3.37,36.6,3.44,11.87.07,24.41.69,35.81-3.2,18.38-6.27,32.24-22.08,38.57-40.13,7.83-22.28,4.65-46.89-3.06-68.72-2.33-6.6-5-13-7.93-19.41,38.45,6.67,78.54-14.6,95.15-49.76a6.88,6.88,0,0,1,0,5.59c-.13.25-.25.5-.37.76-2.14,4.43,4.28,8.33,6.69,3.9a14.78,14.78,0,0,0,.67-1.39c12.53-25.84,24.58-52,28.35-80.73,3.58-27.35.65-54.93-4.23-81.95A73,73,0,0,1,525,266.57C527.35,268.54,531.48,267.38,531.37,264ZM395.51,516c1.45,21.2-4.29,42.9-20.54,57.42-17.2,15.36-41.54,13.48-63.09,12.37-12.05-.63-24.08-2.53-35.23-7.33-9.88-4.25-19-10.22-27.73-16.48-19.1-13.72-31.71-31.19-41.1-52.59a240.75,240.75,0,0,1-19-68.63c-5.3-45.76,5.29-90.8,31.78-128a8,8,0,0,0,3.48-4.71c.5-.65,1-1.31,1.5-2q3.09,1.25,6.18,2.45a220.67,220.67,0,0,0,44.42,12.26c-7.25,17.77-10.36,37.72-11.77,56.75-1.44,19.23-1.53,40.2,3.65,58.92.88,3.16,6.13,2.66,5.9-.8-1.31-19.16-3.62-37.79-2.34-57.07,1.29-19.52,5.84-38,10.27-56.93q8.91,1.2,18,1.65c16.07.77,32.16.2,48.24.25a199.54,199.54,0,0,0,2.78,66.34c4.68,22,13.87,42.11,23.55,62.26S394,493.32,395.51,516ZM175.61,294.88a18.72,18.72,0,0,0,18.07,5c.16,6.39,2.63,12,10.12,14.16a27.86,27.86,0,0,0,6.36,1,161.2,161.2,0,0,0-22.57,47.48c-19-10.18-31.93-28.16-31.89-50.39,0-10.49,2.66-25.21,11.18-32.36a9.45,9.45,0,0,1,7.4-2C170.55,282.39,171.34,290.41,175.61,294.88Zm4.29-13.71a124.67,124.67,0,0,0,14.78,10.14C189.45,298.45,175,289.54,179.9,281.17Zm21.15,13.71c5.91,3.15,12,6,18.18,8.58q-1.46,1.65-2.83,3.34c-3.11,1.76-7.25,1.5-10.72.4C199.88,305.36,200.16,299.86,201.05,294.88Zm165.76,49c6.61-.56,10.67-4.74,13.43-10,6.53,10,19.69,14.55,31.2,8.49a2.94,2.94,0,0,0,.77-.6,35.09,35.09,0,0,1-.31,18,41,41,0,0,1-20.68,25.56c-10.14,5.31-21,5.79-32,4.51a192.88,192.88,0,0,1-4.35-50.26A15.29,15.29,0,0,0,366.81,343.91Zm-11.28-14.07c.2-2.06.41-4.12.67-6.17,5.11.1,10.23.29,15.34.64,1.65.12,3.38.22,5.15.33-1.5,4.76-3.18,10.17-8.25,12.09-6.13,2.31-10.17-1.83-12.83-6.79A.39.39,0,0,0,355.53,329.84Zm28.24-4.66c7.33.71,14.81,2.09,20.6,5.68a16.92,16.92,0,0,1,5.27,5.21,3.19,3.19,0,0,0-.82.18C398,340.37,387.08,336.61,383.77,325.18Zm127.69-76a3.76,3.76,0,0,0-5.45,4.19c5.28,28.3,8.93,57.43,5.24,86.17-3.07,23.93-12.18,46.08-22.34,67.72a14.88,14.88,0,0,0-4.74-4.21c-2.3-1.3-4.73,0-5.6,2.28-13.68,36.37-56.13,58.27-93.71,49.08a3.62,3.62,0,0,0-.46-.06c-7.35-15.52-15.2-30.81-20.51-47.18-1-3.07-1.9-6.16-2.74-9.27,18,3,38.05-4.32,49.29-18.48,11.07-13.93,16.78-40.55.6-53.23-8.46-6.63-20.31-7.65-30.61-8.76-13.72-1.5-27.54-1.53-41.32-1.4-27.55.25-54.89.67-81.72-6.57a286.51,286.51,0,0,1-30.27-10,3,3,0,0,0-2.34-.95,253,253,0,0,1-25.24-11.8,55.11,55.11,0,0,0-12.32-10.07c-5-3.06-11.45-6.71-17.58-5.66-13.47,2.3-19,21.07-20.67,32.47-3.89,27.4,11.1,55.32,36.64,66.35a196.45,196.45,0,0,0-5.73,43.62,121,121,0,0,1-64.24-86.59,3,3,0,0,0-3.53-2.42,192.42,192.42,0,0,1,19.38-145.68,3.48,3.48,0,0,0-3.89-5.06l-12.19,3.14A258.17,258.17,0,0,1,255.66,38.84c21.46-8.64,44.48-15.21,67.8-14.5,2.41,1.17,5.83-1.42,4.06-4.25a50.55,50.55,0,0,0-5.15-6.86,49.85,49.85,0,0,1,14.56,5.71c6.08,3.58,11.15,8.07,18.38,9,7.44,1,15.13-.29,22.61-.17A147.61,147.61,0,0,1,401.1,30a156.27,156.27,0,0,1,73.31,34l-9.12.45c-4.26.23-4.57,5.51-1,7,14,5.91,20.15,21.84,25.1,35.08,6.23,16.63,11.91,33.48,16.8,50.56,9.26,32.32,15.62,65.46,17.38,99.05A80.81,80.81,0,0,0,511.46,249.14Z"/><path class="cls-3" d="M449.33,305.48c-3.06-1.43-5.76,3-2.69,4.6,13,6.91,20.41,20.2,24.85,33.73a106.05,106.05,0,0,1,4.94,20.3c.85,7.14-.84,12.52-3.18,19.12-1.07,3,2.95,4.74,5,2.92,11.61-10.23,4.31-32.22.21-44.27C473.25,326.52,464.48,312.51,449.33,305.48Z"/><path class="cls-3" d="M160.28,246.51c-9.28,5.17-17.67,15.06-23.72,23.66s-9.9,18.83-10,29.52c0,3.43,5.08,3.37,5.3,0,.69-10.6,5.34-20.1,11.83-28.37,6-7.69,14.5-13.34,20.24-21.14C165.63,247.9,162.45,245.3,160.28,246.51Z"/><path class="cls-3" d="M290.55,493.92c-4.34-8.4-8.22-17-12-25.69-1.29-3-6.3-.86-5.27,2.22a201.6,201.6,0,0,0,11.38,26.89c4.36,8.57,8.88,17.5,15.49,24.57,2.09,2.23,5-.6,3.92-3C300.33,510.22,294.89,502.32,290.55,493.92Z"/><path class="cls-3" d="M481,152.36c2.48,10.22,3.45,21.27,7.42,31,.35.87,1.8.86,1.76-.24-.37-11.08-3.81-22.79-6.68-33.47-2.6-9.71-6.4-18.63-13.18-26.15-.48-.54-1.44.18-1,.78C475.32,132.65,478.61,142.46,481,152.36Z"/><path class="cls-3" d="M479,183.84a43.3,43.3,0,0,1,2.29,7.08c.53,2.41.7,5,1.46,7.3a1.15,1.15,0,0,0,2.2,0c1.09-5.13-1.4-10.89-4-15.19C480.3,182.06,478.5,182.7,479,183.84Z"/><path class="cls-3" d="M188.6,166.51c-11.3,11.33-16.37,29.3-16.54,44.93,0,1.06,1.52,1,1.62,0a86.23,86.23,0,0,1,5.15-23.09c2.84-7.48,7.14-13.93,11.14-20.79A.87.87,0,0,0,188.6,166.51Z"/><path class="cls-3" d="M199.73,146.76c-4.52,2.49-7.78,8.65-9.14,13.45a.93.93,0,0,0,1.69.71,68.49,68.49,0,0,1,4-6.69c1.5-2.1,3.45-3.92,4.78-6.12A1,1,0,0,0,199.73,146.76Z"/><path class="cls-3" d="M135.09,200.84c-10.14,10-16.12,24.83-17.47,38.84-.06.65,1,.78,1.12.16,3.16-14.38,9.26-26.06,17.58-38.05C136.83,201,135.71,200.23,135.09,200.84Z"/><path class="cls-3" d="M481.59,266.76A131.36,131.36,0,0,1,492,295.58c2.36,10.11,2.32,20.14,3.49,30.36.14,1.19,2,1.73,2.3.31,3.58-20.1-4.42-43.36-14.66-60.4A.9.9,0,0,0,481.59,266.76Z"/></svg>