<svg id="Layer_1" data-name="Layer 1" xmlns="http://www.w3.org/2000/svg" viewBox="0 0 600 600"><defs><style>.cls-1{fill:#f2b879;}.cls-2{fill:#f7941e;}.cls-3{fill:#009444;}.cls-4{fill:#8dc63f;}.cls-5{fill:#fff200;}.cls-6{fill:#231f20;}</style></defs><title>doodle</title><path class="cls-1" d="M301.83,485q-10.56-1.22-21.14-2.41-8.79-1-17.6-1.85c4.83,7.92,9.25,15.94,14,23.75A246.68,246.68,0,0,0,301.83,485Z"/><path class="cls-2" d="M220,533.64a247.44,247.44,0,0,0,28.44-12.14,243.26,243.26,0,0,0,24.83-14.44A114.87,114.87,0,0,1,260.6,480.5c-21.93-2.2-44-4.16-65.8-6.95,3.44,10.8,5.26,21.81,9.72,32.38A149.45,149.45,0,0,0,220,533.64Zm7.3-39.62c3-1.15,5.49,1.21,5.5,4.19a7,7,0,0,1-1.94,4.89,4,4,0,0,1-.42.49,3.73,3.73,0,0,1-6.44-1.95C223.55,498.73,224.21,495.19,227.27,494Z"/><path class="cls-1" d="M222.33,536.93c9.7,13.13,21.18,24.41,33.38,35,15.56-6.89,31-13.7,46-22.11,1.86-1,3.69-2.1,5.53-3.17a142.76,142.76,0,0,1-18.53-18.51,205.38,205.38,0,0,1-13.22-17.59,240.53,240.53,0,0,1-26,14.92A243.14,243.14,0,0,1,222.33,536.93Zm44.48-4,.08-.07a4.22,4.22,0,0,1,.59-.52l.23-.15a3.91,3.91,0,0,1,.57-.31l.31-.12a3.65,3.65,0,0,1,.59-.16l.36-.07.22,0c.12,0,.25,0,.37,0h.37a5.58,5.58,0,0,1,.59.1l.32.07a4,4,0,0,1,3,3.92,4.31,4.31,0,0,1-1.25,2.91,3.78,3.78,0,0,1-1,.87,4.53,4.53,0,0,1-6.1-2.58c0-.06-.05-.11-.07-.17A3.71,3.71,0,0,1,266.81,532.89Z"/><path class="cls-1" d="M200.35,506.28c-4.07-10-8.14-22-7.37-32.95q-6.47-.84-12.9-1.78a146.2,146.2,0,0,0-.06,35.84,1.28,1.28,0,0,1,.34-.07,4.85,4.85,0,0,1,4.69,4.08,8.29,8.29,0,0,1-2.41,10.31c.45,1.85.92,3.7,1.46,5.53a115.5,115.5,0,0,0,5.43,15.1c8.79-2.48,17.75-4.37,26.44-7.28A150.88,150.88,0,0,1,200.35,506.28Z"/><path class="cls-3" d="M251.54,246.79a116.56,116.56,0,0,1,24.29-8.43c-8.51-39-32.33-73.08-66.79-93.38A123.45,123.45,0,0,0,251.54,246.79Z"/><path class="cls-3" d="M294.14,235.75c3.18-.19,6.34-.25,9.47-.13a3,3,0,0,1,.44,0c-.88-7.52.08-15.5.25-23,.19-8.14-.76-17.34,1.5-25.22a1.08,1.08,0,0,1,2.07,0c2.08,7.93.82,17.08.59,25.22-.22,7.59.24,15.86-1.32,23.39a37.57,37.57,0,0,1,8.11,1.65c6.41-16.79,12.79-33.65,17.15-51.1,4.66-18.69,5.66-37.46,5.87-56.64.4-35.49.78-71.28-5.5-106.32-17.6,26.07-29.15,54.89-35.81,84.94a2.47,2.47,0,0,1-.18.78c-8.89,40.7-8.84,83.63-2.59,125.05A3.71,3.71,0,0,1,294.14,235.75ZM308.54,161a1.18,1.18,0,0,1,2.31.31c.52,5.64-.69,12.64-2.37,18a1,1,0,0,1-2-.27C306.32,173.43,306.83,166.46,308.54,161Z"/><path class="cls-1" d="M299.94,242.93c4.11,5.29,8.15,10.5,12.38,15.56,2.62-3.26,5.14-6.93,8-10.18-5.92-2.64-12-3.64-18.13-5.52Z"/><path class="cls-2" d="M222.93,339.37l-10.53,6.92a139.22,139.22,0,0,0,10.64,16,200.11,200.11,0,0,0,19.1,21.22c4.6,4.49,9.8,8.58,14.51,13,7.94-5,16.55-9.34,24.34-14.18,10.14-6.3,20.26-12.68,30.16-19.36q-9.76-10.29-18.93-21.15Q279,326.15,267.3,309.36c-.73.57-1.45,1.16-2.19,1.72C251.68,321.32,237,330.09,222.93,339.37Zm44.58,16.36a4.07,4.07,0,0,1-2.86,3.6l-.32.1-.31.08a4.45,4.45,0,0,1-2.32,0,4,4,0,0,1-3.31-4.74,4.3,4.3,0,0,1,.31-1,3.31,3.31,0,0,1,.67-1.53c.41-1.75,1.46-3.19,3.43-2.82A6.35,6.35,0,0,1,267.51,355.73Z"/><path class="cls-2" d="M251.2,277.85q6.59,11,13.77,21.62c1,1.51,2,3,3.08,4.5A304.67,304.67,0,0,0,296,277c4.67-5,9.21-10.14,13.67-15.34a94.66,94.66,0,0,1-13.19-18.5c-16.61,1.33-32.58,4.63-47.55,12.73-2.54,1.38-4.95,2.89-7.28,4.47,1.23,2.09,2.14,4.4,3.28,6.54C246.85,270.63,249,274.24,251.2,277.85Zm22.17-17.68a.59.59,0,0,1,.7,0,3.34,3.34,0,0,1,.66-.45,3.81,3.81,0,0,1,.73-.36,3.6,3.6,0,0,1,2-.12,3.7,3.7,0,0,1,3.12,4.88,3.71,3.71,0,0,1-.32.8,4.38,4.38,0,0,1-4.6,2.39C272.29,266.84,270.61,262.41,273.37,260.17Z"/><path class="cls-2" d="M306.43,551.34c-15.11,8.53-31.12,16.92-47.59,23.28q3.6,3.06,7.25,6.07a159.19,159.19,0,0,0,27-1.4c.89-.13,1.78-.27,2.68-.43.47-3.48,3.18-6.79,6.75-7.27a6.64,6.64,0,0,1,7,3.77,52.25,52.25,0,0,0,19.92-12c.44-.44.86-.9,1.28-1.36a118.48,118.48,0,0,1-20.42-12.85C309,549.85,307.72,550.61,306.43,551.34Z"/><path class="cls-2" d="M346.3,490.2l-12.15-1.44q-13.39-1.56-26.81-3.12A254.45,254.45,0,0,1,279.27,508a150.36,150.36,0,0,0,13,17.93,140.46,140.46,0,0,0,18.92,18.4q9.94-5.94,19.59-12.39c7.61-5.13,14.84-10.07,21.12-16.48C354,508.7,356,500.82,355,494.59,354.3,490,350.65,490.72,346.3,490.2Zm-20.23,19.18a4.68,4.68,0,0,1-8.61-3.46,4.25,4.25,0,0,1,3.34-2.83,1.86,1.86,0,0,1,1-.46C325.27,502.22,327.48,506.47,326.07,509.38Z"/><path class="cls-1" d="M245.49,579.27c2.16.26,4.31.47,6.46.65s4.6.33,6.91.47c-1.62-1.3-3.22-2.64-4.82-4Q249.78,577.94,245.49,579.27Z"/><path class="cls-2" d="M218.27,538.31l-.68.23c-8.49,2.78-17.5,5.67-26.5,7.07,4.72,9.41,11.22,17.7,20.66,23.32,8.86,5.29,18.93,8.12,29.14,9.71a.86.86,0,0,1,.28-.21q5-2.28,10-4.49A214.26,214.26,0,0,1,218.27,538.31Zm3.3,24.37a5.4,5.4,0,0,1-1.08,3.64,6.07,6.07,0,0,1-.58,1.17c-2.63,4.13-7.34,1.1-8.38-2.63a6.3,6.3,0,0,1,5.8-8C220.89,556.88,222.16,559.86,221.57,562.68Z"/><path class="cls-1" d="M314.3,546.78a127.63,127.63,0,0,0,19.15,12c7.62-9.86,11.94-22.71,15.64-34.48-4.29,3.3-9.17,6.07-12.77,8.52Q325.55,540.13,314.3,546.78Z"/><path class="cls-1" d="M211,343.67c4.47-3.17,8.87-6.37,13.25-9.28,13.23-8.8,27-17.14,39.5-26.92l1.46-1.18c-1.13-1.65-2.26-3.3-3.37-5q-7.43-11.1-14.2-22.61c-2.75-4.68-7.27-10.7-8.59-16.53-12.31,9.05-21.63,21-28.67,35-3.45,6.85-6.56,13.95-9.42,21.18,3.09,7.31,4.87,15.09,8.48,22.3C209.9,341.68,210.42,342.68,211,343.67Zm12.77-54.06a4.35,4.35,0,0,1,6.18-.93,4.62,4.62,0,0,1,1.23,6.17,3.74,3.74,0,0,1-4.56,1.17,3.86,3.86,0,0,1-1.61-.52A4,4,0,0,1,223.72,289.61Z"/><path class="cls-4" d="M251.7,164.16c1,3.91,2.62,8,3.28,12a144.7,144.7,0,0,1,23.48,43.68c-2.46-10.35-4.62-20.79-6.75-31.17C270,180.47,268.38,172.23,267,164c-1.16-6.79-2.1-13.47-.49-20.25a1.21,1.21,0,0,1,2.37.32c.14,15.85,4.16,31.68,7.43,47.13,3.21,15.17,7.14,30.16,10.57,45.27l.87-.12,0-.11c-7.4-41.89-7.43-86.29,1.8-128.33a431.2,431.2,0,0,0-33.1-63.69,218.4,218.4,0,0,0-11,64.84,213.27,213.27,0,0,0,2.72,37.77Q249.56,155.55,251.7,164.16Z"/><path class="cls-2" d="M206.34,341.27c-2.72-5.61-5.8-12.07-7.11-18.49-4.21,11.12-7.84,22.49-11.06,33.73-.13.45-.25.9-.38,1.34,7.18-3.27,14-7.75,20.68-12.42C207.74,344.06,207,342.67,206.34,341.27Z"/><path class="cls-2" d="M324.24,250.36c-2.75,3.95-6.33,7.6-9.38,11.11a153.18,153.18,0,0,0,12.87,13.29A406,406,0,0,0,362,301.84c-4-13.76-10.4-26.8-20.22-37.42A73.21,73.21,0,0,0,324.24,250.36Z"/><path class="cls-1" d="M312.21,264.52c-4.67,5.45-9.45,10.82-14.36,16.05A296.68,296.68,0,0,1,270.2,307q12,17,25.4,32.92,9,10.69,18.73,20.84c19-13.15,34.64-30.38,50.52-47-.06-.29-.11-.59-.17-.88q-.54-2.65-1.19-5.3c-13-9.14-25.87-18.74-37.56-29.58C321.4,273.82,316.68,269.32,312.21,264.52ZM322.73,315a4.21,4.21,0,0,1-5.55-1.3,5.28,5.28,0,0,1-.37-4c-.69-2.08,1.68-4.15,3.66-4.32a4.34,4.34,0,0,1,4.56,4.21c0,.13,0,.24,0,.36A4.9,4.9,0,0,1,322.73,315Z"/><path class="cls-4" d="M335.67,202.87c-3.93,12.71-8.66,25.19-13.41,37.62a78.48,78.48,0,0,1,14.51,9.2,3.81,3.81,0,0,1,1.22-1,86.21,86.21,0,0,0,40.13-42.94c6.91-15.78,11-32.62,18.53-48.09a114.71,114.71,0,0,0-33,16.15C352.14,182,343.8,191.89,335.67,202.87Z"/><path class="cls-5" d="M359.29,428.84a84.75,84.75,0,0,0-8-3.43,217,217,0,0,0-33-10c-22.71-5.05-46-6.64-69.2-6.56-11.7,0-23.38.56-35.05,1.28-5.8.35-11.62.65-17.41,1.22-3.48.34-7.42.82-10.38,2.87-1.6,1.1-3.8,4.89-3.93,7.8a3.59,3.59,0,0,1,1.6,0c27.63,6.06,54.58,12.4,82.9,14.51a402.92,402.92,0,0,0,73.67-1.19c3.47-.38,6.93-.8,10.39-1.28,2.73-.38,6.6-.28,9.12-1.37C363.33,431.22,362.23,430.38,359.29,428.84Z"/><path class="cls-2" d="M359,325.27,345.15,339.1c-8.59,8.57-17.32,16.64-27.29,23.6l-1,.69c4.3,4.45,8.66,8.85,13.14,13.13,11.27,10.77,23.25,23.23,37.29,30.53,1.9-29.5,3.5-59.28-1.5-88.38C363.57,321,361.17,323.11,359,325.27ZM356.09,362a3.83,3.83,0,0,1-1.77.49,2.89,2.89,0,0,1-1.65.14c-2.23-.48-2.57-2.81-2.22-4.7a.31.31,0,0,1,0-.08,5.47,5.47,0,0,1,.78-2.21,3.37,3.37,0,0,1,.48-.55,3.42,3.42,0,0,1,1.58-1.05c2.05-.61,3.93,1,4.54,2.88A4.28,4.28,0,0,1,356.09,362Z"/><path class="cls-1" d="M224.94,402.28c8.19-.5,16.41-.82,24.63-.91q1.89-1.42,3.87-2.76c-5.38-4.45-10.37-9.65-15.16-14.43A197.44,197.44,0,0,1,220.46,364a141.07,141.07,0,0,1-10.6-16l-7.07,4.64c-5.07,3.34-10.16,7.14-16,8.93a187.76,187.76,0,0,0-5.4,27.8A137.71,137.71,0,0,0,181,410.6l.21-.2c5-4.65,12.19-5.35,18.67-6Q212.38,403,224.94,402.28Zm-19-25.12a4.37,4.37,0,0,1,6.49.14,4.09,4.09,0,0,1-.82,6.15l0,0a3.29,3.29,0,0,1-.7.94,4.27,4.27,0,0,1-5.83-.24C203.12,382.16,204.19,378.92,205.9,377.16Z"/><path class="cls-1" d="M313.65,365.55c-10.11,6.88-20.5,13.38-30.93,19.75-7.43,4.55-15.1,9.89-23,14.24.58.61,1.16,1.23,1.72,1.86a309.68,309.68,0,0,1,53.66,5.29,215.06,215.06,0,0,1,41.78,12.49c2.92,1.22,6.49,2.47,9.35,4.45.25-4.21.53-8.44.8-12.66-14.72-7.09-27.25-19.93-38.94-31C323.15,375.26,318.36,370.44,313.65,365.55Zm6.64,30.56a4.56,4.56,0,0,1-.93,1.77c-.32,1.53-1.33,2.86-2.95,2.56l-.12,0a2.84,2.84,0,0,1-3.07-1.93,5.87,5.87,0,0,1-.32-2.27,3.64,3.64,0,0,1,0-1.47,3.19,3.19,0,0,1,.5-1.09c.77-2,2.37-3.32,4.72-2.19A4.15,4.15,0,0,1,320.29,396.11Z"/><path class="cls-6" d="M403,148.21a115.34,115.34,0,0,0-44.46,20.64,128.33,128.33,0,0,0-18.17,16.75c4.27-18.34,5.2-36.85,5.4-55.64.42-39,.6-78.18-7.51-116.52-.72-3.42-5-3.22-6.76-.88-18.58,25.32-31.45,54-39.36,84.12a435.88,435.88,0,0,0-33.73-62.09,3.5,3.5,0,0,0-6.3.82A221.15,221.15,0,0,0,238.75,109a226.24,226.24,0,0,0,2.62,36.21q1.42,9.32,3.65,18.47c.11.42.2.85.3,1.27a152.63,152.63,0,0,0-37.53-28.91c-1.79-1-4.92-.26-5.25,2.14-5.66,41.38,11,84.86,42.91,111.74-17.09,9.56-30.1,24-39.23,41.3-10.16,19.19-17.41,40.58-23.51,61.37-5.16,17.57-9.71,37.51-8.43,56.39-1,5.51-.08,11.46,3.19,15.9a9.51,9.51,0,0,0,6.27,5.09,40.81,40.81,0,0,0,9.7,3,86,86,0,0,0,8.83,1.55c24,6.26,49.43,9.07,73.72,10.35a404.78,404.78,0,0,0,48.39-.34q11.5-.77,22.95-2.18c4.92-.6,11.47-.5,16.59-2.22a2.57,2.57,0,0,0,.38.08,8,8,0,0,0,2.49,0,6.65,6.65,0,0,0,3.57-2,2.21,2.21,0,0,0,.59-.66c1.34-1.81,2.66-5.39,1.4-7.48,3-20.58,3.49-41.79,3.62-62.5.13-21.41-.51-43.19-5.89-64-4.6-17.85-13-34.69-26.28-47.66-.42-.41-.87-.82-1.31-1.24,17.9-8.51,32-23.52,40.48-41.31,9.29-19.4,13.32-41,24.31-59.58C409,150.8,406.16,147.51,403,148.21ZM296.78,109.36a2.47,2.47,0,0,0,.18-.78c6.66-30,18.21-58.87,35.81-84.94,6.28,35,5.9,70.83,5.5,106.32-.21,19.18-1.21,37.95-5.87,56.64-4.36,17.45-10.74,34.31-17.15,51.1a37.57,37.57,0,0,0-8.11-1.65c1.56-7.53,1.1-15.8,1.32-23.39.23-8.14,1.49-17.29-.59-25.22a1.08,1.08,0,0,0-2.07,0c-2.26,7.88-1.31,17.08-1.5,25.22-.17,7.51-1.13,15.49-.25,23a3,3,0,0,0-.44,0c-3.13-.12-6.29-.06-9.47.13a3.71,3.71,0,0,0,.05-1.34C287.94,193,287.89,150.06,296.78,109.36Zm23.5,139c-2.82,3.25-5.34,6.92-8,10.18-4.23-5.06-8.27-10.27-12.38-15.56l2.21-.14C308.26,244.67,314.36,245.67,320.28,248.31ZM245.41,109a218.4,218.4,0,0,1,11-64.84,431.2,431.2,0,0,1,33.1,63.69c-9.23,42-9.2,86.44-1.8,128.33l0,.11-.87.12c-3.43-15.11-7.36-30.1-10.57-45.27C273,175.71,269,159.88,268.85,144a1.21,1.21,0,0,0-2.37-.32c-1.61,6.78-.67,13.46.49,20.25,1.41,8.27,3.06,16.51,4.74,24.73,2.13,10.38,4.29,20.82,6.75,31.17A144.7,144.7,0,0,0,255,176.18c-.66-4.06-2.31-8.11-3.28-12q-2.14-8.59-3.57-17.37A213.27,213.27,0,0,1,245.41,109ZM209,145c34.46,20.3,58.28,54.37,66.79,93.38a116.56,116.56,0,0,0-24.29,8.43A123.45,123.45,0,0,1,209,145Zm39.84,110.93c15-8.1,30.94-11.4,47.55-12.73a94.66,94.66,0,0,0,13.19,18.5c-4.46,5.2-9,10.33-13.67,15.34a304.67,304.67,0,0,1-27.9,27c-1-1.5-2.07-3-3.08-4.5q-7.19-10.62-13.77-21.62c-2.16-3.61-4.35-7.22-6.32-10.93-1.14-2.14-2-4.45-3.28-6.54C243.93,258.8,246.34,257.29,248.88,255.91Zm43.34,85.91q9.13,10.88,18.93,21.15c-9.9,6.68-20,13.06-30.16,19.36-7.79,4.84-16.4,9.18-24.34,14.18-4.71-4.46-9.91-8.55-14.51-13A200.11,200.11,0,0,1,223,362.25a139.22,139.22,0,0,1-10.64-16l10.53-6.92c14.1-9.28,28.75-18.05,42.18-28.29.74-.56,1.46-1.15,2.19-1.72Q279,326.13,292.22,341.82ZM210.33,297.2c7-14,16.36-26,28.67-35,1.32,5.83,5.84,11.85,8.59,16.53q6.78,11.5,14.2,22.61c1.11,1.66,2.24,3.31,3.37,5l-1.46,1.18c-12.52,9.78-26.27,18.12-39.5,26.92-4.38,2.91-8.78,6.11-13.25,9.28-.53-1-1-2-1.56-3-3.61-7.21-5.39-15-8.48-22.3C203.77,311.15,206.88,304.05,210.33,297.2Zm-22.16,59.31c3.22-11.24,6.85-22.61,11.06-33.73,1.31,6.42,4.39,12.88,7.11,18.49.68,1.4,1.4,2.79,2.13,4.16-6.66,4.67-13.5,9.15-20.68,12.42C187.92,357.41,188,357,188.17,356.51ZM181,410.6a137.71,137.71,0,0,1,.39-21.27,187.76,187.76,0,0,1,5.4-27.8c5.85-1.79,10.94-5.59,16-8.93l7.07-4.64a141.07,141.07,0,0,0,10.6,16,197.44,197.44,0,0,0,17.82,20.19c4.79,4.78,9.78,10,15.16,14.43q-2,1.33-3.87,2.76c-8.22.09-16.44.41-24.63.91q-12.56.75-25.07,2.09c-6.48.68-13.65,1.38-18.67,6Zm179,22.07c-2.52,1.09-6.39,1-9.12,1.37-3.46.48-6.92.9-10.39,1.28a402.92,402.92,0,0,1-73.67,1.19c-28.32-2.11-55.27-8.45-82.9-14.51a3.59,3.59,0,0,0-1.6,0c.13-2.91,2.33-6.7,3.93-7.8,3-2.05,6.9-2.53,10.38-2.87,5.79-.57,11.61-.87,17.41-1.22,11.67-.72,23.35-1.24,35.05-1.28,23.21-.08,46.49,1.51,69.2,6.56a217,217,0,0,1,33,10,84.75,84.75,0,0,1,8,3.43C362.23,430.38,363.33,431.22,360,432.67Zm6.23-9c-2.86-2-6.43-3.23-9.35-4.45a215.06,215.06,0,0,0-41.78-12.49,309.68,309.68,0,0,0-53.66-5.29c-.56-.63-1.14-1.25-1.72-1.86,7.93-4.35,15.6-9.69,23-14.24,10.43-6.37,20.82-12.87,30.93-19.75,4.71,4.89,9.5,9.71,14.41,14.38C339.75,391,352.28,403.88,367,411,366.73,415.19,366.45,419.42,366.2,423.63Zm1.06-16.58c-14-7.3-26-19.76-37.29-30.53-4.48-4.28-8.84-8.68-13.14-13.13l1-.69c10-7,18.7-15,27.29-23.6L359,325.27c2.16-2.16,4.56-4.31,6.75-6.6C370.76,347.77,369.16,377.55,367.26,407.05Zm-2.58-94.15c.06.29.11.59.17.88-15.88,16.64-31.55,33.87-50.52,47Q304.67,350.65,295.6,340,282.19,324.08,270.2,307a296.68,296.68,0,0,0,27.65-26.47c4.91-5.23,9.69-10.6,14.36-16.05,4.47,4.8,9.19,9.3,13.72,13.5,11.69,10.84,24.52,20.44,37.56,29.58Q364.14,310.24,364.68,312.9ZM362,301.84a406,406,0,0,1-34.22-27.08,153.18,153.18,0,0,1-12.87-13.29c3.05-3.51,6.63-7.16,9.38-11.11a73.21,73.21,0,0,1,17.49,14.06C351.55,275,357.92,288.08,362,301.84Zm16.17-96.07A86.21,86.21,0,0,1,338,248.71a3.81,3.81,0,0,0-1.22,1,78.48,78.48,0,0,0-14.51-9.2c4.75-12.43,9.48-24.91,13.41-37.62,8.13-11,16.47-20.91,28-29a114.71,114.71,0,0,1,33-16.15C389.13,173.15,385,190,378.12,205.77Z"/><path class="cls-6" d="M345.08,481.81q-15.16-1.83-30.36-3.55c-22.68-2.57-45.37-5.09-68.08-7.34-23.44-2.32-47-5.29-70.59-6.07a3.1,3.1,0,0,0-3,3.45,3.17,3.17,0,0,0-.33,1,139.43,139.43,0,0,0,1.9,53.57c3.79,16.33,10.29,33.88,22.85,45.54,22,20.41,57.42,21.93,85.76,20.08,14.32-.94,29.1-3.68,41.53-11.22,14-8.47,21.44-22,27.16-36.89a204.3,204.3,0,0,0,8.73-26.75c1.63-7,4.44-17.2,1.87-24.16S351.35,482.56,345.08,481.81Zm-64.39.79q10.57,1.18,21.14,2.41a246.68,246.68,0,0,1-24.74,19.49c-4.75-7.81-9.17-15.83-14-23.75Q271.91,481.64,280.69,482.6Zm8,45.54a142.76,142.76,0,0,0,18.53,18.51c-1.84,1.07-3.67,2.13-5.53,3.17-15,8.41-30.44,15.22-46,22.11-12.2-10.59-23.68-21.87-33.38-35a243.14,243.14,0,0,0,27.21-11.46,240.53,240.53,0,0,0,26-14.92A205.38,205.38,0,0,0,288.71,528.14ZM260.6,480.5a114.87,114.87,0,0,0,12.64,26.56,243.26,243.26,0,0,1-24.83,14.44A247.44,247.44,0,0,1,220,533.64a149.45,149.45,0,0,1-15.45-27.71c-4.46-10.57-6.28-21.58-9.72-32.38C216.65,476.34,238.67,478.3,260.6,480.5Zm-76.5,46.74c-.54-1.83-1-3.68-1.46-5.53a8.29,8.29,0,0,0,2.41-10.31,4.85,4.85,0,0,0-4.69-4.08,1.28,1.28,0,0,0-.34.07,146.2,146.2,0,0,1,.06-35.84q6.43.94,12.9,1.78c-.77,11,3.3,22.94,7.37,32.95A150.88,150.88,0,0,0,216,535.06c-8.69,2.91-17.65,4.8-26.44,7.28A115.5,115.5,0,0,1,184.1,527.24Zm56.79,51.4c-10.21-1.59-20.28-4.42-29.14-9.71-9.44-5.62-15.94-13.91-20.66-23.32,9-1.4,18-4.29,26.5-7.07l.68-.23a214.26,214.26,0,0,0,32.91,35.63q-5,2.22-10,4.49A.86.86,0,0,0,240.89,578.64ZM252,579.92c-2.15-.18-4.3-.39-6.46-.65q4.29-1.34,8.55-2.86c1.6,1.34,3.2,2.68,4.82,4C256.55,580.25,254.24,580.1,252,579.92Zm77.49-16.6a52.25,52.25,0,0,1-19.92,12,6.64,6.64,0,0,0-7-3.77c-3.57.48-6.28,3.79-6.75,7.27-.9.16-1.79.3-2.68.43a159.19,159.19,0,0,1-27,1.4q-3.66-3-7.25-6.07c16.47-6.36,32.48-14.75,47.59-23.28,1.29-.73,2.58-1.49,3.87-2.23A118.48,118.48,0,0,0,330.72,562C330.3,562.42,329.88,562.88,329.44,563.32Zm4-4.57a127.63,127.63,0,0,1-19.15-12q11.24-6.64,22-14c3.6-2.45,8.48-5.22,12.77-8.52C345.39,536,341.07,548.89,333.45,558.75Zm18.42-43.28c-6.28,6.41-13.51,11.35-21.12,16.48q-9.63,6.46-19.59,12.39a140.46,140.46,0,0,1-18.92-18.4,150.36,150.36,0,0,1-13-17.93,254.45,254.45,0,0,0,28.07-22.37q13.41,1.55,26.81,3.12l12.15,1.44c4.35.52,8-.2,8.73,4.39C356,500.82,354,508.7,351.87,515.47Z"/><path class="cls-6" d="M275.63,267.31a4.38,4.38,0,0,0,4.6-2.39,3.71,3.71,0,0,0,.32-.8,3.7,3.7,0,0,0-3.12-4.88,3.6,3.6,0,0,0-2,.12,3.81,3.81,0,0,0-.73.36,3.34,3.34,0,0,0-.66.45.59.59,0,0,0-.7,0C270.61,262.41,272.29,266.84,275.63,267.31Z"/><path class="cls-6" d="M325,309.56a4.34,4.34,0,0,0-4.56-4.21c-2,.17-4.35,2.24-3.66,4.32a5.28,5.28,0,0,0,.37,4,4.21,4.21,0,0,0,5.55,1.3,4.9,4.9,0,0,0,2.28-5.09C325,309.8,325,309.69,325,309.56Zm-4.27.3v0l0,0Z"/><path class="cls-6" d="M320.76,309.86h0l0,0Z"/><path class="cls-6" d="M259.37,352.2a3.31,3.31,0,0,0-.67,1.53,4.3,4.3,0,0,0-.31,1,4,4,0,0,0,3.31,4.74,4.45,4.45,0,0,0,2.32,0l.31-.08.32-.1a4.07,4.07,0,0,0,2.86-3.6,6.35,6.35,0,0,0-4.71-6.35C260.83,349,259.78,350.45,259.37,352.2Z"/><path class="cls-6" d="M225,295.5a3.86,3.86,0,0,0,1.61.52,3.74,3.74,0,0,0,4.56-1.17,4.62,4.62,0,0,0-1.23-6.17,4.35,4.35,0,0,0-6.18.93A4,4,0,0,0,225,295.5Z"/><path class="cls-6" d="M210.82,384.42a3.29,3.29,0,0,0,.7-.94l0,0a4.09,4.09,0,0,0,.82-6.15,4.37,4.37,0,0,0-6.49-.14c-1.71,1.76-2.78,5-.91,7A4.27,4.27,0,0,0,210.82,384.42Z"/><path class="cls-6" d="M318.13,391.46c-2.35-1.13-3.95.23-4.72,2.19a3.19,3.19,0,0,0-.5,1.09,3.64,3.64,0,0,0,0,1.47,5.87,5.87,0,0,0,.32,2.27,2.84,2.84,0,0,0,3.07,1.93l.12,0c1.62.3,2.63-1,2.95-2.56a4.56,4.56,0,0,0,.93-1.77A4.15,4.15,0,0,0,318.13,391.46Z"/><path class="cls-6" d="M353.31,354.05a3.42,3.42,0,0,0-1.58,1.05,3.37,3.37,0,0,0-.48.55,5.47,5.47,0,0,0-.78,2.21.31.31,0,0,0,0,.08c-.35,1.89,0,4.22,2.22,4.7a2.89,2.89,0,0,0,1.65-.14,3.83,3.83,0,0,0,1.77-.49,4.28,4.28,0,0,0,1.76-5.08C357.24,355.07,355.36,353.44,353.31,354.05Z"/><path class="cls-6" d="M308.48,179.37c1.68-5.39,2.89-12.39,2.37-18a1.18,1.18,0,0,0-2.31-.31c-1.71,5.43-2.22,12.4-2.09,18.07A1,1,0,0,0,308.48,179.37Z"/><path class="cls-6" d="M321.79,502.63a1.86,1.86,0,0,0-1,.46,4.25,4.25,0,0,0-3.34,2.83,4.66,4.66,0,0,0,8.61,3.46C327.48,506.47,325.27,502.22,321.79,502.63Z"/><path class="cls-6" d="M266.05,536.75a4.53,4.53,0,0,0,6.1,2.58,3.78,3.78,0,0,0,1-.87,4.31,4.31,0,0,0,1.25-2.91,4,4,0,0,0-3-3.92l-.32-.07a5.58,5.58,0,0,0-.59-.1h-.37c-.12,0-.25,0-.37,0l-.22,0-.36.07a3.65,3.65,0,0,0-.59.16l-.31.12a3.91,3.91,0,0,0-.57.31l-.23.15a4.22,4.22,0,0,0-.59.52l-.08.07a3.71,3.71,0,0,0-.83,3.69C266,536.64,266,536.69,266.05,536.75Z"/><path class="cls-6" d="M230.41,503.59a4,4,0,0,0,.42-.49,7,7,0,0,0,1.94-4.89c0-3-2.5-5.34-5.5-4.19s-3.72,4.71-3.3,7.62A3.73,3.73,0,0,0,230.41,503.59Z"/><path class="cls-6" d="M217.33,556.9a6.3,6.3,0,0,0-5.8,8c1,3.73,5.75,6.76,8.38,2.63a6.07,6.07,0,0,0,.58-1.17,5.4,5.4,0,0,0,1.08-3.64C222.16,559.86,220.89,556.88,217.33,556.9Z"/></svg>