<svg id="Layer_1" data-name="Layer 1" xmlns="http://www.w3.org/2000/svg" viewBox="0 0 600 600"><defs><style>.cls-1{fill:#fff;}.cls-2{fill:#231f20;}</style></defs><title>doodle</title><path class="cls-1" d="M159.85,164.1c4.59,60.13,12.32,120.29,18.5,180.28,2.83,27.4,3.36,57.5,14.76,83.07,9.43,21.17,35.37,44.63,59.77,31.24,18.39-10.09,23.58-35,26.81-54,5.12-30.06,6.35-60.86,7.9-91.26A1376.28,1376.28,0,0,0,286,146.08,339.85,339.85,0,0,0,159.85,164.1Z"/><path class="cls-1" d="M317.28,148.94c5.27,70.2,4.51,141-3.9,210.87-2.82,23.44-4.83,55.18-14.46,81.44,19.55,5.89,40.9,1.52,57.39-12.27,20.22-16.9,29.3-43.76,35.12-68.56,7.1-30.21,10.88-61.28,13.11-92.2,2.27-31.37-.74-63.44,1.75-94.62A355.21,355.21,0,0,0,317.28,148.94Z"/><path class="cls-2" d="M532.87,218.15a344,344,0,0,0-64.83-50c-47.81-28.8-101.61-45.72-157.1-50.91C200.37,106.87,78.69,149.91,18.35,247c-3.26,5.25,4.58,11.6,8.72,6.73,32.1-37.76,72.68-65.83,117.42-83.89a1944.65,1944.65,0,0,0,11.76,211.76c3.13,28.52,8.27,58.67,27.72,81.06,16,18.45,41.08,30.63,65.75,25.82,17.37-3.38,29.57-12.83,38.31-25.56C305.92,473,329,472.8,348.4,465.72c30.11-11,49.63-36.37,61.54-65.19,14-33.87,19-71.57,23.22-107.72C437,260,441,222.89,437.67,188.67c1.39.76,2.83,1.46,4.21,2.23a317.83,317.83,0,0,1,59.44,42.77c10.26,9.42,20.3,19.41,28.19,30.94,6.58,9.63,10.21,20.74,20.59,26.87,4.58,2.71,12.11,1.4,14.51-3.8C576.07,262.87,549.35,234.53,532.87,218.15ZM287.59,313.44c-1.55,30.4-2.78,61.2-7.9,91.26-3.23,18.95-8.42,43.9-26.81,54-24.4,13.39-50.34-10.07-59.77-31.24-11.4-25.57-11.93-55.67-14.76-83.07-6.18-60-13.91-120.15-18.5-180.28a339.85,339.85,0,0,1,126.14-18A1376.28,1376.28,0,0,1,287.59,313.44Zm117-45.22c-2.23,30.92-6,62-13.11,92.2-5.82,24.8-14.9,51.66-35.12,68.56-16.49,13.79-37.84,18.16-57.39,12.27,9.63-26.26,11.64-58,14.46-81.44,8.41-69.92,9.17-140.67,3.9-210.87a355.21,355.21,0,0,1,89,24.66C403.8,204.78,406.81,236.85,404.54,268.22Z"/></svg>