<svg id="Layer_1" data-name="Layer 1" xmlns="http://www.w3.org/2000/svg" viewBox="0 0 600 600"><defs><style>.cls-1{fill:#8dc63f;}.cls-2{fill:#009444;}.cls-3{fill:#939598;}.cls-4{fill:#00aeef;}.cls-5{fill:#fff;}.cls-6{fill:#231f20;}</style></defs><title>doodle</title><path class="cls-1" d="M242.41,147c-10.1-11.7-9.65-28.57-7.76-43.08,1.14-8.77,7.94-12,13.23-18.18,1.53-1.8,7.55-13,1.71-10a50,50,0,0,0-11.92,8.53,2.71,2.71,0,0,1-4.49-2.62,115.66,115.66,0,0,0,2.71-15.71q.38-3.77.5-7.56c.05-1.23.43-3.78-.15-5.43-8.33,6.75-10.19,18.69-11.68,28.77-.45,3.07-4.85,2-5.06-.68A152.67,152.67,0,0,0,216.88,62Q216,57.93,215,53.88c-.24-.89-.38-3-1-3.67q-.34-2.37-1.52.2l-.64,1.14c-5.2,9.47-2.52,21.54,0,31.38.8,3.19-3.22,4.47-5,2.1-1.65-2.21-5-5.24-8-5.15-2.67.09-2.44,1.61-1.6,3.73A25.8,25.8,0,0,0,211.94,98a2.84,2.84,0,0,1,1.9,3.34,72.75,72.75,0,0,0,19.47,59.75Q237.81,154,242.41,147Z"/><path class="cls-2" d="M207.14,240.13c.26-.49,2.61-4.15,2.63-4.11-.2-.43-4.26-.33-4.78-.34a62.05,62.05,0,0,0-9,.4,71,71,0,0,0-33.47,13.45c-9.74,7.2-18.36,17.54-22.25,29.14C137.4,287.14,144.71,293,151,297.5a60.6,60.6,0,0,0,17.9,8.68c4.19-7.33,9.15-14.29,13.57-21.49q7-11.51,13.58-23.31C199.89,254.37,203.44,247.22,207.14,240.13Z"/><path class="cls-3" d="M356.18,92.25c16,9.15,33.63,13,51.85,12.46.27-6.56.37-13.13.26-19.68-16.2,1.93-33.22-5.37-46.62-13.73a56.71,56.71,0,0,1-17.33-16.56c-2.91-4.33-6.18-10.21-6.89-15.88q-2.77,1.76-5.46,3.64a101.93,101.93,0,0,0-12.73,10.77c4.45,7.34,8.52,14.68,14.48,21.15A93.47,93.47,0,0,0,356.18,92.25Z"/><path class="cls-2" d="M349.5,51.73a50,50,0,0,0,16,14.42c12.86,7.54,27.56,13.18,42.6,11.91-.23-5.84-.64-11.68-1.24-17.48a122,122,0,0,0-6-28c-1.47-4.15-3.12-8.84-6.32-12C390.86,17,385.9,16.83,381.13,18c-8.79,2.14-17.3,6.89-25.4,10.83-4.74,2.32-9.43,4.77-14,7.43,1.06,2.22,1.82,4.62,2.83,6.82A56.13,56.13,0,0,0,349.5,51.73Z"/><path class="cls-1" d="M210.63,310.8c-.95,4.75,1.75,8.79,5.05,11.92,6.84,6.5,15.86,11.22,24.24,15.39,9,4.48,18.28,8.22,27.62,11.87,4.83,1.88,10.17,4.94,14.87,1.23,3.41-2.69,4.73-6.92,6-11a510.22,510.22,0,0,1-72.87-39.54C213.84,304.05,211.38,307.06,210.63,310.8Z"/><path class="cls-1" d="M315.1,106c-11.36,1.72-20.68,9.8-25.69,20a53,53,0,0,0-2.52,17.35,48.42,48.42,0,0,0,7.9,25.76c5.22,7.78,12.77,13.66,22.42,14a50.62,50.62,0,0,0,24.9-6c8.05-4.39,13.28-11.34,14.11-20.62a69,69,0,0,0-3.78-28.71C347,113.15,330.44,103.67,315.1,106Zm19.14,54.68c-7.06,9.18-20.14,12.7-29.49,4.74a21,21,0,0,1-2.15-2.17.66.66,0,0,1-.31-.16,20,20,0,0,1-6.71-16A32.33,32.33,0,0,1,301,129.48c6.91-10.07,20.72-9.78,29.14-1.71C339.09,136.33,342.06,150.53,334.24,160.68Z"/><path class="cls-3" d="M321.84,128.84c-5.43-2.81-12.24-2.17-16.31,2.62a21.23,21.23,0,0,0-2.19,3.12c-3.15,10.22-2.25,25.77,10.23,28.86,5.44,1.35,11.1-1.42,14.72-5.4,4.47-4.88,5.35-10.58,3.28-16.74C329.88,136.27,326.66,131.34,321.84,128.84Z"/><path class="cls-4" d="M407.66,111.73c-19.33,1.23-39.35-4.61-55.72-14.59A100.36,100.36,0,0,1,328.36,77.3c-4.92-5.69-10.24-12.54-13.07-19.94-8,8.63-15.05,18.28-22.05,27.74q-17.72,23.9-34.53,48.43c-21.75,31.66-42.26,64-61.84,97.06,1.2-.09,2.4-.16,3.59-.18,4.59-.08,16.06-.88,14.07,6.81-1.13,4.32-3.8,8.54-5.81,12.5s-4.13,8-6.25,12q-4.65,8.68-9.55,17.21c19.88,13.42,40,26.32,61.25,37.53a580.87,580.87,0,0,0,68.93,30.86,3.56,3.56,0,0,1,1,.6q4.14-9.94,8.3-19.88c2-4.8,4-9.59,6.07-14.38,2-4.61,3.67-9.48,6.35-13.73a7.08,7.08,0,0,1,2.26-3c3-2.18,6.45-.65,9.25,1.06a30.07,30.07,0,0,1,8,7.3c12.78-41.69,25.66-83.47,34.13-126.29A506.67,506.67,0,0,0,407.66,111.73ZM232.15,185.34c-2.8,5.75-6.67,11.11-10.1,16.5S215.37,213,211.51,218.1a.61.61,0,0,1-1-.62c3.1-5.92,7-11.5,10.53-17.15,3.3-5.26,6.37-10.84,10.23-15.71C231.67,184.06,232.43,184.78,232.15,185.34Zm14.53-22.06a30.25,30.25,0,0,1-7.89,10.33c-.36.3-1-.09-.69-.54,1.29-1.84,2.84-3.51,4.18-5.33,1.23-1.66,2.33-3.45,3.63-5.06C246.29,162.2,246.89,162.81,246.68,163.28Zm94,22.33c-9.69,4-21.94,6.37-32.14,3.14-9.75-3.08-17.4-11.34-22.07-20.19-8.57-16.24-9.29-39.8,3.59-54.17a1.56,1.56,0,0,1,1.54-.58A39.2,39.2,0,0,1,320.4,99.57c20.23-.44,36.7,14.32,40.84,33.61,2.31,10.76,4,23.48-.36,33.93C357.19,176,349.36,182,340.64,185.61Zm30,79.16c-2.34,7.78-4.54,16.48-8.74,23.5a.27.27,0,0,1-.48-.21c1.55-8.05,5-15.93,7.36-23.81s3.93-16.2,6.54-24.07c.2-.62,1.27-.55,1.19.16C375.59,248.6,373,256.83,370.63,264.77Zm8.08-41.33c-.27.41-1,.16-.82-.34a42.44,42.44,0,0,0,2.1-12.6.5.5,0,0,1,1-.13A17,17,0,0,1,378.71,223.44Z"/><path class="cls-5" d="M253.46,376.55c5-6.95,9-17,3.52-24.14l-2.42-1c-5.76-2.41-11.47-4.93-17.05-7.73-8.07-4-17.45-8.75-24.41-15.19-9.7-3.13-20.36-2.49-28.92,3.4A31.32,31.32,0,0,0,171,356c-.09,1.86-2.38,3.78-4.18,2.4-9.27-7.15-23-3.69-33,.05-10.91,4.07-20.89,11.23-27.05,21.23-6,9.71-8.43,21.77-4.81,32.78,3.3,10.07,11.53,18.54,21.94,21,3.1.74,2.47,4.67,0,5.67-10.79,4.37-15,19.89-15.41,30.38a48.89,48.89,0,0,0,10,31.76c14.24,18.14,41.63,22.15,61.1,10.43a3.13,3.13,0,0,1,4.67,2.68c-1.08,28,12.25,56.71,39.2,67.72,23.76,9.7,53.83.52,63.71-24.47,1.27-3.22,5.82-2.62,6.5-.09,3.75,6.89,12.66,9.7,19.89,6.73,8.46-3.47,12.25-13.09,11.65-21.68-.18-2.58,3-4.21,5.11-2.93,10,6.12,20.75,12.24,32.79,8.58,9.83-3,17.82-11.18,21.87-20.47,5.21-12,3.09-23.86-5.44-33.61-7.08-8.09-18.19-14.84-29.07-10.63-2.55,1-5.17-2.51-3.61-4.7,8.71-12.25,9.32-29.33.79-41.88-5.24-7.72-12.87-11.46-22.17-9.69a75.25,75.25,0,0,0-23.72,9.46c-2.53,1.49-5.26-1-4.71-3.62,2.69-13,4.05-27-6-37.27-9-9.25-22.4-13.94-35-14.84C254,380.85,252.06,378.52,253.46,376.55Zm-89.33,19.56c.31-.31.71.14.46.46-5.67,7.18-10.05,17.4-4.35,25.92,4.81,7.19,21.94,11.4,25.85,1.33.25-.62,1.32-.6,1.27.17-.88,11.85-19.81,7.73-25.68,2.76C151.75,418.35,156.16,404,164.13,396.11Zm54.72,79.72c-1.85,8.85-5.89,17.65-14.51,21.65-8,3.72-17.49,2.9-25.84.81s-16.36-5.77-20.74-13.45a.24.24,0,0,1,.42-.24c4.39,7.56,13.15,10.67,21.3,12.38s17.32,2.26,24.91-1.69c8.46-4.39,11.6-14.1,13-22.9,1.68-10.33.08-20-2-30.09a.7.7,0,0,1,1.35-.37C221.14,452.29,221.12,465,218.85,475.83Zm-4.22-76.2c-5.2,2.49-10.91.86-14.85-3-.3-.29.15-.73.46-.46a12.44,12.44,0,0,0,14.49,1.48c4.31-2.65,5-7,5.76-11.57.1-.57.87-.45,1,0C223.35,391.24,219.26,397.41,214.63,399.63Zm107.79,61.82c6.41-1.07,10.47,5.22,11.44,10.82,1.05,6.13-.91,13.61-6.08,17.42-.58.43-1.42-.42-1-1,2.93-4.09,5.34-8,5.35-13.26,0-5.76-2.92-13.05-9.61-13.23C322.11,462.18,322,461.52,322.42,461.45Zm-59.13,90.66c-5.86.7-9-4.57-10.86-9.25-.15-.37.44-.59.62-.26,2.56,4.44,6.34,9.37,12.07,6.95,4.67-2,6-7.18,8.05-11.29.29-.59,1.05-.14,1,.4C273.27,544.43,269.78,551.33,263.29,552.11Zm4.37-39.55c10.22-2.94,18.55-7.49,21.7-18.25a64.09,64.09,0,0,0,1-29.75c-2-9.57-7.67-17.3-16.68-21.31-.74-.33-.18-1.4.53-1.24,10.69,2.37,16.85,13.22,18.7,23.28,1.93,10.53,1.57,23.7-2.79,33.65-4.58,10.44-16.08,15-26.77,16.66-9.49,1.44-20.75-1.64-23.84-11.77-.09-.31.4-.53.54-.22C244.89,514.5,257.56,515.47,267.66,512.56Z"/><path class="cls-2" d="M355.58,304.65c-1-.79-3.42-2.91-4.74-2.59-.92.22-1,1.55-1.39,2.38a9.36,9.36,0,0,1-2.84,3.67c-2.35,6.77-5.69,13.44-8.34,19.87l-10.47,25.4c-2.81,6.83-7.92,15.34-2.84,22.28,4.09,5.57,11.44,8.91,17.59,11.61,5.69,2.5,16.53,8.21,20.69,1,3.42-5.92,4.42-14.22,5.57-20.85,2.65-15.33,2.67-31.42-2.58-46.21C364,315,360.74,308.84,355.58,304.65Z"/><path class="cls-1" d="M462.52,187.56c-2.87-.16-4.18-4-1.51-5.56,3.05-1.76,6.31-2.52,9.63-3.6,2.47-.81,7-2.35,6.87-5.66-.2-6.09-16.88-1-19.94.16-2.26.85-4.75-2.28-3.26-4.24,2.26-3,16.15-24.46,6.18-24.32-4.18,0-8.56,4.94-11.32,7.64-3.27,3.21-5.89,6.65-6.77,11.22-.56,2.94-4.46,2.3-5.33,0-1-2.62-2.24-6.33-4.9-7.8a4.59,4.59,0,0,0-3.45-.59c-1.8.68-2,2.67-2.08,4.4-.43,5.89,2.86,11.44,7.08,15.24a3,3,0,0,1,0,4.23c-9.77,8.78-20.78,16.66-33.06,21.51q-2.91,12.69-6.25,25.28a68.82,68.82,0,0,0,27.45-10A72.12,72.12,0,0,0,434.8,205c2.76-2.82,5.39-8,9.46-9.06,4.59-1.16,8.67,3.32,12.49,5.09a31.39,31.39,0,0,0,16.57,3c5.63-.72,9.61-5,6-10.45S468.28,187.87,462.52,187.56Z"/><path class="cls-6" d="M481.07,186.68a19,19,0,0,0-6.39-3.33A17,17,0,0,0,479,181c3.35-2.57,5.32-6.73,4.13-10.95-2.09-7.41-11.76-6.89-19.53-5.06,5.38-9.1,11-22.87-.32-26-5.84-1.62-11.41,2.94-15.43,6.55a40.29,40.29,0,0,0-8.41,9.77,12.68,12.68,0,0,0-5.38-5.15c-3.31-1.58-7.77-1.42-10.48,1.27-3.34,3.31-2.87,9.19-2,13.39a25.58,25.58,0,0,0,5.71,11.57c-7.84,6.8-16.39,12.36-25.26,17.68.33-1.48.66-3,1-4.44,5.57-26,9.77-52.75,11.2-79.51a3.7,3.7,0,0,0,.21-4.66c.32-7.66.41-15.33.23-23a3.27,3.27,0,0,0-.06-2.2q-.23-7.35-.79-14.67a146.38,146.38,0,0,0-4.94-29.25c-2.27-7.81-5.19-17.51-12.23-22.4-7.58-5.27-17.09-2.8-24.93.48-8.66,3.61-17.21,7.67-25.52,12a135.17,135.17,0,0,0-30.4,21.6c-1-.57-2.57-.1-2.44,1.29,0,.32.08.63.12.94A145.26,145.26,0,0,0,301.9,63.21c-12.67,15.9-24.52,32.55-36.16,49.22q-10.15,14.55-20,29.39c-5.33-7-6.28-16.07-6.07-24.72.11-4.66.12-9.85,1.13-14.42,1.07-4.89,6.1-7.65,9.35-11.06,4.13-4.34,11.25-14.49,6.27-20.54-2.62-3.19-6.58-1.67-9.64-.11a49.34,49.34,0,0,0-6.9,4.3,120.32,120.32,0,0,0,1.61-13.92c.27-4.82,1.24-11.31-3.57-14.25a2.62,2.62,0,0,0-2.65,0c-6.69,4.42-10.37,11-12.63,18.33-.59-3.34-1.27-6.66-2.08-10-1-4.16-2.62-14.46-9.42-11-5.28,2.71-6.91,11.56-7.4,16.8a56.19,56.19,0,0,0,.94,15.19,17.45,17.45,0,0,0-5.81-1.8c-4.5-.59-8.17,1.76-7.87,6.64.59,9.28,9.11,17.2,17.27,21a78,78,0,0,0,22.41,62.83q-20.46,32.45-39,66c-25.13,3.82-48.81,21.68-57,46-3.26,9.59,2.56,16.61,9.67,22.43a66.89,66.89,0,0,0,24.81,12.8,2.68,2.68,0,0,0,2.7-.65,2.65,2.65,0,0,0,.79-.69c6-7.59,10.91-16.24,15.85-24.55.68-1.14,1.35-2.3,2-3.45q10.29,7.85,21.09,15.07a18.82,18.82,0,0,0-3.79,24.32c-19.18-3.94-38.19,9.57-41.83,29-7.34-3.63-15.9-3.16-24-1.38a68.61,68.61,0,0,0-28.49,13.46C97.37,376.6,89.1,399.9,98.66,419.32a38.06,38.06,0,0,0,17.66,17.52c-6.15,4.83-9.9,12.73-11.95,20.12a55.53,55.53,0,0,0,.49,30.75C111,507.82,128.21,521.52,149,524a53.76,53.76,0,0,0,29-4.49c.32,22.66,9.27,45.34,27.48,59.54s43.23,18.31,64.05,7.23a52.06,52.06,0,0,0,21.39-21.27,23.16,23.16,0,0,0,24.39,5.73c9.43-3.47,15.27-12.64,16.52-22.31,8.17,4.73,17,8.69,26.64,7.67s18.71-6.36,25.08-13.71c6.74-7.78,11.18-18,11.11-28.39-.07-11.13-6.28-21.29-14.46-28.49-6.63-5.84-15.33-10.22-24.14-9.75,6.6-13.95,5.37-31.46-4.07-43.91-5.79-7.63-14-12.43-23.82-11.5-8.16.77-16.28,3.74-23.7,7.53,1.87-12.7,1.24-25.51-8.1-35.62-8.95-9.7-22.21-15-35.24-16.71,2.93-5,4.94-10.65,4.2-16.55a17.78,17.78,0,0,0-.77-3.43c2.68,1.1,5.39,2.13,8.12,3,11.6,3.58,18.62-6,21.39-15.87q13.55,5.85,27.3,11l.36.11c-.54,1.3-1.09,2.6-1.62,3.9-3.18,7.75-4.51,15.34,1.17,22.26,5.11,6.21,13.15,10,20.4,13.08,6.76,2.85,16.51,7.44,23.23,2.2,6.11-4.77,7.36-15,8.83-22,3.76-18.06,4.44-37.45-2.19-55a61.69,61.69,0,0,0-3-6.66c8.58-26.56,17-53.2,24.3-80.15A76.65,76.65,0,0,0,427,219.3a71.43,71.43,0,0,0,14.62-12.81c.95-1.11,1.88-2.88,3-3.75,1.68-1.27,2.25-.59,3.95.49a45.19,45.19,0,0,0,8.22,4.28c8.86,3.4,26.86,5.45,29.67-7.14C487.65,195.25,485,189.88,481.07,186.68ZM355.73,28.83c8.1-3.94,16.61-8.69,25.4-10.83,4.77-1.17,9.73-1,13.42,2.62,3.2,3.16,4.85,7.85,6.32,12a122,122,0,0,1,6,28c.6,5.8,1,11.64,1.24,17.48-15,1.27-29.74-4.37-42.6-11.91a50,50,0,0,1-16-14.42,56.13,56.13,0,0,1-4.94-8.65c-1-2.2-1.77-4.6-2.83-6.82C346.3,33.6,351,31.15,355.73,28.83ZM332,42.5q2.68-1.89,5.46-3.64c.71,5.67,4,11.55,6.89,15.88A56.71,56.71,0,0,0,361.67,71.3C375.07,79.66,392.09,87,408.29,85c.11,6.55,0,13.12-.26,19.68-18.22.59-35.84-3.31-51.85-12.46a93.47,93.47,0,0,1-22.44-17.83c-6-6.47-10-13.81-14.48-21.15A101.93,101.93,0,0,1,332,42.5ZM213.84,101.36a2.84,2.84,0,0,0-1.9-3.34,25.8,25.8,0,0,1-14.82-14.41c-.84-2.12-1.07-3.64,1.6-3.73,3-.09,6.36,2.94,8,5.15,1.77,2.37,5.79,1.09,5-2.1-2.48-9.84-5.16-21.91,0-31.38l.64-1.14q1.17-2.56,1.52-.2c.65.7.79,2.78,1,3.67q1.1,4,1.93,8.16A152.67,152.67,0,0,1,219.5,81c.21,2.67,4.61,3.75,5.06.68,1.49-10.08,3.35-22,11.68-28.77.58,1.65.2,4.2.15,5.43q-.12,3.8-.5,7.56a115.66,115.66,0,0,1-2.71,15.71,2.71,2.71,0,0,0,4.49,2.62,50,50,0,0,1,11.92-8.53c5.84-3-.18,8.24-1.71,10-5.29,6.2-12.09,9.41-13.23,18.18-1.89,14.51-2.34,31.38,7.76,43.08q-4.59,7-9.1,14.13A72.75,72.75,0,0,1,213.84,101.36ZM182.45,284.69c-4.42,7.2-9.38,14.16-13.57,21.49A60.6,60.6,0,0,1,151,297.5c-6.27-4.48-13.58-10.36-10.75-18.83,3.89-11.6,12.51-21.94,22.25-29.14A71,71,0,0,1,196,236.08a62.05,62.05,0,0,1,9-.4c.52,0,4.58-.09,4.78.34,0,0-2.37,3.62-2.63,4.11-3.7,7.09-7.25,14.24-11.11,21.25Q189.51,273.19,182.45,284.69Zm108.6,111.14c10,10.31,8.66,24.28,6,37.27-.55,2.66,2.18,5.11,4.71,3.62a75.25,75.25,0,0,1,23.72-9.46c9.3-1.77,16.93,2,22.17,9.69,8.53,12.55,7.92,29.63-.79,41.88-1.56,2.19,1.06,5.68,3.61,4.7,10.88-4.21,22,2.54,29.07,10.63,8.53,9.75,10.65,21.64,5.44,33.61-4.05,9.29-12,17.49-21.87,20.47-12,3.66-22.79-2.46-32.79-8.58-2.09-1.28-5.29.35-5.11,2.93.6,8.59-3.19,18.21-11.65,21.68-7.23,3-16.14.16-19.89-6.73-.68-2.53-5.23-3.13-6.5.09-9.88,25-39.95,34.17-63.71,24.47-27-11-40.28-39.77-39.2-67.72a3.13,3.13,0,0,0-4.67-2.68c-19.47,11.72-46.86,7.71-61.1-10.43a48.89,48.89,0,0,1-10-31.76c.39-10.49,4.62-26,15.41-30.38,2.47-1,3.1-4.93,0-5.67-10.41-2.48-18.64-10.95-21.94-21-3.62-11-1.18-23.07,4.81-32.78,6.16-10,16.14-17.16,27.05-21.23,10-3.74,23.7-7.2,33-.05,1.8,1.38,4.09-.54,4.18-2.4a31.32,31.32,0,0,1,13.2-24.12c8.56-5.89,19.22-6.53,28.92-3.4,7,6.44,16.34,11.14,24.41,15.19,5.58,2.8,11.29,5.32,17.05,7.73l2.42,1c5.49,7.16,1.43,17.19-3.52,24.14-1.4,2,.52,4.3,2.55,4.44C268.65,381.89,282.07,386.58,291.05,395.83Zm-8.64-44.62c-4.7,3.71-10,.65-14.87-1.23-9.34-3.65-18.65-7.39-27.62-11.87-8.38-4.17-17.4-8.89-24.24-15.39-3.3-3.13-6-7.17-5.05-11.92.75-3.74,3.21-6.75,4.92-10.09a510.22,510.22,0,0,0,72.87,39.54C287.14,344.29,285.82,348.52,282.41,351.21Zm86.4,16.21c-1.15,6.63-2.15,14.93-5.57,20.85-4.16,7.21-15,1.5-20.69-1-6.15-2.7-13.5-6-17.59-11.61-5.08-6.94,0-15.45,2.84-22.28L338.27,328c2.65-6.43,6-13.1,8.34-19.87a9.36,9.36,0,0,0,2.84-3.67c.39-.83.47-2.16,1.39-2.38,1.32-.32,3.77,1.8,4.74,2.59,5.16,4.19,8.46,10.39,10.65,16.56C371.48,336,371.46,352.09,368.81,367.42Zm-4.41-62.2a30.07,30.07,0,0,0-8-7.3c-2.8-1.71-6.27-3.24-9.25-1.06a7.08,7.08,0,0,0-2.26,3c-2.68,4.25-4.39,9.12-6.35,13.73-2,4.79-4.07,9.58-6.07,14.38q-4.14,9.94-8.3,19.88a3.56,3.56,0,0,0-1-.6,580.87,580.87,0,0,1-68.93-30.86c-21.24-11.21-41.37-24.11-61.25-37.53q4.91-8.53,9.55-17.21,3.18-5.94,6.25-12c2-4,4.68-8.18,5.81-12.5,2-7.69-9.48-6.89-14.07-6.81-1.19,0-2.39.09-3.59.18,19.58-33,40.09-65.4,61.84-97.06Q275.56,109,293.24,85.1c7-9.46,14-19.11,22.05-27.74,2.83,7.4,8.15,14.25,13.07,19.94a100.36,100.36,0,0,0,23.58,19.84c16.37,10,36.39,15.82,55.72,14.59a506.67,506.67,0,0,1-9.13,67.2C390.06,221.75,377.18,263.53,364.4,305.22ZM473.32,204a31.39,31.39,0,0,1-16.57-3c-3.82-1.77-7.9-6.25-12.49-5.09-4.07,1-6.7,6.24-9.46,9.06a72.12,72.12,0,0,1-12.94,10.49,68.82,68.82,0,0,1-27.45,10q3.33-12.6,6.25-25.28c12.28-4.85,23.29-12.73,33.06-21.51a3,3,0,0,0,0-4.23c-4.22-3.8-7.51-9.35-7.08-15.24.12-1.73.28-3.72,2.08-4.4a4.59,4.59,0,0,1,3.45.59c2.66,1.47,3.91,5.18,4.9,7.8.87,2.3,4.77,2.94,5.33,0,.88-4.57,3.5-8,6.77-11.22,2.76-2.7,7.14-7.59,11.32-7.64,10-.14-3.92,21.36-6.18,24.32-1.49,2,1,5.09,3.26,4.24,3.06-1.16,19.74-6.25,19.94-.16.11,3.31-4.4,4.85-6.87,5.66-3.32,1.08-6.58,1.84-9.63,3.6-2.67,1.54-1.36,5.4,1.51,5.56,5.76.31,13.29.56,16.83,5.95S479,203.24,473.32,204Z"/><path class="cls-6" d="M330.16,127.77c-8.42-8.07-22.23-8.36-29.14,1.71a32.33,32.33,0,0,0-5.44,17.57,20,20,0,0,0,6.71,16,.66.66,0,0,0,.31.16,21,21,0,0,0,2.15,2.17c9.35,8,22.43,4.44,29.49-4.74C342.06,150.53,339.09,136.33,330.16,127.77ZM328.29,158c-3.62,4-9.28,6.75-14.72,5.4-12.48-3.09-13.38-18.64-10.23-28.86a21.23,21.23,0,0,1,2.19-3.12c4.07-4.79,10.88-5.43,16.31-2.62,4.82,2.5,8,7.43,9.73,12.46C333.64,147.46,332.76,153.16,328.29,158Z"/><path class="cls-6" d="M361.24,133.18c-4.14-19.29-20.61-34.05-40.84-33.61a39.2,39.2,0,0,0-28.84,14.24,1.56,1.56,0,0,0-1.54.58c-12.88,14.37-12.16,37.93-3.59,54.17,4.67,8.85,12.32,17.11,22.07,20.19,10.2,3.23,22.45.84,32.14-3.14,8.72-3.59,16.55-9.58,20.24-18.5C365.21,156.66,363.55,143.94,361.24,133.18Zm-5,23.28c-.83,9.28-6.06,16.23-14.11,20.62a50.62,50.62,0,0,1-24.9,6c-9.65-.32-17.2-6.2-22.42-14a48.42,48.42,0,0,1-7.9-25.76A53,53,0,0,1,289.41,126c5-10.15,14.33-18.23,25.69-20,15.34-2.33,31.94,7.15,37.34,21.75A69,69,0,0,1,356.22,156.46Z"/><path class="cls-6" d="M231.22,184.62c-3.86,4.87-6.93,10.45-10.23,15.71-3.55,5.65-7.43,11.23-10.53,17.15a.61.61,0,0,0,1,.62c3.86-5.15,7.1-10.83,10.54-16.26s7.3-10.75,10.1-16.5C232.43,184.78,231.67,184.06,231.22,184.62Z"/><path class="cls-6" d="M245.91,162.68c-1.3,1.61-2.4,3.4-3.63,5.06-1.34,1.82-2.89,3.49-4.18,5.33-.31.45.33.84.69.54a30.25,30.25,0,0,0,7.89-10.33C246.89,162.81,246.29,162.2,245.91,162.68Z"/><path class="cls-6" d="M375.31,240.18c-2.61,7.87-4.2,16.11-6.54,24.07S363,280,361.41,288.06a.27.27,0,0,0,.48.21c4.2-7,6.4-15.72,8.74-23.5,2.39-7.94,5-16.17,5.87-24.43C376.58,239.63,375.51,239.56,375.31,240.18Z"/><path class="cls-6" d="M380,210.5a42.44,42.44,0,0,1-2.1,12.6c-.16.5.55.75.82.34A17,17,0,0,0,381,210.37.5.5,0,0,0,380,210.5Z"/><path class="cls-6" d="M215.42,442.3c2.08,10.11,3.68,19.76,2,30.09-1.43,8.8-4.57,18.51-13,22.9-7.59,3.95-16.78,3.4-24.91,1.69s-16.91-4.82-21.3-12.38a.24.24,0,0,0-.42.24c4.38,7.68,12.47,11.38,20.74,13.45s17.82,2.91,25.84-.81c8.62-4,12.66-12.8,14.51-21.65,2.27-10.86,2.29-23.54-2.08-33.9A.7.7,0,0,0,215.42,442.3Z"/><path class="cls-6" d="M161.68,426.75c5.87,5,24.8,9.09,25.68-2.76,0-.77-1-.79-1.27-.17-3.91,10.07-21,5.86-25.85-1.33-5.7-8.52-1.32-18.74,4.35-25.92.25-.32-.15-.77-.46-.46C156.16,404,151.75,418.35,161.68,426.75Z"/><path class="cls-6" d="M220.49,386.05c-.76,4.54-1.45,8.92-5.76,11.57a12.44,12.44,0,0,1-14.49-1.48c-.31-.27-.76.17-.46.46,3.94,3.89,9.65,5.52,14.85,3,4.63-2.22,8.72-8.39,6.88-13.58C221.36,385.6,220.59,385.48,220.49,386.05Z"/><path class="cls-6" d="M240.09,503.61c-.14-.31-.63-.09-.54.22C242.64,514,253.9,517,263.39,515.6c10.69-1.62,22.19-6.22,26.77-16.66,4.36-9.95,4.72-23.12,2.79-33.65-1.85-10.06-8-20.91-18.7-23.28-.71-.16-1.27.91-.53,1.24,9,4,14.65,11.74,16.68,21.31a64.09,64.09,0,0,1-1,29.75c-3.15,10.76-11.48,15.31-21.7,18.25S244.89,514.5,240.09,503.61Z"/><path class="cls-6" d="M322.52,462.2c6.69.18,9.63,7.47,9.61,13.23,0,5.23-2.42,9.17-5.35,13.26-.42.58.42,1.43,1,1,5.17-3.81,7.13-11.29,6.08-17.42-1-5.6-5-11.89-11.44-10.82C322,461.52,322.11,462.18,322.52,462.2Z"/><path class="cls-6" d="M273.17,538.26c-2.07,4.11-3.38,9.32-8.05,11.29-5.73,2.42-9.51-2.51-12.07-6.95-.18-.33-.77-.11-.62.26,1.88,4.68,5,9.95,10.86,9.25,6.49-.78,10-7.68,10.85-13.45C274.22,538.12,273.46,537.67,273.17,538.26Z"/></svg>