<svg id="Layer_1" data-name="Layer 1" xmlns="http://www.w3.org/2000/svg" viewBox="0 0 600 600"><defs><style>.cls-1{fill:#a97c50;}.cls-2{fill:#f2b879;}.cls-3{fill:#fff;}.cls-4{fill:#231f20;}</style></defs><title>doodle</title><path class="cls-1" d="M107.08,443.84c-6.83-2.36-14.58-3.31-21.6-4.95C75.3,436.5,64.25,434.58,54.13,431l-1.42-.28c-1.6-.35-6.44-2.64-8.13-1.92-5,2.11-6.86,14.1-8.27,19.13-4,14.35-6.59,29.18-9.62,43.76-1.22,5.85-4.64,15.14-2.76,21.12,2.31,7.32,14.08,9.13,20.48,11.41,12.35,4.41,29.25,13.75,42.64,11,8.53-1.76,8.91-8.91,10.88-16,1.73-6.26,3.92-12.37,6.13-18.47,4.79-13.24,10.4-26.89,10.94-41.14C115.28,452.18,114.71,446.49,107.08,443.84ZM89.42,483.35c-7.11,8.93-14.34,17.83-21.75,26.51a4.67,4.67,0,0,1-4.9,1.74,3.57,3.57,0,0,1-4-1.58C52.3,498,49.24,484.3,47,470.91c-1.12-6.55-3.66-18.2,5.54-20.5,9-2.26,13.46,8.42,14.53,15.35.58,3.7,1,7.51,1.44,11.34A51.1,51.1,0,0,1,88.8,459.2c2.75-1.35,7.45-.49,8,3.24C98,470.93,94.63,476.82,89.42,483.35Z"/><path class="cls-2" d="M280,220.3c-.3-9.28-.76-18.55-1.29-27.81-.9,9.17-2,18.32-3.39,27.43-4.81,30.49-12.41,60.49-20.71,90.19-13.83,49.53-42.29,118.64-.76,162.9a54.15,54.15,0,0,0,8.4,7.54c.52.35,3.68,2.45,3.91,2.31.5-.29.6-4.72.68-5.4.87-7.34,1.67-14.69,2.53-22q2.79-23.74,4.86-47.55,4-46.77,5.33-93.72C280.43,282.91,281,251.55,280,220.3Z"/><path class="cls-2" d="M381.72,93.89c-3.85.6-2.72,1-3.79,4.19a21.08,21.08,0,0,0-.71,5l15.38-2.32c5.11-.77,10.21-1.57,15.32-2.35,0-1.66.13-3.31.15-5-3.16-.68-9.5.13-11.71.11C391.64,93.58,386.41,93.15,381.72,93.89Z"/><path class="cls-3" d="M333.12,298.61a24.91,24.91,0,0,0-.18,4.35c0,.68.12,1.37.13,2.05,0,2.33.24.61.11.58a3.76,3.76,0,0,0,2.69-.52c1.87-1.09,2.86-3.56,1.3-5.39C336.33,298.7,334.68,298.49,333.12,298.61Z"/><path class="cls-3" d="M515.66,282.38a4.68,4.68,0,0,0,3.76-.35c2.31-1.14,3.91-4.48,1.66-6.56-1.32-1.22-3.72-.92-6-.65a20.68,20.68,0,0,0-.41,3.12C514.6,279.71,514,281.53,515.66,282.38Z"/><path class="cls-2" d="M341.46,121.2l-27.3,4c-7.31,1-17,.16-23.72,2.84a10.43,10.43,0,0,0-5.78,6.08c4.33,35.33,5,71.18,6.24,106.7,1.35,39.83.77,79.64-1.31,119.43-1.81,34.62-4.5,69.29-8.76,103.71-.72,5.83-.45,15.87-3.41,22.77,7.77-.34,15.6-.13,23.36-.25q20.25-.31,40.5-.17c25.74.15,51.48.6,77.22.31,23.44-.26,46.89-1.14,70.23-3.33,22.57-2.12,47.14-4.23,68.8-11.34,6.73-2.2,9.13-5.68,10.18-12.74.76-5.13,1-10.39,1.36-15.56.66-9.86,1-19.72,1.19-29.59a585.88,585.88,0,0,0-2.17-63.82c-7.63-88.32-36.42-171-73.41-250.93-33.44,4.8-66.9,9.46-100.34,14.29ZM323.13,358.52a6,6,0,0,1-1.27,2.17,4.67,4.67,0,0,1-2.83,1.36,5.53,5.53,0,0,1-3.15-.58l-.24-.11c-1.64-.73-2.39-2.7-2.49-4.34v-.2A4.87,4.87,0,0,1,318,352l.19,0c1.64.1,3.62.85,4.34,2.49l.11.24A5.29,5.29,0,0,1,323.13,358.52ZM339,318.68c-5.11,1.5-11.2.78-15.1-3.11s-4.22-9.7-3.61-14.89c.56-4.73,2.46-10.78,7.14-13.08a8.06,8.06,0,0,1,1.91-.63c6.95-4.06,16.51-1.32,20.62,6.72C355,303.48,349.54,315.6,339,318.68ZM543.16,333.1a7.19,7.19,0,0,1-2.07,5,7.27,7.27,0,0,1-5,2.06,7,7,0,0,1-5-12,7.28,7.28,0,0,1,5-2.07A7.17,7.17,0,0,1,543.16,333.1Zm-28.95-70.28a12.93,12.93,0,0,1,4.57-1.12,15.81,15.81,0,0,1,13.35,6.2c6.6,8.67,3.07,21.26-6.46,26.05-10.39,5.22-24.07-.23-23.89-12.93C501.86,274.61,506.33,261.88,514.21,262.82ZM417,313.22c1.53-2.66,5.2-1.27,5.43,1.48.63,7.41,2.43,28.93,14.5,26s8.57-22.09,8.44-30.71c0-2.31,3.08-3.73,4.68-1.94,11.41,12.67,6.05,41.75-12.86,44.51C417.29,355.45,408.81,327.47,417,313.22Z"/><path class="cls-4" d="M329.35,287a8.06,8.06,0,0,0-1.91.63c-4.68,2.3-6.58,8.35-7.14,13.08-.61,5.19-.34,11,3.61,14.89s10,4.61,15.1,3.11c10.53-3.08,16-15.2,11-25C345.86,285.65,336.3,282.91,329.35,287Zm6.52,18.1a3.76,3.76,0,0,1-2.69.52c.13,0-.07,1.75-.11-.58,0-.68-.11-1.37-.13-2.05a24.91,24.91,0,0,1,.18-4.35c1.56-.12,3.21.09,4.05,1.07C338.73,301.51,337.74,304,335.87,305.07Z"/><path class="cls-4" d="M525.67,294c9.53-4.79,13.06-17.38,6.46-26.05a15.81,15.81,0,0,0-13.35-6.2,12.93,12.93,0,0,0-4.57,1.12c-7.88-.94-12.35,11.79-12.43,18.2C501.6,293.72,515.28,299.17,525.67,294Zm-11-16a20.68,20.68,0,0,1,.41-3.12c2.24-.27,4.64-.57,6,.65,2.25,2.08.65,5.42-1.66,6.56a4.68,4.68,0,0,1-3.76.35C514,281.53,514.6,279.71,514.71,277.94Z"/><path class="cls-4" d="M437.21,352.55c18.91-2.76,24.27-31.84,12.86-44.51-1.6-1.79-4.72-.37-4.68,1.94.13,8.62,3.61,27.77-8.44,30.71s-13.87-18.58-14.5-26c-.23-2.75-3.9-4.14-5.43-1.48C408.81,327.47,417.29,355.45,437.21,352.55Z"/><path class="cls-4" d="M322.52,354.48c-.72-1.64-2.7-2.39-4.34-2.49l-.19,0a4.87,4.87,0,0,0-4.85,4.85v.2c.1,1.64.85,3.61,2.49,4.34l.24.11a5.53,5.53,0,0,0,3.15.58,4.67,4.67,0,0,0,2.83-1.36,6,6,0,0,0,1.27-2.17,5.29,5.29,0,0,0-.5-3.8Z"/><path class="cls-4" d="M529.05,333.1a7.18,7.18,0,0,0,7.06,7,7.27,7.27,0,0,0,5-2.06,7,7,0,0,0-5-12,7.28,7.28,0,0,0-5,2.07A7.19,7.19,0,0,0,529.05,333.1Z"/><path class="cls-4" d="M101.74,429.46c-5.75-1.3-11.73-2.88-17.82-4.39,21.12-18.61,30.53-50.77,36.58-76.85,9-38.89,13.91-78.83,20.69-118.15,6.64-38.45,15.08-77.53,36-111.07,20.14-32.35,51.59-53.78,89.38-59.37,21.61-3.19,43.37-1.52,65,.83,19.16,2.09,51.33,1.2,61.25,21.37l-1.27,0c-6.74.13-19.5-1.78-23.3,5.54-2,3.85-1.51,9.83-1.79,14-.08,1.24-.16,2.34-.19,3.36l-26.39,4c-14,2.12-28.61,3.48-42.63,6.42-2.35-1.23-5.26-.8-7.94-.31-3.34.61-7.1,1-10,2.91a9.83,9.83,0,0,0-3.79,4.9,3.57,3.57,0,0,0-.57,1.84c-.11.47-.21.94-.29,1.42-.48,3-1.07,6.32-.54,9.4-.89,4.12-1.42,8.46-2.19,12.53-3.13,16.63-4.44,33.56-6.26,50.36-3.79,34.84-11.12,68.64-20.37,102.4-14.86,54.26-43.57,123-4.83,174.05,4.49,5.92,11.42,14.29,19.3,17.78a3.81,3.81,0,0,0,2.89,3.62c11.42,2.47,23.16,2.21,34.82,2.71q20.25.85,40.49,1.33c24.62.6,49.26,1,73.89.89,48.72-.26,99.87-1.68,147.22-14.39,8.22-2.21,16-5.88,20.1-13.81,4.36-8.5,4-19.9,4.88-29.23A505.54,505.54,0,0,0,585.6,372c-2.07-45.4-9.75-90.64-21.55-134.5C550.47,187,531.69,136.89,506.77,90.83a7.67,7.67,0,0,0-8.63-6.19q-39,5.91-78.07,12c.77-3.85.26-8-1.95-10.82-3-3.85-9.09-4.59-15.05-4.51-6.25-16.93-22.9-24.13-39.89-26.73a423.91,423.91,0,0,0-58.9-4.83C266.12,49.26,228.67,56,199,81.63c-28.67,24.77-45.91,60.16-56,96.07-12.12,43.05-17.61,88.2-24.6,132.29-3.3,20.86-6.38,42-12.52,62.21-6,19.76-15.67,35.52-28,51.42a160.91,160.91,0,0,0-18.42-3.33c-7.48-4.27-17.88-6.21-24-.65-9.84,8.93-12.36,28.18-15,40.43-3.23,15-7.7,30.36-9.32,45.63-1.48,13.94,5.19,22,17.82,26.74,15,5.62,31.15,13.06,47,15.47,11.66,1.77,24.9-.67,30.65-12.14,2.89-5.79,3.66-12.79,5.61-18.92,2.42-7.63,5.34-15.07,8-22.62,4.68-13.31,8.91-28,7.27-42.22C125.68,436.66,115.36,432.55,101.74,429.46Zm167.64,26c-.86,7.34-1.66,14.69-2.53,22-.08.68-.18,5.11-.68,5.4-.23.14-3.39-2-3.91-2.31a54.15,54.15,0,0,1-8.4-7.54c-41.53-44.26-13.07-113.37.76-162.9,8.3-29.7,15.9-59.7,20.71-90.19,1.44-9.11,2.49-18.26,3.39-27.43.53,9.26,1,18.53,1.29,27.81,1,31.25.42,62.61-.44,93.86s-2.63,62.54-5.33,93.72Q272.17,431.69,269.38,455.43ZM494.68,99.26c37,79.9,65.78,162.61,73.41,250.93A585.88,585.88,0,0,1,570.26,414c-.22,9.87-.53,19.73-1.19,29.59-.35,5.17-.6,10.43-1.36,15.56-1.05,7.06-3.45,10.54-10.18,12.74-21.66,7.11-46.23,9.22-68.8,11.34-23.34,2.19-46.79,3.07-70.23,3.33-25.74.29-51.48-.16-77.22-.31q-20.25-.12-40.5.17c-7.76.12-15.59-.09-23.36.25,3-6.9,2.69-16.94,3.41-22.77,4.26-34.42,6.95-69.09,8.76-103.71,2.08-39.79,2.66-79.6,1.31-119.43-1.2-35.52-1.91-71.37-6.24-106.7a10.43,10.43,0,0,1,5.78-6.08c6.75-2.68,16.41-1.79,23.72-2.84l27.3-4,52.88-7.65C427.78,108.72,461.24,104.06,494.68,99.26ZM396.36,93.6c2.21,0,8.55-.79,11.71-.11,0,1.66-.14,3.31-.15,5-5.11.78-10.21,1.58-15.32,2.35l-15.38,2.32a21.08,21.08,0,0,1,.71-5c1.07-3.21-.06-3.59,3.79-4.19C386.41,93.15,391.64,93.58,396.36,93.6ZM115,459.5c-.54,14.25-6.15,27.9-10.94,41.14-2.21,6.1-4.4,12.21-6.13,18.47-2,7.14-2.35,14.29-10.88,16-13.39,2.76-30.29-6.58-42.64-11-6.4-2.28-18.17-4.09-20.48-11.41-1.88-6,1.54-15.27,2.76-21.12,3-14.58,5.59-29.41,9.62-43.76,1.41-5,3.31-17,8.27-19.13,1.69-.72,6.53,1.57,8.13,1.92l1.42.28c10.12,3.63,21.17,5.55,31.35,7.94,7,1.64,14.77,2.59,21.6,4.95C114.71,446.49,115.28,452.18,115,459.5Z"/><path class="cls-4" d="M88.8,459.2a51.1,51.1,0,0,0-20.34,17.9c-.39-3.83-.86-7.64-1.44-11.34-1.07-6.93-5.48-17.61-14.53-15.35-9.2,2.3-6.66,13.95-5.54,20.5,2.29,13.39,5.35,27,11.8,39.11a3.57,3.57,0,0,0,4,1.58,4.67,4.67,0,0,0,4.9-1.74c7.41-8.68,14.64-17.58,21.75-26.51,5.21-6.53,8.53-12.42,7.35-20.91C96.25,458.71,91.55,457.85,88.8,459.2Z"/></svg>