<svg id="Layer_1" data-name="Layer 1" xmlns="http://www.w3.org/2000/svg" viewBox="0 0 600 600"><defs><style>.cls-1{fill:#e27683;}.cls-2{fill:#f2b879;}.cls-3{fill:#f7941e;}.cls-4{fill:#231f20;}</style></defs><title>doodle</title><path class="cls-1" d="M110.26,101.77c-6.87.39-6.08,27.25-5.63,30.32a63.42,63.42,0,0,0,1.3,7.27,11,11,0,0,1,1.66-1.46c1.89-2,4.9-3.22,7.45-4.09,3-1,8.8-.39,9.35-4.49.38-2.74-1.93-8-2.8-10.6C119.12,111.3,115,107.47,110.26,101.77Z"/><path class="cls-1" d="M431.47,172.22c2.27,2.73,6.35,1,9.1-.4,9.39-4.86,4-17.39,1.14-25.12-.85-2.27-9.88-25.06-14-13.54a4.3,4.3,0,0,1-2.83,2.54c-.27,8,1.68,15.32,3.54,23.37C429.17,162.18,429.5,169.87,431.47,172.22Z"/><path class="cls-1" d="M295.67,44.18a3.42,3.42,0,0,1-1.06-1c-5.75,1-5.85,11.85-5.63,16.95a48.24,48.24,0,0,0,5.25,19.54c3.84.31,8.48.38,11.35-1.44,5.22-3.31,3.6-9.45,2.62-14.45C306.47,55,303.43,48.85,295.67,44.18Z"/><path class="cls-2" d="M438.19,433.21c-.45-.7-.89-1.41-1.34-2.13-18.92,27.16-47,46.21-77.23,59.28-18.38,7.95-37.48,14-56.7,19.6-15,4.33-30.61,9.46-46.35,9.84.47.39.93.81,1.4,1.2,36.5,30.09,80.72,45,124.86,59.71a4.73,4.73,0,0,1,2.14-1c32.11-6.44,96.71,1.25,100.76-45.86,1.71-19.88-8.38-38.83-18.25-55.34C458.24,463.08,447.77,448.43,438.19,433.21Z"/><path class="cls-2" d="M411.29,373a81.89,81.89,0,0,1-1-27.31c2.35-16.56,14.19-30,22.41-44a264,264,0,0,0,23.1-49.56c11.59-34.57,14.09-73,.37-107.4-5.42-13.56-17.35-35.6-35.1-33.66-6.51.71-7.63,4.64-7.87,10.36-.21,5.11-.27,10.22-.57,15.33-.52,8.63-1.39,17.23-2.55,25.8-1.38,10.14-3.17,20.22-5.44,30.2-1.46,6.45-2.28,15.78-7.6,20.42-12.87,11.26-19.35-12-22.15-19.83q-20.21-56.3-42.25-111.89c-6.82-17.23-13.37-35.34-25.12-50-5.09-6.34-16.8-17.41-24.36-8.31-5.48,6.59-6.24,19.43-7.16,27.57-4.25,37.52,5.57,74.81,15.73,110.7a28.23,28.23,0,0,1,1.79,6.3c1,6.13-7.71,8.83-9.49,2.62q-.71-2.44-1.4-4.91c-5.12-12.25-20.93-18-33.5-13.24-17,6.48-23.47,26.53-22.75,43.21.2,4.64-6.84,6.7-8.95,2.42-5.67-11.55-15.52-22-28.92-23.51a24.15,24.15,0,0,0-21.91,9.6,4.33,4.33,0,0,1-2,3.3,20.12,20.12,0,0,0-2.06,10.66c.41,4.93-7,4.75-7.59,0a26.26,26.26,0,0,1,1.94-13.34l-13.11-45.38c-3.82-13.2-7.11-26.77-12.34-39.51a79.72,79.72,0,0,0-9.19-16.9c-1.74-2.37-5.65-8-8.71-8.67-5.25-1.1-8,2.5-10.43,6.23-7.31,11.25-9.55,24.82-9.93,38-.7,23.88,2.53,48.21,5,71.92,2.61,24.66,6,49.25,10.66,73.6,9.36,48.52,24.23,96.37,49.15,139.27,13,22.36,28.63,43,45.56,62.5l.3.34.21-.07c41.27-8.26,82.75-12.71,122.2-28.43C359.94,424.06,390.52,403,411.29,373Zm8-245.67a3.81,3.81,0,0,1,2.1-1.45,11.29,11.29,0,0,1,5-3.9c5.84-2.48,11.61.12,15.43,4.75,4.83,5.86,7.6,14.67,9.92,21.77,2.21,6.75,4.76,15.84,1.68,22.73-3.85,8.61-23.17,17.64-29.07,7-4.12-7.44-4.8-18.79-6.57-27.07C416.15,143.26,414.14,134.25,419.34,127.33ZM127,140.37c-3.92,1.48-8.18.93-11.94,3.14-3,1.79-5.07,5.33-8.86,5.75C92.38,150.82,94.9,120.31,96,112.77c.94-6.35,2.4-15.19,9-18.21a8.61,8.61,0,0,1,9.32,1.11c11.91,3.53,17.59,22.42,18.94,33.19C134,134.07,132.18,138.4,127,140.37ZM313,84.42c-5.29,3.52-15.45,5.15-21.55,3.62-5.67-1.43-7.77-10.12-9.15-15.19a54.93,54.93,0,0,1-1.36-23c.93-5.71,3.22-11.67,8.83-14.21,4.47-2,9-1.2,12,2.38,11.36,4.08,14.93,20.84,15.93,31.42C318.24,75.18,318.27,80.91,313,84.42Z"/><path class="cls-3" d="M356.2,481.68c29.74-13.08,57.46-31.95,75.24-59.58-6.68-11.47-12.88-23.87-17-36.71-46.08,61.44-131.18,80.94-204.18,87.9,12,13.59,24.46,27,37.9,39.2,19.42-2,37.7-7.05,56.41-12.64C322.07,494.64,339.5,489,356.2,481.68Z"/><path class="cls-4" d="M469.06,461.66c-18.75-29.27-41.9-58.37-47.87-93.54-1.56-9.17-2.18-19.15.93-28.05,3.42-9.8,10.43-18.39,15.81-27.15a291.85,291.85,0,0,0,26-52.75c12.75-35.08,16.8-74.59,5.05-110.54-5.13-15.71-13-32.2-26.89-42-9.74-6.9-28.37-11.32-36.2.93-4,6.31-2.78,15-3.08,22.1a328.62,328.62,0,0,1-3.4,35.3q-2.43,15.93-6.39,31.58c-1.18,4.66-1.88,10.37-4.68,3.23-2.23-5.7-4.14-11.56-6.22-17.31-14.65-40.45-29.55-81-46.22-120.62-7.2-17.15-16.27-38.63-32.95-48.71-6.29-3.81-14.4-5.89-21.29-2.37-7.64,3.91-10.37,12.35-12.25,20.13-9.15,37.85-2.09,76.61,7.76,113.82a38.75,38.75,0,0,0-28.48-3.56c-17.61,4.9-27.88,21.57-31,38.9-8.57-9.93-20.61-17-34.06-15.67a33.61,33.61,0,0,0-19.46,8.94c-7.07-25.19-13.29-51.12-22.77-75.41C135.85,84.71,117.32,49.55,99,69.81c-16.08,17.8-16.38,45.3-15,67.75C85.72,164.75,88.5,192,92.09,219c7,52.66,18.37,105.08,39.91,153.86,22.83,51.69,58.6,95.56,98.14,135.44,40.31,40.65,92.61,65.48,147.72,79.2a42.54,42.54,0,0,0,12.21,1.22l3.45-.16c32.76-4.94,73.68-.39,94.62-31.3C508.86,526.67,486,488.06,469.06,461.66ZM203.88,466l-.3-.34c-16.93-19.5-32.57-40.14-45.56-62.5-24.92-42.9-39.79-90.75-49.15-139.27-4.7-24.35-8.05-48.94-10.66-73.6-2.5-23.71-5.73-48-5-71.92.38-13.18,2.62-26.75,9.93-38,2.42-3.73,5.18-7.33,10.43-6.23,3.06.64,7,6.3,8.71,8.66a80,80,0,0,1,9.19,16.91c5.23,12.74,8.52,26.31,12.34,39.51l13.11,45.38A26.26,26.26,0,0,0,155,197.91c.56,4.75,8,4.93,7.59,0a20.14,20.14,0,0,1,2.06-10.66,4.33,4.33,0,0,0,2-3.3,24.15,24.15,0,0,1,21.91-9.6c13.4,1.56,23.25,12,28.92,23.51,2.11,4.28,9.15,2.22,8.95-2.42-.72-16.68,5.72-36.73,22.75-43.21,12.57-4.79,28.38,1,33.5,13.24q.69,2.46,1.4,4.91c1.78,6.21,10.48,3.51,9.49-2.62a28.23,28.23,0,0,0-1.79-6.3c-10.16-35.89-20-73.18-15.73-110.7.92-8.14,1.68-21,7.16-27.57,7.56-9.1,19.27,2,24.36,8.31,11.75,14.63,18.3,32.74,25.12,50q22,55.61,42.25,111.89c2.8,7.81,9.28,31.09,22.15,19.83,5.32-4.65,6.14-14,7.6-20.42,2.27-10,4.06-20.06,5.44-30.2,1.16-8.57,2-17.17,2.55-25.8.3-5.11.36-10.22.57-15.33.24-5.72,1.36-9.65,7.87-10.36,17.75-1.94,29.68,20.1,35.1,33.66,13.72,34.38,11.22,72.83-.37,107.4a264,264,0,0,1-23.1,49.56c-8.22,14-20.06,27.43-22.41,44a81.89,81.89,0,0,0,1,27.31c-20.77,30-51.35,51.06-85,64.47-39.45,15.72-80.93,20.17-122.2,28.43Zm6.41,7.32c73-7,158.1-26.46,204.18-87.9,4.09,12.84,10.29,25.24,17,36.71-17.78,27.63-45.5,46.5-75.24,59.58-16.7,7.35-34.13,13-51.6,18.17-18.71,5.59-37,10.65-56.41,12.64C234.75,500.32,222.28,486.88,210.29,473.29Zm275.44,60.57C481.68,581,417.08,573.28,385,579.72h0a11,11,0,0,1-5.7-.22C336.3,565.2,293.48,550.27,258,521c-.47-.39-.93-.81-1.4-1.2,15.74-.38,31.39-5.51,46.35-9.84,19.22-5.57,38.32-11.65,56.7-19.6,30.22-13.07,58.31-32.12,77.23-59.28.45.72.89,1.43,1.34,2.13,9.58,15.22,20.05,29.87,29.29,45.31C477.35,495,487.44,514,485.73,533.86Z"/><path class="cls-4" d="M424.4,178.2c5.9,10.67,25.22,1.64,29.07-7,3.08-6.89.53-16-1.68-22.73-2.32-7.1-5.09-15.91-9.92-21.77-3.82-4.63-9.59-7.23-15.43-4.75a11.29,11.29,0,0,0-5,3.9,3.81,3.81,0,0,0-2.1,1.45c-5.2,6.92-3.19,15.93-1.51,23.8C419.6,159.41,420.28,170.76,424.4,178.2Zm.51-42.5a4.3,4.3,0,0,0,2.83-2.54c4.09-11.52,13.12,11.27,14,13.54,2.9,7.73,8.25,20.26-1.14,25.12-2.75,1.42-6.83,3.13-9.1.4-2-2.35-2.3-10-3-13.15C426.59,151,424.64,143.65,424.91,135.7Z"/><path class="cls-4" d="M301.76,38c-3-3.58-7.51-4.41-12-2.38-5.61,2.54-7.9,8.5-8.83,14.21a54.93,54.93,0,0,0,1.36,23c1.38,5.07,3.48,13.76,9.15,15.19,6.1,1.53,16.26-.1,21.55-3.62s5.23-9.24,4.68-15C316.69,58.87,313.12,42.11,301.76,38Zm3.82,40.19c-2.87,1.82-7.51,1.75-11.35,1.44A48.24,48.24,0,0,1,289,60.12c-.22-5.1-.12-15.9,5.63-16.95a3.42,3.42,0,0,0,1.06,1c7.76,4.67,10.8,10.84,12.53,19.59C309.18,68.77,310.8,74.91,305.58,78.22Z"/><path class="cls-4" d="M114.39,95.67a8.61,8.61,0,0,0-9.32-1.11c-6.65,3-8.11,11.86-9,18.21-1.12,7.54-3.64,38.05,10.19,36.49,3.79-.42,5.81-4,8.86-5.75,3.76-2.21,8-1.66,11.94-3.14,5.17-2,7-6.3,6.32-11.51C132,118.09,126.3,99.2,114.39,95.67Zm10,33.65c-.55,4.1-6.35,3.47-9.35,4.49-2.55.87-5.56,2.13-7.45,4.09a11,11,0,0,0-1.66,1.46,63.42,63.42,0,0,1-1.3-7.27c-.45-3.07-1.24-29.93,5.63-30.32,4.75,5.7,8.86,9.53,11.33,17C122.46,121.33,124.77,126.58,124.39,129.32Z"/></svg>