<svg id="Layer_1" data-name="Layer 1" xmlns="http://www.w3.org/2000/svg" viewBox="0 0 600 600"><defs><style>.cls-1{fill:#fff200;}.cls-2{fill:#939598;}.cls-3{fill:#fff;}.cls-4{fill:#58595b;}.cls-5{fill:#be1e2d;}.cls-6{fill:#f7941e;}.cls-7{fill:#231f20;}</style></defs><title>doodle</title><path class="cls-1" d="M220,310.26a125.64,125.64,0,0,1-18.27-31.15c-1.2,2.68-2.61,5.34-4,8,1.27,4,5.1,8.79,6.61,11.05A135,135,0,0,0,213.22,310a169.93,169.93,0,0,0,21,20.49,301.29,301.29,0,0,0,24.88,18.4c7.07,4.75,14.49,9,21.53,13.79a39.49,39.49,0,0,0,5.68-3.74c-1.5-.65-3-1.31-4.5-2C258.11,346,236.25,330.82,220,310.26Z"/><path class="cls-1" d="M469.36,113.92c11.77,14.93,27.5,25.27,44.14,33.92,7.4-11.76,13.45-24.25,16.2-38.07A86.37,86.37,0,0,0,531.49,91c-.07-3.76-1.06-6.31-4.17-8.59a61.44,61.44,0,0,0-8.46-5,94.62,94.62,0,0,0-35.42-9.66,124.61,124.61,0,0,0-32.21,1.8A87.63,87.63,0,0,0,469.36,113.92Z"/><path class="cls-2" d="M440.18,252.65C406.31,294.06,370.46,334,331.05,370.27c.23,1.75-1,3.67-3.15,3.07A329.34,329.34,0,0,1,296.2,363c0,.33.07.66.11,1a1.32,1.32,0,0,1-1.18,1.56c-3.53,29.2-2.41,58.54,5.18,87.13.92,3.45,1.91,6.89,3,10.29,1.16,3.59,2.91,6.89,7,4.45,3.14-1.89,5.78-4.93,8.42-7.43s5.2-4.93,7.76-7.43c11.19-10.87,22-22.15,32.17-34,20.58-23.94,38.33-50.14,55.4-76.66,30.91-48,60.37-98.07,76.34-153.18C474,210.31,457.33,231.68,440.18,252.65Z"/><path class="cls-1" d="M531,78.55c16.69-13,32.9-26.53,48.44-40.84a2.56,2.56,0,0,1,3.51-.19c4.42,3.55,11,1.93,13.76-2.86a12.59,12.59,0,0,0-1.6-14.38c-3.35-3.77-9.31-5.92-13.82-2.83-3.51,2.4-5.46,7.4-3.43,11.34a2.54,2.54,0,0,1-.71,3.39C559.17,46,541.59,60.45,523.33,73.83c.54.3,1.07.59,1.6.9A53.15,53.15,0,0,1,531,78.55Z"/><path class="cls-1" d="M145.5,478.76c-1.13,2.09-1.55,3.65,1.61,2.88a40.75,40.75,0,0,0,6.61-2.22,52.81,52.81,0,0,0,14-9.2c8.55-7.59,15.33-17.09,21.38-26.72a125.5,125.5,0,0,0,15.69-36.62c1.63-6.55,2.83-13.2,3.8-19.87.47-3.22.88-6.46,1.26-9.69.21-1.74.4-3.48.59-5.23.06-.58.44-2.13.5-3.27a141.36,141.36,0,0,1-12.62-10.15,76.33,76.33,0,0,1-10-10A119.51,119.51,0,0,0,142,372.56q6.6-1,13.25-1.53c1.43-.12,1.72,1.61.8,2.39a275.34,275.34,0,0,0-58.21,69.19,476.92,476.92,0,0,0,59-25.77c.83-.43,2.25.15,1.89,1.27a142.58,142.58,0,0,1-9.26,22.35,30.5,30.5,0,0,0,12.09-8.83,1.25,1.25,0,0,1,2.14,1.06,149.79,149.79,0,0,1-15.47,41.48C147.31,475.71,146.34,477.21,145.5,478.76Z"/><path class="cls-1" d="M218.36,367.57c2.11.77,3.78.5,5.08-1.5.61-.94,1.11-1.88,1.75-2.81a2,2,0,0,1,.45-.46,180,180,0,0,1-26.92-25.94c-1.74-2.07-3.49-4.24-5.13-6.5-2,3.72-5.92,7-3.73,11.32,2.28,4.54,6.55,8.53,10.25,11.92a141,141,0,0,0,12.5,10C214.32,364.79,216.38,366.86,218.36,367.57Z"/><path class="cls-2" d="M194.31,247.79l.54-.71a1.82,1.82,0,0,1,1.1-1.44,170.7,170.7,0,0,1,11.92-13.45c33-34.11,66.68-68.17,104-97.67a449.8,449.8,0,0,1,54.3-37.26A236.39,236.39,0,0,0,327,106.48c-14.26,4.74-28.24,10.38-42,16.37-48.92,21.29-95.5,49.35-134.47,86A356.84,356.84,0,0,0,123,237.77c-4.08,4.8-9,9.8-11.94,15.4-4.25,8.08,4.32,11.15,10.43,13.25,23.46,8.06,49.19,16.32,73.93,9.09a2.5,2.5,0,0,1,2.5.56c.45-.74.92-1.48,1.4-2.2a4.2,4.2,0,0,1,.3-.38A91.73,91.73,0,0,1,195,251.14,2.3,2.3,0,0,1,194.31,247.79Z"/><path class="cls-2" d="M391,212a17,17,0,0,0,15.44-8.79c3.14-5.83,2.54-13,1.5-19.34-1.19-7.22-4.34-11.18-10.71-14.74-4.67-2.61-10.33-5.78-15.78-4.69-7.7,3.06-13.13,13-14.05,21C365.83,199,377.48,211.47,391,212Z"/><path class="cls-3" d="M446.72,94.68c3.26,8.39,8.2,16,13.67,23.13,12.43,16.17,28.79,29.48,48.44,35.59a3.06,3.06,0,0,1,.79.39c.74-1.1,1.47-2.21,2.2-3.32-17.27-8.38-33.48-20.27-45.13-35.53-9.79-12.83-17-28.78-17-45.11q-3.24.61-6.46,1.36C443.17,79.37,443.65,86.78,446.72,94.68Z"/><path class="cls-4" d="M424.89,109.67A133.65,133.65,0,0,0,442,135.76a135.27,135.27,0,0,0,23.77,22.15c8.91,6.52,18.54,10.85,28.31,15.8l.28.18a2.57,2.57,0,0,1,1.92-1.77c3.44-4.54,6.88-9.13,10.19-13.81-20.58-6.37-37.62-20.64-50.56-37.59-6.06-7.94-11.39-16.66-14.67-26.14-2.38-6.85-4-14.9-2.7-22.25-7.09,1.83-14.08,4.08-20.92,6.58C416.11,89.77,420.09,100.05,424.89,109.67Z"/><path class="cls-5" d="M326.46,367.18q6.75-6.26,13.4-12.62c37.32-35.82,71.5-74.76,104-115C460.1,219.44,476,199,491.59,178.32c-10.54-3.43-20.59-9.85-29.45-16.35a138,138,0,0,1-25-23.8,134.23,134.23,0,0,1-18.49-29.83c-3.79-8.41-7.44-18.2-6-27.58C370.33,97.05,332.59,123,298.13,152.2c-17.69,15-34.57,30.87-51.08,47.13Q234.92,211.27,223,223.4c-8.16,8.26-16.54,16.38-23.92,25.35a115,115,0,0,0,10.16,34.72C231.53,329.55,279.26,353.82,326.46,367.18Zm56.18-222.75c19.11-1.54,38.44,9.66,46.88,26.81,8.27,16.83,5.08,38.74-8.29,52.08-7.85,7.84-16.92,10-27.74,9.32-11-.7-22.22-3.67-30.81-10.83-9.21-7.67-14-19.59-14.64-31.65C346.15,168.73,359.79,146.27,382.64,144.43Z"/><path class="cls-4" d="M370.89,220.92c8.29,4.81,18.32,6.56,27.82,6.46,9.9-.1,17.78-5.28,23.19-13.42a41.34,41.34,0,0,0,.2-45c-9.27-14-27.72-22.84-44.42-18.85-8.78,2.1-16,8.31-20.31,16.12a37.78,37.78,0,0,0-2.82,6.46C351.85,190.54,353.58,210.88,370.89,220.92Zm29.41-1.42a9.81,9.81,0,0,1-5,.1c-.51-.11-.48-.95.06-.93a11.32,11.32,0,0,0,4.37-.76c1.32-.49,2.44-1.49,3.76-1.92a.55.55,0,0,1,.66.76C403.58,218.17,401.7,219.07,400.3,219.5ZM417.83,182c5.31,10.31,3.63,25.21-6.29,32.29-.63.45-1.24-.42-.83-1,6.91-9.14,10.31-19.73,6.45-31C417,182,417.64,181.63,417.83,182ZM383,154a11.32,11.32,0,0,1,6.49.74c.5.26.41,1.21-.23,1.17-2.12-.12-4.21-.66-6.33-.83C382.27,155,382.41,154.05,383,154ZM359.7,174.2c-.17.56-1,.42-.91-.18,1.6-8.15,8.8-19,18.1-19.35a.7.7,0,0,1,.42,1.27c-3.63,2.31-7.43,3.51-10.6,6.65A28,28,0,0,0,359.7,174.2Zm16.51-11.9.18-.15a14.78,14.78,0,0,1,8.95-2.51h.47a14.85,14.85,0,0,1,2.93.4,27.72,27.72,0,0,1,6.45,2.23c6.4,3.06,13,6.65,15.88,13.49,4.67,11.13,4.78,27.63-5,36-10.45,9-25,5.36-34.51-3.14-10-8.91-11.41-22.42-6-34.26A27.9,27.9,0,0,1,376.21,162.3Z"/><path class="cls-4" d="M233.66,362.21c5.54,4,11.94,9.28,19.12,9.38,6.32.09,13.06-2.8,18.92-4.95,2-.73,4-1.53,5.89-2.42-8.22-4.79-16.15-10.3-23.95-15.65a256.27,256.27,0,0,1-26.27-20.36,150.46,150.46,0,0,1-21.78-23.89,100.38,100.38,0,0,1-8.23-13.39c-.28-.54-.56-1.11-.82-1.69C192,298,188,306.84,191.72,316.8c4.55,12.24,15.45,22.49,24.76,31.21A178.33,178.33,0,0,0,233.66,362.21Z"/><path class="cls-6" d="M186.74,488.23a56.61,56.61,0,0,1-.41,16.3c31.77-35.49,35.78-86.38,29.09-132.08a3,3,0,0,1,0-.79c-.56-.32-1.11-.67-1.67-1-.19,1.28-.49,2.53-.6,3.51-.48,4.48-1,9-1.66,13.43a183.4,183.4,0,0,1-5.39,25.62c-4.27,14.45-11.37,27.4-20,39.68-6.87,9.78-14.81,19.35-25.09,25.7-4.51,2.77-10.33,5.78-15.71,6.13-4.58.3-3.78-4.32-2.18-7.13a163.48,163.48,0,0,0,17-41,32.88,32.88,0,0,1-13,7.3,1.27,1.27,0,0,1-1.52-1.75,139.29,139.29,0,0,0,9.67-21.82,483.44,483.44,0,0,1-60,25.91,1.3,1.3,0,0,1-1.56-1.79A280.48,280.48,0,0,1,151.42,374c-4.57.48-9.11,1.1-13.65,1.87a1.33,1.33,0,0,1-1.07-2.2,115.37,115.37,0,0,1,50.19-27.15,22.7,22.7,0,0,1-1.66-3,154.28,154.28,0,0,0-110,51.67L95.57,392c2.08-.33,3.62,2.74,2,4.16a182.37,182.37,0,0,0-29.68,34.33c-14.49,21.55-25.19,45.58-33.86,70-7.39,20.81-12.86,42.81-11,65,26.21-37.09,63.64-63.72,101.45-88.11a2.57,2.57,0,0,1,3.89,2.62A506.18,506.18,0,0,1,104.71,558c32.16-15.43,56.18-43.39,77.38-71.41C183.57,484.68,186.49,486.15,186.74,488.23Z"/><path class="cls-7" d="M178.89,512.31a2.69,2.69,0,0,0,4.39,3c38.89-36.13,44.95-92.14,37.82-142,3.82-.28,6.94-3.39,8.05-7.78,8.82,6.65,18,13.21,29.63,10.75,11-2.34,23.49-6.7,32.1-14.42-5,27.47-3.8,56.25,2.17,83.44a154.23,154.23,0,0,0,5.78,21.13c1.87,5,5.82,8.81,11.47,6.94,6.16-2.05,11.22-8.59,15.76-12.91q8.88-8.48,17.44-17.29c23.37-24.14,43.56-50.76,62.23-78.64s36.71-56.19,52.67-85.66c17.41-32.12,32.06-65.88,40.73-101.44,6.19-8.06,12.32-16.26,17.81-24.82a1.56,1.56,0,0,0,1.18-1.86,130.91,130.91,0,0,0,14.43-30.39,94.39,94.39,0,0,0,3.69-17.84c.58-5.31,1.45-11.63,0-16.83a11.37,11.37,0,0,0-1.69-3.5q24.27-18.9,47-39.65a14.34,14.34,0,0,0,18.39-3.65c4.92-6.4,4.23-15.87-1-21.82-5-5.66-13.74-8.19-20.34-3.76a14.23,14.23,0,0,0-5.7,16.07c-17.9,14.09-36.3,27.71-53.77,42.32a93.24,93.24,0,0,0-10.93-4.31c-23.58-7.67-49-5.8-72.61.51a281.62,281.62,0,0,0-60.75,24.58,2.09,2.09,0,0,0-1-.22C359,92.2,344.12,96,330.1,100.4s-27.66,9.78-41.15,15.48a541.23,541.23,0,0,0-76.1,39.23,422,422,0,0,0-67.94,52.34,352.17,352.17,0,0,0-29,31.13c-3.81,4.63-9,9.81-10.63,15.77-1.45,5.44,1.23,10.21,5.85,13.06,5.93,3.67,13.46,5.44,20,7.6a202.09,202.09,0,0,0,22.52,6.16c13.71,2.79,27.79,3.4,41.38-.12-2,3.75-3.8,7.63-5.63,11.37-2.58,5.29-4.65,10.89-4.42,16.87.23,6.2,2.63,11.92,5.89,17.16-2.12,1.79-3.62,4.73-4.94,7a12.41,12.41,0,0,0-1.82,5.49c-45.09,1.13-88.77,22.94-117,58.07-1.24,1.55-.29,4.52,2,4.16l19-3c-17.41,17.11-31,37.75-41.76,59.61C35,480.9,25,505.86,20.06,531.18c-2.68,13.71-3.53,27.77-1.4,41.61a2.62,2.62,0,0,0,4.91,1C48.09,536.27,84.82,509.09,122,485a503.72,503.72,0,0,1-24.49,76.93c-.79,1.92.92,4.62,3.19,3.67,33.77-14.18,59-41.38,81.08-69.82A51,51,0,0,1,178.89,512.31ZM280.61,362.68c-7-4.77-14.46-9-21.53-13.79a301.29,301.29,0,0,1-24.88-18.4,169.93,169.93,0,0,1-21-20.49,135,135,0,0,1-8.95-11.83c-1.51-2.26-5.34-7-6.61-11.05,1.41-2.67,2.82-5.33,4-8A125.64,125.64,0,0,0,220,310.26c16.3,20.56,38.16,35.74,61.84,46.68,1.49.69,3,1.35,4.5,2A39.49,39.49,0,0,1,280.61,362.68Zm133.45-20.74c-17.07,26.52-34.82,52.72-55.4,76.66-10.18,11.83-21,23.11-32.17,34q-3.84,3.75-7.76,7.43c-2.64,2.5-5.28,5.54-8.42,7.43-4.08,2.44-5.83-.86-7-4.45-1.1-3.4-2.09-6.84-3-10.29-7.59-28.59-8.71-57.93-5.18-87.13a1.32,1.32,0,0,0,1.18-1.56c0-.34-.07-.67-.11-1a329.34,329.34,0,0,0,31.7,10.33c2.16.6,3.38-1.32,3.15-3.07,39.41-36.24,75.26-76.21,109.13-117.62,17.15-21,33.81-42.34,50.22-63.89C474.43,243.87,445,293.92,414.06,341.94ZM577.11,32.18a2.54,2.54,0,0,0,.71-3.39c-2-3.94-.08-8.94,3.43-11.34,4.51-3.09,10.47-.94,13.82,2.83a12.59,12.59,0,0,1,1.6,14.38c-2.77,4.79-9.34,6.41-13.76,2.86a2.56,2.56,0,0,0-3.51.19C563.86,52,547.65,65.6,531,78.55a53.15,53.15,0,0,0-6-3.82c-.53-.31-1.06-.6-1.6-.9C541.59,60.45,559.17,46,577.11,32.18ZM483.44,67.75a94.62,94.62,0,0,1,35.42,9.66,61.44,61.44,0,0,1,8.46,5c3.11,2.28,4.1,4.83,4.17,8.59a86.37,86.37,0,0,1-1.79,18.77c-2.75,13.82-8.8,26.31-16.2,38.07-16.64-8.65-32.37-19-44.14-33.92a87.63,87.63,0,0,1-18.13-44.37A124.61,124.61,0,0,1,483.44,67.75Zm-33.75,2.08c0,16.33,7.21,32.28,17,45.11,11.65,15.26,27.86,27.15,45.13,35.53-.73,1.11-1.46,2.22-2.2,3.32a3.06,3.06,0,0,0-.79-.39c-19.65-6.11-36-19.42-48.44-35.59-5.47-7.11-10.41-14.74-13.67-23.13-3.07-7.9-3.55-15.31-3.49-23.49Q446.46,70.44,449.69,69.83Zm-11.13,2.5c-1.33,7.35.32,15.4,2.7,22.25,3.28,9.48,8.61,18.2,14.67,26.14,12.94,16.95,30,31.22,50.56,37.59-3.31,4.68-6.75,9.27-10.19,13.81a2.57,2.57,0,0,0-1.92,1.77l-.28-.18c-9.77-5-19.4-9.28-28.31-15.8A135.27,135.27,0,0,1,442,135.76a133.65,133.65,0,0,1-17.13-26.09c-4.8-9.62-8.78-19.9-7.25-30.76C424.48,76.41,431.47,74.16,438.56,72.33ZM199.33,273.87c-.48.72-1,1.46-1.4,2.2a2.5,2.5,0,0,0-2.5-.56c-24.74,7.23-50.47-1-73.93-9.09-6.11-2.1-14.68-5.17-10.43-13.25,3-5.6,7.86-10.6,11.94-15.4a356.84,356.84,0,0,1,27.47-28.88c39-36.69,85.55-64.75,134.47-86,13.77-6,27.75-11.63,42-16.37a236.39,236.39,0,0,1,39.16-9.22,449.8,449.8,0,0,0-54.3,37.26c-37.27,29.5-70.95,63.56-103.95,97.67A170.7,170.7,0,0,0,196,245.64a1.82,1.82,0,0,0-1.1,1.44l-.54.71a2.3,2.3,0,0,0,.7,3.35,91.73,91.73,0,0,0,4.62,22.35A4.2,4.2,0,0,0,199.33,273.87Zm-.25-25.12c7.38-9,15.76-17.09,23.92-25.35q12-12.1,24.05-24.07c16.51-16.26,33.39-32.16,51.08-47.13,34.46-29.16,72.2-55.15,114.55-71.44-1.45,9.38,2.2,19.17,6,27.58a134.23,134.23,0,0,0,18.49,29.83,138,138,0,0,0,25,23.8c8.86,6.5,18.91,12.92,29.45,16.35C476,199,460.1,219.44,443.84,239.58c-32.48,40.22-66.66,79.16-104,115q-6.64,6.36-13.4,12.62c-47.2-13.36-94.93-37.63-117.22-83.71A115,115,0,0,1,199.08,248.75Zm-7.36,68.05c-3.71-10,.27-18.82,4.82-27.56.26.58.54,1.15.82,1.69a100.38,100.38,0,0,0,8.23,13.39,150.46,150.46,0,0,0,21.78,23.89,256.27,256.27,0,0,0,26.27,20.36c7.8,5.35,15.73,10.86,23.95,15.65-1.91.89-3.89,1.69-5.89,2.42-5.86,2.15-12.6,5-18.92,4.95-7.18-.1-13.58-5.35-19.12-9.38A178.33,178.33,0,0,1,216.48,348C207.17,339.29,196.27,329,191.72,316.8ZM163.64,432.69a1.25,1.25,0,0,0-2.14-1.06,30.5,30.5,0,0,1-12.09,8.83,142.58,142.58,0,0,0,9.26-22.35c.36-1.12-1.06-1.7-1.89-1.27a476.92,476.92,0,0,1-59,25.77A275.34,275.34,0,0,1,156,373.42c.92-.78.63-2.51-.8-2.39q-6.65.57-13.25,1.53a119.51,119.51,0,0,1,46.41-23.93,76.33,76.33,0,0,0,10,10A141.36,141.36,0,0,0,211,368.82c-.06,1.14-.44,2.69-.5,3.27-.19,1.75-.38,3.49-.59,5.23-.38,3.23-.79,6.47-1.26,9.69-1,6.67-2.17,13.32-3.8,19.87a125.5,125.5,0,0,1-15.69,36.62c-6.05,9.63-12.83,19.13-21.38,26.72a52.81,52.81,0,0,1-14,9.2,40.75,40.75,0,0,1-6.61,2.22c-3.16.77-2.74-.79-1.61-2.88.84-1.55,1.81-3.05,2.67-4.59A149.79,149.79,0,0,0,163.64,432.69Zm49-69.13a141,141,0,0,1-12.5-10c-3.7-3.39-8-7.38-10.25-11.92-2.19-4.35,1.74-7.6,3.73-11.32,1.64,2.26,3.39,4.43,5.13,6.5a180,180,0,0,0,26.92,25.94,2,2,0,0,0-.45.46c-.64.93-1.14,1.87-1.75,2.81-1.3,2-3,2.27-5.08,1.5S214.32,364.79,212.61,363.56ZM182.09,486.63c-21.2,28-45.22,56-77.38,71.41A506.18,506.18,0,0,0,128.35,480a2.57,2.57,0,0,0-3.89-2.62c-37.81,24.39-75.24,51-101.45,88.11-1.81-22.14,3.66-44.14,11.05-65,8.67-24.41,19.37-48.44,33.86-70A182.37,182.37,0,0,1,97.6,396.2c1.59-1.42.05-4.49-2-4.16l-20.32,3.18a154.28,154.28,0,0,1,110-51.67,22.7,22.7,0,0,0,1.66,3,115.37,115.37,0,0,0-50.19,27.15,1.33,1.33,0,0,0,1.07,2.2c4.54-.77,9.08-1.39,13.65-1.87a280.48,280.48,0,0,0-57.68,70.44,1.3,1.3,0,0,0,1.56,1.79,483.44,483.44,0,0,0,60-25.91,139.29,139.29,0,0,1-9.67,21.82,1.27,1.27,0,0,0,1.52,1.75,32.88,32.88,0,0,0,13-7.3,163.48,163.48,0,0,1-17,41c-1.6,2.81-2.4,7.43,2.18,7.13,5.38-.35,11.2-3.36,15.71-6.13,10.28-6.35,18.22-15.92,25.09-25.7,8.62-12.28,15.72-25.23,20-39.68a183.4,183.4,0,0,0,5.39-25.62c.65-4.47,1.18-8.95,1.66-13.43.11-1,.41-2.23.6-3.51.56.35,1.11.7,1.67,1a3,3,0,0,0,0,.79c6.69,45.7,2.68,96.59-29.09,132.08a56.61,56.61,0,0,0,.41-16.3C186.49,486.15,183.57,484.68,182.09,486.63Z"/><path class="cls-7" d="M371.56,208.65c9.53,8.5,24.06,12.09,34.51,3.14,9.78-8.39,9.67-24.89,5-36-2.87-6.84-9.48-10.43-15.88-13.49a27.72,27.72,0,0,0-6.45-2.23,14.85,14.85,0,0,0-2.93-.4h-.47a14.78,14.78,0,0,0-8.95,2.51l-.18.15a27.9,27.9,0,0,0-10.62,12.09C360.15,186.23,361.57,199.74,371.56,208.65Zm9.87-44.17c5.45-1.09,11.11,2.08,15.78,4.69,6.37,3.56,9.52,7.52,10.71,14.74,1,6.31,1.64,13.51-1.5,19.34A17,17,0,0,1,391,212c-13.5-.57-25.15-13.09-23.6-26.56C368.3,177.5,373.73,167.54,381.43,164.48Z"/><path class="cls-7" d="M362.68,221.81c8.59,7.16,19.84,10.13,30.81,10.83,10.82.69,19.89-1.48,27.74-9.32,13.37-13.34,16.56-35.25,8.29-52.08-8.44-17.15-27.77-28.35-46.88-26.81-22.85,1.84-36.49,24.3-34.6,45.73C348.66,202.22,353.47,214.14,362.68,221.81Zm-5.31-55.56c4.33-7.81,11.53-14,20.31-16.12,16.7-4,35.15,4.85,44.42,18.85a41.34,41.34,0,0,1-.2,45c-5.41,8.14-13.29,13.32-23.19,13.42-9.5.1-19.53-1.65-27.82-6.46-17.31-10-19-30.38-16.34-48.21A37.78,37.78,0,0,1,357.37,166.25Z"/><path class="cls-7" d="M377.31,155.94a.7.7,0,0,0-.42-1.27c-9.3.37-16.5,11.2-18.1,19.35-.12.6.74.74.91.18a28,28,0,0,1,7-11.61C369.88,159.45,373.68,158.25,377.31,155.94Z"/><path class="cls-7" d="M382.91,155.05c2.12.17,4.21.71,6.33.83.64,0,.73-.91.23-1.17A11.32,11.32,0,0,0,383,154C382.41,154.05,382.27,155,382.91,155.05Z"/><path class="cls-7" d="M410.71,213.34c-.41.55.2,1.42.83,1,9.92-7.08,11.6-22,6.29-32.29-.19-.39-.8-.07-.67.32C421,193.61,417.62,204.2,410.71,213.34Z"/><path class="cls-7" d="M403.53,216c-1.32.43-2.44,1.43-3.76,1.92a11.32,11.32,0,0,1-4.37.76c-.54,0-.57.82-.06.93a9.81,9.81,0,0,0,5-.1c1.4-.43,3.28-1.33,3.89-2.75A.55.55,0,0,0,403.53,216Z"/></svg>