<svg id="Layer_1" data-name="Layer 1" xmlns="http://www.w3.org/2000/svg" viewBox="0 0 600 600"><defs><style>.cls-1{fill:#754c29;}.cls-2{fill:#f7941e;}.cls-3{fill:#ef4136;}.cls-4{fill:#be1e2d;}.cls-5{fill:#231f20;}</style></defs><title>doodle</title><path class="cls-1" d="M256.66,234.62q.3-3.54.63-7.08c-1.72,1.37-3.44,2.74-5.13,4.16C253.75,232.67,255.57,233.93,256.66,234.62Z"/><path class="cls-2" d="M214.91,342.84a157.65,157.65,0,0,0,19.26,8.71,263.91,263.91,0,0,0,10.19-28.16q-10.12-3.64-20-7.95A193.56,193.56,0,0,1,214.91,342.84Z"/><path class="cls-2" d="M247.94,235.31a196.8,196.8,0,0,0-16.33,16.09c1.43,5.33,1.43,11.32.95,17.22,1.06.38,2,.72,2.64,1q9,3.79,18.12,7.16c1.23-11.79,2-23.6,2.82-35.43C252.51,239.41,249.59,237.38,247.94,235.31Z"/><path class="cls-1" d="M225.94,309.6c6.57,2.81,13.39,5.22,20.21,7.36,1.15-4.32,2.23-8.68,3.14-13.13,1.37-6.65,2.39-13.3,3.22-20-1.56-.6-3.13-1.16-4.68-1.79-5.37-2.17-10.68-4.49-16-6.89-.27,2.18-.54,4.32-.78,6.35A210.47,210.47,0,0,1,225.94,309.6Z"/><path class="cls-1" d="M224,373.27c2.59-5.06,5-10.16,7.33-15.29a151.82,151.82,0,0,1-19.56-8.72,89.79,89.79,0,0,1-5.28,8.87A45,45,0,0,0,224,373.27Z"/><path class="cls-1" d="M225.28,265.9c0-2.43,0-4.87.19-7.28-1.45,1.81-2.87,3.63-4.23,5.49C222.53,264.74,223.91,265.34,225.28,265.9Z"/><path class="cls-2" d="M217.64,269.24a134.16,134.16,0,0,0-14.36,28,113.52,113.52,0,0,0,16.63,9.66,209.87,209.87,0,0,0,5.07-31c.11-1.24.17-2.51.21-3.78l-.14-.07c-2.23-1.08-4.71-2.1-7-3.32Z"/><path class="cls-1" d="M218.34,312.76c-5.93-2.67-11.93-5.6-17.1-9.49a100.48,100.48,0,0,0-4.26,23,43.18,43.18,0,0,0,0,4.69,110.91,110.91,0,0,0,11.55,8.15A230.11,230.11,0,0,0,218.34,312.76Z"/><path class="cls-2" d="M503.86,158.54c-15.25,1.23-30.66,3.1-45.54,6.72-13.78,3.34-27.14,8.35-39,16.3C408,189.18,399.55,199.67,390,209.22l0,0c1.31,1.37,2.54,2.81,3.71,4.29,23.11-26.86,60-38.47,94.4-41.18,22.58-1.79,48.19.78,67.12,12.95a60.74,60.74,0,0,0-11-14.48C532.59,159.78,519.35,157.29,503.86,158.54Z"/><path class="cls-2" d="M255.56,307.47q-1.27,5.75-2.79,11.5c6,1.77,12,3.35,17.78,4.84q6.17,1.59,12.47,3.07a251,251,0,0,0,5.26-31.05q-14.47-4.08-28.62-9.22C258.44,293.69,257.06,300.67,255.56,307.47Z"/><path class="cls-2" d="M205.76,345.72a89.36,89.36,0,0,1-7.32-5.13A54.22,54.22,0,0,0,203,352.41Q204.36,349.05,205.76,345.72Z"/><path class="cls-2" d="M288,206.93c-8.21,3.83-15.79,9.13-23.35,14.9.22,5.42.25,10.92.1,16.46,1.11.42,2.23.83,3.35,1.22,5.2,1.79,10.56,3.15,15.87,4.61l5.5,1.49c-.25-12.31-.39-24.6.69-36.75C289.36,208.24,288.64,207.6,288,206.93Z"/><path class="cls-1" d="M260.83,279.48q13.94,4.86,28.16,8.8c.93-11.54.82-23.18.59-34.83a241.38,241.38,0,0,1-25.14-8.28A341.34,341.34,0,0,1,260.83,279.48Z"/><path class="cls-1" d="M364.43,295.9a198.27,198.27,0,0,0,3.28-24.5c-8.36-.94-16.74-2.37-25-4.13q-1.05,12.62-3.34,25.08-.58,3.21-1.25,6.4c7.34,1.36,16.78,3.46,25.29,3.31C363.75,299.73,364.09,297.59,364.43,295.9Z"/><path class="cls-2" d="M354,325.3a1.26,1.26,0,0,1,.51-1.06c3.82-2.51,6-8.59,7.39-14.8-4.29-.3-8.58-1-12.43-1.46q-6.57-.8-13.11-1.79a243.66,243.66,0,0,1-7.86,26.3,97.9,97.9,0,0,0,20.21-2.6Q351.42,327.63,354,325.3Z"/><path class="cls-1" d="M325.46,340.47c-.41,1-.8,2-1.23,3-1,2.29-2.07,5.77-3.47,9.27,4.82-4,9.85-8.09,14.94-12.18A89.69,89.69,0,0,1,325.46,340.47Z"/><path class="cls-1" d="M340.22,202.16A130.52,130.52,0,0,1,342.87,222c7.45,2.47,14.87,4.89,22.4,6.79-1-6.45-2.09-12.91-3.09-19.51a3.14,3.14,0,0,1,0-1A77.12,77.12,0,0,0,340.22,202.16Z"/><path class="cls-2" d="M313.85,200.86A59.43,59.43,0,0,0,294,204.48c0,.23.08.47.13.7,13,6.19,27.23,9.85,40.91,14.23-.82-6-1.76-12-2.41-18C326.27,200.89,319.93,200.82,313.85,200.86Z"/><path class="cls-2" d="M368.1,261.94a176.1,176.1,0,0,0-1.69-25.17c-7.81-1.9-15.5-4.43-23.15-7.05.15,4.24.22,8.39.27,12.37.08,5.43,0,10.86-.3,16.28C351.5,259.79,359.78,261,368.1,261.94Z"/><path class="cls-2" d="M290.9,362.91A70.57,70.57,0,0,0,306,360.56c2.44-1.28,4.86-2.59,7.31-3.89l.09-.05c2.69-5.2,4.76-12.58,6.08-16.64l-3.74-.37c-9.44-1-18.83-2.46-28.14-4.3a203.78,203.78,0,0,1-9,27.23A100.58,100.58,0,0,0,290.9,362.91Z"/><path class="cls-1" d="M275.31,369.51c-.83,1.55-1.68,3-2.56,4.35,3.94-1,7.78-2.23,11.45-3.5C281.21,370.18,278.24,369.89,275.31,369.51Z"/><path class="cls-2" d="M263.36,376a32.2,32.2,0,0,0,5.13-7.54c-5.76-1-11.22-2.32-16.07-3.69s-9.8-2.87-14.9-4.59a141.06,141.06,0,0,1-8.82,15l.12,0C239.68,378.5,251.72,378.14,263.36,376Z"/><path class="cls-2" d="M297.12,255.48c0,.16,0,.33,0,.49-.06,11.37-.5,22.75-1.51,34.07q17.79,4.57,35.95,7.59c1.41-7,2.56-14.13,3.39-21.27q.62-5.28,1-10.58c-12.87-3-25.54-6.56-37.72-10Z"/><path class="cls-1" d="M274.69,353.52a190.4,190.4,0,0,0,6.49-19.5c-4.22-.93-8.43-1.93-12.61-3-5.94-1.57-11.81-3.39-17.64-5.34a205,205,0,0,1-10.33,28.2c3.88,1.33,7.82,2.55,11.79,3.69a149.53,149.53,0,0,0,19.14,4.2C272.8,358.6,273.84,355.66,274.69,353.52Z"/><path class="cls-1" d="M336.51,234.46c-.11-2.42-.31-4.84-.56-7.25l-1.95-.66c-11.57-3.93-27.08-7.07-38.65-14,1.61,11.56,1.83,23.5,1.8,35.18,7.16,1.93,14.34,3.82,21.54,5.59,5.94,1.46,11.86,2.73,17.77,3.86C336.8,249.6,336.84,242,336.51,234.46Z"/><path class="cls-1" d="M326,320.3c1.47-5,2.74-10.1,3.92-15.19-10.28-1.73-20.51-3.8-30.64-6.35-1.48-.37-2.95-.78-4.43-1.17q-.65,5.79-1.52,11.57c-.47,3-1.84,10.31-3.95,19.13a181,181,0,0,0,32.71,4.21C323.45,328.46,324.77,324.4,326,320.3Z"/><path class="cls-1" d="M367.64,309.55c-.44,1.39-.92,2.75-1.42,4.09,1.36-1.41,2.71-2.84,4-4.29C369.37,309.45,368.51,309.51,367.64,309.55Z"/><path class="cls-2" d="M223.05,492.55c-1-18.44-1.78-36.95-.48-55.39,1-13.55,2.1-30.77,8.32-43.83-1.91-.4-3.81-.84-5.66-1.4-5.77,12.89-7.43,27.59-8.9,41.43-1.89,17.81-3.73,35.64-2.59,53.58,1.17,18.36,6.13,37.73,16.11,53.55-.46-1.43-.88-2.82-1.26-4.16C224.59,522.13,223.82,507.2,223.05,492.55Z"/><path class="cls-3" d="M215.54,388.11a50.52,50.52,0,0,1-13-9.27,97.08,97.08,0,0,1-8.35-9.42c-11.11,6.33-22.31,13.37-30.73,23-10,11.45-12.39,25.56-19.67,38.27a4.69,4.69,0,0,1-8.48-1.11c-4.25-16.13,6.06-34.72,16.17-46.65,9.78-11.53,22.46-19.71,37.06-21.94-7.09-12.38-9.77-26-7.7-42.12A120.75,120.75,0,0,1,185.43,298C162,307,138,315.13,118,330.92c-26.57,21-34.16,49.8-31.89,82.63,2.12,30.62,10.46,62.64,32.69,85,22.4,22.54,52.54,27.57,80.77,13.38a7.53,7.53,0,0,1,2-.63,177.56,177.56,0,0,1-3.24-45C199.44,441.16,200.68,409.86,215.54,388.11Z"/><path class="cls-2" d="M101.39,324c13.48-11.8,29.22-20.24,45.63-27.24,3-1.28,6.09-2.68,9.28-4.09-16.75,1.76-33.08,6.12-48,14.84C86.45,320.31,70.11,342,65.46,367.12c.51.44,1,.89,1.57,1.31a32.41,32.41,0,0,0,5.44,3.22C77,353.79,86,337.43,101.39,324Z"/><path class="cls-4" d="M177.26,284.39a67.66,67.66,0,0,1,14.61-2.91c1.41-3,2.95-6,4.56-8.89-5.86-2-11.62-5.33-17.74-6.44-10.46-1.9-21.21-1.6-31.75-.58a242.13,242.13,0,0,0-32.36,4.91c-7.37,1.76-14.79,6.9-22.38,6.47a2.41,2.41,0,0,1-2.28-3c3-18.53,42.93-21.15,57-23.29,12.08-1.84,24.16-2.8,36.28-.81,6.91,1.14,16.4,3,22.73,7.69,1-1.42,2-2.85,3.06-4.24a194.72,194.72,0,0,1,18.67-21.06C206.38,213.2,181.08,206.2,152.83,212c-25.57,5.24-52,15.63-72.56,32C59.5,260.52,43.86,285.05,44,312.26c0,14.06,4.09,27.89,10.68,40.23a57.77,57.77,0,0,0,8.2,12.06C69.26,309.23,126.47,284.84,177.26,284.39Z"/><path class="cls-2" d="M386.11,462a242.41,242.41,0,0,1-25.24-32.14,234,234,0,0,1-20.57-38.94c-3.79-9.13-7.53-18.53-8.53-28.27-1.89,1.72-3.79,3.41-5.77,5,13,32.49,28.2,66.34,53,91.48,6.65,6.73,13.31,12.17,20.69,16.08A140.66,140.66,0,0,1,386.11,462Z"/><path class="cls-3" d="M487.31,314.25c-23.26-18.18-52.77-30.7-81.93-35.92-4.32,15.31-13,28.71-23.92,40.5,15.92,4.25,29.28,27.26,37.11,38.42q12.17,17.34,22.78,35.69c5.66,9.8,14.51,21.4,14.16,33.09-.14,4.8-5.94,9.21-10.41,6-9.14-6.62-13-18.48-18.43-28.14q-8.37-15-17.7-29.34c-6.45-9.9-13.05-19.86-20.26-29.24-4.83-6.28-11.23-11.39-16.32-17.37a372.86,372.86,0,0,1-35,30c3.42,24.42,16.22,48.12,29.57,68.36,14,21.18,31.35,42.3,54.15,54.17a2.24,2.24,0,0,1,1.19,1.37c1,.09,1.94.17,2.94.22,16.27.84,34.09,1.86,49.76-3.25,16.41-5.35,26.31-18.86,34.7-33.13,8.73-14.82,15.65-28.45,15.69-46,0-16.08.06-35.9-6.61-50.85C512.61,335,499,323.39,487.31,314.25Z"/><path class="cls-4" d="M311.89,377.13c-.41.23-.8.46-1.22.68a156.81,156.81,0,0,1-36.12,14l-1.91.43a163.65,163.65,0,0,0,.48,40.43c2.08,14.67,10.59,28.48,11.34,43,.31,6-6.88,7.57-10.79,4.46-12.35-9.82-15.75-31.48-17.63-46.34a106.36,106.36,0,0,1,2.22-39.29,97.53,97.53,0,0,1-20.92-.09c-2,13.57-6.44,26.91-7.44,40.8-1.14,15.8-.74,31.67,0,47.47.72,15.11,1.1,30.55,4.33,45.39a78.16,78.16,0,0,0,6.93,20.11c2.68,5.05,6.7,9.18,9.45,14.12q2.37,1.59,4.9,3c26.49,14.58,61,4.79,81.41-15.8,20.63-20.76,26.89-49.31,28.69-77.52-.71-.75-1.42-1.5-2.12-2.27C339.12,443.08,324.69,410.37,311.89,377.13Z"/><path class="cls-3" d="M378.77,107.31C356.48,129,337.31,156,326.09,185.13l3.19.25a150.6,150.6,0,0,1,21.32,3.16c3.74-14.56,14-28.69,22.58-40.28,10-13.48,19.29-21.07,36.19-24.46,3.84-.76,8.65,3.59,5.72,7.45-4.38,5.79-9.67,7.11-15.77,10.62-6.69,3.85-11.39,10.75-15.88,16.85-7.58,10.32-13.37,22.86-21.18,33.21a74.62,74.62,0,0,1,21.09,11.39c7-32.78,48.83-50.17,77.83-56.94,18.4-4.29,38.3-8.14,56.82-6.28a7.84,7.84,0,0,1-1.29-2.39c-4-12-4.8-23-12.43-33.8a73.32,73.32,0,0,0-26.68-22.5,90.33,90.33,0,0,0-10.46-4.51c-16.47-2.12-31.42-2.31-47.47,3.54C404.12,86.11,390.56,95.83,378.77,107.31Z"/><path class="cls-2" d="M386.75,232.37a51.08,51.08,0,0,0-17.6-20.24,112.38,112.38,0,0,1,4.38,18.48A107.68,107.68,0,0,0,386.75,232.37Z"/><path class="cls-4" d="M201,185.79c15.69,5.86,35.39,15.19,45.35,30,5.37-4.34,10.83-8.54,16.44-12.54l.21-.14c-7.95-7.8-12.08-20.77-16.51-30.09-6.29-13.21-17.59-31.15-13-46.3a3.48,3.48,0,0,1,5.75-1.52C249,134.66,254,150.9,260,163c3.23,6.56,6.33,13.19,9.71,19.67,2.11,4,4.85,7.43,7.45,11A61.31,61.31,0,0,1,295,186.08c.78-.18,1.57-.3,2.35-.44-.47-11.07,5.09-23.77,9.23-32.89,6.77-14.9,16-28.5,25.32-41.91.82-1.17,1.64-2.32,2.46-3.47C300,69.51,245.23,64.9,200.24,86.66c-21.43,10.37-39.71,26.09-51.72,46.8-8.53,14.7-12.07,29.81-13.25,45.61C156.48,174.08,181.16,178.4,201,185.79Z"/><path class="cls-2" d="M226.26,206.34C216,198.86,203.7,193.5,192.34,189.8c-19.25-6.27-37.67-6.24-57.34-6.25-.21,4.52-.26,9.09-.19,13.73C166.52,188.15,200.13,188.68,226.26,206.34Z"/><path class="cls-2" d="M312.33,179.28c-.4,1.79-.66,3.51-.93,5.19,3.39,0,6.79.14,10.16.35,2.89-17.19,13.28-32.27,23.13-46.3,10.27-14.62,21.4-28.85,34.71-40.83,12.45-11.22,29.15-21.78,46.75-26.92a126.82,126.82,0,0,0-28,4.08c-27.31,7.21-42.51,27.1-57.75,49.37-7.49,10.95-14.95,22.05-20.66,34.06A100.91,100.91,0,0,0,312.33,179.28Z"/><path class="cls-1" d="M392.47,258.92a57,57,0,0,0-2.69-19,94,94,0,0,1-15.29-1.51,174.43,174.43,0,0,1,.57,24.28c5.65.61,11.31,1.18,17,1.69C392.29,262.6,392.42,260.78,392.47,258.92Z"/><path class="cls-4" d="M561.8,201.06c-7.09-7.7-15.36-14-25.85-17.85-16-5.9-34.48-5.37-51.27-3.9-33.48,2.92-63.72,15.17-88.4,37.79a66.44,66.44,0,0,1,5.2,9.14c9.81-5.77,26-7.5,34.14-9,17.15-3.07,38.43-6.17,54.42,2.32,5.21,2.77,2.19,9.67-2.76,10.17-15.93,1.62-31.57-.57-47.62,2.19-11.29,1.93-22.45,4.57-33.66,6.89a75,75,0,0,1,2,25.76c-.06.63-.16,1.25-.23,1.88A171.22,171.22,0,0,1,515.1,314.12a120.26,120.26,0,0,1,10.32,11.08c10.46-7.53,20.23-13,27.22-24.84,8.13-13.75,12.35-29.72,13.68-45.56C567.72,238.07,567.13,218.47,561.8,201.06Z"/><path class="cls-2" d="M379.81,297a75.73,75.73,0,0,0,10.85-24.47,160.19,160.19,0,0,1-16.22-.48c-.3,3.36-.67,6.67-1.11,9.89-.85,6.32-1.91,13-3.45,19.53a19.76,19.76,0,0,0,8.71-3.84A3.47,3.47,0,0,1,379.81,297Z"/><path class="cls-5" d="M563.53,318.15c10.86-14.24,17.31-31.8,20.27-49.36,6-35.56,2.33-79.78-22.75-107.76a61.61,61.61,0,0,0-32.18-19.1,7,7,0,0,0,2.76-4.22c6.39-26.34-18.09-55.55-39-68.09-27-16.18-61.11-16.7-91.17-10.66-23.91,4.82-41,17.07-55.6,33.81-37.36-44-103.34-46.47-152.23-20.91-23.37,12.22-44.67,31.13-57.68,54.23-12.19,21.66-19.35,50.28-12,74.7-24,8.68-46.27,22.58-62.42,38.29-21.59,21-36.26,51.84-31.68,82.41a110.22,110.22,0,0,0,18.57,46c4.45,6.19,13,15.17,21.63,16.35a165.39,165.39,0,0,0-.14,41.37c4,35.75,17.44,71.57,46.78,94.1,24.93,19.16,62.14,25.4,89.09,7.12a104.74,104.74,0,0,0,13.55,26.58c34,47.8,102.3,44.79,137.7-.15a115.71,115.71,0,0,0,24.33-66.67c8.87,6.66,18.77,11.71,30,13.59a179.48,179.48,0,0,0,59.72-.2c18.86-3.45,33.8-13.84,45.24-29,10.91-14.44,22.52-32.7,26.49-50.52,4.08-18.39,1.81-38.83-.79-57.27a73.2,73.2,0,0,0-7.62-24.1C546.27,337.06,556.33,327.6,563.53,318.15ZM544.19,170.84a60.74,60.74,0,0,1,11,14.48c-18.93-12.17-44.54-14.74-67.12-12.95-34.43,2.71-71.29,14.32-94.4,41.18-1.17-1.48-2.4-2.92-3.71-4.29l0,0c9.53-9.55,18-20,29.34-27.66,11.82-7.95,25.18-13,39-16.3,14.88-3.62,30.29-5.49,45.54-6.72C519.35,157.29,532.59,159.78,544.19,170.84ZM197,331a43.18,43.18,0,0,1,0-4.69,100.48,100.48,0,0,1,4.26-23c5.17,3.89,11.17,6.82,17.1,9.49a230.11,230.11,0,0,1-9.8,26.39A110.91,110.91,0,0,1,197,331Zm8.77,14.72q-1.39,3.33-2.75,6.69a54.22,54.22,0,0,1-4.57-11.82A89.36,89.36,0,0,0,205.76,345.72Zm83.66-100.11-5.5-1.49c-5.31-1.46-10.67-2.82-15.87-4.61-1.12-.39-2.24-.8-3.35-1.22.15-5.54.12-11-.1-16.46,7.56-5.77,15.14-11.07,23.35-14.9.69.67,1.41,1.31,2.16,1.93C289,221,289.17,233.3,289.42,245.61Zm.16,7.84c.23,11.65.34,23.29-.59,34.83q-14.22-3.91-28.16-8.8a341.34,341.34,0,0,0,3.61-34.31A241.38,241.38,0,0,0,289.58,253.45Zm-1.3,42.38A251,251,0,0,1,283,326.88q-6.3-1.47-12.47-3.07c-5.74-1.49-11.73-3.07-17.78-4.84q1.51-5.75,2.79-11.5c1.5-6.8,2.88-13.78,4.1-20.86Q273.79,291.77,288.28,295.83Zm-31.62-61.21c-1.09-.69-2.91-2-4.5-2.92,1.69-1.42,3.41-2.79,5.13-4.16Q257,231.08,256.66,234.62Zm-.52,6.73c-.87,11.83-1.59,23.64-2.82,35.43q-9.13-3.37-18.12-7.16c-.68-.28-1.58-.62-2.64-1,.48-5.9.48-11.89-.95-17.22a196.8,196.8,0,0,1,16.33-16.09C249.59,237.38,252.51,239.41,256.14,241.35Zm-24.26,33.84c5.27,2.4,10.58,4.72,16,6.89,1.55.63,3.12,1.19,4.68,1.79-.83,6.66-1.85,13.31-3.22,20-.91,4.45-2,8.81-3.14,13.13-6.82-2.14-13.64-4.55-20.21-7.36a210.47,210.47,0,0,0,5.16-28.06C231.34,279.51,231.61,277.37,231.88,275.19Zm12.48,48.2a263.91,263.91,0,0,1-10.19,28.16,157.65,157.65,0,0,1-19.26-8.71,193.56,193.56,0,0,0,9.48-27.4Q234.23,319.76,244.36,323.39ZM225.28,265.9c-1.37-.56-2.75-1.16-4-1.79,1.36-1.86,2.78-3.68,4.23-5.49C225.32,261,225.3,263.47,225.28,265.9Zm-.23,6.13.14.07c0,1.27-.1,2.54-.21,3.78a209.87,209.87,0,0,1-5.07,31,113.52,113.52,0,0,1-16.63-9.66,134.16,134.16,0,0,1,14.36-28l.37-.53C220.34,269.93,222.82,271,225.05,272Zm-13.26,77.23A151.82,151.82,0,0,0,231.35,358c-2.32,5.13-4.74,10.23-7.33,15.29a45,45,0,0,1-17.51-15.14A89.79,89.79,0,0,0,211.79,349.26Zm25.73,10.91c5.1,1.72,10.13,3.23,14.9,4.59s10.31,2.67,16.07,3.69a32.2,32.2,0,0,1-5.13,7.54c-11.64,2.15-23.68,2.51-34.54-.82l-.12,0A141.06,141.06,0,0,0,237.52,360.17Zm14.87-2.64c-4-1.14-7.91-2.36-11.79-3.69a205,205,0,0,0,10.33-28.2c5.83,1.95,11.7,3.77,17.64,5.34,4.18,1.11,8.39,2.11,12.61,3a190.4,190.4,0,0,1-6.49,19.5c-.85,2.14-1.89,5.08-3.16,8.21A149.53,149.53,0,0,1,252.39,357.53Zm22.92,12c2.93.38,5.9.67,8.89.85-3.67,1.27-7.51,2.46-11.45,3.5C273.63,372.53,274.48,371.06,275.31,369.51Zm3.31-7a203.78,203.78,0,0,0,9-27.23c9.31,1.84,18.7,3.31,28.14,4.3l3.74.37c-1.32,4.06-3.39,11.44-6.08,16.64l-.09.05c-2.45,1.3-4.87,2.61-7.31,3.89a70.57,70.57,0,0,1-15.09,2.35A100.58,100.58,0,0,1,278.62,362.54Zm10.73-34.25c2.11-8.82,3.48-16.09,3.95-19.13q.88-5.78,1.52-11.57c1.48.39,2.95.8,4.43,1.17,10.13,2.55,20.36,4.62,30.64,6.35-1.18,5.09-2.45,10.17-3.92,15.19-1.2,4.1-2.52,8.16-3.91,12.2A181,181,0,0,1,289.35,328.29Zm29.34-75c-7.2-1.77-14.38-3.66-21.54-5.59,0-11.68-.19-23.62-1.8-35.18,11.57,6.95,27.08,10.09,38.65,14l1.95.66c.25,2.41.45,4.83.56,7.25.33,7.57.29,15.14-.05,22.7C330.55,256,324.63,254.76,318.69,253.3ZM336,265.78q-.4,5.3-1,10.58c-.83,7.14-2,14.23-3.39,21.27q-18.14-3-35.95-7.59c1-11.32,1.45-22.7,1.51-34.07,0-.16,0-.33,0-.49l1.12.3C310.42,259.22,323.09,262.8,336,265.78Zm-41.85-60.6c-.05-.23-.09-.47-.13-.7a59.43,59.43,0,0,1,19.87-3.62c6.08,0,12.42,0,18.76.5.65,6,1.59,12,2.41,18C321.34,215,307.09,211.37,294.11,205.18ZM324.23,343.5c.43-1,.82-2,1.23-3a89.69,89.69,0,0,0,10.24.12c-5.09,4.09-10.12,8.13-14.94,12.18C322.16,349.27,323.27,345.79,324.23,343.5Zm4.3-11a243.66,243.66,0,0,0,7.86-26.3q6.54,1,13.11,1.79c3.85.47,8.14,1.16,12.43,1.46-1.42,6.21-3.57,12.29-7.39,14.8a1.26,1.26,0,0,0-.51,1.06q-2.61,2.32-5.29,4.59A97.9,97.9,0,0,1,328.53,332.49Zm9.54-33.74q.66-3.19,1.25-6.4,2.28-12.45,3.34-25.08c8.31,1.76,16.69,3.19,25,4.13a198.27,198.27,0,0,1-3.28,24.5c-.34,1.69-.68,3.83-1.07,6.16C354.85,302.21,345.41,300.11,338.07,298.75Zm24.11-89.48c1,6.6,2.1,13.06,3.09,19.51-7.53-1.9-14.95-4.32-22.4-6.79a130.52,130.52,0,0,0-2.65-19.83,77.12,77.12,0,0,1,22,6.09A3.14,3.14,0,0,0,362.18,209.27Zm-18.92,20.45c7.65,2.62,15.34,5.15,23.15,7.05a176.1,176.1,0,0,1,1.69,25.17c-8.32-1-16.6-2.15-24.87-3.57.27-5.42.38-10.85.3-16.28C343.48,238.11,343.41,234,343.26,229.72Zm24.38,79.83c.87,0,1.73-.1,2.58-.2-1.29,1.45-2.64,2.88-4,4.29C366.72,312.3,367.2,310.94,367.64,309.55Zm2.24-8.11c1.54-6.54,2.6-13.21,3.45-19.53.44-3.22.81-6.53,1.11-9.89a160.19,160.19,0,0,0,16.22.48A75.73,75.73,0,0,1,379.81,297a3.47,3.47,0,0,0-1.22.63A19.76,19.76,0,0,1,369.88,301.44Zm-.73-89.31a51.08,51.08,0,0,1,17.6,20.24,107.68,107.68,0,0,1-13.22-1.76A112.38,112.38,0,0,0,369.15,212.13Zm5.91,50.58a174.43,174.43,0,0,0-.57-24.28,94,94,0,0,0,15.29,1.51,57,57,0,0,1,2.69,19c-.05,1.86-.18,3.68-.38,5.48C386.37,263.89,380.71,263.32,375.06,262.71ZM467.14,76.9a90.33,90.33,0,0,1,10.46,4.51,73.32,73.32,0,0,1,26.68,22.5c7.63,10.8,8.48,21.77,12.43,33.8A7.84,7.84,0,0,0,518,140.1c-18.52-1.86-38.42,2-56.82,6.28-29,6.77-70.82,24.16-77.83,56.94a74.62,74.62,0,0,0-21.09-11.39c7.81-10.35,13.6-22.89,21.18-33.21,4.49-6.1,9.19-13,15.88-16.85,6.1-3.51,11.39-4.83,15.77-10.62,2.93-3.86-1.88-8.21-5.72-7.45-16.9,3.39-26.22,11-36.19,24.46-8.57,11.59-18.84,25.72-22.58,40.28a150.6,150.6,0,0,0-21.32-3.16l-3.19-.25c11.22-29.1,30.39-56.11,52.68-77.82,11.79-11.48,25.35-21.2,40.9-26.87C435.72,74.59,450.67,74.78,467.14,76.9ZM340.43,124.22c15.24-22.27,30.44-42.16,57.75-49.37a126.82,126.82,0,0,1,28-4.08c-17.6,5.14-34.3,15.7-46.75,26.92-13.31,12-24.44,26.21-34.71,40.83-9.85,14-20.24,29.11-23.13,46.3-3.37-.21-6.77-.36-10.16-.35.27-1.68.53-3.4.93-5.19a100.91,100.91,0,0,1,7.44-21C325.48,146.27,332.94,135.17,340.43,124.22Zm-191.91,9.24c12-20.71,30.29-36.43,51.72-46.8,45-21.76,99.77-17.15,134.14,20.71-.82,1.15-1.64,2.3-2.46,3.47-9.3,13.41-18.55,27-25.32,41.91-4.14,9.12-9.7,21.82-9.23,32.89-.78.14-1.57.26-2.35.44a61.31,61.31,0,0,0-17.91,7.55c-2.6-3.57-5.34-7-7.45-11-3.38-6.48-6.48-13.11-9.71-19.67C254,150.9,249,134.66,239.22,125.21a3.48,3.48,0,0,0-5.75,1.52c-4.61,15.15,6.69,33.09,13,46.3,4.43,9.32,8.56,22.29,16.51,30.09l-.21.14c-5.61,4-11.07,8.2-16.44,12.54-10-14.82-29.66-24.15-45.35-30-19.8-7.39-44.48-11.71-65.69-6.72C136.45,163.27,140,148.16,148.52,133.46ZM135,183.55c19.67,0,38.09,0,57.34,6.25,11.36,3.7,23.63,9.06,33.92,16.54-26.13-17.66-59.74-18.19-91.45-9.06C134.74,192.64,134.79,188.07,135,183.55ZM54.63,352.49C48,340.15,44,326.32,44,312.26,43.86,285.05,59.5,260.52,80.27,244c20.54-16.35,47-26.74,72.56-32,28.25-5.8,53.55,1.2,74.81,20.25A194.72,194.72,0,0,0,209,253.31c-1.06,1.39-2.05,2.82-3.06,4.24-6.33-4.65-15.82-6.55-22.73-7.69-12.12-2-24.2-1-36.28.81-14.05,2.14-54,4.76-57,23.29a2.41,2.41,0,0,0,2.28,3c7.59.43,15-4.71,22.38-6.47a242.13,242.13,0,0,1,32.36-4.91c10.54-1,21.29-1.32,31.75.58,6.12,1.11,11.88,4.4,17.74,6.44-1.61,2.92-3.15,5.87-4.56,8.89a67.66,67.66,0,0,0-14.61,2.91c-50.79.45-108,24.84-114.43,80.16A57.77,57.77,0,0,1,54.63,352.49ZM67,368.43c-.55-.42-1.06-.87-1.57-1.31,4.65-25.09,21-46.81,42.89-59.66,14.87-8.72,31.2-13.08,48-14.84-3.19,1.41-6.3,2.81-9.28,4.09-16.41,7-32.15,15.44-45.63,27.24C86,337.43,77,353.79,72.47,371.65A32.41,32.41,0,0,1,67,368.43ZM201.55,511.31a7.53,7.53,0,0,0-2,.63c-28.23,14.19-58.37,9.16-80.77-13.38-22.23-22.37-30.57-54.39-32.69-85-2.27-32.83,5.32-61.62,31.89-82.63C138,315.13,162,307,185.43,298a120.75,120.75,0,0,0-4.62,20.84c-2.07,16.11.61,29.74,7.7,42.12-14.6,2.23-27.28,10.41-37.06,21.94-10.11,11.93-20.42,30.52-16.17,46.65a4.69,4.69,0,0,0,8.48,1.11C151,418,153.4,403.85,163.43,392.4c8.42-9.61,19.62-16.65,30.73-23a97.08,97.08,0,0,0,8.35,9.42,50.52,50.52,0,0,0,13,9.27c-14.86,21.75-16.1,53.05-17.23,78.23A177.56,177.56,0,0,0,201.55,511.31Zm12.19-24.37c-1.14-17.94.7-35.77,2.59-53.58,1.47-13.84,3.13-28.54,8.9-41.43,1.85.56,3.75,1,5.66,1.4-6.22,13.06-7.36,30.28-8.32,43.83-1.3,18.44-.5,36.95.48,55.39.77,14.65,1.54,29.58,5.54,43.78.38,1.34.8,2.73,1.26,4.16C219.87,524.67,214.91,505.3,213.74,486.94Zm123.2,62.54c-20.46,20.59-54.92,30.38-81.41,15.8q-2.53-1.39-4.9-3c-2.75-4.94-6.77-9.07-9.45-14.12a78.16,78.16,0,0,1-6.93-20.11c-3.23-14.84-3.61-30.28-4.33-45.39-.76-15.8-1.16-31.67,0-47.47,1-13.89,5.42-27.23,7.44-40.8a97.53,97.53,0,0,0,20.92.09A106.36,106.36,0,0,0,256,433.78c1.88,14.86,5.28,36.52,17.63,46.34,3.91,3.11,11.1,1.54,10.79-4.46-.75-14.55-9.26-28.36-11.34-43a163.65,163.65,0,0,1-.48-40.43l1.91-.43a156.81,156.81,0,0,0,36.12-14c.42-.22.81-.45,1.22-.68,12.8,33.24,27.23,65.95,51.62,92.56.7.77,1.41,1.52,2.12,2.27C363.83,500.17,357.57,528.72,336.94,549.48ZM379,459.14c-24.84-25.14-40.08-59-53-91.48,2-1.6,3.88-3.29,5.77-5,1,9.74,4.74,19.14,8.53,28.27a234,234,0,0,0,20.57,38.94A242.41,242.41,0,0,0,386.11,462a140.66,140.66,0,0,0,13.62,13.22C392.35,471.31,385.69,465.87,379,459.14Zm146.34-59.49c0,17.58-7,31.21-15.69,46C501.3,460,491.4,473.46,475,478.81c-15.67,5.11-33.49,4.09-49.76,3.25-1-.05-2-.13-2.94-.22a2.24,2.24,0,0,0-1.19-1.37c-22.8-11.87-40.19-33-54.15-54.17-13.35-20.24-26.15-43.94-29.57-68.36a372.86,372.86,0,0,0,35-30c5.09,6,11.49,11.09,16.32,17.37,7.21,9.38,13.81,19.34,20.26,29.24q9.34,14.36,17.7,29.34c5.41,9.66,9.29,21.52,18.43,28.14,4.47,3.24,10.27-1.17,10.41-6,.35-11.69-8.5-23.29-14.16-33.09q-10.61-18.31-22.78-35.69c-7.83-11.16-21.19-34.17-37.11-38.42,10.89-11.79,19.6-25.19,23.92-40.5,29.16,5.22,58.67,17.74,81.93,35.92,11.69,9.14,25.3,20.74,31.46,34.55C525.44,363.75,525.41,383.57,525.38,399.65Zm0-74.45a120.26,120.26,0,0,0-10.32-11.08,171.22,171.22,0,0,0-107.35-47.64c.07-.63.17-1.25.23-1.88a75,75,0,0,0-2-25.76c11.21-2.32,22.37-5,33.66-6.89,16-2.76,31.69-.57,47.62-2.19,5-.5,8-7.4,2.76-10.17-16-8.49-37.27-5.39-54.42-2.32-8.17,1.47-24.33,3.2-34.14,9a66.44,66.44,0,0,0-5.2-9.14c24.68-22.62,54.92-34.87,88.4-37.79,16.79-1.47,35.25-2,51.27,3.9,10.49,3.88,18.76,10.15,25.85,17.85,5.33,17.41,5.92,37,4.52,53.74-1.33,15.84-5.55,31.81-13.68,45.56C545.65,312.19,535.88,317.67,525.42,325.2Z"/></svg>