<svg id="Layer_1" data-name="Layer 1" xmlns="http://www.w3.org/2000/svg" viewBox="0 0 600 600"><defs><style>.cls-1{fill:#f7941e;}.cls-2{fill:#231f20;}</style></defs><title>doodle</title><path class="cls-1" d="M133.74,91.76c-18.26,6.51-36.23,15.78-50.21,29.42C53.91,150.1,42.84,198.36,39.7,239.51c11.47-3.31,20.71-16.44,29.43-23.21a60.37,60.37,0,0,1,31.27-12.66c16.21-1.77,32.09,2,46.45,9.08-5.79-31.68.26-64.9,11-95.2,4.29-12.07,9.09-24.23,14.31-36.15C159.46,85.05,146.12,87.34,133.74,91.76Z"/><path class="cls-1" d="M379.4,460.14c2.58,19.59-9.64,43.67-18.85,58.29a222.94,222.94,0,0,1-16.09,22.22c-4.55,5.56-19.86,17.44-16.54,25.51,6.57,15.9,45.45,1.82,56.26-1.67,34-11,65.48-30.5,88.37-58.18A134.6,134.6,0,0,0,498,458.06c2.57-8.95,3-18,3.49-27a251.81,251.81,0,0,1-60.24,22.72A230.31,230.31,0,0,1,379.4,460.14Z"/><path class="cls-1" d="M519.82,305.3c-8.29,5.7-17.58,10.24-26.12,14.57A400.75,400.75,0,0,1,442,341.72a393.85,393.85,0,0,1-116.64,21.1c-3.14.08-6.3.12-9.46.14,12,17,10.19,43.17,16.76,61.92,3.94,11.25,13.24,10.64,23.62,11.77a216.86,216.86,0,0,0,24.45,1.21,220.37,220.37,0,0,0,49.93-6c32.43-7.75,66.92-23.15,90.94-46.87C536,370.73,538.4,352.31,533,333.23,530.18,323.53,524.44,314.53,519.82,305.3Z"/><path class="cls-1" d="M294.11,81.9c5-7.66,10.36-16.45,16.61-24.37-12.49-7.43-25.72-10.46-41-11.71-16.32-1.34-36.08-1.84-51.21,5.26C203.82,58,198.34,76.15,192.13,90c-7.36,16.39-14.34,33-19.51,50.22-9.46,31.6-12.48,67.55,3,97.85,7.5,14.62,19,26,32.37,35.31,7.49,5.23,15.65,9.39,23.42,14.14.12-1.21.24-2.42.35-3.61a562.94,562.94,0,0,1,8.44-58.24c3-14.87,6.37-30.09,10.54-45.14C256.86,145.34,275.07,111.11,294.11,81.9Z"/><path class="cls-1" d="M447,314.63a365.57,365.57,0,0,0,47.47-22.15c12.94-7.2,26.56-14.51,26.73-31.2.14-15.12-6.6-31.76-11.86-45.77a290.93,290.93,0,0,0-17.43-37.84,297.21,297.21,0,0,0-52.15-68.83C419.27,88.71,393.17,66,365.31,57.12,344.73,50.58,334.25,61,322.77,76.7a356.52,356.52,0,0,0-25.26,40.18c-12.22,22.57-20.65,46.57-30.71,70-3.42,12.66-6.57,25.4-9,38.36q-3.07,16.56-5.31,33.27a5.68,5.68,0,0,1,.76,3.48,9.39,9.39,0,0,1-1.4,5.29c-.2.34-.4.66-.61,1q-.93,7.85-1.64,15.7c-1.23,13.69-6.39,39,4.75,50,10.59,10.43,37.92,6.82,51.65,6.81A407.23,407.23,0,0,0,351.81,338,391.13,391.13,0,0,0,447,314.63Z"/><path class="cls-2" d="M538.33,286.74c16.42-27.32-.63-66-12.05-92.25C499,131.72,448.21,72.82,385.65,43.15c-15.88-7.53-34.83-12.83-51.72-5.33a43.19,43.19,0,0,0-6.39,3.51c-9.66-11.3-28.06-14.49-42.1-16.71a164.15,164.15,0,0,0-61.18,1.46c-18.79,4.19-32.17,14.73-41,31.78-.67,1.3-1.28,2.65-1.94,4-19.94-.75-42.63,6.79-60.84,13.49-20.36,7.5-39.65,18.06-54.79,33.85-34.41,35.91-46.13,93.3-48.34,141.28-.21,4.38,3.47,9.62,7.94,10.44,10.78,2,20.54.61,30.18-4.9C67,249.4,74.56,238,85.63,231c22.23-14,47,.16,69.25,8.36,13,29.61,43.31,55.7,75,64.74-.72,11.42-.31,23,4.18,33.21,5.86,13.35,17.73,19.62,31.6,22A248.92,248.92,0,0,0,294,362.45c1.29,3,3.58,5.77,5.19,8.8,4.31,8.13,6.47,17.15,8.1,26.16,2.8,15.51,1.84,39,14.36,50.46,8.41,7.69,23.48,10.27,37.43,11.33a46.61,46.61,0,0,1-.81,14.38c-2.46,10.73-7.73,20.59-13.4,29.93a191.55,191.55,0,0,1-22,29.46c-5.88,6.46-12.94,12.58-15.88,21.09-5.57,16.1,5.24,32.41,20.52,37.85,19.95,7.1,45.87-.84,65-6.85,38.77-12.16,75.41-34.16,100.73-66.35a160.41,160.41,0,0,0,28.21-54.19c4.29-14.73,8.26-33.73,4.86-49.76a116,116,0,0,0,22.48-23.21c12.54-17.61,14.33-39.88,9.57-60.5C555.06,316.67,548.37,299.35,538.33,286.74Zm-391.48-74c-14.36-7.07-30.24-10.85-46.45-9.08A60.37,60.37,0,0,0,69.13,216.3c-8.72,6.77-18,19.9-29.43,23.21,3.14-41.15,14.21-89.41,43.83-118.33,14-13.64,32-22.91,50.21-29.42,12.38-4.42,25.72-6.71,38.44-10.39-5.22,11.92-10,24.08-14.31,36.15C147.11,147.82,141.06,181,146.85,212.72Zm93.4,12.95a562.94,562.94,0,0,0-8.44,58.24c-.11,1.19-.23,2.4-.35,3.61-7.77-4.75-15.93-8.91-23.42-14.14-13.37-9.32-24.87-20.69-32.37-35.31-15.53-30.3-12.51-66.25-3-97.85C177.79,123,184.77,106.39,192.13,90c6.21-13.85,11.69-32,26.39-38.92,15.13-7.1,34.89-6.6,51.21-5.26,15.27,1.25,28.5,4.28,41,11.71-6.25,7.92-11.62,16.71-16.61,24.37-19,29.21-37.25,63.44-43.32,98.63C246.62,195.58,243.26,210.8,240.25,225.67ZM306,340.73c-13.73,0-41.06,3.62-51.65-6.81-11.14-11-6-36.32-4.75-50q.7-7.86,1.64-15.7c.21-.31.41-.63.61-1a9.39,9.39,0,0,0,1.4-5.29,5.68,5.68,0,0,0-.76-3.48q2.23-16.7,5.31-33.27c2.4-13,5.55-25.7,9-38.36,10.06-23.39,18.49-47.39,30.71-70A356.52,356.52,0,0,1,322.77,76.7c11.48-15.75,22-26.12,42.54-19.58,27.86,8.86,54,31.59,74.43,51.72a297.21,297.21,0,0,1,52.15,68.83,290.93,290.93,0,0,1,17.43,37.84c5.26,14,12,30.65,11.86,45.77-.17,16.69-13.79,24-26.73,31.2A365.57,365.57,0,0,1,447,314.63,391.13,391.13,0,0,1,351.81,338,407.23,407.23,0,0,1,306,340.73ZM498,458.06a134.6,134.6,0,0,1-25.49,48.25c-22.89,27.68-54.36,47.2-88.37,58.18-10.81,3.49-49.69,17.57-56.26,1.67-3.32-8.07,12-19.95,16.54-25.51a222.94,222.94,0,0,0,16.09-22.22c9.21-14.62,21.43-38.7,18.85-58.29a230.31,230.31,0,0,0,61.89-6.4A251.81,251.81,0,0,0,501.53,431C501.07,440,500.61,449.11,498,458.06ZM521.57,385c-24,23.72-58.51,39.12-90.94,46.87a220.37,220.37,0,0,1-49.93,6,216.86,216.86,0,0,1-24.45-1.21c-10.38-1.13-19.68-.52-23.62-11.77-6.57-18.75-4.79-44.93-16.76-61.92,3.16,0,6.32-.06,9.46-.14A393.85,393.85,0,0,0,442,341.72a400.75,400.75,0,0,0,51.73-21.85c8.54-4.33,17.83-8.87,26.12-14.57,4.62,9.23,10.36,18.23,13.13,27.93C538.4,352.31,536,370.73,521.57,385Z"/></svg>