<svg id="Layer_1" data-name="Layer 1" xmlns="http://www.w3.org/2000/svg" viewBox="0 0 600 600"><defs><style>.cls-1{fill:#fff;}.cls-2{fill:#939598;}.cls-3{fill:#231f20;}</style></defs><title>doodle</title><path class="cls-1" d="M117.88,402.05c8.13,2.22,17.12,6.21,25.46,7,5.36.48,5.7-.89,9.52-4.93,2.61-2.75,5.18-5.53,7.77-8.3l20.72-22.15q18.78-20.08,37.55-40.16Q296,251.09,373.05,168.76c6.37-6.8,15.79,1.88,12.17,9.39Q320.6,311.88,244.83,439.79c10.45,4.49,22,7.58,32.63,11.33,11.68,4.13,23.33,8.34,35,12.43q18.42,6.43,36.94,12.59c8.63,2.86,18.16,5,26.7,8.61,3.93-32.45,11.17-64.88,17.55-96.86A2909.52,2909.52,0,0,1,479,62c-21.66,25.65-45.84,49.52-70.21,71.95-2.83,2.6-8.06-.95-5.57-4.3,17.9-24.11,38.12-46.44,57.44-69.46Q427.29,85.63,393.89,111,302,180.78,210,250.49c-29.92,22.63-59.89,45.2-89.25,68.55C94.58,339.83,69.79,362.8,43,382.83c15.41,3,30.55,7.46,45.71,11.45Q103.32,398.11,117.88,402.05Z"/><path class="cls-2" d="M228.4,437.41q63.89-107.84,120.13-219.9-64,68.22-128,136.38l-41.52,44.23c-6.82,7.27-14.83,19.5-24.81,24.32,4.3,8.44,6.23,19.06,8.59,27.57q5.37,19.41,10.09,39,6.69,27.87,12.26,56,21.67-50,43.24-100A6.88,6.88,0,0,1,228.4,437.41Z"/><path class="cls-2" d="M241.8,453.45q-20.07,46.38-40,92.81c9.56-9.38,19.42-18.45,29.4-27.39,18.19-16.29,36.43-32.67,55.3-48.21q-10.91-4-21.74-8.22C257.44,459.6,249.12,457.15,241.8,453.45Z"/><path class="cls-3" d="M117.54,417.46c7.67,2.11,15.68,5.17,23.62,6.51.38,9.46,4.22,19.58,6.48,28.33q5.25,20.38,10.14,40.86,9.51,40.08,16.79,80.63c1.16,6.38,11.87,8.09,14.53,1.9l1.5-3.49a62.56,62.56,0,0,0,5.86-3.46c5.3-3.61,10.13-8,15-12.19,10.3-8.82,20.44-17.82,30.61-26.8,20.26-17.92,41.13-35.11,61.54-52.84q19,6.79,38.1,13.29c12,4.08,24.74,10,37.41,11.15a5.84,5.84,0,0,0,4.37-1.25c3.08-.19,6-1.89,6.8-5.4,6.93-30.86,11.09-62.49,17.19-93.54s12.76-62.14,19.89-93q21.21-91.81,48-182.21Q490.8,74.18,508.25,23.09c2.95-8.63-9-12.69-13.93-6.27A6.92,6.92,0,0,0,491,18.25Q398.32,88.57,305.7,159c-60,45.6-120.51,90.57-179.42,137.54-32.5,25.91-67.79,52.1-94.39,84.31a2.46,2.46,0,0,0-.22.34c-5.17.79-6.47,7.87-.81,10.2,18.59,7.64,38.35,12.37,57.64,17.88Q103,413.45,117.54,417.46ZM185.18,545q-5.61-28.11-12.26-56-4.69-19.59-10.09-39c-2.36-8.51-4.29-19.13-8.59-27.57,10-4.82,18-17.05,24.81-24.32l41.52-44.23q64-68.16,128-136.38-56.22,112-120.13,219.9a6.88,6.88,0,0,0,0,7.58Q206.87,495,185.18,545Zm46-26.12c-10,8.94-19.84,18-29.4,27.39q20-46.41,40-92.81c7.32,3.7,15.64,6.15,22.94,9s14.47,5.54,21.74,8.22C267.61,486.2,249.37,502.58,231.18,518.87ZM120.73,319c29.36-23.35,59.33-45.92,89.25-68.55Q302,180.86,393.89,111q33.41-25.37,66.79-50.79c-19.32,23-39.54,45.35-57.44,69.46-2.49,3.35,2.74,6.9,5.57,4.3C433.18,111.55,457.36,87.68,479,62a2909.52,2909.52,0,0,0-85.35,325.86c-6.38,32-13.62,64.41-17.55,96.86-8.54-3.63-18.07-5.75-26.7-8.61q-18.51-6.15-36.94-12.59c-11.69-4.09-23.34-8.3-35-12.43-10.62-3.75-22.18-6.84-32.63-11.33Q320.55,312,385.22,178.15c3.62-7.51-5.8-16.19-12.17-9.39q-77.1,82.32-154.15,164.71-18.77,20.08-37.55,40.16l-20.72,22.15c-2.59,2.77-5.16,5.55-7.77,8.3-3.82,4-4.16,5.41-9.52,4.93-8.34-.75-17.33-4.74-25.46-7q-14.55-4-29.14-7.77c-15.16-4-30.3-8.47-45.71-11.45C69.79,362.8,94.58,339.83,120.73,319Z"/></svg>