<svg id="Layer_1" data-name="Layer 1" xmlns="http://www.w3.org/2000/svg" viewBox="0 0 600 600"><defs><style>.cls-1{fill:#8dc63f;}.cls-2{fill:#009344;}.cls-3{fill:#231f20;}</style></defs><title>doodle</title><path class="cls-1" d="M358.91,466.59a439.31,439.31,0,0,0,15.71,46.21c5.62,14,12.91,27.14,18.74,41,2.32,5.51,4.3,12.74,3.15,18.93,6.94-1.9,13.72-4.3,17.11-10.47,6.18-11.26-1-24.39-7.29-33.76-6-8.84-11.9-17.26-16.09-27.14-4.43-10.46-7.37-21.42-10-32.44-5.61-23.6-11.07-47.31-14.92-71.27-3.74-23.24-5.88-46.79-4.48-70.33,1.18-19.94,4.24-41.16,12.55-59.6l-14.89-7.81C337.94,327,340.15,399.24,358.91,466.59Z"/><path class="cls-1" d="M429.79,72.5Q424,146.23,418,219.93c-1,11.95-1.72,23.94-2.88,35.87a63.53,63.53,0,0,1-1.15,7.76c5.72-3,11.45-6,16.91-9.45,5-3.18,10-6.54,12.69-12.07,2.35-4.85,2.87-10.37,3.17-15.67,1.45-25.08,1.87-50.34,2-75.45a705.53,705.53,0,0,0-3.4-76.37c-1.17-11.09-.69-26.59-8.82-35.21a28.2,28.2,0,0,0-10.06-6.55C432.51,44.14,430.74,60.3,429.79,72.5Z"/><path class="cls-2" d="M166.89,504.35c7.94,12.72,20.24,21.07,33.12,28.21a354.7,354.7,0,0,0,176.73,43.9c3.77-.07,8.51.37,10.78-3.26,1.38-2.21.93-5.71.52-8.06-1.06-6.22-4.29-11.7-7.06-17.27q-9.57-19.2-17.28-39.25a430.34,430.34,0,0,1-23.17-85c-9.3-57-6.41-115.77,11.42-170.85a4.26,4.26,0,0,1,6.17-2.51c10.06,5.26,20.11,10.55,30.18,15.79,4.95,2.58,11.57,7,15.51.72,2.43-3.89,2.6-9.18,3-13.59,1.91-23,3.68-46,5.52-69.07,3.24-40.66,6.87-81.31,9.79-122,.69-9.72,1.33-21.13-5.9-28.77-7.86-8.31-17.35-3.15-25.84,1a530.9,530.9,0,0,1-52.58,22.21c-35.15,12.91-71.17,23.34-106.14,36.76-9.19,3.52-18.57,7-27.4,11.41s-13.22,11.08-11,21.08c2,9.07,7.52,17.38,12.55,25a187.15,187.15,0,0,0,18.32,23.48,3.52,3.52,0,0,1,.28,4.58,4.27,4.27,0,0,1-1.71,3.49c-25.37,19.5-38.95,49.73-48.48,79.43a489.37,489.37,0,0,0-21.57,108.21c-2.63,31.33-3.14,63.81,1.36,95C156,478.72,159.5,492.54,166.89,504.35Z"/><path class="cls-3" d="M171.21,522.74c11,10.37,24.78,17.55,38.19,24.2a365.62,365.62,0,0,0,138.66,37.27Q360,585,372,585c4.32,0,9.3.36,13.72-.76a3.61,3.61,0,0,0,.95-.15c9.05-2.69,19.31-3.9,27.2-9.42,7-4.9,10.47-12.85,10.67-21.26.49-21.89-19.25-37.88-27-57.05-9.25-22.94-13.46-48.49-18.51-72.61-5.29-25.32-9.45-51-10-76.89a232,232,0,0,1,2.59-41.38c1.86-11.71,5.16-22.91,8.54-34.2l5,2.63c4.19,2.2,8.8,4.45,13.33,4.69a3.35,3.35,0,0,0,3.1.45c9.65-3.05,18.71-8.36,27.4-13.47,8-4.74,17-9.72,21.65-18.18,4-7.34,4.65-15.87,5-24.07.47-11.78.83-23.57,1.16-35.36.63-23.32.88-46.67,0-70-.82-22.37-2-45.39-6.35-67.41-3.54-17.93-18.39-26.59-35.28-28.28l-.87-.4c-9.1-3.83-17.81.09-26,4.19C377.71,31.31,367,36.23,356,40.7c-41.84,17.09-85.53,29-127.67,45.32-16.63,6.42-45.25,13-43.8,35.75.67,10.61,6.3,20.3,11.83,29.1a175.82,175.82,0,0,0,20.17,26c-21.6,17-35.13,41.09-44.8,66.56-11.89,31.31-19.53,64.53-24.18,97.65a501.06,501.06,0,0,0-3.86,102.77C145.57,471.85,149.77,502.47,171.21,522.74ZM360.85,327.3c-1.4,23.54.74,47.09,4.48,70.33,3.85,24,9.31,47.67,14.92,71.27,2.62,11,5.56,22,10,32.44,4.19,9.88,10.13,18.3,16.09,27.14,6.32,9.37,13.47,22.5,7.29,33.76-3.39,6.17-10.17,8.57-17.11,10.47,1.15-6.19-.83-13.42-3.15-18.93-5.83-13.84-13.12-27-18.74-41a439.31,439.31,0,0,1-15.71-46.21c-18.76-67.35-21-139.55-.4-206.7l14.89,7.81C365.09,286.14,362,307.36,360.85,327.3Zm75.62-288c8.13,8.62,7.65,24.12,8.82,35.21a705.53,705.53,0,0,1,3.4,76.37c-.09,25.11-.51,50.37-2,75.45-.3,5.3-.82,10.82-3.17,15.67-2.68,5.53-7.65,8.89-12.69,12.07-5.46,3.46-11.19,6.45-16.91,9.45a63.53,63.53,0,0,0,1.15-7.76c1.16-11.93,1.92-23.92,2.88-35.87q5.91-73.71,11.8-147.43c.95-12.2,2.72-28.36-3.38-39.71A28.2,28.2,0,0,1,436.47,39.34ZM152.61,370.05a489.37,489.37,0,0,1,21.57-108.21c9.53-29.7,23.11-59.93,48.48-79.43a4.27,4.27,0,0,0,1.71-3.49,3.52,3.52,0,0,0-.28-4.58,187.15,187.15,0,0,1-18.32-23.48c-5-7.66-10.54-16-12.55-25-2.22-10,2.07-16.66,11-21.08s18.21-7.89,27.4-11.41c35-13.42,71-23.85,106.14-36.76a530.9,530.9,0,0,0,52.58-22.21c8.49-4.2,18-9.36,25.84-1,7.23,7.64,6.59,19,5.9,28.77-2.92,40.68-6.55,81.33-9.79,122-1.84,23-3.61,46.05-5.52,69.07-.36,4.41-.53,9.7-3,13.59-3.94,6.28-10.56,1.86-15.51-.72-10.07-5.24-20.12-10.53-30.18-15.79a4.26,4.26,0,0,0-6.17,2.51c-17.83,55.08-20.72,113.86-11.42,170.85a430.34,430.34,0,0,0,23.17,85q7.71,20,17.28,39.25c2.77,5.57,6,11,7.06,17.27.41,2.35.86,5.85-.52,8.06-2.27,3.63-7,3.19-10.78,3.26A354.7,354.7,0,0,1,200,532.56c-12.88-7.14-25.18-15.49-33.12-28.21C159.5,492.54,156,478.72,154,465.05,149.47,433.86,150,401.38,152.61,370.05Z"/></svg>