<svg id="Layer_1" data-name="Layer 1" xmlns="http://www.w3.org/2000/svg" viewBox="0 0 600 600"><defs><style>.cls-1{fill:#f2b879;}.cls-2{fill:#f7941e;}.cls-3{fill:#009444;}.cls-4{fill:#8dc63f;}.cls-5{fill:#231f20;}</style></defs><title>doodle</title><path class="cls-1" d="M403.26,297.75a229.86,229.86,0,0,0,29.45,8.5c1.94.42,3.88.8,5.82,1.17a100.63,100.63,0,0,1,9.4-13.58,2,2,0,0,1,1.28-.69A92.07,92.07,0,0,0,423,270.94C419.45,281.09,411.2,290,403.26,297.75Z"/><path class="cls-2" d="M377.58,260.4c-1.2,3.57-4.85,6.63-7.22,9.34s-5,5.67-7.5,8.48c2.09,1.25,4.18,2.49,6.3,3.7a214.37,214.37,0,0,0,27.45,13.31c3.54-3.54,7-7.16,10.23-11,4.21-5,7.6-10.47,11.29-15.79a77.38,77.38,0,0,0-7.55-3.07A91.74,91.74,0,0,0,377.58,260.4Z"/><path class="cls-2" d="M449.15,309.18c3.56.51,8.06.39,12,1.15a132.14,132.14,0,0,0-9.19-13.75,67.36,67.36,0,0,1-6.22,12.08C446.86,308.84,448,309,449.15,309.18Z"/><path class="cls-1" d="M455.06,316.42q-4.2-.5-8.37-1.15-2.4-.37-4.77-.81c-1,1.45-2,2.89-2.91,4.33q-7.23,10.89-15.05,21.37c-1.51,2-3,4-4.59,6q10.56,2.94,21.26,5.29c4.72,1,9.46,1.89,14.21,2.66,5.33-8.18,10.45-16.49,15.78-24.71q-1.81-4.17-3.77-8.25c-.72-1.51-1.48-3-2.25-4.5C461.61,317.63,458.13,316.79,455.06,316.42Z"/><path class="cls-3" d="M355.34,254.71a3,3,0,0,1,.19,1.14c1.7-.46,3.42-.85,5.15-1.22-2.91-7.5-3.56-16.5-4.95-24.22-.89-4.93-1.71-9.87-2.55-14.8-.69-4-1.52-7.84-.79-11.83.32-1.81,3-1.95,3.79-.5,2.17,3.79,2.57,8.17,3.29,12.42.79,4.64,1.6,9.29,2.35,13.94,1.22,7.58,3.61,16.25,3.35,24.15,2-.32,3.95-.6,5.94-.79.16-1.21.33-2.41.5-3.62a305.43,305.43,0,0,0,1.7-52c-2.93-63.84-25-129.15-64.17-180.14a362.75,362.75,0,0,0-4.34,48.82,354,354,0,0,0,33.14,156.17A132.7,132.7,0,0,1,355.34,254.71Zm-6.94-99.85c4,8.35,4.1,19.18,4.47,28.25.07,1.68-2.38,1.59-2.56,0-.57-5-1.52-10-2.42-15-.76-4.15-2.11-8.31-2.33-12.52A1.54,1.54,0,0,1,348.4,154.86Z"/><path class="cls-2" d="M481.14,358c-2.18-7.07-4.63-14.05-7.33-20.89-3.32,6.23-7,12.31-11,18.26C468.94,356.24,475,357.06,481.14,358Z"/><path class="cls-4" d="M317.27,187.5a362.1,362.1,0,0,1-17.69-83.72,2.34,2.34,0,0,1-2.21-1.08c-1.86-2.73-2.92-6-4.78-8.73a44,44,0,0,0-6-7.08,95.21,95.21,0,0,0-11.86-9.35,162.47,162.47,0,0,0,3.15,35.74c2.45,12.08,6.67,23.62,10.68,35.22A278.94,278.94,0,0,1,317.27,187.5Z"/><path class="cls-4" d="M380,208.36a257.72,257.72,0,0,1,17.63-47c1.36-6.4,2.45-12.87,3.24-19.27.69-5.66,1.15-11.36,1.3-17.06.14-5.19-.62-10.85.77-15.9a1.59,1.59,0,0,1,3,0c2.18,5.3,1.53,11.92,1.31,17.53a154.49,154.49,0,0,1-1.59,16.91c-.21,1.43-.45,2.84-.71,4.24a195.46,195.46,0,0,1,13.22-19.64c-1-6.15-.66-12.66-.9-18.81q-.44-11.18-1.53-22.31A367.24,367.24,0,0,0,410,49.48c-9,15.6-17.47,31.57-24,48.37a180,180,0,0,0-8.67,29.2c-1,5.11-1.76,10.27-2.32,15.45-.27,2.48-.41,5-.65,7.5.2,1.07.42,2.13.61,3.2A319.81,319.81,0,0,1,380,208.36Z"/><path class="cls-1" d="M486.48,454.2q-6.45,9-13.35,17.78c-3,3.85-6.14,7.63-9.29,11.37q15.17,1.89,30.4,2.86a236.52,236.52,0,0,0,1.95-41.15c-.13,0-.26,0-.4,0-.9,0-1.81-.07-2.71-.11C490.92,448.12,488.63,451.18,486.48,454.2Z"/><path class="cls-1" d="M476.82,523.89c2.53.22,5.05.48,7.54.83a142.64,142.64,0,0,0,5.51-16.63q-4.69,6.06-9.67,11.88C479.08,521.29,478,522.59,476.82,523.89Z"/><path class="cls-1" d="M433.71,565.42q-4.5,3.63-9.13,7.09a182.51,182.51,0,0,1-15.27,10.41c-1.3.78-2.61,1.48-3.92,2.12a75.72,75.72,0,0,0,38.72-10.62,84.42,84.42,0,0,0,11.2-8c-4-.08-8-.35-11.81-.48C440.23,565.79,437,565.62,433.71,565.42Z"/><path class="cls-2" d="M453.86,547.79q-5.88,5.55-12,10.82c1.62.06,3.25.1,4.87.14q4.84.11,9.69.08c1.89,0,3.77,0,5.66-.08.3,0,.81-.08,1.32-.14a108.22,108.22,0,0,0,17.84-26.79c-3.64-.06-7.32-.34-11-.65Q462.35,539.77,453.86,547.79Z"/><path class="cls-1" d="M374.86,556.61q-11.89-2.82-23.6-6.43c-4.68-1.44-9.41-3-14.1-4.61A77.89,77.89,0,0,1,329,549a110.71,110.71,0,0,0,26,21.68c4.18-3.2,8.66-6.06,12.92-9.08C370.26,560,372.56,558.3,374.86,556.61Z"/><path class="cls-2" d="M424.87,564.76c-9.14-.79-18.26-2-27.29-3.51Q390.28,560,383,558.44c-7.19,5.28-14.79,10.91-22.8,15.18a106.27,106.27,0,0,0,10.07,4.62,96.05,96.05,0,0,0,27,6.48c9.07-5.07,17.64-11.93,25.5-18.26Z"/><path class="cls-1" d="M459,425.32q-2.78,3.54-5.61,7c12,2.1,24,3.82,36.2,5a71,71,0,0,1,5-6.54,3.43,3.43,0,0,1,.7-.59c-.59-6.68-1.38-13.32-2.37-19.88q-.63-4.1-1.34-8.21c-4.8-.31-9.6-.75-14.4-1.29C471.39,409.25,465.21,417.38,459,425.32Z"/><path class="cls-2" d="M490.3,395.24q-1.1-5.72-2.38-11.44c-2,3.46-4.08,6.88-6.25,10.24Z"/><path class="cls-1" d="M445.59,379.42c-2.12,2.82-4.28,5.6-6.46,8.37,11.77,1.93,23.57,3.61,35.4,5.26,3.41-5.14,6.76-10.31,10.12-15.5a2.92,2.92,0,0,1,1.53-1.23c-.93-3.81-1.91-7.6-3-11.37a186.51,186.51,0,0,1-25-2.77C454.09,368.06,449.83,373.8,445.59,379.42Z"/><path class="cls-2" d="M428.65,520.61q9.71,1,19.44,1.69c6.77.51,13.7.69,20.6,1,2.52-2.8,5-5.62,7.46-8.5,4-4.69,7.77-9.49,11.54-14.33,1.82-2.34,3.55-4.9,5.44-7.29l0-.15q-17.57-.87-35-3.08Q444.14,506,428.65,520.61Z"/><path class="cls-3" d="M323.45,273.1a4.17,4.17,0,0,1,.38.27c.63-.62,1.25-1.25,1.89-1.85-32.26-19.39-52.77-55.69-52.36-93.42,0-1.84,2-3.82,4-3a141.75,141.75,0,0,1,26.23,14.05c-1.59-1.51-3.19-3-4.81-4.49a301.14,301.14,0,0,0-26.95-22.36c-1.5-1.07-.15-3.52,1.46-2.51,9.93,6.17,19.35,12.3,28.3,19.88q6,5.12,11.71,10.65c-12.82-18-26.69-35.34-42.34-51a346.34,346.34,0,0,0-62.4-49.54c3.44,15.12,7.43,30.11,12.28,44.84C239.21,190.32,271.61,243,323.45,273.1ZM231.94,118.67a114.91,114.91,0,0,1,16.91,13.23c5,4.77,11.1,9.85,13.92,16.29.52,1.2-.6,2.65-1.9,1.9-5.88-3.4-10.29-9.26-15.11-14-5.21-5.09-10.32-10.21-15.37-15.45C229.4,119.65,230.7,117.86,231.94,118.67Z"/><path class="cls-2" d="M321,539.09q2.16,3,4.49,5.84c1.46-.67,2.91-1.36,4.33-2.08C326.87,541.68,323.92,540.44,321,539.09Z"/><path class="cls-3" d="M393.87,253.39c4.3-5.89,9.71-10.91,13.43-17.35a68.56,68.56,0,0,0,5.64-12.51c1.17-3.45,1.78-7.21,4.14-10.06,1.09-1.32,3.13-.46,3.59.95,1.4,4.32-.66,9.46-2.21,13.51a75,75,0,0,1-5.86,12c-3.05,5-7,10.63-11.82,14.6,2.79.58,5.55,1.26,8.27,2.08a3.77,3.77,0,0,1,.31-.42c31.2-37.38,27.93-88.8,22.74-134.43-32.76,35.78-47.35,83.56-54.64,130.8A98.9,98.9,0,0,1,393.87,253.39Zm28.82-79.11a1.76,1.76,0,0,1,3.19.42c1.21,6.82-.38,16.25-3.36,22.46a1.57,1.57,0,0,1-2.85-.37C418.56,190,419.62,180.49,422.69,174.28Z"/><path class="cls-2" d="M319.22,375.27a156.69,156.69,0,0,1-15,11.09,156.79,156.79,0,0,0,17.12,9.81,219.53,219.53,0,0,0,30.87,12.19q14.12-12.51,27.23-26.1c-7.19-2-14.32-4.2-21.35-6.65a218.7,218.7,0,0,1-26.31-11C327.64,368.23,323.47,371.8,319.22,375.27Z"/><path class="cls-1" d="M407.8,350.24q-7.24-2.25-14.4-4.78c-9.54-3.38-19-7.16-28.25-11.35-2.44,2.27-4.88,4.55-7.33,6.8-7,6.46-14,13-21.11,19.32,15.39,7.18,31.64,12.22,48.11,16.38q4.41-4.71,8.69-9.51Q400.85,358.83,407.8,350.24Z"/><path class="cls-1" d="M378.48,453.63q-4.5,4.28-9,8.51,19.46,6.5,39.46,11.27,9.75-10.47,19.23-21.09,6.41-7.17,12.64-14.51l-1.27-.26c-12.21-2.52-24.47-5.21-36.68-8.18Q391,441.78,378.48,453.63Z"/><path class="cls-1" d="M426.07,392.86c-13.2-2.47-26.39-5.26-39.4-8.65Q374.44,397,361.25,408.78c-.65.59-1.32,1.16-2,1.74,13,3.82,26.26,6.93,39.37,10.1l2.39.58c4.13-4.42,8.22-8.87,12.23-13.4Q419.79,400.43,426.07,392.86Z"/><path class="cls-2" d="M338.61,294.19c5.36-5.08,10.49-10.41,15.49-15.85-2.45-1.69-4.86-3.45-7.16-5.32a22.12,22.12,0,0,1-4.43-4.6,92.85,92.85,0,0,0-8.39,4.24,3.62,3.62,0,0,1-1.45.47c-8,7.28-14.3,16.07-19.77,25.35q6.21,3.76,12.49,7.38C330,302.15,334.36,298.23,338.61,294.19Z"/><path class="cls-2" d="M327.41,498c1.83.76,3.66,1.5,5.53,2.2a296.06,296.06,0,0,0,38.42,11.4c10.94-10.43,21.59-21.25,32-32.28q-19.92-5.2-39.33-12.19c-7.44,6.83-15,13.54-22.72,20C336.81,490.94,332.2,494.6,327.41,498Z"/><path class="cls-2" d="M314.37,347.65a151,151,0,0,0,16.33,9.63c8.05-7.24,16-14.63,23.91-22l4.35-4.05a313.11,313.11,0,0,1-33-18.15q-2.43,1.83-4.95,3.55a119.42,119.42,0,0,1-11.73,7.22c-3.06,1.62-7.06,4.18-10.67,4-.81,2.08-1.6,4.16-2.35,6.26a2.1,2.1,0,0,1,.43.28C302,339.27,308.41,343.59,314.37,347.65Z"/><path class="cls-1" d="M318.43,368.1c2.53-2.17,5-4.37,7.53-6.58-.84-.46-1.68-.92-2.51-1.4a141.49,141.49,0,0,1-15.9-10.57c-4.75-3.66-8.44-7.8-12.43-12.14q-1.85,5.41-3.4,10.93a209.71,209.71,0,0,0-5.36,24.52c4.16,3.12,8.14,6.48,12.3,9.6A145,145,0,0,0,318.43,368.1Z"/><path class="cls-2" d="M285.52,378.68c-.48,3.73-.86,7.49-1.14,11.25q4.46-2,8.68-4.28A68.42,68.42,0,0,1,285.52,378.68Z"/><path class="cls-1" d="M369.33,261a93.43,93.43,0,0,0-22.72,5.68,9.27,9.27,0,0,0,1,1.12,49.21,49.21,0,0,0,7.35,5.39c.8.53,1.62,1,2.43,1.57.05-.07.11-.13.16-.19,3.13-3.46,6.22-7,9.28-10.49C367.65,263.12,368.47,262.06,369.33,261Z"/><path class="cls-1" d="M318.05,311.53c.86-.63,1.72-1.27,2.57-1.92-3.41-2.27-6.77-4.6-10.07-7-.42.75-.83,1.5-1.24,2.26q-4.68,8.64-8.5,17.69c1.88-1.24,4-2.24,5.77-3.35C310.48,316.76,314.33,314.24,318.05,311.53Z"/><path class="cls-4" d="M333.11,226.45a129.89,129.89,0,0,0-53.33-43.61c1.7,34.28,20.83,66.8,50.28,84.64a3.68,3.68,0,0,1,.69-.59c1-.64,1.94-1.24,2.92-1.83l.32-.21c-4.15-2.42-7.84-7.08-10.42-10.25-4-4.89-9-11.06-9.36-17.59-.11-1.88,2.36-2.71,3.61-1.49,4.5,4.4,6.95,11,11,15.89,2.79,3.41,7.44,6.63,10,10.5a52.12,52.12,0,0,1,11-4.45,1.78,1.78,0,0,1-.23-.31Q340.64,242.15,333.11,226.45Z"/><path class="cls-1" d="M326.13,429.85q10.58-8.09,20.67-16.77A226,226,0,0,1,312.2,398c-4.54-2.51-9.22-5.25-13.67-8.32a59.43,59.43,0,0,1-14.46,5.57,221.3,221.3,0,0,0,.81,29.47c9.74,4.2,19.07,9.38,28.54,14.25C317.72,436,322,433,326.13,429.85Z"/><path class="cls-1" d="M321.78,494.57a255.81,255.81,0,0,0,22-17.94q6.69-6,13.29-12c-13.39-5-26.6-10.52-39.53-16.67l-3.7-1.75a212.34,212.34,0,0,1-24,15.12c1.35,7,3,14,4.93,21,8.71,4.38,17.27,8.88,26.1,12.89C321.19,495,321.49,494.78,321.78,494.57Z"/><path class="cls-2" d="M296.36,487.64c1.88,6.15,4,12.22,6.46,18.14,4-2.36,8.13-4.53,12.15-6.88A133,133,0,0,1,296.36,487.64Z"/><path class="cls-2" d="M285.44,430.65c.42,4,.91,8,1.42,12.05.56,4.27,1.21,8.59,2,12.92,6.13-4.29,12.38-8.39,18.59-12.56A166.72,166.72,0,0,1,285.44,430.65Z"/><path class="cls-1" d="M359.49,281.92C353.88,288,348.09,294,342,299.67q-5.28,4.9-10.88,9.45c10.9,6.09,22,11.78,33.36,17q13.39-12.57,26.57-25.38l1.37-1.34a218.66,218.66,0,0,1-31-16.2Z"/><path class="cls-1" d="M445.28,493.93c1.55-1.68,3.07-3.39,4.59-5.09-1.43-.21-2.87-.42-4.3-.65q-18-2.88-35.76-7.22-8,8.26-16.05,16.42c-5,5-10.09,10.42-15.37,15.77,10.08,2.09,20.26,3.77,30.46,5.15q5.44.74,10.88,1.34Q433,507.28,445.28,493.93Z"/><path class="cls-1" d="M432.75,558.2c6.06-5.15,12-10.44,17.71-16q5.91-5.72,11.58-11.7-11.12-.76-22.22-1.78-9-.82-17.93-1.87c-1.8,1.63-3.59,3.26-5.41,4.86-8.51,7.46-17.3,14.65-26.35,21.46,12.05,2.13,24.22,3.69,36.43,4.61C428.62,558,430.69,558.08,432.75,558.2Z"/><path class="cls-2" d="M348.21,543c11,3.37,22.14,6.27,33.41,8.56l4.1-3.11c9.42-7.19,18.52-14.79,27.34-22.71-13.5-1.79-26.94-4.06-40.2-7.12-8.87,8.64-18.32,16.86-28.69,23.1Z"/><path class="cls-1" d="M363.61,518.91c.7-.66,1.4-1.33,2.11-2-1.67-.43-3.33-.86-5-1.31A261.71,261.71,0,0,1,321.53,502c-5.17,3.33-10.7,6.75-16.64,8.66a164.37,164.37,0,0,0,11.43,21.48c6.8,2.2,13.52,4.67,20.28,7A154.86,154.86,0,0,0,363.61,518.91Z"/><path class="cls-2" d="M471.27,463.11q6.28-8.17,12.17-16.64c.45-.64.89-1.29,1.33-2a324,324,0,0,1-37-5.33c-10.3,12.29-21.11,24.15-32.16,35.77q19.89,4.49,40.08,7.3C461,476,466.25,469.64,471.27,463.11Z"/><path class="cls-2" d="M450.43,360.75c-3.68-.71-7.34-1.47-10.95-2.23q-12.56-2.65-24.9-6.25-10.75,13.47-22.45,26.13Q399,380,406,381.54c8.43,1.85,16.87,3.46,25.32,4.93q6.62-8.22,12.86-16.73Q447.38,365.3,450.43,360.75Z"/><path class="cls-2" d="M319.55,442.08c1.79.88,3.58,1.74,5.39,2.56q18.35,8.39,37.44,15.08,16.8-15.69,32.75-32.27c-14-3.56-27.88-7.51-41.48-12Q339.79,427.26,325.07,438Z"/><path class="cls-2" d="M435,313.06c-2-.44-4.07-.9-6.1-1.4a227.52,227.52,0,0,1-30-9.63l-2.19,2.12q-12.82,12.5-25.9,24.73,12.44,5.43,25.28,10,8.21,2.9,16.55,5.38,5.1-6.53,10-13.24Q429,322.18,435,313.06Z"/><path class="cls-2" d="M469.86,400c-9.63-1.25-19.22-2.8-28.71-4.42q-3.61-.62-7.22-1.26-12.07,14.81-25.12,28.75c12.52,2.94,25,5.68,37.59,8q6.15-7.47,12-15.15C462.38,410.7,466.17,405.37,469.86,400Z"/><path class="cls-5" d="M281.16,249.16A186.87,186.87,0,0,0,319.53,278c-10.88,12.62-18.85,28.62-24.88,42.69-13.22,30.87-18.52,63.92-17.3,97.39,2.13,57.95,19.83,125.75,72,158.33a1.47,1.47,0,0,0,1.89,1.21l.06,0c23.17,13.84,51.93,20.13,78.21,12.19,15.42-4.67,28.83-13.79,39.68-25.43a6.51,6.51,0,0,0,.67-.73,115.36,115.36,0,0,0,20-30.7c13.7-30.59,16.19-65.56,13.9-98.63a343.92,343.92,0,0,0-22.45-99.89c-10.44-26.91-26-53.53-51.44-68.68a91.17,91.17,0,0,0-13.51-6.59c32.29-41.08,27.69-96,21.45-144.79-.34-2.68-3.46-4.6-5.66-2.35q-4.41,4.52-8.45,9.29c.14-4.29-.14-8.65-.29-12.77q-.42-11.6-1.56-23.17a392.65,392.65,0,0,0-7.24-45.86c-.62-2.84-4.65-3.15-6-.79-10.88,18.43-20.89,37.4-28.18,57.56a189.13,189.13,0,0,0-8.31,30.11c-.42,2.28-.86,4.67-1.25,7.12a331.15,331.15,0,0,0-29.15-76.89c-9.11-17.2-20-33.08-31.84-48.49-1.46-1.89-5.16-2.2-5.73.75a338.16,338.16,0,0,0-5.49,82.44,45.34,45.34,0,0,0-6.62-8.15c-5.42-5.39-12-9.74-18.63-13.52a2.93,2.93,0,0,0-4.35,2.5,171.42,171.42,0,0,0,3.58,41.72,143.47,143.47,0,0,0,7.72,25.72,347.62,347.62,0,0,0-75-59.42c-2.56-1.51-5.37,1-4.79,3.69C213.52,144.32,235.93,205.21,281.16,249.16Zm51.51,24a3.62,3.62,0,0,0,1.45-.47,92.85,92.85,0,0,1,8.39-4.24,22.12,22.12,0,0,0,4.43,4.6c2.3,1.87,4.71,3.63,7.16,5.32-5,5.44-10.13,10.77-15.49,15.85-4.25,4-8.66,8-13.22,11.67q-6.28-3.62-12.49-7.38C318.37,289.2,324.7,280.41,332.67,273.13ZM401,421.2l-2.39-.58c-13.11-3.17-26.36-6.28-39.37-10.1.66-.58,1.33-1.15,2-1.74q13.2-11.77,25.42-24.57c13,3.39,26.2,6.18,39.4,8.65q-6.29,7.58-12.81,14.94C409.25,412.33,405.16,416.78,401,421.2Zm1.8,8.17c12.21,3,24.47,5.66,36.68,8.18l1.27.26q-6.22,7.33-12.64,14.51-9.48,10.6-19.23,21.09-20-4.79-39.46-11.27,4.53-4.23,9-8.51Q390.93,441.77,402.83,429.37Zm-18-52.76c-16.47-4.16-32.72-9.2-48.11-16.38,7.12-6.36,14.12-12.86,21.11-19.32,2.45-2.25,4.89-4.53,7.33-6.8,9.27,4.19,18.71,8,28.25,11.35q7.14,2.54,14.4,4.78-6.94,8.6-14.29,16.86Q389.22,371.92,384.82,376.61Zm-26.73-1c7,2.45,14.16,4.65,21.35,6.65q-13.11,13.56-27.23,26.1a219.53,219.53,0,0,1-30.87-12.19,156.79,156.79,0,0,1-17.12-9.81,156.69,156.69,0,0,0,15-11.09c4.25-3.47,8.42-7,12.56-10.66A218.7,218.7,0,0,0,358.09,375.61Zm-4.44,39.81c13.6,4.52,27.49,8.47,41.48,12q-15.9,16.6-32.75,32.27-19.06-6.71-37.44-15.08c-1.81-.82-3.6-1.68-5.39-2.56l5.52-4Q339.79,427.27,353.65,415.42ZM364,467.15q19.4,7,39.33,12.19c-10.42,11-21.07,21.85-32,32.28a296.06,296.06,0,0,1-38.42-11.4c-1.87-.7-3.7-1.44-5.53-2.2,4.79-3.42,9.4-7.08,13.91-10.86C349.05,480.69,356.6,474,364,467.15Zm8.82,51.5c13.26,3.06,26.7,5.33,40.2,7.12-8.82,7.92-17.92,15.52-27.34,22.71l-4.1,3.11c-11.27-2.29-22.42-5.19-33.41-8.56l-4-1.28C354.54,535.51,364,527.29,372.86,518.65Zm43.62,13.08c1.82-1.6,3.61-3.23,5.41-4.86q9,1.05,17.93,1.87,11.1,1,22.22,1.78-5.67,6-11.58,11.7c-5.72,5.54-11.65,10.83-17.71,16-2.06-.12-4.13-.24-6.19-.4-12.21-.92-24.38-2.48-36.43-4.61C399.18,546.38,408,539.19,416.48,531.73Zm3.25-12.08q-5.44-.61-10.88-1.34c-10.2-1.38-20.38-3.06-30.46-5.15,5.28-5.35,10.38-10.73,15.37-15.77q8.07-8.16,16.05-16.42,17.71,4.33,35.76,7.22c1.43.23,2.87.44,4.3.65-1.52,1.7-3,3.41-4.59,5.09Q433,507.27,419.73,519.65ZM415.56,475c11.05-11.62,21.86-23.48,32.16-35.77a324,324,0,0,0,37,5.33c-.44.66-.88,1.31-1.33,2q-5.9,8.46-12.17,16.64c-5,6.53-10.25,12.91-15.63,19.15Q435.48,479.43,415.56,475Zm30.84-43.88c-12.57-2.35-25.07-5.09-37.59-8q13-14,25.12-28.75,3.6.65,7.22,1.26c9.49,1.62,19.08,3.17,28.71,4.42-3.69,5.39-7.48,10.72-11.45,15.95S450.5,426.1,446.4,431.08Zm-15.12-44.61c-8.45-1.47-16.89-3.08-25.32-4.93Q399,380,392.13,378.4q11.7-12.66,22.45-26.13,12.35,3.57,24.9,6.25c3.61.76,7.27,1.52,10.95,2.23q-3.06,4.54-6.29,9Q437.9,378.26,431.28,386.47Zm-18.7-42.25q-8.34-2.49-16.55-5.38-12.86-4.51-25.28-10,13.06-12.25,25.9-24.73l2.19-2.12a227.52,227.52,0,0,0,30,9.63c2,.5,4.06,1,6.1,1.4q-6,9.1-12.4,17.92Q417.69,337.68,412.58,344.22ZM391.06,300.7q-13.17,12.81-26.57,25.38c-11.35-5.18-22.46-10.87-33.36-17q5.61-4.53,10.88-9.45c6.08-5.66,11.87-11.63,17.48-17.75l1.92,1.24a218.66,218.66,0,0,0,31,16.2Zm-33.54-26.1c0,.06-.11.12-.16.19-.81-.52-1.63-1-2.43-1.57a49.21,49.21,0,0,1-7.35-5.39,9.27,9.27,0,0,1-1-1.12A93.43,93.43,0,0,1,369.33,261c-.86,1-1.68,2.09-2.53,3.08C363.74,267.63,360.65,271.14,357.52,274.6Zm-18.7-12.69c-2.58-3.87-7.23-7.09-10-10.5-4-4.91-6.48-11.49-11-15.89-1.25-1.22-3.72-.39-3.61,1.49.38,6.53,5.4,12.7,9.36,17.59,2.58,3.17,6.27,7.83,10.42,10.25l-.32.21c-1,.59-2,1.19-2.92,1.83a3.68,3.68,0,0,0-.69.59c-29.45-17.84-48.58-50.36-50.28-84.64a129.89,129.89,0,0,1,53.33,43.61q7.51,15.7,16.45,30.7a1.78,1.78,0,0,0,.23.31A52.12,52.12,0,0,0,338.82,261.91Zm-29.51,42.94c.41-.76.82-1.51,1.24-2.26,3.3,2.42,6.66,4.75,10.07,7-.85.65-1.71,1.29-2.57,1.92-3.72,2.71-7.57,5.23-11.47,7.66-1.78,1.11-3.89,2.11-5.77,3.35Q304.64,313.5,309.31,304.85Zm-10.67,23c3.61.2,7.61-2.36,10.67-4A119.42,119.42,0,0,0,321,316.65q2.52-1.72,4.95-3.55a313.11,313.11,0,0,0,33,18.15l-4.35,4.05c-7.93,7.35-15.86,14.74-23.91,22a151,151,0,0,1-16.33-9.63c-6-4.06-12.35-8.38-17.65-13.26a2.1,2.1,0,0,0-.43-.28C297,332,297.83,329.93,298.64,327.85Zm-6.92,20.49q1.56-5.5,3.4-10.93c4,4.34,7.68,8.48,12.43,12.14a141.49,141.49,0,0,0,15.9,10.57c.83.48,1.67.94,2.51,1.4-2.5,2.21-5,4.41-7.53,6.58a145,145,0,0,1-19.77,14.36c-4.16-3.12-8.14-6.48-12.3-9.6A209.71,209.71,0,0,1,291.72,348.34Zm-6.2,30.34a68.42,68.42,0,0,0,7.54,7q-4.23,2.28-8.68,4.28C284.66,386.17,285,382.41,285.52,378.68Zm-1.45,16.59a59.43,59.43,0,0,0,14.46-5.57c4.45,3.07,9.13,5.81,13.67,8.32a226,226,0,0,0,34.6,15.06q-10.11,8.67-20.67,16.77C322,433,317.72,436,313.42,439c-9.47-4.87-18.8-10.05-28.54-14.25A221.3,221.3,0,0,1,284.07,395.27Zm2.79,47.43c-.51-4-1-8-1.42-12.05a166.72,166.72,0,0,0,22,12.41c-6.21,4.17-12.46,8.27-18.59,12.56C288.07,451.29,287.42,447,286.86,442.7Zm3,18.59a212.34,212.34,0,0,0,24-15.12l3.7,1.75c12.93,6.15,26.14,11.62,39.53,16.67q-6.6,6.07-13.29,12a255.81,255.81,0,0,1-22,17.94c-.29.21-.59.4-.89.6-8.83-4-17.39-8.51-26.1-12.89C292.84,475.33,291.21,468.3,289.86,461.29Zm6.5,26.35A133,133,0,0,0,315,498.9c-4,2.35-8.14,4.52-12.15,6.88C300.39,499.86,298.24,493.79,296.36,487.64Zm8.53,23c5.94-1.91,11.47-5.33,16.64-8.66a261.71,261.71,0,0,0,39.21,13.61c1.65.45,3.31.88,5,1.31-.71.65-1.41,1.32-2.11,2a154.86,154.86,0,0,1-27,20.27c-6.76-2.36-13.48-4.83-20.28-7A164.37,164.37,0,0,1,304.89,510.67Zm20.63,34.26q-2.32-2.85-4.49-5.84c2.89,1.35,5.84,2.59,8.82,3.76C328.43,543.57,327,544.26,325.52,544.93ZM329,549a77.89,77.89,0,0,0,8.16-3.45c4.69,1.65,9.42,3.17,14.1,4.61q11.69,3.62,23.6,6.43c-2.3,1.69-4.6,3.36-6.93,5-4.26,3-8.74,5.88-12.92,9.08A110.71,110.71,0,0,1,329,549Zm68.31,35.7a96.05,96.05,0,0,1-27-6.48,106.27,106.27,0,0,1-10.07-4.62c8-4.27,15.61-9.9,22.8-15.18q7.25,1.54,14.55,2.81c9,1.56,18.15,2.72,27.29,3.51l-2.06,1.7C415,572.79,406.38,579.65,397.31,584.72Zm46.8-10.3A75.72,75.72,0,0,1,405.39,585c1.31-.64,2.62-1.34,3.92-2.12a182.51,182.51,0,0,0,15.27-10.41q4.64-3.45,9.13-7.09c3.26.2,6.52.37,9.79.47,3.79.13,7.81.4,11.81.48A84.42,84.42,0,0,1,444.11,574.42Zm19.29-15.81c-.51.06-1,.14-1.32.14-1.89,0-3.77.07-5.66.08q-4.85,0-9.69-.08c-1.62,0-3.25-.08-4.87-.14q6.12-5.26,12-10.82,8.49-8,16.41-16.62c3.65.31,7.33.59,11,.65A108.22,108.22,0,0,1,463.4,558.61Zm21-33.89c-2.49-.35-5-.61-7.54-.83,1.14-1.3,2.26-2.6,3.38-3.92q5-5.84,9.67-11.88A142.64,142.64,0,0,1,484.36,524.72Zm8.77-31.5c-1.89,2.39-3.62,4.95-5.44,7.29-3.77,4.84-7.58,9.64-11.54,14.33-2.44,2.88-4.94,5.7-7.46,8.5-6.9-.35-13.83-.53-20.6-1q-9.73-.74-19.44-1.69Q444.12,506,458.15,490q17.43,2.24,35,3.08Zm3.06-48.16a236.52,236.52,0,0,1-1.95,41.15q-15.23-1-30.4-2.86c3.15-3.74,6.26-7.52,9.29-11.37q6.89-8.75,13.35-17.78c2.15-3,4.44-6.08,6.6-9.22.9,0,1.81.09,2.71.11C495.93,445.09,496.06,445.07,496.19,445.06Zm-3.3-34.71c1,6.56,1.78,13.2,2.37,19.88a3.43,3.43,0,0,0-.7.59,71,71,0,0,0-5,6.54c-12.19-1.2-24.23-2.92-36.2-5q2.83-3.48,5.61-7c6.23-7.94,12.41-16.07,18.17-24.47,4.8.54,9.6,1,14.4,1.29Q492.26,406.25,492.89,410.35Zm-2.59-15.11-8.63-1.2c2.17-3.36,4.27-6.78,6.25-10.24Q489.19,389.52,490.3,395.24ZM483.2,365c1.07,3.77,2.05,7.56,3,11.37a2.92,2.92,0,0,0-1.53,1.23c-3.36,5.19-6.71,10.36-10.12,15.5-11.83-1.65-23.63-3.33-35.4-5.26,2.18-2.77,4.34-5.55,6.46-8.37,4.24-5.62,8.5-11.36,12.61-17.24A186.51,186.51,0,0,0,483.2,365Zm-2.06-7c-6.1-.92-12.2-1.74-18.29-2.63,3.93-6,7.64-12,11-18.26C476.51,343.93,479,350.91,481.14,358Zm-14.29-36.82q2,4.08,3.77,8.25c-5.33,8.22-10.45,16.53-15.78,24.71-4.75-.77-9.49-1.62-14.21-2.66q-10.71-2.34-21.26-5.29c1.54-2,3.08-4,4.59-6q7.83-10.46,15.05-21.37c.95-1.44,1.93-2.88,2.91-4.33q2.37.44,4.77.81,4.17.66,8.37,1.15c3.07.37,6.55,1.21,9.54.24C465.37,318.15,466.13,319.65,466.85,321.16Zm-5.73-10.83c-3.91-.76-8.41-.64-12-1.15-1.15-.16-2.29-.34-3.44-.52a67.36,67.36,0,0,0,6.22-12.08A132.14,132.14,0,0,1,461.12,310.33Zm-11.91-17.18a2,2,0,0,0-1.28.69,100.63,100.63,0,0,0-9.4,13.58c-1.94-.37-3.88-.75-5.82-1.17a229.86,229.86,0,0,1-29.45-8.5c7.94-7.78,16.19-16.66,19.73-26.81A92.07,92.07,0,0,1,449.21,293.15Zm-31.08-24.69c-3.69,5.32-7.08,10.82-11.29,15.79-3.23,3.82-6.69,7.44-10.23,11a214.37,214.37,0,0,1-27.45-13.31c-2.12-1.21-4.21-2.45-6.3-3.7q3.78-4.22,7.5-8.48c2.37-2.71,6-5.77,7.22-9.34a91.74,91.74,0,0,1,33,5A77.38,77.38,0,0,1,418.13,268.46Zm14-146.68c5.19,45.63,8.46,97.05-22.74,134.43a3.77,3.77,0,0,0-.31.42c-2.72-.82-5.48-1.5-8.27-2.08,4.86-4,8.77-9.58,11.82-14.6a75,75,0,0,0,5.86-12c1.55-4.05,3.61-9.19,2.21-13.51-.46-1.41-2.5-2.27-3.59-.95-2.36,2.85-3,6.61-4.14,10.06A68.56,68.56,0,0,1,407.3,236c-3.72,6.44-9.13,11.46-13.43,17.35a98.9,98.9,0,0,0-16.41-.81C384.75,205.34,399.34,157.56,432.1,121.78Zm-57,20.72c.56-5.18,1.29-10.34,2.32-15.45a180,180,0,0,1,8.67-29.2c6.48-16.8,15-32.77,24-48.37a367.24,367.24,0,0,1,5.73,37.62q1.1,11.13,1.53,22.31c.24,6.15-.11,12.66.9,18.81A195.46,195.46,0,0,0,405,147.86c.26-1.4.5-2.81.71-4.24a154.49,154.49,0,0,0,1.59-16.91c.22-5.61.87-12.23-1.31-17.53a1.59,1.59,0,0,0-3,0c-1.39,5-.63,10.71-.77,15.9-.15,5.7-.61,11.4-1.3,17.06-.79,6.4-1.88,12.87-3.24,19.27a257.72,257.72,0,0,0-17.63,47,319.81,319.81,0,0,0-4.93-55.16c-.19-1.07-.41-2.13-.61-3.2C374.69,147.5,374.83,145,375.1,142.5ZM304.8,66.05a362.75,362.75,0,0,1,4.34-48.82c39.16,51,61.24,116.3,64.17,180.14a305.43,305.43,0,0,1-1.7,52c-.17,1.21-.34,2.41-.5,3.62-2,.19-4,.47-5.94.79.26-7.9-2.13-16.57-3.35-24.15-.75-4.65-1.56-9.3-2.35-13.94-.72-4.25-1.12-8.63-3.29-12.42-.83-1.45-3.47-1.31-3.79.5-.73,4,.1,7.86.79,11.83.84,4.93,1.66,9.87,2.55,14.8,1.39,7.72,2,16.72,4.95,24.22-1.73.37-3.45.76-5.15,1.22a3,3,0,0,0-.19-1.14,132.7,132.7,0,0,0-17.4-32.49A354,354,0,0,1,304.8,66.05Zm-27,47.23a162.47,162.47,0,0,1-3.15-35.74,95.21,95.21,0,0,1,11.86,9.35,44,44,0,0,1,6,7.08c1.86,2.77,2.92,6,4.78,8.73a2.34,2.34,0,0,0,2.21,1.08,362.1,362.1,0,0,0,17.69,83.72,278.94,278.94,0,0,0-28.76-39C284.5,136.9,280.28,125.36,277.83,113.28Zm-6.89,26c15.65,15.66,29.52,33,42.34,51q-5.67-5.53-11.71-10.65c-8.95-7.58-18.37-13.71-28.3-19.88-1.61-1-3,1.44-1.46,2.51a301.14,301.14,0,0,1,26.95,22.36c1.62,1.47,3.22,3,4.81,4.49a141.75,141.75,0,0,0-26.23-14.05c-1.95-.79-4,1.19-4,3-.41,37.73,20.1,74,52.36,93.42-.64.6-1.26,1.23-1.89,1.85a4.17,4.17,0,0,0-.38-.27C271.61,243,239.21,190.32,220.82,134.59,216,119.86,212,104.87,208.54,89.75A346.34,346.34,0,0,1,270.94,139.29Z"/><path class="cls-5" d="M350.31,183.11c.18,1.59,2.63,1.68,2.56,0-.37-9.07-.51-19.9-4.47-28.25a1.54,1.54,0,0,0-2.84.77c.22,4.21,1.57,8.37,2.33,12.52C348.79,173.1,349.74,178.1,350.31,183.11Z"/><path class="cls-5" d="M422.52,197.16c3-6.21,4.57-15.64,3.36-22.46a1.76,1.76,0,0,0-3.19-.42c-3.07,6.21-4.13,15.73-3,22.51A1.57,1.57,0,0,0,422.52,197.16Z"/><path class="cls-5" d="M245.76,136.13c4.82,4.7,9.23,10.56,15.11,14,1.3.75,2.42-.7,1.9-1.9-2.82-6.44-8.92-11.52-13.92-16.29a114.91,114.91,0,0,0-16.91-13.23c-1.24-.81-2.54,1-1.55,2C235.44,125.92,240.55,131,245.76,136.13Z"/></svg>