<svg id="Layer_1" data-name="Layer 1" xmlns="http://www.w3.org/2000/svg" viewBox="0 0 600 600"><defs><style>.cls-1{fill:#231f20;}.cls-2{fill:#fff200;}.cls-3{fill:#009444;}.cls-4{fill:#8dc63f;}</style></defs><title>doodle</title><path class="cls-1" d="M395.55,565a2.06,2.06,0,0,0-1.74-.36h-.15c-3.47-.26-3.48,5.64,0,5.39l.16,0a2,2,0,0,0,1.72-.36,2.2,2.2,0,0,0,1.27-2.25A2.24,2.24,0,0,0,395.55,565Z"/><path class="cls-2" d="M543.65,234.56c2.54-2,2-4.87-.8-6.41-2.25-1.23-5.2-.62-7.52-.06-2.59.62-7.63,2.17-9.21,5,.14.35.29.7.42,1C532.48,235.37,539,238.22,543.65,234.56Z"/><path class="cls-3" d="M390.33,345.66c-11.1-19.67-29.1-39.72-53.6-39.45-12.18.13-24.94,5.27-35.77,10.53a123.73,123.73,0,0,0-27.91,18.33c-17.56,15.49-29.92,36.49-33.36,59.8-3.63,24.52,5.18,47.56,16.2,69a256.86,256.86,0,0,0,35.3,52.18A218.66,218.66,0,0,0,339,557.29c17.58,11,36.4,17.73,55.88,24.35,4.51,1.6,9.32,3.19,13.32,3.62,3.47.36,8.91,0,11.45-1.62h0a4.83,4.83,0,0,1,.4-2c5.83-13.41,6.48-28.21,6.61-42.62.13-14.12,0-28.25-.56-42.37-1.12-27.75-3.85-55.49-10.14-82.58C410.45,390.34,402.34,366.94,390.33,345.66ZM248.6,410.07a4.27,4.27,0,1,1,1.26-3A4.36,4.36,0,0,1,248.6,410.07Zm4.65-40.55a4.57,4.57,0,0,1,1.32-3.18,4.64,4.64,0,0,1,3.18-1.32,4.5,4.5,0,0,1,3.18,7.68,4.68,4.68,0,0,1-3.18,1.32A4.59,4.59,0,0,1,253.25,369.52ZM265.65,444l-.59.39a4.43,4.43,0,0,1-4.48,0,4.44,4.44,0,0,1,0-7.67,4.43,4.43,0,0,1,4.48,0l.59.39a4,4,0,0,1,0,6.89ZM276,394.77c5.36,0,5.35,8.32,0,8.32S270.65,394.77,276,394.77Zm10.29,86.46a4.68,4.68,0,0,1-3.2,1.33,4.52,4.52,0,0,1-3.19-7.71,4.67,4.67,0,0,1,3.19-1.33,4.52,4.52,0,0,1,3.2,7.71Zm.86-117.52c-5.59,0-5.58-8.67,0-8.67S292.74,363.71,287.16,363.71Zm5.5-36.7a4.2,4.2,0,1,1,7.26,0c-.1.15-.19.3-.28.45a3.93,3.93,0,0,1-6.7,0C292.85,327.31,292.76,327.16,292.66,327Zm4.64,111.46a4,4,0,1,1,4.05-4A4.11,4.11,0,0,1,297.3,438.47ZM335.84,308.8a3.92,3.92,0,1,1-3.92,3.92A4,4,0,0,1,335.84,308.8ZM309.17,385l.28-.33a4,4,0,0,1,2.49-1.2,4.32,4.32,0,0,1,2.77.52,4.53,4.53,0,0,1,2.15,3.74,4.32,4.32,0,0,1-2.67,4,4.24,4.24,0,0,1-2.83.22,4.31,4.31,0,0,1-1.91-1.12l-.28-.33a4.31,4.31,0,0,1-1.13-2.74A4,4,0,0,1,309.17,385Zm-1.72,135.59a3.65,3.65,0,1,1,3.64-3.64A3.71,3.71,0,0,1,307.45,520.63Zm13.69-49.56a5.45,5.45,0,0,1-.61,1.57,5,5,0,0,1-1.42,1.62,5.65,5.65,0,0,1-1.95,1,5.86,5.86,0,0,1-2.73,0,4.38,4.38,0,0,1-3-2.7,4.49,4.49,0,0,1,.23-4.14,8.83,8.83,0,0,1,.9-1.12,5.06,5.06,0,0,1,.31-.43l.08-.09a3.84,3.84,0,0,1,.67-.89,5,5,0,0,1,1.85-1.07,4.21,4.21,0,0,1,4.56,1.69,5,5,0,0,1,.89,1.4A5.18,5.18,0,0,1,321.14,471.07Zm4.33-122.15a4.84,4.84,0,0,1,0-9.67,4.64,4.64,0,0,1,1,.11.88.88,0,0,1,1,.32,5,5,0,0,1,2.87,4.4A4.88,4.88,0,0,1,325.47,348.92ZM329,422.08a4.67,4.67,0,0,1,4.29-4.65l.26-.1a3.74,3.74,0,0,1,1.09-.14,3.51,3.51,0,0,1,3.9,4,5,5,0,0,1-.31,1.4s0,.05,0,.08a4.75,4.75,0,0,1-1.28,2.67,4.65,4.65,0,0,1-7.94-3.29Zm10.3,122.29a4.88,4.88,0,0,1-8.32-3.45c0-.47.09-.93.13-1.4a5.14,5.14,0,0,1,1.39-3.35c.14-.13.28-.26.43-.38l.19-.18a4.44,4.44,0,0,1,2.73-1.13,4.07,4.07,0,0,1,2.74,1.13l.06.06a4.94,4.94,0,0,1,1.94,3.85c.06.47.09.93.14,1.4A4.75,4.75,0,0,1,339.29,544.37ZM346,373c5.92,0,5.91,9.19,0,9.19S340.07,373,346,373Zm5.43,133.76a5,5,0,0,1-3.4,1.41,4.82,4.82,0,0,1-3.41-8.22,5,5,0,0,1,3.41-1.41,4.82,4.82,0,0,1,3.4,8.22Zm9.06-43.68a4.72,4.72,0,0,1-6.67,0,4.74,4.74,0,0,1-1.38-3.34,4.79,4.79,0,0,1,1.38-3.33,4.72,4.72,0,0,1,6.67,6.67Zm2.75-120.25a4.79,4.79,0,0,1-3.39-8.18,5,5,0,0,1,3.39-1.41,4.8,4.8,0,0,1,3.39,8.19A4.94,4.94,0,0,1,363.23,342.87Zm11.85,194.89a4.26,4.26,0,0,1-2.72,1.12,3.71,3.71,0,0,1-2.78-1.16,5.54,5.54,0,0,1-1.38-1.47,4.91,4.91,0,0,1-.49-3.71,5,5,0,0,1,4.65-3.53,4.84,4.84,0,0,1,3.4,1.41,4.9,4.9,0,0,1,1.32,2.76A4.78,4.78,0,0,1,375.08,537.76Zm2.1-124.11a4.45,4.45,0,0,1-3.05,1.26,4.32,4.32,0,0,1-3.05-7.37,4.46,4.46,0,0,1,3.05-1.26,4.31,4.31,0,0,1,3.05,7.37Zm.25-39.75c-5.65,0-5.64-8.76,0-8.76S383.06,373.9,377.43,373.9Zm10.14,123.23a4.89,4.89,0,0,1-3.46-8.35,5,5,0,0,1,3.46-1.43A4.89,4.89,0,0,1,391,495.7,5,5,0,0,1,387.57,497.13Zm8,72.48a2,2,0,0,1-1.72.36l-.16,0c-3.48.25-3.47-5.65,0-5.39h.15a2.06,2.06,0,0,1,1.74.36,2.24,2.24,0,0,1,1.26,2.39A2.2,2.2,0,0,1,395.54,569.61ZM402,449.82a4.47,4.47,0,0,1-1.15,2,4.41,4.41,0,0,1-2,1.15,4.36,4.36,0,0,1-1.68.13h-.05l-.11,0-1.17-.15a5.23,5.23,0,0,1-3-2.28,4.12,4.12,0,0,1-.82-1.74,4.93,4.93,0,0,1,0-2.53,4.82,4.82,0,0,1,1.23-2.1A4.74,4.74,0,0,1,398,443a4.21,4.21,0,0,1,1.74.81,5.06,5.06,0,0,1,1.78,1.78c.17.4.33.79.5,1.18a4,4,0,0,1,.17,1.27A4.34,4.34,0,0,1,402,449.82Zm-.33-42.69a4.28,4.28,0,0,1-.27-3.79,4.72,4.72,0,0,1,5.69-3.38,4.62,4.62,0,0,1,3.2,3.2,4.57,4.57,0,0,1-1.18,4.46,6,6,0,0,1-2.5,1.52A4.5,4.5,0,0,1,401.7,407.13Zm13.23,121.3a4.57,4.57,0,0,1-1.8,2.11,4.47,4.47,0,0,1-3.41.44,7.48,7.48,0,0,1-3.29-1.82,4.48,4.48,0,0,1,.89-6.92l1.05-.44,1.18-.16a6.65,6.65,0,0,1,1.87.4,7.41,7.41,0,0,1,1.71.87,5,5,0,0,1,2,2.64A4.27,4.27,0,0,1,414.93,528.43ZM418,489.82c-6,0-6-9.35,0-9.35S424,489.82,418,489.82Z"/><path class="cls-4" d="M514.35,233a4.56,4.56,0,0,1-4.48-4.48,4.51,4.51,0,0,1,1.26-3.1c-8.81-8.92-21.81-9-33-5a2.38,2.38,0,0,1-1.08.4,48.48,48.48,0,0,0-5.08,2.28,63.31,63.31,0,0,0-14.35,10.26c2.78,1.82,2.08,7.21-2.1,7.21a3.53,3.53,0,0,1-3.13-1.66c-13,15.31-19.59,36-22.87,55.66-4,23.84-2.32,52.49-18.93,71.75q3.18,7.72,5.9,15.62c15.83-1.83,30.69-5.65,44.59-13.71A112.06,112.06,0,0,0,494.82,338a4.09,4.09,0,0,1-1.93-3.33,3.92,3.92,0,0,1,3.88-3.89,3.72,3.72,0,0,1,2.42.9,142.92,142.92,0,0,0,12.25-23.38h-.1a4.09,4.09,0,1,1,0-8.18,4,4,0,0,1,2.78,1.14,128,128,0,0,0,7.53-44.19c-.15-8.19-1.43-17.15-5.36-24.56A4.58,4.58,0,0,1,514.35,233Zm-19.61-7.24a3.78,3.78,0,1,1-3.77,3.78A3.85,3.85,0,0,1,494.74,225.78ZM473.1,236.69c5.19,0,5.18,8,0,8S467.93,236.69,473.1,236.69ZM456.2,259a4,4,0,0,1,3.45,6,5.54,5.54,0,0,1-1.3,1.51,3.08,3.08,0,0,1-4.29,0,5.19,5.19,0,0,1-1.32-1.51A4,4,0,0,1,456.2,259ZM423.74,363.54c-3.73,0-3.72-5.79,0-5.79S427.47,363.54,423.74,363.54Zm4.12-48.45a4,4,0,1,1,4,4A4,4,0,0,1,427.86,315.09Zm12.08,59.19a4.13,4.13,0,0,1-2.17,1.49,5.48,5.48,0,0,1-2.21,0,4.32,4.32,0,0,1-2.76-2.15,5.13,5.13,0,0,1-.64-2,4.38,4.38,0,0,1,.08-2,4.3,4.3,0,0,1,1.89-2.46l-.73.56a1.39,1.39,0,0,1,.21-.21,3.44,3.44,0,0,1,2.84-.93,3.33,3.33,0,0,1,2.36,1.41,3.51,3.51,0,0,1,.31.42,4.42,4.42,0,0,1,1.14,1.25A4.18,4.18,0,0,1,439.94,374.28Zm4.54-25.51a4.6,4.6,0,0,1-3.16,1.31,4.47,4.47,0,1,1,3.16-1.31Zm1.58-61.16a4.2,4.2,0,0,1-1.1,1.89,4.31,4.31,0,0,1-1.89,1.1,4.2,4.2,0,0,1-2.28,0,3.68,3.68,0,0,1-1.52-.78l-.49-.41,0,0,0,0a3.59,3.59,0,0,1-.56-.71,4.09,4.09,0,0,1-.54-1.18,4.17,4.17,0,0,1,0-2.27,4.35,4.35,0,0,1,3-3,6.49,6.49,0,0,1,1.24-.17,4.17,4.17,0,0,1,2.62.93,3.31,3.31,0,0,1,1.11,1.21c.14.35.29.69.44,1v.05A4.2,4.2,0,0,1,446.06,287.61Zm9.78,37.94a4.27,4.27,0,1,1,1.26-3A4.3,4.3,0,0,1,455.84,325.55Zm4.27-25.89a.56.56,0,0,0-.2-.11,4.57,4.57,0,0,1-2.17-2.82,4.51,4.51,0,0,1,.24-3.07,4.81,4.81,0,0,1,1.93-2.25,5.1,5.1,0,0,1,6.85,1.92,5.08,5.08,0,0,1,.55,3,3.54,3.54,0,0,1-.55,1.75l-.11.14a4.34,4.34,0,0,1-.77,1,4.09,4.09,0,0,1-3,1.14h0a4.62,4.62,0,0,1-3.16-1Zm6.23,62.43c-4.8,0-4.79-7.45,0-7.45S471.13,362.09,466.34,362.09Zm8.31-28a4.57,4.57,0,0,1-4.59-.08,4.69,4.69,0,1,1,4.59.08Zm6.65-59.27L480,275l-1.27-.17-.37-.11a5,5,0,0,1-2.95-7.25,5.18,5.18,0,0,1,2.95-2.27,4.82,4.82,0,0,1,4.81,1.27,7.46,7.46,0,0,1,1,1.31,5,5,0,0,1,.57,3.06,4.63,4.63,0,0,1-.95,2.27A4.75,4.75,0,0,1,481.3,274.83Zm12.75,31.42a6.52,6.52,0,0,1-1.26,2.16l-.23.27a4.56,4.56,0,0,1-6.46,0l-.23-.27a5.2,5.2,0,0,1-1.34-2.81,4.79,4.79,0,0,1,.58-3.12,5.09,5.09,0,0,1,4.22-2.43,4.87,4.87,0,0,1,4.47,3A4.73,4.73,0,0,1,494.05,306.25ZM497.74,255l.49.21a4.66,4.66,0,0,1-3.25-2.49,5.19,5.19,0,0,1-.53-3.76,3.29,3.29,0,0,1,.16-.44l-.06.14c0-.11,0-.22,0-.33a4.36,4.36,0,0,1,7.2-2,5,5,0,0,1,1.9,2.92,5.06,5.06,0,0,1-.46,3.72,4.85,4.85,0,0,1-.61.82,4.29,4.29,0,0,1-2.13,1.46A4,4,0,0,1,497.74,255Zm9.57,22.27a4.36,4.36,0,0,1-3,1.23,4.22,4.22,0,0,1-3-7.2,4.36,4.36,0,0,1,3-1.23,4.3,4.3,0,0,1,4.22,4.21A4.34,4.34,0,0,1,507.31,277.28Z"/><path class="cls-2" d="M140.47,275.74c-4-4-11.31-13.4-16.93-7.15-5.43,6,1.28,14,7,16.75a21.17,21.17,0,0,0,17.75,0c-.31-.57-.64-1.14-1-1.68A50.83,50.83,0,0,0,140.47,275.74Z"/><path class="cls-2" d="M198.58,284.74c.57-5.37,4.12-10.69,5.42-15.81,1-4,1.57-8.74-1.36-12.09-1.54-1.75-4.64-3.5-7-2.34-5.57,2.74-2.42,15-1.27,19.4A79.93,79.93,0,0,0,198.58,284.74Z"/><path class="cls-2" d="M172.79,274.44c0-2.84.31-5.84,0-8.18-.43-3.52-1.45-14.22-6.39-13.66-5.22.59-.1,12.15,1.39,14.9A53.87,53.87,0,0,0,172.79,274.44Z"/><path class="cls-2" d="M373,310.12c3.89-4.68,7.46-9.18,9.19-15.29,1.39-4.93,2.88-14.34-2.17-17.91-7.36-5.19-13.72,9.56-14.29,14.71-.63,5.76,1.41,10.48,3.15,15.51Q371,308.55,373,310.12Z"/><path class="cls-2" d="M303.71,30.28a19.17,19.17,0,0,0,1.52-4.51c.51-3.06.35-10.5-4.34-10.22-5.8.35-.09,9.88,2.75,14.79Z"/><path class="cls-4" d="M326.66,298c3.77-18.75,7.37-37.61,9.48-56.63,2-18.1,2.58-36.81-1.84-54.62-5.09-20.53-17.88-41.3-37.28-50.28a1.65,1.65,0,0,1-2.26-.11c-.39-.42-.77-.86-1.15-1.3a49.16,49.16,0,0,0-11.37-2.81c-12.36-1.52-25.87,1.28-35.42,9.64-11,9.65-14.94,24.89-16.23,38.95-2.39,26,3.67,52.25,16.32,75a134.85,134.85,0,0,0,23.84,31.23c8.37,8.13,17.79,14.48,27.54,20.67A101.9,101.9,0,0,1,326.66,298Zm.61-57a4.56,4.56,0,0,1-2,1.16,4.65,4.65,0,0,1-2.4,0,5.26,5.26,0,0,1-2.08-.76l-.19-.1a4.06,4.06,0,0,1,0-7l.27-.12a5,5,0,0,1,2-.71,4.51,4.51,0,0,1,4.39,1.16,4.64,4.64,0,0,1,1.32,3.19A4.71,4.71,0,0,1,327.27,241Zm-9.22-43.66a4.29,4.29,0,0,1,.1-.86,3.77,3.77,0,0,1,.26-1.78,3.46,3.46,0,0,1,1.45-1.69,4.43,4.43,0,0,1,1.79-.49,2.9,2.9,0,0,1,.72,0,5.45,5.45,0,0,1,1.06.11,3.19,3.19,0,0,1,.59.21,5.35,5.35,0,0,1,1.49.82,3.49,3.49,0,0,1,1.2,1.3l.47,1.11s0,.08,0,.12a4.74,4.74,0,0,1,0,2.48,3.55,3.55,0,0,1-.84,1.59,4.4,4.4,0,0,1-3,1.75,4.65,4.65,0,0,1-5.27-4.58Zm-4.15,78.58a4.89,4.89,0,0,1,1.26-2.15,5,5,0,0,1,3.44-1.43,5,5,0,0,1,3.45,1.43,4.87,4.87,0,0,1,1.25,2.15,5,5,0,0,1,0,2.59,4.26,4.26,0,0,1-.69,1.86,4.66,4.66,0,0,1-4,2.3,4.57,4.57,0,0,1-2.34-.64,4.66,4.66,0,0,1-1.67-1.66,4.56,4.56,0,0,1-.69-1.86A5,5,0,0,1,313.9,275.93ZM239.49,194.4c-5.67,0-5.66-8.8,0-8.8S245.15,194.4,239.49,194.4Zm5.68-34.11a3.76,3.76,0,1,1,3.77-3.76A3.82,3.82,0,0,1,245.17,160.29Zm15.32,92.29a4.5,4.5,0,0,1-5.35.69,4.72,4.72,0,0,1-1.4-1.23,4.19,4.19,0,0,1-.49-.8l.07.18-.25-.46a4.37,4.37,0,0,1,.67-5.13,4.31,4.31,0,0,1,5.13-.67l.46.25-.2-.08a4.74,4.74,0,0,1,.82.5,4.37,4.37,0,0,1,1.23,1.4A4.55,4.55,0,0,1,260.49,252.58Zm-.71-28.67c-5.8,0-5.79-9,0-9S265.56,223.91,259.78,223.91Zm10.1-43.39a4.57,4.57,0,0,1-1.88,2.19l-1.09.46-1.22.17-.33,0a4.85,4.85,0,0,1-4.08-2.34,4.72,4.72,0,0,1,7.42-5.72l.23.27a4.77,4.77,0,0,1,1.26,2.63A4.37,4.37,0,0,1,269.88,180.52Zm26.7-14.75a5.05,5.05,0,0,1,1.26-1,6.93,6.93,0,0,1,2.63-.72,4.48,4.48,0,0,1,3.2,1.32,5.36,5.36,0,0,1,1.16,2,4.32,4.32,0,0,1-.23,2.94,4.26,4.26,0,0,1-.53.91,3.85,3.85,0,0,1-.46.73,3.52,3.52,0,0,1-1.32,1.22l-1.12.47a5.6,5.6,0,0,1-2.51,0,4.61,4.61,0,0,1-2.08-1.22,5.19,5.19,0,0,1-1.38-3.33A4.84,4.84,0,0,1,296.58,165.77ZM274.72,150a4.74,4.74,0,0,1,0-6.69,4.73,4.73,0,0,1,6.7,0,4.74,4.74,0,0,1,0,6.69,4.73,4.73,0,0,1-6.7,0Zm13.79,134.36a5.1,5.1,0,0,1-2.92,2.25,5,5,0,0,1-4.76-1.26l-1-.81a4.55,4.55,0,0,1-1.34-3.24,5.49,5.49,0,0,1,.62-2.31,4.67,4.67,0,0,1,5.17-2.1c.42.1.84.2,1.27.28a4.86,4.86,0,0,1,3.42,3.42A5.1,5.1,0,0,1,288.51,284.34Zm6.14-37.15a5,5,0,0,1-3.43,1.42,4.94,4.94,0,0,1-4.85-4.86,4.88,4.88,0,0,1,1.42-3.43,5,5,0,0,1,3.43-1.42,4.86,4.86,0,0,1,3.43,8.29ZM293,208.55a4.72,4.72,0,0,1,0-6.67,4.71,4.71,0,0,1,6.66,0,4.72,4.72,0,0,1,0,6.67,4.71,4.71,0,0,1-6.66,0Z"/><path class="cls-3" d="M445.12,234.35c-3.19-13.93,1.14-30.88-6.4-43.5C431.63,179,414.93,175.4,405,185.9c-11.63,12.36-.43,30.1,6.72,41.86,4.31,7.11,9.43,13.46,14.57,20a29.56,29.56,0,0,1,5.18,8.92A103.45,103.45,0,0,1,445.12,234.35Zm-30.84-49.7a4,4,0,1,1-4,4A4.07,4.07,0,0,1,414.28,184.65Zm-5.16,19.55a3.81,3.81,0,1,1,3.81,3.8A3.85,3.85,0,0,1,409.12,204.2Zm12,21.23-.09.48a3.45,3.45,0,0,1-1.6,2.08,4.09,4.09,0,0,1-1.75.48,3.38,3.38,0,0,1-2.11-.75,3.24,3.24,0,0,1-1.24-1.81l-.09-.48a3.72,3.72,0,0,1,.92-3.47,3.68,3.68,0,0,1,2.52-1,3.72,3.72,0,0,1,2.52,1A3.66,3.66,0,0,1,421.1,225.43ZM425.5,200a3.31,3.31,0,0,1-1-2.32,3.42,3.42,0,0,1,.53-1.75,1.22,1.22,0,0,1,0-.17,1.35,1.35,0,0,1,1.21-1,3.94,3.94,0,0,1,2.37-.25A3.27,3.27,0,1,1,425.5,200Zm3,19.82a3.66,3.66,0,0,1-1.65-1.92,3.8,3.8,0,0,1-.27-2.08,3.92,3.92,0,0,1,2.4-3.14,4,4,0,0,1,4.39.83,4.16,4.16,0,0,1,1,3.91l-.24.95a3.07,3.07,0,0,1-1.83,2.05,3.31,3.31,0,0,1-2.8-.16Zm3.59,13.75a4.61,4.61,0,0,1,3.17-1.32,4.49,4.49,0,1,1-3.17,1.32Z"/><path class="cls-2" d="M142.65,318.18A15.91,15.91,0,0,0,134,314.9c-3.5-.36-11-1.1-10.82,4.09.14,4.69,7,5.35,10.51,4.61s5.41-3.24,8.43-4.6a3.14,3.14,0,0,1,.81-.23c0-.15,0-.3-.05-.46A.91.91,0,0,1,142.65,318.18Z"/><path class="cls-2" d="M216.39,128a20.88,20.88,0,0,0-3.41-2.77c-1-.57-3.59-1.81-4.62-.88-2,1.84.18,7.57,1.14,9.3a19.89,19.89,0,0,0,5.2,5.91c3.91,3.05,8.61,4.61,12.73,7.23a47.5,47.5,0,0,0-6.14-13.24A35.41,35.41,0,0,0,216.39,128Z"/><path class="cls-2" d="M278.26,37.47c-1.62-3.24-3.25-6.61-5.19-9.68-3.24-5.12-7.61-2.05-8.89,2.58-2,7.11,2.69,14.24,8.43,18A39.94,39.94,0,0,0,282,52.72c1.54.52,2.94.82,4.24,1.35-1.51-1.57-2.08-3.72-3-5.93C281.64,44.53,280,41,278.26,37.47Z"/><path class="cls-2" d="M217.31,204.63a27.44,27.44,0,0,0-9.32-2.16c-5.15-.37-19,.67-16.79,9.14,1.76,6.62,12.9,6.36,17.91,5.55a33,33,0,0,0,10.51-3.57c1.26-.69,2.3-1.46,3.38-2-.17-1.08-.33-2.15-.48-3.23A22,22,0,0,0,217.31,204.63Z"/><path class="cls-2" d="M360.43,32.63a15.77,15.77,0,0,0,3.09-12c-.68-3.69-2.28-2.43-4.23-.17a16.11,16.11,0,0,0-3.3,7.74,43.55,43.55,0,0,0-.47,7c.25.41.5.81.73,1.22A19.37,19.37,0,0,0,360.43,32.63Z"/><path class="cls-2" d="M363.47,69.24c4.73,1.6,9.45,3.3,14.56,2.27,4.73-1,11.24-6.32,7.4-11.71-3.37-4.75-12.64-2.38-16.82-.27A27.84,27.84,0,0,0,363.45,63c0,.29.05.58.06.87A41.46,41.46,0,0,1,363.47,69.24Z"/><path class="cls-2" d="M219.3,164c-3.14-2.6-7.25-5-11.43-5.12-2.47-.07-5.06.46-4.87,3.25.23,3.34,4.55,4.42,7.21,5.1,4.26,1.11,8.58.82,12.86,1.26A16.92,16.92,0,0,0,219.3,164Z"/><path class="cls-4" d="M215.87,315.2c-10.13-12.65-25.2-28.4-42.25-30.24-19.87-2.15-24.77,21.88-21.47,36.85,8.22,37.27,47.56,51.29,80.45,59a4.31,4.31,0,0,1,1.27.54,97.26,97.26,0,0,1,3.21-9.79c.92-2.36,1.94-4.66,3-6.94C234.72,346.82,227.63,329.86,215.87,315.2ZM160.08,295c4.51-2.62,8.44,4.52,3.8,6.94C159.44,304.27,155.8,297.51,160.08,295Zm4.24,29.59-.14-.1a4.28,4.28,0,0,1-1.77-2.31,3.8,3.8,0,0,1,.19-2.51,3.84,3.84,0,0,1,7.26.46,3.8,3.8,0,0,1-.2,2.51,4.29,4.29,0,0,1-1.58,1.85l-.14.1A3.42,3.42,0,0,1,164.32,324.61Zm6.54,26.28c-5.18,0-5.17-8,0-8S176,350.89,170.86,350.89ZM181,307.12c-4.55,0-4.54-7.05,0-7.05S185.54,307.12,181,307.12Zm3.13,27.07a4,4,0,1,1,4,4A4.07,4.07,0,0,1,184.14,334.19Zm15.29,28a4.49,4.49,0,0,1-1.13,1.93l-.18.16a4.62,4.62,0,0,1-2.91,1.2,4.31,4.31,0,0,1-2.92-1.2l-.18-.16a4.07,4.07,0,0,1-1.2-2.51,4.36,4.36,0,0,1,.51-2.79,4.58,4.58,0,0,1,3.79-2.17,4.34,4.34,0,0,1,4,2.69A4.24,4.24,0,0,1,199.43,362.23Zm1.86-43.7c-5.31,0-5.3-8.24,0-8.24S206.59,318.53,201.29,318.53Zm14.25,30.15a4.38,4.38,0,0,1-1.1,1.88l-.26.23a4,4,0,0,1-5.49,0l-.27-.23a4.32,4.32,0,0,1-.66-5.17,4.43,4.43,0,0,1,3.67-2.11,4.27,4.27,0,0,1,3.9,2.62A4.16,4.16,0,0,1,215.54,348.68Zm4.68-19.76c4.83,0,4.82,7.49,0,7.49S215.4,328.92,220.22,328.92Zm3,45.92a4.32,4.32,0,0,1-3,1.22,4.17,4.17,0,1,1,3-1.22ZM231,364.65c-5.49,0-5.48-8.52,0-8.52S236.52,364.65,231,364.65Z"/><path class="cls-2" d="M405,167.19c-.2-3.64-2.23-9.73-6.88-9.82-6.16-.11-2.08,8.43-.34,10.86a16.75,16.75,0,0,0,6.66,5.4A33.54,33.54,0,0,0,405,167.19Z"/><path class="cls-2" d="M472.93,212.6l1.51-.59a32.85,32.85,0,0,0,.08-8.75c-.42-2.33-1.19-4.91-3-6.58-2.2-2.07-6.06-2.7-7.45.67-1.83,4.43,3.36,9.57,6,12.45C470.93,210.73,471.94,211.65,472.93,212.6Z"/><path class="cls-2" d="M509.7,213.2l.22.12a25.59,25.59,0,0,1,4.76-4.63c5.71-4.4,13.69-12.3,9.19-20.26-1.63-2.86-5.18-5.55-8.65-4.61-4.15,1.13-5.46,6.41-5.76,10.11C509,200,511.59,207.31,509.7,213.2Z"/><path class="cls-2" d="M443,171.65a23.74,23.74,0,0,0,4.27-11.94c.08-1.58.28-5-.81-6.26-3.61-4.13-5.35.3-6.13,2.6A47.11,47.11,0,0,0,438.18,171c0,1.73.28,3.67.43,5.59A29.53,29.53,0,0,0,443,171.65Z"/><path class="cls-3" d="M294.74,126.11a60,60,0,0,1,10.83,4.73,4.45,4.45,0,0,1,1.79-2.33c16.09-10.93,30.26-24.16,40.49-40.87a43.36,43.36,0,0,0,6.59-18.25,1.26,1.26,0,0,1-.4-1,13.11,13.11,0,0,1,.59-3.52,41.64,41.64,0,0,0-.3-4.24c-1-8.23-3.32-18.1-8.81-24.59-8.91-10.52-22.67-8.33-33-1.56a4,4,0,0,1,.17.44,3.89,3.89,0,0,1-.05,2.34,3.39,3.39,0,0,1-3.18,2.42,3.08,3.08,0,0,1-2.31-1,36,36,0,0,0-2.9,3C293.78,54.18,288.67,71.27,288,87.3a91,91,0,0,0,2.19,24.23A137.61,137.61,0,0,0,294.74,126.11Zm10.13-2.25a4.58,4.58,0,1,1-3.24-7.81,4.78,4.78,0,0,1,3.24,1.34,4.57,4.57,0,0,1,0,6.47Zm35.71-67.22c5.44,0,5.43,8.43,0,8.43S335.15,56.64,340.58,56.64ZM335,85.7A4.72,4.72,0,0,1,331.79,87a4.54,4.54,0,0,1-3.21-7.75A4.67,4.67,0,0,1,331.79,78,4.54,4.54,0,0,1,335,85.7Zm-9.08-43.81.06.45a4.26,4.26,0,0,1,.53-2.91,4.8,4.8,0,0,1,2.76-2.08,4.72,4.72,0,0,1,5.36,2,4.47,4.47,0,0,1,0,4.46,4.52,4.52,0,0,1-2.72,2.08,4.78,4.78,0,0,1-2,.08,7.18,7.18,0,0,1-.81-.12l-.22-.08a3.94,3.94,0,0,1-3-3.83A.19.19,0,0,0,325.92,41.89Zm-.45,60.62a4.32,4.32,0,0,1-1.24,3,4.4,4.4,0,0,1-3,1.23,4.22,4.22,0,0,1-3-7.21,4.36,4.36,0,0,1,3-1.24A4.3,4.3,0,0,1,325.47,102.51ZM315.35,53.05a4.43,4.43,0,0,1,4-.78,4.13,4.13,0,0,1,2.81,2.81,4.09,4.09,0,0,1,0,2.14,4.67,4.67,0,0,1-.24.62c0,.07,0,.14-.07.21-.12.27-.22.49-.34.74,0-.09.07-.18.11-.26a4.18,4.18,0,0,1-3.7,2.43,4.31,4.31,0,0,1-4.09-3.09A4.53,4.53,0,0,1,315.35,53.05Zm-5.88,21.3c5.26,0,5.26,8.17,0,8.17S304.22,74.35,309.47,74.35Zm-4.73,19.51c5.39,0,5.38,8.36,0,8.36S299.36,93.86,304.74,93.86ZM294.89,62.2a3.2,3.2,0,0,1,1.47-1.91,3.84,3.84,0,0,1,1.62-.44,3,3,0,0,1,1.94.69,3,3,0,0,1,1.15,1.66,4.72,4.72,0,0,1,.08,1.45c0,.25-.07.5-.11.75a3.17,3.17,0,0,1-1.46,1.9,3.89,3.89,0,0,1-1.6.43,3,3,0,0,1-1.92-.68,3,3,0,0,1-1.14-1.65c0-.25-.08-.49-.11-.75A4.43,4.43,0,0,1,294.89,62.2Zm-5.46,21.11s0-.1,0-.15a3.31,3.31,0,0,1,3.1-2.36,3.25,3.25,0,0,1,3.1,2.36s0,.1.05.15a3.26,3.26,0,1,1-6.29,0Z"/><path class="cls-1" d="M551.39,227.88c-4.46-9.29-22.77-7.17-27.49.39a39.32,39.32,0,0,0-7.83-10.43v0a40.26,40.26,0,0,1,5.49-4.61,30.53,30.53,0,0,0,9.36-11.63c3.63-8.32,1.68-18.16-6.32-23.16-7.36-4.61-16.3-2-20.23,5.69-2.11,4.12-2.59,8.94-2.28,13.49.22,3.15.73,6.26,1,9.4.1,1.16.11,2.32.14,3.47a37.85,37.85,0,0,0-9.43-1.58,48.8,48.8,0,0,0-12.1,1,29.2,29.2,0,0,0-2.51-13.49c-2.84-5.85-9.81-10-16.18-6.93-6,2.89-6.62,10.36-4,15.83,1.7,3.61,4.6,6.71,7.4,9.49l.64.64a69.22,69.22,0,0,0-14.69,11c-1.84-14.65,1-30.53-8.78-42.89-.24-.31-.51-.6-.77-.9a43.88,43.88,0,0,0,4.56-5c4.24-5.48,7.13-12.34,6.88-19.37-.2-5.68-2.4-13.3-9.22-13.72-7.32-.44-10.61,6.94-12,12.9-1,4.57-2.08,11.21-1.39,17a28.91,28.91,0,0,0-19.9-1.59c.75-5.34-.36-11.42-2.89-15.32-3.25-5-9.85-8.64-15.72-6-6.51,2.93-5.7,11.07-3.3,16.62a21.47,21.47,0,0,0,10.92,11.12A27.64,27.64,0,0,0,393,191.81c-2.31,8.26.43,16.39,3.85,23.91a141.9,141.9,0,0,0,14.53,24.72c5.14,7.05,14.5,14.44,15.06,23.62a2.89,2.89,0,0,0,1.33,2.24c-5.54,16.34-7.5,33.55-9.15,50.68-1.4,14.45-3.2,30-10.92,42.55q-1.95-4.38-4.08-8.68c-6.44-13-14.49-26-25.08-36,6.88-5.54,10.85-15,12-23.46,1-7.85-.43-19.3-9.34-22.16-9.59-3.07-18,6.51-21,14.54a33.61,33.61,0,0,0-1,18,61.64,61.64,0,0,0-6-2.29,51.67,51.67,0,0,0-16.8-2.37C340,280,343,262.61,345.14,245.2c2.28-18.44,3-37.18-.57-55.52-4.06-20.76-14.9-41.55-31.92-54.24a132.22,132.22,0,0,0,42.5-42.53,57.82,57.82,0,0,0,7.06-16c7.13,2.74,15.27,3.64,22.21.46,7.4-3.4,12-12.49,8.08-20.21-5.33-10.54-20.43-9.13-30.05-2.3a67.3,67.3,0,0,0-3.08-11.5c4.26-2,7.78-6.82,9.47-10.56,2.56-5.64,3.7-15.3-1.33-20.1-5.81-5.54-13.4,2.1-15.87,7.3a23.58,23.58,0,0,0-2.12,7.85c-10-8.88-25.06-9.66-37.2-3.51.1-7.23-3.41-14.68-10.41-15.52-5.56-.67-9.75,3.5-10.18,8.88-.54,6.85,4.27,11.54,7.41,17.09a63.89,63.89,0,0,0-9.24,13.48,85,85,0,0,0-3.62-7.94,120.57,120.57,0,0,0-8.23-16.28c-4.82-7.48-13.79-7-18.28.76-4.23,7.29-2.07,16.82,3,23.1a33,33,0,0,0,11.47,8.69c3.11,1.5,6.95,3.56,10.6,3.87a93.36,93.36,0,0,0-3.43,14.37c-2.38,15.28-1.65,34.24,5.3,49.25a58.28,58.28,0,0,0-34.8,4.25,46,46,0,0,0-18.21,15.55,39.15,39.15,0,0,0-9.58-18.31c-4.36-4.82-13.32-12.71-19.78-6.94-5.66,5.07-3.1,14.84.68,20.2a33.59,33.59,0,0,0,21.55,13.06,2.57,2.57,0,0,0,3-2.14,3.26,3.26,0,0,0,.44.15,63.58,63.58,0,0,0-4.56,11.33,25,25,0,0,0-4-4.09c-5.34-4.34-13.58-7.31-20.24-4.23s-7.31,11.34-2.39,16.37,15.85,7.33,23.57,6a116.73,116.73,0,0,0-.79,24.59c-4.44-3-10.56-4.44-15.1-4.73-9.39-.58-22,3.07-22.92,14.25-.77,9.75,9.25,14.75,17.59,15.4a40.2,40.2,0,0,0,17.43-2.72,41.1,41.1,0,0,0,5.86-2.58,148.47,148.47,0,0,0,9.14,27.93c11.27,25.55,31.59,51.28,57.23,64.28-2.7,1.54-5.31,3.15-7.81,4.76a119.63,119.63,0,0,0-38.62,39.86c-3.41-16-11.13-31.11-20.85-44.1-5.82-7.78-13-16.12-21.36-22.8a2.47,2.47,0,0,0,.38-.28c3.68-3.34,5.06-9.28,6.58-13.86,1.64-4.92,3-10.35,2-15.55-1.41-7-8.3-13.35-15.8-11.9-8.79,1.7-9.46,12-8.59,19.11a50.79,50.79,0,0,0,4.06,14.88,49.29,49.29,0,0,0-11.47-4.4,31.13,31.13,0,0,0,0-7.09A57.76,57.76,0,0,0,177,256.17c-1.75-5.46-6.64-12.65-13.34-10-11.15,4.4-4.33,22.1,3.89,30.55a25.3,25.3,0,0,0-13.89,6.82c-2.64-7.2-10.73-14.41-15.12-18.44-3.32-3.05-6.9-5.81-11.65-5.38a13.58,13.58,0,0,0-10.16,6.69c-5,8.45.2,18.46,7.65,23.41a27.47,27.47,0,0,0,22.35,3.38,43.9,43.9,0,0,0-4.14,17c0,.29,0,.58,0,.87-6.92-5.23-25-3.66-26.11,6.9-1.39,13.4,20,15.86,27.79,7.68,3.36,13.36,11.46,25.68,21.58,34.74,17.9,16,41.56,23.27,64.48,28.64a4.42,4.42,0,0,0,1.8.06c-3.45,19.06-.9,38.44,6.52,56.95a260.17,260.17,0,0,0,34.66,60.67A237.21,237.21,0,0,0,327,558.48c19.19,13.21,40,23.62,64.72,28.88,6,1.06,12.2,2,16.86,2.6,3.76.52,7.66,1.36,11.45,1.28a8.87,8.87,0,0,0,8.34-6.57l.17-.59c9.69-23.77,7.75-51.42,7.22-76.57-.57-27.14-2.69-54.32-7.67-81a323.86,323.86,0,0,0-8.78-35.83c28.9-.18,57.84-17.25,76.4-38.43,20.61-23.54,32.45-54.49,34.95-85.55A81.12,81.12,0,0,0,528.93,242l2.39.37c3.8.59,7.82,1.13,11.6.18C549.29,241,554.54,234.45,551.39,227.88ZM368.61,59.53c4.18-2.11,13.45-4.48,16.82.27,3.84,5.39-2.67,10.76-7.4,11.71-5.11,1-9.83-.67-14.56-2.27a41.46,41.46,0,0,0,0-5.35c0-.29,0-.58-.06-.87A27.84,27.84,0,0,1,368.61,59.53ZM356,28.19a16.11,16.11,0,0,1,3.3-7.74c1.95-2.26,3.55-3.52,4.23.17a15.77,15.77,0,0,1-3.09,12,19.37,19.37,0,0,1-4.18,3.81c-.23-.41-.48-.81-.73-1.22A43.55,43.55,0,0,1,356,28.19ZM282,52.72a39.94,39.94,0,0,1-9.35-4.34c-5.74-3.77-10.39-10.9-8.43-18,1.28-4.63,5.65-7.7,8.89-2.58,1.94,3.07,3.57,6.44,5.19,9.68,1.75,3.51,3.38,7.06,4.92,10.67.94,2.21,1.51,4.36,3,5.93C284.9,53.54,283.5,53.24,282,52.72ZM214.7,139.51a19.89,19.89,0,0,1-5.2-5.91c-1-1.73-3.17-7.46-1.14-9.3,1-.93,3.64.31,4.62.88a20.88,20.88,0,0,1,3.41,2.77,35.41,35.41,0,0,1,4.9,5.55,47.5,47.5,0,0,1,6.14,13.24C223.31,144.12,218.61,142.56,214.7,139.51Zm4.92,74.08a33,33,0,0,1-10.51,3.57c-5,.81-16.15,1.07-17.91-5.55-2.24-8.47,11.64-9.51,16.79-9.14a27.44,27.44,0,0,1,9.32,2.16,22,22,0,0,1,5.21,3.77c.15,1.08.31,2.15.48,3.23C221.92,212.13,220.88,212.9,219.62,213.59Zm-9.41-46.38c-2.66-.68-7-1.76-7.21-5.1-.19-2.79,2.4-3.32,4.87-3.25,4.18.12,8.29,2.52,11.43,5.12a16.92,16.92,0,0,1,3.77,4.49C218.79,168,214.47,168.32,210.21,167.21ZM142.15,319c-3,1.36-5,3.88-8.43,4.6s-10.37.08-10.51-4.62c-.16-5.18,7.32-4.44,10.82-4.08a15.91,15.91,0,0,1,8.62,3.28.91.91,0,0,0,.26.13c0,.16,0,.31.05.46A3.14,3.14,0,0,0,142.15,319ZM509.46,193.93c.3-3.7,1.61-9,5.76-10.11,3.47-.94,7,1.75,8.65,4.61,4.5,8-3.48,15.86-9.19,20.26a25.59,25.59,0,0,0-4.76,4.63l-.22-.12C511.59,207.31,509,200,509.46,193.93Zm-45.36,3.42c1.39-3.37,5.25-2.74,7.45-.67,1.78,1.67,2.55,4.25,3,6.58a32.85,32.85,0,0,1-.08,8.75l-1.51.59c-1-.95-2-1.87-2.85-2.8C467.46,206.92,462.27,201.78,464.1,197.35Zm-23.78-41.3c.78-2.3,2.52-6.73,6.13-2.6,1.09,1.25.89,4.68.81,6.26A23.74,23.74,0,0,1,443,171.65a29.53,29.53,0,0,1-4.38,4.91c-.15-1.92-.43-3.86-.43-5.59A47.11,47.11,0,0,1,440.32,156.05Zm-42.53,12.18c-1.74-2.43-5.82-11,.34-10.86,4.65.09,6.68,6.18,6.88,9.82a33.54,33.54,0,0,1-.56,6.44A16.75,16.75,0,0,1,397.79,168.23Zm28.54,79.5c-5.14-6.51-10.26-12.86-14.57-20-7.15-11.76-18.35-29.5-6.72-41.86,9.89-10.5,26.59-6.9,33.68,4.95,7.54,12.62,3.21,29.57,6.4,43.5a103.45,103.45,0,0,0-13.61,22.3A29.56,29.56,0,0,0,426.33,247.73Zm-60.61,43.9c.57-5.15,6.93-19.9,14.29-14.71,5.05,3.57,3.56,13,2.17,17.91-1.73,6.11-5.3,10.61-9.19,15.29q-2-1.58-4.12-3C367.13,302.11,365.09,297.39,365.72,291.63ZM300.89,15.55c4.69-.28,4.85,7.16,4.34,10.22a19.17,19.17,0,0,1-1.52,4.51l-.07.06C300.8,25.43,295.09,15.9,300.89,15.55ZM288,87.3c.67-16,5.78-33.12,16.26-45.53a36,36,0,0,1,2.9-3,3.08,3.08,0,0,0,2.31,1,3.39,3.39,0,0,0,3.18-2.42A3.89,3.89,0,0,0,312.7,35a4,4,0,0,0-.17-.44c10.32-6.77,24.08-9,33,1.56,5.49,6.49,7.77,16.36,8.81,24.59a41.64,41.64,0,0,1,.3,4.24,13.11,13.11,0,0,0-.59,3.52,1.26,1.26,0,0,0,.4,1,43.36,43.36,0,0,1-6.59,18.25c-10.23,16.71-24.4,29.94-40.49,40.87a4.45,4.45,0,0,0-1.79,2.33,60,60,0,0,0-10.83-4.73,137.61,137.61,0,0,1-4.55-14.58A90.94,90.94,0,0,1,288,87.3ZM270.75,287.07a134.85,134.85,0,0,1-23.84-31.23c-12.65-22.74-18.71-49-16.32-75,1.29-14.06,5.2-29.3,16.23-38.95,9.55-8.36,23.06-11.16,35.42-9.64a49.66,49.66,0,0,1,11.37,2.8c.38.45.76.89,1.15,1.31a1.65,1.65,0,0,0,2.26.11c19.4,9,32.19,29.75,37.28,50.28,4.42,17.81,3.85,36.52,1.84,54.62-2.11,19-5.71,37.88-9.48,56.63a101.9,101.9,0,0,0-28.37,9.73C288.54,301.55,279.12,295.2,270.75,287.07Zm-75.1-32.57c2.35-1.16,5.45.59,7,2.34,2.93,3.35,2.37,8.1,1.36,12.09-1.3,5.12-4.85,10.44-5.42,15.81a79.93,79.93,0,0,1-4.2-10.84C193.23,269.53,190.08,257.24,195.65,254.5Zm-29.23-1.9c4.94-.56,6,10.14,6.39,13.66.29,2.34,0,5.34,0,8.18a53.87,53.87,0,0,1-5-6.94C166.32,264.75,161.2,253.19,166.42,252.6Zm-35.93,32.74c-5.67-2.71-12.38-10.71-7-16.75,5.62-6.25,12.9,3.18,16.93,7.15a50.83,50.83,0,0,1,6.77,7.95c.36.54.69,1.11,1,1.68A21.17,21.17,0,0,1,130.49,285.34Zm106.59,86.21a97.26,97.26,0,0,0-3.21,9.79,4.26,4.26,0,0,0-1.28-.54c-32.88-7.7-72.22-21.72-80.44-59-3.3-15,1.6-39,21.47-36.85,17,1.84,32.12,17.59,42.25,30.24,11.76,14.66,18.85,31.62,24.22,49.41C239,366.89,238,369.19,237.08,371.55Zm189,125.12c.56,14.12.69,28.25.56,42.37-.13,14.42-.78,29.21-6.61,42.62a4.83,4.83,0,0,0-.4,2h0c-3.5.09-7.31.83-10.78.47-4-.42-9-1.44-14-2.47C375.4,575,356.58,568.32,339,557.29a218.66,218.66,0,0,1-47.81-41.21,256.86,256.86,0,0,1-35.3-52.18c-11-21.47-19.83-44.51-16.2-69,3.44-23.31,15.8-44.31,33.36-59.8A123.73,123.73,0,0,1,301,316.74c10.83-5.26,23.59-10.4,35.77-10.53,24.5-.27,42.5,19.78,53.6,39.45,12,21.28,20.12,44.68,25.63,68.43C422.25,441.18,425,468.92,426.1,496.67Zm88-195.37a4,4,0,0,0-2.78-1.14,4.09,4.09,0,1,0,0,8.18h.1a142.92,142.92,0,0,1-12.25,23.38,3.72,3.72,0,0,0-2.42-.9,3.92,3.92,0,0,0-3.88,3.89,4.09,4.09,0,0,0,1.93,3.33,112.06,112.06,0,0,1-33.74,30.19c-13.9,8.06-28.76,11.88-44.59,13.71q-2.72-7.9-5.9-15.62c16.61-19.26,15-47.91,18.93-71.75,3.28-19.66,9.91-40.35,22.87-55.66a3.53,3.53,0,0,0,3.13,1.66c4.18,0,4.88-5.39,2.1-7.21A63.31,63.31,0,0,1,472,223.09a48.48,48.48,0,0,1,5.08-2.28,2.38,2.38,0,0,0,1.08-.4c11.19-4,24.19-3.89,33,5a4.51,4.51,0,0,0-1.26,3.1,4.43,4.43,0,0,0,6.42,4c3.93,7.41,5.21,16.37,5.36,24.56A128,128,0,0,1,514.12,301.3Zm29.53-66.74c-4.61,3.66-11.17.81-17.11-.46-.13-.35-.28-.7-.42-1,1.58-2.79,6.62-4.34,9.21-5,2.32-.56,5.27-1.17,7.52.06C545.68,229.69,546.19,232.54,543.65,234.56Z"/><path class="cls-1" d="M265.65,437.07l-.59-.39a4.44,4.44,0,0,0-6.68,3.83,4.48,4.48,0,0,0,2.2,3.84,4.43,4.43,0,0,0,4.48,0l.59-.39a4,4,0,0,0,0-6.89Z"/><path class="cls-1" d="M276,394.77c-5.36,0-5.37,8.32,0,8.32S281.37,394.77,276,394.77Z"/><path class="cls-1" d="M287.16,355c-5.58,0-5.59,8.67,0,8.67S292.75,355,287.16,355Z"/><path class="cls-1" d="M299.64,327.46c.09-.15.18-.3.28-.45a4.2,4.2,0,1,0-7.26,0c.1.15.19.3.28.45A3.93,3.93,0,0,0,299.64,327.46Z"/><path class="cls-1" d="M297.3,430.39a4,4,0,1,0,4.05,4A4.09,4.09,0,0,0,297.3,430.39Z"/><path class="cls-1" d="M309.45,390.84a4.31,4.31,0,0,0,1.91,1.12,4.24,4.24,0,0,0,2.83-.22,4.32,4.32,0,0,0,2.67-4,4.53,4.53,0,0,0-2.15-3.74,4.32,4.32,0,0,0-2.77-.52,4,4,0,0,0-2.49,1.2l-.28.33a4,4,0,0,0-1.13,2.73,4.31,4.31,0,0,0,1.13,2.74Z"/><path class="cls-1" d="M327.43,339.68a.88.88,0,0,0-1-.32,4.64,4.64,0,0,0-1-.11,4.84,4.84,0,1,0,4.83,4.83A5,5,0,0,0,327.43,339.68Z"/><path class="cls-1" d="M335.84,316.64a3.92,3.92,0,1,0-3.92-3.92A4,4,0,0,0,335.84,316.64Z"/><path class="cls-1" d="M283.1,473.52a4.67,4.67,0,0,0-3.19,1.33,4.52,4.52,0,0,0,3.19,7.71,4.68,4.68,0,0,0,3.2-1.33,4.52,4.52,0,0,0-3.2-7.71Z"/><path class="cls-1" d="M307.45,513.34a3.65,3.65,0,1,0,3.64,3.65A3.69,3.69,0,0,0,307.45,513.34Z"/><path class="cls-1" d="M320,466.58a4.21,4.21,0,0,0-4.56-1.69A5,5,0,0,0,313.6,466a3.84,3.84,0,0,0-.67.89l-.08.09a5.06,5.06,0,0,0-.31.43,8.83,8.83,0,0,0-.9,1.12,4.49,4.49,0,0,0-.23,4.14,4.38,4.38,0,0,0,3,2.7,5.86,5.86,0,0,0,2.73,0,5.65,5.65,0,0,0,1.95-1,5,5,0,0,0,1.42-1.62,5.45,5.45,0,0,0,.61-1.57,5.18,5.18,0,0,0-.24-3.09A5,5,0,0,0,320,466.58Z"/><path class="cls-1" d="M336.93,425.37a4.75,4.75,0,0,0,1.28-2.67s0-.05,0-.08a5,5,0,0,0,.31-1.4,3.51,3.51,0,0,0-3.9-4,3.74,3.74,0,0,0-1.09.14l-.26.1a4.67,4.67,0,0,0-4.29,4.65,4.65,4.65,0,0,0,7.94,3.29Z"/><path class="cls-1" d="M346,373c-5.92,0-5.93,9.19,0,9.19S351.91,373,346,373Z"/><path class="cls-1" d="M363.23,333.28a5,5,0,0,0-3.39,1.41,4.79,4.79,0,0,0,3.39,8.18,4.94,4.94,0,0,0,3.39-1.4,4.8,4.8,0,0,0-3.39-8.19Z"/><path class="cls-1" d="M245.58,402.77a4.41,4.41,0,0,0-3,1.25,4.29,4.29,0,1,0,3-1.25Z"/><path class="cls-1" d="M262.25,369.52a4.58,4.58,0,0,0-4.5-4.5,4.64,4.64,0,0,0-3.18,1.32,4.5,4.5,0,0,0,3.18,7.68,4.68,4.68,0,0,0,3.18-1.32A4.57,4.57,0,0,0,262.25,369.52Z"/><path class="cls-1" d="M377.43,365.14c-5.64,0-5.65,8.76,0,8.76S383.07,365.14,377.43,365.14Z"/><path class="cls-1" d="M374.13,406.28a4.46,4.46,0,0,0-3.05,1.26,4.32,4.32,0,0,0,3.05,7.37,4.32,4.32,0,0,0,4.32-4.32A4.4,4.4,0,0,0,374.13,406.28Z"/><path class="cls-1" d="M357.14,455.07a4.87,4.87,0,0,0-3.33,1.38,4.79,4.79,0,0,0-1.38,3.33,4.74,4.74,0,0,0,1.38,3.34,4.72,4.72,0,0,0,8.05-3.34,4.82,4.82,0,0,0-1.38-3.33A4.91,4.91,0,0,0,357.14,455.07Z"/><path class="cls-1" d="M348,498.58a4.81,4.81,0,0,0-4.82,4.82,4.91,4.91,0,0,0,4.82,4.81,5,5,0,0,0,3.4-1.41,4.82,4.82,0,0,0-3.4-8.22Z"/><path class="cls-1" d="M406.64,409.14a6,6,0,0,0,2.5-1.52,4.57,4.57,0,0,0,1.18-4.46,4.62,4.62,0,0,0-3.2-3.2,4.72,4.72,0,0,0-5.69,3.38,4.28,4.28,0,0,0,.27,3.79A4.5,4.5,0,0,0,406.64,409.14Z"/><path class="cls-1" d="M402,446.8c-.17-.39-.33-.78-.5-1.18a5.06,5.06,0,0,0-1.78-1.78A4.21,4.21,0,0,0,398,443a4.74,4.74,0,0,0-4.62,1.22,4.82,4.82,0,0,0-1.23,2.1,4.93,4.93,0,0,0,0,2.53,4.12,4.12,0,0,0,.82,1.74,5.23,5.23,0,0,0,3,2.28l1.17.15.11,0h.05a4.36,4.36,0,0,0,1.68-.13,4.41,4.41,0,0,0,2-1.15,4.47,4.47,0,0,0,1.15-2,4.34,4.34,0,0,0,.12-1.75A4,4,0,0,0,402,446.8Z"/><path class="cls-1" d="M387.57,487.35a5,5,0,0,0-3.46,1.43,4.89,4.89,0,0,0,3.46,8.35A5,5,0,0,0,391,495.7a4.89,4.89,0,0,0-3.46-8.35Z"/><path class="cls-1" d="M339.2,536.17a5.27,5.27,0,0,0-.56-.5l-.06-.06a4.07,4.07,0,0,0-2.74-1.13,4.44,4.44,0,0,0-2.73,1.13l-.19.18c-.15.12-.29.25-.43.38a5.14,5.14,0,0,0-1.39,3.35c0,.47-.08.93-.13,1.4a4.9,4.9,0,0,0,1.43,3.45,4.86,4.86,0,0,0,6.89,0,4.75,4.75,0,0,0,1.43-3.45c-.05-.47-.08-.93-.14-1.4A5.24,5.24,0,0,0,339.2,536.17Z"/><path class="cls-1" d="M372.36,529a5,5,0,0,0-4.65,3.53,4.91,4.91,0,0,0,.49,3.71,5.54,5.54,0,0,0,1.38,1.47,3.71,3.71,0,0,0,2.78,1.16,4.26,4.26,0,0,0,2.72-1.12,4.78,4.78,0,0,0,2-4.58,4.9,4.9,0,0,0-1.32-2.76A4.84,4.84,0,0,0,372.36,529Z"/><path class="cls-1" d="M418,489.82c6,0,6-9.35,0-9.35S412,489.82,418,489.82Z"/><path class="cls-1" d="M413.13,522.91a7.41,7.41,0,0,0-1.71-.87,6.65,6.65,0,0,0-1.87-.4l-1.18.16-1.05.44a4.48,4.48,0,0,0-.89,6.92,7.48,7.48,0,0,0,3.29,1.82,4.47,4.47,0,0,0,3.41-.44,4.57,4.57,0,0,0,1.8-2.11,4.27,4.27,0,0,0,.23-2.88A5,5,0,0,0,413.13,522.91Z"/><path class="cls-1" d="M282.8,146.64a4.75,4.75,0,0,0-1.38-3.35,4.73,4.73,0,0,0-6.7,0,4.74,4.74,0,0,0,0,6.69,4.73,4.73,0,0,0,6.7,0A4.76,4.76,0,0,0,282.8,146.64Z"/><path class="cls-1" d="M298.66,173.65a5.6,5.6,0,0,0,2.51,0l1.12-.47a3.52,3.52,0,0,0,1.32-1.22,3.85,3.85,0,0,0,.46-.73,4.26,4.26,0,0,0,.53-.91,4.32,4.32,0,0,0,.23-2.94,5.36,5.36,0,0,0-1.16-2,4.48,4.48,0,0,0-3.2-1.32,6.93,6.93,0,0,0-2.63.72,5.05,5.05,0,0,0-1.26,1,4.84,4.84,0,0,0-1.38,3.33,5.19,5.19,0,0,0,1.38,3.33A4.61,4.61,0,0,0,298.66,173.65Z"/><path class="cls-1" d="M323.32,202.05a4.4,4.4,0,0,0,3-1.75,3.55,3.55,0,0,0,.84-1.59,4.74,4.74,0,0,0,0-2.48s0-.08,0-.12l-.47-1.11a3.49,3.49,0,0,0-1.2-1.3,5.35,5.35,0,0,0-1.49-.82,3.19,3.19,0,0,0-.59-.21,5.45,5.45,0,0,0-1.06-.11,2.9,2.9,0,0,0-.72,0,4.43,4.43,0,0,0-1.79.49,3.46,3.46,0,0,0-1.45,1.69,3.77,3.77,0,0,0-.26,1.78,4.29,4.29,0,0,0-.1.86v.12A4.65,4.65,0,0,0,323.32,202.05Z"/><path class="cls-1" d="M268.93,175.52l-.23-.27a4.66,4.66,0,0,0-4.6-1.21,4.78,4.78,0,0,0-2.82,6.93,4.85,4.85,0,0,0,4.08,2.34l.33,0,1.22-.17,1.09-.46a4.57,4.57,0,0,0,1.88-2.19,4.37,4.37,0,0,0,.31-2.37A4.77,4.77,0,0,0,268.93,175.52Z"/><path class="cls-1" d="M245.17,152.77a3.76,3.76,0,1,0,3.77,3.76A3.8,3.8,0,0,0,245.17,152.77Z"/><path class="cls-1" d="M301,205.21a4.72,4.72,0,0,0-1.38-3.33,4.71,4.71,0,0,0-6.66,0,4.72,4.72,0,0,0,0,6.67,4.71,4.71,0,0,0,6.66,0A4.76,4.76,0,0,0,301,205.21Z"/><path class="cls-1" d="M325.28,233.47a4.45,4.45,0,0,0-2.4,0,5,5,0,0,0-2,.71l-.27.12a4.06,4.06,0,0,0,0,7l.19.1a5.26,5.26,0,0,0,2.08.76,4.65,4.65,0,0,0,2.4,0,4.56,4.56,0,0,0,2-1.16,4.71,4.71,0,0,0,1.32-3.19,4.64,4.64,0,0,0-1.32-3.19A4.46,4.46,0,0,0,325.28,233.47Z"/><path class="cls-1" d="M239.49,185.6c-5.66,0-5.67,8.8,0,8.8S245.16,185.6,239.49,185.6Z"/><path class="cls-1" d="M259.78,214.92c-5.79,0-5.8,9,0,9S265.57,214.92,259.78,214.92Z"/><path class="cls-1" d="M291.22,238.9a5,5,0,0,0-3.43,1.42,4.88,4.88,0,0,0-1.42,3.43,4.94,4.94,0,0,0,4.85,4.86,5,5,0,0,0,3.43-1.42,4.86,4.86,0,0,0-3.43-8.29Z"/><path class="cls-1" d="M314.59,280.38a4.66,4.66,0,0,0,1.67,1.66,4.57,4.57,0,0,0,2.34.64,4.66,4.66,0,0,0,4-2.3,4.26,4.26,0,0,0,.69-1.86,5,5,0,0,0,0-2.59,4.87,4.87,0,0,0-1.25-2.15,5,5,0,0,0-3.45-1.43,5,5,0,0,0-3.44,1.43,4.89,4.89,0,0,0-1.26,2.15,5,5,0,0,0,0,2.59A4.56,4.56,0,0,0,314.59,280.38Z"/><path class="cls-1" d="M260,245.83a4.74,4.74,0,0,0-.82-.5l.2.08-.46-.25a4.31,4.31,0,0,0-5.13.67,4.37,4.37,0,0,0-.67,5.13l.25.46-.07-.18a4.19,4.19,0,0,0,.49.8,4.72,4.72,0,0,0,1.4,1.23,4.5,4.5,0,0,0,5.35-.69,4.55,4.55,0,0,0,.69-5.35A4.37,4.37,0,0,0,260,245.83Z"/><path class="cls-1" d="M285.59,277.15c-.43-.08-.85-.18-1.27-.28a4.67,4.67,0,0,0-5.17,2.1,5.49,5.49,0,0,0-.62,2.31,4.55,4.55,0,0,0,1.34,3.24l1,.81a5,5,0,0,0,4.76,1.26,4.91,4.91,0,0,0,3.42-6A4.86,4.86,0,0,0,285.59,277.15Z"/><path class="cls-1" d="M160.08,295c-4.28,2.49-.64,9.25,3.8,6.94C168.52,299.54,164.59,292.4,160.08,295Z"/><path class="cls-1" d="M168.08,324.51a4.29,4.29,0,0,0,1.58-1.85,3.8,3.8,0,0,0,.2-2.51,3.84,3.84,0,0,0-7.26-.46,3.8,3.8,0,0,0-.19,2.51,4.28,4.28,0,0,0,1.77,2.31l.14.1a3.42,3.42,0,0,0,3.62,0Z"/><path class="cls-1" d="M170.86,342.85c-5.17,0-5.18,8,0,8S176.05,342.85,170.86,342.85Z"/><path class="cls-1" d="M181,300.07c-4.54,0-4.55,7.05,0,7.05S185.55,300.07,181,300.07Z"/><path class="cls-1" d="M192.19,334.19a4,4,0,1,0-4,4A4.09,4.09,0,0,0,192.19,334.19Z"/><path class="cls-1" d="M195.21,356.69a4.58,4.58,0,0,0-3.79,2.17,4.36,4.36,0,0,0-.51,2.79,4.07,4.07,0,0,0,1.2,2.51l.18.16a4.31,4.31,0,0,0,2.92,1.2,4.62,4.62,0,0,0,2.91-1.2l.18-.16a4.49,4.49,0,0,0,1.13-1.93,4.24,4.24,0,0,0-.22-2.85A4.34,4.34,0,0,0,195.21,356.69Z"/><path class="cls-1" d="M201.29,310.29c-5.3,0-5.31,8.24,0,8.24S206.6,310.29,201.29,310.29Z"/><path class="cls-1" d="M211.43,343.28a4.43,4.43,0,0,0-3.67,2.11,4.32,4.32,0,0,0,.66,5.17l.27.23a4,4,0,0,0,5.49,0l.26-.23a4.38,4.38,0,0,0,1.1-1.88,4.16,4.16,0,0,0-.21-2.78A4.27,4.27,0,0,0,211.43,343.28Z"/><path class="cls-1" d="M220.22,367.7a4.28,4.28,0,0,0-2.95,1.23,4.17,4.17,0,0,0,2.95,7.13,4.32,4.32,0,0,0,3-1.22,4.19,4.19,0,0,0-3-7.14Z"/><path class="cls-1" d="M220.22,336.41c4.82,0,4.83-7.49,0-7.49S215.4,336.41,220.22,336.41Z"/><path class="cls-1" d="M231,356.13c-5.48,0-5.49,8.52,0,8.52S236.53,356.13,231,356.13Z"/><path class="cls-1" d="M494.74,233.33a3.78,3.78,0,1,0-3.77-3.77A3.82,3.82,0,0,0,494.74,233.33Z"/><path class="cls-1" d="M502.62,253.8a4.85,4.85,0,0,0,.61-.82,5.06,5.06,0,0,0,.46-3.72,5,5,0,0,0-1.9-2.92,4.39,4.39,0,0,0-4.15-1,4.4,4.4,0,0,0-3.05,3c0,.11,0,.22,0,.33l.06-.14a3.29,3.29,0,0,0-.16.44,5.19,5.19,0,0,0,.53,3.76,4.66,4.66,0,0,0,3.25,2.49l-.49-.21a4,4,0,0,0,2.75.25A4.29,4.29,0,0,0,502.62,253.8Z"/><path class="cls-1" d="M504.33,270.08a4.36,4.36,0,0,0-3,1.23,4.22,4.22,0,0,0,3,7.2,4.22,4.22,0,0,0,4.22-4.22A4.3,4.3,0,0,0,504.33,270.08Z"/><path class="cls-1" d="M473.1,244.73c5.18,0,5.19-8,0-8S467.92,244.73,473.1,244.73Z"/><path class="cls-1" d="M484.17,267.78a7.46,7.46,0,0,0-1-1.31,4.82,4.82,0,0,0-4.81-1.27,5.18,5.18,0,0,0-2.95,2.27,5,5,0,0,0,2.95,7.25l.37.11L480,275l1.28-.17a4.75,4.75,0,0,0,2.49-1.72,4.63,4.63,0,0,0,.95-2.27A5,5,0,0,0,484.17,267.78Z"/><path class="cls-1" d="M489.33,300.05a5.09,5.09,0,0,0-4.22,2.43,4.79,4.79,0,0,0-.58,3.12,5.2,5.2,0,0,0,1.34,2.81l.23.27a4.56,4.56,0,0,0,6.46,0l.23-.27a6.52,6.52,0,0,0,1.26-2.16,4.73,4.73,0,0,0-.25-3.19A4.87,4.87,0,0,0,489.33,300.05Z"/><path class="cls-1" d="M454.06,266.55a3.08,3.08,0,0,0,4.29,0,5.54,5.54,0,0,0,1.3-1.51,4,4,0,1,0-6.91,0A5.19,5.19,0,0,0,454.06,266.55Z"/><path class="cls-1" d="M462.92,300.38a4.09,4.09,0,0,0,3-1.14,4.34,4.34,0,0,0,.77-1l.11-.14a3.54,3.54,0,0,0,.55-1.75,5.08,5.08,0,0,0-.55-3,5.1,5.1,0,0,0-6.85-1.92,4.81,4.81,0,0,0-1.93,2.25,4.51,4.51,0,0,0-.24,3.07,4.57,4.57,0,0,0,2.17,2.82.56.56,0,0,1,.2.11l-.33-.26a4.62,4.62,0,0,0,3.16,1Z"/><path class="cls-1" d="M470.06,325.91a4.74,4.74,0,0,0,0,8.11,4.57,4.57,0,0,0,4.59.08,4.69,4.69,0,1,0-4.59-8.19Z"/><path class="cls-1" d="M466.34,354.64c-4.79,0-4.8,7.45,0,7.45S471.14,354.64,466.34,354.64Z"/><path class="cls-1" d="M452.82,318.25a4.41,4.41,0,0,0-3,1.25,4.29,4.29,0,1,0,3-1.25Z"/><path class="cls-1" d="M446.06,285.28c-.15-.34-.3-.68-.44-1a3.31,3.31,0,0,0-1.11-1.21,4.17,4.17,0,0,0-2.62-.93,6.49,6.49,0,0,0-1.24.17,4.35,4.35,0,0,0-3,3,4.17,4.17,0,0,0,0,2.27,4.09,4.09,0,0,0,.54,1.18,3.59,3.59,0,0,0,.56.71l0,0,0,0,.49.41a3.68,3.68,0,0,0,1.52.78,4.2,4.2,0,0,0,2.28,0,4.31,4.31,0,0,0,1.89-1.1,4.29,4.29,0,0,0,1.1-4.17Z"/><path class="cls-1" d="M435.86,315.09a4,4,0,1,0-4,4A4.07,4.07,0,0,0,435.86,315.09Z"/><path class="cls-1" d="M441.32,341.14a4.58,4.58,0,0,0-3.15,1.31,4.47,4.47,0,0,0,3.15,7.63,4.6,4.6,0,0,0,3.16-1.31,4.47,4.47,0,0,0-3.16-7.63Z"/><path class="cls-1" d="M439.12,368.41a3.51,3.51,0,0,0-.31-.42,3.33,3.33,0,0,0-2.36-1.41,3.44,3.44,0,0,0-2.84.93,1.39,1.39,0,0,0-.21.21l.73-.56a4.3,4.3,0,0,0-1.89,2.46,4.38,4.38,0,0,0-.08,2,5.13,5.13,0,0,0,.64,2,4.32,4.32,0,0,0,2.76,2.15,5.48,5.48,0,0,0,2.21,0,4.13,4.13,0,0,0,2.17-1.49,4.18,4.18,0,0,0,.32-4.62A4.42,4.42,0,0,0,439.12,368.41Z"/><path class="cls-1" d="M423.74,357.75c-3.72,0-3.73,5.79,0,5.79S427.48,357.75,423.74,357.75Z"/><path class="cls-1" d="M414.28,192.65a4,4,0,1,0-4-4A4,4,0,0,0,414.28,192.65Z"/><path class="cls-1" d="M429.79,200.27a3.25,3.25,0,0,0-1.11-5.72,3.94,3.94,0,0,0-2.37.25,1.35,1.35,0,0,0-1.21,1,1.22,1.22,0,0,0,0,.17,3.42,3.42,0,0,0-.53,1.75,3.31,3.31,0,0,0,1,2.32A3.27,3.27,0,0,0,429.79,200.27Z"/><path class="cls-1" d="M416.73,204.2a3.81,3.81,0,1,0-3.8,3.8A3.86,3.86,0,0,0,416.73,204.2Z"/><path class="cls-1" d="M432.31,220.44a3.07,3.07,0,0,0,1.83-2.05l.24-.95a4.16,4.16,0,0,0-1-3.91,4,4,0,0,0-4.39-.83,3.92,3.92,0,0,0-2.4,3.14,3.8,3.8,0,0,0,.27,2.08,3.66,3.66,0,0,0,1.65,1.92l1,.44A3.31,3.31,0,0,0,432.31,220.44Z"/><path class="cls-1" d="M417.66,220.92a3.68,3.68,0,0,0-2.52,1,3.72,3.72,0,0,0-.92,3.47l.09.48a3.24,3.24,0,0,0,1.24,1.81,3.38,3.38,0,0,0,2.11.75,4.09,4.09,0,0,0,1.75-.48,3.45,3.45,0,0,0,1.6-2.08l.09-.48a3.66,3.66,0,0,0-.92-3.47A3.72,3.72,0,0,0,417.66,220.92Z"/><path class="cls-1" d="M435.24,241.23a4.6,4.6,0,0,0,3.16-1.31,4.48,4.48,0,0,0-3.16-7.65,4.61,4.61,0,0,0-3.17,1.32,4.48,4.48,0,0,0,3.17,7.64Z"/><path class="cls-1" d="M328.91,45.8l.22.08a7.18,7.18,0,0,0,.81.12,4.78,4.78,0,0,0,2-.08,4.52,4.52,0,0,0,2.72-2.08,4.47,4.47,0,0,0,0-4.46,4.72,4.72,0,0,0-5.36-2,4.8,4.8,0,0,0-2.76,2.08,4.26,4.26,0,0,0-.53,2.91l-.06-.45a.19.19,0,0,1,0,.08A3.94,3.94,0,0,0,328.91,45.8Z"/><path class="cls-1" d="M340.58,65.07c5.43,0,5.44-8.43,0-8.43S335.14,65.07,340.58,65.07Z"/><path class="cls-1" d="M317.91,61a4.18,4.18,0,0,0,3.7-2.43c0,.08-.07.17-.11.26.12-.25.22-.47.34-.74,0-.07,0-.14.07-.21a4.67,4.67,0,0,0,.24-.62,4.09,4.09,0,0,0,0-2.14,4.13,4.13,0,0,0-2.81-2.81,4.43,4.43,0,0,0-4,.78,4.53,4.53,0,0,0-1.53,4.82A4.31,4.31,0,0,0,317.91,61Z"/><path class="cls-1" d="M331.79,78a4.67,4.67,0,0,0-3.21,1.32A4.54,4.54,0,0,0,331.79,87,4.72,4.72,0,0,0,335,85.7,4.54,4.54,0,0,0,331.79,78Z"/><path class="cls-1" d="M294.92,64.4a3,3,0,0,0,1.14,1.65,3,3,0,0,0,1.92.68,3.89,3.89,0,0,0,1.6-.43A3.17,3.17,0,0,0,301,64.4c0-.25.08-.5.11-.75a4.72,4.72,0,0,0-.08-1.45,3,3,0,0,0-1.15-1.66,3,3,0,0,0-1.94-.69,3.84,3.84,0,0,0-1.62.44,3.2,3.2,0,0,0-1.47,1.91,4.43,4.43,0,0,0-.08,1.45C294.84,63.91,294.88,64.15,294.92,64.4Z"/><path class="cls-1" d="M309.47,82.52c5.26,0,5.26-8.17,0-8.17S304.21,82.52,309.47,82.52Z"/><path class="cls-1" d="M318.25,99.52a4.22,4.22,0,0,0,3,7.21,4.4,4.4,0,0,0,3-1.23,4.23,4.23,0,0,0-3-7.22A4.36,4.36,0,0,0,318.25,99.52Z"/><path class="cls-1" d="M304.74,102.22c5.38,0,5.39-8.36,0-8.36S299.35,102.22,304.74,102.22Z"/><path class="cls-1" d="M292.57,87.44a3.3,3.3,0,0,0,3.15-4.13s0-.1-.05-.15a3.25,3.25,0,0,0-3.1-2.36,3.31,3.31,0,0,0-3.1,2.36s0,.1,0,.15A3.29,3.29,0,0,0,292.57,87.44Z"/><path class="cls-1" d="M301.63,116.05a4.76,4.76,0,0,0-3.24,1.34,4.57,4.57,0,0,0,0,6.47,4.59,4.59,0,0,0,6.48,0,4.57,4.57,0,0,0,0-6.47A4.78,4.78,0,0,0,301.63,116.05Z"/></svg>