<svg id="Layer_1" data-name="Layer 1" xmlns="http://www.w3.org/2000/svg" viewBox="0 0 600 600"><defs><style>.cls-1{fill:#fff200;}.cls-2{fill:#009344;}.cls-3{fill:#fff;}.cls-4{fill:#231f20;}</style></defs><title>doodle</title><path class="cls-1" d="M234.32,362.14c-5.34,4-9.47,11.9-10.82,18.31-1.42,6.77.56,12.57,3.53,18.28,7.26-6.23,14.67-12.25,23.22-16.71a87.69,87.69,0,0,1,19.53-7.36C262.07,363.19,247.85,352.06,234.32,362.14Z"/><path class="cls-1" d="M203.91,403.35c-3.51,4.72-4.76,10.79-4.7,16.69,1.45-.82,2.89-1.67,4.29-2.57,6.9-4.45,13.14-9.78,19.36-15.15C216.73,398.12,209.32,396.05,203.91,403.35Z"/><path class="cls-1" d="M288,356.5c-10.94-4.5-14.24,8.08-14.1,17.23a108.15,108.15,0,0,1,25.54-1.89C297.25,365.54,294.14,359.05,288,356.5Z"/><path class="cls-1" d="M368.25,376c-6.72-4.44-13.31.36-17.11,6.14,5.31,1.71,10.54,3.52,15.65,5.39,2.69,1,5.48,2,8.33,3.1C374.33,384.9,372.61,378.84,368.25,376Z"/><path class="cls-1" d="M330.67,353.05c-13.21-2.92-24.57,6.61-26.06,19.09,14.17,1.1,28.39,4.39,42.11,8.58C349.53,368.79,343.58,355.89,330.67,353.05Z"/><path class="cls-1" d="M167.66,413.83c-6.64,3.6-10.5,10.08-12.87,17l.93,0a86.16,86.16,0,0,0,37.53-7.83C188.1,413.31,178.73,407.82,167.66,413.83Z"/><path class="cls-1" d="M411.16,378.34c-6-4.24-16.76-5.83-23.26-1.46-4.59,3.08-7.37,9.52-8.15,15.46,12.48,4.71,26.18,9.8,40.06,13.22C420,395.3,419.55,384.28,411.16,378.34Z"/><path class="cls-1" d="M137,413.66c-7.33-.7-11.69,3.17-16.13,7.88a71,71,0,0,0,28.37,9C148.65,422.51,146.42,414.56,137,413.66Z"/><path class="cls-1" d="M523.44,343.53c10.65,2.66,21.23,4.6,32.34,4.7,7.47.06,12.45-.36,17.94-5.86,4.69-4.69,6.67-9,1.95-14.79-6.92-8.45-18.43-12.07-28.48-15.1-9.37-2.83-17.86-6-26-11.08.2,1.21.38,2.42.56,3.63A189.7,189.7,0,0,1,523.44,343.53Z"/><path class="cls-1" d="M81,357.42c.73,2.82,1.49,5.63,2.36,8.39,1.46,4.67,3.06,9.35,4.88,13.95,3.05-3.43,5.43-7.37,5.32-12.08C93.39,360.13,87.21,358,81,357.42Z"/><path class="cls-1" d="M90.65,385.52c4.73,10.6,10.89,20.49,19.62,28.33a62.19,62.19,0,0,0,5.89,4.67c1.84-9.92,7.25-19.58-1.75-28.27C108,384.1,98.77,383.05,90.65,385.52Z"/><path class="cls-1" d="M482.87,265.93c4.57,4.91,11.85,7.34,18.65,8.52a138.49,138.49,0,0,0-13-28.1c-1.42,1.38-3.07,2.5-4.6,4C479.16,254.78,478.21,260.93,482.87,265.93Z"/><path class="cls-1" d="M183,205a22.36,22.36,0,0,0,6.19-13.54A21.11,21.11,0,0,0,189,187c-8.24,3.85-16.27,8.06-24,12.6-3.51,2.06-7,4.23-10.36,6.48C163.63,210.38,175.25,212.73,183,205Z"/><path class="cls-1" d="M320.66,182.47a21.19,21.19,0,0,0,16.85-6.63c2.87-3.1,4.16-6.53,5.17-10.2-14.41-1.47-28.86-2.69-43.34-2.95C302,173.11,308.57,181.79,320.66,182.47Z"/><path class="cls-1" d="M364.79,182.63c8.66.74,15.67-4.37,18.76-11.77-8.68-1.66-17.51-2.75-26.32-3.69l-8.46-.89C350.07,174.74,355.32,181.82,364.79,182.63Z"/><path class="cls-1" d="M398.93,193.74c8.38,6.24,20.48,4.18,26.08-4.3.13-.23.28-.46.44-.69a16.62,16.62,0,0,0,.84-1.56q-2.6-1.66-5.25-3.2a111.76,111.76,0,0,0-31.23-11.82C390.46,180.35,391,187.87,398.93,193.74Z"/><path class="cls-1" d="M209.73,191.18c7.05-2.76,7.07-9.17,7.18-15.42q-12.16,4.14-23.89,9.4a17,17,0,0,1,.31,2C197.92,191.07,203.71,193.53,209.73,191.18Z"/><path class="cls-1" d="M233,184.2c5.58,3,11.42,4.12,17.47,1.9,10.24-3.75,13.67-12.3,14.45-21.67a246.29,246.29,0,0,0-43.77,9.92C222.34,176.73,232.09,183.69,233,184.2Z"/><path class="cls-1" d="M281,174.46c7.5,0,10.58-5.75,12.13-11.82-1.46,0-2.93,0-4.4,0-6.4.11-12.81.54-19.21,1.23,0,.31,0,.62-.05.93a13.1,13.1,0,0,0,1.31,3.25C273,171.69,276.65,174.48,281,174.46Z"/><path class="cls-1" d="M490,308.8c3,9.42,11.95,13.81,21,16.08a177.32,177.32,0,0,0-7.33-43.7C495,287.68,486.37,297.29,490,308.8Z"/><path class="cls-1" d="M494.7,348.07c1.35,7.5,6.74,13.05,12.49,17.79a128.82,128.82,0,0,0,3.61-24.46c.22-3.48.3-7,.29-10.45C501.33,330.7,492.66,336.69,494.7,348.07Z"/><path class="cls-1" d="M471,376.85c-7.9,8.87-11.94,20.43-12.39,32.15a58,58,0,0,0,31.54-13.51c7.1-6.1,11.78-14,14.9-22.66C492.86,371.5,480.65,366,471,376.85Z"/><path class="cls-1" d="M485,243.11a1.72,1.72,0,0,1,1-.7,116.41,116.41,0,0,0-16.67-19.81c-3.95-3.75-8-7.51-12.09-11.22-1.34,8.21-3.55,19.59.46,27.06C462.47,247.28,478.64,252.41,485,243.11Z"/><path class="cls-1" d="M431.89,206.83c6.2,5.44,14.75,4.61,21.77,1.36a234.16,234.16,0,0,0-24.11-18.88l-.29.48c-.22.42-.44.84-.69,1.24A12.75,12.75,0,0,0,431.89,206.83Z"/><path class="cls-1" d="M436.68,390.24c-6,3-9.75,9.69-11.73,16.5a108.41,108.41,0,0,0,29.59,2.63C452.15,400.6,447.21,385,436.68,390.24Z"/><path class="cls-1" d="M26.77,380.27c-2.68,4.42-7.18,11.75.37,13.82,5.67,1.56,12.38-.34,17.73-2.11,10.26-3.4,20.39-10.58,31-12.36a6.85,6.85,0,0,1,1.18-.07c-.71-2.32-1.37-4.67-2-7a129.39,129.39,0,0,1-5.65-28.47c-2.32,2.49-5.58,4.13-8.46,6.06-4.26,2.84-8.52,5.7-12.68,8.68C40.09,364.69,32.08,371.56,26.77,380.27Z"/><path class="cls-1" d="M150.25,222.16c2.77-4.51,1.34-8.84.17-13.24a208,208,0,0,0-18,14c.4.71.75,1.44,1.08,2.17C138.91,228.69,146.23,228.7,150.25,222.16Z"/><path class="cls-1" d="M78.59,324a133.47,133.47,0,0,0,.28,19.8C81.54,336.91,82.7,329.53,78.59,324Z"/><path class="cls-1" d="M90.79,282.61c7.7,1.07,18.59-3.65,20.11-10.22,1.72-7.4-3.26-13.34-5.93-19.68a148.63,148.63,0,0,0-16,28.11A14.07,14.07,0,0,1,90.79,282.61Z"/><path class="cls-1" d="M88.92,312c3.31-2.72,3.52-7.65,3.45-11.73-.1-6.26-1.62-11-5.22-15.09-.19.5-.4,1-.59,1.5a127.08,127.08,0,0,0-7.09,28.09A13.61,13.61,0,0,0,88.92,312Z"/><path class="cls-1" d="M127.51,246c6.43-6.5,4.23-13.23,2.25-20.62l0-.06a177.19,177.19,0,0,0-22.17,24C114.39,251.42,122.06,251.45,127.51,246Z"/><path class="cls-2" d="M79.68,350.83c.13.93.27,1.86.42,2.78,7,.37,14.15,2.35,16.47,9.79,2.2,7.06-1.1,13.25-5.63,18.41,9-2.35,19-.79,26,5.88,7.15,6.84,8,19.78,3.25,28.66,4.47-5,12.84-7.17,18.89-6,9.53,1.81,12.38,9.49,13.29,17.76,3.46-8.87,9.35-16.74,19.09-19.34,11-2.93,20.64,3.13,24.08,13.21l.12-.05c-.44-8.64,1.4-18.47,8.16-24.1,6-5,12.79-3.49,18.71,0-2.76-6.07-4.2-12.34-2.38-19.34,1.92-7.34,6.41-15.65,12.78-20,13.43-9.21,29.37-1,37.52,11,.76-7.56,4.58-15.23,11.75-17,9.86-2.41,15.91,7.21,19.49,16,3.05-12.66,15.23-21.85,29.05-19.26a24.73,24.73,0,0,1,20.06,27c3.95-4.28,9.31-6.91,15.62-5.24s9.63,7.35,11.31,13.62a24.86,24.86,0,0,1,6.44-9.83c5.71-5,15.55-5.19,22.42-3,13.77,4.38,16.31,16.28,16.7,28.64,3.26-7.75,8.67-14.66,16.43-15.51,8.74-1,13.52,8.58,15.87,17.27a54.06,54.06,0,0,1,12.82-27.89c10.9-12.24,23.67-6.14,37.17-5.06-8.63-7.19-17-16.53-14.42-28.52,1.8-8.33,8.85-12.68,16.4-12.66-10.11-3.08-19.59-9-21.92-20.05-2.65-12.57,5.91-22.72,15.39-29.78-9.26-1.7-19.8-5.55-23.78-14.11a12.91,12.91,0,0,1,.72-12.2c-6.23.62-13.64-2-18.06-5.26-10.57-7.72-8.85-21.95-7-33.74-9.1,3.31-19.63,2.66-26.2-5.48A16.77,16.77,0,0,1,423,197.09a21.65,21.65,0,0,1-20.47,3.14,25.25,25.25,0,0,1-13.4-12c-2.35-4.46-2.68-9.06-3-13.73-4.12,7.7-12.14,12.87-21.64,11.92-9.08-.91-17-8.13-18.36-16.89-3.18,10.05-15.43,17.31-25.51,16.77-12.28-.66-23.42-10.66-24.37-22.84-.58,7.67-7.31,14.44-15.27,14.45a14.74,14.74,0,0,1-11.52-6c-.3-.39-.61-.81-.91-1.25-2.81,10.66-11.71,19.74-23.18,20.47-7.85.49-15.39-3.6-21.1-8.71a33.67,33.67,0,0,1-3.2-3.4c-.46,6.72-3.75,13.38-10.12,15.79-6.61,2.5-12.9.46-17.67-3.74-.67,6.89-4.55,14.05-9.13,17.9-7.87,6.63-20.46,6-29,.4,1.4,6.77-.2,14.52-5.39,18.56a14.29,14.29,0,0,1-14.73,1.75c1.55,6.65.25,13.65-5,18.81a19.88,19.88,0,0,1-20.48,4.32c5.38,7.2,8.13,19.94,3.09,26.5-3.31,4.32-12.36,6.37-17.45,7-.64.07-1.27.1-1.88.11,3.09,6.09,3.51,14.19,2.74,20.28-1,7.54-9.64,13.46-17,11.47,0,.23,0,.46-.07.69C88.42,326.92,84.8,340.29,79.68,350.83ZM437.73,310a7,7,0,0,1,9.49,2.92,6.28,6.28,0,0,1,.86,3.19,4.83,4.83,0,0,1-.54,2.44,6,6,0,0,1-3.35,3.35,6.1,6.1,0,0,1-5.63-.32,7.25,7.25,0,0,1-2.39-2.41,4.69,4.69,0,0,1-.62-.87A6.19,6.19,0,0,1,437.73,310Zm-53.22-31.6a11.91,11.91,0,0,1,3-2.2A13.38,13.38,0,0,1,402,277.82c8.72,7.06,6.72,21.29-2.61,27-9.53,5.8-21.08-2-21.38-12.55C377.85,287.35,380.51,281.74,384.51,278.35Zm-117.22-.74c.88-1.81,3.84-1.33,4.27.56,1.41,6.13,1.18,12.71,4.3,18.37,2.63,4.77,8.23,9,14,7.55,12.48-3.19,5.82-24.93,9.07-33.34,1.1-2.84,4.91-3.73,6.65-.87,4.67,7.69,3.35,20.93.7,29.37-2.45,7.8-8.29,14.15-16.79,14.72C271,315.23,259.67,293.28,267.29,277.61Zm-103.7,14.95c1.82-5.11,7.23-8.54,12.63-7.11,10,2.64,14.81,16.66,7.28,24.19-8,8-19.43,1.93-20.6-8.33a16.13,16.13,0,0,1,0-3.8A12.68,12.68,0,0,1,163.59,292.56ZM138,321c8.22,0,8.21,12.76,0,12.76S129.8,321,138,321Z"/><path class="cls-3" d="M176.42,301.88c.62-1.21,0-2.7-.7-3.73-.38-.57-2.24-1.77-1.64-1.94-1,.28-1.29,2.93-1.4,3.59-.08.47-.13.93-.17,1.38C173.28,302.91,175.24,304.21,176.42,301.88Z"/><path class="cls-3" d="M392.1,296.26c4.11.07,6.34-6.88,3.6-9.57s-4.85.92-7.22,2.38C387.64,292.13,388.27,296.18,392.1,296.26Z"/><path class="cls-4" d="M34.19,357.64c-8.82,7.35-19.72,18.51-21.1,30.55C11.5,402,26.06,405.51,37,404.29c7.68-.86,14.86-3.69,22-6.59,6.69-2.73,14.89-4.88,20.73-9.15.14-.1.25-.22.37-.32,7.73,20.44,20.36,38.29,41.59,47.8,16.46,7.38,34.65,9,52.36,6.11,19.34-3.18,35.78-12.49,50.67-24.91,17-14.17,32.25-28,54.88-31.71,22.45-3.71,45.42,1.25,66.74,8.16,42.09,13.63,90.34,40.58,135,21.71,25.8-10.91,37.28-34.83,41-60.83a116.57,116.57,0,0,0,41.44,4.19c11.44-1,25.83-11.82,25.78-24.4,0-13-13.92-22-24.39-26.48-14.24-6.11-30.35-6.42-44.47-12.59a2.8,2.8,0,0,0-.58-.19c-3.77-19.47-10.5-38.84-20.72-55.7-11.5-19-29.07-33.33-46-47.28-17.36-14.3-35.85-25.77-57.94-31-23.43-5.58-48.29-7.06-72.26-8.76-24.86-1.76-49.8-1.57-74.3,3.5-22.18,4.58-43.83,12.34-64.37,21.84-38.51,17.8-73.57,44.88-95.23,81.9C75.45,283.11,68.21,310,69,336.87c-6.63-.23-13.24,5.6-18.62,9A157,157,0,0,0,34.19,357.64Zm513-45.16c10,3,21.56,6.65,28.48,15.1,4.72,5.76,2.74,10.1-1.95,14.79-5.49,5.5-10.47,5.92-17.94,5.86-11.11-.1-21.69-2-32.34-4.7a189.7,189.7,0,0,0-1.69-38.5c-.18-1.21-.36-2.42-.56-3.63C529.33,306.5,537.82,309.65,547.19,312.48ZM83.36,365.81c-.87-2.76-1.63-5.57-2.36-8.39,6.21.54,12.39,2.71,12.56,10.26.11,4.71-2.27,8.65-5.32,12.08C86.42,375.16,84.82,370.48,83.36,365.81Zm32.8,52.71a62.19,62.19,0,0,1-5.89-4.67c-8.73-7.84-14.89-17.73-19.62-28.33,8.12-2.47,17.39-1.42,23.76,4.73C123.41,398.94,118,408.6,116.16,418.52Zm4.74,3c4.44-4.71,8.8-8.58,16.13-7.88,9.39.9,11.62,8.85,12.24,16.86A71,71,0,0,1,120.9,421.54Zm34.82,9.37-.93,0c2.37-7,6.23-13.44,12.87-17,11.07-6,20.44-.52,25.59,9.25A86.16,86.16,0,0,1,155.72,430.91Zm47.78-13.44c-1.4.9-2.84,1.75-4.29,2.57-.06-5.9,1.19-12,4.7-16.69,5.41-7.3,12.82-5.23,19-1C216.64,407.69,210.4,413,203.5,417.47ZM250.25,382c-8.55,4.46-16,10.48-23.22,16.71-3-5.71-4.95-11.51-3.53-18.28,1.35-6.41,5.48-14.33,10.82-18.31,13.53-10.08,27.75,1.05,35.46,12.52A87.69,87.69,0,0,0,250.25,382Zm23.61-8.29C273.72,364.58,277,352,288,356.5c6.18,2.55,9.29,9,11.44,15.34A108.15,108.15,0,0,0,273.86,373.73Zm72.86,7c-13.72-4.19-27.94-7.48-42.11-8.58,1.49-12.48,12.85-22,26.06-19.09C343.58,355.89,349.53,368.79,346.72,380.72Zm20.07,6.77c-5.11-1.87-10.34-3.68-15.65-5.39,3.8-5.78,10.39-10.58,17.11-6.14,4.36,2.88,6.08,8.94,6.87,14.63C372.27,389.51,369.48,388.47,366.79,387.49Zm53,18.07c-13.88-3.42-27.58-8.51-40.06-13.22.78-5.94,3.56-12.38,8.15-15.46,6.5-4.37,17.26-2.78,23.26,1.46C419.55,384.28,420,395.3,419.81,405.56Zm5.14,1.18c2-6.81,5.77-13.53,11.73-16.5,10.53-5.24,15.47,10.36,17.86,19.13A108.41,108.41,0,0,1,425,406.74Zm65.18-11.25A58,58,0,0,1,458.59,409c.45-11.72,4.49-23.28,12.39-32.15,9.67-10.86,21.88-5.35,34-4C501.91,381.47,497.23,389.39,490.13,395.49ZM510.8,341.4a128.82,128.82,0,0,1-3.61,24.46c-5.75-4.74-11.14-10.29-12.49-17.79-2-11.38,6.63-17.37,16.39-17.12C511.1,334.43,511,337.92,510.8,341.4Zm.19-16.52c-9-2.27-18-6.66-21-16.08-3.63-11.51,4.95-21.12,13.66-27.62A177.32,177.32,0,0,1,511,324.88Zm-9.47-50.43c-6.8-1.18-14.08-3.61-18.65-8.52s-3.71-11.15,1-15.63c1.53-1.45,3.18-2.57,4.6-4A138.49,138.49,0,0,1,501.52,274.45Zm-44.27-63.07c4.11,3.71,8.14,7.47,12.09,11.22A116.41,116.41,0,0,1,486,242.41a1.72,1.72,0,0,0-1,.7c-6.34,9.3-22.51,4.17-27.27-4.67C453.7,231,455.91,219.59,457.25,211.38ZM428.57,191c.25-.4.47-.82.69-1.24l.29-.48a234.16,234.16,0,0,1,24.11,18.88c-7,3.25-15.57,4.08-21.77-1.36A12.75,12.75,0,0,1,428.57,191ZM421,184q2.65,1.53,5.25,3.2a16.62,16.62,0,0,1-.84,1.56c-.16.23-.31.46-.44.69-5.6,8.48-17.7,10.54-26.08,4.3-7.89-5.87-8.47-13.39-9.12-21.57A111.76,111.76,0,0,1,421,184Zm-63.81-16.82c8.81.94,17.64,2,26.32,3.69-3.09,7.4-10.1,12.51-18.76,11.77-9.47-.81-14.72-7.89-16-16.35Zm-14.55-1.53c-1,3.67-2.3,7.1-5.17,10.2a21.19,21.19,0,0,1-16.85,6.63c-12.09-.68-18.63-9.36-21.32-19.78C313.82,163,328.27,164.17,342.68,165.64Zm-73.14-1.76c6.4-.69,12.81-1.12,19.21-1.23,1.47,0,2.94,0,4.4,0-1.55,6.07-4.63,11.79-12.13,11.82-4.37,0-8-2.77-10.22-6.4a13.1,13.1,0,0,1-1.31-3.25C269.5,164.5,269.54,164.19,269.54,163.88Zm-4.59.55c-.78,9.37-4.21,17.92-14.45,21.67-6.05,2.22-11.89,1.1-17.47-1.9-.94-.51-10.69-7.47-11.85-9.85A246.29,246.29,0,0,1,265,164.43Zm-48,11.33c-.11,6.25-.13,12.66-7.18,15.42-6,2.35-11.81-.11-16.4-4a17,17,0,0,0-.31-2Q204.72,179.93,216.91,175.76ZM165,199.59c7.75-4.54,15.78-8.75,24-12.6a21.11,21.11,0,0,1,.14,4.43A22.36,22.36,0,0,1,183,205c-7.72,7.77-19.34,5.42-28.33,1.11C158,203.82,161.49,201.65,165,199.59Zm-14.58,9.33c1.17,4.4,2.6,8.73-.17,13.24-4,6.54-11.34,6.53-16.75,2.89-.33-.73-.68-1.46-1.08-2.17A208,208,0,0,1,150.42,208.92Zm-20.71,16.35,0,.06c2,7.39,4.18,14.12-2.25,20.62-5.45,5.5-13.12,5.47-20,3.31A177.19,177.19,0,0,1,129.71,225.27ZM105,252.71c2.67,6.34,7.65,12.28,5.93,19.68-1.52,6.57-12.41,11.29-20.11,10.22A14.07,14.07,0,0,0,89,280.82,148.63,148.63,0,0,1,105,252.71Zm-18.41,34c.19-.5.4-1,.59-1.5,3.6,4.06,5.12,8.83,5.22,15.09.07,4.08-.14,9-3.45,11.73a13.61,13.61,0,0,1-9.45,2.77A127.08,127.08,0,0,1,86.56,286.72Zm-7.49,31.43c7.37,2,16.06-3.93,17-11.47.77-6.09.35-14.19-2.74-20.28.61,0,1.24,0,1.88-.11,5.09-.61,14.14-2.66,17.45-7,5-6.56,2.29-19.3-3.09-26.5a19.88,19.88,0,0,0,20.48-4.32c5.25-5.16,6.55-12.16,5-18.81a14.29,14.29,0,0,0,14.73-1.75c5.19-4,6.79-11.79,5.39-18.56,8.55,5.57,21.14,6.23,29-.4,4.58-3.85,8.46-11,9.13-17.9,4.77,4.2,11.06,6.24,17.67,3.74,6.37-2.41,9.66-9.07,10.12-15.79a33.67,33.67,0,0,0,3.2,3.4c5.71,5.11,13.25,9.2,21.1,8.71,11.47-.73,20.37-9.81,23.18-20.47.3.44.61.86.91,1.25a14.74,14.74,0,0,0,11.52,6c8,0,14.69-6.78,15.27-14.45.95,12.18,12.09,22.18,24.37,22.84,10.08.54,22.33-6.72,25.51-16.77,1.32,8.76,9.28,16,18.36,16.89,9.5,1,17.52-4.22,21.64-11.92.3,4.67.63,9.27,3,13.73a25.25,25.25,0,0,0,13.4,12A21.65,21.65,0,0,0,423,197.09a16.77,16.77,0,0,0,3.67,10.35c6.57,8.14,17.1,8.79,26.2,5.48-1.81,11.79-3.53,26,7,33.74,4.42,3.23,11.83,5.88,18.06,5.26a12.91,12.91,0,0,0-.72,12.2c4,8.56,14.52,12.41,23.78,14.11-9.48,7.06-18,17.21-15.39,29.78,2.33,11.06,11.81,17,21.92,20.05-7.55,0-14.6,4.33-16.4,12.66-2.6,12,5.79,21.33,14.42,28.52-13.5-1.08-26.27-7.18-37.17,5.06a54.06,54.06,0,0,0-12.82,27.89c-2.35-8.69-7.13-18.23-15.87-17.27-7.76.85-13.17,7.76-16.43,15.51-.39-12.36-2.93-24.26-16.7-28.64-6.87-2.18-16.71-2-22.42,3a24.86,24.86,0,0,0-6.44,9.83c-1.68-6.27-4.86-11.91-11.31-13.62s-11.67,1-15.62,5.24a24.73,24.73,0,0,0-20.06-27c-13.82-2.59-26,6.6-29.05,19.26-3.58-8.81-9.63-18.43-19.49-16-7.17,1.74-11,9.41-11.75,17-8.15-12.06-24.09-20.23-37.52-11-6.37,4.35-10.86,12.66-12.78,20-1.82,7-.38,13.27,2.38,19.34-5.92-3.46-12.75-4.93-18.71,0-6.76,5.63-8.6,15.46-8.16,24.1l-.12.05c-3.44-10.08-13.11-16.14-24.08-13.21-9.74,2.6-15.63,10.47-19.09,19.34-.91-8.27-3.76-16-13.29-17.76-6-1.16-14.42,1-18.89,6,4.74-8.88,3.9-21.82-3.25-28.66-7-6.67-17-8.23-26-5.88,4.53-5.16,7.83-11.35,5.63-18.41-2.32-7.44-9.5-9.42-16.47-9.79-.15-.92-.29-1.85-.42-2.78,5.12-10.54,8.74-23.91-.68-32C79,318.61,79,318.38,79.07,318.15Zm-.48,5.8c4.11,5.58,3,13,.28,19.8A133.47,133.47,0,0,1,78.59,324Zm-9.15,20.11a129.39,129.39,0,0,0,5.65,28.47c.61,2.35,1.27,4.7,2,7a6.85,6.85,0,0,0-1.18.07c-10.63,1.78-20.76,9-31,12.36-5.35,1.77-12.06,3.67-17.73,2.11-7.55-2.07-3.05-9.4-.37-13.82,5.31-8.71,13.32-15.58,21.53-21.47,4.16-3,8.42-5.84,12.68-8.68C63.86,348.19,67.12,346.55,69.44,344.06Z"/><path class="cls-4" d="M162.9,301.31c1.17,10.26,12.6,16.35,20.6,8.33,7.53-7.53,2.73-21.55-7.28-24.19-5.4-1.43-10.81,2-12.63,7.11a12.68,12.68,0,0,0-.64,4.95A16.13,16.13,0,0,0,162.9,301.31Zm9.78-1.51c.11-.66.42-3.31,1.4-3.59-.6.17,1.26,1.37,1.64,1.94.68,1,1.32,2.52.7,3.73-1.18,2.33-3.14,1-3.91-.7C172.55,300.73,172.6,300.27,172.68,299.8Z"/><path class="cls-4" d="M399.37,304.79c9.33-5.68,11.33-19.91,2.61-27a13.38,13.38,0,0,0-14.49-1.67,11.91,11.91,0,0,0-3,2.2c-4,3.39-6.66,9-6.52,13.89C378.29,302.8,389.84,310.59,399.37,304.79Zm-10.89-15.72c2.37-1.46,4.33-5.22,7.22-2.38s.51,9.64-3.6,9.57C388.27,296.18,387.64,292.13,388.48,289.07Z"/><path class="cls-4" d="M289.53,314c8.5-.57,14.34-6.92,16.79-14.72,2.65-8.44,4-21.68-.7-29.37-1.74-2.86-5.55-2-6.65.87-3.25,8.41,3.41,30.15-9.07,33.34-5.81,1.48-11.41-2.78-14-7.55-3.12-5.66-2.89-12.24-4.3-18.37-.43-1.89-3.39-2.37-4.27-.56C259.67,293.28,271,315.23,289.53,314Z"/><path class="cls-4" d="M138,333.73c8.21,0,8.22-12.76,0-12.76S129.79,333.73,138,333.73Z"/><path class="cls-4" d="M436.17,319.12a7.25,7.25,0,0,0,2.39,2.41,6.1,6.1,0,0,0,5.63.32,6,6,0,0,0,3.35-3.35,4.83,4.83,0,0,0,.54-2.44,6.28,6.28,0,0,0-.86-3.19,7,7,0,0,0-9.49-2.92,6.19,6.19,0,0,0-2.18,8.3A4.69,4.69,0,0,0,436.17,319.12Z"/></svg>