<svg id="Layer_1" data-name="Layer 1" xmlns="http://www.w3.org/2000/svg" viewBox="0 0 600 600"><defs><style>.cls-1{fill:#f7941e;}.cls-2{fill:#603913;}.cls-3{fill:#fff;}.cls-4{fill:#754c29;}.cls-5{fill:#231f20;}</style></defs><title>doodle</title><path class="cls-1" d="M168,75.9c-.72-4.85-1.23-9.73-1.6-14.63-2.6.11-5.1-.24-7.76.56a18.65,18.65,0,0,0-5.35,2.63,130.82,130.82,0,0,0-4.24,22.72C154.13,81.62,161,77,168,75.9Z"/><path class="cls-2" d="M418.68,252.13l4-.57a153.5,153.5,0,0,0-24.54-58.83,60.67,60.67,0,0,1-7.16,7c-13.65,11.2-31.13,5.28-42.22-6.65C338,181.51,333.43,166,337.54,150.72a2.56,2.56,0,0,1,1-1.41c1-3.54,6.1-5.24,9.43-6.68a78,78,0,0,0,13.77-8,51.33,51.33,0,0,0,6.32-6.53,4,4,0,0,1-.38-.43c-10.57-14.73-27.61-22.51-45-25.68-58-10.57-118.84,23.12-146.58,73.87a20.34,20.34,0,0,1,3.31.51c2.32.55,3.84,3.77,2.37,5.83a146.19,146.19,0,0,0-26.67,69.24c2.64-1.75,6,1.52,5.53,4.51-4.48,26.08-2.16,52.21,5.55,77.21l1.23-5.29c1-4.1,6.75-2.87,7,.94,2.94,47.25,18.65,93.73,33.73,138.23,7.33,21.62,14.31,43.51,23.72,64.34,4.59,10.15,9.53,20.58,15.89,29.76a14.78,14.78,0,0,0,2.64,3.45q2.86,1,1.81-2.08c.76-2.49-.32-7.26-.68-9.74A69.94,69.94,0,0,0,246.81,536c-1.14-2.79,1.69-5.25,4.15-5.44,32.43-2.43,64.82-5.13,97.14-8.79,2.19-.24,4,1.73,4.68,3.57q5.7,15.95,11.39,31.9c.26.72,1.53,5.7,2.31,6.08,1.9.95,3.38-2.37,4.16-4,2.21-4.5,3.27-10.1,4.68-14.9,6-20.55,11.19-41.38,15.91-62.26A1201.93,1201.93,0,0,0,412.6,353.37c.63-5.58,7.42-6.41,9.52-1.29l2,4.78a132.76,132.76,0,0,0-1.94-25.47c-.79-4.51,4.11-7.67,7.69-4.48l.74.66a272.64,272.64,0,0,0-15-69.94C414.83,255.57,416.4,252.46,418.68,252.13ZM170.11,234.6c-5.52,0-5.51-8.56,0-8.56S175.62,234.6,170.11,234.6Zm198.83,51.21c1.48,3.82,1.37,2.26,2.47-1.1a26.42,26.42,0,0,0,1.16-6.61,68.33,68.33,0,0,0-.55-12,1.56,1.56,0,0,1,2.34-1.35,30.32,30.32,0,0,1,4.64,4,38.93,38.93,0,0,0-6.73-23.17c-.54-.79.72-1.76,1.32-1a36.54,36.54,0,0,1,8.33,28.25,1.63,1.63,0,0,1-3,.81,27.86,27.86,0,0,0-3.39-3.91c.49,5,.74,10.11-.56,15-.82,3.07-2.22,7.92-5.85,8.37a1.75,1.75,0,0,1-1.52-.87,14.48,14.48,0,0,1-1.6-5.65A1.53,1.53,0,0,1,368.94,285.81ZM329.86,235.1l.31-.28a4.81,4.81,0,0,1,5.69-.74,4.9,4.9,0,0,1,2.32,4,4.67,4.67,0,0,1-2.88,4.3,4.77,4.77,0,0,1-5.13-1l-.31-.28A4.34,4.34,0,0,1,329.86,235.1Zm-7.4,151c1-.45,2.72.33,2.17,1.67l-.22.54a1.77,1.77,0,0,1-2.12,1.2c-6.59-2-9.21-10.42-10-17.76a20.79,20.79,0,0,0-.39,3.25,1.44,1.44,0,0,1-2.82.39A39.57,39.57,0,0,1,308,352.8c.27-1.15,2-.66,1.75.48a36,36,0,0,0,.2,15.27,21.15,21.15,0,0,1,2.26-4.71,1.58,1.58,0,0,1,2.92.79,35.81,35.81,0,0,0,1.27,11.42C316.78,377.45,320.88,386.82,322.46,386.11Zm-25-179.29a11.26,11.26,0,0,1,1.18-1,7.74,7.74,0,0,1,4.06-2.67,10.57,10.57,0,0,1,9.94,2.49c5.69,5.35,5.63,15.84-1.74,19.66a11.34,11.34,0,0,1-16.38-8.64A11.7,11.7,0,0,1,297.5,206.82Zm-120,.77a12.94,12.94,0,0,1,3.63-7.27,6.55,6.55,0,0,1,6.37-4.32c3.88,0,7.09,2.66,8.68,6.05,2.87,6.11,1.43,15.52-6.18,17.23C183.17,220.81,176.75,214.25,177.46,207.59Zm13.32,98.93c-3,2.29-5.5-2.49-6.73-4.67a24.47,24.47,0,0,1-3.08-13,13.71,13.71,0,0,0-2.77,4.68c-.41,1-2.13,1.35-2.37,0a27,27,0,0,1,2.44-17.74.78.78,0,0,1,1.42.6,30.43,30.43,0,0,0-2,12.66,9.5,9.5,0,0,1,4-3.62,1.19,1.19,0,0,1,1.77,1,26.66,26.66,0,0,0,.87,9.41c.15.47,4.66,8.1,4.6,8.36.28-1.17,1.76-.93,2.14,0l.3.74A1.39,1.39,0,0,1,190.78,306.52Zm14.4,89.76a3.78,3.78,0,0,1-5.45,2.22c-3-1.54-5.67-4.53-7.84-7.05-1.82-2.13,1.05-5.09,3.11-3.11a10.58,10.58,0,0,0,3.92,2.38c.83-3.32,1.63-6.65,2.23-10,.8-4.54,1-9.23,2.8-13.53,1-2.33,4.36-2.73,5.17,0C211.76,376.17,208.42,387.81,205.18,396.28ZM290,477.67a4.38,4.38,0,0,1-6.52,3.74A33.94,33.94,0,0,1,271,470a7.82,7.82,0,0,1-1.52,3.36c-2.43,2.78-6.22,3.07-9.42,1.55-5.05-2.4-7.46-7.51-8.52-13.07a31.8,31.8,0,0,0-1,6.87c-.11,2.69-2.34,4.08-4.83,3.68-15.51-2.44-9.29-27.93-4.82-37.07.9-1.84,3.93-.95,3.84,1-.19,4.41-3.2,18.86-.51,25.43a41.75,41.75,0,0,1,7.26-15.05c2-2.63,6.2-1.89,6.37,1.72a67.11,67.11,0,0,0,.9,10.88c.29,1.36,2.52,9.27,4.77,8.71.93-.23,1.06-4.78,1.43-5.95a9.73,9.73,0,0,1,2.86-4.49,4,4,0,0,1,6.64,1.76,25.59,25.59,0,0,0,6.89,10,21.72,21.72,0,0,1,1.52-7.9c1.33-3.14,5.53-1.59,6.49.85C291.13,467,290.12,472.72,290,477.67ZM247.57,317.36a3,3,0,0,1,5.15,2.13c-.06,7.48,7.92,11.12,13.68,14,2.83,1.4,2.19,2,2.72-.67.27-1.32-.11-3-.07-4.33A10.62,10.62,0,0,1,270.5,323a2.33,2.33,0,0,1,4,0c4,7.35,2.53,20.55-8.44,17.43-7.05-2-14.73-7.31-17.88-14.27a77.54,77.54,0,0,0-5.24,8.21c-1.76,3.12-6.26,1.55-6.44-1.75A68.26,68.26,0,0,1,242.21,301c1-2.36,4.72-.63,4.06,1.71a84.85,84.85,0,0,0-3,19.08A58.91,58.91,0,0,1,247.57,317.36Zm-2,77.94a30.3,30.3,0,0,1,1.27-3.42c.64-1.44,3-.69,2.92.79-.25,6,3.59,10.18,3.81,15.77a1.13,1.13,0,0,1-2.1.57,59.27,59.27,0,0,1-3.85-8.93c0,.22-.08.41-.11.63-.22,1.42-2.14,1.32-2.8.37-4.1-5.94-1.75-15.8.76-21.92a.89.89,0,0,1,1.71.47C246.18,384,244.51,390.26,245.52,395.3ZM296,288.91a194.5,194.5,0,0,1-7-19.59,243.2,243.2,0,0,1-33.83-4.17c-6.92-1.27-14.13-2.75-21.28-4.64-4,5.77-8.35,11.33-12.51,17-1.66,2.26-5.9,2.49-6.58-.86-1.42-7-3.33-15.79-1.63-23.15a89.26,89.26,0,0,1-14.47-7.8,1.93,1.93,0,0,1,1.48-3.51c18.5,4.81,36,12,54.93,15.25a229.81,229.81,0,0,0,28.42,3c9.89.47,19.78-.33,29.64.13,3.93.18,5.16,6.35,1,7.15-1.29.25-2.6.46-3.92.65a4.72,4.72,0,0,1,0,1.41c-.94,6.94-3.6,13.81-6.53,20.13C302,293.59,297.16,291.85,296,288.91ZM351.09,497c-.89,1-3,.25-2.82-1.17a31.54,31.54,0,0,0,.23-5.37c-2.57,6.25-5.85,12.31-11.36,16.33-1.46,1.06-3.09-1.24-1.88-2.44,6.08-6,9.43-12.67,12.34-20.64a1.66,1.66,0,0,1,3.17,0,31.5,31.5,0,0,1,1.06,7c5.75-8.23,8.14-17.87,8.06-28.09,0-1,1.61-1.26,1.78-.24C363.86,475.06,359.44,487.52,351.09,497Zm9.84-51.2c-4.12,4.9-9.56,4.43-13.87-.11A72.59,72.59,0,0,1,338,433c-1.29,5.3-3.9,9.39-10.2,5.19a37.54,37.54,0,0,1-12-13.62c-1.37,3.86-2.63,7.76-3.81,11.68a4,4,0,0,1-6.62,1.75c-8.2-8.15-7.83-19.58-5.3-30.1.71-2.94,5.07-2.18,5.13.69.12,5.9-.23,12.19,1.82,17.63,1.66-4.54,3.49-9,5.47-13.42,1.37-3,5.87-1.87,6.7.87a35.26,35.26,0,0,0,5.5,11.08c1.05,1.41,3.8,5.1,6.26,6.69.8-3.32.78-8.07,1.13-10.51.51-3.61,5.41-3.3,7.06-.92,3.46,5,7,9.9,10.4,14.92.61.9,2.7,5.25,4,5.46,2.63.44,4.39-3.92,5.34-5.64a42.47,42.47,0,0,0,4.56-13.21c.86-4.9.21-9.86,1-14.74.41-2.36,4.3-2.89,5.28-.68C374.93,417.89,368.84,436.44,360.93,445.82Zm42.15-122.47c-.11,5.43-.47,12.39-4.31,16.64-3.26,3.62-9,5-13.23,2.16l-.5-.38c-.57,3.94-1.1,7.89-1.66,11.84-.46,3.3-5.55,4.47-7.6,2-5.27-6.35-10.55-13.31-12.56-21.45a2.35,2.35,0,0,1,3.9-2.28,81.89,81.89,0,0,1,8.34,9.1c1.05-6.78,3.53-13.28,10.3-11,1.79.61,2.74,2.75,4.2,3.32,3.14,1.22,3.3-4.28,3.51-6.46a36,36,0,0,0-2-15.77c-1.28-3.69,3.78-6.25,6.36-3.69C402.21,311.74,403.2,317.39,403.08,323.35Z"/><path class="cls-3" d="M295.86,269.43c1.32,2.43,2.56,4.88,3.76,7.37.79-2.51,1.51-5,2.25-7.59C299.88,269.33,297.87,269.41,295.86,269.43Z"/><path class="cls-3" d="M219.76,261.29c.11,1.75.29,3.48.52,5.2,1.92-2.75,3.84-5.51,5.83-8.21-2.23-.7-4.45-1.46-6.64-2.26C219.61,257.78,219.65,259.55,219.76,261.29Z"/><path class="cls-3" d="M186.82,211.52c3.75,1.33,3.54-7.36.1-7.31a6.52,6.52,0,0,0-1.88,2.06A3.53,3.53,0,0,0,186.82,211.52Z"/><path class="cls-1" d="M174.11,100.92a83.86,83.86,0,0,1-3.24-10.31c-1-3.85-1.72-7.72-2.37-11.62-3.57,1.23-7.16,2.26-10.54,4.3a43.7,43.7,0,0,0-9.21,7.65,133.88,133.88,0,0,0,1.78,32.64C155.46,113.63,164.54,104.23,174.11,100.92Z"/><path class="cls-1" d="M187.6,122.24a59.28,59.28,0,0,1-12.26-18.35c-5.61,3.79-11.21,6.86-15.87,12.17a58.71,58.71,0,0,0-8,12.28,136.89,136.89,0,0,0,8.62,26.52c2.58-6.55,8.2-12.84,11.95-17.64C176.23,131.86,181.44,125.93,187.6,122.24Z"/><path class="cls-1" d="M198.17,134.35c1-.93,2-1.83,3.05-2.73a44.86,44.86,0,0,1-10.65-6.68,68.28,68.28,0,0,0-16,14.26c-4.52,5.65-10.15,12.2-12.85,19.28a139.55,139.55,0,0,0,7.34,13.46A145.54,145.54,0,0,1,198.17,134.35Z"/><path class="cls-4" d="M178.62,414.66c-.18,10-.38,20,.52,30,.84,9.28,3,18.81,8.54,26.48q-.21,3.84.1-.46c.13-1.52.28-3,.45-4.54.2-1.85.43-3.7.67-5.55.74-5.56,1.22-11.57,3.19-16.88-4.58-14.55-8.89-29.19-12.62-44C179.13,404.75,178.72,409.77,178.62,414.66Z"/><path class="cls-4" d="M416.3,398.33q-1.62,10.53-3.39,21-2.36,14-5.05,27.91c2,3.85,3.19,8,4.51,12.26.89,2.88,1.75,5.76,2.59,8.66.35,1.22,1.23,7,2.71,7.44.54,1.2.87.75,1-1.33.36-1.43.71-2.87,1-4.32.64-2.88,1.18-5.79,1.61-8.71a138,138,0,0,0,1.43-17.7A145.2,145.2,0,0,0,419,408.39C418.28,405.15,417.29,401.77,416.3,398.33Z"/><path class="cls-3" d="M306.33,218.44c2.92-.67,2.84-4.52,1.12-6.44s-3.29-.36-5.05.44A4.49,4.49,0,0,0,302,214C301.83,216.42,303.65,219.06,306.33,218.44Z"/><path class="cls-1" d="M359.13,146c2.24,8.55,4.36,16.3,11.16,23a38.38,38.38,0,0,0,13,8.37c4.23,1.65,8.71,1.77,13,3a120.22,120.22,0,0,0,10.37-19.21c-7.53,1.81-15.9-2-22-6.28s-11.85-10.35-13.33-17.73a49.65,49.65,0,0,1-4.05,3.76A48.09,48.09,0,0,1,359.13,146Z"/><path class="cls-1" d="M416.47,122a131.49,131.49,0,0,0,0-24.7c-.25-2.63-.59-5.21-1-7.76-6.36,2.86-16.27,1.1-21.3-3.63a183.5,183.5,0,0,1-6.34,23.3C393.29,117.87,406.15,123.52,416.47,122Z"/><path class="cls-1" d="M414.68,85.19C412.12,72.44,407.6,60.54,402,48.83c-.52,2.18-1,4.33-1.46,6.4q-2.13,10.5-4.31,21c-.46,2.2-.91,4.4-1.38,6.6A20.27,20.27,0,0,0,407,87C409.81,87,412.22,86,414.68,85.19Z"/><path class="cls-1" d="M166.24,58.62c-.51-7.75-.68-15.54-.71-23.32A127.54,127.54,0,0,0,154.33,61C158,58.66,162.51,57.33,166.24,58.62Z"/><path class="cls-1" d="M355.85,147.73c-4.67,2.39-9.29,4.8-12.93,8.73.1,16.28,8.75,33.33,24.35,39.55,10.92,4.35,19.08-2.17,25.38-10.55.38-.51.74-1,1.12-1.55-9.33.45-20.21-6.14-26.19-12.17S356.34,156.62,355.85,147.73Z"/><path class="cls-1" d="M408.42,156.66A130.85,130.85,0,0,0,416,126.41c-6,.64-13.16-2.2-18-4.24-4.37-1.83-9.24-4.7-11.7-8.83-.09.2-.15.41-.24.61a75.62,75.62,0,0,1-12.4,20.67C378.64,148.56,393.16,160.24,408.42,156.66Z"/><path class="cls-5" d="M440.22,338.17a307.45,307.45,0,0,0-14.41-78.05l2.07-.27c3.18-.43,4.79-2.53,4.35-5.72a151.65,151.65,0,0,0-26.82-67.5,5,5,0,0,0-1.54-1.43c7-10.29,12.05-22.38,15.62-33.37A135.47,135.47,0,0,0,425,94.29c-2.45-20.69-9.17-42.75-21-60.21a4,4,0,0,0-3.12-3.36c-3.22-1.36-7.33,1.82-5.22,5.72l.07.13c-1.47,4.57-2.12,9.54-3.1,14.16q-2.2,10.47-4.37,21c-2.62,12.8-4.94,25.83-9.74,38a74.34,74.34,0,0,1-6.71,13.18c-18.49-26.76-55.7-32.75-86-29.26a155.37,155.37,0,0,0-79.18,33.43c-7.38-5-14.89-9.19-20-17-5.17-8-7.55-17.51-9.27-26.79-3.82-20.57-3.48-41.68-3.2-62.51.06-4.55-5.69-5.48-8-2.18-33.85,47.89-35.89,113.2-1.78,161.63a4.39,4.39,0,0,0,.63.72,3.94,3.94,0,0,0,5.44,3.87A153.54,153.54,0,0,0,146.53,263c-.07,2.47,2.73,4.38,5,3.77a169.13,169.13,0,0,0,12,82.14c1,2.45,4.6,2.33,6.24.56,1.49,10.76,3.27,21.46,5.48,32.12-2,6.29-2.32,13.14-2.95,19.66-.73,7.47-1.26,14.9-1.4,22.4-.24,12.48-.32,25.46,3.32,37.53,1.79,5.91,8.1,23.39,17.2,19.11,4.74-2.23,4-8.69,4.46-13,.25-2.7.68-5.41,1.14-8.12,6.29,19.39,12.59,38.83,19.75,57.91,3.47,9.25,7.22,18.43,11.54,27.32,4.13,8.5,8.71,18.82,15.33,25.68,5.31,5.51,15,6.53,16.77-2.66,1.75-8.95-.59-19.47-3.53-28.5,29.39-1.21,58.73-3.73,87.95-7.06q4.26,11.85,8.53,23.7c2.25,6.27,4,16.24,11.76,17.79,6.57,1.31,11.57-4.64,14-10,3.78-8.5,5.53-18.37,8-27.32q10.07-36.45,17.73-73.51c.44,1.55.89,3.09,1.31,4.62,1.45,5.25,2.42,11.94,6.9,15.65,11.85,9.84,15.1-12.93,16.07-19.35a150.6,150.6,0,0,0,.27-43.6,220.91,220.91,0,0,0-4.59-22.18c-1.83-7.4-2.75-15.5-5.11-22.74.13-1,.28-2,.41-3l2.81,6.62c1.53,3.61,8,2.72,8.6-1.12a143.79,143.79,0,0,0,1.29-35.86C435.57,343.63,440.44,342.23,440.22,338.17Zm-44-262q2.19-10.48,4.31-21c.42-2.07.94-4.22,1.46-6.4,5.61,11.71,10.13,23.61,12.69,36.36C412.22,86,409.81,87,407,87a20.27,20.27,0,0,1-12.13-4.17C395.31,80.61,395.76,78.41,396.22,76.21Zm-2.05,9.73c5,4.73,14.94,6.49,21.3,3.63.42,2.55.76,5.13,1,7.76a131.49,131.49,0,0,1,0,24.7c-10.32,1.49-23.18-4.16-28.64-12.79A183.5,183.5,0,0,0,394.17,85.94ZM386,114c.09-.2.15-.41.24-.61,2.46,4.13,7.33,7,11.7,8.83,4.88,2,12,4.88,18,4.24a130.85,130.85,0,0,1-7.57,30.25c-15.26,3.58-29.78-8.1-34.81-22A75.62,75.62,0,0,0,386,114Zm-1.44,40.93c6.13,4.23,14.5,8.09,22,6.28a120.22,120.22,0,0,1-10.37,19.21c-4.27-1.19-8.75-1.31-13-3a38.38,38.38,0,0,1-13-8.37c-6.8-6.71-8.92-14.46-11.16-23a48.09,48.09,0,0,0,8.06-5.12,49.65,49.65,0,0,0,4.05-3.76C372.72,144.53,378.39,150.61,384.57,154.88Zm9.2,29c-.38.52-.74,1-1.12,1.55-6.3,8.38-14.46,14.9-25.38,10.55-15.6-6.22-24.25-23.27-24.35-39.55,3.64-3.93,8.26-6.34,12.93-8.73.49,8.89,5.81,18.05,11.73,24S384.44,184.36,393.77,183.91ZM165.53,35.3c0,7.78.2,15.57.71,23.32-3.73-1.29-8.27,0-11.91,2.4A127.54,127.54,0,0,1,165.53,35.3ZM153.31,64.46a18.65,18.65,0,0,1,5.35-2.63c2.66-.8,5.16-.45,7.76-.56.37,4.9.88,9.78,1.6,14.63-7,1.06-13.89,5.72-19,11.28A130.82,130.82,0,0,1,153.31,64.46Zm-4.56,26.48A43.7,43.7,0,0,1,158,83.29c3.38-2,7-3.07,10.54-4.3.65,3.9,1.42,7.77,2.37,11.62a83.86,83.86,0,0,0,3.24,10.31c-9.57,3.31-18.65,12.71-23.58,22.66A133.88,133.88,0,0,1,148.75,90.94Zm2.71,37.4a58.71,58.71,0,0,1,8-12.28c4.66-5.31,10.26-8.38,15.87-12.17a59.28,59.28,0,0,0,12.26,18.35c-6.16,3.69-11.37,9.62-15.57,15-3.75,4.8-9.37,11.09-11.95,17.64A136.89,136.89,0,0,1,151.46,128.34Zm17.63,43.6a139.55,139.55,0,0,1-7.34-13.46c2.7-7.08,8.33-13.63,12.85-19.28a68.28,68.28,0,0,1,16-14.26,44.86,44.86,0,0,0,10.65,6.68c-1,.9-2.05,1.8-3.05,2.73A145.54,145.54,0,0,0,169.09,171.94ZM188.9,460.6c-.24,1.85-.47,3.7-.67,5.55-.17,1.51-.32,3-.45,4.54q-.32,4.31-.1.46c-5.54-7.67-7.7-17.2-8.54-26.48-.9-10-.7-20-.52-30,.1-4.89.51-9.91.85-14.93,3.73,14.8,8,29.44,12.62,44C190.12,449,189.64,455,188.9,460.6Zm233.85-17a138,138,0,0,1-1.43,17.7c-.43,2.92-1,5.83-1.61,8.71-.32,1.45-.67,2.89-1,4.32-.14,2.08-.47,2.53-1,1.33-1.48-.48-2.36-6.22-2.71-7.44-.84-2.9-1.7-5.78-2.59-8.66-1.32-4.27-2.47-8.41-4.51-12.26q2.68-13.92,5.05-27.91,1.77-10.5,3.39-21c1,3.44,2,6.82,2.71,10.06A145.2,145.2,0,0,1,422.75,443.58Zm7.08-116.67c-3.58-3.19-8.48,0-7.69,4.48a132.76,132.76,0,0,1,1.94,25.47l-2-4.78c-2.1-5.12-8.89-4.29-9.52,1.29A1201.93,1201.93,0,0,1,391.23,482.2c-4.72,20.88-9.88,41.71-15.91,62.26-1.41,4.8-2.47,10.4-4.68,14.9-.78,1.6-2.26,4.92-4.16,4-.78-.38-2.05-5.36-2.31-6.08q-5.69-15.94-11.39-31.9c-.65-1.84-2.49-3.81-4.68-3.57-32.32,3.66-64.71,6.36-97.14,8.79-2.46.19-5.29,2.65-4.15,5.44a69.94,69.94,0,0,1,4.65,16.78c.36,2.48,1.44,7.25.68,9.74q1.05,3.13-1.81,2.08a14.78,14.78,0,0,1-2.64-3.45c-6.36-9.18-11.3-19.61-15.89-29.76-9.41-20.83-16.39-42.72-23.72-64.34-15.08-44.5-30.79-91-33.73-138.23-.24-3.81-6-5-7-.94l-1.23,5.29c-7.71-25-10-51.13-5.55-77.21.52-3-2.89-6.26-5.53-4.51a146.19,146.19,0,0,1,26.67-69.24c1.47-2.06-.05-5.28-2.37-5.83a20.34,20.34,0,0,0-3.31-.51c27.74-50.75,88.55-84.44,146.58-73.87,17.43,3.17,34.47,10.95,45,25.68a4,4,0,0,0,.38.43,51.33,51.33,0,0,1-6.32,6.53,78,78,0,0,1-13.77,8c-3.33,1.44-8.43,3.14-9.43,6.68a2.56,2.56,0,0,0-1,1.41c-4.11,15.23.44,30.79,11.2,42.37,11.09,11.93,28.57,17.85,42.22,6.65a60.67,60.67,0,0,0,7.16-7,153.5,153.5,0,0,1,24.54,58.83l-4,.57c-2.28.33-3.85,3.44-3.12,5.5a272.64,272.64,0,0,1,15,69.94Z"/><path class="cls-5" d="M190,219.28c7.61-1.71,9-11.12,6.18-17.23-1.59-3.39-4.8-6.06-8.68-6.05a6.55,6.55,0,0,0-6.37,4.32,12.94,12.94,0,0,0-3.63,7.27C176.75,214.25,183.17,220.81,190,219.28Zm-4.92-13a6.52,6.52,0,0,1,1.88-2.06c3.44-.05,3.65,8.64-.1,7.31A3.53,3.53,0,0,1,185,206.27Z"/><path class="cls-5" d="M310.94,225.25c7.37-3.82,7.43-14.31,1.74-19.66a10.57,10.57,0,0,0-9.94-2.49,7.74,7.74,0,0,0-4.06,2.67,11.26,11.26,0,0,0-1.18,1,11.7,11.7,0,0,0-2.94,9.79A11.34,11.34,0,0,0,310.94,225.25ZM302,214a4.49,4.49,0,0,1,.39-1.53c1.76-.8,3.34-2.35,5.05-.44s1.8,5.77-1.12,6.44C303.65,219.06,301.83,216.42,302,214Z"/><path class="cls-5" d="M330.17,241.45a4.77,4.77,0,0,0,5.13,1,4.67,4.67,0,0,0,2.88-4.3,4.9,4.9,0,0,0-2.32-4,4.81,4.81,0,0,0-5.69.74l-.31.28a4.34,4.34,0,0,0,0,6.07Z"/><path class="cls-5" d="M170.11,226c-5.51,0-5.52,8.56,0,8.56S175.63,226,170.11,226Z"/><path class="cls-5" d="M303.67,289.92c2.93-6.32,5.59-13.19,6.53-20.13a4.72,4.72,0,0,0,0-1.41c1.32-.19,2.63-.4,3.92-.65,4.2-.8,3-7-1-7.15-9.86-.46-19.75.34-29.64-.13a229.81,229.81,0,0,1-28.42-3c-19-3.29-36.43-10.44-54.93-15.25a1.93,1.93,0,0,0-1.48,3.51,89.26,89.26,0,0,0,14.47,7.8c-1.7,7.36.21,16.16,1.63,23.15.68,3.35,4.92,3.12,6.58.86,4.16-5.64,8.52-11.2,12.51-17,7.15,1.89,14.36,3.37,21.28,4.64A243.2,243.2,0,0,0,289,269.32a194.5,194.5,0,0,0,7,19.59C297.16,291.85,302,293.59,303.67,289.92Zm-83.39-23.43c-.23-1.72-.41-3.45-.52-5.2s-.15-3.51-.29-5.27c2.19.8,4.41,1.56,6.64,2.26C224.12,261,222.2,263.74,220.28,266.49Zm75.58,2.94c2,0,4-.1,6-.22-.74,2.55-1.46,5.08-2.25,7.59C298.42,274.31,297.18,271.86,295.86,269.43Z"/><path class="cls-5" d="M242.21,301a68.26,68.26,0,0,0-5.72,31.55c.18,3.3,4.68,4.87,6.44,1.75a77.54,77.54,0,0,1,5.24-8.21c3.15,7,10.83,12.26,17.88,14.27,11,3.12,12.44-10.08,8.44-17.43a2.33,2.33,0,0,0-4,0,10.62,10.62,0,0,0-1.45,5.49c0,1.36.34,3,.07,4.33-.53,2.63.11,2.07-2.72.67-5.76-2.84-13.74-6.48-13.68-14a3,3,0,0,0-5.15-2.13,58.91,58.91,0,0,0-4.34,4.46,84.85,84.85,0,0,1,3-19.08C246.93,300.4,243.23,298.67,242.21,301Z"/><path class="cls-5" d="M364.47,406.83c-.83,4.88-.18,9.84-1,14.74a42.47,42.47,0,0,1-4.56,13.21c-.95,1.72-2.71,6.08-5.34,5.64-1.3-.21-3.39-4.56-4-5.46-3.41-5-6.94-9.94-10.4-14.92-1.65-2.38-6.55-2.69-7.06.92-.35,2.44-.33,7.19-1.13,10.51-2.46-1.59-5.21-5.28-6.26-6.69a35.26,35.26,0,0,1-5.5-11.08c-.83-2.74-5.33-3.91-6.7-.87-2,4.42-3.81,8.88-5.47,13.42-2.05-5.44-1.7-11.73-1.82-17.63-.06-2.87-4.42-3.63-5.13-.69-2.53,10.52-2.9,21.95,5.3,30.1a4,4,0,0,0,6.62-1.75c1.18-3.92,2.44-7.82,3.81-11.68a37.54,37.54,0,0,0,12,13.62c6.3,4.2,8.91.11,10.2-5.19a72.59,72.59,0,0,0,9.06,12.68c4.31,4.54,9.75,5,13.87.11,7.91-9.38,14-27.93,8.82-39.67C368.77,403.94,364.88,404.47,364.47,406.83Z"/><path class="cls-5" d="M391.5,311.12a36,36,0,0,1,2,15.77c-.21,2.18-.37,7.68-3.51,6.46-1.46-.57-2.41-2.71-4.2-3.32-6.77-2.32-9.25,4.18-10.3,11a81.89,81.89,0,0,0-8.34-9.1,2.35,2.35,0,0,0-3.9,2.28c2,8.14,7.29,15.1,12.56,21.45,2.05,2.46,7.14,1.29,7.6-2,.56-3.95,1.09-7.9,1.66-11.84l.5.38c4.19,2.88,10,1.46,13.23-2.16,3.84-4.25,4.2-11.21,4.31-16.64.12-6-.87-11.61-5.22-15.92C395.28,304.87,390.22,307.43,391.5,311.12Z"/><path class="cls-5" d="M282.8,461.48a21.72,21.72,0,0,0-1.52,7.9,25.59,25.59,0,0,1-6.89-10,4,4,0,0,0-6.64-1.76,9.73,9.73,0,0,0-2.86,4.49c-.37,1.17-.5,5.72-1.43,5.95-2.25.56-4.48-7.35-4.77-8.71a67.11,67.11,0,0,1-.9-10.88c-.17-3.61-4.36-4.35-6.37-1.72a41.75,41.75,0,0,0-7.26,15.05c-2.69-6.57.32-21,.51-25.43.09-2-2.94-2.88-3.84-1-4.47,9.14-10.69,34.63,4.82,37.07,2.49.4,4.72-1,4.83-3.68a31.8,31.8,0,0,1,1-6.87c1.06,5.56,3.47,10.67,8.52,13.07,3.2,1.52,7,1.23,9.42-1.55A7.82,7.82,0,0,0,271,470a33.94,33.94,0,0,0,12.51,11.4,4.38,4.38,0,0,0,6.52-3.74c.11-4.95,1.12-10.67-.72-15.34C288.33,459.89,284.13,458.34,282.8,461.48Z"/><path class="cls-5" d="M204,367.17c-1.76,4.3-2,9-2.8,13.53-.6,3.37-1.4,6.7-2.23,10a10.58,10.58,0,0,1-3.92-2.38c-2.06-2-4.93,1-3.11,3.11,2.17,2.52,4.87,5.51,7.84,7.05a3.78,3.78,0,0,0,5.45-2.22c3.24-8.47,6.58-20.11,3.94-29.11C208.31,364.44,204.9,364.84,204,367.17Z"/><path class="cls-5" d="M191.41,305l-.3-.74c-.38-.93-1.86-1.17-2.14,0,.06-.26-4.45-7.89-4.6-8.36a26.66,26.66,0,0,1-.87-9.41,1.19,1.19,0,0,0-1.77-1,9.5,9.5,0,0,0-4,3.62,30.43,30.43,0,0,1,2-12.66.78.78,0,0,0-1.42-.6,27,27,0,0,0-2.44,17.74c.24,1.35,2,1,2.37,0a13.71,13.71,0,0,1,2.77-4.68,24.47,24.47,0,0,0,3.08,13c1.23,2.18,3.71,7,6.73,4.67A1.39,1.39,0,0,0,191.41,305Z"/><path class="cls-5" d="M369.11,293.14c3.63-.45,5-5.3,5.85-8.37,1.3-4.88,1.05-10,.56-15a27.86,27.86,0,0,1,3.39,3.91,1.63,1.63,0,0,0,3-.81,36.54,36.54,0,0,0-8.33-28.25c-.6-.74-1.86.23-1.32,1A38.93,38.93,0,0,1,379,268.82a30.32,30.32,0,0,0-4.64-4,1.56,1.56,0,0,0-2.34,1.35,68.33,68.33,0,0,1,.55,12,26.42,26.42,0,0,1-1.16,6.61c-1.1,3.36-1,4.92-2.47,1.1a1.53,1.53,0,0,0-2.95.81,14.48,14.48,0,0,0,1.6,5.65A1.75,1.75,0,0,0,369.11,293.14Z"/><path class="cls-5" d="M315.08,364.63a1.58,1.58,0,0,0-2.92-.79,21.15,21.15,0,0,0-2.26,4.71,36,36,0,0,1-.2-15.27c.22-1.14-1.48-1.63-1.75-.48A39.57,39.57,0,0,0,309,375.4a1.44,1.44,0,0,0,2.82-.39,20.79,20.79,0,0,1,.39-3.25c.83,7.34,3.45,15.76,10,17.76a1.77,1.77,0,0,0,2.12-1.2l.22-.54c.55-1.34-1.15-2.12-2.17-1.67-1.58.71-5.68-8.66-6.11-10.06A35.81,35.81,0,0,1,315.08,364.63Z"/><path class="cls-5" d="M245.42,379.16c-2.51,6.12-4.86,16-.76,21.92.66.95,2.58,1.05,2.8-.37,0-.22.07-.41.11-.63a59.27,59.27,0,0,0,3.85,8.93,1.13,1.13,0,0,0,2.1-.57c-.22-5.59-4.06-9.79-3.81-15.77.06-1.48-2.28-2.23-2.92-.79a30.3,30.3,0,0,0-1.27,3.42c-1-5,.66-11.27,1.61-15.67A.89.89,0,0,0,245.42,379.16Z"/><path class="cls-5" d="M359.89,462.68c.08,10.22-2.31,19.86-8.06,28.09a31.5,31.5,0,0,0-1.06-7,1.66,1.66,0,0,0-3.17,0c-2.91,8-6.26,14.63-12.34,20.64-1.21,1.2.42,3.5,1.88,2.44,5.51-4,8.79-10.08,11.36-16.33a31.54,31.54,0,0,1-.23,5.37c-.19,1.42,1.93,2.18,2.82,1.17,8.35-9.5,12.77-22,10.58-34.58C361.5,461.42,359.88,461.68,359.89,462.68Z"/></svg>