<svg id="Layer_1" data-name="Layer 1" xmlns="http://www.w3.org/2000/svg" viewBox="0 0 600 600"><defs><style>.cls-1{fill:#662d91;}.cls-2{fill:#009344;}.cls-3{fill:#2e3192;}.cls-4{fill:#fff200;}.cls-5{fill:#231f20;}</style></defs><title>doodle</title><path class="cls-1" d="M503.91,361.66C493.36,371.45,480,375.31,466,376.9c-30.39,3.44-62.68.54-91.29-10.67a71,71,0,0,1-31.13,12.22A88.53,88.53,0,0,1,306.45,376v0c-3.39,9.43-4.93,19.53-7,29.31-1.92,9.12-3.11,19.14-6,28.12q42-2.42,84-5.48,52.71-3.87,105.34-8.76c31.92-3,65.21-4.08,96.12-13.37-3-18.26-11.29-36.45-23.33-50-9.78-11-21.91-18.44-35.24-23.24C519,343.45,511.31,354.78,503.91,361.66Z"/><path class="cls-2" d="M382,360.34c-.76.71-1.53,1.39-2.31,2.06,25.73,5.1,51.58,8.23,77.91,6.24,13.66-1,27.87-3.07,38.59-12.35a46.55,46.55,0,0,0,10.71-13.6c2.2-4.21,3.07-8.55,4.24-12.94a129.13,129.13,0,0,0-14.34-2.92c-29.06-4.21-59.14-1.38-88-5.24C401.34,335.37,393.55,349.54,382,360.34Z"/><path class="cls-3" d="M273.4,276.13c2,6.4,9,9.64,14.53,5.65,2.64-1.9,4.66-4.69,6.75-7.13,5.24-6.14,10.35-12.43,15.8-18.37l.26-.24c-3.25-4.87-6.32-9.89-9.23-15-4.12,5.7-9.19,10.78-14.11,15.78C282.91,261.38,271.24,269.09,273.4,276.13Z"/><path class="cls-3" d="M324.69,318.92c6.27,1.94,10-4.26,12.83-8.3,3.38-4.87,5.14-10.49,8-15.51a149.7,149.7,0,0,1-15.92-14.9c-1.39,9.89-10.13,18-12.29,27.65C316.22,312.76,319.93,317.45,324.69,318.92Z"/><path class="cls-3" d="M242.18,229.83c1.39,5.64,6.73,10.87,12.72,8.37,4.2-1.76,8.17-5,12-7.41,6.95-4.36,14.46-10.8,22.29-13.45-3.08-6.47-6-13-8.79-19.46-5.84,5.84-12.94,10.62-20,14.78C254.09,216.36,239.85,220.29,242.18,229.83Z"/><path class="cls-3" d="M228.94,169.82c-2.65.79-6.13,1.31-7.31,4.45-.69,1.82-.21,5.26.23,7.08,3.33,14.05,17.73,3.81,25.64.4a225.88,225.88,0,0,1,22.73-8q-2.78-6.68-5.56-13.35l-1.24-3a219.25,219.25,0,0,1-22.12,8.5C237.22,167.33,233.09,168.6,228.94,169.82Z"/><path class="cls-4" d="M579.88,414.74c-16.82,5.21-34.32,7.38-51.84,9.11-20.41,2-40.86,3.73-61.31,5.4-73.26,5.95-146.61,10.86-220,14.32q-55.06,2.6-110.18,4.1c-18.37.51-36.75,1-55.12,1.19-8.07.09-18.57-.31-25.53-4.95,1,7.84,2.6,15.79,7.18,21.85,7.63,10.11,23,9,34.3,9.77,113.09,7.35,226.15-3.29,338.17-18.37,28-3.76,55.95-7.83,83.88-12,13.86-2.07,27.74-4.06,41.58-6.23,5.73-.9,12.39-1.88,16-7,3-4.34,3.28-10,3.08-15.1C580,416.12,579.92,415.43,579.88,414.74Z"/><path class="cls-3" d="M70.78,260.53c4.61-13.86,1.21-31-.24-45.17-1.62-15.91-3.59-31.8-4.38-47.78-.37-7.37-.48-14.76-.17-22.13.2-4.77.22-10.34,1.38-15.32q-14.37,1.53-28.7,3.36c-3.78.49-9.65.44-13.92,2.19-1.64,3.42-1.8,7.15-1.68,11.26q.25,9,.65,17.92c.5,11.19,1.57,22.45,1.37,33.66q5.37,41.83,10.7,83.69C49.14,277.89,65.87,275.28,70.78,260.53Z"/><path class="cls-2" d="M165.44,163.85c-14.91,5.47-31.46,8.09-47.22,9.61-14.73,1.43-29.94,1.93-44.67-.1.08,1,.14,2.06.22,3.1.63,8.14,1.48,16.25,2.36,24.37,7.51-.37,15.1.11,22.61-.09q12.09-.33,24.12-1.67a288.63,288.63,0,0,0,49.31-10q-3.19-11.4-5.7-23c-.17-.81-.35-1.64-.53-2.46A2.36,2.36,0,0,1,165.44,163.85Z"/><path class="cls-4" d="M187.73,212.79a426.82,426.82,0,0,0,36.43,75.8c13.8,22.7,29.62,44.89,51,61.11,20.26,15.38,46.57,24.27,72,18.61,26-5.8,40-26.48,52.09-48.28a117.14,117.14,0,0,1-35.38-12.55,129.49,129.49,0,0,1-14.91-9.73c-1.84,7.3-7.21,14.64-11.72,20.05-5.94,7.1-11.8,7.42-19.12,1.69-7-5.45-5.86-10.91-2.4-18.31,2.09-4.47,4.62-8.71,6.83-13.12,1.76-3.49,3-7.15,4.48-10.76a190.1,190.1,0,0,1-13.87-17.76c-4,5-8.28,9.75-12.44,14.59-3.19,3.71-6.22,8.07-10.16,11-5.83,4.37-13.42,3.29-18.09-2.27a15.45,15.45,0,0,1-3.59-11.42c.52-3.8,3.79-6,6.4-8.48,8.36-7.87,15.93-16.73,24.57-24.27a1.34,1.34,0,0,1,.28-.18c-3.29-5.9-6.4-11.91-9.34-18-4.42,4.32-10.87,7.26-16,10.5-5.59,3.51-11.09,7.45-16.92,10.54-7.77,4.13-15.37-.24-18.81-7.82-3.93-8.63.72-14.93,8.29-19.11,5.39-3,10.92-5.59,16.14-8.88,5.42-3.41,10.42-7.37,15.66-11q-3.61-8.44-7.14-16.93l-.16.07c-6.31,1.9-12.63,3.8-18.79,6.15-5.59,2.13-10.71,5.19-16.24,7.4-8.16,3.25-16.15.58-18.58-8.25-1-3.67-1.6-8.53.37-12s5.84-4.24,9.34-5.25c11.63-3.35,22.88-7.61,34.31-11.49q-3.12-7.49-6.25-15c-2.32-5.54-4.24-13.42-10.56-15.65-5.91-2.08-13.53-1.15-19.69-1.23q-9.66-.12-19.31-.09-21,0-42,.76c4.44,14.53,6.12,30.11,9.79,44.85A445.14,445.14,0,0,0,187.73,212.79ZM385.6,323.08c1.1-1.34,3.32.42,2.38,1.84a10.84,10.84,0,0,0-1.79,3.94,1,1,0,0,1-1.89,0A6.62,6.62,0,0,1,385.6,323.08ZM373,342.72A60.93,60.93,0,0,1,377,336a19.43,19.43,0,0,1,2.13-2.73,25.27,25.27,0,0,1,2.65-1.86.59.59,0,0,1,.86.67,21,21,0,0,1-1.31,3.43,24,24,0,0,1-1.86,2.4,64,64,0,0,1-5.39,5.66A.73.73,0,0,1,373,342.72Zm-15.44,12.36c2.18-1.53,4.42-3,6.45-4.74,1-.86,1.92-1.87,3-2.68.69-.54,1.47-.63,2.17-1.1.48-.32.88.29.71.71-.5,1.17-.41,1.93-1.32,3a22.79,22.79,0,0,1-10.35,6.32A.82.82,0,0,1,357.52,355.08Zm-23.9,6.67a57.69,57.69,0,0,0,8.47-1.26c2.13-.47,4-1.08,6.2-.76.6.09.63.85.32,1.22-3.36,4-10.63,3.57-15.28,2.9C332.07,363.67,332.5,361.83,333.62,361.75ZM309.15,358a37.94,37.94,0,0,0,7.26,2.41c2,.49,4.24.62,6.14,1.52a1,1,0,0,1-.25,1.85c-4.6,1.45-10.41-1.58-14.23-3.92A1.08,1.08,0,0,1,309.15,358ZM282,345.73a66.8,66.8,0,0,0,6.51,3.64c2,1,4.24,1.84,5.93,3.38a1.06,1.06,0,0,1-.74,1.79c-4.87-.17-9.39-4.24-12.94-7.21C279.82,346.58,281,345.1,282,345.73Zm-19.44-19a83.06,83.06,0,0,1,6.32,6.13c1.83,1.86,4.41,3.77,5.48,6.19a1.07,1.07,0,0,1-1.19,1.56c-2.69-.71-5-3.26-6.83-5.21a29.43,29.43,0,0,1-5.47-7.37A1.08,1.08,0,0,1,262.52,326.71Zm-18.06-24.26a55.65,55.65,0,0,1,5.67,6.95c1.53,2.18,3.67,4.37,4,7.08.11.89-1,1.28-1.65.95-2.24-1.14-3.57-3.9-5-5.92a56,56,0,0,1-4.67-7.81C242.35,302.68,243.6,301.58,244.46,302.45Zm-18.79-27c2,2.36,3.78,4.71,5.59,7.22s4.26,5.11,5.62,8.09a1.06,1.06,0,0,1-1.44,1.44c-5.48-3.14-9.3-10.22-10.95-16.06C224.31,275.49,225.2,274.89,225.67,275.45ZM212.94,249a86.8,86.8,0,0,1,4.59,7.64c1.23,2.31,3,4.85,3.38,7.45.11.68-.59,1.48-1.29,1-4.56-3.16-6.9-10.4-7.84-15.59A.64.64,0,0,1,212.94,249Zm-12.37-30.26c2.35,2.58,3.46,6.14,4.87,9.3s3.18,6.5,3.8,10c.14.83-.9,1.69-1.58.91-2.39-2.75-3.76-6.15-5.16-9.48s-3.14-6.68-3.18-10.25A.74.74,0,0,1,200.57,218.72Zm-12.19-25.53c1.67,2.9,3.43,5.75,5.06,8.68,1.3,2.34,3.08,4.75,3.06,7.5a1,1,0,0,1-1.46.84c-2.23-1.65-3.08-4.35-4.19-6.83-1.38-3.08-2.63-6.22-4-9.32C186.47,193.07,187.81,192.21,188.38,193.19Zm-7.84-25.8a.68.68,0,0,1,1.13-.3c1.7,2.14,2.09,5.11,2.87,7.69.9,3,2.19,5.91,2.43,9,.09,1.23-1.5,1.35-2.1.56-1.87-2.5-2.64-5.75-3.4-8.73C180.81,173.07,179.79,170,180.54,167.39Zm-9.14-32.56a.83.83,0,0,1,1.38-.36c1.8,1.93,2.42,4.65,3.21,7.12a35.8,35.8,0,0,1,2,8.52,1.15,1.15,0,0,1-2.13.57,35.47,35.47,0,0,1-3.14-8.19C172,140,171,137.46,171.4,134.83Z"/><path class="cls-4" d="M117.14,169.18c16.15-1.73,31.42-5.71,47.16-9.47a2.22,2.22,0,0,1,.8-.05c-2.5-11.84-4.83-24.3-4.19-36.25q-40.87,1.52-81.59,5.5l-5.25.53c.29,6.68-1.15,13.92-1.26,20.42-.11,6.84.12,13.67.54,20.48C88,170.47,102.51,170.76,117.14,169.18Z"/><path class="cls-1" d="M93.37,398q20.59-18.23,40.44-37.27,39.6-38.18,75.64-79.82a1.64,1.64,0,0,1,.36-.34,427.17,427.17,0,0,1-31.48-71.47q-2.6-7.77-4.9-15.63a284.78,284.78,0,0,1-49.48,10c-15.21,1.66-32.09,3.34-47.45.84.84,7.76,1.67,15.52,2.3,23.3,1.16,14.23,3.2,30.77-5.29,43.3-7.82,11.54-24.1,14.37-36.85,18.1q3.71,29.21,7.36,58.42,5.2,41.85,10.41,83.71C60.19,425.79,66.58,421,72.56,416Q83.06,407.09,93.37,398Zm105.27-117.4c.59-.68,1.53-1.08,2.18-1.74.34-.34.66-.71,1-1.08a4.69,4.69,0,0,1,1.05-.94,1,1,0,0,1,1.4.57,2.71,2.71,0,0,1-.34,2,4.85,4.85,0,0,1-1.29,1.49c-.93.72-2.38,1.51-3.6,1.12A.86.86,0,0,1,198.64,280.58Zm-11.25,15.08a23.26,23.26,0,0,1,3.26-4.39c1.16-1.24,2.38-2.84,4.06-3.34a1.19,1.19,0,0,1,1.45,1.46c-.45,1.68-2,3-3.25,4.14a22.86,22.86,0,0,1-4.3,3.36A.9.9,0,0,1,187.39,295.66Zm-17.27,17.09c1.6-2.48,4.26-4.37,6.45-6.32s4.13-3.84,6.8-4.78c.87-.3,1.45.74,1.1,1.44-1.26,2.56-3.6,4.37-5.7,6.22s-4.19,4.18-6.7,5.4C170.88,315.29,169.28,314,170.12,312.75Zm-18.34,17a33.79,33.79,0,0,1,5.46-5.43,20.59,20.59,0,0,1,5.84-4.09c.82-.34,1.45.75,1.09,1.41a20.76,20.76,0,0,1-4.88,5.32,32.71,32.71,0,0,1-5.76,4.54C152.49,332,151,330.82,151.78,329.71Zm-15,15.1a28.13,28.13,0,0,1,3.41-4.3,12.51,12.51,0,0,1,4.1-3.46.91.91,0,0,1,1.33,1,12.88,12.88,0,0,1-2.92,4.52,28.54,28.54,0,0,1-4.09,4.06C137.46,347.49,136.13,345.89,136.75,344.81ZM67.17,412.18a7.13,7.13,0,0,1-2.36,2.24,28.43,28.43,0,0,0-3,2.59c-1.55,1.54-2.9,3.64-5,4.5-.54.23-1.12-.34-1.12-.86,0-2.47,2.2-4.69,3.86-6.31s4-4.1,6.42-4.19A1.36,1.36,0,0,1,67.17,412.18Zm53.22-51.37a37,37,0,0,1,4.78-4.83c1.6-1.51,3.24-3.43,5.29-4.31.58-.25,1.41.16,1.17.9-.74,2.22-2.67,4-4.36,5.51a21.16,21.16,0,0,1-5.82,4.12C120.71,362.5,119.93,361.45,120.39,360.81Zm-14.1,13.33c.58-2.15,2.23-3.69,3.73-5.26s2.9-3.35,5-4.13a1.1,1.1,0,0,1,1.35,1.35c-.69,2.16-2.42,3.61-4,5.2s-3,3.22-5.11,3.88A.85.85,0,0,1,106.29,374.14ZM89.23,388.82a49.57,49.57,0,0,1,6.08-6.3c1.9-1.82,3.83-4.19,6.35-5.1,1-.37,1.6.85,1.26,1.64-1,2.44-3.69,4.3-5.6,6.09A47.36,47.36,0,0,1,91,390.6C90,391.28,88.45,389.89,89.23,388.82ZM72.42,405.28c.75-2.1,2.63-3.69,4.18-5.23s3.12-3.51,5.28-4.16a1.08,1.08,0,0,1,1.32,1.33c-.68,2.15-2.66,3.68-4.22,5.21s-3.19,3.39-5.3,4.11A1,1,0,0,1,72.42,405.28Z"/><path class="cls-2" d="M76.94,442c9.9-.13,19.81-.52,29.71-.78q29.86-.77,59.71-1.85,61.86-2.24,123.68-5.75c.76-9.43,3.66-19,5.53-28.23,2-10,3.24-20.9,7.07-30.44,0-.05.05-.08.07-.13-38-12.64-66.61-49.53-86.86-83.72q-2-3.36-3.91-6.76Q175.7,326,135.85,364.25q-20.22,19.41-41.36,37.84c-12.63,11-25.34,23.25-39.39,32.5C59.4,441.51,69.16,442.11,76.94,442Zm213.53-57.32c.21-1.63.26-3.26,1.65-4.28a1.12,1.12,0,0,1,1.51.4c.94,1.33.32,3.16,0,4.64a14.83,14.83,0,0,1-1.79,4.92.72.72,0,0,1-1.31-.18A15.4,15.4,0,0,1,290.47,384.68Zm-3.14,19c.27-2.47.42-5,1.47-7.23a1.11,1.11,0,0,1,2,.26c.44,2.48-.05,4.92-.41,7.39a28.18,28.18,0,0,1-1.85,7.76.78.78,0,0,1-1.42-.18A28.61,28.61,0,0,1,287.33,403.66Zm-3.26,21.24c.35-2.42.41-5.28,2.19-7.11a1,1,0,0,1,1.56.41c.75,2.1-.09,4.37-.45,6.5-.46,2.61-.53,5.41-1.41,7.91-.36,1-2.1,1.26-2.31,0A25.64,25.64,0,0,1,284.07,424.9Z"/><path class="cls-5" d="M588.65,411.83c-.06-.48-.13-1-.19-1.45l-.69-4.93a114.76,114.76,0,0,0-7.68-26.68c-8.85-20.7-24-38.83-44.23-49.16-43.94-22.48-95.43-7.27-141.77-19-52-13.22-81.93-61.69-102.44-107.57-6-13.42-11.6-27-17.3-40.58-5.12-12.17-9.37-25.38-15.7-37-6.22-11.37-18.06-11.17-29.56-11.36q-22.72-.39-45.45,0-44.29.76-88.48,4.38Q72.51,120.33,50,123c-6.77.8-13.54,1.63-20.29,2.55-5.55.75-11.15,1.8-15.07,6.16-4.3,4.78-4.25,10.36-2.39,15.69.19,7.24,2,14.75,3.27,21.65.1.55.18,1.1.28,1.64,5.36,49.77,11.69,99.46,17.7,149.13q5.5,45.42,11,90.84c1.61,13.34,2.68,26.89,5.09,40.12,1.77,9.68,5.38,19.81,13.9,25.55,10.14,6.82,24.51,6.09,36.18,6.83q21.63,1.39,43.31,1.94c30.39.79,60.8.42,91.18-.84,59.77-2.5,119.34-8.28,178.68-15.69,29.55-3.69,59-7.83,88.5-12.11q22.65-3.29,45.29-6.68c11-1.65,25.91-1.47,34.58-9.6C588.76,433.05,589.69,421.61,588.65,411.83Zm-33.11-56c12,13.54,20.37,31.73,23.33,50-30.91,9.29-64.2,10.37-96.12,13.37q-52.62,4.95-105.34,8.76-42,3.07-84,5.48c2.94-9,4.13-19,6-28.12,2.06-9.78,3.6-19.88,7-29.31v0a88.53,88.53,0,0,0,37.11,2.47,71,71,0,0,0,31.13-12.22c28.61,11.21,60.9,14.11,91.29,10.67,14-1.59,27.38-5.45,37.93-15.24,7.4-6.88,15.07-18.21,16.39-29.07C533.63,337.39,545.76,344.83,555.54,355.83Zm-58.78-29a129.13,129.13,0,0,1,14.34,2.92c-1.17,4.39-2,8.73-4.24,12.94a46.55,46.55,0,0,1-10.71,13.6c-10.72,9.28-24.93,11.32-38.59,12.35-26.33,2-52.18-1.14-77.91-6.24.78-.67,1.55-1.35,2.31-2.06,11.59-10.8,19.38-25,26.84-38.75C437.62,325.45,467.7,322.62,496.76,326.83ZM345.53,295.11c-2.87,5-4.63,10.64-8,15.51-2.81,4-6.56,10.24-12.83,8.3-4.76-1.47-8.47-6.16-7.37-11.06,2.16-9.65,10.9-17.76,12.29-27.65A149.7,149.7,0,0,0,345.53,295.11ZM310.74,256l-.26.24c-5.45,5.94-10.56,12.23-15.8,18.37-2.09,2.44-4.11,5.23-6.75,7.13-5.56,4-12.57.75-14.53-5.65-2.16-7,9.51-14.75,14-19.31,4.92-5,10-10.08,14.11-15.78C304.42,246.15,307.49,251.17,310.74,256Zm-21.54-38.7c-7.83,2.65-15.34,9.09-22.29,13.45-3.84,2.4-7.81,5.65-12,7.41-6,2.5-11.33-2.73-12.72-8.37-2.33-9.54,11.91-13.47,18.2-17.17,7.09-4.16,14.19-8.94,20-14.78C283.21,204.36,286.12,210.87,289.2,217.34Zm-24.53-56.92q2.79,6.68,5.56,13.35a225.88,225.88,0,0,0-22.73,8c-7.91,3.41-22.31,13.65-25.64-.4-.44-1.82-.92-5.26-.23-7.08,1.18-3.14,4.66-3.66,7.31-4.45,4.15-1.22,8.28-2.49,12.37-3.87a219.25,219.25,0,0,0,22.12-8.5Zm-58.3-37.9q9.65,0,19.31.09c6.16.08,13.78-.85,19.69,1.23,6.32,2.23,8.24,10.11,10.56,15.65q3.13,7.48,6.25,15c-11.43,3.88-22.68,8.14-34.31,11.49-3.5,1-7.38,1.82-9.34,5.25s-1.38,8.33-.37,12c2.43,8.83,10.42,11.5,18.58,8.25,5.53-2.21,10.65-5.27,16.24-7.4,6.16-2.35,12.48-4.25,18.79-6.15l.16-.07q3.54,8.47,7.14,16.93c-5.24,3.66-10.24,7.62-15.66,11-5.22,3.29-10.75,5.91-16.14,8.88-7.57,4.18-12.22,10.48-8.29,19.11,3.44,7.58,11,11.95,18.81,7.82,5.83-3.09,11.33-7,16.92-10.54,5.17-3.24,11.62-6.18,16-10.5,2.94,6.06,6.05,12.07,9.34,18a1.34,1.34,0,0,0-.28.18c-8.64,7.54-16.21,16.4-24.57,24.27-2.61,2.46-5.88,4.68-6.4,8.48a15.45,15.45,0,0,0,3.59,11.42c4.67,5.56,12.26,6.64,18.09,2.27,3.94-2.95,7-7.31,10.16-11,4.16-4.84,8.44-9.61,12.44-14.59A190.1,190.1,0,0,0,327,277.3c-1.46,3.61-2.72,7.27-4.48,10.76-2.21,4.41-4.74,8.65-6.83,13.12-3.46,7.4-4.56,12.86,2.4,18.31,7.32,5.73,13.18,5.41,19.12-1.69,4.51-5.41,9.88-12.75,11.72-20.05a129.49,129.49,0,0,0,14.91,9.73A117.14,117.14,0,0,0,399.21,320c-12.11,21.8-26.06,42.48-52.09,48.28-25.41,5.66-51.72-3.23-72-18.61-21.36-16.22-37.18-38.41-51-61.11a426.82,426.82,0,0,1-36.43-75.8,445.14,445.14,0,0,1-13.55-44.66c-3.67-14.74-5.35-30.32-9.79-44.85Q185.36,122.56,206.37,122.52ZM172.17,189a288.63,288.63,0,0,1-49.31,10q-12,1.35-24.12,1.67c-7.51.2-15.1-.28-22.61.09-.88-8.12-1.73-16.23-2.36-24.37-.08-1-.14-2.07-.22-3.1,14.73,2,29.94,1.53,44.67.1,15.76-1.52,32.31-4.14,47.22-9.61a2.36,2.36,0,0,0,.5-.26c.18.82.36,1.65.53,2.46Q169,177.63,172.17,189ZM72.81,149.86c.11-6.5,1.55-13.74,1.26-20.42l5.25-.53q40.7-4,81.59-5.5c-.64,12,1.69,24.41,4.19,36.25a2.22,2.22,0,0,0-.8.05c-15.74,3.76-31,7.74-47.16,9.47-14.63,1.58-29.14,1.29-43.79,1.16C72.93,163.53,72.7,156.7,72.81,149.86ZM25.09,198.52c.2-11.21-.87-22.47-1.37-33.66q-.39-9-.65-17.92c-.12-4.11,0-7.84,1.68-11.26,4.27-1.75,10.14-1.7,13.92-2.19q14.32-1.85,28.7-3.36c-1.16,5-1.18,10.55-1.38,15.32-.31,7.37-.2,14.76.17,22.13.79,16,2.76,31.87,4.38,47.78,1.45,14.2,4.85,31.31.24,45.17-4.91,14.75-21.64,17.36-35,21.68Q30.47,240.36,25.09,198.52ZM44,347.42Q40.38,318.2,36.66,289c12.75-3.73,29-6.56,36.85-18.1C82,258.37,80,241.83,78.8,227.6c-.63-7.78-1.46-15.54-2.3-23.3,15.36,2.5,32.24.82,47.45-.84a284.78,284.78,0,0,0,49.48-10q2.3,7.86,4.9,15.63a427.17,427.17,0,0,0,31.48,71.47,1.64,1.64,0,0,0-.36.34q-36,41.57-75.64,79.82Q114,379.79,93.37,398q-10.31,9.11-20.81,18c-6,5.06-12.37,9.84-18.13,15.18Q49.29,389.27,44,347.42Zm50.47,54.67q21.15-18.39,41.36-37.84,39.85-38.19,76.09-79.91,1.92,3.41,3.91,6.76c20.25,34.19,48.81,71.08,86.86,83.72,0,.05,0,.08-.07.13-3.83,9.54-5,20.4-7.07,30.44-1.87,9.19-4.77,18.8-5.53,28.23q-61.81,3.53-123.68,5.75-29.85,1.08-59.71,1.85c-9.9.26-19.81.65-29.71.78-7.78.11-17.54-.49-21.84-7.41C69.15,425.34,81.86,413.08,94.49,402.09Zm482.44,29.82c-3.57,5.15-10.23,6.13-16,7-13.84,2.17-27.72,4.16-41.58,6.23-27.93,4.16-55.88,8.23-83.88,12-112,15.08-225.08,25.72-338.17,18.37-11.31-.73-26.67.34-34.3-9.77-4.58-6.06-6.21-14-7.18-21.85,7,4.64,17.46,5,25.53,4.95,18.37-.22,36.75-.68,55.12-1.19q55.11-1.51,110.18-4.1c73.43-3.46,146.78-8.37,220-14.32,20.45-1.67,40.9-3.37,61.31-5.4,17.52-1.73,35-3.9,51.84-9.11,0,.69.1,1.38.13,2.07C580.21,421.91,580,427.57,576.93,431.91Z"/><path class="cls-5" d="M66,410.15c-2.43.09-4.78,2.57-6.42,4.19s-3.86,3.84-3.86,6.31c0,.52.58,1.09,1.12.86,2.06-.86,3.41-3,5-4.5a28.43,28.43,0,0,1,3-2.59,7.13,7.13,0,0,0,2.36-2.24A1.36,1.36,0,0,0,66,410.15Z"/><path class="cls-5" d="M73.68,406.54c2.11-.72,3.73-2.59,5.3-4.11s3.54-3.06,4.22-5.21a1.08,1.08,0,0,0-1.32-1.33c-2.16.65-3.73,2.62-5.28,4.16s-3.43,3.13-4.18,5.23A1,1,0,0,0,73.68,406.54Z"/><path class="cls-5" d="M91,390.6a47.36,47.36,0,0,0,6.31-5.45c1.91-1.79,4.56-3.65,5.6-6.09.34-.79-.23-2-1.26-1.64-2.52.91-4.45,3.28-6.35,5.1a49.57,49.57,0,0,0-6.08,6.3C88.45,389.89,90,391.28,91,390.6Z"/><path class="cls-5" d="M107.33,375.18c2.13-.66,3.59-2.33,5.11-3.88s3.28-3,4-5.2a1.1,1.1,0,0,0-1.35-1.35c-2.14.78-3.5,2.51-5,4.13s-3.15,3.11-3.73,5.26A.85.85,0,0,0,107.33,375.18Z"/><path class="cls-5" d="M121.45,362.2a21.16,21.16,0,0,0,5.82-4.12c1.69-1.54,3.62-3.29,4.36-5.51.24-.74-.59-1.15-1.17-.9-2.05.88-3.69,2.8-5.29,4.31a37,37,0,0,0-4.78,4.83C119.93,361.45,120.71,362.5,121.45,362.2Z"/><path class="cls-5" d="M138.58,346.65a28.54,28.54,0,0,0,4.09-4.06,12.88,12.88,0,0,0,2.92-4.52.91.91,0,0,0-1.33-1,12.51,12.51,0,0,0-4.1,3.46,28.13,28.13,0,0,0-3.41,4.3C136.13,345.89,137.46,347.49,138.58,346.65Z"/><path class="cls-5" d="M153.53,331.46a32.71,32.71,0,0,0,5.76-4.54,20.76,20.76,0,0,0,4.88-5.32c.36-.66-.27-1.75-1.09-1.41a20.59,20.59,0,0,0-5.84,4.09,33.79,33.79,0,0,0-5.46,5.43C151,330.82,152.49,332,153.53,331.46Z"/><path class="cls-5" d="M172.07,314.71c2.51-1.22,4.63-3.56,6.7-5.4s4.44-3.66,5.7-6.22c.35-.7-.23-1.74-1.1-1.44-2.67.94-4.71,2.94-6.8,4.78s-4.85,3.84-6.45,6.32C169.28,314,170.88,315.29,172.07,314.71Z"/><path class="cls-5" d="M188.61,296.89a22.86,22.86,0,0,0,4.3-3.36c1.2-1.18,2.8-2.46,3.25-4.14a1.19,1.19,0,0,0-1.45-1.46c-1.68.5-2.9,2.1-4.06,3.34a23.26,23.26,0,0,0-3.26,4.39A.9.9,0,0,0,188.61,296.89Z"/><path class="cls-5" d="M199,282c1.22.39,2.67-.4,3.6-1.12a4.85,4.85,0,0,0,1.29-1.49,2.71,2.71,0,0,0,.34-2,1,1,0,0,0-1.4-.57,4.69,4.69,0,0,0-1.05.94c-.31.37-.63.74-1,1.08-.65.66-1.59,1.06-2.18,1.74A.86.86,0,0,0,199,282Z"/><path class="cls-5" d="M286,432.61c.88-2.5,1-5.3,1.41-7.91.36-2.13,1.2-4.4.45-6.5a1,1,0,0,0-1.56-.41c-1.78,1.83-1.84,4.69-2.19,7.11a25.64,25.64,0,0,0-.42,7.71C283.86,433.87,285.6,433.6,286,432.61Z"/><path class="cls-5" d="M288.56,411.84a28.18,28.18,0,0,0,1.85-7.76c.36-2.47.85-4.91.41-7.39a1.11,1.11,0,0,0-2-.26c-1.05,2.28-1.2,4.76-1.47,7.23a28.61,28.61,0,0,0-.19,8A.78.78,0,0,0,288.56,411.84Z"/><path class="cls-5" d="M291.85,390.36a14.83,14.83,0,0,0,1.79-4.92c.31-1.48.93-3.31,0-4.64a1.12,1.12,0,0,0-1.51-.4c-1.39,1-1.44,2.65-1.65,4.28a15.4,15.4,0,0,0,.07,5.5A.72.72,0,0,0,291.85,390.36Z"/><path class="cls-5" d="M178,150.11a35.8,35.8,0,0,0-2-8.52c-.79-2.47-1.41-5.19-3.21-7.12a.83.83,0,0,0-1.38.36c-.4,2.63.57,5.16,1.32,7.66a35.47,35.47,0,0,0,3.14,8.19A1.15,1.15,0,0,0,178,150.11Z"/><path class="cls-5" d="M184.87,184.36c.6.79,2.19.67,2.1-.56-.24-3.11-1.53-6.06-2.43-9-.78-2.58-1.17-5.55-2.87-7.69a.68.68,0,0,0-1.13.3c-.75,2.61.27,5.68.93,8.24C182.23,178.61,183,181.86,184.87,184.36Z"/><path class="cls-5" d="M186.89,194.06c1.33,3.1,2.58,6.24,4,9.32,1.11,2.48,2,5.18,4.19,6.83a1,1,0,0,0,1.46-.84c0-2.75-1.76-5.16-3.06-7.5-1.63-2.93-3.39-5.78-5.06-8.68C187.81,192.21,186.47,193.07,186.89,194.06Z"/><path class="cls-5" d="M207.66,239c.68.78,1.72-.08,1.58-.91-.62-3.54-2.34-6.79-3.8-10s-2.52-6.72-4.87-9.3a.74.74,0,0,0-1.25.52c0,3.57,1.83,7,3.18,10.25S205.27,236.22,207.66,239Z"/><path class="cls-5" d="M219.62,265.06c.7.49,1.4-.31,1.29-1-.41-2.6-2.15-5.14-3.38-7.45a86.8,86.8,0,0,0-4.59-7.64.64.64,0,0,0-1.16.49C212.72,254.66,215.06,261.9,219.62,265.06Z"/><path class="cls-5" d="M235.44,292.2a1.06,1.06,0,0,0,1.44-1.44c-1.36-3-3.72-5.44-5.62-8.09s-3.6-4.86-5.59-7.22c-.47-.56-1.36,0-1.18.69C226.14,282,230,289.06,235.44,292.2Z"/><path class="cls-5" d="M247.51,311.51c1.4,2,2.73,4.78,5,5.92.66.33,1.76-.06,1.65-.95-.33-2.71-2.47-4.9-4-7.08a55.65,55.65,0,0,0-5.67-6.95c-.86-.87-2.11.23-1.62,1.25A56,56,0,0,0,247.51,311.51Z"/><path class="cls-5" d="M266.3,335.38c1.87,1.95,4.14,4.5,6.83,5.21a1.07,1.07,0,0,0,1.19-1.56c-1.07-2.42-3.65-4.33-5.48-6.19a83.06,83.06,0,0,0-6.32-6.13,1.08,1.08,0,0,0-1.69,1.3A29.43,29.43,0,0,0,266.3,335.38Z"/><path class="cls-5" d="M293.66,354.54a1.06,1.06,0,0,0,.74-1.79c-1.69-1.54-3.91-2.36-5.93-3.38a66.8,66.8,0,0,1-6.51-3.64c-.95-.63-2.14.85-1.24,1.6C284.27,350.3,288.79,354.37,293.66,354.54Z"/><path class="cls-5" d="M308.07,359.84c3.82,2.34,9.63,5.37,14.23,3.92a1,1,0,0,0,.25-1.85c-1.9-.9-4.1-1-6.14-1.52a37.94,37.94,0,0,1-7.26-2.41A1.08,1.08,0,0,0,308.07,359.84Z"/><path class="cls-5" d="M333.33,363.85c4.65.67,11.92,1.13,15.28-2.9.31-.37.28-1.13-.32-1.22-2.19-.32-4.07.29-6.2.76a57.69,57.69,0,0,1-8.47,1.26C332.5,361.83,332.07,363.67,333.33,363.85Z"/><path class="cls-5" d="M358.15,356.57a22.79,22.79,0,0,0,10.35-6.32c.91-1.05.82-1.81,1.32-3,.17-.42-.23-1-.71-.71-.7.47-1.48.56-2.17,1.1-1.05.81-2,1.82-3,2.68-2,1.73-4.27,3.21-6.45,4.74A.82.82,0,0,0,358.15,356.57Z"/><path class="cls-5" d="M374.1,343.59a64,64,0,0,0,5.39-5.66,24,24,0,0,0,1.86-2.4,21,21,0,0,0,1.31-3.43.59.59,0,0,0-.86-.67,25.27,25.27,0,0,0-2.65,1.86A19.43,19.43,0,0,0,377,336a60.93,60.93,0,0,0-4.06,6.7A.73.73,0,0,0,374.1,343.59Z"/><path class="cls-5" d="M386.19,328.86a10.84,10.84,0,0,1,1.79-3.94c.94-1.42-1.28-3.18-2.38-1.84a6.62,6.62,0,0,0-1.3,5.78A1,1,0,0,0,386.19,328.86Z"/></svg>