<svg id="Layer_1" data-name="Layer 1" xmlns="http://www.w3.org/2000/svg" viewBox="0 0 600 600"><defs><style>.cls-1{fill:#fff200;}.cls-2{fill:#fff;}.cls-3{fill:#fbb040;}.cls-4{fill:#231f20;}</style></defs><title>doodle</title><path class="cls-1" d="M188.69,190.13c-16.89,26.16-27.43,56.4-21.12,87.8,6.66,33.21,32.3,55.72,60.25,72.36,26.49,15.78,57,26.4,88.17,25,16-.71,31.4-5.1,46.2-11.09A334.91,334.91,0,0,0,406.34,343c13.07-7.69,23.31-17.45,30.21-31.06,7.3-14.39,11.66-30.82,13.84-46.76,4.23-30.85-.83-63-17.32-89.69-15.06-24.35-38.37-42.2-66.25-49.09-15.43-3.81-31.36-4.55-47.18-4.44-16.9.12-34.53.24-50.91,4.81-28.84,8-52,30-71.17,52-2.84,3.26-5.65,6.69-8.37,10.24A4,4,0,0,1,188.69,190.13Zm-3.19,99c-8.82-6.26-12.05-17.95-13.21-28.2a84.54,84.54,0,0,1,6.11-41.64c.47-1.12,2.29-.7,1.89.52A96.34,96.34,0,0,0,175.12,257c.83,11.88,5.07,21.32,11.29,31.26C186.74,288.76,186.05,289.52,185.5,289.13ZM430,282.74a237.54,237.54,0,0,0,4.89-47.42.8.8,0,0,1,1.6,0A125.12,125.12,0,0,1,431.12,283,.57.57,0,0,1,430,282.74Zm-38.21-83.87a6.49,6.49,0,0,1,.62-1.27l.25-.36.07-.16.23-.54c-.08.17-.14.34-.21.51a5.37,5.37,0,0,1,2.86-2.84,4.14,4.14,0,0,1,2.11-.47,5.58,5.58,0,0,1,2.77.75,5.79,5.79,0,0,1,2.37,2.36,5.63,5.63,0,0,1,.55,1.31,5.57,5.57,0,0,1,.24,4,7,7,0,0,1-2.45,3.68,6.71,6.71,0,0,1-4.14,1.39,5.82,5.82,0,0,1-5.27-8.31Zm-13.57,147.5a104.42,104.42,0,0,0,24.55-19.22c6.86-7.27,11.25-16.08,17.6-23.63.56-.66,1.56.06,1.38.8-2.33,9.5-10.06,18.19-16.84,25a93,93,0,0,1-26.05,18.18C378.15,347.82,377.52,346.78,378.24,346.37Zm-34.11-173c6.16-8.15,17.9-6.34,24.87.1,7.38,6.82,7.15,19.16-3.7,22-7.35,1.94-20.37-.3-23-8.6a15.32,15.32,0,0,1,1.14-10.72A3.65,3.65,0,0,1,344.13,173.37ZM286,192.78a1.86,1.86,0,0,1,2.91-.38c2.81,3.56,3.18,8.25,4.85,12.38,2.43,6,6.58,9.61,13.25,10,3.83.22,7.1-.2,7.89-4.39a41.76,41.76,0,0,0,.38-8.14c0-5.36-2-11.37.89-16.16a3.45,3.45,0,0,1,5.33-.68c6,5.07,4.84,20,3.4,27-1.66,8.19-7.67,12.25-15.83,12.22s-16-3.18-20.4-10.3C285.23,208.73,282.9,198.93,286,192.78Zm-47.76,5.82c.08-.32.13-.65.23-1a12.39,12.39,0,0,1,1.94-3.72,14.82,14.82,0,0,1,9.47-6.51c10.87-2.12,21.42,8.51,17.86,19.32a15.39,15.39,0,0,1-26.08,5.5,14.62,14.62,0,0,1-1.33-1.72A13,13,0,0,1,238.23,198.6Zm-22.77,28.45a6.09,6.09,0,0,1,7.63,5.81,6.25,6.25,0,0,1-1.76,4.26,6.32,6.32,0,0,1-3.48,1.74,5.54,5.54,0,0,1-2.29-.11l-1.08-.45-.14-.07h0a6.81,6.81,0,0,1-2.45-2.32C209.73,232.6,211.84,228,215.46,227.05Z"/><path class="cls-2" d="M257.39,203.31c.71-3-3-5.87-5.85-4.68-2.2.93-2.77,3.82-2.68,6.25l.06.08C251.46,207.68,256.42,207.45,257.39,203.31Z"/><path class="cls-2" d="M361.46,184.94c1.74-.25,2.38-.09,1.37-1.44a10.08,10.08,0,0,0-3.5-3.18,10.7,10.7,0,0,0-7.46-.71c-.38,1.54-.37,3,.37,3.87C353.75,185.24,359.44,185.24,361.46,184.94Z"/><path class="cls-2" d="M392.7,197.2l.07-.15s0,0,0,0l-.06.13Z"/><path class="cls-3" d="M179.84,158.31c-.93,2.25-4.1,2.89-6.15,1.27a562.86,562.86,0,0,1-136.21,8.91A337.23,337.23,0,0,0,123,258.26c3.64,2.62,3.45,8.44-1.28,9.81a187,187,0,0,0-63.19,32.27q38.73,11.39,77.5,22.65a5.36,5.36,0,0,1,2.34,8.86l-37.67,40.78a147.39,147.39,0,0,0,36.85-5.84c5.27-1.54,8.78,5.15,5.21,8.93a478.24,478.24,0,0,0-66.4,89.12c17.52-4.18,34.21-11.17,50.89-18l64.25-26.38c3-1.25,7.08,1.94,6.76,5.14q-3.3,32.79-5.37,65.66a637.68,637.68,0,0,1,41.23-58.58,4.24,4.24,0,0,1,3.8-1.82,3.31,3.31,0,0,1,3.54-.28,16.94,16.94,0,0,1,1.62,1.2c2.08-.08,3.73,1.63,4.61,3.79a35.45,35.45,0,0,1,2.78,9.62,3.11,3.11,0,0,1-.12,1.2q23.58,60.13,47.11,120.29c14.35-50.8,40.26-97.54,55.75-148a5.3,5.3,0,0,1,7.69-3.13q35.31,21.83,70.55,43.74c5.53-36.79,7.75-73.63,10.5-110.73a4.6,4.6,0,0,1,1-2.58,5.65,5.65,0,0,1,4.75-7.22,290,290,0,0,1,84.92,4,458.56,458.56,0,0,0-45.7-70.18c-3.39-4.25-8.79-9.17-6.09-15.12,2.35-5.19,10.08-8.14,14.63-11q16.11-10,32.51-19.51c-13.27-3.58-26.63-6.75-39.93-10.26-2.66-.7-3.55-3.58-2.92-5.84a4.8,4.8,0,0,1,1-2.76c18.19-24.14,36.38-48.29,54.34-72.59A805.41,805.41,0,0,0,430,128.12c-3.31,0-6.47-3.52-5.25-6.9q8.16-22.52,16.34-45A271.66,271.66,0,0,1,400.5,92.92a5,5,0,0,1-.81.16c-3.17,1.51-7.71-.7-7-5.67,1.9-13.65,3.4-27.38,4.4-41.13q-24.6,20-49.28,40c-3.07,2.48-6.88,1.48-8.32-2.2q-9.41-24.12-20.16-47.65-3.56,9.66-7.17,19.3c-3.62,9.67-6.89,19.92-12,29a2.66,2.66,0,0,1-3.83,1.1,4.47,4.47,0,0,1-3.82-1.62,366.36,366.36,0,0,0-43.86-41.44l-5.58,40.57c-1.41,10.27.16,29.71-14.87,27.93-13.17-1.57-26.74-7.25-38.82-12.47a219.77,219.77,0,0,1-28.84-15.12c5.19,22.1,11.75,43.75,17.66,65.67C182.76,149.93,184.44,156.69,179.84,158.31ZM117.28,282.77c-4.37,2.81-10,3.73-14.91,5.51-6.15,2.24-12.31,4.64-18.29,7.28-.94.41-1.74-.85-.82-1.4a121.24,121.24,0,0,1,16.14-8.32c5.29-2.17,11.55-5.24,17.34-5.09A1.09,1.09,0,0,1,117.28,282.77Zm12.85-100.28c-11.51-1.76-22.71-1.66-34.35-1.7-12.42,0-24.8-.49-37.21-.89a1,1,0,0,1,0-2.07c14.06-.48,28.09-1,42.18-1,9.17,0,22.77-2.46,30.3,4.08C131.85,181.6,131,182.62,130.13,182.49Zm5,170c-2.06,2.48-5.26,4.19-7.91,6-3,2-6,3.95-9.09,5.88-.72.45-1.57-.63-.91-1.18,2.92-2.45,5.84-4.89,8.85-7.24,2.48-1.94,5-4.28,7.89-5.47C135.16,350,135.76,351.66,135.09,352.47Zm-8,60.93c-4,6.87-10.91,12.6-16.52,18.19s-11.44,12.1-18.29,16.29c-.56.34-1.35-.37-.94-.93,4.77-6.51,11.34-11.86,17-17.59s10.83-12.73,17.34-17.36C126.59,411.38,127.61,412.56,127.12,413.4Zm18.6-18.86c-1.06,1.57-2.86,2.65-4.31,3.85s-2.89,2.53-4.41,3.68c-.63.47-1.32-.42-1-1a20.65,20.65,0,0,1,3.73-4.75c1.31-1.3,2.95-2.88,4.78-3.36A1.09,1.09,0,0,1,145.72,394.54ZM144,342.34c-1,.78-1.95,1.53-2.9,2.34s-2.13-.46-1.28-1.29,1.81-1.86,2.73-2.78,1.63-1.9,2.83-1.95a.93.93,0,0,1,.88,1.16C146.07,340.92,144.78,341.68,144,342.34Zm7.53-160.5c-3,1.38-6.72.61-9.86.21a1.07,1.07,0,0,1,0-2.13c3.14-.39,6.9-1.17,9.86.22A1,1,0,0,1,151.5,181.84Zm49.7,281.88c-.37.84-1.52.19-1.38-.58.83-4.54,1.89-9,2.8-13.54s1.07-9.3,2.71-13.47a1,1,0,0,1,1.88.25C208.36,445,204.62,455.88,201.2,463.72Zm74.14,17.7a1.17,1.17,0,0,1-2.28.31c-2.18-7.94-3.34-16.18-5.53-24.17-2-7.33-4.36-14.79-4.73-22.43-.05-1,1.31-1,1.59-.22,2.64,7.85,4.79,16,7,23.93C273.45,466,276,473.87,275.34,481.42Zm9.18,27.11c-.2,1.15-1.81,1-2.12,0-.81-2.42-1.11-5-1.89-7.45s-2-4.68-2.81-7.09c-.32-.94.94-1.55,1.6-.93C283.06,496.6,285.42,503.44,284.52,508.53Zm114-80.14c-4.64-2.26-8.68-5.79-12.95-8.67s-8.7-5.79-13.19-8.41c-1-.56-.12-1.87.84-1.45,9.13,4,20.15,9,26.44,17.06A.94.94,0,0,1,398.55,428.39ZM414,440.22c-1.55.07-2.95-1.18-4.13-2.07-1.34-1-2.55-2.15-3.84-3.23-.62-.51.17-1.39.82-1.05,1.58.82,3.19,1.55,4.73,2.48,1.23.75,2.64,1.49,3.16,2.9A.77.77,0,0,1,414,440.22ZM492.11,237c3.35-1.78,6.67-3.9,10.33-5a.87.87,0,0,1,.83,1.44c-2.64,2.75-6.19,4.53-9.58,6.22s-7,3.53-10.75,4.05c-.58.09-1.28-.66-.67-1.15C485.23,240.27,488.78,238.79,492.11,237Zm18.72-70.1a67.23,67.23,0,0,1,3.9-6.52c1.22-1.94,2.26-4.2,4-5.68a.81.81,0,0,1,1.34.78c-.45,2.42-2.14,4.52-3.53,6.49a31.4,31.4,0,0,1-4.8,5.66A.61.61,0,0,1,510.83,166.93Zm-34.36,41.86c4.47-7,9.21-13.67,14.3-20.2,4.94-6.33,9.94-13.5,16.45-18.29.69-.51,1.49.46,1.12,1.12-3.81,6.78-9.72,12.49-14.63,18.47-5.4,6.56-10.72,13.2-16,19.82C477.12,210.39,476,209.5,476.47,208.79ZM496,327a1,1,0,0,1,0,2c-10,2-22,.28-32.14-.58a.58.58,0,0,1,0-1.15C473.86,326,486.19,324.42,496,327ZM420.45,105.07c1.95-4,4-8.45,7.23-11.59.79-.77,2.37,0,2,1.14-1.35,3.79-3.77,7.16-5.66,10.7-2.07,3.87-3.74,8.13-6.4,11.64-.31.41-1.18.36-1.11-.3C416.88,112.57,418.66,108.74,420.45,105.07ZM386.16,62.38c.47-1.09,2.22-.5,2.18.59-.18,5.38-1.6,10.69-2.23,16-.56,4.72-.73,9.47-1.66,14.14a.84.84,0,0,1-1.6,0C381.27,83.75,382.38,71.2,386.16,62.38ZM323.53,66c3.66,6.07,6.21,14.43,7.14,21.43.1.76-1.05,1-1.38.38a69.53,69.53,0,0,1-4.07-9.72c-1.38-3.68-3-7.38-3.67-11.26A1.09,1.09,0,0,1,323.53,66ZM318.8,49.82c2.06,1.57,2,5.19,1.78,7.51-.13,1.21-2,1.26-1.93,0a13.92,13.92,0,0,0-.3-3.7,10.19,10.19,0,0,1-.61-3.2C317.79,50,318.33,49.46,318.8,49.82ZM261.62,66.67c4.74,1.46,8.65,6.51,11.9,10.08a154.08,154.08,0,0,1,10.54,13.32c.58.79-.75,1.81-1.37,1.05A142.28,142.28,0,0,0,271.36,78.9c-3.43-3.36-8.56-6.61-10.73-10.94A.89.89,0,0,1,261.62,66.67Zm-5.2-7.39.12-.09a.94.94,0,0,1,1.27,0l.12.09a1.08,1.08,0,0,1,.27,1l-.09.39a1,1,0,0,1-1.87,0l-.09-.39A1.08,1.08,0,0,1,256.42,59.28Zm-19.3,70c16.13-10.35,33.79-15.81,52.82-17.6,34.26-3.22,71.79-3.59,103.45,11.65,27,13,47.94,37.12,59.49,64.54,13.9,33,13.9,70.74,3.9,104.82-4.58,15.65-11,31.37-22.16,43.55s-25.9,19.77-40.44,26.78c-16.37,7.88-33,15.81-50.65,20.41A133.92,133.92,0,0,1,292,386.4c-33.78-4.51-65.71-20.06-92.5-40.77-25.08-19.38-42.35-45-45-77.09-2.34-28.19,6.49-59.37,24.76-81.29a226.77,226.77,0,0,1,17.26-21.74C208.55,152,221.79,139.15,237.12,129.32ZM178.3,99.68c7.25,4.84,15.32,8.2,22.61,12.87a1.07,1.07,0,0,1-.82,1.94c-8.43-1.95-16.39-7.9-22.78-13.52A.82.82,0,0,1,178.3,99.68Z"/><path class="cls-4" d="M179.22,187.25c-18.27,21.92-27.1,53.1-24.76,81.29,2.66,32.11,19.93,57.71,45,77.09,26.79,20.71,58.72,36.26,92.5,40.77a133.92,133.92,0,0,0,51.56-2.93c17.65-4.6,34.28-12.53,50.65-20.41,14.54-7,29.4-14.7,40.44-26.78s17.58-27.9,22.16-43.55c10-34.08,10-71.81-3.9-104.82-11.55-27.42-32.46-51.54-59.49-64.54-31.66-15.24-69.19-14.87-103.45-11.65-19,1.79-36.69,7.25-52.82,17.6-15.33,9.83-28.57,22.64-40.64,36.19A226.77,226.77,0,0,0,179.22,187.25Zm89.51-60.5c16.38-4.57,34-4.69,50.91-4.81,15.82-.11,31.75.63,47.18,4.44,27.88,6.89,51.19,24.74,66.25,49.09,16.49,26.67,21.55,58.84,17.32,89.69-2.18,15.94-6.54,32.37-13.84,46.76-6.9,13.61-17.14,23.37-30.21,31.06a334.91,334.91,0,0,1-44.15,21.25c-14.8,6-30.17,10.38-46.2,11.09-31.15,1.37-61.68-9.25-88.17-25-27.95-16.64-53.59-39.15-60.25-72.36-6.31-31.4,4.23-61.64,21.12-87.8a4,4,0,0,0,.5-1.1c2.72-3.55,5.53-7,8.37-10.24C216.76,156.77,239.89,134.79,268.73,126.75Z"/><path class="cls-4" d="M241.65,212.23a15.39,15.39,0,0,0,26.08-5.5c3.56-10.81-7-21.44-17.86-19.32a14.82,14.82,0,0,0-9.47,6.51,12.39,12.39,0,0,0-1.94,3.72c-.1.31-.15.64-.23,1a13,13,0,0,0,2.09,11.91A14.62,14.62,0,0,0,241.65,212.23Zm9.89-13.6c2.83-1.19,6.56,1.66,5.85,4.68-1,4.14-5.93,4.37-8.47,1.65l-.06-.08C248.77,202.45,249.34,199.56,251.54,198.63Z"/><path class="cls-4" d="M342.28,186.89c2.65,8.3,15.67,10.54,23,8.6,10.85-2.86,11.08-15.2,3.7-22-7-6.44-18.71-8.25-24.87-.1a3.65,3.65,0,0,0-.71,2.8A15.32,15.32,0,0,0,342.28,186.89Zm9.59-7.28a10.7,10.7,0,0,1,7.46.71,10.08,10.08,0,0,1,3.5,3.18c1,1.35.37,1.19-1.37,1.44-2,.3-7.71.3-9.22-1.46C351.5,182.62,351.49,181.15,351.87,179.61Z"/><path class="cls-4" d="M309.06,224.64c8.16,0,14.17-4,15.83-12.22,1.44-7.07,2.61-22-3.4-27a3.45,3.45,0,0,0-5.33.68c-2.94,4.79-.93,10.8-.89,16.16a41.76,41.76,0,0,1-.38,8.14c-.79,4.19-4.06,4.61-7.89,4.39-6.67-.37-10.82-4-13.25-10-1.67-4.13-2-8.82-4.85-12.38a1.86,1.86,0,0,0-2.91.38c-3.09,6.15-.76,15.95,2.67,21.56C293,221.46,301,224.61,309.06,224.64Z"/><path class="cls-4" d="M214.31,238.22h0l.14.07,1.08.45a5.54,5.54,0,0,0,2.29.11,6.32,6.32,0,0,0,3.48-1.74,6.25,6.25,0,0,0,1.76-4.26,6.09,6.09,0,0,0-7.63-5.81c-3.62,1-5.73,5.55-3.6,8.85A6.81,6.81,0,0,0,214.31,238.22Z"/><path class="cls-4" d="M397.08,207.18a6.71,6.71,0,0,0,4.14-1.39,7,7,0,0,0,2.45-3.68,5.57,5.57,0,0,0-.24-4,5.63,5.63,0,0,0-.55-1.31,5.79,5.79,0,0,0-2.37-2.36,5.58,5.58,0,0,0-2.77-.75,4.14,4.14,0,0,0-2.11.47,5.37,5.37,0,0,0-2.86,2.84l-.07.15h0l.06-.13-.07.16-.25.36a6.49,6.49,0,0,0-.62,1.27,5.82,5.82,0,0,0,5.27,8.31Z"/><path class="cls-4" d="M393,196.54l-.23.54s0,0,0,0C392.84,196.88,392.9,196.71,393,196.54Z"/><path class="cls-4" d="M148.86,74.54c5.33,25.42,11.28,51.48,20.58,75.88-47,7.47-94.44,10.16-141.95,6.87-4-.27-6.57,4.7-4.57,8a352.42,352.42,0,0,0,85.86,95.66,195.47,195.47,0,0,0-65.06,37.95c-3.09,2.71-1.29,7.82,2.34,8.87q39.47,11.44,78.88,23.05L84.88,374.08a5.4,5.4,0,0,0,3.77,9.1A156.34,156.34,0,0,0,123.51,381a486,486,0,0,0-62.12,88.63c-2.4,4.41,1.55,8.56,6,7.85,21.89-3.43,42.3-12,62.67-20.4l56.72-23.26Q183,473.17,181,512.66c-.28,5.4,7.42,7.18,10,2.7a627.5,627.5,0,0,1,47.27-70.74q27.59,70.32,55.23,140.61c1.74,4.44,8.94,5.58,10.2,0C316,530.49,343.57,481,361.19,428q35.76,22.41,71.6,44.73c2.71,1.68,7.36.21,7.92-3.22,6.37-39.64,11.34-80.49,10-120.7a276.65,276.65,0,0,1,90.44,6.64,5.41,5.41,0,0,0,6-7.84A453.53,453.53,0,0,0,503.53,277q-2.8-3.72-5.66-7.4c-1.63-2.09-4.23-6.95-6.46-8.14l.15-.16c1.45-.08,3.77-2.35,5.11-3.18q4.62-2.87,9.25-5.68,19-11.61,38.47-22.55c4.1-2.31,3.05-8.5-1.28-9.8a358.69,358.69,0,0,0-44.51-10.72c18.83-25.05,37.54-50.19,56.39-75.22,2-2.63,0-7.49-3.26-8a748,748,0,0,0-114-8.93q9-25.23,18-50.46c1.64-4.59-4-8-7.77-6-14.54,7.77-29.57,14.38-44.57,21.16,1.83-15.43,3.1-30.88,4.08-46.39.29-4.64-5.31-5.82-8.29-3.44Q372.71,53.28,346.4,74.64,335.59,47.48,323,21.06c-2-4.14-7.7-2.46-9,1.17-3.52,9.93-6.89,19.9-10.25,29.89-2.36,7-5,14.14-7,21.37a394.06,394.06,0,0,0-49.28-44.34c-2.37-1.8-6.94,0-7.35,3q-2.73,20-5.49,40-1.32,9.69-2.66,19.38c-.28,2,0,7.68-1.34,9.2s-6.25-.56-8.31-1.1A210,210,0,0,1,155.8,69.2C152.16,66.69,148.09,70.82,148.86,74.54Zm40.53,24.17c12.08,5.22,25.65,10.9,38.82,12.47,15,1.78,13.46-17.66,14.87-27.93l5.58-40.57a366.36,366.36,0,0,1,43.86,41.44,4.47,4.47,0,0,0,3.82,1.62,2.66,2.66,0,0,0,3.83-1.1c5.08-9,8.35-19.28,12-28.95q3.62-9.64,7.17-19.3Q330.05,59.93,339.47,84c1.44,3.68,5.25,4.68,8.32,2.2q24.65-20,49.28-40c-1,13.75-2.5,27.48-4.4,41.13-.69,5,3.85,7.18,7,5.67a5,5,0,0,0,.81-.16,271.66,271.66,0,0,0,40.58-16.75q-8.18,22.53-16.34,45.05c-1.22,3.38,1.94,6.91,5.25,6.9a805.41,805.41,0,0,1,110.5,7.39c-18,24.3-36.15,48.45-54.34,72.59a4.8,4.8,0,0,0-1,2.76c-.63,2.26.26,5.14,2.92,5.84,13.3,3.51,26.66,6.68,39.93,10.26q-16.4,9.53-32.51,19.51c-4.55,2.82-12.28,5.77-14.63,11-2.7,5.95,2.7,10.87,6.09,15.12a458.56,458.56,0,0,1,45.7,70.18,290,290,0,0,0-84.92-4,5.65,5.65,0,0,0-4.75,7.22,4.6,4.6,0,0,0-1,2.58c-2.75,37.1-5,73.94-10.5,110.73q-35.24-21.94-70.55-43.74a5.3,5.3,0,0,0-7.69,3.13c-15.49,50.48-41.4,97.22-55.75,148q-23.53-60.15-47.11-120.29a3.11,3.11,0,0,0,.12-1.2,35.45,35.45,0,0,0-2.78-9.62c-.88-2.16-2.53-3.87-4.61-3.79a16.94,16.94,0,0,0-1.62-1.2,3.31,3.31,0,0,0-3.54.28,4.24,4.24,0,0,0-3.8,1.82,637.68,637.68,0,0,0-41.23,58.58q2.09-32.87,5.37-65.66c.32-3.2-3.72-6.39-6.76-5.14l-64.25,26.38c-16.68,6.86-33.37,13.85-50.89,18a478.24,478.24,0,0,1,66.4-89.12c3.57-3.78.06-10.47-5.21-8.93a147.39,147.39,0,0,1-36.85,5.84l37.67-40.78a5.36,5.36,0,0,0-2.34-8.86q-38.76-11.31-77.5-22.65a187,187,0,0,1,63.19-32.27c4.73-1.37,4.92-7.19,1.28-9.81a337.23,337.23,0,0,1-85.54-89.77,562.86,562.86,0,0,0,136.21-8.91c2.05,1.62,5.22,1,6.15-1.27,4.6-1.62,2.92-8.38-1.63-9.05-5.91-21.92-12.47-43.57-17.66-65.67A219.77,219.77,0,0,0,189.39,98.71Z"/><path class="cls-4" d="M100.75,176.83c-14.09,0-28.12.52-42.18,1a1,1,0,0,0,0,2.07c12.41.4,24.79.84,37.21.89,11.64,0,22.84-.06,34.35,1.7.83.13,1.72-.89.92-1.58C123.52,174.37,109.92,176.81,100.75,176.83Z"/><path class="cls-4" d="M151.5,180.14c-3-1.39-6.72-.61-9.86-.22a1.07,1.07,0,0,0,0,2.13c3.14.4,6.9,1.17,9.86-.21A1,1,0,0,0,151.5,180.14Z"/><path class="cls-4" d="M116.74,280.75c-5.79-.15-12,2.92-17.34,5.09a121.24,121.24,0,0,0-16.14,8.32c-.92.55-.12,1.81.82,1.4,6-2.64,12.14-5,18.29-7.28,4.88-1.78,10.54-2.7,14.91-5.51A1.09,1.09,0,0,0,116.74,280.75Z"/><path class="cls-4" d="M133.92,350.46c-2.92,1.19-5.41,3.53-7.89,5.47-3,2.35-5.93,4.79-8.85,7.24-.66.55.19,1.63.91,1.18,3-1.93,6.1-3.85,9.09-5.88,2.65-1.81,5.85-3.52,7.91-6C135.76,351.66,135.16,350,133.92,350.46Z"/><path class="cls-4" d="M145.35,338.66c-1.2,0-2,1.14-2.83,1.95s-1.8,1.88-2.73,2.78.4,2,1.28,1.29,1.94-1.56,2.9-2.34c.81-.66,2.1-1.42,2.26-2.52A.93.93,0,0,0,145.35,338.66Z"/><path class="cls-4" d="M125.72,412c-6.51,4.63-11.73,11.68-17.34,17.36s-12.24,11.08-17,17.59c-.41.56.38,1.27.94.93,6.85-4.19,12.62-10.66,18.29-16.29s12.52-11.32,16.52-18.19C127.61,412.56,126.59,411.38,125.72,412Z"/><path class="cls-4" d="M144.5,393c-1.83.48-3.47,2.06-4.78,3.36a20.65,20.65,0,0,0-3.73,4.75c-.31.59.38,1.48,1,1,1.52-1.15,2.94-2.46,4.41-3.68s3.25-2.28,4.31-3.85A1.09,1.09,0,0,0,144.5,393Z"/><path class="cls-4" d="M205.33,436.13c-1.64,4.17-1.82,9.06-2.71,13.47s-2,9-2.8,13.54c-.14.77,1,1.42,1.38.58,3.42-7.84,7.16-18.7,6-27.34A1,1,0,0,0,205.33,436.13Z"/><path class="cls-4" d="M264.39,434.91c-.28-.82-1.64-.74-1.59.22.37,7.64,2.72,15.1,4.73,22.43,2.19,8,3.35,16.23,5.53,24.17a1.17,1.17,0,0,0,2.28-.31c.63-7.55-1.89-15.38-3.91-22.58C269.18,450.87,267,442.76,264.39,434.91Z"/><path class="cls-4" d="M277.7,494c.82,2.41,2,4.66,2.81,7.09s1.08,5,1.89,7.45c.31,1,1.92,1.15,2.12,0,.9-5.09-1.46-11.93-5.22-15.47C278.64,492.44,277.38,493.05,277.7,494Z"/><path class="cls-4" d="M373.25,409.86c-1-.42-1.8.89-.84,1.45,4.49,2.62,8.88,5.49,13.19,8.41s8.31,6.41,12.95,8.67a.94.94,0,0,0,1.14-1.47C393.4,418.86,382.38,413.85,373.25,409.86Z"/><path class="cls-4" d="M411.58,436.35c-1.54-.93-3.15-1.66-4.73-2.48-.65-.34-1.44.54-.82,1.05,1.29,1.08,2.5,2.22,3.84,3.23,1.18.89,2.58,2.14,4.13,2.07a.77.77,0,0,0,.74-1C414.22,437.84,412.81,437.1,411.58,436.35Z"/><path class="cls-4" d="M463.9,328.38c10.12.86,22.13,2.55,32.14.58a1,1,0,0,0,0-2c-9.85-2.53-22.18-.94-32.14.28A.58.58,0,0,0,463.9,328.38Z"/><path class="cls-4" d="M482.94,243.78c3.78-.52,7.37-2.37,10.75-4.05s6.94-3.47,9.58-6.22a.87.87,0,0,0-.83-1.44c-3.66,1.06-7,3.18-10.33,5s-6.88,3.24-9.84,5.6C481.66,243.12,482.36,243.87,482.94,243.78Z"/><path class="cls-4" d="M477.66,209.71c5.33-6.62,10.65-13.26,16-19.82,4.91-6,10.82-11.69,14.63-18.47.37-.66-.43-1.63-1.12-1.12-6.51,4.79-11.51,12-16.45,18.29-5.09,6.53-9.83,13.23-14.3,20.2C476,209.5,477.12,210.39,477.66,209.71Z"/><path class="cls-4" d="M511.78,167.66a31.4,31.4,0,0,0,4.8-5.66c1.39-2,3.08-4.07,3.53-6.49a.81.81,0,0,0-1.34-.78c-1.78,1.48-2.82,3.74-4,5.68a67.23,67.23,0,0,0-3.9,6.52A.61.61,0,0,0,511.78,167.66Z"/><path class="cls-4" d="M417.58,117c2.66-3.51,4.33-7.77,6.4-11.64,1.89-3.54,4.31-6.91,5.66-10.7.41-1.14-1.17-1.91-2-1.14-3.23,3.14-5.28,7.59-7.23,11.59-1.79,3.67-3.57,7.5-4,11.59C416.4,117.32,417.27,117.37,417.58,117Z"/><path class="cls-4" d="M384.45,93.15c.93-4.67,1.1-9.42,1.66-14.14.63-5.35,2.05-10.66,2.23-16,0-1.09-1.71-1.68-2.18-.59-3.78,8.82-4.89,21.37-3.31,30.77A.84.84,0,0,0,384.45,93.15Z"/><path class="cls-4" d="M325.22,78.07a69.53,69.53,0,0,0,4.07,9.72c.33.6,1.48.38,1.38-.38-.93-7-3.48-15.36-7.14-21.43a1.09,1.09,0,0,0-2,.83C322.22,70.69,323.84,74.39,325.22,78.07Z"/><path class="cls-4" d="M318.65,57.33c-.06,1.26,1.8,1.21,1.93,0,.24-2.32.28-5.94-1.78-7.51-.47-.36-1,.15-1.06.61a10.19,10.19,0,0,0,.61,3.2A13.92,13.92,0,0,1,318.65,57.33Z"/><path class="cls-4" d="M271.36,78.9a142.28,142.28,0,0,1,11.33,12.22c.62.76,1.95-.26,1.37-1.05a154.08,154.08,0,0,0-10.54-13.32c-3.25-3.57-7.16-8.62-11.9-10.08a.89.89,0,0,0-1,1.29C262.8,72.29,267.93,75.54,271.36,78.9Z"/><path class="cls-4" d="M256.24,60.71a1,1,0,0,0,1.87,0l.09-.39a1.08,1.08,0,0,0-.27-1l-.12-.09a.94.94,0,0,0-1.27,0l-.12.09a1.08,1.08,0,0,0-.27,1Z"/><path class="cls-4" d="M200.91,112.55c-7.29-4.67-15.36-8-22.61-12.87a.82.82,0,0,0-1,1.29c6.39,5.62,14.35,11.57,22.78,13.52A1.07,1.07,0,0,0,200.91,112.55Z"/><path class="cls-4" d="M175.12,257a96.34,96.34,0,0,1,5.17-37.15c.4-1.22-1.42-1.64-1.89-.52a84.54,84.54,0,0,0-6.11,41.64c1.16,10.25,4.39,21.94,13.21,28.2.55.39,1.24-.37.91-.91C180.19,278.28,176,268.84,175.12,257Z"/><path class="cls-4" d="M378.88,347.47a93,93,0,0,0,26.05-18.18c6.78-6.78,14.51-15.47,16.84-25,.18-.74-.82-1.46-1.38-.8-6.35,7.55-10.74,16.36-17.6,23.63a104.42,104.42,0,0,1-24.55,19.22C377.52,346.78,378.15,347.82,378.88,347.47Z"/><path class="cls-4" d="M431.12,283a125.12,125.12,0,0,0,5.39-47.72.8.8,0,0,0-1.6,0A237.54,237.54,0,0,1,430,282.74.57.57,0,0,0,431.12,283Z"/></svg>