<svg id="Layer_1" data-name="Layer 1" xmlns="http://www.w3.org/2000/svg" viewBox="0 0 600 600"><defs><style>.cls-1{fill:#fff200;}.cls-2{fill:#f7941e;}.cls-3{fill:#fff;}.cls-4{fill:#231f20;}</style></defs><title>doodle</title><path class="cls-1" d="M454.89,202.76c-3.37-40-15.94-81.94-36.32-116.66-19.26-32.8-49.66-54.71-87.42-60.72-36-5.74-72.51,4.8-102.07,25.58-31,21.8-53.35,54.18-65.89,89.7-13.4,37.94-18.7,81.63-9.23,121,4.94,20.53,13.12,40.07,21.64,59.32,8.39,18.94,17.08,38.3,30.1,54.59,13.69,17.13,31,29.89,50.21,39.05,35.38,10.2,73.26,11.08,107.71-4.23,35-15.56,63.2-45.46,76.23-81.55C454.06,289.56,458.38,244.27,454.89,202.76Zm-261.75,5.78c-12.45,5.09-24-6.85-23.45-19a14.41,14.41,0,0,1,7.62-12.31c5.36-4.12,14.72-3.83,19.89,1.11C205.64,186.35,204.66,203.83,193.14,208.54Zm162.51,102c-4.35,25.4-18.33,51.09-46.06,55.22-26.17,3.91-50-10.77-63.65-32.43-7.64-12.11-12.39-26.1-14.7-40.18-2.37-14.48-4.21-30.48-.82-44.94-.78-3.11.41-6.65,4.43-7.62a574.15,574.15,0,0,1,58.3-10.91q13.26-1.78,26.58-3c7.25-.64,17-3,24.13-.86,6.39,1.94,7.82,8.06,9.07,13.84,1.63,7.47,2.93,15,3.83,22.61A168.31,168.31,0,0,1,355.65,310.54ZM404.8,185.35c-6.77,15.4-28.2,6.41-31.69-6.75A18.81,18.81,0,0,1,378.45,160c2.83-2.55,7.3-4.13,10.43-2.44C403.38,156.34,410.14,173.23,404.8,185.35Z"/><path class="cls-2" d="M378.37,514.27q-1.33-46.93-2.66-93.86a166.67,166.67,0,0,1-26.23,10.36c4.91,31.28,6.12,62.92,9.69,94.36,1.6,14,8.67,23.5,21.89,28.75,10.62,4.22,22.65,5.51,34,5s23.78-3.37,31.59-12.06,7.8-20.76,2.54-30.68c-12.7-23.95-45.12-18.31-58.92,1.36C386.69,522.56,378.56,520.88,378.37,514.27Z"/><path class="cls-3" d="M186.67,187.45c-2.84.13-.38.12-1,.47s-1.26,2-.87.76a5.91,5.91,0,0,1-2.34,3.29c.68,2.53,2.38,5.28,5,4.53,2.83-.79,2.33-6.15.83-8.06C187.81,187.81,187.39,187.42,186.67,187.45Z"/><path class="cls-2" d="M321.67,436.43a142.13,142.13,0,0,1-36.86-.67c3.38,11.33,5,23.51,6.7,34.93,2.4,15.81,4.09,31.74,5.41,47.67.34,4-4.28,7.23-7.93,6-19.95-6.45-53.38.35-57.16,25.46-1.93,12.8,10.59,20,21.48,21.85,13.43,2.33,27.21-1.6,39.73-6.21,9.92-3.65,21.23-8.21,28.08-16.68,8.1-10,5.88-23.55,5.31-35.51C325.22,487.63,323.84,462.05,321.67,436.43Z"/><path class="cls-3" d="M340,243.28c-.75-3.69-.17-3.71-3.13-4.53-5-1.39-13.48.82-18.69,1.27q-10.67.91-21.28,2.31a6.49,6.49,0,0,1,.9,2.57c1.54,11.78,5.41,24.21,14,32.82a31.59,31.59,0,0,0,14.41,8.45c3.35.86,13.28,2.36,15.42-1.93a5.49,5.49,0,0,1,2.84-2.76,202.14,202.14,0,0,0-2.53-27.81Q341.06,248.45,340,243.28Z"/><path class="cls-3" d="M285.68,243.92q-23.68,3.59-47,9.2a116.86,116.86,0,0,1,1.84,12.16,2.48,2.48,0,0,1,.27.69c2,9.09,2.28,18.86,7.55,26.89,5.55,8.46,15.22,11.16,24.22,6.34,18.86-10.11,15.24-36.85,13.15-54.3A6.52,6.52,0,0,1,285.68,243.92Z"/><path class="cls-3" d="M390.28,171.22c-1.67-.2-3.22,1.37-4.8,2.12a6.8,6.8,0,0,0,3,5.3c.87.59,3.14,1.75,4.31,1.22-1.17.53.13-2.14.19-3.28C393.08,174.53,392.72,171.51,390.28,171.22Z"/><path class="cls-4" d="M441,361.83c23.13-37.26,29.65-85.42,30.46-128.54.86-46.06-9.87-91.18-28.86-133-16.64-36.66-42.58-67.14-81-81.5C324.91,5,283.82,8.15,248.51,24.49c-76.91,35.59-116,124.63-111.6,206.37,1.38,25.45,8.75,49.67,18.42,73.1,9.5,23,19.25,46.74,33,67.57a147.59,147.59,0,0,0,43.31,42.72,4.24,4.24,0,0,0,1.62,2,128.41,128.41,0,0,0,40.89,17.48c.66,12.86,3.62,26,5.28,38.6s3.1,25.22,4.22,37.88c-18.4-3.11-38.44,2.24-52,15.23-15.87,15.2-17.74,39.57,1.91,52.34,21,13.64,48.79,6.06,70-2.77,9.72-4,19.51-9.07,26.52-17.14,7.37-8.5,9.39-18.76,9.15-29.77-.68-31-4-62.28-6.65-93.26q3.63-.68,7.23-1.52c.35,16.17,1.63,32.23,3,48.36,1.33,15.87,2,32,4.42,47.78,4.11,26.32,26.46,37.73,50.91,40.8,21.51,2.7,48.59-.32,61.28-20.33,11.53-18.18,3.72-43.36-13.29-55.16-17.4-12.08-39.7-7.89-55.5,4.36q-1.21-41.69-2.46-83.36a6.52,6.52,0,0,0-.38-2A159.66,159.66,0,0,0,441,361.83Zm-119.92,187c-6.85,8.47-18.16,13-28.08,16.68-12.52,4.61-26.3,8.54-39.73,6.21-10.89-1.89-23.41-9.05-21.48-21.85C235.61,524.76,269,518,289,524.41c3.65,1.18,8.27-2.06,7.93-6-1.32-15.93-3-31.86-5.41-47.67-1.74-11.42-3.32-23.6-6.7-34.93a142.13,142.13,0,0,0,36.86.67c2.17,25.62,3.55,51.2,4.76,76.89C327,525.28,329.22,538.81,321.12,548.83Zm69.13-31.34c13.8-19.67,46.22-25.31,58.92-1.36,5.26,9.92,5.21,22-2.54,30.68S426.24,558.35,415,558.87s-23.36-.77-34-5c-13.22-5.25-20.29-14.7-21.89-28.75-3.57-31.44-4.78-63.08-9.69-94.36a166.67,166.67,0,0,0,26.23-10.36q1.32,46.93,2.66,93.86C378.56,520.88,386.69,522.56,390.25,517.49Zm-26.63-107c-34.45,15.31-72.33,14.43-107.71,4.23-19.23-9.16-36.52-21.92-50.21-39.05C192.68,359.33,184,340,175.6,321c-8.52-19.25-16.7-38.79-21.64-59.32-9.47-39.42-4.17-83.11,9.23-121,12.54-35.52,34.87-67.9,65.89-89.7,29.56-20.78,66-31.32,102.07-25.58,37.76,6,68.16,27.92,87.42,60.72,20.38,34.72,32.95,76.64,36.32,116.66,3.49,41.51-.83,86.8-15,126.13C426.82,365,398.62,394.88,363.62,410.44Z"/><path class="cls-4" d="M352.93,239.71c-1.25-5.78-2.68-11.9-9.07-13.84-7.12-2.17-16.88.22-24.13.86q-13.32,1.17-26.58,3a574.15,574.15,0,0,0-58.3,10.91c-4,1-5.21,4.51-4.43,7.62-3.39,14.46-1.55,30.46.82,44.94,2.31,14.08,7.06,28.07,14.7,40.18,13.67,21.66,37.48,36.34,63.65,32.43,27.73-4.13,41.71-29.82,46.06-55.22a168.31,168.31,0,0,0,1.11-48.22C355.86,254.73,354.56,247.18,352.93,239.71ZM272.55,299.2c-9,4.82-18.67,2.12-24.22-6.34-5.27-8-5.57-17.8-7.55-26.89a2.48,2.48,0,0,0-.27-.69,116.86,116.86,0,0,0-1.84-12.16q23.31-5.58,47-9.2a6.52,6.52,0,0,0,0,1C287.79,262.35,291.41,289.09,272.55,299.2Zm69-15c-2.14,4.29-12.07,2.79-15.42,1.93a31.59,31.59,0,0,1-14.41-8.45c-8.55-8.61-12.42-21-14-32.82a6.49,6.49,0,0,0-.9-2.57Q307.51,241,318.17,240c5.21-.45,13.67-2.66,18.69-1.27,3,.82,2.38.84,3.13,4.53q1.06,5.17,1.9,10.39a202.14,202.14,0,0,1,2.53,27.81A5.49,5.49,0,0,0,341.58,284.24Z"/><path class="cls-4" d="M177.31,177.18a14.41,14.41,0,0,0-7.62,12.31c-.58,12.2,11,24.14,23.45,19,11.52-4.71,12.5-22.19,4.06-30.25C192,173.35,182.67,173.06,177.31,177.18Zm10.17,19.32c-2.63.75-4.33-2-5-4.53a5.91,5.91,0,0,0,2.34-3.29c-.39,1.26.28-.42.87-.76s-1.85-.34,1-.47c.72,0,1.14.36,1.64,1C189.81,190.35,190.31,195.71,187.48,196.5Z"/><path class="cls-4" d="M388.88,157.55c-3.13-1.69-7.6-.11-10.43,2.44a18.81,18.81,0,0,0-5.34,18.61c3.49,13.16,24.92,22.15,31.69,6.75C410.14,173.23,403.38,156.34,388.88,157.55Zm4.07,19c-.06,1.14-1.36,3.81-.19,3.28-1.17.53-3.44-.63-4.31-1.22a6.8,6.8,0,0,1-3-5.3c1.58-.75,3.13-2.32,4.8-2.12C392.72,171.51,393.08,174.53,393,176.58Z"/></svg>