<svg id="Layer_1" data-name="Layer 1" xmlns="http://www.w3.org/2000/svg" viewBox="0 0 600 600"><defs><style>.cls-1{fill:#8dc63f;}.cls-2{fill:#009444;}.cls-3{fill:#231f20;}</style></defs><title>doodle</title><path class="cls-1" d="M505.35,330a31.54,31.54,0,0,0-1.78-13.86c-7.43-20.63-32.93-27.08-51-16.45-15.26,9-23.85,26.11-29.69,42.16-6.61,18.15-10.49,37.12-16,55.6-9.69,32.5-25.92,63.09-48.74,88.3-22.51,24.87-51.45,43.84-84,52.53a171.51,171.51,0,0,1-52,5.78,165,165,0,0,0,36.19,7.81c23.59,2.42,46.77.38,70.19-1.74,27-11.68,50.81-29.58,64.7-56.82,11.91-23.35,17.4-50.61,22-76.23,4.42-24.76,3.76-52.06,13.35-75.59,7.21-17.68,21.25-33.22,41.17-35.13C485.8,304.83,501.94,313.9,505.35,330Z"/><path class="cls-1" d="M477.9,374.09c-6.91-4.48-11-12.28-12.07-20.31a41.72,41.72,0,0,1-.31-4.92,25.55,25.55,0,0,0-.83,25.11,35.53,35.53,0,0,0,1.89,3.18c15.1,7.33,32.88,13,45.38,1.53-1.92.29-3.88.45-5.83.55C496.76,379.71,486,379.36,477.9,374.09Z"/><path class="cls-1" d="M408.23,256.76a100.16,100.16,0,0,0-9.68,22.54,119.24,119.24,0,0,1,9.62-8.85c.43-.36.89-.7,1.33-1.05a2.59,2.59,0,0,1,.75-1,52.78,52.78,0,0,1,6.61-4.32c36.57-23.81,90.29-25.09,124.22,4.41,9.73,8.47,13.76,20,16.08,32.34,2.59,13.74,4.88,28,3.54,42,6.9-19.19,8.09-41,4.38-60.52a131.56,131.56,0,0,0-9.84-30.76c-17.6-21.32-41.87-36.52-70.4-37C454.15,214,424,230.3,408.23,256.76Z"/><path class="cls-2" d="M160.37,536.1c-33.54-21.93-58.4-51.69-68.16-91C82.1,404.33,75.72,362.55,81.85,320.72a251.36,251.36,0,0,1,39.83-103.35,241.66,241.66,0,0,1,31.95-38.25c-9.53,5.37-18.88,11.06-27.94,17.22C87.1,222.59,53.06,258.77,37.28,303.41c-16.41,46.43-10.16,99.83,6.09,145.5,15.79,44.4,45.36,83.87,87.27,106.47a146.93,146.93,0,0,0,66.3,17.91,316,316,0,0,0,45.75-2.61,218.18,218.18,0,0,1-21.6-5.49C199.75,558.71,179,548.28,160.37,536.1Z"/><path class="cls-1" d="M530.5,275.41c-10.67-8.55-24.31-13.64-37.63-16.18-1.47-.28-2.94-.52-4.42-.73,37.72,9.47,48.84,64.51,44.26,97.79-1.33,9.63-4.76,18.77-10.58,25.6,29.1-10.62,28.51-46.69,24.12-72.18C544,296.68,541.38,284.12,530.5,275.41Z"/><path class="cls-2" d="M172.55,250.09c-14.89,16.13-27.9,34.12-36.35,54.48-10.72,25.84-14.3,54.16-13.86,82,.81,52.36,18,106.66,62.15,138.35q4,2.9,8.24,5.47a141,141,0,0,0,17.14,3.46,154.46,154.46,0,0,0,32.95.56,159.45,159.45,0,0,0,64.3-20.28c33.73-19.17,59.56-50,76.24-84.74C400.9,392.88,402.1,349.89,422.92,315c8.6-14.43,21.62-27.42,38.62-30.89,16.11-3.3,34.08,1.58,44.81,14.44,9.92,11.89,13.19,29.2,6.9,43.54-5,11.35-17.45,22.49-30.39,22.77.46.34.9.69,1.4,1,10.48,6.2,26.06,3.45,36.46-1.29,5.25-15.49,2.75-35.82-.54-49.76a90.64,90.64,0,0,0-13-30.33c-7.38-10.81-15.75-16.33-28.9-17.46-15.7-1.35-31.93-1.86-47.56.9a95.29,95.29,0,0,0-11.57,6.88,99.08,99.08,0,0,0-25.53,26.31c-2.34,13.76-3.7,27.79-6.16,41.27-4.63,25.48-14.1,48.86-30.23,69.25a153.52,153.52,0,0,1-58.58,45.3c-23.44,10.22-53.42,16.95-77.87,6.65C171.45,442.82,149.11,380.14,161,330.7c6.38-26.45,21-49.87,37.8-70.91,19.47-24.39,41.62-46.8,63.76-68.73a658,658,0,0,0,49.32-64.51C320.79,113.25,329,99,332.13,83.1s-1.23-28.83-6.69-43.51c-.54-.52-1.11-1-1.67-1.52,4.76,20.51-2,44.84-10.07,62.71-10.43,22.94-26.77,43-44.39,60.79C238.52,192.66,202.27,217.91,172.55,250.09Z"/><path class="cls-1" d="M255.61,131.22c-21,10.82-43.3,19-64.71,28.91-10.41,8-20.64,16-29.81,25.7a265.82,265.82,0,0,0-35,46.59,246.12,246.12,0,0,0-33.33,97c-4.6,39.35,2,80.13,12.61,118.08,9.44,33.83,32.52,59.19,61.12,78-38.87-33.92-54.83-85.86-56.19-136.28-.73-27.13,2.21-54.93,11.28-80.63,7.67-21.73,19.78-41.32,34.42-59,28.92-34.93,66.15-61.52,98.25-93.27,16.37-16.21,31.7-33.93,42.67-54.31,1.35-2.5,2.6-5,3.79-7.63C289.18,109.92,272.53,122.49,255.61,131.22Z"/><path class="cls-1" d="M198.54,434c10.15,10.54,22.58,19.67,37.35,22,14.11,2.24,29.16-.76,42.63-5C328.14,435.41,364,393.57,374.25,343c.54-2.68,1-5.36,1.51-8.06a1.89,1.89,0,0,1-2-.38,153.61,153.61,0,0,1-10.27,26.6c-10.28,20.43-25.65,43.08-48.53,50.34-17,5.39-38.21,3-55.35-4.66a142.57,142.57,0,0,1-28.46-9c-14.32-6.17-24.82-15.64-30.81-30.21-10.81-26.32-10.39-57.9-2.34-84.88a118.86,118.86,0,0,1,5.37-14.43c-20.7,27.8-36.27,58.19-35.28,92.81A111,111,0,0,0,198.54,434Z"/><path class="cls-2" d="M327.53,119.55c-15.25,26.75-35.17,51.52-55.06,74.93C252,218.53,226.76,240,213.4,269.11c-12.5,27.28-15.11,59.63-6.39,88.4,4.79,15.79,14.37,25.71,29.16,32-11.09-13.68-15-31.66-15.34-49.71-.39-24.22,1.81-50.56,9.55-73.62a99.53,99.53,0,0,1,17.07-31.51c8.2-10.05,18.59-17.84,28.55-26,20.67-17,40.57-35.94,54.27-59.12S351.64,97.25,344,70.64c-.59-2.07-1.3-4.09-2.07-6.07a72.41,72.41,0,0,1,.1,12.21C340.88,92,335,106.37,327.53,119.55Z"/><path class="cls-2" d="M393.09,260.17c10.17-22.33,28.92-39.92,51.45-49.46C472.21,199,505.48,202,531,217.18a99.37,99.37,0,0,0-26.3-18.32c-27.58-13.14-59.26-12.36-85,2.61-20.79,18.23-29.39,44.13-34,70.92-1.78,10.23-3.28,20.42-5,30.51.13-.24.27-.48.41-.72C383.66,287.8,387,273.61,393.09,260.17Z"/><path class="cls-1" d="M349.39,134.89c-9.19,23.48-24.83,43.59-42.74,61.11s-41.6,31.93-55.35,53.49-16.43,48.28-17.93,73.25c-1.45,24.34-.73,52.78,21.67,67.87a68.14,68.14,0,0,0,18.2,8.5c3.75.67,7.52,1.33,11.3,2.06a3.74,3.74,0,0,1,1.42.57c14.65,1.67,29.68-1.28,40.6-10.63,19.32-16.55,31.57-43.05,37.74-67.25,6.13-24,7.65-53.43,15.14-79.41-11.35,19.71-18.59,42-24.57,63.88-2.7,9.89-5.21,19.82-7.81,29.72-2.11,8-4.2,16.41-9.59,22.93-9.29,11.22-25.77,14-39.13,9.35-32.89-11.46-41.93-55.51-38.09-85.85,2.21-17.55,8.31-34,20.18-47.33,13.39-15,30.32-27.07,44.72-41.16C352,169.74,380,139.51,372.52,98.93c-4-21.76-17.16-45.08-35.38-60.72a81.82,81.82,0,0,1,12.63,20C360.53,82.49,359,110.44,349.39,134.89Z"/><path class="cls-3" d="M498.11,182.25c-35.62-12.06-73.94-4.32-101.81,20.88-30.09,27.21-43.66,66.71-53.69,104.86-2.61,9.91-5,19.87-7.66,29.76-3.09,11.4-7.78,21.41-20.67,22.86-21.37,2.4-34.6-19.11-39.69-36.84-6.07-21.14-4.85-46.36,5.54-66,10.06-19,30.52-31.91,45.88-46.41,31.44-29.67,65.84-64.75,58.22-111.73-6.3-38.73-20-65.68-72.38-82.56-4.44-2-9.32-3.78-10.84-4.6-6.39-3.44-12.05,2.37-7.8,7.8,12.3,15.7,11.6,37.63,3.66,55.1-8.64,19-25.5,32-43.38,41.85-19.32,10.63-40.16,18.24-60.19,27.41-20.86,9.55-41.36,20-60.79,32.26-35.85,22.58-68.4,51.42-90.37,88-23.25,38.73-30,82.13-24.56,126.65,10,82.16,57,164.89,141.11,188.51,21.56,6.05,43.7,6.47,65.89,4.51,23.38-2.06,46.95-4.86,69.83-10.15,40-9.25,79.85-28.52,103-63.82,14.33-21.86,20.77-48.42,26.13-73.66q4-18.89,6.51-38c1.87-14.27,2.47-28.84,6-42.85,5.11-20.44,24.11-48.49,48.95-36.4a18.94,18.94,0,0,1,9.61,23.59c-2.15,5.85-6.72,9.84-12.36,4.58a9.88,9.88,0,0,1-2-2.61,6.65,6.65,0,0,1,5-9.57h.05a4.41,4.41,0,0,0,3.91-3.23,5.08,5.08,0,0,0-3.32-6h0a20.74,20.74,0,0,0-14.32,0c-10.07,3.83-17.7,12.8-21.32,23.47a37.28,37.28,0,0,0-1.2,19.29l1.35,5.1a44.23,44.23,0,0,0,12.79,19.08c29.73,26,71.89,9.55,94.21-17.77C608.22,313.26,572.22,207.36,498.11,182.25ZM385.72,272.39c4.64-26.79,13.24-52.69,34-70.92,25.71-15,57.39-15.75,85-2.61A99.37,99.37,0,0,1,531,217.18c-25.54-15.2-58.81-18.17-86.48-6.47-22.53,9.54-41.28,27.13-51.45,49.46-6.11,13.44-9.43,27.63-12,42-.14.24-.28.48-.41.72C382.44,292.81,383.94,282.62,385.72,272.39ZM372.52,98.93C380,139.51,352,169.74,325.15,196c-14.4,14.09-31.33,26.14-44.72,41.16-11.87,13.32-18,29.78-20.18,47.33-3.84,30.34,5.19,74.39,38.09,85.85,13.36,4.66,29.84,1.87,39.13-9.35,5.39-6.52,7.48-14.92,9.59-22.93,2.6-9.9,5.11-19.83,7.81-29.72,6-21.91,13.22-44.17,24.57-63.88-7.49,26-9,55.37-15.14,79.41-6.17,24.2-18.42,50.7-37.74,67.25-10.92,9.35-25.95,12.3-40.6,10.63a3.74,3.74,0,0,0-1.42-.57c-3.78-.73-7.55-1.39-11.3-2.06a68.14,68.14,0,0,1-18.2-8.5c-22.4-15.09-23.12-43.53-21.67-67.87,1.5-25,4.17-51.66,17.94-73.25S288.6,213.66,306.65,196s33.55-37.63,42.74-61.11c9.57-24.45,11.14-52.4.38-76.7a81.82,81.82,0,0,0-12.63-20C355.36,53.85,368.48,77.17,372.52,98.93ZM342,64.57c.77,2,1.48,4,2.07,6.07,7.62,26.61,0,55.6-13.75,78.87s-33.6,42.16-54.27,59.12c-10,8.18-20.35,16-28.55,26a99.33,99.33,0,0,0-17.07,31.51c-7.74,23.06-9.94,49.4-9.55,73.62.29,18.05,4.25,36,15.34,49.71-14.79-6.27-24.37-16.19-29.16-32-8.72-28.77-6.11-61.12,6.39-88.4C226.76,240,252,218.53,272.47,194.48c19.89-23.41,39.81-48.18,55.06-74.93C335,106.37,340.88,92,342.05,76.78A72.41,72.41,0,0,0,342,64.57ZM198,282.77c-8,27-8.46,58.56,2.35,84.88,6,14.57,16.49,24,30.81,30.21a142.57,142.57,0,0,0,28.46,9c17.14,7.68,38.35,10.05,55.35,4.66,22.88-7.26,38.25-29.91,48.53-50.34a153.61,153.61,0,0,0,10.27-26.6,1.87,1.87,0,0,0,2,.38c-.47,2.7-1,5.38-1.51,8.06-10.22,50.53-46.11,92.37-95.73,108-13.47,4.23-28.52,7.23-42.63,5-14.77-2.35-27.2-11.48-37.35-22a111,111,0,0,1-30.46-72.81c-1-34.62,14.58-65,35.28-92.81A120.59,120.59,0,0,0,198,282.77ZM190.9,160.13c21.41-9.95,43.72-18.09,64.71-28.91,16.92-8.73,33.57-21.3,45.11-36.82-1.19,2.58-2.44,5.13-3.79,7.63-11,20.38-26.3,38.1-42.67,54.31-32.09,31.75-69.33,58.34-98.25,93.27-14.64,17.69-26.75,37.28-34.42,59-9.07,25.7-12,53.5-11.28,80.63,1.36,50.42,17.32,102.36,56.19,136.28-28.6-18.82-51.69-44.18-61.12-78-10.57-37.95-17.21-78.73-12.61-118.08a246.12,246.12,0,0,1,33.33-97,265.82,265.82,0,0,1,35-46.59C170.26,176.14,180.49,168.09,190.9,160.13Zm6,413.16a146.93,146.93,0,0,1-66.3-17.91c-41.91-22.6-71.48-62.07-87.27-106.47-16.25-45.67-22.5-99.07-6.09-145.5,15.78-44.64,49.82-80.82,88.41-107.07,9.06-6.16,18.41-11.85,27.94-17.22a241.66,241.66,0,0,0-31.95,38.25A251.36,251.36,0,0,0,81.85,320.72c-6.13,41.83.25,83.61,10.36,124.35,9.76,39.34,34.62,69.1,68.16,91,18.64,12.18,39.38,22.61,60.72,29.09a218.18,218.18,0,0,0,21.6,5.49A317.52,317.52,0,0,1,196.94,573.29Zm272.8-266.91c-19.92,1.91-34,17.45-41.17,35.13C419,365,419.64,392.34,415.22,417.1c-4.57,25.62-10.06,52.88-22,76.23-13.89,27.24-37.67,45.14-64.7,56.82-23.42,2.12-46.6,4.16-70.19,1.74a165,165,0,0,1-36.19-7.81,171.83,171.83,0,0,0,52-5.77c32.54-8.7,61.48-27.67,84-52.54,22.82-25.21,39.05-55.8,48.74-88.3,5.51-18.48,9.39-37.45,16-55.6,5.84-16.05,14.43-33.18,29.69-42.16,18.08-10.63,43.58-4.18,51,16.45A31.54,31.54,0,0,1,505.35,330C501.94,313.9,485.8,304.83,469.74,306.38Zm-3.16,70.77a35.53,35.53,0,0,1-1.89-3.18,25.55,25.55,0,0,1,.83-25.11,41.72,41.72,0,0,0,.31,4.92c1,8,5.16,15.83,12.07,20.31,8.12,5.27,18.86,5.62,28.23,5.14,1.95-.1,3.91-.26,5.83-.55C499.46,390.19,481.68,384.48,466.58,377.15Zm17.68-11.28c-.5-.3-.94-.65-1.4-1,12.94-.28,25.41-11.42,30.39-22.77,6.29-14.34,3-31.65-6.9-43.54-10.73-12.86-28.7-17.74-44.81-14.44-17,3.47-30,16.46-38.62,30.89-20.82,34.87-22,77.86-39.56,114.34-16.68,34.71-42.51,65.57-76.24,84.74a159.45,159.45,0,0,1-64.31,20.28,154.38,154.38,0,0,1-32.94-.56,141,141,0,0,1-17.14-3.46q-4.2-2.58-8.24-5.47c-44.15-31.69-61.34-86-62.15-138.35-.44-27.81,3.14-56.13,13.86-82,8.45-20.36,21.46-38.35,36.35-54.48,29.72-32.18,66-57.43,96.76-88.52,17.62-17.8,34-37.85,44.39-60.79,8.11-17.87,14.83-42.2,10.07-62.71.56.51,1.13,1,1.67,1.52,5.46,14.68,9.79,27.54,6.69,43.51s-11.34,30.15-20.22,43.45a658,658,0,0,1-49.32,64.51C240.46,213,218.3,235.4,198.83,259.79c-16.8,21-31.42,44.46-37.8,70.91-11.92,49.44,10.42,112.12,59.73,132.89,24.45,10.3,54.43,3.57,77.87-6.65a153.52,153.52,0,0,0,58.58-45.3c16.12-20.39,25.6-43.77,30.23-69.25,2.46-13.48,3.82-27.51,6.16-41.27a99.08,99.08,0,0,1,25.53-26.31,95.41,95.41,0,0,1,11.58-6.88c15.62-2.76,31.85-2.25,47.55-.9,13.15,1.13,21.52,6.65,28.9,17.46a90.44,90.44,0,0,1,13,30.33c3.29,13.94,5.79,34.27.54,49.76C510.32,369.32,494.74,372.07,484.26,365.87Zm37.87,16c5.82-6.83,9.25-16,10.58-25.6,4.58-33.28-6.54-88.32-44.26-97.79,1.48.21,2.95.45,4.42.73,13.32,2.54,27,7.63,37.63,16.18,10.88,8.71,13.51,21.27,15.75,34.3C550.64,335.2,551.23,371.27,522.13,381.89Zm35-81c-2.32-12.36-6.35-23.88-16.08-32.35-33.93-29.5-87.65-28.22-124.23-4.41a53.41,53.41,0,0,0-6.6,4.32,2.59,2.59,0,0,0-.75,1c-.44.35-.9.69-1.33,1.05a119.24,119.24,0,0,0-9.62,8.85,100.16,100.16,0,0,1,9.68-22.54C424,230.3,454.15,214,484.84,214.56c28.53.51,52.8,15.71,70.4,37a131.56,131.56,0,0,1,9.84,30.76c3.71,19.48,2.52,41.33-4.38,60.52C562,328.87,559.75,314.61,557.16,300.88Z"/></svg>