<svg id="Layer_1" data-name="Layer 1" xmlns="http://www.w3.org/2000/svg" viewBox="0 0 600 600"><defs><style>.cls-1{fill:#00aeef;}.cls-2{fill:#231f20;}</style></defs><title>doodle</title><path class="cls-1" d="M402.48,271.51c-10,8.09-19,17.23-32.76,17.92-14.22.71-21.7-9.32-28-20.47-8.77-15.51-17.51-31-26.43-46.47q-28-48.39-57.32-96-14.67-23.79-29.69-47.36c-8.09-12.7-15.44-27.36-25.66-38.53-23.86-26.12-67.18,22.19-82,40.05-10.31,12.45-27.12,29.89-18,46.56,7.33,13.44,18,25.52,26.59,38.23A913.57,913.57,0,0,1,224,348.12c1.75,4.56-.17,9.59-3.9,12.46l-41,31.53c-5.26,4-16.67,10.07-18.94,16.81-2.47,7.3,5.6,13.53,10.54,17.41,25.24,19.81,54.17,36.09,81,53.78,49.39,32.62,99,71.07,155.53,90.72,4.91-27.28,7.38-54.82,9.44-82.49a7.06,7.06,0,0,1,1.9-4.49c1.09-21.45,2.45-42.88,3.88-64.3,2.77-41.27,8.59-83,9.05-124.37C431.68,277,422.23,255.49,402.48,271.51Zm-199.31-16q-16.08-30-31.55-60.24c-5.18-10.14-10.26-20.32-15.52-30.43S144.44,144.9,141.55,134c-2.35-8.82,8.65-15.29,14.43-7.54,8.56,11.47,13.34,26.12,19.54,39,6,12.44,12.33,24.72,18.62,37q20.07,39.18,41.23,77.78c7,12.74,14.22,25.34,21.12,38.11,5.3,9.82,10.65,20,11.37,31.36,1,15.45-8.8,33.34-26.24,30.53a3.23,3.23,0,0,1-1.24-5.76c24.09-15.42,5.7-41.44-4.31-59.19Q219.32,285.59,203.17,255.51ZM374.64,529.2c-9.53-1.72-17.19-8.94-24.92-14.23a276.46,276.46,0,0,0-28.94-17c-20.21-10.52-41.12-19.63-61.17-30.47-15-8.1-40.48-19.27-45.21-37.13-1.08-4.09,1.78-7.82,6.14-7.24,14.58,1.9,28.06,15.71,40.55,22.81,14,7.95,28.47,14.82,42.93,21.79,15.07,7.27,30.12,14.69,44.39,23.46,5.2,3.2,32.75,25.7,38.7,17.71.43-1.2.87-2.41,1.35-3.66,1-2.69,5.33-3,6.8-.56C403.64,518.65,388.84,531.75,374.64,529.2Z"/><path class="cls-2" d="M403.76,245.5c-7.66,2.79-13.49,8.33-19.53,13.55-7,6-14.76,12.9-21.54,3.42-11.45-16-19.88-35.3-29.75-52.37q-30.39-52.6-62.41-104.25Q253.88,79,236.79,52.43c-8.34-13-16.3-28-30.06-36.06C177-.92,143.41,27.61,122.82,46.91A219.75,219.75,0,0,0,88.55,88.13c-8.4,13-14.17,26.4-8.47,41.81,6.69,18.1,22.08,33.93,32.74,49.82q17.84,26.58,33.72,54.39a888.43,888.43,0,0,1,54.51,114.1c-14.68,11.25-29.47,22.39-43.9,33.94-10.57,8.46-20.42,18.6-18.52,33.28s15.06,25,26.59,32.67c17.28,11.54,34.68,22.89,52,34.33,62,40.9,124.07,90.5,196.07,112.24,5.49,1.66,11.19-3.29,12.24-8.36C430.64,561.84,434,537,434.34,512c3.38-29.48,6.1-59,8.68-88.61,3.6-41.28,7.78-82.82,9.71-124.21.72-15.52-1.14-31.56-12-43.5C431.23,245.23,417.38,240.56,403.76,245.5Zm18.67,174.05c-1.43,21.42-2.79,42.85-3.88,64.3a7.06,7.06,0,0,0-1.9,4.49c-2.06,27.67-4.53,55.21-9.44,82.49-56.54-19.65-106.14-58.1-155.53-90.72-26.78-17.69-55.71-34-81-53.78-4.94-3.88-13-10.11-10.54-17.41,2.27-6.74,13.68-12.77,18.94-16.81l41-31.53c3.73-2.87,5.65-7.9,3.9-12.46a913.57,913.57,0,0,0-94.82-182.65c-8.56-12.71-19.26-24.79-26.59-38.23-9.1-16.67,7.71-34.11,18-46.56,14.79-17.86,58.11-66.17,82-40.05,10.22,11.17,17.57,25.83,25.66,38.53q15,23.58,29.69,47.36,29.34,47.56,57.32,96c8.92,15.43,17.66,31,26.43,46.47,6.3,11.15,13.78,21.18,28,20.47,13.75-.69,22.77-9.83,32.76-17.92,19.75-16,29.2,5.45,29,23.67C431,336.54,425.2,378.28,422.43,419.55Z"/><path class="cls-2" d="M388.46,505.27c-.48,1.25-.92,2.46-1.35,3.66-5.95,8-33.5-14.51-38.7-17.71C334.14,482.45,319.09,475,304,467.76c-14.46-7-29-13.84-42.93-21.79-12.49-7.1-26-20.91-40.55-22.81-4.36-.58-7.22,3.15-6.14,7.24,4.73,17.86,30.25,29,45.21,37.13,20.05,10.84,41,20,61.17,30.47a276.46,276.46,0,0,1,28.94,17c7.73,5.29,15.39,12.51,24.92,14.23,14.2,2.55,29-10.55,20.62-24.49C393.79,502.26,389.49,502.58,388.46,505.27Z"/><path class="cls-2" d="M240.38,374.49a3.23,3.23,0,0,0,1.24,5.76c17.44,2.81,27.23-15.08,26.24-30.53-.72-11.35-6.07-21.54-11.37-31.36-6.9-12.77-14.14-25.37-21.12-38.11q-21.15-38.59-41.23-77.78c-6.29-12.29-12.62-24.57-18.62-37-6.2-12.86-11-27.51-19.54-39-5.78-7.75-16.78-1.28-14.43,7.54,2.89,10.88,9.36,20.86,14.55,30.82s10.34,20.29,15.52,30.43q15.47,30.28,31.55,60.24t32.9,59.79C246.08,333.05,264.47,359.07,240.38,374.49Z"/></svg>