<svg id="Layer_1" data-name="Layer 1" xmlns="http://www.w3.org/2000/svg" viewBox="0 0 600 600"><defs><style>.cls-1{fill:#009444;}.cls-2{fill:#be1e2d;}.cls-3{fill:#f7941e;}.cls-4{fill:#fbb040;}.cls-5{fill:#231f20;}</style></defs><title>doodle</title><path class="cls-1" d="M429.66,439.19c-1.65,2.56-2.42,7.79.76,9.64,2.95,1.71,6.88-1.11,7.64-4s-.79-6.55-2.66-9.21A10.82,10.82,0,0,0,429.66,439.19Z"/><path class="cls-1" d="M323.8,413.55a11.26,11.26,0,0,0-10.17,7.75,19.79,19.79,0,0,0-.07,4.15,16.16,16.16,0,0,0,4.65,9c5.46,5.07,13.54,3.12,17.7-2.63C341.87,423.61,333.12,412.89,323.8,413.55Z"/><path class="cls-2" d="M247.12,305.94a3.41,3.41,0,0,1-.64-.1c-8.62,3-16.5,8.42-23.09,14.55-10.08,9.37-16.92,20.15-17.12,34.23A51.2,51.2,0,0,0,217,386.39c14.5,18.65,41.43,23.47,62,12.34s29.92-37.18,22.3-59.16C293.16,316.05,269.84,307.72,247.12,305.94Z"/><path class="cls-2" d="M436.72,305.24a2.59,2.59,0,0,1-1.55-1.45c-13.43-1.68-28.61,2.72-39.19,9.92a52.44,52.44,0,0,0-21.78,55.08c4.85,21.73,24.3,41.48,47.93,38.6,24.82-3,39.63-26.56,43-49.47,1.65-11.15,1.28-23.61-4-33.8S447,308.94,436.72,305.24Z"/><path class="cls-3" d="M525.87,260.37c-10-11.93-18.45-25.87-20.38-41.58-2.2-18,8.29-31.83,12.22-48.56,2.44-10.38.78-17.72-6.75-25.14-4.9-4.83-8.46-9.93-8.69-17-.27-8,4-16.84-3-23.22s-17.48-3.4-24.49,1.5a4.26,4.26,0,0,1-2.09.77c-8.18,7.78-12.39,19.4-8.66,30.9,5.21,16.06,18.87,28.21,20.38,45.7,1.54,17.83-10.82,33.59-8.59,51.4,2.58,20.67,18.93,34.19,34.29,46.15,13.17,10.24,26.42,21.7,30.58,38.58,3.31,13.47.81,27.76-5.29,40.08a71.55,71.55,0,0,1-12.58,17.84c-6.17,6.37-14.07,10.77-20.19,17.14-3.14,3.27-6.2,7.45-6.51,12.15-.29,4.23,2.06,7.1,4.08,10.55,3.18,5.42,4.79,11,2.62,17.14-1.29,3.66-3.65,6.57-5.63,9.85-2.31,3.84-2.08,5.86-1.12,10.06,1.52,6.62.71,12.32-3.12,18-5.47,8.11-26.17,19.5-18,31a15.33,15.33,0,0,0,18.52,5.12c7.6-3.4,12.26-11.41,14.09-19.26,1.91-8.23.63-16.83,2.42-25.08a37.65,37.65,0,0,1,10.9-19.19c13.26-12.78,31.33-18.38,40.87-35.08,8.49-14.83,10.72-32.59,10.41-49.42-.35-18.69-2.82-38.62-10.92-55.67C553,287.72,538,274.92,525.87,260.37Z"/><path class="cls-4" d="M483.61,464.1c1.78-4-.33-7.32-.9-11.32-1.22-8.55,4.09-13.19,7.46-20.29s-5.92-14.59-6.53-22.32c-.63-8,2.9-15.73,8-21.75,6.3-7.44,15.23-12,22-18.94a59.36,59.36,0,0,0,13.24-20.6c6.92-18.51,1.46-35.7-12.84-48.92S482.53,277,472.4,259.62c-9.22-15.83-10.14-32.05-4.73-49.26,2.84-9,6.8-18.52,5.25-28.18-1.3-8.18-5.94-15.44-10-22.48a109.2,109.2,0,0,1-6.6-13.21c-31.18,19.13-62.6,37.84-93.82,56.9C249.22,272.56,138.84,345.84,29.17,420.56c5.38,4.1,17.76,4.19,22.76,5q12.42,2,24.83,4l51.13,8.18c57.49,9.19,114.84,19.33,172.4,28,27.3,4.12,54.68,7.71,82.18,10.18,27.87,2.5,55.66,2.9,83.61,3.32a6.55,6.55,0,0,1,3,.75,80.51,80.51,0,0,1,5.87-6.09C477.94,471.05,481.88,468,483.61,464.1Zm9.81-125.59a8.34,8.34,0,0,1,5.4-5.89,7.62,7.62,0,0,1,2.83-.4,7.31,7.31,0,0,1,6.86,2.26,8,8,0,0,1,1.66,8.78,8.76,8.76,0,0,1-13.84,3A8.94,8.94,0,0,1,493.42,338.51ZM438.36,187a3.61,3.61,0,0,1,.44-1.95c1.32-2.37,5.4-5.39,8.24-4.55a8,8,0,0,1,5.24,4.89,7.36,7.36,0,0,1,.44,3.41c.13-1.43-.06.84-.13,1.22a7,7,0,0,1-.55,1.61,7.21,7.21,0,0,1-4.91,3.94c-4.69,1-9.73-2.19-9.09-7.34A4.94,4.94,0,0,1,438.36,187Zm-.09,80.62a6,6,0,0,1,.49-1.83c1.3-2.9,4.77-4,7.7-3.59a7.6,7.6,0,0,1,5.35,3.62,5.91,5.91,0,0,1,.82,3.49,6.25,6.25,0,0,1-1.4,3.37c-.73,1-1.43,2-2.22,2.93a5.93,5.93,0,0,1-5.7,1.85,7.31,7.31,0,0,1-4.68-3.36A7.2,7.2,0,0,1,438.27,267.6ZM401,212.52c4.54-1.31,11.88-1.43,18,.28a4,4,0,0,1,1.64.39l.92.47c3.35,1.32,6.07,3.32,7.35,6.12,7.13,9.18,6.75,23.34-1.47,32.48-10.44,11.62-29.51,12.28-37.58-2.19C382.35,236.69,384.4,217.3,401,212.52ZM345.14,324.39a6.12,6.12,0,0,1-.61,7.25,6.58,6.58,0,0,1-1.36,2.65A5.23,5.23,0,0,1,336,335a23.53,23.53,0,0,1-3.35-3.49,4.29,4.29,0,0,1,.45-5.22,7.23,7.23,0,0,1,4.09-2.08,5,5,0,0,1,1.89-1.58A4.85,4.85,0,0,1,345.14,324.39ZM311.49,271.7A13.22,13.22,0,0,1,328,266a15.12,15.12,0,0,1,6,2.2,16.05,16.05,0,0,1,7.22,12.4c.53,9.29-8.5,20.73-18.65,16.41C313.27,293.06,306,281.22,311.49,271.7Zm-219,138.42c-3.45,4.19-10.63,6-14.12.82A8.42,8.42,0,0,1,77,407c-.11-.09-.23-.16-.33-.25a5.24,5.24,0,0,1-1.12-6,10.28,10.28,0,0,1,14-5,11,11,0,0,1,5.17,6.14C95.73,405,94.51,407.7,92.52,410.12Zm64.49-9c-7.85,7-21.54,12.52-29.33,2.32-8-10.52-.09-24.28,10-29.89,6.62-3.7,15.56-3.28,20.38,1.5,4.56,1.06,6.87,6,7,10.72C165.16,392,161.45,397.18,157,401.11Zm37.76,24c-2.24,2.48-6.82,2.37-8.54-.73-.12-.21-.24-.42-.35-.63a5.35,5.35,0,0,1,.53-6.21,5.26,5.26,0,0,1,6.13-1.15l.66.29C196.45,418.13,197,422.67,194.77,425.15Zm78.76-10.82c-29,8.3-58.75-4.84-71.78-32-6.09-12.69-8.1-27.56-4.42-41.26,4.08-15.19,15.45-27,28.13-35.8,10.81-7.48,23.94-12.89,37.3-11.5a37,37,0,0,1,15.49,5.36c19.27,7.94,34.82,27.59,37.81,47.4C320.56,376.29,302.72,406,273.53,414.33Zm74.31,16.17c-3,13.17-18.89,21.61-31.3,15.66a22.86,22.86,0,0,1-12.22-16c-.85-4.44-.83-11.18,3.11-13.79a18.27,18.27,0,0,1,13.16-11C334.64,402.11,351.23,415.87,347.84,430.5Zm36.64,15a8,8,0,0,1-2.29,4.33c-1.69,1.6-4.3,2.89-6.68,2.14a5.81,5.81,0,0,1-3.3-2.28c0-.06-.06-.13-.1-.18a7.64,7.64,0,0,1-2.44-3.92,7.94,7.94,0,0,1,1-6.47c1.59-2.31,4.47-3,7.12-2.68A7.92,7.92,0,0,1,384.48,445.48Zm61.16,7.06c-5.56,7.86-17.71,9.82-24.14,1.9S418,434,426.4,428.65a13.39,13.39,0,0,1,10.69-1.76,4.61,4.61,0,0,1,1.77.48C448,431.88,451.69,444,445.64,452.54ZM411.38,420c-29.26-3.83-49.24-32.53-50.11-60.69-.88-28.49,17.51-53.35,44.12-62.81,12.51-4.44,26.69-5.3,39.23-.53a45,45,0,0,1,7.72,3.81c9.23,3.45,17,11.79,21,20.53,7,15,6.74,33.18,2.73,49C468.7,398.46,443.39,424.22,411.38,420Z"/><path class="cls-1" d="M325.81,287.82c4.35,1.25,6.28-6.06,5-9-1.57-3.51-5.27-4.2-8.41-5.54a5.87,5.87,0,0,0-3.41,3.66,6.23,6.23,0,0,0,1.31,6C321.37,284.41,324,287.3,325.81,287.82Z"/><path class="cls-1" d="M421.49,243c5-8.43,1.25-17-5.67-22.81a4.91,4.91,0,0,1-.51-.51,22.28,22.28,0,0,0-15.1,2.71c-8,5.11-6.26,18.94-.64,25.17C405.91,254.56,417.23,250.14,421.49,243Z"/><path class="cls-1" d="M137.06,398.46c4.5,2.29,10.76-2.64,13.71-5.77,4.48-4.76,2.78-7.66,1.78-12.7C142.28,376.47,128.5,394.11,137.06,398.46Z"/><path class="cls-5" d="M554.26,273.22c-14.23-16.22-33.33-32.36-36.57-55-3.09-21.65,15.42-39.38,12.8-61.21a30.63,30.63,0,0,0-4.4-12.82c-2.84-4.43-8.21-7.21-10.67-11.74s-.68-10.2-.31-15.18a26,26,0,0,0-1.67-12.42C505.83,86.55,482.83,85.64,470,98a38.83,38.83,0,0,0-14.89,18.09,36,36,0,0,0-1.31,22.48C336.82,203.14,224,276,113.16,350.37c-31.53,21.17-63.1,42.37-94,64.42a5.32,5.32,0,0,0-2.18,6c4.67,12.54,20.1,12.69,31.38,14.7l46.58,8.23q47.33,8.35,94.68,16.51c59.14,10.17,118.3,21.22,178,27.32,31.12,3.18,62.89,5.7,94.2,4.16-2.09,5.87-1.88,12.19,2.54,18.72a28.16,28.16,0,0,0,37,8.51c16.27-9.28,19.17-27.3,20.06-44.3.61-11.76,5.67-19.2,15.22-25.89,8.09-5.65,16.86-10.24,24.17-17,13.54-12.42,20.49-30.39,22.93-48.28,2.58-18.91,1.21-38.37-2.51-57C577.21,305.88,568,288.89,554.26,273.22ZM469.05,480a6.55,6.55,0,0,0-3-.75c-27.95-.42-55.74-.82-83.61-3.32-27.5-2.47-54.88-6.06-82.18-10.18-57.56-8.71-114.91-18.85-172.4-28l-51.13-8.18q-12.42-2-24.83-4c-5-.8-17.38-.89-22.76-5,109.67-74.72,220.05-148,333.35-217.17,31.22-19.06,62.64-37.77,93.82-56.9a109.2,109.2,0,0,0,6.6,13.21c4,7,8.68,14.3,10,22.48,1.55,9.66-2.41,19.14-5.25,28.18-5.41,17.21-4.49,33.43,4.73,49.26,10.13,17.39,27.27,27,41.65,40.34s19.76,30.41,12.84,48.92a59.36,59.36,0,0,1-13.24,20.6c-6.78,6.92-15.71,11.5-22,18.94-5.1,6-8.63,13.71-8,21.75.61,7.73,10,15.08,6.53,22.32s-8.68,11.74-7.46,20.29c.57,4,2.68,7.31.9,11.32s-5.67,6.95-8.69,9.79A80.51,80.51,0,0,0,469.05,480Zm92.69-69.78c-9.54,16.7-27.61,22.3-40.87,35.08A37.65,37.65,0,0,0,510,464.47c-1.79,8.25-.51,16.85-2.42,25.08-1.83,7.85-6.49,15.86-14.09,19.26a15.33,15.33,0,0,1-18.52-5.12c-8.17-11.53,12.53-22.92,18-31,3.83-5.68,4.64-11.38,3.12-18-1-4.2-1.19-6.22,1.12-10.06,2-3.28,4.34-6.19,5.63-9.85,2.17-6.13.56-11.72-2.62-17.14-2-3.45-4.37-6.32-4.08-10.55.31-4.7,3.37-8.88,6.51-12.15,6.12-6.37,14-10.77,20.19-17.14a71.55,71.55,0,0,0,12.58-17.84c6.1-12.32,8.6-26.61,5.29-40.08-4.16-16.88-17.41-28.34-30.58-38.58-15.36-12-31.71-25.48-34.29-46.15-2.23-17.81,10.13-33.57,8.59-51.4-1.51-17.49-15.17-29.64-20.38-45.7-3.73-11.5.48-23.12,8.66-30.9a4.26,4.26,0,0,0,2.09-.77c7-4.9,17.37-8,24.49-1.5s2.74,15.17,3,23.22c.23,7.09,3.79,12.19,8.69,17,7.53,7.42,9.19,14.76,6.75,25.14-3.93,16.73-14.42,30.57-12.22,48.56,1.93,15.71,10.42,29.65,20.38,41.58,12.15,14.55,27.1,27.35,35.36,44.74,8.1,17.05,10.57,37,10.92,55.67C572.46,377.61,570.23,395.37,561.74,410.2Z"/><path class="cls-5" d="M427.39,252.26c8.22-9.14,8.6-23.3,1.47-32.48-1.28-2.8-4-4.8-7.35-6.12l-.92-.47a4,4,0,0,0-1.64-.39c-6.12-1.71-13.46-1.59-18-.28-16.55,4.78-18.6,24.17-11.14,37.55C397.88,264.54,417,263.88,427.39,252.26Zm-27.18-29.92a22.28,22.28,0,0,1,15.1-2.71,4.91,4.91,0,0,0,.51.51c6.92,5.78,10.67,14.38,5.67,22.81-4.26,7.19-15.58,11.61-21.92,4.56C394,241.28,392.21,227.45,400.21,222.34Z"/><path class="cls-5" d="M447.13,195.55a7.21,7.21,0,0,0,4.91-3.94,7,7,0,0,0,.55-1.61c.07-.38.26-2.65.13-1.22a7.36,7.36,0,0,0-.44-3.41,8,8,0,0,0-5.24-4.89c-2.84-.84-6.92,2.18-8.24,4.55a3.61,3.61,0,0,0-.44,1.95,4.94,4.94,0,0,0-.32,1.23C437.4,193.36,442.44,196.59,447.13,195.55Z"/><path class="cls-5" d="M443.31,277.44a5.93,5.93,0,0,0,5.7-1.85c.79-.92,1.49-1.95,2.22-2.93a6.25,6.25,0,0,0,1.4-3.37,5.91,5.91,0,0,0-.82-3.49,7.6,7.6,0,0,0-5.35-3.62c-2.93-.44-6.4.69-7.7,3.59a6,6,0,0,0-.49,1.83,7.2,7.2,0,0,0,.36,6.48A7.31,7.31,0,0,0,443.31,277.44Z"/><path class="cls-5" d="M510.17,343.26a8,8,0,0,0-1.66-8.78,7.31,7.31,0,0,0-6.86-2.26,7.62,7.62,0,0,0-2.83.4,8.34,8.34,0,0,0-5.4,5.89,8.94,8.94,0,0,0,2.91,7.77A8.76,8.76,0,0,0,510.17,343.26Z"/><path class="cls-5" d="M438.86,427.37a4.61,4.61,0,0,0-1.77-.48,13.39,13.39,0,0,0-10.69,1.76C418,434,415,446.46,421.5,454.44s18.58,6,24.14-1.9C451.69,444,448,431.88,438.86,427.37Zm-.8,17.43c-.76,2.92-4.69,5.74-7.64,4-3.18-1.85-2.41-7.08-.76-9.64a10.82,10.82,0,0,1,5.74-3.6C437.27,438.25,438.85,441.8,438.06,444.8Z"/><path class="cls-5" d="M320.59,405.37a18.27,18.27,0,0,0-13.16,11c-3.94,2.61-4,9.35-3.11,13.79a22.86,22.86,0,0,0,12.22,16c12.41,5.95,28.25-2.49,31.3-15.66C351.23,415.87,334.64,402.11,320.59,405.37Zm15.32,26.49c-4.16,5.75-12.24,7.7-17.7,2.63a16.16,16.16,0,0,1-4.65-9,19.79,19.79,0,0,1,.07-4.15,11.26,11.26,0,0,1,10.17-7.75C333.12,412.89,341.87,423.61,335.91,431.86Z"/><path class="cls-5" d="M377.82,436.42c-2.65-.32-5.53.37-7.12,2.68a7.94,7.94,0,0,0-1,6.47,7.64,7.64,0,0,0,2.44,3.92c0,.05.06.12.1.18a5.81,5.81,0,0,0,3.3,2.28c2.38.75,5-.54,6.68-2.14a7.82,7.82,0,0,0-4.37-13.39Z"/><path class="cls-5" d="M339,322.64a5,5,0,0,0-1.89,1.58,7.23,7.23,0,0,0-4.09,2.08,4.29,4.29,0,0,0-.45,5.22A23.53,23.53,0,0,0,336,335a5.23,5.23,0,0,0,7.22-.72,6.58,6.58,0,0,0,1.36-2.65,6.12,6.12,0,0,0,.61-7.25A4.85,4.85,0,0,0,339,322.64Z"/><path class="cls-5" d="M322.59,297c10.15,4.32,19.18-7.12,18.65-16.41a16.05,16.05,0,0,0-7.22-12.4,15.12,15.12,0,0,0-6-2.2,13.22,13.22,0,0,0-16.48,5.68C306,281.22,313.27,293.06,322.59,297ZM319,276.93a5.87,5.87,0,0,1,3.41-3.66c3.14,1.34,6.84,2,8.41,5.54,1.32,2.95-.61,10.26-5,9-1.82-.52-4.44-3.41-5.55-4.85A6.23,6.23,0,0,1,319,276.93Z"/><path class="cls-5" d="M316.06,346.52c-3-19.81-18.54-39.46-37.81-47.4a37,37,0,0,0-15.49-5.36c-13.36-1.39-26.49,4-37.3,11.5-12.68,8.78-24.05,20.61-28.13,35.8-3.68,13.7-1.67,28.57,4.42,41.26,13,27.17,42.81,40.31,71.78,32C302.72,406,320.56,376.29,316.06,346.52Zm-37,52.21c-20.62,11.13-47.55,6.31-62-12.34a51.2,51.2,0,0,1-10.7-31.77c.2-14.08,7-24.86,17.12-34.23,6.59-6.13,14.47-11.51,23.09-14.55a3.41,3.41,0,0,0,.64.1c22.72,1.78,46,10.11,54.2,33.63C308.94,361.55,299.63,387.6,279,398.73Z"/><path class="cls-5" d="M473.37,320.35c-4.07-8.74-11.8-17.08-21-20.53a45,45,0,0,0-7.72-3.81c-12.54-4.77-26.72-3.91-39.23.53-26.61,9.46-45,34.32-44.12,62.81.87,28.16,20.85,56.86,50.11,60.69,32,4.18,57.32-21.58,64.72-50.72C480.11,353.53,480.38,335.35,473.37,320.35Zm-8.22,37.57c-3.39,22.91-18.2,46.44-43,49.47-23.63,2.88-43.08-16.87-47.93-38.6A52.44,52.44,0,0,1,396,313.71c10.58-7.2,25.76-11.6,39.19-9.92a2.59,2.59,0,0,0,1.55,1.45c10.31,3.7,19.12,8.83,24.38,18.88S466.8,346.77,465.15,357.92Z"/><path class="cls-5" d="M158,375c-4.82-4.78-13.76-5.2-20.38-1.5-10.06,5.61-18,19.37-10,29.89,7.79,10.2,21.48,4.64,29.33-2.32,4.44-3.93,8.15-9.16,8-15.35C164.9,381,162.59,376.1,158,375Zm-7.26,17.65c-3,3.13-9.21,8.06-13.71,5.77-8.56-4.35,5.22-22,15.49-18.47C153.55,385,155.25,387.93,150.77,392.69Z"/><path class="cls-5" d="M89.5,395.74a10.28,10.28,0,0,0-14,5,5.24,5.24,0,0,0,1.12,6c.1.09.22.16.33.25a8.42,8.42,0,0,0,1.4,3.92c3.49,5.18,10.67,3.37,14.12-.82,2-2.42,3.21-5.09,2.15-8.24A11,11,0,0,0,89.5,395.74Z"/><path class="cls-5" d="M193.2,416.72l-.66-.29a5.26,5.26,0,0,0-6.13,1.15,5.35,5.35,0,0,0-.53,6.21c.11.21.23.42.35.63,1.72,3.1,6.3,3.21,8.54.73S196.45,418.13,193.2,416.72Z"/></svg>