<svg id="Layer_1" data-name="Layer 1" xmlns="http://www.w3.org/2000/svg" viewBox="0 0 600 600"><defs><style>.cls-1{fill:#231f20;}.cls-2{fill:#f15a29;}.cls-3{fill:#f7941e;}.cls-4{fill:#fff;}</style></defs><title>doodle</title><path class="cls-1" d="M75.59,408.81c-7.17-6.52-14.09-13.65-16.83-23.21a.4.4,0,0,0-.78.21c1.81,9.27,7.84,16.47,14.48,22.87C80,416,89,424.67,98.6,429.17c.68.31,1.47-.52.85-1.11-3.68-3.48-8.12-6.22-12.1-9.35S79.39,412.26,75.59,408.81Z"/><path class="cls-1" d="M75.8,426.82c-3.63-2.78-7.72-4.86-11.31-7.74a71.88,71.88,0,0,1-9.07-8.72c-.27-.31-.84.11-.58.45,5,6.79,12.22,14.45,20.5,17.1C76,428.13,76.3,427.2,75.8,426.82Z"/><path class="cls-1" d="M71,337.12c-.46-.41-1.14.25-.68.68,9,8.46,14.85,18.5,21,29,.38.66,1.53.23,1.26-.53C88.39,354.91,79.83,345.09,71,337.12Z"/><path class="cls-1" d="M73.8,482.79c8,7,16.75,13,26.66,17,.7.27,1.18-.88.51-1.21-9.34-4.69-18.31-9.86-26.4-16.53C74,481.58,73.26,482.32,73.8,482.79Z"/><path class="cls-2" d="M18.75,274c-.66,15.12-1.22,30.25-1,45.38.8,49.21,12.52,104.49,55.54,134.42,2,1.37,1.6,5.53-1.39,5.14q-13.52-1.79-26.86-4.45c7.7,26.4,27.24,48.8,52.73,59.49,2.08.88,2.9,3.73.66,5A35.66,35.66,0,0,1,84,523.86a126,126,0,0,0,99.21,54.19,128.84,128.84,0,0,0,76.16-22.69c-3.8-7.14-4.48-16.3-5.48-24.17q-3-23.82-6-47.63a1.73,1.73,0,0,1-1.58-1.5c-6.53-31.33-23.28-60-48.29-80q.94,17.09,1.9,34.19c.14,2.57-3.95,3.84-5,1.36-18.9-42.86-38.64-87-72-120.68l2.1,43.05c.14,2.77-3.88,3.77-5.18,1.4A193.22,193.22,0,0,0,18.75,274ZM54.84,410.81c-.26-.34.31-.76.58-.45a71.88,71.88,0,0,0,9.07,8.72c3.59,2.88,7.68,5,11.31,7.74.5.38.24,1.31-.46,1.09C67.06,425.26,59.84,417.6,54.84,410.81ZM162.09,527.62c-.47-.32-.05-1.07.45-.77a105.27,105.27,0,0,0,29,12.62c10.54,2.62,20.17,2.06,30.84,1,.91-.08.94,1.22.2,1.49-9.61,3.53-21.19,2.2-30.88-.36A95.71,95.71,0,0,1,162.09,527.62Zm62.38,31.3c-10.65.65-22-1.72-32.34-4-.65-.14-.37-1.1.27-1,10.67,2.06,21.35,2.32,32.07,3.67A.68.68,0,0,1,224.47,558.92Zm-5.8-79.37a68.33,68.33,0,0,1,9.07,21.63.48.48,0,0,1-.93.26,121.16,121.16,0,0,0-9.16-21.3A.59.59,0,0,1,218.67,479.55ZM188,462.05a128.06,128.06,0,0,1,23,38.72c.28.74-.84,1.13-1.22.52-4-6.32-7-13.25-10.61-19.76a191.45,191.45,0,0,0-12.08-18.77C186.67,462.21,187.54,461.56,188,462.05Zm-45-84.09a106.21,106.21,0,0,1,15.8,26.66c3.93,9.75,7.25,20.91,6.74,31.52,0,.68-1.07.88-1.23.16-2.28-10-3.71-19.94-7.29-29.64a118.55,118.55,0,0,0-14.87-28C141.73,378.12,142.56,377.48,142.94,378ZM128,411.59c1.34,3.06,3.06,6.18,4,9.4a.46.46,0,0,1-.84.36c-1.71-2.82-2.8-6.16-4.1-9.19C126.76,411.51,127.72,410.93,128,411.59Zm-20.49,70.09a78.68,78.68,0,0,0,23.67,12.56,82,82,0,0,0,12.18,3c3.86.63,7.83.58,11.65,1.41a.76.76,0,0,1,0,1.46c-8.21,1.5-18.17-1.42-25.79-4.31a76.83,76.83,0,0,1-22.43-13.39C106.3,482,107,481.29,107.53,481.68Zm-7.07,18.08c-9.91-3.93-18.7-9.94-26.66-17-.54-.47.23-1.21.77-.77,8.09,6.67,17.06,11.84,26.4,16.53C101.64,498.88,101.16,500,100.46,499.76ZM98.6,429.33C89,424.84,80,416.16,72.46,408.84,65.82,402.45,59.79,395.24,58,386a.41.41,0,0,1,.78-.22c2.74,9.57,9.66,16.7,16.83,23.22q5.7,5.16,11.76,9.89c4,3.14,8.42,5.88,12.1,9.36C100.07,428.81,99.28,429.65,98.6,429.33Zm-7.37-62.5c-6.11-10.53-12-20.57-21-29-.46-.43.22-1.09.68-.68,8.88,8,17.44,17.79,21.54,29.18C92.76,367.06,91.61,367.49,91.23,366.83Z"/><path class="cls-3" d="M257.87,515.52c.9,7.25,1.76,14.51,2.68,21.76.75,5.84,1.59,12.22,5,17.21,3.9,5.75,11,7.08,17.4,7.78,7,.76,14,1.33,20.95,2,14.52,1.34,29,2.77,43.56,4,5.42.47,11.07.56,15-3.29a47.75,47.75,0,0,0-14.54-4.85c-2.38-.45-1.57-3.79.54-4a28.75,28.75,0,0,1,16.94,4.51,18.34,18.34,0,0,0,1.56-6.36,15.14,15.14,0,0,0-6.43-5.94c-4-2-8.48-3.25-12.59-5.07-2.1-.92-.49-3.8,1.45-3.45,4.26.79,10.66,2.25,15.75,5-4-7.93-13.58-12.25-22.2-13.44-12.93-1.8-26.13,2-37.06,8.86-3.16,2-6-2.94-2.9-5,12.83-8.44,29.16-12.29,44.31-9,11.88,2.54,23.62,10.62,25.24,23.45a23.72,23.72,0,0,1,.18,3.27,10.13,10.13,0,0,1,.43,2.74,60.33,60.33,0,0,0,50.39-11.59,3,3,0,0,1,4.16,0c13.71,13.81,35.55,3.3,51.21-.65,15.41-3.88,31.61-6.45,47.51-4.83a76.63,76.63,0,0,1,20.16,4.64c6.59,2.58,12,6.46,18,10.13a18.72,18.72,0,0,0,5.44,2.4,31.24,31.24,0,0,0-5.07-5.57c-3.19-2.66-6.93-4.34-10.58-6.24-2.19-1.14-.5-3.92,1.53-3.63,7.9,1.1,15.85,7.35,20,14.48l.06,0c3.57-2.71.61-8.09-1.19-11.15-4-4.74-9-8-15.79-7.63-2.17.12-2.68-3.48-.52-3.81a21.77,21.77,0,0,1,6.83.07c-1.88-1.78-3.83-3.48-5.76-5.12a133.51,133.51,0,0,0-19.89-14c-6.44-3.71-13.64-6.16-19.9-10.11-12.24-7.71-15-25.79-17-38.93-5.24-34-6.4-69.14-6.58-103.52-.17-33.14,1.17-67.37-10.26-99a2.67,2.67,0,0,1,3.26-3.26,75,75,0,0,1,30.83,20.39c-.13-20.51-1.61-41.86-13.95-59-1.72-2.4,1.5-4.46,3.58-3.57a49.59,49.59,0,0,1,18,13.07A168.87,168.87,0,0,0,510,179.61c-1.19-2.2.76-4.23,3-3.91l16.55,2.41c-7.88-18-28.66-28.92-46.61-34a2.24,2.24,0,0,1-1.71-2.56,2.59,2.59,0,0,1-1.13-2.81c2.23-11.58,3.63-22.65,2.38-34.46A127.93,127.93,0,0,0,474,71C469.62,59.94,463.24,50,458.37,39.16c-2.47-5.47-4.7-11.55-5-17.6-1.84,3.73-3.95,7.32-5.94,11a144.09,144.09,0,0,0-9.1,20.2,113.23,113.23,0,0,0-6.51,43.12c.14,3.56-5.11,3.42-5.45,0-1.42-14.45,1.4-29.47,6.18-43.08a146.4,146.4,0,0,1,8.83-20.13c3-5.66,6.56-11,9-16.93-4.79.88-9.69,7.35-12.6,10.31q-5.93,6-11.52,12.36c-6.8,7.71-12.85,15.93-19.17,24,1.41,0,2.81.05,4.21.1a2.7,2.7,0,0,1,0,5.39c-14.69.62-29.31.82-44,2.22-14.93,1.42-29.76,3.61-44.49,6.45-26.75,5.15-53.31,11.59-76.06,27.18-1.58,1.09-3.36-1.34-2-2.62a72.81,72.81,0,0,1,8.66-7c-9.49-10.63-17-23-26.86-33.3a62.22,62.22,0,0,0-17.51-12.76,94.33,94.33,0,0,0-8.89-3.86c16.08,16.67,22.47,39.64,27.92,62.14.79,3.24-4.21,4.62-5,1.38-5.17-21.41-11-45.72-27.4-61.45,2.91,11,1.89,22.72,1.6,34.15-.2,7.79-.06,15.74,2.43,23.2,2.75,8.22,8.31,13.61,15.3,18.37,1.71,1.16.65,4.43-1.49,3.55a27.84,27.84,0,0,1-3.42-1.68,83.16,83.16,0,0,0-8.87,47.28l4.26-2.7c2.41-1.55,4.51,1.39,3.55,3.56-9.55,21.63-19.16,44.23-19.19,68.08a38.79,38.79,0,0,1,15.27-13c1.69-.81,4.55.59,3.62,2.78a127.32,127.32,0,0,0-2.18,93.28,41.09,41.09,0,0,1,12.64-16.42c1.54-1.2,4.83-.7,4.51,1.87-.6,4.78-1.51,17.3,6.88,15.44a2.81,2.81,0,0,1,3.5,2.66c4.26,33.35,8.33,66.72,12.51,100.07C250.34,456.35,254.23,485.92,257.87,515.52ZM497.2,238.11c-2.23-4.14-4.48-8-8.25-10.92-.46-.35.14-1.1.62-.8,4,2.6,7.68,6.45,8.74,11.25C498.45,238.29,497.54,238.73,497.2,238.11ZM489.69,159c6.32-1.25,15.86,2,20.41,6.44.44.42,0,1.33-.63,1.08-3.26-1.31-6.2-3.18-9.55-4.33s-6.9-1.36-10.23-2.42C489.34,159.69,489.28,159.11,489.69,159Zm12.72,14.09a21.61,21.61,0,0,1-4-2.29,37.71,37.71,0,0,0-4.49-2.26c-.59-.25-.16-1.22.43-1,2.89.94,6.8,2.21,8.66,4.76A.56.56,0,0,1,502.41,173.12Zm-21.24,33.49c13.18,7.3,26.78,21.52,28.06,37.32a.76.76,0,0,1-1.4.38c-3.1-6.81-5.41-13.64-9.74-19.84a63.38,63.38,0,0,0-17.47-16.92A.54.54,0,0,1,481.17,206.61Zm-22.39-45.17a4.24,4.24,0,0,1,2,.09,3.8,3.8,0,0,1,2.39.79c2.39.78,2.78,4.2,1.44,6.21a4.29,4.29,0,0,1-2.64,1.81,4.46,4.46,0,0,1-1.43.76c-2.94.92-5.41-1.38-5.55-4.26C454.84,164.45,456.31,161.9,458.78,161.44ZM435.31,129.6a10.11,10.11,0,0,1,2.73-4,2.62,2.62,0,0,1,.77-1c.18-.13.36-.22.54-.34a8.38,8.38,0,0,1,8.7-2,9.81,9.81,0,0,1,4,1.28,7.25,7.25,0,0,1,3.43,7.42,9.43,9.43,0,0,1-10.66,11.76,12.91,12.91,0,0,1-4.38-1.44c-2.12-.4-3.93-1.84-4.84-4.78-.05-.15-.07-.3-.11-.45A8.69,8.69,0,0,1,435.31,129.6Zm-79.86,67.09c9.91.38,19.17-5.79,27.05-11.19a121.55,121.55,0,0,0,20.4-17.7c3-3.24,5.7-6.66,8.37-10.16,1.48-1.93,3.08-3.8,5.7-3.88,6-.19,6.52,7.88,7.12,12.13a106.1,106.1,0,0,1-2.32,40.77,108.19,108.19,0,0,1-18.09,38,102.29,102.29,0,0,1-13.8,15.16c-4.87,4.35-10.05,8.69-16.71,9.54-3,.38-3.29-4.2-.68-5,7.15-2.19,13-7.86,18.16-13.1A98.12,98.12,0,0,0,404,234.21a105.51,105.51,0,0,0,13.74-34.82,98.92,98.92,0,0,0,1.94-19c0-.45,0-.91,0-1.36a14.54,14.54,0,0,1-11.58-9c-.94,1-1.89,2.1-2.87,3.12a120.23,120.23,0,0,1-14.74,13c-9.92,7.42-22.55,16.24-35.53,14.08C352.9,199.94,353.43,196.61,355.45,196.69Zm-10.89,102c9,6.78,15.55,16.18,20.23,26.32.33.71.63,1.42.94,2.13,8.79-4.25,22.24-8.5,30.92-3.3,6-13.53,14.62-26.45,26.42-34.68,15.16-10.58,34.51-12.35,52.17-8.5,2.52.55,1.4,4.18-1.05,3.8-20.41-3.22-42.71,1.21-56.93,17.07-12.74,14.21-20.69,33.09-23.93,51.75-1.62,9.29-2.73,20-.87,29.37,1,5.22,6.14,12.12,11.46,6.56,3.1-3.24,5.5-7.66,7.73-11.53,4.5-7.82,6.94-16.81,11.87-24.35a28.76,28.76,0,0,1,19-12.48c14.39-2.76,31.3,3.55,37.4,17.57,1.38,3.19-3.19,6-4.77,2.79-4.64-9.5-14.24-15.16-24.75-15.47a33.5,33.5,0,0,0-4,.14c3.75,6.21,5.73,13.17,7.23,20.24,1.73,8.14,3.17,16.36,4.3,24.61,2.2,16.09,2.88,32.37.53,48.48-3.58,24.55-15,49-35.91,63.41a67.66,67.66,0,0,1-33.78,12c-13.41.85-25.95-3.6-37.42-10.24-10.92-6.33-21.23-14.22-29.16-24.11-8.48-10.56-13.31-23-16.08-36.14-5.47-25.94-4.24-55,6.08-79.75-.37-.2-.73-.41-1.11-.59-10.29-5-22.38-1.53-29.85,6.65-2.44,2.67-6.06-1.19-3.9-3.89,6.05-7.56,16.16-11.51,25.76-10.73,10.3.83,18.48,7.05,24.63,15,6.49,8.4,10.51,18.36,16.76,26.92,3.35,4.6,8.07,10,14.16,10.43,5.69.41,10.15-4.21,12.16-9.08,4.45-10.77,1.91-25.23-.23-36.27a156.73,156.73,0,0,0-10.67-34.93c-4.52-9.9-10.84-19.22-19.8-25.6-9.39-6.68-20.5-8.59-31.83-7.58-20.71,1.85-39.9,13.8-51.6,30.83-1.51,2.19-5.06.19-3.61-2.12a73.88,73.88,0,0,1,59.24-34.24C324,288.74,335.18,291.63,344.56,298.7Zm-76.62-28.43c.56-.22.93.7.4,1-11.18,5.64-12.71,21.34-13.06,32.21a.68.68,0,0,1-1.33.18C251,292.52,256.39,274.63,267.94,270.27ZM231,196.76a4.49,4.49,0,0,1,4.42-.07,4,4,0,0,1,2,4.34,4.31,4.31,0,0,1-3.12,3.17,3.67,3.67,0,0,1-3.69-1.16,4.15,4.15,0,0,1-.6-.51,2.39,2.39,0,0,1-.53-2.55A3.21,3.21,0,0,1,231,196.76Zm-16.2,40c4.22-5.74,12.53-13.63,20.24-13.2a.53.53,0,0,1,.13,1c-7.83,1.88-13.38,8-19.52,12.82C215.22,237.7,214.42,237.24,214.81,236.71Zm26.49,20.67c-7.32,1.58-11.37,9.7-15,15.55a.7.7,0,0,1-1.21-.7c2.6-6,8.27-16.3,16.11-15.47C241.55,256.79,241.68,257.3,241.3,257.38ZM243,240.74a55.32,55.32,0,0,0-22.13,21.77c-5.85,10.38-7.22,21.39-9.42,32.85-.13.68-1.1.46-1.14-.16-1.38-22,11.64-46.53,32.24-55.22C243.07,239.76,243.52,240.47,243,240.74Zm-1-64.34c-11.87-1.5-8.4-23.15,3.43-21a1.51,1.51,0,0,1,.73.35,10.44,10.44,0,0,1,8.6,6.68c1.92,5-.36,11.5-5.9,12.94a8.6,8.6,0,0,1-1.88.26A8.8,8.8,0,0,1,242,176.4Z"/><path class="cls-4" d="M246.36,163.35c-2-3.28-5.81-.86-5.07,2.42a5.76,5.76,0,0,0,1.9,2.92,6.08,6.08,0,0,0,1.41-.59,4.55,4.55,0,0,0,1.5-1.36,4,4,0,0,1,1-1.23A6,6,0,0,0,246.36,163.35Z"/><path class="cls-2" d="M376.82,399.58c-3.07,9-11.64,16.46-21.62,13.84-10.64-2.79-17.1-14.21-22.12-23.05-4.65-8.19-9.33-17.42-16.88-23.35-4.08,13.39-7.18,26.78-7.76,40.89a135.49,135.49,0,0,0,5,43.1c7,24.15,25.48,41.58,47.8,52.19,22.62,10.75,48.35,5,66.27-12,17.39-16.55,25.19-40.92,26.43-64.4.73-13.77-.52-27.6-2.68-41.19-2.05-12.87-3.76-27.07-10.71-38.35,0-.06-.05-.11-.09-.17a23.91,23.91,0,0,0-5.93,2.76c-5.06,3.27-7.83,8.5-10.17,13.88-4.28,9.82-17.39,44.84-32.83,29.33-6.25-6.27-5.51-17.52-5.19-25.63a116.16,116.16,0,0,1,5-29.41c1-3.12,2.06-6.29,3.3-9.45-5-.93-9.2-1.86-14.48-.83-4.35.85-8.39,2.6-12.54,4a168.32,168.32,0,0,1,8.47,29.5C378.45,373.23,380.85,387.75,376.82,399.58Z"/><path class="cls-4" d="M446.55,134.33a6.24,6.24,0,0,0,1.9-4.41,6.89,6.89,0,0,0-5.13-1.17,8.54,8.54,0,0,0-1.16.75,3.22,3.22,0,0,0,.35,3.19A4,4,0,0,0,446.55,134.33Z"/><path class="cls-1" d="M16.92,267.54a2.75,2.75,0,0,0-3.45,2.63C11.2,324.46,9.34,383.7,42.23,430.22A118,118,0,0,0,62,451.93q-10.05-1.6-20-3.72a2.81,2.81,0,0,0-3.41,3.41,99,99,0,0,0,52,65A30.31,30.31,0,0,1,79,518.52a2.79,2.79,0,0,0-2.39,4.17c30.18,47.23,88,70.6,142.47,57a130.23,130.23,0,0,0,43.49-19.83,20.08,20.08,0,0,0,5.93,4.55c5.87,3,12.67,3.36,19.12,3.95l24.82,2.3,25.68,2.4c7,.66,15,2.42,21.83.07,5.65-1.95,9.44-6.52,11.35-11.89a66,66,0,0,0,54.14-11.2c11.38,9.55,27.14,7.1,40.57,3.23,15.2-4.38,30.48-8.45,46.37-9.08s31.53,2.35,44.85,11.42c5.46,3.71,11.36,7.76,18.3,5.84,6.07-1.67,8.93-7.15,7.5-13.17-3.35-14.11-18.45-25.27-29.59-33.19a137.63,137.63,0,0,0-21-12.26c-3.28-1.55-6.74-2.86-9.8-4.83-4-2.55-6.23-6.17-8-10.47-6.74-16.73-7.87-35.41-9.39-53.18q-2.42-28.18-3.12-56.47c-.94-37.57,1.87-76.16-9.51-112.42a69.22,69.22,0,0,1,27.61,22c1.49,2,5,1.51,5-1.35,0-20.4-.37-42.16-9.71-60.58a45.3,45.3,0,0,1,14,16.07c1.17,2.23,5.28,1.33,5-1.34A177,177,0,0,0,517,181.66L533,184.08c1.93.28,4-1.17,3.36-3.36-6.71-21.67-29.89-36.05-51-41.06,7.17-20.27,3.21-44.67-3.76-64.38-3.69-10.43-8.69-20.13-14-29.81a92.74,92.74,0,0,1-7.46-16.16c-1.84-5.78-2-11.43-1.61-17.42.1-1.7-2.62-2.54-3.34-.9,0,.09-.06.17-.1.26a3.75,3.75,0,0,0-.41-.19c-5.23-1.93-9.76,1.24-13.49,4.7-5.1,4.73-9.89,9.87-14.57,15-9,9.84-18.05,20.29-25.13,31.6-12,.11-24,1.1-35.8,2.28-15.13,1.5-30.22,3.69-45.12,6.68-20.62,4.15-44.27,8.76-63,20.1a.75.75,0,0,0-.07-.12c-4.6-6.71-10-12.95-15.08-19.33-4.42-5.6-8.76-11.32-13.87-16.33a65.1,65.1,0,0,0-17-11.84c-5.5-2.7-13.06-6.69-19.47-6.81l-.58-.45c-2.11-1.56-4.33,1.38-3.33,3.34,7.78,15.22,3.72,33,4.53,49.39C193.28,100.94,197,113.42,206,121a83.44,83.44,0,0,0-9.38,55.35,2.68,2.68,0,0,0,3.91,1.59l.47-.31c-9.79,22.71-18.61,46.66-15.76,71.71a2.57,2.57,0,0,0,5,.68,34,34,0,0,1,11.15-14.8,131.13,131.13,0,0,0,3.19,96.91c.92,2.1,4.32,1.44,4.8-.63A36.82,36.82,0,0,1,217.92,315a16.11,16.11,0,0,0,2.72,9.8A11.09,11.09,0,0,0,229,329.6q7.86,64.66,15.92,129.33A137.2,137.2,0,0,0,196.43,394c-1.64-1.2-4.17.41-4.06,2.33q.69,12.65,1.39,25.29c-18.37-41.19-38.69-82.43-72-113.63-1.67-1.56-4.87-.54-4.75,2q.94,19.44,1.9,38.88A198.5,198.5,0,0,0,16.92,267.54Zm217.2,59.15a2.81,2.81,0,0,0-3.5-2.66c-8.39,1.86-7.48-10.66-6.88-15.44.32-2.57-3-3.07-4.51-1.87a41.09,41.09,0,0,0-12.64,16.42,127.32,127.32,0,0,1,2.18-93.28c.93-2.19-1.93-3.59-3.62-2.78a38.79,38.79,0,0,0-15.27,13c0-23.85,9.64-46.45,19.19-68.08,1-2.17-1.14-5.11-3.55-3.56l-4.26,2.7a83.16,83.16,0,0,1,8.87-47.28,27.84,27.84,0,0,0,3.42,1.68c2.14.88,3.2-2.39,1.49-3.55-7-4.76-12.55-10.15-15.3-18.37-2.49-7.46-2.63-15.41-2.43-23.2.29-11.43,1.31-23.15-1.6-34.15,16.38,15.73,22.23,40,27.4,61.45.78,3.24,5.78,1.86,5-1.38-5.45-22.5-11.84-45.47-27.92-62.14a94.33,94.33,0,0,1,8.89,3.86,62.22,62.22,0,0,1,17.51,12.76c9.85,10.34,17.37,22.67,26.86,33.3a72.81,72.81,0,0,0-8.66,7c-1.34,1.28.44,3.71,2,2.62,22.75-15.59,49.31-22,76.06-27.18,14.73-2.84,29.56-5,44.49-6.45,14.66-1.4,29.28-1.6,44-2.22a2.7,2.7,0,0,0,0-5.39c-1.4,0-2.8-.07-4.21-.1,6.32-8.06,12.37-16.28,19.17-24q5.6-6.33,11.52-12.36c2.91-3,7.81-9.43,12.6-10.31-2.47,5.9-6,11.27-9,16.93a146.4,146.4,0,0,0-8.83,20.13c-4.78,13.61-7.6,28.63-6.18,43.08.34,3.42,5.59,3.56,5.45,0a113.23,113.23,0,0,1,6.51-43.12,144.09,144.09,0,0,1,9.1-20.2c2-3.68,4.1-7.27,5.94-11,.31,6.05,2.54,12.13,5,17.6C463.24,50,469.62,59.94,474,71a127.93,127.93,0,0,1,8.51,33.26c1.25,11.81-.15,22.88-2.38,34.46a2.59,2.59,0,0,0,1.13,2.81A2.24,2.24,0,0,0,483,144.1c17.95,5.09,38.73,16,46.61,34L513,175.7c-2.24-.32-4.19,1.71-3,3.91a168.87,168.87,0,0,1,17.52,49.73,49.59,49.59,0,0,0-18-13.07c-2.08-.89-5.3,1.17-3.58,3.57,12.34,17.09,13.82,38.44,13.95,59a75,75,0,0,0-30.83-20.39,2.67,2.67,0,0,0-3.26,3.26c11.43,31.67,10.09,65.9,10.26,99,.18,34.38,1.34,69.49,6.58,103.52,2,13.14,4.77,31.22,17,38.93,6.26,4,13.46,6.4,19.9,10.11a133.51,133.51,0,0,1,19.89,14c1.93,1.64,3.88,3.34,5.76,5.12a21.77,21.77,0,0,0-6.83-.07c-2.16.33-1.65,3.93.52,3.81,6.81-.38,11.81,2.89,15.79,7.63,1.8,3.06,4.76,8.44,1.19,11.15l-.06,0c-4.1-7.13-12.05-13.38-20-14.48-2-.29-3.72,2.49-1.53,3.63,3.65,1.9,7.39,3.58,10.58,6.24a31.24,31.24,0,0,1,5.07,5.57,18.72,18.72,0,0,1-5.44-2.4c-6-3.67-11.38-7.55-18-10.13a76.63,76.63,0,0,0-20.16-4.64c-15.9-1.62-32.1.95-47.51,4.83-15.66,4-37.5,14.46-51.21.65a3,3,0,0,0-4.16,0,60.33,60.33,0,0,1-50.39,11.59,10.13,10.13,0,0,0-.43-2.74,23.72,23.72,0,0,0-.18-3.27c-1.62-12.83-13.36-20.91-25.24-23.45-15.15-3.25-31.48.6-44.31,9-3.07,2-.26,6.94,2.9,5,10.93-6.85,24.13-10.66,37.06-8.86,8.62,1.19,18.24,5.51,22.2,13.44-5.09-2.79-11.49-4.25-15.75-5-1.94-.35-3.55,2.53-1.45,3.45,4.11,1.82,8.57,3.07,12.59,5.07a15.14,15.14,0,0,1,6.43,5.94,18.34,18.34,0,0,1-1.56,6.36,28.75,28.75,0,0,0-16.94-4.51c-2.11.16-2.92,3.5-.54,4A47.75,47.75,0,0,1,362.47,565c-4,3.85-9.62,3.76-15,3.29-14.53-1.25-29-2.68-43.56-4-7-.64-14-1.21-20.95-2-6.45-.7-13.5-2-17.4-7.78-3.38-5-4.22-11.37-5-17.21-.92-7.25-1.78-14.51-2.68-21.76-3.64-29.6-7.53-59.17-11.24-88.76C242.45,393.41,238.38,360,234.12,326.69Zm-114.3,34.65c1.3,2.37,5.32,1.37,5.18-1.4l-2.1-43.05c33.39,33.65,53.13,77.82,72,120.68,1.1,2.48,5.19,1.21,5-1.36q-.94-17.1-1.9-34.19c25,20,41.76,48.71,48.29,80a1.73,1.73,0,0,0,1.58,1.5q3,23.82,6,47.63c1,7.87,1.68,17,5.48,24.17a128.84,128.84,0,0,1-76.16,22.69A126,126,0,0,1,84,523.86,35.66,35.66,0,0,0,98.46,519c2.24-1.32,1.42-4.17-.66-5-25.49-10.69-45-33.09-52.73-59.49q13.36,2.67,26.86,4.45c3,.39,3.36-3.77,1.39-5.14-43-29.93-54.74-85.21-55.54-134.42-.25-15.13.31-30.26,1-45.38A193.22,193.22,0,0,1,119.82,361.34Z"/><path class="cls-1" d="M355,200.28c13,2.16,25.61-6.66,35.53-14.08a120.23,120.23,0,0,0,14.74-13c1-1,1.93-2.07,2.87-3.12a14.54,14.54,0,0,0,11.58,9c0,.45,0,.91,0,1.36a98.92,98.92,0,0,1-1.94,19A105.51,105.51,0,0,1,404,234.21a98.12,98.12,0,0,1-13.36,17.08c-5.15,5.24-11,10.91-18.16,13.1-2.61.81-2.29,5.39.68,5,6.66-.85,11.84-5.19,16.71-9.54a102.29,102.29,0,0,0,13.8-15.16,108.19,108.19,0,0,0,18.09-38,106.1,106.1,0,0,0,2.32-40.77c-.6-4.25-1.14-12.32-7.12-12.13-2.62.08-4.22,2-5.7,3.88-2.67,3.5-5.39,6.92-8.37,10.16a121.55,121.55,0,0,1-20.4,17.7c-7.88,5.4-17.14,11.57-27.05,11.19C353.43,196.61,352.9,199.94,355,200.28Z"/><path class="cls-1" d="M435.58,136.55c.91,2.94,2.72,4.38,4.84,4.78a12.91,12.91,0,0,0,4.38,1.44A9.43,9.43,0,0,0,455.46,131a7.25,7.25,0,0,0-3.43-7.42,9.81,9.81,0,0,0-4-1.28,8.38,8.38,0,0,0-8.7,2c-.18.12-.36.21-.54.34a2.62,2.62,0,0,0-.77,1,10.11,10.11,0,0,0-2.73,4,8.69,8.69,0,0,0,.16,6.5C435.51,136.25,435.53,136.4,435.58,136.55Zm6.58-7.05a8.54,8.54,0,0,1,1.16-.75,6.89,6.89,0,0,1,5.13,1.17,6.24,6.24,0,0,1-1.9,4.41,4,4,0,0,1-4-1.64A3.22,3.22,0,0,1,442.16,129.5Z"/><path class="cls-1" d="M460.51,171.1a4.46,4.46,0,0,0,1.43-.76,4.29,4.29,0,0,0,2.64-1.81c1.34-2,.95-5.43-1.44-6.21a3.8,3.8,0,0,0-2.39-.79,4.24,4.24,0,0,0-2-.09c-2.47.46-3.94,3-3.82,5.4C455.1,169.72,457.57,172,460.51,171.1Z"/><path class="cls-1" d="M248.9,175.42c5.54-1.44,7.82-7.93,5.9-12.94a10.44,10.44,0,0,0-8.6-6.68,1.51,1.51,0,0,0-.73-.35c-11.83-2.2-15.3,19.45-3.43,21a8.8,8.8,0,0,0,5-.72A8.6,8.6,0,0,0,248.9,175.42Zm-2.8-8.68a4.55,4.55,0,0,1-1.5,1.36,6.08,6.08,0,0,1-1.41.59,5.76,5.76,0,0,1-1.9-2.92c-.74-3.28,3.07-5.7,5.07-2.42a6,6,0,0,1,.76,2.16A4,4,0,0,0,246.1,166.74Z"/><path class="cls-1" d="M230,202.53a4.15,4.15,0,0,0,.6.51,3.67,3.67,0,0,0,3.69,1.16,4.31,4.31,0,0,0,3.12-3.17,4,4,0,0,0-2-4.34,4.49,4.49,0,0,0-4.42.07A3.21,3.21,0,0,0,229.5,200,2.39,2.39,0,0,0,230,202.53Z"/><path class="cls-1" d="M253.05,323.42c-1.45,2.31,2.1,4.31,3.61,2.12,11.7-17,30.89-29,51.6-30.83,11.33-1,22.44.9,31.83,7.58,9,6.38,15.28,15.7,19.8,25.6a156.73,156.73,0,0,1,10.67,34.93c2.14,11,4.68,25.5.23,36.27-2,4.87-6.47,9.49-12.16,9.08-6.09-.44-10.81-5.83-14.16-10.43-6.25-8.56-10.27-18.52-16.76-26.92-6.15-8-14.33-14.19-24.63-15-9.6-.78-19.71,3.17-25.76,10.73-2.16,2.7,1.46,6.56,3.9,3.89,7.47-8.18,19.56-11.7,29.85-6.65.38.18.74.39,1.11.59-10.32,24.71-11.55,53.81-6.08,79.75,2.77,13.17,7.6,25.58,16.08,36.14,7.93,9.89,18.24,17.78,29.16,24.11,11.47,6.64,24,11.09,37.42,10.24a67.66,67.66,0,0,0,33.78-12c20.87-14.39,32.33-38.86,35.91-63.41,2.35-16.11,1.67-32.39-.53-48.48-1.13-8.25-2.57-16.47-4.3-24.61-1.5-7.07-3.48-14-7.23-20.24a33.5,33.5,0,0,1,4-.14c10.51.31,20.11,6,24.75,15.47,1.58,3.24,6.15.4,4.77-2.79-6.1-14-23-20.33-37.4-17.57a28.76,28.76,0,0,0-19,12.48c-4.93,7.54-7.37,16.53-11.87,24.35-2.23,3.87-4.63,8.29-7.73,11.53-5.32,5.56-10.42-1.34-11.46-6.56-1.86-9.33-.75-20.08.87-29.37,3.24-18.66,11.19-37.54,23.93-51.75,14.22-15.86,36.52-20.29,56.93-17.07,2.45.38,3.57-3.25,1.05-3.8-17.66-3.85-37-2.08-52.17,8.5-11.8,8.23-20.46,21.15-26.42,34.68-8.68-5.2-22.13-1-30.92,3.3-.31-.71-.61-1.42-.94-2.13-4.68-10.14-11.24-19.54-20.23-26.32-9.38-7.07-20.61-10-32.27-9.52A73.88,73.88,0,0,0,253.05,323.42Zm127.15,4.32c5.28-1,9.48-.1,14.48.83-1.24,3.16-2.34,6.33-3.3,9.45a116.16,116.16,0,0,0-5,29.41c-.32,8.11-1.06,19.36,5.19,25.63,15.44,15.51,28.55-19.51,32.83-29.33,2.34-5.38,5.11-10.61,10.17-13.88a23.91,23.91,0,0,1,5.93-2.76c0,.06.05.11.09.17,6.95,11.28,8.66,25.48,10.71,38.35C453.45,399.2,454.7,413,454,426.8c-1.24,23.48-9,47.85-26.43,64.4-17.92,17-43.65,22.75-66.27,12-22.32-10.61-40.82-28-47.8-52.19a135.49,135.49,0,0,1-5-43.1c.58-14.11,3.68-27.5,7.76-40.89,7.55,5.93,12.23,15.16,16.88,23.35,5,8.84,11.48,20.26,22.12,23.05,10,2.62,18.55-4.84,21.62-13.84,4-11.83,1.63-26.35-.69-38.3a168.32,168.32,0,0,0-8.47-29.5C371.81,330.34,375.85,328.59,380.2,327.74Z"/><path class="cls-1" d="M489.69,159.8c3.33,1.06,6.88,1.28,10.23,2.42s6.29,3,9.55,4.33c.62.25,1.07-.66.63-1.08C505.55,161,496,157.78,489.69,159,489.28,159.11,489.34,159.69,489.69,159.8Z"/><path class="cls-1" d="M494.37,167.55c-.59-.2-1,.77-.43,1a37.71,37.71,0,0,1,4.49,2.26,21.61,21.61,0,0,0,4,2.29.56.56,0,0,0,.62-.81C501.17,169.76,497.26,168.49,494.37,167.55Z"/><path class="cls-1" d="M480.62,207.55a63.38,63.38,0,0,1,17.47,16.92c4.33,6.2,6.64,13,9.74,19.84a.76.76,0,0,0,1.4-.38c-1.28-15.8-14.88-30-28.06-37.32A.54.54,0,0,0,480.62,207.55Z"/><path class="cls-1" d="M489.57,226.39c-.48-.3-1.08.45-.62.8,3.77,2.95,6,6.78,8.25,10.92.34.62,1.25.18,1.11-.47C497.25,232.84,493.6,229,489.57,226.39Z"/><path class="cls-1" d="M242.56,240c-20.6,8.69-33.62,33.18-32.24,55.22,0,.62,1,.84,1.14.16,2.2-11.46,3.57-22.47,9.42-32.85A55.32,55.32,0,0,1,243,240.74C243.52,240.47,243.07,239.76,242.56,240Z"/><path class="cls-1" d="M241.22,256.76c-7.84-.83-13.51,9.51-16.11,15.47a.7.7,0,0,0,1.21.7c3.61-5.85,7.66-14,15-15.55C241.68,257.3,241.55,256.79,241.22,256.76Z"/><path class="cls-1" d="M215.66,237.36c6.14-4.79,11.69-10.94,19.52-12.82a.53.53,0,0,0-.13-1c-7.71-.43-16,7.46-20.24,13.2C214.42,237.24,215.22,237.7,215.66,237.36Z"/><path class="cls-1" d="M254,303.63a.68.68,0,0,0,1.33-.18c.35-10.87,1.88-26.57,13.06-32.21.53-.27.16-1.19-.4-1C256.39,274.63,251,292.52,254,303.63Z"/><path class="cls-1" d="M157,406.66c3.58,9.7,5,19.62,7.29,29.64.16.72,1.19.52,1.23-.16.51-10.61-2.81-21.77-6.74-31.52A106.21,106.21,0,0,0,142.94,378c-.38-.48-1.21.16-.85.66A118.55,118.55,0,0,1,157,406.66Z"/><path class="cls-1" d="M131.14,421.35A.46.46,0,0,0,132,421c-.9-3.22-2.62-6.34-4-9.4-.3-.66-1.26-.08-1,.57C128.34,415.19,129.43,418.53,131.14,421.35Z"/><path class="cls-1" d="M129.24,495.8c7.62,2.89,17.58,5.81,25.79,4.31a.76.76,0,0,0,0-1.46c-3.82-.83-7.79-.78-11.65-1.41a82,82,0,0,1-12.18-3,78.68,78.68,0,0,1-23.67-12.56c-.51-.39-1.23.3-.72.73A76.83,76.83,0,0,0,129.24,495.8Z"/><path class="cls-1" d="M199.14,481.53c3.64,6.51,6.65,13.44,10.61,19.76.38.61,1.5.22,1.22-.52a128.06,128.06,0,0,0-23-38.72c-.44-.49-1.31.16-.92.71A191.45,191.45,0,0,1,199.14,481.53Z"/><path class="cls-1" d="M226.81,501.44a.48.48,0,0,0,.93-.26,68.33,68.33,0,0,0-9.07-21.63.59.59,0,0,0-1,.59A121.16,121.16,0,0,1,226.81,501.44Z"/><path class="cls-1" d="M222.58,542c.74-.27.71-1.57-.2-1.49-10.67,1-20.3,1.57-30.84-1a105.27,105.27,0,0,1-29-12.62c-.5-.3-.92.45-.45.77a95.71,95.71,0,0,0,29.61,14C201.39,544.21,213,545.54,222.58,542Z"/><path class="cls-1" d="M224.47,557.57c-10.72-1.35-21.4-1.61-32.07-3.67-.64-.12-.92.84-.27,1,10.35,2.32,21.69,4.69,32.34,4A.68.68,0,0,0,224.47,557.57Z"/></svg>