<svg id="Layer_1" data-name="Layer 1" xmlns="http://www.w3.org/2000/svg" viewBox="0 0 600 600"><defs><style>.cls-1{fill:#603913;}.cls-2{fill:#754c29;}.cls-3{fill:#8dc63f;}.cls-4{fill:#be1e2d;}.cls-5{fill:#e27683;}.cls-6{fill:#231f20;}</style></defs><title>doodle</title><path class="cls-1" d="M221,510.35c.94-2.63.1-7.44,0-10.24a102.43,102.43,0,0,0-3.1-22.58c-3.26-13.36-7.72-26.72-9.35-40.4a69.76,69.76,0,0,1-7.57-2.88c0,3.31-.43,6.83-.33,9.56a224.08,224.08,0,0,0,2,23c1.94,13.56,4.68,28.46,10.33,41C214.56,511.33,218.21,518.15,221,510.35Z"/><path class="cls-2" d="M389.39,366C382.72,384.91,361.84,396,341,390c-14.78-4.3-24.86-14.82-30.4-27.72A119.12,119.12,0,0,1,302,389a94.44,94.44,0,0,1-21.71,29.45,4.31,4.31,0,0,1,1.92,3.4c1.39,20.38,9.32,39.54,11.57,59.8,1.08,9.69,3,36.91-11.79,38.31-16.71,1.6-17.32-25.24-18.21-35.78-1.46-17.35-2.21-36.07-.2-53.64-14.19,7.9-30.47,11.54-47,8.54,7.83,22.28,25.86,85.46,1.58,83.61-14.37-1.09-17.6-24.4-20.18-35a209.18,209.18,0,0,1-5.8-57.33,4.87,4.87,0,0,1,.1-.79c-19.28-12-33.57-33-38.74-55.2a47,47,0,0,1-11.7,16c5.7,11.38,7.77,25.68,11.06,37.72,3.95,14.44,7.9,28.87,11.71,43.35q5,18.92,9.95,37.83c1.72,6.53,3.45,13.07,5.13,19.62,1.51,5.89,2.62,11.84,6.91,16.44,14.94,16,39.84,21.27,60.63,24,24.55,3.22,49.93,4,74.31-.91,22.39-4.47,42.39-14.06,61.12-27a3.76,3.76,0,0,1,1.17-.52c4.51-9.87,6.73-20.61,9.4-31.12q5-19.81,9.33-39.79t7.75-40.13c2.25-13,3.38-26.41,5.94-39.38C403.49,386.06,395.5,377,389.39,366ZM365.78,487.55c-.81,6.56-1.46,16.61-9.67,18.2-7.85,1.52-11.13-6.47-13.52-12.37A83,83,0,0,1,337,465.24a147,147,0,0,1,2-28.1c1.28-8.08,2-17.7,7.8-23.9a3.66,3.66,0,0,1,2.85-3.58c18.45-4.38,17.41,32.18,17.74,42.21A230,230,0,0,1,365.78,487.55Z"/><path class="cls-1" d="M354.74,424a8.79,8.79,0,0,0-3.59-5.35c-3.34,11-4.31,23-4.86,34.34-.64,13.16.41,26.77,6.13,38.83,2,4.27,2.23,3,2.88-1.58.5-3.63.9-7.28,1.23-10.93.66-7.3,1-14.64.93-22s-.45-14.66-1.17-21.95C355.92,431.66,355.74,427.68,354.74,424Z"/><path class="cls-3" d="M438.67,101.54c-13.56-7-26.33-15-40.1-21.39,9.08,14.2,22.73,26,38.63,31.35,19.67,6.6,38.81,0,58.48-.67-5-4.63-11-8.26-16.82-11.91C470.46,93.66,462,88.47,453.17,84A111.89,111.89,0,0,0,424,73.47c-7.6-1.47-15.06-1.4-22.6-1.21,15,5.7,29.78,13.14,41.26,24.07C445.52,99,441.9,103.21,438.67,101.54Z"/><path class="cls-1" d="M271.63,470c.35,7.54.84,15.07,1.72,22.56a68,68,0,0,0,1.86,11,14.3,14.3,0,0,0,2.86,5.82q5,2.23,5.36-2.13c3.33-5.18,2.17-15.93,1.72-21.83a142,142,0,0,0-3.84-22c-3.09-13.11-6.64-26-7.79-39.48-.91.69-1.82,1.35-2.76,2C272.16,440.53,271,455.45,271.63,470Z"/><path class="cls-4" d="M201.69,282.16c7.15-3.08,3.48-11.62-2.45-13.65-4.57-1.57-10.5.43-12.74,4.86a6.11,6.11,0,0,0,.33,3.88C189.23,283.5,195.9,284.65,201.69,282.16Z"/><path class="cls-4" d="M104.84,259.61c2,1.86,3.62,2.25,6.36,1.72,2.15-.42,4.56-.89,5.65-2.95,1.75-3.29,0-8.46-2.6-10.76C107.26,241.48,102.26,252.82,104.84,259.61Z"/><path class="cls-5" d="M151,351.42c1.65-3.95,8.71-4.05,8.29,1.06a4.16,4.16,0,0,1,1.79,2.77c4.33,22.08,9.49,42.43,27,58.12,15.42,13.83,36.25,19.69,56.46,14.56,20.53-5.21,37.18-19.71,47.38-38a113.23,113.23,0,0,0,11.61-31.19,143.44,143.44,0,0,0,2.21-17.25,68.86,68.86,0,0,1,.6-15.05c.76-5,9.45-3.8,8.85,1.2-2.52,20.73,4,44.43,25.26,52.68,21,8.12,43.28-5.87,42.43-29-.16-4.18,6.24-6.13,8.13-2.2,4.51,9.4,9.51,19.73,18.12,26.08a40.34,40.34,0,0,0,25.25,7.42c21.08-.85,32.94-18.66,40.77-36.19,8.88-19.87,11.56-42.11-.65-61.14-9.95-15.49-27.23-26.35-45.56-28.11-4.7-.46-7.21-6.75-2.55-9.4,26.06-14.82,29.47-52.67,15.6-77.22-14.64-25.92-47.51-32.24-72.42-17.52a3.48,3.48,0,0,1-4.15-.17,4.68,4.68,0,0,1-2.67-2.62c-1.73-4.8-2.72-9.66-4.46-14.39-7.53,19.68-12.68,40.22-17.23,61.22,7.78,2.11,12.74,10.93,14.66,18.46a39.56,39.56,0,0,1-5,31.2c-11.3,17.14-34.48,22.85-52.58,13.45-17.42-9.05-27.74-31.58-18.34-49.89,5.3-10.33,15.85-14.62,26.82-16.11,8.58-1.17,17.92-1.48,26.13,1.47A288,288,0,0,1,352,123.94c-1.41-2.17-2.89-4.29-4.42-6.36-7.42-10-15.82-20.2-26.11-27.39C302.74,77.11,278.3,72.39,256,76.92s-42.3,17.29-57,34.64a97,97,0,0,0-18.56,33.17A78.08,78.08,0,0,0,177,162.25a93.5,93.5,0,0,0,.24,11.35,23.47,23.47,0,0,1,.62,6.14,3.8,3.8,0,0,1-1.27,2.76c-1.12,1.71-3.7,2.32-4.94.12a4.49,4.49,0,0,1-.87-1c-3.62-5.52-5.76-11.79-10.19-16.82a39.63,39.63,0,0,0-16.91-11.33c-14.68-5.08-29.13-.39-41.21,8.48-11.37,8.34-20.93,20.35-23.85,34.38-2.58,12.41,1,22.89,7.27,33.07a16.1,16.1,0,0,1,2.22,2.8c1.67,2.67-1.81,6.55-4.54,4.53C72,228.18,59,236.86,52.06,247.24a48.37,48.37,0,0,0-6,40.05c7.36,26.41,33,44.39,60,44.79,4.35.06,6.89,6.82,2.39,8.82-20.3,9-21.27,38.9.75,46.83,10.23,3.69,22.08.25,29.14-7.87S147,361.05,151,351.42Zm248.22-167.1c6.9-2.71,14.22,1.77,16.29,8.59,2.23,7.33-1.84,15.36-10.14,15.11-6.12-.19-13.07-6.19-12.12-12.69C392,191.05,394.62,186.12,399.19,184.32Zm-4.29,105c5.21-5.55,15.13-5.69,21.34.1,9,8.42,8.26,25.63-2.84,32-11.85,6.82-25.94-2.76-27-15.76C385.85,299.16,389.58,292.7,394.9,289.35Zm-58.62,19.44a6.8,6.8,0,0,1,5.64-2.8,9.38,9.38,0,0,1,9.16.34c6.56,4,9.59,16.13,2.33,20.93a17.87,17.87,0,0,1-12.25,2.13c-4.28-1-6.72-4.39-7.2-8.62C333.52,316.93,333.75,311.92,336.28,308.79Zm-77-147a11.24,11.24,0,0,1,16.62-2,11.09,11.09,0,0,1-.92,16.77,10.78,10.78,0,0,1-9.93,1.29,1.54,1.54,0,0,1-1.74-.11c-2.78-1.89-4.7-3.77-5.52-7.15A11.39,11.39,0,0,1,259.28,161.74ZM232.37,335a10.51,10.51,0,0,1,.91-.85l.11-.1a12,12,0,0,1,1.09-.78l.35-.25a4.12,4.12,0,0,1,.6-.29,15.28,15.28,0,0,1,11.32-1.05c8.95,2.91,13,13.58,9,21.91-4.37,9-16.36,11.28-23.43,4.07C226.44,351.7,226.52,340.92,232.37,335ZM183.25,265.4a15,15,0,0,1,6.62-3.18,18.54,18.54,0,0,1,14.24-.16c10.53,4.43,14.65,19.58,4.37,26.74C198,296.13,183,292.41,179,280A12.89,12.89,0,0,1,183.25,265.4Zm-62.51-.22c-4.7,4.19-21.67,6.91-21.14-3-2.49-4.38-2.52-10.4-.58-15.39,3.19-8.18,13.37-10.27,19.91-4.52C125,247.63,127.33,259.3,120.74,265.18Z"/><path class="cls-4" d="M247.62,351.53a8.34,8.34,0,0,0-1.28-11.7,10.84,10.84,0,0,0-7.11-1.89c-2.2,4-5.24,8.24-2.25,12.81A6.48,6.48,0,0,0,247.62,351.53Z"/><path class="cls-5" d="M331.68,236.44a18.8,18.8,0,0,0,4.84-8.79c1.48-6.11-.7-14.66-6.67-16.92C335,217.49,334.36,227.66,331.68,236.44Z"/><path class="cls-4" d="M408.72,313.45c5.58-3.29,6.07-11.21,2.9-16.31a10.34,10.34,0,0,0-3.05-3.18h0c-6.36.08-13.64,2.48-13.38,10.14C395.41,310.67,402.32,317.23,408.72,313.45Z"/><path class="cls-4" d="M290.38,211.05c-10,11.73-3.21,29.83,7.68,38.13a30.82,30.82,0,0,0,40.36-2.7A29.86,29.86,0,0,0,347,226.69c.33-6.06-2-22.93-10.89-21.92a3.84,3.84,0,0,1-3.2-1.59C319,200.71,299.63,200.17,290.38,211.05Zm53.36,11.55c.53,12-7.78,22.46-18.86,26.13-2.58.86-5.49-1.93-4.56-4.56,2-5.75,4.7-11.28,5.15-17.46s-1.85-10.85-4.45-16.35c-1-2.2.75-4.79,3-4.33C334.67,202.74,343.28,212.28,343.74,222.6Z"/><path class="cls-4" d="M344.55,321.89c1.2-.11,3.62-.23,4.56-1.08,2.1-1.89.1-6.68-1.7-8.24a3.41,3.41,0,0,0-1.75-.69,2.5,2.5,0,0,1-1.72.62c-1.56-.09-2.32,1.28-2.62,2.93a1.16,1.16,0,0,1,0,.18,12.48,12.48,0,0,0,.19,4.65C342,322,342.86,322.05,344.55,321.89Z"/><path class="cls-4" d="M270.27,170.18c1.31-1.32,1.29-3.9-.29-4.92a3.2,3.2,0,0,0-4.84,1.89,9.17,9.17,0,0,0-.29,2.53C266.4,170.82,268.67,171.77,270.27,170.18Z"/><path class="cls-4" d="M404.63,199.08c2.68.81,3.33-1.39,2.93-3.63-.47-2.58-2.81-4.91-5.59-4.12a3.52,3.52,0,0,0-2,1.73l.06.1C401.23,195.39,401.84,198.23,404.63,199.08Z"/><path class="cls-6" d="M135.18,394.76c1.15,11.5,5.67,23.4,8.43,34.29,3.56,14,7.09,28.09,10.79,42.1s7.39,28,11.09,42c3,11.35,4.48,26.12,11.78,35.64,13.35,17.43,38.64,24.74,59.23,28.28,25.29,4.34,51.52,5.71,77,2.23,26.6-3.63,54.15-12.86,73.82-31.79a3.67,3.67,0,0,0,.51-.61c6.84-7.07,8.73-17.33,11.33-26.74,4-14.49,7.46-29.13,10.69-43.81s6.14-29.44,8.72-44.25c2.26-13,5.17-26.34,6.22-39.55a48.59,48.59,0,0,0,40.76-12.39c14.38-13.52,24-35.54,27-54.78a64.49,64.49,0,0,0-13.5-51.34,73.1,73.1,0,0,0-37.43-24.38c22.54-19.84,23.53-59.16,9.16-84.25-16-27.91-52.12-37.88-79.69-22.59-.67-6.89-3.5-13.75-7.32-20.26a203.11,203.11,0,0,1,15.91-29c3.06-4.6,6.36-9.05,9.84-13.36a83.28,83.28,0,0,0,41.6,37.34A74.43,74.43,0,0,0,463.84,123c14.18-.76,28.18-3.84,42.43-2.37,3.53.37,6-4.31,4.09-7.13-5.79-8.7-13.81-14.6-22.52-20.16-10.43-6.67-21-13.34-32.15-18.74-14.2-6.88-33.21-13.77-50.08-11.6,2.71-2.53,5.49-5,8.36-7.33C427.75,44.43,443.06,37.57,459,30.24c5.45-2.51,1.43-10.42-3.91-9.27-34.38,7.4-64.39,37.29-83.24,65.48a212.69,212.69,0,0,0-14.83,26.11c-4.53-6-9.45-11.52-13.65-16.2-14.09-15.71-32.55-26.23-53.47-29.55-41.18-6.52-81.76,14.85-104.61,48.82a99.11,99.11,0,0,0-14.76,33.79c-.62,2.84-1.21,6-1.63,9.16A52.68,52.68,0,0,0,149.7,145c-18-7.08-36.82-2.17-51.7,9.35-13.35,10.32-24.7,24.92-27.53,41.91-1.54,9.26-.61,19.88,3.65,28.58-7-.09-14.64,3-19.78,7.05-14.13,11-20.83,29.53-19.09,47.13C38.37,310.38,63.4,333.75,92.91,340c-15.65,15.74-12.53,44.85,9.51,55.58A36.7,36.7,0,0,0,135.18,394.76ZM442.68,96.33C431.2,85.4,416.38,78,401.42,72.26c7.54-.19,15-.26,22.6,1.21A111.89,111.89,0,0,1,453.17,84c8.84,4.48,17.29,9.67,25.69,14.93,5.84,3.65,11.78,7.28,16.82,11.91-19.67.69-38.81,7.27-58.48.67-15.9-5.34-29.55-17.15-38.63-31.35,13.77,6.4,26.54,14.36,40.1,21.39C441.9,103.21,445.52,99,442.68,96.33Zm-32.46,333.5Q406.74,450,402.47,470t-9.33,39.79c-2.67,10.51-4.89,21.25-9.4,31.12a3.76,3.76,0,0,0-1.17.52c-18.73,12.89-38.73,22.48-61.12,27-24.38,4.88-49.76,4.13-74.31.91-20.79-2.72-45.69-8-60.63-24-4.29-4.6-5.4-10.55-6.91-16.44-1.68-6.55-3.41-13.09-5.13-19.62q-5-18.92-9.95-37.83c-3.81-14.48-7.76-28.91-11.71-43.35-3.29-12-5.36-26.34-11.06-37.72a47,47,0,0,0,11.7-16c5.17,22.23,19.46,43.16,38.74,55.2a4.87,4.87,0,0,0-.1.79,209.18,209.18,0,0,0,5.8,57.33c2.58,10.61,5.81,33.92,20.18,35,24.28,1.85,6.25-61.33-1.58-83.61,16.57,3,32.85-.64,47-8.54-2,17.57-1.26,36.29.2,53.64.89,10.54,1.5,37.38,18.21,35.78,14.76-1.4,12.87-28.62,11.79-38.31-2.25-20.26-10.18-39.42-11.57-59.8a4.31,4.31,0,0,0-1.92-3.4A94.44,94.44,0,0,0,302,389a119.12,119.12,0,0,0,8.66-26.75c5.54,12.9,15.62,23.42,30.4,27.72,20.83,6.05,41.71-5,48.38-23.92,6.11,11,14.1,20,26.77,24.42C413.6,403.42,412.47,416.79,410.22,429.83Zm-209.53,14c-.1-2.73.36-6.25.33-9.56a69.76,69.76,0,0,0,7.57,2.88c1.63,13.68,6.09,27,9.35,40.4a102.43,102.43,0,0,1,3.1,22.58c.05,2.8.89,7.61,0,10.24-2.78,7.8-6.43,1-8-2.5-5.65-12.57-8.39-27.47-10.33-41A224.08,224.08,0,0,1,200.69,443.81ZM270.76,426c.94-.65,1.85-1.31,2.76-2,1.15,13.45,4.7,26.37,7.79,39.48a142,142,0,0,1,3.84,22c.45,5.9,1.61,16.65-1.72,21.83q-.35,4.37-5.36,2.13a14.3,14.3,0,0,1-2.86-5.82,68,68,0,0,1-1.86-11c-.88-7.49-1.37-15-1.72-22.56C271,455.45,272.16,440.53,270.76,426ZM109.2,387.73c-22-7.93-21-37.79-.75-46.83,4.5-2,2-8.76-2.39-8.82-27-.4-52.6-18.38-60-44.79a48.37,48.37,0,0,1,6-40.05C59,236.86,72,228.18,83.54,236.77c2.73,2,6.21-1.86,4.54-4.53a16.1,16.1,0,0,0-2.22-2.8c-6.28-10.18-9.85-20.66-7.27-33.07,2.92-14,12.48-26,23.85-34.38,12.08-8.87,26.53-13.56,41.21-8.48a39.63,39.63,0,0,1,16.91,11.33c4.43,5,6.57,11.3,10.19,16.82a4.49,4.49,0,0,0,.87,1c1.24,2.2,3.82,1.59,4.94-.12a3.8,3.8,0,0,0,1.27-2.76,23.47,23.47,0,0,0-.62-6.14,93.5,93.5,0,0,1-.24-11.35,78.08,78.08,0,0,1,3.49-17.52A97,97,0,0,1,199,111.56c14.68-17.35,34.58-30.1,57-34.64s46.74.19,65.43,13.27c10.29,7.19,18.69,17.36,26.11,27.39,1.53,2.07,3,4.19,4.42,6.36a288,288,0,0,0-19.22,71.77c-8.21-3-17.55-2.64-26.13-1.47-11,1.49-21.52,5.78-26.82,16.11-9.4,18.31.92,40.84,18.34,49.89,18.1,9.4,41.28,3.69,52.58-13.45a39.56,39.56,0,0,0,5-31.2c-1.92-7.53-6.88-16.35-14.66-18.46,4.55-21,9.7-41.54,17.23-61.22,1.74,4.73,2.73,9.59,4.46,14.39a4.68,4.68,0,0,0,2.67,2.62,3.48,3.48,0,0,0,4.15.17c24.91-14.72,57.78-8.4,72.42,17.52,13.87,24.55,10.46,62.4-15.6,77.22-4.66,2.65-2.15,8.94,2.55,9.4,18.33,1.76,35.61,12.62,45.56,28.11,12.21,19,9.53,41.27.65,61.14-7.83,17.53-19.69,35.34-40.77,36.19a40.34,40.34,0,0,1-25.25-7.42c-8.61-6.35-13.61-16.68-18.12-26.08-1.89-3.93-8.29-2-8.13,2.2.85,23.09-21.48,37.08-42.43,29-21.26-8.25-27.78-31.95-25.26-52.68.6-5-8.09-6.22-8.85-1.2a68.86,68.86,0,0,0-.6,15.05,143.44,143.44,0,0,1-2.21,17.25,113.23,113.23,0,0,1-11.61,31.19c-10.2,18.28-26.85,32.78-47.38,38-20.21,5.13-41-.73-56.46-14.56-17.49-15.69-22.65-36-27-58.12a4.16,4.16,0,0,0-1.79-2.77c.42-5.11-6.64-5-8.29-1.06-4,9.63-5.58,20.31-12.63,28.44S119.43,391.42,109.2,387.73Zm226.92-183c8.85-1,11.22,15.86,10.89,21.92a29.86,29.86,0,0,1-8.59,19.79,30.82,30.82,0,0,1-40.36,2.7c-10.89-8.3-17.67-26.4-7.68-38.13,9.25-10.88,28.65-10.34,42.54-7.87A3.84,3.84,0,0,0,336.12,204.77Z"/><path class="cls-6" d="M99,246.83c-1.94,5-1.91,11,.58,15.39-.53,9.87,16.44,7.15,21.14,3,6.59-5.88,4.26-17.55-1.81-22.87C112.39,236.56,102.21,238.65,99,246.83Zm17.83,11.55c-1.09,2.06-3.5,2.53-5.65,2.95-2.74.53-4.41.14-6.36-1.72-2.58-6.79,2.42-18.13,9.41-12C116.87,249.92,118.6,255.09,116.85,258.38Z"/><path class="cls-6" d="M208.48,288.8c10.28-7.16,6.16-22.31-4.37-26.74a18.54,18.54,0,0,0-14.24.16,15,15,0,0,0-6.62,3.18A12.89,12.89,0,0,0,179,280C183,292.41,198,296.13,208.48,288.8Zm-22-15.43c2.24-4.43,8.17-6.43,12.74-4.86,5.93,2,9.6,10.57,2.45,13.65-5.79,2.49-12.46,1.34-14.86-4.91A6.11,6.11,0,0,1,186.5,273.37Z"/><path class="cls-6" d="M263.31,177.72a1.54,1.54,0,0,0,1.74.11,10.78,10.78,0,0,0,9.93-1.29,11.09,11.09,0,0,0,.92-16.77,11.24,11.24,0,0,0-16.62,2,11.39,11.39,0,0,0-1.49,8.83C258.61,174,260.53,175.83,263.31,177.72Zm1.83-10.57a3.2,3.2,0,0,1,4.84-1.89c1.58,1,1.6,3.6.29,4.92-1.6,1.59-3.87.64-5.42-.5A9.17,9.17,0,0,1,265.14,167.15Z"/><path class="cls-6" d="M405.34,208c8.3.25,12.37-7.78,10.14-15.11-2.07-6.82-9.39-11.3-16.29-8.59-4.57,1.8-7.18,6.73-6,11C392.27,201.83,399.22,207.83,405.34,208ZM402,191.33c2.78-.79,5.12,1.54,5.59,4.12.4,2.24-.25,4.44-2.93,3.63s-3.4-3.69-4.63-5.92l-.06-.1A3.52,3.52,0,0,1,402,191.33Z"/><path class="cls-6" d="M413.4,321.46c11.1-6.38,11.87-23.59,2.84-32-6.21-5.79-16.13-5.65-21.34-.1-5.32,3.35-9,9.81-8.51,16.35C387.46,318.7,401.55,328.28,413.4,321.46ZM408.56,294h0a10.34,10.34,0,0,1,3.05,3.18c3.17,5.1,2.68,13-2.9,16.31-6.4,3.78-13.31-2.78-13.54-9.34C394.92,296.45,402.2,294.05,408.56,294Z"/><path class="cls-6" d="M341.16,329.39a17.87,17.87,0,0,0,12.25-2.13c7.26-4.8,4.23-16.95-2.33-20.93a9.38,9.38,0,0,0-9.16-.34,6.8,6.8,0,0,0-5.64,2.8c-2.53,3.13-2.76,8.14-2.32,12C334.44,325,336.88,328.42,341.16,329.39Zm.12-13.78a1.16,1.16,0,0,0,0-.18c.3-1.65,1.06-3,2.62-2.93a2.5,2.5,0,0,0,1.72-.62,3.41,3.41,0,0,1,1.75.69c1.8,1.56,3.8,6.35,1.7,8.24-.94.85-3.36,1-4.56,1.08-1.69.16-2.6.09-3.08-1.63A12.48,12.48,0,0,1,341.28,315.61Z"/><path class="cls-6" d="M255.74,353.62c4.05-8.33,0-19-9-21.91a15.28,15.28,0,0,0-11.32,1.05,4.12,4.12,0,0,0-.6.29l-.35.25a12,12,0,0,0-1.09.78l-.11.1a10.51,10.51,0,0,0-.91.85c-5.85,5.89-5.93,16.67-.06,22.66C239.38,364.9,251.37,362.59,255.74,353.62Zm-16.51-15.68a10.84,10.84,0,0,1,7.11,1.89,8.34,8.34,0,0,1,1.28,11.7,6.48,6.48,0,0,1-10.64-.78C234,346.18,237,341.94,239.23,337.94Z"/><path class="cls-6" d="M324,206c-2.25-.46-4,2.13-3,4.33,2.6,5.5,4.9,10.12,4.45,16.35s-3.11,11.71-5.15,17.46c-.93,2.63,2,5.42,4.56,4.56,11.08-3.67,19.39-14.15,18.86-26.13C343.28,212.28,334.67,202.74,324,206Zm12.5,21.62a18.8,18.8,0,0,1-4.84,8.79c2.68-8.78,3.27-18.95-1.83-25.71C335.82,213,338,221.54,336.52,227.65Z"/><path class="cls-6" d="M349.64,409.66a3.66,3.66,0,0,0-2.85,3.58c-5.81,6.2-6.52,15.82-7.8,23.9a147,147,0,0,0-2,28.1,83,83,0,0,0,5.56,28.14c2.39,5.9,5.67,13.89,13.52,12.37,8.21-1.59,8.86-11.64,9.67-18.2a230,230,0,0,0,1.6-35.68C367.05,441.84,368.09,405.28,349.64,409.66Zm6.89,69.68c-.33,3.65-.73,7.3-1.23,10.93-.65,4.62-.86,5.85-2.88,1.58-5.72-12.06-6.77-25.67-6.13-38.83.55-11.35,1.52-23.34,4.86-34.34a8.79,8.79,0,0,1,3.59,5.35c1,3.65,1.18,7.63,1.55,11.39.72,7.29,1.12,14.62,1.17,21.95S357.19,472,356.53,479.34Z"/></svg>