<svg id="Layer_1" data-name="Layer 1" xmlns="http://www.w3.org/2000/svg" viewBox="0 0 600 600"><defs><style>.cls-1{fill:#754c29;}.cls-2{fill:#fbb040;}.cls-3{fill:#231f20;}</style></defs><title>doodle</title><path class="cls-1" d="M568.48,404.13c-19.3-3.45-38.33-9.68-57-15.34-19.14-5.79-38.17-12-57.11-18.44-34.82-11.88-69.46-24.33-104.55-35.41-8.75-2.76-17.5-5.7-26.37-8.07-9.33-2.51-18.17-2.38-24.34,5.94-4.56,6.15-7.29,13.69-10.35,20.64q-5.49,12.41-10.88,24.85c-15.23,35.1-29.54,70.61-43.51,106.22q-9.92,25.29-19.49,50.7c-5.63,14.93-10.61,30.25-17.32,44.74,15.82-8.72,31.75-17.31,47.82-25.61-.11-5.12,2.6-9.78,4.63-14.53q4.88-11.37,9.73-22.75c6.11-14.27,12.36-28.47,18.55-42.7Q295.08,435.7,312,397.05c4.09-9.3,8.93-18,18.85-21.88,10.16-4,22-2.4,32.43-.42,26.33,5,52.17,15.78,77.33,24.82,25.68,9.23,51.13,19.09,76.4,29.4a5.22,5.22,0,0,1,3,3.15c6.36-2.32,12.71-4.67,19-7.2a200.41,200.41,0,0,0,19.11-8.71c2.57-1.36,5.09-2.79,7.58-4.29.25-.15,8.35-5.33,5.48-5.88A3.73,3.73,0,0,1,568.48,404.13Z"/><path class="cls-2" d="M124.71,263.31c-16.24,6-31.83,13.41-47.59,20.5,5.15.94,10.62,3.45,14.73,4.67,10,2.95,20,6.12,30,9.1,18.75,5.58,37.65,10.35,57,13.24,18.91,2.81,38,4.41,56.9,7.15,9.17,1.32,18.3,2.93,27.31,5.1,8.66,2.08,18.35,4.07,25.94,8.9a3.8,3.8,0,0,1,.38.29c3.56-6.29,8.16-11.75,14.89-14.55,7.35-3.06,15.43-1.67,22.89.17,5.87,1.44,11.69,3.11,17.48,4.84a3.75,3.75,0,0,1-.91-4.41c8.57-16.67,20.23-32.22,30.09-48.19q14.56-23.58,28.49-47.56,14.22-24.6,27.71-49.62c6.91-12.78,13.18-26.1,20.2-38.87-5.15,2-10.72,3.46-15.61,5.29-2.78,1-21.84,7.34-21.78,6.38a1.42,1.42,0,0,1-2.62.71c-4.45-7,24-18.23,38.76-22.62-35-16.77-71.34-30.51-107.88-43.52S267.62,54.77,230.84,42.05C213.16,35.94,195.2,28,177,23.68c-6.59-1.55-11.42-.57-14.13,6-1.75,4.28-3,8.85-4.53,13.23q-4.52,13.17-9,26.35l-38.67,112.3C104.25,200.06,97.73,218.5,91.27,237c-4.54,13-8.48,26.75-13.7,39.71A144.38,144.38,0,0,1,93.48,268q12.38-6.19,25.3-11.21c17.6-6.79,38.15-15.27,57.33-14.52,1.95.08,3.09,3,1.07,4C160.73,254,141.82,257,124.71,263.31Zm121.12-55.63c23.24-10,46.28-20.81,69.3-31.34q17-7.76,33.76-15.82c9.74-4.67,20-9.83,31.09-8.49a2.45,2.45,0,0,1,.65,4.79c-22.85,8.07-44.3,19.1-66.6,28.59-22.12,9.43-44.48,17-67.36,24.26C245.51,210,244.69,208.17,245.83,207.68Z"/><path class="cls-1" d="M409,228q-14.41,24.49-29.43,48.61c-9.58,15.35-18.71,32-30.22,45.94a3.05,3.05,0,0,1-1.54,1.05l6.07,1.84c37,11.18,73.45,24,110.05,36.45C482,368,500,374.14,518.28,379.75c15.89,4.9,32.12,8.73,48.07,13.43-3.11-7-5.76-14.23-8.67-21.18l-8.13-19.5a3.75,3.75,0,0,1-1.43-.13c-19-5.41-37.31-13.78-56.36-19.43-17.15-5.1-35-7.44-52.08-12.67-12.77-3.92-29.39-11.3-28-27,.08-1,.2-2,.34-3a1.49,1.49,0,0,1,.09-1c0-.09.07-.17.1-.25,1.4-8.76,4.85-17.69,10.63-24.45,14.83-32.7,31.57-64.66,47-97a3.52,3.52,0,0,1,2.28-2c-.82-2-1.65-4-2.47-6L463,143.33c-.93-2.26-2-4.52-3-6.82-7,14.81-15.62,29.14-23.52,43.38Q423.05,204.15,409,228Z"/><path class="cls-2" d="M217.3,392.66c.13-3,.68-7-.35-9.94-1.69-4.77-7-5.35-11.11-6.52-14-4-28-7.87-42-11.81-13.38-3.76-26.92-7.2-40.14-11.5-7.41-2.41-16.2-5.06-23.37-9.42.93,2.41,1.84,4.8,2.76,7.14q15.25,38.76,30.52,77.51t30.59,77.48l10,25.5c9-41.37,32.73-78.1,40.81-119.88A124.54,124.54,0,0,0,217.3,392.66Z"/><path class="cls-1" d="M236.76,458.66C251,422.94,265.69,387.43,280.67,352c1.74-4.11,3.45-8.67,5.46-13.14-9.44-1.58-18.6-5.55-28-7.66-9-2-18.2-3.57-27.38-4.88-18.47-2.64-37.08-4.3-55.53-7.18-19.84-3.1-39.17-8.23-58.36-14.06-9.11-2.77-18.21-5.57-27.26-8.5-4.2-1.35-10.74-2.47-15.74-4.88,9.9,11.58,16.49,26.18,22.23,40.69,5.48,1.76,10.54,4.69,15.87,6.88a187.15,187.15,0,0,0,17.88,6.08c12.57,3.72,25.22,7.13,37.84,10.67l35,9.79c7.89,2.21,18.32,3.57,22.16,11.93,3.63,7.9,1.62,18.93.51,27.2A172.56,172.56,0,0,1,219,433c-11.75,38-33.34,73.12-38.9,113,4.13,10.31,8.71,20.64,12.43,31.14,5.21-19.47,13.36-38.37,20.45-57.14Q224.63,489.2,236.76,458.66Z"/><path class="cls-2" d="M423.4,278.8c-2.46,6.56-6.46,17.89-.68,23.44,9.9,9.51,25.76,11.63,38.63,14.13a376.53,376.53,0,0,1,46,12.15c12.54,4.14,25.55,8.2,37.8,13.42l-2.13-5.1q-14.65-35.14-29.23-70.33-14.86-35.85-29.65-71.73-4.2-10.17-8.37-20.34c-16,33.4-31.76,67.43-50.36,99.55C424.69,275.57,424,277.18,423.4,278.8Z"/><path class="cls-2" d="M433.94,407.74c-23.44-8.53-47.37-18.48-71.86-23.56-10.92-2.27-26.42-4.93-35,4.32-7.62,8.25-11.24,21.52-15.76,31.61-10.7,23.87-21.28,47.79-32,71.67q-8,17.89-16.08,35.76c-2.81,6.17-5.57,12.36-8.42,18.51-.72,1.55-1.38,3.06-2.11,4.49q13-6.62,26.13-12.93l152.64-61.38,71.05-37.67c1.95-.75,3.9-1.47,5.85-2.19Q471.46,421.4,433.94,407.74Z"/><path class="cls-3" d="M577.85,398.8l-12.8-30.34q-7.17-17.62-14.36-35.24-14.64-35.93-29.37-71.8-14.43-35.24-29-70.42-7.25-17.59-14.53-35.19l-7.28-17.59c-.36-.88-.71-1.77-1.05-2.66l-6.25-16.22a3.27,3.27,0,0,0-2-2h0C390.34,82.51,313.58,60,239,34.39c-19.27-6.61-38.61-14.67-58.31-19.86-6-1.59-13-2.38-18.64.89-6.91,4-8.81,12.36-11.18,19.37q-20.24,59.68-40.2,119.47Q99.48,187.61,88.44,221q-5.28,16-10.52,32c-3.39,10.45-7.49,21-9.82,31.72a1.31,1.31,0,0,0-.4,1.7l0,.05c0,.18-.07.36-.11.54a1.1,1.1,0,0,0-.4,1.35c4.46,11,9.91,21.63,14.7,32.51,5.42,12.31,10.08,24.95,15,37.48q14.87,38.11,29.78,76.21t29.87,76.17q7.51,19,15.05,38c5.12,13,9.6,26.49,15.74,39,1.09,2.22,3.47,2.48,5.34,1.6a3.72,3.72,0,0,0,3.58,0c28.58-14.6,56.62-30.24,85.63-44L533.76,438.69c14-5.33,28.71-11.26,40.77-20.32C580.9,413.59,581.26,408,577.85,398.8Zm-93.71-204q14.82,35.86,29.65,71.73,14.6,35.17,29.23,70.33l2.13,5.1c-12.25-5.22-25.26-9.28-37.8-13.42a376.53,376.53,0,0,0-46-12.15c-12.87-2.5-28.73-4.62-38.63-14.13-5.78-5.55-1.78-16.88.68-23.44.61-1.63,1.29-3.23,2-4.81,18.6-32.12,34.4-66.15,50.36-99.55Q479.94,184.61,484.14,194.78ZM463,143.33l6.68,16.25c.82,2,1.65,4,2.47,6a3.52,3.52,0,0,0-2.28,2c-15.47,32.33-32.21,64.29-47,97-5.78,6.76-9.23,15.69-10.63,24.45,0,.08-.07.16-.1.25a1.49,1.49,0,0,0-.09,1c-.14,1-.26,2-.34,3-1.35,15.69,15.27,23.07,28,27,17.06,5.23,34.93,7.57,52.08,12.67,19.05,5.65,37.31,14,56.36,19.43a3.75,3.75,0,0,0,1.43.13l8.13,19.5c2.91,6.95,5.56,14.19,8.67,21.18-16-4.7-32.18-8.53-48.07-13.43C500,374.14,482,368,463.89,361.92c-36.6-12.42-73-25.28-110-36.46l-6.07-1.84a3.05,3.05,0,0,0,1.54-1.05c11.51-14,20.64-30.59,30.22-45.94q15-24.1,29.43-48.61,14.06-23.9,27.53-48.13c7.9-14.24,16.49-28.57,23.52-43.38C461,138.81,462,141.07,463,143.33ZM176.11,242.26c-19.18-.75-39.73,7.73-57.33,14.52q-12.91,5-25.3,11.21a144.38,144.38,0,0,0-15.91,8.68c5.22-13,9.16-26.72,13.7-39.71,6.46-18.46,13-36.9,19.35-55.39l38.67-112.3q4.53-13.17,9-26.35c1.49-4.38,2.78-9,4.53-13.23,2.71-6.58,7.54-7.56,14.13-6,18.21,4.3,36.17,12.26,53.85,18.37,36.78,12.72,73.64,25.22,110.31,38.26S414,107.06,449,123.83c-14.72,4.39-43.21,15.58-38.76,22.62a1.42,1.42,0,0,0,2.62-.71c-.06,1,19-5.35,21.78-6.38,4.89-1.83,10.46-3.27,15.61-5.29-7,12.77-13.29,26.09-20.2,38.87q-13.51,25-27.71,49.62-13.87,24-28.49,47.56c-9.86,16-21.52,31.52-30.09,48.19a3.75,3.75,0,0,0,.91,4.41c-5.79-1.73-11.61-3.4-17.48-4.84-7.46-1.84-15.54-3.23-22.89-.17-6.73,2.8-11.33,8.26-14.89,14.55a3.8,3.8,0,0,0-.38-.29c-7.59-4.83-17.28-6.82-25.94-8.9-9-2.17-18.14-3.78-27.31-5.1-18.92-2.74-38-4.34-56.9-7.16-19.37-2.88-38.27-7.65-57-13.23-10-3-20-6.15-30-9.1-4.11-1.22-9.58-3.73-14.73-4.67,15.76-7.09,31.35-14.49,47.59-20.5,17.11-6.34,36-9.28,52.47-17.09C179.2,245.26,178.06,242.34,176.11,242.26ZM164.24,505.6Q149,466.84,133.65,428.12t-30.52-77.51c-.92-2.34-1.83-4.73-2.76-7.14,7.17,4.36,16,7,23.37,9.42,13.22,4.3,26.76,7.74,40.14,11.5,14,3.94,28,7.83,42,11.81,4.12,1.17,9.42,1.75,11.11,6.53,1,2.89.48,6.92.35,9.93a124.54,124.54,0,0,1-2.22,18.56C207,453,183.3,489.73,174.27,531.1Zm28.31,71.49c-3.72-10.5-8.3-20.83-12.43-31.14,5.56-39.84,27.15-75,38.9-113a172.56,172.56,0,0,0,6.32-28c1.11-8.26,3.12-19.3-.51-27.2-3.84-8.35-14.27-9.72-22.16-11.93l-35-9.79c-12.62-3.54-25.27-6.95-37.84-10.67A187.15,187.15,0,0,1,112,339.3c-5.33-2.19-10.39-5.12-15.87-6.88-5.74-14.51-12.33-29.11-22.23-40.69,5,2.41,11.54,3.53,15.74,4.88,9,2.93,18.15,5.73,27.26,8.5,19.19,5.83,38.52,11,58.36,14.06,18.45,2.88,37.06,4.54,55.53,7.18,9.18,1.31,18.33,2.84,27.38,4.88,9.39,2.11,18.55,6.08,28,7.66-2,4.47-3.72,9-5.46,13.14-15,35.4-29.71,70.91-43.91,106.63Q224.63,489.2,213,520C205.91,538.72,197.76,557.62,192.55,577.09ZM355,506.75a716.72,716.72,0,0,0-76,30.86q-13.14,6.28-26.13,12.93c.73-1.43,1.39-2.94,2.11-4.49,2.85-6.15,5.61-12.34,8.42-18.51q8.12-17.85,16.08-35.76c10.68-23.88,21.26-47.8,32-71.67,4.52-10.09,8.14-23.36,15.76-31.61,8.54-9.25,24-6.59,35-4.32,24.49,5.08,48.42,15,71.86,23.56q37.51,13.67,74.52,28.63Zm210.72-94.83c-2.49,1.5-5,2.93-7.58,4.29A200.41,200.41,0,0,1,539,424.92c-6.28,2.53-12.63,4.87-19,7.2a5.22,5.22,0,0,0-3-3.15c-25.27-10.31-50.72-20.17-76.4-29.4-25.16-9-51-19.81-77.33-24.82-10.42-2-22.27-3.55-32.43.42-9.92,3.88-14.76,12.58-18.85,21.88q-17,38.59-33.72,77.32c-6.19,14.23-12.44,28.43-18.55,42.7q-4.86,11.37-9.73,22.75c-2,4.75-4.74,9.41-4.63,14.53-16.07,8.3-32,16.89-47.82,25.61,6.71-14.49,11.69-29.81,17.32-44.74q9.57-25.43,19.49-50.7c14-35.61,28.28-71.12,43.51-106.22q5.4-12.45,10.88-24.85c3.06-6.95,5.79-14.49,10.35-20.64,6.17-8.32,15-8.45,24.34-5.94,8.87,2.37,17.62,5.31,26.37,8.07,35.09,11.08,69.73,23.53,104.55,35.41,18.94,6.45,38,12.65,57.11,18.44,18.71,5.66,37.74,11.89,57,15.34a3.73,3.73,0,0,0,2.68,1.91C574,406.59,565.93,411.77,565.68,411.92Z"/><path class="cls-3" d="M246.67,209.67c22.88-7.25,45.24-14.83,67.36-24.26,22.3-9.49,43.75-20.52,66.6-28.59A2.45,2.45,0,0,0,380,152c-11.09-1.34-21.35,3.82-31.09,8.49q-16.81,8.07-33.76,15.82c-23,10.53-46.06,21.36-69.3,31.34C244.69,208.17,245.51,210,246.67,209.67Z"/></svg>