<svg id="Layer_1" data-name="Layer 1" xmlns="http://www.w3.org/2000/svg" viewBox="0 0 600 600"><defs><style>.cls-1{fill:#fff;}.cls-2{fill:#00aeef;}.cls-3{fill:#231f20;}</style></defs><title>doodle</title><path class="cls-1" d="M173.53,107.78c-16.79,18.44-32.18,37.85-43.67,60.08-11,21.24-17.46,43.94-23.71,66.91-.57,2.07-4,1.69-3.8-.52,1.05-15.77,5-31.41,10.7-46.39a108.16,108.16,0,0,0-1.14-32.92,98.67,98.67,0,0,0-4.82-16.67c-1.78-4.58-4.33-11.7-9.23-13.93-5.61-2.56-10.82,3.94-13.48,8.08a54.7,54.7,0,0,0-6.12,14.88,279.39,279.39,0,0,0-7.18,36.84c-6.41,45.71-11,91.85-3.72,137.74,6.84,43.39,20.79,85.56,35,127,13.21,38.6,29.56,77.58,59.77,106.11,13.17,12.44,29.45,23.5,47.15,28.19,7.49,2,18.07,3,23.21-4.23,5.26-7.36,1.37-18.25-1.09-25.93a4,4,0,0,1-.2-.92q-7-2-13.8-4.5-11.48-4.2-22.53-9.43c-7.47-3.53-15.46-7.12-22.06-12.12a1.41,1.41,0,0,1,1.07-2.56c8.68,1.91,17,5.94,25.3,9.08s16.29,6.16,24.61,8.75A173.87,173.87,0,0,0,271,549.59a287.94,287.94,0,0,0,46.1-2.89c13.09-1.78,26.16-4.51,38.52-9.23a96.16,96.16,0,0,0,17.54-8.78c5.58-3.57,10.19-8.14,15.34-12.24,3.25-2.58,8.87.75,6.2,4.79-5.4,8.17-14,14.34-23.09,19.06a3,3,0,0,1,1.15,3.31c-2.23,9.62-7.4,27.55,5.64,32.42,5.38,2,12.37-.69,17.49-2.56A75.79,75.79,0,0,0,411,565.78c17.68-11.47,30.37-28.8,41-46.67C463.32,500,473.76,480,480.54,458.77s10.3-43.42,12.09-65.64,1.26-44.56,3.14-66.76a3.51,3.51,0,0,1,7,0c2,28.3.44,57.43-3.25,85.55-3,22.78-8.26,45.05-17,66.26,16.62,1.34,27.11-17.67,32.74-31.07,6.67-15.83,9.61-33,10.26-50.07,1.21-32.08-4.64-64.35-11.72-95.52a639.44,639.44,0,0,0-30.63-97.62C471,173.8,456.56,144,436.49,118.26a204.54,204.54,0,0,0-31.18-32C395,77.69,383.45,71.41,372,64.79a16.4,16.4,0,0,1-3.39,6.67C361.48,80,350,80.05,340,77.67c-10.95-2.61-22.2-7-30.84-14.36-3.35-2.84.95-7.1,4.32-5.59C320.91,61,328,64.91,335.8,67.4c6.94,2.22,16.08,5.1,22.89,1.09,8.06-4.74,4.66-12.5-1.5-17.08a28.47,28.47,0,0,0-21-5c-4.47.59-5.92-6.34-2.24-8.29a93.22,93.22,0,0,0,9.12-5.47c2.05-1.41,7.4-4.33,8.35-6.91,2.53-6.85-14-6.51-17.27-6.55-13.78-.15-27.3,2.78-40.33,7.11a311.15,311.15,0,0,0-33.75,13.95c-11.58,5.44-23.22,10.93-33.88,18.05C206.12,71.69,189.67,90,173.53,107.78Zm325.69,186c1.62,3.58,4,7.19,4.63,11.13a.86.86,0,0,1-1.56.66c-2.33-3.24-3.14-7.5-4.49-11.19C497.49,293.59,498.86,293,499.22,293.82Zm-37.69-113.6c7.43,15.62,14.64,31.15,20.74,47.36q4.53,12,8.57,24.25c2.84,8.64,6.11,17.5,7.35,26.54.12.93-1.24,1.77-1.7.72-3.33-7.65-5.31-15.86-7.86-23.79C486,247.14,483.25,239,480.32,231c-6.13-16.82-12.56-33.75-20-50C459.92,180.12,461.13,179.39,461.53,180.22ZM115.31,437.29c-9.45-19.79-16-41.25-21.59-62.42C88.18,354,82.56,331.69,81.54,310a.83.83,0,0,1,1.63-.22C85.6,320.74,87,332,89.24,343q3.2,15.66,7.39,31.1c5.74,21.23,13.48,41.63,20.7,62.37A1.11,1.11,0,0,1,115.31,437.29Zm18.12,46.91c-4.39-7.8-7.19-17.27-9.81-25.8-.28-.91,1.13-1.52,1.55-.65,3.88,8,8.29,16.89,10.37,25.55A1.16,1.16,0,0,1,133.43,484.2Zm32.66-340a11.3,11.3,0,0,0-9.19,7.51,18.82,18.82,0,0,0-.38,12.37c1.09,3.2,3.86,5.32,5.66,8.08a1.91,1.91,0,0,1-.67,2.57c-5.83,3.6-10.45-2.9-12.17-8a25.71,25.71,0,0,1,1.7-19.77,17.51,17.51,0,0,1,15.05-9.53c4,0,11.93,2.35,10.69,7.75a1.06,1.06,0,0,1-1,.76C172.47,146.16,169.62,143.77,166.09,144.18Zm234.8,260.76c-2.54,15.12-12.53,28-22.06,39.47A169.44,169.44,0,0,1,346.53,475c-11.8,8.35-25.19,14.77-39.49,17.35-16.16,2.91-32.61.58-48.21-4.14-29-8.77-57.63-25.75-70.52-54.36-5.61-12.45-8.54-27.54-4.4-40.89,3.42-11,13.07-20,24.69-19.38a56.32,56.32,0,0,1,.26-25.11c4.22-17.56,16.55-32.35,31.36-42.23,17.51-11.67,37.13-15.23,56.79-6.72,32.27,14,53.63,47.72,55.69,82.38,7.53-10.24,17.63-18.49,31.3-12.9C398.29,374.8,403.29,390.65,400.89,404.94Zm24.19-278.46A18.92,18.92,0,0,1,440,137.37c2.76,6.12,2.09,13.57-2.5,18.65-3.89,4.3-10.73,7.65-15.47,3a2.17,2.17,0,0,1,.43-3.37c3-2,7.11-2.29,9.49-5.21,2.52-3.09,2.42-7.52.52-10.89a12.2,12.2,0,0,0-8.86-5.77,12,12,0,0,0-6.51.68c-1.12.48-1.9,1.3-3.15,1.5a2.93,2.93,0,0,1-.89-.09,2.69,2.69,0,0,1-2-2.6C411.67,126.73,419.76,125.76,425.08,126.48Zm-160.63-73c2.68-2.36,6.48-4.93,10.24-4.6A1,1,0,0,1,275,50.8c-1.55.63-3.25.84-4.82,1.43a23.07,23.07,0,0,0-4.82,2.4C264.64,55.07,263.86,54,264.45,53.52Zm.94,47.67c6.11-1.35,12.24-2.69,18.25-4.46,19.06-5.59,37.94-8.67,57.77-5.64a94.6,94.6,0,0,1,48.09,22.1c12.66,11.08,22.28,26.07,26.08,42.53,3.49,15.11,2.2,32.42-8.93,43.67,2.92,5,2.09,11.46-1.87,16.35-5.13,6.36-13.28,6.9-21,6,2.05,13.47-7.34,26.52-20.75,30.69-17,5.27-33.53-2.44-47.43-11.94-3.9,9.63-15.45,15.07-25.9,13.69-7.37-1-14-4.68-19.82-9.13-3.06-2.34-6.58-4.87-9.11-7.79-1.84-2.14-1.32-3.26-2.65-.42a33,33,0,0,1-2.83,4.88c-8.06,11.45-22.56,17.77-36.4,15-13.16-2.6-24-13.19-27.58-26-11.64-2.77-19.32-13.36-21-25.18-2-13.94,2.08-29.87,6.9-42.9a71.72,71.72,0,0,1,21.84-30.34c8.26-6.9,17.55-12.32,27.1-17.22a71,71,0,0,1,15.49-7.68C249.24,104,257.2,101.11,265.39,101.19Zm-49.87-23.6c9.85-7.83,22.06-16.49,34.45-19.54a.93.93,0,0,1,.72,1.7c-5.85,3.41-12.24,5.82-18.11,9.24A138.26,138.26,0,0,0,216,80.3c-10.26,8.16-19,17.8-27.13,28.07-.37.48-1.13-.14-.83-.64A119.11,119.11,0,0,1,215.52,77.59Z"/><path class="cls-2" d="M226.18,121.87c-11.37,6.62-22.55,14.18-31.12,24.29-10,11.78-14.18,26.92-16.74,41.88-2.19,12.78-.74,33.9,16.13,35.75a3.87,3.87,0,0,1,3.66,2.79c2.58,12.29,13.11,22.51,25.94,23.24a28.64,28.64,0,0,0,17.43-5c5.6-3.76,7.66-8.47,11-14,3.15-5.2,8.84-3.28,12.64,0,5.14,4.39,9.83,9.08,15.82,12.36,5.51,3,11.72,4.59,17.85,2.55,5.39-1.79,10.16-5.92,10.26-11.92.05-2.77,3.46-5.32,6-3.45,11.47,8.4,24.47,16.73,39.33,15.6,12.75-1,26.8-13.2,20.44-27a4.07,4.07,0,0,1,4.53-5.9c5.29.95,12.21,2.41,17.17-.54,2.75-1.63,6.15-7.47,2.71-10.1-2.54-1.94-2.53-4.94,0-6.88,15.21-11.68,11.11-36.39,4-51.35-14-29.58-45.25-46-77.25-46.47-18.1-.26-34.43,5.46-51.71,10-8.41,2.19-17.06,3-25.52,4.93a82.84,82.84,0,0,0-19.3,7.35ZM216.51,180A9.23,9.23,0,0,1,203,172.17a9.77,9.77,0,0,1,.37-2.67c.05-3,2.45-5.22,5.3-6.28a9.2,9.2,0,0,1,9,1.42C222.52,168.61,222.14,177,216.51,180Zm147.06-28.27.17-.16a2.41,2.41,0,0,1,.21-.24c5.26-5.37,14.34-2.5,16.24,4.59A10.13,10.13,0,0,1,369,168.61C360.92,167.52,357.9,157.43,363.57,151.74Zm-92,23.59a2.22,2.22,0,0,1,.93-1c5.43-3,12.16-3.07,18.26-3.57,7-.56,14-.91,20.94-1a4.18,4.18,0,0,1,4.14,4.14c-.32,10.36-5.7,22-17.33,23-5.62.49-12.27-1.57-17.25-4.08a19.4,19.4,0,0,1-5-3.65,5,5,0,0,1-2.78-1.9,27.45,27.45,0,0,1-3.69-7.48A3.64,3.64,0,0,1,271.59,175.33Z"/><path class="cls-1" d="M212.64,170.52a1.83,1.83,0,0,0-1.55.27,17.25,17.25,0,0,0-1.63,1.24,2.31,2.31,0,0,0,3.51,1.52A2,2,0,0,0,212.64,170.52Z"/><path class="cls-2" d="M385.09,373.61c-6.16-3.42-13.39-3.77-19.47,0-5.71,3.5-9.47,9.47-13,15a1.88,1.88,0,0,1-3.47-.94A94.31,94.31,0,0,0,333,334.75c-9.75-14.48-23.85-26.84-40.27-33.13-18.81-7.19-37.3-2.17-53.24,9.22-14,10-25.26,24.76-28.28,41.93a53.23,53.23,0,0,0,.63,21.19l.6.12c1.77.41,1.56,2.6.31,3.29a50.3,50.3,0,0,0,13.17,21.69c.77.73-.34,1.76-1.13,1.13a45.79,45.79,0,0,1-15.19-23c-17.48-2.5-24.56,18.25-23.68,32.47.9,14.59,7.33,28.55,16.54,39.76,17.09,20.81,43.94,33,69.86,38.31,26.94,5.54,52.25-1.25,74.22-17.36a165.86,165.86,0,0,0,27.68-26.26c8.8-10.29,18-21.68,21.88-34.87C399.79,396.5,397.69,380.6,385.09,373.61Z"/><path class="cls-1" d="M371.71,160a1.91,1.91,0,0,0-1-3.17,3.15,3.15,0,0,0-1.55.13,4.49,4.49,0,0,0-.52,1.71A1.76,1.76,0,0,0,371.71,160Z"/><path class="cls-1" d="M305.42,182.8l-.63,0a26.29,26.29,0,0,1-1.74,3,4.62,4.62,0,0,1-3.94,2l-.44.67A10.07,10.07,0,0,0,305.42,182.8Z"/><path class="cls-3" d="M226.16,115.21c-9.55,4.9-18.84,10.32-27.1,17.22a71.72,71.72,0,0,0-21.84,30.34c-4.82,13-8.91,29-6.9,42.9,1.7,11.82,9.38,22.41,21,25.18,3.58,12.78,14.42,23.37,27.58,26,13.84,2.72,28.34-3.6,36.4-15a33,33,0,0,0,2.83-4.88c1.33-2.84.81-1.72,2.65.42,2.53,2.92,6.05,5.45,9.11,7.79,5.84,4.45,12.45,8.15,19.82,9.13,10.45,1.38,22-4.06,25.9-13.69,13.9,9.5,30.46,17.21,47.43,11.94,13.41-4.17,22.8-17.22,20.75-30.69,7.69.85,15.84.31,21-6,4-4.89,4.79-11.35,1.87-16.35,11.13-11.25,12.42-28.56,8.93-43.67-3.8-16.46-13.42-31.45-26.08-42.53a94.6,94.6,0,0,0-48.09-22.1c-19.83-3-38.71,0-57.77,5.64-6,1.77-12.14,3.11-18.25,4.46-8.19-.08-16.15,2.81-23.74,6.34A71,71,0,0,0,226.16,115.21Zm48.11-7.54c17.28-4.49,33.61-10.21,51.71-10,32,.45,63.24,16.89,77.25,46.47,7.09,15,11.19,39.67-4,51.35-2.53,1.94-2.54,4.94,0,6.88,3.44,2.63,0,8.47-2.71,10.1-5,2.95-11.88,1.49-17.17.54a4.07,4.07,0,0,0-4.53,5.9c6.36,13.8-7.69,26-20.44,27-14.86,1.13-27.86-7.2-39.33-15.6-2.55-1.87-6,.68-6,3.45-.1,6-4.87,10.13-10.26,11.92-6.13,2-12.34.48-17.85-2.55-6-3.28-10.68-8-15.82-12.36-3.8-3.25-9.49-5.17-12.64,0-3.31,5.49-5.37,10.2-11,14a28.64,28.64,0,0,1-17.43,5c-12.83-.73-23.36-10.95-25.94-23.24a3.87,3.87,0,0,0-3.66-2.79c-16.87-1.85-18.32-23-16.13-35.75,2.56-15,6.74-30.1,16.74-41.88,8.57-10.11,19.75-17.67,31.12-24.29l3.27-1.92a82.84,82.84,0,0,1,19.3-7.35C257.21,110.65,265.86,109.86,274.27,107.67Z"/><path class="cls-3" d="M217.68,164.64a9.2,9.2,0,0,0-9-1.42c-2.85,1.06-5.25,3.29-5.3,6.28a9.77,9.77,0,0,0-.37,2.67A9.23,9.23,0,0,0,216.51,180C222.14,177,222.52,168.61,217.68,164.64ZM213,173.55a2.31,2.31,0,0,1-3.51-1.52,17.25,17.25,0,0,1,1.63-1.24,1.83,1.83,0,0,1,1.55-.27A2,2,0,0,1,213,173.55Z"/><path class="cls-3" d="M369,168.61a10.13,10.13,0,0,0,11.22-12.68c-1.9-7.09-11-10-16.24-4.59a2.41,2.41,0,0,0-.21.24l-.17.16C357.9,157.43,360.92,167.52,369,168.61Zm.2-11.63a3.15,3.15,0,0,1,1.55-.13,1.91,1.91,0,0,1,1,3.17,1.76,1.76,0,0,1-3.06-1.33A4.49,4.49,0,0,1,369.17,157Z"/><path class="cls-3" d="M273.5,187.27a5,5,0,0,0,2.78,1.9,19.4,19.4,0,0,0,5,3.65c5,2.51,11.63,4.57,17.25,4.08,11.63-1,17-12.65,17.33-23a4.18,4.18,0,0,0-4.14-4.14c-7,.08-14,.43-20.94,1-6.1.5-12.83.54-18.26,3.57a2.22,2.22,0,0,0-.93,1,3.64,3.64,0,0,0-1.78,4.46A27.45,27.45,0,0,0,273.5,187.27Z"/><path class="cls-3" d="M175.78,145.92a1.06,1.06,0,0,0,1-.76c1.24-5.4-6.64-7.79-10.69-7.75A17.51,17.51,0,0,0,151,146.94a25.71,25.71,0,0,0-1.7,19.77c1.72,5.1,6.34,11.6,12.17,8a1.91,1.91,0,0,0,.67-2.57c-1.8-2.76-4.57-4.88-5.66-8.08a18.82,18.82,0,0,1,.38-12.37,11.3,11.3,0,0,1,9.19-7.51C169.62,143.77,172.47,146.16,175.78,145.92Z"/><path class="cls-3" d="M413,135.9a2.93,2.93,0,0,0,.89.09c1.25-.2,2-1,3.15-1.5a12,12,0,0,1,6.51-.68,12.2,12.2,0,0,1,8.86,5.77c1.9,3.37,2,7.8-.52,10.89-2.38,2.92-6.45,3.25-9.49,5.21a2.17,2.17,0,0,0-.43,3.37c4.74,4.62,11.58,1.27,15.47-3,4.59-5.08,5.26-12.53,2.5-18.65a18.92,18.92,0,0,0-14.89-10.89c-5.32-.72-13.41.25-14,6.82A2.69,2.69,0,0,0,413,135.9Z"/><path class="cls-3" d="M183.94,85.36c-19.43,20.61-38.67,41.88-53.19,66.33-3.67,6.18-7.15,12.58-10.33,19.17,0-15.11-3.36-30.41-10.53-43.36-4.22-7.62-12.14-13.79-20.94-9.22-8.47,4.4-13.2,14.05-16.08,22.67-8,23.8-10.17,50-13.2,74.74-3.2,26.15-5.27,52.52-3.49,78.86,3.4,50.32,18.82,98.82,34.6,146.39C105.16,484.27,122.1,529,156.09,561c15.67,14.77,36.86,29.43,58.85,31.77,9.58,1,19.83-1.48,25.14-10.17s3.21-19.05.15-28.16a162.28,162.28,0,0,0,25.07,3.81c16.87,1.18,34-.23,50.74-2.36,14-1.79,28-4.4,41.31-9.35,2.91-1.08,5.91-2.3,8.9-3.66-3.44,9.77-5.63,21-.52,30.55,5,9.33,14.11,11.57,23.9,9.55,21.62-4.45,39.9-19.17,53.38-36.08,14.41-18.1,26.12-39.13,35.75-60.2,14.42,3.51,27.66-6.65,35.49-18.15,9.06-13.29,14.59-29.22,17.53-44.94,6.15-32.94,1.9-66.79-4.18-99.41a631.88,631.88,0,0,0-29.28-105.62C486.1,186,471.8,153.36,451.71,124.73c-10.61-15.12-22.82-29.22-37-41.12C402.4,73.26,387.84,63,372.11,58.44A21.33,21.33,0,0,0,365.5,46.9a35.92,35.92,0,0,0-14.73-8.28c6.71-4.75,12.2-11,9-18.56-4.93-11.55-22.45-10.26-32.6-9.56-27.6,1.91-53.32,13.69-77.87,25.58-12.84,6.21-25.12,13.12-36.34,22C202.5,66.3,193.05,75.7,183.94,85.36Zm76.13-45.13a311.15,311.15,0,0,1,33.75-13.95c13-4.33,26.55-7.26,40.33-7.11,3.26,0,19.8-.3,17.27,6.55-.95,2.58-6.3,5.5-8.35,6.91A93.22,93.22,0,0,1,334,38.1c-3.68,1.95-2.23,8.88,2.24,8.29a28.47,28.47,0,0,1,21,5c6.16,4.58,9.56,12.34,1.5,17.08-6.81,4-15.95,1.13-22.89-1.09C328,64.91,320.91,61,313.49,57.72c-3.37-1.51-7.67,2.75-4.32,5.59,8.64,7.32,19.89,11.75,30.84,14.36,10,2.38,21.47,2.33,28.55-6.21A16.4,16.4,0,0,0,372,64.79c11.5,6.62,23,12.9,33.36,21.43a204.54,204.54,0,0,1,31.18,32C456.56,144,471,173.8,483.14,203.9a639.44,639.44,0,0,1,30.63,97.62C520.85,332.69,526.7,365,525.49,397c-.65,17.09-3.59,34.24-10.26,50.07-5.63,13.4-16.12,32.41-32.74,31.07,8.78-21.21,14.05-43.48,17-66.26,3.69-28.12,5.23-57.25,3.25-85.55a3.51,3.51,0,0,0-7,0c-1.88,22.2-1.36,44.54-3.14,66.76s-5.3,44.37-12.09,65.64S463.32,500,452,519.11c-10.61,17.87-23.3,35.2-41,46.67a75.79,75.79,0,0,1-15.09,7.69c-5.12,1.87-12.11,4.57-17.49,2.56-13-4.87-7.87-22.8-5.64-32.42a3,3,0,0,0-1.15-3.31c9.1-4.72,17.69-10.89,23.09-19.06,2.67-4-2.95-7.37-6.2-4.79-5.15,4.1-9.76,8.67-15.34,12.24a96.16,96.16,0,0,1-17.54,8.78c-12.36,4.72-25.43,7.45-38.52,9.23a287.94,287.94,0,0,1-46.1,2.89,173.87,173.87,0,0,1-47.25-8.26c-8.32-2.59-16.47-5.65-24.61-8.75s-16.62-7.17-25.3-9.08a1.41,1.41,0,0,0-1.07,2.56c6.6,5,14.59,8.59,22.06,12.12s14.88,6.63,22.53,9.43q6.82,2.5,13.8,4.5a4,4,0,0,0,.2.92c2.46,7.68,6.35,18.57,1.09,25.93-5.14,7.21-15.72,6.22-23.21,4.23-17.7-4.69-34-15.75-47.15-28.19-30.21-28.53-46.56-67.51-59.77-106.11-14.18-41.45-28.13-83.62-35-127-7.25-45.89-2.69-92,3.72-137.74a279.39,279.39,0,0,1,7.18-36.84,54.7,54.7,0,0,1,6.12-14.88c2.66-4.14,7.87-10.64,13.48-8.08,4.9,2.23,7.45,9.35,9.23,13.93a98.67,98.67,0,0,1,4.82,16.67,108.16,108.16,0,0,1,1.14,32.92c-5.72,15-9.65,30.62-10.7,46.39-.15,2.21,3.23,2.59,3.8.52,6.25-23,12.73-45.67,23.71-66.91,11.49-22.23,26.88-41.64,43.67-60.08,16.14-17.74,32.59-36.09,52.66-49.5C236.85,51.16,248.49,45.67,260.07,40.23Z"/><path class="cls-3" d="M384,369c-13.67-5.59-23.77,2.66-31.3,12.9-2.06-34.66-23.42-68.4-55.69-82.38-19.66-8.51-39.28-5-56.79,6.72-14.81,9.88-27.14,24.67-31.36,42.23a56.32,56.32,0,0,0-.26,25.11c-11.62-.64-21.27,8.35-24.69,19.38-4.14,13.35-1.21,28.44,4.4,40.89,12.89,28.61,41.55,45.59,70.52,54.36,15.6,4.72,32.05,7.05,48.21,4.14,14.3-2.58,27.69-9,39.49-17.35a169.44,169.44,0,0,0,32.3-30.55c9.53-11.49,19.52-24.35,22.06-39.47C403.29,390.65,398.29,374.8,384,369Zm12.05,40.28c-3.88,13.19-13.08,24.58-21.88,34.87a165.86,165.86,0,0,1-27.68,26.26c-22,16.11-47.28,22.9-74.22,17.36-25.92-5.34-52.77-17.5-69.86-38.31-9.21-11.21-15.64-25.17-16.54-39.76-.88-14.22,6.2-35,23.68-32.47a45.79,45.79,0,0,0,15.19,23c.79.63,1.9-.4,1.13-1.13a50.3,50.3,0,0,1-13.17-21.69c1.25-.69,1.46-2.88-.31-3.29l-.6-.12a53.23,53.23,0,0,1-.63-21.19c3-17.17,14.31-31.95,28.28-41.93,15.94-11.39,34.43-16.41,53.24-9.22,16.42,6.29,30.52,18.65,40.27,33.13a94.31,94.31,0,0,1,16.2,52.87,1.88,1.88,0,0,0,3.47.94c3.53-5.52,7.29-11.49,13-15,6.08-3.73,13.31-3.38,19.47,0C397.69,380.6,399.79,396.5,396.05,409.24Z"/><path class="cls-3" d="M480.32,231c2.93,8.05,5.68,16.17,8.31,24.33,2.55,7.93,4.53,16.14,7.86,23.79.46,1.05,1.82.21,1.7-.72-1.24-9-4.51-17.9-7.35-26.54q-4-12.21-8.57-24.25c-6.1-16.21-13.31-31.74-20.74-47.36-.4-.83-1.61-.1-1.23.72C467.76,197.22,474.19,214.15,480.32,231Z"/><path class="cls-3" d="M497.8,294.42c1.35,3.69,2.16,7.95,4.49,11.19a.86.86,0,0,0,1.56-.66c-.6-3.94-3-7.55-4.63-11.13C498.86,293,497.49,293.59,497.8,294.42Z"/><path class="cls-3" d="M96.63,374.07q-4.17-15.44-7.39-31.1c-2.26-11-3.64-22.23-6.07-33.2a.83.83,0,0,0-1.63.22c1,21.7,6.64,44,12.18,64.88,5.61,21.17,12.14,42.63,21.59,62.42a1.11,1.11,0,0,0,2-.85C110.11,415.7,102.37,395.3,96.63,374.07Z"/><path class="cls-3" d="M125.17,457.75c-.42-.87-1.83-.26-1.55.65,2.62,8.53,5.42,18,9.81,25.8a1.16,1.16,0,0,0,2.11-.9C133.46,474.64,129.05,465.77,125.17,457.75Z"/><path class="cls-3" d="M188.89,108.37C197,98.1,205.76,88.46,216,80.3A138.26,138.26,0,0,1,232.58,69c5.87-3.42,12.26-5.83,18.11-9.24a.93.93,0,0,0-.72-1.7c-12.39,3.05-24.6,11.71-34.45,19.54a119.11,119.11,0,0,0-27.46,30.14C187.76,108.23,188.52,108.85,188.89,108.37Z"/><path class="cls-3" d="M265.31,54.63a23.07,23.07,0,0,1,4.82-2.4c1.57-.59,3.27-.8,4.82-1.43a1,1,0,0,0-.26-1.88c-3.76-.33-7.56,2.24-10.24,4.6C263.86,54,264.64,55.07,265.31,54.63Z"/></svg>