<svg id="Layer_1" data-name="Layer 1" xmlns="http://www.w3.org/2000/svg" viewBox="0 0 600 600"><defs><style>.cls-1{fill:#88e0ff;}.cls-2{fill:#231f20;}</style></defs><title>doodle</title><path class="cls-1" d="M269.25,448.58h-2.11c-22.37-.35-39-7.57-49.47-21.47-14.19-18.87-13.34-45.24-11.19-60.76-11,10.11-30.88,24.75-53.49,24.75-13.57,0-26.19-5.32-37.49-15.82-12.27-11.4-18.71-24.87-19.14-40C95.72,312.69,108.52,292,116.88,281a73.26,73.26,0,0,1-7.76.42c-16.15,0-43.89-6-48.15-46-1.62-15.18,1.4-27.15,9-35.56C80,188.64,96,186.29,107.6,186.29c2.71,0,5.22.12,7.41.3a68.09,68.09,0,0,1-6.64-15.45c-3.58-12.56-4.45-31.4,11.71-49.78,10.54-12,22.32-18.06,35-18.06a44.58,44.58,0,0,1,22.36,6.39,104.15,104.15,0,0,1,8.19-34.32c8.58-19.59,27.73-43.68,70.31-47.24,5.35-.45,10.49-.68,15.26-.68,24.33,0,41.1,5.8,49.85,17.23a30.81,30.81,0,0,1,6.06,14.63,178.36,178.36,0,0,1,18.65-17.74C367,24.22,389.06,15,409.72,15c14.85,0,29.2,4.62,42.66,13.73,28,19,44.52,39.64,49.13,61.49a53.4,53.4,0,0,1,.75,18.63c7.3-3.79,18.59-8.37,30.43-8.37,13.79,0,32.13,6.42,41.21,37,6.39,21.53,5.5,39.85-2.65,54.45A54.6,54.6,0,0,1,546.4,214.6c9,9,28.25,31.3,30.13,59.62,1.29,19.59-6,38.22-21.66,55.36-20.92,22.89-43.1,34.49-65.93,34.49a65.42,65.42,0,0,1-30.13-7.34,57.34,57.34,0,0,1-1.2,15.42c-2.67,12.23-10.84,29.45-34.68,42a49.53,49.53,0,0,1-23.22,6c-24.9,0-44.66-19.7-54.34-31.62-1.35,10.28-5.46,25.87-17.59,38.7-13.37,14.15-33.06,21.32-58.52,21.32Z"/><path class="cls-2" d="M409.72,18.87c13,0,26.66,3.69,40.51,13.07,55.07,37.29,50,72,47,82.06a1.06,1.06,0,0,0,1.57,1.22c5.61-3.43,19.44-10.88,33.85-10.88s29.6,7.54,37.54,34.28c16.12,54.32-20.64,71-29.19,74a1.06,1.06,0,0,0-.35,1.79c9.21,8.44,60,59.27,11.36,112.55-23.8,26-45.92,33.25-63.11,33.25a61.27,61.27,0,0,1-32.9-9.57,1.07,1.07,0,0,0-1.63,1.08c1.53,9.05,3.56,39.6-33.27,59a45.44,45.44,0,0,1-21.43,5.55c-27.73,0-49.27-26.92-55.64-35.82a1.06,1.06,0,0,0-1.93.58c-.46,13.65-6.69,63.65-72.88,63.65l-2.06,0c-68.74-1.06-59-68.93-55.46-86.22a1.06,1.06,0,0,0-1.82-.94c-7.68,8.1-30.62,29.68-56.93,29.68-11.32,0-23.26-4-34.88-14.79-39.17-36.39-3.45-83.33,6.23-94.64a1.07,1.07,0,0,0-1-1.74,70.29,70.29,0,0,1-14.19,1.48c-16.9,0-40.52-6.63-44.34-42.56C60.66,196.32,89,190.12,107.6,190.12a87.35,87.35,0,0,1,12.73.93,1.06,1.06,0,0,0,1-1.67c-5.68-8-23.21-37.27,1.61-65.5,11.28-12.82,22.56-16.75,32.15-16.75,11.57,0,20.67,5.73,24.31,8.42a1.07,1.07,0,0,0,1.7-.85c.12-12.79,4.29-76.83,75.17-82.76,5.39-.45,10.36-.66,14.94-.66,50.13,0,53.07,25.23,52.31,35.06a1.06,1.06,0,0,0,1.88.78c9.2-11.07,43.16-48.25,84.3-48.25m0-7.66c-12.14,0-24.64,2.94-37.16,8.73a137.82,137.82,0,0,0-29.2,18.67,180.14,180.14,0,0,0-14.2,13,33.89,33.89,0,0,0-5-9.26c-9.51-12.43-27.31-18.73-52.89-18.73-4.88,0-10.12.24-15.58.69-44.45,3.72-64.5,29-73.49,49.52a106.7,106.7,0,0,0-8,29.89,46.66,46.66,0,0,0-19.08-4.25c-13.86,0-26.61,6.52-37.9,19.36-17.31,19.68-16.36,39.88-12.52,53.36a68.81,68.81,0,0,0,3.85,10.28h-.93c-17.78,0-31.79,5.14-40.52,14.84-8.32,9.26-11.66,22.22-9.93,38.52,2,18.25,8.81,31.76,20.4,40.14,8.48,6.15,19.1,9.26,31.56,9.26h.07C101.1,297.41,92,315.66,92.53,335.36,93,351.58,99.84,366,112.9,378.08c12,11.17,25.52,16.84,40.09,16.84,19.39,0,36.76-10.11,48.75-19.55-1.05,16.13.56,37.66,12.87,54,11.2,14.9,28.85,22.63,52.47,23,.74,0,1.46,0,2.18,0,26.55,0,47.18-7.57,61.3-22.52,9.95-10.52,14.8-22.79,17.14-32.84,11.22,12.09,29.58,26.95,52,26.95a53.19,53.19,0,0,0,25-6.43c25.15-13.27,33.8-31.58,36.64-44.6a61.91,61.91,0,0,0,1.32-10.27,69.15,69.15,0,0,0,26.27,5.2,75.17,75.17,0,0,0,32.36-7.6c12.52-5.94,24.76-15.41,36.4-28.14,16.4-17.94,24-37.52,22.65-58.19-1.74-26.15-17.53-47.3-27.66-58.33a57.59,57.59,0,0,0,21.91-21.79c8.66-15.54,9.66-34.86,3-57.41-4.12-13.88-10.47-24.3-18.89-31a40.7,40.7,0,0,0-26-8.77c-9.61,0-18.84,2.82-26.1,5.94a60.38,60.38,0,0,0-1.33-13.16c-2.15-10.2-6.88-20.32-14.06-30.09-8.68-11.81-21-23.18-36.68-33.78-14.1-9.55-29.17-14.39-44.8-14.39Z"/><path class="cls-1" d="M96.55,575.59a28.52,28.52,0,0,1-6.93-.89c-6.8-1.7-11.36-5.31-13.54-10.72-3-7.55-.39-16.89,2.34-23.37-.3,0-.61,0-.93,0-6.06,0-14.47-2.63-20.14-15.18-3.1-6.85-1.7-12.07,0-15.25,4-7.36,13.45-11.32,20.24-13.29a22.33,22.33,0,0,1-5.44-12.21C71.43,477.08,75.06,469.42,83,462c6.13-5.79,12.77-8.73,19.72-8.73,10.45,0,18.93,6.68,23.62,11.4,3.53-5.85,10.77-14.2,23.32-14.2a35,35,0,0,1,13.76,3.11c9.21,4,14.76,9.52,16.49,16.48a21.73,21.73,0,0,1-1,12.79c.85-.07,1.75-.1,2.67-.1,7.11,0,13,2.15,16.88,6.21,4.21,4.36,6.2,10.75,5.91,19-.52,15.33-8,22.82-14.26,26.4a34,34,0,0,1-11.69,4,18.87,18.87,0,0,1,1.42,11.23c-1.44,7.47-7.59,13.8-18.28,18.82a33.9,33.9,0,0,1-14.29,3.52c-12.51,0-19.94-8.67-23.91-15.68C119.05,564.43,110.66,575.59,96.55,575.59Z"/><path class="cls-2" d="M149.63,454.25a30.87,30.87,0,0,1,12.25,2.8c20.6,8.88,14.58,23.28,11.34,28.68a1,1,0,0,0,1.09,1.53,38.37,38.37,0,0,1,7.23-.73c8.57,0,19.58,3.42,19,21.24-.88,25.69-22.8,27.15-27.74,27.15-.63,0-1,0-1,0s15.85,17-11.89,30A29.7,29.7,0,0,1,147.23,568c-13.91,0-20.7-13.07-23-18.86a1,1,0,0,0-1.92,0c-2.55,6.53-10.37,22.59-25.74,22.59a24.69,24.69,0,0,1-6-.77c-19.57-4.91-10.27-26.21-6.37-33.58A1,1,0,0,0,83,536a18.61,18.61,0,0,1-5.47.86c-5.23,0-11.92-2.46-16.66-12.93-7.49-16.57,15.09-22.85,22.5-24.43a1,1,0,0,0,.44-1.8c-4.74-3.94-15.93-16.14,1.83-32.92,6-5.63,11.79-7.68,17.09-7.68,11.42,0,20.45,9.48,23.45,13.06a1,1,0,0,0,1.72-.23c2-4.25,8.42-15.63,21.77-15.63m0-7.66c-9.07,0-17.11,3.94-23.27,11.38-.24.29-.47.59-.7.88-5.44-4.61-13.44-9.46-23-9.46-8,0-15.48,3.29-22.35,9.78-8.81,8.32-12.84,17-12,25.9a24.66,24.66,0,0,0,3.19,9.87C65,497.48,57.65,501.68,54,508.37c-2.14,3.94-3.91,10.38-.16,18.66,5.36,11.87,13.2,15.84,19.18,17-2.11,6.53-3.31,14.45-.51,21.38,1.83,4.55,6.12,10.49,16.16,13a32.17,32.17,0,0,0,7.86,1c10.56,0,19.87-5.55,26.93-16l0,0c6.28,8.09,14.44,12.35,23.72,12.35a37.57,37.57,0,0,0,15.92-3.89c11.86-5.56,18.73-12.82,20.41-21.56a21.72,21.72,0,0,0-.19-9.1,36,36,0,0,0,8.61-3.53c7.06-4.06,15.6-12.49,16.18-29.58.32-9.32-2-16.65-7-21.78-4.21-4.35-10.15-6.86-17.28-7.31a23.65,23.65,0,0,0-.3-9.86c-2-8.18-8.32-14.59-18.68-19.06a38.8,38.8,0,0,0-15.28-3.43Z"/></svg>