<svg id="Layer_1" data-name="Layer 1" xmlns="http://www.w3.org/2000/svg" viewBox="0 0 600 600"><defs><style>.cls-1{fill:#fff;}.cls-2{fill:#2b3990;}.cls-3{fill:#009344;}.cls-4{fill:#8dc63f;}.cls-5{fill:#00aeef;}.cls-6{fill:#f7941e;}.cls-7{fill:#231f20;}</style></defs><title>doodle</title><path class="cls-1" d="M135.15,365.1a3.09,3.09,0,0,0-2.76.36l-.1,0a2,2,0,0,0-1.58,1,4.52,4.52,0,0,0,.3,4.36,3.85,3.85,0,0,0,4.22,1.71,3.75,3.75,0,0,0,2.62-3.81A4.17,4.17,0,0,0,135.15,365.1Z"/><path class="cls-1" d="M315.83,368.56a5.43,5.43,0,0,0-5.41-3.08,3.6,3.6,0,0,0-2.26,1.2,4.15,4.15,0,0,0-2,2.79,5.19,5.19,0,0,0,2.35,6,5,5,0,0,0,6.15-.32A5.67,5.67,0,0,0,315.83,368.56Z"/><path class="cls-1" d="M148.4,358.78A5.45,5.45,0,0,0,143,355.7a3.65,3.65,0,0,0-2.26,1.2,4.17,4.17,0,0,0-2,2.8,5.18,5.18,0,0,0,2.36,6,4.93,4.93,0,0,0,6.14-.33A5.69,5.69,0,0,0,148.4,358.78Z"/><path class="cls-2" d="M477.49,540.84a28.33,28.33,0,0,1-2,2.66,36.81,36.81,0,0,1-5.64,12.14c3,1.09,6.52,1.68,9-.2,3-2.3,0-10.34-1-13.58C477.71,541.52,477.6,541.18,477.49,540.84Z"/><path class="cls-3" d="M470.78,536.36a42.51,42.51,0,0,1,2.61-5.78,71.35,71.35,0,0,0-6.64-11c-1-1.33-2.78-3.72-5-6.24A43.6,43.6,0,0,1,456,529.07a48.19,48.19,0,0,1,5.14,7.5,43.58,43.58,0,0,1,3.82,8.67,59.65,59.65,0,0,1,4.8-8A3.82,3.82,0,0,1,470.78,536.36Z"/><path class="cls-4" d="M454.33,531.86q-1.68,2.57-3.56,5a73.66,73.66,0,0,1,4.1,7.7c1.77,3.71,3.29,7.78,3.34,11.92a53.17,53.17,0,0,0,5.6-9,57.75,57.75,0,0,0-4.78-9.65A46.66,46.66,0,0,0,454.33,531.86Z"/><path class="cls-5" d="M470.55,512.81c7.87,9.68,14.81,22.65,16.46,35.45a14.47,14.47,0,0,1,8.66.17c8.62,2.84,10.72,12.19,16,18.46a25.76,25.76,0,0,0,20.48,9c3.59-.16,8.11-1.25,9.42-5-9.35-20.36-18.71-40.25-31-59.11-10.57-16.26-25-37.95-46.62-32.24-.35.41-.69.83-1,1.26-4.54,5.58-9.05,11.16-13.87,16.47C457.23,498.27,466.27,507.55,470.55,512.81Z"/><path class="cls-2" d="M454.49,507.05c.06-.14.13-.26.2-.39-3.74-2.72-7.54-4-10.27-1.05-2.94,3.13-1.54,9.13.18,12.46a19.26,19.26,0,0,0,3.78,5C451,517.91,452.36,512.4,454.49,507.05Z"/><path class="cls-2" d="M485.84,479.29c9.57,4.95,16.23,14.14,22.21,22.8,13,18.82,25.21,39.38,33.84,60.81-.27-2.2-.7-4.36-1-6.19-3.05-16.86-11.78-32-21.46-45.91-4.93-7.08-10.2-13.93-15.53-20.71s-11.22-14.46-19.3-18c-7.51-3.32-12.84-.59-17.55,4.12C473.26,474.82,480.21,476.38,485.84,479.29Z"/><path class="cls-4" d="M371.39,564.18c-2.34-.44-4.66-1-6.95-1.58a51.14,51.14,0,0,1-2.45,6,36.1,36.1,0,0,1-5.15,8.41c3.12,1,6.28,2,9.45,2.81a46,46,0,0,0,3.8-8.64A35.93,35.93,0,0,0,371.39,564.18Z"/><path class="cls-3" d="M265.2,548.14c3.94,8.53,1.76,20.33-3.15,28.82a73.36,73.36,0,0,0,20.74-2.46,76.71,76.71,0,0,0,10.87-3.76c-.17-9.12-5.88-17.72-10.21-25.81A68.72,68.72,0,0,1,265.2,548.14Z"/><path class="cls-4" d="M262.84,548.2h-1.59a62.22,62.22,0,0,1-10.82-1.1c1.8,4.53.57,11-.6,15.41a32,32,0,0,1-5.67,11.72l.51.15a70.86,70.86,0,0,0,15.09,2.47,46.4,46.4,0,0,0,3.76-12.43C264.32,558.82,263.2,553.69,262.84,548.2Z"/><path class="cls-4" d="M292.82,540.68a43.17,43.17,0,0,1-6.5,3.21,78.77,78.77,0,0,1,6.73,14c1.44,3.69,3,7.82,2.87,11.83q2-1,4-2.07c.59-.34,1.17-.7,1.74-1.06a38.17,38.17,0,0,0-1.41-11.81C298.66,549.35,295.62,545.34,292.82,540.68Z"/><path class="cls-4" d="M332.09,555.53c1.87-3.13,1.77-6.11,2.2-9.4-1-.9-1.89-1.82-2.8-2.78a21,21,0,0,1-5.27,7.57c-2.5,2.35-5.65,4.27-9,4.35,2.67,2.2,5.46,4.28,8.34,6.25C328.06,559.91,330.37,558.42,332.09,555.53Z"/><path class="cls-3" d="M302,550.79a36.79,36.79,0,0,1,1.56,14.47c2.53-1.81,4.94-3.83,7.47-5.6A112.87,112.87,0,0,1,302,550.79Z"/><path class="cls-3" d="M361.38,561.71a82.05,82.05,0,0,1-8.68-3.23,63.19,63.19,0,0,1-15.4-9.67c-.09,5.47-4.14,11.92-9.05,14.49A129.7,129.7,0,0,0,353.91,576c1.75-2.68,4-5.17,5.41-8A30.37,30.37,0,0,0,361.38,561.71Z"/><path class="cls-3" d="M374.6,564.71a35.59,35.59,0,0,1-5.76,15.71,123.19,123.19,0,0,0,25.83,3.38,94.78,94.78,0,0,0,11.06-.44c.61-4.54,1.7-9,1.68-13.66a36.2,36.2,0,0,0-.59-6A90.17,90.17,0,0,1,374.6,564.71Z"/><path class="cls-3" d="M423.88,572.45c0,1.52.11,5.14-.81,7.43a76.28,76.28,0,0,0,18.61-8.68,71.06,71.06,0,0,0,14.85-12.77c-1.31-5.13-2.52-9.91-5.08-14.65-.81-1.49-1.8-2.94-2.79-4.39a71.22,71.22,0,0,1-26.35,19.34A47.85,47.85,0,0,1,423.88,572.45Z"/><path class="cls-6" d="M44.79,343.72c.67,13.31,11.24,24.41,24,27.11,3.28.69,4.52,5.41,2,7.64-21.93,19.44-14.56,53.1,8.59,67.91,11.43,7.3,25.1,9.09,38.21,11.28l45.27,7.55q46.14,7.73,92.29,15.45c8.62,1.43,17.4,2.82,26.23,3.73a3.44,3.44,0,0,1,2.53.25c18.3,1.68,36.71,1.12,54.07-5.59,23.47-9.08,43.77-31.81,37.84-58.52-.41-1.85.21-4.47,2.16-5.31,16.9-7.26,34.42-17.1,43.7-33.68,8-14.23,8-34.07-4.48-45.7-1.75-1.63-1.91-5.09,0-6.7,13.05-11,27.12-22.69,32.93-39.31,5.94-17,3.56-35.64-.63-52.75-7.31-29.82-23.6-74.27-62.18-69.82-3.08.35-4.6-3-4.19-5.5,3.88-23.14-3.24-48-19.16-65.33a79.63,79.63,0,0,0-61.48-25.25A4.3,4.3,0,0,1,298.27,67c-1.54-18.29-10.89-44.46-32.83-45.17-12.64-.41-25.11,7.27-33.74,16a62,62,0,0,0-16.45,30.46,4.1,4.1,0,0,1-6,2.43c-7.13-4.72-16.41-.63-21,5.86-5.76,8.22-5.76,19.26-6,28.87a4.14,4.14,0,0,1-4.06,4.06c-23.64.51-46.38,13.86-57.9,34.63-11.15,20.12-10.55,45.32.2,65.38,1.12.58,2.23,1.2,3.31,1.9,4.29,2.78.9,9.36-3.33,7.9a3.38,3.38,0,0,1-3.22-1.56c-.07-.11-.13-.22-.2-.32-17.2-9-39.27.67-49.81,15.85-15.17,21.83-8.84,51.91,1.25,74.4,1.21,2.69.32,5.71-2.7,6.64C53.38,318.12,44.13,330.52,44.79,343.72Zm78.66,84.55c-1,5.54-7.23,7.69-12.09,5.75-5.37-2.13-7.63-7.4-7.77-12.79-4.81.72-9.29-2.24-11.09-7-2.42-6.36-.3-13.56,4.38-18.2.7-.69,1.62.32,1.05,1a18.17,18.17,0,0,0-3.7,12.23c.43,5.39,4.63,10.68,10.46,8.57a1.48,1.48,0,0,1,1.87,1.42c-.2,3.69.41,7.74,3.37,10.3,4.07,3.52,8.8,1.9,11.48-2.23A1.12,1.12,0,0,1,123.45,428.27Zm-17.88-50.14c1,7.39,3.87,13.94,5.62,21.08a1,1,0,0,1-1.76.75c-4.23-6.09-5.76-14.38-6.59-21.64a67.54,67.54,0,0,1,1.79-23.82c.19-.79,1.32-.44,1.19.33A79.46,79.46,0,0,0,105.57,378.13Zm25.76,46.51c-7.59-.69-15.39-8.76-17.47-15.78-.17-.56.64-1.11,1-.61a60.48,60.48,0,0,0,7.12,8.36c3,2.66,6.57,4.2,9.72,6.57C132.27,423.59,132.2,424.72,131.33,424.64Zm207.61,32.24c-5.3,3-12.83,1.71-17.36-2.42-1.9,6.92-9.85,11.54-16.73,7.26-3.25-2-6.3-6.35-5.51-10.4.35-1.81,1.79-3.52,3.45-1.77.51.53,0,1.57-.76,1.31-1-.35,1.83,6,2.21,6.39a8.21,8.21,0,0,0,6.23,2.83c5.36,0,8.7-4.9,8.17-10-.17-1.63,2.36-2.24,3.08-.83,3.38,6.66,13.47,7.7,18.42,2.38,4.54-4.87,3.46-10.85,4.66-16.77a1.29,1.29,0,0,1,2.46,0C349.54,442.55,346.05,452.89,338.94,456.88Zm23.54-56.31a149,149,0,0,1-10,14.91c-2.6,3.49-5.13,7.1-9.2,8.94A.27.27,0,0,1,343,424c6.54-6.82,11.87-16,16.5-24.2a72.44,72.44,0,0,0,6.64-15.28c1.36-4.67,1.51-9.44,2.46-14.16a1.1,1.1,0,0,1,2.1,0C372.85,380.39,367.35,392.08,362.48,400.57Zm45.7-45.34c2.35-4.23.41-8.4-1.29-12.41a1,1,0,0,1,1.59-1.23c10,9.11-2.05,25.89-11.79,19.36-.31,6.07-2.77,11.94-9.87,12.68-3,.31-12.32-2.5-10.51-7.08a1,1,0,0,1,1.8-.24c.05.09.11.17.16.25a.75.75,0,0,1-.26,1l-.12.07a5.28,5.28,0,0,1,2.87,1.87l2.1,1a8.34,8.34,0,0,0,6.66-.68c4.52-2.56,4.53-7.68,4.19-12.26a1.49,1.49,0,0,1,2.52-1C399.68,360.66,405.59,359.91,408.18,355.23Zm-41.53-65.5a1.45,1.45,0,0,1,2.4-1.4q3.49,2.75,4.5-1.15,2.54-2.39.45-5.47c-.5-1.16.66-3,2-2,7.86,5.7,15.1-.66,16.87-8.69,1.88-8.53-.55-18.39-10.5-19.5a1.4,1.4,0,0,1,0-2.79c12.4-1.35,15.52,14,13.45,23.11-2,8.76-9.84,15.64-18.2,12.16.34,2.58-.2,5.21-2.42,7a6,6,0,0,1-5.12,1.17c.61,8.4-8.48,13.72-16.76,11.55a14.84,14.84,0,0,1-9-21.92c.37-.61,1.45-.2,1.18.5-2.51,6.59-1.06,14.5,5.76,17.87C358.61,303.76,370,299.33,366.65,289.73ZM305,226.16c.34-.75,1.59-.21,1.32.56-2.13,6,1.65,13.13,8.44,13.22,5.68.08,9.16-4.59,8.93-9.62a5.25,5.25,0,0,1-.62-3.36,1.51,1.51,0,0,1,2.95-.4,13,13,0,0,1,.64,2.9c2.28,2.61,10.14-.8,11.57-2.38,3-3.36,2.94-8.17.8-11.92-.61-1.06.43-2.81,1.74-2.26,8,3.36,15.27-3.5,15-11.62-.28-8.54-6.52-11.87-11.91-17.08a1.12,1.12,0,0,1,1.08-1.86c9,2.4,15.19,13.4,13.73,22.31-1.24,7.62-8.25,13.26-15.67,12.09,1.62,5.55-.19,11.69-5.56,14.8a14.61,14.61,0,0,1-10.83,1,11.57,11.57,0,0,1-12.53,10.15C305.6,242,301.68,233.45,305,226.16ZM230.4,114.86c1.1-.07,1.21,1.53.25,1.84-2.79.89.37,8.45,1.16,9.74a12.06,12.06,0,0,0,6.71,5.32c6.5,2,12.81-2.82,12.17-9.7a1.61,1.61,0,0,1,2.41-1.38c4.28,2.68,6.86-3,7.56-6.24a27,27,0,0,0,.15-10.13c-.19-1.21,1.08-2.71,2.35-1.8,3.3,2.38,7.36-.46,8.13-4,.66-3-.41-6.25-1.47-9.08-1.37-3.63-4.44-13-8.79-14.17-1.17-.3-.81-1.89.27-2,4.4-.38,6.24,4,8,7.37,2.29,4.46,4.74,9.4,5.22,14.45.56,5.86-4.31,13-10.21,11.51.45,4.94,0,10.38-2.81,14.41a7.54,7.54,0,0,1-7.59,3.43c-.77,8.64-10.45,13.36-18.42,9.37a15.6,15.6,0,0,1-8.14-11.92C227,119.15,226.94,115.1,230.4,114.86Zm-18.2,85.22a.67.67,0,0,1,1.29.36c-.9,3.66-1.91,7.77-.2,11.33,1.58,3.31,5.08,3.89,8.42,2.6a6.59,6.59,0,0,0,3.29-3,13.92,13.92,0,0,1,.4-4.49,1.36,1.36,0,0,1,2.61,0,6.84,6.84,0,0,1-.18,4.56c.83,7.5,8.31,14.7,15.79,15,10.2.35,11.77-11.43,10.94-19.21a4.9,4.9,0,0,1-.19-1.54c.07-1.7,2.86-2.27,3.12-.42,0,.13,0,.28.05.42h0v0l.09.76c1,3.66,10.15,4.84,12.4,2.81,2.52-2.26,3.32-8.76,4.44-11.79a1.45,1.45,0,0,1,2.8.77c-1.38,5.65-2.56,14.87-9.89,15.36a17.76,17.76,0,0,1-9.56-2.48c-.19,8.89-3.66,18.73-14.21,18.34-7.93-.29-15.77-6.93-18-14.69-2.34,2.3-5.81,3.64-8.9,2.9C208.61,215.72,210.36,205.77,212.2,200.08ZM151.36,164.5a.65.65,0,0,1,1.13.66c-2,3.81-5.7,10.13-5.43,14.62.46,7.82,11.87,7.73,16.94,6.33,1.25-.35,2.59,1.15,1.78,2.31-3.24,4.64-2.4,11.79,3.05,14.42s9.62-.93,13.32-4.47a1.12,1.12,0,0,1,1.85,1.08c-1.35,7.09-11.58,9.14-17.15,6.07s-7.46-10.09-5.34-15.76c-5.64.67-12.4-.4-15.79-5C141.25,178.62,148,169.48,151.36,164.5Zm-8.71,68c.34-.24.76.23.55.56-2.11,3.43-5.38,7-4.78,11.31.76,5.54,6.12,7.68,11.07,7.7a1.57,1.57,0,0,1,1.5,2c-1.39,5-1.52,10.78,2.41,14.79,4.21,4.28,8.92,2.94,12.93-.59.85-.74,2.58,0,2.09,1.22-2.27,5.89-10.15,6.61-15,3.51-6.13-3.94-7.26-11.3-5.88-17.92-5-.56-9.79-3.07-11.5-8.22C134.09,241,138,235.79,142.65,232.54ZM127.72,322.4c13.75-11.42,32.65-18.56,50.61-18.09,1.38-5.45,4.56-10.74,7.7-14.88,5.91-7.82,15.78-13.92,25.38-8.71,2.17,1.19.57,4.14-1.58,3.75-9.22-1.66-16.15,4.6-20.66,11.88-3.71,6-8.25,14.91-1.78,20.74,12.09,10.9,27.17-4.2,35.05-12.62,2.16-2.31,6.53-.57,6.37,2.64-.2,3.91-3.57,12.39.31,14.91,5.38,3.49,8.2-7,9.07-10.42.75-2.94,5.51-3.92,6.88-.9,3.54,7.85,12.74,9.62,20.6,9.36,6.16-.2,9.27-2.35,11.21-8.19a54.72,54.72,0,0,0,2.66-17.22c0-4.83,7.43-4.82,7.5,0a64.33,64.33,0,0,1-.9,11.85c20.08.72,40.25,7.21,56.26,19.5,7.27,5.58,13.16,12.61,15.92,21.46,2.88,9.2,2.59,19.35,1.24,28.8-2.15,15.13-8.24,30-18.53,41.45-11.53,12.83-27.08,18.22-44,19.31-20.42,1.32-41.29.51-61.71-.42a458.14,458.14,0,0,1-60.83-6.44c-17.88-3.24-37.15-6.61-49-21.71a75.25,75.25,0,0,1-15.72-44C109.41,348.43,115.25,332.77,127.72,322.4Zm-39.87-33c.76.08,1.05,1.24.2,1.42-4.94,1-8.61,5.94-4.7,10.24,2.1,2.32,5.72,2.62,8.66,2.93,1.17.12,2.23,1.68,1.09,2.62-2.33,1.92-5.2,4.13-6.11,7.15-1.44,4.78,2.88,8.75,7.52,7.84a1.61,1.61,0,0,1,1.8,2.34c-2.47,4.51-2.75,10,3.36,11.64,3.5.95,6.57-.76,10-.88a1.09,1.09,0,0,1,.76,1.85c-4.09,3.54-11.52,3.42-15.71,0s-4-7.53-2.35-11.7a9.09,9.09,0,0,1-8.26-6c-1.83-5,1-9.11,4.43-12.38-4.42-.89-8.82-2.8-9.66-7.74A8.1,8.1,0,0,1,87.85,289.37Z"/><path class="cls-3" d="M248.19,552.71a43,43,0,0,1-.13-6.1,60.63,60.63,0,0,1-17.76-7.17h0c.72,7.79-6,17-12.87,20.77a76.82,76.82,0,0,0,24.5,13.35,45.5,45.5,0,0,0,5.18-11.78A35.5,35.5,0,0,0,248.19,552.71Z"/><path class="cls-4" d="M408.14,583.1a86.32,86.32,0,0,0,12.08-2.39c2.34-2.65.81-12.06.39-15a41.52,41.52,0,0,0-1.36-5.78,82.82,82.82,0,0,1-9.24,3,60.93,60.93,0,0,1,.24,6.76C410.18,574,409.75,578.91,408.14,583.1Z"/><path class="cls-2" d="M374.45,518.56c7.73,12.47,15.34,25,23,37.51,1.15-.14,2.29-.3,3.42-.49.81-.13,1.62-.28,2.43-.43l-.08-.1q-8.55-12.81-17.05-25.67c-5.22-7.87-10.08-16.21-15.85-23.69-2.85-3.71-6.83-7.52-11.78-7.84a10.16,10.16,0,0,0-6.42,2C362.49,500.29,369.39,510.39,374.45,518.56Z"/><path class="cls-5" d="M358.35,551.47c1.81.68,3.66,1.29,5.53,1.84a.79.79,0,0,1,1.34.29s0,.06,0,.09a84.47,84.47,0,0,0,28.62,2.73l-18.29-29.89c-6.35-10.4-12.55-23.7-26.43-24.27h0c-1.06.95-2.07,1.93-3.05,2.81-6.58,5.86-13,12.05-20,17.33q1.32,2.34,2.79,4.59C336.05,538,345.94,546.79,358.35,551.47Z"/><path class="cls-3" d="M296.73,532.17A78.65,78.65,0,0,0,303,541a100,100,0,0,0,12,12.31c3.86,0,7.39-2.42,9.94-5.19a19.39,19.39,0,0,0,3.2-4.71c.42-.87.71-1.78,1.06-2.65a89.71,89.71,0,0,1-11.53-16.94,32.55,32.55,0,0,1-8.64,5.72C305.8,531,300.89,532.56,296.73,532.17Z"/><path class="cls-4" d="M290.35,519.17a79.54,79.54,0,0,0,4.92,10.5c4.7.51,10.32-1.42,14.1-3.49a24,24,0,0,0,6.6-5.58,109.55,109.55,0,0,1-4.39-10.37C306.77,515.89,297.69,518.87,290.35,519.17Z"/><path class="cls-1" d="M120.06,378.84c3.69,14.15,11.72,28.84,25.48,35.2,7.49,3.45,15.94,5,24,6.57q13.47,2.67,27.13,4.25c17.76,2.08,35.64,3,53.51,3.34,17.45.34,35.69,1.54,53-.71,14.52-1.88,27-8.92,35.4-21a73.87,73.87,0,0,0,12.74-37.59c.49-8.1.09-16.63-3.75-23.95-3.6-6.84-9.66-12.06-16.09-16.17a91.09,91.09,0,0,0-47.26-13.93,2.72,2.72,0,0,1-.3,0c-.42,1.14-.87,2.26-1.38,3.34-2.83,5.92-7.79,8.69-14.18,9.3-8.63.82-18.92-.82-25.39-6.86-2.75,5.83-7.29,10.74-14.57,9.34s-8.32-7-8-12.86c-5.51,5-11.79,9.22-19.17,10.1-7.89.95-17.15-2.12-21.38-9.23a15.74,15.74,0,0,1-2.16-7c-17.93,1-38.47,8.84-50.11,22.77C117.2,346.14,116.13,363.75,120.06,378.84ZM311.6,359.73a12.85,12.85,0,0,1,9.22,4.12c5,5.81,2.22,15-4.31,18.32-7.59,3.86-16.54-2-17.5-10.11C298.36,366.56,305.3,354.46,311.6,359.73Zm-11.33,32.51a4.88,4.88,0,0,1,3.33-1.38,4.71,4.71,0,0,1,3.33,8,4.86,4.86,0,0,1-3.33,1.37,4.79,4.79,0,0,1-4.71-4.7A4.84,4.84,0,0,1,300.27,392.24Zm-89.33-19.56a1.59,1.59,0,0,1,3.1.42c.75,6.69,3.63,16.07,12.31,13.06,7.44-2.58,7.69-10.91,12.32-16a2.49,2.49,0,0,1,4.13,1.09c2.18,10.45-8.44,22.14-18.82,22.32C212.84,393.73,207.3,382.23,210.94,372.68ZM146.53,389.6a4.38,4.38,0,0,1-6.19,0,4.38,4.38,0,0,1,3.09-7.47,4.54,4.54,0,0,1,3.1,1.28,4.38,4.38,0,0,1,0,6.19Zm-.63-39.66c8,.94,10,9.76,7.36,16.22-.89,2.14-1.94,3.61-4.17,4.47a10.21,10.21,0,0,1-4.48.65,11.53,11.53,0,0,1-7.1-3.22,1.43,1.43,0,0,1-1-.27l-.29-.09a3.86,3.86,0,0,1-2.73-2.74C131.31,357.31,137.8,349,145.9,349.94Z"/><path class="cls-4" d="M224.11,549.49c2.19-3.9,2.26-7.87,3.33-11.92a57.71,57.71,0,0,1-6-4.77c-1.11,4.24-5.33,8.42-8.4,11.21-2.31,2.11-4.92,3.94-7.86,4a83.68,83.68,0,0,0,10.27,10.52C218.88,556,221.93,553.39,224.11,549.49Z"/><path class="cls-4" d="M198.22,514.85c2.66-1.38,4.81-3.54,7.32-5.09a68.8,68.8,0,0,1-2.38-6.82c-4.48,3.49-10.9,5.31-16.34,5.49.66,2.83,1.38,5.64,2.19,8.43A17.92,17.92,0,0,0,198.22,514.85Z"/><path class="cls-3" d="M202.19,499.19a67.84,67.84,0,0,1-1.68-16.93,2.26,2.26,0,0,1,.4-1.24L179,477.37c3.28,9.4,5.08,19.32,7.32,29.1A32.57,32.57,0,0,0,197,503.05,28.27,28.27,0,0,0,202.19,499.19Z"/><path class="cls-3" d="M301.79,513.2c3.28-1.65,5.76-4.19,8.62-6.3a118.27,118.27,0,0,1-3.34-12.31,170.84,170.84,0,0,1-21.8-.53,77.33,77.33,0,0,0,4.24,22.79A38.75,38.75,0,0,0,301.79,513.2Z"/><path class="cls-3" d="M219.81,531.26a63.53,63.53,0,0,1-13-18.62c-4.2,4.39-11.18,7.58-17.09,6.46.56,1.81,1.16,3.6,1.83,5.38A84.2,84.2,0,0,0,203.59,546C211.38,545.94,214.86,535.7,219.81,531.26Z"/><path class="cls-7" d="M125.5,408.45c11.86,15.1,31.13,18.47,49,21.71a458.14,458.14,0,0,0,60.83,6.44c20.42.93,41.29,1.74,61.71.42,16.9-1.09,32.45-6.48,44-19.31,10.29-11.45,16.38-26.32,18.53-41.45,1.35-9.45,1.64-19.6-1.24-28.8-2.76-8.85-8.65-15.88-15.92-21.46-16-12.29-36.18-18.78-56.26-19.5a64.33,64.33,0,0,0,.9-11.85c-.07-4.82-7.48-4.83-7.5,0a54.72,54.72,0,0,1-2.66,17.22c-1.94,5.84-5.05,8-11.21,8.19-7.86.26-17.06-1.51-20.6-9.36-1.37-3-6.13-2-6.88.9-.87,3.38-3.69,13.91-9.07,10.42-3.88-2.52-.51-11-.31-14.91.16-3.21-4.21-4.95-6.37-2.64-7.88,8.42-23,23.52-35.05,12.62-6.47-5.83-1.93-14.74,1.78-20.74,4.51-7.28,11.44-13.54,20.66-11.88,2.15.39,3.75-2.56,1.58-3.75-9.6-5.21-19.47.89-25.38,8.71-3.14,4.14-6.32,9.43-7.7,14.88-18-.47-36.86,6.67-50.61,18.09-12.47,10.37-18.31,26-17.94,42A75.25,75.25,0,0,0,125.5,408.45Zm2.06-74.71c11.64-13.93,32.18-21.81,50.11-22.77a15.74,15.74,0,0,0,2.16,7c4.23,7.11,13.49,10.18,21.38,9.23,7.38-.88,13.66-5.11,19.17-10.1-.29,5.9.79,11.48,8,12.86s11.82-3.51,14.57-9.34c6.47,6,16.76,7.68,25.39,6.86,6.39-.61,11.35-3.38,14.18-9.3.51-1.08,1-2.2,1.38-3.34a2.72,2.72,0,0,0,.3,0,91.09,91.09,0,0,1,47.26,13.93c6.43,4.11,12.49,9.33,16.09,16.17,3.84,7.32,4.24,15.85,3.75,23.95a73.87,73.87,0,0,1-12.74,37.59c-8.43,12.06-20.88,19.1-35.4,21-17.35,2.25-35.59,1.05-53,.71-17.87-.35-35.75-1.26-53.51-3.34q-13.65-1.59-27.13-4.25c-8-1.59-16.48-3.12-24-6.57-13.76-6.36-21.79-21.05-25.48-35.2C116.13,363.75,117.2,346.14,127.56,333.74Z"/><path class="cls-7" d="M35.71,343.72c.64,14.64,10.29,27.8,23.48,33.6-15,18.23-13.89,45.43.91,64,8.37,10.5,20,17.41,32.84,21,16.06,4.46,33.09,6.22,49.51,9l30.23,5.05c.73,7.81,2.85,15.6,4.49,23.23a210.56,210.56,0,0,0,6.4,24.44,94.31,94.31,0,0,0,21.71,35.34c19.52,19.87,47.29,29.56,74.84,24.67a78,78,0,0,0,21.7-7.34c5.33-2.71,12-6.42,16.12-11.36a122.88,122.88,0,0,0,15.3,9.87c32.93,17.92,75.29,25.22,109.26,5.9A78.78,78.78,0,0,0,464,563.35l1.6-2c3.16,2.43,7.92,2.58,12,1.91s7-2.47,8.62-5.44a2.1,2.1,0,0,0,.22-.3c2.14-3.51,6.93-1.93,9.28.45,3.28,3.31,4.86,8.12,7.46,11.92a34.3,34.3,0,0,0,19.51,13.76c7.37,1.92,16.51,1.73,22.68-3.26,7.31-5.91,5.73-16.28,4.41-24.53-3.05-19-13-36.18-24.13-51.57-5.66-7.81-11.63-15.43-17.78-22.85-5.88-7.1-12.71-14.12-21.65-17.17-9.35-3.19-18.05,0-24.39,7.22a184.53,184.53,0,0,0-19.43,27.26,12.46,12.46,0,0,0-3.4,3.4c-5.56,8-1.36,20.42,6.67,25.57a61.87,61.87,0,0,1-9.23,11,64.19,64.19,0,0,1-25,14.36,3.93,3.93,0,0,0-.73-2.38q-10.12-15.15-20.33-30.23c-5.74-8.53-11.06-18.93-19.33-25.33-7.15-5.54-16.28-6.37-23.61-.75-4.66,3.58-8.83,7.89-13.15,11.86-3.78,3.48-7.61,6.87-11.14,10.59-3.65-7.37-6.58-15.08-9.77-22.68a102.68,102.68,0,0,0,25.74-5.61c27.85-10.14,51-35.68,46.53-66.47,18.53-8.3,37.35-20.33,46.05-39.34,7.31-15.95,7-36.1-4.26-49.86,10.26-8.73,20.37-18,27-29.85,7.54-13.39,9.55-29,8.13-44.12s-5.49-30.35-10.5-44.83c-4.9-14.16-11.37-28.26-22.1-39-10-10-23.54-16.85-37.72-16.8,2.36-24.07-5-48.56-21.19-66.83s-40.43-28.79-64.83-28.81c-3-21.78-14.66-46.92-39.05-49-14.66-1.26-29.41,7.06-39.72,16.85a70,70,0,0,0-18.84,30.86c-8.47-2.68-18.15.83-24.34,7.26-8.38,8.71-9.67,21.32-10,33-24.9,2.05-48.41,16.58-60.52,38.66-11,20.14-11.71,44.91-2.75,65.8-18.39-4-38.56,5.56-50,20.63-17.63,23.26-12.72,55.25-2.34,80.72C44.89,313.76,35,328.19,35.71,343.72ZM179,477.37,200.91,481a2.26,2.26,0,0,0-.4,1.24,67.84,67.84,0,0,0,1.68,16.93,28.27,28.27,0,0,1-5.15,3.86,32.57,32.57,0,0,1-10.68,3.42C184.12,496.69,182.32,486.77,179,477.37Zm7.78,31.06c5.44-.18,11.86-2,16.34-5.49a68.8,68.8,0,0,0,2.38,6.82c-2.51,1.55-4.66,3.71-7.32,5.09a17.92,17.92,0,0,1-9.21,2C188.2,514.07,187.48,511.26,186.82,508.43Zm102.69,25.36c-8.73,3.5-16.79,6.69-26.62,6.88a54.62,54.62,0,0,1-29-7.41,52.33,52.33,0,0,1-19.28-19.6c-5.59-10.09-6.16-21.31-9.87-32a0,0,0,0,0,0,0l41.43,6.92c10.8,1.8,21.84,3.69,32.92,4.89C278.51,508,282.51,521.62,289.51,533.79Zm-4.24-39.73a170.84,170.84,0,0,0,21.8.53,118.27,118.27,0,0,0,3.34,12.31c-2.86,2.11-5.34,4.65-8.62,6.3a38.75,38.75,0,0,1-12.28,3.65A77.33,77.33,0,0,1,285.27,494.06Zm-93.74,30.42c-.67-1.78-1.27-3.57-1.83-5.38,5.91,1.12,12.89-2.07,17.09-6.46a63.53,63.53,0,0,0,13,18.62c-4.95,4.44-8.43,14.68-16.22,14.78A84.2,84.2,0,0,1,191.53,524.48ZM205.17,548c2.94-.08,5.55-1.91,7.86-4,3.07-2.79,7.29-7,8.4-11.21a57.71,57.71,0,0,0,6,4.77c-1.07,4-1.14,8-3.33,11.92s-5.23,6.54-8.67,9.06A83.68,83.68,0,0,1,205.17,548Zm12.25,12.17c6.88-3.75,13.59-13,12.87-20.77h0a60.63,60.63,0,0,0,17.76,7.17,43,43,0,0,0,.13,6.1,35.5,35.5,0,0,1-1.09,9.06,45.5,45.5,0,0,1-5.18,11.78A76.82,76.82,0,0,1,217.42,560.2Zm27.25,14.19-.51-.15a32,32,0,0,0,5.67-11.72c1.17-4.4,2.4-10.88.6-15.41a62.22,62.22,0,0,0,10.82,1.1h1.59c.36,5.49,1.48,10.62.68,16.23a46.4,46.4,0,0,1-3.76,12.43A70.86,70.86,0,0,1,244.67,574.39Zm38.12.11A73.36,73.36,0,0,1,262.05,577c4.91-8.49,7.09-20.29,3.15-28.82a68.72,68.72,0,0,0,18.25-3.21c4.33,8.09,10,16.69,10.21,25.81A76.71,76.71,0,0,1,282.79,574.5Zm18.86-7.93c-.57.36-1.15.72-1.74,1.06q-2,1.1-4,2.07c.12-4-1.43-8.14-2.87-11.83a78.77,78.77,0,0,0-6.73-14,43.17,43.17,0,0,0,6.5-3.21c2.8,4.66,5.84,8.67,7.42,14.08A38.17,38.17,0,0,1,301.65,566.57Zm1.91-1.31A36.79,36.79,0,0,0,302,550.79a112.87,112.87,0,0,0,9,8.87C308.5,561.43,306.09,563.45,303.56,565.26Zm13.66-10c3.35-.08,6.5-2,9-4.35a21,21,0,0,0,5.27-7.57c.91,1,1.85,1.88,2.8,2.78-.43,3.29-.33,6.27-2.2,9.4-1.72,2.89-4,4.38-6.53,6C322.68,559.55,319.89,557.47,317.22,555.27Zm11,8c4.91-2.57,9-9,9.05-14.49a63.19,63.19,0,0,0,15.4,9.67,82.05,82.05,0,0,0,8.68,3.23,30.37,30.37,0,0,1-2.06,6.21c-1.38,2.87-3.66,5.36-5.41,8A129.7,129.7,0,0,1,328.25,563.3ZM356.84,577a36.1,36.1,0,0,0,5.15-8.41,51.14,51.14,0,0,0,2.45-6c2.29.62,4.61,1.14,6.95,1.58a35.93,35.93,0,0,1-1.3,7,46,46,0,0,1-3.8,8.64C363.12,579,360,578.05,356.84,577Zm101.37-20.55c0-4.14-1.57-8.21-3.34-11.92a73.66,73.66,0,0,0-4.1-7.7q1.88-2.4,3.56-5a46.66,46.66,0,0,1,4.7,6,57.75,57.75,0,0,1,4.78,9.65A53.17,53.17,0,0,1,458.21,556.45ZM465,545.24a43.58,43.58,0,0,0-3.82-8.67,48.19,48.19,0,0,0-5.14-7.5,43.6,43.6,0,0,0,5.72-15.72c2.22,2.52,4,4.91,5,6.24a71.35,71.35,0,0,1,6.64,11,42.51,42.51,0,0,0-2.61,5.78,3.82,3.82,0,0,0-1,.9A59.65,59.65,0,0,0,465,545.24Zm13.8,10.2c-2.43,1.88-6,1.29-9,.2a36.81,36.81,0,0,0,5.64-12.14,28.33,28.33,0,0,0,2-2.66c.11.34.22.68.32,1C478.76,545.1,481.76,553.14,478.79,555.44Zm5.78-83.38c8.08,3.57,14,11.27,19.3,18s10.6,13.63,15.53,20.71c9.68,13.9,18.41,29.05,21.46,45.91.33,1.83.76,4,1,6.19-8.63-21.43-20.84-42-33.84-60.81-6-8.66-12.64-17.85-22.21-22.8-5.63-2.91-12.58-4.47-18.82-3.11C471.73,471.47,477.06,468.74,484.57,472.06Zm-21.66,8.76c.35-.43.69-.85,1-1.26,21.58-5.71,36.05,16,46.62,32.24,12.27,18.86,21.63,38.75,31,59.11-1.31,3.77-5.83,4.86-9.42,5a25.76,25.76,0,0,1-20.48-9c-5.26-6.27-7.36-15.62-16-18.46a14.47,14.47,0,0,0-8.66-.17c-1.65-12.8-8.59-25.77-16.46-35.45-4.28-5.26-13.32-14.54-21.51-15.52C453.86,492,458.37,486.4,462.91,480.82ZM444.6,518.07c-1.72-3.33-3.12-9.33-.18-12.46,2.73-2.9,6.53-1.67,10.27,1.05-.07.13-.14.25-.2.39-2.13,5.35-3.46,10.86-6.11,16A19.26,19.26,0,0,1,444.6,518.07Zm-4.31,29.63a73.55,73.55,0,0,0,8.37-8.31c1,1.45,2,2.9,2.79,4.39,2.56,4.74,3.77,9.52,5.08,14.65a71.06,71.06,0,0,1-14.85,12.77,76.28,76.28,0,0,1-18.61,8.68c.92-2.29.78-5.91.81-7.43a47.85,47.85,0,0,0-1.57-13.72A73.74,73.74,0,0,0,440.29,547.7ZM410,562.94a82.82,82.82,0,0,0,9.24-3,41.52,41.52,0,0,1,1.36,5.78c.42,2.9,1.95,12.31-.39,15a86.32,86.32,0,0,1-12.08,2.39c1.61-4.19,2-9.1,2.11-13.4A60.93,60.93,0,0,0,410,562.94Zm-2.6,6.76c0,4.68-1.07,9.12-1.68,13.66a94.78,94.78,0,0,1-11.06.44,123.19,123.19,0,0,1-25.83-3.38,35.59,35.59,0,0,0,5.76-15.71,90.17,90.17,0,0,0,32.22-1A36.2,36.2,0,0,1,407.41,569.7Zm-48.87-71.85c4.95.32,8.93,4.13,11.78,7.84,5.77,7.48,10.63,15.82,15.85,23.69q8.52,12.84,17.05,25.67l.08.1c-.81.15-1.62.3-2.43.43-1.13.19-2.27.35-3.42.49-7.66-12.51-15.27-25-23-37.51-5.06-8.17-12-18.27-22.33-18.7A10.16,10.16,0,0,1,358.54,497.85Zm-12.46,7.21c1-.88,2-1.86,3.05-2.81h0c13.88.57,20.08,13.87,26.43,24.27l18.29,29.89a84.47,84.47,0,0,1-28.62-2.73s0-.06,0-.09a.79.79,0,0,0-1.34-.29c-1.87-.55-3.72-1.16-5.53-1.84-12.41-4.68-22.3-13.47-29.51-24.49q-1.47-2.25-2.79-4.59C333.11,517.11,339.5,510.92,346.08,505.06Zm-16.93,35.73c-.35.87-.64,1.78-1.06,2.65a19.39,19.39,0,0,1-3.2,4.71c-2.55,2.77-6.08,5.16-9.94,5.19A100,100,0,0,1,303,541a78.65,78.65,0,0,1-6.25-8.86c4.16.39,9.07-1.16,12.25-2.6a32.55,32.55,0,0,0,8.64-5.72A89.71,89.71,0,0,0,329.15,540.79ZM316,520.6a24,24,0,0,1-6.6,5.58c-3.78,2.07-9.4,4-14.1,3.49a79.54,79.54,0,0,1-4.92-10.5c7.34-.3,16.42-3.28,21.23-8.94A109.55,109.55,0,0,0,316,520.6ZM65.86,314.27c3-.93,3.91-3.95,2.7-6.64-10.09-22.49-16.42-52.57-1.25-74.4,10.54-15.18,32.61-24.85,49.81-15.85.07.1.13.21.2.32a3.38,3.38,0,0,0,3.22,1.56c4.23,1.46,7.62-5.12,3.33-7.9-1.08-.7-2.19-1.32-3.31-1.9-10.75-20.06-11.35-45.26-.2-65.38,11.52-20.77,34.26-34.12,57.9-34.63a4.14,4.14,0,0,0,4.06-4.06c.22-9.61.22-20.65,6-28.87,4.56-6.49,13.84-10.58,21-5.86a4.1,4.1,0,0,0,6-2.43A62,62,0,0,1,231.7,37.77c8.63-8.72,21.1-16.4,33.74-16,21.94.71,31.29,26.88,32.83,45.17a4.3,4.3,0,0,0,4.22,4.23A79.63,79.63,0,0,1,364,96.43c15.92,17.31,23,42.19,19.16,65.33-.41,2.45,1.11,5.85,4.19,5.5,38.58-4.45,54.87,40,62.18,69.82,4.19,17.11,6.57,35.75.63,52.75-5.81,16.62-19.88,28.33-32.93,39.31-1.91,1.61-1.75,5.07,0,6.7,12.51,11.63,12.45,31.47,4.48,45.7-9.28,16.58-26.8,26.42-43.7,33.68-2,.84-2.57,3.46-2.16,5.31,5.93,26.71-14.37,49.44-37.84,58.52-17.36,6.71-35.77,7.27-54.07,5.59a3.44,3.44,0,0,0-2.53-.25c-8.83-.91-17.61-2.3-26.23-3.73Q209,473,162.86,465.21l-45.27-7.55c-13.11-2.19-26.78-4-38.21-11.28-23.15-14.81-30.52-48.47-8.59-67.91,2.5-2.23,1.26-7-2-7.64-12.74-2.7-23.31-13.8-24-27.11S53.38,318.12,65.86,314.27Z"/><path class="cls-7" d="M145.9,349.94c-6.46-.77-11.87,4.38-12.69,10.37-.89,2.32-.18,5.37,1,7.37,2.07,3.5,5.65,4.61,9.5,4.71,3.28.08,5.77-.64,7.58-3.13a8.72,8.72,0,0,0,2-3.1C156,359.7,153.89,350.88,145.9,349.94Zm-3.12,12.63a3,3,0,0,1-.53-3.49,2.13,2.13,0,0,1,1.2-.86,2.48,2.48,0,0,1,3.59,2.09C147.07,362.32,144.43,364.2,142.78,362.57Z"/><path class="cls-7" d="M322.93,367.74a10.37,10.37,0,0,0-2-5.55c-2.18-2.68-10.34-6.21-13.86-3.58-4.67,1.27-8.56,9.27-8.07,13.45,1,8.09,9.91,14,17.5,10.11A12.72,12.72,0,0,0,322.93,367.74Zm-11.28,6.75a4,4,0,0,1-4.37-4.13,3.45,3.45,0,0,1,3.49-3.32,3.63,3.63,0,0,1,4.42,3.34A4.09,4.09,0,0,1,311.65,374.49Z"/><path class="cls-7" d="M224,393.55c10.38-.18,21-11.87,18.82-22.32a2.49,2.49,0,0,0-4.13-1.09c-4.63,5.11-4.88,13.44-12.32,16-8.68,3-11.56-6.37-12.31-13.06a1.59,1.59,0,0,0-3.1-.42C207.3,382.23,212.84,393.73,224,393.55Z"/><path class="cls-7" d="M143.43,382.13a4.37,4.37,0,0,0-3.09,7.47,4.38,4.38,0,0,0,6.19,0,4.38,4.38,0,0,0-3.1-7.47Z"/><path class="cls-7" d="M303.6,400.27a4.86,4.86,0,0,0,3.33-1.37,4.71,4.71,0,0,0-3.33-8,4.71,4.71,0,0,0-4.71,4.71A4.79,4.79,0,0,0,303.6,400.27Z"/><path class="cls-7" d="M147.55,255.09c-1.38,6.62-.25,14,5.88,17.92,4.84,3.1,12.72,2.38,15-3.51.49-1.26-1.24-2-2.09-1.22-4,3.53-8.72,4.87-12.93.59-3.93-4-3.8-9.74-2.41-14.79a1.57,1.57,0,0,0-1.5-2c-5,0-10.31-2.16-11.07-7.7-.6-4.31,2.67-7.88,4.78-11.31.21-.33-.21-.8-.55-.56-4.62,3.25-8.56,8.43-6.6,14.33C137.76,252,142.52,254.53,147.55,255.09Z"/><path class="cls-7" d="M88.52,306.5c-3.46,3.27-6.26,7.41-4.43,12.38a9.09,9.09,0,0,0,8.26,6c-1.68,4.17-1.71,8.39,2.35,11.7s11.62,3.52,15.71,0a1.09,1.09,0,0,0-.76-1.85c-3.41.12-6.48,1.83-10,.88-6.11-1.67-5.83-7.13-3.36-11.64a1.61,1.61,0,0,0-1.8-2.34c-4.64.91-9-3.06-7.52-7.84.91-3,3.78-5.23,6.11-7.15,1.14-.94.08-2.5-1.09-2.62-2.94-.31-6.56-.61-8.66-2.93-3.91-4.3-.24-9.21,4.7-10.24.85-.18.56-1.34-.2-1.42a8.1,8.1,0,0,0-9,9.39C79.7,303.7,84.1,305.61,88.52,306.5Z"/><path class="cls-7" d="M121.41,427.41c-2.68,4.13-7.41,5.75-11.48,2.23-3-2.56-3.57-6.61-3.37-10.3a1.48,1.48,0,0,0-1.87-1.42c-5.83,2.11-10-3.18-10.46-8.57a18.17,18.17,0,0,1,3.7-12.23c.57-.72-.35-1.73-1.05-1-4.68,4.64-6.8,11.84-4.38,18.2,1.8,4.71,6.28,7.67,11.09,7,.14,5.39,2.4,10.66,7.77,12.79,4.86,1.94,11.13-.21,12.09-5.75A1.12,1.12,0,0,0,121.41,427.41Z"/><path class="cls-7" d="M344.8,434.89c-1.2,5.92-.12,11.9-4.66,16.77-4.95,5.32-15,4.28-18.42-2.38-.72-1.41-3.25-.8-3.08.83.53,5.07-2.81,10-8.17,10a8.21,8.21,0,0,1-6.23-2.83c-.38-.41-3.22-6.74-2.21-6.39.77.26,1.27-.78.76-1.31-1.66-1.75-3.1,0-3.45,1.77-.79,4.05,2.26,8.38,5.51,10.4,6.88,4.28,14.83-.34,16.73-7.26,4.53,4.13,12.06,5.39,17.36,2.42,7.11-4,10.6-14.33,8.32-22A1.29,1.29,0,0,0,344.8,434.89Z"/><path class="cls-7" d="M393.71,357.59c.34,4.58.33,9.7-4.19,12.26a8.34,8.34,0,0,1-6.66.68l-2.1-1a5.28,5.28,0,0,0-2.87-1.87l.12-.07a.75.75,0,0,0,.26-1c0-.08-.11-.16-.16-.25a1,1,0,0,0-1.8.24c-1.81,4.58,7.49,7.39,10.51,7.08,7.1-.74,9.56-6.61,9.87-12.68,9.74,6.53,21.83-10.25,11.79-19.36a1,1,0,0,0-1.59,1.23c1.7,4,3.64,8.18,1.29,12.41-2.59,4.68-8.5,5.43-11.95,1.31A1.49,1.49,0,0,0,393.71,357.59Z"/><path class="cls-7" d="M351.26,300.14c-6.82-3.37-8.27-11.28-5.76-17.87.27-.7-.81-1.11-1.18-.5a14.84,14.84,0,0,0,9,21.92c8.28,2.17,17.37-3.15,16.76-11.55A6,6,0,0,0,375.2,291c2.22-1.76,2.76-4.39,2.42-7,8.36,3.48,16.21-3.4,18.2-12.16,2.07-9.1-1.05-24.46-13.45-23.11a1.4,1.4,0,0,0,0,2.79c9.95,1.11,12.38,11,10.5,19.5-1.77,8-9,14.39-16.87,8.69-1.34-1-2.5.84-2,2q2.08,3.09-.45,5.47-1,3.9-4.5,1.15a1.45,1.45,0,0,0-2.4,1.4C370,299.33,358.61,303.76,351.26,300.14Z"/><path class="cls-7" d="M314.06,242.72a11.57,11.57,0,0,0,12.53-10.15,14.61,14.61,0,0,0,10.83-1c5.37-3.11,7.18-9.25,5.56-14.8,7.42,1.17,14.43-4.47,15.67-12.09,1.46-8.91-4.75-19.91-13.73-22.31a1.12,1.12,0,0,0-1.08,1.86c5.39,5.21,11.63,8.54,11.91,17.08.27,8.12-7,15-15,11.62-1.31-.55-2.35,1.2-1.74,2.26,2.14,3.75,2.22,8.56-.8,11.92-1.43,1.58-9.29,5-11.57,2.38a13,13,0,0,0-.64-2.9,1.51,1.51,0,0,0-2.95.4,5.25,5.25,0,0,0,.62,3.36c.23,5-3.25,9.7-8.93,9.62-6.79-.09-10.57-7.19-8.44-13.22.27-.77-1-1.31-1.32-.56C301.68,233.45,305.6,242,314.06,242.72Z"/><path class="cls-7" d="M216.7,217.64c3.09.74,6.56-.6,8.9-2.9,2.25,7.76,10.09,14.4,18,14.69,10.55.39,14-9.45,14.21-18.34a17.76,17.76,0,0,0,9.56,2.48c7.33-.49,8.51-9.71,9.89-15.36a1.45,1.45,0,0,0-2.8-.77c-1.12,3-1.92,9.53-4.44,11.79-2.25,2-11.39.85-12.4-2.81l-.09-.76v0h0c0-.14,0-.29-.05-.42-.26-1.85-3.05-1.28-3.12.42a4.9,4.9,0,0,0,.19,1.54c.83,7.78-.74,19.56-10.94,19.21-7.48-.26-15-7.46-15.79-15a6.84,6.84,0,0,0,.18-4.56,1.36,1.36,0,0,0-2.61,0,13.92,13.92,0,0,0-.4,4.49,6.59,6.59,0,0,1-3.29,3c-3.34,1.29-6.84.71-8.42-2.6-1.71-3.56-.7-7.67.2-11.33a.67.67,0,0,0-1.29-.36C210.36,205.77,208.61,215.72,216.7,217.64Z"/><path class="cls-7" d="M235.47,133.78c8,4,17.65-.73,18.42-9.37a7.54,7.54,0,0,0,7.59-3.43c2.81-4,3.26-9.47,2.81-14.41,5.9,1.49,10.77-5.65,10.21-11.51-.48-5-2.93-10-5.22-14.45-1.74-3.39-3.58-7.75-8-7.37-1.08.09-1.44,1.68-.27,2,4.35,1.12,7.42,10.54,8.79,14.17,1.06,2.83,2.13,6,1.47,9.08-.77,3.58-4.83,6.42-8.13,4-1.27-.91-2.54.59-2.35,1.8a27,27,0,0,1-.15,10.13c-.7,3.22-3.28,8.92-7.56,6.24a1.61,1.61,0,0,0-2.41,1.38c.64,6.88-5.67,11.66-12.17,9.7a12.06,12.06,0,0,1-6.71-5.32c-.79-1.29-3.95-8.85-1.16-9.74,1-.31.85-1.91-.25-1.84-3.46.24-3.43,4.29-3.07,7A15.6,15.6,0,0,0,235.47,133.78Z"/><path class="cls-7" d="M161.51,189.76c-2.12,5.67-.23,12.69,5.34,15.76s15.8,1,17.15-6.07a1.12,1.12,0,0,0-1.85-1.08c-3.7,3.54-7.86,7.1-13.32,4.47s-6.29-9.78-3.05-14.42c.81-1.16-.53-2.66-1.78-2.31-5.07,1.4-16.48,1.49-16.94-6.33-.27-4.49,3.47-10.81,5.43-14.62a.65.65,0,0,0-1.13-.66c-3.38,5-10.11,14.12-5.64,20.23C149.11,189.36,155.87,190.43,161.51,189.76Z"/><path class="cls-7" d="M368.56,370.36c-.95,4.72-1.1,9.49-2.46,14.16a72.44,72.44,0,0,1-6.64,15.28c-4.63,8.19-10,17.38-16.5,24.2a.27.27,0,0,0,.33.42c4.07-1.84,6.6-5.45,9.2-8.94a149,149,0,0,0,10-14.91c4.87-8.49,10.37-20.18,8.18-30.21A1.1,1.1,0,0,0,368.56,370.36Z"/><path class="cls-7" d="M104.63,354.5a67.54,67.54,0,0,0-1.79,23.82c.83,7.26,2.36,15.55,6.59,21.64a1,1,0,0,0,1.76-.75c-1.75-7.14-4.62-13.69-5.62-21.08a79.46,79.46,0,0,1,.25-23.3C106,354.06,104.82,353.71,104.63,354.5Z"/><path class="cls-7" d="M122,416.61a60.48,60.48,0,0,1-7.12-8.36c-.39-.5-1.2.05-1,.61,2.08,7,9.88,15.09,17.47,15.78.87.08.94-1.05.4-1.46C128.58,420.81,125,419.27,122,416.61Z"/></svg>