<svg id="Layer_1" data-name="Layer 1" xmlns="http://www.w3.org/2000/svg" viewBox="0 0 600 600"><defs><style>.cls-1{fill:#88e0ff;}.cls-2{fill:#e27683;}.cls-3{fill:#fff;}.cls-4{fill:#231f20;}</style></defs><title>doodle</title><path class="cls-1" d="M294.88,502.33c-11.44.48-22.89.73-34.28.35L259,502.6c4,13.79,5.92,28.31,9.19,42.26a145.07,145.07,0,0,0,6,20.12c2.34,5.92,5.27,13.2,10.72,17,8.88,6.17,13.13-4.58,13.3-12s-.28-14.74-.58-22.07C297,532.72,295.87,517.53,294.88,502.33Z"/><path class="cls-2" d="M326.8,180.19c-5.9.57-11.8,1.17-17.69,1.73s-11.8,1.14-17.71,1.59a61.61,61.61,0,0,1-9.22.34c1.53,6.9,3.71,14.19,7.55,19.57,4.71,6.61,19.39,9.29,26.91,7.86,7.8-1.49,13.19-8.11,16.57-14.86a63.1,63.1,0,0,0,5.62-17.79C335.08,180,330.78,179.8,326.8,180.19Z"/><path class="cls-3" d="M409,155a11.21,11.21,0,0,0-2,0c-.64.06-1.38.17-2.16.32a8.35,8.35,0,0,0-.82.65c-3.56,3.22-3.79,15.44,3.45,13.73,3.77-.9,8.1-8.28,5.22-11.52a13.42,13.42,0,0,0-1.78-1.14A4.14,4.14,0,0,1,409,155Z"/><path class="cls-1" d="M388.34,39.34a67.79,67.79,0,0,0-3.14,17.88c-.3,5.47.85,11.41-.43,16.74a2.54,2.54,0,0,1-4,1.57c-4.57,2-11.3.65-15.95.5q-10-.32-20.05-.52-19.5-.41-39-.34c-13,0-26.11,0-39.14.78-6.43.41-12.83,1-19.22,1.84-5.73.72-11.76,2.5-17.53,1.84a2,2,0,0,1-1.23-.6,3.41,3.41,0,0,1-2.17-4c1.93-12.47-3.41-23.24-10.25-33.35C213.2,37.16,209.68,32.16,204,31c-5-1-10.44.81-14.51,3.77-9.75,7.1-11.91,20.09-8.58,31.12,3,9.91,10.16,16.91,16.77,24.46,1.87,2.14.46,4.27-1.59,5a3.41,3.41,0,0,1-2.26,4.05c-20.48,7.78-25.26,31.41-26.54,50.8-1.57,23.65-2.15,47.41-2.79,71.1-1.13,42.17-1.52,84.4-.37,126.58,1,37.52,4.21,77.51,26.56,109.12,9.21,13,21.37,24.22,36.08,30.69,18.17,8,38.44,6.71,57.78,5.77,21.18-1,42.37-1.86,63.55-2.79l31.21-1.39,33.07-1.78c8,.28,19.45-2,24.57-10.26,8.1-13.06,9.83-21.57,12.9-35.17,6.92-30.56,6-61.84,5.91-93-.1-31.72-.35-63.44-.49-95.15-.15-31.89.05-63.93-1.6-95.78-1.17-22.49-1.72-70.63-35-68.61-3,.18-4.7-3.34-3.6-5.53a4,4,0,0,1,.41-4.9c7.68-9,12.64-18.1,12.66-30.29,0-10.75-3.83-22.64-14.66-26.91C400.44,16.83,392,28.36,388.34,39.34ZM195,71.19c-4.39-4.29-6-11.31-6.07-17.32,0-5.53,1.76-9.2,5.87-12.68,2.08-1.76,4.94,1.5,3.18,3.45-5.66,6.28.66,17.42,1.55,24.21C199.86,71.14,196.73,72.86,195,71.19Zm6.61,89.42c9.74-7.51,25.83-4.58,31.56,6.62,5.47,10.67,3.73,29.93-9,34.68a13.58,13.58,0,0,1-5.61.85c-7,.47-14.72-2.48-19-7.35C191.71,186.25,191.69,168.27,201.64,160.61Zm77.07,165.1c-11,10.12-27.79,19.21-43.07,19a51.79,51.79,0,0,1-21.94-5.75c-6.42-3.18-14.2-7.45-18.65-13.2-1.78-2.3.56-6.39,3.52-5.5,8.25,2.47,15.29,8.64,23.35,11.88a36,36,0,0,0,26.92.36c13.87-5.15,35.36-17.61,34.52-35.06-.94-19.49-37.27-5.11-46.9-2-8.07,2.58-16.05,5.15-24.39,2.13-7.65-2.78-14-8.82-18.61-15.41-1.28-1.84.88-5,3-3.59,7.46,4.75,15.24,12.58,24.78,11.82,5.45-.44,10.75-3,15.93-4.68s10.42-3.13,15.7-4.43c12.36-3.06,30-6.85,37.57,6.81C297.75,301.11,288.37,316.85,278.71,325.71Zm26.81-106.09c-8.16-1.53-17.94-4-22.92-11.17-5.64-8.17-8.09-19.12-10-28.71-1.06-5.4-1.78-10.86-2.33-16.34-.42-4.27-1.63-9.74-.72-14a5.73,5.73,0,0,1,6.05-4.46c5.16-2.31,11.66-2.57,17.19-3.21q9.9-1.14,19.84-2c6.13-.57,12.3-1.17,18.46-1.4,4.19-.16,8.46.2,11.61,3.28,5.78,5.66,6,17.88,6,25.39a76,76,0,0,1-5.06,28C337.32,211.44,324,223.07,305.52,219.62Zm114.34,59.43c-8.66,14.08-25.78,16.33-40.58,11.42-8.46-2.81-16-7.64-23.09-13-3.73-2.83-7.34-6.8-11.57-8.83-5.52-2.65-10.38,1.75-12,6.86-5.49,17.17,8.68,38.05,22.72,46.56,17,10.32,35.61,7.39,52.61-.94,4.24-2.07,7,4.36,3.66,7-14.09,10.93-35.15,12-51.49,6.06-14.18-5.15-25.59-16.3-32.07-29.8-5.91-12.33-9.48-31.86,2.73-41.66,14.82-11.89,29,7.69,41,14.62,13.79,8,32.07,10.29,44.81-1.07C418.18,274.77,421,277.17,419.86,279.05Zm5.36-95.47c-4.17,6.95-10.93,12.92-19.48,11.51-7.21-1.19-15.39-4.45-19.21-11s-3.89-17-1.14-24.06c2.46-6.34,7.48-9.5,13.31-11.4a17.26,17.26,0,0,1,11.86-3.67C429.44,146.35,433.41,169.92,425.22,183.58Zm-12-120.19a2.24,2.24,0,0,1-3.9-1.24c-.71-9.27-.25-17.16-4-26-1.24-2.9,2.69-4.28,4.46-2.34C416.73,41.4,419.91,54.61,413.27,63.39Z"/><path class="cls-1" d="M332,500.5c3.15,14.06,3.47,28.89,5.43,43.15,1.38,10,2.48,30,15.72,31.8,8.88,1.19,8.21-8.59,8.49-14.75l1.05-23.35q.52-11.69,1-23.35c.2-4.72-.07-9.91.57-14.79l-29.95,1.19Z"/><path class="cls-3" d="M222.84,180.64c1.31-5.15-3.59-11-8.94-8.62a7.69,7.69,0,0,0-3.14,2.55,17.35,17.35,0,0,0,1.92,6.59C215.32,185.72,221.33,186.6,222.84,180.64Z"/><path class="cls-4" d="M218.61,202.76a13.58,13.58,0,0,0,5.61-.85c12.71-4.75,14.45-24,9-34.68-5.73-11.2-21.82-14.13-31.56-6.62-9.95,7.66-9.93,25.64-2,34.8C203.89,200.28,211.59,203.23,218.61,202.76ZM213.9,172c5.35-2.39,10.25,3.47,8.94,8.62-1.51,6-7.52,5.08-10.16.52a17.35,17.35,0,0,1-1.92-6.59A7.69,7.69,0,0,1,213.9,172Z"/><path class="cls-4" d="M398.7,148.6c-5.83,1.9-10.85,5.06-13.31,11.4-2.75,7.09-2.73,17.4,1.14,24.06s12,9.84,19.21,11c8.55,1.41,15.31-4.56,19.48-11.51,8.19-13.66,4.22-37.23-14.66-38.65A17.26,17.26,0,0,0,398.7,148.6Zm14,9.57c2.88,3.24-1.45,10.62-5.22,11.52-7.24,1.71-7-10.51-3.45-13.73a8.35,8.35,0,0,1,.82-.65c.78-.15,1.52-.26,2.16-.32a11.21,11.21,0,0,1,2,0,4.14,4.14,0,0,0,1.91,2.06A13.42,13.42,0,0,1,412.66,158.17Z"/><path class="cls-4" d="M343.7,194.93a76,76,0,0,0,5.06-28c-.05-7.51-.26-19.73-6-25.39-3.15-3.08-7.42-3.44-11.61-3.28-6.16.23-12.33.83-18.46,1.4q-9.93.91-19.84,2c-5.53.64-12,.9-17.19,3.21a5.73,5.73,0,0,0-6.05,4.46c-.91,4.24.3,9.71.72,14,.55,5.48,1.27,10.94,2.33,16.34,1.89,9.59,4.34,20.54,10,28.71,5,7.21,14.76,9.64,22.92,11.17C324,223.07,337.32,211.44,343.7,194.93Zm-27.06,16.35c-7.52,1.43-22.2-1.25-26.91-7.86-3.84-5.38-6-12.67-7.55-19.57a61.61,61.61,0,0,0,9.22-.34c5.91-.45,11.81-1,17.71-1.59s11.79-1.16,17.69-1.73c4-.39,8.28-.22,12-1.56a63.1,63.1,0,0,1-5.62,17.79C329.83,203.17,324.44,209.79,316.64,211.28Z"/><path class="cls-4" d="M416.53,276.24c-12.74,11.36-31,9.05-44.81,1.07-12-6.93-26.13-26.51-41-14.62-12.21,9.8-8.64,29.33-2.73,41.66,6.48,13.5,17.89,24.65,32.07,29.8,16.34,5.93,37.4,4.87,51.49-6.06,3.35-2.6.58-9-3.66-7-17,8.33-35.57,11.26-52.61.94-14-8.51-28.21-29.39-22.72-46.56,1.63-5.11,6.49-9.51,12-6.86,4.23,2,7.84,6,11.57,8.83,7.06,5.35,14.63,10.18,23.09,13,14.8,4.91,31.92,2.66,40.58-11.42C421,277.17,418.18,274.77,416.53,276.24Z"/><path class="cls-4" d="M252.9,281.23q-7.92,1.95-15.7,4.43c-5.18,1.65-10.48,4.24-15.93,4.68-9.54.76-17.32-7.07-24.78-11.82-2.15-1.38-4.31,1.75-3,3.59,4.57,6.59,11,12.63,18.61,15.41,8.34,3,16.32.45,24.39-2.13,9.63-3.08,46-17.46,46.9,2,.84,17.45-20.65,29.91-34.52,35.06a36,36,0,0,1-26.92-.36c-8.06-3.24-15.1-9.41-23.35-11.88-3-.89-5.3,3.2-3.52,5.5,4.45,5.75,12.23,10,18.65,13.2a51.79,51.79,0,0,0,21.94,5.75c15.28.23,32-8.86,43.07-19,9.66-8.86,19-24.6,11.76-37.67C282.87,274.38,265.26,278.17,252.9,281.23Z"/><path class="cls-4" d="M384.58,28.89a62.64,62.64,0,0,0-6.31,22.29c-.48,4.71-1,10.48-.44,15.75-3.38-.68-7.25-.32-10.45-.41q-10.58-.33-21.16-.52-20.6-.37-41.21-.24c-13,.08-26.1.26-39.1,1.28a158.15,158.15,0,0,0-20.22,2.72,81.64,81.64,0,0,0-11,2.72c2-13.35-5.93-27-13.42-37.45-8-11.11-20.11-15.56-32.72-8.75-25.84,13.94-19.18,50.89,1.08,66.77-15.85,5.81-24.94,21.37-28.24,37.37-4.18,20.27-2.91,42-3.59,62.63-1.53,45.6-2.41,91.25-1.73,136.88.6,40.63,1,83.85,21,120.43C185,464.8,196,478,209.64,487.34,222.35,496,236.38,500.42,251.3,502c1.14,9.57,3.6,19.1,5.58,28.52,1.75,8.33,3.41,16.7,5.69,24.9,3.45,12.46,9.83,34,25.19,36.28,6.43.95,12.25-2.79,15.27-8.32,3.82-7,2.91-15.51,2.67-23.13-.62-19.43-1.44-38.93-3.39-58.28,8.22-.4,16.44-.87,24.64-1.26-1.12,9.13-.21,18.34.64,27.48s1.83,18.09,3.44,27c2.22,12.36,7.89,27.52,22.59,28.36,17.68,1,15.85-19.26,16.35-31.35q.58-14.46,1.2-28.91.34-7.79.68-15.56c.13-3,.42-5.93.31-8.87l1.22,0c10.32-.4,19.73-1.24,31.14-1.72,12.1-.83,21.63.21,31.25-6.19,10.53-7,14.07-16.11,17.78-27.59,10.51-32.52,11.56-65.64,11.47-99.52-.1-35.4-.25-70.8-.79-106.19-.55-35.16.13-70.53-2.18-105.63-1.1-16.83-2.1-35.86-10.24-51-5.33-9.93-14.91-18.06-25.95-19.14,8.31-8.46,11.25-22.57,11.06-33.74-.23-14-6.92-28.56-20.86-33.45C402.54,9.93,390.86,16.72,384.58,28.89ZM298.21,570c-.17,7.37-4.42,18.12-13.3,12-5.45-3.79-8.38-11.07-10.72-17a145.07,145.07,0,0,1-6-20.12c-3.27-14-5.2-28.47-9.19-42.26l1.64.08c11.39.38,22.84.13,34.28-.35,1,15.2,2.13,30.39,2.75,45.62C297.93,555.28,298.39,562.69,298.21,570Zm65.52-56q-.5,11.67-1,23.35l-1.05,23.35c-.28,6.16.39,15.94-8.49,14.75-13.24-1.79-14.34-21.79-15.72-31.8-2-14.26-2.28-29.09-5.43-43.15l2.32-.1,29.95-1.19C363.66,504.09,363.93,509.28,363.73,514ZM428.11,48.87c0,12.19-5,21.29-12.66,30.29a4,4,0,0,0-.41,4.9c-1.1,2.19.62,5.71,3.6,5.53,33.28-2,33.83,46.12,35,68.61,1.65,31.85,1.45,63.89,1.6,95.78.14,31.71.39,63.43.49,95.15.1,31.13,1,62.41-5.91,93-3.07,13.6-4.8,22.11-12.9,35.17-5.12,8.27-16.61,10.54-24.57,10.26l-33.07,1.78-31.21,1.39c-21.18.93-42.37,1.77-63.55,2.79-19.34.94-39.61,2.21-57.78-5.77C212,481.25,199.87,470.06,190.66,457c-22.35-31.61-25.53-71.6-26.56-109.12-1.15-42.18-.76-84.41.37-126.58.64-23.69,1.22-47.45,2.79-71.1,1.28-19.39,6.06-43,26.54-50.8a3.41,3.41,0,0,0,2.26-4.05c2.05-.76,3.46-2.89,1.59-5C191,82.8,183.87,75.8,180.88,65.89c-3.33-11-1.17-24,8.58-31.12,4.07-3,9.47-4.78,14.51-3.77,5.71,1.16,9.23,6.16,12.3,10.71,6.84,10.11,12.18,20.88,10.25,33.35a3.41,3.41,0,0,0,2.17,4,2,2,0,0,0,1.23.6c5.77.66,11.8-1.12,17.53-1.84,6.39-.79,12.79-1.43,19.22-1.84,13-.82,26.1-.75,39.14-.78s26,.07,39,.34q10,.19,20.05.52c4.65.15,11.38,1.54,15.95-.5a2.54,2.54,0,0,0,4-1.57c1.28-5.33.13-11.27.43-16.74a67.79,67.79,0,0,1,3.14-17.88c3.7-11,12.1-22.51,25.11-17.38C424.28,26.23,428.12,38.12,428.11,48.87Z"/><path class="cls-4" d="M405.34,36.15c3.78,8.84,3.32,16.73,4,26a2.24,2.24,0,0,0,3.9,1.24c6.64-8.78,3.46-22-3.47-29.58C408,31.87,404.1,33.25,405.34,36.15Z"/><path class="cls-4" d="M199.56,68.85c-.89-6.79-7.21-17.93-1.55-24.21,1.76-2-1.1-5.21-3.18-3.45-4.11,3.48-5.91,7.15-5.87,12.68,0,6,1.68,13,6.07,17.32C196.73,72.86,199.86,71.14,199.56,68.85Z"/></svg>