<svg id="Layer_1" data-name="Layer 1" xmlns="http://www.w3.org/2000/svg" viewBox="0 0 600 600"><defs><style>.cls-1{fill:#8dc63f;}.cls-2{fill:#88e0ff;}.cls-3{fill:#00aeef;}.cls-4{fill:#fff;}.cls-5{fill:#231f20;}</style></defs><title>doodle</title><path class="cls-1" d="M522.15,219.83c-7.6-10.49-21-15.14-26.43-27.38-1.91-4.28,1.2-8.88,6-7.86A177.44,177.44,0,0,1,535,195c-28.23-48-68.83-87.53-116.63-116.29-4.24-2.54-2.69-10,2.62-9.68q17.72,1,35.44,2A383.82,383.82,0,0,0,356,28.39c-22.3-5.88-44.89-9-67.95-6.93-18.6,1.69-36.87,6-54.84,11q14,5.58,28.05,11.27c5.86,2.4,3.64,10.32-2.59,9.41C223.24,48,187.29,58.32,159.47,80l7.79-2.72c5.67-2,8,6.91,2.47,8.92l-3.14,1.14c-14.85,13.05-30,25.73-44.87,38.8-9.74,8.58-20,17.44-26.6,28.55l13-8.8c4.56-3.09,8.54,3.44,5.48,7.1C88.13,183.39,62,215.59,51.13,254.15a137.75,137.75,0,0,1,16.06-11.89c4.16-2.63,8.36,2.44,6.36,6.37-18.75,36.88-37.17,78.7-28.7,120.11a127.83,127.83,0,0,1,13.91-28c3.19-4.86,9.63-1.53,8.86,3.73-5.49,37.12-2.89,77.14,18,108.63a119.76,119.76,0,0,1,3.58-30c1.28-5.13,8.92-3.85,9,1.22.37,21.43,8.2,41.76,21,58.85,13,17.33,30.28,29.22,47.53,41.79a4.56,4.56,0,0,1-.83,8,110.36,110.36,0,0,0,15.94,4.11c11.59,2.37,23.14,4.42,33.63,10.18,3.19,1.76,3.16,5.72,1.12,8.25a88.11,88.11,0,0,0,31.94,4.4c18.62-.9,36.31-7.83,55.06-7.83,3.85,0,5.85,3.48,5.28,6.92q-1.09,6.48-2.17,13a320.46,320.46,0,0,0,91-34c3.26-1.82,8.58.41,8.13,4.66,0,.21-.05.43-.07.64a333.86,333.86,0,0,0,53-45.83c3.54-3.78,10.8.12,9,5.22-1.6,4.45-3.18,8.9-4.78,13.35a263.56,263.56,0,0,0,45.73-86.75c1.44-4.73,9.71-5.67,10.56,0a185.26,185.26,0,0,1,1.86,20,222.56,222.56,0,0,0-1.47-118.11c-1.4-4.85,3.91-8.09,8-6.14a58,58,0,0,1,23.06,19.71,330.55,330.55,0,0,0-10.5-77.84C536,251.29,531.8,233.13,522.15,219.83Zm-404.53,66c-3.57,7.55-9.64,14.13-14,21.3a2.12,2.12,0,0,1-3.83-.49c-4.17-17.39-1.46-35.29,8.91-50a.62.62,0,0,1,1.07.62c-7,13.65-9.68,28.29-7,43.17,3.64-6,7.87-12.17,13.5-16C117.15,283.83,118,285,117.62,285.84Zm140.65-177.1a52.54,52.54,0,0,1,52.56-18.65c.89.18.69,1.7-.21,1.58a54.75,54.75,0,0,0-43.68,14.09c9-2.65,18.75-4.62,27.78-3.24,1.09.17.94,1.79,0,2.06-11.36,3.19-23,3.94-34.36,7.74C258.13,113.07,257.06,110.25,258.27,108.74ZM138.76,171.23c5.42-12.84,14.74-23.27,27.4-29.24a.66.66,0,0,1,.67,1.14,67,67,0,0,0-22.35,23.8c4.77-3.41,9.84-6.76,15.24-8.43a.84.84,0,0,1,.81,1.4c-5.64,5.35-13.16,9.11-19.52,13.59C139.49,174.57,138.2,172.56,138.76,171.23Zm32.82,289.48a1.91,1.91,0,0,1-3.21,1.33c-10.67-8.36-20.32-21-22-34.83a.82.82,0,0,1,1.51-.41c5.2,11.68,10.47,21.91,20.12,30.18.28-7.72-.75-15.05-1.74-22.83-.25-1.94,2.64-2,3.21-.43C172.51,442.24,172.53,451.83,171.58,460.71ZM355.24,506c-3.52,7.76-14.38,10.26-22,9.09-1.23-.19-1.42-1.65-1-2.55a84.54,84.54,0,0,1,11.08-19.16c.55-.71,1.54.2,1.18.92-2.92,5.78-5.74,11.61-8.24,17.59a19.88,19.88,0,0,0,8.63-1.61c3.27-1.41,5.49-3.8,8.24-5.93A1.37,1.37,0,0,1,355.24,506Zm-120.9-46.94c-50.3-23.51-87-74.86-92-130.12-8.1-36.49.09-77.39,17.65-109.95,18.58-34.44,55.85-52.57,92-63.51,34.49-10.44,70.65-10.72,104.15,3.33,30,12.6,59.25,33.1,72.09,63.95,26.23,63,26.77,143.36-17.19,198.66C369.07,474.24,294.19,487,234.34,459.06Zm239-60.15c-4,14.14-14.63,26.16-26.09,34.87a2.1,2.1,0,0,1-3.07-1.24c-1.5-6.39.38-11.39,2.33-17.54a94.09,94.09,0,0,0,4.43-26.89,1.3,1.3,0,0,1,2.59,0,101.45,101.45,0,0,1-1.13,18.35c-1.11,6.67-4.86,14.44-4.64,21.52,9.88-8.6,16.22-18.7,22.72-30.28A1.57,1.57,0,0,1,473.31,398.91Zm3.93-176.22c-7.42-9.74-16.41-14.71-26-21.78a1.63,1.63,0,0,1,1.25-3c7.59,1.76,14.58,6.83,20.4,12.74a96.59,96.59,0,0,0-22.83-32.2c-.5-.46.18-1.37.73-1A85.88,85.88,0,0,1,481.31,221C482.14,223.6,478.64,224.54,477.24,222.69Z"/><path class="cls-2" d="M434.5,307.34a234.19,234.19,0,0,0-7.35-50c-3.81-15-8.21-30.8-16.64-43.95-16-25-48.66-42.51-76.54-50.19-33-9.07-67.24-3-98.5,9.45-15.38,6.12-31.21,13.47-44.17,23.93-12,9.66-20.72,22.4-27.26,36.24-1.6,3.36-3.07,6.79-4.45,10.26a3.5,3.5,0,0,1,.17,2.09c-2.93,13-6.89,25.3-8.09,38.65-1.09,12.23-.43,24.46,0,36.69,7,61.59,45,117,106.71,135.83,58.85,18,124.28-5.48,155.26-59.34C429.3,369.84,435.5,338.44,434.5,307.34ZM368.38,408.93c-27.13,35.74-75,47.5-116.83,33.62a136.18,136.18,0,0,1-58.4-38.63c-7.77-8.76-14.34-18.57-17.56-29.93-3.11-11-3.23-22.77-3-34.17a139.13,139.13,0,0,1,9.12-56.22c4.58-11.91,10.69-23.31,20.75-31.47,10.51-8.52,24.09-13.88,36.95-17.69,45-13.33,96.62-1.8,125.61,36.76,15.4,20.49,19.73,45.72,21,70.78C387.31,366.06,383.2,389.4,368.38,408.93Z"/><path class="cls-3" d="M348.11,268.27c-31-31.44-79-35.47-118.86-20.22-12.08,4.62-23.22,11-30.54,22-5.58,8.37-9.22,18.08-12,27.69a137.61,137.61,0,0,0-5.32,37.44,5.56,5.56,0,0,1,.2,1.21c.45,13.13.69,26.53,5.46,39,4.5,11.74,13.37,21.56,22.48,30,16.9,15.6,38.19,26.82,60.92,30.8,37.56,6.57,78.27-10.53,96.22-45.05,10.55-20.29,9.58-44.41,6.79-66.48C370.75,303.27,363.36,283.74,348.11,268.27ZM353.23,384c-7.36,17.91-26.29,28.62-44.72,18.5a31.78,31.78,0,0,1-11.05-10.14,4,4,0,0,1-.52.12c-20,3.05-44.5-.33-59.59-14.81a58.9,58.9,0,0,1-14.57-23.76c-2.07-6.14-4.31-14.5-3.47-21.58a45.51,45.51,0,0,1-19.43-14.14c-17-22,.63-45.63,19.64-59.31,9.7-7,23.26-10.84,34.5-5,10.26,5.31,17.48,17.55,22,28,16.08-2.19,35.94.12,48.36,10.67,12.84,10.91,21.67,32.95,17,49.57,0,.07-.05.13-.07.2A54.2,54.2,0,0,1,353,353.57C359.79,362.91,357.32,374,353.23,384Z"/><path class="cls-4" d="M327.25,344.14c-10.42-2.9-21.82,11.13-24.4,20.8-3.18,12,2.81,26.32,15.38,29.75,14.86,4.06,24.3-8.79,27.37-21.72C348.92,359,336.59,352.13,327.25,344.14Z"/><path class="cls-4" d="M242.54,261.54c-9.67-.77-17.84,5.32-24.32,11.81-6,6-14.85,14.12-15.68,23.08-.79,8.49,4.69,16.41,11.07,21.43,10.34,8.15,22.59,9.13,34.65,7a4.85,4.85,0,0,1,3.46-2c23.33-2.12,19.47-28.62,11.11-43.22C258.22,271.54,252.66,262.35,242.54,261.54Z"/><path class="cls-5" d="M533.6,217.84a56.67,56.67,0,0,0-13.72-15.23c-1.37-1.08-2.74-2.12-4.09-3.18a171.66,171.66,0,0,1,29.54,12.64,5.5,5.5,0,0,0,7.46-7.46c-25.9-50.46-65.64-92.31-112.34-124q17.88,1.05,35.75,2.08c5.56.32,6.68-7.08,2.66-9.79A387.25,387.25,0,0,0,355.62,17.63c-22.16-5.47-44.81-8.31-67.61-6-24,2.46-47,9.42-70.21,15.73-4.79,1.3-3.89,7.22,0,8.86q7.59,3.19,15.19,6.36c-36.74,2.09-72.09,18.26-97,46.1-2.95,3.29-.16,9.75,4.66,8l3.87-1.4c-11.17,8.91-22,18.19-32.75,27.67-13.44,11.89-26.45,24.85-31,42.75-.93,3.61,3.25,7.42,6.65,5.12C64.8,199.49,44.82,230.4,38.79,266.94c-.7,4.19,4.31,8.23,7.74,4.51a131.31,131.31,0,0,1,10.33-10c-18.89,39.83-33.37,83.86-16.53,127,1.59,4.08,8.59,5.34,9.6,0a121.51,121.51,0,0,1,5.23-19.17c-1.87,37.54,6.49,76.4,33.1,104,3.87,4,9.47-.26,8.66-5q-.48-2.73-.79-5.44c9,22.81,25.88,42.91,45.85,57.52a5.27,5.27,0,0,0-.8,6.23c11,16.86,30.22,18.62,48.35,22.76a4.36,4.36,0,0,0,.39,4.66,18.12,18.12,0,0,0,11.93,7.28,100.4,100.4,0,0,0,40.84,9.65c18.5.34,36.11-6.2,54.39-7.58l-2.37,14.13c-.72,4.28,2.39,7.54,6.73,6.74A330.73,330.73,0,0,0,394,552.28l-.21,2c-.44,4.07,4.92,6.75,8.13,4.67a346.14,346.14,0,0,0,47.43-37c-2.14,5.91-4.26,11.83-6.42,17.73-1.92,5.25,5.46,9,9.09,5.29a275,275,0,0,0,58.16-87.94,164.88,164.88,0,0,1-3.52,31.72c-1.25,5.94,7.5,10.55,10.4,4.39A233.58,233.58,0,0,0,533.56,342,47.41,47.41,0,0,1,550,372.85c.75,6.89,10.45,7.12,10.9,0a344.57,344.57,0,0,0-10.39-108.77C546.42,248.53,542,231.7,533.6,217.84Zm-6.06,107.23c-4.08-1.95-9.39,1.29-8,6.14A222.56,222.56,0,0,1,521,449.32a185.26,185.26,0,0,0-1.86-20c-.85-5.67-9.12-4.73-10.56,0a263.56,263.56,0,0,1-45.73,86.75c1.6-4.45,3.18-8.9,4.78-13.35,1.84-5.1-5.42-9-9-5.22a333.86,333.86,0,0,1-53,45.83c0-.21,0-.43.07-.64.45-4.25-4.87-6.48-8.13-4.66a320.46,320.46,0,0,1-91,34q1.08-6.48,2.17-13c.57-3.44-1.43-6.92-5.28-6.92-18.75,0-36.44,6.93-55.06,7.83a88.11,88.11,0,0,1-31.94-4.4c2-2.53,2.07-6.49-1.12-8.25-10.49-5.76-22-7.81-33.63-10.18A110.36,110.36,0,0,1,165.86,533a4.56,4.56,0,0,0,.83-8c-17.25-12.57-34.57-24.46-47.53-41.79-12.78-17.09-20.61-37.42-21-58.85-.09-5.07-7.73-6.35-9-1.22a119.76,119.76,0,0,0-3.58,30c-20.86-31.49-23.46-71.51-18-108.63.77-5.26-5.67-8.59-8.86-3.73a127.83,127.83,0,0,0-13.91,28c-8.47-41.41,9.95-83.23,28.7-120.11,2-3.93-2.2-9-6.36-6.37a137.75,137.75,0,0,0-16.06,11.89C62,215.59,88.13,183.39,113.6,153c3.06-3.66-.92-10.19-5.48-7.1l-13,8.8c6.63-11.11,16.86-20,26.6-28.55,14.85-13.07,30-25.75,44.87-38.8l3.14-1.14c5.53-2,3.2-10.89-2.47-8.92L159.47,80C187.29,58.32,223.24,48,258.63,53.17c6.23.91,8.45-7,2.59-9.41q-14-5.71-28.05-11.27c18-5.05,36.24-9.34,54.84-11,23.06-2.09,45.65,1.05,67.95,6.93A383.82,383.82,0,0,1,456.43,71.06q-17.73-1-35.44-2c-5.31-.3-6.86,7.14-2.62,9.68C466.17,107.51,506.77,147,535,195a177.44,177.44,0,0,0-33.23-10.45c-4.85-1-8,3.58-6,7.86,5.47,12.24,18.83,16.89,26.43,27.38,9.65,13.3,13.88,31.46,18,47.11a330.55,330.55,0,0,1,10.5,77.84A58,58,0,0,0,527.54,325.07Z"/><path class="cls-5" d="M341.34,342.24c0-.07.05-.13.07-.2,4.67-16.62-4.16-38.66-17-49.57-12.42-10.55-32.28-12.86-48.36-10.67-4.55-10.43-11.77-22.67-22-28-11.24-5.83-24.8-2-34.5,5-19,13.68-36.69,37.33-19.64,59.31a45.51,45.51,0,0,0,19.43,14.14c-.84,7.08,1.4,15.44,3.47,21.58a58.9,58.9,0,0,0,14.57,23.76c15.09,14.48,39.58,17.86,59.59,14.81a4,4,0,0,0,.52-.12,31.78,31.78,0,0,0,11.05,10.14c18.43,10.12,37.36-.59,44.72-18.5,4.09-10,6.56-21-.24-30.38A54.2,54.2,0,0,0,341.34,342.24Zm-89.62-19.43a4.85,4.85,0,0,0-3.46,2c-12.06,2.17-24.31,1.19-34.65-7-6.38-5-11.86-12.94-11.07-21.43.83-9,9.65-17.05,15.68-23.08,6.48-6.49,14.65-12.58,24.32-11.81,10.12.81,15.68,10,20.29,18C271.19,294.19,275.05,320.69,251.72,322.81ZM345.6,373c-3.07,12.93-12.51,25.78-27.37,21.72-12.57-3.43-18.56-17.77-15.38-29.75,2.58-9.67,14-23.7,24.4-20.8C336.59,352.13,348.92,359,345.6,373Z"/><path class="cls-5" d="M365.06,271.2c-29-38.56-80.61-50.09-125.61-36.76-12.86,3.81-26.44,9.17-36.95,17.69-10.06,8.16-16.17,19.56-20.75,31.47a139.13,139.13,0,0,0-9.12,56.22c-.27,11.4-.15,23.16,3,34.17,3.22,11.36,9.79,21.17,17.56,29.93a136.18,136.18,0,0,0,58.4,38.63c41.82,13.88,89.7,2.12,116.83-33.62,14.82-19.53,18.93-42.87,17.69-66.95C384.79,316.92,380.46,291.69,365.06,271.2Zm1.59,119.87c-17.95,34.52-58.66,51.62-96.22,45.05-22.73-4-44-15.2-60.92-30.8-9.11-8.42-18-18.24-22.48-30-4.77-12.45-5-25.85-5.46-39a5.56,5.56,0,0,0-.2-1.21,137.61,137.61,0,0,1,5.32-37.44c2.8-9.61,6.44-19.32,12-27.69,7.32-11,18.46-17.35,30.54-22,39.87-15.25,87.86-11.22,118.86,20.22,15.25,15.47,22.64,35,25.33,56.32C376.23,346.66,377.2,370.78,366.65,391.07Z"/><path class="cls-5" d="M428.25,222.76c-12.84-30.85-42.05-51.35-72.09-63.95C322.66,144.76,286.5,145,252,155.48c-36.12,10.94-73.39,29.07-92,63.51-17.56,32.56-25.75,73.46-17.65,110,5,55.26,41.65,106.61,92,130.12,59.85,28,134.73,15.18,176.72-37.64C455,366.12,454.48,285.79,428.25,222.76ZM258.42,456.32c-61.69-18.87-99.71-74.24-106.71-135.83-.47-12.23-1.13-24.46,0-36.69,1.2-13.35,5.16-25.67,8.09-38.65a3.5,3.5,0,0,0-.17-2.09c1.38-3.47,2.85-6.9,4.45-10.26,6.54-13.84,15.27-26.58,27.26-36.24,13-10.46,28.79-17.81,44.17-23.93,31.26-12.44,65.52-18.52,98.5-9.45,27.88,7.68,60.54,25.23,76.54,50.19,8.43,13.15,12.83,28.94,16.64,43.95a234.19,234.19,0,0,1,7.35,50c1,31.1-5.2,62.5-20.82,89.64C382.7,450.84,317.27,474.31,258.42,456.32Z"/><path class="cls-5" d="M450.8,177.54c-.55-.42-1.23.49-.73,1a96.59,96.59,0,0,1,22.83,32.2c-5.82-5.91-12.81-11-20.4-12.74a1.63,1.63,0,0,0-1.25,3c9.58,7.07,18.57,12,26,21.78,1.4,1.85,4.9.91,4.07-1.71A85.88,85.88,0,0,0,450.8,177.54Z"/><path class="cls-5" d="M260.36,112.32c11.32-3.8,23-4.55,34.36-7.74.94-.27,1.09-1.89,0-2.06-9-1.38-18.75.59-27.78,3.24a54.75,54.75,0,0,1,43.68-14.09c.9.12,1.1-1.4.21-1.58a52.54,52.54,0,0,0-52.56,18.65C257.06,110.25,258.13,113.07,260.36,112.32Z"/><path class="cls-5" d="M141,173.49c6.36-4.48,13.88-8.24,19.52-13.59a.84.84,0,0,0-.81-1.4c-5.4,1.67-10.47,5-15.24,8.43a67,67,0,0,1,22.35-23.8.66.66,0,0,0-.67-1.14c-12.66,6-22,16.4-27.4,29.24C138.2,172.56,139.49,174.57,141,173.49Z"/><path class="cls-5" d="M116.24,284.45c-5.63,3.82-9.86,10-13.5,16-2.64-14.88,0-29.52,7-43.17a.62.62,0,0,0-1.07-.62c-10.37,14.71-13.08,32.61-8.91,50a2.12,2.12,0,0,0,3.83.49c4.35-7.17,10.42-13.75,14-21.3C118,285,117.15,283.83,116.24,284.45Z"/><path class="cls-5" d="M166.31,434.15c1,7.78,2,15.11,1.74,22.83-9.65-8.27-14.92-18.5-20.12-30.18a.82.82,0,0,0-1.51.41c1.63,13.85,11.28,26.47,22,34.83a1.91,1.91,0,0,0,3.21-1.33c.95-8.88.93-18.47-2.06-27C169,432.11,166.06,432.21,166.31,434.15Z"/><path class="cls-5" d="M353.1,504.35c-2.75,2.13-5,4.52-8.24,5.93a19.88,19.88,0,0,1-8.63,1.61c2.5-6,5.32-11.81,8.24-17.59.36-.72-.63-1.63-1.18-.92a84.54,84.54,0,0,0-11.08,19.16c-.38.9-.19,2.36,1,2.55,7.61,1.17,18.47-1.33,22-9.09A1.37,1.37,0,0,0,353.1,504.35Z"/><path class="cls-5" d="M470.45,397.7c-6.5,11.58-12.84,21.68-22.72,30.28-.22-7.08,3.53-14.85,4.64-21.52a101.45,101.45,0,0,0,1.13-18.35,1.3,1.3,0,0,0-2.59,0A94.09,94.09,0,0,1,446.48,415c-2,6.15-3.83,11.15-2.33,17.54a2.1,2.1,0,0,0,3.07,1.24c11.46-8.71,22.11-20.73,26.09-34.87A1.57,1.57,0,0,0,470.45,397.7Z"/></svg>