<svg id="Layer_1" data-name="Layer 1" xmlns="http://www.w3.org/2000/svg" viewBox="0 0 600 600"><defs><style>.cls-1{fill:#88e0ff;}.cls-2{fill:#231f20;}</style></defs><title>doodle</title><path class="cls-1" d="M303.87,97C146.17,97,18.32,181.77,18.32,286.36S146.17,475.72,303.87,475.72q21.86,0,42.85-2.12c15.12,15.82,35.16,44,25.08,74.9,60.05-40.17,217.66-135.38,217.62-262.14C589.42,181.77,461.57,97,303.87,97Z"/><path class="cls-2" d="M371.8,551.86a3.36,3.36,0,0,1-3.2-4.4c9.06-27.75-7.32-53.38-23.19-70.35-13.68,1.31-27.65,2-41.54,2-76.93,0-149.29-19.89-203.77-56-26.62-17.65-47.53-38.24-62.17-61.19C22.69,338,15,312.57,15,286.36s7.73-51.63,23-75.52c14.64-23,35.55-43.54,62.17-61.19,54.48-36.13,126.84-56,203.77-56s149.29,19.89,203.77,56c26.62,17.65,47.54,38.24,62.17,61.19,15.24,23.89,23,49.3,23,75.52,0,120.46-139.45,212.39-206.48,256.57-4.53,3-8.8,5.8-12.63,8.36A3.37,3.37,0,0,1,371.8,551.86Zm-25.08-81.62a3.4,3.4,0,0,1,2.43,1c10.16,10.63,17.78,21.65,22.64,32.76,5.52,12.61,7.3,25,5.31,36.9l5.5-3.62c66-43.54,203.49-134.12,203.46-251,0-102.57-126.59-186-282.19-186s-282.19,83.44-282.19,186,126.59,186,282.19,186c14.23,0,28.53-.7,42.52-2.1Z"/></svg>