<svg id="Layer_1" data-name="Layer 1" xmlns="http://www.w3.org/2000/svg" viewBox="0 0 600 600"><defs><style>.cls-1{fill:#f2b879;}.cls-2{fill:#e27683;}.cls-3{fill:#be1e2d;}.cls-4{fill:#231f20;}</style></defs><title>doodle</title><path class="cls-1" d="M289.21,196.3c-.54-11.48-2-23.49-1.09-35-7.78,1.25-5.09,15.26-4.76,20.82q.74,12,1.44,24l1.08,18.76c1.56-.45,3.09-.94,4.62-1.44Q289.86,209.88,289.21,196.3Z"/><path class="cls-2" d="M356,111.45a81.06,81.06,0,0,0,6-22.31c1.11-9.14,2.3-38.75-10.46-41,5.93,11.74,4.93,26.14,2.49,38.7a184.87,184.87,0,0,1-6.67,23.53c-1.42,4.24-2.88,8.47-4.26,12.73-.55,1.68-1.55,3.59-1.7,5.33a7.92,7.92,0,0,1-.74,1.95l2.95-.64C349.55,127,353.61,117,356,111.45Z"/><path class="cls-1" d="M291.21,238.29c0-.85-.09-1.71-.13-2.57-1.53.18-3.05.33-4.56.42q.45,7.85.89,15.68Q292,335.4,296.58,419c2.93,55,6.51,110.18,7.4,165.27,9,1.78,5.78-17.57,5.5-22.1q-.71-11.39-1.4-22.78c-1-16-2.14-32-3.17-48-3.61-56.35-6.73-112.73-9.71-169.12C293.73,294.29,292.58,266.28,291.21,238.29Z"/><path class="cls-2" d="M324.56,174.52c.64-1.7,3.16-11.9-1.54-10.69a3,3,0,0,1-1.61,0,19.5,19.5,0,0,0-3.05,7.79c-.32,1.77-1.56,9.5.25,10.31C320.77,182.86,323.88,176.35,324.56,174.52Z"/><path class="cls-3" d="M274,227.81a4.25,4.25,0,0,1,.57-.17c1.13-.23,2.25-.48,3.38-.73q-.26-5-.5-10c-.71-14.66-1.88-29.39-2.05-44.06-.11-8.94,3.92-20.38,14.82-18.15a2.74,2.74,0,0,1,3.4,1.74c3.82,15.75,2.9,33.28,3.74,49.42l.78,14.7a89.37,89.37,0,0,0,13-6.72c11-6.95,20.51-16,28.84-26,16.11-19.27,29.46-42.21,40.71-64.62,10.18-20.26,20.58-48.19,11.62-70.56-7.69-19.19-27.47-32.37-48.22-30.93-24.31,1.69-45.41,19.69-57.42,39.93-2,3.33-6.42,3-8.47,0-8.35-12.19-17.63-23.7-29-33.26C237,18.17,222.33,16.76,206.91,18.27c-12.45,1.22-25,5.36-34.19,14.2-8.15,7.88-13,18.42-15.2,29.43-5.3,26.46,6.38,53.17,19.23,75.66A247.12,247.12,0,0,0,224,196.49c9.43,8.69,19.51,17.14,30.52,23.76A56.08,56.08,0,0,0,274,227.81Zm63.3-115.57c3.51-10.48,7.11-21,8.9-32s.84-21.49-1-32.26a3.29,3.29,0,0,1-.28-1.83A2.76,2.76,0,0,1,345.2,45l.4-1.48a3.8,3.8,0,0,1,3.51-2.67c20-2.31,22.76,26.64,22.48,40.5-.35,17.75-6.14,37.65-18,51.25-4.39,5.06-12.29,9.45-18.52,4.71C328,131.82,335.11,118.72,337.27,112.24Zm-26.35,65.88c.17-7.81,1.68-15.61,8.94-19.15a2.2,2.2,0,0,1,.2-.23c6.15-6.31,12.77,1.6,13.06,8.08.35,8-3.76,17.05-10.37,21.73-2.79,2-6.13,2.5-8.9,0C310.81,185.93,310.84,181.87,310.92,178.12Z"/><path class="cls-4" d="M278.37,236.14q1.74,34.89,3.54,69.79c3,59.73,6,119.46,9.34,179.18.92,16.83,1.63,33.69,2.81,50.5s2.43,33.69,4,50.51a3.15,3.15,0,0,0,.83,1.88,3.43,3.43,0,0,0,2.76,3.7c10.76,2.54,16.32-7.68,16.5-17,.29-14.88-1.84-30.08-2.65-44.94q-2.49-45.58-5.09-91.15c-3.54-60.77-7.16-121.54-10.38-182.33L298.82,234a2.54,2.54,0,0,0,.56-2.32c17.05-6,32.43-18.29,44.14-31.17,9.41-10.36,17.46-21.91,24.9-33.74,8.13-12.93,16.19-26.08,23-39.77,11.29-22.86,21.75-53,11.7-78-8.66-21.57-29.43-37.24-52.93-37.67C335,11,319.92,16.22,307.59,25c-10,7.06-17.73,16-24.92,25.58A144.86,144.86,0,0,0,257.9,22.65C246.13,12.36,234,8.09,218.44,8c-26.87-.2-52.9,10.16-64.5,35.8-11.9,26.29-5.75,55.46,6.2,80.54,12.65,26.54,30.62,51,51.48,71.68,11.24,11.13,23.58,21.79,37,30.25A62.39,62.39,0,0,0,278.37,236.14Zm6.43-30q-.71-12-1.44-24c-.33-5.56-3-19.57,4.76-20.82-.89,11.55.55,23.56,1.09,35q.63,13.57,1.29,27.15c-1.53.5-3.06,1-4.62,1.44Zm20.11,285.26c1,16,2.2,32,3.17,48q.69,11.39,1.4,22.78c.28,4.53,3.53,23.88-5.5,22.1-.89-55.09-4.47-110.22-7.4-165.27q-4.43-83.58-9.17-167.15-.44-7.84-.89-15.68c1.51-.09,3-.24,4.56-.42,0,.86.08,1.72.13,2.57,1.37,28,2.52,56,4,84C298.18,378.66,301.3,435,304.91,491.39ZM176.75,137.56c-12.85-22.49-24.53-49.2-19.23-75.66,2.2-11,7-21.55,15.2-29.43,9.16-8.84,21.74-13,34.19-14.2,15.42-1.51,30.08-.1,42.27,10.16,11.35,9.56,20.63,21.07,29,33.26,2,3,6.49,3.33,8.47,0,12-20.24,33.11-38.24,57.42-39.93,20.75-1.44,40.53,11.74,48.22,30.93,9,22.37-1.44,50.3-11.62,70.56-11.25,22.41-24.6,45.35-40.71,64.62-8.33,10-17.83,19.06-28.84,26a89.37,89.37,0,0,1-13,6.72l-.78-14.7c-.84-16.14.08-33.67-3.74-49.42a2.74,2.74,0,0,0-3.4-1.74c-10.9-2.23-14.93,9.21-14.82,18.15.17,14.67,1.34,29.4,2.05,44.06q.24,5,.5,10c-1.13.25-2.25.5-3.38.73a4.25,4.25,0,0,0-.57.17,56.08,56.08,0,0,1-19.46-7.56c-11-6.62-21.09-15.07-30.52-23.76A247.12,247.12,0,0,1,176.75,137.56Z"/><path class="cls-4" d="M335.1,137.26c6.23,4.74,14.13.35,18.52-4.71,11.83-13.6,17.62-33.5,18-51.25.28-13.86-2.5-42.81-22.48-40.5a3.8,3.8,0,0,0-3.51,2.67L345.2,45a2.76,2.76,0,0,0-.28,1.24A3.29,3.29,0,0,0,345.2,48c1.81,10.77,2.76,21.37,1,32.26s-5.39,21.48-8.9,32C335.11,118.72,328,131.82,335.1,137.26Zm6.37-8.8c.15-1.74,1.15-3.65,1.7-5.33,1.38-4.26,2.84-8.49,4.26-12.73a184.87,184.87,0,0,0,6.67-23.53c2.44-12.56,3.44-27-2.49-38.7,12.76,2.22,11.57,31.83,10.46,41a81.06,81.06,0,0,1-6,22.31c-2.43,5.58-6.49,15.52-12.36,18.32l-2.95.64A7.92,7.92,0,0,0,341.47,128.46Z"/><path class="cls-4" d="M322.75,188.55c6.61-4.68,10.72-13.7,10.37-21.73-.29-6.48-6.91-14.39-13.06-8.08a2.2,2.2,0,0,0-.2.23c-7.26,3.54-8.77,11.34-8.94,19.15-.08,3.75-.11,7.81,2.93,10.48C316.62,191.05,320,190.52,322.75,188.55Zm-4.39-17a19.5,19.5,0,0,1,3.05-7.79,3,3,0,0,0,1.61,0c4.7-1.21,2.18,9,1.54,10.69s-3.79,8.34-5.95,7.38C316.8,181.09,318,173.36,318.36,171.59Z"/></svg>