<svg id="Layer_1" data-name="Layer 1" xmlns="http://www.w3.org/2000/svg" viewBox="0 0 600 600"><defs><style>.cls-1{fill:#fff;}.cls-2{fill:#8dc63f;}.cls-3{fill:#009344;}.cls-4{fill:#231f20;}</style></defs><title>doodle</title><path class="cls-1" d="M393.32,326.7A2.89,2.89,0,0,0,395,327c2.21-2.33,1.41-8.15-.64-10.08-1.73-1.64-3.61-1.49-5.53-.91,0,3,.31,5.89,1.29,7.79A6.52,6.52,0,0,0,393.32,326.7Z"/><path class="cls-1" d="M213.19,355.56c-3.33-.67-5.36,7.28-6.8,10.11,0,.19,0,.38.05.57.57,4,7.38,12.4,10.14,5.79C217.8,369.1,217.42,356.42,213.19,355.56Z"/><path class="cls-2" d="M176,338.67c-14,34.19-28.47,68.18-43.13,102.09-13.35,30.88-26.2,63.14-42.94,92.53,15.85-5,33.23-7.55,49-10.89q31-6.54,62-12.86C243,501,285.13,492.79,327.49,485.76c41.18-6.82,82.54-11.88,123.87-17.6,34-4.72,67.95-10.79,100.45-21.85-23.81-23.87-46.1-49.53-69.4-73.85q-38.67-40.33-78-80t-79.26-78.77c-24-23.54-50-46.06-72.38-71.28-3.4,13.93-10.54,27.86-15.39,40.69q-9.6,25.36-19.4,50.64Q197.41,286.37,176,338.67Zm195.27-20.12a22.58,22.58,0,0,1,2.25-7,8.94,8.94,0,0,1,.58-7.78c7.25-12.49,26.59-10.56,35.35-.81,8.95,10,9.53,26.9.64,37.12s-24.52,8.09-33.08-1.4A24.23,24.23,0,0,1,371.29,318.55Zm-93.75,33.86a3.74,3.74,0,0,1,6.92,1.87c.29,13.79,12.81,29.65,28.61,24.55,8.23-2.66,5.59-13.86,5.05-20.23-.6-7.08-1-12.78,4.25-18.12,2.57-2.64,8-2.38,9.67,1.24,2.94,6.29,2.62,13.48,3,20.37.37,5.89.34,11.71-1.69,17.34-4,11-13.92,16.14-25.3,15.66C288.16,394.24,263.87,373.55,277.54,352.41Zm-42.19,2.65c1.8,8.38,2.09,19.94-2.39,27.51-10.85,18.37-37.65,10-43-8.26a27,27,0,0,1,.27-16.17,17.37,17.37,0,0,1,2.21-11.51,22.79,22.79,0,0,1,23.47-11.14C226.22,337.11,233.2,345.08,235.35,355.06Z"/><path class="cls-3" d="M42.69,398.65c-1.92,3.29-5,7.66-6.07,11.35-1.59,5.53.9,9.27,3,14.08,13.65,31.58,28.23,62.8,42.53,94.11,10.1-28.55,23.11-56.45,34.69-84.21,14.48-34.73,28.61-69.62,42.67-104.52s27.85-70,41.36-105.11q9.74-25.31,19.38-50.65c1-2.67,2-5.43,2.92-8.22C181,219.29,138.47,272.81,96.07,326.41,83.68,342.06,71,357.52,59.24,373.66A298.45,298.45,0,0,0,42.69,398.65Z"/><path class="cls-4" d="M574.76,439.27a8,8,0,0,0-.51-.68c-23.85-28.37-51-54.51-76.82-81.15q-39.62-41-80-81.21-39.56-39.47-79.93-78.1c-23.84-22.79-49.54-51.71-76-73.17a21.58,21.58,0,0,0-20.24-3.75h0a15.71,15.71,0,0,0-7.38,5.08C178.68,194.68,124.29,263.69,69.66,332.5c-12.07,15.21-24.32,30.36-35,46.59-9.37,14.25-20.2,28.85-13.31,46.21,15.77,39.77,34.81,78.54,52.41,117.55a6.24,6.24,0,0,0,2,4.2c2.94,5,8.73,4.42,12.44,1.11,18.3-1.26,37.44-6.82,55-10.38q31-6.31,62.11-12.4,63.27-12.3,127-22.35c80.33-12.61,166.15-13.73,242.24-44.84C583.73,454.41,580.34,445.2,574.76,439.27ZM82.13,518.19c-14.3-31.31-28.88-62.53-42.53-94.11-2.08-4.81-4.57-8.55-3-14.08,1.06-3.69,4.15-8.06,6.07-11.35a298.45,298.45,0,0,1,16.55-25c11.74-16.14,24.44-31.6,36.83-47.25,42.4-53.6,84.93-107.12,127.08-160.93-1,2.79-1.91,5.55-2.92,8.22q-9.6,25.37-19.38,50.65-20.26,52.71-41.36,105.11c-14.06,34.9-28.19,69.79-42.67,104.52C105.24,461.74,92.23,489.64,82.13,518.19Zm369.23-50c-41.33,5.72-82.69,10.78-123.87,17.6-42.36,7-84.49,15.27-126.57,23.78q-31,6.29-62,12.86c-15.76,3.34-33.14,5.86-49,10.89,16.74-29.39,29.59-61.65,42.94-92.53C147.55,406.85,162,372.86,176,338.67Q197.41,286.37,218,233.73q9.85-25.26,19.4-50.64c4.85-12.83,12-26.76,15.39-40.69,22.39,25.22,48.38,47.74,72.38,71.28Q365,252.82,404.4,292.45t78,80c23.3,24.32,45.59,50,69.4,73.85C519.31,457.37,485.38,463.44,451.36,468.16Z"/><path class="cls-4" d="M192.43,346.63a17.37,17.37,0,0,0-2.21,11.51,27,27,0,0,0-.27,16.17c5.36,18.27,32.16,26.63,43,8.26,4.48-7.57,4.19-19.13,2.39-27.51-2.15-10-9.13-17.95-19.45-19.57A22.79,22.79,0,0,0,192.43,346.63ZM216.58,372c-2.76,6.61-9.57-1.8-10.14-5.79,0-.19,0-.38-.05-.57,1.44-2.83,3.47-10.78,6.8-10.11C217.42,356.42,217.8,369.1,216.58,372Z"/><path class="cls-4" d="M308.1,395.09c11.38.48,21.34-4.62,25.3-15.66,2-5.63,2.06-11.45,1.69-17.34-.43-6.89-.11-14.08-3-20.37-1.69-3.62-7.1-3.88-9.67-1.24-5.21,5.34-4.85,11-4.25,18.12.54,6.37,3.18,17.57-5.05,20.23-15.8,5.1-28.32-10.76-28.61-24.55a3.74,3.74,0,0,0-6.92-1.87C263.87,373.55,288.16,394.24,308.1,395.09Z"/><path class="cls-4" d="M410.11,340.08c8.89-10.22,8.31-27.17-.64-37.12-8.76-9.75-28.1-11.68-35.35.81a8.94,8.94,0,0,0-.58,7.78,22.58,22.58,0,0,0-2.25,7A24.23,24.23,0,0,0,377,338.68C385.59,348.17,401.22,350.29,410.11,340.08Zm-15.75-23.21c2.05,1.93,2.85,7.75.64,10.08a2.89,2.89,0,0,1-1.68-.25,6.52,6.52,0,0,1-3.2-2.95c-1-1.9-1.33-4.78-1.29-7.79C390.75,315.38,392.63,315.23,394.36,316.87Z"/></svg>