<svg id="Layer_1" data-name="Layer 1" xmlns="http://www.w3.org/2000/svg" viewBox="0 0 600 600"><defs><style>.cls-1{fill:#fff;}.cls-2{fill:#be1e2d;}.cls-3{fill:#231f20;}</style></defs><title>doodle</title><path class="cls-1" d="M478.86,263.8a10.45,10.45,0,0,1,1.11-2.19A101.2,101.2,0,0,0,460.76,235,96.77,96.77,0,0,0,429,214.53c-3.91,18.5-8.9,44.5,5.3,59.8C447.46,288.49,472.57,281.19,478.86,263.8Z"/><path class="cls-1" d="M388.54,385.18c-18.19,6.89-28.06,25-35.93,41.83,23.52-1.56,47-6.1,68.41-15.5a10.26,10.26,0,0,1,.8-2.65c3.46-7.55-.68-16.62-6.79-21.51C407.54,381.36,397.05,382,388.54,385.18Z"/><path class="cls-1" d="M368.41,255.85c22.41-3.8,30.81-30.47,42.4-47.31a230,230,0,0,0-34.36-5.72q-3.4-.06-6.71-.17-9.3-.33-18.37-1.3a7.61,7.61,0,0,1,.72,4.29C350.56,220.26,341.73,260.37,368.41,255.85Z"/><path class="cls-1" d="M283.32,261.23c13.76,0,22.7-12.68,29.26-23.11,7.69-12.22,14.92-24.75,22.36-37.12a8.13,8.13,0,0,1,.64-.87c-20.85-1.16-41.75-2.7-62-7.58C269,209.65,256.92,261.27,283.32,261.23Z"/><path class="cls-1" d="M244.38,383c-2.56-9.73-6.13-22.37-13.38-29.78-14.52-14.85-41.05,29.55-45.47,40.47-.16.38-.35.71-.53,1.05,19.32,11,40.64,18.71,62.71,23.93A114.68,114.68,0,0,0,244.38,383Z"/><path class="cls-1" d="M205.72,207.69c18,11.62,38-6.28,49.2-20.82-15.93-6.11-30.17-15.52-45.79-22.24-6.21,5.61-12,11.7-13.64,20.29C193.77,194,198.06,202.75,205.72,207.69Z"/><path class="cls-1" d="M302.81,380.35c-16.7,7.51-23.27,28.65-35.29,42.29A385.15,385.15,0,0,0,334,427.69a8.1,8.1,0,0,1-.23-1.71C333.35,410.44,329.09,368.54,302.81,380.35Z"/><path class="cls-2" d="M59.54,360.9c16.05,30.16,40.83,54.29,69.44,72.52,9,4.51,18.25,8.54,27.68,12.19a468,468,0,0,0,159.61,31.75,424.09,424.09,0,0,0,83.58-6.51c25.81-4.7,52-11.22,74.85-24.58,41.52-24.31,64.76-69.79,75.72-115.18s12.44-100.68-19.78-137.39a79,79,0,0,0-6.13-5.18c-20.58-15.51-44.66-22.39-69.65-26.46-27.22-1.3-55.78,2-81.13-.81a185.79,185.79,0,0,1-70.49-22.67l-2.06-1.21A160.93,160.93,0,0,1,278,127.06c-22.91-12.5-42.08-32.43-66.77-41.55-20.74-7.66-43.39-6.44-64.13.53-46,15.47-76,55.3-90.23,100.31C49,211.17,45.26,237.06,43.61,263c-1,16.57-1.92,33.65-.74,50.46A178.31,178.31,0,0,0,59.54,360.9Zm28.79-141c3-20.11,8.88-40.12,21.43-56.43,17.51-22.74,45-33.82,72.91-35.19,13.83-2,27.92-.69,40.66,5.05,13.95,4.43,27,11.31,39.89,18.48,21.28,11.81,42.85,21.41,66.79,26.44,4.85,1,9.75,1.78,14.67,2.36,9.24.49,18.5,1,27.72,1.77,28.12.76,56.51-.25,83.07,9.37,38.25,13.85,60.63,49.36,63.28,89.19,2.84,42.69-16,88.87-41.6,122.41-12.55,16.44-28.1,30.28-47.15,38.69-20.27,9-42.37,12-64.36,13.07-46.65,2.27-95.46-.36-140-15.21-33.44-11.13-64.79-29.71-88.33-56-26-23.79-44.84-54.4-50.49-91.84C83.17,268.18,84.78,243.69,88.33,219.91Z"/><path class="cls-1" d="M168.32,384.05q-.7-20.1-1.4-40.18c-.38-10.72,2-28.95-7.64-36.48-8.66-6.78-22.08-2.19-27.87,6.09-3.84,5.5-5,11.8-5,18.24a135.17,135.17,0,0,0,19.06,32.71A167,167,0,0,0,168.32,384.05Z"/><path class="cls-3" d="M25,313.83a167.14,167.14,0,0,0,7.26,40.76,148.36,148.36,0,0,0,42.12,65c13,11.6,27.68,20.81,43.11,28.63,35.9,23.25,77.36,37.43,119.26,46.14C296.35,506.75,360,513.61,420,500.28c51.12-11.35,99.33-39.17,128.12-83.8,29.19-45.24,36.84-102.56,31.58-155.3-2.68-26.86-9.47-53.24-27.56-74A101.25,101.25,0,0,0,537,173c-17.39-16.12-39.57-24.79-63.12-27.88-1.92-.25-3.83-.46-5.74-.66-22.42-4.37-45.4-5.87-68-8.86a275.4,275.4,0,0,1-87.89-26.93l-82-41.09a138.79,138.79,0,0,0-61.88-12.91A141.66,141.66,0,0,0,48.83,125.11c-26.1,44.91-30.38,100.11-27.9,151A296.31,296.31,0,0,0,25,313.83ZM43.61,263c1.65-25.92,5.41-51.81,13.26-76.63,14.25-45,44.22-84.84,90.23-100.31,20.74-7,43.39-8.19,64.13-.53,24.69,9.12,43.86,29.05,66.77,41.55a160.93,160.93,0,0,0,23.18,10.31l2.06,1.21a185.79,185.79,0,0,0,70.49,22.67c25.35,2.85,53.91-.49,81.13.81,25,4.07,49.07,10.95,69.65,26.46a79,79,0,0,1,6.13,5.18c32.22,36.71,30.71,92.1,19.78,137.39S516.22,422,474.7,446.27c-22.82,13.36-49,19.88-74.85,24.58a424.09,424.09,0,0,1-83.58,6.51,468,468,0,0,1-159.61-31.75c-9.43-3.65-18.72-7.68-27.68-12.19-28.61-18.23-53.39-42.36-69.44-72.52a178.31,178.31,0,0,1-16.67-47.46C41.69,296.63,42.56,279.55,43.61,263Z"/><path class="cls-3" d="M137.26,383.88c23.54,26.32,54.89,44.9,88.33,56,44.59,14.85,93.4,17.48,140,15.21,22-1.07,44.09-4.1,64.36-13.07,19.05-8.41,34.6-22.25,47.15-38.69,25.59-33.54,44.44-79.72,41.6-122.41-2.65-39.83-25-75.34-63.28-89.19-26.56-9.62-55-8.61-83.07-9.37-9.22-.76-18.48-1.28-27.72-1.77-4.92-.58-9.82-1.34-14.67-2.36-23.94-5-45.51-14.63-66.79-26.44-12.92-7.17-25.94-14-39.89-18.48-12.74-5.74-26.83-7.09-40.66-5.05-27.95,1.37-55.4,12.45-72.91,35.19-12.55,16.31-18.44,36.32-21.43,56.43-3.55,23.78-5.16,48.27-1.56,72.13C92.42,329.48,111.26,360.09,137.26,383.88ZM429,214.53A96.77,96.77,0,0,1,460.76,235,101.2,101.2,0,0,1,480,261.61a10.45,10.45,0,0,0-1.11,2.19c-6.29,17.39-31.4,24.69-44.54,10.53C420.12,259,425.11,233,429,214.53Zm-7.2,194.33a10.26,10.26,0,0,0-.8,2.65c-21.45,9.4-44.89,13.94-68.41,15.5,7.87-16.84,17.74-34.94,35.93-41.83,8.51-3.22,19-3.82,26.49,2.17C421.14,392.24,425.28,401.31,421.82,408.86ZM351.37,201.35q9.08,1,18.37,1.3,3.3.1,6.71.17a230,230,0,0,1,34.36,5.72c-11.59,16.84-20,43.51-42.4,47.31-26.68,4.52-17.85-35.59-16.32-50.21A7.61,7.61,0,0,0,351.37,201.35ZM267.52,422.64c12-13.64,18.59-34.78,35.29-42.29,26.28-11.81,30.54,30.09,30.92,45.63a8.1,8.1,0,0,0,.23,1.71A385.15,385.15,0,0,1,267.52,422.64Zm6.09-230.09c20.22,4.88,41.12,6.42,62,7.58a8.13,8.13,0,0,0-.64.87c-7.44,12.37-14.67,24.9-22.36,37.12-6.56,10.43-15.5,23.09-29.26,23.11C256.92,261.27,269,209.65,273.61,192.55Zm-78.12-7.63c1.64-8.59,7.43-14.68,13.64-20.29,15.62,6.72,29.86,16.13,45.79,22.24-11.24,14.54-31.21,32.44-49.2,20.82C198.06,202.75,193.77,194,195.49,184.92Zm-10,208.75C190,382.75,216.48,338.35,231,353.2c7.25,7.41,10.82,20.05,13.38,29.78a114.68,114.68,0,0,1,3.33,35.67c-22.07-5.22-43.39-13-62.71-23.93C185.18,394.38,185.37,394.05,185.53,393.67Zm-54.12-80.19c5.79-8.28,19.21-12.87,27.87-6.09,9.61,7.53,7.26,25.76,7.64,36.48q.69,20.08,1.4,40.18a167,167,0,0,1-22.8-19.62,135.17,135.17,0,0,1-19.06-32.71C126.36,325.28,127.57,319,131.41,313.48Z"/></svg>