<svg id="Layer_1" data-name="Layer 1" xmlns="http://www.w3.org/2000/svg" viewBox="0 0 600 600"><defs><style>.cls-1{fill:#754c29;}.cls-2{fill:#fff;}.cls-3{fill:#231f20;}</style></defs><title>doodle</title><path class="cls-1" d="M498.75,65.11c-7.66-9.09-21.85-11.54-32.47-6.72-11.69,5.31-18.71,16.91-21.2,29.1-.74,3.62-5.5,4.42-7.92,2.09-26.81-25.72-64.89-32-100.57-34.51-35.93-2.54-87.95-9.46-110.77,26a4.79,4.79,0,0,1-8.65-1.13c-4.79-16.47-12.28-33.7-27.43-43.14-13.67-8.52-30.91-8.67-42.39,3.53C122.8,66.43,143,102.24,166.93,120a4.84,4.84,0,0,1,1.68,6.39,596.83,596.83,0,0,0-36,88.22C99,320.79,94.85,435.78,121.51,544a4.84,4.84,0,0,1,.1.63c55.79,7.19,111.62,13.4,167.84,16.29q87,4.46,174.17.62,10.49-45.46,16.91-91.73a1034.34,1034.34,0,0,0-9.91-339.39c-.59-3,1.3-6,4.56-6C499.44,124.34,513,82.05,498.75,65.11ZM175.77,158a13,13,0,0,1,6.22-8.41c0-.07,0-.14.08-.2,3.26-6,12.61-3.29,16.33.7a12.35,12.35,0,0,1,3.1,6.33,13,13,0,0,1-12.81,17.3,11.9,11.9,0,0,1-8.19-3.76A10.82,10.82,0,0,1,175.77,158ZM399.2,298.9c-10.54,37.06-36.77,67.74-74,79.53-36.17,11.47-75.48,3-100.63-26.19-13.93-16.14-23.66-35.73-31.85-55.28-9.23-22-15.37-45.58-12.81-69.62a4.87,4.87,0,0,1,1.25-2.84,7.21,7.21,0,0,1,1.51-2.17,6.64,6.64,0,0,1,2.51-1.53,3.84,3.84,0,0,1,1.75-.61c29.84-3.37,60.15-4,90.12-5.63l24.26-1.26c-2.68-8.55-2.13-17.38-2.42-26.32-.2-6-2.06-10.54-3.11-16.18a8.38,8.38,0,0,1,.19-4.11,57.11,57.11,0,0,1-12.55-3.09c-4.92-1.81-11.16-3.44-12.71-8.95a4.31,4.31,0,0,1,1.11-4.21c7.31-6.83,21,.07,28.69,5.89a97.28,97.28,0,0,1,14-6.52c4.37-1.62,10.95-4.66,15.73-3.64,9.06,1.94,4.15,12.08-1.42,14.85-4.49,2.22-9.45,1.73-14.23,2.68-2.55.5-7.5,2-8.88,4.55-1.2,2.22.93,5.79,1.39,8.18,2.32,12.11-.57,24.65,3.8,36.37l56.32-2.89c6.56-.33,13.16-.94,19.72-1,3.58,0,7.33.22,10,2.94,5.63,5.67,5.85,19,6.75,26.54A154.65,154.65,0,0,1,399.2,298.9Zm33.67-132.07a12.79,12.79,0,0,1-21-6.67c-1.37-6.32,2.48-11.63,7.8-13.54a10.4,10.4,0,0,1,8.69-1.33C437.83,148.06,439.8,160.43,432.87,166.83Z"/><path class="cls-2" d="M425.58,154.42c-2.36-.26-2.45,4.41-2.9,6.13a3.17,3.17,0,0,0,3.58-.33C427.94,158.9,428.6,154.75,425.58,154.42Z"/><path class="cls-2" d="M386.91,218.42c-1.92-.45-4.8.05-7.09.3,2.64,15,2,31.36,2.81,46.48.49,8.69.94,17.4,1.4,26.1.32,6,1.13,12.25,1.23,18.39a131.25,131.25,0,0,0,8.26-29.14,149.71,149.71,0,0,0-1.73-55.89C391,220.88,390.72,219.32,386.91,218.42Z"/><path class="cls-2" d="M379.15,292.67q-.66-12.36-1.32-24.73c-.46-8.7-.88-17.4-1.31-26.1-.38-7.51-1.31-15.29-.94-22.85l-14,.7c-4.44.23-8.89.44-13.34.66.89,2.88.95,6,1.19,9.08.43,5.57.8,11.14,1.17,16.71q1.23,18.09,2.17,36.21c1.18,22.88,2.67,45.92,2.73,68.85a105.59,105.59,0,0,0,25.76-32.83,2,2,0,0,1-.19-.45C379.15,309.84,379.6,301,379.15,292.67Z"/><path class="cls-2" d="M347.85,286.53Q347,269.12,346,251.71c-.57-10.18-.31-21-1.84-31.16l-16.42.82-23,1.12c2,11.58,1.43,24.13,1.92,35.77q.83,19.68,1.51,39.35c.87,24.87,1.93,49.78,2.27,74.67a98.45,98.45,0,0,0,25.85-8.52,94,94,0,0,0,14.31-8.69,1,1,0,0,1,0-.24C349.19,332.1,349,309.27,347.85,286.53Z"/><path class="cls-2" d="M301.94,259.67c-.41-12.06-2.12-24.9-1-37q-19,.91-37.93,1.81c1.22,10.92.75,22.25,1,33.16q.45,18.32.91,36.62c.61,25.11,1.93,50.32,1.77,75.44a88.29,88.29,0,0,0,38.64,3.35c-.91-24.67-1.31-49.37-2.09-74Q302.62,279.34,301.94,259.67Z"/><path class="cls-2" d="M190.2,162.63a4.24,4.24,0,0,0,1.94-5,3.81,3.81,0,0,0-3.2-1.22c-1.91.18-4.24,1.94-4.33,4a4.48,4.48,0,0,0,.06.64C185.14,163.33,188.44,163.56,190.2,162.63Z"/><path class="cls-2" d="M222.4,288.09c-1.33-20.13-4-41.3-2.57-61.46-10.12.44-20.24.75-30.35.69v0c-2.69,25.26,4.58,49.71,14.87,72.53,6,13.37,12.78,26.9,21.58,38.81-.89-6.72-.81-13.85-1.32-20.26Q223.4,303.27,222.4,288.09Z"/><path class="cls-2" d="M259.44,257.65c-.24-10.83-1.27-22.08-.56-33l-1.52.07c-11.43.52-22.9,1.21-34.36,1.74,2.95,19.7,2.57,40.34,3.91,60.21q1.07,15.87,2.36,31.71c.7,8.62,2.71,18.18,1.95,26.92a99.16,99.16,0,0,0,8.75,9A73.72,73.72,0,0,0,262,368c-1.23-24.05-1.14-48.26-1.69-72.33Q259.86,276.66,259.44,257.65Z"/><path class="cls-3" d="M506.61,59.85c-9.23-11.6-26.17-16.19-40.17-11.62C452.65,52.74,442.73,64.31,438,77.67c-28.78-23.75-67.16-29.81-103.61-32.25C297.66,43,249.93,38.48,223.44,68.64c-6-16.88-15.54-33-31.8-41.65s-36-7.73-49.65,5.39c-12.52,12-17.36,30.42-14.1,47.23,3.63,18.74,16.2,34.12,30.84,45.75a621.14,621.14,0,0,0-61.8,325.87,611.89,611.89,0,0,0,14.94,92.2c-3.6.22-4.28,6.65-.37,7.33,91,15.87,184.33,21.86,276.62,21.73q39.61,0,79.22-1.86a4.71,4.71,0,0,0,4.45-3.39A1042,1042,0,0,0,494,223.36q-4.65-45.29-13.26-90C509.1,127.75,524,81.72,506.61,59.85Zm-31.43,64.57c-3.26,0-5.15,3-4.56,6a1034.34,1034.34,0,0,1,9.91,339.39q-6.34,46.23-16.91,91.73-87,3.79-174.17-.62c-56.22-2.89-112-9.1-167.84-16.29a4.84,4.84,0,0,0-.1-.63C94.85,435.78,99,320.79,132.65,214.59a596.83,596.83,0,0,1,36-88.22,4.84,4.84,0,0,0-1.68-6.39c-24-17.74-44.13-53.55-19.58-79.65,11.48-12.2,28.72-12,42.39-3.53,15.15,9.44,22.64,26.67,27.43,43.14a4.79,4.79,0,0,0,8.65,1.13c22.82-35.46,74.84-28.54,110.77-26,35.68,2.53,73.76,8.79,100.57,34.51,2.42,2.33,7.18,1.53,7.92-2.09,2.49-12.19,9.51-23.79,21.2-29.1,10.62-4.82,24.81-2.37,32.47,6.72C513,82.05,499.44,124.34,475.18,124.42Z"/><path class="cls-3" d="M396.94,211.85c-2.7-2.72-6.45-3-10-2.94-6.56.06-13.16.67-19.72,1l-56.32,2.89c-4.37-11.72-1.48-24.26-3.8-36.37-.46-2.39-2.59-6-1.39-8.18,1.38-2.56,6.33-4.05,8.88-4.55,4.78-.95,9.74-.46,14.23-2.68,5.57-2.77,10.48-12.91,1.42-14.85-4.78-1-11.36,2-15.73,3.64a97.28,97.28,0,0,0-14,6.52c-7.66-5.82-21.38-12.72-28.69-5.89a4.31,4.31,0,0,0-1.11,4.21c1.55,5.51,7.79,7.14,12.71,8.95A57.11,57.11,0,0,0,296,166.69a8.38,8.38,0,0,0-.19,4.11c1.05,5.64,2.91,10.22,3.11,16.18.29,8.94-.26,17.77,2.42,26.32l-24.26,1.26c-30,1.59-60.28,2.26-90.12,5.63a3.84,3.84,0,0,0-1.75.61,6.64,6.64,0,0,0-2.51,1.53,7.21,7.21,0,0,0-1.51,2.17,4.87,4.87,0,0,0-1.25,2.84c-2.56,24,3.58,47.58,12.81,69.62,8.19,19.55,17.92,39.14,31.85,55.28,25.15,29.15,64.46,37.66,100.63,26.19,37.21-11.79,63.44-42.47,74-79.53a154.65,154.65,0,0,0,4.49-60.51C402.79,230.88,402.57,217.52,396.94,211.85Zm-192.59,88c-10.29-22.82-17.56-47.27-14.87-72.53v0c10.11.06,20.23-.25,30.35-.69-1.42,20.16,1.24,41.33,2.57,61.46q1,15.18,2.21,30.33c.51,6.41.43,13.54,1.32,20.26C217.13,326.77,210.38,313.24,204.35,299.87ZM240,354.35a99.16,99.16,0,0,1-8.75-9c.76-8.74-1.25-18.3-1.95-26.92q-1.29-15.84-2.36-31.71c-1.34-19.87-1-40.51-3.91-60.21,11.46-.53,22.93-1.22,34.36-1.74l1.52-.07c-.71,10.88.32,22.13.56,33q.44,19,.87,38c.55,24.07.46,48.28,1.69,72.33A73.72,73.72,0,0,1,240,354.35Zm26.73,15.36c.16-25.12-1.16-50.33-1.77-75.44q-.45-18.31-.91-36.62c-.28-10.91.19-22.24-1-33.16q19-.88,37.93-1.81c-1.1,12.09.61,24.93,1,37q.66,19.68,1.31,39.35c.78,24.67,1.18,49.37,2.09,74A88.29,88.29,0,0,1,266.7,369.71Zm69.57-5.95a98.45,98.45,0,0,1-25.85,8.52c-.34-24.89-1.4-49.8-2.27-74.67q-.69-19.67-1.51-39.35c-.49-11.64.08-24.19-1.92-35.77l23-1.12,16.42-.82c1.53,10.15,1.27,21,1.84,31.16q1,17.4,1.82,34.82c1.11,22.74,1.34,45.57,2.69,68.3a1,1,0,0,0,0,.24A94,94,0,0,1,336.27,363.76Zm19.21-12.56c-.06-22.93-1.55-46-2.73-68.85q-.94-18.12-2.17-36.21c-.37-5.57-.74-11.14-1.17-16.71-.24-3.08-.3-6.2-1.19-9.08,4.45-.22,8.9-.43,13.34-.66l14-.7c-.37,7.56.56,15.34.94,22.85.43,8.7.85,17.4,1.31,26.1q.65,12.38,1.32,24.73c.45,8.28,0,17.17,1.9,25.25a2,2,0,0,0,.19.45A105.59,105.59,0,0,1,355.48,351.2Zm38-70.65a131.25,131.25,0,0,1-8.26,29.14c-.1-6.14-.91-12.43-1.23-18.39-.46-8.7-.91-17.41-1.4-26.1-.84-15.12-.17-31.45-2.81-46.48,2.29-.25,5.17-.75,7.09-.3,3.81.9,4,2.46,4.88,6.24A149.71,149.71,0,0,1,393.52,280.55Z"/><path class="cls-3" d="M188.69,173.7a13,13,0,0,0,12.81-17.3,12.35,12.35,0,0,0-3.1-6.33c-3.72-4-13.07-6.73-16.33-.7,0,.06,0,.13-.08.2a13,13,0,0,0-6.22,8.41,10.82,10.82,0,0,0,4.73,12A11.9,11.9,0,0,0,188.69,173.7Zm.25-17.28a3.81,3.81,0,0,1,3.2,1.22,4.24,4.24,0,0,1-1.94,5c-1.76.93-5.06.7-5.53-1.56a4.48,4.48,0,0,1-.06-.64C184.7,158.36,187,156.6,188.94,156.42Z"/><path class="cls-3" d="M428.33,145.29a10.4,10.4,0,0,0-8.69,1.33c-5.32,1.91-9.17,7.22-7.8,13.54a12.79,12.79,0,0,0,21,6.67C439.8,160.43,437.83,148.06,428.33,145.29Zm-2.07,14.93a3.17,3.17,0,0,1-3.58.33c.45-1.72.54-6.39,2.9-6.13C428.6,154.75,427.94,158.9,426.26,160.22Z"/></svg>