<svg id="Layer_1" data-name="Layer 1" xmlns="http://www.w3.org/2000/svg" viewBox="0 0 600 600"><defs><style>.cls-1{fill:#fff;}.cls-2{fill:#231f20;}</style></defs><title>doodle</title><path class="cls-1" d="M346.5,342.23c5.25,15.5,15.23,51.28,30.29,31.51,6.08-8,8.44-19.47,9-29.32a69.85,69.85,0,0,0-.61-11Q366,338.47,346.5,342.23Z"/><path class="cls-1" d="M498.75,338A46.87,46.87,0,0,0,501,325.28c.62-10.89-2.21-20.24-6.39-29.91-13.28,5.77-26.74,11.15-40.28,16.12,8.56,12.65,14.43,27.05,30.88,32.9C492.78,347.07,495.89,345.75,498.75,338Z"/><path class="cls-1" d="M89.14,383.48c22.65-1.05,36.7-27.31,43.85-46.45q-18.17-5.13-35.8-12C95.49,337.75,67.42,384.49,89.14,383.48Z"/><path class="cls-1" d="M208.88,350.63c.14,29.56-18.52,119.49,25.57,106.07,42.12-12.82,36.69-68.71,41.37-105.45A470.4,470.4,0,0,1,208.88,350.63Z"/><path class="cls-2" d="M497.67,365.18c15.34-2.34,19.82-18.87,21.65-32.18,2.06-15.12-.05-31.85-7.64-45.34,13.68-6.43,27.09-13.29,40-20.75,5.26,9.27,8,22.25,16.24,29.14,2.74,2.29,8.11,2.75,9.86-1.27,5.19-11.89-1.41-24.35-7.85-34.62-8-12.69-18.2-21.63-29-31.76-4.39-4.12-12.26,1.28-8.65,6.68,3.33,5,6.55,10.18,9.7,15.41-39.82,18.37-78.76,37.45-120.48,51.39-41.32,13.8-84.11,23.95-127.52,28.14a477.45,477.45,0,0,1-130.64-5.13,378.38,378.38,0,0,1-60.07-15.84c-15.25-5.44-32.2-11.69-44.71-22.65,8.76-9.79,20.76-23.19,19.49-34.78-.46-4.15-4-8-8.57-6.52-8.21,2.59-11.35,9-16.09,15.75-5.69,8.13-11.65,16.06-17.63,24-2.77,3.66-23.48,26-12.66,29.41,9,2.82,19.28-8.46,26.31-17,9,10.55,21.47,16.9,34.85,22.63,1,.42,2,.81,2.94,1.22C75.36,329.58,68,352.41,65.62,365.41c-2.76,15.07-1.84,30.34,15.64,34,32.61,6.79,60.12-30,68.21-58.08l.2.05a393.55,393.55,0,0,0,47.47,8.13c-5.27,11.63-6.81,26-8.57,38.18a159.31,159.31,0,0,0-.54,43.78c3.36,25.14,14.36,48.65,43.6,45,24.34-3.05,42.07-23,50.61-44.76,5.33-13.57,7.46-28,9.17-42.42,1.52-12.79,3.54-26.36,3-39.44,12.32-1.19,24.59-2.85,36.8-4.86-.62,24.57,19.46,64.36,47.2,51.15,13.72-6.53,20.85-22.76,23.85-36.85,1.87-8.73,3.63-20.91,1.25-30.89,6.39-1.88,12.76-3.82,19.09-5.88,4.91-1.6,9.82-3.27,14.74-5C444.18,342.79,472.91,369,497.67,365.18ZM89.14,383.48c-21.72,1,6.35-45.73,8-58.42q17.61,6.81,35.8,12C125.84,356.17,111.79,382.43,89.14,383.48ZM234.45,456.7c-44.09,13.42-25.43-76.51-25.57-106.07a470.4,470.4,0,0,0,66.94.62C271.14,388,276.57,443.88,234.45,456.7ZM385.76,344.42c-.53,9.85-2.89,21.33-9,29.32-15.06,19.77-25-16-30.29-31.51q19.47-3.74,38.65-8.79A69.85,69.85,0,0,1,385.76,344.42Zm99.48,0c-16.45-5.85-22.32-20.25-30.88-32.9,13.54-5,27-10.35,40.28-16.12,4.18,9.67,7,19,6.39,29.91A46.87,46.87,0,0,1,498.75,338C495.89,345.75,492.78,347.07,485.24,344.39Z"/></svg>