<svg id="Layer_1" data-name="Layer 1" xmlns="http://www.w3.org/2000/svg" viewBox="0 0 600 600"><defs><style>.cls-1{fill:#8dc63f;}.cls-2{fill:#fff;}.cls-3{fill:#009444;}.cls-4{fill:#231f20;}</style></defs><title>doodle</title><path class="cls-1" d="M344.62,375.05c-28.09,17.7-56.56,34.57-86.3,49.25q18.3,11.71,37.56,21.81a478.2,478.2,0,0,0,72.47,30.67q18.7,6.15,37.88,10.77c12,2.91,25.7,3.82,37.52,7.78,9.49-8.42,20.31-15.69,30.32-23.38Q492.17,458,510.22,444l65.48-50.63c-15.93-3.82-31.78-8.84-47.41-13.41-15.45-4.52-30.38-10.25-44.32-18.34-19.56-11.36-36.39-25.84-51.19-42.26-12.92,9.83-28,17.72-41.61,26.32Z"/><path class="cls-2" d="M230.37,405.05q9.07,6.74,18.47,13c2.12-.92,4.24-1.71,5.83-2.52q17.79-9,35.08-18.93c24-13.89,47.26-29.17,70.68-44.07q16.88-10.76,33.77-21.49c10.28-6.52,20.55-14.22,31.38-20.07a360.64,360.64,0,0,1-32.16-46.22c-68,35.47-138.2,66.6-204.68,104.9C202.36,381.74,215.67,394.14,230.37,405.05Z"/><path class="cls-3" d="M166.54,455.05c-36.64-23.27-75.09-46.33-103.77-79.4-10.47-12.08-20-24.92-29.22-38A131.73,131.73,0,0,1,24,349c15.85,22.26,37.65,40.29,57.76,58.52,27.76,25.16,56.3,49.46,87.15,70.58-.07-7.39.27-14.83.66-22.25A4.78,4.78,0,0,1,166.54,455.05Z"/><path class="cls-1" d="M144.41,322.09c7.28,10.48,15.24,20.36,23.12,30.33a3.26,3.26,0,0,1,1.59.68c3.92,3.09,7.73,6.29,11.52,9.53,1.7-.82,3.36-1.59,4.67-2.34q19.42-11.21,39.24-21.69C278.43,310,333.09,282,388.14,255.7c-5-8.91-9.84-17.94-14.43-27C346,174.14,316.5,116.83,305.17,56.08,268,80.24,227.37,97.83,187,115.81c-20.64,9.2-41.19,18.53-61.13,29.17C108,154.5,90.83,165.36,71.6,171.83c.06.32.14.63.19.95a4,4,0,0,1,0,1.54c11.62,34.51,25.15,67.89,42.84,99.84A557.16,557.16,0,0,0,144.41,322.09Z"/><path class="cls-3" d="M169,414.6c-.16-.24-.29-.49-.43-.74a4.64,4.64,0,0,1-1.62,0c-9.21-1.72-18.71-8.46-26.67-13.24a266.29,266.29,0,0,1-23.62-16,274.32,274.32,0,0,1-41.7-39,291.21,291.21,0,0,1-35.82-51.22c-4.95,5.82-12.45,14.24-10.54,19.29,2.81,7.43,10.53,15.28,15.17,21.78,10.47,14.68,21.45,29,33.86,42.13,26.54,28,60.85,46.25,92.5,67.71q.13-2.91.23-5.8.34-11.61.6-23.22A4.63,4.63,0,0,1,169,414.6Z"/><path class="cls-3" d="M171.06,371.79a4.81,4.81,0,0,1-.56-.47c-25.87-27-46.95-61-64.74-93.68a573.54,573.54,0,0,1-26.57-55.5c-7.69,7-19.27,11.77-28.24,16.28-5.68,2.86-13.52,8.2-20.73,9.2,6.41,16.15,12.67,32.14,21.31,47.35a269.76,269.76,0,0,0,74.54,83.74q10.49,7.65,21.7,14.24c6.49,3.8,14,6.7,20.34,10.9a4,4,0,0,1,1.29.11,10.08,10.08,0,0,1,1.76.66c.08-4.3.17-8.6.2-12.9C171.41,386.67,169.89,377.47,171.06,371.79Z"/><path class="cls-3" d="M364,487.11a494.7,494.7,0,0,1-73.71-31.51q-21.13-11.14-41.06-24.38-.72,7.54-1.36,15.1c18.46,21.25,42.58,29.62,69.13,37,16.49,4.59,33,9,49.54,13.48l25.92,7.05c4.46,1.21,9.62,3.32,14.28,3.37,5.48.06,6.88-2.28,7.69-6.1-3.81-.94-7.57-1.9-11.22-2.78Q383.41,493.61,364,487.11Z"/><path class="cls-3" d="M246.87,459.29c-.39,5.34-.76,10.68-1.07,16-.07,1.14-.12,2.29-.18,3.43C268,490.23,290,501.42,314.16,509.19A329.46,329.46,0,0,0,352,518.92q5.91,1.16,11.85,2.09c2.62.41,8.5,2.61,10.54,1.46,1.65-.93,3.18-4.87,4.33-6.6.81-1.2,1.62-2.38,2.44-3.54-16.33-4.32-32.57-9.3-48.77-13.82C304.82,490.8,266.24,483.5,246.87,459.29Z"/><path class="cls-2" d="M181.19,377.13c0,18-.3,35.92-.95,53.87-.63,17.25-.68,35.19-3.55,52.32q12.15,8,24.84,15.3a367.1,367.1,0,0,0,33.4,16.93c-.34-10.9,0-21.94.71-33l.53-7.89c.81-11,1.84-21.87,2.76-32.59.36-4.17-.26-12.34,1.35-17q-10-7-19.7-14.39C207.27,400.47,193.37,389.45,181.19,377.13Z"/><path class="cls-3" d="M245.2,489.24c-.32,10.06-.53,20.14-1.3,30.15a341.76,341.76,0,0,0,101.86,24.76,96.88,96.88,0,0,1,3.1-14.72c.06-.18.14-.33.21-.5q-15.4-3-30.48-7.52C293.49,513.93,267.5,503.73,245.2,489.24Z"/><path class="cls-4" d="M356.16,550.08a86.11,86.11,0,0,1,3.21-17.75,5.45,5.45,0,0,0,.22-1.5c1.49.25,3,.49,4.48.71,5,.76,11.93,3,16.38-.29,4.62-3.42,8.44-10.86,11.32-16.23,2.47.6,4.93,1.18,7.4,1.74,7.26,1.63,15.51,2.15,21.3-3.4a14.5,14.5,0,0,0,4.66-9.77,99.27,99.27,0,0,0,20.72,2.4,4.36,4.36,0,0,0,4.62-4.67c10.22-6.87,19.78-15.12,29.52-22.53q18-13.69,36-27.29l72.35-54.77a6.2,6.2,0,0,0,1.83-2.13,5.31,5.31,0,0,0-1.73-9.2c-29.73-10.61-61.84-14.45-90.22-28.85-24.21-12.3-44.93-30.3-62.55-50.81-19.61-22.8-35.24-48.92-49.31-75.41S359.1,176.59,347,149.09a573,573,0,0,1-33.74-100A4,4,0,0,0,308.15,46a4.57,4.57,0,0,0-6.16-.64c-36.76,24.47-77.19,42.28-117.26,60.5-19.6,8.91-39.17,18-58.25,28-20.28,10.62-39.58,23.37-61.37,30.77a4.49,4.49,0,0,0-3.1,5.27,4.25,4.25,0,0,0-.06,2.68c3.86,13.76,8.48,27.38,13.7,40.79-8.94,3.2-17.24,9.8-25.61,14.2C41.33,232.11,33,236.3,23.5,238.58a3.25,3.25,0,0,0-2.34,2.69A4.11,4.11,0,0,0,20.3,245a178.94,178.94,0,0,0,14.47,41c-5.39,6.15-13.23,13.55-16.09,21.17S22,321.08,26,326.84l2.65,3.81c-5.18,4.39-9.56,9.53-14.15,14.57a4.91,4.91,0,0,0-.75,5.82c14.15,21.29,33.61,38.28,52.19,55.58,19.52,18.18,39.44,36,60.25,52.68,40,32.14,83,60.43,131.63,77.65a341.48,341.48,0,0,0,92.83,18.65C353.77,555.79,356,552.9,356.16,550.08Zm22.58-34.21c-1.15,1.73-2.68,5.67-4.33,6.6-2,1.15-7.92-1.05-10.54-1.46q-5.94-.93-11.85-2.09a329.46,329.46,0,0,1-37.86-9.73c-24.17-7.77-46.17-19-68.54-30.45.06-1.14.11-2.29.18-3.43.31-5.34.68-10.68,1.07-16,19.37,24.21,57.95,31.51,85.54,39.22,16.2,4.52,32.44,9.5,48.77,13.82C380.36,513.49,379.55,514.67,378.74,515.87Zm28-8.63c-4.66-.05-9.82-2.16-14.28-3.37l-25.92-7.05c-16.51-4.5-33.05-8.89-49.54-13.48-26.55-7.4-50.67-15.77-69.13-37q.65-7.56,1.36-15.1,19.92,13.18,41.06,24.38A494.7,494.7,0,0,0,364,487.11q19.35,6.47,39.21,11.25c3.65.88,7.41,1.84,11.22,2.78C413.66,505,412.26,507.3,406.78,507.24ZM484,361.64c13.94,8.09,28.87,13.82,44.32,18.34,15.63,4.57,31.48,9.59,47.41,13.41L510.22,444Q492.15,458,474.07,472c-10,7.69-20.83,15-30.32,23.38-11.82-4-25.47-4.87-37.52-7.78q-19.14-4.62-37.88-10.77a478.2,478.2,0,0,1-72.47-30.67Q276.64,436,258.32,424.3c29.74-14.68,58.21-31.55,86.3-49.25l46.55-29.35c13.64-8.6,28.69-16.49,41.61-26.32C447.58,335.8,464.41,350.28,484,361.64ZM425.58,311c-10.83,5.85-21.1,13.55-31.38,20.07q-16.89,10.73-33.77,21.49c-23.42,14.9-46.65,30.18-70.68,44.07q-17.26,10-35.08,18.93c-1.59.81-3.71,1.6-5.83,2.52q-9.37-6.31-18.47-13c-14.7-10.91-28-23.31-41.63-35.36,66.48-38.3,136.7-69.43,204.68-104.9A360.64,360.64,0,0,0,425.58,311ZM71.8,174.32a4,4,0,0,0,0-1.54c-.05-.32-.13-.63-.19-.95C90.83,165.36,108,154.5,125.89,145c19.94-10.64,40.49-20,61.13-29.17,40.35-18,81-35.57,118.15-59.73,11.33,60.75,40.8,118.06,68.54,172.64,4.59,9,9.39,18.07,14.43,27C333.09,282,278.43,310,224.55,338.6q-19.8,10.53-39.24,21.69c-1.31.75-3,1.52-4.67,2.34-3.79-3.24-7.6-6.44-11.52-9.53a3.26,3.26,0,0,0-1.59-.68c-7.88-10-15.84-19.85-23.12-30.33a557.16,557.16,0,0,1-29.77-47.93C97,242.21,83.42,208.83,71.8,174.32ZM168.92,478.1c-30.85-21.12-59.39-45.42-87.15-70.58C61.66,389.29,39.86,371.26,24,349a131.73,131.73,0,0,0,9.54-11.33c9.21,13.06,18.75,25.9,29.22,38,28.68,33.07,67.13,56.13,103.77,79.4a4.78,4.78,0,0,0,3,.8C169.19,463.27,168.85,470.71,168.92,478.1Zm1.42-38.56q-.09,2.9-.23,5.8c-31.65-21.46-66-39.7-92.5-67.71-12.41-13.1-23.39-27.45-33.86-42.13-4.64-6.5-12.36-14.35-15.17-21.78-1.91-5.05,5.59-13.47,10.54-19.29a291.21,291.21,0,0,0,35.82,51.22,274.32,274.32,0,0,0,41.7,39,266.29,266.29,0,0,0,23.62,16c8,4.78,17.46,11.52,26.67,13.24a4.64,4.64,0,0,0,1.62,0c.14.25.27.5.43.74a4.63,4.63,0,0,0,2,1.72Q170.67,427.93,170.34,439.54Zm.82-34.92a10.08,10.08,0,0,0-1.76-.66,4,4,0,0,0-1.29-.11c-6.31-4.2-13.85-7.1-20.34-10.9q-11.19-6.57-21.7-14.24A269.76,269.76,0,0,1,51.53,295c-8.64-15.21-14.9-31.2-21.31-47.35,7.21-1,15.05-6.34,20.73-9.2,9-4.51,20.55-9.26,28.24-16.28a573.54,573.54,0,0,0,26.57,55.5c17.79,32.7,38.87,66.67,64.74,93.68a4.81,4.81,0,0,0,.56.47c-1.17,5.68.35,14.88.3,19.93C171.33,396,171.24,400.32,171.16,404.62Zm67.77,37.48c-.92,10.72-2,21.63-2.76,32.59l-.53,7.89c-.68,11-1,22.07-.71,33a367.1,367.1,0,0,1-33.4-16.93q-12.71-7.26-24.84-15.3c2.87-17.13,2.92-35.07,3.55-52.32.65-17.95.93-35.91.95-53.87,12.18,12.32,26.08,23.34,39.39,33.6q9.67,7.44,19.7,14.39C238.67,429.76,239.29,437.93,238.93,442.1Zm109.93,87.33a96.88,96.88,0,0,0-3.1,14.72A341.76,341.76,0,0,1,243.9,519.39c.77-10,1-20.09,1.3-30.15,22.3,14.49,48.29,24.69,73.39,32.17q15,4.47,30.48,7.52C349,529.1,348.92,529.25,348.86,529.43Z"/></svg>