<svg id="Layer_1" data-name="Layer 1" xmlns="http://www.w3.org/2000/svg" viewBox="0 0 600 600"><defs><style>.cls-1{fill:#58595b;}.cls-2{fill:#fff;}.cls-3{fill:#939598;}.cls-4{fill:#231f20;}</style></defs><title>doodle</title><path class="cls-1" d="M142,396.65a93.77,93.77,0,0,1-19.2-6.77c5.28,9.89,9.06,20.61,14.53,30.44,5.13,9.25,10.94,18.32,18.93,25.38a45.13,45.13,0,0,0,7.06,5.13c.83.48,2.25,1.73,3.21,1.36,1.2-.45-.2-2.08-.67-3.16-2.48-5.64-5.26-11.17-7.89-16.75-5.32-11.31-11.14-22.62-15.91-34.16A2,2,0,0,1,142,396.65Z"/><path class="cls-1" d="M388.24,229.81c.31-8.39,1.38-16.3,5.69-23.15-2.46-9.37-3.75-18.83-7.45-28q-2-5-4.54-9.77a35.29,35.29,0,0,0-7.27,3.36,42.68,42.68,0,0,0-8.92,6.66A51.11,51.11,0,0,0,354,196.49c-6.11,15-4.72,31.53,1.12,46.41a93.13,93.13,0,0,0,12.23,21.49c4.71,6.31,10.76,11.95,13.36,19.58,4.79,14.06-5.48,26.9-5.22,40.64,8.25-3.24,10.44-15.9,12.4-23.4,2.71-10.4,4.92-20.91,6.7-31.52a.53.53,0,0,1,0-.12q-1.2-2.29-2.18-4.71C387.94,253.77,387.8,241.6,388.24,229.81Z"/><path class="cls-2" d="M109.27,316.82a4,4,0,0,0-2.53.28c-.53,1.59-.53,3.25.71,4.13C110.06,323.1,111.39,317.52,109.27,316.82Z"/><path class="cls-2" d="M203.15,332.94c2.27.41,3.17-2.11,2.72-4-.55-2.23-2.38-2.26-4.19-2C200.37,329.46,200,332.37,203.15,332.94Z"/><path class="cls-1" d="M514.08,382.26c8.89-22.19,7.64-45.43-3.05-66.78a133.83,133.83,0,0,0-19.71-28.87c-6.56-7.37-13.19-14.59-16-24.16a2.9,2.9,0,0,1-.46-1.71s0,0,0-.05a2.28,2.28,0,0,1,.11-1.53c1-13.62,4.35-27,5.89-40.55a232.56,232.56,0,0,0,1.24-42.29c-2-28.3-11.95-54.45-27.21-78.21-24-37.39-59.8-66.17-104.17-74.28-24.91-4.55-50.7-3.69-75.83-1.56-23.81,2-47.61,6.43-69.24,17-36.94,18-65.64,49.57-84,85.94-20.66,40.92-27.37,87.35-23.26,132.72q3.7-12.15,8.54-23.91c2.29-5.53,5.3-17.22,13-17.4,7.87-.18,9.44,13.68,11.18,18.91a195.86,195.86,0,0,1,7.59,29c2-.08,4-.06,5.69-.06a110.14,110.14,0,0,1,28.28,3.69,117.18,117.18,0,0,1,23.6,9.11c-13.18-27.61-16-59.5-9.51-89.46,11.57-53.46,56.73-105.94,113.82-110.28,15.71-1.19,31.6,1.8,46.27,7.33,14,5.27,26.14,12.57,35.45,24.46s16.05,25.45,21.62,39.24c5.23,12.93,9.74,26.93,11.3,40.91A61.33,61.33,0,0,1,421,187c2.74-.95,3.69,2.81,1.8,4.26-7.24,5.57-15.63,9.66-21.1,17.13a3.93,3.93,0,0,1-1.46,2.23c-5.41,9.14-4.53,22-4.08,32.23.46,10.5,3.07,20.26,9,29,5.43,8,12.88,13.53,19.43,20.44,5.73,6.05,3,15.15.45,22.12-2.86,7.82-7.11,15-10.84,22.4A75.36,75.36,0,0,0,409,349.44c-1,3.36-2.7,9-1.32,12.48,2.89,7.21,11.14-3.77,13.21-6.26q4.77-5.75,9.2-11.76C440.34,330,448.5,315.22,456.37,300a3.68,3.68,0,0,1,.15-.9A78.05,78.05,0,0,1,468,275.82c1.67-2.37,5.16-2.66,6.77,0,13.38,22.2,20,50,16.25,75.75-3.39,23.46-16.6,43.33-31.26,61.34-13.39,16.45-28.27,31.87-39.33,50.09a131.1,131.1,0,0,0-18.83,66,118.53,118.53,0,0,0,4.32,34.91c1.46,5,3.86,10.9,9.31,12.47,6.6,1.9,8.71-4.25,7.71-9.62-1.09-5.82-4-11.16-5.06-17a62.27,62.27,0,0,1-.77-17.13A85.76,85.76,0,0,1,426.83,501c11.43-21.84,30-39.12,45.84-57.66S505,405.05,514.08,382.26Z"/><path class="cls-3" d="M172.35,275.26a117.32,117.32,0,0,0-23.86-4.4c-2.85-.22-6.27-.65-9.68-.68a2,2,0,0,1-3.31.12,15,15,0,0,0-8.51,3,1.78,1.78,0,0,1-2.79-2.15c1.74-3.79,5.5-5.42,9.62-6.13-1.9-6.71-3.6-13.5-5.39-20.23-1.11-4.14-2.13-8.31-3.39-12.41-.87-2.8-2.05-10.46-5.38-10-3,.41-4.63,6.51-5.68,8.94-1.76,4-3.39,8.14-4.93,12.28-2.84,7.63-5.29,15.39-7.43,23.25a2.89,2.89,0,0,1-3.49,2c-5.9-1.08-12.34,6.2-16.36,9.75-2,1.75-3.9,3.56-5.8,5.38l7.22-1.7c2.16-.5,4.38,2.43,2.36,4A53.4,53.4,0,0,0,67,315.52c2.13-1.73,4.26-3.47,6.37-5.23,1.6-1.35,4.84-.13,3.92,2.28-7.24,19.15-6.8,43.35,10,56.75a31.63,31.63,0,0,1,3.25-9.17,3,3,0,0,1,5.41.71,59.07,59.07,0,0,0,4.92,14.8,27,27,0,0,0,4.84,6.72,13.44,13.44,0,0,0,2.59,2.18c.52.29,5.69,1.11,4.59-.14-2.15-2.44.59-6.38,3.57-4.62a89.7,89.7,0,0,0,22.1,9.37c7.83,2.16,15.73,2.68,23.75,3.6a2.68,2.68,0,0,1,2.43,3.5c4.94,2.59,11.37-1,16.11-2.67a56.66,56.66,0,0,1,16.72-3,2.88,2.88,0,0,1,2.47,4.29l-.4.71A58.74,58.74,0,0,0,231,369.25c1.12-2,4.85-1.82,5.23.68q.67,4.45.91,8.91c1.75-2.49,2.62-6.18,3.4-8.59a97.49,97.49,0,0,0,3.25-13.39c.41-2.35,3.54-2.77,5.06-1.33a41.55,41.55,0,0,1,2.91,3c-.78-9.61-4-18.85-7.71-27.86-1.08-2.64-2.2-5.14-2.09-8.05s1.32-5.63,2.13-8.37A122.35,122.35,0,0,0,248,295.92a116.9,116.9,0,0,0,1-19.61c-.09-2.33.49-8.05-.77-10-1.49-2.34-6.69.64-8.33,1.52-10.27,5.49-18.9,13.89-29.17,19.38,2.26,2.47,3.83,5.33,3.79,8.55a2.72,2.72,0,0,1-4.58,1.9c-2.38-2.13-3.89-5-6.29-7.17a48.59,48.59,0,0,0-8.89-5.92A108.93,108.93,0,0,0,172.35,275.26ZM117,323.62c-2.76,7-12.45,7.27-16.3,1.15a9.87,9.87,0,0,1-.79-9.2,8,8,0,0,1,3.84-4.1,8.17,8.17,0,0,1,3.2-1.75C115.2,307.78,119.72,316.71,117,323.62Zm51.38,53.75c-4.07.82-7.77-1.17-10.18-4.38-2.73-3.64-4.23-8.39-5.28-12.95-1,3.93-2.35,7.85-4.76,10.84-7.28,9-18.52-.46-15.48-10.11a1.6,1.6,0,0,1,2.9-.38c1.44,2.69,2.56,11.81,7.94,7.85,2.89-2.12,3.83-8.53,4.6-11.75.9-3.79,1.55-7.62,2.11-11.47.26-1.85.35-3.78.61-5.67a15.61,15.61,0,0,1-6-2c-3.7-2.23-1.05-7.11,2.75-6.52,4.74.73,9.94-.84,14.69-1,5.05-.21,6.28,8.2,1.21,8.9-2.23.31-4.6.66-7,.81a30,30,0,0,1-.29,4.79c.08,1.54.13,3.08.3,4.6a67.74,67.74,0,0,0,2.21,11.19c1.46,5.18,5.23,16.29,11.66,9.39,1-1.06,3.21-.63,3.46.92C174.44,373.94,171.8,376.67,168.36,377.37Zm33.8-57.13a9.48,9.48,0,0,1,10,4.83c2.94,5.7.33,13.53-6.23,15-6.41,1.48-12.47-4-12.31-10.44a10.62,10.62,0,0,1,3.3-7.45A7.26,7.26,0,0,1,202.16,320.24Z"/><path class="cls-1" d="M231.31,384.31c.08-1.73.1-3.43.06-5.13a66.66,66.66,0,0,1-13.18,13.29c3.93,4.15,7.24,9.08,11.32,13.09a90.66,90.66,0,0,0,16.87,13.09,89,89,0,0,0,19.43,8.79,116.07,116.07,0,0,0,12.06,3c3.36.66,7.19,1.76,10.63,1.44,1.6-.14,3.3.08,2.75-2-.42-1.57-3.62-3.41-4.86-4.18a64.12,64.12,0,0,0-9.32-4.34,116.34,116.34,0,0,1-17.66-8.9c-9.93-6.24-19.6-14.7-25.16-25.26A2.85,2.85,0,0,1,231.31,384.31Z"/><path class="cls-3" d="M396.1,178.25a98.21,98.21,0,0,1,5.4,20,60.38,60.38,0,0,1,5.92-4.47c-3.76-15.87-7.06-31.41-13.61-46.47-6-13.78-13.39-28.21-24.12-38.94C359.49,98.19,345.16,92.58,331.42,89s-28.21-4.65-42.26-1.83c-26.18,5.26-49.32,21.43-66.27,41.69A142,142,0,0,0,198,172.69a127.69,127.69,0,0,1,18.72-26.57,121.09,121.09,0,0,1,53.52-33.67c21-6.45,45-8.27,65.52.48,19,8.09,35.07,22.18,46.77,39A115.23,115.23,0,0,1,396.1,178.25Z"/><path class="cls-4" d="M170.38,369.46c-6.43,6.9-10.2-4.21-11.66-9.39a67.74,67.74,0,0,1-2.21-11.19c-.17-1.52-.22-3.06-.3-4.6a30,30,0,0,0,.29-4.79c2.36-.15,4.73-.5,7-.81,5.07-.7,3.84-9.11-1.21-8.9-4.75.2-9.95,1.77-14.69,1-3.8-.59-6.45,4.29-2.75,6.52a15.61,15.61,0,0,0,6,2c-.26,1.89-.35,3.82-.61,5.67-.56,3.85-1.21,7.68-2.11,11.47-.77,3.22-1.71,9.63-4.6,11.75-5.38,4-6.5-5.16-7.94-7.85a1.6,1.6,0,0,0-2.9.38c-3,9.65,8.2,19.13,15.48,10.11,2.41-3,3.77-6.91,4.76-10.84,1,4.56,2.55,9.31,5.28,12.95,2.41,3.21,6.11,5.2,10.18,4.38,3.44-.7,6.08-3.43,5.48-7C173.59,368.83,171.38,368.4,170.38,369.46Z"/><path class="cls-4" d="M467.21,462.93c17.27-19.33,34.85-39.46,47.59-62.16C528,377.27,533.39,351,524.38,325a115.67,115.67,0,0,0-19.5-34.34,197.47,197.47,0,0,0-13.42-14.77c-3.51-3.57-7-7.15-9.65-11.34,0-.05.06-.09.08-.14.66-1.54.26-2.95.06-4.56q0-.39-.12-.78c4.3-11.81,5.94-24.52,7.53-37a239.28,239.28,0,0,0,2-39.68,168.44,168.44,0,0,0-20.49-74.55C449.4,68.4,415.23,33.67,371.52,20.05c-24.91-7.77-51.38-8.58-77.25-7.17-26,1.41-52.69,4.19-77.3,13.32-39.67,14.72-71.73,45.21-93.12,81.26-27.44,46.26-38.45,103-30.12,156.09-4,1-7.4,3.76-10.82,6.53a121,121,0,0,0-17.18,16.53c-1.58,1.9-.15,5.09,2.53,4.35,2.42-.68,4.87-1.3,7.33-1.9a57.68,57.68,0,0,0-14.54,32.36c-.26,2.29,2.69,2.88,4.1,1.71l5-4.15c-6,21.28-2.4,45.8,18,58.21a3,3,0,0,0,4.46-2.56,24.38,24.38,0,0,1,.19-2.74c2.43,7.06,6.16,13.78,12.47,17.75,3.45,2.18,8.31,3.12,11.47-.1a7.06,7.06,0,0,0,1.41-2l0,0a1.87,1.87,0,0,0-.07.82c2,14.17,9.94,28.56,17.12,40.72,6.38,10.83,14.35,21.35,25.49,27.62,3.8,2.14,9.8,4.26,12.25-1,2.32-5-2.57-11.52-4.6-15.65-3.54-7.18-7-14.42-10.66-21.53-3.55-6.88-6.65-14.07-10.3-20.88a60.85,60.85,0,0,0,11.09.67,2.68,2.68,0,0,0,.8,1.14c4.54,3.93,10.25,4.31,15.87,2.61s10.49-3.76,15.91-4.92a19.73,19.73,0,0,1-1.85,1.49,3,3,0,0,0,2.3,5.48,59.45,59.45,0,0,0,22.06-8.48c2.13,4.1,5.44,7.82,8.43,11.11a95.32,95.32,0,0,0,13.82,12.35A97.3,97.3,0,0,0,271,435.42c6.18,1.5,26.95,7.92,27.46-4.33.25-5.94-6.81-10.15-11.41-12.29-5.79-2.69-11.83-4.71-17.52-7.65-12.34-6.37-22.22-14.83-29.61-26.32a18.45,18.45,0,0,0,4.12-6.51,89.36,89.36,0,0,0,4.49-14.17,36.8,36.8,0,0,1,3.58,5.75c1.53,3,5.41,1.15,5.74-1.56a58.89,58.89,0,0,0-1.49-21.23A101.08,101.08,0,0,0,253,336.33c-1.25-3.41-3.29-6.92-4.17-10.43-1-4.1.89-7.66,2.08-11.56a113.09,113.09,0,0,0,2.92-11.88,117.31,117.31,0,0,0,2.06-20.9c0-5.62.82-14-1.94-19.11s-9.23-3.71-13.64-1.93c-6.5,2.62-12.15,7.36-17.8,11.42-5.25,3.77-10.86,7.39-15.63,11.81-1.3-1-2.65-1.88-4-2.7-9.72-23.69-14.6-49.83-12.21-75.37,2.95-8.43,5.37-17,9.29-25.05a113.66,113.66,0,0,1,16-24.58,116.49,116.49,0,0,1,48.89-33.54c18.87-6.8,41.63-10.22,61.06-3.88,18.08,5.89,34.12,19.06,45.6,34a112.3,112.3,0,0,1,7.4,11c-1.37.44-2.7,1-3.88,1.49a48.24,48.24,0,0,0-15,10.11,58.47,58.47,0,0,0-16.32,31.91c-2.25,14,.38,28.16,5.93,41.06a101.78,101.78,0,0,0,10.9,19.25c4.14,5.77,9.79,11,12.51,17.63,3.1,7.6,0,15.61-2.23,23-2.19,7.14-3.85,14.48-2.09,21.89.5,2.08,2.57,2.78,4.45,2.53,11.12-1.53,16.41-11.9,19.3-21.6a313,313,0,0,0,7.65-32.47,94.64,94.64,0,0,0,10.5,11.69c3.75,3.6,10.09,7.07,10,12.72-.11,4.89-2.54,10.39-4.51,14.76-3.87,8.6-8.83,16.7-12,25.6-2.36,6.59-5.82,19.56.49,25,8,6.88,16.52-3.13,21.2-8.74,14.2-17,27.4-36.11,36.61-56.5a3.55,3.55,0,0,0,1.18-1.83c.36-1.24.76-2.47,1.19-3.68.33-.82.68-1.63,1-2.46a2.5,2.5,0,0,0,.17-.62,52.85,52.85,0,0,1,4.63-9c9.74,21.64,16.21,44.88,11.4,68.78-4.42,22-17.72,40.43-31.73,57.37s-29.34,33.18-40,52.58a139.8,139.8,0,0,0-17,68.1c.11,11.77,1.51,24,5,35.29,2.91,9.44,9.87,18.81,20.87,17.84,11.34-1,14.24-13.12,11.83-22.46-1.49-5.78-4.08-11.09-4.92-17.05a57.41,57.41,0,0,1,.93-20C432.5,500.61,450.61,481.52,467.21,462.93ZM158,432.28c2.63,5.58,5.41,11.11,7.89,16.75.47,1.08,1.87,2.71.67,3.16-1,.37-2.38-.88-3.21-1.36a45.13,45.13,0,0,1-7.06-5.13c-8-7.06-13.8-16.13-18.93-25.38-5.47-9.83-9.25-20.55-14.53-30.44a93.77,93.77,0,0,0,19.2,6.77,2,2,0,0,0,.06,1.47C146.82,409.66,152.64,421,158,432.28Zm101.45-19.81a116.34,116.34,0,0,0,17.66,8.9,64.12,64.12,0,0,1,9.32,4.34c1.24.77,4.44,2.61,4.86,4.18.55,2.07-1.15,1.85-2.75,2-3.44.32-7.27-.78-10.63-1.44a116.07,116.07,0,0,1-12.06-3,89,89,0,0,1-19.43-8.79,90.66,90.66,0,0,1-16.87-13.09c-4.08-4-7.39-8.94-11.32-13.09a66.66,66.66,0,0,0,13.18-13.29c0,1.7,0,3.4-.06,5.13a2.85,2.85,0,0,0,2.94,2.9C239.81,397.77,249.48,406.23,259.41,412.47Zm-55.8-122c2.4,2.15,3.91,5,6.29,7.17a2.72,2.72,0,0,0,4.58-1.9c0-3.22-1.53-6.08-3.79-8.55,10.27-5.49,18.9-13.89,29.17-19.38,1.64-.88,6.84-3.86,8.33-1.52,1.26,2,.68,7.68.77,10a116.9,116.9,0,0,1-1,19.61,122.35,122.35,0,0,1-3.89,18.36c-.81,2.74-2,5.49-2.13,8.37s1,5.41,2.09,8.05c3.71,9,6.93,18.25,7.71,27.86a41.55,41.55,0,0,0-2.91-3c-1.52-1.44-4.65-1-5.06,1.33a97.49,97.49,0,0,1-3.25,13.39c-.78,2.41-1.65,6.1-3.4,8.59q-.24-4.45-.91-8.91c-.38-2.5-4.11-2.67-5.23-.68a58.74,58.74,0,0,1-31.45,26.37l.4-.71a2.88,2.88,0,0,0-2.47-4.29,56.66,56.66,0,0,0-16.72,3c-4.74,1.64-11.17,5.26-16.11,2.67a2.68,2.68,0,0,0-2.43-3.5c-8-.92-15.92-1.44-23.75-3.6a89.7,89.7,0,0,1-22.1-9.37c-3-1.76-5.72,2.18-3.57,4.62,1.1,1.25-4.07.43-4.59.14a13.44,13.44,0,0,1-2.59-2.18,27,27,0,0,1-4.84-6.72,59.07,59.07,0,0,1-4.92-14.8,3,3,0,0,0-5.41-.71,31.63,31.63,0,0,0-3.25,9.17c-16.78-13.4-17.22-37.6-10-56.75.92-2.41-2.32-3.63-3.92-2.28-2.11,1.76-4.24,3.5-6.37,5.23a53.4,53.4,0,0,1,18.6-29.24c2-1.62-.2-4.55-2.36-4L76,283.93c1.9-1.82,3.82-3.63,5.8-5.38,4-3.55,10.46-10.83,16.36-9.75a2.89,2.89,0,0,0,3.49-2c2.14-7.86,4.59-15.62,7.43-23.25,1.54-4.14,3.17-8.24,4.93-12.28,1-2.43,2.65-8.53,5.68-8.94,3.33-.45,4.51,7.21,5.38,10,1.26,4.1,2.28,8.27,3.39,12.41,1.79,6.73,3.49,13.52,5.39,20.23-4.12.71-7.88,2.34-9.62,6.13a1.78,1.78,0,0,0,2.79,2.15,15,15,0,0,1,8.51-3,2,2,0,0,0,3.31-.12c3.41,0,6.83.46,9.68.68a117.32,117.32,0,0,1,23.86,4.4,108.93,108.93,0,0,1,22.37,9.3A48.59,48.59,0,0,1,203.61,290.48ZM335.75,112.93c-20.54-8.75-44.55-6.93-65.52-.48a121.09,121.09,0,0,0-53.52,33.67A127.69,127.69,0,0,0,198,172.69a142,142,0,0,1,24.9-43.85c17-20.26,40.09-36.43,66.27-41.69,14-2.82,28.46-1.79,42.26,1.83s28.07,9.21,38.27,19.42c10.73,10.73,18.12,25.16,24.12,38.94,6.55,15.06,9.85,30.6,13.61,46.47a60.38,60.38,0,0,0-5.92,4.47,98.21,98.21,0,0,0-5.4-20A115.23,115.23,0,0,0,382.52,152C370.82,135.11,354.71,121,335.75,112.93Zm58.83,156.76c-1.78,10.61-4,21.12-6.7,31.52-2,7.5-4.15,20.16-12.4,23.4-.26-13.74,10-26.58,5.22-40.64-2.6-7.63-8.65-13.27-13.36-19.58a93.13,93.13,0,0,1-12.23-21.49c-5.84-14.88-7.23-31.39-1.12-46.41A51.11,51.11,0,0,1,365.75,179a42.68,42.68,0,0,1,8.92-6.66,35.29,35.29,0,0,1,7.27-3.36q2.51,4.78,4.54,9.77c3.7,9.13,5,18.59,7.45,28-4.31,6.85-5.38,14.76-5.69,23.15-.44,11.79-.3,24,4.19,35.05q1,2.42,2.18,4.71A.53.53,0,0,0,394.58,269.69Zm22.54,262.89a62.27,62.27,0,0,0,.77,17.13c1.09,5.87,4,11.21,5.06,17,1,5.37-1.11,11.52-7.71,9.62-5.45-1.57-7.85-7.52-9.31-12.47A118.53,118.53,0,0,1,401.61,529a131.1,131.1,0,0,1,18.83-66c11.06-18.22,25.94-33.64,39.33-50.09,14.66-18,27.87-37.88,31.26-61.34,3.73-25.75-2.87-53.55-16.25-75.75-1.61-2.66-5.1-2.37-6.77,0a78.05,78.05,0,0,0-11.49,23.3,3.68,3.68,0,0,0-.15.9c-7.87,15.2-16,30-26.27,43.88q-4.44,6-9.2,11.76c-2.07,2.49-10.32,13.47-13.21,6.26-1.38-3.44.33-9.12,1.32-12.48a75.36,75.36,0,0,1,5.19-12.58c3.73-7.42,8-14.58,10.84-22.4,2.55-7,5.28-16.07-.45-22.12-6.55-6.91-14-12.44-19.43-20.44-6-8.75-8.56-18.51-9-29-.45-10.25-1.33-23.09,4.08-32.23a3.93,3.93,0,0,0,1.46-2.23c5.47-7.47,13.86-11.56,21.1-17.13,1.89-1.45.94-5.21-1.8-4.26a61.33,61.33,0,0,0-5.86,2.42c-1.56-14-6.07-28-11.3-40.91-5.57-13.79-12.4-27.49-21.62-39.24s-21.46-19.19-35.45-24.46c-14.67-5.53-30.56-8.52-46.27-7.33-57.09,4.34-102.25,56.82-113.82,110.28-6.49,30-3.67,61.85,9.51,89.46a117.18,117.18,0,0,0-23.6-9.11,110.14,110.14,0,0,0-28.28-3.69c-1.69,0-3.66,0-5.69.06a195.86,195.86,0,0,0-7.59-29c-1.74-5.23-3.31-19.09-11.18-18.91-7.66.18-10.67,11.87-13,17.4q-4.86,11.75-8.54,23.91c-4.11-45.37,2.6-91.8,23.26-132.72,18.37-36.37,47.07-68,84-85.94C227.23,28.7,251,24.29,274.84,22.27c25.13-2.13,50.92-3,75.83,1.56C395,31.94,430.82,60.72,454.84,98.11c15.26,23.76,25.25,49.91,27.21,78.21a232.56,232.56,0,0,1-1.24,42.29c-1.54,13.59-4.92,26.93-5.89,40.55a2.28,2.28,0,0,0-.11,1.53s0,0,0,.05a2.9,2.9,0,0,0,.46,1.71c2.85,9.57,9.48,16.79,16,24.16A133.83,133.83,0,0,1,511,315.48c10.69,21.35,11.94,44.59,3.05,66.78-9.13,22.79-25.61,42.63-41.41,61.09S438.26,479.17,426.83,501A85.76,85.76,0,0,0,417.12,532.58Z"/><path class="cls-4" d="M205.9,340.11c6.56-1.51,9.17-9.34,6.23-15a9.48,9.48,0,0,0-10-4.83,7.26,7.26,0,0,0-5.27,2,10.62,10.62,0,0,0-3.3,7.45C193.43,336.09,199.49,341.59,205.9,340.11ZM201.68,327c1.81-.3,3.64-.27,4.19,2,.45,1.85-.45,4.37-2.72,4C200,332.37,200.37,329.46,201.68,327Z"/><path class="cls-4" d="M106.93,309.72a8.17,8.17,0,0,0-3.2,1.75,8,8,0,0,0-3.84,4.1,9.87,9.87,0,0,0,.79,9.2c3.85,6.12,13.54,5.83,16.3-1.15S115.2,307.78,106.93,309.72Zm.52,11.51c-1.24-.88-1.24-2.54-.71-4.13a4,4,0,0,1,2.53-.28C111.39,317.52,110.06,323.1,107.45,321.23Z"/></svg>