<svg id="Layer_1" data-name="Layer 1" xmlns="http://www.w3.org/2000/svg" viewBox="0 0 600 600"><defs><style>.cls-1{fill:#fff;}.cls-2{fill:#231f20;}</style></defs><title>doodle</title><path class="cls-1" d="M124.51,290.72c-10.66,14.56-11.73,38.63-9.68,55.86,2.1,17.68,11.26,36.39,28.64,43.4.37.15.76.27,1.13.41-5-5.56-8.14-12.77-9.48-20.8-2.39-14.31-2.77-31.15.75-45.29,3.34-13.4,12.25-25.3,21.32-35.46a34.73,34.73,0,0,1,14.81-10C155.72,274.45,135.23,276.07,124.51,290.72Z"/><path class="cls-1" d="M541.92,276c-46-53.72-122.45-75.31-190.21-82.45-36.65-3.86-73.56-3.9-110.35-2.58-19.65.7-39.53,1.25-59,4.46-20.52,3.39-40.45,10.07-59.32,18.74-16.07,7.38-31.92,16.12-45,28.16C64.72,254.57,55.25,270.06,48,286.56c-15.31,34.73-20.7,75.25-6.87,111.34,13.33,34.8,42.53,57.3,78.78,64.23,39.63,7.56,79.62-3.19,118.39-10.85,4-1.61,9.28-.44,10.92,4.86,5,16.13,9.81,32.31,14.91,48.4,2.84,8.94,6.55,21.78,16,25.95,11.7,5.18,21.11-8.39,23.92-18,4.34-14.89,1.45-31.54,4.08-46.82,1.33-7.67,14.05-7.6,15.42,0,3.06,16.91,6.74,37.95,20.85,49.46,3.32,2.71,10.74,7.72,14.6,4.13,2.83-2.63,3.11-8.52,3.65-12,2-12.92,3.51-25.93,5.26-38.89.93-6.83,11.91-7.77,14.71-1.92,6.54,13.67,32.43,58.49,52.07,40.15,7.16-6.69,9.69-17.93,11.1-27.22,2.39-15.73,2.53-31.83,1.44-47.68-.31-4.63,4.12-8.38,8.45-8.45,38.3-.63,89.52-9.47,106.43-48.92C576.52,340.51,564.88,302.79,541.92,276Zm-323.62,105a2.91,2.91,0,0,1-1.88,1.17,52.94,52.94,0,0,1-12.08,12.17c-18.17,13.26-45.6,18.14-66.67,9.48-22.57-9.27-34.87-32.42-37.66-55.67-2.75-23-.32-55.42,17.74-72.31,17-15.92,43.53-16.52,64.25-8.35C226.14,284.82,248.42,341.21,218.3,380.91Zm110.32,23.55c-10,.58-22.33,1.4-32-1.7-7.48-2.4-7.92-8.3-6.62-15.19,3.15-16.6,6.73-35.81,20.21-47.33,3.13-5.1,10.68-2.47,12.53,2.39a212.79,212.79,0,0,1,12.87,54.85C336,401.41,332.1,404.26,328.62,404.46ZM496.7,311.1c-1.28,37.51-34.55,68.36-72.74,60.75-38.39-7.65-54.26-54.55-41.8-88.3,6.09-16.49,18-31,34.59-37.65,6.34-2.55,16.41-4.9,22.73-.54,13.09-2.23,27.12,3.27,36.81,12.67C490.22,271.53,497.36,291.91,496.7,311.1Z"/><path class="cls-1" d="M406.62,316.74c-2.36-17.2-.72-41,10.26-56.59a15.79,15.79,0,0,0-1.46.81,49.06,49.06,0,0,0-14.07,14.8,59.89,59.89,0,0,0-8.67,41.47c3.2,19.2,16,35.8,33.71,40.1C414.64,348.1,408.7,331.91,406.62,316.74Z"/><path class="cls-1" d="M421.53,290.45a79.48,79.48,0,0,0-.56,22.31A102.77,102.77,0,0,1,421.53,290.45Z"/><path class="cls-2" d="M567.88,398c20.07-26.8,22.26-64.89,10-95.4-29.42-73-117.37-107.65-189.24-120.18-40.33-7-81.37-8.76-122.24-7.91-43.14.91-87.3,2.27-128.07,17.78-37.18,14.14-72.76,34-93.35,69.32s-30.92,79-23.1,119.49c8,41.56,36.11,76.07,76.4,89.83,44.62,15.24,92.57,5.38,136.25-8.62,5.66,18.67,10.45,38,17.66,56.11,5.08,12.75,13.31,25.79,27.8,28.6,14.75,2.85,28-7,34.92-19.4a51.48,51.48,0,0,0,5.68-17.06c5.3,9.84,12.69,18.18,23.35,23,12.74,5.8,25.94,2.68,31.43-10.93,2.67-6.6,3.14-13.85,4.09-20.84.32-2.33.63-4.67.95-7,14.27,20.89,36.26,41.5,59.25,28.45,11.68-6.62,17.86-20.19,20.85-32.72,3.89-16.33,4.66-33.76,4-50.64C501.56,438.23,545,428.51,567.88,398ZM455.62,423.21c-4.33.07-8.76,3.82-8.45,8.45,1.09,15.85.95,31.95-1.44,47.68-1.41,9.29-3.94,20.53-11.1,27.22C415,524.9,389.1,480.08,382.56,466.41c-2.8-5.85-13.78-4.91-14.71,1.92-1.75,13-3.27,26-5.26,38.89-.54,3.52-.82,9.41-3.65,12-3.86,3.59-11.28-1.42-14.6-4.13-14.11-11.51-17.79-32.55-20.85-49.46-1.37-7.6-14.09-7.67-15.42,0-2.63,15.28.26,31.93-4.08,46.82-2.81,9.61-12.22,23.18-23.92,18-9.42-4.17-13.13-17-16-25.95-5.1-16.09-9.94-32.27-14.91-48.4-1.64-5.3-6.93-6.47-10.92-4.86-38.77,7.66-78.76,18.41-118.39,10.85C83.63,455.2,54.43,432.7,41.1,397.9,27.27,361.81,32.66,321.29,48,286.56c7.28-16.5,16.75-32,30.1-44.27,13.09-12,28.94-20.78,45-28.16,18.87-8.67,38.8-15.35,59.32-18.74,19.43-3.21,39.31-3.76,59-4.46,36.79-1.32,73.7-1.28,110.35,2.58C419.47,200.65,496,222.24,541.92,276c23,26.83,34.6,64.55,20.13,98.33C545.14,413.74,493.92,422.58,455.62,423.21Z"/><path class="cls-2" d="M322.74,342.63c-1.85-4.86-9.4-7.49-12.53-2.39C296.73,351.76,293.15,371,290,387.57c-1.3,6.89-.86,12.79,6.62,15.19,9.67,3.1,22,2.28,32,1.7,3.48-.2,7.38-3,7-7A212.79,212.79,0,0,0,322.74,342.63Z"/><path class="cls-2" d="M182,267.4c-20.72-8.17-47.22-7.57-64.25,8.35C99.69,292.64,97.26,325,100,348.06c2.79,23.25,15.09,46.4,37.66,55.67,21.07,8.66,48.5,3.78,66.67-9.48a52.94,52.94,0,0,0,12.08-12.17,2.91,2.91,0,0,0,1.88-1.17C248.42,341.21,226.14,284.82,182,267.4Zm-24.81,21.44c-9.07,10.16-18,22.06-21.32,35.46-3.52,14.14-3.14,31-.75,45.29,1.34,8,4.44,15.24,9.48,20.8-.37-.14-.76-.26-1.13-.41-17.38-7-26.54-25.72-28.64-43.4-2-17.23-1-41.3,9.68-55.86s31.21-16.27,47.49-11.86A34.73,34.73,0,0,0,157.19,288.84Z"/><path class="cls-2" d="M439.48,245.36c-6.32-4.36-16.39-2-22.73.54-16.58,6.65-28.5,21.16-34.59,37.65-12.46,33.75,3.41,80.65,41.8,88.3,38.19,7.61,71.46-23.24,72.74-60.75.66-19.19-6.48-39.57-20.41-53.07C466.6,248.63,452.57,243.13,439.48,245.36Zm-18,45.09a102.77,102.77,0,0,0-.56,22.31A79.48,79.48,0,0,1,421.53,290.45Zm-28.85,26.78a59.89,59.89,0,0,1,8.67-41.47A49.06,49.06,0,0,1,415.42,261a15.79,15.79,0,0,1,1.46-.81c-11,15.56-12.62,39.39-10.26,56.59,2.08,15.17,8,31.36,19.77,40.59C408.67,353,395.88,336.43,392.68,317.23Z"/></svg>