<svg id="Layer_1" data-name="Layer 1" xmlns="http://www.w3.org/2000/svg" viewBox="0 0 600 600"><defs><style>.cls-1{fill:#fff200;}.cls-2{fill:#f7941e;}.cls-3{fill:#fff;}.cls-4{fill:#231f20;}</style></defs><title>doodle</title><path class="cls-1" d="M517.58,463a5.11,5.11,0,0,1-.33.48c-40.21,47.19-97,78-157.61,89.6a338.06,338.06,0,0,1-101.39,3.61c-28.44-3.22-58-8.69-81-26.54a95.5,95.5,0,0,1-11.43,16.53A179.28,179.28,0,0,0,199,561.16c33.35,10.52,69.47,11.3,104.08,8.35,65.3-5.56,132-28.58,184.38-68.53A191.3,191.3,0,0,0,521,468a4.1,4.1,0,0,1-.3-1.79C520.7,465.45,519.45,464.32,517.58,463Z"/><path class="cls-1" d="M215.31,147.92c25.73-11.69,55.38-15.48,83.16-19.26,27.33-3.72,55.26-5,82.36,1.06a145.2,145.2,0,0,1,33,11.7,112.9,112.9,0,0,1,14.88,8.89c2.39,1.7,4.72,3.5,7,5.36.5.41,2,2,3.29,3.29q7.73-9.81,15.3-19.75c-46.27-35.89-107.76-44.85-164.56-35.49a359.58,359.58,0,0,0-90.15,27.71c-12.87,5.86-25.43,12.67-36.75,21.19-10.72,8.08-18.83,18-27.23,28.14q8.52,7.4,17.13,14.68C170.29,176.63,191.89,158.56,215.31,147.92Z"/><path class="cls-2" d="M290,91.75c60-9.5,123,.2,172,37.39h0q4-5.34,8-10.71a6.11,6.11,0,0,1-2-1.3C444.54,95,414.09,83.32,382.63,78.33,349,73,311.32,72.31,278,79.79a479.28,479.28,0,0,0-95.36,32.12,206.89,206.89,0,0,0-37.09,21.86c-11.57,8.68-20.18,19.41-30.22,29.43q6.67,5.7,13.29,11.45C141.45,150,170,133.18,194.06,121.92,224.41,107.72,256.83,97,290,91.75Z"/><path class="cls-3" d="M466.31,142q-10.89,14.21-22.07,28.19a5.41,5.41,0,0,1-.6.76c-2.68,3.34-5.34,6.7-8.06,10-19.82,24.31-40,50.06-62.81,71.84A90.11,90.11,0,0,1,387.71,288a88,88,0,0,1-11.34,61.84,87.92,87.92,0,0,1-5.44,9.71c15.49,7.06,29.81,18.27,44.15,27.28q24.35,15.28,48.83,30.38l.9.54a6.41,6.41,0,0,1,3.57,2.17q22.32,13.64,44.79,27c3.22,1.9,11.05,5.93,15.6,10.57,27-38.53,41.57-86.16,45.58-132.66,5.47-63.35-10.05-127-46.37-179.37a246.59,246.59,0,0,0-34.52-39.91q-12.3,17-25,33.69A6.65,6.65,0,0,1,466.31,142Z"/><path class="cls-2" d="M190.46,505.44c-2.89,5-5.65,10.52-8.52,16,24.17,16.84,54.28,21.76,83.07,24.38,32.16,2.92,64.84,1.52,96.47-5.16,56.07-11.83,107.93-40.3,145.71-83.61-2.9-1.52-5.39-2.78-6.32-3.33-3.75-2.21-7.49-4.46-11.24-6.69a6,6,0,0,1-1.51,2.76c-38,40.31-89.68,68.87-144.41,78.07a243.33,243.33,0,0,1-87.11-1c-19.79-3.87-52-9.71-60.75-30.88Z"/><path class="cls-1" d="M209.27,472.61l-8.63,15.07a3.52,3.52,0,0,1,1.93,1.89c5.26,11.49,18.73,15.77,29.88,19.28a228.64,228.64,0,0,0,119.45,5.26c49.24-10.9,92.39-37.28,127.74-72.79.06-.06.12-.09.17-.14-5-3-10-6.06-15-9.1-27.26,39.3-77.17,55.27-122.87,59.72-26.8,2.61-54.89,3.57-81.74,1.15C242.45,491.35,221.38,486.86,209.27,472.61Z"/><path class="cls-2" d="M180.57,217.94a.83.83,0,0,1,.09-.16c10.86-16.18,32.68-27,50.06-34.52,19.31-8.37,39.64-13.9,60.32-17.64,42.26-7.65,90.39-7.43,124.34,22.52q4.59-5.44,9.09-10.95c2.35-2.9,4.66-5.84,7-8.76-.41-.41-.81-.81-1.2-1.16a99.34,99.34,0,0,0-15-11,125.28,125.28,0,0,0-33.41-13.7c-25.51-6.58-52.25-5.93-78.23-2.87-27.8,3.27-58.54,6.62-84.27,18.27-23,10.4-40.31,27.72-59.54,43.34,1.4,1.15,2.79,2.32,4.2,3.46Q172.24,211.41,180.57,217.94Z"/><path class="cls-1" d="M137.54,128.27a224.46,224.46,0,0,1,40.13-24.82c31.78-15.61,67.64-28.39,102.38-35.37C315.15,61,353.91,62,389.1,68c32.22,5.51,63.11,18.34,87.17,40.85.17.16.29.33.44.5Q480.85,103.66,485,98A244.43,244.43,0,0,0,384.86,46.74c-58.89-14.46-122-8.37-178.22,13.7C183.87,69.38,161.4,81.06,142,96.3c-2.69,2.87-5.63,5.55-8.15,8.53s-9,1.83-11.14,5.06c.06,1.4-14.11,13.7-15.26,15-8.86,10.28-5.71,11.23-13.4,22.42,2.91,2.39,12.19,8.18,15.07,10.61C115.73,146.18,127.19,136.42,137.54,128.27Z"/><path class="cls-1" d="M237.83,422.75l-7.78,13.58a1.92,1.92,0,0,1,.25.12c29.11,17.45,68.6,13.77,100.76,7.74a259.29,259.29,0,0,0,51.58-15.29c13.58-5.63,29.55-12.11,39.64-23.42q-11.13-7.12-22.18-14.36l-.1-.06a4.88,4.88,0,0,1-.53.69c-20.74,22.09-54.11,32.35-83.45,34.83A175.38,175.38,0,0,1,268.93,424c-7.88-1.47-19.1-4.27-25.68-10.55C241.41,416.57,239.59,419.66,237.83,422.75Z"/><path class="cls-2" d="M256.06,230.35c21.09-14.56,49.51-15.49,73.16-7.15a87.73,87.73,0,0,1,13.67,6.1c.77.27,1.56.52,2.31.82a60.27,60.27,0,0,1,21.55,15.26q4.69-5.92,9.57-11.73c-21.31-21.58-51-33.63-81.5-31.46-27.64,2-62.71,17.58-76.61,43.46,5.07,3.37,10.17,6.8,14.84,10.52A74.94,74.94,0,0,1,256.06,230.35Z"/><path class="cls-1" d="M210.08,240.2c5-12.24,20-23.31,29.2-29.62a113.81,113.81,0,0,1,48.32-18.83c35.33-4.89,71.19,7.92,96.26,33,7.83-9.17,15.79-18.24,23.66-27.38-33.61-28-78.76-27.15-119.69-19.49-19.08,3.57-38.11,8.64-55.91,16.47a175.3,175.3,0,0,0-24.08,12.84c-7.41,4.74-13.88,10.85-21.36,15.4q8.88,6.88,17.9,13.61C206.21,237.53,208.13,238.87,210.08,240.2Z"/><path class="cls-3" d="M304,308.73c3.31.48,6.46-.13,7.65-2.15a9.39,9.39,0,0,0-4.45-9,10,10,0,0,0-3.94-1.54,5.07,5.07,0,0,0-1.85.56,5.07,5.07,0,0,1-2.06.61,5.24,5.24,0,0,0-1.29,2.66C296.92,305.3,298.81,308,304,308.73Z"/><path class="cls-2" d="M240.57,335.63c.24.71.47,1.42.72,2.12,15.5,42.66,65.49,54.08,102,29.73a74.56,74.56,0,0,0,13.57-11.64,72.94,72.94,0,0,0,13.14-36c1.83-21.94-4.55-46.75-17.06-65.12a52.93,52.93,0,0,0-28.95-17,156.28,156.28,0,0,0-18.46-1c-22.62-.12-42.33,8.31-55.44,27.16-13.24,19-15.72,43.26-11,65.55C239.51,331.5,240,333.57,240.57,335.63Zm58.5-51.35a19.6,19.6,0,0,1,5.62-.06c12.67-.39,24.46,16.62,17.22,29-2.65,8.46-9.41,15.13-19.15,12.61-5.88-1.52-10.14-5.65-12.73-10.82-3-3.48-4.16-8.25-4-13.4C286.2,292.9,289.84,285.74,299.07,284.28Z"/><path class="cls-2" d="M261.37,411a114.93,114.93,0,0,0,20.33,3.81,165.09,165.09,0,0,0,39.24-.15c26.69-3.36,48.15-14.18,69.31-29.77-8.65-5.42-17.44-11-24.77-17.8-24.87,30.25-74.48,41.81-107,19.63-3,5.89-6.32,11.67-9.69,17.41A38.45,38.45,0,0,0,261.37,411Z"/><path class="cls-2" d="M225.85,443.67q-5.85,10.21-11.7,20.43l-.22.39c16.75,13.15,34.43,17.29,55.73,17.93a567.46,567.46,0,0,0,70.58-2c43.74-4.17,87.33-18.88,114.44-54.61-4.58-2.83-9.16-5.65-13.71-8.51-2.83-1.78-5.65-3.58-8.47-5.37-10.11,13.05-27.69,20.33-42.25,26.59a264.42,264.42,0,0,1-119.4,21.16C255.32,458.76,236.4,456.46,225.85,443.67Z"/><path class="cls-4" d="M302.76,325.8c9.74,2.52,16.5-4.15,19.15-12.61,7.24-12.35-4.55-29.36-17.22-29a19.6,19.6,0,0,0-5.62.06c-9.23,1.46-12.87,8.62-13.08,17.3-.12,5.15,1.07,9.92,4,13.4C292.62,320.15,296.88,324.28,302.76,325.8Zm-4.67-25.94a5.24,5.24,0,0,1,1.29-2.66,5.07,5.07,0,0,0,2.06-.61,5.07,5.07,0,0,1,1.85-.56,10,10,0,0,1,3.94,1.54,9.39,9.39,0,0,1,4.45,9c-1.19,2-4.34,2.63-7.65,2.15C298.81,308,296.92,305.3,298.09,299.86Z"/><path class="cls-4" d="M562.43,179.88C536.12,123,490,75,432.34,49.6c-58.51-25.72-125-29.11-186.83-14.26A309.78,309.78,0,0,0,155.6,72.47C127.16,90,105,113.38,87.05,141.26l-2.85,4.52-.12.19c-29.7,48.37-52.52,105-54.94,162.43-3.09,28.14-3,56.86,2.15,84.64,6.45,35,23.91,65,46,92.49,20.47,25.48,44.28,48.82,72,66.33,29.5,18.64,62.5,28.36,97.2,31C317.7,588.24,391,571.48,453.7,537.68c30.19-16.26,58.69-36.75,79.77-64.11s35.17-60.47,44.14-93.69C595.45,313.8,591.24,242.23,562.43,179.88ZM489.63,447c3.75,2.23,7.49,4.48,11.24,6.69.93.55,3.42,1.81,6.32,3.33-37.78,43.31-89.64,71.78-145.71,83.61-31.63,6.68-64.31,8.08-96.47,5.16-28.79-2.62-58.9-7.54-83.07-24.38,2.87-5.49,5.63-11,8.52-16l5.39-9.4c8.74,21.17,41,27,60.75,30.88a243.33,243.33,0,0,0,87.11,1c54.73-9.2,106.41-37.76,144.41-78.07A6,6,0,0,0,489.63,447Zm-149.39,33.4a567.46,567.46,0,0,1-70.58,2c-21.3-.64-39-4.78-55.73-17.93l.22-.39q5.86-10.22,11.7-20.43c10.55,12.79,29.47,15.09,45,16a264.42,264.42,0,0,0,119.4-21.16C404.81,432.28,422.39,425,432.5,412c2.82,1.79,5.64,3.59,8.47,5.37,4.55,2.86,9.13,5.68,13.71,8.51C427.57,461.56,384,476.27,340.24,480.44Zm124.59-48.36c5,3,10,6.09,15,9.1-.05.05-.11.08-.17.14-35.35,35.51-78.5,61.89-127.74,72.79a228.64,228.64,0,0,1-119.45-5.26c-11.15-3.51-24.62-7.79-29.88-19.28a3.52,3.52,0,0,0-1.93-1.89l8.63-15.07c12.11,14.25,33.18,18.74,51,20.34,26.85,2.42,54.94,1.46,81.74-1.15C387.66,487.35,437.57,471.38,464.83,432.08ZM258.49,386.69c32.51,22.18,82.12,10.62,107-19.63,7.33,6.78,16.12,12.38,24.77,17.8-21.16,15.59-42.62,26.41-69.31,29.77a165.09,165.09,0,0,1-39.24.15A114.93,114.93,0,0,1,261.37,411a38.45,38.45,0,0,1-12.57-6.87C252.17,398.36,255.48,392.58,258.49,386.69Zm-17.2-48.94c-.25-.7-.48-1.41-.72-2.12-.55-2.06-1.06-4.13-1.5-6.21-4.74-22.29-2.26-46.52,11-65.55,13.11-18.85,32.82-27.28,55.44-27.16a156.28,156.28,0,0,1,18.46,1,52.93,52.93,0,0,1,28.95,17c12.51,18.37,18.89,43.18,17.06,65.12a72.94,72.94,0,0,1-13.14,36,74.56,74.56,0,0,1-13.57,11.64C306.78,391.83,256.79,380.41,241.29,337.75Zm125.46-92.37a60.27,60.27,0,0,0-21.55-15.26c-.75-.3-1.54-.55-2.31-.82a87.73,87.73,0,0,0-13.67-6.1c-23.65-8.34-52.07-7.41-73.16,7.15a74.94,74.94,0,0,0-23,25.82c-4.67-3.72-9.77-7.15-14.84-10.52,13.9-25.88,49-41.5,76.61-43.46,30.48-2.17,60.19,9.88,81.5,31.46Q371.46,239.47,366.75,245.38ZM382.64,428.9a259.29,259.29,0,0,1-51.58,15.29c-32.16,6-71.65,9.71-100.76-7.74a1.92,1.92,0,0,0-.25-.12l7.78-13.58c1.76-3.09,3.58-6.18,5.42-9.27,6.58,6.28,17.8,9.08,25.68,10.55A175.38,175.38,0,0,0,316,426.58c29.34-2.48,62.71-12.74,83.45-34.83a4.88,4.88,0,0,0,.53-.69l.1.06q11.06,7.25,22.18,14.36C412.19,416.79,396.22,423.27,382.64,428.9Zm1.22-204.19c-25.07-25-60.93-37.85-96.26-33a113.81,113.81,0,0,0-48.32,18.83C230.1,216.89,215,228,210.08,240.2c-2-1.33-3.87-2.67-5.7-4q-9-6.71-17.9-13.61c7.48-4.55,14-10.66,21.36-15.4a175.3,175.3,0,0,1,24.08-12.84c17.8-7.83,36.83-12.9,55.91-16.47,40.93-7.66,86.08-8.54,119.69,19.49C399.65,206.47,391.69,215.54,383.86,224.71ZM96.32,147.85l37.49-43c2.52-3,5.46-5.66,8.15-8.53,19.44-15.24,41.91-26.92,64.68-35.86C262.86,38.37,326,32.28,384.86,46.74A244.43,244.43,0,0,1,485,98q-4.11,5.67-8.26,11.32c-.15-.17-.27-.34-.44-.5C452.21,86.3,421.32,73.47,389.1,68c-35.19-6-74-6.93-109,.12-34.74,7-70.6,19.76-102.38,35.37a224.46,224.46,0,0,0-40.13,24.82c-10.35,8.15-21.81,17.91-28.46,29.68C106.2,155.52,99.23,150.24,96.32,147.85Zm19,15.35c10-10,18.65-20.75,30.22-29.43a206.89,206.89,0,0,1,37.09-21.86A479.28,479.28,0,0,1,278,79.79c33.35-7.48,71-6.8,104.66-1.46,31.46,5,61.91,16.65,85.3,38.81a6.11,6.11,0,0,0,2,1.3q-4,5.36-8,10.71h0C413,92,350,82.25,290,91.75c-33.12,5.25-65.54,16-95.89,30.17C170,133.18,141.45,150,128.59,174.65Q122,168.9,115.3,163.2Zm37.47,32.24q-8.62-7.26-17.13-14.68c8.4-10.16,16.51-20.06,27.23-28.14,11.32-8.52,23.88-15.33,36.75-21.19a359.58,359.58,0,0,1,90.15-27.71c56.8-9.36,118.29-.4,164.56,35.49Q446.74,149.13,439,159c-1.27-1.33-2.79-2.88-3.29-3.29-2.27-1.86-4.6-3.66-7-5.36a112.9,112.9,0,0,0-14.88-8.89,145.2,145.2,0,0,0-33-11.7c-27.1-6.09-55-4.78-82.36-1.06-27.78,3.78-57.43,7.57-83.16,19.26C191.89,158.56,170.29,176.63,152.77,195.44Zm7,5.85C179,185.67,196.36,168.35,219.34,158c25.73-11.65,56.47-15,84.27-18.27,26-3.06,52.72-3.71,78.23,2.87a125.28,125.28,0,0,1,33.41,13.7,99.34,99.34,0,0,1,15,11c.39.35.79.75,1.2,1.16-2.33,2.92-4.64,5.86-7,8.76q-4.49,5.52-9.09,10.95C381.43,158.19,333.3,158,291,165.62c-20.68,3.74-41,9.27-60.32,17.64-17.38,7.54-39.2,18.34-50.06,34.52a.83.83,0,0,0-.09.16q-8.34-6.54-16.57-13.19C162.59,203.61,161.2,202.44,159.8,201.29ZM487.43,501c-52.37,39.95-119.08,63-184.38,68.53-34.61,3-70.73,2.17-104.08-8.35a179.28,179.28,0,0,1-33.19-14.45,95.5,95.5,0,0,0,11.43-16.53c23,17.85,52.6,23.32,81,26.54a338.06,338.06,0,0,0,101.39-3.61c60.62-11.62,117.4-42.41,157.61-89.6a5.11,5.11,0,0,0,.33-.48c1.87,1.29,3.12,2.42,3.08,3.14A4.1,4.1,0,0,0,521,468,191.3,191.3,0,0,1,487.43,501Z"/></svg>