<svg id="Layer_1" data-name="Layer 1" xmlns="http://www.w3.org/2000/svg" viewBox="0 0 600 600"><defs><style>.cls-1{fill:#88e0ff;}.cls-2{fill:#231f20;}</style></defs><title>doodle</title><path class="cls-1" d="M105.52,442.71a7.31,7.31,0,0,1-6.06-3.23,7.1,7.1,0,0,1-.71-6.7L120.82,377c-4.66-.68-14.68-1.6-35-1.6-4.85,0-10.12.06-15.66.16h-.44a22,22,0,0,1-10-2.37c-13-6.68-24.89-20.29-33.45-38.3-8.49-17.84-12.62-37.67-11.63-55.83C16.24,250,30.6,228.83,55.08,219.43a85.47,85.47,0,0,1,30.52-6c19.89,0,38.57,8.45,54,24.45a105.77,105.77,0,0,1,13.56,17.39,349.66,349.66,0,0,1,44-76.91C216,153.73,237,134,259.6,119.63c28.36-18,59.32-27.51,92-28.24,1.36,0,2.67,0,4,0,37,0,65.52,11.71,84.87,34.79,21.07,25.12,27,59.29,28.33,83.52a242.6,242.6,0,0,1-.6,33.78c10.51-11.77,30.49-29.22,56.5-29.22a61.37,61.37,0,0,1,24.5,5.28c21.14,9.2,31.68,22.68,33.15,42.43,1.5,20.13-6.9,46.72-16.2,72.46a64,64,0,0,1-60,42.08h-321l-75,64.48a7.14,7.14,0,0,1-4.7,1.77Z"/><path class="cls-2" d="M355.62,95C491.52,95,463,255.87,463,255.87s24.8-38,61.69-38a57.45,57.45,0,0,1,23,5c41,17.82,36.65,50.39,15,110.32a60.17,60.17,0,0,1-56.59,39.7H183.86l-76,65.35a3.57,3.57,0,0,1-2.33.9,3.65,3.65,0,0,1-3.4-5l23.65-59.74s-5.9-2.57-39.92-2.57c-4.69,0-9.92.05-15.74.16h-.37a18.26,18.26,0,0,1-8.33-2c-42.54-21.87-68.89-122.67-5-147.18A81.3,81.3,0,0,1,85.6,217c46.19,0,68.2,46.68,68.2,46.68S211.3,98.14,351.69,95c1.33,0,2.63,0,3.93,0m0-7.25h0c-1.36,0-2.69,0-4.07,0-33.37.75-64.95,10.44-93.88,28.81-23,14.58-44.26,34.62-63.32,59.56a350.41,350.41,0,0,0-41.89,71.47,109.85,109.85,0,0,0-10.2-12.28c-16.16-16.71-35.74-25.55-56.64-25.55a88.83,88.83,0,0,0-31.82,6.28c-13.67,5.25-24.35,13.89-31.73,25.69-6.53,10.45-10.23,22.95-11,37.15-1,18.76,3.23,39.21,12,57.59,8.9,18.72,21.36,32.92,35.08,40a25.57,25.57,0,0,0,11.64,2.77h.52c5.5-.1,10.75-.16,15.59-.16,15,0,24.3.51,29.86,1L95.38,431.44a10.81,10.81,0,0,0,1.08,10.08,10.84,10.84,0,0,0,16.12,2.17l74-63.6H506.17a67.4,67.4,0,0,0,63.41-44.48c10.91-30.18,17.87-54.31,16.41-74-.79-10.62-4-19.43-9.8-26.94S562,221.1,550.66,216.17a64.75,64.75,0,0,0-25.94-5.59c-16.87,0-34,7.2-49.47,20.83-.95.83-1.87,1.67-2.75,2.51a243.91,243.91,0,0,0-.06-24.46,186.38,186.38,0,0,0-7.14-43.27c-5-16.61-12.37-30.87-22-42.38-20.07-24-49.56-36.09-87.65-36.09Z"/></svg>