<svg id="Layer_1" data-name="Layer 1" xmlns="http://www.w3.org/2000/svg" viewBox="0 0 600 600"><defs><style>.cls-1{fill:#754c29;}.cls-2{fill:#fff;}.cls-3{fill:#a97c50;}.cls-4{fill:#f7941e;}.cls-5{fill:#231f20;}</style></defs><title>doodle</title><path class="cls-1" d="M529.48,127.38c-32.55,13.35-66.16,23.77-100.21,32.58-30.19,7.82-60.67,14.43-91.16,21-30.76,6.63-61.52,12.79-92.84,16.15a656.43,656.43,0,0,1-96.93,3.08c-26.14-1.08-53.94-2-78.51-11.87a79,79,0,0,0-8.06,8.19,105.77,105.77,0,0,0-14.55,23.25,102.59,102.59,0,0,0-9.3,37.69,54.61,54.61,0,0,1,17.31-13.11,5.11,5.11,0,0,1,6.94,6.93c-28.7,56.68-29.38,125.17-2.9,182.56a63.64,63.64,0,0,1,8.47-19.92A5,5,0,0,1,77,416.41a147.09,147.09,0,0,0,52.3,107.9q-1.48-15.36-3-30.71c-.51-5.11,6.86-6.43,9.21-2.5a140.41,140.41,0,0,0,68.52,58.34,49.72,49.72,0,0,1-3-23.81c.57-5.06,6.32-6.71,9.36-2.54A80.12,80.12,0,0,0,254,553a76.11,76.11,0,0,1-3.84-28.2c.22-4.3,5.43-6.81,8.66-3.59a150.92,150.92,0,0,0,29,22.73,80.66,80.66,0,0,1,21.58-31.83,5.3,5.3,0,0,1,2-1.17c2.68-2.93,8.74-2,8.4,3l-1.94,28.16a142.55,142.55,0,0,0,47.46-22.26c2.91-2.09,7.37.69,7.18,4.12a76.11,76.11,0,0,1-2.92,17.22A180.11,180.11,0,0,0,467.72,463c2.42-4.05,8.86-2.35,8.88,2.4q0,15.21-.12,30.4c16.64-22.39,29.25-47.63,42-72.38,15.12-29.43,29.42-59.91,33.69-93.07.6-4.6,8.17-6.82,9-1.22q1.53,10.06,3.09,20.11c15.36-33.32,12-72.11,7.89-107.92C567.54,201,561.16,155.6,529.48,127.38ZM173.62,247.91c1.27-10.84,10.34-16.47,19.34-16.38,5.59-1.89,11.59-1.41,16.44,3.47,6.52,6.56,7.37,19.08,3.49,27.18-4.51,9.44-17.19,10.13-26,7A20,20,0,0,1,173.62,247.91ZM459.14,406.62c-8.34,21.26-27.23,35.63-46.89,45.88a240.17,240.17,0,0,1-66.64,23.1C300.19,484.09,249.27,479,211,451.2,194.2,439,179.56,421.84,176,400.84c-3.39-20.18,4-39.84,17-55.2,30.73-36.4,83.49-38.37,127.15-28.72,1.95-4.88,6.34-8.71,11.28-11.08,9.91-4.76,22.13-6,33-6.61,9.69-.52,21,.18,27.1,8.93,3.76,5.44,4.58,10.76,3.46,15.65a58.89,58.89,0,0,1,52.66,17.55C463.63,358.56,467.63,385,459.14,406.62Zm14.09-170.84-.06.05a18,18,0,0,1-18.95,2.39,20,20,0,0,1-11.49-18.83,13.54,13.54,0,0,1,3.08-8c1.63-6.21,7.87-10,14.84-9.71A15.66,15.66,0,0,1,470.76,206a15.56,15.56,0,0,1,6.84,6C483.12,220.76,480,230.44,473.23,235.78Z"/><path class="cls-2" d="M190.09,258.61a9.06,9.06,0,0,0,7-.83c5.21-2.78,5.33-7.8,3-11.56a3.66,3.66,0,0,1-1.63-1.54,6.25,6.25,0,0,0-1.48-1.74l-.27-.18c-3.85-2.54-8.85,3.63-9.64,7.42C186.36,253.58,186.34,257.28,190.09,258.61Z"/><path class="cls-2" d="M352.45,328.71c7.76.71,17.23.75,23.91-3.8a14.22,14.22,0,0,0,2.15-1.81c2.31-4.49-.85-8.94-5.74-11.41-2.46,0-5.07.27-7,.27-6.74,0-15.08-1-21.56,1.53-.29.13-.59.24-.87.37l-.07,0c-.65.33-1.26.69-1.88,1.05a12,12,0,0,0-4.67,5.73C337.4,325.2,348.17,328.32,352.45,328.71Z"/><path class="cls-2" d="M464.7,214.62a5.17,5.17,0,0,0-5.2,1.6c-3.54,3.5-.35,7.3,2.93,9.1,2,1.1,4.16,3.15,5,.59.51-1.54.09-4-.22-5.6A13.81,13.81,0,0,0,464.7,214.62Z"/><path class="cls-3" d="M387.44,336.7a4.46,4.46,0,0,1-.67.18,43.89,43.89,0,0,1-20.66,10.43,54.27,54.27,0,0,1-11.44.87c-.64,8.63-2.21,17.32-3.05,25.86-.91,9.33-3.78,22,.13,30.94,3.82,8.64,14.5,12.1,23.13,9,8.37-3,13.11-11,17-18.5,1.69-3.28,7.83-1.93,7.31,2-2.92,22-29,35.74-47.85,22.12-9.45-6.81-11.08-17.27-10.57-28-5,10-12.41,18.9-22.55,24-11.82,6-26.87,6-37.73-2.07-8.94-6.62-14.66-19.07-10.42-29.82,1.68-4.24,8.51-4,8.4,1.13-.57,26.69,29.12,31.27,45.4,14,12.93-13.73,15.89-33.68,20.25-51.89a55.46,55.46,0,0,1-10.39-3.35c-4-1.77-8.72-3.91-11-7.92a9.2,9.2,0,0,1-1.09-4.45,17.49,17.49,0,0,1-2.27-6.1c-44-4.56-95.38-8-123.37,33.45-10.81,16-14,35.78-5.75,53.67s24.38,30.69,41.34,39.59c36,18.89,78.76,20.8,117.92,12.2a231.31,231.31,0,0,0,56.17-20.14c17.78-9.14,36.12-21.8,43.48-41.25,6.84-18.08,3.73-40.33-9.9-54.49C425.9,334.26,405.26,330,387.44,336.7Z"/><path class="cls-4" d="M425,142.18c-14.92,3-29.92,5.57-44.66,9.37s-29.08,8.58-43.7,12.61c-27.54,7.61-55.88,11.84-84.36,13.91-29.33,2.12-58.79,2.1-88.17,1.41-14.6-.35-29.22-.65-43.81-1.34-11.88-.55-24.34-1.2-36-4.19a4,4,0,0,1-1.4,1.73,4.23,4.23,0,0,1-1.18,2.18c-2.77,2.57-5.63,5-8.45,7.39,29.86,9.45,63.65,9.56,94.42,9.83,63.65.56,125.09-10.48,187-24C412.17,158.62,469.52,145,524.13,123c-.54-.41-1.07-.83-1.62-1.24a4.72,4.72,0,0,1-2-4.37C489,126.69,457.32,135.77,425,142.18Z"/><path class="cls-1" d="M83,169.15c31.21,4,62.24,4.65,93.72,5,59.18.72,117-3.22,173.93-20.29,28.76-8.61,57.78-14,87-20.53,27.31-6.06,54.18-13.89,81-21.81a5.44,5.44,0,0,1,.48-1.66C527,93,531.65,75.15,527,56.64c-4.52-18-20.85-23.83-37.92-22.7A74.89,74.89,0,0,0,441,56.28C429,68.57,423.36,83.55,419.74,99.86c3.19.76,6.34,1.6,9.41,2.56,5.41,1.67,4.67,10.92-1.39,10.26-12.74-1.37-25.31-4.45-38.05-6.05q-17.67-2.22-35.47-3.08a477.27,477.27,0,0,0-145.7,15c-24,6.24-46.63,16-70.24,23.36-3.65,1.15-5.72-4.18-2.55-6.05a176.57,176.57,0,0,1,22.69-11.09,6,6,0,0,1-.6-1.24C151.79,105.7,144.5,87.87,128.12,77c-15.65-10.36-35.4-11.76-50.82-.26-13.54,10.11-28.11,30.15-28.85,47.54C47.57,145,70.72,155.84,83,169.15Z"/><path class="cls-5" d="M395,323.81c1.12-4.89.3-10.21-3.46-15.65-6.06-8.75-17.41-9.45-27.1-8.93-10.85.6-23.07,1.85-33,6.61-4.94,2.37-9.33,6.2-11.28,11.08-43.66-9.65-96.42-7.68-127.15,28.72-13,15.36-20.38,35-17,55.2,3.52,21,18.16,38.18,34.94,50.36,38.29,27.79,89.21,32.89,134.63,24.4a240.17,240.17,0,0,0,66.64-23.1c19.66-10.25,38.55-24.62,46.89-45.88,8.49-21.66,4.49-48.06-11.48-65.26A58.89,58.89,0,0,0,395,323.81Zm-53.58-8.87c.62-.36,1.23-.72,1.88-1.05l.07,0c.28-.13.58-.24.87-.37,6.48-2.55,14.82-1.56,21.56-1.53,1.9,0,4.51-.28,7-.27,4.89,2.47,8.05,6.92,5.74,11.41a14.22,14.22,0,0,1-2.15,1.81c-6.68,4.55-16.15,4.51-23.91,3.8-4.28-.39-15.05-3.51-15.7-8A12,12,0,0,1,341.42,314.94Zm107.71,87.65c-7.36,19.45-25.7,32.11-43.48,41.25A231.31,231.31,0,0,1,349.48,464c-39.16,8.6-81.92,6.69-117.92-12.2-17-8.9-33.14-21.83-41.34-39.59s-5.06-37.65,5.75-53.67c28-41.46,79.41-38,123.37-33.45a17.49,17.49,0,0,0,2.27,6.1,9.2,9.2,0,0,0,1.09,4.45c2.27,4,6.95,6.15,11,7.92a55.46,55.46,0,0,0,10.39,3.35c-4.36,18.21-7.32,38.16-20.25,51.89-16.28,17.27-46,12.69-45.4-14,.11-5.14-6.72-5.37-8.4-1.13-4.24,10.75,1.48,23.2,10.42,29.82,10.86,8,25.91,8,37.73,2.07,10.14-5.12,17.55-14,22.55-24-.51,10.75,1.12,21.21,10.57,28,18.88,13.62,44.93-.08,47.85-22.12.52-3.91-5.62-5.26-7.31-2-3.85,7.5-8.59,15.46-17,18.5-8.63,3.14-19.31-.32-23.13-9-3.91-8.89-1-21.61-.13-30.94.84-8.54,2.41-17.23,3.05-25.86a54.27,54.27,0,0,0,11.44-.87,43.89,43.89,0,0,0,20.66-10.43,4.46,4.46,0,0,0,.67-.18c17.82-6.67,38.46-2.44,51.79,11.4C452.86,362.26,456,384.51,449.13,402.59Z"/><path class="cls-5" d="M470.76,206a15.66,15.66,0,0,0-10.11-4.28c-7-.26-13.21,3.5-14.84,9.71a13.54,13.54,0,0,0-3.08,8,20,20,0,0,0,11.49,18.83,18,18,0,0,0,18.95-2.39l.06-.05c6.73-5.34,9.89-15,4.37-23.75A15.56,15.56,0,0,0,470.76,206Zm-3.32,19.91c-.85,2.56-3,.51-5-.59-3.28-1.8-6.47-5.6-2.93-9.1a5.17,5.17,0,0,1,5.2-1.6,13.81,13.81,0,0,1,2.52,5.69C467.53,221.87,468,224.37,467.44,225.91Z"/><path class="cls-5" d="M186.87,269.16c8.83,3.15,21.51,2.46,26-7,3.88-8.1,3-20.62-3.49-27.18-4.85-4.88-10.85-5.36-16.44-3.47-9-.09-18.07,5.54-19.34,16.38A20,20,0,0,0,186.87,269.16Zm.2-19c.79-3.79,5.79-10,9.64-7.42l.27.18a6.25,6.25,0,0,1,1.48,1.74,3.66,3.66,0,0,0,1.63,1.54c2.29,3.76,2.17,8.78-3,11.56a9.06,9.06,0,0,1-7,.83C186.34,257.28,186.36,253.58,187.07,250.18Z"/><path class="cls-5" d="M527.82,114.12c11.8-17.28,14.68-41.61,9-61.57C531.42,33.3,514.39,24,495.15,23.65,454.51,23,414,56.59,412,98.2c-18.95-3.67-39.15-4.7-57.78-5.56A483.24,483.24,0,0,0,206,109.29c-12.58,3.49-25.67,7.27-38.37,11.91,0-.12,0-.24-.05-.36-4.72-21.21-17.52-42.66-36.45-54-18.61-11.12-41.73-11.5-59.39,1.61-16.33,12.12-32.21,35-33,55.82-.39,10.26,3.93,19.21,10.63,26.72A135.43,135.43,0,0,0,72,170.85a3.71,3.71,0,0,0,1.11,2.28C57.73,182.38,45.24,200.2,38,215.81a110.74,110.74,0,0,0-9.93,58.53c.47,4.38,7.32,7.86,9.58,2.6a48.11,48.11,0,0,1,7.36-12C21.13,326,25.65,396.61,58.26,454c2.43,4.26,9.62,2.51,9.42-2.55A57.12,57.12,0,0,1,69,436.74,157.21,157.21,0,0,0,132.83,539.5c2.94,2.09,7.83-.67,7.47-4.29l-2.25-23.11a150.38,150.38,0,0,0,75.45,51.26c3.92,1.16,8.37-3.76,5.69-7.4a42.17,42.17,0,0,1-7.43-16.06,87.57,87.57,0,0,0,49,25c4.38.65,7.71-3.2,5.67-7.37a61.91,61.91,0,0,1-5.9-20.61,152.15,152.15,0,0,0,27.55,19.27,5.26,5.26,0,0,0,7.63-3.1,70.47,70.47,0,0,1,13.51-25.76q-.71,10.5-1.42,21c-.22,3.29,3.24,5.24,6.08,4.63a149.38,149.38,0,0,0,47.84-19.28A62.67,62.67,0,0,1,357.91,546c-1.54,3.63,1,8.13,5.36,7A187.91,187.91,0,0,0,467,481.35q-.06,14.2-.26,28.4c-.06,3.92,5.44,6.62,8.17,3.39,22.13-26.25,37.61-57.13,53.15-87.54,11.29-22.09,21.71-44.68,28.06-68.52.38,2.57.78,5.14,1.16,7.72.63,4.28,6.5,4.06,8.47,1.11,25.7-38.42,20.8-87,15.69-130.56C576.24,190.82,567.42,141.31,527.82,114.12ZM48.45,124.31c.74-17.39,15.31-37.43,28.85-47.54,15.42-11.5,35.17-10.1,50.82.26,16.38,10.84,23.67,28.67,29.72,46.49a6,6,0,0,0,.6,1.24,176.57,176.57,0,0,0-22.69,11.09c-3.17,1.87-1.1,7.2,2.55,6.05,23.61-7.39,46.2-17.12,70.24-23.36a477.27,477.27,0,0,1,145.7-15q17.79.87,35.47,3.08c12.74,1.6,25.31,4.68,38.05,6.05,6.06.66,6.8-8.59,1.39-10.26-3.07-1-6.22-1.8-9.41-2.56C423.36,83.55,429,68.57,441,56.28a74.89,74.89,0,0,1,48.08-22.34c17.07-1.13,33.4,4.74,37.92,22.7,4.66,18.51,0,36.39-7.78,53.25a5.44,5.44,0,0,0-.48,1.66c-26.82,7.92-53.69,15.75-81,21.81-29.26,6.49-58.28,11.92-87,20.53-56.94,17.07-114.75,21-173.93,20.29-31.48-.38-62.51-1.06-93.72-5C70.72,155.84,47.57,145,48.45,124.31Zm474.06-2.56c.55.41,1.08.83,1.62,1.24-54.61,22-112,35.63-169.36,48.13-61.93,13.48-123.37,24.52-187,24-30.77-.27-64.56-.38-94.42-9.83,2.82-2.42,5.68-4.82,8.45-7.39A4.23,4.23,0,0,0,83,175.68a4,4,0,0,0,1.4-1.73c11.63,3,24.09,3.64,36,4.19,14.59.69,29.21,1,43.81,1.34,29.38.69,58.84.71,88.17-1.41,28.48-2.07,56.82-6.3,84.36-13.91,14.62-4,29-8.81,43.7-12.61s29.74-6.41,44.66-9.37c32.29-6.41,63.92-15.49,95.48-24.8A4.72,4.72,0,0,0,522.51,121.75Zm41.74,227.53q-1.54-10-3.09-20.11c-.85-5.6-8.42-3.38-9,1.22-4.27,33.16-18.57,63.64-33.69,93.07-12.72,24.75-25.33,50-42,72.38q.15-15.19.12-30.4c0-4.75-6.46-6.45-8.88-2.4a180.11,180.11,0,0,1-98.17,78.16A76.11,76.11,0,0,0,372.47,524c.19-3.43-4.27-6.21-7.18-4.12a142.55,142.55,0,0,1-47.46,22.26L319.77,514c.34-4.93-5.72-5.91-8.4-3a5.3,5.3,0,0,0-2,1.17A80.66,80.66,0,0,0,287.79,544a150.92,150.92,0,0,1-29-22.73c-3.23-3.22-8.44-.71-8.66,3.59A76.11,76.11,0,0,0,254,553a80.12,80.12,0,0,1-43.6-29.95c-3-4.17-8.79-2.52-9.36,2.54a49.72,49.72,0,0,0,3,23.81,140.41,140.41,0,0,1-68.52-58.34c-2.35-3.93-9.72-2.61-9.21,2.5q1.5,15.34,3,30.71A147.09,147.09,0,0,1,77,416.41a5,5,0,0,0-9.28-2.51,63.64,63.64,0,0,0-8.47,19.92c-26.48-57.39-25.8-125.88,2.9-182.56a5.11,5.11,0,0,0-6.94-6.93,54.61,54.61,0,0,0-17.31,13.11,102.59,102.59,0,0,1,9.3-37.69A105.77,105.77,0,0,1,61.77,196.5a79,79,0,0,1,8.06-8.19c24.57,9.87,52.37,10.79,78.51,11.87a656.43,656.43,0,0,0,96.93-3.08c31.32-3.36,62.08-9.52,92.84-16.15,30.49-6.56,61-13.17,91.16-21,34.05-8.81,67.66-19.23,100.21-32.58,31.68,28.22,38.06,73.66,42.66,114C576.23,277.17,579.61,316,564.25,349.28Z"/></svg>