<svg id="Layer_1" data-name="Layer 1" xmlns="http://www.w3.org/2000/svg" viewBox="0 0 600 600"><defs><style>.cls-1{fill:#88e0ff;}.cls-2{fill:#fff;}.cls-3{fill:#f7941e;}.cls-4{fill:#231f20;}</style></defs><title>doodle</title><path class="cls-1" d="M225.77,319.46q4.69,3.5,9.65,6.59,8.24-35.3,16.46-70.6c6.31-27.16,11.67-54.79,19.23-81.64l-13.79.13q-9.24.09-18.48.1c-1.47,0-2.93,0-4.36-.17,3.48,23.54-5.23,46.63-17.54,66.55-7.79,12.61-17.62,23.71-25.77,35.88C195,294.25,211.69,309,225.77,319.46Z"/><path class="cls-2" d="M217.34,433.12a3.73,3.73,0,0,1-.68.41,10.29,10.29,0,0,0-.15,1.54c0,.48,0,4.16,0,4.12.53.59,3.44.44,4.18.38,2.77-.25,2.34-3.47,1.4-5.53C221.06,431.78,219.19,431.77,217.34,433.12Z"/><path class="cls-3" d="M253.09,319.16c10.49-48.36,20-96.92,29.57-145.46l-5,.05c-4.83,27.72-12.18,55.17-18.47,82.59q-8.46,36.87-17,73.72c2.51,1.41,5.06,2.76,7.65,4Q251.48,326.62,253.09,319.16Z"/><path class="cls-3" d="M338.08,26.85c-7.45-2.8-19.91-7.33-23.6,2.36-7,18.43-11.7,38.16-17.14,57.1-2.88,10-5.59,20-8.51,30-2,7-3.75,14.34-6.27,21.27q6.24.72,12.46,1.53c-1.7-2.83-.45-5.71.13-9.12.84-4.87,1.81-9.71,2.85-14.54,2.14-10,4.82-19.84,7.54-29.67s5.66-19.6,8.76-29.33c2.23-7,4.24-14.08,11.39-17.5,13.7-6.56,31.66,3.83,43.58,10a213,213,0,0,1,37.9,25.2c.05-.44.1-.87.13-1.31a4.66,4.66,0,0,1,1.43-3.09C394,59.1,378.83,49.08,363.13,39.92,355,35.2,346.88,30.16,338.08,26.85Z"/><path class="cls-1" d="M257.66,146c-2.42.2-28.93,3.09-29,3a4.24,4.24,0,0,1-1.15,3.49c.08,3.48.37,7.2,2.18,10,2.72,4.21,8.06,3.12,12.36,3,9.79-.25,19.57-.42,29.36-.6q28-.51,56-.93a18,18,0,0,0-.41-5.66c-.22-1-.84-4.95-1.59-5.74-1.32-1.38-5-1.13-6.8-1.37l-7.65-1c-8.9-1.16-17.8-2.39-26.72-3.45A133.6,133.6,0,0,0,257.66,146Z"/><path class="cls-1" d="M321.92,186.07c-.62-4.46-1.3-8.58-.58-12.81q-14.86.19-29.75.35c-6.24,31.52-12.93,62.94-19.68,94.36-4.78,22.22-9.21,44.57-14.23,66.76a1.89,1.89,0,0,1,.58,0c7.88,1.42,14.4,2.93,22.48,1.58a121.17,121.17,0,0,0,19.51-5.44c14.69-5.11,29.3-11.23,44.36-15.15,12.76-3.32,26.9-3.92,38,4.19l.61.47a122.18,122.18,0,0,0-9.74-24.13c-11.33-21-27.1-39.09-37-60.93a189.32,189.32,0,0,1-11.34-32A160.09,160.09,0,0,1,321.92,186.07Zm15.58,76c1.63,1.55,3.3,3,4.87,4.65a21.78,21.78,0,0,1,4.06,4.79c.4.77-.43,1.74-1.24,1.24a22,22,0,0,1-4.47-4.37c-1.5-1.7-2.88-3.48-4.31-5.23C335.79,262.36,336.77,261.33,337.5,262Zm-10.75-13.72c-7.15-5.62-10.68-16.45-12.92-24.92-2.84-10.79-3.66-22-4-33.12,0-.79,1.3-1,1.41-.19,1.39,10.31,2.38,20.7,4.95,30.8a79,79,0,0,0,4.92,14c2,4.31,4.92,8.14,6.94,12.43A.83.83,0,0,1,326.75,248.31Z"/><path class="cls-2" d="M352.78,427.48c-2.42,2.19-4.14,5.15-1.57,7.59,3.64,3.48,6-3.39,4.23-6.11A3.24,3.24,0,0,0,352.78,427.48Z"/><path class="cls-2" d="M367.65,323.36c-13.95-3.11-28.79,3.48-41.77,7.84s-26,9.79-39.45,12.06a67.13,67.13,0,0,1-11.23,1c.66.21,1.32.44,2,.64,20.38,6.27,41.59,9.31,62.85,10.45,9.75.52,19.86.61,29.2-2.67a35.75,35.75,0,0,0,12-6.95,33.55,33.55,0,0,0,4.28-4.88c-1-3.1-1.8-6.23-4-9A24.72,24.72,0,0,0,367.65,323.36Z"/><path class="cls-2" d="M354.67,365.36c-18.6,1.11-38.09-1.79-56.25-5.61a213,213,0,0,1-43.3-13.93q-.74,3.09-1.48,6.2c-1.76,7.19-6.8,16.67-15.83,13.11-10.72-4.23-7.49-17.22-5.51-25.73l1.2-5.11A158.58,158.58,0,0,1,207,313.57c-7.33-7.14-17.93-17.61-21-28.77a88.3,88.3,0,0,0-6.34,13.76c-7.72,21.9-9,45.44-10,68.45q-1.59,38.81-.45,77.66.59,19.41,1.8,38.8c.82,12.88,2.58,25.82,2.86,38.72a4.39,4.39,0,0,1-.2,1.38,59.5,59.5,0,0,0,7.88,16.36c6.21,8.67,14.9,15.35,24.15,20.49,33.62,18.67,76.21,23.34,113.73,16.85,17.28-3,34.51-8.13,49.69-17.06a83.16,83.16,0,0,0,19.3-15.27c4.85-5.26,7.92-11.61,12.14-17.25,3.32-11.13,1.22-24.65.85-35.72q-.72-21.5-2.1-43-2.52-39.18-7.2-78.19c-.78-6.44-1.54-12.88-2.45-19.28A43.14,43.14,0,0,1,381.3,358C373.26,362.81,364,364.8,354.67,365.36ZM215.39,475.3h-.16a5.31,5.31,0,0,1-4.86-3.27,5.22,5.22,0,0,1,.68-5.27,5.35,5.35,0,0,1,5.59-1.9,5.5,5.5,0,0,1,2.34,1.37,5.3,5.3,0,0,1,1.37,2.34l0,.16A5.25,5.25,0,0,1,215.39,475.3Zm7.26-27.51c-3.4.41-8.16-.17-10.92-2.34-3.4-2.66-3.13-8.25-2.66-12.14.44-3.63,1.9-7.06,5.14-9a7.81,7.81,0,0,1,2.9-1c4.75-1.14,10.79,2.11,12.91,6.67C233.24,436.86,231.38,446.73,222.65,447.79Zm68.28,23.39c-15.19,2.35-24.26-11.09-23.5-24.75.14-2.5,4.23-3.37,4.62-.62,1.21,8.63,8.64,19.35,18.55,16.56,11.57-3.26,4.47-17.52,7.76-25.67,1.19-2.95,6.68-4.14,7.26,0C307.53,450.19,308.1,468.51,290.93,471.18Zm52-33.7a11.2,11.2,0,0,1,2.65-12.74c-1.09-3.29,3.7-6.19,6.73-6.44,10.48-.86,15.38,11.14,11.38,19.55C359.36,447,347.06,446.8,343,437.48Zm23.26,30.57a5.44,5.44,0,0,1-3.73,1.54,5.28,5.28,0,0,1-3.73-9,5.44,5.44,0,0,1,3.73-1.55,5.28,5.28,0,0,1,3.73,9Zm25.41,20.79c3.23,5.33,4.14,13.74,1.55,19.5-.54,1.22-2.31.51-2.35-.64-.12-3.11.55-6.22.46-9.35s-.55-6.15-.68-9.23A.55.55,0,0,1,391.63,488.84ZM385,406.51a.49.49,0,0,1,.95-.13c2.48,9.94,2.78,20.58,3.45,30.77.72,10.87,1.62,21.94.68,32.82a.91.91,0,0,1-1.81,0c-1.36-10.51-1.33-21.19-1.88-31.77S384.41,417,385,406.51Z"/><path class="cls-3" d="M237.8,349.28c-.39,2.62-.69,7.06,2.18,8.54s4.37-1.71,5.22-3.8a58.39,58.39,0,0,0,2.93-11.5l-.82-.4c-2.41-1.22-4.79-2.52-7.15-3.85C239.24,341.92,238.35,345.6,237.8,349.28Z"/><path class="cls-4" d="M417.6,64.39a492.4,492.4,0,0,0-55.13-35.53c-8.73-4.81-17.88-9.5-27.62-11.85-7.2-1.73-17.39-3.55-23.43,2-2.73,2.52-4,6-5.07,9.45-1.77,5.46-3.37,11-5,16.48q-5,16.49-9.69,33.06c-3.15,11-6.28,22.09-9.17,33.21-2.17,8.37-4.87,17.12-6.12,25.84-11.79-.7-23.36.38-35.19,1.64-5.29.56-13.29,0-17.71,3.47a6.58,6.58,0,0,0-2.32,7.93c-1.35,7.51-1.18,15.89,5.47,20.92a1.2,1.2,0,0,0,0,.19c2.75,23.25-5.1,45.2-17.32,64.7s-28.69,35.11-37.11,56.74c-8.13,20.87-10,43.55-11.32,65.71q-2.33,38.78-1.77,77.65.31,21.58,1.53,43.12c.84,14.7,1.25,29.79,3.78,44.31a4.56,4.56,0,0,0,.44,1.26c2,14.29,13.68,28.22,24,36.32,16.51,13,37.52,20.54,57.84,25,40.27,8.92,85.91,5.56,122.84-13.7a99.14,99.14,0,0,0,24.9-18c5.1-5.2,10.47-11.56,13.05-18.66,5.88-9,4.84-20.46,4.59-30.8q-.5-19.9-1.54-39.78-2.12-40.29-6.58-80.41c-2.82-25.25-4.56-52-13.71-75.88-9-23.49-25.46-42.18-37.91-63.71a183.32,183.32,0,0,1-16.19-36.79c-2-6.43-3.77-13-5.19-19.57-1.13-5.22-1.53-10.62-3.35-15.56l3.71-.05a4.74,4.74,0,0,0,4.46-3.39c1.9-6,1-11.87-.85-17.73s-4.28-8.23-10.42-9c-8.87-1.11-17.73-2.34-26.59-3.5,2.16-1.57,2.23-3.91,3-6.81,1.24-4.4,2.43-8.81,3.63-13.22,2.22-8.15,4.31-16.33,6.57-24.46q3.54-12.72,7.41-25.33,2-6.56,4.15-13.08c1.13-3.45,2-7.61,5.3-9.73,5.24-3.42,12.77-1.18,18.12.82a158.42,158.42,0,0,1,22,10.74A220.85,220.85,0,0,1,407,86.2a4.7,4.7,0,0,0,7.78-2.06A53.68,53.68,0,0,0,416,78.33c.85-1.44,1.7-2.87,2.66-4.25a3.56,3.56,0,0,0,.53-3.39A5.1,5.1,0,0,0,417.6,64.39Zm-200.66,176c12.31-19.92,21-43,17.54-66.55,1.43.14,2.89.17,4.36.17q9.24,0,18.48-.1l13.79-.13c-7.56,26.85-12.92,54.48-19.23,81.64q-8.2,35.31-16.46,70.6-4.95-3.1-9.65-6.59C211.69,309,195,294.25,191.17,276.3,199.32,264.13,209.15,253,216.94,240.42Zm25.25,89.64q8.55-36.85,17-73.72c6.29-27.42,13.64-54.87,18.47-82.59l5-.05c-9.59,48.54-19.08,97.1-29.57,145.46q-1.62,7.47-3.25,14.93C247.25,332.82,244.7,331.47,242.19,330.06Zm5.94,12.46A58.39,58.39,0,0,1,245.2,354c-.85,2.09-2.31,5.29-5.22,3.8s-2.57-5.92-2.18-8.54c.55-3.68,1.44-7.36,2.36-11,2.36,1.33,4.74,2.63,7.15,3.85ZM392.07,370.8q4.67,39,7.2,78.19,1.38,21.48,2.1,43c.37,11.07,2.47,24.59-.85,35.72-2.54,6.91-7.29,12-12.14,17.25a83.16,83.16,0,0,1-19.3,15.27c-15.18,8.93-32.41,14.07-49.69,17.06-37.52,6.49-80.11,1.82-113.73-16.85-9.25-5.14-17.94-11.82-24.15-20.49a59.5,59.5,0,0,1-7.88-16.36,4.39,4.39,0,0,0,.2-1.38c-.28-12.9-2-25.84-2.86-38.72s-1.41-25.86-1.8-38.8q-1.14-38.82.45-77.66c.94-23,2.26-46.55,10-68.45a88.3,88.3,0,0,1,6.34-13.76c3.11,11.16,13.71,21.63,21,28.77a158.58,158.58,0,0,0,26.52,20.72l-1.2,5.11c-2,8.51-5.21,21.5,5.51,25.73,9,3.56,14.07-5.92,15.83-13.11q.75-3.11,1.48-6.2a213,213,0,0,0,43.3,13.93c18.16,3.82,37.65,6.72,56.25,5.61,9.28-.56,18.59-2.55,26.63-7.4a43.14,43.14,0,0,0,8.32-6.44C390.53,357.92,391.29,364.36,392.07,370.8Zm-10.88-25.08a35.75,35.75,0,0,1-12,6.95c-9.34,3.28-19.45,3.19-29.2,2.67-21.26-1.14-42.47-4.18-62.85-10.45-.66-.2-1.32-.43-2-.64a67.13,67.13,0,0,0,11.23-1c13.46-2.27,26.56-7.72,39.45-12.06s27.82-10.95,41.77-7.84a24.72,24.72,0,0,1,13.79,8.49c2.23,2.76,3,5.89,4,9A33.55,33.55,0,0,1,381.19,345.72ZM336.51,235.34c9.91,21.84,25.68,39.94,37,60.93a122.18,122.18,0,0,1,9.74,24.13l-.61-.47c-11.14-8.11-25.28-7.51-38-4.19-15.06,3.92-29.67,10-44.36,15.15a121.17,121.17,0,0,1-19.51,5.44c-8.08,1.35-14.6-.16-22.48-1.58a1.89,1.89,0,0,0-.58,0c5-22.19,9.45-44.54,14.23-66.76,6.75-31.42,13.44-62.84,19.68-94.36q14.88-.15,29.75-.35c-.72,4.23,0,8.35.58,12.81a160.09,160.09,0,0,0,3.25,17.24A189.32,189.32,0,0,0,336.51,235.34Zm-25.46-85.17,7.65,1c1.78.24,5.48,0,6.8,1.37.75.79,1.37,4.7,1.59,5.74a18,18,0,0,1,.41,5.66q-28,.39-56,.93c-9.79.18-19.57.35-29.36.6-4.3.11-9.64,1.2-12.36-3-1.81-2.8-2.1-6.52-2.18-10a4.24,4.24,0,0,0,1.15-3.49c0,.13,26.53-2.76,29-3a133.6,133.6,0,0,1,26.67.71C293.25,147.78,302.15,149,311.05,150.17ZM407.3,72.86c0,.44-.08.87-.13,1.31A213,213,0,0,0,369.27,49c-11.92-6.15-29.88-16.54-43.58-10-7.15,3.42-9.16,10.5-11.39,17.5q-4.65,14.59-8.76,29.33c-2.72,9.83-5.4,19.7-7.54,29.67-1,4.83-2,9.67-2.85,14.54-.58,3.41-1.83,6.29-.13,9.12q-6.22-.81-12.46-1.53c2.52-6.93,4.23-14.3,6.27-21.27,2.92-10,5.63-20,8.51-30,5.44-18.94,10.13-38.67,17.14-57.1,3.69-9.69,16.15-5.16,23.6-2.36,8.8,3.31,16.95,8.35,25.05,13.07,15.7,9.16,30.89,19.18,45.6,29.85A4.66,4.66,0,0,0,407.3,72.86Z"/><path class="cls-4" d="M217.11,423.27a7.81,7.81,0,0,0-2.9,1c-3.24,2-4.7,5.39-5.14,9-.47,3.89-.74,9.48,2.66,12.14,2.76,2.17,7.52,2.75,10.92,2.34,8.73-1.06,10.59-10.93,7.37-17.85C227.9,425.38,221.86,422.13,217.11,423.27Zm3.58,16.3c-.74.06-3.65.21-4.18-.38,0,0,0-3.64,0-4.12a10.29,10.29,0,0,1,.15-1.54,3.73,3.73,0,0,0,.68-.41c1.85-1.35,3.72-1.34,4.75.92C223,436.1,223.46,439.32,220.69,439.57Z"/><path class="cls-4" d="M363.72,437.85c4-8.41-.9-20.41-11.38-19.55-3,.25-7.82,3.15-6.73,6.44A11.2,11.2,0,0,0,343,437.48C347.06,446.8,359.36,447,363.72,437.85Zm-12.51-2.78c-2.57-2.44-.85-5.4,1.57-7.59a3.24,3.24,0,0,1,2.66,1.48C357.21,431.68,354.85,438.55,351.21,435.07Z"/><path class="cls-4" d="M362.49,459a5.44,5.44,0,0,0-3.73,1.55,5.28,5.28,0,0,0,3.73,9,5.44,5.44,0,0,0,3.73-1.54,5.28,5.28,0,0,0-3.73-9Z"/><path class="cls-4" d="M220.35,468.58a5.3,5.3,0,0,0-1.37-2.34,5.5,5.5,0,0,0-2.34-1.37,5.35,5.35,0,0,0-5.59,1.9,5.22,5.22,0,0,0-.68,5.27,5.31,5.31,0,0,0,4.86,3.27h.16a5.25,5.25,0,0,0,5-6.56Z"/><path class="cls-4" d="M298.36,436.7c-3.29,8.15,3.81,22.41-7.76,25.67-9.91,2.79-17.34-7.93-18.55-16.56-.39-2.75-4.48-1.88-4.62.62-.76,13.66,8.31,27.1,23.5,24.75,17.17-2.67,16.6-21,14.69-34.48C305,432.56,299.55,433.75,298.36,436.7Z"/><path class="cls-4" d="M388.26,470a.91.91,0,0,0,1.81,0c.94-10.88,0-22-.68-32.82-.67-10.19-1-20.83-3.45-30.77a.49.49,0,0,0-.95.13c-.58,10.49.84,21.21,1.39,31.69S386.9,459.46,388.26,470Z"/><path class="cls-4" d="M390.83,507.7c0,1.15,1.81,1.86,2.35.64,2.59-5.76,1.68-14.17-1.55-19.5a.55.55,0,0,0-1,.28c.13,3.08.6,6.14.68,9.23S390.71,504.59,390.83,507.7Z"/><path class="cls-4" d="M316.19,220.88c-2.57-10.1-3.56-20.49-4.95-30.8-.11-.8-1.44-.6-1.41.19.34,11.12,1.16,22.33,4,33.12,2.24,8.47,5.77,19.3,12.92,24.92a.83.83,0,0,0,1.3-1c-2-4.29-4.92-8.12-6.94-12.43A79,79,0,0,1,316.19,220.88Z"/><path class="cls-4" d="M340.72,268.34a22,22,0,0,0,4.47,4.37c.81.5,1.64-.47,1.24-1.24a21.78,21.78,0,0,0-4.06-4.79c-1.57-1.61-3.24-3.1-4.87-4.65-.73-.7-1.71.33-1.09,1.08C337.84,264.86,339.22,266.64,340.72,268.34Z"/></svg>