<svg id="Layer_1" data-name="Layer 1" xmlns="http://www.w3.org/2000/svg" viewBox="0 0 600 600"><defs><style>.cls-1{fill:#fff;}.cls-2{fill:#be1e2d;}.cls-3{fill:#939598;}.cls-4{fill:#231f20;}</style></defs><title>doodle</title><path class="cls-1" d="M449.1,105.78c14.56-7.63,18.93-25.84,17.79-41.13C465.48,45.81,452.2,34.42,435,29.18c-29.5-9-62.75,1-83.16,23.81-2.23,2.49-6.65.51-6.57-2.72C345.73,31,323,27.16,309.89,36.06c-12.55,8.5-17.11,25-12.72,39.12a3.86,3.86,0,0,1-2.65,4.68Q263.37,90,232.07,99.57q46.23,4.13,92.42,8.49c2.91.28,4.21,2.8,3.1,5.41-5.8,13.64-9.56,29.95-1.78,43.63,6.37,11.2,22,17.44,32.47,7.64,3.16-3,7.23.76,5.64,4.35-7.71,17.4-9.6,40.2,1.26,56.79,4.6,7,11.71,12.18,20.31,12.26,7.72.06,15.7-3.71,18.29-11.37a4,4,0,0,1,7.15-.94c6.21,8.75,16.23,13.15,26.14,16.34,11.18,3.61,21.92,6.33,33,.87,18.23-9,33.34-28.72,40.31-47.52,7.32-19.74,6.51-42.78-5.23-60.7-11.26-17.19-32.8-26.83-53-21.91C447.91,113.93,445.09,107.88,449.1,105.78Zm-79.45,36.61c-4.45,3.73-11.87,2.25-15.9-1.42a13.69,13.69,0,0,1-2.89-16c.27-.57,1.21-.16,1,.44-1.5,4.67-.53,10.16,3.27,13.51,4.09,3.6,8.72,2.87,13.58,1.94C369.56,140.65,370.44,141.73,369.65,142.39Zm46.29,51.38c-4.37,12-20.4,15.08-30.88,9.95-12.55-6.15-16.76-21.07-10.41-33.22.51-1,1.86-.11,1.45.85-4.93,11.47-.55,24.89,11.26,29.78,10.9,4.51,19.34-1,27.11-8.22C415.07,192.36,416.26,192.9,415.94,193.77Zm19.17-94.23c-1.29.8-2.27-.91-1.48-1.92,3.82-4.9,7.88-9,7.87-15.65a27.65,27.65,0,0,0-4.36-14.24,32.57,32.57,0,0,0-23.14-15c-.66-.1-.49-1.18.15-1.14A33,33,0,0,1,441.6,69.13C447.22,79.89,446,92.8,435.11,99.54Zm46.15,98.91c3.68-11.94,9.78-24,1.82-35.76-.6-.91.81-1.68,1.44-.84,8.25,11.09,5.2,26.21-1.65,37.28A.89.89,0,0,1,481.26,198.45Zm7.9,4.44a37.6,37.6,0,0,0,9.39-26.11c-.38-9.73-4.35-18.54-6.49-27.9a1.13,1.13,0,0,1,2.05-.86c10.53,19.18,12.12,42.2-3.58,58.85-13.22,14-36,22.91-52.19,8.53-.4-.35.12-1,.56-.72C456.7,225.23,476.42,217.83,489.16,202.89Z"/><path class="cls-2" d="M219,194.48c-20.51,5.55-42,8.3-63,11.09-21.49,2.85-43.7,6-65.48,6.08,1.84,5,2.75,10.78,3.76,15.7,13.26-1.73,26.68-2.47,40-3.95,15.39-1.72,30.73-3.87,45.92-6.87,27.87-5.48,57.73-12.86,81.06-29.71-1.27-2.52-1.77-5.62-2.49-8.27-.32-1.15-.69-2.34-1-3.53-4.15,4.19-10.13,7.62-14.18,9.87A108.58,108.58,0,0,1,219,194.48Z"/><path class="cls-1" d="M168.18,116.42c-4.76.44-17.1,1.43-20.17,6.64a69.28,69.28,0,0,0,29.34-6.3C174.68,115.53,171.14,116.15,168.18,116.42Z"/><path class="cls-1" d="M129.65,161.5c4.75-.66,9.5-1.35,14.24-2.11q14.24-2.28,28.34-5.19c9.68-2,19.36-4.1,28.92-6.61,3.06-.81,11.83-3.3,6.06-6.65-4.22-2.46-12.65-.83-17.07.21a3.63,3.63,0,0,1-1.17.08c-4.37,8-19.51,11.34-27.09,11.89-4.28.31-13.28,1-15.91-3.16a8,8,0,0,1-.38-.71c-10.46,3.57-21.09,6.56-29.69,13.57C120.23,163.72,126.26,162,129.65,161.5Z"/><path class="cls-2" d="M118.41,184.69a4,4,0,0,1,.73,1.16c.8.9,2,1.34,4.16,1.59,3,.33,6,.38,9,.47a198.7,198.7,0,0,0,37.27-2.36,205.76,205.76,0,0,0,35-8.79c2.83-1,5.71-2,8.46-3.16,4.73-2,6.3-4.48,5.2-9.79-1-4.93-2.47-9.81-3.5-14.75-5.2,5.69-16.8,7.21-22.91,8.63q-24,5.53-48.39,9.11c-7.42,1.08-14.91,2.23-22.39,2.82a28.24,28.24,0,0,1-5.75-.05c.93,4.11,1.33,8.36,2.28,12.46A15.85,15.85,0,0,0,118.41,184.69Z"/><path class="cls-1" d="M170.57,144.2a31.92,31.92,0,0,0,9-4.13c4.33-3.17,3.15-6.62,2.41-11.36-.28-1.75-.41-4-.81-6.07a75.09,75.09,0,0,1-34.36,7c1.78,5.27,3.23,10.66,5,15.94A40.6,40.6,0,0,0,170.57,144.2Zm-1.41-14.37a3.64,3.64,0,0,1,1.83-1,4.29,4.29,0,0,1,4.22,0,4.41,4.41,0,0,1,2.1,3.65,4.24,4.24,0,0,1-6.36,3.63,4.05,4.05,0,0,1-1.79-.95,3.79,3.79,0,0,1,0-5.36Z"/><path class="cls-3" d="M249,538c39.9-11.56,74.65-36.14,105.77-63q-4.75-22.11-9.49-44.24Q332.12,369.56,319,308.34c-4.37-20.19-8.91-40.34-13.86-60.39-3.52-14.26-7.65-28.37-11.52-42.54a35.14,35.14,0,0,1-8.85,10.73c-8.51,7-19.18,10.88-29.23,15.06-12.75,5.3-25.63,10.29-38.68,14.81-26.36,9.13-53.43,16.32-81.09,20.1a292.78,292.78,0,0,1-39.7,2.8c-11,0-24.84.92-34.47-5.28-.54-.34-1-.69-1.52-1.05.3,2.46.55,4.91.89,7.29q1.2,8.33,2.64,16.61,3,17.16,7.08,34.1c4.86,20.11,9.74,40,12.94,60.46s6.46,40.63,10.26,60.86Q103,490.25,115,538c22.33,5.75,44.56,7.09,67.58,7.06C205.12,545,227.18,544.33,249,538Zm62-137.71c-10.48-.12-21.75-4.12-31.82-6.87-3.7-1-2.07-6.22,1.55-5.63,10.34,1.69,22.11,2.79,31.75,7.05C315.2,396.08,313.7,400.34,311,400.31ZM302.4,297.72c1.88,3.51,3.44,7.79,2.58,11.82a1,1,0,0,1-1.87,0c-1-3.63-1.19-7.52-2.23-11.18A.84.84,0,0,1,302.4,297.72Zm-.75,72.7c-9.47,4.86-22.86,4.91-33.33,5.78-3.14.26-3.83-5-.75-5.49,5.7-.93,11.37-2,17-3,5.13-1,10.44-2.6,15.68-2.27C302.78,365.55,304.18,369.12,301.65,370.42ZM288.38,246.13c2.88,7,4.29,14.62,6.2,21.91,1.75,6.69,3.6,13.27,4.5,20.14.11.83-1.24,1.17-1.58.43-3.07-6.69-4.85-13.67-6.56-20.81s-3.63-14.25-3.83-21.5C287.09,245.51,288.12,245.5,288.38,246.13Zm-28.8,98.38c4.36-3.89,8.7-7.78,13.28-11.41,4.15-3.29,8.51-7.45,13.38-9.53,3.15-1.34,6.41,2.18,3.81,4.93-3.48,3.69-8.29,6.26-12.37,9.26-4.76,3.5-9.54,7-14.14,10.71C260.79,350.69,256.85,347,259.58,344.51ZM81.21,336.14c-2.67-6.45-4.13-13.36-5.89-20.11-1.55-6-3.79-12.25-3.79-18.44a.62.62,0,0,1,1.15-.31c3.27,5.68,4.51,12.69,6.23,19,1.77,6.47,3.8,12.9,4.68,19.57C83.78,337.3,81.68,337.26,81.21,336.14Zm66.13,74c-10.34,2.1-19.22,6.73-29.06,10.14-2.59.9-4.9-2.92-2.74-4.71,8.52-7.09,20.28-9.8,31-11.22C149.87,404,150.54,409.52,147.34,410.17Zm-43.51-31.9c10,.49,19.6,2.35,29.68,2.21,3.8-.05,3.55,5.29,0,5.74-9.62,1.21-21.32,1.35-30.43-2.45C100.41,382.65,100.4,378.1,103.83,378.27Zm18,138.1c-4.42-9.46-5.81-21.12-8.26-31.24-2.7-11.16-5.39-22.32-7.51-33.6a.71.71,0,0,1,1.36-.38c3.73,10.85,6.77,21.91,9.62,33,2.59,10.05,6.74,21.17,7,31.6C124.06,516.89,122.32,517.45,121.81,516.37Zm28.72-78.95c-9.28,6-15.9,14.56-23.69,22.21-2.46,2.41-5.93-.65-4.55-3.52,5.12-10.61,15.4-18,25.2-23.89C150.83,430.2,153.76,435.32,150.53,437.42Zm13.74-52.26c-4.65-4.94-10.2-10.19-12.73-16.63-4.26-10.82,3.42-22.7,15.65-19.32,6.14,1.69,10.17,6.7,14.05,11.39,3.29,4,6.77,7.77,10.4,11.43a66.5,66.5,0,0,1,12.17-26.63c5.62-7.34,16.68-16.07,24.48-6.09,3.45,4.41,3.44,10,2.71,15.29-1.05,7.6-2.21,15.17-3,22.81-1.66,15.93-2.16,31.86-2.35,47.87,0,4.07-4.93,4.91-7,2.56-13.57-6.73-26-16.38-37.35-26.3A234.25,234.25,0,0,1,164.27,385.16Z"/><path class="cls-2" d="M222.58,345.14c-4.36-6.86-11.76,4-14.18,7.53a59.57,59.57,0,0,0-10,27.61c-.35,3.42-4.16,5.39-6.88,2.85A165.87,165.87,0,0,1,179.74,371c-3.33-3.82-6.22-8.37-10.08-11.7-5.46-4.7-13.41-2.66-11.45,5.22,1.45,5.86,7.42,11,11.42,15.26,14.46,15.49,30.92,27.71,48,40a408.68,408.68,0,0,1,4.42-58.9C222.62,356.57,225.17,349.22,222.58,345.14Z"/><path class="cls-1" d="M90.35,261.2c43.27.08,85.81-9.69,126.46-23.95Q232,231.91,247,225.82c9-3.67,18.47-7.12,26.88-12.14,7-4.18,16.28-12.12,14.13-21.48-1.9-8.26-12.33-7.1-20-7.26,0,.28.06.55.07.82a4.11,4.11,0,0,1,.11,5.38C258.5,201.56,243,206.65,230,211.23a331.8,331.8,0,0,1-45.55,12.19c-15.47,3.06-31.1,5.23-46.77,7s-31.57,3.65-47.32,3.78c-2.17,0-3.33-2.21-3-4a4.16,4.16,0,0,1-.3-.8c-.57-2.14-1.24-4.44-1.86-6.8a135.86,135.86,0,0,0-14.61,11.34c-3.83,3.56-10.38,8.75-10.85,14.31C58.5,262.34,81.73,261.19,90.35,261.2Z"/><path class="cls-1" d="M195.75,191.71c14.69-2.73,29.75-5.9,43-13.13a65,65,0,0,0,9.61-6.32c2.13-1.72,7.91-5.41,4.32-7.63-2.63-1.62-8.2-.81-11.15-.57-4.64.38-9,1.7-13.58,2.59a3.41,3.41,0,0,1-1.69-.09c0,.52,0,1,0,1.55-.14,5.71-3.77,9.35-8.72,11.67-14.22,6.69-30.51,10.57-46,13a196.63,196.63,0,0,1-48.28,1.92c-3.71-.35-7.09-1.26-9.43-3.63-4.81,1.51-9.89,2.18-14.62,4-3.63,1.44-7.32,3.62-9.35,7.08a9.47,9.47,0,0,0-1,2.79c17.5-2.11,35.19-2.9,52.7-5Q168.79,196.72,195.75,191.71Z"/><path class="cls-2" d="M349.38,522.73c5.9-6.44,11.28-13.45,10.88-21.94-.37-1.71-.73-3.41-1.1-5.11a185.32,185.32,0,0,1-39.25,33.14c-30.84,19.72-66.4,30.47-102.56,34.76a307.3,307.3,0,0,1-58.48,1.65c-13.14-1-27.11-3.15-39.13-9,.61,2.32,1.21,4.64,1.83,7a4.29,4.29,0,0,1,.14,1c16,14.64,37.65,15.71,58.61,17.45,37,3.06,72.88.74,107.16-14.58a189.56,189.56,0,0,0,44.11-27.32A186.14,186.14,0,0,0,349.38,522.73Z"/><path class="cls-1" d="M249.19,549.71C291,539.35,328.7,518.14,357,485.45l-1.23-5.7c-31.18,26.63-65.91,50.73-105.7,62.18-22.13,6.37-44.54,7-67.42,7-22.1,0-45.58,0-66.68-7.45.5,2,1,3.93,1.49,5.89,19.46,8.26,39.42,10.66,60.69,10.6A298.43,298.43,0,0,0,249.19,549.71Z"/><path class="cls-4" d="M367,495c-17-80.37-33-161.18-52.64-240.95-5.56-22.57-11-45.8-19.36-67.53a3.36,3.36,0,0,0-.88-1.3c-5.43-9.67-18.08-7.14-27.88-8.48-.21,0-.4,0-.59,0l0-.07c-.93-3-1.68-6.43-3.37-9.14,3.94-17.16-30-10.77-37.06-7.32l-.12.07c-.27-1.08-.55-2.15-.8-3.21-1.12-4.77-2-9.65-3.58-14.3a3.28,3.28,0,0,0-3.52-2.47c-2-9.6-19-8.31-27.15-6.6-.39-6-1.4-13.33-3.95-18.3-2.63-5.14-7.78-6.36-13.18-6.27-9.89.17-33,2-32.21,16.19a2.51,2.51,0,0,0-.13,1,63.39,63.39,0,0,0,1.93,12.16c.41,1.62.79,3.63,1.28,5.62-13.26,2.42-26.43,7.37-36.06,17.05a3.44,3.44,0,0,0,0,4.78c.18.19.36.36.54.52a68.71,68.71,0,0,0,2.37,17.78c-7.74,1.54-16.08,4-21.91,9-4.56,3.92-9.38,12.46-5.59,18.12a37.39,37.39,0,0,0,.64,5.25,3.51,3.51,0,0,0-1.1.35c-10.78,5.63-30.09,20.15-29.84,33.5a2.32,2.32,0,0,0-.18.63c-1.3,9.09,1,18.87,2.3,27.9,1.58,10.7,3.53,21.35,5.78,31.94,4.34,20.35,10.18,40.32,13.67,60.86,7,41.4,13.5,82.74,22.55,123.77q5.65,25.63,12.14,51.07a2.93,2.93,0,0,0,.94,3.63q1.93,7.51,3.92,15a3.55,3.55,0,0,0,2.24,2.54c10,15.22,32.18,18.57,48.75,20.47,22.8,2.61,46.07,4.6,68.95,2a197.56,197.56,0,0,0,104.47-45.16C351,534.38,375.86,514,367,495ZM258.74,178.55c.72,2.65,1.22,5.75,2.49,8.27-23.33,16.85-53.19,24.23-81.06,29.71-15.19,3-30.53,5.15-45.92,6.87-13.28,1.48-26.7,2.22-40,3.95-1-4.92-1.92-10.71-3.76-15.7,21.78-.07,44-3.23,65.48-6.08,21-2.79,42.49-5.54,63-11.09a108.58,108.58,0,0,0,24.53-9.59c4.05-2.25,10-5.68,14.18-9.87C258.05,176.21,258.42,177.4,258.74,178.55Zm-90.56-62.13c3-.27,6.5-.89,9.17.34a69.28,69.28,0,0,1-29.34,6.3C151.08,117.85,163.42,116.86,168.18,116.42Zm13,6.22c.4,2.06.53,4.32.81,6.07.74,4.74,1.92,8.19-2.41,11.36a31.92,31.92,0,0,1-9,4.13,40.6,40.6,0,0,1-18.79,1.34c-1.77-5.28-3.22-10.67-5-15.94A75.09,75.09,0,0,0,181.14,122.64Zm-35.55,26.61a8,8,0,0,0,.38.71c2.63,4.18,11.63,3.47,15.91,3.16,7.58-.55,22.72-3.85,27.09-11.89a3.63,3.63,0,0,0,1.17-.08c4.42-1,12.85-2.67,17.07-.21,5.77,3.35-3,5.84-6.06,6.65-9.56,2.51-19.24,4.63-28.92,6.61q-14.11,2.9-28.34,5.19c-4.74.76-9.49,1.45-14.24,2.11-3.39.47-9.42,2.22-13.75,1.32C124.5,155.81,135.13,152.82,145.59,149.25Zm-24.52,20.37c7.48-.59,15-1.74,22.39-2.82q24.38-3.57,48.39-9.11c6.11-1.42,17.71-2.94,22.91-8.63,1,4.94,2.47,9.82,3.5,14.75,1.1,5.31-.47,7.76-5.2,9.79-2.75,1.19-5.63,2.18-8.46,3.16a205.76,205.76,0,0,1-35,8.79,198.7,198.7,0,0,1-37.27,2.36c-3-.09-6-.14-9-.47-2.14-.25-3.36-.69-4.16-1.59a4,4,0,0,0-.73-1.16,15.85,15.85,0,0,1-.81-2.66c-.95-4.1-1.35-8.35-2.28-12.46A28.24,28.24,0,0,0,121.07,169.62ZM89.9,202.16c2-3.46,5.72-5.64,9.35-7.08,4.73-1.86,9.81-2.53,14.62-4,2.34,2.37,5.72,3.28,9.43,3.63a196.63,196.63,0,0,0,48.28-1.92c15.46-2.4,31.75-6.28,46-13,4.95-2.32,8.58-6,8.72-11.67,0-.52,0-1,0-1.55a3.41,3.41,0,0,0,1.69.09c4.54-.89,8.94-2.21,13.58-2.59,3-.24,8.52-1.05,11.15.57,3.59,2.22-2.19,5.91-4.32,7.63a65,65,0,0,1-9.61,6.32c-13.23,7.23-28.29,10.4-43,13.13q-27,5-54.19,8.25c-17.51,2.09-35.2,2.88-52.7,5A9.47,9.47,0,0,1,89.9,202.16ZM59.67,248.22c.47-5.56,7-10.75,10.85-14.31a135.86,135.86,0,0,1,14.61-11.34c.62,2.36,1.29,4.66,1.86,6.8a4.16,4.16,0,0,0,.3.8c-.31,1.79.85,4,3,4,15.75-.13,31.68-2.06,47.32-3.78s31.3-3.91,46.77-7A331.8,331.8,0,0,0,230,211.23c13.06-4.58,28.55-9.67,38.19-20.09a4.11,4.11,0,0,0-.11-5.38c0-.27,0-.54-.07-.82,7.67.16,18.1-1,20,7.26,2.15,9.36-7.1,17.3-14.13,21.48-8.41,5-17.84,8.47-26.88,12.14q-14.94,6.06-30.14,11.43c-40.65,14.26-83.19,24-126.46,23.95C81.73,261.19,58.5,262.34,59.67,248.22ZM93.88,441.9c-3.8-20.23-7.09-40.53-10.26-60.86s-8.08-40.35-12.94-60.46q-4.09-16.93-7.08-34.1-1.44-8.3-2.64-16.61c-.34-2.38-.59-4.83-.89-7.29.49.36,1,.71,1.52,1.05,9.63,6.2,23.52,5.28,34.47,5.28a292.78,292.78,0,0,0,39.7-2.8c27.66-3.78,54.73-11,81.09-20.1,13.05-4.52,25.93-9.51,38.68-14.81,10-4.18,20.72-8.07,29.23-15.06a35.14,35.14,0,0,0,8.85-10.73c3.87,14.17,8,28.28,11.52,42.54,4.95,20.05,9.49,40.2,13.86,60.39q13.23,61.2,26.24,122.45Q350,452.92,354.72,475C323.6,501.88,288.85,526.46,249,538c-21.77,6.31-43.83,7-66.34,7-23,0-45.25-1.31-67.58-7.06Q103,490.26,93.88,441.9Zm22.05,99.59c21.1,7.49,44.58,7.44,66.68,7.45,22.88,0,45.29-.64,67.42-7,39.79-11.45,74.52-35.55,105.7-62.18l1.23,5.7c-28.26,32.69-66,53.9-107.77,64.26A298.43,298.43,0,0,1,178.11,558c-21.27.06-41.23-2.34-60.69-10.6C116.92,545.42,116.43,543.45,115.93,541.49ZM287.48,567c-34.28,15.32-70.17,17.64-107.16,14.58-21-1.74-42.6-2.81-58.61-17.45a4.29,4.29,0,0,0-.14-1c-.62-2.32-1.22-4.64-1.83-7,12,5.89,26,8.07,39.13,9a307.3,307.3,0,0,0,58.48-1.65c36.16-4.29,71.72-15,102.56-34.76a185.32,185.32,0,0,0,39.25-33.14c.37,1.7.73,3.4,1.1,5.11.4,8.49-5,15.5-10.88,21.94a186.14,186.14,0,0,1-17.79,16.95A189.56,189.56,0,0,1,287.48,567Z"/><path class="cls-4" d="M225.64,425.28c.19-16,.69-31.94,2.35-47.87.8-7.64,2-15.21,3-22.81.73-5.3.74-10.88-2.71-15.29-7.8-10-18.86-1.25-24.48,6.09A66.5,66.5,0,0,0,191.64,372c-3.63-3.66-7.11-7.45-10.4-11.43-3.88-4.69-7.91-9.7-14.05-11.39-12.23-3.38-19.91,8.5-15.65,19.32,2.53,6.44,8.08,11.69,12.73,16.63a234.25,234.25,0,0,0,17,16.38c11.39,9.92,23.78,19.57,37.35,26.3C220.71,430.19,225.59,429.35,225.64,425.28Zm-56-45.48c-4-4.27-10-9.4-11.42-15.26-2-7.88,6-9.92,11.45-5.22,3.86,3.33,6.75,7.88,10.08,11.7a165.87,165.87,0,0,0,11.76,12.11c2.72,2.54,6.53.57,6.88-2.85a59.57,59.57,0,0,1,10-27.61c2.42-3.53,9.82-14.39,14.18-7.53,2.59,4.08,0,11.43-.58,15.74a408.68,408.68,0,0,0-4.42,58.9C200.55,407.51,184.09,395.29,169.63,379.8Z"/><path class="cls-4" d="M133.51,386.22c3.55-.45,3.8-5.79,0-5.74-10.08.14-19.7-1.72-29.68-2.21-3.43-.17-3.42,4.38-.75,5.5C112.19,387.57,123.89,387.43,133.51,386.22Z"/><path class="cls-4" d="M118.28,420.31c9.84-3.41,18.72-8,29.06-10.14,3.2-.65,2.53-6.22-.78-5.79-10.74,1.42-22.5,4.13-31,11.22C113.38,417.39,115.69,421.21,118.28,420.31Z"/><path class="cls-4" d="M147.49,432.22c-9.8,5.91-20.08,13.28-25.2,23.89-1.38,2.87,2.09,5.93,4.55,3.52,7.79-7.65,14.41-16.17,23.69-22.21C153.76,435.32,150.83,430.2,147.49,432.22Z"/><path class="cls-4" d="M263.54,348.47c4.6-3.71,9.38-7.21,14.14-10.71,4.08-3,8.89-5.57,12.37-9.26,2.6-2.75-.66-6.27-3.81-4.93-4.87,2.08-9.23,6.24-13.38,9.53-4.58,3.63-8.92,7.52-13.28,11.41C256.85,347,260.79,350.69,263.54,348.47Z"/><path class="cls-4" d="M284.61,367.67c-5.67,1.07-11.34,2.11-17,3-3.08.51-2.39,5.75.75,5.49,10.47-.87,23.86-.92,33.33-5.78,2.53-1.3,1.13-4.87-1.36-5C295.05,365.07,289.74,366.71,284.61,367.67Z"/><path class="cls-4" d="M279.15,393.44c10.07,2.75,21.34,6.75,31.82,6.87,2.73,0,4.23-4.23,1.48-5.45-9.64-4.26-21.41-5.36-31.75-7.05C277.08,387.22,275.45,392.42,279.15,393.44Z"/><path class="cls-4" d="M171,136.14a4.24,4.24,0,0,0,6.36-3.63,4.41,4.41,0,0,0-2.1-3.65,4.29,4.29,0,0,0-4.22,0,3.64,3.64,0,0,0-1.83,1,3.79,3.79,0,0,0,0,5.36A4.05,4.05,0,0,0,171,136.14Z"/><path class="cls-4" d="M445,24.69c-31-13.19-68.64-5.35-93.1,17.3C347,25.81,326.65,19.52,311,26.68c-17.64,8.08-26.11,28.63-22.09,47q-35,11.43-69.75,23.51a3.14,3.14,0,0,0-1.4,4.94,3.8,3.8,0,0,0,3.46,3.7q49.08,4.64,98.18,9c-6.12,16.51-8.4,35.8,3.29,50.48,7.6,9.56,20.27,13.6,31.26,10-6.34,20.31-5.56,44.91,9.52,60.73,12.09,12.69,35.12,13.4,44.91-1.21,11.13,11.4,29,17.62,44.18,19.23,19.66,2.08,36.5-12.9,48.16-27,24-29.08,32.44-74.53,4.7-104.42a58.72,58.72,0,0,0-41.77-18.72c7.95-9.51,11.2-22.82,11.11-35.2C474.62,48,463.76,32.7,445,24.69Zm7.16,88.22c20.2-4.92,41.74,4.72,53,21.91,11.74,17.92,12.55,41,5.23,60.7-7,18.8-22.08,38.5-40.31,47.52-11,5.46-21.78,2.74-33-.87-9.91-3.19-19.93-7.59-26.14-16.34a4,4,0,0,0-7.15.94c-2.59,7.66-10.57,11.43-18.29,11.37-8.6-.08-15.71-5.24-20.31-12.26-10.86-16.59-9-39.39-1.26-56.79,1.59-3.59-2.48-7.3-5.64-4.35-10.48,9.8-26.1,3.56-32.47-7.64-7.78-13.68-4-30,1.78-43.63,1.11-2.61-.19-5.13-3.1-5.41q-46.2-4.35-92.42-8.49Q263.39,90,294.52,79.86a3.86,3.86,0,0,0,2.65-4.68c-4.39-14.12.17-30.62,12.72-39.12,13.13-8.9,35.84-5,35.34,14.21-.08,3.23,4.34,5.21,6.57,2.72C372.21,30.15,405.46,20.2,435,29.18c17.24,5.24,30.52,16.63,31.93,35.47,1.14,15.29-3.23,33.5-17.79,41.13C445.09,107.88,447.91,113.93,452.11,112.91Z"/><path class="cls-4" d="M72.68,297.28a.62.62,0,0,0-1.15.31c0,6.19,2.24,12.48,3.79,18.44,1.76,6.75,3.22,13.66,5.89,20.11.47,1.12,2.57,1.16,2.38-.32-.88-6.67-2.91-13.1-4.68-19.57C77.19,310,76,303,72.68,297.28Z"/><path class="cls-4" d="M107.4,451.15a.71.71,0,0,0-1.36.38c2.12,11.28,4.81,22.44,7.51,33.6,2.45,10.12,3.84,21.78,8.26,31.24.51,1.08,2.25.52,2.22-.6-.27-10.43-4.42-21.55-7-31.6C114.17,473.06,111.13,462,107.4,451.15Z"/><path class="cls-4" d="M297.5,288.61c.34.74,1.69.4,1.58-.43-.9-6.87-2.75-13.45-4.5-20.14-1.91-7.29-3.32-14.93-6.2-21.91-.26-.63-1.29-.62-1.27.17.2,7.25,2.14,14.47,3.83,21.5S294.43,281.92,297.5,288.61Z"/><path class="cls-4" d="M303.11,309.54a1,1,0,0,0,1.87,0c.86-4-.7-8.31-2.58-11.82a.84.84,0,0,0-1.52.64C301.92,302,302.08,305.91,303.11,309.54Z"/><path class="cls-4" d="M441.6,69.13a33,33,0,0,0-27.45-17.56c-.64,0-.81,1-.15,1.14a32.57,32.57,0,0,1,23.14,15A27.65,27.65,0,0,1,441.5,82c0,6.61-4.05,10.75-7.87,15.65-.79,1,.19,2.72,1.48,1.92C446,92.8,447.22,79.89,441.6,69.13Z"/><path class="cls-4" d="M368.73,140.81c-4.86.93-9.49,1.66-13.58-1.94-3.8-3.35-4.77-8.84-3.27-13.51.19-.6-.75-1-1-.44a13.69,13.69,0,0,0,2.89,16c4,3.67,11.45,5.15,15.9,1.42C370.44,141.73,369.56,140.65,368.73,140.81Z"/><path class="cls-4" d="M414.47,192.91c-7.77,7.17-16.21,12.73-27.11,8.22-11.81-4.89-16.19-18.31-11.26-29.78.41-1-.94-1.83-1.45-.85-6.35,12.15-2.14,27.07,10.41,33.22,10.48,5.13,26.51,2,30.88-9.95C416.26,192.9,415.07,192.36,414.47,192.91Z"/><path class="cls-4" d="M438.34,215.4c16.21,14.38,39,5.5,52.19-8.53,15.7-16.65,14.11-39.67,3.58-58.85a1.13,1.13,0,0,0-2.05.86c2.14,9.36,6.11,18.17,6.49,27.9a37.6,37.6,0,0,1-9.39,26.11c-12.74,14.94-32.46,22.34-50.26,11.79C438.46,214.41,437.94,215.05,438.34,215.4Z"/><path class="cls-4" d="M482.87,199.13c6.85-11.07,9.9-26.19,1.65-37.28-.63-.84-2-.07-1.44.84,8,11.77,1.86,23.82-1.82,35.76A.89.89,0,0,0,482.87,199.13Z"/></svg>