<svg id="Layer_1" data-name="Layer 1" xmlns="http://www.w3.org/2000/svg" viewBox="0 0 600 600"><defs><style>.cls-1{fill:#00aeef;}.cls-2{fill:#fff;}.cls-3{fill:#f7941e;}.cls-4{fill:#88e0ff;}.cls-5{fill:#231f20;}</style></defs><title>doodle</title><path class="cls-1" d="M516.17,438.57c-17.73-23.27-45.53-44.2-75.7-35.73a43.85,43.85,0,0,1,1.66,6.71c20.49,2.33,38.44,17.36,52,31.9,9.21,9.91,17.48,20.65,26.57,30.66,6.07,6.67,12.58,14.29,20.54,18.5,5.45-1.47,10.86-3.11,16.27-4.71l2.77-.82a55.81,55.81,0,0,1-17.48-11.59C532.13,463.36,525,450.17,516.17,438.57Z"/><path class="cls-1" d="M500.12,454.52c-16.09-18.94-33.61-35.38-57.58-41.73.13,1.37.21,2.75.21,4.14a4.5,4.5,0,0,1-.08.92c16.5,12.32,27.09,31.57,39.89,47.3,6.74,8.28,14.35,16.06,23.25,22a64.62,64.62,0,0,0,14.41,7.35,91.72,91.72,0,0,0,14.39-2.25l.77-.19a95.88,95.88,0,0,1-8.33-7.3C517.26,475.46,508.86,464.81,500.12,454.52Z"/><path class="cls-1" d="M483.88,473c-7.6-8.57-14.08-18.05-20.87-27.25A242.29,242.29,0,0,0,443.89,423c1.86,13.94,11.47,26.28,19.37,37.43C470.6,470.84,479,481.29,490,488a46.35,46.35,0,0,0,19.87,6.45c-.76-.42-1.5-.83-2.21-1.25C498.63,487.92,490.77,480.76,483.88,473Z"/><path class="cls-1" d="M496.14,282.58c-11.82,8.37-25,14.52-37.28,22.11-12.94,8-25.62,17.9-32,32.13s-5.11,29.82-3.42,45l.66.24c2.06-24.57,16.37-48.66,35.37-63.47,13-10.09,28.28-17,40.12-28.52A74.06,74.06,0,0,0,513.63,271c.23-1.6.48-3.2.77-4.8C509.26,272.67,502.42,278.13,496.14,282.58Z"/><path class="cls-1" d="M472,315c-13.4,8.75-24.85,19.34-32.87,33.33-6.45,11.24-9.75,23.12-11.45,35.61a21.85,21.85,0,0,1,3,2.52c5.79-18.29,19.87-35.38,34.15-46.75,10.08-8,22.51-12.48,32.38-20.66,6.51-5.4,10.54-11.9,13.46-19.08.58-6.14,1.06-12.3,1.7-18.42-1.44,2.09-3,4.12-4.61,6.06C497.9,299.33,484.59,306.76,472,315Z"/><path class="cls-1" d="M474.65,337.81a102.58,102.58,0,0,0-28.31,27.13c-5.53,7.83-9.2,16.22-12.82,24.84.5.64,1,1.3,1.43,2,7.1-11.86,16.92-23.11,28.14-30.49,7.79-5.13,16.71-8,25-12.17a42,42,0,0,0,15.55-12.81A96.2,96.2,0,0,0,508,320c.46-2.49.84-5,1.19-7.49-1,1.38-2,2.71-3.09,4C497.58,326.4,485.41,330.9,474.65,337.81Z"/><path class="cls-1" d="M436.85,394.74a42.5,42.5,0,0,1,2.64,5.43c24.65-8.62,50.95,4.45,68.47,22.45,10.55,10.82,18.34,23.55,27.27,35.64s19,21,32.84,24.5l1.68-.49c.61-.18,1.87-.5,3.29-.86-1.23-.52-2.25-1-2.56-1.13a80.64,80.64,0,0,1-8.81-5,56.89,56.89,0,0,1-13.86-12.81c-7.74-10.11-12.55-22.17-19.32-32.91-14.31-22.7-36.47-43-65-41.69-5.37.25-7.14-7.37-2.69-9.94,11.71-6.75,23.91-13.65,32.78-24.09a54.35,54.35,0,0,0,4.1-5.55c-8,5.27-18.15,8.6-25.67,12.28C456.13,368.31,447.21,381.59,436.85,394.74Z"/><path class="cls-2" d="M292.3,214.48a5.86,5.86,0,0,0,.14-3.37c-.27-.83.09-.36-.1-.58-.56-.71-1.53-.47-1.27-.41a.66.66,0,0,0,.22,0,.66.66,0,0,1-.22,0,3.78,3.78,0,0,1-1.58-.37,4.21,4.21,0,0,0-.52,4.07C289.67,215.39,291.5,216.24,292.3,214.48Z"/><path class="cls-1" d="M28.57,459.15c-2.1,2-7.42,4.91-8.35,7.57-1.75,5,8.37,5.62,11,5.84a55.56,55.56,0,0,0,25-4.09,78.2,78.2,0,0,0,21.55-13.31c5.59-4.78,10-10.93,15.51-15.73A185.86,185.86,0,0,1,70.93,393.7C63.66,418.52,46.78,442.09,28.57,459.15Z"/><path class="cls-3" d="M243.54,156.63a4,4,0,0,1,.17,3.16c.38,3.11.91,6.17,3.18,9.17,4.05,5.34,10.33,7.36,16.86,6.19,15.35-2.77,24.72-19.09,33.18-30.58,17.55-23.84,34.31-48.46,52.22-72.07l-.69.56L332.63,85.45q-14.89,11.65-29.79,23.31-15.39,12-30.83,23.94-7.42,5.78-14.87,11.54C255.09,145.82,242.26,153.82,243.54,156.63Z"/><path class="cls-4" d="M420.54,391.49c-2.19-.37-5.11,4.14-6.46,5.36-7.45,6.72-17.78,8.84-27.51,7.24-20.28-3.34-32.58-22.49-36.18-41.43-2.31-12.15-1.89-24.51-1.46-36.8.45-12.83.39-25.64-.44-38.46q-.83-12.54-2.58-25c-.2-.38-.39-.76-.56-1.17a2.19,2.19,0,0,1,.1-2,341.41,341.41,0,0,0-11.27-49.51c-6.55-21.29-15.6-41.76-28.88-59.7-4.54,6.28-9.21,12.45-14.18,18.34-9.92,11.75-26.73,22-42.22,14.41a26.92,26.92,0,0,1-12.67-13.68c-2.25-5.3-3.89-13.63.78-18.08a15.54,15.54,0,0,1,1.58-2.23c4.65-5.45,11.54-9.71,17.13-14.16l12.89-10.25c-31-8.44-64.19-10.55-95.33-1.62-26.7,7.66-51.74,23.62-68.34,46.1-16.29,22.07-23.64,49-28.78,75.52-5.65,29.22-8.76,59.12-6.8,88.89,3.34,50.6,23.44,102.81,65,134.12,21.76,16.38,47.93,25.08,74.23,31,28.1,6.34,57.44,11.27,86.12,5.93,55.89-10.41,99.3-50,137-90l.42-.4A32.55,32.55,0,0,0,427,398.55C425.83,396.78,422.85,391.89,420.54,391.49ZM87.69,363c-5.07-10.65-6.83-24-8.56-35.66s-2.27-22.94-.52-34.52c.19-1.19,2.1-.88,2.07.28a179.69,179.69,0,0,0,2.82,36.54c1.94,10.78,6.13,21.76,6.7,32.68A1.36,1.36,0,0,1,87.69,363Zm14.8,34.47c-4.87-4.79-7-12.42-8.83-18.8-.41-1.4,1.59-1.84,2.11-.58,2.56,6.09,6.71,12,8.38,18.41A1,1,0,0,1,102.49,397.49Zm206-158a6,6,0,0,1,0,5.82A5.74,5.74,0,0,1,302.7,248a5.53,5.53,0,0,1-3.32-1.59l-.2-.24-.4-.17a5,5,0,0,1-2.36-4.12,4.78,4.78,0,0,1,2.36-4.11,6.92,6.92,0,0,1,3.63-1.08A5.85,5.85,0,0,1,308.45,239.45ZM280.9,205.8a13.47,13.47,0,0,1,7.93-6.05,11.88,11.88,0,0,1,4.75,0,6,6,0,0,1,1.91.84,8.88,8.88,0,0,1,4,2.2c2.86,2.66,3.69,7,3.43,10.71-.55,8-7.4,14.44-15.64,11.49C279.76,222.32,276.74,212.49,280.9,205.8Zm-69.23,24c1-1.91,3.65-1.2,4.25.55,3.12,9.12,9.65,22.29,21.85,18.1s.74-24.08,8.48-32.18a2.72,2.72,0,0,1,3.82,0c3.55,3.6,3.1,8.92,3.21,13.73.12,5.23.85,11.28-.57,16.39-2,7.13-8.77,11.57-15.82,12.46C222.58,260.67,204.1,245,211.67,229.8Zm-70.53-8.88c.55-3.29,3.08-6.71,6.27-8.74,1.55-2.35,4.05-3.61,7.53-3.4,4.42.27,7.9,3.72,9.48,7.64,3,7.5.55,20.89-9.37,20.8C146.84,237.15,139.77,229.08,141.14,220.92Zm-11.37,29.69a5.78,5.78,0,1,1-1.7,4.09A5.94,5.94,0,0,1,129.77,250.61Zm56.14,224.91c-13.17,1.16-27.27-4.49-38.32-11.3-11.43-7-21.53-16.89-27.14-29.21a.93.93,0,0,1,1.6-.94c7.77,10.8,16.7,20.46,28.21,27.33s23.24,9.05,36,11.65C187.73,473.36,187.22,475.4,185.91,475.52Zm130-40.25c-15.28,8.24-34.45,7-50.38,1.37-31.66-11.21-55.49-40.26-59.34-73.71-2.27-19.71-1.07-43.5,7.31-61.77.48-1,1-2.05,1.54-3.05,4.59-10.49,13.13-19.43,23.49-23.79,18.8-7.91,37.25.82,47,17.88,10.1,17.69,9.14,38.84,16.69,57.43a78.68,78.68,0,0,0,16.43,25c6.15,6.31,13.18,11.7,15.66,20.57C338.71,410.89,329.85,427.77,316,435.27Z"/><path class="cls-2" d="M153.6,226.91l.58.07c0-1.92,1.17-3.75.71-5.8s-1.56-1.79-3-1.45a4.13,4.13,0,0,1-1.33.55,5.36,5.36,0,0,0-.24.6A4.87,4.87,0,0,0,153.6,226.91Z"/><path class="cls-1" d="M315.2,383.59a89.69,89.69,0,0,1-23.48-37c-5.25-16.09-5.2-34.06-13.52-49.1-5.63-10.2-14.93-17.07-25.51-17.15a1.45,1.45,0,0,1-.59.13,30.74,30.74,0,0,0-7.94,1.27,28.59,28.59,0,0,0-3.74,1.53c-15.25,7.47-18.62,23.4-23.9,38a2.48,2.48,0,0,1-.85,1.11c-2.95,17.59-2.89,37.51,2.48,54.28,8.48,26.45,31.66,47.68,58.8,53.62,13.84,3,31.18,2.14,41.64-8.67,5.11-5.27,8.64-13.09,8-20.53C325.84,393.37,320.46,388.63,315.2,383.59Z"/><path class="cls-1" d="M417.91,381.48a11.06,11.06,0,0,1,2.21-.19c-2.33-13.61-2.74-28.06,1.58-41.11s13.78-23.51,24.74-31.74c12.31-9.25,26.29-15.81,39.32-23.91a115.74,115.74,0,0,0,18.3-13.59,67.87,67.87,0,0,0,9.42-11.33c-10.93,5-22.66,8.34-34.12,12.2-15.45,5.22-29.49,12.66-41.3,24.06C416.58,316.61,401.27,353.56,417.91,381.48Z"/><path class="cls-1" d="M359.62,305.6c13.76-2,27.52-11.79,37.7-20.41a53.8,53.8,0,0,0,14-17.59,49.69,49.69,0,0,0,4-12c.6-3,1.87-7.18-2.44-5-6.2,3.11-10.79,8.76-16.87,12.12a55.66,55.66,0,0,1-19.18,6.12c-5.23.75-13.1,1.67-19.79.44q1.19,9.62,1.85,19.27C359.34,294.23,359.54,299.91,359.62,305.6Z"/><path class="cls-5" d="M426.28,294c-20.81,23.53-34.11,62.85-15.67,91.43-.38.35-.75.69-1.12,1.08-7.11,7.41-16.73,9.49-26.44,5.78-10.74-4.09-17.41-14.76-20.66-25.3-3.88-12.59-3.45-25.89-3-38.91q.19-6.23.27-12.44c15.44-1.85,29.69-11.55,41.64-20.89,13-10.17,23.14-24.93,24.58-41.78.51-5.86-1.49-12.33-8-13.37-7.71-1.24-14.6,5.3-20.05,9.8a46.38,46.38,0,0,1-23.41,10.3c-5.81.87-12.49,1.68-18.52.54a348.52,348.52,0,0,0-11.21-49.86c-7.27-23.88-17.09-48.3-35.51-65.7,5.93-8.38,11.71-16.88,17.7-25.1,12.8-17.57,26.32-34.81,38.42-52.86,1.65-2.46.11-5.3-2.12-6.51a4.36,4.36,0,0,0-2.87-2.42c-5.51-1.35-9.64,1.68-13.79,5L327.92,77.42Q309.83,91.7,291.77,106l-16.55,13.16a3.77,3.77,0,0,0-2-1.42c-54.2-17.65-117.13-11.45-160.43,28-20.74,18.92-33,44.14-40.37,70.89A384.93,384.93,0,0,0,59,308.44c-.57,24.19,1.84,48.82,8.05,72.27-7,17.66-13.73,34.51-25.05,50a157.56,157.56,0,0,1-19.65,22.19c-5.07,4.75-14.13,10.21-11.18,18.46,2.58,7.2,11.39,8.95,18,9.81A62.74,62.74,0,0,0,57.79,478a81.6,81.6,0,0,0,23.83-13.49c6-4.73,12.91-10.49,17.55-17a160.6,160.6,0,0,0,12.72,14.62c19.32,19.66,43.62,32.46,69.74,40.68,28.65,9,60.21,15.62,90.34,15.13,66-1.06,119.08-44.55,162.51-90.17,1.51,10.31,7,19.44,12.8,28.23,6.28,9.51,12.78,19,20.57,27.34s16.78,15.14,27.43,19c12.5,4.54,26.11,3.64,38.91,1,14.13-2.93,27.94-7.64,41.77-11.72,4.48-1.32,10.72-2.05,12.81-6.88,2.33-5.41-1.95-8.79-6.38-10.82-12.8-5.85-23.18-12.4-30.53-24.75-6.48-10.88-11.79-22.29-19.22-32.61-12.89-17.89-30.89-33.11-52.3-37.89a95.74,95.74,0,0,0,19.56-15.88c8.93-9.82,14.39-21.94,17.33-34.79,6-26.37,3-54.33,13.1-79.82,1.66-4.19-4.15-8.59-7.78-6-16.53,11.9-36.71,15.56-55.27,23.11A109.57,109.57,0,0,0,426.28,294Zm-49.4-25.21a55.66,55.66,0,0,0,19.18-6.12c6.08-3.36,10.67-9,16.87-12.12,4.31-2.16,3,2,2.44,5a49.69,49.69,0,0,1-4,12,53.8,53.8,0,0,1-14,17.59c-10.18,8.62-23.94,18.41-37.7,20.41-.08-5.69-.28-11.37-.68-17.07q-.66-9.64-1.85-19.27C363.78,270.49,371.65,269.57,376.88,268.82Zm-74-160.06q14.91-11.62,29.79-23.31l15.83-12.39.69-.56c-17.91,23.61-34.67,48.23-52.22,72.07-8.46,11.49-17.83,27.81-33.18,30.58-6.53,1.17-12.81-.85-16.86-6.19-2.27-3-2.8-6.06-3.18-9.17a4,4,0,0,0-.17-3.16c-1.28-2.81,11.55-10.81,13.6-12.39q7.46-5.76,14.87-11.54Q287.43,120.73,302.84,108.76ZM77.78,455.16a78.2,78.2,0,0,1-21.55,13.31,55.56,55.56,0,0,1-25,4.09c-2.62-.22-12.74-.88-11-5.84.93-2.66,6.25-5.61,8.35-7.57,18.21-17.06,35.09-40.63,42.36-65.45a185.86,185.86,0,0,0,22.36,45.73C87.81,444.23,83.37,450.38,77.78,455.16Zm354-40.77c-37.7,40-81.11,79.57-137,90-28.68,5.34-58,.41-86.12-5.93-26.3-5.93-52.47-14.63-74.23-31-41.58-31.31-61.68-83.52-65-134.12-2-29.77,1.15-59.67,6.8-88.89C81.3,217.87,88.65,191,104.94,168.9c16.6-22.48,41.64-38.44,68.34-46.1,31.14-8.93,64.32-6.82,95.33,1.62l-12.89,10.25c-5.59,4.45-12.48,8.71-17.13,14.16a15.54,15.54,0,0,0-1.58,2.23c-4.67,4.45-3,12.78-.78,18.08a26.92,26.92,0,0,0,12.67,13.68c15.49,7.6,32.3-2.66,42.22-14.41,5-5.89,9.64-12.06,14.18-18.34,13.28,17.94,22.33,38.41,28.88,59.7a341.41,341.41,0,0,1,11.27,49.51,2.19,2.19,0,0,0-.1,2c.17.41.36.79.56,1.17q1.75,12.43,2.58,25c.83,12.82.89,25.63.44,38.46-.43,12.29-.85,24.65,1.46,36.8,3.6,18.94,15.9,38.09,36.18,41.43,9.73,1.6,20.06-.52,27.51-7.24,1.35-1.22,4.27-5.73,6.46-5.36s5.29,5.29,6.45,7.06A32.55,32.55,0,0,1,432.15,414ZM490,488c-11-6.68-19.37-17.13-26.71-27.5-7.9-11.15-17.51-23.49-19.37-37.43A242.29,242.29,0,0,1,463,445.74c6.79,9.2,13.27,18.68,20.87,27.25,6.89,7.77,14.75,14.93,23.75,20.18.71.42,1.45.83,2.21,1.25A46.35,46.35,0,0,1,490,488Zm44.64,4.31a91.72,91.72,0,0,1-14.39,2.25,64.62,64.62,0,0,1-14.41-7.35c-8.9-6-16.51-13.75-23.25-22-12.8-15.73-23.39-35-39.89-47.3a4.5,4.5,0,0,0,.08-.92c0-1.39-.08-2.77-.21-4.14,24,6.35,41.49,22.79,57.58,41.73,8.74,10.29,17.14,20.94,26.93,30.27a95.88,95.88,0,0,0,8.33,7.3Zm22.87-6.38c-5.41,1.6-10.82,3.24-16.27,4.71-8-4.21-14.47-11.83-20.54-18.5-9.09-10-17.36-20.75-26.57-30.66-13.53-14.54-31.48-29.57-52-31.9a43.85,43.85,0,0,0-1.66-6.71c30.17-8.47,58,12.46,75.7,35.73,8.84,11.6,16,24.79,26.6,34.92a55.81,55.81,0,0,0,17.48,11.59ZM493.59,353.82c-8.87,10.44-21.07,17.34-32.78,24.09-4.45,2.57-2.68,10.19,2.69,9.94,28.52-1.33,50.68,19,65,41.69,6.77,10.74,11.58,22.8,19.32,32.91a56.89,56.89,0,0,0,13.86,12.81,80.64,80.64,0,0,0,8.81,5c.31.15,1.33.61,2.56,1.13-1.42.36-2.68.68-3.29.86l-1.68.49c-13.84-3.47-23.94-12.46-32.84-24.5S518.51,433.44,508,422.62c-17.52-18-43.82-31.07-68.47-22.45a42.5,42.5,0,0,0-2.64-5.43c10.36-13.15,19.28-26.43,35.17-34.19,7.52-3.68,17.65-7,25.67-12.28A54.35,54.35,0,0,1,493.59,353.82ZM508,320a96.2,96.2,0,0,1-4.38,16.31,42,42,0,0,1-15.55,12.81c-8.27,4.21-17.19,7-25,12.17-11.22,7.38-21,18.63-28.14,30.49-.46-.67-.93-1.33-1.43-2,3.62-8.62,7.29-17,12.82-24.84a102.58,102.58,0,0,1,28.31-27.13c10.76-6.91,22.93-11.41,31.45-21.37,1.07-1.25,2.1-2.58,3.09-4C508.84,315,508.46,317.48,508,320Zm2.62-20c-2.92,7.18-6.95,13.68-13.46,19.08-9.87,8.18-22.3,12.64-32.38,20.66-14.28,11.37-28.36,28.46-34.15,46.75a21.85,21.85,0,0,0-3-2.52c1.7-12.49,5-24.37,11.45-35.61,8-14,19.47-24.58,32.87-33.33,12.61-8.24,25.92-15.67,35.73-27.39,1.63-1.94,3.17-4,4.61-6.06C511.68,287.67,511.2,293.83,510.62,300Zm3-29a74.06,74.06,0,0,1-14.05,19.05c-11.84,11.53-27.17,18.43-40.12,28.52-19,14.81-33.31,38.9-35.37,63.47l-.66-.24c-1.69-15.17-3-30.65,3.42-45s19.07-24.14,32-32.13c12.3-7.59,25.46-13.74,37.28-22.11,6.28-4.45,13.12-9.91,18.26-16.37C514.11,267.81,513.86,269.41,513.63,271Zm-.15-11.4a67.87,67.87,0,0,1-9.42,11.33,115.74,115.74,0,0,1-18.3,13.59c-13,8.1-27,14.66-39.32,23.91-11,8.23-20.36,18.54-24.74,31.74s-3.91,27.5-1.58,41.11a11.06,11.06,0,0,0-2.21.19c-16.64-27.92-1.33-64.87,20.15-85.61,11.81-11.4,25.85-18.84,41.3-24.06C490.82,268,502.55,264.65,513.48,259.61Z"/><path class="cls-5" d="M318.67,374.66a78.68,78.68,0,0,1-16.43-25c-7.55-18.59-6.59-39.74-16.69-57.43-9.73-17.06-28.18-25.79-47-17.88-10.36,4.36-18.9,13.3-23.49,23.79-.55,1-1.06,2-1.54,3.05-8.38,18.27-9.58,42.06-7.31,61.77,3.85,33.45,27.68,62.5,59.34,73.71,15.93,5.64,35.1,6.87,50.38-1.37,13.9-7.5,22.76-24.38,18.38-40C331.85,386.36,324.82,381,318.67,374.66Zm-.08,47c-10.46,10.81-27.8,11.69-41.64,8.67-27.14-5.94-50.32-27.17-58.8-53.62-5.37-16.77-5.43-36.69-2.48-54.28a2.48,2.48,0,0,0,.85-1.11c5.28-14.58,8.65-30.51,23.9-38a28.59,28.59,0,0,1,3.74-1.53,30.74,30.74,0,0,1,7.94-1.27,1.45,1.45,0,0,0,.59-.13c10.58.08,19.88,6.95,25.51,17.15,8.32,15,8.27,33,13.52,49.1a89.69,89.69,0,0,0,23.48,37c5.26,5,10.64,9.78,11.35,17.5C327.23,408.53,323.7,416.35,318.59,421.62Z"/><path class="cls-5" d="M155.05,237.22c9.92.09,12.4-13.3,9.37-20.8-1.58-3.92-5.06-7.37-9.48-7.64-3.48-.21-6,1.05-7.53,3.4-3.19,2-5.72,5.45-6.27,8.74C139.77,229.08,146.84,237.15,155.05,237.22Zm-4.75-16.34a5.36,5.36,0,0,1,.24-.6,4.13,4.13,0,0,0,1.33-.55c1.46-.34,2.54-.67,3,1.45s-.68,3.88-.71,5.8l-.58-.07A4.87,4.87,0,0,1,150.3,220.88Z"/><path class="cls-5" d="M287.3,225c8.24,2.95,15.09-3.46,15.64-11.49.26-3.73-.57-8.05-3.43-10.71a8.88,8.88,0,0,0-4-2.2,6,6,0,0,0-1.91-.84,11.88,11.88,0,0,0-4.75,0,13.47,13.47,0,0,0-7.93,6.05C276.74,212.49,279.76,222.32,287.3,225Zm2.19-15.27a3.78,3.78,0,0,0,1.58.37c-.26-.06.71-.3,1.27.41.19.22-.17-.25.1.58a5.86,5.86,0,0,1-.14,3.37c-.8,1.76-2.63.91-3.33-.66A4.21,4.21,0,0,1,289.49,209.75Z"/><path class="cls-5" d="M298.78,237.8a4.78,4.78,0,0,0-2.36,4.11,5,5,0,0,0,2.36,4.12l.4.17.2.24A5.53,5.53,0,0,0,302.7,248a5.74,5.74,0,0,0,5.75-2.76,6,6,0,0,0,0-5.82,5.85,5.85,0,0,0-6-2.73A6.92,6.92,0,0,0,298.78,237.8Z"/><path class="cls-5" d="M133.87,260.49a5.79,5.79,0,0,0,5.79-5.79,5.8,5.8,0,1,0-5.79,5.79Z"/><path class="cls-5" d="M236.89,258.85c7.05-.89,13.85-5.33,15.82-12.46,1.42-5.11.69-11.16.57-16.39-.11-4.81.34-10.13-3.21-13.73a2.72,2.72,0,0,0-3.82,0c-7.74,8.1,3.72,28-8.48,32.18s-18.73-9-21.85-18.1c-.6-1.75-3.3-2.46-4.25-.55C204.1,245,222.58,260.67,236.89,258.85Z"/><path class="cls-5" d="M80.68,293.12c0-1.16-1.88-1.47-2.07-.28-1.75,11.58-1.2,23,.52,34.52s3.49,25,8.56,35.66a1.36,1.36,0,0,0,2.51-.68c-.57-10.92-4.76-21.9-6.7-32.68A179.69,179.69,0,0,1,80.68,293.12Z"/><path class="cls-5" d="M95.77,378.11c-.52-1.26-2.52-.82-2.11.58,1.83,6.38,4,14,8.83,18.8a1,1,0,0,0,1.66-1C102.48,390.12,98.33,384.2,95.77,378.11Z"/><path class="cls-5" d="M186.24,473.05c-12.74-2.6-24.61-4.87-36-11.65s-20.44-16.53-28.21-27.33a.93.93,0,0,0-1.6.94c5.61,12.32,15.71,22.17,27.14,29.21,11,6.81,25.15,12.46,38.32,11.3C187.22,475.4,187.73,473.36,186.24,473.05Z"/></svg>