<svg id="Layer_1" data-name="Layer 1" xmlns="http://www.w3.org/2000/svg" viewBox="0 0 600 600"><defs><style>.cls-1{fill:#58595b;}.cls-2{fill:#fff;}.cls-3{fill:#939598;}.cls-4{fill:#231f20;}</style></defs><title>doodle</title><path class="cls-1" d="M283.83,176.49q5.43,21.22,11.48,42.25c2.82,9.87,5.71,28.34,16.62,30.73,18.18,4,9.91-65.1,8.36-76.09-3.46-24.43-9-49-10.31-73.85-12.34.81-24.65,1.93-36.9,3.56-2.34.32-4.69.66-7,1,3.4,10.23,5.45,21.25,7.87,31.64C277.1,149.36,280.37,163,283.83,176.49Z"/><path class="cls-2" d="M474.74,260.15a8.42,8.42,0,0,0,3.74,6.59c6.24,3.75,13.89-5.9,7.41-10.43C482.1,253.66,478.51,257.6,474.74,260.15Z"/><path class="cls-1" d="M221.3,193.27c1.29,4.68,2.14,10.53,4.18,14.85,2.52,5.34,3.68,7.65,5.39.73,4.47-18.13,3.09-37.25,1-55.68-.93-8.37-2-16.72-3-25.08-.6-5.07-1.89-10.76-2.23-16.27q-12.37,3-24.62,6.46c5.49,14.82,7.87,31.94,11.77,47Q217.45,179.33,221.3,193.27Z"/><path class="cls-2" d="M123.23,322.84A5.07,5.07,0,0,0,127,322l.08-.05c3.26-2.27,4.7-8,2.09-11.67s-6.87-3.61-9.76-1.32C116.12,314,116.2,321.58,123.23,322.84Z"/><path class="cls-3" d="M74.37,533.94c31.48,39.38,82.54,41.83,126.31,39.31,50.25-2.89,100.57-6.66,150.76-10.85,46.09-3.85,93.61-10.68,134.84-35.71,37.55-22.79,65.51-58.58,74.88-105.93,10.09-50.95,3.1-106.89-3.49-157.89-7-54.13-18.09-107.84-34.84-159.27-7.1-21.78-14.54-51.76-32.7-65.44-8.78-6.61-12.84-.71-17.19,7.93a141.8,141.8,0,0,0-7.06,16.38,162.65,162.65,0,0,0-8.36,37.06c-.68,6.2-7,8.18-10.4,5.67a2.44,2.44,0,0,1-.27,0c-14.43-1.38-28.51-5.76-43.08-6.91-7.12-.56-14.25-.84-21.39-1,1.25,7.16.7,14.54.62,21.84-.09,8.6.15,17.38-.42,26-.68,10.22-5.56,21.83-16.29,21.23-11.46-.64-15.71-13.38-18.43-23.81-3.78-14.5-4.58-30.18-8.67-44.45-5.09.18-10.18.37-15.27.61,3.35,32.15,10.13,63.76,12.48,96,1.18,16.18.83,32.57-2.26,48.48-2.27,11.71-7.95,21.4-19.64,21.65s-20.34-9-25.07-20.26c-6-14.34-9.43-30.65-13.38-45.81-4.48-17.2-8.72-34.49-12.43-51.92-2.8-13.14-6.46-27.36-7.24-41.22q-8.07,1.41-16.11,3.09c2.22,9,2.16,20.31,3.14,28.24,1.4,11.25,2.85,22.52,3.48,33.86.64,11.73.41,23.63-1.84,35.15-1.46,7.48-3.41,18.07-10.07,22-18.92,11-24.48-26.62-27.52-38.48-3.35-13.09-6.43-26.27-9.36-39.49-2.07-9.32-4.69-19.13-5.56-28.9l-3.18,1c-13.52,4.17-26.82,9.11-39.94,14.64-9.5,4-19.54,10.11-29.69,13-2.11,7-13,8.57-15.4-.47A257.23,257.23,0,0,0,89.1,106.28C88.46,104.9,86.49,98.62,85,98c-2.82-1.13-4,2.16-5.64,4.69a88.11,88.11,0,0,0-8.5,17.45C61.07,146.69,56.49,176.59,51,204.53,39.39,263.38,31.3,323.89,33.87,384.31a402.51,402.51,0,0,0,11.5,81.43C51.43,489.83,59.21,515,74.37,533.94ZM517.59,362c1,8.48-5.48,15.17-12.82,14.95s-14.85-8.09-12.88-16.86c1-4.4,3.94-7.71,8-8.1a6.8,6.8,0,0,1,.57-.5C507.73,346.13,516.57,353.45,517.59,362ZM501,271.53c-8.25,17.64-32.46,16-38.61-2.82-2.85-8.73-1-19.5,5.1-25.95,3-3.14,7.39-5.15,11.44-4.86C495.1,234.31,509.06,254.38,501,271.53Zm-57-117.34c13,1.14,42.92,2.48,45.9,21.27.68,4.32-2.3,8.33-6.39,7.17-7-2-13-7.59-19.94-10.35A173.61,173.61,0,0,1,442.16,162C438.92,160.17,440.37,153.87,444.05,154.19Zm-106.88,181c8.44,10.59-1.6,20.32-10.71,22.4-1.36.31-3,.65-4.78.95,1.6,5.6,1.82,12,2.2,17.65.08,1.24.16,2.49.23,3.76a61.89,61.89,0,0,0,4.71,12.72c2.75,5.25,9.17,12.34,15.13,8.2,2.85-2,4.08-6.56,6.1-9.48,1.39-2,4.68-1.77,6.12,0,5.22,6.4,2.5,15.1-3,20.28-6.23,5.84-14.78,6-21.92,2.28a27.72,27.72,0,0,1-8.55-7.05c-3.27,12.1-16.77,23.75-26.36,11.75-1.48-1.86-2.29-5.08-.84-7.3,1.68-2.56,3.27-3.07,6.07-2.76s4.19,2.65,7.28-.17c2.72-2.49,2.91-8.93,3.17-12.52a156.09,156.09,0,0,0-.44-23.29c-.35-4.42-1.25-8.86-1.31-13.24-3.72-.2-7.25-1-9.87-2.88a8.55,8.55,0,0,1-3.94.88,6.29,6.29,0,0,1-5.81-5C286.19,332.68,327.73,323.36,337.17,335.18ZM125.22,420.05c-4.29,3.45-10.65,2-14.12-2.15a13.65,13.65,0,0,1,.15-17.51,11.43,11.43,0,0,1,6.9-3.66c3.33-.51,6.17.88,8.66,3.29a7.88,7.88,0,0,1,2.16,5.34,8.42,8.42,0,0,1,.7,2.09,13.32,13.32,0,0,1,.27,3.62A12.19,12.19,0,0,1,125.22,420.05ZM112.84,207.4c4.73-5.7,11.12-13.85,18.43-14.39,2.84-.21,5.44,3.49,4.45,6.53-2.35,7.19-9.74,12-14.55,17.2-4.52,4.88-9.32,12.61-15.55,14.67-1.84.61-3.58-1.06-3.64-3.11C101.76,220.5,108.39,212.75,112.84,207.4Zm15.1,83.51c15.39,3.27,22.15,22.84,14.13,37.5-.29.54-.64,1-1,1.5-.21.34-.42.68-.64,1-.06.08-.11.17-.18.25-4.92,7.11-13.12,11.4-21.27,9.94-8.94-1.61-15.83-9.81-17.67-19.6C97.93,303.25,111.51,287.41,127.94,290.91Z"/><path class="cls-1" d="M361.78,142.23c.9,2.92,1.23,6.14,4.15,7,3.33,1,2.62-2.43,2.86-5.74.41-5.51.08-11.22.14-16.75.1-9.53-.71-20,1.23-29.42-3.42,0-6.84.09-10.26.18-3,.07-6.06.17-9.09.25,1.81,3.89,2.62,8.34,3.58,13.13C356.48,121.38,358.64,132.05,361.78,142.23Z"/><path class="cls-4" d="M119,341.11c8.15,1.46,16.35-2.83,21.27-9.94.07-.08.12-.17.18-.25.22-.33.43-.67.64-1,.32-.5.67-1,1-1.5,8-14.66,1.26-34.23-14.13-37.5-16.43-3.5-30,12.34-26.59,30.6C103.19,331.3,110.08,339.5,119,341.11Zm.42-32.14c2.89-2.29,7.09-2.42,9.76,1.32s1.17,9.4-2.09,11.67L127,322a5.07,5.07,0,0,1-3.8.83C116.2,321.58,116.12,314,119.44,309Z"/><path class="cls-4" d="M479,237.9c-4.05-.29-8.46,1.72-11.44,4.86-6.11,6.45-7.95,17.22-5.1,25.95,6.15,18.84,30.36,20.46,38.61,2.82C509.06,254.38,495.1,234.31,479,237.9Zm-.49,28.84a8.42,8.42,0,0,1-3.74-6.59c3.77-2.55,7.36-6.49,11.15-3.84C492.37,260.84,484.72,270.49,478.48,266.74Z"/><path class="cls-4" d="M296.44,357.36a8.55,8.55,0,0,0,3.94-.88c2.62,1.88,6.15,2.68,9.87,2.88.06,4.38,1,8.82,1.31,13.24a156.09,156.09,0,0,1,.44,23.29c-.26,3.59-.45,10-3.17,12.52-3.09,2.82-4.42.48-7.28.17s-4.39.2-6.07,2.76c-1.45,2.22-.64,5.44.84,7.3,9.59,12,23.09.35,26.36-11.75a27.72,27.72,0,0,0,8.55,7.05c7.14,3.72,15.69,3.56,21.92-2.28,5.52-5.18,8.24-13.88,3-20.28-1.44-1.77-4.73-2-6.12,0-2,2.92-3.25,7.5-6.1,9.48-6,4.14-12.38-2.95-15.13-8.2a61.89,61.89,0,0,1-4.71-12.72c-.07-1.27-.15-2.52-.23-3.76-.38-5.68-.6-12.05-2.2-17.65,1.78-.3,3.42-.64,4.78-.95,9.11-2.08,19.15-11.81,10.71-22.4-9.44-11.82-51-2.5-46.54,17.22A6.29,6.29,0,0,0,296.44,357.36Z"/><path class="cls-4" d="M499.91,351.94c-4.08.39-7,3.7-8,8.1-2,8.77,5.48,16.64,12.88,16.86s13.84-6.47,12.82-14.95-9.86-15.82-17.11-10.51A6.8,6.8,0,0,0,499.91,351.94Z"/><path class="cls-4" d="M129,405.36a7.88,7.88,0,0,0-2.16-5.34c-2.49-2.41-5.33-3.8-8.66-3.29a11.43,11.43,0,0,0-6.9,3.66,13.65,13.65,0,0,0-.15,17.51c3.47,4.17,9.83,5.6,14.12,2.15a12.19,12.19,0,0,0,4.72-9,13.32,13.32,0,0,0-.27-3.62A8.42,8.42,0,0,0,129,405.36Z"/><path class="cls-4" d="M105.62,231.41c6.23-2.06,11-9.79,15.55-14.67,4.81-5.2,12.2-10,14.55-17.2,1-3-1.61-6.74-4.45-6.53-7.31.54-13.7,8.69-18.43,14.39-4.45,5.35-11.08,13.1-10.86,20.9C102,230.35,103.78,232,105.62,231.41Z"/><path class="cls-4" d="M442.16,162a173.61,173.61,0,0,0,21.46,10.28c6.9,2.76,13,8.36,19.94,10.35,4.09,1.16,7.07-2.85,6.39-7.17-3-18.79-32.94-20.13-45.9-21.27C440.37,153.87,438.92,160.17,442.16,162Z"/><path class="cls-4" d="M77.25,562.74c18.89,16,42,24.76,65.29,28.39,28.31,4.42,56.84,2.07,85.23,0l88.5-6.63c54-4,109.64-7.35,160-31.64,42.47-20.47,79.34-56.14,95.27-105.78,17.81-55.52,10.27-119.13,3.37-176.18C567.4,208.61,554.55,147.18,533.27,89,524.88,66,516,37.58,495.82,24.21c-24-15.93-36.18,14.93-43.17,35.9a159.4,159.4,0,0,0-6.5,28.33c-12.29-4.82-26.24-6-39-7.17a362.2,362.2,0,0,0-43.83-1c-30.61,1-61.44,2.49-91.81,7a434.65,434.65,0,0,0-83.92,20.64c-13.87,5-27.62,10.49-41.13,16.62-9,4.08-19.76,8-28.41,14.25a290,290,0,0,0-12.2-33.45c-4.14-9.41-9.14-24.49-20-25.83-10.62-1.3-18,10.92-22.73,19.82-6.2,11.56-10,24.65-13.2,37.59C35.3,196.25,23.42,257.39,19.05,318.81c-4.27,60-.79,123.42,18.45,180.15C45.94,523.85,58.09,546.48,77.25,562.74ZM359.9,97.5c3.42-.09,6.84-.14,10.26-.18-1.94,9.41-1.13,19.89-1.23,29.42-.06,5.53.27,11.24-.14,16.75-.24,3.31.47,6.73-2.86,5.74-2.92-.86-3.25-4.08-4.15-7-3.14-10.18-5.3-20.85-7.39-31.35-1-4.79-1.77-9.24-3.58-13.13C353.84,97.67,356.87,97.57,359.9,97.5Zm-86.82,5.59c12.25-1.63,24.56-2.75,36.9-3.56,1.27,24.81,6.85,49.42,10.31,73.85,1.55,11,9.82,80.07-8.36,76.09-10.91-2.39-13.8-20.86-16.62-30.73q-6-21-11.48-42.25c-3.46-13.53-6.73-27.13-9.91-40.75-2.42-10.39-4.47-21.41-7.87-31.64C268.39,103.75,270.74,103.41,273.08,103.09Zm-46.4,8.73c.34,5.51,1.63,11.2,2.23,16.27,1,8.36,2.08,16.71,3,25.08,2,18.43,3.42,37.55-1,55.68-1.71,6.92-2.87,4.61-5.39-.73-2-4.32-2.89-10.17-4.18-14.85q-3.84-13.94-7.47-28c-3.9-15.09-6.28-32.21-11.77-47Q214.3,114.79,226.68,111.82ZM51,204.53c5.5-27.94,10.08-57.84,19.84-84.38a88.11,88.11,0,0,1,8.5-17.45C81,100.17,82.15,96.88,85,98c1.52.61,3.49,6.89,4.13,8.27a257.23,257.23,0,0,1,15.23,42.89c2.39,9,13.29,7.43,15.4.47,10.15-2.85,20.19-8.95,29.69-13,13.12-5.53,26.42-10.47,39.94-14.64l3.18-1c.87,9.77,3.49,19.58,5.56,28.9,2.93,13.22,6,26.4,9.36,39.49,3,11.86,8.6,49.52,27.52,38.48,6.66-3.88,8.61-14.47,10.07-22,2.25-11.52,2.48-23.42,1.84-35.15-.63-11.34-2.08-22.61-3.48-33.86-1-7.93-.92-19.23-3.14-28.24q8-1.68,16.11-3.09c.78,13.86,4.44,28.08,7.24,41.22,3.71,17.43,7.95,34.72,12.43,51.92,3.95,15.16,7.34,31.47,13.38,45.81,4.73,11.24,13.33,20.5,25.07,20.26s17.37-9.94,19.64-21.65c3.09-15.91,3.44-32.3,2.26-48.48-2.35-32.26-9.13-63.87-12.48-96,5.09-.24,10.18-.43,15.27-.61,4.09,14.27,4.89,29.95,8.67,44.45,2.72,10.43,7,23.17,18.43,23.81,10.73.6,15.61-11,16.29-21.23.57-8.58.33-17.36.42-26,.08-7.3.63-14.68-.62-21.84,7.14.11,14.27.39,21.39,1,14.57,1.15,28.65,5.53,43.08,6.91a2.44,2.44,0,0,0,.27,0c3.44,2.51,9.72.53,10.4-5.67a162.65,162.65,0,0,1,8.36-37.06,141.8,141.8,0,0,1,7.06-16.38c4.35-8.64,8.41-14.54,17.19-7.93,18.16,13.68,25.6,43.66,32.7,65.44,16.75,51.43,27.84,105.14,34.84,159.27,6.59,51,13.58,106.94,3.49,157.89-9.37,47.35-37.33,83.14-74.88,105.93-41.23,25-88.75,31.86-134.84,35.71-50.19,4.19-100.51,8-150.76,10.85-43.77,2.52-94.83.07-126.31-39.31-15.16-19-22.94-44.11-29-68.2a402.51,402.51,0,0,1-11.5-81.43C31.3,323.89,39.39,263.38,51,204.53Z"/></svg>