<svg id="Layer_1" data-name="Layer 1" xmlns="http://www.w3.org/2000/svg" viewBox="0 0 600 600"><defs><style>.cls-1{fill:#be1e2d;}.cls-2{fill:#fff;}.cls-3{fill:#231f20;}</style></defs><title>doodle</title><path class="cls-1" d="M577.78,265c-5.43-1.29-10.89-1.56-16.28-3.28-10.93-3.49-21-9.21-30.26-15.92-17.89-13-33.11-29.15-49.56-43.81a621.73,621.73,0,0,0-59.79-47C401.86,141.07,376,125.43,351,136c-18.92,8-27.15,29.08-44.15,39.59a4,4,0,0,1-6,1.3c-11.05-8-21.95-16.13-32.91-24.21-9.9-7.3-20-15.66-32.11-18.95-22.46-6.1-45.06,6.34-61.83,20.27-16.42,13.65-30.84,29.36-48.15,42A239.55,239.55,0,0,1,71.5,225.47a221.34,221.34,0,0,1-30.22,9.34c-5.79,1.34-20.66,3.57-23.44,10.46a3.47,3.47,0,0,1,.87,2.31c0,1.59.08,3.17.14,4.75a3.36,3.36,0,0,1,.14,3A254.76,254.76,0,0,0,81.43,409C153,490.68,271.34,524,375.54,494.46a274.31,274.31,0,0,0,127.55-78.72c37.38-41,56.83-92.33,78.55-142.45a3.79,3.79,0,0,1,1.3-1.61C583.06,268.2,582.15,266,577.78,265Zm-50.51,27.5c-7.25,39.37-36.76,69.87-65.73,95.31-14.65,12.85-29.4,21.59-48.6,25.77-20.18,4.4-40.86,7-61.41,8.95-21.28,2-42.65,3-64,3.48-19.78.4-40,1-59.43-3.57-19-4.52-36-15.34-52.34-25.63s-32.22-21.61-45.69-35.5c-13.28-13.69-24.17-29.46-34.4-45.48-8.56-13.39-22.23-29.55-18.77-46.51A2.88,2.88,0,0,1,80.05,265c31,6.26,63.42,7.45,94.92,10.36,114.13,10.53,230.64,20.31,345,7.76a4,4,0,0,1,4.63,4A4.86,4.86,0,0,1,527.27,292.46Z"/><path class="cls-2" d="M428.73,319.15c6,9.69,16.53,1.58,22.87-3.09,6.74-4.95,14.25-7.79,21.53-11.74a71.84,71.84,0,0,0,12.13-8.38c-20.76,1.4-41.57,2.08-62.38,2.2C423.85,305.35,425.06,313.22,428.73,319.15Z"/><path class="cls-2" d="M201.58,286.31c1.58,11.54,2.7,22.81,7.73,33.67,3.26,7,6.91,9.9,14.76,10.48,6.47.49,13,.64,19.46.87,13.88.5,27.83.87,41.72.62,3.66-.06,5.45.6,6.7-3.2.9-2.73.73-6.21.94-9.07.51-7,.63-14,.62-21a4.25,4.25,0,0,1,.67-2.37c.07-.81.16-1.61.26-2.41q-24-1.58-47.95-3.58Q224,288.45,201.58,286.31Z"/><path class="cls-2" d="M159.25,282.17c-12-1.21-24-2.41-36-3.69,5.1,4.06,10,8.36,15.39,12.07A258.69,258.69,0,0,0,162.09,305q6.6,3.6,13.41,6.79c3.26,1.53,10.54,6.31,13.58,4.58,3.39-1.94,2.76-10.59,3-14.14a160.72,160.72,0,0,0,.12-16.86Q175.72,283.84,159.25,282.17Z"/><path class="cls-2" d="M303.24,312.42c.7,6.58,1.2,15.78,5.08,21.48,4.07,6,14.72,4.8,21.06,5.15q11.3.63,22.61.63c14.42,0,31.25.9,45.22-3.1,16.42-4.71,10.49-25.62,15.27-38.1l.15-.32c-36.71-.05-73.41-1.46-110.06-3.74C302.73,300.42,302.59,306.42,303.24,312.42Z"/><path class="cls-3" d="M573.53,255A73.58,73.58,0,0,1,556,249.48c-22.88-10.45-40.63-29.28-58.88-46A642.22,642.22,0,0,0,431.87,151c-20.86-14.63-44.67-30-71.39-26.2-25.2,3.56-38.82,26.54-55.68,43.19-10.62-7.95-21.38-15.72-32.08-23.56-9.73-7.13-19.43-14.71-31-18.74-21.64-7.57-45.39.69-63.35,13.31-20.64,14.5-36.8,34.31-57.09,49.29a231.12,231.12,0,0,1-65.85,33.88c-6.57,2.12-13.21,4-19.93,5.57-5.78,1.36-11.81,2.47-16.91,5.7-6.9,4.37-11.08,13.48-7.13,20.92,2.28,106.19,74.37,197.85,171.17,237.8,103.89,42.87,227.93,23.54,310.9-53.12,43.91-40.56,70.66-95.2,92.1-150.28a3.79,3.79,0,0,0,1.59-1.4c4.58-7.23,8.56-21.78,1-28.57C584.36,255.29,578.36,255.87,573.53,255Zm8.11,18.27c-21.72,50.12-41.17,101.41-78.55,142.45a274.31,274.31,0,0,1-127.55,78.72C271.34,524,153,490.68,81.43,409A254.76,254.76,0,0,1,19,255.34a3.36,3.36,0,0,0-.14-3c-.06-1.58-.11-3.16-.14-4.75a3.47,3.47,0,0,0-.87-2.31c2.78-6.89,17.65-9.12,23.44-10.46a221.34,221.34,0,0,0,30.22-9.34A239.55,239.55,0,0,0,125.81,196c17.31-12.61,31.73-28.32,48.15-42,16.77-13.93,39.37-26.37,61.83-20.27,12.1,3.29,22.21,11.65,32.11,18.95,11,8.08,21.86,16.25,32.91,24.21a4,4,0,0,0,6-1.3C323.85,165.07,332.08,144,351,136c25-10.56,50.86,5.08,70.89,18.94a621.73,621.73,0,0,1,59.79,47c16.45,14.66,31.67,30.85,49.56,43.81,9.26,6.71,19.33,12.43,30.26,15.92,5.39,1.72,10.85,2,16.28,3.28,4.37,1,5.28,3.24,5.16,6.72A3.79,3.79,0,0,0,581.64,273.29Z"/><path class="cls-3" d="M524.6,287.11a4,4,0,0,0-4.63-4c-114.36,12.55-230.87,2.77-345-7.76-31.5-2.91-63.88-4.1-94.92-10.36a2.88,2.88,0,0,0-3.17,4.25c-3.46,17,10.21,33.12,18.77,46.51,10.23,16,21.12,31.79,34.4,45.48,13.47,13.89,29.35,25.23,45.69,35.5s33.3,21.11,52.34,25.63c19.39,4.6,39.65,4,59.43,3.57,21.37-.44,42.74-1.46,64-3.48,20.55-1.95,41.23-4.55,61.41-8.95,19.2-4.18,33.95-12.92,48.6-25.77,29-25.44,58.48-55.94,65.73-95.31A4.86,4.86,0,0,0,524.6,287.11ZM192.07,302.27c-.23,3.55.4,12.2-3,14.14-3,1.73-10.32-3.05-13.58-4.58q-6.81-3.19-13.41-6.79a258.69,258.69,0,0,1-23.41-14.49c-5.34-3.71-10.29-8-15.39-12.07,12,1.28,24,2.48,36,3.69q16.47,1.66,32.94,3.24A160.72,160.72,0,0,1,192.07,302.27Zm102.11-6a4.25,4.25,0,0,0-.67,2.37c0,7-.11,14-.62,21-.21,2.86,0,6.34-.94,9.07-1.25,3.8-3,3.14-6.7,3.2-13.89.25-27.84-.12-41.72-.62-6.48-.23-13-.38-19.46-.87-7.85-.58-11.5-3.46-14.76-10.48-5-10.86-6.15-22.13-7.73-33.67q22.44,2.12,44.91,4,24,2,47.95,3.58C294.34,294.69,294.25,295.49,294.18,296.3Zm118.3,2.18c-4.78,12.48,1.15,33.39-15.27,38.1-14,4-30.8,3.09-45.22,3.1q-11.31,0-22.61-.63c-6.34-.35-17,.82-21.06-5.15-3.88-5.7-4.38-14.9-5.08-21.48-.65-6-.51-12-.67-18,36.65,2.28,73.35,3.69,110.06,3.74Zm60.65,5.84c-7.28,3.95-14.79,6.79-21.53,11.74-6.34,4.67-16.86,12.78-22.87,3.09-3.67-5.93-4.88-13.8-5.85-21,20.81-.12,41.62-.8,62.38-2.2A71.84,71.84,0,0,1,473.13,304.32Z"/></svg>