<svg id="Layer_1" data-name="Layer 1" xmlns="http://www.w3.org/2000/svg" viewBox="0 0 600 600"><defs><style>.cls-1{fill:#00aeef;}.cls-2{fill:#f2b879;}.cls-3{fill:#e27683;}.cls-4{fill:#fff;}.cls-5{fill:#f7941e;}.cls-6{fill:#58595b;}.cls-7{fill:#231f20;}</style></defs><title>doodle</title><path class="cls-1" d="M438.73,324a73.9,73.9,0,0,1-38.85-9.54c-6.89,28.78-19.33,56.49-30,84Q352.51,443.17,335.2,488a3.35,3.35,0,0,1-1.25,1.6c-3.41,5-12.38,4.66-17.73,4.77-9.59.2-19.49-.95-28.48-4.41a51.88,51.88,0,0,1-20.51-13.72C263.53,472,259.1,466,260,460.06a2.24,2.24,0,0,1-.14-2.06c3.39-8.49,6.5-17.2,10.13-25.6a72,72,0,0,1,5.54-16.8,2.68,2.68,0,0,1-.05-.3c-12,2.29-25,2.9-35.36-1.89a45.52,45.52,0,0,1-10-6.47A300.84,300.84,0,0,0,244,457.36c12.27,32.93,29.48,63.76,47.35,93.93,4.12,7,8,14.3,13.24,20.53,3.94,4.72,14,14.87,20.63,9.67,5.24-4.13,4.1-13.81,4-19.63-.16-8.47-.61-17-.39-25.5a16.75,16.75,0,0,0-6.11,5.69c-1.47,2.34-5.64.83-4.63-1.95,2.44-6.7,8.46-10.09,14.94-12.21,9.37-3,19.42-4.79,29.13-6.37a200.6,200.6,0,0,1,30.05-2.79c9.88-.1,21.46.06,30.81,3.54,3.13,1.17,3,6.53-.85,6.24-2.72-.21-5.42-.53-8.11-.89,1.77,9.25,2.75,18.7,5.18,27.78,1.42,5.33,3.79,10.61,9,13.07,2.63,1.23,5.31,1.77,6.62-1,.95-2,.87-5.27,1.23-7.46,6.44-39.61,12-79.48,13.46-119.63a459.68,459.68,0,0,0-10.49-116.45Z"/><path class="cls-2" d="M386.66,188.3c-9.81,9.15-19,19.33-30.39,26,1.11,3.36,2.92,6.71,6.19,8.3,4,1.94,8.92,0,9.71-4.43.51-2.91,5.35-2.9,5.88,0,.84,4.7,3.11,9.06,7.62,11.14A10.14,10.14,0,0,0,398.91,225c1.8-3.19,6.14-.88,5.56,2.35-.91,5,4.57,6.27,7.89,5a11.29,11.29,0,0,0,5.42-4.91,2.85,2.85,0,0,1,1-1,189.49,189.49,0,0,0-12.69-31.77C399.88,198,390.15,194.46,386.66,188.3Z"/><path class="cls-3" d="M266.31,457.67a3.19,3.19,0,0,1,.09,2,2.05,2.05,0,0,1-.41.79c-.26,6,6.29,12.15,10.52,15.54A48.24,48.24,0,0,0,292,484.18c10.77,3.44,27.19,5.85,37.62.28,2-5.07,3.94-10.14,5.92-15.21-5.5,1.78-12.15-.52-17.58-1.6-7.48-1.49-15.11-2.75-22.33-5.3-9.22-3.27-19.15-10.08-23.08-19.46A132.49,132.49,0,0,1,266.31,457.67Z"/><path class="cls-4" d="M388.21,109.09c.49,2.14,3.57,1.28,4.76.29a3.67,3.67,0,0,0,1.26-2.09,3.65,3.65,0,0,0-1.55-.84,5,5,0,0,0-3.39.33,2,2,0,0,1-1.13,1.44,2.68,2.68,0,0,0,0,.41v0A2.5,2.5,0,0,0,388.21,109.09Z"/><path class="cls-4" d="M209.2,146c-.11.35-.26.83-.4,1.34a2.87,2.87,0,0,0,2.47.89c2.11-.27,2.25-2.86,1.38-4.39C211,140.91,209.8,144.1,209.2,146Z"/><path class="cls-5" d="M283,413.64c-1.24,4-2.95,7.84-4.23,11.82-.92,2.86-1.62,5.77-2.39,8.67,2.16,5.67,4.11,10.9,8.88,15.1a30,30,0,0,0,4.92,3.48c4.14-15.74,9-31.74,15.49-46.64a134.08,134.08,0,0,1-15.54,5.64C287.86,412.37,285.46,413,283,413.64Z"/><path class="cls-1" d="M248.25,409.45c14.22,3.18,31.29-.88,44.83-5.41a131.91,131.91,0,0,0,66.52-50.43c7.64-11.22,14.31-24.18,17.11-37.56,1.83-8.76-.18-16.5-10-18.35-8.76-1.66-18,.25-26.23,3.23-29.17,10.54-52.43,36-62.89,64.88-1.52,4.2-8.26,2.37-6.73-1.85a118.9,118.9,0,0,1,31.74-47.58,123.67,123.67,0,0,1,16.73-12.77c1.73-7.13,5.27-14.25,7.71-21.06,2.73-7.61,5.4-15.24,7.95-22.91,5-14.9,9.58-29.9,14.06-45a2.06,2.06,0,0,1,.62-2.74l.39-.3a3,3,0,0,1,1.75-1.36,275.09,275.09,0,0,0,21.72-18.55c7.3-7,14.63-14,23-19.72a3.2,3.2,0,0,1,4.33,1.13,182.58,182.58,0,0,1,24.48,52.8,3,3,0,0,1-2.17,3.8c-2.82,9-5.6,18-8.4,27a110.84,110.84,0,0,1,20.18,6.8c4.1,1.75.56,7.73-3.51,6-9.7-4.13-20.64-8.58-31.42-6.85-8.06,1.29-16.56,6.56-18.33,15-2.06,9.82,5.7,19.05,12.81,24.71a68.75,68.75,0,0,0,25.16,12.47c15.43,4.08,44.12,4.2,42.72-18.71-1.17-19.11-18.87-36.22-33.35-46.77a3.17,3.17,0,0,1-.68-.69,2.81,2.81,0,0,1-1.84-3.54c9.89-26.73,16.8-53.79,18.56-82.35a268.07,268.07,0,0,0-.67-41.74c-1.37-14.4-4.59-28.22-7.4-42.36A2.61,2.61,0,0,1,438,76c1.37-4.65,4-8.59,6-13a46.13,46.13,0,0,0,4.33-17.68c.4-10.25-2.47-22.24-10.65-29.13-7.45-6.28-22-6.49-31.18-4.32A17.26,17.26,0,0,0,394.5,21c-.63,1.24-5,13.43-3.79,14.17l.12.09A73.12,73.12,0,0,1,400,40.34c3.73,2.42.32,8.36-3.5,6C380,36.14,361.21,33.27,342.11,32.88a443.84,443.84,0,0,0-58.78,2.83c-19.46,2.23-38.92,6.19-57.2,13.33a154.52,154.52,0,0,0-25.32,12.63c-7.71,4.81-14.46,10.67-21.68,16.12-2.17,1.64-4.13-1.71-2.68-3.47a70.83,70.83,0,0,1,8.38-8.51,4.65,4.65,0,0,1-.34-.67c-3.74-9.38-7.21-17.63-14.69-24.8-3.58-3.43-8.09-7.16-12.93-8.62-5.67-1.7-11.13,1.43-14.94,5.47-7.33,7.78-9,19.17-7.49,29.39A80.2,80.2,0,0,0,139,82.92c1,2.68,1.93,5.71,3.48,8.14,1.26,2,3,3.33,4.62,5a2.09,2.09,0,0,1,.59,1.22,2.62,2.62,0,0,1,1,1.91c.4,5.67-.5,11.45-.42,17.16a152.74,152.74,0,0,0,1.23,17.09,219,219,0,0,0,7.19,33c5.92,20.37,12.67,41.89,22.84,60.59,9.67,17.79,25.26,29.9,42.33,40.16,18.31,11,36.62,19.21,57.66,23.3,2.47.48,1.79,4.24-.58,4.26-18.71.15-36.77-9.06-52.69-18a224.94,224.94,0,0,1-24.35-15.38c-1.31,19.93-3.84,39.51-2.31,59.58,1.43,18.87,5.88,37.77,14.71,54.61C221.31,388.86,232.55,405.93,248.25,409.45Zm168.81-276.7a9.28,9.28,0,0,1,1.81-.65,3.7,3.7,0,1,1,0,7.13,13.06,13.06,0,0,1-1.81-.66,3.26,3.26,0,0,1,0-5.82ZM383.37,104a10.73,10.73,0,0,1,2.65-3.54c.08-.09.15-.18.25-.28a8.38,8.38,0,0,1,6.35-2.36,8.76,8.76,0,0,1,7.64,7c4.57,7.87-4.79,16.76-12.58,12.49a10.55,10.55,0,0,1-3.2-2.64,7.6,7.6,0,0,1-2.28-4A7.81,7.81,0,0,1,383.37,104ZM199.93,194a3.35,3.35,0,1,1,1.2-4.58A3.42,3.42,0,0,1,199.93,194Zm20.16-48.06c-1.17,4.51-5,11.75-10.5,11.51a6.68,6.68,0,0,1-5.7-3.23c-3.48-2.07-4.93-7-3.6-11,1.74-5.27,7.49-12.1,13.64-10.14C219.35,134.75,221.43,140.79,220.09,145.9Zm48.67-11.1a2.22,2.22,0,0,1,4.28-1.18c3.16,8.29,9.69,27.13,21.76,19.65,10-6.18,6.56-19.35,7-28.89a2.5,2.5,0,0,1,4.89-.66c3.81,12.17,2.14,31.16-11.77,36.25C279,165.79,271.4,147.13,268.76,134.8Z"/><path class="cls-6" d="M403,188.79c-1.79-3.23-3.67-6.42-5.68-9.55-2.2,1.64-4.33,3.4-6.42,5.23a13.61,13.61,0,0,0,5.6,4.28A10.47,10.47,0,0,0,403,188.79Z"/><path class="cls-5" d="M407.5,238.86a11.07,11.07,0,0,1-7.84-5.73l-.16.11c-.95,4.07-3,8.17-4.11,12-1.19,4.05-2.18,8.13-3.1,12.24a36.4,36.4,0,0,1,16.39-1.79q2.81-8.79,5.59-17.56A11.77,11.77,0,0,1,407.5,238.86Z"/><path class="cls-5" d="M340.21,262.22c-2.73,8-5.48,16-8.32,23.94-1.46,4.07-2.75,8.5-4.32,12.77a81.4,81.4,0,0,1,20-7.23.78.78,0,0,1,.2-.16c2.48-1.52,3.77-8.61,4.69-11.39q1.6-4.86,3.2-9.71l5.7-17.26c2.62-7.94,4.92-16.2,7.74-24.17a12.94,12.94,0,0,1-5.3.3c-4.66-.71-8.11-3.63-10.53-7.35Q347.07,242.2,340.21,262.22Z"/><path class="cls-5" d="M309,404.58a1.1,1.1,0,0,1,0,.18c-5.17,16.52-11,32.78-16.05,49.34a52.26,52.26,0,0,0,7,2.65,155.68,155.68,0,0,0,15.85,3.54c1.18.23,2.54.57,4,.94,1.17-8.87,5.54-18.05,8.55-26.43q4.74-13.23,9.89-26.31,4.83-12.27,10-24.39c1.74-4.06,3.44-8.2,5.27-12.29A140.56,140.56,0,0,1,309,404.58Z"/><path class="cls-5" d="M377.74,295.16a15.22,15.22,0,0,1,2.46,2.49c0-.16,0-.33,0-.5-7.16-11-8.47-24.93,3.2-34.5a30.83,30.83,0,0,1,5.19-3.46,157.56,157.56,0,0,1,4-15.73c.77-2.5,1.47-5.3,2.44-8a16.23,16.23,0,0,1-9.25.31,18.29,18.29,0,0,1-11.43-9.59,8,8,0,0,1-.73.57c-.92,3.19-2.57,6.46-3.34,8.84q-3.35,10.26-6.7,20.52l-7.09,21.58c-1.27,3.86-2.08,9.23-4.22,13.15.6-.08,1.21-.18,1.82-.25C361.76,289.83,371.45,290.1,377.74,295.16Z"/><path class="cls-5" d="M360.82,363c-2.54,6.68-5.73,13.18-8.54,19.73q-5.88,13.71-11.37,27.6-5.32,13.59-10.23,27.34c-2.77,7.81-4.66,16.82-8.63,24.12,4.62,1.13,9.73,2.06,13.11.16a3.09,3.09,0,0,1,3.24-.06q12.72-32.6,25.4-65.21c11-28.35,21.88-56.53,30.64-85.66a64.53,64.53,0,0,1-7.53-6,41.77,41.77,0,0,1-3.78-4,1.47,1.47,0,0,1-.58.68,25.54,25.54,0,0,1,1.1,12.76c-2,14.94-10,30.09-18.39,42.39C363.84,359,362.35,361,360.82,363Z"/><path class="cls-7" d="M223,400a3.51,3.51,0,0,0-.55,2.49c5.67,39.58,21.82,77.05,40.45,112.11,9.4,17.68,19.27,35.29,30,52.22,6.19,9.81,21.16,29.24,35,20.92,6.24-3.75,7.66-12,7.85-18.63A295.57,295.57,0,0,0,334.59,534c2.25-.69,4.58-1.21,6.88-1.72,9.06-2,18.19-3.82,27.41-5a180,180,0,0,1,26.56-1.55,109.48,109.48,0,0,1,11.92,1c1.32,9.53,3,19.2,5.16,28.53,1.86,8,5.57,16,13.61,19.37a15.5,15.5,0,0,0,10.79.67c4.45-1.46,4.06-5.15,4.74-9.29,1.88-11.4,3.69-22.8,5.36-34.23,6.6-45.13,11.25-90.85,8.78-136.5-1.32-24.22-4.42-48.63-11-72,14.32-2.66,25.94-12.53,24.15-28.87-2.21-20.22-19.49-38.59-35.81-49.49,10.59-25.55,16.25-53.56,18-81.07,1.75-27.94.17-58.59-8.61-85.42l.07-.08c8.87-12.91,14-28,11.21-43.75C451.55,22,444,9.08,430.6,6.29c-11.35-2.38-27.85-2.9-36.76,5.88-2.43,2.39-8.16,13.53-8.66,20.77-12.44-4.67-26-6.44-39.23-6.9a412.35,412.35,0,0,0-63.71,3.1c-20.37,2.47-40.47,6.87-59.47,14.74-10.94,4.53-22.63,10.26-32.64,17.69-2.49-11.43-11.2-22.28-20.17-29.18-10.39-8-21.64-9.8-31.6.06C129.61,41.11,127,54.21,128.56,66c1,8,3.64,15.65,6.79,23.06,1.61,3.78,3.83,9.25,8.1,10.37-2.18,8-1.47,17.3-.89,25.43a185.57,185.57,0,0,0,3.9,26.33c4,18.39,10.26,36.22,16.83,53.82,5.81,15.55,12.36,30.91,23.82,43.21a101.36,101.36,0,0,0,10.06,9.38,4.56,4.56,0,0,0-.14.44A235.9,235.9,0,0,0,193.59,322c1.44,18.13,5.51,36,13.3,52.51C210.89,383,216.27,392.25,223,400Zm226.55,40.43c-1.46,40.15-7,80-13.46,119.63-.36,2.19-.28,5.48-1.23,7.46-1.31,2.76-4,2.22-6.62,1-5.24-2.46-7.61-7.74-9-13.07-2.43-9.08-3.41-18.53-5.18-27.78,2.69.36,5.39.68,8.11.89,3.81.29,4-5.07.85-6.24-9.35-3.48-20.93-3.64-30.81-3.54a200.6,200.6,0,0,0-30.05,2.79c-9.71,1.58-19.76,3.32-29.13,6.37-6.48,2.12-12.5,5.51-14.94,12.21-1,2.78,3.16,4.29,4.63,1.95a16.75,16.75,0,0,1,6.11-5.69c-.22,8.48.23,17,.39,25.5.11,5.82,1.25,15.5-4,19.63-6.59,5.2-16.69-5-20.63-9.67-5.21-6.23-9.12-13.57-13.24-20.53-17.87-30.17-35.08-61-47.35-93.93a300.84,300.84,0,0,1-13.89-50.42,45.52,45.52,0,0,0,10,6.47c10.36,4.79,23.34,4.18,35.36,1.89a2.68,2.68,0,0,0,.05.3A72,72,0,0,0,270,432.4c-3.63,8.4-6.74,17.11-10.13,25.6a2.24,2.24,0,0,0,.14,2.06c-.92,5.89,3.51,11.95,7.21,16.17A51.88,51.88,0,0,0,287.74,490c9,3.46,18.89,4.61,28.48,4.41,5.35-.11,14.32.26,17.73-4.77a3.35,3.35,0,0,0,1.25-1.6q17.3-44.83,34.69-89.61c10.66-27.47,23.1-55.18,30-84A73.9,73.9,0,0,0,438.73,324l.35,0A459.68,459.68,0,0,1,449.57,440.39ZM406.13,194.66a189.49,189.49,0,0,1,12.69,31.77,2.85,2.85,0,0,0-1,1,11.29,11.29,0,0,1-5.42,4.91c-3.32,1.27-8.8,0-7.89-5,.58-3.23-3.76-5.54-5.56-2.35a10.14,10.14,0,0,1-13.24,4.32c-4.51-2.08-6.78-6.44-7.62-11.14-.53-2.9-5.37-2.91-5.88,0-.79,4.48-5.72,6.37-9.71,4.43-3.27-1.59-5.08-4.94-6.19-8.3,11.39-6.65,20.58-16.83,30.39-26C390.15,194.46,399.88,198,406.13,194.66ZM390.9,184.47c2.09-1.83,4.22-3.59,6.42-5.23,2,3.13,3.89,6.32,5.68,9.55a10.47,10.47,0,0,1-6.5,0A13.61,13.61,0,0,1,390.9,184.47Zm23.37,53.71q-2.79,8.77-5.59,17.56a36.4,36.4,0,0,0-16.39,1.79c.92-4.11,1.91-8.19,3.1-12.24,1.14-3.88,3.16-8,4.11-12l.16-.11a11.07,11.07,0,0,0,7.84,5.73A11.77,11.77,0,0,0,414.27,238.18Zm-50.49-8.87a12.94,12.94,0,0,0,5.3-.3c-2.82,8-5.12,16.23-7.74,24.17l-5.7,17.26q-1.59,4.85-3.2,9.71c-.92,2.78-2.21,9.87-4.69,11.39a.78.78,0,0,0-.2.16,81.4,81.4,0,0,0-20,7.23c1.57-4.27,2.86-8.7,4.32-12.77,2.84-8,5.59-16,8.32-23.94q6.82-20,13-40.26C355.67,225.68,359.12,228.6,363.78,229.31Zm-7.26,48.43,7.09-21.58q3.36-10.26,6.7-20.52c.77-2.38,2.42-5.65,3.34-8.84a8,8,0,0,0,.73-.57,18.29,18.29,0,0,0,11.43,9.59,16.23,16.23,0,0,0,9.25-.31c-1,2.65-1.67,5.45-2.44,8a157.56,157.56,0,0,0-4,15.73,30.83,30.83,0,0,0-5.19,3.46c-11.67,9.57-10.36,23.49-3.2,34.5,0,.17,0,.34,0,.5a15.22,15.22,0,0,0-2.46-2.49c-6.29-5.06-16-5.33-23.62-4.52-.61.07-1.22.17-1.82.25C354.44,287,355.25,281.6,356.52,277.74Zm27.13,36.79a25.54,25.54,0,0,0-1.1-12.76,1.47,1.47,0,0,0,.58-.68,41.77,41.77,0,0,0,3.78,4,64.53,64.53,0,0,0,7.53,6c-8.76,29.13-19.62,57.31-30.64,85.66q-12.68,32.61-25.4,65.21a3.09,3.09,0,0,0-3.24.06c-3.38,1.9-8.49,1-13.11-.16,4-7.3,5.86-16.31,8.63-24.12q4.9-13.74,10.23-27.34,5.46-13.89,11.37-27.6c2.81-6.55,6-13.05,8.54-19.73,1.53-2,3-4,4.44-6.1C373.66,344.62,381.6,329.47,383.65,314.53ZM348.21,384.1q-5.19,12.12-10,24.39Q333,421.57,328.3,434.8c-3,8.38-7.38,17.56-8.55,26.43-1.44-.37-2.8-.71-4-.94a155.68,155.68,0,0,1-15.85-3.54,52.26,52.26,0,0,1-7-2.65c5.06-16.56,10.88-32.82,16.05-49.34a1.1,1.1,0,0,0,0-.18,140.56,140.56,0,0,0,44.52-32.77C351.65,375.9,350,380,348.21,384.1Zm-58,68.61a30,30,0,0,1-4.92-3.48c-4.77-4.2-6.72-9.43-8.88-15.1.77-2.9,1.47-5.81,2.39-8.67,1.28-4,3-7.83,4.23-11.82,2.46-.62,4.86-1.27,7.13-1.93a134.08,134.08,0,0,0,15.54-5.64C299.21,421,294.32,437,290.18,452.71Zm5.45,9.64c7.22,2.55,14.85,3.81,22.33,5.3,5.43,1.08,12.08,3.38,17.58,1.6-2,5.07-3.94,10.14-5.92,15.21-10.43,5.57-26.85,3.16-37.62-.28A48.24,48.24,0,0,1,276.51,476c-4.23-3.39-10.78-9.52-10.52-15.54a2.05,2.05,0,0,0,.41-.79,3.19,3.19,0,0,0-.09-2,132.49,132.49,0,0,0,6.24-14.78C276.48,452.27,286.41,459.08,295.63,462.35Zm-93.71-201a224.94,224.94,0,0,0,24.35,15.38c15.92,8.95,34,18.16,52.69,18,2.37,0,3.05-3.78.58-4.26-21-4.09-39.35-12.3-57.66-23.3-17.07-10.26-32.66-22.37-42.33-40.16-10.17-18.7-16.92-40.22-22.84-60.59a219,219,0,0,1-7.19-33,152.74,152.74,0,0,1-1.23-17.09c-.08-5.71.82-11.49.42-17.16a2.62,2.62,0,0,0-1-1.91,2.09,2.09,0,0,0-.59-1.22c-1.62-1.66-3.36-3-4.62-5C141,88.63,140,85.6,139,82.92a80.2,80.2,0,0,1-4.59-16.34c-1.52-10.22.16-21.61,7.49-29.39,3.81-4,9.27-7.17,14.94-5.47,4.84,1.46,9.35,5.19,12.93,8.62,7.48,7.17,10.95,15.42,14.69,24.8a4.65,4.65,0,0,0,.34.67,70.83,70.83,0,0,0-8.38,8.51c-1.45,1.76.51,5.11,2.68,3.47,7.22-5.45,14-11.31,21.68-16.12A154.52,154.52,0,0,1,226.13,49c18.28-7.14,37.74-11.1,57.2-13.33a443.84,443.84,0,0,1,58.78-2.83c19.1.39,37.89,3.26,54.38,13.45,3.82,2.37,7.23-3.57,3.5-6a73.12,73.12,0,0,0-9.16-5.05l-.12-.09c-1.23-.74,3.16-12.93,3.79-14.17a17.26,17.26,0,0,1,12.07-9.15c9.22-2.17,23.73-2,31.18,4.32,8.18,6.89,11.05,18.88,10.65,29.13A46.13,46.13,0,0,1,444.07,63c-2.05,4.37-4.66,8.31-6,13a2.61,2.61,0,0,0-1,2.74c2.81,14.14,6,28,7.4,42.36a268.07,268.07,0,0,1,.67,41.74c-1.76,28.56-8.67,55.62-18.56,82.35a2.81,2.81,0,0,0,1.84,3.54,3.17,3.17,0,0,0,.68.69c14.48,10.55,32.18,27.66,33.35,46.77,1.4,22.91-27.29,22.79-42.72,18.71a68.75,68.75,0,0,1-25.16-12.47c-7.11-5.66-14.87-14.89-12.81-24.71,1.77-8.47,10.27-13.74,18.33-15,10.78-1.73,21.72,2.72,31.42,6.85,4.07,1.73,7.61-4.25,3.51-6a110.84,110.84,0,0,0-20.18-6.8c2.8-9,5.58-18,8.4-27a3,3,0,0,0,2.17-3.8,182.58,182.58,0,0,0-24.48-52.8,3.2,3.2,0,0,0-4.33-1.13c-8.36,5.76-15.69,12.69-23,19.72a275.09,275.09,0,0,1-21.72,18.55,3,3,0,0,0-1.75,1.36l-.39.3a2.06,2.06,0,0,0-.62,2.74c-4.48,15.06-9.1,30.06-14.06,45-2.55,7.67-5.22,15.3-7.95,22.91-2.44,6.81-6,13.93-7.71,21.06a123.67,123.67,0,0,0-16.73,12.77A118.9,118.9,0,0,0,270.9,364c-1.53,4.22,5.21,6.05,6.73,1.85,10.46-28.84,33.72-54.34,62.89-64.88,8.26-3,17.47-4.89,26.23-3.23,9.78,1.85,11.79,9.59,10,18.35-2.8,13.38-9.47,26.34-17.11,37.56A131.91,131.91,0,0,1,293.08,404c-13.54,4.53-30.61,8.59-44.83,5.41-15.7-3.52-26.94-20.59-33.93-33.92-8.83-16.84-13.28-35.74-14.71-54.61C198.08,300.85,200.61,281.27,201.92,261.34Z"/><path class="cls-7" d="M213.93,133c-6.15-2-11.9,4.87-13.64,10.14-1.33,4.07.12,9,3.6,11a6.68,6.68,0,0,0,5.7,3.23c5.46.24,9.33-7,10.5-11.51C221.43,140.79,219.35,134.75,213.93,133Zm-2.66,15.22a2.87,2.87,0,0,1-2.47-.89c.14-.51.29-1,.4-1.34.6-1.91,1.79-5.1,3.45-2.16C213.52,145.38,213.38,148,211.27,148.24Z"/><path class="cls-7" d="M294.94,160c13.91-5.09,15.58-24.08,11.77-36.25a2.5,2.5,0,0,0-4.89.66c-.46,9.54,3,22.71-7,28.89-12.07,7.48-18.6-11.36-21.76-19.65a2.22,2.22,0,0,0-4.28,1.18C271.4,147.13,279,165.79,294.94,160Z"/><path class="cls-7" d="M384.48,114.69a10.55,10.55,0,0,0,3.2,2.64c7.79,4.27,17.15-4.62,12.58-12.49a8.76,8.76,0,0,0-7.64-7,8.38,8.38,0,0,0-6.35,2.36c-.1.1-.17.19-.25.28a10.73,10.73,0,0,0-2.65,3.54,7.81,7.81,0,0,0-1.17,6.64A7.6,7.6,0,0,0,384.48,114.69Zm3.68-6.47a2,2,0,0,0,1.13-1.44,5,5,0,0,1,3.39-.33,3.65,3.65,0,0,1,1.55.84,3.67,3.67,0,0,1-1.26,2.09c-1.19,1-4.27,1.85-4.76-.29a2.5,2.5,0,0,1-.07-.44v0A2.68,2.68,0,0,1,388.16,108.22Z"/><path class="cls-7" d="M417.06,138.57a13.06,13.06,0,0,0,1.81.66,3.7,3.7,0,1,0,0-7.13,9.28,9.28,0,0,0-1.81.65,3.26,3.26,0,0,0,0,5.82Z"/><path class="cls-7" d="M196.63,188.13a3.35,3.35,0,1,0,3.3,5.83,3.42,3.42,0,0,0,1.2-4.58A3.35,3.35,0,0,0,196.63,188.13Z"/></svg>