<svg id="Layer_1" data-name="Layer 1" xmlns="http://www.w3.org/2000/svg" viewBox="0 0 600 600"><defs><style>.cls-1{fill:#be1e2d;}.cls-2{fill:#fff;}.cls-3{fill:#8dc63f;}.cls-4{fill:#88e0ff;}.cls-5{fill:#231f20;}</style></defs><title>doodle</title><path class="cls-1" d="M431.54,101.52c-1.52-1.44-3.08-2.78-4.67-4.06-1.69,5-4.52,9.84-6.87,14.39q-5,9.74-10.85,19c-3.88,6.19-8,12.28-12.37,18.11-1.63,2.16-3.3,4.71-5.22,7,3.93,1.4,7.9,2.72,11.92,3.86,3.64,1,8.58,3,12.39,2,6-1.72,9.07-9.75,11.49-14.9a179.77,179.77,0,0,0,9.82-26.09c1.22-4.19,2.8-8.53.47-12.61C436.24,105.73,433.57,103.45,431.54,101.52Z"/><path class="cls-2" d="M351.58,208.82c2.39,1.08,3.55.09,3.69-2.41.1-1.66-.46-3.36-2.19-3.83s-3.23.85-4.92,1.11A5.62,5.62,0,0,0,351.58,208.82Z"/><path class="cls-2" d="M209.2,216.89c-1-.58-2.53.39-3.39,1a2.66,2.66,0,0,0-1,2.35c.3,1.84,2.48,2.26,3.84,1.38S211,218,209.2,216.89Z"/><path class="cls-3" d="M258,106.81c-1.19,3.66-2.22,7.48-3.53,11.15l5.47,1.15,14.92,3.13c1.28-3.4,2.94-6.7,4.37-9.95,2.64-6,5.21-12,7.84-18,5.44-12.43,10.85-24.87,16.12-37.37-5.14-.87-10.29-1.63-15.45-2.2-3.34-.37-6.73-.67-10.12-.86-.5,5.45-4.06,11.11-6,15.93q-3.65,8.86-7,17.87Q261.1,97.18,258,106.81Z"/><path class="cls-1" d="M245.48,116c1.21.27,2.43.52,3.64.78,1-4.61,2.51-9.17,3.85-13.6q2.94-9.68,6.24-19.22,3.5-10.05,7.38-19.94c1.36-3.46,2.49-7.25,4.47-10.39a95.58,95.58,0,0,0-9.73.41c-8.47.82-13.27,4.1-16.6,12-5.86,13.86-8.64,28.47-9.65,43.35a3.58,3.58,0,0,1,.94,1.28C237.74,114.55,241.72,115.19,245.48,116Z"/><path class="cls-1" d="M288.33,248.45a24.65,24.65,0,0,0-10.81,4.91c.12.34.22.69.35,1,2.52,6.83,8.62,17.2,17.29,16.5,7.53-.61,7.38-15.39,7.44-22.34a22.19,22.19,0,0,0-6.75-1.22A39.81,39.81,0,0,0,288.33,248.45Z"/><path class="cls-4" d="M330.74,542.58c2.16,8.2-.07,15.91-.43,24.15-.22,5.08,1.58,15.34,9,13.5,6.78-1.68,11.16-12.06,14.26-17.41q6.52-11.22,12.61-22.68c28.45-53.63,49.64-111.92,54.58-172.77,2.68-32.95.66-66.25-.66-99.22-.67-16.76-1.55-33.5-2.91-50.22-1.26-15.35-3.84-30.75-4.5-46.14-8.29-.27-17.2-4.1-24.73-6.87-18.83-6.93-37.2-14.43-56.57-19.81s-38.88-9.55-58.47-13.66c-9.63-2-19.3-3.9-28.88-6.13-5.12-1.19-9.82-2.88-13.09-6.44a3.21,3.21,0,0,1-2.61-1.84c-12.66,6.41-22.59,15.55-31,27.21-9.82,13.61-18.59,28.68-24.12,44.56-10.58,30.35-10.5,62.87-9,94.58.42,8.74.95,17.46,1.38,26.2.29,5.84,1.4,12.8-1.62,18.17-6.13,10.94-21.69,6.71-30.5,2.14-13.07-6.79-21.76-19.06-31.55-29.62-2.16-2.33-8.42-10.69-11.58-5.46-1.51,2.5.06,8.73.5,11.26a95.13,95.13,0,0,0,6.89,21.65c5.77,13.14,12.07,26.92,25.78,33.28,13.19,6.12,29.37,6,43.56,4.86a2.58,2.58,0,0,1,2,.7,3.5,3.5,0,0,1,1.72,2.17c3.1,10.63,3.7,22.28,5.52,33.21,1.85,11.09,3.95,22.14,6.2,33.16q6.56,32,15.57,63.49c6,20.94,12.79,41.68,20.48,62.07,2,5.26,3.83,10.69,6.24,15.78A22.71,22.71,0,0,0,229,583c2.93,2.9,4.47.37,5-2.63,1.87-10.11-.65-20.66,0-30.85a4.83,4.83,0,0,1,3.58-7.1,519,519,0,0,1,88.74-3.16A4.7,4.7,0,0,1,330.74,542.58ZM172.87,293.08a.8.8,0,0,1-1.56.21c-2.47-6.65-2.63-14.34-2.95-21.37a109.68,109.68,0,0,1,.84-21.43c.11-.75,1.18-.49,1.23.16.52,7.08.59,14.19,1,21.27S173.33,286.08,172.87,293.08Zm40-63.86c-6.36,3.49-14.81-.06-16.09-7.38a9.26,9.26,0,0,1,3.22-8.78L200,213c2.64-6.24,11.54-6.9,16-2A11.88,11.88,0,0,1,212.85,229.22Zm195.76,55.93a.9.9,0,0,1-1.76-.23c-.26-3-.05-6-.17-9S406,270,406,267c0-.75,1.13-1.14,1.47-.4A27.69,27.69,0,0,1,408.61,285.15Zm-9.48-99.47c3.32,11.4,4.38,23.71,5.66,35.49,1.31,12.17,3.6,25.45,2.47,37.68-.12,1.29-2.14,1.78-2.42.33-2.24-11.62-1.92-24.07-3-35.87-1.19-12.44-3.45-25-3.76-37.48A.56.56,0,0,1,399.13,185.68Zm-54.47,10a11.84,11.84,0,0,1,6.61-3c9.93-.85,16.15,9.44,13,18.33-3.81,10.81-17.36,9.5-22.66.59C338.32,206.08,339.92,199,344.66,195.71ZM272.82,264.4c-5.68-10.22-7.11-22.35-9.1-33.68a4.37,4.37,0,0,1,.14-2.12,2.15,2.15,0,0,1,.89-2.45c11.4-7.37,27.35-9.14,40.52-11,2.92-.42,5.44,1.12,5.6,4.26.71,13.34,1.34,26.74-.3,40-1.1,9-3.41,19.35-14.2,20.38C286.12,280.75,277.47,272.77,272.82,264.4ZM303.89,346c-5.09-13.59-10.08-38.95,3.27-49.67,7.18-5.78,16.69-2.9,22.83,2.95,3.87,3.69,6.67,8.38,10.2,12.38a80,80,0,0,0,10.86,10.28,67.44,67.44,0,0,0,26.8,12.91c8.73,1.92,19.77,2.86,24.9-6,1.43-2.45,4.57-1.08,4.88,1.33,1,8.08-7.83,12.42-14.61,13.53-8.64,1.41-18.21-.56-26.33-3.55a79.09,79.09,0,0,1-21.93-12.43C337.49,322,332.34,315,326.35,308c-3.26-3.78-9.15-8.93-14.1-4.78-2.82,2.36-3.82,6.78-4.27,10.24-1.14,8.68.26,17.91,2.85,26.21,5.37,17.23,17.88,32.5,35.14,38.71a55.47,55.47,0,0,0,25.86,2.84c8.75-1.15,15.76-5.32,23.74-8.61,3.74-1.53,5.85,3.75,3.63,6.24-6.78,7.61-18.62,10.48-28.4,11.42a64,64,0,0,1-30.23-4.69C323.16,378.41,310.43,363.45,303.89,346Z"/><path class="cls-1" d="M355.62,142.74c3.48-7.84,17.43-31.6,19.29-34.92q5.58-10,11-20c1.39-2.55,2.64-5.35,4.07-8-8.21-2.45-16.49-5-24.81-7.45-4.36,11-9.86,21.62-14.68,32.32-2.84,6.33-5.79,12.61-8.76,18.89-2,4.23-3.83,8.81-6.29,12.89q3.25.92,6.49,1.87C346.56,139.67,351.1,141.17,355.62,142.74Z"/><path class="cls-1" d="M333.93,63.58c-7.56-1.92-15.14-3.68-22.75-5.17Q303,77.36,294.4,96.11c-2.88,6.24-5.92,12.41-8.94,18.58-1.41,2.87-2.75,6-4.32,8.87l5.61,1.19q9.27,2,18.53,4.08c3.65-11.87,9.43-23.19,14.58-34.45q4.15-9.12,8.33-18.24C330.05,72,331.69,67.58,333.93,63.58Z"/><path class="cls-3" d="M335.49,120.9c2.49-6,5-12.07,7.59-18.07C347.77,92,352,80.68,357.17,70,352.07,68.5,347,67,341.81,65.65c-1.58,5-4.53,9.84-6.73,14.51q-4,8.57-8.06,17.12c-5.18,11-10,22.46-16.46,32.78q9.75,2.3,19.41,4.88C331.32,130.12,333.61,125.46,335.49,120.9Z"/><path class="cls-3" d="M393.72,140.3q5.31-7.83,10.08-16c3.17-5.45,6.19-11,9-16.64,2.45-4.9,4.36-10.34,7.24-15a104.64,104.64,0,0,0-21.93-10.22c-.85,1.58-1.78,3.14-2.65,4.72q-3.63,6.69-7.32,13.34c-4.92,8.88-9.91,17.71-15.09,26.44-2.58,4.36-5.14,8.75-7.81,13.06-.85,1.38-1.83,3.34-3,5.15,7.53,2.74,15,5.61,22.55,8.4C388.12,149.43,390.89,144.48,393.72,140.3Z"/><path class="cls-1" d="M354.58,59.3C368.55,63,383,66.39,396.92,71a2.88,2.88,0,0,1,3.81,1.29q5.14,1.8,10.14,3.89A92.76,92.76,0,0,1,433.78,90c2.27,1.85,4.76,3.92,7.06,6.2,3-3.83,7.77-6.78,11.69-8.92,4.41-2.42,9.34-4.73,14.36-4.77,0-11.27,5.77-21.66,11.25-31.15A4.11,4.11,0,0,1,483.7,50a31.5,31.5,0,0,1,3.1-7.4c-6.22-4.5-11.78-9.38-18.86-12.76a102.63,102.63,0,0,0-25.08-7.71c-18.3-3.5-37.86-5.69-56.5-5.27s-36.95,5.31-54.45,11.81c-13.7,5.1-26.65,12-40.06,17.7,1.13.12,2.26.24,3.38.38C315.31,49.26,335.06,54.09,354.58,59.3Z"/><path class="cls-3" d="M487.5,60.27c-.32,1.29-.64,2.58-1,3.86-.81,3.28-4.78,3.5-6.67,1.37-5.46,12-9,26.81,3.95,34.38,3.67,2.15,1.69,7-2,7.39-3,.34-5.92.75-8.86,1.31-.76.14-2.37.27-3.77.53a42.39,42.39,0,0,0,4.59,4,44.48,44.48,0,0,0,7,4.83,42.25,42.25,0,0,0,17,5.29,4,4,0,0,1,1.06,7.82c-.51.18-1,.38-1.47.57,12.61,3.56,26.39,3.77,36.28-6.25,2.54-2.58,6.6-.44,6.94,2.5a81.63,81.63,0,0,0,10.27-21.46,4.63,4.63,0,0,1,4.33-3.29c3.15-.15,6.27,2.42,7.27,5.54a4.85,4.85,0,0,0,.54-1.74,25.28,25.28,0,0,0,.82-4,40.33,40.33,0,0,0,.29-8.07c-.66-11.67-6.43-24.16-16-31.21-3-2.21-1.94-6.57,1.86-6.89a28.59,28.59,0,0,0,9.27-2.32C545.59,42,525.94,42.55,508.55,46.64c-2.67.62-5.65-2.43-3.84-5q3.69-5.24,7.35-10.49c-11.88,4-20.43,13.84-25.9,25.31A3.33,3.33,0,0,1,487.5,60.27Zm42.22,60.43a2.47,2.47,0,0,1-4.09-2.38c1-5.18,3.31-9.67,3.53-15.08a28.67,28.67,0,0,0-4-16c-1.16-1.91,1.72-4.23,3.15-2.43C535.47,93.76,540.53,112.1,529.72,120.7Zm-11.06-61c14.63.23,37.74,5.82,34.47,25.38-.37,2.21-3.22,2-4.27.56-4-5.28-4.24-11.65-10.4-15.37s-13.4-5.8-20.23-7.39A1.63,1.63,0,0,1,518.66,59.7Zm-2.47,47.88c-7.69,5.06-22.89,7-27.53-3.53-.73-1.68.52-4.29,2.69-3.49,7.25,2.68,14.46,7,22.18,2.46C516.49,101.3,519,105.73,516.19,107.58ZM495,63.26a2,2,0,0,1,3.75,0c.59,1.57,1.2,3.11,1.82,4.67a14.18,14.18,0,0,0,2.52,4.12c1.82,2-.63,5.79-3.09,4C495.94,73.1,493,68.29,495,63.26Zm-6,25.09c7.15.84,15.1,3.25,21.11-2.38,1.94-1.82,4.8,1,2.93,2.93-6.2,6.36-19.3,11.17-25.49,2A1.7,1.7,0,0,1,489,88.35Z"/><path class="cls-5" d="M326.51,584.39c9.36,11.47,22.79,3.4,29.51-6.25,9.22-13.25,16.59-28.32,23.91-42.67q11.19-21.94,20.51-44.78c12.59-30.95,22.11-63.29,27.05-96.37,5.18-34.67,3.73-69.42,2.3-104.31-.85-20.77-1.77-41.54-3.28-62.27-1.36-18.75-2.09-38.61-6.87-56.94,5.17-1.87,9.16-6.16,12.11-10.92,4.7-7.55,8.07-16.23,11.16-24.54,3-8.08,7.8-18.52,5.57-27.29a21,21,0,0,0-3.53-7.14c3.52-2.2,6.76-5.15,10.4-7.09,3.89-2.06,8.19-3.14,12.16-4.92a27.77,27.77,0,0,0,5,11.32c-3.74.49-7.42,1.3-9.94,3.06-4.93,3.43-1.13,8.64,1.79,11.87A48.72,48.72,0,0,0,486,128.79l-.39.28c-3,2.24-2.39,6,1,7.45,12.63,5.32,27.34,7.9,39.85,3.17a70.63,70.63,0,0,0-2.59,9c-.67,3.11,2.93,7,6,4.63,12.13-9.11,20.82-22.13,26.55-36.13a5.44,5.44,0,0,0,.47.49,7.52,7.52,0,0,0,9,.69c6.41-3.89,7.2-13.71,7.23-20.41.06-13.81-5.59-26-15-35.33a37.39,37.39,0,0,0,9.19-4,3.79,3.79,0,0,0,.76-5.86c-13.34-15.4-33.82-17.35-52.79-14.33q3.76-5.33,7.57-10.63c1.5-2.08-.49-5.43-3-5.23a44.31,44.31,0,0,0-27.39,12.67c-9.88-12.63-29.19-18.87-44-22a273.5,273.5,0,0,0-59-5.83c-19.2.28-38.2,4.76-56.06,11.7-18.06,7-36.65,15.46-52.65,26.47a127.57,127.57,0,0,0-18.65.52c-7.84.83-15.61,2.88-20.45,9.59-5.61,7.78-8.29,18.78-10.4,28a129.48,129.48,0,0,0-3.29,24.4c-27,8.41-45,38.4-56.66,62.3-15.13,31-17.5,65.94-16.44,99.94.28,9.1.79,18.2,1.3,27.29q.36,6.56.71,13.1c.18,3.49,1.49,9.53-.38,12.74-4,6.87-17.32.3-22-2.51-7.06-4.27-12.85-10.14-18.44-16.15-5.92-6.37-21.45-27.78-31.3-15.57-3.78,4.69-2.81,11.57-2,17.07a97.37,97.37,0,0,0,6.92,23.23c6.28,14.91,13.71,30.61,28.94,38.06,13.94,6.82,29.86,7.48,45,5.19.15,8.75,2.1,17.77,3.45,26.31q2.38,15.1,5.32,30.12c4,20.35,8.88,40.53,14.46,60.49q8.24,29.46,18.62,58.26c3.42,9.48,6.91,19,10.73,28.28,2.57,6.29,6.75,15.43,14.5,16.37,7.28.88,10.61-6.49,11.23-12.6.91-8.93,1.09-19.92-1.14-29.11q40.85-3.27,81.79-2.55C324.37,560.48,317.58,573.44,326.51,584.39ZM437.18,120.8a179.77,179.77,0,0,1-9.82,26.09c-2.42,5.15-5.45,13.18-11.49,14.9-3.81,1.07-8.75-.94-12.39-2-4-1.14-8-2.46-11.92-3.86,1.92-2.26,3.59-4.81,5.22-7,4.41-5.83,8.49-11.92,12.37-18.11s7.49-12.54,10.85-19c2.35-4.55,5.18-9.38,6.87-14.39,1.59,1.28,3.15,2.62,4.67,4.06,2,1.93,4.7,4.21,6.11,6.67C440,112.27,438.4,116.61,437.18,120.8ZM327,97.28q4-8.57,8.06-17.12c2.2-4.67,5.15-9.5,6.73-14.51C347,67,352.07,68.5,357.17,70c-5.16,10.69-9.4,22-14.09,32.84-2.6,6-5.1,12-7.59,18.07-1.88,4.56-4.17,9.22-5.52,14q-9.66-2.59-19.41-4.88C317,119.74,321.84,108.26,327,97.28Zm-21.74,31.55q-9.25-2.12-18.53-4.08l-5.61-1.19c1.57-2.92,2.91-6,4.32-8.87,3-6.17,6.06-12.34,8.94-18.58q8.64-18.73,16.78-37.7c7.61,1.49,15.19,3.25,22.75,5.17-2.24,4-3.88,8.46-5.74,12.56q-4.17,9.12-8.33,18.24C314.71,105.64,308.93,117,305.28,128.83Zm36.48-5.28c3-6.28,5.92-12.56,8.76-18.89,4.82-10.7,10.32-21.37,14.68-32.32,8.32,2.48,16.6,5,24.81,7.45-1.43,2.69-2.68,5.49-4.07,8q-5.46,10-11,20c-1.86,3.32-15.81,27.08-19.29,34.92-4.52-1.57-9.06-3.07-13.66-4.43q-3.24-1-6.49-1.87C337.93,132.36,339.76,127.78,341.76,123.55ZM365.25,140c2.67-4.31,5.23-8.7,7.81-13.06,5.18-8.73,10.17-17.56,15.09-26.44q3.69-6.65,7.32-13.34c.87-1.58,1.8-3.14,2.65-4.72a104.64,104.64,0,0,1,21.93,10.22c-2.88,4.7-4.79,10.14-7.24,15-2.82,5.64-5.84,11.19-9,16.64s-6.54,10.79-10.08,16c-2.83,4.18-5.6,9.13-8.89,13.2-7.53-2.79-15-5.66-22.55-8.4C363.42,143.29,364.4,141.33,365.25,140ZM512.06,31.16q-3.66,5.25-7.35,10.49c-1.81,2.56,1.17,5.61,3.84,5,17.39-4.09,37-4.6,50.72,7.73A28.59,28.59,0,0,1,550,56.69c-3.8.32-4.83,4.68-1.86,6.89,9.52,7,15.29,19.54,16,31.21a40.33,40.33,0,0,1-.29,8.07,25.28,25.28,0,0,1-.82,4,4.85,4.85,0,0,1-.54,1.74c-1-3.12-4.12-5.69-7.27-5.54a4.63,4.63,0,0,0-4.33,3.29,81.63,81.63,0,0,1-10.27,21.46c-.34-2.94-4.4-5.08-6.94-2.5-9.89,10-23.67,9.81-36.28,6.25.48-.19,1-.39,1.47-.57a4,4,0,0,0-1.06-7.82,42.25,42.25,0,0,1-17-5.29,44.48,44.48,0,0,1-7-4.83,42.39,42.39,0,0,1-4.59-4c1.4-.26,3-.39,3.77-.53,2.94-.56,5.89-1,8.86-1.31,3.7-.41,5.68-5.24,2-7.39-12.91-7.57-9.41-22.34-3.95-34.38,1.89,2.13,5.86,1.91,6.67-1.37.33-1.28.65-2.57,1-3.86a3.33,3.33,0,0,0-1.34-3.8C491.63,45,500.18,35.13,512.06,31.16ZM331.91,28.69c17.5-6.5,35.69-11.4,54.45-11.81s38.2,1.77,56.5,5.27a102.63,102.63,0,0,1,25.08,7.71c7.08,3.38,12.64,8.26,18.86,12.76a31.5,31.5,0,0,0-3.1,7.4,4.11,4.11,0,0,0-5.56,1.34c-5.48,9.49-11.24,19.88-11.25,31.15-5,0-9.95,2.35-14.36,4.77-3.92,2.14-8.71,5.09-11.69,8.92-2.3-2.28-4.79-4.35-7.06-6.2a92.76,92.76,0,0,0-22.91-13.84q-5-2.1-10.14-3.89A2.88,2.88,0,0,0,396.92,71C383,66.39,368.55,63,354.58,59.3c-19.52-5.21-39.27-10-59.35-12.53-1.12-.14-2.25-.26-3.38-.38C305.26,40.66,318.21,33.79,331.91,28.69ZM277.59,53.88c3.39.19,6.78.49,10.12.86,5.16.57,10.31,1.33,15.45,2.2-5.27,12.5-10.68,24.94-16.12,37.37-2.63,6-5.2,12-7.84,18-1.43,3.25-3.09,6.55-4.37,9.95l-14.92-3.13L254.44,118c1.31-3.67,2.34-7.49,3.53-11.15q3.12-9.63,6.62-19.13,3.32-9,7-17.87C273.53,65,277.09,59.33,277.59,53.88ZM244.73,66.06c3.33-7.88,8.13-11.16,16.6-12a95.58,95.58,0,0,1,9.73-.41c-2,3.14-3.11,6.93-4.47,10.39q-3.88,9.89-7.38,19.94-3.3,9.54-6.24,19.22c-1.34,4.43-2.88,9-3.85,13.6-1.21-.26-2.43-.51-3.64-.78-3.76-.85-7.74-1.49-9.46-5.35a3.58,3.58,0,0,0-.94-1.28C236.09,94.53,238.87,79.92,244.73,66.06Zm-7.14,476.32a4.83,4.83,0,0,0-3.58,7.1c-.61,10.19,1.91,20.74,0,30.85-.55,3-2.09,5.53-5,2.63a22.71,22.71,0,0,1-4.2-6.51c-2.41-5.09-4.26-10.52-6.24-15.78-7.69-20.39-14.47-41.13-20.48-62.07s-11.2-42.13-15.57-63.49c-2.25-11-4.35-22.07-6.2-33.16-1.82-10.93-2.42-22.58-5.52-33.21a3.5,3.5,0,0,0-1.72-2.17,2.58,2.58,0,0,0-2-.7c-14.19,1.16-30.37,1.26-43.56-4.86-13.71-6.36-20-20.14-25.78-33.28a95.13,95.13,0,0,1-6.89-21.65c-.44-2.53-2-8.76-.5-11.26,3.16-5.23,9.42,3.13,11.58,5.46,9.79,10.56,18.48,22.83,31.55,29.62,8.81,4.57,24.37,8.8,30.5-2.14,3-5.37,1.91-12.33,1.62-18.17-.43-8.74-1-17.46-1.38-26.2-1.5-31.71-1.58-64.23,9-94.58,5.53-15.88,14.3-30.95,24.12-44.56,8.41-11.66,18.34-20.8,31-27.21a3.21,3.21,0,0,0,2.61,1.84c3.27,3.56,8,5.25,13.09,6.44,9.58,2.23,19.25,4.11,28.88,6.13,19.59,4.11,39.18,8.29,58.47,13.66S369.1,158,387.93,164.92c7.53,2.77,16.44,6.6,24.73,6.87.66,15.39,3.24,30.79,4.5,46.14,1.36,16.72,2.24,33.46,2.91,50.22,1.32,33,3.34,66.27.66,99.22-4.94,60.85-26.13,119.14-54.58,172.77q-6.07,11.46-12.61,22.68c-3.1,5.35-7.48,15.73-14.26,17.41-7.39,1.84-9.19-8.42-9-13.5.36-8.24,2.59-16,.43-24.15a4.7,4.7,0,0,0-4.41-3.36A519,519,0,0,0,237.59,542.38Z"/><path class="cls-5" d="M200,213l-.06.05a9.26,9.26,0,0,0-3.22,8.78c1.28,7.32,9.73,10.87,16.09,7.38A11.88,11.88,0,0,0,216,211.05C211.58,206.11,202.68,206.77,200,213Zm8.58,8.57c-1.36.88-3.54.46-3.84-1.38a2.66,2.66,0,0,1,1-2.35c.86-.57,2.43-1.54,3.39-1C211,218,210,220.72,208.62,221.58Z"/><path class="cls-5" d="M310.57,259.4c1.64-13.29,1-26.69.3-40-.16-3.14-2.68-4.68-5.6-4.26-13.17,1.9-29.12,3.67-40.52,11a2.15,2.15,0,0,0-.89,2.45,4.37,4.37,0,0,0-.14,2.12c2,11.33,3.42,23.46,9.1,33.68,4.65,8.37,13.3,16.35,23.55,15.38C307.16,278.75,309.47,268.39,310.57,259.4Zm-15.41,11.49c-8.67.7-14.77-9.67-17.29-16.5-.13-.34-.23-.69-.35-1a24.65,24.65,0,0,1,10.81-4.91,39.81,39.81,0,0,1,7.52-1.12,22.19,22.19,0,0,1,6.75,1.22C302.54,255.5,302.69,270.28,295.16,270.89Z"/><path class="cls-5" d="M364.29,211.05c3.13-8.89-3.09-19.18-13-18.33a11.84,11.84,0,0,0-6.61,3c-4.74,3.26-6.34,10.37-3,15.93C346.93,220.55,360.48,221.86,364.29,211.05Zm-11.21-8.47c1.73.47,2.29,2.17,2.19,3.83-.14,2.5-1.3,3.49-3.69,2.41a5.62,5.62,0,0,1-3.42-5.13C349.85,203.43,351.32,202.11,353.08,202.58Z"/><path class="cls-5" d="M370.8,390.31c9.78-.94,21.62-3.81,28.4-11.42,2.22-2.49.11-7.77-3.63-6.24-8,3.29-15,7.46-23.74,8.61A55.47,55.47,0,0,1,346,378.42c-17.26-6.21-29.77-21.48-35.14-38.71-2.59-8.3-4-17.53-2.85-26.21.45-3.46,1.45-7.88,4.27-10.24,4.95-4.15,10.84,1,14.1,4.78,6,6.95,11.14,14,18.41,19.74a79.09,79.09,0,0,0,21.93,12.43c8.12,3,17.69,5,26.33,3.55,6.78-1.11,15.63-5.45,14.61-13.53-.31-2.41-3.45-3.78-4.88-1.33-5.13,8.81-16.17,7.87-24.9,6a67.44,67.44,0,0,1-26.8-12.91,80,80,0,0,1-10.86-10.28c-3.53-4-6.33-8.69-10.2-12.38-6.14-5.85-15.65-8.73-22.83-2.95-13.35,10.72-8.36,36.08-3.27,49.67,6.54,17.45,19.27,32.41,36.68,39.62A64,64,0,0,0,370.8,390.31Z"/><path class="cls-5" d="M518.23,62.88c6.83,1.59,14.2,3.75,20.23,7.39s6.43,10.09,10.4,15.37c1,1.4,3.9,1.65,4.27-.56,3.27-19.56-19.84-25.15-34.47-25.38A1.63,1.63,0,0,0,518.23,62.88Z"/><path class="cls-5" d="M525.19,87.19a28.67,28.67,0,0,1,4,16c-.22,5.41-2.56,9.9-3.53,15.08a2.47,2.47,0,0,0,4.09,2.38c10.81-8.6,5.75-26.94-1.38-35.94C526.91,83,524,85.28,525.19,87.19Z"/><path class="cls-5" d="M487.57,90.88c6.19,9.19,19.29,4.38,25.49-2,1.87-1.91-1-4.75-2.93-2.93-6,5.63-14,3.22-21.11,2.38A1.7,1.7,0,0,0,487.57,90.88Z"/><path class="cls-5" d="M500,76.05c2.46,1.79,4.91-2,3.09-4a14.18,14.18,0,0,1-2.52-4.12c-.62-1.56-1.23-3.1-1.82-4.67a2,2,0,0,0-3.75,0C493,68.29,495.94,73.1,500,76.05Z"/><path class="cls-5" d="M491.35,100.56c-2.17-.8-3.42,1.81-2.69,3.49,4.64,10.58,19.84,8.59,27.53,3.53,2.82-1.85.3-6.28-2.66-4.56C505.81,107.51,498.6,103.24,491.35,100.56Z"/><path class="cls-5" d="M404.84,259.18c.28,1.45,2.3,1,2.42-.33,1.13-12.23-1.16-25.51-2.47-37.68-1.28-11.78-2.34-24.09-5.66-35.49a.56.56,0,0,0-1.1.15c.31,12.49,2.57,25,3.76,37.48C402.92,235.11,402.6,247.56,404.84,259.18Z"/><path class="cls-5" d="M406,267c0,3,.6,5.94.72,8.93s-.09,6,.17,9a.9.9,0,0,0,1.76.23,27.69,27.69,0,0,0-1.18-18.58C407.09,265.83,406,266.22,406,267Z"/><path class="cls-5" d="M170.43,250.65c-.05-.65-1.12-.91-1.23-.16a109.68,109.68,0,0,0-.84,21.43c.32,7,.48,14.72,2.95,21.37a.8.8,0,0,0,1.56-.21c.46-7-1-14.16-1.41-21.16S171,257.73,170.43,250.65Z"/></svg>