<svg id="Layer_1" data-name="Layer 1" xmlns="http://www.w3.org/2000/svg" viewBox="0 0 600 600"><defs><style>.cls-1{fill:#a97c50;}.cls-2{fill:#fff;}.cls-3{fill:#754c29;}.cls-4{fill:#231f20;}</style></defs><title>doodle</title><path class="cls-1" d="M501.26,208.35c-10.71,2.22-24.16,2.18-33.43-4.18a71.3,71.3,0,0,1,.66,8.62c10.32,4,19.83,7.23,31.43,4.58a44.45,44.45,0,0,0,15.91-7.16c3.92-2.8,6.77-6.64,10.35-9.7,0-1.22,0-2.45,0-3.67l-.67.52A61.08,61.08,0,0,1,501.26,208.35Z"/><path class="cls-1" d="M256.46,581.85c2.86,3.9,12.28-3.91,14.28-5.74,25.59-23.42,41.59-56.07,47.65-89.95-12.21,1.94-24.46,4-36.75,5.64,5.11,16.18,0,35.52-6.13,50.53a284.82,284.82,0,0,1-12.9,26.54C261.4,571.13,255.26,580.22,256.46,581.85Z"/><path class="cls-2" d="M181,393.56c-2.19,1.5-1.89,3.52-.67,4.79a4.14,4.14,0,0,0,1.8.39C187.81,398.76,184.28,391.3,181,393.56Z"/><path class="cls-3" d="M320.1,478.51a4.16,4.16,0,0,1,4.69-.7q5-.78,10-1.69c5.91-1.11,11.06-3,14.79-7.93a41.5,41.5,0,0,0,2.65-4.05c-4.4-3.6-9.41-6.31-15-6.66-3.14-.2-3.19-4.86,0-4.92,6.74-.12,12.62,2.35,17.83,6,.78-1.75,1.49-3.53,2.14-5.28.78-2.08,1.45-4.18,2.06-6.31-5.82-1.87-11.77-2.73-17.92-3.86-2.87-.53-1.77-4.37.63-4.65a47.13,47.13,0,0,1,18.9,2.07,101.62,101.62,0,0,0,2.11-18.4c.46-20.22-4.44-40.89-15.06-58.19a80.64,80.64,0,0,0-9.68-12.72,4.23,4.23,0,0,1-3-3.06c-23.54-22.6-58.41-28-91.08-28.09-19.31-.08-42.49-.41-57.85,13.22-8.08,7.18-13,17.31-17.55,27a219.34,219.34,0,0,0-11.76,31.18c-3.54,12-5.7,24-4.61,35.64a63.1,63.1,0,0,1,17.61,1.44c3.2.76,2.33,5.43-.75,5.54-5.31.17-10.55,0-15.8,0a56.25,56.25,0,0,0,2.91,9.46,52.57,52.57,0,0,1,12.85-.9c3,.18,3.92,4.76.73,5.43-3.5.74-7,1.35-10.41,2,.28.49.55,1,.85,1.47a66.47,66.47,0,0,0,20.16,21,3.1,3.1,0,0,1,2.17.39c22.7,12.82,47.77,15.82,73.47,14,13.4-1,26.69-3.05,40-5C304.05,480.68,312.09,479.67,320.1,478.51Zm3.3-94.57a2.51,2.51,0,0,1,3.08,1.12,12.84,12.84,0,0,1,6,2.84,10.53,10.53,0,0,1,2.18,12.85,10,10,0,0,1-8.65,5.42,9.27,9.27,0,0,1-4.74-.86,9.66,9.66,0,0,1-6-8.57c0-.06,0-.12,0-.18A12.7,12.7,0,0,1,323.4,383.94ZM192.85,400.28c-3.86,9.82-19.84,8.29-20.95-2.52a1.72,1.72,0,0,1,0-.32c-1-5.6,1.87-12.08,8.25-13a3,3,0,0,1,2.17.51,11.61,11.61,0,0,1,6,1.46C193,389.18,194.8,395.32,192.85,400.28ZM267.6,442c-1.74,6.58-11.54,6.61-16.09,3.35a11.19,11.19,0,0,1-3.33-3.82,12.63,12.63,0,0,1-1.69,2.66c-4.47,5.22-15.83,2.67-13-5.27,1.17-3.21,6.07-2.81,6.1.83a2.83,2.83,0,0,0,2.9-2.83c.34-1.18.64-2.36.9-3.55.49-2.14.91-4.31,1.27-6.48.56-3.34.81-6.71,1.25-10.06a9.86,9.86,0,0,1-4.51-2.73,4.59,4.59,0,0,1-.74-1.28,3.25,3.25,0,0,1,.13-4.48c1.28-1.35,3.36-2,5.08-2.71a11.31,11.31,0,0,1,5.17-.85c3.6.34,6.63,2.92,6.76,6.68a6,6,0,0,1-5.46,6.2,63.87,63.87,0,0,1-1,10.4,3,3,0,0,1,2.12,4c-1.17,2.59-.24,6.58,2.3,8,3.08,1.7,5.56-.57,8.4-1.43A2.76,2.76,0,0,1,267.6,442Z"/><path class="cls-2" d="M326.14,398.48a.38.38,0,0,0,.1,0l.16-.05c2.41-1.13.54-6-2.34-4C321.68,396.07,324.06,398.89,326.14,398.48Z"/><path class="cls-1" d="M182.39,528.22c-5.08,9-10.37,17.82-15.59,26.71l-7.66,13c-1.16,2-6.81,8.72-1.37,10.29,1.67.48,4.76-1.74,6-2.56,28.88-18.65,51.13-49.51,63.51-81.32a108.56,108.56,0,0,1-33.66-8.11C196.45,500.5,189.2,516.2,182.39,528.22Z"/><path class="cls-1" d="M500.13,221.51c-9.92,1.94-22.7.92-31.65-5-.09,3.68-.38,7.39-.77,11.14-1.12,10.89-2.24,24.75,9.29,30.59,22.67,11.48,40.07-15,45.51-33.34a89.54,89.54,0,0,0,3.31-17.64C519.75,214.82,508.42,219.9,500.13,221.51Z"/><path class="cls-3" d="M350.32,283.56c-.48-2.37-1.42-4.75-2.12-7.12a60.89,60.89,0,0,1-13.91,32.81c-5.16,6.22-12.29,12.39-20.16,15.85,1.59.72,3.18,1.47,4.74,2.27a87.44,87.44,0,0,1,19.86,14,79,79,0,0,0,12.74-36.26A76.65,76.65,0,0,0,350.32,283.56Z"/><path class="cls-3" d="M192,321.26a69.13,69.13,0,0,1,14.86-5.41c-13.27-13.84-20.27-34.57-20.67-53.32,0-.28,0-.55,0-.79l-2.8,4.16a38,38,0,0,0-1.48,7c-.76,5.82-1.08,11.77-1.36,17.63-.58,12.11-.11,24.12,3.81,35.65A45.87,45.87,0,0,1,192,321.26Z"/><path class="cls-1" d="M344,346.76a96.53,96.53,0,0,1,17,26.66c.82,1.9,1.56,3.83,2.28,5.78,6-8.21,10.94-15.68,12.22-26.36,1.33-11.06.58-22.93-.82-33.94-1.36-10.72-4.12-21.41-9.43-30.88a61,61,0,0,0-8.86-12.11c.7,3.1,1.15,6.14,1.52,8.37a85.09,85.09,0,0,1,.71,23.58A82.35,82.35,0,0,1,344,346.76Z"/><path class="cls-3" d="M256.39,313.22c16.55.69,33.36,2.88,49,8.4,6.45-3.34,12.64-6.18,18.13-11.35a57.6,57.6,0,0,0,13-18.09c3.55-7.84,3.67-15.19,4.61-23.5.41-3.61,2.94-6.54,6.1-6.3a2.39,2.39,0,0,1,.75,0c.76-6.16,2-12.33,2.73-18.32,1.2-9.51,2.3-19,3.24-28.58,1.77-18,1.91-36.21,3.57-54.21-12.32,4.25-24.08,10.11-36.74,13.36-19,4.87-44.07,2.48-53.91-17.08a2.52,2.52,0,0,1,4.34-2.54c16.45,25,49.71,12.85,71.49,4,25.16-10.27,52.6-16.59,79.17-7.46,20.41,7,37,22.2,43.76,43a54.64,54.64,0,0,1,1.53,5.84c7.4,5,17,6.26,25.89,5.48a58.88,58.88,0,0,0,19.65-5.3c2-1,10.36-5,13.23-8.18a94.75,94.75,0,0,0-8.07-32c-18.51-41-66.58-62.48-109.82-50.79-44,11.89-84.65,59.54-133.83,39.63-4.67-1.89-2.62-9.54,2.1-7.63,28.46,11.5,57.13-3.16,81.88-17.2a3.94,3.94,0,0,1-.32-1.33,370.29,370.29,0,0,0-8.21-59.3q-3.26-14.61-7.7-28.92c-1.54-5-3.08-12-7-16.16.76,13.18,1,26.39.56,39.59-.38,11.71-1.59,23.82-8.8,33.51-1.1,1.47-3.47,2.72-5.23,1.37-22.94-17.71-52.62-12.21-78.3-4.52-1.79.53-4.26-.65-4.6-2.61A98.37,98.37,0,0,0,226.2,52a94.49,94.49,0,0,0-11.07-15c-2.22-2.45-6.6-7.88-10.71-10.36a541.8,541.8,0,0,1,16,59.42A542.43,542.43,0,0,1,232,202.7c-.42,37.23-3.53,76.15-16.27,111.46C229.23,312.17,243.4,312.67,256.39,313.22Z"/><path class="cls-1" d="M179,331a3.63,3.63,0,0,1-1.2-1.67c-5.26-14.59-5.07-30-3.88-45.25.06-.73.11-1.53.17-2.36a120.68,120.68,0,0,0-7,18.36c-4.34,14.86-8.34,35.1-1.1,49.66A79.72,79.72,0,0,1,179,331Z"/><path class="cls-4" d="M188.34,386.44a11.61,11.61,0,0,0-6-1.46,3,3,0,0,0-2.17-.51c-6.38.89-9.29,7.37-8.25,13a1.72,1.72,0,0,0,0,.32c1.11,10.81,17.09,12.34,20.95,2.52C194.8,395.32,193,389.18,188.34,386.44Zm-6.25,12.3a4.14,4.14,0,0,1-1.8-.39c-1.22-1.27-1.52-3.29.67-4.79C184.28,391.3,187.81,398.76,182.09,398.74Z"/><path class="cls-4" d="M315.26,396.74a9.66,9.66,0,0,0,6,8.57,9.27,9.27,0,0,0,4.74.86,10,10,0,0,0,8.65-5.42,10.53,10.53,0,0,0-2.18-12.85,12.84,12.84,0,0,0-6-2.84,2.51,2.51,0,0,0-3.08-1.12,12.7,12.7,0,0,0-8.15,12.62C315.26,396.62,315.25,396.68,315.26,396.74Zm8.8-2.35c2.88-2,4.75,2.88,2.34,4l-.16.05a.38.38,0,0,1-.1,0C324.06,398.89,321.68,396.07,324.06,394.39Z"/><path class="cls-4" d="M264.24,438.62c-2.84.86-5.32,3.13-8.4,1.43-2.54-1.4-3.47-5.39-2.3-8a3,3,0,0,0-2.12-4,63.87,63.87,0,0,0,1-10.4,6,6,0,0,0,5.46-6.2c-.13-3.76-3.16-6.34-6.76-6.68a11.31,11.31,0,0,0-5.17.85c-1.72.68-3.8,1.36-5.08,2.71a3.25,3.25,0,0,0-.13,4.48,4.59,4.59,0,0,0,.74,1.28,9.86,9.86,0,0,0,4.51,2.73c-.44,3.35-.69,6.72-1.25,10.06-.36,2.17-.78,4.34-1.27,6.48-.26,1.19-.56,2.37-.9,3.55a2.83,2.83,0,0,1-2.9,2.83c0-3.64-4.93-4-6.1-.83-2.88,7.94,8.48,10.49,13,5.27a12.63,12.63,0,0,0,1.69-2.66,11.19,11.19,0,0,0,3.33,3.82c4.55,3.26,14.35,3.23,16.09-3.35A2.76,2.76,0,0,0,264.24,438.62Z"/><path class="cls-4" d="M267.08,543.54c-3.85,8.71-8.43,17.09-12.92,25.49-2.6,4.85-8.86,12.44-3.91,17.63,4.12,4.32,11.41,3.44,16.28,1.2,7.17-3.31,12.87-9.66,18.08-15.41a168.23,168.23,0,0,0,41.62-87.51l2.51-.38c10.88-1.63,20.87-3.42,27.51-13,.5-.72,1-1.48,1.42-2.22,1.49,1.57,2.89,3.19,4.21,4.76,6.36,7.62,11,16.25,15.41,25.09,1.39,2.77,5.82.83,5-2.1-3.25-11.24-9.75-21.32-17.68-29.85-1.18-1.26-2.41-2.5-3.67-3.7a83.27,83.27,0,0,0,5.2-13.65c7.1,3.57,12.65,8.53,18.74,13.62,2.4,2,6.82-.66,4.69-3.62-4.93-6.86-12.91-12.77-21.73-16.67.27-1.23.52-2.46.74-3.68a116.07,116.07,0,0,0-2.84-52.84,2.79,2.79,0,0,0,.78-.41c20-15.4,18.33-46.12,15.4-68.33-1.58-12-4.77-23.81-10.94-34.28-3.78-6.4-9.49-14.14-16.44-18.44,1.43-6.66,2.12-13.6,3.07-20.18q2-14.15,3.51-28.37c2-18.89,4.49-38.62,3.91-57.69a102.26,102.26,0,0,1,37.22-3.78c26.12,2.51,50.16,18.92,56.88,45.1,3.3,12.85.07,25,0,37.95,0,10.34,3.41,20.51,12.62,26.1,19,11.56,40.29-1.7,50.3-18.53,11.43-19.2,14.2-43,10.38-64.76-8-45.82-46.92-78.86-92.88-82.27-27.32-2-51,8.51-74.18,21.54a382.21,382.21,0,0,0-9.85-65.06c-2.58-10.63-5.32-21.49-9.27-31.7-2.69-7-6.79-13.55-14.48-15.37-2.26-.54-5,1.1-4.83,3.67,1,13.91,1.4,27.84,1.11,41.78-.22,10.55-.44,21.52-5.63,30.79-23-15.56-51.87-11.5-77.33-4.13A104.08,104.08,0,0,0,229,42.84,105.67,105.67,0,0,0,215.11,26.5c-4.87-4.63-10-9.63-17.16-8.15a3.74,3.74,0,0,0-2.59,4.56c24.91,73.36,34.69,152.16,27.06,229.35A304.66,304.66,0,0,1,211,310.34c-7.59-10.21-13.52-20.82-16.27-33.62-1.37-6.35-.59-13-1.84-19.19a6.55,6.55,0,0,0-3.55-4.88,2.73,2.73,0,0,0-2-.42,6.24,6.24,0,0,0-2.7.65c-3.86,1.84-6.21,5.53-7.69,9.88-8.37,11.24-14,25.55-17.45,38.22-4.43,16.25-8.24,38.28.92,53.53a3.34,3.34,0,0,0,2.49,1.7c-3.09,6.8-5.67,13.76-8,20.28-6,16.63-10.71,34.09-9,51.2-12.1,1.52-24.2,5.45-34.5,9.93-2.31,1-.64,5,1.73,4.1a114.73,114.73,0,0,1,28.31-7.12c1.81-.22,3.61-.34,5.41-.42A62.69,62.69,0,0,0,150,445.06c-13.46,4-26.2,12.37-35.62,21.51-2.25,2.18,1.08,5.4,3.4,3.4a90.13,90.13,0,0,1,25.45-15.47,74.44,74.44,0,0,1,9.78-3A68.45,68.45,0,0,0,184,481.28c.77.46,1.55.89,2.33,1.33a48.55,48.55,0,0,1-1.62,24.2c-3,9.05-8.16,17.27-13,25.46s-9.84,16.67-14.73,25c-2.35,4-4.76,8-7.05,12-1.55,2.7-3.18,5.62-2.35,8.85,1.36,5.33,7.25,7.91,12.31,7,6.77-1.17,12.77-7,17.95-11.15A185.91,185.91,0,0,0,210,540.6a187.94,187.94,0,0,0,25-45.76c4.78.19,9.54.17,14.23,0,8.75-.36,17.48-1.17,26.21-2.23.74,8.17,1.35,16.05,0,24.34A111,111,0,0,1,267.08,543.54Zm90.81-259.26c-.37-2.23-.82-5.27-1.52-8.37A61,61,0,0,1,365.23,288c5.31,9.47,8.07,20.16,9.43,30.88,1.4,11,2.15,22.88.82,33.94-1.28,10.68-6.26,18.15-12.22,26.36-.72-1.95-1.46-3.88-2.28-5.78a96.53,96.53,0,0,0-17-26.66,82.35,82.35,0,0,0,14.61-38.9A85.09,85.09,0,0,0,357.89,284.28Zm-19.16,57.13a87.44,87.44,0,0,0-19.86-14c-1.56-.8-3.15-1.55-4.74-2.27,7.87-3.46,15-9.63,20.16-15.85a60.89,60.89,0,0,0,13.91-32.81c.7,2.37,1.64,4.75,2.12,7.12a76.65,76.65,0,0,1,1.15,21.59A79,79,0,0,1,338.73,341.41ZM522.51,224.94c-5.44,18.29-22.84,44.82-45.51,33.34-11.53-5.84-10.41-19.7-9.29-30.59.39-3.75.68-7.46.77-11.14,8.95,5.88,21.73,6.9,31.65,5,8.29-1.61,19.62-6.69,25.69-14.21A89.54,89.54,0,0,1,522.51,224.94Zm3.67-24.43c-3.58,3.06-6.43,6.9-10.35,9.7a44.45,44.45,0,0,1-15.91,7.16c-11.6,2.65-21.11-.6-31.43-4.58a71.3,71.3,0,0,0-.66-8.62c9.27,6.36,22.72,6.4,33.43,4.18a61.08,61.08,0,0,0,24.22-11l.67-.52C526.18,198.06,526.19,199.29,526.18,200.51ZM232,202.7A542.43,542.43,0,0,0,220.4,86.11a541.8,541.8,0,0,0-16-59.42c4.11,2.48,8.49,7.91,10.71,10.36A94.49,94.49,0,0,1,226.2,52a98.37,98.37,0,0,1,12.42,34c.34,2,2.81,3.14,4.6,2.61,25.68-7.69,55.36-13.19,78.3,4.52,1.76,1.35,4.13.1,5.23-1.37,7.21-9.69,8.42-21.8,8.8-33.51.43-13.2.2-26.41-.56-39.59,3.89,4.15,5.43,11.2,7,16.16q4.44,14.29,7.7,28.92a370.29,370.29,0,0,1,8.21,59.3,3.94,3.94,0,0,0,.32,1.33c-24.75,14-53.42,28.7-81.88,17.2-4.72-1.91-6.77,5.74-2.1,7.63C323.39,169.13,364,121.48,408,109.59c43.24-11.69,91.31,9.75,109.82,50.79a94.75,94.75,0,0,1,8.07,32c-2.87,3.23-11.2,7.23-13.23,8.18a58.88,58.88,0,0,1-19.65,5.3c-8.89.78-18.49-.48-25.89-5.48a54.64,54.64,0,0,0-1.53-5.84c-6.72-20.78-23.35-36-43.76-43-26.57-9.13-54-2.81-79.17,7.46-21.78,8.88-55,21-71.49-4a2.52,2.52,0,0,0-4.34,2.54c9.84,19.56,34.92,21.95,53.91,17.08,12.66-3.25,24.42-9.11,36.74-13.36-1.66,18-1.8,36.2-3.57,54.21-.94,9.54-2,19.07-3.24,28.58-.76,6-2,12.16-2.73,18.32a2.39,2.39,0,0,0-.75,0c-3.16-.24-5.69,2.69-6.1,6.3-.94,8.31-1.06,15.66-4.61,23.5a57.6,57.6,0,0,1-13,18.09c-5.49,5.17-11.68,8-18.13,11.35-15.67-5.52-32.48-7.71-49-8.4-13-.55-27.16-1.05-40.65.94C228.48,278.85,231.59,239.93,232,202.7Zm-51.45,87.79c.28-5.86.6-11.81,1.36-17.63a38,38,0,0,1,1.48-7l2.8-4.16c0,.24,0,.51,0,.79.4,18.75,7.4,39.48,20.67,53.32A69.13,69.13,0,0,0,192,321.26a45.87,45.87,0,0,0-7.61,4.88C180.45,314.61,180,302.6,180.56,290.49ZM167.09,300a120.68,120.68,0,0,1,7-18.36c-.06.83-.11,1.63-.17,2.36-1.19,15.26-1.38,30.66,3.88,45.25A3.63,3.63,0,0,0,179,331a79.72,79.72,0,0,0-13,18.74C158.75,335.14,162.75,314.9,167.09,300ZM163.8,575.68c-1.27.82-4.36,3-6,2.56-5.44-1.57.21-8.33,1.37-10.29l7.66-13c5.22-8.89,10.51-17.74,15.59-26.71,6.81-12,14.06-27.72,11.26-42a108.56,108.56,0,0,0,33.66,8.11C214.93,526.17,192.68,557,163.8,575.68Zm92.29-88.81c-25.7,1.86-50.77-1.14-73.47-14a3.1,3.1,0,0,0-2.17-.39,66.47,66.47,0,0,1-20.16-21c-.3-.49-.57-1-.85-1.47,3.44-.68,6.91-1.29,10.41-2,3.19-.67,2.25-5.25-.73-5.43a52.57,52.57,0,0,0-12.85.9,56.25,56.25,0,0,1-2.91-9.46c5.25,0,10.49.22,15.8,0,3.08-.11,4-4.78.75-5.54a63.1,63.1,0,0,0-17.61-1.44c-1.09-11.67,1.07-23.63,4.61-35.64a219.34,219.34,0,0,1,11.76-31.18c4.51-9.65,9.47-19.78,17.55-27,15.36-13.63,38.54-13.3,57.85-13.22,32.67.13,67.54,5.49,91.08,28.09a4.23,4.23,0,0,0,3,3.06A80.64,80.64,0,0,1,347.85,364c10.62,17.3,15.52,38,15.06,58.19a101.62,101.62,0,0,1-2.11,18.4,47.13,47.13,0,0,0-18.9-2.07c-2.4.28-3.5,4.12-.63,4.65,6.15,1.13,12.1,2,17.92,3.86-.61,2.13-1.28,4.23-2.06,6.31-.65,1.75-1.36,3.53-2.14,5.28-5.21-3.69-11.09-6.16-17.83-6-3.19.06-3.14,4.72,0,4.92,5.64.35,10.65,3.06,15,6.66a41.5,41.5,0,0,1-2.65,4.05c-3.73,4.95-8.88,6.82-14.79,7.93q-5,.92-10,1.69a4.16,4.16,0,0,0-4.69.7c-8,1.16-16.05,2.17-24,3.35C282.78,483.82,269.49,485.9,256.09,486.87Zm25.55,4.93c12.29-1.65,24.54-3.7,36.75-5.64-6.06,33.88-22.06,66.53-47.65,89.95-2,1.83-11.42,9.64-14.28,5.74-1.2-1.63,4.94-10.72,6.15-13a284.82,284.82,0,0,0,12.9-26.54C281.61,527.32,286.75,508,281.64,491.8Z"/></svg>