<svg id="Layer_1" data-name="Layer 1" xmlns="http://www.w3.org/2000/svg" viewBox="0 0 600 600"><defs><style>.cls-1{fill:#fff200;}.cls-2{fill:#fbb040;}.cls-3{fill:#754c29;}.cls-4{fill:#fff;}.cls-5{fill:#8dc63f;}.cls-6{fill:#231f20;}</style></defs><title>doodle</title><path class="cls-1" d="M567.64,388.79c-3.38-22.8-18.93-40.44-35.82-54.9-1,9.93-4.4,19.27-12.77,26-14.7,11.87-38.36,13.35-56.25,16.49-80.49,14.16-160.29,12.06-241.29,4.66-40.28-3.67-80.26-6.24-120.69-4.29-13.6.66-26.22-1.71-34.34-13.62-.37-.54-.71-1.1-1-1.65l-3.21-3.3c-9.33,5.51-19.26,9.44-26,19.2s-8.23,25,.64,34.11,24.33,3.92,35.58,5.79c12.62,2.11,19.79,10.27,26.55,20.44,13.29,20,36.37,28.55,57.84,14.82,10.74-6.87,19.66-15.61,32-19.69,10.84-3.57,22.51-3.7,33.73-2.24,27.24,3.55,52.25,18.71,79.83,19.63,14.48.48,27.9-4.22,39.49-12.84,8.7-6.48,16-15.07,26.53-18.77,12.27-4.32,25.55-1.07,38.08.24,12.17,1.26,24.39,2.24,36.63,2.28,13.07,0,26.11-.87,38.82-4.08,12.17-3.07,21.71-8.89,32.75-14.36,9.31-4.61,17.85-4,27.19.23,4.87,2.21,11.42,7.23,17.19,5.79C567.63,406.65,568.65,395.61,567.64,388.79Z"/><path class="cls-2" d="M488,432.22c-13.36,3.57-27.38,4.93-41.18,5-15.9.11-31.77-1.55-47.54-3.46-7.44-.9-16.09-3.12-23.51-1.21-6.36,1.64-11.33,6.54-16.1,10.72-23.84,20.89-49.95,27.44-80.92,19.86-29.46-7.22-63.85-27.64-93.63-11-12.59,7-22.22,18-36.71,21.54a56.73,56.73,0,0,1-33.74-2.28c-11.87-4.58-20.44-12.62-27.41-23.07C83,442,79.59,435,71.57,432.85a32.24,32.24,0,0,0-6.51-.93c6.22,19.89,13.5,40.23,23.87,58.22,9.31,16.15,23.95,27,41.13,33.75,32.27,12.71,69.36,14.54,103.59,16.48a654.42,654.42,0,0,0,117.67-3.54c38-4.74,79.17-12.23,114.29-28,34.42-15.49,40-56.23,50.64-88.9-3.39,2-6.67,4.25-9.65,5.61A117.17,117.17,0,0,1,488,432.22Z"/><path class="cls-3" d="M102.6,363.52a514.53,514.53,0,0,1,63.68-1.28c42.59,1.62,84.92,7.44,127.5,9.38a743.66,743.66,0,0,0,127-5.06c21.71-2.75,43.35-6.49,64.74-11.11,9.93-2.14,21.92-3.75,27.64-13.22,4.08-6.77,4.35-15.47,4.68-23.33-12.11-5.79-20.35-4.68-32.55,2.22-20.3,11.47-41.82,14.09-64.75,10.64a222,222,0,0,1-35.63-8.87c-13.65-4.44-27.5-9.75-42.1-7.35-22.52,3.71-41.33,19.48-62.28,27.63a108.7,108.7,0,0,1-70.29,2.68c-13.35-4.07-25.3-12.28-39-15.28-12.75-2.8-24.39.54-35.52,6.75-16.12,9-36.41,20.49-53.82,7.12-4.19-3.21-5.66-6.53-8.21-11a20.58,20.58,0,0,0-1.66-2.53c-.58,7.61-.63,15.35,2.61,22.27C80.34,365.25,91.18,364.52,102.6,363.52Z"/><path class="cls-2" d="M116.26,252.9c20.73-8.27,36.07-24.64,60.09-21.9,22.16,2.54,44,21.56,66.68,17.24,12.17-2.31,21.39-11.15,34.32-11.2,9,0,17.59,3.19,25.63,7,11.75,5.59,22.34,13,35.18,16A69.47,69.47,0,0,0,376.93,258c21-7.27,38.94-23.23,62.05-24.1,22.66-.85,39.95,18.86,62.06,17.72,17.23-.88,33.49-11.46,50.25-8.7-3.35-45.73-6.33-98.33-44.06-130.1C490.94,99.09,470,94.08,449.42,90.65,425.83,86.71,402,84,378.2,81.88c-46.45-4-95-7.28-141.48-1.71-43.47,5.2-86.1,26.19-119.51,54.23-15.85,13.3-29,29.44-36.59,48.83-7.51,19.15-9.42,39.26-13.17,59.24C83.8,247.18,98.12,260.14,116.26,252.9ZM433,156.49a18.37,18.37,0,0,1,14.05-13.12,15,15,0,0,1,4.8-.1c.28,0,.55-.07.84-.09,7.87-.38,16.33,1,21,7.91,9.23,13.65-.55,32.31-16.62,33.41C442.72,185.48,429.05,170.77,433,156.49Zm-172.26,7.59c.44-1,1.8-.73,2.3,0,7.13,10.44,8.31,22.54,23.81,22.66,17.6.14,19.73-21.61,24.22-34.41,1.79-5.12,8-4.63,9.94,0,4.75,11.28-1.32,24.72-7.4,34.51-6,9.61-15.55,14-26.76,13.51C267.81,199.54,252.31,183.15,260.74,164.08Zm-135.28-8.65c4.17-7,12.66-10.6,20.44-11.31,8.66-.8,17.67,3.27,21,11.65,2.74,6.88,1.82,16.45-1.73,22.94-8.2,15-30.4,11.75-38.73-1.28a19.27,19.27,0,0,1-3-9.45A16.57,16.57,0,0,1,125.46,155.43Z"/><path class="cls-4" d="M454.43,168.11c3.05.37,8.2-3.67,5.2-7-.26-.29-3.78-.41-5.06-.35a8.77,8.77,0,0,0-3.33.56c-.35.15-1.66,1.58-.92.54a10.93,10.93,0,0,1-1.93,2.07A9,9,0,0,0,454.43,168.11Z"/><path class="cls-4" d="M141.3,170.15c2.56,2,6.74,3.3,8.88.86,1.19-1.36,1.08-4.27,1.06-5.91,0-2.78-.25-3.6-3.32-3.58-1.69,0-5.28.91-6.44,2.39-.91,1.14-.53,2.46-.25,4.06A8.37,8.37,0,0,1,141.3,170.15Z"/><path class="cls-5" d="M49.47,313.11c8.93.75,18.39-3,26.94.85,9,4.07,9,14.43,16.68,18.67,10.84,6,23.82-3.23,32.84-8.43,20.16-11.63,40.7-14,62.43-5,25.11,10.42,47.54,19.32,75.21,12.46,20.75-5.15,38-18.33,57.58-26.44,20.4-8.48,39.44-7.37,60.24-.76,20.48,6.5,41.18,13.43,63,12.32,11.93-.61,22.22-4.14,32.55-10,7.72-4.35,15.38-8.67,24.46-9.06,9.78-.42,18.82,3.54,27.29,8,8.65,4.56,22.59,14.54,32.64,8.11,14.94-9.55,6.9-43.93-5.78-52.14-9.79-6.34-21.91-1.42-31.93,1.65-9.55,2.93-19.13,5.64-29.21,4.52-18.69-2.09-33.38-17.45-52.1-18.4C422,248.45,404,264,385.89,271.22a84.62,84.62,0,0,1-60.81.77c-17.23-6.49-36.12-25.13-55.59-18.49-9.53,3.25-17.07,9.12-27.41,10.17-8.2.84-16.46-.66-24.28-3.13-17.33-5.47-35.69-18-54.59-14.22-16.72,3.34-29.46,17-45.68,22-18.22,5.57-31.91-3.68-48.15-10.27-18.16-7.37-29.42,2.54-36.24,16.43-1.67,1.57-1.41,2.55-2.63,5.15C23.93,293.55,33.71,311.77,49.47,313.11Z"/><path class="cls-6" d="M553.39,332.2c21.35.25,31.64-18.6,31.61-38.06,0-15.4-5-33-17-43.3a8.57,8.57,0,0,0,.85-4.08c-1.2-46.41-5.75-96.08-36.52-133.27C502.22,77.08,454,73.58,410.23,68.65c-53.11-6-107.9-9.62-161.28-5.48-48.23,3.74-92,23.27-130.52,52.13-19.27,14.44-36.56,31.89-46.74,54s-15,47.39-16.8,71.62c-1,.06-2,.15-3,.3-26.55,4.2-35.73,25.29-36.09,48.88,0,1.67.63,7.39,1,10.5a33.85,33.85,0,0,0,17.55,23c8.37,4.39,17,3.66,26,3.64A75.27,75.27,0,0,0,59.93,344c-20.62,4.46-41.07,25.36-43.27,45.77-2.45,22.74,12.08,40.31,34.59,41.93,8.7,35.42,21.3,75.94,53.05,97.19,30.22,20.23,69.77,23.87,105,27.23,45.19,4.31,90.83,4.53,136-.51,42.18-4.71,86-12.67,125.35-29,20.37-8.48,34.41-21.82,43.77-41.82,9.78-20.93,18.72-44.89,19.06-68.24,4.68,1.68,9.08,5,13.69,6.58,6.38,2.24,12.79,2.67,19.15.12,13.13-5.26,18.81-19.71,17.81-33C582.55,369.56,569.7,347.67,553.39,332.2Zm-472.77-149c7.6-19.39,20.74-35.53,36.59-48.83,33.41-28,76-49,119.51-54.23,46.44-5.57,95-2.31,141.48,1.71C402,84,425.83,86.71,449.42,90.65c20.54,3.43,41.52,8.44,57.81,22.16,37.73,31.77,40.71,84.37,44.06,130.1-16.76-2.76-33,7.82-50.25,8.7-22.11,1.14-39.4-18.57-62.06-17.72-23.11.87-41,16.83-62.05,24.1a69.47,69.47,0,0,1-38.77,2.09c-12.84-3.05-23.43-10.43-35.18-16-8-3.83-16.59-7.05-25.63-7-12.93.05-22.15,8.89-34.32,11.2-22.7,4.32-44.52-14.7-66.68-17.24-24-2.74-39.36,13.63-60.09,21.9-18.14,7.24-32.46-5.72-48.81-10.43C71.2,222.49,73.11,202.38,80.62,183.23ZM49.83,312c-15.77-1.34-19-7.95-19-24.73,0-2.87,1.4-10.73,2.31-12.81C40,260.56,51.22,250.65,69.38,258c16.24,6.59,29.93,15.84,48.15,10.27,16.22-5,29-18.63,45.68-22,18.9-3.78,37.26,8.75,54.59,14.22,7.82,2.47,16.08,4,24.28,3.13,10.34-1.05,17.88-6.92,27.41-10.17,19.47-6.64,38.36,12,55.59,18.49a84.62,84.62,0,0,0,60.81-.77C404,264,422,248.45,442.3,249.48c18.72,1,33.41,16.31,52.1,18.4,10.08,1.12,19.66-1.59,29.21-4.52,10-3.07,22.14-8,31.93-1.65,12.68,8.21,20.72,42.59,5.78,52.14-10.05,6.43-24-3.55-32.64-8.11-8.47-4.47-17.51-8.43-27.29-8-9.08.39-16.74,4.71-24.46,9.06-10.33,5.83-20.62,9.36-32.55,10-21.81,1.11-42.51-5.82-63-12.32-20.8-6.61-39.84-7.72-60.24.76-19.54,8.11-36.83,21.29-57.58,26.44-27.67,6.86-50.1-2-75.21-12.46-21.73-9-42.27-6.61-62.43,5-9,5.2-22,14.43-32.84,8.43C85.42,328.39,85.45,318,76.41,314,67.86,310.11,58.76,312.74,49.83,312Zm468,6.91c-.33,7.86-.6,16.56-4.68,23.33-5.72,9.47-17.71,11.08-27.64,13.22-21.39,4.62-43,8.36-64.74,11.11a743.66,743.66,0,0,1-127,5.06c-42.58-1.94-84.91-7.76-127.5-9.38a514.53,514.53,0,0,0-63.68,1.28c-11.42,1-22.26,1.73-27.92-10.34-3.24-6.92-3.19-14.66-2.61-22.27a20.58,20.58,0,0,1,1.66,2.53c2.55,4.47,4,7.79,8.21,11,17.41,13.37,37.7,1.88,53.82-7.12,11.13-6.21,22.77-9.55,35.52-6.75,13.67,3,25.62,11.21,39,15.28a108.7,108.7,0,0,0,70.29-2.68c20.95-8.15,39.75-23.92,62.28-27.63,14.6-2.4,28.45,2.91,42.1,7.35a222,222,0,0,0,35.63,8.87c22.93,3.45,44.45.83,64.75-10.64C497.5,314.22,505.74,313.11,517.85,318.9ZM465.61,508.8c-35.12,15.8-76.31,23.29-114.29,28a654.42,654.42,0,0,1-117.67,3.54c-34.23-1.94-71.32-3.77-103.59-16.48-17.18-6.77-31.82-17.6-41.13-33.75-10.37-18-17.65-38.33-23.87-58.22a32.24,32.24,0,0,1,6.51.93c8,2.13,11.45,9.12,15.7,15.49,7,10.45,15.54,18.49,27.41,23.07a56.73,56.73,0,0,0,33.74,2.28c14.49-3.56,24.12-14.51,36.71-21.54,29.78-16.63,64.17,3.79,93.63,11,31,7.58,57.08,1,80.92-19.86,4.77-4.18,9.74-9.08,16.1-10.72,7.42-1.91,16.07.31,23.51,1.21,15.77,1.91,31.64,3.57,47.54,3.46,13.8-.1,27.82-1.46,41.18-5a117.17,117.17,0,0,0,18.59-6.71c3-1.36,6.26-3.59,9.65-5.61C505.62,452.57,500,493.31,465.61,508.8Zm93.52-100c-5.77,1.44-12.32-3.58-17.19-5.79-9.34-4.23-17.88-4.84-27.19-.23-11,5.47-20.58,11.29-32.75,14.36-12.71,3.21-25.75,4.12-38.82,4.08-12.24,0-24.46-1-36.63-2.28-12.53-1.31-25.81-4.56-38.08-.24-10.5,3.7-17.83,12.29-26.53,18.77-11.59,8.62-25,13.32-39.49,12.84-27.58-.92-52.59-16.08-79.83-19.63-11.22-1.46-22.89-1.33-33.73,2.24-12.38,4.08-21.3,12.82-32,19.69C135.38,466.3,112.3,457.71,99,437.75c-6.76-10.17-13.93-18.33-26.55-20.44-11.25-1.87-26.7,3.35-35.58-5.79s-7.37-24.36-.64-34.11,16.66-13.69,26-19.2l3.21,3.3c.33.55.67,1.11,1,1.65,8.12,11.91,20.74,14.28,34.34,13.62,40.43-1.95,80.41.62,120.69,4.29,81,7.4,160.8,9.5,241.29-4.66,17.89-3.14,41.55-4.62,56.25-16.49,8.37-6.76,11.8-16.1,12.77-26,16.89,14.46,32.44,32.1,35.82,54.9C568.65,395.61,567.63,406.65,559.13,408.76Z"/><path class="cls-6" d="M126.45,177.43c8.33,13,30.53,16.25,38.73,1.28,3.55-6.49,4.47-16.06,1.73-22.94-3.34-8.38-12.35-12.45-21-11.65-7.78.71-16.27,4.35-20.44,11.31a16.57,16.57,0,0,0-2,12.55A19.27,19.27,0,0,0,126.45,177.43Zm15-13.52c1.16-1.48,4.75-2.39,6.44-2.39,3.07,0,3.3.8,3.32,3.58,0,1.64.13,4.55-1.06,5.91-2.14,2.44-6.32,1.12-8.88-.86a8.37,8.37,0,0,0-.07-2.18C141,166.37,140.57,165.05,141.48,163.91Z"/><path class="cls-6" d="M457.1,184.5c16.07-1.1,25.85-19.76,16.62-33.41-4.7-7-13.16-8.29-21-7.91-.29,0-.56.07-.84.09a15,15,0,0,0-4.8.1A18.37,18.37,0,0,0,433,156.49C429.05,170.77,442.72,185.48,457.1,184.5Zm-6.78-22.61c-.74,1,.57-.39.92-.54a8.77,8.77,0,0,1,3.33-.56c1.28-.06,4.8.06,5.06.35,3,3.3-2.15,7.34-5.2,7a9,9,0,0,1-6-4.15A10.93,10.93,0,0,0,450.32,161.89Z"/><path class="cls-6" d="M286.85,200.35c11.21.48,20.79-3.9,26.76-13.51,6.08-9.79,12.15-23.23,7.4-34.51-1.94-4.63-8.15-5.12-9.94,0-4.49,12.8-6.62,34.55-24.22,34.41-15.5-.12-16.68-12.22-23.81-22.66-.5-.73-1.86-1-2.3,0C252.31,183.15,267.81,199.54,286.85,200.35Z"/></svg>