<svg id="Layer_1" data-name="Layer 1" xmlns="http://www.w3.org/2000/svg" viewBox="0 0 600 600"><defs><style>.cls-1{fill:#f7941e;}.cls-2{fill:#e27683;}.cls-3{fill:#8b5e3c;}.cls-4{fill:#fff;}.cls-5{fill:#231f20;}</style></defs><title>doodle</title><path class="cls-1" d="M577.85,366.1c4.46-6,.75-15.44-3.25-20.65-1.34,2.69-3,5.31-3.62,8.49a33,33,0,0,0-.46,9.77C571.13,368.32,574.67,370.35,577.85,366.1Z"/><path class="cls-2" d="M430.63,496.31a28.22,28.22,0,0,1-4.26,5.29,13.08,13.08,0,0,0,2.7,3.18c3.56,2.87,6.81-.16,6.63-4.2a15.19,15.19,0,0,0-3-7.89C432,494,431.29,495.25,430.63,496.31Z"/><path class="cls-2" d="M377.58,481.19l-3.65.25c2.12,4.28,4.34,8.38,8.18,11.73a29.49,29.49,0,0,0,22.6,6.86c9.07-1,15.52-5.78,18.87-14.27A109,109,0,0,0,426.77,475,474.09,474.09,0,0,1,377.58,481.19Z"/><path class="cls-2" d="M404.63,510.85a17.49,17.49,0,0,0,1,5.18c.49,1.16,1.54,3,3,3.19,2.22.29,2.92-1.73,3.5-3.16a21,21,0,0,0,1.44-6.92,38.29,38.29,0,0,1-7.39,1.59C405.65,510.79,405.14,510.82,404.63,510.85Z"/><path class="cls-2" d="M382.16,509.42c.18,1.79.29,7.17,2.33,8.3,3.56,2,5.65-3.23,7-8.36a46.68,46.68,0,0,1-9.65-3.9C381.92,506.78,382,508.1,382.16,509.42Z"/><path class="cls-1" d="M409.11,236.18c6.92,0,12.7-.52,16.13,6.62,3.18,6.61,1.67,15,2,22,.48,11.57,3.66,22.18,12.51,30.13s21.79,13,33.63,10.26c11.19-2.62,18.58-11.68,18.74-23.11.09-6.14-2.49-18.35,2.92-23.27,2.92-2.66,7.29-2.12,10.55-5,4.28-3.8,5.17-8.81,4.18-13.77-6.93-14.27-16.64-23.36-31.88-28.47a162,162,0,0,0-48.09-8.42,211.33,211.33,0,0,0-29.9,2C396.09,216.22,391.84,236.14,409.11,236.18Z"/><path class="cls-1" d="M293.92,135.27a80,80,0,0,0,2.1-10.12c-2.93-2.47-5.58-5.38-8.88-7.45A52.14,52.14,0,0,0,277,112.93a80.85,80.85,0,0,1-3.49,8.72A50.13,50.13,0,0,1,284.58,127,30.1,30.1,0,0,1,293.92,135.27Z"/><path class="cls-1" d="M288.62,150.42c1.24-3,2.38-6,3.4-9-2.62-3.69-4.81-7.21-8.91-9.94a59.14,59.14,0,0,0-11.55-6.11,37.12,37.12,0,0,1-6.23,8.34c3.76,2.19,7.45,4.49,11,6.87A81.65,81.65,0,0,1,288.62,150.42Z"/><path class="cls-1" d="M119.69,101.29c-.35-2.72-.56-5.46-.69-8.2-2.12.64-4.21,1.37-6.34,2-1.29,5.92-2.21,11.51-2.71,14.76l.38-.37C112.76,107.07,116.17,103.19,119.69,101.29Z"/><path class="cls-1" d="M119.23,79c0-.5.46-2.85.8-5.06-2.7,3.69-4.93,10.78-6.63,17.91a23.63,23.63,0,0,1,5.48-2.49C118.84,85.85,119,82.4,119.23,79Z"/><path class="cls-1" d="M281.91,89.14a25.55,25.55,0,0,1,9.7,2.22c.55.24,1.13.51,1.72.81-2.39-8.5-6.26-16.93-12.22-20.17A69.46,69.46,0,0,1,281.91,89.14Z"/><path class="cls-1" d="M108.34,139.48a62.58,62.58,0,0,0,1.78,9.53,96.88,96.88,0,0,1,22.82-15.67,41.61,41.61,0,0,1-6.88-10C120,128.61,112,132.47,108.34,139.48Z"/><path class="cls-1" d="M369,294.41A16.81,16.81,0,0,0,367.3,306c1.42,6.78,6.92,6.27,11.79,8.46a9.36,9.36,0,0,1,5.07,4.55c.87,1.86.28,3.66.9,5.49,1.75,5.21,6,7.35,11,6.71,15.19-1.91,12.64-19.26,6.47-28.55-2.64-4-7.45-10.87-11.91-13.23-3.2-1.7-18.5-.07-20.12,3.93A1.71,1.71,0,0,1,369,294.41Z"/><path class="cls-1" d="M359.28,379.11c-3.44,5.06-6.6,10.72-8.18,16.64-.92,5.06-.31,10.21,3.74,14.16,5.28,5.16,12,4.44,17.58.46,5.39-3.86,10.45-10.19,17.53-10.85,6-.56,9,3.22,11.25,8.23,2.72,6,6.87,10.45,14.23,8.28,4.66-1.38,8.45-5.4,10.83-9.47,6.62-11.32,3.73-22.88-7.85-29.17A132,132,0,0,0,388,365.15C375.09,362,366.22,368.9,359.28,379.11Z"/><path class="cls-3" d="M339.72,181.54c9.48-6.46,16.21-16.13,25.68-22.57,6.89-4.68,16.23-7.54,24.2-3.84a18.31,18.31,0,0,1,2.53,1.45,19.86,19.86,0,0,0-4.43-7.81c-9.29-10.12-19.86.06-27.32,6.71a72.49,72.49,0,0,1-21.5,13.81c-8.19,3.29-24.17,7.17-35.56,4.22a107.41,107.41,0,0,1,3.51,11.2C318.68,189,328.65,189.09,339.72,181.54Z"/><path class="cls-1" d="M476.89,375c1.82-1.52,3.35-3.43,5.4-4.69,4.41-2.72,8.89-2.39,13.87-1.89,4.14.42,8.39,1.32,11.75-2.06,2.78-2.79,3.34-7.57,3.57-11.25.47-7.41-.8-16.12-6.05-21.78-7.19-7.74-16.31-5.71-22.31,1.83-2.79,3.5-5,6.21-9.46,7.48-3.51,1-6.42.8-9.69,2.88a20.09,20.09,0,0,0-5.66,5.78c-2.95,6-1.88,13.39,2.32,19.46C464.48,376.29,470.85,380.08,476.89,375Z"/><path class="cls-2" d="M364.18,166.19C357,172.27,351,179.54,343.24,185c-8.89,6.31-25.92,12.07-35.42,4,.52,2.43,1,4.89,1.37,7.37.72.67,1.45,1.29,1.91,1.74a42.39,42.39,0,0,0,5.11,4.35c.4.27.82.53,1.27.78,3.34,1.36,6.5,3.27,10,4.39A51,51,0,0,0,343,210.1,49.29,49.29,0,0,0,371.7,201c9.21-6.62,20-21.62,21.23-35.34C387.26,155.16,373.48,158.32,364.18,166.19Z"/><path class="cls-3" d="M381.68,207.13a57.51,57.51,0,0,1-41.11,13.77c-9.43-.53-23.33-3-30.11-10.4.37,13.45-1.66,26.9-6.5,38.77a68.52,68.52,0,0,1,18.54,17.78c8.17,11.52,16.28,24.76,20.16,38.43,4.43,15.58,4.8,32.88,3.77,48.94a190.83,190.83,0,0,1-9.25,48.15c-4.22,12.65-9.7,25.77-20.63,34.07-12.43,9.44-29.75,10.91-44.85,11.28a152.33,152.33,0,0,1-48-6.64l-.52-.17c3,15.51,2.65,32.29,4.36,47.83,2,18.25,4.5,36.45,7.61,54.54.78,4.5,1.54,9,2.44,13.5,1.37,6.8,2.1,2.74,2.75-1.74,1.3-8.92,2.21-17.91,3.3-26.86,2.1-17.28,3.5-34.91,6.83-52,.87-4.47,8.56-4.68,9.24,0,2.2,15,4.85,30,7.3,45q1.71,10.51,3.43,21c.88,5.39.62,15,4.22,19.44,8.19,10.17,11-15.29,11.36-18.51q1.33-10.64,2.22-21.3c1.26-15.1,1.29-30.25,2.36-45.35a3.66,3.66,0,0,1,2.89-4.72,5.11,5.11,0,0,1,3.11-.28c26.41-2.15,53.07-.46,79.54-3a614.38,614.38,0,0,0,82.52-13.82c5.23-1.23,8.71,3.12,8,8a291.84,291.84,0,0,0-3.06,36.4c-.05,2.49.95,32.32,1,32.31,2.77-.62,5.45-14.15,6.19-16.79a146.67,146.67,0,0,0,3.4-15.5c1.29-8,.78-16.67,1.81-24.83-.62-5.38-.24-11.27-.14-15.64.14-6.34,3.8-12.18,10.8-9.31a3,3,0,0,1,2.09,2.74l0,.46a6,6,0,0,1,.87,2.44c2.52,19.75,4,39.62,5.69,59.45.16,1.91.07,13.56,2.3,14.14,1.41.37,2.64-9.25,2.77-10,1.7-9.07,3.23-18.17,4.67-27.29,5.5-34.72,10.74-69.59,14.46-104.56,3.48-32.82,5.83-66.42,2.55-99.35a155.43,155.43,0,0,0-7.77-36.63,19.6,19.6,0,0,1-4.78,6.81c-4.72,4.3-11.26,3.69-12.1,11.12-.65,5.84.66,11.73,0,17.58-2.74,23.15-29.34,29.24-47.86,21.23-10.25-4.44-19.3-12.28-23.84-22.63a51.82,51.82,0,0,1-3.83-16.34c-.59-6.6.68-13.59-.58-20.1-1.88-9.75-10.53-5.6-17.25-7.47a17.73,17.73,0,0,1-9.94-7.81c-5.6-8.94-3.15-19.2,1.78-27.68-4.41.55-8.82,1.11-13.26,1.59A2.17,2.17,0,0,1,381.68,207.13Zm72.26,143.56c2-7.54,8.8-10.72,16.18-12.85,10.13-2.93,12-15.13,24-15.07,20,.1,27.25,26.44,20.94,42.1-3.46,8.57-10.56,9.92-18.92,9.08-4.75-.48-7.71-1.12-12.21,2-1.95,1.35-3.37,3.41-5.33,4.77a12.78,12.78,0,0,1-10.15,2.46C455.05,380.54,448.12,362,453.94,350.69ZM432,381.23c9.72,13.93-.48,38.47-17.52,41-7.87,1.17-14.39-2.76-17.67-9.78-1.63-3.47-2.89-7.45-8-6.67-3,.46-6.16,3.76-8.41,5.62-3.17,2.6-6.28,5.38-10.15,6.89a16.9,16.9,0,0,1-11.9.5c-5-1.16-9.88-5-10.67-9.71a24.93,24.93,0,0,1-.91-4.15,21.11,21.11,0,0,1,.56-11.61c3.06-14.68,14.3-29.59,26.83-33.5,11-3.43,22.7,2.12,32.75,6.18C415.72,369.54,426.36,373.1,432,381.23Zm-28.15-85.76c8.75,10.94,15.41,32.53-1.76,39.86-6.07,2.58-16.88,2.34-20.85-3.83-3-4.68-.07-10.15-5.88-12.87-3.49-1.63-6.74-1.4-9.55-4.42-6.73-7.21-3.73-23.11,4.61-27.35,3.61-2.64,9.7-3,13.92-3.6C393.23,282,398.89,289.21,403.89,295.47Z"/><path class="cls-1" d="M296.53,110.15a95.77,95.77,0,0,0-1.69-11.72,25.18,25.18,0,0,0-4.34-3.27,28.32,28.32,0,0,0-8.86-3,91.13,91.13,0,0,1-3,15.64c-.17.62-.38,1.27-.57,1.91,6.52,1.36,13.68,4.45,18.58,9A69.25,69.25,0,0,0,296.53,110.15Z"/><path class="cls-3" d="M63.45,169.66c-6.37-4.72-11-10.82-16.54-16.43-2.6-2.65-5.53-6.08-9.93-2.91-1.35,1-2.5,3.43-3.38,4.88a50,50,0,0,0-5.32,12.21c-.3,1-.57,2.08-.8,3.14a17.63,17.63,0,0,1,15.71-6c6.87.9,11.92,6.21,15.74,11.57,2.82,4,5,8.52,8.33,12.1,1.33,1.43,15.59,11,16.57,7.47a1,1,0,0,1,.39-.55A105,105,0,0,1,90,177.6C81,179,71.19,175.39,63.45,169.66Z"/><path class="cls-2" d="M63,190.72c-5.72-6.74-9.4-18.06-18.64-20.83-10.3-3.08-15.16,5.09-18.09,13.57a50.41,50.41,0,0,0,12.5,31.91c10.48,11.88,26.44,19.52,42,15.45a134.94,134.94,0,0,1,1-21.58q.57-4.78,1.52-9.5A11.35,11.35,0,0,1,80,200C73.42,199.77,67.09,195.57,63,190.72Z"/><path class="cls-4" d="M135.63,199.68c1.43-.57,1.32-2.11.47-3.08a3.55,3.55,0,0,0-2.1-1.11,3.61,3.61,0,0,0-.73,2.37C133.38,199,134.42,200.16,135.63,199.68Z"/><path class="cls-4" d="M253.17,199.18a2.49,2.49,0,0,0,.83-3.31c-.62-.64-2.11-.75-2.94-.87-.46-.06-.89-.1-1.31-.13a3.21,3.21,0,0,0-.14,2.57C250.09,198.77,252.08,199.71,253.17,199.18Z"/><path class="cls-3" d="M92.22,254c13.36-8.06,28.66-12.7,45.4-15.09,33.29-4.75,67.39-9.31,101.06-7.1,17.93,1.18,36.61,3.74,52.9,10.82,2.8-12.82,5.13-25,4.08-38.43s-4.45-29.61-13.3-40.42c-7.19-8.77-17.75-14.66-27.47-20.2-11.34-6.46-23.4-11.76-36.48-13.29-22.75-2.66-48.59,1.38-70.06,9.15-22.56,8.17-40.29,24-49.12,46.5-4.34,11.09-6.33,22.8-6.92,34.66C91.77,231.46,93.65,243.18,92.22,254Zm150.1-64.78a13.59,13.59,0,0,1,3.26-2.45,10.41,10.41,0,0,1,4-2.53,12.7,12.7,0,0,1,12.27,2.68c6.88,5.91,5.38,17.31-2.08,22.05s-18,.43-20.31-7.94A12.69,12.69,0,0,1,242.32,189.22ZM125.18,188c6-6.07,17.19-3.08,21.2,3.88a12.81,12.81,0,1,1-23.84,7.55,11.16,11.16,0,0,1,1.82-6.6A4.09,4.09,0,0,1,125.18,188Z"/><path class="cls-2" d="M56.05,386.49c2.32,13,6.21,26.35,13.4,37.5,8.1,12.55,20.51,18.15,35.28,17.16,10.69-.72,21-4.25,31.23-7.79,9.73-5.61,19.83-10.72,30.68-13.31,15.38-3.69,30-1.71,44.93,2.9,16.15,5,31.75,9.67,48.78,10.45,14.46.66,34.71,1.06,46.92-8,10.93-8.14,15.12-23.83,18.5-36.32a183,183,0,0,0,6.39-43.2c.36-14.8-.1-30.94-6.23-44.66-5.34-11.95-12.8-25.29-22-34.68-10.45-10.68-25.8-14.61-40-17.55-14.95-3.1-30.26-4.1-45.51-4-29.67.13-60.54,2.36-89.73,7.75C101.36,257.74,80,272.75,67,297.57,53.21,324.12,50.85,357.34,56.05,386.49Zm258,11.13c-.78.58-1.71-.24-1.77-1a13.88,13.88,0,0,1,1.41-6.18,25.08,25.08,0,0,1,2.87-5.8,1.13,1.13,0,0,1,2.08.57C319.05,389.32,317.42,395,314,397.62Zm.05-89.19c13.93,18.11,13,47,6.4,67.85-.4,1.27-2.56,1.51-2.83,0-1.9-10.63,2.4-21.74,2.26-32.49-.15-12.19-4.12-23.1-7.81-34.53C311.67,308,313.38,307.54,314.06,308.43Zm-32.35-6.77a10.32,10.32,0,0,1,5.44-2.41,15.32,15.32,0,0,1,4.22.36,3.9,3.9,0,0,1,2.78,1.53,9.68,9.68,0,0,1,4.07,3.63A10.11,10.11,0,0,1,297,316.54c-5.61,6.52-16.7,3.95-18.52-4.63A10.58,10.58,0,0,1,281.71,301.66Zm-122.6,68.92c7.18,7.7,8.38,20.26,20.62,21.9,6.36.85,12.67-1.88,17.23-6.24,4.39-4.2,5.74-9.81,9.28-14.52,1.82-2.41,6.36-2.7,7.11.93,3.26,15.85-15.44,30-29.76,30.41A27,27,0,0,1,163.3,395c-5.67-6-6.29-14.1-9.21-21.47C153,370.66,157.17,368.5,159.11,370.58ZM96.28,310.91a7.75,7.75,0,0,1,4.29-5.88,11.18,11.18,0,0,1,9.88-.18c5.65,2.71,7.38,10.24,4.29,15.47-3.3,5.59-11.86,6.77-16.53,2.19A10.2,10.2,0,0,1,96.28,310.91ZM69.36,374.85a6,6,0,0,0,1.46,2.82c1.28,1.54-.76,3.69-2.24,2.24a5.43,5.43,0,0,1-1.34-5.35C67.53,373.27,69.23,373.73,69.36,374.85ZM64.7,363.54c-6-10.15-7-24.82-2.44-35.69a1.09,1.09,0,0,1,2.13.28c.14,5.86-.37,11.71.1,17.56s1.87,11.45,2.61,17.2C67.27,364.22,65.3,364.55,64.7,363.54Z"/><path class="cls-1" d="M112,129.4c3.82-3.29,7.86-7.23,12.27-10.15a67.08,67.08,0,0,1-2.86-8.92c-.35-1.41-.65-2.84-.92-4.27-1.87,1.54-4,2.9-5.62,4.29a67.22,67.22,0,0,0-5.71,5.2,113.13,113.13,0,0,0-1.18,18A27.47,27.47,0,0,1,112,129.4Z"/><path class="cls-5" d="M65.39,278.75C47,304,41.37,336.7,43,367.37c1.45,28.11,9.49,69.21,39.13,81.13,33.22,13.36,66.16-14,98.87-17.6,12.13.07,23.4,4,34.83,7.83-1.23,10-.14,20.48.53,30.47.75,11.15,1.69,22.28,2.91,33.38,1.27,11.56,2.85,23.09,4.61,34.58q1.28,8.28,2.72,16.55c.76,4.36,1,9.42,3.48,13.27,3.13,5,9.38,6.84,14.19,2.93,6.32-5.14,5.83-16.77,6.8-23.84,1.54-11.29,3.37-22.65,5-34,1.44,9,2.85,17.91,4.32,26.85,1.76,10.68,1.66,35.46,17.95,34.64,16.14-.82,16.44-23.32,17.94-34.77,2.54-19.28,4.8-39.18,4.1-58.7,20.6,3.8,42.62,3.31,63.72,2,.87,8.66,6.4,15.88,13.76,20.94-1.13,7.55-1,19.08,7.11,20.16,6.09.82,10.1-6,11.73-12.7a40.91,40.91,0,0,0,4.74.43c-.52,3.13-.64,6.24,1.32,9.1,1.79,2.62,5.18,4.44,8.35,3.46,5.48-1.69,7.62-9.81,7.44-16.33a32,32,0,0,0,5.05-3.13,12.22,12.22,0,0,0,4.07,5.34,7.65,7.65,0,0,0,10.46-1.51c4.61-5.38,2-15.05-3.16-20.25,1.85-4.73,3.18-10,2.89-14.67q7.57-1.53,15.1-3.29a281.18,281.18,0,0,0-1.19,42.84c.46,8.6-1.49,30.93,12.24,30.5,13-.41,16.3-21.22,18.53-30.78.2,2.32.39,4.64.59,7,.56,6.78.8,14.31,6.33,19.11,4.76,4.14,11.76,4.92,16.69.58,5.35-4.72,5.8-13.27,7-19.77,2-11.09,3.84-22.22,5.54-33.37q4.65-30.31,8.82-60.69c5.51-40.45,10.1-81.42,8.35-122.31-.33-7.75-.92-16.2-2-24.83,3.6,5.75,7.18,11.51,10.54,17.4q5.45,9.53,10.29,19.37,2.43,4.92,4.7,9.91c1.71,3.74,6.48,11.15,5.48,15.29-.52,2.21-2.77,4.43-3.61,6.67a32.66,32.66,0,0,0-1.76,8.17c-.56,5.49-1,12.09,1.27,17.27,4.27,9.62,17.13,10.39,24.2,3.47,7.84-7.69,7.44-20.65,3.11-30-1.27-2.75-7.48-11.35-12.76-13.63-1.79-5.36-4.87-10.75-7.16-15.52q-5.61-11.75-12.07-23.07c-7.64-13.38-16.11-26.77-26.6-38.17-5-19-13.93-36.6-29.72-47C483,197.12,460.53,193.69,441,192.69c-16.91-.88-35,.31-51.2,6.13,8.55-10.53,13.81-23.85,13.31-37.23-.85-22.64-22.34-35.68-41.21-21.5-9.78,7.34-17.43,16.16-29.2,20.53-10.91,4-23.47,5.28-34.64,1.79-.59-1-1.2-1.94-1.84-2.87,11-16.18,13.09-39.54,9.89-58.25-2.66-15.6-11.9-42.23-31.86-40.65-2.48.19-5.36,2.16-5,5,1.38,12.11,2.84,23.46.31,35.58-1.82,8.69-4.87,21.1-11.07,28.66a131.88,131.88,0,0,0-20.57-8.82c-26.31-8.55-57.19-3.51-83.27,3.91a128.86,128.86,0,0,0-15.15,5.35c-3.33-6-6.34-12.1-8.1-18.84-2.52-9.7-2.47-19.71-1.62-29.62.5-5.79,4-15.49-1.59-19.93-4.52-3.58-10.68-1.21-14.26,2.61-5,5.32-7.35,13.26-9.41,20.06a182,182,0,0,0-6,27.4c-1.93,13.72-5.29,33.51,3.44,45.8a81.71,81.71,0,0,0-7.07,10.23c-.24.41-.44.83-.67,1.25-10.18,1.25-19.93-2.9-27.85-9.83-7.1-6.2-12.56-16.74-21.81-20-18.31-6.44-27,24.79-28.13,37.38a60.75,60.75,0,0,0,19.89,50.48c11.24,10.05,30.3,19.42,45.57,14a47.73,47.73,0,0,0,5.41,15.88A91,91,0,0,0,65.39,278.75ZM571,353.94c.64-3.18,2.28-5.8,3.62-8.49,4,5.21,7.71,14.69,3.25,20.65-3.18,4.25-6.72,2.22-7.33-2.39A33,33,0,0,1,571,353.94ZM384.49,517.72c-2-1.13-2.15-6.51-2.33-8.3-.13-1.32-.24-2.64-.35-4a46.68,46.68,0,0,0,9.65,3.9C390.14,514.49,388.05,519.68,384.49,517.72Zm27.61-1.66c-.58,1.43-1.28,3.45-3.5,3.16-1.47-.2-2.52-2-3-3.19a17.49,17.49,0,0,1-1-5.18c.51,0,1-.06,1.52-.12a38.29,38.29,0,0,0,7.39-1.59A21,21,0,0,1,412.1,516.06Zm11.48-30.3c-3.35,8.49-9.8,13.22-18.87,14.27a29.49,29.49,0,0,1-22.6-6.86c-3.84-3.35-6.06-7.45-8.18-11.73l3.65-.25A474.09,474.09,0,0,0,426.77,475,109,109,0,0,1,423.58,485.76Zm12.12,14.82c.18,4-3.07,7.07-6.63,4.2a13.08,13.08,0,0,1-2.7-3.18,28.22,28.22,0,0,0,4.26-5.29c.66-1.06,1.35-2.29,2-3.62A15.19,15.19,0,0,1,435.7,500.58ZM399.86,205.14a211.33,211.33,0,0,1,29.9-2,162,162,0,0,1,48.09,8.42c15.24,5.11,24.95,14.2,31.88,28.47,1,5,.1,10-4.18,13.77-3.26,2.9-7.63,2.36-10.55,5-5.41,4.92-2.83,17.13-2.92,23.27-.16,11.43-7.55,20.49-18.74,23.11-11.84,2.78-24.84-2.35-33.63-10.26s-12-18.56-12.51-30.13c-.29-7,1.22-15.4-2-22-3.43-7.14-9.21-6.6-16.13-6.62C391.84,236.14,396.09,216.22,399.86,205.14Zm-4,.49c-4.93,8.48-7.38,18.74-1.78,27.68a17.73,17.73,0,0,0,9.94,7.81c6.72,1.87,15.37-2.28,17.25,7.47,1.26,6.51,0,13.5.58,20.1A51.82,51.82,0,0,0,425.65,285c4.54,10.35,13.59,18.19,23.84,22.63,18.52,8,45.12,1.92,47.86-21.23.69-5.85-.62-11.74,0-17.58.84-7.43,7.38-6.82,12.1-11.12a19.6,19.6,0,0,0,4.78-6.81A155.43,155.43,0,0,1,522,287.55c3.28,32.93.93,66.53-2.55,99.35-3.72,35-9,69.84-14.46,104.56-1.44,9.12-3,18.22-4.67,27.29-.13.72-1.36,10.34-2.77,10-2.23-.58-2.14-12.23-2.3-14.14-1.67-19.83-3.17-39.7-5.69-59.45a6,6,0,0,0-.87-2.44l0-.46a3,3,0,0,0-2.09-2.74c-7-2.87-10.66,3-10.8,9.31-.1,4.37-.48,10.26.14,15.64-1,8.16-.52,16.86-1.81,24.83a146.67,146.67,0,0,1-3.4,15.5c-.74,2.64-3.42,16.17-6.19,16.79,0,0-1-29.82-1-32.31a291.84,291.84,0,0,1,3.06-36.4c.72-4.86-2.76-9.21-8-8a614.38,614.38,0,0,1-82.52,13.82c-26.47,2.53-53.13.84-79.54,3a5.11,5.11,0,0,0-3.11.28,3.66,3.66,0,0,0-2.89,4.72c-1.07,15.1-1.1,30.25-2.36,45.35q-.9,10.66-2.22,21.3c-.4,3.22-3.17,28.68-11.36,18.51-3.6-4.49-3.34-14.05-4.22-19.44q-1.73-10.51-3.43-21c-2.45-15-5.1-30-7.3-45-.68-4.68-8.37-4.47-9.24,0-3.33,17.09-4.73,34.72-6.83,52-1.09,9-2,17.94-3.3,26.86-.65,4.48-1.38,8.54-2.75,1.74-.9-4.48-1.66-9-2.44-13.5-3.11-18.09-5.6-36.29-7.61-54.54-1.71-15.54-1.32-32.32-4.36-47.83l.52.17a152.33,152.33,0,0,0,48,6.64c15.1-.37,32.42-1.84,44.85-11.28,10.93-8.3,16.41-21.42,20.63-34.07a190.83,190.83,0,0,0,9.25-48.15c1-16.06.66-33.36-3.77-48.94-3.88-13.67-12-26.91-20.16-38.43A68.52,68.52,0,0,0,304,249.27c4.84-11.87,6.87-25.32,6.5-38.77,6.78,7.39,20.68,9.87,30.11,10.4a57.51,57.51,0,0,0,41.11-13.77,2.17,2.17,0,0,0,.89.09C387,206.74,391.42,206.18,395.83,205.63ZM371.7,201A49.29,49.29,0,0,1,343,210.1a51,51,0,0,1-15.57-2.41c-3.49-1.12-6.65-3-10-4.39-.45-.25-.87-.51-1.27-.78a42.39,42.39,0,0,1-5.11-4.35c-.46-.45-1.19-1.07-1.91-1.74-.37-2.48-.85-4.94-1.37-7.37,9.5,8,26.53,2.28,35.42-4,7.73-5.49,13.75-12.76,20.94-18.84,9.3-7.87,23.08-11,28.75-.54C391.72,179.37,380.91,194.37,371.7,201Zm-32.82-31.7a72.49,72.49,0,0,0,21.5-13.81c7.46-6.65,18-16.83,27.32-6.71a19.86,19.86,0,0,1,4.43,7.81,18.31,18.31,0,0,0-2.53-1.45c-8-3.7-17.31-.84-24.2,3.84-9.47,6.44-16.2,16.11-25.68,22.57-11.07,7.55-21,7.5-32.89,3.17a107.41,107.41,0,0,0-3.51-11.2C314.71,176.46,330.69,172.58,338.88,169.29ZM293.33,92.17c-.59-.3-1.17-.57-1.72-.81a25.55,25.55,0,0,0-9.7-2.22,69.46,69.46,0,0,0-.8-17.14C287.07,75.24,290.94,83.67,293.33,92.17Zm-14.71,15.59a91.13,91.13,0,0,0,3-15.64,28.32,28.32,0,0,1,8.86,3,25.18,25.18,0,0,1,4.34,3.27,95.77,95.77,0,0,1,1.69,11.72,69.25,69.25,0,0,1,.1,8.5c-4.9-4.53-12.06-7.62-18.58-9C278.24,109,278.45,108.38,278.62,107.76ZM277,112.93a52.14,52.14,0,0,1,10.15,4.77c3.3,2.07,5.95,5,8.88,7.45a80,80,0,0,1-2.1,10.12,30.1,30.1,0,0,0-9.34-8.29,50.13,50.13,0,0,0-11.08-5.33A80.85,80.85,0,0,0,277,112.93Zm-5.43,12.45a59.14,59.14,0,0,1,11.55,6.11c4.1,2.73,6.29,6.25,8.91,9.94-1,3-2.16,6-3.4,9a81.65,81.65,0,0,0-12.25-9.83c-3.59-2.38-7.28-4.68-11-6.87A37.12,37.12,0,0,0,271.56,125.38Zm-138.62,8A96.88,96.88,0,0,0,110.12,149a62.58,62.58,0,0,1-1.78-9.53c3.63-7,11.65-10.87,17.72-16.18A41.61,41.61,0,0,0,132.94,133.34ZM120,73.89c-.34,2.21-.76,4.56-.8,5.06-.28,3.45-.39,6.9-.35,10.36a23.63,23.63,0,0,0-5.48,2.49C115.1,84.67,117.33,77.58,120,73.89Zm-7.37,21.17c2.13-.6,4.22-1.33,6.34-2,.13,2.74.34,5.48.69,8.2-3.52,1.9-6.93,5.78-9.36,8.16l-.38.37C110.45,106.57,111.37,101,112.66,95.06Zm-3.54,20.49a67.22,67.22,0,0,1,5.71-5.2c1.61-1.39,3.75-2.75,5.62-4.29.27,1.43.57,2.86.92,4.27a67.08,67.08,0,0,0,2.86,8.92c-4.41,2.92-8.45,6.86-12.27,10.15a27.47,27.47,0,0,0-4,4.17A113.13,113.13,0,0,1,109.12,115.55ZM92.31,220.6c.59-11.86,2.58-23.57,6.92-34.66,8.83-22.53,26.56-38.33,49.12-46.5,21.47-7.77,47.31-11.81,70.06-9.15,13.08,1.53,25.14,6.83,36.48,13.29,9.72,5.54,20.28,11.43,27.47,20.2,8.85,10.81,12.24,26.8,13.3,40.42s-1.28,25.61-4.08,38.43c-16.29-7.08-35-9.64-52.9-10.82-33.67-2.21-67.77,2.35-101.06,7.1-16.74,2.39-32,7-45.4,15.09C93.65,243.18,91.77,231.46,92.31,220.6ZM81.7,209.24a134.94,134.94,0,0,0-1,21.58c-15.53,4.07-31.49-3.57-42-15.45a50.41,50.41,0,0,1-12.5-31.91c2.93-8.48,7.79-16.65,18.09-13.57C53.59,172.66,57.27,184,63,190.72c4.1,4.85,10.43,9.05,17,9.31a11.35,11.35,0,0,0,3.25-.29Q82.28,204.45,81.7,209.24Zm2.52-14.09a1,1,0,0,0-.39.55c-1,3.5-15.24-6-16.57-7.47-3.35-3.58-5.51-8.13-8.33-12.1-3.82-5.36-8.87-10.67-15.74-11.57a17.63,17.63,0,0,0-15.71,6c.23-1.06.5-2.1.8-3.14A50,50,0,0,1,33.6,155.2c.88-1.45,2-3.91,3.38-4.88,4.4-3.17,7.33.26,9.93,2.91,5.5,5.61,10.17,11.71,16.54,16.43C71.19,175.39,81,179,90,177.6A105,105,0,0,0,84.22,195.15Zm44.49,57.53c29.19-5.39,60.06-7.62,89.73-7.75,15.25-.07,30.56.93,45.51,4,14.2,2.94,29.55,6.87,40,17.55,9.18,9.39,16.64,22.73,22,34.68,6.13,13.72,6.59,29.86,6.23,44.66a183,183,0,0,1-6.39,43.2c-3.38,12.49-7.57,28.18-18.5,36.32-12.21,9.09-32.46,8.69-46.92,8-17-.78-32.63-5.46-48.78-10.45-14.93-4.61-29.55-6.59-44.93-2.9-10.85,2.59-20.95,7.7-30.68,13.31-10.25,3.54-20.54,7.07-31.23,7.79-14.77,1-27.18-4.61-35.28-17.16-7.19-11.15-11.08-24.54-13.4-37.5-5.2-29.15-2.84-62.37,11-88.92C80,272.75,101.36,257.74,128.71,252.68Z"/><path class="cls-5" d="M259.79,209c7.46-4.74,9-16.14,2.08-22.05a12.7,12.7,0,0,0-12.27-2.68,10.41,10.41,0,0,0-4,2.53,13.59,13.59,0,0,0-3.26,2.45A12.69,12.69,0,0,0,239.48,201C241.78,209.4,252.46,213.61,259.79,209Zm-10-14.1c.42,0,.85.07,1.31.13.83.12,2.32.23,2.94.87a2.49,2.49,0,0,1-.83,3.31c-1.09.53-3.08-.41-3.56-1.74A3.21,3.21,0,0,1,249.75,194.87Z"/><path class="cls-5" d="M139.34,210.47a13,13,0,0,0,7-18.6c-4-7-15.22-10-21.2-3.88a4.09,4.09,0,0,0-.82,4.83,11.16,11.16,0,0,0-1.82,6.6A13,13,0,0,0,139.34,210.47Zm-5.34-15a3.55,3.55,0,0,1,2.1,1.11c.85,1,1,2.51-.47,3.08-1.21.48-2.25-.64-2.36-1.82A3.61,3.61,0,0,1,134,195.49Z"/><path class="cls-5" d="M163.3,395a27,27,0,0,0,20.29,8.08c14.32-.45,33-14.56,29.76-30.41-.75-3.63-5.29-3.34-7.11-.93-3.54,4.71-4.89,10.32-9.28,14.52-4.56,4.36-10.87,7.09-17.23,6.24-12.24-1.64-13.44-14.2-20.62-21.9-1.94-2.08-6.15.08-5,2.93C157,380.88,157.63,389,163.3,395Z"/><path class="cls-5" d="M114.74,320.32c3.09-5.23,1.36-12.76-4.29-15.47a11.18,11.18,0,0,0-9.88.18,7.75,7.75,0,0,0-4.29,5.88,10.2,10.2,0,0,0,1.93,11.6C102.88,327.09,111.44,325.91,114.74,320.32Z"/><path class="cls-5" d="M297,316.54a10.11,10.11,0,0,0,1.26-11.77,9.68,9.68,0,0,0-4.07-3.63,3.9,3.9,0,0,0-2.78-1.53,15.32,15.32,0,0,0-4.22-.36,10.32,10.32,0,0,0-5.44,2.41,10.58,10.58,0,0,0-3.27,10.25C280.26,320.49,291.35,323.06,297,316.54Z"/><path class="cls-5" d="M365.85,314.21c2.81,3,6.06,2.79,9.55,4.42,5.81,2.72,2.88,8.19,5.88,12.87,4,6.17,14.78,6.41,20.85,3.83,17.17-7.33,10.51-28.92,1.76-39.86-5-6.26-10.66-13.49-19.51-12.21-4.22.62-10.31,1-13.92,3.6C362.12,291.1,359.12,307,365.85,314.21Zm24.78-24.8c4.46,2.36,9.27,9.23,11.91,13.23,6.17,9.29,8.72,26.64-6.47,28.55-5,.64-9.26-1.5-11-6.71-.62-1.83,0-3.63-.9-5.49a9.36,9.36,0,0,0-5.07-4.55c-4.87-2.19-10.37-1.68-11.79-8.46A16.81,16.81,0,0,1,369,294.41a1.71,1.71,0,0,0,1.5-1.07C372.13,289.34,387.43,287.71,390.63,289.41Z"/><path class="cls-5" d="M374.17,359.81c-12.53,3.91-23.77,18.82-26.83,33.5a21.11,21.11,0,0,0-.56,11.61,24.93,24.93,0,0,0,.91,4.15c.79,4.67,5.63,8.55,10.67,9.71a16.9,16.9,0,0,0,11.9-.5c3.87-1.51,7-4.29,10.15-6.89,2.25-1.86,5.4-5.16,8.41-5.62,5.14-.78,6.4,3.2,8,6.67,3.28,7,9.8,10.95,17.67,9.78,17-2.52,27.24-27.06,17.52-41-5.68-8.13-16.32-11.69-25.12-15.24C396.87,361.93,385.17,356.38,374.17,359.81Zm52.09,46.75c-2.38,4.07-6.17,8.09-10.83,9.47-7.36,2.17-11.51-2.31-14.23-8.28-2.28-5-5.22-8.79-11.25-8.23-7.08.66-12.14,7-17.53,10.85-5.54,4-12.3,4.7-17.58-.46-4-4-4.66-9.1-3.74-14.16,1.58-5.92,4.74-11.58,8.18-16.64,6.94-10.21,15.81-17.13,28.72-14a132,132,0,0,1,30.41,12.24C430,383.68,432.88,395.24,426.26,406.56Z"/><path class="cls-5" d="M468.47,383.18a12.78,12.78,0,0,0,10.15-2.46c2-1.36,3.38-3.42,5.33-4.77,4.5-3.12,7.46-2.48,12.21-2,8.36.84,15.46-.51,18.92-9.08,6.31-15.66-1-42-20.94-42.1-12-.06-13.89,12.14-24,15.07-7.38,2.13-14.14,5.31-16.18,12.85C448.12,362,455.05,380.54,468.47,383.18Zm-10.16-31.89a20.09,20.09,0,0,1,5.66-5.78c3.27-2.08,6.18-1.88,9.69-2.88,4.45-1.27,6.67-4,9.46-7.48,6-7.54,15.12-9.57,22.31-1.83,5.25,5.66,6.52,14.37,6.05,21.78-.23,3.68-.79,8.46-3.57,11.25-3.36,3.38-7.61,2.48-11.75,2.06-5-.5-9.46-.83-13.87,1.89-2.05,1.26-3.58,3.17-5.4,4.69-6,5.09-12.41,1.3-16.26-4.24C456.43,364.68,455.36,357.27,458.31,351.29Z"/><path class="cls-5" d="M319.89,343.79c.14,10.75-4.16,21.86-2.26,32.49.27,1.51,2.43,1.27,2.83,0,6.59-20.85,7.53-49.74-6.4-67.85-.68-.89-2.39-.44-2,.83C315.77,320.69,319.74,331.6,319.89,343.79Z"/><path class="cls-5" d="M316.52,384.62a25.08,25.08,0,0,0-2.87,5.8,13.88,13.88,0,0,0-1.41,6.18c.06.78,1,1.6,1.77,1,3.41-2.58,5-8.3,4.59-12.43A1.13,1.13,0,0,0,316.52,384.62Z"/><path class="cls-5" d="M64.39,328.13a1.09,1.09,0,0,0-2.13-.28c-4.53,10.87-3.56,25.54,2.44,35.69.6,1,2.57.68,2.4-.65-.74-5.75-2.14-11.42-2.61-17.2S64.53,334,64.39,328.13Z"/><path class="cls-5" d="M68.58,379.91c1.48,1.45,3.52-.7,2.24-2.24a6,6,0,0,1-1.46-2.82c-.13-1.12-1.83-1.58-2.12-.29A5.43,5.43,0,0,0,68.58,379.91Z"/></svg>