<svg id="Layer_1" data-name="Layer 1" xmlns="http://www.w3.org/2000/svg" viewBox="0 0 600 600"><defs><style>.cls-1{fill:#f7941e;}.cls-2{fill:#e27683;}.cls-3{fill:#be1e2d;}.cls-4{fill:#231f20;}</style></defs><title>doodle</title><path class="cls-1" d="M466.45,78.66c-7.27,11.13-14.3,23-22.37,33.78,2.72,1.91,5.55,3.67,8.45,5.32,7.57-11.8,16.31-23,24-34.65,8.33-12.63,15.14-26.61,23.85-38.94-1.54-1.22-3.1-2.4-4.65-3.55-1.35-1-2.74-2-4.15-3.06-2.67,6.67-7.35,12.86-11.07,18.88Q473.64,67.63,466.45,78.66Z"/><path class="cls-1" d="M455.64,119.48l.23.12c4.4,2.35,8.91,4.45,13.47,6.43,6.8-12,16-23.08,23.34-34.61q6.51-10.2,12.61-20.67c2.79-4.78,5.15-10,8.53-14.4a105.19,105.19,0,0,0-9.3-8.83C498.42,60.94,489.17,73.61,481,85.7,473.22,97.16,465.12,109.19,455.64,119.48Z"/><path class="cls-1" d="M508.29,76.24q-5.82,9.69-12,19.16c-7,10.66-14.13,22.73-23,32.29q4.92,2.06,9.88,4.05l1.65.63a7.79,7.79,0,0,1,1-1.42,189.46,189.46,0,0,0,29.32-46.81c3.49-8,6.74-16,2.17-23.49C514.93,66.12,511.29,71.26,508.29,76.24Z"/><path class="cls-2" d="M482.36,146.54c-9.36-3.85-18.83-7.49-27.91-12a110.6,110.6,0,0,1-24.15-15.86,73.34,73.34,0,0,1-9.68-10.25c-.85-1.09-3-5.23-4.6-7.64-4.25,3.7-7.12,8.9-11,13,3.74,4.41,6.4,10.29,9.83,14.51a150.43,150.43,0,0,0,19.06,18.88c14.63,12.56,31.39,28.71,52.11,26.33,3.07-4.64,5.65-9.2,6.61-14.81C494.08,150.35,489.1,149.32,482.36,146.54Z"/><path class="cls-2" d="M157.62,489.92a74.6,74.6,0,0,0-3.93,8.41c-3.94,10.89,4.49,19,12.18,25.89,6.93,6.22,15.91,14.72,25.76,15,7.23.21,10.78-4.54,13.63-10a46.89,46.89,0,0,1-26-8.37C168.84,513.63,161.18,502.33,157.62,489.92Z"/><path class="cls-3" d="M406.16,137.94Q347.39,222.45,286.7,305.61c-20.84,28.48-41.76,56.91-63,85.07q-15.44,20.44-31,40.81c-5.14,6.74-10.36,13.42-15.58,20.1-3,3.85-5.83,7.91-9.08,11.56-.43,17.74,1.72,35.07,17.39,46.46A34.27,34.27,0,0,0,211.27,516c6.75-1.18,12.1-6.11,18.66-7.08,6.79-12.59,16.06-24.18,24.1-35.82,9.82-14.23,19.59-28.49,29.53-42.63l59-84C381,291.79,419.13,237,458.24,182.81c-10.94-5.51-20.85-14.06-29.83-22.07C420.48,153.67,412.69,146.34,406.16,137.94Z"/><path class="cls-1" d="M440.12,109.47c7.07-11.87,15.52-23.19,22.9-34.72,4.72-7.39,9.41-14.8,14-22.28,3.5-5.74,6.48-12.28,10.75-17.55-1.08-.69-2.17-1.35-3.28-1.93-5.55-2.9-8.58-1.48-12.11,3.33-5.18,7.06-9.06,15.32-13.46,22.88-8.21,14.11-16,30-26.88,42.58,1.15,1.3,2.34,2.56,3.6,3.77C437.07,106.93,438.57,108.23,440.12,109.47Z"/><path class="cls-2" d="M150.75,526.19c-.83,1.15-1.75,2.32-2.65,3.61-5,7.16-5.33,12.87-.16,20.12a30.62,30.62,0,0,0,2.49,3,8.76,8.76,0,0,1,2,2c4,3.6,9.27,6.22,14.2,3.78,3.74-1.85,7-6.73,10-10.87a88.86,88.86,0,0,1-15.18-11.23A109.68,109.68,0,0,1,150.75,526.19Z"/><path class="cls-4" d="M529.16,52.56c-6.16-8.76-15.4-15.82-23.87-22.21-7.85-5.92-17.75-14.42-28.29-13.07-9.09,1.16-14.66,8.92-19,16.24-6.54,11-12.7,22.25-18.92,33.43-4.67,8.38-9.8,16.94-13.54,25.94a13.46,13.46,0,0,0-3.94-4.57c-11.66-7.57-24.77,14.68-25.89,23.9a3.45,3.45,0,0,0,0,.64c-.93,4.26.25,8.64,2.3,12.76-.15.18-.3.36-.44.56q-59.82,86.26-121.46,171.25c-20.36,28.1-40.95,56-61.52,84Q199.39,402,184.11,422.55,176,433.5,167.91,444.5c-2.93,4-6.15,7.87-8.83,12a5.56,5.56,0,0,0-.91,1.49,36.87,36.87,0,0,0-3.48,7.41,3.65,3.65,0,0,0,1,3.71,53,53,0,0,0-.24,6.17c-2.86,2.63-4.85,6.07-6.9,9.81-3.17,5.77-7.33,12.87-7.44,19.66A26,26,0,0,0,144.85,518c-5.21,3.2-9.55,10-11.52,14.67-3.24,7.69.07,16.75,4.72,23.61-2.76,4.51-5.45,9-8.6,13.27s-7,8.27-8.93,13.47c-1.46,3.88,2.9,7.53,6.52,6.52,9.35-2.62,17.66-12.64,23.15-21.48,5.08,3.15,10.92,5,16.67,3.82,9.61-2,16.59-12,21.95-19.77a26.8,26.8,0,0,0,7.53-.06c12.65-1.92,20.84-13.34,24.25-25a30.8,30.8,0,0,0,9.64-4.65,4.13,4.13,0,0,0,2-1.08c12-11.15,21-26,30.48-39.21C272.78,468.09,283,454.08,293,440q30.18-42.63,60.3-85.3Q412.38,271,472,187.73a42.75,42.75,0,0,0,19.26-.34,6.4,6.4,0,0,0,5-4.56c.08-.08.17-.14.25-.23,8.08-9.43,16.5-29.44,7-40.6a19.07,19.07,0,0,0-5.08-4c13.89-16.89,25.77-35.91,33.14-56.55C535.11,71.48,535.41,61.44,529.16,52.56Zm-15.34,3.79c-3.38,4.39-5.74,9.62-8.53,14.4q-6.12,10.45-12.61,20.67C485.33,103,476.14,114.07,469.34,126c-4.56-2-9.07-4.08-13.47-6.43l-.23-.12c9.48-10.29,17.58-22.32,25.35-33.78,8.18-12.09,17.43-24.76,23.53-38.18A105.19,105.19,0,0,1,513.82,56.35ZM495.76,40.62c1.55,1.15,3.11,2.33,4.65,3.55-8.71,12.33-15.52,26.31-23.85,38.94-7.72,11.7-16.46,22.85-24,34.65-2.9-1.65-5.73-3.41-8.45-5.32,8.07-10.78,15.1-22.65,22.37-33.78q7.19-11,14.09-22.22c3.72-6,8.4-12.21,11.07-18.88C493,38.58,494.41,39.61,495.76,40.62ZM458.91,59.2c4.4-7.56,8.28-15.82,13.46-22.88,3.53-4.81,6.56-6.23,12.11-3.33,1.11.58,2.2,1.24,3.28,1.93-4.27,5.27-7.25,11.81-10.75,17.55-4.58,7.48-9.27,14.89-14,22.28-7.38,11.53-15.83,22.85-22.9,34.72-1.55-1.24-3.05-2.54-4.49-3.92-1.26-1.21-2.45-2.47-3.6-3.77C442.87,89.24,450.7,73.31,458.91,59.2ZM166.66,558.74c-4.93,2.44-10.18-.18-14.2-3.78a8.76,8.76,0,0,0-2-2,30.62,30.62,0,0,1-2.49-3c-5.17-7.25-4.84-13,.16-20.12.9-1.29,1.82-2.46,2.65-3.61a109.68,109.68,0,0,0,10.7,10.45,88.86,88.86,0,0,0,15.18,11.23C173.67,552,170.4,556.89,166.66,558.74Zm25-19.52c-9.85-.28-18.83-8.78-25.76-15-7.69-6.9-16.12-15-12.18-25.89a74.6,74.6,0,0,1,3.93-8.41c3.56,12.41,11.22,23.71,21.68,31a46.89,46.89,0,0,0,26,8.37C202.41,534.68,198.86,539.43,191.63,539.22ZM342.55,346.46l-59,84c-9.94,14.14-19.71,28.4-29.53,42.63-8,11.64-17.31,23.23-24.1,35.82-6.56,1-11.91,5.9-18.66,7.08a34.27,34.27,0,0,1-25.86-6.39c-15.67-11.39-17.82-28.72-17.39-46.46,3.25-3.65,6.08-7.71,9.08-11.56,5.22-6.68,10.44-13.36,15.58-20.1q15.57-20.36,31-40.81c21.26-28.16,42.18-56.59,63-85.07q60.78-83.09,119.46-167.67c6.53,8.4,14.32,15.73,22.25,22.8,9,8,18.89,16.56,29.83,22.07C419.13,237,381,291.79,342.55,346.46ZM492.64,158.74c-1,5.61-3.54,10.17-6.61,14.81-20.72,2.38-37.48-13.77-52.11-26.33a150.43,150.43,0,0,1-19.06-18.88c-3.43-4.22-6.09-10.1-9.83-14.51,3.87-4.1,6.74-9.3,11-13,1.59,2.41,3.75,6.55,4.6,7.64a73.34,73.34,0,0,0,9.68,10.25,110.6,110.6,0,0,0,24.15,15.86c9.08,4.47,18.55,8.11,27.91,12C489.1,149.32,494.08,150.35,492.64,158.74Zm22.47-74.6A189.46,189.46,0,0,1,485.79,131a7.79,7.79,0,0,0-1,1.42l-1.65-.63q-5-2-9.88-4.05c8.85-9.56,16-21.63,23-32.29q6.19-9.47,12-19.16c3-5,6.64-10.12,9-15.59C521.85,68.14,518.6,76.15,515.11,84.14Z"/></svg>