<svg id="Layer_1" data-name="Layer 1" xmlns="http://www.w3.org/2000/svg" viewBox="0 0 600 600"><defs><style>.cls-1{fill:#f2b879;}.cls-2{fill:#fff;}.cls-3{fill:#be1e2d;}.cls-4{fill:#00aeef;}.cls-5{fill:#231f20;}</style></defs><title>doodle</title><path class="cls-1" d="M425.59,465.15q44.9-5.65,89.8-11.16c-10-7.74-18.58-17.24-21.31-29.94-2.07-9.6.08-20.91,5.58-29.69a535,535,0,0,1-66.56,15c-29.65,4.88-59.66,7-89.61,9.15-15.69,1.13-31.38,2.18-47.08,3.27-14.69,1-29.66,1.26-44.22,3.56C231,428.68,200.62,443.45,208,470.38c3.38,12.36,16.5,16.92,28.06,17.75,11.21.8,22.24-.72,33.36-.35-.3-1.63-.58-3.26-.89-4.88-2-10.47-4.95-21.23-5-31.95a5,5,0,0,1-.25-3.32c3.94-12.49,22.75-13.67,33.64-14,15.57-.48,19.64,10,22.84,23.46a220.2,220.2,0,0,1,4,21.82c7-1.64,14.34-2.21,21.31-3.2,8.95-1.28,17.91-2.45,26.87-3.62C389.82,469.76,407.7,467.41,425.59,465.15Z"/><path class="cls-2" d="M431.33,194a6.84,6.84,0,0,0,7.24-7.31c-.59-4.71-4.91-5.23-8.61-6.4a13.1,13.1,0,0,0-4.17,4.43A6.94,6.94,0,0,0,431.33,194Z"/><path class="cls-3" d="M211.13,429.36a7.36,7.36,0,0,1-1-2.15C192.5,365.05,178,302,165.55,238.64c-6.24-31.72-12.23-63.51-17.6-95.39-4.69-27.82-10.18-55.76-13.14-83.84a5.16,5.16,0,0,1-4.05-.87c-4.14-2.74-10.28,14.38-10.95,16.91-1.9,7.17-2.23,14.66-2.13,22,.22,15.52,3,30.8,6.21,46,11.39,54.75,23.2,109.46,36.53,163.77q9.92,40.38,21.44,80.33,6,20.7,12.54,41.23c1.59,5,3.44,10,5.26,15.06A55.51,55.51,0,0,1,211.13,429.36Z"/><path class="cls-4" d="M179,236.54C191.6,298.48,205.59,360.13,222.75,421a57.72,57.72,0,0,1,5.53-2.72c13.78-5.87,28.72-7.57,43.5-9,17.09-1.61,34.21-2.93,51.31-4.35,34.82-2.91,69.86-4.73,104.38-10.32,33.16-5.36,65-14.49,96.94-24.65-.54-3.7-.81-7.48-1.36-11.17q-1.74-11.88-4.16-23.66c-3-14.75-6.69-29.36-10.64-43.89-8.21-30.16-17.41-60-24.77-90.44-7.52-31.1-13.94-62.49-20.55-93.79q-4.87-23.13-9.69-46.26c-1.71-8.22-3.52-16.46-5-24.73-.55-3.14-1.42-6.51-1.21-9.61-5.11-.53-10.09-1.15-15.31-.57-5.91.65-11.73,2.17-17.55,3.34q-19.72,4-39.65,6.74a667,667,0,0,1-79,6.27c-27.29.54-54.54-1-81.67,2.82-13.43,1.86-26.8,4.26-40.18,6.45q-9.37,1.55-18.77,3c-3.52.53-7.15,1.39-10.74,1.62,7,28.57,11.37,57.93,16.86,86.81C167,174.1,172.72,205.37,179,236.54Zm280.16-.95a7.48,7.48,0,0,1-2.17,5.23,7.38,7.38,0,0,1-10.45,0,7.38,7.38,0,0,1,0-10.45,7.38,7.38,0,0,1,10.45,0A7.44,7.44,0,0,1,459.2,235.59ZM448.7,121c3.59,7.62,6.55,16.72,4.53,25.16a1.32,1.32,0,0,1-2.52,0c-2.49-7.7-2.73-16.25-4.29-24.2C446.17,120.67,448.06,119.67,448.7,121Zm-11.58-72c2.2,9.75,3.86,19.53,5.34,29.41,1.32,8.84,3.39,18.18,3,27.15A1.27,1.27,0,0,1,443,106C440,97,439.41,87,438.17,77.74c-1.27-9.47-2.33-18.89-2.91-28.43A1,1,0,0,1,437.12,49.06ZM417.61,175.79a18.11,18.11,0,0,1,11-5.66c4.35-2.93,10.57-1.72,15,1.31a19.63,19.63,0,0,1,8.16,16.39c-.29,12.8-13.8,22.27-25.81,17.86C413.67,201.16,409,186,417.61,175.79ZM312.73,220.45c.52-2.92,4.4-2.77,5.8-.76,6.48,9.32,9.32,29.16,25.29,23.61,17.53-6.1,13.48-26.19,10-40-1.59-6.26,7.29-10.19,10.51-4.43,10.82,19.36,6.85,49.56-17.15,56.52C326.56,261.37,309.22,240,312.73,220.45ZM237.41,261a7.88,7.88,0,0,1-3.8,2.62l-.73.27c-2.49.91-5.6-.16-7.4-1.95a7.62,7.62,0,0,1,0-10.75,7.43,7.43,0,0,1,7.4-1.95l.73.26a7.75,7.75,0,0,1,4.37,3.37,8.65,8.65,0,0,1,1,3.69A7,7,0,0,1,237.41,261ZM222.49,207.6C222.52,196,238,191,247,195.72c9.76,5.1,11,19.07,4.07,27-7.4,8.39-21.47,5.65-26.9-3.55a14.64,14.64,0,0,1-1.61-10.92A4.3,4.3,0,0,1,222.49,207.6Zm-21.14,32.57c4.7,9.92,8.27,21.59,7.39,32.7a1.5,1.5,0,0,1-2.93.4c-3.09-10.36-4.64-21.46-7-32C198.46,239.77,200.64,238.69,201.35,240.17ZM169.86,110c5.46,15.89,8.71,32.12,12.11,48.54s8.82,32,12.63,48.14a1.18,1.18,0,0,1-2.14.9c-8.72-13.47-11.43-31-14.41-46.48-3.23-16.85-5.85-33.93-10.44-50.48A1.17,1.17,0,0,1,169.86,110Z"/><path class="cls-3" d="M310.87,482.69c-.77-6.42-1.86-12.81-3.24-19.12-1.2-5.46-1.91-15.48-8.16-17-5.37-1.32-13.41.65-18.59,1.81-3.17.7-5.73,1.33-8.43,3.12-.13.09-.24.2-.36.3,3.84,8.85,5.64,18.64,7.57,28q3.48,16.85,6.25,33.81c1.77,10.83,3.37,21.69,4.69,32.58.83,6.79,1.92,13.8,2.56,20.79a79.6,79.6,0,0,1,8.6-9.16A25.59,25.59,0,0,1,313,551.55c-1.53-10.46.23-22.16.09-32.44A340.91,340.91,0,0,0,310.87,482.69Z"/><path class="cls-2" d="M241.64,213.71c1.44-2,1.12-5.72-1.48-6.47s-4.64,1.35-6.33,3.25a4.32,4.32,0,0,0,1,2.61C236.46,215.2,240,216.11,241.64,213.71Z"/><path class="cls-5" d="M371.93,485c18.41-2,36.83-4,55.24-6.11q54.46-6.19,108.9-12.6c6.91-.82,10.55-9.7,3.74-13.8-11.17-6.71-24.39-14.37-29.82-26.88-6.07-14,2.27-25.65,13.12-33.88a35.07,35.07,0,0,0,3.84-1.42c4.41-1.89,9.61-3.57,11.2-8.48a4.34,4.34,0,0,0,.17-1.57,5.28,5.28,0,0,0,.34-.89c3.07-10.58-.82-24.27-2.64-34.94-2.12-12.35-4.79-24.6-7.77-36.76-6-24.45-13.3-48.53-20.13-72.75-14.09-50-24.31-101-35.84-151.65-3.25-14.32-6.49-28.65-9.89-42.94-.44-1.83-2.7-14-6.51-19a4.87,4.87,0,0,0-1.7-4.63c-9.43-7.48-21.33-6-32.48-3.84-12.94,2.46-25.78,5.21-38.79,7.26a672.42,672.42,0,0,1-85.81,8c-27.47.8-54.81-.31-82.11,3.58-13.9,2-27.65,4.79-41.43,7.46q-10.84,2.1-21.65,4.33c-3.82.79-7.53,1.3-11,2.55a4.64,4.64,0,0,0-6.52.7c-7-3.79-15.68,2.64-20,8.78-7.38,10.4-9.7,23.5-10.18,36-1.2,31.33,7.74,62.81,14.16,93.21,13.16,62.31,26.76,124.58,43.47,186.05,4.71,17.33,9.65,34.59,15,51.75,5.21,16.84,9.44,35.53,17.73,51.15a6.81,6.81,0,0,0,2.12,2.43c10.8,30.8,48.17,22.87,74.37,20.61,1.09,6.19,2.13,12.39,3.08,18.61,1.72,11.31,3.17,22.67,4.49,34,1.25,10.8,1.45,22,3.62,32.67.8,3.94,4.56,4.86,7.55,3.67a5,5,0,0,0,2.76-1.17c7.74-6.53,15.31-22.87,27-21.37,4.49.57,6.64-4.45,5.52-8.13,1.87-7.1,1.27-14.87,1.34-22.14.09-8.65.05-17.29-.29-25.93q-.35-8.69-1.14-17.38c6.71-.05,13.54-1.12,20.14-1.76C354.05,486.91,363,486,371.93,485Zm-217-430.54q9.41-1.41,18.77-3c13.38-2.19,26.75-4.59,40.18-6.45,27.13-3.77,54.38-2.28,81.67-2.82a667,667,0,0,0,79-6.27q19.92-2.77,39.65-6.74c5.82-1.17,11.64-2.69,17.55-3.34,5.22-.58,10.2,0,15.31.57-.21,3.1.66,6.47,1.21,9.61,1.46,8.27,3.27,16.51,5,24.73q4.81,23.13,9.69,46.26c6.61,31.3,13,62.69,20.55,93.79,7.36,30.39,16.56,60.28,24.77,90.44,4,14.53,7.64,29.14,10.64,43.89q2.4,11.78,4.16,23.66c.55,3.69.82,7.47,1.36,11.17-31.92,10.16-63.78,19.29-96.94,24.65C393,400.22,357.91,402,323.09,405c-17.1,1.42-34.22,2.74-51.31,4.35-14.78,1.39-29.72,3.09-43.5,9a57.72,57.72,0,0,0-5.53,2.72C205.59,360.13,191.6,298.48,179,236.54c-6.32-31.17-12-62.44-18-93.68-5.49-28.88-9.83-58.24-16.86-86.81C147.79,55.82,151.42,55,154.94,54.43Zm44.72,389.42c-1.82-5.05-3.67-10.07-5.26-15.06q-6.54-20.54-12.54-41.23-11.6-39.92-21.44-80.33c-13.33-54.31-25.14-109-36.53-163.77-3.16-15.16-6-30.44-6.21-46-.1-7.39.23-14.88,2.13-22,.67-2.53,6.81-19.65,10.95-16.91a5.16,5.16,0,0,0,4.05.87c3,28.08,8.45,56,13.14,83.84,5.37,31.88,11.36,63.67,17.6,95.39C178,302,192.5,365.05,210.13,427.21a7.36,7.36,0,0,0,1,2.15A55.51,55.51,0,0,0,199.66,443.85ZM313,551.55a25.59,25.59,0,0,0-11.19,6.29,79.6,79.6,0,0,0-8.6,9.16c-.64-7-1.73-14-2.56-20.79-1.32-10.89-2.92-21.75-4.69-32.58q-2.78-17-6.25-33.81c-1.93-9.39-3.73-19.18-7.57-28,.12-.1.23-.21.36-.3,2.7-1.79,5.26-2.42,8.43-3.12,5.18-1.16,13.22-3.13,18.59-1.81,6.25,1.53,7,11.55,8.16,17,1.38,6.31,2.47,12.7,3.24,19.12A340.91,340.91,0,0,1,313,519.11C313.18,529.39,311.42,541.09,313,551.55Zm10.8-72.65a220.2,220.2,0,0,0-4-21.82c-3.2-13.46-7.27-23.94-22.84-23.46-10.89.34-29.7,1.52-33.64,14a5,5,0,0,0,.25,3.32c0,10.72,2.94,21.48,5,31.95.31,1.62.59,3.25.89,4.88-11.12-.37-22.15,1.15-33.36.35-11.56-.83-24.68-5.39-28.06-17.75-7.36-26.93,23-41.7,44.21-45.05,14.56-2.3,29.53-2.54,44.22-3.56,15.7-1.09,31.39-2.14,47.08-3.27,29.95-2.15,60-4.27,89.61-9.15a535,535,0,0,0,66.56-15c-5.5,8.78-7.65,20.09-5.58,29.69,2.73,12.7,11.27,22.2,21.31,29.94q-44.91,5.49-89.8,11.16c-17.89,2.26-35.77,4.61-53.66,6.93-9,1.17-17.92,2.34-26.87,3.62C338.09,476.69,330.72,477.26,323.75,478.9Z"/><path class="cls-5" d="M347.15,255.4c24-7,28-37.16,17.15-56.52-3.22-5.76-12.1-1.83-10.51,4.43,3.51,13.8,7.56,33.89-10,40-16,5.55-18.81-14.29-25.29-23.61-1.4-2-5.28-2.16-5.8.76C309.22,240,326.56,261.37,347.15,255.4Z"/><path class="cls-5" d="M224.15,219.13c5.43,9.2,19.5,11.94,26.9,3.55,6.95-7.89,5.69-21.86-4.07-27-9-4.71-24.46.24-24.49,11.88a4.3,4.3,0,0,0,0,.61A14.64,14.64,0,0,0,224.15,219.13Zm16-11.89c2.6.75,2.92,4.43,1.48,6.47-1.69,2.4-5.18,1.49-6.85-.61a4.32,4.32,0,0,1-1-2.61C235.52,208.59,237.5,206.47,240.16,207.24Z"/><path class="cls-5" d="M426,205.69c12,4.41,25.52-5.06,25.81-17.86a19.63,19.63,0,0,0-8.16-16.39c-4.45-3-10.67-4.24-15-1.31a18.11,18.11,0,0,0-11,5.66C409,186,413.67,201.16,426,205.69Zm-.22-21a13.1,13.1,0,0,1,4.17-4.43c3.7,1.17,8,1.69,8.61,6.4a6.84,6.84,0,0,1-7.24,7.31A6.94,6.94,0,0,1,425.79,184.68Z"/><path class="cls-5" d="M233.61,249.48l-.73-.26a7.43,7.43,0,0,0-7.4,1.95,7.62,7.62,0,0,0,0,10.75c1.8,1.79,4.91,2.86,7.4,1.95l.73-.27a7.88,7.88,0,0,0,3.8-2.62,7,7,0,0,0,1.57-4.44,8.65,8.65,0,0,0-1-3.69A7.75,7.75,0,0,0,233.61,249.48Z"/><path class="cls-5" d="M446.58,230.37a7.38,7.38,0,0,0,0,10.45,7.38,7.38,0,0,0,10.45,0,7.38,7.38,0,0,0,0-10.45,7.38,7.38,0,0,0-10.45,0Z"/><path class="cls-5" d="M178.05,161.05c3,15.5,5.69,33,14.41,46.48a1.18,1.18,0,0,0,2.14-.9c-3.81-16.17-9.26-31.81-12.63-48.14s-6.65-32.65-12.11-48.54a1.17,1.17,0,0,0-2.25.62C172.2,127.12,174.82,144.2,178.05,161.05Z"/><path class="cls-5" d="M205.81,273.27a1.5,1.5,0,0,0,2.93-.4c.88-11.11-2.69-22.78-7.39-32.7-.71-1.48-2.89-.4-2.55,1.08C201.17,251.81,202.72,262.91,205.81,273.27Z"/><path class="cls-5" d="M443,106a1.27,1.27,0,0,0,2.49-.33c.36-9-1.71-18.31-3-27.15-1.48-9.88-3.14-19.66-5.34-29.41a1,1,0,0,0-1.86.25c.58,9.54,1.64,19,2.91,28.43C439.41,87,440,97,443,106Z"/><path class="cls-5" d="M450.71,146.18a1.32,1.32,0,0,0,2.52,0c2-8.44-.94-17.54-4.53-25.16-.64-1.35-2.53-.35-2.28,1C448,129.93,448.22,138.48,450.71,146.18Z"/></svg>