<svg id="Layer_1" data-name="Layer 1" xmlns="http://www.w3.org/2000/svg" viewBox="0 0 600 600"><defs><style>.cls-1{fill:#be1e2d;}.cls-2{fill:#fff;}.cls-3{fill:#231f20;}.cls-4{fill:#754c29;}.cls-5{fill:#a97c50;}</style></defs><title>doodle</title><path class="cls-1" d="M291.34,324.83a108.43,108.43,0,0,1-8.06-12.74c-.4,5.3-1.13,10.61-1.18,15.93-.08,8.05,1.56,15.49,2.75,23.38.39,2.58-3.09,4.56-4.52,1.9-3.76-6.95-4.34-15.61-4.35-23.39,0-3.36.06-6.83.29-10.31a31.55,31.55,0,0,1-5.66,6.8,68.74,68.74,0,0,1-17,10.85c1.58,7.67,2.73,15,6.91,22s10.85,13.18,19.33,14.26c8.28,1.05,15.85-3.74,20.24-10.54,4.73-7.31,4.23-14.93,5.54-23A73.28,73.28,0,0,1,291.34,324.83Z"/><path class="cls-2" d="M369,252.56c2.41,1.71,6.07-.64,6.38-3.29.4-3.4-2.75-6.91-6.08-7.2C366.42,243.9,366.11,250.54,369,252.56Z"/><path class="cls-3" d="M281.17,293.22c.89-1.26,1.8-2.65,2.15-3a63.15,63.15,0,0,1,5-4.83c3.64-3.17,8.18-6,10.64-10.27,3.14-5.47,1.19-10.26-4.77-11.9a94.72,94.72,0,0,0-16.82-2.58c-4.6-.38-14.22-1.7-17.63,2.15-4.17,4.7,1.4,10.68,4.78,13.9,3.92,3.74,8,7.32,12,11C278.35,289.4,280.22,291.06,281.17,293.22Z"/><path class="cls-4" d="M159.3,166c6.82-9.24,2.14-27.66,17.62-28.51,2.16-.11,4.34.32,6.48.16a8.58,8.58,0,0,0,2.94-.51c2-1,1.54-.71,1.35-3-.31-4-4-8.54-5.66-12.16a141.74,141.74,0,0,1-12.74-73c1.29-13.44,4.15-27,11.29-38.44-12.27,5.06-20.68,15.73-26.22,28C147.75,53,143.7,69,141,84.75a230.13,230.13,0,0,0,3.72,95.55C149.74,175.78,155.18,171.55,159.3,166Z"/><path class="cls-5" d="M200.26,401.48c.09.44.15.89.2,1.33l.61.29c-.42-2.13,1.62-4.64,3.92-3.76,34.82,13.25,72.42,12.45,109.06,11.16a2.82,2.82,0,0,1,2.76,1.52,215.06,215.06,0,0,0,57.25-7.56,3,3,0,0,1,2.65.47,681.59,681.59,0,0,0,55.7-52.73c2.25-2.39,6.34.08,5.45,3.17-.31,1.08-.56,2.15-.77,3.22a117.68,117.68,0,0,0,12.4-36.08c.42-2.44,3.94-3.18,5.51-1.46.65.71,1.27,1.44,1.88,2.18a288.67,288.67,0,0,0-16.5-82.09,3.32,3.32,0,0,1,3.18-4.18,24.65,24.65,0,0,1,8.43,2,108.46,108.46,0,0,0-21.2-42.93,3.57,3.57,0,0,1-3.71-4.28c-4.33-4.75-8.95-9.53-10.35-16-.83-3.8.39-9-3-11.69-2-1.58-5.25-1.82-7.68-2.39-4.61-1.1-9.38-3-10.32-8.22-.68-3.79,1.35-7.23,3-10.48q3.27-6.37,6.43-12.8,12.6-25.78,22.9-52.6,5.13-13.38,9.68-27c2.34-7,6.14-15.22,6.46-23C441.67,31.37,440,37.16,438.6,40q-3.74,7.63-8,15a261,261,0,0,1-19.32,29,245.41,245.41,0,0,1-42.52,43.65c3,1,6,2.07,8.94,3.21,3.89,1.5,2.45,7.35-1.75,6.34-14.47-3.47-28.55-8.78-43-12.55a302.33,302.33,0,0,0-43.71-8.48A183.48,183.48,0,0,0,206.9,126c-2.21.78-3.51-2.6-1.56-3.7a93.89,93.89,0,0,1,10.35-5c-30.1-22.52-33.3-62.65-32.44-98.33-6.85,13.85-8.24,30.91-7.94,45.79A135.68,135.68,0,0,0,186.07,115c1.68,3.93,3.55,7.78,5.6,11.52,1.57,2.87,3.63,5.79,3.38,9.22-.41,5.48-6.17,8.13-11,8.41-4.2.24-9.74-1.54-12.15,3.06-1.41,2.68-1.45,6.19-1.9,9.12a30.4,30.4,0,0,1-7.14,15.51c-7,8.31-18,13.89-23.27,23.59l6.55,1.75c2.43.65,2.79,3.44,1.37,5.19a124.23,124.23,0,0,0-27.36,68.89l5.87-6.58c2-2.25,6.21.12,5.18,3a100,100,0,0,0,3.58,75.47,52.87,52.87,0,0,1,4.88-10.5c1.28-2.12,5.3-2.06,5.73.74a111.17,111.17,0,0,0,28.76,59,34,34,0,0,1,.05-7.68c.33-2.79,4.29-4.66,5.86-1.59a43.35,43.35,0,0,0,16.83,17.85C197.81,399.83,199.89,399.77,200.26,401.48ZM336.59,347c-8,3.63-17.21,1.36-24.6-2.81a41.18,41.18,0,0,1-8.2,24.44c-5.58,7.19-14.29,12-23.54,11.12-18.11-1.7-32.12-22.39-31.82-40.31-2.42,1-4.85,1.82-7.24,2.56-9.86,3.09-21.78,3.58-30.52-2.79-6.33-4.62-9.17-15.11-.82-19.31a2.94,2.94,0,0,1,3,5.08c-4.78,3.3.3,8.45,3.51,10.21a24.28,24.28,0,0,0,11.2,2.63c8.4.12,16.42-3.23,23.86-6.78,6.62-3.17,13.57-6.75,18.29-12.54,4.42-5.43,5.81-12.24,7.39-18.88a3.39,3.39,0,0,1-.23-2.13,2.45,2.45,0,0,1-.12-.41c-.64-3.74-6.68-7.43-9.4-9.9s-5.6-4.9-8.23-7.52c-4.11-4.09-7.51-9.14-6.65-15.2,1.94-13.71,22.79-10.73,32.24-9.46,5.81.78,13.41,1.06,18.12,5,4.2,3.56,5.09,9.25,3.58,14.36-1.89,6.37-7.28,10.4-12.13,14.48a67.28,67.28,0,0,0-7.42,7.2c-1,1.17-1.93,2.72-3.09,3.9,3.28,5.24,5.76,11.05,9.09,16.27A77.14,77.14,0,0,0,306,332.14c5.77,5.21,13.27,10.17,21.3,10.32s13.62-5.32,14.37-13.17a2.74,2.74,0,0,1,5.35-.73C349.44,336.28,343.39,344,336.59,347Zm-11-99.93c1.13.74,2.3,1.41,3.42,2.17,1.36.91,2.69,1.68,3.24,3.3a2.45,2.45,0,0,1-2.35,3.08c-1.71-.08-2.84-1.19-4.09-2.24-1-.87-2-1.79-3-2.67C320.77,249,323.39,245.71,325.57,247.11ZM359,243.68c1.1-6.94,9-10.27,15.32-8.63a14.33,14.33,0,0,1,10.52,13.47c.45,11.35-13.28,18.21-22,10.59-4.06-3.55-5-9.34-3.86-14.47A3.43,3.43,0,0,1,359,243.68Zm-6.11,37.84c4.36,6.05,8.73,14.75,8.3,22.39a2.79,2.79,0,0,1-5.45.74c-2.3-6.59-3.42-12.76-7.32-18.77s-9.21-10.49-15-14.72c-1.93-1.42-.83-5.29,1.79-4.22C342.41,269.87,348.33,275.24,352.85,281.52Zm-77.79-64.31c11.13-.05,22.39,2.38,32.88,5.95,9.86,3.36,21.06,7.71,28.88,14.74,2.43,2.18-.67,5.24-3.19,4.14-9.85-4.31-18.7-10-29-13.57-9.84-3.37-19.94-5.21-30.16-7C272,221.06,272.69,217.23,275.06,217.21Zm-2.73,16.66c13.9-1.52,30.74.64,42.38,8.94,2.28,1.63.94,6.1-2.06,4.89-12.85-5.17-24.74-8.86-38.81-7.92A71.37,71.37,0,0,0,236,253.94c-1.94,1.46-4.38-1.79-2.58-3.34A70.79,70.79,0,0,1,272.33,233.87Zm-42.79-5.51c7.83-3.47,16.28-7.59,24.89-8.45,2.25-.23,3.26,3.42,1.18,4.33-7.77,3.41-16.5,4.95-24.51,7.83C228.94,232.85,227.45,229.28,229.54,228.36ZM232,276.11c2.36-.18,3.32,3.44,1.22,4.49-5.72,2.84-11.2,4.87-15.89,9.44a37,37,0,0,0-9.84,16.61c-.73,2.67-4.63,1.53-4.1-1.13C206.05,292.18,217.45,277.23,232,276.11Zm-45.31-19.77c-5.89-5.56-4.89-16.21,1.53-20.08,2.76-2.5,7.13-3,10.77-1.84a15.61,15.61,0,0,1,10.26,11.74C211.9,259.83,195.54,264.69,186.71,256.34Z"/><path class="cls-2" d="M197.84,241.06a7.78,7.78,0,0,0-1.58-.54,2.55,2.55,0,0,0-2.71,2.92,2.76,2.76,0,0,1-1.79,2.84c.46,2.66,2.59,5.6,5.49,3.44a6.66,6.66,0,0,0,2.17-3.52,5,5,0,0,0-.84-4.49A4.06,4.06,0,0,0,197.84,241.06Z"/><path class="cls-4" d="M404.07,507.28c-.17-3.76-.39-4.73-4.21-5.39-1.83-.31-4.12.05-6,.07l-7.26.07c.94,7.19-1.31,16.07-2.9,22.42a111.59,111.59,0,0,1-9.57,24.07,75.81,75.81,0,0,0-3.39,7.11c-.17.45-.33.9-.49,1.35a12.28,12.28,0,0,1,1.58.35c3.95-.61,8.08-3.56,11.32-5.71,7.65-5.09,13.73-11.58,19.33-18.74A121.18,121.18,0,0,0,404.07,507.28Z"/><path class="cls-4" d="M412.51,130.12q-3.31,6.87-6.78,13.68c-1.67,3.26-5.83,8.58-1.12,10.69,4.89,2.18,10.61,1.51,14.63,5.66,2.22,2.28,3,5.31,3.35,8.4.49,4.48.8,8.13,3.5,12,1.56,2.22,3.28,4.31,5.05,6.36,18.71-20.68,28.61-47.79,31.28-75.39a210.54,210.54,0,0,0-1.13-48.32A95.58,95.58,0,0,0,455.9,41a122.61,122.61,0,0,0-5.44-11.25c-.71,6.47-3.16,12.81-5.19,19q-5,15.42-10.87,30.59Q424.52,105.17,412.51,130.12Z"/><path class="cls-5" d="M473.28,426.94c3.28-.76,6.62-1.1,9.83-2.3a38.88,38.88,0,0,0,10.72-6.27,47.63,47.63,0,0,0,14.29-20.15c3.28-8.72,4.36-18.05,4.2-27.32a104.25,104.25,0,0,0-1.17-14.34,49.65,49.65,0,0,0-1.53-6.94c-.6-2-2.53-4.42-2.87-6.35a17.14,17.14,0,0,0-1.39,2.28,24.71,24.71,0,0,0-2,6.16c-.86,4.23-1,8.57-1.43,12.85a48.48,48.48,0,0,1-6.2,19.78c-6.13,10.38-16.11,18.35-27.71,21.29a53.81,53.81,0,0,1,3.7,11.8C472.38,420.58,472.88,423.75,473.28,426.94Z"/><path class="cls-5" d="M396.94,571.29c1.47,3,9.27-.77,11.28-1.9a41.39,41.39,0,0,0,7.3-5.4,133.62,133.62,0,0,0,12.32-12.86,165.41,165.41,0,0,0,34-66.08,163.67,163.67,0,0,0,5.12-36.57c.31-12-.06-25-3.89-36.51-2-6-5.42-11.81-11.19-14.92-4.79-2.58-10.4-3.16-15.73-3.63-9.87-.88-19.88-1.38-27.65-8.18q-16.59,15.61-34.24,30.08a17,17,0,0,1-2,1.61c-2.71,1.88-6-1.88-4.5-4.31a224.4,224.4,0,0,1-53.64,5.75,2.91,2.91,0,0,1-2.47-1.26c-33.67,1.12-68.17,1.52-100.47-8.91a3.26,3.26,0,0,1-3.95,3.66,49.57,49.57,0,0,1-7.05-2.28c-.2,1.6-.41,3.18-.45,4.75a75.88,75.88,0,0,0,.9,14.28A101.28,101.28,0,0,0,209,455.34a120.63,120.63,0,0,0,10.3,18.25,2.43,2.43,0,0,1,2.67,2.35l.06,1.31.95,1.21c5.5,6.66,11.75,10.76,19.31,14.68,3,1.56.86,6.08-2.23,5.3-6.8-1.73-12.71-5.83-17.81-11.09a201.24,201.24,0,0,1-6.57,47.43,216,216,0,0,1-9.54,28.67c-3.09,7.52-7,14.8-8.88,22.72,19.72.54,35.3-14.36,44.13-31.1,5-9.43,8.47-19.64,11.42-29.87,2.63-9.1,3.83-18.58,6.13-27.73-2.63-1.2-5.15-2.47-7.54-3.78-2.11-1.17-.66-4.63,1.64-3.89l7.76,2.52a3,3,0,0,1,4.95,1.56c4.26,1.3,8.55,2.49,12.89,3.4,9.63,2,18.32,1.53,27.93,0,3.92-.64,5.51,4.69,1.66,6-1.11.38-2.25.69-3.38,1,.83,8.63-.88,17.79-2.52,26.26a167.45,167.45,0,0,1-7.53,26.62,185.49,185.49,0,0,1-10.3,22.55c-1.15,2.15-2.78,3.4-.16,4.73,1.65.84,4.13.21,5.8-.13a50.83,50.83,0,0,0,11-3.75c32.19-15,43.78-50.27,54.24-81.48a2.83,2.83,0,0,1,.46-1.35c.05-.17.1-.33.16-.49a3.41,3.41,0,0,1,6-.81c7.29-.26,14.57-.56,21.86-.7l14-.26c2.68,0,5.65-.46,8.18.6,5.43,2.29,4.59,10.19,4.68,14.91a129,129,0,0,1-1.42,21.15,2.83,2.83,0,0,1-.34,2.53l-.1.17a124.07,124.07,0,0,1-4.63,18.61c-1.06,3.18-2.26,6.31-3.56,9.4C400.24,563.82,396.49,570.4,396.94,571.29Z"/><path class="cls-3" d="M341.63,329.29c-.75,7.85-6.25,13.33-14.37,13.17s-15.53-5.11-21.3-10.32a77.14,77.14,0,0,1-13.14-15.84c-3.33-5.22-5.81-11-9.09-16.27,1.16-1.18,2.07-2.73,3.09-3.9a67.28,67.28,0,0,1,7.42-7.2c4.85-4.08,10.24-8.11,12.13-14.48,1.51-5.11.62-10.8-3.58-14.36-4.71-4-12.31-4.27-18.12-5-9.45-1.27-30.3-4.25-32.24,9.46-.86,6.06,2.54,11.11,6.65,15.2,2.63,2.62,5.48,5,8.23,7.52s8.76,6.16,9.4,9.9a2.45,2.45,0,0,0,.12.41,3.39,3.39,0,0,0,.23,2.13c-1.58,6.64-3,13.45-7.39,18.88-4.72,5.79-11.67,9.37-18.29,12.54-7.44,3.55-15.46,6.9-23.86,6.78a24.28,24.28,0,0,1-11.2-2.63c-3.21-1.76-8.29-6.91-3.51-10.21a2.94,2.94,0,0,0-3-5.08c-8.35,4.2-5.51,14.69.82,19.31,8.74,6.37,20.66,5.88,30.52,2.79,2.39-.74,4.82-1.6,7.24-2.56-.3,17.92,13.71,38.61,31.82,40.31,9.25.87,18-3.93,23.54-11.12a41.18,41.18,0,0,0,8.2-24.44c7.39,4.17,16.55,6.44,24.6,2.81,6.8-3.06,12.85-10.76,10.39-18.48A2.74,2.74,0,0,0,341.63,329.29Zm-65.15-41.62c-4-3.69-8.05-7.27-12-11-3.38-3.22-8.95-9.2-4.78-13.9,3.41-3.85,13-2.53,17.63-2.15a94.72,94.72,0,0,1,16.82,2.58c6,1.64,7.91,6.43,4.77,11.9-2.46,4.28-7,7.1-10.64,10.27a63.15,63.15,0,0,0-5,4.83c-.35.38-1.26,1.77-2.15,3C280.22,291.06,278.35,289.4,276.48,287.67ZM300.11,363c-4.39,6.8-12,11.59-20.24,10.54-8.48-1.08-15.1-7.16-19.33-14.26s-5.33-14.33-6.91-22a68.74,68.74,0,0,0,17-10.85,31.55,31.55,0,0,0,5.66-6.8c-.23,3.48-.3,6.95-.29,10.31,0,7.78.59,16.44,4.35,23.39,1.43,2.66,4.91.68,4.52-1.9-1.19-7.89-2.83-15.33-2.75-23.38,0-5.32.78-10.63,1.18-15.93a108.43,108.43,0,0,0,8.06,12.74A73.28,73.28,0,0,0,305.65,340C304.34,348,304.84,355.66,300.11,363Z"/><path class="cls-3" d="M333.4,271.16c5.77,4.23,11.05,8.65,15,14.72s5,12.18,7.32,18.77a2.79,2.79,0,0,0,5.45-.74c.43-7.64-3.94-16.34-8.3-22.39-4.52-6.28-10.44-11.65-17.66-14.58C332.57,265.87,331.47,269.74,333.4,271.16Z"/><path class="cls-3" d="M207.51,306.65A37,37,0,0,1,217.35,290c4.69-4.57,10.17-6.6,15.89-9.44,2.1-1.05,1.14-4.67-1.22-4.49-14.57,1.12-26,16.07-28.61,29.41C202.88,308.18,206.78,309.32,207.51,306.65Z"/><path class="cls-3" d="M209.27,246.16A15.61,15.61,0,0,0,199,234.42c-3.64-1.17-8-.66-10.77,1.84-6.42,3.87-7.42,14.52-1.53,20.08C195.54,264.69,211.9,259.83,209.27,246.16Zm-9.85,0a6.66,6.66,0,0,1-2.17,3.52c-2.9,2.16-5-.78-5.49-3.44a2.76,2.76,0,0,0,1.79-2.84,2.55,2.55,0,0,1,2.71-2.92,7.78,7.78,0,0,1,1.58.54,4.06,4.06,0,0,1,.74.65A5,5,0,0,1,199.42,246.2Z"/><path class="cls-3" d="M362.82,259.11c8.7,7.62,22.43.76,22-10.59a14.33,14.33,0,0,0-10.52-13.47c-6.33-1.64-14.22,1.69-15.32,8.63a3.43,3.43,0,0,0,0,1C357.86,249.77,358.76,255.56,362.82,259.11Zm6.44-17c3.33.29,6.48,3.8,6.08,7.2-.31,2.65-4,5-6.38,3.29C366.11,250.54,366.42,243.9,369.26,242.07Z"/><path class="cls-3" d="M236,253.94a71.37,71.37,0,0,1,37.86-14.16c14.07-.94,26,2.75,38.81,7.92,3,1.21,4.34-3.26,2.06-4.89-11.64-8.3-28.48-10.46-42.38-8.94A70.79,70.79,0,0,0,233.4,250.6C231.6,252.15,234,255.4,236,253.94Z"/><path class="cls-3" d="M329.88,255.66a2.45,2.45,0,0,0,2.35-3.08c-.55-1.62-1.88-2.39-3.24-3.3-1.12-.76-2.29-1.43-3.42-2.17-2.18-1.4-4.8,1.9-2.8,3.64,1,.88,2,1.8,3,2.67C327,254.47,328.17,255.58,329.88,255.66Z"/><path class="cls-3" d="M231.1,232.07c8-2.88,16.74-4.42,24.51-7.83,2.08-.91,1.07-4.56-1.18-4.33-8.61.86-17.06,5-24.89,8.45C227.45,229.28,228.94,232.85,231.1,232.07Z"/><path class="cls-3" d="M274.48,221.49c10.22,1.77,20.32,3.61,30.16,7,10.29,3.52,19.14,9.26,29,13.57,2.52,1.1,5.62-2,3.19-4.14-7.82-7-19-11.38-28.88-14.74-10.49-3.57-21.75-6-32.88-5.95C272.69,217.23,272,221.06,274.48,221.49Z"/><path class="cls-3" d="M393.43,562.8c-1.16,2.56-2.87,5.19-3.17,8-.51,4.81,2.92,7.65,7.45,8,13,.89,23.68-10.54,31.67-19.3,30.25-33.15,48.14-80.82,44.53-126.2,11.93,1,24.7-8.49,31.67-17.11,9.49-11.71,13.19-26.84,13.45-41.68a97.5,97.5,0,0,0-2.3-24.09c-1.07-4.53-3.65-14.52-9.65-14.7-5.49-.16-8.42,7.76-9.58,12.06-1.86,6.91-1.44,14.16-2.8,21.15-3,15.5-14.88,26.78-29.39,31.66a28.31,28.31,0,0,0-14.47-11.65c-11.75-4.16-27.31-.08-37.32-8.49q8.42-8.07,16.55-16.41a41.42,41.42,0,0,0,.63,7.13c.52,3,4.56,2.9,6,.78A122.27,122.27,0,0,0,454.48,331a45.32,45.32,0,0,1,3.23,5.81c1.43,3,6.19,1.45,6.15-1.66a295.82,295.82,0,0,0-15.3-90.53,17.42,17.42,0,0,1,6,4c2.5,2.53,6.05-.14,5.53-3.22a115,115,0,0,0-18.24-45.62,87.58,87.58,0,0,0-6.23-7.85c19.79-21.53,30.26-49.67,33.33-78.58a208.57,208.57,0,0,0-1.28-51.58,96.29,96.29,0,0,0-5.95-23.38,96,96,0,0,0-5.62-11.2c-1.65-2.85-3.13-6.37-6.22-7.77a2.13,2.13,0,0,0-.33-.11A3.29,3.29,0,0,0,446,18.16c-4.59,1.56-6.83,5.06-8.78,9.32-2.48,5.41-5,10.8-7.74,16.07a265.45,265.45,0,0,1-19.14,31.09c-13.66,19.12-30,35.77-47.75,51-9.82-3-19.85-5.57-29.67-8.07a308,308,0,0,0-44.55-8.22c-21.6-2.18-45.17-1.52-66.2,5.51-34.3-23.82-33.53-70.5-31.94-107.77A3.32,3.32,0,0,0,187.93,4a3,3,0,0,0-2.75-1c-33.44,5.06-44.32,48.83-49.64,76.4a237.52,237.52,0,0,0,3.76,106.1,34,34,0,0,0-7.13,11.14,3.15,3.15,0,0,0,2.19,3.86L140,202a131.8,131.8,0,0,0-26.46,77.82c0,2.58,3.47,4.23,5.29,2.19l2.75-3.07a106.17,106.17,0,0,0,11.5,74.72c1.25,2.18,5.32,2,5.77-.76a48.8,48.8,0,0,1,2.29-8.86,117,117,0,0,0,37,60.92,3.17,3.17,0,0,0,4.95-3.82,28.36,28.36,0,0,1-1.86-5.17,49.94,49.94,0,0,0,13.36,10.94,58.13,58.13,0,0,0-.64,7.44,77.09,77.09,0,0,0,.75,14.08,107.2,107.2,0,0,0,9.15,30A123.56,123.56,0,0,0,216.87,481c-.91,18.54-3.12,36.82-8,54.8a212.88,212.88,0,0,1-10,28.63c-3.5,8.09-7.34,15.73-8.44,24.58-.22,1.81,1.64,3,3.15,3.15,21.9,2.39,40.63-12.19,51.33-30.15,5.66-9.51,9.6-20,12.92-30.54,3.1-9.83,6.6-20.76,7.69-31.33,10.95,4.12,23.09,6.53,34.36,5-1.35,7.54-1.77,15.24-3.26,22.76a174.52,174.52,0,0,1-6.87,24.9,170.91,170.91,0,0,1-10.62,23.64c-2.3,4.26-4.21,9.1.54,12.48,4.4,3.14,10.43,1.88,15.22.54a66.19,66.19,0,0,0,19-8.89c11.6-7.81,20.88-18.65,27.94-30.64,8.76-14.9,14.56-31.52,19.63-48,6.28,0,12.55.14,18.83.1-.69,4.45-.51,9.26-1.26,13.59a92.7,92.7,0,0,1-4.8,17.38c-2.15,5.57-5.15,10.67-7.73,16-1.5,3.13-4.7,8.36-3,11.91,4,8.38,18.52-.64,23.08-3.66a82.52,82.52,0,0,0,12.78-10.43c-.46,1.59-1,3.16-1.48,4.73A114.74,114.74,0,0,1,393.43,562.8ZM495.77,384.34a48.48,48.48,0,0,0,6.2-19.78c.47-4.28.57-8.62,1.43-12.85a24.71,24.71,0,0,1,2-6.16,17.14,17.14,0,0,1,1.39-2.28c.34,1.93,2.27,4.39,2.87,6.35a49.65,49.65,0,0,1,1.53,6.94,104.25,104.25,0,0,1,1.17,14.34c.16,9.27-.92,18.6-4.2,27.32a47.63,47.63,0,0,1-14.29,20.15,38.88,38.88,0,0,1-10.72,6.27c-3.21,1.2-6.55,1.54-9.83,2.3-.4-3.19-.9-6.36-1.52-9.51a53.81,53.81,0,0,0-3.7-11.8C479.66,402.69,489.64,394.72,495.77,384.34ZM450.46,29.79A122.61,122.61,0,0,1,455.9,41a95.58,95.58,0,0,1,5.39,22.12,210.54,210.54,0,0,1,1.13,48.32c-2.67,27.6-12.57,54.71-31.28,75.39-1.77-2.05-3.49-4.14-5.05-6.36-2.7-3.83-3-7.48-3.5-12-.33-3.09-1.13-6.12-3.35-8.4-4-4.15-9.74-3.48-14.63-5.66-4.71-2.11-.55-7.43,1.12-10.69q3.47-6.8,6.78-13.68,12-24.91,21.89-50.75,5.82-15.16,10.87-30.59C447.3,42.6,449.75,36.26,450.46,29.79ZM141,84.75C143.7,69,147.75,53,154.36,38.42c5.54-12.23,13.95-22.9,26.22-28-7.14,11.46-10,25-11.29,38.44a141.74,141.74,0,0,0,12.74,73c1.68,3.62,5.35,8.2,5.66,12.16.19,2.3.65,2.05-1.35,3a8.58,8.58,0,0,1-2.94.51c-2.14.16-4.32-.27-6.48-.16-15.48.85-10.8,19.27-17.62,28.51-4.12,5.58-9.56,9.81-14.63,14.33A230.13,230.13,0,0,1,141,84.75Zm55.93,316.19a43.35,43.35,0,0,1-16.83-17.85c-1.57-3.07-5.53-1.2-5.86,1.59a34,34,0,0,0-.05,7.68,111.17,111.17,0,0,1-28.76-59c-.43-2.8-4.45-2.86-5.73-.74a52.87,52.87,0,0,0-4.88,10.5,100,100,0,0,1-3.58-75.47c1-2.9-3.16-5.27-5.18-3l-5.87,6.58a124.23,124.23,0,0,1,27.36-68.89c1.42-1.75,1.06-4.54-1.37-5.19l-6.55-1.75c5.26-9.7,16.28-15.28,23.27-23.59A30.4,30.4,0,0,0,170,156.31c.45-2.93.49-6.44,1.9-9.12,2.41-4.6,8-2.82,12.15-3.06,4.84-.28,10.6-2.93,11-8.41.25-3.43-1.81-6.35-3.38-9.22-2-3.74-3.92-7.59-5.6-11.52a135.68,135.68,0,0,1-10.76-50.21C175,49.89,176.4,32.83,183.25,19c-.86,35.68,2.34,75.81,32.44,98.33a93.89,93.89,0,0,0-10.35,5c-2,1.1-.65,4.48,1.56,3.7a183.48,183.48,0,0,1,82.42-9.84A302.33,302.33,0,0,1,333,124.65c14.41,3.77,28.49,9.08,43,12.55,4.2,1,5.64-4.84,1.75-6.34-2.94-1.14-5.93-2.2-8.94-3.21A245.41,245.41,0,0,0,411.32,84a261,261,0,0,0,19.32-29q4.23-7.37,8-15c1.4-2.86,3.07-8.65,5.59-12.37-.32,7.79-4.12,16-6.46,23q-4.56,13.58-9.68,27-10.28,26.79-22.9,52.6-3.15,6.43-6.43,12.8c-1.66,3.25-3.69,6.69-3,10.48.94,5.21,5.71,7.12,10.32,8.22,2.43.57,5.64.81,7.68,2.39,3.41,2.65,2.19,7.89,3,11.69,1.4,6.44,6,11.22,10.35,16a3.57,3.57,0,0,0,3.71,4.28A108.46,108.46,0,0,1,452,239a24.65,24.65,0,0,0-8.43-2,3.32,3.32,0,0,0-3.18,4.18,288.67,288.67,0,0,1,16.5,82.09c-.61-.74-1.23-1.47-1.88-2.18-1.57-1.72-5.09-1-5.51,1.46a117.68,117.68,0,0,1-12.4,36.08c.21-1.07.46-2.14.77-3.22.89-3.09-3.2-5.56-5.45-3.17a681.59,681.59,0,0,1-55.7,52.73,3,3,0,0,0-2.65-.47A215.06,215.06,0,0,1,316.81,412a2.82,2.82,0,0,0-2.76-1.52c-36.64,1.29-74.24,2.09-109.06-11.16-2.3-.88-4.34,1.63-3.92,3.76l-.61-.29c-.05-.44-.11-.89-.2-1.33C199.89,399.77,197.81,399.83,196.88,400.94ZM383.17,551.62c-3.24,2.15-7.37,5.1-11.32,5.71a12.28,12.28,0,0,0-1.58-.35c.16-.45.32-.9.49-1.35a75.81,75.81,0,0,1,3.39-7.11,111.59,111.59,0,0,0,9.57-24.07c1.59-6.35,3.84-15.23,2.9-22.42l7.26-.07c1.86,0,4.15-.38,6-.07,3.82.66,4,1.63,4.21,5.39a121.18,121.18,0,0,1-1.57,25.6C396.9,540,390.82,546.53,383.17,551.62Zm17.51,11.19c1.3-3.09,2.5-6.22,3.56-9.4a124.07,124.07,0,0,0,4.63-18.61l.1-.17a2.83,2.83,0,0,0,.34-2.53A129,129,0,0,0,410.73,511c-.09-4.72.75-12.62-4.68-14.91-2.53-1.06-5.5-.64-8.18-.6l-14,.26c-7.29.14-14.57.44-21.86.7a3.41,3.41,0,0,0-6,.81c-.06.16-.11.32-.16.49a2.83,2.83,0,0,0-.46,1.35c-10.46,31.21-22,66.49-54.24,81.48a50.83,50.83,0,0,1-11,3.75c-1.67.34-4.15,1-5.8.13-2.62-1.33-1-2.58.16-4.73a185.49,185.49,0,0,0,10.3-22.55,167.45,167.45,0,0,0,7.53-26.62c1.64-8.47,3.35-17.63,2.52-26.26,1.13-.29,2.27-.6,3.38-1,3.85-1.31,2.26-6.64-1.66-6-9.61,1.54-18.3,2-27.93,0-4.34-.91-8.63-2.1-12.89-3.4a3,3,0,0,0-4.95-1.56l-7.76-2.52c-2.3-.74-3.75,2.72-1.64,3.89,2.39,1.31,4.91,2.58,7.54,3.78-2.3,9.15-3.5,18.63-6.13,27.73-3,10.23-6.45,20.44-11.42,29.87-8.83,16.74-24.41,31.64-44.13,31.1,1.86-7.92,5.79-15.2,8.88-22.72a216,216,0,0,0,9.54-28.67,201.24,201.24,0,0,0,6.57-47.43c5.1,5.26,11,9.36,17.81,11.09,3.09.78,5.24-3.74,2.23-5.3-7.56-3.92-13.81-8-19.31-14.68l-.95-1.21-.06-1.31a2.43,2.43,0,0,0-2.67-2.35A120.63,120.63,0,0,1,209,455.34a101.28,101.28,0,0,1-8.41-26.73,75.88,75.88,0,0,1-.9-14.28c0-1.57.25-3.15.45-4.75a49.57,49.57,0,0,0,7.05,2.28,3.26,3.26,0,0,0,3.95-3.66c32.3,10.43,66.8,10,100.47,8.91a2.91,2.91,0,0,0,2.47,1.26,224.4,224.4,0,0,0,53.64-5.75c-1.47,2.43,1.79,6.19,4.5,4.31a17,17,0,0,0,2-1.61q17.64-14.44,34.24-30.08c7.77,6.8,17.78,7.3,27.65,8.18,5.33.47,10.94,1.05,15.73,3.63,5.77,3.11,9.18,8.89,11.19,14.92,3.83,11.51,4.2,24.49,3.89,36.51a163.67,163.67,0,0,1-5.12,36.57,165.41,165.41,0,0,1-34,66.08A133.62,133.62,0,0,1,415.52,564a41.39,41.39,0,0,1-7.3,5.4c-2,1.13-9.81,4.85-11.28,1.9C396.49,570.4,400.24,563.82,400.68,562.81Z"/></svg>