<svg id="Layer_1" data-name="Layer 1" xmlns="http://www.w3.org/2000/svg" viewBox="0 0 600 600"><defs><style>.cls-1{fill:#be1e2d;}.cls-2{fill:#fff;}.cls-3{fill:#231f20;}</style></defs><title>doodle</title><path class="cls-1" d="M327.64,292.11q3.32.54,6.62,1.21c31.14,6.41,74.27,25.57,85.67,57.91,1.6,4.55-4,7.95-7.72,5.93-13.71-7.34-24.86-19-38-27.27a148.92,148.92,0,0,0-44.82-18.77,144.13,144.13,0,0,0-53.85-2,152.68,152.68,0,0,0-21.17,5.17c-35.45,15.38-67.62,36.72-97.09,62.2,9.74-.63,19.48-1.37,29.16-1.53q29.72-.5,59.4,1.11c32.07,1.75,59.48,9.16,79.28,36.09,19.26,26.2,24.6,58.6,35.23,88.6,9.78,27.61,31.92,62.18,66.05,57,30.31-4.64,54.14-34.4,67.75-59.81,28.07-52.45,26.59-120.84-12-167.81C443.88,283.6,383,281.58,327.64,292.11Zm122.89,159c-1.94,4.82-9,5.63-10.65,0-2.81-9.65-2.12-20-4-29.93A160.16,160.16,0,0,0,427.4,392c-2.39-6.08,6.94-9.31,10.1-4.26C448.1,404.63,458.51,431.3,450.53,451.11Z"/><path class="cls-2" d="M404.42,159.29c4.31,10.28,11.69,24.78,24.8,24.14,12.82-.61,21.64-13.41,24.42-24.66,3.25-13.15.93-27.17-.07-40.47a8.21,8.21,0,0,1,.09-1.94,101.33,101.33,0,0,0-29.85-7.25,111.28,111.28,0,0,0-28.63,1.79,9.83,9.83,0,0,1,.17,1.84A117.86,117.86,0,0,0,404.42,159.29Z"/><path class="cls-2" d="M349.57,220.5c15-7.14,18.92-35.54,22.18-50.17a285.62,285.62,0,0,0,6.38-55.43c-17.34,4.85-34.38,11.55-51.59,16-2.78.71-5.55,1.3-8.3,1.84C317.51,151.43,321.79,233.72,349.57,220.5Z"/><path class="cls-2" d="M271.26,233.44c20.76,4.26,24.25-22,25.52-36.44,1.81-20.65,3.25-41.34,4.86-62-23.22,1.85-45.9-1.6-69.43-6.3a277,277,0,0,0,8.5,57.29C245,202.66,251.08,229.29,271.26,233.44Z"/><path class="cls-2" d="M192.32,183.73c9.92-2.16,12.33-24.61,14.37-32.57Q210,138.09,213.4,125c-12.8-2.32-25.74-4-38.76-3.15-.78,0-1.56.16-2.34.24C172.75,139.51,174,187.71,192.32,183.73Z"/><path class="cls-3" d="M505.8,122.49c-29.65-22.71-65.12-38.52-103.16-34-38.21,4.54-72.91,26-111.57,27.36-39.36,1.41-77-15.8-116.43-13.22-37.4,2.45-68.31,23.41-95.86,47.24C49.11,175.54,30.64,205.3,28.14,245.1,26,280,33,319.14,54.62,347.47c10.92,14.33,25.51,26,40,36.56,10.95,8,21.7,11,33.41,11.71a5.72,5.72,0,0,0,7.87.21c3.77,0,7.65-.2,11.68-.45q33.07-2.07,66.24-1.57c20.73.32,44-.78,63.91,5.59,38.24,12.23,48.12,57.64,58.12,91.28,9.6,32.33,24.25,67,56.76,82.21s66.16-.85,90.17-24.07c47.54-46,65.56-120.75,43.69-183.28-.67-1.93-1.38-3.86-2.13-5.76,60.59-26.42,74.27-102.5,48.23-158.77C558,169.66,533.07,143.38,505.8,122.49Zm-82-13.38a101.33,101.33,0,0,1,29.85,7.25,8.21,8.21,0,0,0-.09,1.94c1,13.3,3.32,27.32.07,40.47-2.78,11.25-11.6,24-24.42,24.66-13.11.64-20.49-13.86-24.8-24.14a117.86,117.86,0,0,1-9.07-46.55,9.83,9.83,0,0,0-.17-1.84A111.28,111.28,0,0,1,423.81,109.11Zm-105.57,23.6c2.75-.54,5.52-1.13,8.3-1.84,17.21-4.42,34.25-11.12,51.59-16a285.62,285.62,0,0,1-6.38,55.43c-3.26,14.63-7.18,43-22.18,50.17C321.79,233.72,317.51,151.43,318.24,132.71ZM301.64,135c-1.61,20.66-3.05,41.35-4.86,62-1.27,14.45-4.76,40.7-25.52,36.44C251.08,229.29,245,202.66,240.71,186a277,277,0,0,1-8.5-57.29C255.74,133.4,278.42,136.85,301.64,135Zm-127-13.14c13-.81,26,.83,38.76,3.15q-3.37,13.06-6.71,26.15c-2,8-4.45,30.41-14.37,32.57-18.33,4-19.57-44.22-20-61.63C173.08,122,173.86,121.91,174.64,121.86ZM494.11,497.92c-13.61,25.41-37.44,55.17-67.75,59.81-34.13,5.22-56.27-29.35-66.05-57-10.63-30-16-62.4-35.23-88.6-19.8-26.93-47.21-34.34-79.28-36.09q-29.67-1.6-59.4-1.11c-9.68.16-19.42.9-29.16,1.53,29.47-25.48,61.64-46.82,97.09-62.2a152.68,152.68,0,0,1,21.17-5.17,144.13,144.13,0,0,1,53.85,2,148.92,148.92,0,0,1,44.82,18.77c13.18,8.25,24.33,19.93,38,27.27,3.76,2,9.32-1.38,7.72-5.93-11.4-32.34-54.53-51.5-85.67-57.91q-3.3-.68-6.62-1.21c55.4-10.53,116.24-8.51,154.46,38C520.7,377.08,522.18,445.47,494.11,497.92Z"/><path class="cls-3" d="M427.4,392a160.16,160.16,0,0,1,8.52,29.2c1.84,9.89,1.15,20.28,4,29.93,1.63,5.63,8.71,4.82,10.65,0,8-19.81-2.43-46.48-13-63.39C434.34,382.67,425,385.9,427.4,392Z"/></svg>