<svg id="Layer_1" data-name="Layer 1" xmlns="http://www.w3.org/2000/svg" viewBox="0 0 600 600"><defs><style>.cls-1{fill:#88e0ff;}.cls-2{fill:#fff;}.cls-3{fill:#231f20;}</style></defs><title>doodle</title><path class="cls-1" d="M60.11,230c7.89,4.13,17.62,1.07,25.33,6.2,6.71,4.46,8.85,12.62,10.07,20.13,1.65,10.15,1.67,20.52,3.69,30.61,2.16,10.82,7.37,19.32,14.83,27.32,6.38,6.85,13.68,15.78,23.57,16.95a4,4,0,0,1,2.71,1.44,287.23,287.23,0,0,1,3.54-38.8l-.18,0c-19.36-5.29-24.41-29.16-26.59-46.21-1.25-9.82-.85-28.16-11.23-33.13-9-4.31-22-4.08-31.73-2.73-5.07.7-10.46,2.15-14.41,5.59C55.09,221.41,54.13,226.91,60.11,230Z"/><path class="cls-1" d="M161.73,417.33c3.8,10.33,8.87,19.89,13.83,29.59,7.84,9.46,15,19.62,23,28.92a387.24,387.24,0,0,0,30.05,30.86c19,17.53,39.43,35.09,62,47.93,24.09,13.73,52.61,20.66,79.81,25,51.48,8.14,104.29,1.64,149.86-23.76a26.93,26.93,0,0,1-2.67-.56,35.78,35.78,0,0,1-7.08-2.74,48.85,48.85,0,0,1-14.22-11.3,83.38,83.38,0,0,1-16.78-31,135.33,135.33,0,0,1-5.33-36.61,204.13,204.13,0,0,1,.54-20.77c.46-26.61,10.53-51.53,20.07-76.14,18.91-48.76,32.16-101.73,25.85-154.43-2.93-24.51-12.73-46.72-26.93-66.74a292,292,0,0,0-22.8-27.83C463.3,119.36,455,111.6,447.68,103a2.66,2.66,0,0,1-1.91-2c-3.72-15.75-8.54-31.32-18.06-44.63a68.93,68.93,0,0,0-17.12-16.95c-1.06-.72-2.91-2.49-4.11-2.55-1-.75-1.11-.66-.43.25l0,2.2a60.36,60.36,0,0,0,3.08,14c1.31,3.48-3.92,6.48-6.31,3.67a139,139,0,0,0-51.3-38c1.59,3.22,3.86,6.5,5.07,8.79l7.29,13.89c2.28,4.34-3.89,7.92-6.56,3.83C340.6,19.76,306.94,26.33,281.7,34.18c2.56,1.9,5.88,3,8.66,4.32l14.28,6.55,29.68,13.58c2.89,1.33,2.26,6.53-.92,7-18.18,2.78-35.5,14.33-38,33.13,2.7-1.08,5-3.17,7.52-4.8a64.44,64.44,0,0,1,8.46-4.67,80,80,0,0,1,18.44-5.8,118,118,0,0,1,40.29-.58c3.81.6,2.77,6.6-.88,6.56-14.14-.16-28.26-1-42.12,2.48a65.17,65.17,0,0,0-19.47,8.15c-5.3,3.37-9.79,7.54-16.44,7.1a3.94,3.94,0,0,1-3.86-3.87,41.61,41.61,0,0,1,1.28-10.06c-27.17,8.81-50.94,25.92-69.8,47.21-18.62,21-32.43,46-43.2,71.84-10.87,26.08-19.21,53.36-23.79,81.26-4.62,28.18-5.15,57.22-.26,85.39A219.84,219.84,0,0,0,161.73,417.33ZM501.14,311.58c-.25,1.25-2.09.88-2.13-.28a184,184,0,0,1,1.06-30.15c.08-.65,1.13-.6,1.26,0C503.42,290.77,503,302,501.14,311.58ZM476.4,159.44c18,31.75,31.13,69.72,25.27,106.72-.15.94-1.51.62-1.57-.21-1.16-18.3-1.84-36.45-5.88-54.42-4-17.68-9.83-35.73-18.5-51.69A.39.39,0,0,1,476.4,159.44Zm-6.2,155.33a2.83,2.83,0,0,1,5.46,1.5c-4.45,21.87-24.07,37.4-42.89,47-19.23,9.84-42,14.07-55,32.91-6.24,9.07-9.12,19.32-9.92,30.23-.23,3.1-.63,6.49.11,9.54.78,3.24,3.61,8.05,7.71,5.27,3.44-2.33,3.83-9.49,4.68-13.1,2.05-8.66,5.59-16.34,13.13-21.49s16.45-6.87,24.91-9.4c20.67-6.19,39.11-20.2,43.5-42.36.92-4.63,7.68-2.58,7,1.92-4.09,26.18-27,41.84-50.92,48.58-10.67,3-22.88,5.66-27.75,16.86-3.58,8.2-2.63,21.41-11.68,26.26-8.37,4.49-16.46-2.93-18.11-11-2.16-10.63.61-24.1,4.68-34a62.67,62.67,0,0,1,18.27-24.64c9.4-7.65,20.81-11.31,31.85-15.87C439,353.25,460.33,339.49,470.2,314.77Zm-23.31-57.2a7.18,7.18,0,0,1,5.58,2.12c3.84,3.91,1.91,10.84-3.15,12.59s-10.55-2.18-10.88-7.44C438.17,260.7,442.77,254.24,446.89,257.57Zm-96.2-56.24c1.14-12.53,5.56-23.69,16.2-31,11.47-7.91,26.06-8.65,39.18-5l.06,0a26.59,26.59,0,0,1,6.39,2.28c10.63,5.38,16.59,16.82,18.05,28.27,3,23.29-13.51,52.95-38.45,56.13C363.82,255.59,348.5,225.58,350.69,201.33Zm-35,99.3c28.34,2.9,56.23,1.32,84.6.85a3.71,3.71,0,0,1,3,1.23,4,4,0,0,1,2.06,4.35c-2.95,16.56-14.13,31.78-26.44,42.74-11.87,10.57-26.33,19.09-41.75,23.18-16.92,4.48-34.61,2.34-50.72-4.14-15.36-6.18-30-15.33-40.15-28.64a95.43,95.43,0,0,1-18.72-46.08c-.34-2.92,3.42-3.93,5.33-2.45,13.89-.13,28.28,2.75,42,4.35C288.52,297.6,302.1,299.24,315.69,300.63ZM217.26,186c7-16.05,30.61-32,48.19-23.76,19.21,9,20.85,34.47,17.73,52.75-3.23,19-18.94,33.37-38.5,31.64a30,30,0,0,1-20.3-5.63C208.21,229.26,210.11,202.37,217.26,186Zm-18.9,258.46c14.23,11.82,24.19,27.35,36.82,40.69a176.38,176.38,0,0,0,22.14,19.35c7.36,5.56,16.08,10.28,22.43,17,.51.54,0,1.68-.79,1.36-8.52-3.37-16.25-9.73-23.49-15.22A176,176,0,0,1,234.28,489c-13.18-13.8-22.9-30.58-36.81-43.72C196.87,444.75,197.75,443.93,198.36,444.43ZM187.28,248.24a6.86,6.86,0,0,1,2.08-1.17c2.17-1.55,5.36-1.49,7,1,1.17,1.84,1.1,4.66.46,6.68a6.31,6.31,0,0,1-5.53,4.61,6.09,6.09,0,0,1-6.05-4.21A6.59,6.59,0,0,1,187.28,248.24Z"/><path class="cls-2" d="M242.36,239.25c-7.4-10.51-10.77-25.12-11.13-37.25-.13-4.22.43-17.3,3.62-26-7.29,5.47-11.55,13-13.44,22.19-2.1,10.3-3.48,24.5,3.58,33.19C229.29,236.66,235.77,239.13,242.36,239.25Z"/><path class="cls-2" d="M384.38,244.68c-19.18-16.26-20.25-52.15-3.95-70.58a28.87,28.87,0,0,1,4-3.71A34.45,34.45,0,0,0,368.25,178c-8.94,7.79-11.2,19.89-10.71,31.28C358.21,224.7,369.08,242.55,384.38,244.68Z"/><path class="cls-3" d="M383.39,378.93a62.67,62.67,0,0,0-18.27,24.64c-4.07,9.87-6.84,23.34-4.68,34,1.65,8.06,9.74,15.48,18.11,11,9.05-4.85,8.1-18.06,11.68-26.26,4.87-11.2,17.08-13.85,27.75-16.86,23.93-6.74,46.83-22.4,50.92-48.58.71-4.5-6-6.55-7-1.92-4.39,22.16-22.83,36.17-43.5,42.36-8.46,2.53-17.51,4.35-24.91,9.4s-11.08,12.83-13.13,21.49c-.85,3.61-1.24,10.77-4.68,13.1-4.1,2.78-6.93-2-7.71-5.27-.74-3.05-.34-6.44-.11-9.54.8-10.91,3.68-21.16,9.92-30.23,12.95-18.84,35.73-23.07,55-32.91,18.82-9.64,38.44-25.17,42.89-47a2.83,2.83,0,0,0-5.46-1.5c-9.87,24.72-31.18,38.48-55,48.29C404.2,367.62,392.79,371.28,383.39,378.93Z"/><path class="cls-3" d="M61,238.58c5.05,1.48,10.4,1,15.48,2.23,7,1.72,9.4,7.09,10.79,13.61,2.43,11.41,2,23.23,4.28,34.67,2.48,12.52,8.91,22.43,17.57,31.61,7.79,8.26,16.39,17.76,28.5,18.31a3.51,3.51,0,0,0,2.64-.88,249,249,0,0,0,2.06,32.6A226.87,226.87,0,0,0,153,416.5c5.18,14.79,11.64,30.15,21.57,42.4a2.84,2.84,0,0,0,1.37,1,227.18,227.18,0,0,0,14.27,18.4,364.53,364.53,0,0,0,27.37,29c19.42,18.59,40.55,36.77,63.4,51,24.15,15.08,52.59,22.93,80.4,28,28,5.09,56.61,6.51,84.82,2.73,30.33-4.07,60.34-14,86-30.81,3.37-2.2,1.76-6.84-1.21-7.57-2.59-3-6.44-2.07-10.4-3-6.13-1.4-11.55-5.07-16-9.43-8.62-8.46-14.28-19.68-17.68-31.17-6.51-22-4.49-43.9-3.75-66.24,4-20.58,11.28-40.43,18.84-60,9.73-25.18,18.27-50.45,23-77.12,4.56-26,6.79-53,4-79.31a148.86,148.86,0,0,0-24.64-67.19,257.77,257.77,0,0,0-24.09-30.43c-9.05-10-18.44-20.29-28.85-28.88-3-20.94-11.21-41.49-26.48-56.53C420.38,37,410,26.37,402.77,28.7c-4.47,1.44-5.22,6.7-4.59,12.31A147,147,0,0,0,347,9c-2.49-.92-4.65,1.42-4.82,3.67-.35,4.81,2.6,9.23,4.93,13.37-21.35-11.43-50.31-4.88-72.93,2.58a3.88,3.88,0,0,0-2.28,5.59c4,8.71,16.53,11.77,24.51,15.43l24.4,11.21c-13.29,4.55-24.68,13.69-30.11,26.22a2.86,2.86,0,0,0-2.11-.18C234,101.73,196.63,148.16,173.84,197.69c-13.18,28.66-23.49,59.28-29,90.6-21.62-14.53-18.48-40.13-23.74-62.91-2.53-10.95-7.86-17.39-19-20a77.87,77.87,0,0,0-33.12-.47c-8.43,1.85-18.12,7-20.58,15.93S53.13,236.28,61,238.58Zm90.8,55c4.58-27.9,12.92-55.18,23.79-81.26,10.77-25.81,24.58-50.82,43.2-71.84,18.86-21.29,42.63-38.4,69.8-47.21a41.61,41.61,0,0,0-1.28,10.06,3.94,3.94,0,0,0,3.86,3.87c6.65.44,11.14-3.73,16.44-7.1A65.17,65.17,0,0,1,327.06,92c13.86-3.46,28-2.64,42.12-2.48,3.65,0,4.69-6,.88-6.56a118,118,0,0,0-40.29.58,80,80,0,0,0-18.44,5.8A64.44,64.44,0,0,0,302.87,94c-2.48,1.63-4.82,3.72-7.52,4.8,2.55-18.8,19.87-30.35,38-33.13,3.18-.49,3.81-5.69.92-7L304.64,45.05,290.36,38.5c-2.78-1.28-6.1-2.42-8.66-4.32,25.24-7.85,58.9-14.42,75.65,11.29,2.67,4.09,8.84.51,6.56-3.83l-7.29-13.89c-1.21-2.29-3.48-5.57-5.07-8.79A139,139,0,0,1,402.85,57c2.39,2.81,7.62-.19,6.31-3.67a60.36,60.36,0,0,1-3.08-14l0-2.2c-.68-.91-.54-1,.43-.25,1.2.06,3,1.83,4.11,2.55a68.93,68.93,0,0,1,17.12,16.95c9.52,13.31,14.34,28.88,18.06,44.63a2.66,2.66,0,0,0,1.91,2c7.27,8.6,15.62,16.36,23.22,24.67a292,292,0,0,1,22.8,27.83c14.2,20,24,42.23,26.93,66.74,6.31,52.7-6.94,105.67-25.85,154.43-9.54,24.61-19.61,49.53-20.07,76.14a204.13,204.13,0,0,0-.54,20.77,135.33,135.33,0,0,0,5.33,36.61,83.38,83.38,0,0,0,16.78,31,48.85,48.85,0,0,0,14.22,11.3,35.78,35.78,0,0,0,7.08,2.74,26.93,26.93,0,0,0,2.67.56c-45.57,25.4-98.38,31.9-149.86,23.76-27.2-4.3-55.72-11.23-79.81-25-22.53-12.84-43-30.4-62-47.93a387.24,387.24,0,0,1-30.05-30.86c-8-9.3-15.17-19.46-23-28.92-5-9.7-10-19.26-13.83-29.59A219.84,219.84,0,0,1,151.52,379C146.63,350.82,147.16,321.78,151.78,293.6ZM59.71,217.38c3.95-3.44,9.34-4.89,14.41-5.59,9.72-1.35,22.72-1.58,31.73,2.73,10.38,5,10,23.31,11.23,33.13,2.18,17,7.23,40.92,26.59,46.21l.18,0a287.23,287.23,0,0,0-3.54,38.8,4,4,0,0,0-2.71-1.44c-9.89-1.17-17.19-10.1-23.57-16.95-7.46-8-12.67-16.5-14.83-27.32-2-10.09-2-20.46-3.69-30.61-1.22-7.51-3.36-15.67-10.07-20.13-7.71-5.13-17.44-2.07-25.33-6.2C54.13,226.91,55.09,221.41,59.71,217.38Z"/><path class="cls-3" d="M232.94,291.67c-1.91-1.48-5.67-.47-5.33,2.45a95.43,95.43,0,0,0,18.72,46.08c10.12,13.31,24.79,22.46,40.15,28.64,16.11,6.48,33.8,8.62,50.72,4.14,15.42-4.09,29.88-12.61,41.75-23.18,12.31-11,23.49-26.18,26.44-42.74a4,4,0,0,0-2.06-4.35,3.71,3.71,0,0,0-3-1.23c-28.37.47-56.26,2-84.6-.85-13.59-1.39-27.17-3-40.74-4.61C261.22,294.42,246.83,291.54,232.94,291.67Z"/><path class="cls-3" d="M449.32,272.28c5.06-1.75,7-8.68,3.15-12.59a7.18,7.18,0,0,0-5.58-2.12c-4.12-3.33-8.72,3.13-8.45,7.27C438.77,270.1,444.2,274.06,449.32,272.28Z"/><path class="cls-3" d="M191.25,259.39a6.31,6.31,0,0,0,5.53-4.61c.64-2,.71-4.84-.46-6.68-1.6-2.52-4.79-2.58-7-1a6.86,6.86,0,0,0-2.08,1.17,6.59,6.59,0,0,0-2.08,6.94A6.09,6.09,0,0,0,191.25,259.39Z"/><path class="cls-3" d="M224.38,241a30,30,0,0,0,20.3,5.63C264.24,248.33,280,234,283.18,215c3.12-18.28,1.48-43.74-17.73-52.75-17.58-8.24-41.18,7.71-48.19,23.76C210.11,202.37,208.21,229.26,224.38,241Zm-3-42.8c1.89-9.22,6.15-16.72,13.44-22.19-3.19,8.72-3.75,21.8-3.62,26,.36,12.13,3.73,26.74,11.13,37.25-6.59-.12-13.07-2.59-17.37-7.89C217.93,222.67,219.31,208.47,221.41,198.17Z"/><path class="cls-3" d="M392.12,252c24.94-3.18,41.43-32.84,38.45-56.13-1.46-11.45-7.42-22.89-18.05-28.27a26.59,26.59,0,0,0-6.39-2.28l-.06,0c-13.12-3.61-27.71-2.87-39.18,5-10.64,7.34-15.06,18.5-16.2,31C348.5,225.58,363.82,255.59,392.12,252ZM368.25,178a34.45,34.45,0,0,1,16.15-7.63,28.87,28.87,0,0,0-4,3.71c-16.3,18.43-15.23,54.32,3.95,70.58-15.3-2.13-26.17-20-26.84-35.38C357.05,197.91,359.31,185.81,368.25,178Z"/><path class="cls-3" d="M494.22,211.53c4,18,4.72,36.12,5.88,54.42.06.83,1.42,1.15,1.57.21,5.86-37-7.3-75-25.27-106.72a.39.39,0,0,0-.68.4C484.39,175.8,490.25,193.85,494.22,211.53Z"/><path class="cls-3" d="M500.07,281.15A184,184,0,0,0,499,311.3c0,1.16,1.88,1.53,2.13.28,1.88-9.62,2.28-20.81.19-30.43C501.2,280.55,500.15,280.5,500.07,281.15Z"/><path class="cls-3" d="M234.28,489a176,176,0,0,0,21.19,18.6c7.24,5.49,15,11.85,23.49,15.22.8.32,1.3-.82.79-1.36-6.35-6.75-15.07-11.47-22.43-17a176.38,176.38,0,0,1-22.14-19.35c-12.63-13.34-22.59-28.87-36.82-40.69-.61-.5-1.49.32-.89.89C211.38,458.46,221.1,475.24,234.28,489Z"/></svg>