<svg id="Layer_1" data-name="Layer 1" xmlns="http://www.w3.org/2000/svg" viewBox="0 0 600 600"><defs><style>.cls-1{fill:#fff;}.cls-2{fill:#00aeef;}.cls-3{fill:#fff200;}.cls-4{fill:#27aae1;}.cls-5{fill:#009344;}.cls-6{fill:#231f20;}</style></defs><title>doodle</title><path class="cls-1" d="M360.85,136a5.83,5.83,0,0,0-.7-2.79,1.27,1.27,0,0,0-1.07-.19c-.69.18-1.56,1.5-1.79,2.12a5.1,5.1,0,0,0-.21,1.06A2.83,2.83,0,0,0,360.85,136Z"/><path class="cls-1" d="M284.29,185.68c7.26-.74,14.51-1.56,21.77-2.32,6.45-.67,13-1.2,19.26-2.82,3.29-.85,16.66-4.78,14.06-9.92-1.35-2.65-6.14-3.89-8.74-4.49a41.48,41.48,0,0,0-9-.9c-13.92-.1-27.94,1.09-41.86,1.61-6.74.25-13.53.48-20.17,1.77-3.36.65-7.21,1.36-10.22,3.08a7.62,7.62,0,0,0-3.19,3.48,1.4,1.4,0,0,1,.27.48C251.77,191.86,271.42,187,284.29,185.68Zm-23-8.66c8.82-2.88,18.82-3.09,28-4q7.24-.72,14.48-1.42c4.68-.45,9.81-1.58,14.48-1a1.92,1.92,0,0,1,.51,3.75c-4.5,1.4-9.73,1.25-14.41,1.67s-9.26.83-13.9,1.23c-9.44.81-19.51,2.51-29,1.29A.75.75,0,0,1,261.31,177Z"/><path class="cls-1" d="M217.5,144.84a2.71,2.71,0,0,0-1.94,1.73c-.36.76-.52,3.14.73,3.41,2.17.47,2.3-3.21,2.24-4.5a1.65,1.65,0,0,1,.12-.74A3.9,3.9,0,0,0,217.5,144.84Z"/><path class="cls-2" d="M219.54,97.31a1.55,1.55,0,0,1,.54,2.58c-14.18,13.85-25.81,29.77-33.8,48a145.1,145.1,0,0,0-11.86,48.08A89.67,89.67,0,0,1,186.11,179c1.15-1.32,3.7.08,3,1.77-4.19,10.64-7.58,21.16-8.52,32.62a202.64,202.64,0,0,0,.2,31.26c1.31,18.12,4.94,36.13,12.23,52.78a154,154,0,0,1,4.83-29.54c.6-2.27,3.9-1.7,4,.54a76.42,76.42,0,0,0,7.14,29.7,84.73,84.73,0,0,0,14.75,21.33c-.27-1.71-.51-3.44-.83-5.12a1.72,1.72,0,0,1,3.13-1.32c7.29,10.85,18.19,16.08,29.95,20.36a57.43,57.43,0,0,1-3.44-8.06c-.5-1.45,1.42-3,2.71-2.09a63.92,63.92,0,0,0,25.85,11.21c8.21,1.67,16.58,2.51,24.62,4.85l0-.07a2.14,2.14,0,0,1,2.62-2.61,24,24,0,0,1,6.83,2.9l.19.15a88.4,88.4,0,0,0,27.6-5.43,2,2,0,0,1,2.56,1.94,23.56,23.56,0,0,1-.74,7.12,196.27,196.27,0,0,0,25-21.19c1.3-1.32,4.11-.42,3.9,1.61q-.34,3.47-.71,6.93a139.18,139.18,0,0,0,22.29-46.89c.7-2.69,4.8-2.08,4.8.65q0,3.81.34,7.58a173.68,173.68,0,0,0,14.18-44.08c.34-1.93,3.23-2.14,4.1-.54A89.94,89.94,0,0,1,426,265.11a16.84,16.84,0,0,0,.12-3.1c-.09-3-.39-6-.59-9.06q-.63-9.27-1.52-18.52-1.85-19-4.9-37.92c-.33-2,1.63-4,3.66-2.81l8.09,4.77A328.5,328.5,0,0,0,377,116.32a2.38,2.38,0,0,1,2.29-3.94,24.18,24.18,0,0,1,6.92,2.46c-10.11-17.7-26.48-31.92-45.88-38.44-1.86-.63-2.26-3.78,0-4.2l3.67-.69c-21-8.28-44.87-5.23-64.22,6.36a1.54,1.54,0,0,1-1.18.21c-3.1.5-6.55-.14-9.68-.13-3.65,0-7.29.23-10.91.61A106.76,106.76,0,0,0,237.14,83c-10.77,3.4-23.2,8.44-30.67,17.5a37.67,37.67,0,0,1,12.36-3.35A1.12,1.12,0,0,1,219.54,97.31Zm176.77,170.3a.86.86,0,0,1-1.42.38,13.62,13.62,0,0,1-2.41-2.94c-.46,2.29-1.28,5.18-3.1,4.66-2.55-.72-2.11-8.12-2.07-9.83,0-.46.72-.59.82-.11.27,1.24.45,2.5.65,3.76.13.81.07,2.6.56,3.24-.06.65.17.74.68.26.18-.63.35-1.26.53-1.89.26-.95.52-1.9.79-2.85a.84.84,0,0,1,1.6,0,12.23,12.23,0,0,0,1.94,3.24,39.35,39.35,0,0,0-.6-12.94c-.94-4.37-2.92-8.17-4.53-12.28-.22-.56.64-1.05,1-.59C396.76,247.05,397.74,258.62,396.31,267.61Zm-9-84.27c.09-1,1.59-1,1.58,0-.06,4.06-.2,8.4,1.94,12,.39.66,1.21,2.16,1.95,2.48,1.73.74,1.45-1.16,1.52-2.35a21.51,21.51,0,0,0-.75-6.59.89.89,0,0,1,1.72-.48c.77,2.26,3.81,3.56,5.55,5.06a27,27,0,0,1,2.77,2.79A21.67,21.67,0,0,0,399.88,185c-.47-.71.49-1.74,1.21-1.21A44.6,44.6,0,0,1,406,188a27.27,27.27,0,0,0-11.61-15.62.37.37,0,0,1,.37-.63,25.19,25.19,0,0,1,13.61,18.89c.12.78-.84,1.6-1.48.86a43.91,43.91,0,0,0-3.37-3.45,23.89,23.89,0,0,1,1.85,10.68c0,.7-1,1.31-1.55.64a33.77,33.77,0,0,0-6.8-6.55c-.43-.31-.83-.6-1.21-.91.45,4.24.38,10.22-3.47,7.86C387.11,196.59,386.77,188.63,387.27,183.34Zm-88.18,80.48a.92.92,0,0,1-1.67.22c-4.7-8.64-6.1-19.33-2.53-28.63a.73.73,0,0,1,1.4.39c-2.21,8.47-2,17,1.54,24.92a91.31,91.31,0,0,1,4.25-14.54c.35-.92,1.83-.86,1.8.24a30.72,30.72,0,0,0,3,14.09,55.71,55.71,0,0,0,4.68-22.75.94.94,0,0,1,1.59-.65,41.49,41.49,0,0,1,3.67,5.31c1.75-10-.06-19.93-4.47-29.17a.38.38,0,0,1,.66-.39c6.21,9.52,7.7,21.57,5.13,32.54a1,1,0,0,1-1.72.22,40.74,40.74,0,0,0-3.06-5.14,58.79,58.79,0,0,1-5.61,22.69,1,1,0,0,1-1.64,0,32.36,32.36,0,0,1-3.88-12A91.26,91.26,0,0,0,299.09,263.82Zm23.87,53c-.24,1.67-.62,2.48-2.42,2.42-3.92-.12-7.74-3-10.29-6.13l-.06,3.85a.8.8,0,0,1-1.35.56c-3.23-3-5.82-7.18-6.08-11.7,0-.54.74-.59.9-.12a24.63,24.63,0,0,0,5,9.37c0-1.49,0-3,0-4.45a.83.83,0,0,1,1.53-.42c1.69,2.7,5.4,6.72,8.91,6.89,1.62.08,1.83-.37,2.15-1.94a12.32,12.32,0,0,0-.05-2.78c-.09-2-.25-4-.42-6,0-.58.77-.59.94-.13A21.59,21.59,0,0,1,323,316.82Zm53.71-91.23a.87.87,0,0,1-1.3.74l-6.62-4.64a26.66,26.66,0,0,1,1.6,7c.16,1.89.35,4.44-1.82,5.11-.76.24-1.12-.68-.71-1.2,2.45-3.09-.38-9.9-1.85-12.93-.35-.72.42-1.77,1.21-1.22L375,224c.19-9-1.88-19.07-10.81-23.28-.39-.18-.11-.84.29-.69C375,204,377.07,215.58,376.67,225.59Zm-6.31-60.82c2.88,0,2.88,4.48,0,4.48S367.47,164.77,370.36,164.77ZM356.26,110a32.33,32.33,0,0,1,5.3,1.69c1.18.51,3.16,1.89,2.33,3.45s-3.28.83-4.48.23a14.14,14.14,0,0,1-4.3-3.41A1.19,1.19,0,0,1,356.26,110Zm-4.19,20.4a5.43,5.43,0,0,1,3.07-3.37,6.67,6.67,0,0,1,7.26,1.13,8.08,8.08,0,0,1,.91.94,7.13,7.13,0,0,1,2.22,9.16,7,7,0,0,1-2.66,3.8c-4.46,3.2-11.43-.54-12.26-5.71A8.51,8.51,0,0,1,352.07,130.36ZM345,276.18a21.71,21.71,0,0,0,2.51,6.76,10.39,10.39,0,0,0,2,2.86q1,1.79,2.79-.34c.15-.49.28-1,.39-1.48a30.72,30.72,0,0,0-.64-15.14c-.25-.93,1.06-1.23,1.4-.39a25.46,25.46,0,0,1,1.66,11.75c-.21,2.4-.4,6.45-2.49,8.09-3.65,2.88-7.15-4.8-8.63-9.25-1.13,2.86-2.12,5.76-3,8.72a.87.87,0,0,1-1.56.2c-4.32-5.67-7.3-15.92-3.06-22.48.2-.31.82-.22.77.21-.42,3.82-1.39,7.24-.75,11.15a22.44,22.44,0,0,0,3.47,8.78,92.62,92.62,0,0,1,3.52-9.64A.87.87,0,0,1,345,276.18ZM308.65,90.85c8.78,1.44,19.18,4.29,21.8,14a.82.82,0,0,1-1,1c-3.32-.94-6.59-2-9.85-3.1a38.84,38.84,0,0,1,6.42,7.31c1.68,2.61,4.07,7,2.06,10a.89.89,0,0,1-1.36.18c-.85-.72-1.69-1.45-2.53-2.18a37.68,37.68,0,0,1,.29,9.44c-.07.61-.9,1.18-1.39.57-2.1-2.61-4.55-5.71-5.22-9.06a.54.54,0,0,1,1-.42c1.57,2.08,2.72,4.43,4.16,6.62a31.29,31.29,0,0,0-.86-9.13.85.85,0,0,1,1.4-.81c1.18,1,2.34,2,3.5,3,.93-3.2-2.7-8.07-4.35-10.12a55.73,55.73,0,0,0-6.77-6.71.75.75,0,0,1,.72-1.24c3.91,1.29,7.85,2.48,11.79,3.69-3-8.13-12.34-10.37-20-12.22C307.91,91.51,308.15,90.77,308.65,90.85Zm-59.19,21.28c3.11-4.32,6.7-8.41,12.19-9.37.44-.08.63.55.19.67-4.2,1.16-7.21,4.22-9.76,7.58,1.88-.65,3.78-1.21,5.71-1.71.68-.17,1.31.74.72,1.25-3.61,3.12-6.61,7.76-4.82,12.38a11.67,11.67,0,0,1,4.39-5.81.41.41,0,0,1,.56.55c-1.59,2.45-3.19,4.61-4.07,7.44a.78.78,0,0,1-1.41.18c-3-4.8-1.14-9.94,2.26-13.79q-2.59.77-5.13,1.7A.73.73,0,0,1,249.46,112.13Zm-5.88,62.38c.92-3.22,4-5.13,6.83-6.42,8.34-3.77,17.65-4.8,26.67-5.45s18.2-.94,27.29-1.33c8.13-.35,16.55-1.29,24.65-.09,5.38.81,15.13,3.58,15.34,10.48s-9.72,10.71-15.05,12.41c-7.5,2.39-15.46,3-23.25,3.74-9.17.91-18.34,1.76-27.5,2.68-7.93.8-16.65,2.21-24.27-.87-4.46-1.79-8.9-5.43-10.08-10.14A6,6,0,0,1,243.58,174.51Zm-4.44,99.71c.25-.38.94-.14.77.33-2.48,6.84.44,13.24,4.26,18.93a17.5,17.5,0,0,1,0-6.45c.16-.83,1.31-.68,1.54,0a34,34,0,0,0,8.88,13.74,43.39,43.39,0,0,0-1.37-9.86c-.23-.89,1.13-1.53,1.53-.65,1.32,2.95,2.75,5.84,4.34,8.65q1.19,2.11,2.48,4.16a7.21,7.21,0,0,0,1.17,1.81,2.55,2.55,0,0,0,3.14-.67c.74-1,1-3.21,1.22-4.46a32.3,32.3,0,0,0,.57-5.38,55.79,55.79,0,0,0-1-9.46.66.66,0,0,1,1.28-.35c1.7,4.12,1.81,9,1.24,13.4-.37,2.84-.9,8-3.32,9.93-2.57,2.08-4.3-1.74-5.43-3.51-1.59-2.52-3.06-5.12-4.42-7.77a46.1,46.1,0,0,1,.27,6,.83.83,0,0,1-1.4.58,36,36,0,0,1-9.4-12.54,15.63,15.63,0,0,0,2.12,7.59c.51.89-.76,1.57-1.33.78C241.64,292.77,234,282.27,239.14,274.22ZM205.62,131.37c-1,.67-2.06-.44-1.86-1.42.39-2,1.89-3.63,3.2-5.06s2.87-3.08,4.8-2.5a1,1,0,0,1,.73,1c0,1.85-1.74,3-2.94,4.12S207.15,130.32,205.62,131.37Zm7.22,46.15a2.41,2.41,0,0,1-.29.4,3.85,3.85,0,0,1-.72.66l.48-.37a2.41,2.41,0,0,1-1.13.69,1.78,1.78,0,0,1-.68.06h0a2.1,2.1,0,0,1-.75-.11,2.35,2.35,0,0,1-1.33-1,3.2,3.2,0,0,1-.16-.39c0-.08-.09-.16-.12-.24a2.67,2.67,0,0,1,.54-2.88l.06-.05a2.55,2.55,0,0,1,2.79-.53,2.73,2.73,0,0,1,.81.54h0l.06.05A2.68,2.68,0,0,1,212.84,177.52Zm15.38,63.27c1.09,1,1.46,1.86,1.78.25a13.19,13.19,0,0,1-.2-1.5h0c0-.62.84-.66,1-.14.45,1.25,1.73,3.18,0,4.13s-3.69-1.58-4.65-2.58a21,21,0,0,1-5.64-11.8,13.45,13.45,0,0,0-.5,3,.74.74,0,0,1-1.44.19c-1.71-7-1.08-14.76,2.85-20.92a.44.44,0,0,1,.76.44,32.13,32.13,0,0,0-2.88,16.25,14.43,14.43,0,0,1,1.13-2.52.75.75,0,0,1,1.39.37,19.29,19.29,0,0,0,6.37,14.85Zm-2.48-93.85c1,3.68,0,8.26-2.91,10.84a6.87,6.87,0,0,1-9.42-.22c-4.85-4.66-4.48-12.77.87-15.34C218,139.62,224.21,141.4,225.74,146.94Z"/><path class="cls-1" d="M388.3,122.08c1,1.19,2,2.39,3,3.59A20,20,0,0,0,388.3,122.08Z"/><path class="cls-3" d="M261,506.21c.71,2.3.9,4.67,3.34,5.59,3.94,1.49,9,.55,12.93-.89,1.82-8.29,2.77-17.71,1-26-.69-3.24-1.92-6.84-4.91-8.64-3.34-2-8.65-1.3-12.31-.54-1.83.38-3.81,1-5,2.55-1.39,1.92-1.09,4.78-.84,7,.53,4.76,2.13,9.37,3.55,13.92Q259.93,502.69,261,506.21Z"/><path class="cls-4" d="M287.25,563.9a154.62,154.62,0,0,1-44.55,20.59c-6.4,1.79-13.57,3.14-20.2,1.72l.45.3c4.94,3.19,10.42,2.68,15.94,1.56,18.61-3.77,36.64-8.84,52.31-20,6.69-4.74,13.57-10.45,17.25-18a21.37,21.37,0,0,0,2.14-8.86,26.4,26.4,0,0,1-4.4,7C300.91,554.43,293.91,559.41,287.25,563.9Z"/><path class="cls-1" d="M265.64,536.29a15.76,15.76,0,0,1-10.19-3.41c-.55,1.07-1.15,2.11-1.74,3.15a23,23,0,0,0,5.69,1.08A29.3,29.3,0,0,0,265.64,536.29Z"/><path class="cls-4" d="M274.05,522.51a55.74,55.74,0,0,0,2.05-7,21.17,21.17,0,0,1-10.94,1,16.63,16.63,0,0,1-3.26-.84c-.57,2.18-1.23,4.34-2,6.48,1.87,1.68,5,2.19,7.34,2.12s4.32-1.21,6.62-1.79Z"/><path class="cls-1" d="M259.49,523.49c-.23.62-.46,1.25-.7,1.87A18.15,18.15,0,0,0,266,527.8a17.78,17.78,0,0,0,6.16-.69c.38-.84.75-1.71,1.1-2.57C269.67,527,262.48,526.79,259.49,523.49Z"/><path class="cls-4" d="M252.51,542.93a17.74,17.74,0,0,0,4.12.06,12.46,12.46,0,0,0,8.92-4.64c-3.77,1.36-8.83.65-12.61-1-.5.89-1,1.79-1.47,2.7-.25.5-1.08,1.7-.77,2.28S252.07,542.85,252.51,542.93Z"/><path class="cls-4" d="M268.79,533.69c.54-.92,1-1.87,1.54-2.81.22-.41.43-.83.64-1.25a16.56,16.56,0,0,1-12.63-3.13c-.66,1.64-1.36,3.25-2.11,4.85-.07.14-.15.28-.22.43a16.35,16.35,0,0,0,5.5,2.32C264.1,534.63,266.35,534.15,268.79,533.69Z"/><path class="cls-5" d="M155.82,212.74a80,80,0,0,1-12.26-26c-5.76-21.08-3.29-43.12,2.36-63.93a2,2,0,0,1,2.39-1.35c8.81,2.53,18.25-1.76,21.37-10.58,1-2.75,2.46-10.36-1.5-11.48-4.24-1.2-9.23,3.57-11.59,6.48-1.13,1.39-3.62-.11-3-1.76,2.56-7,5.14-14.38,6-21.79C160.2,77,159.5,67.58,152,68c-7.23.4-10.37,8.84-12.32,14.59A67,67,0,0,0,135.94,104c0,2.5-3.49,2.34-3.77,0-.67-5.52-5.53-31.92-15.43-25.71-5.5,3.44-3.7,10.9-1.91,15.91a54.9,54.9,0,0,0,7.92,14.56c1.31,1.73-1.13,3.35-2.66,2.65-4.28-1.94-9.65-4.19-14.43-4.31-5.06-.12-3.53,7.79-2.2,10.62,3.83,8.09,13.09,10.48,21.32,10.57a2,2,0,0,1,1.9,2.49A106.44,106.44,0,0,0,121,160.68a75.88,75.88,0,0,0,15.25,49.09A155.74,155.74,0,0,0,154.16,229c3.2,3,6.39,6.24,10.12,8.62s8,3.43,12.3,4.24c-.26-4.2-.42-8.42-.43-12.63C167.57,226.6,161,219.84,155.82,212.74Z"/><path class="cls-3" d="M343.92,544.4a15.74,15.74,0,0,0,7,1c9.41-.83,16.1-9,22.33-15.18,7.07-7,15.14-13.83,20.87-22a40.3,40.3,0,0,0,6.29-13.35,15.43,15.43,0,0,0,.42-2.75c-9.38,11.43-19.86,22.16-30.29,32.61C363.28,531.94,354.64,542.31,343.92,544.4Z"/><path class="cls-4" d="M380,529.67c-4.17,4.25-8.24,8.69-12.79,12.54-5.9,5-14.1,9-21.79,7.13.46.31.94.61,1.45.89,4.63,2.52,10,3.72,14.72,1,8.45-4.93,15.55-12,22.45-18.81,6.63-6.59,13.73-13.48,17.64-22.12a29.54,29.54,0,0,0,2.68-12.38c-2.11,7-6.92,13.67-11.33,18.51C388.87,521,384.34,525.25,380,529.67Z"/><path class="cls-1" d="M358.57,503.4c2.33-.2,4.59-1.27,6.85-1.72,0-.38-.05-.77-.08-1.15a15,15,0,0,1-5.46.85c-3.17.12-6.36.2-9.31-1.05-.21.81-.41,1.62-.63,2.43A31.66,31.66,0,0,0,358.57,503.4Z"/><path class="cls-1" d="M359.49,515a23.13,23.13,0,0,1,3.09-.81c.11-.17.21-.36.32-.54a19.32,19.32,0,0,1-5.23.2c-3.27-.3-7.16-1-10.13-2.74-.31,1-.61,2-.94,3,2,.45,4,1.39,6.07,1.61A18.56,18.56,0,0,0,359.49,515Z"/><path class="cls-4" d="M360.38,516.87a22,22,0,0,1-6.8.79,21.6,21.6,0,0,1-7.59-1.73c-.71,2.11-1.45,4.21-2.24,6.29A19.88,19.88,0,0,0,360.38,516.87Z"/><path class="cls-5" d="M460.8,130.74a170.29,170.29,0,0,0,11.42-64,2.36,2.36,0,0,1,2.94-2.24,24.72,24.72,0,0,0,14.38-2c3.91-1.83,8.56-5.13,10.11-9.34,1.17-3.16-.2-5.56-3.55-6a31.87,31.87,0,0,0-7,0A34.18,34.18,0,0,0,473.3,53c-2.13,1.43-4.4-1.74-2.68-3.47a28.88,28.88,0,0,0,7.59-12.8,28.6,28.6,0,0,0,1-7.42,26.9,26.9,0,0,0-.18-3.59c-.29-2.32-1.57-2-3.24-1.16C467.32,29,463.55,38.62,460.16,47a2,2,0,0,1-3.94-1.09,112.74,112.74,0,0,0,2-23.76c-.1-4.64.27-18.54-8.15-12.91-5.73,3.84-6.21,12.08-6.61,18.29-.41,6.39-.05,12.62,3.82,18,1.39,1.91-1.6,4-3.17,2.45-4.38-4.38-9.69-9.82-16.45-9.22-2.77.25-5.58,1.53-6.85,4.13-1.54,3.16-.12,6.89,1.55,9.68a23.81,23.81,0,0,0,13.34,10.29c2.14.66,4.54,1.09,5.79,3.18s1.3,5.31,1.71,7.69c2.19,12.59,3.24,25.08,1.41,37.79-2.54,17.67-11.17,40.64-29.46,47.29q4.65,7.38,8.91,15C441.57,165,453.71,148.68,460.8,130.74Z"/><path class="cls-3" d="M290.83,549.42A162.49,162.49,0,0,1,266,565.81a106.39,106.39,0,0,1-28.38,10.33,82.2,82.2,0,0,1-13.81,1.6,33.19,33.19,0,0,1-8.36-.49c3,4.29,10,5.17,15,4.91,7.78-.42,15.5-3.29,22.73-6A151.84,151.84,0,0,0,291.36,555c5.41-4.14,11.88-8.86,14.84-15.19a17.53,17.53,0,0,0,1.59-7.15C304.06,539.54,296.71,544.8,290.83,549.42Z"/><path class="cls-5" d="M282.86,484.09c1.32,7.13.21,15.76-1.44,22.49a.93.93,0,0,1,1.08.61c.84,3.35.31,7.25-.11,10.65a60.09,60.09,0,0,1-2.11,10,55.67,55.67,0,0,1-9.34,18.22c-4.44,5.62-10,6.51-16.86,5.86-1.16-.11-8.76-1-10.89-2.9a64.45,64.45,0,0,1-15,8.47c-3.41,1.38-7.28,2.35-10.17,4.75s-4.43,7.29-4,11.15a8.83,8.83,0,0,0,.44,1.92c8.19,1.82,17.23.31,25.23-1.58a107,107,0,0,0,26.23-10.17,162.73,162.73,0,0,0,23.81-16c6.93-5.51,13.1-10.94,17.61-18.63a1.2,1.2,0,0,1,.17-.21,55.49,55.49,0,0,0-3.59-12.09c-2.84-7.23-5.78-14.39-8-21.86-1.76-5.92-2.65-12.55-5.24-18.25A22.75,22.75,0,0,1,282.86,484.09Z"/><path class="cls-5" d="M258.33,329.8a55.31,55.31,0,0,0,3.34,6.07,1.86,1.86,0,0,1-2.08,2.7c-6.92-2.4-14.63-5.08-21.4-9a24.7,24.7,0,0,0-7.95,1.07,22.56,22.56,0,0,0-7.37,4.43,29.44,29.44,0,0,0-8.35,13.28c-3.45,10.83-1.32,22.22,2.37,32.7a164.06,164.06,0,0,0,14.84,31.63c5.86,9.47,13.45,17.68,19.92,26.71,6.8,9.5,11.2,20,15.34,30.88l.06.2c1.09,0,2.13.09,3.1.19,6,.66,9.55,4.12,11.44,8.9A17.92,17.92,0,0,0,288,472.4a14.41,14.41,0,0,1-1.19-3.23c-.16-.6-.29-1.2-.39-1.79a2.45,2.45,0,0,1-.3-.63c-1.87-6.65-3.2-13.27-5.83-19.7a119.92,119.92,0,0,0-9.83-18.62c-6.65-10.5-14.74-19.8-22.32-29.61s-14.32-21.31-13.09-34.1c.5-5.15,2.24-10.7,6.26-14.21,4.37-3.83,10.2-3.41,15.62-3.3,6.71.14,13.57.71,20.26.2,5.61-.42,10.83-2.42,14-7-4.05-.71-8.11-1.37-12.12-2.25A65.84,65.84,0,0,1,258.33,329.8Z"/><path class="cls-3" d="M368.49,477.83c3-6.2,3.62-17.3-2.54-22-4.11-3.13-9.22.34-12.52,3-2,1.61-2.45,2.58-2.28,5.18.15,2.18.29,4.35.38,6.52.27,6.16.35,12.85-1,19.06A21.45,21.45,0,0,0,368.49,477.83Z"/><path class="cls-4" d="M352.07,494.18q-.6,2.63-1.26,5.24a55.21,55.21,0,0,0,8,.23,31.54,31.54,0,0,0,6.3-1.08,80,80,0,0,0-1.63-8.38A26.65,26.65,0,0,1,352.07,494.18Z"/><path class="cls-4" d="M364.11,511.05a21.88,21.88,0,0,0,1.33-7.27,22.93,22.93,0,0,1-15.79.07c-.55,2-1.11,4-1.71,6a69.83,69.83,0,0,0,8.84,2A16.63,16.63,0,0,0,364.11,511.05Z"/><path class="cls-5" d="M397.11,480.7c-4.57-6.88-9.34-13.76-14.42-20.32L380.82,458l-1-1.23-1.4.77c-2.16,1.2-4.1-2.11-1.93-3.31l2.83-1.57a1.94,1.94,0,0,1,.64-.22,44.66,44.66,0,0,0-12.67-23.67c-14.23-13.63-36.81-21.94-42.43-42.6A45.94,45.94,0,0,1,326,360a55.86,55.86,0,0,1,6-12.44c1.38-2.18,2.88-4.62,4.57-6.87A84.82,84.82,0,0,1,313.27,344a1.89,1.89,0,0,1-1.87-1.27c-1,1.38-2.25,2.62-3.29,4a43.39,43.39,0,0,0-3.65,5.79,44.55,44.55,0,0,0-4.35,13.36c-3,18,5.06,35.34,16.87,48.55,6.37,7.13,14.27,12.48,20.85,19.36,5.59,5.84,11,13,14.05,20.62,2.83-2.19,5.91-4.11,9.57-4.46,8.2-.78,12.66,7,13.81,14.15a25.83,25.83,0,0,1-8,23.2c2.55,9.58,4.81,20.87-1.19,29.67-5.06,7.44-15.37,11.28-24.19,9.56-1.77,3.78-4,8.25-3.27,12.11a.68.68,0,0,1,.1.21c.09.36.19.71.29,1.06a7.68,7.68,0,0,0,2.91,3.49c12.08-2.45,21.49-14.14,29.63-22.43,10.11-10.28,19.49-21.15,29.18-31.8A20.77,20.77,0,0,0,397.11,480.7Z"/><path class="cls-4" d="M262.77,549.78c5.34-1.51,8.53-7.18,11-11.76a58,58,0,0,0,5.59-15.08,56.12,56.12,0,0,0,1.2-8.57c.1-1.6,0-3.21.06-4.82-.19.67-.38,1.31-.58,1.91a2.19,2.19,0,0,1,.25,1.43c-1.73,8.38-4.12,16.18-8.58,23.57a26.73,26.73,0,0,1-6.24,7.58c-3.06,2.35-6.58,3-10.35,3.1-2.5.09-5.67.15-7.53-1.81-1,.94-2.07,1.83-3.14,2.69,2,1.71,8.06,1.93,9.63,2.06C256.89,550.32,260,550.55,262.77,549.78Z"/><path class="cls-6" d="M214.28,142.22c-5.35,2.57-5.72,10.68-.87,15.34a6.87,6.87,0,0,0,9.42.22c2.93-2.58,3.93-7.16,2.91-10.84C224.21,141.4,218,139.62,214.28,142.22Zm2,7.76c-1.25-.27-1.09-2.65-.73-3.41a2.71,2.71,0,0,1,1.94-1.73,3.9,3.9,0,0,1,1.15-.1,1.65,1.65,0,0,0-.12.74C218.59,146.77,218.46,150.45,216.29,150Z"/><path class="cls-6" d="M212.37,174.28h0a2.73,2.73,0,0,0-.81-.54,2.55,2.55,0,0,0-2.79.53l-.06.05a2.67,2.67,0,0,0-.54,2.88c0,.08.08.16.12.24a3.2,3.2,0,0,0,.16.39,2.35,2.35,0,0,0,1.33,1,2.1,2.1,0,0,0,.75.11h0a1.78,1.78,0,0,0,.68-.06,2.41,2.41,0,0,0,1.13-.69l-.48.37a3.85,3.85,0,0,0,.72-.66,2.41,2.41,0,0,0,.29-.4,2.68,2.68,0,0,0-.41-3.19Z"/><path class="cls-6" d="M212.49,123.35a1,1,0,0,0-.73-1c-1.93-.58-3.61,1.19-4.8,2.5s-2.81,3.09-3.2,5.06c-.2,1,.88,2.09,1.86,1.42,1.53-1.05,2.6-2.61,3.93-3.9S212.52,125.2,212.49,123.35Z"/><path class="cls-6" d="M502.08,44.66c-2.58-2.35-6.74-2.26-10-2.15A40.19,40.19,0,0,0,479.62,45a31.75,31.75,0,0,0,3.4-9.73c.69-4,2-15-4-15.6-5.3-.53-10.92,5.48-13.77,9.26a49.74,49.74,0,0,0-3.28,5c1.3-14.47.85-34.1-11.78-28.72-7.34,3.13-9.27,11.5-10.07,18.65-.55,5-.92,10.49.16,15.55-6-4.22-13.09-6.77-19.69-1.86-9.38,7-1.59,19.72,5.4,25a30.54,30.54,0,0,0,6.6,3.81c1.19.5,2.48.79,3.66,1.29,1.83.78,1.61,2.15,1.91,4,1.14,7,2.25,14,2.7,21a86.27,86.27,0,0,1-6,38.5c-4.4,10.58-11.36,19.6-21.36,25a328.93,328.93,0,0,0-20.78-28.73c1.64.85,4.23-.52,3.41-2.62-8.72-22.13-25.94-39.58-47.26-49.52l3.45-.55c2-.32,2.25-3.39.55-4.26C329.78,58.51,299.51,59.21,278.32,75c-3.18-.91-7.21-.52-10.41-.46a111.37,111.37,0,0,0-33.63,5.89c-12.61,4.34-26.89,10.83-33.59,23.06a1.55,1.55,0,0,0,2.1,2.1,78.78,78.78,0,0,1,10.88-4.17c-21.13,20.5-35.45,48.68-40.94,77.41a147.87,147.87,0,0,0-2.61,26.8c0,2.36,3.08,2.48,3.85.53a88.45,88.45,0,0,1,7.66-15A106.43,106.43,0,0,0,177,212.31c-.48,4.57-.72,9.17-.78,13.77-15.61-7.91-25.15-25.37-29.32-41.75-4.91-19.25-3-39.62,2.29-58.61a21.2,21.2,0,0,0,25.49-17.5c.72-5,0-12-6.16-12.79A12.8,12.8,0,0,0,159.74,98c2.36-6.64,4.31-13.68,3.94-20.49-.34-6.27-3.73-13.26-10.87-13.43-7.66-.18-12.41,6.47-15,12.82a76.93,76.93,0,0,0-4.38,14.58,61.19,61.19,0,0,0-3.75-9.74c-2.47-5-7.29-10-13.36-7.5-6.51,2.63-7.79,10-6.52,16.13A49.24,49.24,0,0,0,116,105.46c-1.15-.4-2.31-.76-3.49-1.07-2.69-.71-6.06-1.75-8.85-1.15-5.06,1.09-5.92,7.47-5.13,11.72,2.09,11.32,13.22,16.18,23.6,17.09-5.52,17.06-7.27,35.74-2.71,53.22,4.77,18.24,16.88,32.67,30.23,45.45a101.89,101.89,0,0,0,11.22,9.86c4.62,3.29,9.89,4.7,15.42,5.64a2.16,2.16,0,0,0,.62,0c1.63,21,6.26,42,16.12,60.8,1,1.88,3.88.95,3.9-1.06a148.66,148.66,0,0,1,2.3-25.21c3.19,17,11.6,33.53,24.77,44.55a2,2,0,0,0,1.27.49,1.22,1.22,0,0,0,2.29-.56,31.39,31.39,0,0,0-.25-4.32,36.24,36.24,0,0,0,5.41,5c-7,.84-13.82,6.34-17.51,11.65-6,8.65-7.48,19.54-6,29.79,1.81,12.48,7.12,24.45,12.44,35.8,5.24,11.18,12.23,20.86,19.81,30.55a133.43,133.43,0,0,1,11.93,17.16,151.44,151.44,0,0,1,8.7,19.89c-5.17.76-10.08,3.05-11.25,8.34-1,4.45.19,9.51,1.35,13.81,1.37,5.06,3.08,10,4.66,15a28.33,28.33,0,0,0,1.64,4.74A82.1,82.1,0,0,1,249,536.18a20.28,20.28,0,0,0-2.4,4.56,2.18,2.18,0,0,0-.92.49,74.31,74.31,0,0,1-22.12,13.09c-7.13,2.72-12.44,6.45-13.82,14.41a14.6,14.6,0,0,0,2.22,11.13,25.69,25.69,0,0,0,5.3,6.53c3.28,3.16,7.07,5.64,11.64,6.32,5.17.78,10.37-.39,15.42-1.37,5.89-1.15,11.78-2.33,17.57-3.93a101.71,101.71,0,0,0,28.81-13.15c8-5.28,16.21-11.69,21-20.16a26.89,26.89,0,0,0,3.54-15.31,40.19,40.19,0,0,0-2-9c-.4-1.29-.78-2.55-1.26-3.75-1.84-9.75-6.82-18.88-9.89-28.27-1.6-4.91-3-9.85-4.35-14.84-1.15-4.33-2.46-8.6-5.06-12.31a2.42,2.42,0,0,0-1-.85,16.39,16.39,0,0,1-.8-1.75,14.52,14.52,0,0,1-.53-1.93c-.46-11.37-6-23.11-11.44-32.89-5.84-10.46-13.08-20.07-20.73-29.26-8.07-9.69-17.13-19.9-18.64-33-.65-5.64.06-13,4.58-17,2.28-2,5.21-2.33,8.14-2.35,3.55,0,7.12.13,10.67.21,10.3.21,28.11,1.84,32.08-10.71a95.14,95.14,0,0,1,10,2.36,42,42,0,0,0-2.87,4.16A46.48,46.48,0,0,0,297,359.14a53.85,53.85,0,0,0-.88,25.79c4.05,19.45,17.3,34,32,46.39a73.75,73.75,0,0,1,11.57,12.12c3.38,4.51,5.78,9.42,8.49,14.32a7.77,7.77,0,0,0-1.55,5.71c.35,5.26.72,10.5.89,15.77s-.65,10.71-1.34,16a1,1,0,0,0,.54,1.1,261,261,0,0,1-8.23,26.87,2.23,2.23,0,0,0,.93,2.48c-3.86,5.26-5.75,12.4-2.59,17.69,1.33,5.71,7.09,10.09,12.48,11.94,3.87,1.33,7.61,1.73,11.39-.05,4.19-2,8.11-4.95,11.78-7.75a174.75,174.75,0,0,0,20.23-18.62c5.9-6.21,11.43-13.23,13.93-21.55,1.9-6.3,2.62-16.68-2.11-22.29-1.9-5.73-6.36-10.95-9.82-15.7-2.88-3.95-5.92-7.74-9-11.5a46.33,46.33,0,0,0-8.18-25c-5.74-8.38-14.15-13.94-22.18-19.9s-17.42-11.61-22.8-20.31c-4.81-7.79-5.78-17.41-4.12-26.29a47.05,47.05,0,0,1,5.17-14.25,78.52,78.52,0,0,1,4.78-7.45c.85-1.18,1.79-2.33,2.67-3.51a17.51,17.51,0,0,1-3.87,7.53c-1.58,1.82.45,5,2.71,3.52a214.86,214.86,0,0,0,28.51-22.46c-.38,3-.75,6.07-1.11,9.1-.24,2.05,2.84,3.25,4.14,1.72a139.79,139.79,0,0,0,24.81-43.19c.17,1.11.36,2.22.57,3.32.4,2,3.5,2.37,4.43.58a183.52,183.52,0,0,0,16.41-45.75,83.39,83.39,0,0,1,4.92,15.11,2.39,2.39,0,0,0,2.9,1.64c4.66-1.37,5.58-6.32,5.46-10.6-.2-7.54-.88-15.09-1.56-22.59-1.15-12.84-2.72-25.63-4.62-38.38l10.36,6.19c2.39,1.43,4.4-1.3,3.47-3.47q-5.6-13.14-12.32-25.64c18.48-8.43,30.69-25.49,38.26-43.84,8.39-20.32,12.09-42.61,12.34-64.55a29.45,29.45,0,0,0,15.84-3.18c5.24-2.7,11.35-7.84,12-14.1A8.83,8.83,0,0,0,502.08,44.66Zm-337.8,193c-3.73-2.38-6.92-5.6-10.12-8.62a155.74,155.74,0,0,1-17.88-19.24A75.88,75.88,0,0,1,121,160.68a106.44,106.44,0,0,1,5.65-29.92,2,2,0,0,0-1.9-2.49c-8.23-.09-17.49-2.48-21.32-10.57-1.33-2.83-2.86-10.74,2.2-10.62,4.78.12,10.15,2.37,14.43,4.31,1.53.7,4-.92,2.66-2.65a54.9,54.9,0,0,1-7.92-14.56c-1.79-5-3.59-12.47,1.91-15.91,9.9-6.21,14.76,20.19,15.43,25.71.28,2.34,3.76,2.5,3.77,0a67,67,0,0,1,3.72-21.39c2-5.75,5.09-14.19,12.32-14.59,7.52-.42,8.22,9,7.59,14.36-.86,7.41-3.44,14.82-6,21.79-.6,1.65,1.89,3.15,3,1.76,2.36-2.91,7.35-7.68,11.59-6.48,4,1.12,2.47,8.73,1.5,11.48-3.12,8.82-12.56,13.11-21.37,10.58a2,2,0,0,0-2.39,1.35c-5.65,20.81-8.12,42.85-2.36,63.93a80,80,0,0,0,12.26,26c5.19,7.1,11.75,13.86,20.33,16.5,0,4.21.17,8.43.43,12.63C172.27,241.06,168,240,164.28,237.63Zm227-112c-1-1.2-2-2.4-3-3.59A20,20,0,0,1,391.28,125.67Zm-136,359.61c-.25-2.23-.55-5.09.84-7,1.15-1.57,3.13-2.17,5-2.55,3.66-.76,9-1.49,12.31.54,3,1.8,4.22,5.4,4.91,8.64,1.77,8.3.82,17.72-1,26-3.92,1.44-9,2.38-12.93.89-2.44-.92-2.63-3.29-3.34-5.59s-1.47-4.68-2.2-7C257.41,494.65,255.81,490,255.28,485.28Zm12,39c-2.33.07-5.47-.44-7.34-2.12.73-2.14,1.39-4.3,2-6.48a16.63,16.63,0,0,0,3.26.84,21.17,21.17,0,0,0,10.94-1,55.74,55.74,0,0,1-2.05,7h-.15C271.6,523.1,269.73,524.24,267.28,524.31Zm6,.23c-.35.86-.72,1.73-1.1,2.57a17.78,17.78,0,0,1-6.16.69,18.15,18.15,0,0,1-7.23-2.44c.24-.62.47-1.25.7-1.87C262.48,526.79,269.67,527,273.28,524.54Zm-17,6.81c.75-1.6,1.45-3.21,2.11-4.85A16.56,16.56,0,0,0,271,529.63c-.21.42-.42.84-.64,1.25-.49.94-1,1.89-1.54,2.81-2.44.46-4.69.94-7.28.41a16.35,16.35,0,0,1-5.5-2.32C256.08,531.63,256.16,531.49,256.23,531.35Zm-.78,1.53a15.76,15.76,0,0,0,10.19,3.41,29.3,29.3,0,0,1-6.24.82,23,23,0,0,1-5.69-1.08C254.3,535,254.9,534,255.45,532.88Zm-4,7.19c.47-.91,1-1.81,1.47-2.7,3.78,1.63,8.84,2.34,12.61,1a12.46,12.46,0,0,1-8.92,4.64,17.74,17.74,0,0,1-4.12-.06c-.44-.08-1.57-.14-1.81-.58S251.22,540.57,251.47,540.07Zm-3.88,5.26c1.86,2,5,1.9,7.53,1.81,3.77-.15,7.29-.75,10.35-3.1a26.73,26.73,0,0,0,6.24-7.58c4.46-7.39,6.85-15.19,8.58-23.57a2.19,2.19,0,0,0-.25-1.43c.2-.6.39-1.24.58-1.91,0,1.61,0,3.22-.06,4.82a56.12,56.12,0,0,1-1.2,8.57A58,58,0,0,1,273.77,538c-2.47,4.58-5.66,10.25-11,11.76-2.75.77-5.88.54-8.69.3-1.57-.13-7.61-.35-9.63-2.06C245.52,547.16,246.58,546.27,247.59,545.33Zm60.86,4.83c-3.68,7.5-10.56,13.21-17.25,18-15.67,11.12-33.7,16.19-52.31,20-5.52,1.12-11,1.63-15.94-1.56l-.45-.3c6.63,1.42,13.8.07,20.2-1.72a154.62,154.62,0,0,0,44.55-20.59c6.66-4.49,13.66-9.47,18.94-15.59a26.4,26.4,0,0,0,4.4-7A21.37,21.37,0,0,1,308.45,550.16Zm-2.25-10.34c-3,6.33-9.43,11-14.84,15.19a151.84,151.84,0,0,1-38.19,21.12c-7.23,2.74-14.95,5.61-22.73,6-4.94.26-11.92-.62-15-4.91a33.19,33.19,0,0,0,8.36.49,82.2,82.2,0,0,0,13.81-1.6A106.39,106.39,0,0,0,266,565.81a162.49,162.49,0,0,0,24.8-16.39c5.88-4.62,13.23-9.88,17-16.75A17.53,17.53,0,0,1,306.2,539.82Zm-15.49-63.26c2.59,5.7,3.48,12.33,5.24,18.25,2.21,7.47,5.15,14.63,8,21.86a55.49,55.49,0,0,1,3.59,12.09,1.2,1.2,0,0,0-.17.21c-4.51,7.69-10.68,13.12-17.61,18.63a162.73,162.73,0,0,1-23.81,16,107,107,0,0,1-26.23,10.17c-8,1.89-17,3.4-25.23,1.58a8.83,8.83,0,0,1-.44-1.92c-.45-3.86,1-8.63,4-11.15s6.76-3.37,10.17-4.75a64.45,64.45,0,0,0,15-8.47c2.13,1.89,9.73,2.79,10.89,2.9,6.85.65,12.42-.24,16.86-5.86a55.67,55.67,0,0,0,9.34-18.22,60.09,60.09,0,0,0,2.11-10c.42-3.4.95-7.3.11-10.65a.93.93,0,0,0-1.08-.61c1.65-6.73,2.76-15.36,1.44-22.49A22.75,22.75,0,0,0,290.71,476.56ZM277.14,347.41c-6.69.51-13.55-.06-20.26-.2-5.42-.11-11.25-.53-15.62,3.3-4,3.51-5.76,9.06-6.26,14.21-1.23,12.79,5.58,24.37,13.09,34.1s15.67,19.11,22.32,29.61a119.92,119.92,0,0,1,9.83,18.62c2.63,6.43,4,13.05,5.83,19.7a2.45,2.45,0,0,0,.3.63c.1.59.23,1.19.39,1.79A14.41,14.41,0,0,0,288,472.4a17.92,17.92,0,0,1-6.36,7.18c-1.89-4.78-5.43-8.24-11.44-8.9-1-.1-2-.17-3.1-.19l-.06-.2c-4.14-10.86-8.54-21.38-15.34-30.88-6.47-9-14.06-17.24-19.92-26.71a164.06,164.06,0,0,1-14.84-31.63c-3.69-10.48-5.82-21.87-2.37-32.7a29.44,29.44,0,0,1,8.35-13.28,22.56,22.56,0,0,1,7.37-4.43,24.7,24.7,0,0,1,7.95-1.07c6.77,3.9,14.48,6.58,21.4,9a1.86,1.86,0,0,0,2.08-2.7,55.31,55.31,0,0,1-3.34-6.07A65.84,65.84,0,0,0,279,338.16c4,.88,8.07,1.54,12.12,2.25C288,345,282.75,347,277.14,347.41Zm72.51,156.44a22.93,22.93,0,0,0,15.79-.07,21.88,21.88,0,0,1-1.33,7.27,16.63,16.63,0,0,1-7.33.78,69.83,69.83,0,0,1-8.84-2C348.54,507.84,349.1,505.84,349.65,503.85Zm1.88-33.32c-.09-2.17-.23-4.34-.38-6.52-.17-2.6.29-3.57,2.28-5.18,3.3-2.67,8.41-6.14,12.52-3,6.16,4.71,5.58,15.81,2.54,22a21.45,21.45,0,0,1-17.94,11.76C351.88,483.38,351.8,476.69,351.53,470.53Zm13.61,28a31.54,31.54,0,0,1-6.3,1.08,55.21,55.21,0,0,1-8-.23q.66-2.61,1.26-5.24a26.65,26.65,0,0,0,11.44-4A80,80,0,0,1,365.14,498.57Zm-14.57,1.76c2.95,1.25,6.14,1.17,9.31,1.05a15,15,0,0,0,5.46-.85c0,.38.06.77.08,1.15-2.26.45-4.52,1.52-6.85,1.72a31.66,31.66,0,0,1-8.63-.64C350.16,502,350.36,501.14,350.57,500.33Zm-3,10.74c3,1.74,6.86,2.44,10.13,2.74a19.32,19.32,0,0,0,5.23-.2c-.11.18-.21.37-.32.54a23.13,23.13,0,0,0-3.09.81,18.56,18.56,0,0,1-6.82.74c-2-.22-4.05-1.16-6.07-1.61C346.93,513.09,347.23,512.08,347.54,511.07ZM346,515.93a21.6,21.6,0,0,0,7.59,1.73,22,22,0,0,0,6.8-.79,19.88,19.88,0,0,1-16.63,5.35C344.54,520.14,345.28,518,346,515.93Zm55.7-5.67c-3.91,8.64-11,15.53-17.64,22.12-6.9,6.85-14,13.88-22.45,18.81-4.73,2.76-10.09,1.56-14.72-1-.51-.28-1-.58-1.45-.89,7.69,1.91,15.89-2.14,21.79-7.13,4.55-3.85,8.62-8.29,12.79-12.54,4.33-4.42,8.86-8.7,13-13.28,4.41-4.84,9.22-11.51,11.33-18.51A29.54,29.54,0,0,1,401.69,510.26Zm-1.25-15.48a40.3,40.3,0,0,1-6.29,13.35c-5.73,8.22-13.8,15-20.87,22-6.23,6.21-12.92,14.35-22.33,15.18a15.74,15.74,0,0,1-7-1c10.72-2.09,19.36-12.46,26.65-19.76C381,514.19,391.48,503.46,400.86,492A15.43,15.43,0,0,1,400.44,494.78Zm-17.75-34.4c5.08,6.56,9.85,13.44,14.42,20.32a20.77,20.77,0,0,1,3.64,8.43c-9.69,10.65-19.07,21.52-29.18,31.8-8.14,8.29-17.55,20-29.63,22.43a7.68,7.68,0,0,1-2.91-3.49c-.1-.35-.2-.7-.29-1.06a.68.68,0,0,0-.1-.21c-.77-3.86,1.5-8.33,3.27-12.11,8.82,1.72,19.13-2.12,24.19-9.56,6-8.8,3.74-20.09,1.19-29.67a25.83,25.83,0,0,0,8-23.2,24.42,24.42,0,0,0-1.07-4.2l5.64-3.09,1,1.23ZM332,347.51A55.86,55.86,0,0,0,326,360a45.94,45.94,0,0,0-1.11,26.22c5.62,20.66,28.2,29,42.43,42.6A44.66,44.66,0,0,1,380,452.44a1.94,1.94,0,0,0-.64.22l-6.73,3.69c-2.31-4-6-6.93-11.15-6.44-3.66.35-6.74,2.27-9.57,4.46-3-7.64-8.46-14.78-14.05-20.62-6.58-6.88-14.48-12.23-20.85-19.36-11.81-13.21-19.84-30.53-16.87-48.55a44.55,44.55,0,0,1,4.35-13.36,43.39,43.39,0,0,1,3.65-5.79c1-1.39,2.25-2.63,3.29-4a1.89,1.89,0,0,0,1.87,1.27,84.82,84.82,0,0,0,23.25-3.31C334.83,342.89,333.33,345.33,332,347.51Zm98.89-149-8.09-4.77c-2-1.2-4,.77-3.66,2.81q3.06,18.87,4.9,37.92.9,9.25,1.52,18.52c.2,3,.5,6,.59,9.06a16.84,16.84,0,0,1-.12,3.1,89.94,89.94,0,0,0-7.27-17.73c-.87-1.6-3.76-1.39-4.1.54A173.68,173.68,0,0,1,400.43,292q-.36-3.76-.34-7.58c0-2.73-4.1-3.34-4.8-.65A139.18,139.18,0,0,1,373,330.66q.36-3.46.71-6.93c.21-2-2.6-2.93-3.9-1.61a196.27,196.27,0,0,1-25,21.19,23.56,23.56,0,0,0,.74-7.12,2,2,0,0,0-2.56-1.94,88.4,88.4,0,0,1-27.6,5.43l-.19-.15a24,24,0,0,0-6.83-2.9,2.14,2.14,0,0,0-2.62,2.61l0,.07c-8-2.34-16.41-3.18-24.62-4.85a63.92,63.92,0,0,1-25.85-11.21c-1.29-1-3.21.64-2.71,2.09A57.43,57.43,0,0,0,256,333.4c-11.76-4.28-22.66-9.51-29.95-20.36a1.72,1.72,0,0,0-3.13,1.32c.32,1.68.56,3.41.83,5.12A84.73,84.73,0,0,1,209,298.15a76.42,76.42,0,0,1-7.14-29.7c-.08-2.24-3.38-2.81-4-.54a154,154,0,0,0-4.83,29.54c-7.29-16.65-10.92-34.66-12.23-52.78a202.64,202.64,0,0,1-.2-31.26c.94-11.46,4.33-22,8.52-32.62.67-1.69-1.88-3.09-3-1.77a89.67,89.67,0,0,0-11.69,16.92,145.1,145.1,0,0,1,11.86-48.08c8-18.2,19.62-34.12,33.8-48a1.55,1.55,0,0,0-.54-2.58,1.12,1.12,0,0,0-.71-.18,37.67,37.67,0,0,0-12.36,3.35c7.47-9.06,19.9-14.1,30.67-17.5a106.76,106.76,0,0,1,20.91-4.42c3.62-.38,7.26-.59,10.91-.61,3.13,0,6.58.63,9.68.13a1.54,1.54,0,0,0,1.18-.21c19.35-11.59,43.26-14.64,64.22-6.36l-3.67.69c-2.26.42-1.86,3.57,0,4.2,19.4,6.52,35.77,20.74,45.88,38.44a24.18,24.18,0,0,0-6.92-2.46,2.38,2.38,0,0,0-2.29,3.94A328.5,328.5,0,0,1,430.84,198.47ZM499.65,53.19c-1.55,4.21-6.2,7.51-10.11,9.34a24.72,24.72,0,0,1-14.38,2,2.36,2.36,0,0,0-2.94,2.24,170.29,170.29,0,0,1-11.42,64c-7.09,17.94-19.23,34.27-36.73,43q-4.26-7.65-8.91-15c18.29-6.65,26.92-29.62,29.46-47.29,1.83-12.71.78-25.2-1.41-37.79-.41-2.38-.45-5.57-1.71-7.69s-3.65-2.52-5.79-3.18A23.81,23.81,0,0,1,422.37,52.5c-1.67-2.79-3.09-6.52-1.55-9.68,1.27-2.6,4.08-3.88,6.85-4.13,6.76-.6,12.07,4.84,16.45,9.22,1.57,1.57,4.56-.54,3.17-2.45-3.87-5.34-4.23-11.57-3.82-18,.4-6.21.88-14.45,6.61-18.29,8.42-5.63,8.05,8.27,8.15,12.91a112.74,112.74,0,0,1-2,23.76A2,2,0,0,0,460.16,47c3.39-8.35,7.16-18,15.63-22.45,1.67-.87,2.95-1.16,3.24,1.16a26.9,26.9,0,0,1,.18,3.59,28.6,28.6,0,0,1-1,7.42,28.88,28.88,0,0,1-7.59,12.8c-1.72,1.73.55,4.9,2.68,3.47a34.18,34.18,0,0,1,15.76-5.75,31.87,31.87,0,0,1,7,0C499.45,47.63,500.82,50,499.65,53.19Z"/><path class="cls-6" d="M254.29,189.66c7.62,3.08,16.34,1.67,24.27.87,9.16-.92,18.33-1.77,27.5-2.68,7.79-.78,15.75-1.35,23.25-3.74,5.33-1.7,15.26-5.41,15.05-12.41S334.4,162,329,161.22c-8.1-1.2-16.52-.26-24.65.09-9.09.39-18.21.68-27.29,1.33s-18.33,1.68-26.67,5.45c-2.86,1.29-5.91,3.2-6.83,6.42a6,6,0,0,0,.63,5C245.39,184.23,249.83,187.87,254.29,189.66Zm-4.93-18c3-1.72,6.86-2.43,10.22-3.08,6.64-1.29,13.43-1.52,20.17-1.77,13.92-.52,27.94-1.71,41.86-1.61a41.48,41.48,0,0,1,9,.9c2.6.6,7.39,1.84,8.74,4.49,2.6,5.14-10.77,9.07-14.06,9.92-6.3,1.62-12.81,2.15-19.26,2.82-7.26.76-14.51,1.58-21.77,2.32-12.87,1.32-32.52,6.18-37.85-10a1.4,1.4,0,0,0-.27-.48A7.62,7.62,0,0,1,249.36,171.69Z"/><path class="cls-6" d="M261.51,178.48c9.45,1.22,19.52-.48,29-1.29q7-.6,13.9-1.23c4.68-.42,9.91-.27,14.41-1.67a1.92,1.92,0,0,0-.51-3.75c-4.67-.54-9.8.59-14.48,1s-9.65.94-14.48,1.42c-9.18.93-19.18,1.14-28,4A.75.75,0,0,0,261.51,178.48Z"/><path class="cls-6" d="M362.87,142a7,7,0,0,0,2.66-3.8,7.13,7.13,0,0,0-2.22-9.16,8.08,8.08,0,0,0-.91-.94,6.67,6.67,0,0,0-7.26-1.13,5.43,5.43,0,0,0-3.07,3.37,8.51,8.51,0,0,0-1.46,5.95C351.44,141.48,358.41,145.22,362.87,142Zm-5.58-6.91c.23-.62,1.1-1.94,1.79-2.12a1.27,1.27,0,0,1,1.07.19,5.83,5.83,0,0,1,.7,2.79,2.83,2.83,0,0,1-3.77.2A5.1,5.1,0,0,1,357.29,135.11Z"/><path class="cls-6" d="M359.41,115.33c1.2.6,3.63,1.38,4.48-.23s-1.15-2.94-2.33-3.45a32.33,32.33,0,0,0-5.3-1.69,1.19,1.19,0,0,0-1.15,2A14.14,14.14,0,0,0,359.41,115.33Z"/><path class="cls-6" d="M370.36,169.25c2.88,0,2.88-4.48,0-4.48S367.47,169.25,370.36,169.25Z"/><path class="cls-6" d="M221.85,225.94a.75.75,0,0,0-1.39-.37,14.43,14.43,0,0,0-1.13,2.52,32.13,32.13,0,0,1,2.88-16.25.44.44,0,0,0-.76-.44c-3.93,6.16-4.56,13.93-2.85,20.92a.74.74,0,0,0,1.44-.19,13.45,13.45,0,0,1,.5-3,21,21,0,0,0,5.64,11.8c1,1,3,3.46,4.65,2.58s.45-2.88,0-4.13c-.19-.52-1.05-.48-1,.14a13.19,13.19,0,0,0,.2,1.5c-.32,1.61-.69.72-1.78-.25a19.29,19.29,0,0,1-6.37-14.85Z"/><path class="cls-6" d="M307.78,263.17a58.79,58.79,0,0,0,5.61-22.69,40.74,40.74,0,0,1,3.06,5.14,1,1,0,0,0,1.72-.22c2.57-11,1.08-23-5.13-32.54a.38.38,0,0,0-.66.39c4.41,9.24,6.22,19.14,4.47,29.17a41.49,41.49,0,0,0-3.67-5.31.94.94,0,0,0-1.59.65,55.71,55.71,0,0,1-4.68,22.75,30.72,30.72,0,0,1-3-14.09c0-1.1-1.45-1.16-1.8-.24a91.31,91.31,0,0,0-4.25,14.54c-3.54-7.92-3.75-16.45-1.54-24.92a.73.73,0,0,0-1.4-.39c-3.57,9.3-2.17,20,2.53,28.63a.92.92,0,0,0,1.67-.22,91.26,91.26,0,0,1,3.17-12.69,32.36,32.36,0,0,0,3.88,12A1,1,0,0,0,307.78,263.17Z"/><path class="cls-6" d="M364.48,200c-.4-.15-.68.51-.29.69,8.93,4.21,11,14.28,10.81,23.28l-7.82-5.54c-.79-.55-1.56.5-1.21,1.22,1.47,3,4.3,9.84,1.85,12.93-.41.52-.05,1.44.71,1.2,2.17-.67,2-3.22,1.82-5.11a26.66,26.66,0,0,0-1.6-7l6.62,4.64a.87.87,0,0,0,1.3-.74C377.07,215.58,375,204,364.48,200Z"/><path class="cls-6" d="M392.31,199.78c3.85,2.36,3.92-3.62,3.47-7.86.38.31.78.6,1.21.91a33.77,33.77,0,0,1,6.8,6.55c.52.67,1.51.06,1.55-.64a23.89,23.89,0,0,0-1.85-10.68,43.91,43.91,0,0,1,3.37,3.45c.64.74,1.6-.08,1.48-.86a25.19,25.19,0,0,0-13.61-18.89.37.37,0,0,0-.37.63A27.27,27.27,0,0,1,406,188a44.6,44.6,0,0,0-4.88-4.2c-.72-.53-1.68.5-1.21,1.21a21.67,21.67,0,0,1,3.67,11.25,27,27,0,0,0-2.77-2.79c-1.74-1.5-4.78-2.8-5.55-5.06a.89.89,0,0,0-1.72.48,21.51,21.51,0,0,1,.75,6.59c-.07,1.19.21,3.09-1.52,2.35-.74-.32-1.56-1.82-1.95-2.48-2.14-3.62-2-8-1.94-12,0-1-1.49-1-1.58,0C386.77,188.63,387.11,196.59,392.31,199.78Z"/><path class="cls-6" d="M343.41,276a92.62,92.62,0,0,0-3.52,9.64,22.44,22.44,0,0,1-3.47-8.78c-.64-3.91.33-7.33.75-11.15.05-.43-.57-.52-.77-.21-4.24,6.56-1.26,16.81,3.06,22.48a.87.87,0,0,0,1.56-.2c.86-3,1.85-5.86,3-8.72,1.48,4.45,5,12.13,8.63,9.25,2.09-1.64,2.28-5.69,2.49-8.09a25.46,25.46,0,0,0-1.66-11.75c-.34-.84-1.65-.54-1.4.39A30.72,30.72,0,0,1,352.7,284c-.11.5-.24,1-.39,1.48q-1.79,2.13-2.79.34a10.39,10.39,0,0,1-2-2.86,21.71,21.71,0,0,1-2.51-6.76A.87.87,0,0,0,343.41,276Z"/><path class="cls-6" d="M389.75,240.31c1.61,4.11,3.59,7.91,4.53,12.28a39.35,39.35,0,0,1,.6,12.94,12.23,12.23,0,0,1-1.94-3.24.84.84,0,0,0-1.6,0c-.27.95-.53,1.9-.79,2.85-.18.63-.35,1.26-.53,1.89-.51.48-.74.39-.68-.26-.49-.64-.43-2.43-.56-3.24-.2-1.26-.38-2.52-.65-3.76-.1-.48-.81-.35-.82.11,0,1.71-.48,9.11,2.07,9.83,1.82.52,2.64-2.37,3.1-4.66a13.62,13.62,0,0,0,2.41,2.94.86.86,0,0,0,1.42-.38c1.43-9,.45-20.56-5.54-27.89C390.39,239.26,389.53,239.75,389.75,240.31Z"/><path class="cls-6" d="M247.6,298.25a15.63,15.63,0,0,1-2.12-7.59,36,36,0,0,0,9.4,12.54.83.83,0,0,0,1.4-.58,46.1,46.1,0,0,0-.27-6c1.36,2.65,2.83,5.25,4.42,7.77,1.13,1.77,2.86,5.59,5.43,3.51,2.42-2,2.95-7.09,3.32-9.93.57-4.37.46-9.28-1.24-13.4a.66.66,0,0,0-1.28.35,55.79,55.79,0,0,1,1,9.46,32.3,32.3,0,0,1-.57,5.38c-.24,1.25-.48,3.44-1.22,4.46a2.55,2.55,0,0,1-3.14.67,7.21,7.21,0,0,1-1.17-1.81q-1.29-2-2.48-4.16c-1.59-2.81-3-5.7-4.34-8.65-.4-.88-1.76-.24-1.53.65a43.39,43.39,0,0,1,1.37,9.86A34,34,0,0,1,245.75,287c-.23-.68-1.38-.83-1.54,0a17.5,17.5,0,0,0,0,6.45c-3.82-5.69-6.74-12.09-4.26-18.93.17-.47-.52-.71-.77-.33-5.19,8,2.5,18.55,7.13,24.81C246.84,299.82,248.11,299.14,247.6,298.25Z"/><path class="cls-6" d="M320.77,306.33c.17,2,.33,4,.42,6a12.32,12.32,0,0,1,.05,2.78c-.32,1.57-.53,2-2.15,1.94-3.51-.17-7.22-4.19-8.91-6.89a.83.83,0,0,0-1.53.42c0,1.48,0,3,0,4.45a24.63,24.63,0,0,1-5-9.37c-.16-.47-.94-.42-.9.12.26,4.52,2.85,8.66,6.08,11.7a.8.8,0,0,0,1.35-.56l.06-3.85c2.55,3.13,6.37,6,10.29,6.13,1.8.06,2.18-.75,2.42-2.42a21.59,21.59,0,0,0-1.25-10.62C321.54,305.74,320.72,305.75,320.77,306.33Z"/><path class="cls-6" d="M250.29,113.2q2.53-.93,5.13-1.7c-3.4,3.85-5.31,9-2.26,13.79a.78.78,0,0,0,1.41-.18c.88-2.83,2.48-5,4.07-7.44a.41.41,0,0,0-.56-.55,11.67,11.67,0,0,0-4.39,5.81c-1.79-4.62,1.21-9.26,4.82-12.38.59-.51,0-1.42-.72-1.25-1.93.5-3.83,1.06-5.71,1.71,2.55-3.36,5.56-6.42,9.76-7.58.44-.12.25-.75-.19-.67-5.49,1-9.08,5-12.19,9.37A.73.73,0,0,0,250.29,113.2Z"/><path class="cls-6" d="M308.44,91.64c7.66,1.85,17,4.09,20,12.22-3.94-1.21-7.88-2.4-11.79-3.69a.75.75,0,0,0-.72,1.24,55.73,55.73,0,0,1,6.77,6.71c1.65,2,5.28,6.92,4.35,10.12-1.16-1-2.32-2-3.5-3a.85.85,0,0,0-1.4.81,31.29,31.29,0,0,1,.86,9.13c-1.44-2.19-2.59-4.54-4.16-6.62a.54.54,0,0,0-1,.42c.67,3.35,3.12,6.45,5.22,9.06.49.61,1.32,0,1.39-.57a37.68,37.68,0,0,0-.29-9.44c.84.73,1.68,1.46,2.53,2.18a.89.89,0,0,0,1.36-.18c2-3-.38-7.37-2.06-10a38.84,38.84,0,0,0-6.42-7.31c3.26,1.11,6.53,2.16,9.85,3.1a.82.82,0,0,0,1-1c-2.62-9.72-13-12.57-21.8-14C308.15,90.77,307.91,91.51,308.44,91.64Z"/></svg>