<svg id="Layer_1" data-name="Layer 1" xmlns="http://www.w3.org/2000/svg" viewBox="0 0 600 600"><defs><style>.cls-1{fill:#fff200;}.cls-2{fill:#00aeef;}.cls-3{fill:#231f20;}</style></defs><title>doodle</title><path class="cls-1" d="M42,276.63a516.2,516.2,0,0,0,.11,82.48A644.12,644.12,0,0,0,52,432.57c4.25,21.69,11.71,42.44,31,55.14,37.9,25,90.58,21.7,133.67,18,49.77-4.33,99.23-9.05,149.25-9.43,25.42-.19,50.81.88,76.22.91,13.33,0,26.68-.24,40-1.29,9.68-.76,20.1-1.74,28.83-6.35,20.33-10.73,17.28-39.86,17.77-59.31.62-24.54.1-49.09-1.41-73.59q-2.31-37.49-8.06-74.65c-3.36-21.51-5.38-48.13-22.19-63.94-17-16-42.11-18.18-64.29-18.61-24.72-.48-49.27-1.28-73.95-2.92s-49.49-3.2-74.24-1.73c-21.76,1.29-44.33,6.45-65.6-.44A413.08,413.08,0,0,0,148,197.64c-23.87,3.34-50.18,7.14-72,17.83C50.94,227.67,44.08,250.68,42,276.63ZM486.24,416a12.12,12.12,0,0,1-13.31,1.61c-6-2.82-9.75-10.72-7.5-17.1,1.35-3.84,4.62-7.43,8.95-7.5h0c3.49-2.41,8.68-1.77,11.87,1.26,2.84,2.7,4.18,6.9,4.5,10.69A13.22,13.22,0,0,1,486.24,416ZM373.85,329.25a44,44,0,0,1,27.67-14.4c18.15-2.37,34,4.77,47,16a16.75,16.75,0,0,1,2.31-3.85c.47-.62.94-1.26,1.47-1.83a9.47,9.47,0,0,1,2.61-1.65c-.06,0,1-.73,1-.72a13.19,13.19,0,0,1,1.69-.93,4.78,4.78,0,0,1,5.53.72,4.63,4.63,0,0,1,.72,5.53,11.23,11.23,0,0,1-1.49,2s-.51.57-.46.45a11.8,11.8,0,0,1-1.61,2.57c-.39.38-.8.74-1.21,1.1a27,27,0,0,1-3.84,3c.92,1,1.82,1.95,2.71,3,7.41-6.8,15.5-14.25,24.59-17.43,4.09-1.42,7.61,3.69,5.51,7.17-6.08,10.08-18.28,17.3-27.6,24.3-2.8,2.1-6.66.29-8.37-2.2-10-14.58-26.33-26.34-44.6-26.24-9.4,0-18.48,3.38-25.06,10.19-5.71,5.91-6.74,13-10.18,20-1.51,3.08-6,2-6.88-.9C362.45,346.2,368.09,335.89,373.85,329.25ZM267,384.4c3.07,10.71,22.21,12.23,28.33,4.18,4.79-6.31,3.4-15.09,8.55-21,1.56-1.78,4.24-1,5.41.7,8.24,12-3.5,32.15-16.17,35.78-13,3.71-32.45-3.53-32.88-18.74C260.14,381.35,266,380.74,267,384.4ZM106.47,425c-8.6-.49-15.42-9.32-12.19-17.73,2.15-5.58,9.36-9.89,15.21-7.77a10.92,10.92,0,0,1,1.9.43,12.63,12.63,0,0,1,8.3,8.42C122.06,416.84,115.31,425.51,106.47,425ZM88.89,325.86c4.57,3.41,8.9,7.09,13.39,10.6.62.48,1.38,1.05,2.16,1.69a30.62,30.62,0,0,1,4.37-5.17c-.66-1.09-1.25-2.22-1.82-3.26a65.7,65.7,0,0,1-4.94-10.5c-1.25-3.75,3.72-6.18,6.35-3.69a66.33,66.33,0,0,1,7.39,9.05c.53.73,1.08,1.45,1.59,2.19,10.8-6,24.58-8.23,35-6.82,20.62,2.79,39.24,21.24,42.16,42.1.55,4-4.41,8.51-7.73,4.5-5-6-7.51-13.35-11.94-19.69a36,36,0,0,0-22.59-15.05,41.86,41.86,0,0,0-27.34,3.9c-6,3.08-10.2,8-15.38,12a5.56,5.56,0,0,1-1.07,1.59c-7.35,7.8-21.66-13.14-24.66-18.29C82,328,85.77,323.53,88.89,325.86Z"/><path class="cls-2" d="M117,191.58c11.55-2.25,23.23-3.84,34.67-5.14a419.54,419.54,0,0,1,62.48-2.54,6.4,6.4,0,0,1,1.23-1.46,50.41,50.41,0,0,1-.77-10.49c-5.46,1.87-11.7,1-17.47,1.21-7.17.32-15.49,2.35-22.33-.2-2.27-.85-3.79-4.06-1.57-5.94,6-5.05,14.76-5.45,22.37-5.75,6.52-.25,13.73-.84,19.58,2.06.09-.76.17-1.42.25-2,.14-1,.32-1.94.51-2.89l-.24,0c-8.52-1.93-16.85-3.86-25.49-5.32-9.16-1.55-19.16-2.93-27.49-7.19-4.05-2.07-1.57-7.25,2.08-7.69,10.38-1.24,22.08,1.71,32.28,3.67,7.53,1.46,15.65,3,21.1,8.59a24.18,24.18,0,0,1,10.18-12.43c-15.27-9.19-29.89-19.33-45-28.83-13.84-8.7-35.36-22.71-51.78-12.68-15.95,9.73-18.42,33.68-19.12,50.42a208.55,208.55,0,0,0,.13,25.74C113.13,179.35,115.48,185.35,117,191.58Z"/><path class="cls-2" d="M351,141.45c3.46,1.52,2,6.38-1,7.4-9.43,3.28-20,2.63-29.8,4.53a148.47,148.47,0,0,0-27.94,8.35c.26.9.45,1.81.66,2.72a102.77,102.77,0,0,1,16.31-1.4c6.08,0,12.1-.35,17.51,2.78,3.61,2.09,2.33,6.82-1.07,8.19-5.65,2.27-11.8,1-17.72.6-4.66-.33-9.19-.83-13.76-1.52a55.51,55.51,0,0,1,.11,5.91q7.41-.22,14.83-.17c30.73.24,61.33,3.66,92,4.74,3.68.13,7.38.19,11.09.23a6,6,0,0,1,.46-2.78c4.62-11,4.49-23.07,4.8-34.82s.13-23.65-.53-35.45c-.73-13-3.19-20.55-14.76-27.5-4.57-2.76-9.35-5.9-14.68-6.85-6-1-11.74,1-17.37,2.91a168,168,0,0,0-52.08,28.59c-13.07,10.58-24,23.23-34.89,35.93a49.15,49.15,0,0,1,6.05,9.82C306.52,142.83,331.92,133,351,141.45Z"/><path class="cls-2" d="M225.87,182.71c12.66,2.64,25.17.53,38.05-1.23q8.64-1.17,17.29-1.79c.65-8.92-.95-17.7-5.9-25.38-3.43-5.29-7.34-8.84-13.91-8.82-4,0-8,.55-12,.85-9.28.71-17.34,1.16-20.14,11.41A82,82,0,0,0,227,173.26C226.78,175.72,225.84,179.5,225.87,182.71Z"/><path class="cls-3" d="M37.77,241.47c-8.64,22.36-9.43,48.3-9.81,72-.42,27,1.73,53.95,5.2,80.67,3.05,23.49,5.54,48.38,14.57,70.48,18.19,44.5,70.86,55.14,114.06,56.7,53.55,2,107.21-7.87,160.71-9.65,28.33-.94,56.64-.77,85,.07,27.8.83,55.93,2.13,83.62-1.22,19.94-2.42,39.16-9.7,47.05-29.69,3.64-9.23,4.48-19.27,5.06-29.09.86-14.34,1.22-28.72,1.26-43.08.17-53.29-3.51-108.73-15.64-160.77-5.85-25.07-19.47-44.92-43.69-55-18.43-7.7-38.25-8.69-58-8.91,4.64-11.38,4.79-23.72,5.12-36,.41-15.37.47-31.09-1.3-46.39-1.34-11.54-5.91-20.4-15.48-27.14S394.22,61.21,382.27,62c-11.65.78-23.8,6.65-34.23,11.6a180,180,0,0,0-31.11,19c-16.19,12.22-31.06,26.82-40.87,44.57-10.72-6.84-25.12-4.56-37.48-2.58l-.12,0c-.07-.07-.12-.14-.2-.21-17.59-15.78-37.43-29.59-57.79-41.6-16.8-9.91-40-18.65-57.72-5.84-16.33,11.8-21.37,33.62-22.93,52.56a211,211,0,0,0-.39,33.25c.53,6.84,1.28,15.12,4.4,21.75a195.33,195.33,0,0,0-24.4,7.67C60.28,209.69,45.32,222,37.77,241.47ZM318.13,107.91a168,168,0,0,1,52.08-28.59c5.63-1.89,11.37-4,17.37-2.91,5.33,1,10.11,4.09,14.68,6.85,11.57,6.95,14,14.54,14.76,27.5.66,11.8.83,23.64.53,35.45s-.18,23.83-4.8,34.82a6,6,0,0,0-.46,2.78c-3.71,0-7.41-.1-11.09-.23-30.7-1.08-61.3-4.5-92-4.74q-7.43-.06-14.83.17a55.51,55.51,0,0,0-.11-5.91c4.57.69,9.1,1.19,13.76,1.52,5.92.42,12.07,1.67,17.72-.6,3.4-1.37,4.68-6.1,1.07-8.19-5.41-3.13-11.43-2.82-17.51-2.78a102.77,102.77,0,0,0-16.31,1.4c-.21-.91-.4-1.82-.66-2.72a148.47,148.47,0,0,1,27.94-8.35c9.78-1.9,20.37-1.25,29.8-4.53,2.93-1,4.43-5.88,1-7.4-19.09-8.43-44.49,1.38-61.72,12.21a49.15,49.15,0,0,0-6.05-9.82C294.13,131.14,305.06,118.49,318.13,107.91Zm-68.72,38.43c4-.3,8-.84,12-.85,6.57,0,10.48,3.53,13.91,8.82,4.95,7.68,6.55,16.46,5.9,25.38q-8.65.63-17.29,1.79c-12.88,1.76-25.39,3.87-38.05,1.23,0-3.21.91-7,1.09-9.45a82,82,0,0,1,2.31-15.51C232.07,147.5,240.13,147.05,249.41,146.34Zm-137,.65c.7-16.74,3.17-40.69,19.12-50.42,16.42-10,37.94,4,51.78,12.68,15.11,9.5,29.73,19.64,45,28.83a24.18,24.18,0,0,0-10.18,12.43c-5.45-5.62-13.57-7.13-21.1-8.59-10.2-2-21.9-4.91-32.28-3.67-3.65.44-6.13,5.62-2.08,7.69,8.33,4.26,18.33,5.64,27.49,7.19,8.64,1.46,17,3.39,25.49,5.32l.24,0c-.19,1-.37,1.9-.51,2.89-.08.54-.16,1.2-.25,2-5.85-2.9-13.06-2.31-19.58-2.06-7.61.3-16.38.7-22.37,5.75-2.22,1.88-.7,5.09,1.57,5.94,6.84,2.55,15.16.52,22.33.2,5.77-.26,12,.66,17.47-1.21a50.41,50.41,0,0,0,.77,10.49,6.4,6.4,0,0,0-1.23,1.46,419.54,419.54,0,0,0-62.48,2.54c-11.44,1.3-23.12,2.89-34.67,5.14-1.5-6.23-3.85-12.23-4.4-18.85A208.55,208.55,0,0,1,112.45,147ZM148,197.64a413.08,413.08,0,0,1,70.91-3.33c21.27,6.89,43.84,1.73,65.6.44,24.75-1.47,49.54.08,74.24,1.73s49.23,2.44,73.95,2.92c22.18.43,47.26,2.6,64.29,18.61,16.81,15.81,18.83,42.43,22.19,63.94q5.8,37.11,8.06,74.65c1.51,24.5,2,49,1.41,73.59-.49,19.45,2.56,48.58-17.77,59.31-8.73,4.61-19.15,5.59-28.83,6.35-13.28,1-26.63,1.3-40,1.29-25.41,0-50.8-1.1-76.22-.91-50,.38-99.48,5.1-149.25,9.43-43.09,3.75-95.77,7.06-133.67-18C63.66,475,56.2,454.26,52,432.57a644.12,644.12,0,0,1-9.88-73.46A516.2,516.2,0,0,1,42,276.63c2.12-25.95,9-49,33.94-61.16C97.77,204.78,124.08,201,148,197.64Z"/><path class="cls-3" d="M108.45,349.25a5.56,5.56,0,0,0,1.07-1.59c5.18-4,9.38-8.87,15.38-12a41.86,41.86,0,0,1,27.34-3.9,36,36,0,0,1,22.59,15.05c4.43,6.34,7,13.7,11.94,19.69,3.32,4,8.28-.54,7.73-4.5-2.92-20.86-21.54-39.31-42.16-42.1-10.38-1.41-24.16.86-35,6.82-.51-.74-1.06-1.46-1.59-2.19a66.33,66.33,0,0,0-7.39-9.05c-2.63-2.49-7.6-.06-6.35,3.69a65.7,65.7,0,0,0,4.94,10.5c.57,1,1.16,2.17,1.82,3.26a30.62,30.62,0,0,0-4.37,5.17c-.78-.64-1.54-1.21-2.16-1.69-4.49-3.51-8.82-7.19-13.39-10.6-3.12-2.33-6.86,2.1-5.1,5.1C86.79,336.11,101.1,357.05,108.45,349.25Z"/><path class="cls-3" d="M372.23,356c3.44-7,4.47-14.13,10.18-20,6.58-6.81,15.66-10.14,25.06-10.19,18.27-.1,34.57,11.66,44.6,26.24,1.71,2.49,5.57,4.3,8.37,2.2,9.32-7,21.52-14.22,27.6-24.3,2.1-3.48-1.42-8.59-5.51-7.17-9.09,3.18-17.18,10.63-24.59,17.43-.89-1-1.79-2-2.71-3a27,27,0,0,0,3.84-3c.41-.36.82-.72,1.21-1.1a11.8,11.8,0,0,0,1.61-2.57c-.05.12.46-.45.46-.45a11.23,11.23,0,0,0,1.49-2,4.63,4.63,0,0,0-.72-5.53,4.78,4.78,0,0,0-5.53-.72,13.19,13.19,0,0,0-1.69.93s-1,.73-1,.72a9.47,9.47,0,0,0-2.61,1.65c-.53.57-1,1.21-1.47,1.83a16.75,16.75,0,0,0-2.31,3.85c-13-11.24-28.87-18.38-47-16a44,44,0,0,0-27.67,14.4c-5.76,6.64-11.4,16.95-8.5,25.87C366.28,358,370.72,359.1,372.23,356Z"/><path class="cls-3" d="M293.13,404.06c12.67-3.63,24.41-23.77,16.17-35.78-1.17-1.7-3.85-2.48-5.41-.7-5.15,5.91-3.76,14.69-8.55,21-6.12,8.05-25.26,6.53-28.33-4.18-1.05-3.66-6.87-3-6.76.92C260.68,400.53,280.17,407.77,293.13,404.06Z"/><path class="cls-3" d="M111.39,399.94a10.92,10.92,0,0,0-1.9-.43c-5.85-2.12-13.06,2.19-15.21,7.77-3.23,8.41,3.59,17.24,12.19,17.73,8.84.5,15.59-8.17,13.22-16.65A12.63,12.63,0,0,0,111.39,399.94Z"/><path class="cls-3" d="M474.39,393h0c-4.33.07-7.6,3.66-8.95,7.5-2.25,6.38,1.47,14.28,7.5,17.1A12.12,12.12,0,0,0,486.24,416a13.22,13.22,0,0,0,4.52-11c-.32-3.79-1.66-8-4.5-10.69C483.07,391.21,477.88,390.57,474.39,393Z"/></svg>