<svg id="Layer_1" data-name="Layer 1" xmlns="http://www.w3.org/2000/svg" viewBox="0 0 600 600"><defs><style>.cls-1{fill:#fff;}.cls-2{fill:#754c29;}.cls-3{fill:#00aeef;}.cls-4{fill:#231f20;}</style></defs><title>doodle</title><path class="cls-1" d="M198.56,288.1c.11.08.24.15.37.23a8.9,8.9,0,0,0,1.6-.12c0-.22,0-.45,0-.67a3.09,3.09,0,0,0-.48-1.67,1.58,1.58,0,0,0-2.76.63A3.76,3.76,0,0,0,198.56,288.1Z"/><path class="cls-2" d="M481.89,83.82a253.14,253.14,0,0,0,8.6-24.65c2.24-7.73,4.25-16.34,2-24.31-2.51-9-10.81-13.39-19-16.39-8.49-3.12-18.76-5.9-27.85-4.46-4.79.76-10,3.65-10.65,9-.56,4.87,4.16,8.1,7.75,10.44a50.35,50.35,0,0,0,12.72,6c3.09,1,6.66,1.29,9.34,3.26,6.07,4.48,2.91,12.73.94,18.49-2.27,6.62-4.63,14.49-10.41,18.92-13.73,10.54-29.21-3.1-42.83-5.78-5.75-1.13-13.22.86-9.51,8.15,1.53,3,4.32,5.3,7.15,7,5.57,3.45,11.95,5.3,17.83,8.15,5.38,2.6,11.11,6.38,13.66,12,3.29,7.27-2.45,14.29-6.06,20.29-9.17,15.25-19.39,30.23-31.32,43.48a186.45,186.45,0,0,1,17.05,15.47C443.89,155.4,466.69,121.42,481.89,83.82Z"/><path class="cls-1" d="M215.79,324.18a131.42,131.42,0,0,0,31.53,4.74c18.54.58,37-2.28,54.89-7.06,17.23-4.61,34.74-10.53,50.39-19.19,14.86-8.22,28.1-20.27,32.74-37.14S382.85,233,369,222.89c-30.2-22.16-71.27-18-104.66-6.47-24.45,8.46-50.91,20.16-68.55,39.7a2,2,0,0,1-.57,2.2c-13.33,12.7-16,34.5-5.46,49.75C196,317,205.69,321.35,215.79,324.18Zm147.49-69.82a3.28,3.28,0,0,1,1.27,2.88,3,3,0,0,1-.81,2.19,2.79,2.79,0,0,1-1.69.8,2.84,2.84,0,0,1-.65,0,3.22,3.22,0,0,1-3-1.61,3.4,3.4,0,0,1,.52-4A3.3,3.3,0,0,1,363.28,254.36ZM343.4,244c1.11-4.76,6.07-6.56,10.35-5a2.6,2.6,0,0,1,.7.39,8.52,8.52,0,0,1,4.24,5c1.31,4.89-3.12,9.83-8.06,9.56A8.2,8.2,0,0,1,343.4,244ZM254.19,268c1.58,5.23,4.87,13.77,12,12,7.73-1.88,3.1-14.66.95-19.14-1.69-3.52,3.52-6.6,5.25-3.08,3.89,7.91,7.86,24.15-3.93,27.73-10.92,3.31-18-7.52-18.75-17C249.48,265.92,253.48,265.61,254.19,268Zm-51.28,41.9c-4.28,0-4.27-6.65,0-6.65S207.19,309.88,202.91,309.88Zm-11.4-25.6c.72-3.39,3.42-6.26,7.25-5.09a7.24,7.24,0,0,1,2.13.32,7.8,7.8,0,0,1,5.33,5.46c.67,2.52.85,6.34-1,8.41s-4.73,2.17-7.31,1.13a8.05,8.05,0,0,1-6.85-7A7.71,7.71,0,0,1,191.51,284.28Z"/><path class="cls-1" d="M350.63,247.72c.9.2,2.2-.82,1.92-1.78s-1.57-1.17-2.66-1.39C349,245.74,348.92,247.34,350.63,247.72Z"/><path class="cls-3" d="M151,280.67c2.06-.55,4.53,1.48,3.7,3.7-13.87,37-20.34,76.4-20.1,115.86L145.73,378c1.59-3.17,5.92-.79,5.35,2.25-8.66,46.48-.62,95.48,21.52,137.13a123.22,123.22,0,0,1,4.68-31.8c.79-2.78,5.28-3.05,5.91,0,4.36,21,21.71,34.82,39.85,44.13,17.85,9.16,36.76,16.6,55.11,24.71,18.83,8.34,38,15.71,57.89,21a343.29,343.29,0,0,0,101.57,11.32l-9.73-2.87c-3.18-.93-2.69-6.4.81-6,12.58,1.52,23.6-4.69,33.59-11.64,9.38-6.52,18.55-13.46,27.49-20.57,13.23-10.52,25.83-22,36.06-35.37a45.09,45.09,0,0,1-8.49,3c-2.37.57-5-2.17-3.42-4.44a356.23,356.23,0,0,0,44.82-84.59,53.1,53.1,0,0,1-7,4.89c-2.48,1.46-6-1.61-4.18-4.18A171.24,171.24,0,0,0,575,365.62c-5.45,2.56-12.12,2.93-18.14,3.07A121,121,0,0,1,525,365.14a122.92,122.92,0,0,1-56.68-31.63c-2.49-2.45.68-6.16,3.59-4.66a74,74,0,0,0,19.67,6.84,222.89,222.89,0,0,1-63.22-86.56c-1-2.54,2.23-4.14,4.19-3.22q12.38,5.86,24.82,11.58C439.7,208.15,400,167.73,350.47,150a3.07,3.07,0,0,1,.81-6l7.61-.68a73.26,73.26,0,0,0-71.47,1.8,3.09,3.09,0,0,1-4.17-1.09,55,55,0,0,0-28.1-24,33.28,33.28,0,0,1,5.54,12.52,3,3,0,0,1-3.65,3.65c-22.89-3.68-46.26,7.87-58.39,27.15a25.13,25.13,0,0,1,22.59,5.5,2.48,2.48,0,0,1,.84,2.74,2.89,2.89,0,0,1-1.31,2.65,192.7,192.7,0,0,0-77.09,109.66A25.25,25.25,0,0,1,151,280.67Zm353.85,125.8c9-1,16.52-6.52,23.35-12.2a38.94,38.94,0,0,1-10.29-.36c-1-.2-.62-1.54.22-1.64,4.51-.56,9.13-.32,13.67-.66a1.2,1.2,0,0,1,.84,2c-8.25,6.87-16.7,13.35-27.79,14.09C504,407.79,504.06,406.56,504.84,406.47Zm-51.51,49.14c10.57,3,21.91-.7,32.44-4.34-2.34,0-4.69-.1-7-.32a1.29,1.29,0,0,1,0-2.58c5.18-.35,10.45,0,15.63.09a1.42,1.42,0,0,1,.38,2.78c-13.07,4-28.16,10.81-41.79,5.62C452.22,456.57,452.51,455.38,453.33,455.61ZM187.48,348.18c-1.51,4.75-4.19,9.14-6,13.78a1.11,1.11,0,0,1-2.16-.3A67.94,67.94,0,0,1,184,334.92c.15-.4.8-.24.65.18a60,60,0,0,0-3.49,21.49,28.84,28.84,0,0,1,5.41-8.95A.55.55,0,0,1,187.48,348.18Zm49,61.64c-8.09-5.91-13.53-14.26-13.4-24.54a.76.76,0,0,1,1.51,0c.91,7.64,4.37,15,10.37,19.82-1-5.33-1.53-11-.2-16.18.34-1.32,2.12-.91,2.24.3.6,6.39.32,12.53,1.72,18.88C239,409.28,237.61,410.66,236.45,409.82Zm36.78,104a47.67,47.67,0,0,1-20.7-28,.59.59,0,0,1,1.14-.32,48,48,0,0,0,17,23.12,49,49,0,0,1-3.18-8.9,1,1,0,0,1,1.84-.78c2.63,4,4.25,8.77,6,13.22C275.8,513.41,274.21,514.47,273.23,513.85Zm59.76-69c-12.39-2.72-19-18.09-21-29.32a.72.72,0,0,1,1.38-.38c2.74,9.1,7.82,22.09,17.47,26-1.68-4.18-3-8.68-2.72-13.12a1,1,0,0,1,2-.27c1.68,5.1,2.5,10.28,4.61,15.28C335.23,444.18,333.94,445.07,333,444.86ZM412.8,317.91a18.16,18.16,0,0,0,11,6.78,20.76,20.76,0,0,1-2.08-5.08c-.2-.91,1-1.85,1.71-1,1.66,2,2.63,4.64,3.75,7,.38.79-.05,2.06-1.11,1.95a18.42,18.42,0,0,1-14.25-8.89C411.46,318.07,412.36,317.35,412.8,317.91Zm-12.06-97.36c1.81.07,3.08,1.09,4.67,1.94.69.36,1.79,1.27,2.38,1.5l-.41-.8c-.25-.48-.52-.95-.78-1.42-2-3.5-5-7.08-6.11-11-.11-.38.35-.79.7-.54,2.68,1.87,4.49,5.18,6.2,7.9,1.09,1.74,3.59,4.53,3.26,6.77-.26,1.79-1.79,2.05-3.27,1.53-2.39-.84-6-2.37-7.42-4.57A.9.9,0,0,1,400.74,220.55Zm-1.08,278.28a51.1,51.1,0,0,0,9,6.2c2.07,1.06,6.18,1.92,7.65,3.86,2.64,3.47-3.19,4-5.09,4.3-12.81,1.77-30,.62-39.9-8.71-.65-.61.31-1.53,1-1,8.95,7.61,24.05,8.47,35.24,7.41,2-.19,3.83-.56,5.76-.83l.59-.08a5.53,5.53,0,0,1-1.38-.12,29.28,29.28,0,0,1-5.9-2.75c-3.3-1.71-6.55-3.94-8.21-7.36A.79.79,0,0,1,399.66,498.83ZM388.11,384.2c-12.21-5.51-20.48-16.66-23.93-29.35a.74.74,0,0,1,1.42-.39,45.38,45.38,0,0,0,18.81,24.43c1,.62,6.33,4.23,7.28,2.78.23-.36-3.56-5.68-4-6.39-2.07-3.75-4.35-7.85-4.91-12.14-.14-1.07,1.36-1.22,1.85-.5,2.49,3.61,3.92,8,6.08,11.84,1.22,2.16,4.05,5,4.26,7.45C395.39,386.32,390.79,385.41,388.11,384.2ZM318,165.36a92,92,0,0,1,17.68,8.16c3.91,2.38,10,5.35,11.26,10.19a1.11,1.11,0,0,1-1.06,1.38A31.13,31.13,0,0,1,329.64,182c-1.14-.56-.31-2.54.86-2a36.53,36.53,0,0,0,13.84,2.95c-2-4.19-8.82-7.53-12.38-9.68a96.4,96.4,0,0,0-14.17-7C317.29,166,317.49,165.18,318,165.36Zm-85.64,26.17a34.85,34.85,0,0,1,21.3-14.29.73.73,0,0,1,.39,1.41,35.2,35.2,0,0,0-17.47,10.81,52.48,52.48,0,0,1,8.3-3.08.68.68,0,0,1,.52,1.24c-3.68,2.29-7.89,3.75-11.87,5.42C232.71,193.39,231.88,192.22,232.37,191.53Zm-54.84,87c6.17-20.4,21.82-35.76,39.52-46.81,19.6-12.24,42.56-21.3,65-26.69,19.59-4.71,40.19-5.95,59.9-1.14,17.19,4.19,35.05,13.26,44.84,28.57,9.64,15.08,7.53,34-1.37,48.88-9.71,16.24-26.54,26.27-43.51,33.5-37.69,16.06-81,26.3-121.75,17-18.43-4.19-35.54-13-41.34-32.3a40.63,40.63,0,0,1-.94-19.35A1.63,1.63,0,0,1,177.53,278.5Z"/><path class="cls-2" d="M79,53C71.26,59.57,64.21,67.39,60.54,77c-8.07,21.16,6.36,38.21,19.58,53.21A503,503,0,0,0,122.62,173Q134,183.2,146.05,192.69q6.55,5.19,13.29,10.16c3.3,2.44,9.3,8.59,13.84,8q4.13-5.28,8.61-10.28a136.25,136.25,0,0,1-51-61.7c-2.23-5.43-2.88-10.57,1.91-14.77s10.49-6.18,11.81-13.47c.34-1.92.52-2.15-1.1-3.54-2.13-1.84-.8-.88-2.63-.81s-4.32,1.59-6,2.37a58.36,58.36,0,0,0-8.45,4.83c-4.71,3.21-8.09,6.45-13.38,2.33C102.36,107.63,94,95.63,88.18,83.74A3.17,3.17,0,0,1,88.67,80c9-7.5,18.52-15.27,26.15-24.21,3.5-4.1,6.85-10.25,4.09-15.62-2.56-5-8.88-5.57-13.72-4.27-5.16,1.38-9.69,4.82-14,7.86S82.91,49.68,79,53Z"/><path class="cls-4" d="M197.91,294.51c2.58,1,5.38,1,7.31-1.13s1.67-5.89,1-8.41a7.8,7.8,0,0,0-5.33-5.46,7.24,7.24,0,0,0-2.13-.32c-3.83-1.17-6.53,1.7-7.25,5.09a7.71,7.71,0,0,0-.45,3.23A8.05,8.05,0,0,0,197.91,294.51Zm2.13-8.64a3.09,3.09,0,0,1,.48,1.67c0,.22,0,.45,0,.67a8.9,8.9,0,0,1-1.6.12c-.13-.08-.26-.15-.37-.23a3.76,3.76,0,0,1-1.28-1.6A1.58,1.58,0,0,1,200,285.87Z"/><path class="cls-4" d="M202.91,303.23c-4.27,0-4.28,6.65,0,6.65S207.19,303.23,202.91,303.23Z"/><path class="cls-4" d="M350.63,254c4.94.27,9.37-4.67,8.06-9.56a8.52,8.52,0,0,0-4.24-5,2.6,2.6,0,0,0-.7-.39c-4.28-1.52-9.24.28-10.35,5A8.2,8.2,0,0,0,350.63,254Zm-.74-9.4c1.09.22,2.38.43,2.66,1.39s-1,2-1.92,1.78C348.92,247.34,349,245.74,349.89,244.55Z"/><path class="cls-4" d="M358.41,258.63a3.22,3.22,0,0,0,3,1.61,2.84,2.84,0,0,0,.65,0,2.79,2.79,0,0,0,1.69-.8,3,3,0,0,0,.81-2.19,3.31,3.31,0,0,0-5.62-2.62A3.4,3.4,0,0,0,358.41,258.63Z"/><path class="cls-4" d="M268.44,285.54c11.79-3.58,7.82-19.82,3.93-27.73-1.73-3.52-6.94-.44-5.25,3.08,2.15,4.48,6.78,17.26-.95,19.14-7.11,1.72-10.4-6.82-12-12-.71-2.37-4.71-2.06-4.5.61C250.44,278,257.52,288.85,268.44,285.54Z"/><path class="cls-4" d="M178.81,299.54c5.8,19.28,22.91,28.11,41.34,32.3,40.73,9.27,84.06-1,121.75-17,17-7.23,33.8-17.26,43.51-33.5,8.9-14.89,11-33.8,1.37-48.88-9.79-15.31-27.65-24.38-44.84-28.57-19.71-4.81-40.31-3.57-59.9,1.14-22.43,5.39-45.39,14.45-65,26.69-17.7,11.05-33.35,26.41-39.52,46.81a1.63,1.63,0,0,0,.34,1.69A40.63,40.63,0,0,0,178.81,299.54Zm16.44-41.22a2,2,0,0,0,.57-2.2c17.64-19.54,44.1-31.24,68.55-39.7,33.39-11.55,74.46-15.69,104.66,6.47,13.82,10.15,21,25.7,16.31,42.64s-17.88,28.92-32.74,37.14c-15.65,8.66-33.16,14.58-50.39,19.19-17.88,4.78-36.35,7.64-54.89,7.06a131.42,131.42,0,0,1-31.53-4.74c-10.1-2.83-19.84-7.23-26-16.11C179.23,292.82,181.92,271,195.25,258.32Z"/><path class="cls-4" d="M66.79,56.25c-7.28,8-12.93,17.65-14.44,28.47-1.58,11.35,2.39,22,8.67,31.37,6.65,9.88,15,18.75,23.07,27.46q12.78,13.8,26.55,26.62,15.36,14.29,31.87,27.29,7.86,6.18,16,12c3.42,2.48,6.82,5.45,10.74,6.63a195.91,195.91,0,0,0-34,77.23c-.65,3.28,3.8,5.54,5.6,2.37a19.45,19.45,0,0,1,5.85-6.47c-13.35,39.62-19.78,81.31-17.82,123.16.13,2.78,4.21,4.35,5.62,1.52q4.26-8.55,8.5-17.12a218,218,0,0,0,30.49,134.4c1.48,2.42,5.95,1.62,5.69-1.54A117.76,117.76,0,0,1,180.67,498c13.71,31.91,54.7,44.09,84,57.26,19.39,8.71,38.87,17.12,59.24,23.27A348.28,348.28,0,0,0,384,591a344.29,344.29,0,0,0,71.26.91c3.33-.3,4.32-5,.82-6l-11.51-3.37a70.76,70.76,0,0,0,18-9c10-6.6,19.56-14,29-21.43,19-14.88,36.84-31.58,48.9-52.72,1.66-2.91-2.39-6.27-4.75-3.66a38.69,38.69,0,0,1-11.23,8.61,361.13,361.13,0,0,0,45-92.42c.9-2.79-2.17-4.45-4.32-3.43a175.66,175.66,0,0,0,17.7-50.08,3.09,3.09,0,0,0-5.62-2.37c-5,7.85-18.55,6.76-26.63,6.5A116.25,116.25,0,0,1,522.13,358a118.75,118.75,0,0,1-36.52-17.76,85.28,85.28,0,0,0,15.83,2.56c3.2.21,3.49-3.85,1.46-5.41a220.79,220.79,0,0,1-66.17-83.24q12.07,5.65,24.13,11.39c2.17,1,5.09-.69,4.29-3.31a181,181,0,0,0-39.36-68.59l.07-.08c21.61-32.09,43.38-64.44,58.72-100.11,3.65-8.49,7-17.14,9.82-25.95,2.57-8,5.06-16.25,5.17-24.71.09-7.44-2-14.87-7.29-20.29-5.84-6-14.39-9.21-22.25-11.5C457.4,7.3,432.32,3.29,429.11,21.79c-1.28,7.41,4.37,12.62,9.95,16.38A56.64,56.64,0,0,0,450,43.86c3.89,1.54,12.43,1.94,12.37,7.25-.06,4.29-2.69,9.46-4.21,13.42-1.85,4.79-4,10.12-9,12.25-8.38,3.5-17.72-1.68-25.29-4.89-6.9-2.91-16.8-6.53-23.74-1.74-5.54,3.82-4.85,11.48-1.58,16.56,4.07,6.33,11.07,9.65,17.78,12.45,6.4,2.67,18.47,6.21,20.21,14.12,1,4.72-5,12-7.42,16-3,4.91-6.08,9.73-9.25,14.51-6.09,9.16-12.74,17.9-19.27,26.75a182.63,182.63,0,0,0-36.52-21.63l4.17-.39a3.05,3.05,0,0,0,1.52-5.64,79.28,79.28,0,0,0-82.82-4.53,61,61,0,0,0-41.09-27.06,3,3,0,0,0-2.3,5.44,27.27,27.27,0,0,1,10.18,13.14c-27.28-2.23-54,13.71-64.74,39.15-1,2.36,2.39,4.88,4.41,3.39a19,19,0,0,1,21.28-1.09,195.73,195.73,0,0,0-28.48,24.54c-21.74-14.14-40.71-35.55-49.83-60.08-1.66-4.48-.27-6.44,3.48-8.86a26.37,26.37,0,0,0,6.39-5.33c3.31-4.07,5.51-9.76,4.78-15.08-1.91-13.86-20.22-3.47-26.56.63-1.55,1-3,2.45-4.62,3.31-2.14,1.13-3,.54-4.77-1.09a97.24,97.24,0,0,1-8-8.22A94.85,94.85,0,0,1,94.78,83c9-7.52,18.74-15.42,25.87-24.72,5.54-7.22,8.15-18.26.44-25.06-7.49-6.6-18.16-4-25.9.57A126.76,126.76,0,0,0,66.79,56.25ZM435.62,130c3.61-6,9.35-13,6.06-20.29-2.55-5.64-8.28-9.42-13.66-12-5.88-2.85-12.26-4.7-17.83-8.15-2.83-1.74-5.62-4-7.15-7-3.71-7.29,3.76-9.28,9.51-8.15,13.62,2.68,29.1,16.32,42.83,5.78,5.78-4.43,8.14-12.3,10.41-18.92,2-5.76,5.13-14-.94-18.49-2.68-2-6.25-2.3-9.34-3.26a50.35,50.35,0,0,1-12.72-6C439.2,31.09,434.48,27.86,435,23c.61-5.33,5.86-8.22,10.65-9,9.09-1.44,19.36,1.34,27.85,4.46,8.17,3,16.47,7.4,19,16.39,2.22,8,.21,16.58-2,24.31a253.14,253.14,0,0,1-8.6,24.65c-15.2,37.6-38,71.58-60.54,105.09a186.45,186.45,0,0,0-17.05-15.47C416.23,160.19,426.45,145.21,435.62,130ZM220.77,174.23a2.89,2.89,0,0,0,1.31-2.65,2.48,2.48,0,0,0-.84-2.74,25.13,25.13,0,0,0-22.59-5.5c12.13-19.28,35.5-30.83,58.39-27.15a3,3,0,0,0,3.65-3.65A33.28,33.28,0,0,0,255.15,120a55,55,0,0,1,28.1,24,3.09,3.09,0,0,0,4.17,1.09,73.26,73.26,0,0,1,71.47-1.8l-7.61.68a3.07,3.07,0,0,0-.81,6c49.5,17.75,89.23,58.17,106.92,107.51q-12.43-5.75-24.82-11.58c-2-.92-5.22.68-4.19,3.22a222.89,222.89,0,0,0,63.22,86.56,74,74,0,0,1-19.67-6.84c-2.91-1.5-6.08,2.21-3.59,4.66A122.92,122.92,0,0,0,525,365.14a121,121,0,0,0,31.82,3.55c6-.14,12.69-.51,18.14-3.07A171.24,171.24,0,0,1,547.61,425c-1.84,2.57,1.7,5.64,4.18,4.18a53.1,53.1,0,0,0,7-4.89,356.23,356.23,0,0,1-44.82,84.59c-1.62,2.27,1.05,5,3.42,4.44a45.09,45.09,0,0,0,8.49-3c-10.23,13.39-22.83,24.85-36.06,35.37-8.94,7.11-18.11,14-27.49,20.57-10,6.95-21,13.16-33.59,11.64-3.5-.42-4,5-.81,6l9.73,2.87A343.29,343.29,0,0,1,336,575.49c-19.92-5.33-39.06-12.7-57.89-21-18.35-8.11-37.26-15.55-55.11-24.71-18.14-9.31-35.49-23.17-39.85-44.13-.63-3.05-5.12-2.78-5.91,0a123.22,123.22,0,0,0-4.68,31.8c-22.14-41.65-30.18-90.65-21.52-137.13.57-3-3.76-5.42-5.35-2.25l-11.14,22.2c-.24-39.46,6.23-78.83,20.1-115.86.83-2.22-1.64-4.25-3.7-3.7a25.25,25.25,0,0,0-7.31,3.22A192.7,192.7,0,0,1,220.77,174.23ZM118.91,40.13c2.76,5.37-.59,11.52-4.09,15.62C107.19,64.69,97.68,72.46,88.67,80a3.17,3.17,0,0,0-.49,3.78c5.84,11.89,14.18,23.89,24.73,32.11,5.29,4.12,8.67.88,13.38-2.33a58.36,58.36,0,0,1,8.45-4.83c1.7-.78,4.13-2.31,6-2.37s.5-1,2.63.81c1.62,1.39,1.44,1.62,1.1,3.54-1.32,7.29-6.89,9.14-11.81,13.47s-4.14,9.34-1.91,14.77a136.25,136.25,0,0,0,51,61.7q-4.48,5-8.61,10.28c-4.54.55-10.54-5.6-13.84-8q-6.74-5-13.29-10.16-12-9.49-23.43-19.68a503,503,0,0,1-42.5-42.77C66.9,115.24,52.47,98.19,60.54,77,64.21,67.39,71.26,59.57,79,53c3.9-3.3,8-6.32,12.19-9.26s8.83-6.48,14-7.86C110,34.56,116.35,35.17,118.91,40.13Z"/><path class="cls-4" d="M237,389.22c-.12-1.21-1.9-1.62-2.24-.3-1.33,5.16-.82,10.85.2,16.18-6-4.8-9.46-12.18-10.37-19.82a.76.76,0,0,0-1.51,0c-.13,10.28,5.31,18.63,13.4,24.54,1.16.84,2.5-.54,2.24-1.72C237.29,401.75,237.57,395.61,237,389.22Z"/><path class="cls-4" d="M384.67,362.64c-.49-.72-2-.57-1.85.5.56,4.29,2.84,8.39,4.91,12.14.4.71,4.19,6,4,6.39-.95,1.45-6.31-2.16-7.28-2.78a45.38,45.38,0,0,1-18.81-24.43.74.74,0,0,0-1.42.39c3.45,12.69,11.72,23.84,23.93,29.35,2.68,1.21,7.28,2.12,6.9-2.27-.21-2.46-3-5.29-4.26-7.45C388.59,370.64,387.16,366.25,384.67,362.64Z"/><path class="cls-4" d="M426.07,327.55c1.06.11,1.49-1.16,1.11-1.95-1.12-2.35-2.09-5-3.75-7-.7-.85-1.91.09-1.71,1a20.76,20.76,0,0,0,2.08,5.08,18.16,18.16,0,0,1-11-6.78c-.44-.56-1.34.16-1,.75A18.42,18.42,0,0,0,426.07,327.55Z"/><path class="cls-4" d="M330.16,427.81a1,1,0,0,0-2,.27c-.29,4.44,1,8.94,2.72,13.12-9.65-3.95-14.73-16.94-17.47-26a.72.72,0,0,0-1.38.38c2,11.23,8.59,26.6,21,29.32.95.21,2.24-.68,1.78-1.77C332.66,438.09,331.84,432.91,330.16,427.81Z"/><path class="cls-4" d="M269.29,499a1,1,0,0,0-1.84.78,49,49,0,0,0,3.18,8.9,48,48,0,0,1-17-23.12.59.59,0,0,0-1.14.32,47.67,47.67,0,0,0,20.7,28c1,.62,2.57-.44,2.1-1.61C273.54,507.79,271.92,503,269.29,499Z"/><path class="cls-4" d="M406.63,507.14a29.28,29.28,0,0,0,5.9,2.75,5.53,5.53,0,0,0,1.38.12l-.59.08c-1.93.27-3.79.64-5.76.83-11.19,1.06-26.29.2-35.24-7.41-.66-.56-1.62.36-1,1,9.94,9.33,27.09,10.48,39.9,8.71,1.9-.26,7.73-.83,5.09-4.3-1.47-1.94-5.58-2.8-7.65-3.86a51.1,51.1,0,0,1-9-6.2.79.79,0,0,0-1.24.95C400.08,503.2,403.33,505.43,406.63,507.14Z"/><path class="cls-4" d="M453,456.86c13.63,5.19,28.72-1.62,41.79-5.62a1.42,1.42,0,0,0-.38-2.78c-5.18-.09-10.45-.44-15.63-.09a1.29,1.29,0,0,0,0,2.58c2.32.22,4.67.3,7,.32-10.53,3.64-21.87,7.33-32.44,4.34C452.51,455.38,452.22,456.57,453,456.86Z"/><path class="cls-4" d="M504.84,407.73c11.09-.74,19.54-7.22,27.79-14.09a1.2,1.2,0,0,0-.84-2c-4.54.34-9.16.1-13.67.66-.84.1-1.24,1.44-.22,1.64a38.94,38.94,0,0,0,10.29.36c-6.83,5.68-14.34,11.16-23.35,12.2C504.06,406.56,504,407.79,504.84,407.73Z"/><path class="cls-4" d="M186.57,347.64a28.84,28.84,0,0,0-5.41,8.95,60,60,0,0,1,3.49-21.49c.15-.42-.5-.58-.65-.18a67.94,67.94,0,0,0-4.73,26.74,1.11,1.11,0,0,0,2.16.3c1.86-4.64,4.54-9,6-13.78A.55.55,0,0,0,186.57,347.64Z"/><path class="cls-4" d="M233.54,193c4-1.67,8.19-3.13,11.87-5.42a.68.68,0,0,0-.52-1.24,52.48,52.48,0,0,0-8.3,3.08,35.2,35.2,0,0,1,17.47-10.81.73.73,0,0,0-.39-1.41,34.85,34.85,0,0,0-21.3,14.29C231.88,192.22,232.71,193.39,233.54,193Z"/><path class="cls-4" d="M317.79,166.18a96.4,96.4,0,0,1,14.17,7c3.56,2.15,10.36,5.49,12.38,9.68A36.53,36.53,0,0,1,330.5,180c-1.17-.49-2,1.49-.86,2a31.13,31.13,0,0,0,16.25,3.08,1.11,1.11,0,0,0,1.06-1.38c-1.22-4.84-7.35-7.81-11.26-10.19A92,92,0,0,0,318,165.36C317.49,165.18,317.29,166,317.79,166.18Z"/><path class="cls-4" d="M407.38,226.47c1.48.52,3,.26,3.27-1.53.33-2.24-2.17-5-3.26-6.77-1.71-2.72-3.52-6-6.2-7.9-.35-.25-.81.16-.7.54,1.09,3.88,4.13,7.46,6.11,11,.26.47.53.94.78,1.42l.41.8c-.59-.23-1.69-1.14-2.38-1.5-1.59-.85-2.86-1.87-4.67-1.94a.9.9,0,0,0-.78,1.35C401.34,224.1,405,225.63,407.38,226.47Z"/></svg>