<svg id="Layer_1" data-name="Layer 1" xmlns="http://www.w3.org/2000/svg" viewBox="0 0 600 600"><defs><style>.cls-1{fill:#fff;}.cls-2{fill:#231f20;}</style></defs><title>doodle</title><path class="cls-1" d="M394.42,198.52c-1.16-.52-3.2.34-4.06,1.28a3.55,3.55,0,0,0,1.18,2.77c1.08.84,3.11.76,3.84-.48A2.71,2.71,0,0,0,394.42,198.52Z"/><path class="cls-1" d="M341.61,134.83c4.31,3.6,10.32,1.27,11.88-3.9,1.69-5.62-2.85-11.23-8.64-11.32a8.64,8.64,0,0,0-2.48.34,19,19,0,0,0-2.7,6.53,14.4,14.4,0,0,0-.35,2.82l.77,3.63A6.16,6.16,0,0,0,341.61,134.83Z"/><path class="cls-1" d="M177.48,199.9a26.23,26.23,0,0,0,9.88,2.52c6,.4,12-.37,17.95-1.25,5.58-.83,11.85-1.76,15.89-6.11,7.05-7.6,6.25-21.1,5.86-30.7-.42-10.65-3.12-21.94-13.18-27.45C194,126,174.42,141.2,162.07,156.53a44.21,44.21,0,0,0-1.11,7.66,63.82,63.82,0,0,0,2.86,17.59A43.74,43.74,0,0,0,177.48,199.9Zm-6.34-41.24a30.73,30.73,0,0,1,14.59-15.52c9.82-6.45,25.73-2.17,32.16,7.36,6.6,9.78,5.73,26.09-1.36,35.34-7.93,10.36-22.77,13-34,6.41A27.38,27.38,0,0,1,171.14,158.66Z"/><path class="cls-1" d="M285.25,229.93c.2,6.21-.41,14.68,5.48,18.64,4.68,3.14,13.49,1.89,19.29,1.47-1.47-9.39-2.67-19.77-1.82-29.2-8.32.35-17,3-24.78,6.53A2.59,2.59,0,0,1,285.25,229.93Z"/><path class="cls-1" d="M316.31,249.5c4.52-.64,8.89-2.19,11-6.6,2.34-4.86.39-10.19,1.9-15.08a2.57,2.57,0,0,1,.52-.91c-.71-.51-1.43-1-2.16-1.45a31.31,31.31,0,0,0-14.29-4.54,130.72,130.72,0,0,1,1.56,13.52C315.32,239.45,316,244.48,316.31,249.5Z"/><path class="cls-1" d="M197.6,173.92c3.34-.71,6-4.11,7.55-7a15.63,15.63,0,0,0,1.68-9,8.93,8.93,0,0,0-6.22-5.3c-3.45-.81-7.15,1.28-10.6,2.92a15.27,15.27,0,0,0-1.66,11.24C189.4,170.89,193.05,174.88,197.6,173.92Z"/><path class="cls-1" d="M153.84,233.37c1.55-.71,1.47-2.61.85-4a8.8,8.8,0,0,0-1.09-1.27c-.14.31-.26.63-.39.94a2.62,2.62,0,0,1-1.81,1.59,3.16,3.16,0,0,0-.21,1.73C151.44,233.71,152.77,233.86,153.84,233.37Z"/><path class="cls-1" d="M104,332.66c-3.18,46.23-2.77,93.68,4.09,139.59,5.88,39.31,20.94,81.25,57.08,102.14a3,3,0,0,1,1.93.59l1.15.81a63,63,0,0,1-1.33-52.29c.93-2.16,3.78-1.86,5.24-.67a280.85,280.85,0,0,0,58.51,36.56,80.8,80.8,0,0,1-13.57-54c.34-3.07,4.34-4.68,6.13-1.66A98.91,98.91,0,0,0,289,550a150.16,150.16,0,0,1-19-47.76,3.53,3.53,0,0,1,5.12-3.93q23,11.41,45.9,22.88a147.57,147.57,0,0,1-3.33-51.6c.29-2.65,2.69-4.25,5.2-3,11.49,5.77,15.69,19.73,22.16,29.95a156,156,0,0,0,25.59,30.73,159.15,159.15,0,0,0,61.47,35.61,165.46,165.46,0,0,1-23.88-92.63,3.6,3.6,0,0,1,6.65-1.8c29.26,47.79,80.93,80.08,136.42,86.15a76.31,76.31,0,0,1-7.14-6.07c-12.61-12.16-21-28-27.46-44.08-7.75-19.21-13.18-39.41-18.56-59.39-12.12-45-21.54-90.74-31-136.4-9.25-44.57-18-89.52-30.85-133.24C424.66,136,408.17,96.33,379.18,66.26,353.07,39.18,317,19.74,278.51,21.89c-39.22,2.19-74.66,25.84-98.64,55.89-27.13,34-41.78,76.1-52.95,117.62A717.91,717.91,0,0,0,104,332.66Zm297.23-128c-2.2,4.45-7.94,5.83-12.19,3.54-5.2-2.82-5-9.35-3.4-14.23a2.81,2.81,0,0,1,3.35-1.91c.57.08,1.13.15,1.7.21a8.75,8.75,0,0,1,6,.1C401.35,194.2,403.4,200.15,401.18,204.65Zm-98.71-80.12c4.31-13.76,14.19-26.06,27.69-31.63,14.26-5.89,31.12-3.35,43.76,5.25,13.35,9.08,21.42,24.13,23.4,40s-2.61,31.78-15.11,42.13c-6.17,8-14.79,14-24,15.37a64.82,64.82,0,0,1-16.17-.07c-5.1-.53-10.64-.86-15.24-3.35a26.8,26.8,0,0,1-8.71-8A66.09,66.09,0,0,1,308,170.47C300.5,156.6,297.7,139.78,302.47,124.53ZM276.9,223.24c10.67-5.26,22.9-9.09,34.88-9.24,12.73-.17,23.8,6.95,32,16.25s13.21,21.16,11.63,33.64c-1.38,10.84-7.85,20.54-18.19,24.64a26,26,0,0,1-17.8.72c-5.35-1.83-9.36-5.71-13.89-8.91-13.42-9.48-28.73-2.76-41.74,4-8.4,4.36-24.36,14.56-31.78,3-3.1-4.82-.86-9.59,1.94-13.77C239.24,251.3,256.56,233.29,276.9,223.24Zm-123.28-79.9c6.71-12.89,16.58-22.91,31.28-25.6,13.32-2.43,28.22-3.78,38.83,5.93C237.19,136,243.46,154,242.08,171.45a42.14,42.14,0,0,1-2.83,14.14l-.18.42a56.71,56.71,0,0,1-6.37,13,55.57,55.57,0,0,1-13.51,14.39c-6.2,4.5-13.2,5.73-20.71,6.06-10.72.45-23.33-.1-31.26-7.48-9.73-5.51-16.78-15.34-19.73-26.06C143.55,171.62,146.89,156.24,153.62,143.34Zm-5.15,81.6a5.08,5.08,0,0,1,2-2.93c2.43-1.62,5.32-.6,7.31,1.22,3.76,3.42,5,9.89,1.27,13.82-3.24,3.44-9.5,3.65-12.38-.32C144.16,233.22,145.43,228,148.47,224.94Z"/><path class="cls-1" d="M320.31,153.05c6.87,8.2,16.12,15.28,26.08,17.26A41.2,41.2,0,0,0,357,167.88a42.13,42.13,0,0,0,23.43-22.54c1.62-8.79.19-18.42-3.19-26.95-6.28-8.75-15.64-15.46-26.24-15.27-15.38.29-28.26,11.54-33.45,25.44-.59,6.92-.54,13.85,1.39,20.63A31.78,31.78,0,0,0,320.31,153.05Zm14.8-42.74,11-2.91c17.38,0,22,12.71,23.2,23.58,1.14,10-3.82,19.78-13,24-4,3.05-9.2,4.35-15.44,2.7C319.09,151.92,316.74,121.49,335.11,110.31Z"/><path class="cls-2" d="M182.55,192.25c11.21,6.59,26,3.95,34-6.41,7.09-9.25,8-25.56,1.36-35.34-6.43-9.53-22.34-13.81-32.16-7.36a30.73,30.73,0,0,0-14.59,15.52A27.38,27.38,0,0,0,182.55,192.25ZM190,155.63c3.45-1.64,7.15-3.73,10.6-2.92a8.93,8.93,0,0,1,6.22,5.3,15.63,15.63,0,0,1-1.68,9c-1.51,2.85-4.21,6.25-7.55,7-4.55,1-8.2-3-9.25-7A15.27,15.27,0,0,1,190,155.63Z"/><path class="cls-2" d="M340.94,157.7c6.24,1.65,11.46.35,15.44-2.7,9.15-4.24,14.11-14.06,13-24-1.25-10.87-5.82-23.58-23.2-23.58l-11,2.91C316.74,121.49,319.09,151.92,340.94,157.7Zm-1.27-31.22a19,19,0,0,1,2.7-6.53,8.64,8.64,0,0,1,2.48-.34c5.79.09,10.33,5.7,8.64,11.32-1.56,5.17-7.57,7.5-11.88,3.9a6.16,6.16,0,0,1-1.52-1.9l-.77-3.63A14.4,14.4,0,0,1,339.67,126.48Z"/><path class="cls-2" d="M167.22,212c7.93,7.38,20.54,7.93,31.26,7.48,7.51-.33,14.51-1.56,20.71-6.06A55.57,55.57,0,0,0,232.7,199a56.71,56.71,0,0,0,6.37-13l.18-.42a42.14,42.14,0,0,0,2.83-14.14c1.38-17.5-4.89-35.46-18.35-47.78-10.61-9.71-25.51-8.36-38.83-5.93-14.7,2.69-24.57,12.71-31.28,25.6s-10.07,28.28-6.13,42.57C150.44,196.63,157.49,206.46,167.22,212Zm-5.15-55.44c12.35-15.33,32-30.51,51.81-19.62,10.06,5.51,12.76,16.8,13.18,27.45.39,9.6,1.19,23.1-5.86,30.7-4,4.35-10.31,5.28-15.89,6.11-5.9.88-12,1.65-17.95,1.25a26.23,26.23,0,0,1-9.88-2.52,43.74,43.74,0,0,1-13.66-18.12A63.82,63.82,0,0,1,161,164.19,44.21,44.21,0,0,1,162.07,156.53Z"/><path class="cls-2" d="M318.12,184.25a26.8,26.8,0,0,0,8.71,8c4.6,2.49,10.14,2.82,15.24,3.35a64.82,64.82,0,0,0,16.17.07c9.18-1.36,17.8-7.37,24-15.37,12.5-10.35,17.11-26.17,15.11-42.13s-10.05-30.9-23.4-40c-12.64-8.6-29.5-11.14-43.76-5.25-13.5,5.57-23.38,17.87-27.69,31.63-4.77,15.25-2,32.07,5.56,45.94A66.09,66.09,0,0,0,318.12,184.25Zm-.56-55.69c5.19-13.9,18.07-25.15,33.45-25.44,10.6-.19,20,6.52,26.24,15.27,3.38,8.53,4.81,18.16,3.19,27A42.13,42.13,0,0,1,357,167.88a41.2,41.2,0,0,1-10.62,2.43c-10-2-19.21-9.06-26.08-17.26a31.78,31.78,0,0,1-1.36-3.86C317,142.41,317,135.48,317.56,128.56Z"/><path class="cls-2" d="M133,153.26c-1.68,4.77-3.27,9.57-4.78,14.36A708.76,708.76,0,0,0,100,304.13a721.38,721.38,0,0,0-1.3,143c3.79,41.59,11.94,86.27,42.93,116.81a99.59,99.59,0,0,0,21.21,16,3.59,3.59,0,0,0,.87.87l16.75,11.77c3.21,2.26,6.75-2.65,4.11-5.32a56.45,56.45,0,0,1-13.23-56.59,290.83,290.83,0,0,0,69.54,40.41c3.23,1.32,5.35-3.35,3.22-5.53a74.15,74.15,0,0,1-20.83-49.77,105.16,105.16,0,0,0,72.85,42.34c2.57.3,4.39-3.19,3-5.23a144.11,144.11,0,0,1-20.62-45.08q23.07,11.51,46.17,23c2.57,1.27,6-.85,5.08-3.9A140.53,140.53,0,0,1,324,475.93c3.62,3.45,6,8.08,8.35,12.6a165,165,0,0,0,106.81,83.72c2.79.68,5.83-2.53,4-5.2a158.23,158.23,0,0,1-27.89-84.94c34.19,48.48,91.21,79.3,150.71,80.76,3.41.09,5.13-5.17,1.82-6.72-36.42-17-48.08-61.22-58.19-96.6-13.18-46.12-23.14-93.08-32.89-140-9.65-46.47-18.66-93.28-31.48-139A430.51,430.51,0,0,0,428.8,132a10.87,10.87,0,0,0,1.39-.34c6.67-2.22,12.23-7,16.45-12.53,9.42-12.29,15.07-30.33,11.23-45.64C453.94,57.8,441,49.67,425.39,49.69c-12.9,0-31.81,2.61-36.66,16.41C364.08,38.69,330.22,18,292.91,15.15c-38.78-2.92-76.05,15.39-103.33,42-1.52,1.48-3,3-4.45,4.52a44.66,44.66,0,0,0-30.68-15.83c-13.92-1.15-26.08,5.28-36.58,13.85-10.75,8.77-20.44,19.85-23.8,33.64-3.23,13.3-.91,28.05,6.85,39.4C108.08,143.21,120.05,151.87,133,153.26Zm46.92-75.48c24-30.05,59.42-53.7,98.64-55.89C317,19.74,353.07,39.18,379.18,66.26c29,30.07,45.48,69.69,57.09,109.21,12.84,43.72,21.6,88.67,30.85,133.24,9.47,45.66,18.89,91.36,31,136.4,5.38,20,10.81,40.18,18.56,59.39,6.49,16.08,14.85,31.92,27.46,44.08a76.31,76.31,0,0,0,7.14,6.07c-55.49-6.07-107.16-38.36-136.42-86.15a3.6,3.6,0,0,0-6.65,1.8,165.46,165.46,0,0,0,23.88,92.63,159.15,159.15,0,0,1-61.47-35.61A156,156,0,0,1,345,496.59c-6.47-10.22-10.67-24.18-22.16-29.95-2.51-1.26-4.91.34-5.2,3a147.57,147.57,0,0,0,3.33,51.6q-22.93-11.46-45.9-22.88a3.53,3.53,0,0,0-5.12,3.93A150.16,150.16,0,0,0,289,550a98.91,98.91,0,0,1-65.79-46.29c-1.79-3-5.79-1.41-6.13,1.66a80.8,80.8,0,0,0,13.57,54,280.85,280.85,0,0,1-58.51-36.56c-1.46-1.19-4.31-1.49-5.24.67a63,63,0,0,0,1.33,52.29l-1.15-.81a3,3,0,0,0-1.93-.59C129,553.5,113.92,511.56,108,472.25c-6.86-45.91-7.27-93.36-4.09-139.59a717.91,717.91,0,0,1,23-137.26C138.09,153.88,152.74,111.8,179.87,77.78Z"/><path class="cls-2" d="M232,287.36c7.42,11.55,23.38,1.35,31.78-3,13-6.77,28.32-13.49,41.74-4,4.53,3.2,8.54,7.08,13.89,8.91a26,26,0,0,0,17.8-.72c10.34-4.1,16.81-13.8,18.19-24.64C357,251.41,352,239.5,343.8,230.25s-19.29-16.42-32-16.25c-12,.15-24.21,4-34.88,9.24-20.34,10-37.66,28.06-42.93,50.35C231.17,277.77,228.93,282.54,232,287.36Zm95.56-61.9c.73.46,1.45.94,2.16,1.45a2.57,2.57,0,0,0-.52.91c-1.51,4.89.44,10.22-1.9,15.08-2.13,4.41-6.5,6-11,6.6-.35-5-1-10.05-1.45-15.06a130.72,130.72,0,0,0-1.56-13.52A31.31,31.31,0,0,1,327.59,225.46Zm-19.39-4.62c-.85,9.43.35,19.81,1.82,29.2-5.8.42-14.61,1.67-19.29-1.47-5.89-4-5.28-12.43-5.48-18.64a2.59,2.59,0,0,0-1.83-2.56C291.24,223.81,299.88,221.19,308.2,220.84Z"/><path class="cls-2" d="M390.64,192.26c-.57-.06-1.13-.13-1.7-.21a2.81,2.81,0,0,0-3.35,1.91c-1.56,4.88-1.8,11.41,3.4,14.23,4.25,2.29,10,.91,12.19-3.54s.17-10.45-4.57-12.29A8.75,8.75,0,0,0,390.64,192.26Zm4.74,9.83c-.73,1.24-2.76,1.32-3.84.48a3.55,3.55,0,0,1-1.18-2.77c.86-.94,2.9-1.8,4.06-1.28A2.71,2.71,0,0,1,395.38,202.09Z"/><path class="cls-2" d="M159.09,237.05c3.7-3.93,2.49-10.4-1.27-13.82-2-1.82-4.88-2.84-7.31-1.22a5.08,5.08,0,0,0-2,2.93c-3,3-4.31,8.28-1.76,11.79C149.59,240.7,155.85,240.49,159.09,237.05Zm-7.69-6.37a2.62,2.62,0,0,0,1.81-1.59c.13-.31.25-.63.39-.94a8.8,8.8,0,0,1,1.09,1.27c.62,1.34.7,3.24-.85,4-1.07.49-2.4.34-2.65-1A3.16,3.16,0,0,1,151.4,230.68Z"/></svg>