<svg id="Layer_1" data-name="Layer 1" xmlns="http://www.w3.org/2000/svg" viewBox="0 0 600 600"><defs><style>.cls-1{fill:#a97c50;}.cls-2{fill:#754c29;}.cls-3{fill:#be1e2d;}.cls-4{fill:#f7941e;}.cls-5{fill:#231f20;}</style></defs><title>doodle</title><path class="cls-1" d="M518.84,147.94c-6.16,3.43-11.43,7-18.39,8.77a52.45,52.45,0,0,1-23.38.61c2.85,5.2,5.95,10.11,10.64,14.25,6.73,5.93,15.59,9.54,24.63,9.08,15.16-.77,25.74-13.4,30.2-27C540.62,145.46,525.36,144.31,518.84,147.94Z"/><path class="cls-2" d="M416.86,97.09c-.24,0-.47,0-.7-.09a2.08,2.08,0,0,1-1.73-1.63A132.13,132.13,0,0,0,375.49,77c-38.09-11-79.85-7.5-115.4,10.14-32.62,16.19-57.79,42.6-74.48,74.76-8.69,16.75-15.2,34.48-20.91,52.43-6,18.75-10.4,37.8-11,57.49a2.31,2.31,0,0,1,0,.7c-.93,8.77,11.24,7.52,16.89,7.36,6.56-.19,13.11-.43,19.67-.67l12.68-.44c.89-2,3.52-1.7,4.87-.17l19.49-.68c22.75-.76,45.52-1.26,68.27-.76,21.74.48,43.39,2.57,65.12,3.19,22.54.63,45.09-.06,67.59-1.34,11.08-.63,22.14-1.4,33.21-2.22,4.32-.32,25.94.29,28.6-5.64-6.31-43.49-11.17-88.07-32.66-127.27C447.07,125,433.45,109.13,416.86,97.09ZM268.94,210.87c-7.35-11.56-13.53-25.24-30-22.68-15,2.34-23.27,16.25-26.23,30-.71,3.32-5.45,1.83-5-1.37,2.48-16.94,13.64-32.87,31.61-35.12,16.79-2.1,31,11.26,34.54,27.09A2.73,2.73,0,0,1,268.94,210.87ZM438.06,203c-.15,2.9-4.48,3.7-5.2.7-2.71-11.11-11.35-20.47-23.86-16.89-10.18,2.92-13.71,12.79-17.43,21.53-1.27,3-5.13.59-4.76-2,1.81-12.68,11.8-25.17,25-26.5S438.74,189,438.06,203Z"/><path class="cls-3" d="M378.16,296.69a82,82,0,0,0-1.62-8.8c-5.66,0-11.33-.08-17-.25l-1.75-.07c3.42,5.15,4.51,11.59,4.94,18,.39,5.83.42,11.69.83,17.53S363,339.3,369,342.5c5.68,3,14.37-2.51,18.33-6.06a40.13,40.13,0,0,0,10.08-15,48.4,48.4,0,0,0,.73-33.28,4,4,0,0,1-.12-.56q-7.67.19-15.34.25c2.55,6.47,3.3,14.19,1.55,20.67-.9,3.33-5.72,2.5-5.85-.79C378.28,304.05,378.57,300.4,378.16,296.69Z"/><path class="cls-2" d="M405.18,287.4c7,22.21-1.78,56.83-28.09,61.62-5.31,1-11.88.46-15.59-3.95s-3.6-11.28-4.09-16.65c-.71-7.62-.82-15.24-1.25-22.87-.39-6.72-1.51-13.18-6-18.27-22.82-1-45.57-2.9-68.44-3.06-24.66-.16-49.31.67-73.95,1.45-2.47,9.77-8.28,18.11-13.63,26.65a134.94,134.94,0,0,0-15.54,35.07,163.15,163.15,0,0,0-2.89,74.82c7.94,40.83,34,79.6,74.88,93,21.77,7.17,47.21,7.81,69.88,5.6a139.23,139.23,0,0,0,56.14-18.3,145.5,145.5,0,0,0,68.76-92.79,155.36,155.36,0,0,0,1.14-64.48c-4.09-20.91-14-39.16-21.67-58.75Q415,287,405.18,287.4Z"/><path class="cls-2" d="M532.34,130.63c-9,.14-17.21,6.53-25.09,10.11a136.33,136.33,0,0,1-24.53,8.48,88.24,88.24,0,0,1-8.8,2.2l.55,1.05a50.39,50.39,0,0,0,17.43,1.91A47.11,47.11,0,0,0,508.4,150c3.84-1.86,7.14-4.77,11.09-6.36,6.2-2.49,15.37-1.64,20.72,2.51a11.79,11.79,0,0,1,3.34,4c1.09-4.37,2.3-10,0-14.22C541.38,132,536.55,130.57,532.34,130.63Z"/><path class="cls-1" d="M174.3,170.17c-8.31,4.23-19.61,3.34-28.57,1.9-7.26-1.17-13.8-3.55-19.53-8.24a94.87,94.87,0,0,1-8.82-8.66c-1.22-1.3-2.42-2.61-3.67-3.87q-1.24-1.26-2.55-2.46-3.16-4-7.1-.05c.66,12,4.2,23.54,15.24,30.38,7.06,4.38,15.6,6,23.82,5.51,10-.58,18.4-5.07,28-7.15C172.11,175.06,173.2,172.61,174.3,170.17Z"/><path class="cls-1" d="M134.5,381.4c-4.95,2.87-11.81,4.74-15.85,8.84-8.24,8.34,6.33,9.23,11,9.21,11.48-.06,26,2.2,35.82-5.13.09-.07.18-.11.27-.17A166.41,166.41,0,0,1,170.6,351C160.72,363.36,147.64,373.79,134.5,381.4Z"/><path class="cls-1" d="M352.73,521.39a2.36,2.36,0,0,1,0,.37c0,13.56-2,27.07-1.79,40.69.08,5.84-.06,16.84,9,13.48,5.65-2.09,8.16-8.84,10.53-13.91a561,561,0,0,0,24.63-62.72,150.44,150.44,0,0,1-29.44,17.17C361.38,518.33,357.08,520,352.73,521.39Z"/><path class="cls-1" d="M227.62,512.86c8.37,21.06,13.76,43.33,25.25,63,2.11,3.62,4.11,7.69,8.91,5.05,2.32-1.28,4-4.17,5.11-6.48,2.33-4.69,3.15-10.1,3.45-15.27.61-10.79-.23-21.38,4-31.53-14-1.63-27.81-4.94-40.55-11.39C231.71,515.21,229.64,514.06,227.62,512.86Z"/><path class="cls-2" d="M122.83,156c8.47,8.52,17.38,12,29.24,13.2,9.71,1,20.62.43,26.48-7.93.47-.94.94-1.88,1.43-2.82a2.72,2.72,0,0,1-1.45-2c-13.88,2.3-28.39-2.65-40.58-9.22-7.79-4.2-15-9.28-22.38-14.2-1.91-1.28-8.37-7.09-10.29-6.64.22-.05-.44,2.88-.58,4.25-.18,1.81-.32,3.62-.45,5.43-.18,2.5-.29,5-.31,7.61a5.76,5.76,0,0,1,1.85-.44C112.53,142.86,118.68,151.82,122.83,156Z"/><path class="cls-1" d="M456.43,385.75c14.41,2.19,29.71,1.78,43.69-2.5a24.88,24.88,0,0,0,9.08-4.61c1.78-1.53,6.83-7.57,4.3-10.11-1.37-1.37-7-.8-9.12-1.07a77.69,77.69,0,0,1-8.55-1.52c-17.19-4.1-31.83-14.51-43.25-27.79a169,169,0,0,1,3.18,18.61A162.19,162.19,0,0,1,456.43,385.75Z"/><path class="cls-4" d="M217.89,108.49a53.65,53.65,0,0,1-16-11.55c-6.69,3.57-13,7.7-17.84,13.7A42.54,42.54,0,0,0,176.85,124c-.72,2.19-1,4.39-1.87,6.35a49.64,49.64,0,0,0,13.62,13A168.09,168.09,0,0,1,217.89,108.49Z"/><path class="cls-4" d="M466.92,145.76a72.73,72.73,0,0,0,11.89-9.69,174.88,174.88,0,0,0-17.3-26.4c-6.2-7.77-12.62-14.83-21.32-19.44a44.39,44.39,0,0,1-12.33,5.91C444.07,109.5,457.12,126.5,466.92,145.76Z"/><path class="cls-4" d="M180.42,56q-.71-2.76-1.31-5.53c-1.05-4.86-1.61-9.78-2.56-14.65-1.37-7-6-.77-7.63,2.7-4.08,8.51-4.54,19.11-5.5,28.33-.13,1.21-.24,2.43-.35,3.64A41.84,41.84,0,0,1,180.42,56Z"/><path class="cls-4" d="M463.6,106.16a177.36,177.36,0,0,1,18.08,26.89,84.55,84.55,0,0,0,13.8-21.3c-5.23-6.82-9.6-14.09-15.78-20.3-6.52-6.55-14.51-11.27-21.18-17.52-1,1.13-2.08,2.26-3.15,3.35a107.43,107.43,0,0,1-11.86,10.61C451.68,91.63,458.13,99.46,463.6,106.16Z"/><path class="cls-4" d="M187.61,76.17a109.71,109.71,0,0,1-6.41-17.32,42.42,42.42,0,0,0-18.6,18,120.38,120.38,0,0,0,.48,21.48c.14,1.18.31,2.35.51,3.52C168.11,90.9,177.56,81.5,187.61,76.17Z"/><path class="cls-4" d="M199.41,94.24a78.42,78.42,0,0,1-10.32-15.09C177,85.83,170,95.64,164.81,107.68a67.25,67.25,0,0,0,7.7,19c.77-6.14,5.4-13.38,8.34-17.28C185.73,102.9,192.3,98,199.41,94.24Z"/><path class="cls-4" d="M497.51,107q.86-2.19,1.6-4.43A112,112,0,0,0,504,79.78a70.05,70.05,0,0,0-14.76-15.36,75,75,0,0,0-10.39-6.6c-1.82-1-3.8-1.75-5.67-2.68a142.5,142.5,0,0,1-13.34,17.4c8.58,2.91,16.33,10,22.62,16.18C487.69,93.9,493.58,100.2,497.51,107Z"/><path class="cls-4" d="M492.53,34.21a73.62,73.62,0,0,1,10.62,5.45c-.83-7.57-2.33-17.16-7.53-21.68s-6.74,4.79-8,8.33c-.77,2.07-1.6,4.11-2.45,6.15C487.53,32.22,491.51,33.77,492.53,34.21Z"/><path class="cls-4" d="M504.46,74.32a165.42,165.42,0,0,0-.71-28.93c-7.21-5.18-18.22-12.9-19.72-10.06a.32.32,0,0,1-.19.14l-.21.48a140.63,140.63,0,0,1-8.81,16.52C481.28,54.14,488,59,492.59,62.59A69.73,69.73,0,0,1,504.46,74.32Z"/><path class="cls-5" d="M239.37,181.69c-18,2.25-29.13,18.18-31.61,35.12-.47,3.2,4.27,4.69,5,1.37,3-13.74,11.21-27.65,26.23-30,16.44-2.56,22.62,11.12,30,22.68a2.73,2.73,0,0,0,5-2.09C270.35,193,256.16,179.59,239.37,181.69Z"/><path class="cls-5" d="M411.82,179.81c-13.21,1.33-23.2,13.82-25,26.5-.37,2.59,3.49,5,4.76,2,3.72-8.74,7.25-18.61,17.43-21.53,12.51-3.58,21.15,5.78,23.86,16.89.72,3,5.05,2.2,5.2-.7C438.74,189,425.12,178.47,411.82,179.81Z"/><path class="cls-5" d="M523.64,125.37c-9.29,3.14-17.59,8.83-26.73,12.41A133,133,0,0,1,483,142.35l-.31.08c23.45-22.42,31.18-57.15,29-89.34-.08-1.23-.17-2.48-.27-3.72a1.24,1.24,0,0,0,.22-1.56c-.12-.22-.26-.44-.4-.65-.65-7.88-1.71-16-4.37-23.28-2.2-6-7-15.61-14.48-15.8-8.12-.21-9.56,10.63-11.64,16.33A135.59,135.59,0,0,1,467.6,50.77a133.78,133.78,0,0,1-21.22,25.58c-7.73,7.25-15.59,11.89-25.28,14.57a132.14,132.14,0,0,0-30-16.25c-57.8-22.25-122.32-9-168.08,29.31C208.22,95.64,198,84,191.54,67.86a131.25,131.25,0,0,1-7-26.6c-.91-5.37-.84-14.92-7.53-16.87-5.75-1.68-10.89,4.72-13.37,9-3.89,6.76-4.87,14.76-5.89,22.34C155.23,74,153.55,93,158.3,111c4,15.36,12.78,29.44,26.21,38.12a3.29,3.29,0,0,0-.54,0c-23.38,4.58-42.87-7.38-61.49-19.91-4.44-3-8.89-6.49-13.67-8.92-2.74-1.4-5.61-1.79-8,.5C95.89,125.5,97,137.28,97,143.35c-.24,17.24,4.83,34.55,21.1,43a48.74,48.74,0,0,0,25.06,5.2c7.88-.42,17.07-2.09,24.6-5.75q-3.65,9.42-6.76,19c-7,21.35-12.91,43.69-13,66.29a3.62,3.62,0,0,0-.17.61c-1.34,9.13,6.22,14.09,14.53,14.77,12.74,1,26.05-.21,38.84-.63-3.07,9.29-9.12,17.2-14.24,25.6a136.08,136.08,0,0,0-10.56,21.42,3.23,3.23,0,0,0-1.42,1.09c-8.92,11.68-17.65,22.63-29.3,31.78a127.86,127.86,0,0,1-18.55,12.06c-5.54,3-12.36,5.22-15.58,11.07-6.4,11.62,6.55,17,15.83,17.3,12.07.41,27.55,2.25,38.73-3.9.21,3.26.5,6.52.88,9.75,4.5,37.51,22.24,74.06,53.17,96,0,0,0,.08,0,.12,3.84,15.5,9.32,30.85,15,45.77a198.1,198.1,0,0,0,8.77,20c2.52,4.89,5.48,12.28,10.79,14.85,10.29,5,18.68-10,20.8-17.77,3.68-13.49.05-27.78,5.33-41a2.71,2.71,0,0,0,.14-1.67c6.84.55,13.72.76,20.56.79a163.79,163.79,0,0,0,45.35-5.94c-1.78,7.58-2.19,15.58-2.56,23.31s-.8,16,.05,23.8c1.31,12,13.37,17,22.77,9,5.37-4.53,8-11.62,10.92-17.82q5-10.79,9.52-21.76c6.5-15.78,12.29-31.85,17.19-48.2a.7.7,0,0,0,0-.14A152.67,152.67,0,0,0,447,430.29a157.4,157.4,0,0,0,8.83-37.65c15.27,2.25,31.34,1.89,46.15-2.63,6.26-1.91,12.43-5.12,16-10.82,2.58-4.1,4.62-11.26,1.3-15.57-1.55-2-3.82-2.41-6.21-2.55a94.64,94.64,0,0,1-12.57-1.2,71.31,71.31,0,0,1-22.63-8.56c-12.74-7.52-21-19-30.19-30-.17-.47-.32-1-.49-1.42-4.22-11.56-10-22.47-14.64-33.84,2.39-.14,4.78-.28,7.18-.44,14.28-.92,28.67-1.64,42.9-3.14,7.58-.8,17.64-6,14.45-14.58-3.53-32.05-8.19-64.8-18.87-95.39,14.41,15.7,39.6,21.09,56.93,5.65,9.83-8.76,16.77-23.46,16.57-36.72C551.49,126.36,536.31,121.09,523.64,125.37ZM487.58,26.31c1.3-3.54,2.78-12.91,8-8.33s6.7,14.11,7.53,21.68a73.62,73.62,0,0,0-10.62-5.45c-1-.44-5-2-7.4-1.75C486,30.42,486.81,28.38,487.58,26.31ZM483.63,36l.21-.48a.32.32,0,0,0,.19-.14c1.5-2.84,12.51,4.88,19.72,10.06a165.42,165.42,0,0,1,.71,28.93,69.73,69.73,0,0,0-11.87-11.73C488,59,481.28,54.14,474.82,52.47A140.63,140.63,0,0,0,483.63,36ZM473.15,55.14c1.87.93,3.85,1.71,5.67,2.68a75,75,0,0,1,10.39,6.6A70.05,70.05,0,0,1,504,79.78a112,112,0,0,1-4.86,22.77q-.75,2.24-1.6,4.43c-3.93-6.78-9.82-13.08-15.08-18.26-6.29-6.19-14-13.27-22.62-16.18A142.5,142.5,0,0,0,473.15,55.14ZM455.37,77.28c1.07-1.09,2.11-2.22,3.15-3.35,6.67,6.25,14.66,11,21.18,17.52,6.18,6.21,10.55,13.48,15.78,20.3a84.55,84.55,0,0,1-13.8,21.3,177.36,177.36,0,0,0-18.08-26.89c-5.47-6.7-11.92-14.53-20.09-18.27A107.43,107.43,0,0,0,455.37,77.28Zm-15.18,13c8.7,4.61,15.12,11.67,21.32,19.44a174.88,174.88,0,0,1,17.3,26.4,72.73,72.73,0,0,1-11.89,9.69c-9.8-19.26-22.85-36.26-39.06-49.62A44.39,44.39,0,0,0,440.19,90.23ZM163.42,66.82c1-9.22,1.42-19.82,5.5-28.33,1.66-3.47,6.26-9.74,7.63-2.7.95,4.87,1.51,9.79,2.56,14.65q.6,2.78,1.31,5.53a41.84,41.84,0,0,0-17.35,14.49C163.18,69.25,163.29,68,163.42,66.82Zm-.34,31.49a120.38,120.38,0,0,1-.48-21.48,42.42,42.42,0,0,1,18.6-18,109.71,109.71,0,0,0,6.41,17.32c-10.05,5.33-19.5,14.73-24,25.66C163.39,100.66,163.22,99.49,163.08,98.31Zm1.73,9.37c5.19-12,12.17-21.85,24.28-28.53a78.42,78.42,0,0,0,10.32,15.09c-7.11,3.78-13.68,8.66-18.56,15.12-2.94,3.9-7.57,11.14-8.34,17.28A67.25,67.25,0,0,1,164.81,107.68ZM175,130.33c.91-2,1.15-4.16,1.87-6.35a42.54,42.54,0,0,1,7.21-13.34c4.84-6,11.15-10.13,17.84-13.7a53.65,53.65,0,0,0,16,11.55,168.09,168.09,0,0,0-29.29,34.83A49.64,49.64,0,0,1,175,130.33Zm-70.73,5.72c.13-1.81.27-3.62.45-5.43.14-1.37.8-4.3.58-4.25,1.92-.45,8.38,5.36,10.29,6.64,7.34,4.92,14.59,10,22.38,14.2,12.19,6.57,26.7,11.52,40.58,9.22a2.72,2.72,0,0,0,1.45,2c-.49.94-1,1.88-1.43,2.82-5.86,8.36-16.77,8.93-26.48,7.93-11.86-1.22-20.77-4.68-29.24-13.2-4.15-4.18-10.3-13.14-17-12.78a5.76,5.76,0,0,0-1.85.44C104,141.1,104.07,138.55,104.25,136.05Zm38.87,48.63c-8.22.48-16.76-1.13-23.82-5.51-11-6.84-14.58-18.4-15.24-30.38q3.93-4,7.1.05,1.31,1.2,2.55,2.46c1.25,1.26,2.45,2.57,3.67,3.87a94.87,94.87,0,0,0,8.82,8.66c5.73,4.69,12.27,7.07,19.53,8.24,9,1.44,20.26,2.33,28.57-1.9-1.1,2.44-2.19,4.89-3.22,7.36C161.52,179.61,153.13,184.1,143.12,184.68Zm22.62,209.47c-.09.06-.18.1-.27.17-9.77,7.33-24.34,5.07-35.82,5.13-4.67,0-19.24-.87-11-9.21,4-4.1,10.9-6,15.85-8.84,13.14-7.61,26.22-18,36.1-30.37A166.41,166.41,0,0,0,165.74,394.15Zm104.6,165.06c-.3,5.17-1.12,10.58-3.45,15.27-1.15,2.31-2.79,5.2-5.11,6.48-4.8,2.64-6.8-1.43-8.91-5.05-11.49-19.72-16.88-42-25.25-63,2,1.2,4.09,2.35,6.21,3.43,12.74,6.45,26.51,9.76,40.55,11.39C270.11,537.83,271,548.42,270.34,559.21ZM370.43,562c-2.37,5.07-4.88,11.82-10.53,13.91-9,3.36-8.9-7.64-9-13.48-.19-13.62,1.81-27.13,1.79-40.69a2.36,2.36,0,0,0,0-.37c4.35-1.43,8.65-3.06,12.89-4.92a150.44,150.44,0,0,0,29.44-17.17A561,561,0,0,1,370.43,562Zm125.4-196.08a77.69,77.69,0,0,0,8.55,1.52c2.14.27,7.75-.3,9.12,1.07,2.53,2.54-2.52,8.58-4.3,10.11a24.88,24.88,0,0,1-9.08,4.61c-14,4.28-29.28,4.69-43.69,2.5a162.19,162.19,0,0,0-.67-29,169,169,0,0,0-3.18-18.61C464,351.43,478.64,361.84,495.83,365.94Zm-49.34-20.66a155.36,155.36,0,0,1-1.14,64.48,145.5,145.5,0,0,1-68.76,92.79,139.23,139.23,0,0,1-56.14,18.3c-22.67,2.21-48.11,1.57-69.88-5.6-40.84-13.44-66.94-52.21-74.88-93a163.15,163.15,0,0,1,2.89-74.82,134.94,134.94,0,0,1,15.54-35.07c5.35-8.54,11.16-16.88,13.63-26.65,24.64-.78,49.29-1.61,73.95-1.45,22.87.16,45.62,2.07,68.44,3.06,4.51,5.09,5.63,11.55,6,18.27.43,7.63.54,15.25,1.25,22.87.49,5.37.42,12.28,4.09,16.65S371.78,350,377.09,349c26.31-4.79,35.07-39.41,28.09-61.62q9.82-.34,19.64-.87C432.47,306.12,442.4,324.37,446.49,345.28Zm-68.07-37.52c.13,3.29,4.95,4.12,5.85.79,1.75-6.48,1-14.2-1.55-20.67q7.66-.06,15.34-.25a4,4,0,0,0,.12.56,48.4,48.4,0,0,1-.73,33.28,40.13,40.13,0,0,1-10.08,15c-4,3.55-12.65,9.05-18.33,6.06-6.07-3.2-5.05-13.59-5.47-19.42s-.44-11.7-.83-17.53c-.43-6.39-1.52-12.83-4.94-18l1.75.07c5.66.17,11.33.24,17,.25a82,82,0,0,1,1.62,8.8C378.57,300.4,378.28,304.05,378.42,307.76ZM490.1,271.17c-2.66,5.93-24.28,5.32-28.6,5.64-11.07.82-22.13,1.59-33.21,2.22-22.5,1.28-45.05,2-67.59,1.34-21.73-.62-43.38-2.71-65.12-3.19-22.75-.5-45.52,0-68.27.76l-19.49.68c-1.35-1.53-4-1.79-4.87.17l-12.68.44c-6.56.24-13.11.48-19.67.67-5.65.16-17.82,1.41-16.89-7.36a2.31,2.31,0,0,0,0-.7c.62-19.69,5.06-38.74,11-57.49,5.71-17.95,12.22-35.68,20.91-52.43,16.69-32.16,41.86-58.57,74.48-74.76C295.64,69.52,337.4,66.07,375.49,77a132.13,132.13,0,0,1,38.94,18.35A2.08,2.08,0,0,0,416.16,97c.23,0,.46.06.7.09,16.59,12,30.21,27.91,40.58,46.81C478.93,183.1,483.79,227.68,490.1,271.17Zm22.24-90.52c-9,.46-17.9-3.15-24.63-9.08-4.69-4.14-7.79-9-10.64-14.25a52.45,52.45,0,0,0,23.38-.61c7-1.76,12.23-5.34,18.39-8.77,6.52-3.63,21.78-2.48,23.7,5.7C538.08,167.25,527.5,179.88,512.34,180.65Zm31.21-30.5a11.79,11.79,0,0,0-3.34-4c-5.35-4.15-14.52-5-20.72-2.51-4,1.59-7.25,4.5-11.09,6.36a47.11,47.11,0,0,1-16.5,4.41,50.39,50.39,0,0,1-17.43-1.91l-.55-1.05a88.24,88.24,0,0,0,8.8-2.2,136.33,136.33,0,0,0,24.53-8.48c7.88-3.58,16.14-10,25.09-10.11,4.21-.06,9,1.37,11.2,5.3C545.85,140.12,544.64,145.78,543.55,150.15Z"/></svg>