<svg id="Layer_1" data-name="Layer 1" xmlns="http://www.w3.org/2000/svg" viewBox="0 0 600 600"><defs><style>.cls-1{fill:#be1e2d;}.cls-2{fill:#fff200;}.cls-3{fill:#8dc63f;}.cls-4{fill:#00aeef;}.cls-5{fill:#f2b879;}.cls-6{fill:#231f20;}</style></defs><title>doodle</title><path class="cls-1" d="M267.41,303.1a32.59,32.59,0,0,1-1.35-7.36c-4.43,1.82-9.44,2.06-14.08,3.12-5,1.15-10.18,3.05-15.3,3.28a2.63,2.63,0,0,1-1.78-4.7c3.94-3.2,9.48-4.85,14.38-6,5.28-1.2,11.16-2.64,16.53-1.37h0c0-.8,0-1.58,0-2.32,0-.92,0-1.86,0-2.8-5.26-3.06-13.44-2.85-19-3.16-7.59-.44-16.52,1.42-23.82-.82-1.64-.51-2.73-2.86-.92-4,8.44-5.25,21.8-3.35,31.21-1.83,3.33.54,9.7,1.36,13.42,4a15.93,15.93,0,0,1,.85-2.34,3.26,3.26,0,0,1-.31-1.05c-7.09-3.63-13.76-7.87-21.26-10.72A95.46,95.46,0,0,0,220,259.22a86,86,0,0,0-22.93,1.15c-4.86.92-8.49,2.45-9.25,7.78-.55,3.87-.19,8-.05,11.88.61,16.61,2.33,34.83,8.58,50.38,2.65,6.57,7.07,13.15,14.56,14.41,8.44,1.42,16.93-3.63,23.64-8.1,13.51-9,23-20.58,32.65-33.38C267.26,303.25,267.34,303.18,267.41,303.1Z"/><path class="cls-2" d="M221,159.91a54.35,54.35,0,0,0-.58,9.85c.51.33,1,.65,1.58.94a21.31,21.31,0,0,0,8.28,2.19,43.73,43.73,0,0,0,11.39-1.14c2.24-.46,4.52-1.14,6.81-1.57a22.55,22.55,0,0,1,3-9.4,27.75,27.75,0,0,1,6.63-7.75c-5-1.74-8.92-7.47-11.33-11.64-2.89-5-6.09-10.7-6.92-16.61A60.47,60.47,0,0,0,221,159.91Z"/><path class="cls-3" d="M236.76,199.58c2.55-.84,4.44-2.51,6.45-4.19,3.89-3.26,7.67-5.95,9.85-10.35a19.45,19.45,0,0,1-4.63-13.28c-2.85.82-5.88,1.34-8.69,1.87a36.81,36.81,0,0,1-11.56.6,24.52,24.52,0,0,1-7.63-2.44,48.54,48.54,0,0,0,11.26,28.42A14.26,14.26,0,0,0,236.76,199.58Z"/><path class="cls-4" d="M262.51,215.21a.31.31,0,0,1,.19,0,37,37,0,0,0,11-1.41c0-1.22-.11-2.44-.22-3.63-.26-2.6-.58-5.19-1.07-7.76a34.44,34.44,0,0,0-5.3-12.77,13.75,13.75,0,0,1-12.87-3.38c-1.95,4.49-6.92,7.69-10.44,10.68-2.93,2.5-6.64,4.72-10.47,5a43.7,43.7,0,0,0,11,8.38A40.9,40.9,0,0,0,262.51,215.21Z"/><path class="cls-4" d="M241.4,123.4A52.73,52.73,0,0,0,247.88,140a36.18,36.18,0,0,0,5.66,7.94,20.68,20.68,0,0,0,6.12,3.93,27.25,27.25,0,0,1,16.83-4.65c-2.27-8.72-.52-18.44,2.92-26.57,1.94-4.58,4.61-8.83,8.63-11.86a30.28,30.28,0,0,1,2.78-1.83A67,67,0,0,0,241.4,123.4Z"/><path class="cls-4" d="M320.35,262.68c-.68-1.88-1.37-3.75-2.12-5.61a52,52,0,0,0-3.13-6.62c-.53-.91-1.12-1.76-1.68-2.63-2.28.86-4.58,1.67-6.88,2.41-6,1.93-12.09,3.68-18.29,5.1.59,1.93,1,3.92,1.47,5.78a102.57,102.57,0,0,1,2,11,17.49,17.49,0,0,1,5.41,5.39c.21.34.4.69.6,1,6.54-5.43,15.49-8.86,23.79-11.73C321.12,265.45,320.83,264,320.35,262.68Z"/><path class="cls-3" d="M309.77,111.76a60.45,60.45,0,0,0-16.23-4.5,27.42,27.42,0,0,0-4.26,2.5c-4,2.9-6.6,7-8.51,11.53a42.78,42.78,0,0,0-2.79,26,31.76,31.76,0,0,1,22.85,13.37c.27.39.52.78.77,1.17,4.45-6.88,13.29-11.65,20.47-14a47.84,47.84,0,0,1,22.28-1.72A67,67,0,0,0,309.77,111.76Z"/><path class="cls-5" d="M282.26,313.55c2.77,18.58,3.88,37.46,5.54,56.15l5.25,59.14q4.77,53.67,9.51,107.33l2.52,28.48c.36,4,.33,8.27,1.13,12.2.68,3.37,2.47,6.12,3.54,1.06.88-4.2-.62-10.15-.9-14.45s-.57-8.73-.89-13.09q-1-13.08-1.91-26.16-7.73-105.77-15.51-211.51A33.58,33.58,0,0,1,282.26,313.55Z"/><path class="cls-1" d="M292.56,303.18c3.95-2.93.89-16.68-1.29-20.76-4-7.43-10.21-5.56-16.62-4.35-.14,2.12-.54,4.26-.6,6.39a73.06,73.06,0,0,0,.78,11.64c.57,4.38,1.48,8.23,6.4,9C284.12,305.6,290.06,305,292.56,303.18Z"/><path class="cls-4" d="M265.37,249.49c-.05-2.18.65-4.36,1-6.51a45.1,45.1,0,0,0,.36-9.36,47.07,47.07,0,0,0-1.65-9.71l-.09-.26a50.76,50.76,0,0,1-28.48-8.41,26.41,26.41,0,0,1-1,4.28,32.94,32.94,0,0,1-5.25,8.93c-2.6,3.49-6.65,8.78-11.4,10.51a67.83,67.83,0,0,0,11.29,6.2C241.28,249.94,253.36,250.7,265.37,249.49Z"/><path class="cls-3" d="M293.12,244c4-1.09,8.18-2.31,12.3-3.73a73.59,73.59,0,0,0-4.13-15c-2-4.76-4.31-9.6-8.06-13.15a43.11,43.11,0,0,1-3.85,3.29,41.3,41.3,0,0,1-22.65,8.24,50.6,50.6,0,0,1,1.59,9.41c.4,5.16.24,11.29-1.52,16.35A178.9,178.9,0,0,0,293.12,244Z"/><path class="cls-3" d="M338.45,233.69a83.23,83.23,0,0,1-23.62,13.58c2.18,2.66,3.66,6.28,4.87,9.24,1.11,2.7,3.14,6.46,3.45,9.75l3.5-1.19c9-3.07,19.39-7.24,29.06-6.83a19.42,19.42,0,0,1,9.32,2.61,6.24,6.24,0,0,1,.72-.61l.29-.2a.09.09,0,0,1,0-.05,52.46,52.46,0,0,0-2.13-5.55,63.88,63.88,0,0,0-6.36-11c-3.9-5.45-8.4-11.1-14.31-14.36A56.29,56.29,0,0,1,338.45,233.69Z"/><path class="cls-2" d="M329.09,195.86A36.78,36.78,0,0,0,316,190.44a32.64,32.64,0,0,0-7.51-.64c-.81,0-1.64.14-2.47.24a45.12,45.12,0,0,1-11.6,20.8c3.74,3,6.08,8.36,7.85,12.36a60.11,60.11,0,0,1,4.81,16.43c14.36-5.17,28.15-12.92,35.78-26.38.29-.52.55-1.07.83-1.6a77.72,77.72,0,0,0-5-7.1A45.7,45.7,0,0,0,329.09,195.86Z"/><path class="cls-2" d="M289.94,271.15c-.46-3.4-1.06-6.77-1.84-10.1-.42-1.78-1-3.56-1.55-5.35a149.25,149.25,0,0,1-17.43,2.85,114.74,114.74,0,0,1-17.29.53,60,60,0,0,1,19,12.56A21.63,21.63,0,0,1,289.94,271.15Z"/><path class="cls-3" d="M256,168c-1.07,4.3-.13,9.37,3.19,12.47,2.09,1.95,4.76,2.76,7.39,1.23a6.41,6.41,0,0,0,2.41-2.55s1.16-5-.82-3.42c-3.61,2.8-7.53-2.81-4.12-5.68,2.79-2.35,5.53-2.31,7.74-1,.28-6.17,6-11.63,12.21-13.15a21.75,21.75,0,0,0-6.4-2C268.25,152.6,258.31,158.65,256,168Z"/><path class="cls-4" d="M275.05,210c.1,1.06.23,2.15.35,3.25a36,36,0,0,0,22.76-24.09c-3-3-5.77-5.89-9.83-7.7a18.57,18.57,0,0,0-11.89-1.15,9,9,0,0,1-.61,1.93,13.21,13.21,0,0,1-7.37,6.95c2.84,3.15,4.33,7.68,5.23,11.66A76.17,76.17,0,0,1,275.05,210Z"/><path class="cls-1" d="M352.48,266.68c-9.36.64-19.23,4.19-28.08,7.13-8.14,2.7-16.46,6.79-24.9,8.51a33.16,33.16,0,0,1,1.44,4.83c6.37-4.44,17.4-5.8,23.26-3.06,2.05,1,2.25,4.51-.17,5.19-4.32,1.22-9,.73-13.44,1.46-2.87.47-5.82,1.5-8.76,1.94,0,.18.05.36.06.54.12,1.34.26,2.83.33,4.38a34.37,34.37,0,0,1,8.95-.71c7.55,1,19.46,5.63,21.77,13.71a3.16,3.16,0,0,1-4.22,3.95c-5.12-1.92-9-6.47-14.21-8.59a62.51,62.51,0,0,0-12.46-3.34,10.5,10.5,0,0,1-2.59,5.95,108.84,108.84,0,0,0,17.23,18c6.54,5.56,13.5,11.66,20.92,16a21.14,21.14,0,0,0,13.92,2.66c3.61-.45,10-1.17,13-3.32,2.73-1.92,2-8.36,2.29-11.63q.6-7.33.94-14.68c.47-10.22.89-20.71.1-30.92C367.16,275.26,363.44,265.93,352.48,266.68Z"/><path class="cls-2" d="M276.62,178.52c7.71-2,16.93,2.64,22,8.63a28.17,28.17,0,0,0-.78-15.14,29.06,29.06,0,0,0-11.46-14.77c-6.75,1.25-13,5.93-13.27,12.82A11.87,11.87,0,0,1,276.62,178.52Z"/><path class="cls-4" d="M346.22,151c-.29-.86-.61-1.7-.93-2.55a45.11,45.11,0,0,0-22.19.93c-8.18,2.51-15.64,7.16-20.51,14.1a35.72,35.72,0,0,1,3.85,24.74,31.42,31.42,0,0,1,9.42.49,37.8,37.8,0,0,1,13.4,5.2,45.91,45.91,0,0,1,10.33,8.93,53.19,53.19,0,0,1,5.17,6.74C353,192,352.21,168.91,346.22,151Z"/><path class="cls-3" d="M217.21,76.76a78,78,0,0,0,9,14,60.65,60.65,0,0,0,12.11,11.46,40.61,40.61,0,0,0,10.36,5.29,76.19,76.19,0,0,1,13.6-6.11,72.85,72.85,0,0,1,12.15-2.94c-8.26-10-10.26-23.48-11.12-36.31-.81-12.13-.62-25.74,5.49-36.63A114.31,114.31,0,0,0,255.28,30c-16.59,6.69-30.36,18.14-42.79,30.84a39.35,39.35,0,0,0,1.1,6.89A51.66,51.66,0,0,0,217.21,76.76Z"/><path class="cls-4" d="M265,62c.5,7.4,1.13,15,3.41,22.1a44.38,44.38,0,0,0,7.77,14.13,72.34,72.34,0,0,1,34,3.82c-4.66-27.68,8.71-60.22,34.39-72.7A127,127,0,0,0,271.05,25C265,36.49,264.14,49.08,265,62Z"/><path class="cls-2" d="M200.78,122.34c7.25,4.27,15.85,7.19,24.22,6.43a75,75,0,0,1,21.56-20,45.14,45.14,0,0,1-8.25-4.5,60.58,60.58,0,0,1-12.94-11.82,79.8,79.8,0,0,1-10-15.54c-2-4-4.24-9.16-4.79-14.09q-3.81,4-7.47,8.05c-7.64,8.49-13.81,17.72-17.8,28.47-.48,1.31-.94,2.63-1.38,4a35.13,35.13,0,0,0,4.59,8.26A42.45,42.45,0,0,0,200.78,122.34Z"/><path class="cls-3" d="M403.72,99.61c-8.25-.37-16.45,1.36-24.2,4.08a114.43,114.43,0,0,0-22,10.39,68.25,68.25,0,0,0-8.76,6.34c-.36.31-3.35,3.22-5.44,5.68a81.48,81.48,0,0,1,16,38.79,66.56,66.56,0,0,1,35.06-7.18A55.82,55.82,0,0,1,412,162c4.14,1.79,8.8,4.21,12.27,7.45a124.37,124.37,0,0,0,1.32-30.92,130.58,130.58,0,0,0-8.45-36.28c-.69-.28-1.4-.54-2.14-.76A45.46,45.46,0,0,0,403.72,99.61Z"/><path class="cls-4" d="M410.84,163.52a54.76,54.76,0,0,0-16.72-4c-12.11-1-23.56,2.17-34.57,6.76.08.61.16,1.23.23,1.84a97.3,97.3,0,0,1-1.32,31c8.75-.26,18.15,5.77,24.53,10.7a65.55,65.55,0,0,1,16.21,18.13,137.28,137.28,0,0,0,24.7-56.32c-1.72-1.33-3.36-2.75-5.18-3.94A49,49,0,0,0,410.84,163.52Z"/><path class="cls-2" d="M229.18,227a32.08,32.08,0,0,0,4.8-8.13,32.76,32.76,0,0,0,1.2-4.5,51.84,51.84,0,0,1-4.41-3.41,53.27,53.27,0,0,1-16.21-25.61c-4,4.85-8.51,9.31-14.59,11.4a26.21,26.21,0,0,1-14.79.53c.25.58.49,1.16.76,1.73,6.75,14.52,17.34,28.76,30.69,38.46a17.29,17.29,0,0,0,6.23-3.17A43.15,43.15,0,0,0,229.18,227Z"/><path class="cls-3" d="M200.18,194.87c5.6-2.18,10-6.48,14-11a63.52,63.52,0,0,1-1.22-25.71,37.06,37.06,0,0,1-34.25-7c-.82-.69-1.66-1.42-2.49-2.21-.45,15.85,1.91,31.48,8.09,46.32A24.86,24.86,0,0,0,200.18,194.87Z"/><path class="cls-4" d="M179.74,149.86a35.09,35.09,0,0,0,24,8.11,35.88,35.88,0,0,0,7.44-1.06c.69-.18,1.37-.42,2.07-.66a67.35,67.35,0,0,1,2.26-8.92,68.37,68.37,0,0,1,8.15-16.61,32.53,32.53,0,0,1-7.24-.67,52,52,0,0,1-16.35-6.19c-6.73-4-13.38-10.34-17-17.81a182.57,182.57,0,0,0-5.51,26.72c-.64,4.54-1.06,9.09-1.27,13.62A28.08,28.08,0,0,0,179.74,149.86Z"/><path class="cls-2" d="M318.33,59.17a71.15,71.15,0,0,0-6.78,23.44,89.74,89.74,0,0,0,.27,20.07,75.79,75.79,0,0,1,14.57,7.61,72.76,72.76,0,0,1,16,14.54,50.53,50.53,0,0,1,7.87-7.74c7.11-5.67,15.45-9.89,23.81-13.35,9.08-3.77,18.81-6.39,28.71-6.14a52.4,52.4,0,0,1,13.34,2c-9.7-23.45-26.08-44.1-47.43-58.12A118.92,118.92,0,0,0,347,30.31C334.68,36.83,324.62,46.45,318.33,59.17Z"/><path class="cls-2" d="M382.92,211.9c-6.87-5.56-15.73-11-24.83-11.22A62.89,62.89,0,0,1,344.28,228c5.62,2.83,10.24,9,13.64,13.51a65.3,65.3,0,0,1,7.25,12c.75,1.63,1.63,3.54,2.35,5.52A147.83,147.83,0,0,0,387.28,242,139.2,139.2,0,0,0,398,229.59,65.77,65.77,0,0,0,382.92,211.9Z"/><path class="cls-6" d="M272.23,310.13a16,16,0,0,0,3.89,2.18c.44,18.66,2.64,37.32,4.28,55.91l5.14,58q5.19,58.61,10.39,117.19,1.32,14.79,2.63,29.57c.46,5.22,1.17,12.18,6.42,15,4.71,2.54,9.61-.62,11.08-5.3.91-2.91.59-6,.36-9-.39-5.09-.83-10.17-1.24-15.25-3.14-38.85-5.75-77.76-8.59-116.63L297.65,319.2c9.07,10.51,20.2,19.24,31.31,27.45,6.56,4.84,13.32,7.64,21.58,7.11a58.07,58.07,0,0,0,11.95-2.33c3.4-.95,7.66-1.76,10-4.71,1.94-2.44,2-5.76,2.32-8.72q.79-7.83,1.25-15.7.85-14.22.76-28.47c-.06-8.11-.82-18-4.74-25.34,38.86-25.22,63.64-70.48,64.83-116.67C438.13,104.36,413.36,56.64,373,31.4,331.81,5.68,275.55,3.51,234.1,29.93,223,37,213.64,46.76,204.4,56.11c-9.1,9.19-17.73,19-23.5,30.67-5.9,12-9,25.21-11.22,38.27-2.45,14.32-3.55,29.07-1.76,43.53a115.22,115.22,0,0,0,32.85,66.94,86.67,86.67,0,0,0,21.8,16.18l-.36,0c-14.35-1.38-40.71-2.76-42.35,16.65-.9,10.67.25,21.87,1.66,32.44,1.31,9.91,3,20.07,6.27,29.55,2.51,7.39,6.49,14.8,13.25,19.09,7.66,4.87,16.84,4.25,25,1C244.2,343.32,262.34,327.27,272.23,310.13Zm-1.38-38.49a60,60,0,0,0-19-12.56,114.74,114.74,0,0,0,17.29-.53,149.25,149.25,0,0,0,17.43-2.85c.53,1.79,1.13,3.57,1.55,5.35.78,3.33,1.38,6.7,1.84,10.1A21.63,21.63,0,0,0,270.85,271.64ZM268.32,233a50.6,50.6,0,0,0-1.59-9.41,41.3,41.3,0,0,0,22.65-8.24,43.11,43.11,0,0,0,3.85-3.29c3.75,3.55,6.09,8.39,8.06,13.15a73.59,73.59,0,0,1,4.13,15c-4.12,1.42-8.26,2.64-12.3,3.73a178.9,178.9,0,0,1-26.32,5.37C268.56,244.27,268.72,238.14,268.32,233Zm74.57-19.73c-7.63,13.46-21.42,21.21-35.78,26.38a60.11,60.11,0,0,0-4.81-16.43c-1.77-4-4.11-9.38-7.85-12.36a45.12,45.12,0,0,0,11.6-20.8c.83-.1,1.66-.22,2.47-.24a32.64,32.64,0,0,1,7.51.64,36.78,36.78,0,0,1,13.06,5.42,45.7,45.7,0,0,1,9.67,8.69,77.72,77.72,0,0,1,5,7.1C343.44,212.18,343.18,212.73,342.89,213.25Zm14.65,30.21a63.88,63.88,0,0,1,6.36,11A52.46,52.46,0,0,1,366,260a.09.09,0,0,0,0,.05l-.29.2a6.24,6.24,0,0,0-.72.61,19.42,19.42,0,0,0-9.32-2.61c-9.67-.41-20.07,3.76-29.06,6.83l-3.5,1.19c-.31-3.29-2.34-7.05-3.45-9.75-1.21-3-2.69-6.58-4.87-9.24a83.23,83.23,0,0,0,23.62-13.58,56.29,56.29,0,0,0,4.78-4.59C349.14,232.36,353.64,238,357.54,243.46ZM271.77,169c-2.21-1.32-4.95-1.36-7.74,1-3.41,2.87.51,8.48,4.12,5.68,2-1.54.82,3.41.82,3.42a6.41,6.41,0,0,1-2.41,2.55c-2.63,1.53-5.3.72-7.39-1.23-3.32-3.1-4.26-8.17-3.19-12.47,2.33-9.31,12.27-15.36,21.6-14.07a21.75,21.75,0,0,1,6.4,2C277.81,157.39,272.05,162.85,271.77,169Zm14.65-11.78A29.06,29.06,0,0,1,297.88,172a28.17,28.17,0,0,1,.78,15.14c-5.11-6-14.33-10.6-22-8.63a11.87,11.87,0,0,0-3.47-8.46C273.43,163.17,279.67,158.49,286.42,157.24Zm-10.59,25a9,9,0,0,0,.61-1.93,18.57,18.57,0,0,1,11.89,1.15c4.06,1.81,6.85,4.66,9.83,7.7a36,36,0,0,1-22.76,24.09c-.12-1.1-.25-2.19-.35-3.25a76.17,76.17,0,0,0-1.36-9.15c-.9-4-2.39-8.51-5.23-11.66A13.21,13.21,0,0,0,275.83,182.27Zm63.76,20.59a45.91,45.91,0,0,0-10.33-8.93,37.8,37.8,0,0,0-13.4-5.2,31.42,31.42,0,0,0-9.42-.49,35.72,35.72,0,0,0-3.85-24.74c4.87-6.94,12.33-11.59,20.51-14.1a45.11,45.11,0,0,1,22.19-.93c.32.85.64,1.69.93,2.55,6,17.89,6.75,41-1.46,58.58A53.19,53.19,0,0,0,339.59,202.86Zm-17.52-54.94c-7.18,2.3-16,7.07-20.47,14-.25-.39-.5-.78-.77-1.17A31.76,31.76,0,0,0,278,147.33a42.78,42.78,0,0,1,2.79-26c1.91-4.51,4.5-8.63,8.51-11.53a27.42,27.42,0,0,1,4.26-2.5,60.45,60.45,0,0,1,16.23,4.5,67,67,0,0,1,34.58,34.44A47.84,47.84,0,0,0,322.07,147.92ZM288,108.8c-4,3-6.69,7.28-8.63,11.86-3.44,8.13-5.19,17.85-2.92,26.57a27.25,27.25,0,0,0-16.83,4.65,20.68,20.68,0,0,1-6.12-3.93,36.18,36.18,0,0,1-5.66-7.94,52.73,52.73,0,0,1-6.48-16.61A67,67,0,0,1,290.82,107,30.28,30.28,0,0,0,288,108.8Zm-41.25,32.59c2.41,4.17,6.29,9.9,11.33,11.64a27.75,27.75,0,0,0-6.63,7.75,22.55,22.55,0,0,0-3,9.4c-2.29.43-4.57,1.11-6.81,1.57a43.73,43.73,0,0,1-11.39,1.14A21.31,21.31,0,0,1,222,170.7c-.55-.29-1.07-.61-1.58-.94a54.35,54.35,0,0,1,.58-9.85,60.47,60.47,0,0,1,18.84-35.13C240.7,130.69,243.9,136.38,246.79,141.39Zm-18.61,32.84a36.81,36.81,0,0,0,11.56-.6c2.81-.53,5.84-1,8.69-1.87A19.45,19.45,0,0,0,253.06,185c-2.18,4.4-6,7.09-9.85,10.35-2,1.68-3.9,3.35-6.45,4.19a14.26,14.26,0,0,1-4.95.63,48.54,48.54,0,0,1-11.26-28.42A24.52,24.52,0,0,0,228.18,174.23ZM243.81,197c3.52-3,8.49-6.19,10.44-10.68a13.75,13.75,0,0,0,12.87,3.38,34.44,34.44,0,0,1,5.3,12.77c.49,2.57.81,5.16,1.07,7.76.11,1.19.17,2.41.22,3.63a37,37,0,0,1-11,1.41.31.31,0,0,0-.19,0,40.9,40.9,0,0,1-18.19-4.93,43.7,43.7,0,0,1-11-8.38C237.17,201.67,240.88,199.45,243.81,197Zm31,99.15a73.06,73.06,0,0,1-.78-11.64c.06-2.13.46-4.27.6-6.39,6.41-1.21,12.64-3.08,16.62,4.35,2.18,4.08,5.24,17.83,1.29,20.76-2.5,1.85-8.44,2.42-11.33,1.95C276.31,304.33,275.4,300.48,274.83,296.1Zm31.22,228.11q.94,13.08,1.91,26.16.48,6.54.89,13.09c.28,4.3,1.78,10.25.9,14.45-1.07,5.06-2.86,2.31-3.54-1.06-.8-3.93-.77-8.2-1.13-12.2l-2.52-28.48q-4.74-53.65-9.51-107.33L287.8,369.7c-1.66-18.69-2.77-37.57-5.54-56.15a33.58,33.58,0,0,0,8.28-.85Q298.31,418.45,306.05,524.21Zm-8.93-246.69a17.49,17.49,0,0,0-5.41-5.39,102.57,102.57,0,0,0-2-11c-.45-1.86-.88-3.85-1.47-5.78,6.2-1.42,12.33-3.17,18.29-5.1,2.3-.74,4.6-1.55,6.88-2.41.56.87,1.15,1.72,1.68,2.63a52,52,0,0,1,3.13,6.62c.75,1.86,1.44,3.73,2.12,5.61.48,1.36.77,2.77,1.16,4.15-8.3,2.87-17.25,6.3-23.79,11.73C297.52,278.21,297.33,277.86,297.12,277.52Zm70.67,38.05q-.33,7.35-.94,14.68c-.27,3.27.44,9.71-2.29,11.63-3.08,2.15-9.42,2.87-13,3.32a21.14,21.14,0,0,1-13.92-2.66c-7.42-4.35-14.38-10.45-20.92-16a108.84,108.84,0,0,1-17.23-18,10.5,10.5,0,0,0,2.59-5.95A62.51,62.51,0,0,1,314.51,306c5.21,2.12,9.09,6.67,14.21,8.59a3.16,3.16,0,0,0,4.22-3.95c-2.31-8.08-14.22-12.73-21.77-13.71a34.37,34.37,0,0,0-8.95.71c-.07-1.55-.21-3-.33-4.38,0-.18,0-.36-.06-.54,2.94-.44,5.89-1.47,8.76-1.94,4.45-.73,9.12-.24,13.44-1.46,2.42-.68,2.22-4.23.17-5.19-5.86-2.74-16.89-1.38-23.26,3.06a33.16,33.16,0,0,0-1.44-4.83c8.44-1.72,16.76-5.81,24.9-8.51,8.85-2.94,18.72-6.49,28.08-7.13,11-.75,14.68,8.58,15.41,18C368.68,294.86,368.26,305.35,367.79,315.57ZM387.28,242A147.83,147.83,0,0,1,367.52,259c-.72-2-1.6-3.89-2.35-5.52a65.3,65.3,0,0,0-7.25-12c-3.4-4.52-8-10.68-13.64-13.51a62.89,62.89,0,0,0,13.81-27.28c9.1.24,18,5.66,24.83,11.22A65.77,65.77,0,0,1,398,229.59,139.2,139.2,0,0,1,387.28,242Zm11.92-14.1A65.55,65.55,0,0,0,383,209.81c-6.38-4.93-15.78-11-24.53-10.7a97.3,97.3,0,0,0,1.32-31c-.07-.61-.15-1.23-.23-1.84,11-4.59,22.46-7.74,34.57-6.76a54.76,54.76,0,0,1,16.72,4,49,49,0,0,1,7.88,4.16c1.82,1.19,3.46,2.61,5.18,3.94A137.28,137.28,0,0,1,399.2,227.94Zm26.4-89.39a124.37,124.37,0,0,1-1.32,30.92c-3.47-3.24-8.13-5.66-12.27-7.45a55.82,55.82,0,0,0-17.58-4.31,66.56,66.56,0,0,0-35.06,7.18,81.48,81.48,0,0,0-16-38.79c2.09-2.46,5.08-5.37,5.44-5.68a68.25,68.25,0,0,1,8.76-6.34,114.43,114.43,0,0,1,22-10.39c7.75-2.72,16-4.45,24.2-4.08a45.46,45.46,0,0,1,11.29,1.9c.74.22,1.45.48,2.14.76A130.58,130.58,0,0,1,425.6,138.55ZM368.67,41.49c21.35,14,37.73,34.67,47.43,58.12a52.4,52.4,0,0,0-13.34-2c-9.9-.25-19.63,2.37-28.71,6.14-8.36,3.46-16.7,7.68-23.81,13.35a50.53,50.53,0,0,0-7.87,7.74,72.76,72.76,0,0,0-16-14.54,75.79,75.79,0,0,0-14.57-7.61,89.74,89.74,0,0,1-.27-20.07,71.15,71.15,0,0,1,6.78-23.44c6.29-12.72,16.35-22.34,28.69-28.86A118.92,118.92,0,0,1,368.67,41.49ZM344.53,29.35c-25.68,12.48-39,45-34.39,72.7a72.34,72.34,0,0,0-34-3.82,44.38,44.38,0,0,1-7.77-14.13C266.13,77,265.5,69.4,265,62c-.86-12.92,0-25.51,6.05-37A127,127,0,0,1,344.53,29.35ZM255.28,30a114.31,114.31,0,0,1,13.51-4.48c-6.11,10.89-6.3,24.5-5.49,36.63.86,12.83,2.86,26.29,11.12,36.31a72.85,72.85,0,0,0-12.15,2.94,76.19,76.19,0,0,0-13.6,6.11,40.61,40.61,0,0,1-10.36-5.29A60.65,60.65,0,0,1,226.2,90.77a78,78,0,0,1-9-14,51.66,51.66,0,0,1-3.62-9,39.35,39.35,0,0,1-1.1-6.89C224.92,48.15,238.69,36.7,255.28,30Zm-70,69.33c4-10.75,10.16-20,17.8-28.47q3.66-4.07,7.47-8.05c.55,4.93,2.83,10.13,4.79,14.09a79.8,79.8,0,0,0,10,15.54,60.58,60.58,0,0,0,12.94,11.82,45.14,45.14,0,0,0,8.25,4.5,75,75,0,0,0-21.56,20c-8.37.76-17-2.16-24.22-6.43a42.45,42.45,0,0,1-12.26-10.77,35.13,35.13,0,0,1-4.59-8.26C184.37,102,184.83,100.65,185.31,99.34Zm-7.73,33.43a182.57,182.57,0,0,1,5.51-26.72c3.61,7.47,10.26,13.83,17,17.81a52,52,0,0,0,16.35,6.19,32.53,32.53,0,0,0,7.24.67,68.37,68.37,0,0,0-8.15,16.61,67.35,67.35,0,0,0-2.26,8.92c-.7.24-1.38.48-2.07.66a35.88,35.88,0,0,1-7.44,1.06,35.09,35.09,0,0,1-24-8.11,28.08,28.08,0,0,1-3.43-3.47C176.52,141.86,176.94,137.31,177.58,132.77Zm-1.38,16.17c.83.79,1.67,1.52,2.49,2.21a36.51,36.51,0,0,0,11.47,6.49,39.55,39.55,0,0,0,22.78.54,63.52,63.52,0,0,0,1.22,25.71c-4,4.5-8.38,8.8-14,11a24.86,24.86,0,0,1-15.89.39C178.11,180.42,175.75,164.79,176.2,148.94ZM185.94,199c-.27-.57-.51-1.15-.76-1.73a26.21,26.21,0,0,0,14.79-.53c6.08-2.09,10.6-6.55,14.59-11.4a53.27,53.27,0,0,0,16.21,25.61,51.84,51.84,0,0,0,4.41,3.41,32.76,32.76,0,0,1-1.2,4.5,32.08,32.08,0,0,1-4.8,8.13,43.15,43.15,0,0,1-6.32,7.3,17.29,17.29,0,0,1-6.23,3.17C203.28,227.75,192.69,213.51,185.94,199Zm32.85,40c4.75-1.73,8.8-7,11.4-10.51a32.94,32.94,0,0,0,5.25-8.93,26.41,26.41,0,0,0,1-4.28A50.76,50.76,0,0,0,265,223.65l.09.26a47.07,47.07,0,0,1,1.65,9.71,45.1,45.1,0,0,1-.36,9.36c-.31,2.15-1,4.33-1,6.51-12,1.21-24.09.45-35.29-4.33A67.83,67.83,0,0,1,218.79,239Zm15.75,97.76c-6.71,4.47-15.2,9.52-23.64,8.1-7.49-1.26-11.91-7.84-14.56-14.41-6.25-15.55-8-33.77-8.58-50.38-.14-3.88-.5-8,.05-11.88.76-5.33,4.39-6.86,9.25-7.78A86,86,0,0,1,220,259.22,95.46,95.46,0,0,1,245.94,265c7.5,2.85,14.17,7.09,21.26,10.72a3.26,3.26,0,0,0,.31,1.05,15.93,15.93,0,0,0-.85,2.34c-3.72-2.61-10.09-3.43-13.42-4-9.41-1.52-22.77-3.42-31.21,1.83-1.81,1.13-.72,3.48.92,4,7.3,2.24,16.23.38,23.82.82,5.61.31,13.79.1,19,3.16,0,.94-.05,1.88,0,2.8,0,.74,0,1.52,0,2.32h0c-5.37-1.27-11.25.17-16.53,1.37-4.9,1.12-10.44,2.77-14.38,6a2.63,2.63,0,0,0,1.78,4.7c5.12-.23,10.3-2.13,15.3-3.28,4.64-1.06,9.65-1.3,14.08-3.12a32.59,32.59,0,0,0,1.35,7.36c-.07.08-.15.15-.22.24C257.55,316.14,248.05,327.71,234.54,336.72Z"/></svg>