<svg id="Layer_1" data-name="Layer 1" xmlns="http://www.w3.org/2000/svg" viewBox="0 0 600 600"><defs><style>.cls-1{fill:#fff;}.cls-2{fill:#58595b;}.cls-3{fill:#88e0ff;}.cls-4{fill:#754c29;}.cls-5{fill:#231f20;}</style></defs><title>doodle</title><path class="cls-1" d="M328.54,408.08a5,5,0,0,0-4.18,2.37c-1.25,2-.84,5.09,1.49,6.08C330.45,418.5,333.37,409.73,328.54,408.08Z"/><path class="cls-1" d="M147.84,412h-.07a5.29,5.29,0,0,0,1.14,5.47c2.32,2.24,3.55-.19,3.58-2.58C152.53,411.63,150.42,411.49,147.84,412Z"/><path class="cls-2" d="M450.45,370.56c17.5-.93,27-16.67,26.12-33-.59-11.12-7.66-21.91-17.57-24.35a2.93,2.93,0,0,1-1.39.12,25.13,25.13,0,0,0-8.15.15,22.47,22.47,0,0,0-3.87,1.5,3.68,3.68,0,0,1-2.49.27C432,319.54,421.89,329.5,420,340.11,417,356.92,434.68,371.4,450.45,370.56Zm-8.94-41a12,12,0,0,1,9.31-3c4.93.59,9.23,4.47,12.37,8.07,7,8,3.67,19.44-4.73,25s-19.62,3.06-24.07-6.3C430.66,345.55,432.79,332.83,441.51,329.59Z"/><path class="cls-1" d="M453.43,352.66c3.84-2.47,6.54-7.76,3.56-11.81a20.4,20.4,0,0,0-5.23-4.93c-3.75-2.13-5.61.54-7.92,3a3.54,3.54,0,0,1-3.07,1.13c-1.09,3.66-.56,8.27,1.13,10.63C444.68,354.57,449.47,355.21,453.43,352.66Z"/><path class="cls-3" d="M367.66,239.6a5,5,0,0,1,.95-2.59c0-.06-.06-.15-.1-.2-1.06-1.35-4.47-.47-5.81-.4-5.8.35-11.59.63-17.4.79-11.61.3-23.24.23-34.85-.07-23.26-.6-46.5-2-69.77-2.55a669.82,669.82,0,0,0-70.41,2.23c-21.2,1.71-42.8,2.54-64,.28q6.28,130.73,11.53,261.59c43.09,3.95,86.65,8.53,129.92,7.71,42.75-.8,85.7-1.78,128.17,4C385.44,420.21,360.27,330,367.66,239.6ZM147.94,427.18c-7.81-2.29-11.43-12-7.91-19.11,3.34-6.74,12.7-9.05,18.36-3.8a2.92,2.92,0,0,1,.88,2.53,12.44,12.44,0,0,1,2.31,5.44C162.94,420.27,157,429.85,147.94,427.18Zm95.19,43.45c-12,1.45-22.88-13.23-21.46-24.38.52-4.14,6.57-4.41,6.66,0,.13,6.38,9.43,20,16.35,14,6.12-5.33,4.11-14.58,5.93-21.48,1-3.85,6.08-3.34,7.31,0C261.7,449.1,255.58,469.11,243.13,470.63Zm97.36-55.31c-1.87,7.76-9.6,13.27-17.5,10.42s-11-12.53-6.78-19.61a13.37,13.37,0,0,1,13.25-6.44C337.81,398,342.23,408.11,340.49,415.32Zm15.64-80.05c-3.41-13.37-1.41-29.07-2.21-42.84-.88-15.05-3.46-30.4-3.11-45.46a.75.75,0,0,1,1.47-.2c4.47,13.92,5.29,29.56,6.27,44.09.95,14,3.6,30.84-.34,44.41A1.09,1.09,0,0,1,356.13,335.27Zm6.4,42a1.55,1.55,0,0,1-3,.41c-2.27-7.69-1.68-16.86-1.49-24.8,0-1,1.53-1.23,1.72-.23C361.27,360.41,363.44,369.42,362.53,377.3Z"/><path class="cls-2" d="M497.44,418.41c.19-3.43.36-7.9-.4-8.68-1.35-1.39-10.43-.42-12.51-.47q-13.29-.31-26.59.2c-16,.61-32.82,4.25-48.79,2.06.25,3.08.49,6.16.7,9.25A273.63,273.63,0,0,0,497.44,418.41Z"/><path class="cls-4" d="M452.48,532.39c20.92-1.13,44.43,0,64.38-7.33,9.47-3.49,17.25-9.61,20.18-19.63,3.38-11.57,1.58-25.41,1.51-37.32-.3-51.45-1.36-102.9-3.61-154.31q-1.7-38.57-4.24-77.07c-.75-11.39-.2-25-6.59-35-5.52-8.64-15.46-11.34-25.14-11.74-11.31-.47-22.64,1.53-33.85,2.71-11.6,1.22-23.23,2.2-34.87,3-26.46,1.82-53,2.65-79.51,3-51,.74-102-.26-153,.65-25.48.46-50.94,1.4-76.36,3.25-11.14.82-26.89-.52-36.84,5.3-11,6.46-7.92,23.68-7.57,34.31,1.68,52,3,104,4.65,156,.83,26,2,52,2.91,78,.47,14,.4,28.24,1.46,42.25.54,7.21,2.46,11.68,10.12,12.7.26,0,.52.05.77.07a4,4,0,0,1,4-2.19C218.12,535.83,335.13,538.72,452.48,532.39Zm58.74-29.88a4.55,4.55,0,0,1-3.33,4.37,276,276,0,0,1-98,1.58c-1.78-.28-2.86-2.27-2.95-3.87-.35-5.88-.73-11.75-.94-17.63a3.36,3.36,0,0,1,3.65-3.66,4.31,4.31,0,0,1,3.2-.54c11.8,2.39,24.06-.39,35.91-1.26q15.6-1.15,31.26-1.12,8.61,0,17.21.36c3.23.13,6.85-.15,9.73,1.53C513.18,485.88,511.1,496.6,511.22,502.51Zm-2.44-40.16a4.57,4.57,0,0,1-3.34,4.38,276,276,0,0,1-98,1.58c-1.79-.29-2.86-2.27-2.95-3.88-.35-5.87-.73-11.74-.95-17.62a3.37,3.37,0,0,1,3.66-3.67,4.31,4.31,0,0,1,3.2-.53c11.8,2.39,24.06-.4,35.91-1.27q15.6-1.14,31.26-1.12,8.61,0,17.2.37c3.24.13,6.85-.15,9.74,1.52C510.74,445.72,508.66,456.44,508.78,462.35ZM411.52,340.41c1.54-11.48,9.23-21,18.9-27a54.16,54.16,0,0,1,13.16-6.08C461.36,296,482,312.44,485.4,331.44c4,22.22-8.47,45.87-32.46,48C431.79,381.3,408.49,362.92,411.52,340.41ZM404.77,403a4.34,4.34,0,0,1,3.21-.54c11.8,2.39,24.06-.39,35.9-1.26q15.6-1.15,31.27-1.12,8.6,0,17.2.36c3.23.13,6.85-.15,9.73,1.53,6.22,3.61,4.13,14.33,4.25,20.24a4.55,4.55,0,0,1-3.33,4.37,276,276,0,0,1-98,1.58c-1.78-.28-2.85-2.27-2.95-3.87-.34-5.88-.72-11.75-.94-17.63A3.36,3.36,0,0,1,404.77,403ZM246.14,515.38c-44.33.72-88.56-5-132.73-8a4.69,4.69,0,0,1-4.56-4.56c-5.44-89.19-8.79-178.89-10.28-268.23a3.71,3.71,0,0,1,.57-2.1,3.29,3.29,0,0,1,3.62-3.34,769.39,769.39,0,0,0,78.16-2.55c26.24-2.2,52.49-2.06,78.79-1.16,26.93.93,53.88,2.34,80.84,1.83,6.33-.12,12.67-.34,19-.72,4.14-.24,9-1.27,12.91.48,7.32,3.27,7.16,13.64,4.52,20.06-5.49,89.54,15.87,178.46,6.93,268.11-.21,2.14-1.8,4.46-4.26,4.26-22.47-1.81-44.84-4-67.38-4.63C290.2,514.21,268.2,515,246.14,515.38Z"/><path class="cls-2" d="M487,449.41q-13.29-.3-26.59.2c-16,.61-32.82,4.25-48.78,2.06.24,3.08.48,6.17.7,9.26a273.58,273.58,0,0,0,87.58-2.36c.19-3.43.36-7.9-.4-8.69C498.13,448.5,489.05,449.46,487,449.41Z"/><path class="cls-2" d="M453.25,542.22c.52,8.23,1.07,16.42,2.4,24.58.73,4.52,2.47,23.31,11.64,17.61,5.27-3.28,4.28-17.9,4.33-23.21.06-6.65.11-13.16,1.49-19.64C466.44,541.84,459.79,542,453.25,542.22Z"/><path class="cls-2" d="M152.66,583.38c8.43-1.87,8.53-17.09,9.27-23.66.62-5.57,1-11.16,1.33-16.76q-12.52-.72-25-1.59C139.23,551.71,141.44,585.86,152.66,583.38Z"/><path class="cls-2" d="M373,188.92q9.81-.25,19.62-.64c-1.75-8-14.31-15.42-20-19.66a167.29,167.29,0,0,0-20.48-13.15,103.69,103.69,0,0,0-52.76-12.55c-34.48.91-73.2,11.91-85.95,47.06C266.64,189.3,319.85,190.31,373,188.92Z"/><path class="cls-2" d="M489.42,489.57q-13.31-.31-26.59.2c-16,.61-32.82,4.25-48.79,2.06q.38,4.62.7,9.25a273.58,273.58,0,0,0,87.58-2.36c.19-3.42.36-7.9-.4-8.68C500.57,488.65,491.49,489.62,489.42,489.57Z"/><path class="cls-5" d="M135.41,575.88c2.31,8.2,6.21,17.38,16.28,16.75,9-.55,14.46-8.16,16.67-16.22,2.88-10.48,3.58-22,4.06-32.94,90.48,4.76,181.5,3.7,271.79-.87a162.43,162.43,0,0,0,4.08,36.06c1.95,8.56,6.18,14.72,15.41,15.89,22.73,2.87,16.36-40.13,19-52.51a5.21,5.21,0,0,0,.11-1c11.12-.77,22.12-2.18,32.53-5.19,19.14-5.52,31.37-18.42,32.95-38.65,2.16-27.59.31-56.08-.25-83.74q-.85-42.6-2.72-85.19-1.87-43.38-4.76-86.71c-1.28-19.33-.28-44.61-19.72-55.61-18.67-10.57-43.69-3.79-63.64-1.87-18.27,1.77-36.59,3-54.93,3.81-.72-8-7.13-13.38-13.15-18.42a215.36,215.36,0,0,0-23.57-17.4c24.7-35.22,47.25-72.05,70.89-108a9.27,9.27,0,0,0,2.61.39c10.33,3.6,24.5-11.45,15.74-24-11-15.81-32.51,2.15-25.05,17.37-23.91,36.51-48.9,72.6-71.09,110.17-17.34-9.54-36.19-14.77-56.23-14.49-21.53.31-47.4,4.87-67.32,16.7C220.78,130,204.6,111,190,91q-5.48-7.53-10.86-15.14c-2.8-3.94-9.34-10-9.17-15,.1-3,2.66-5.64,2.27-9.23a15.49,15.49,0,0,0-4.49-9.35c-11.17-11-29,1.13-27.06,15.32,1.53,11.25,14.62,16.25,22.05,10.69,1.07,1.56,2.3,3,3.31,4.45q6.33,8.85,12.76,17.61C194.7,112,210.34,134.69,228.4,154.6c-11.59,8.55-20.34,20.11-23.65,35.48h-.68c-28.65.48-57.33,1.47-85.9,3.76-19.81,1.59-46.08.75-49.73,25.61-1.78,12.18-.06,25.14.35,37.39q.73,21.93,1.48,43.87c1,28.71,2.22,57.41,3.26,86.12S75.1,444.25,76,473c.48,14.62.89,29.25,1.39,43.87.29,8.81,1.86,17.13,10.77,20.89,5.77,2.44,12.24,2.22,18.42,1.23q12,1,24.09,1.9C130.06,552.5,132.27,564.73,135.41,575.88Zm26.52-16.16c-.74,6.57-.84,21.79-9.27,23.66-11.22,2.48-13.43-31.67-14.44-42q12.51.87,25,1.59C163,548.56,162.55,554.15,161.93,559.72Zm305.36,24.69c-9.17,5.7-10.91-13.09-11.64-17.61-1.33-8.16-1.88-16.35-2.4-24.58,6.54-.22,13.19-.38,19.86-.66-1.38,6.48-1.43,13-1.49,19.64C471.57,566.51,472.56,581.13,467.29,584.41ZM299.4,142.92a103.69,103.69,0,0,1,52.76,12.55,167.29,167.29,0,0,1,20.48,13.15c5.7,4.24,18.26,11.69,20,19.66q-9.81.38-19.62.64c-53.18,1.39-106.39.38-159.58,1.06C226.2,154.83,264.92,143.83,299.4,142.92ZM100.88,529a4,4,0,0,0-4,2.19c-.25,0-.51,0-.77-.07-7.66-1-9.58-5.49-10.12-12.7-1.06-14-1-28.21-1.46-42.25-.86-26-2.08-52-2.91-78-1.67-52-3-104-4.65-156-.35-10.63-3.47-27.85,7.57-34.31,10-5.82,25.7-4.48,36.84-5.3,25.42-1.85,50.88-2.79,76.36-3.25,51-.91,102,.09,153-.65,26.52-.38,53.05-1.21,79.51-3,11.64-.81,23.27-1.79,34.87-3,11.21-1.18,22.54-3.18,33.85-2.71,9.68.4,19.62,3.1,25.14,11.74,6.39,10,5.84,23.63,6.59,35q2.55,38.5,4.24,77.07c2.25,51.41,3.31,102.86,3.61,154.31.07,11.91,1.87,25.75-1.51,37.32-2.93,10-10.71,16.14-20.18,19.63-19.95,7.36-43.46,6.2-64.38,7.33C335.13,538.72,218.12,535.83,100.88,529Z"/><path class="cls-5" d="M383.9,515.22c8.94-89.65-12.42-178.57-6.93-268.11,2.64-6.42,2.8-16.79-4.52-20.06-3.93-1.75-8.77-.72-12.91-.48-6.32.38-12.66.6-19,.72-27,.51-53.91-.9-80.84-1.83-26.3-.9-52.55-1-78.79,1.16a769.39,769.39,0,0,1-78.16,2.55,3.29,3.29,0,0,0-3.62,3.34,3.71,3.71,0,0,0-.57,2.1c1.49,89.34,4.84,179,10.28,268.23a4.69,4.69,0,0,0,4.56,4.56c44.17,3,88.4,8.7,132.73,8,22.06-.37,44.06-1.17,66.12-.53,22.54.65,44.91,2.82,67.38,4.63C382.1,519.68,383.69,517.36,383.9,515.22Zm-8-4.79c-42.47-5.82-85.42-4.84-128.17-4-43.27.82-86.83-3.76-129.92-7.71q-5.13-130.79-11.53-261.59c21.2,2.26,42.8,1.43,64-.28a669.82,669.82,0,0,1,70.41-2.23c23.27.56,46.51,1.95,69.77,2.55,11.61.3,23.24.37,34.85.07,5.81-.16,11.6-.44,17.4-.79,1.34-.07,4.75-.95,5.81.4,0,.05.06.14.1.2a5,5,0,0,0-.95,2.59C360.27,330,385.44,420.21,375.89,510.43Z"/><path class="cls-5" d="M458.46,359.68c8.4-5.59,11.69-17,4.73-25-3.14-3.6-7.44-7.48-12.37-8.07a12,12,0,0,0-9.31,3c-8.72,3.24-10.85,16-7.12,23.79C438.84,362.74,450,365.32,458.46,359.68Zm-17.69-19.63a3.54,3.54,0,0,0,3.07-1.13c2.31-2.46,4.17-5.13,7.92-3a20.4,20.4,0,0,1,5.23,4.93c3,4,.28,9.34-3.56,11.81s-8.75,1.91-11.53-2C440.21,348.32,439.68,343.71,440.77,340.05Z"/><path class="cls-5" d="M452.94,379.43c24-2.12,36.44-25.77,32.46-48-3.41-19-24-35.4-41.82-24.06a54.16,54.16,0,0,0-13.16,6.08c-9.67,6-17.36,15.47-18.9,27C408.49,362.92,431.79,381.3,452.94,379.43ZM420,340.11c1.89-10.61,12-20.57,23.1-24.83a3.68,3.68,0,0,0,2.49-.27,22.47,22.47,0,0,1,3.87-1.5,25.13,25.13,0,0,1,8.15-.15,2.93,2.93,0,0,0,1.39-.12c9.91,2.44,17,13.23,17.57,24.35.87,16.3-8.62,32-26.12,33C434.68,371.4,417,356.92,420,340.11Z"/><path class="cls-5" d="M159.27,406.8a2.92,2.92,0,0,0-.88-2.53c-5.66-5.25-15-2.94-18.36,3.8-3.52,7.11.1,16.82,7.91,19.11,9.06,2.67,15-6.91,13.64-14.94A12.44,12.44,0,0,0,159.27,406.8Zm-10.36,10.69a5.29,5.29,0,0,1-1.14-5.47h.07c2.58-.52,4.69-.38,4.65,2.9C152.46,417.3,151.23,419.73,148.91,417.49Z"/><path class="cls-5" d="M329.46,399.69a13.37,13.37,0,0,0-13.25,6.44c-4.22,7.08-1,16.78,6.78,19.61s15.63-2.66,17.5-10.42C342.23,408.11,337.81,398,329.46,399.69Zm-3.61,16.84c-2.33-1-2.74-4.09-1.49-6.08a5,5,0,0,1,4.18-2.37C333.37,409.73,330.45,418.5,325.85,416.53Z"/><path class="cls-5" d="M250.61,438.74c-1.82,6.9.19,16.15-5.93,21.48-6.92,6-16.22-7.59-16.35-14-.09-4.41-6.14-4.14-6.66,0-1.42,11.15,9.49,25.83,21.46,24.38,12.45-1.52,18.57-21.53,14.79-31.89C256.69,435.4,251.62,434.89,250.61,438.74Z"/><path class="cls-5" d="M405,428.15a276,276,0,0,0,98-1.58,4.55,4.55,0,0,0,3.33-4.37c-.12-5.91,2-16.63-4.25-20.24-2.88-1.68-6.5-1.4-9.73-1.53q-8.6-.36-17.2-.36-15.64,0-31.27,1.12c-11.84.87-24.1,3.65-35.9,1.26a4.34,4.34,0,0,0-3.21.54,3.36,3.36,0,0,0-3.65,3.66c.22,5.88.6,11.75.94,17.63C402.16,425.88,403.23,427.87,405,428.15Zm52.93-18.69q13.29-.51,26.59-.2c2.08.05,11.16-.92,12.51.47.76.78.59,5.25.4,8.68a273.63,273.63,0,0,1-87.59,2.36c-.21-3.09-.45-6.17-.7-9.25C425.12,413.71,442,410.07,457.94,409.46Z"/><path class="cls-5" d="M504.53,442.11c-2.89-1.67-6.5-1.39-9.74-1.52q-8.6-.36-17.2-.37-15.64,0-31.26,1.12c-11.85.87-24.11,3.66-35.91,1.27a4.31,4.31,0,0,0-3.2.53,3.37,3.37,0,0,0-3.66,3.67c.22,5.88.6,11.75.95,17.62.09,1.61,1.16,3.59,2.95,3.88a276,276,0,0,0,98-1.58,4.57,4.57,0,0,0,3.34-4.38C508.66,456.44,510.74,445.72,504.53,442.11Zm-4.65,16.46a273.58,273.58,0,0,1-87.58,2.36c-.22-3.09-.46-6.18-.7-9.26,16,2.19,32.8-1.45,48.78-2.06q13.29-.51,26.59-.2c2.08,0,11.16-.91,12.51.47C500.24,450.67,500.07,455.14,499.88,458.57Z"/><path class="cls-5" d="M507,482.27c-2.88-1.68-6.5-1.4-9.73-1.53q-8.61-.36-17.21-.36-15.64,0-31.26,1.12c-11.85.87-24.11,3.65-35.91,1.26a4.31,4.31,0,0,0-3.2.54A3.36,3.36,0,0,0,406,487c.21,5.88.59,11.75.94,17.63.09,1.6,1.17,3.59,2.95,3.87a276,276,0,0,0,98-1.58,4.55,4.55,0,0,0,3.33-4.37C511.1,496.6,513.18,485.88,507,482.27Zm-4.65,16.45a273.58,273.58,0,0,1-87.58,2.36q-.33-4.63-.7-9.25c16,2.19,32.8-1.45,48.79-2.06q13.29-.51,26.59-.2c2.07.05,11.15-.92,12.5.47C502.68,490.82,502.51,495.3,502.32,498.72Z"/><path class="cls-5" d="M358.21,335.27c3.94-13.57,1.29-30.45.34-44.41-1-14.53-1.8-30.17-6.27-44.09a.75.75,0,0,0-1.47.2c-.35,15.06,2.23,30.41,3.11,45.46.8,13.77-1.2,29.47,2.21,42.84A1.09,1.09,0,0,0,358.21,335.27Z"/><path class="cls-5" d="M358,352.91c-.19,7.94-.78,17.11,1.49,24.8a1.55,1.55,0,0,0,3-.41c.91-7.88-1.26-16.89-2.79-24.62C359.55,351.68,358,352,358,352.91Z"/></svg>