<svg id="Layer_1" data-name="Layer 1" xmlns="http://www.w3.org/2000/svg" viewBox="0 0 600 600"><defs><style>.cls-1{fill:#2e3192;}.cls-2{fill:#f2b879;}.cls-3{fill:#231f20;}</style></defs><title>doodle</title><path class="cls-1" d="M31.3,307.21c1.84.19,8.11-5.5,9.55-6.44a182.1,182.1,0,0,1,20.78-11.61,197.37,197.37,0,0,1,45-15c4.06-.83,7.59,3.25,5.44,7.08-6.84,12.19.27,29.54,5.79,41.06a106.41,106.41,0,0,0,19.51,27.92,224.46,224.46,0,0,1,68.83-73.38c3.71-2.49,9.65,1.73,7.91,6.08A31.14,31.14,0,0,0,215,309.2a277.39,277.39,0,0,1,65.8-43.72,5.28,5.28,0,0,1,7.16,7.15c-5.95,11.51-2.25,25.06,1.37,36.73a146.54,146.54,0,0,0,12,28.14c8.58,15.38,20.15,28.61,34.93,37.84,1.88-41,30.61-74,57.54-102.95,3.56-3.83,11.87-1.11,11.11,4.6A40.23,40.23,0,0,0,411,305a90.35,90.35,0,0,1,23-33.91c3.86-3.57,10.81-1.19,10.7,4.44a31.15,31.15,0,0,0,5.54,18.88l5.9-4.28c3.4-11.56,18.67-25.64,24.74-29.73,17.18-11.57,40.58-10.65,54,6.06,10.86,13.53,12.22,32.52,6.94,49.5a114.2,114.2,0,0,0,18.49-63.32,43.88,43.88,0,0,0-9.59,4.35c-4.82,2.9-9.93-1.88-9-6.88,5.72-29.07-4.84-60.37-26.64-80.35A54,54,0,0,1,508.69,185a4.29,4.29,0,0,1-6.3,1.36,6,6,0,0,1-4.54-7.43c1.52-6.85-3.64-15.8-5.91-22.15s-4.66-12.76-7.29-19c-5-11.87-10.88-23.51-18.49-33.92A92.17,92.17,0,0,0,434.8,76.71,225,225,0,0,0,413.31,67c-5-2-10.1-4.5-15.32-4.49a203.85,203.85,0,0,1,6.84,45.87c.16,5.22-7,8.43-10.6,4.39-18.94-21.47-43.16-44.68-73-47.13q2.1,16,4.5,31.87c1.13,7.36-7.46,11.15-11.89,5C303.51,88.2,287,80.28,270.91,74c-18.31-7.12-37.63-14.57-57.36-16.2C192,56,170.59,60.5,149.65,65q-25.08,5.34-49.71,12.41a308.11,308.11,0,0,1,66.4,40.93c2.79,2.26,1.16,7.21-2.11,8C110.64,138.69,50.82,170.13,41.05,228.78c15.08-11.12,32.06-20.14,51.37-17,3.88.64,3,7.28-.93,6.87l-.44,0C68,241.57,40.57,263,32,295.94,31.49,297.85,28.66,306.94,31.3,307.21Zm489.83-102c5.42,7.6,9,17.61,5.73,26.84a1.14,1.14,0,0,1-2.23-.3c-.19-9.09-.48-17.43-5.34-25.46C518.57,205.06,520.35,204.09,521.13,205.18ZM459.92,135.3c13.66,15.3,25.1,36.34,24.41,57.44,0,1.48-2.33,1.9-2.65.36-4.24-20.81-9.41-39.47-23.47-56.09C457.22,135.84,458.88,134.14,459.92,135.3Zm-100.36-27c29.56,14.58,64.78,37.71,71.8,72.65.27,1.34-1.72,2.39-2.35,1-7-15.59-15-29.54-27.42-41.55-12.67-12.26-27.72-21.82-43.23-30.05C357,109.59,358.2,107.6,359.56,108.27Zm-8,169.48c14.94-19.48,35.82-37.84,57.54-49.45,1.27-.68,2.75,1,1.59,2.07-17.77,15.52-37.51,27.78-52.81,46.12-15.74,18.85-26.8,42.71-26.36,67.62a1.28,1.28,0,0,1-2.56,0C327.9,319.71,336.86,297,351.59,277.75ZM282.19,248c-16.33,4.95-31.23,9.82-43.56,22.38-.93.94-2.36-.5-1.46-1.46,11.47-12.12,27.31-23.19,44.64-23.71A1.43,1.43,0,0,1,282.19,248ZM196.13,88.11c23.63-.36,46.6,4.48,67.74,15.19a150.76,150.76,0,0,1,28.82,19c8.7,7.31,18.59,16.16,23.78,26.44a1.78,1.78,0,0,1-2.78,2.14c-7.85-7.65-14.16-16.5-22.51-23.76a148.14,148.14,0,0,0-28.54-19.42c-20.42-10.68-43.44-17.11-66.51-17.66A1,1,0,0,1,196.13,88.11ZM170.18,266.85c13.65-12.91,34.56-27.75,54.15-28.36a1.26,1.26,0,0,1,.63,2.32c-8.83,4.31-18.39,6.84-27.11,11.58A118.89,118.89,0,0,0,173.36,270a124.17,124.17,0,0,0-33,51.52,1.14,1.14,0,0,1-2.19-.6A113.18,113.18,0,0,1,170.18,266.85ZM78.74,192.33c-.79.81-2.29-.29-1.6-1.23C86.47,178.48,99.77,169,114.2,163c13.57-5.63,31.85-10.19,46.38-5.91a1.54,1.54,0,0,1-.41,3c-7.55.65-15.1,0-22.66,1.1a97.06,97.06,0,0,0-20.87,5.33C101.94,172.1,89.68,181.19,78.74,192.33Zm-5.19,79c5.21-7.42,12.74-11.53,21.25-14.22a177.78,177.78,0,0,1,35.63-7.37c1.42-.13,1.54,2,.32,2.37C112.4,258,88.44,256.7,74.64,272.17,74.12,272.76,73.1,272,73.55,271.33Z"/><path class="cls-1" d="M535,331.06c-9.27,15.18-24.42,25.91-42.49,24.44-2,29.48-10.29,59.41-20.43,86.94q-1,2.63-2,5.25c25.55-12,49-27.22,69.22-47-3.51,0-7,0-10.54,0-5.37.05-7.41-6.36-4.17-10.07,16.52-18.92,34.22-39.27,40.24-64.06A155,155,0,0,1,542,334.33,5.65,5.65,0,0,1,535,331.06ZM512.28,407.9c-3,7.42-12,11.8-19.24,13.72-1.24.33-2.12-1.58-.9-2.11a50.76,50.76,0,0,0,9.85-5.67c3-2.23,5.52-5.15,8.65-7.19C511.41,406.15,512.64,407,512.28,407.9Zm11.29-39.14c-.57,2.86-3.16,5.68-5,7.94-2.28,2.84-4.67,5.56-7.18,8.21-1.13,1.21-3.36-.45-2.32-1.79q3.33-4.31,6.59-8.67c1.75-2.34,3.63-5.54,6.17-7A1.18,1.18,0,0,1,523.57,368.76Z"/><path class="cls-2" d="M480.87,348.5a6.54,6.54,0,0,1,7.7-6.12c31.33,5.43,51.93-37.48,39.08-62.82a27.65,27.65,0,0,0-6.45-8.39c-10-7.07-25.51-5.68-37,2.35a35.09,35.09,0,0,0-10.38,11.24c-2.11,3.72-2.64,7.77-4.31,11.62a14.59,14.59,0,0,1-1.1,2,11.67,11.67,0,0,1-1.62,3c-2.72,3.55-6.5,4.09-9.52,2.55L453.45,307c-2.55,2.06-6.16,2.54-8.65,0a43.82,43.82,0,0,1-10.64-17.58,77.67,77.67,0,0,0-14.31,30c-1.2,5-7.26,5.84-10.73,2.83a50.3,50.3,0,0,1-16.71-29.35c-23.7,26-46.22,55.52-44.33,92.41.24,4.78-5.12,6.93-8.88,5.09-22.06-10.73-38.78-29.64-49.77-51.31-8.42-16.59-18-39.34-14.81-59a250.65,250.65,0,0,0-56.9,41.32c-1.91,1.84-5.85,2.35-7.68,0a42.33,42.33,0,0,1-9.34-27.57,208.94,208.94,0,0,0-57.89,67,5,5,0,0,1-7.82,1,115.83,115.83,0,0,1-28.13-40.27c-4.57-11-8.83-24.17-6.42-36.15-1.5.37-3,.77-4.47,1.17-10.54,24.83-12.26,50.13-10.6,76.91a262.62,262.62,0,0,0,14.7,73c15.1,41.84,43.13,78.07,82.4,99.65s85.86,27.94,130.2,23.71c23.39-2.23,48-6.83,69.57-16.5,23.29-10.45,38.75-28.09,51.31-49.87a358.11,358.11,0,0,0,30.9-70c7.76-24.3,11.7-48.93,16.12-74A6.44,6.44,0,0,1,480.87,348.5Zm7.23-59.75c.46-.53,1.58-2.62,3.4-3.46a18,18,0,0,1,7.6-1.5,19.91,19.91,0,0,1,14,6.57c8.83,9.87,4.15,25-9,27.8-4.68,1-15.46.17-14.7-7.06.75-7,10.51-3.14,14.43-5.7,4.37-2.85,1.06-8.11-2.17-10.33a16.53,16.53,0,0,0-7-2.73c-1.09-.1-2.17.16-3.25,0a3.17,3.17,0,0,1-1.62-.43c-.69-.67-.83-.71-.43-.11C487.71,291.85,487.18,289.83,488.1,288.75ZM152.8,440.21a6.36,6.36,0,0,1-3.86-.12,5.25,5.25,0,0,1-2.59-1.78,4.56,4.56,0,0,1-1.07-3,12.35,12.35,0,0,1,.5-2.83,6.69,6.69,0,0,1,2.68-3.59c2.26-1.63,6.21,0,6.69,2.72a6.47,6.47,0,0,1,.12,1.11A4.79,4.79,0,0,1,152.8,440.21Zm-9.25-33.48c-13.5,1.13-21.47-12.49-19.25-24.77a1.68,1.68,0,0,1,2.79-.74c5.68,5.2,6.38,18.66,16.64,16.42,10.51-2.3,11.52-15.31,14.38-23.47,1.51-4.32,8.54-3.87,8.33,1.13C165.87,388.36,158.46,405.48,143.55,406.73ZM302.5,448a48.34,48.34,0,0,1-28.81,15.16,46.67,46.67,0,0,1-31.84-7.51c-6.81-4.49-17.33-13.58-15.59-22.76a1.72,1.72,0,0,1,2.5-1c3.38,1.65,5.28,4.93,7.94,7.51a50,50,0,0,0,11.07,8.28,36.94,36.94,0,0,0,46.93-9C299.12,433.44,301,423,307.13,420a3.41,3.41,0,0,1,4.05.52C318,428.62,308.17,441.79,302.5,448ZM418,432.24c-4.32-2.52-5-8.86-1.62-12.43a7.26,7.26,0,0,1,8.56-1.44c.06,0,.1.08.16.11a5.88,5.88,0,0,1,3.47,2.47,7.41,7.41,0,0,1,1.16,4.2C429.54,430.85,423.16,435.29,418,432.24Zm6.92-44.39c-7.67,6.7-18.61,9-27.93,4.4C388.31,388,381.09,377.6,383,367.62c.44-2.31,1.68-6.51,4.77-6.45,2.12,0,3,1.65,3,3.46a1.54,1.54,0,0,1-.05.31c2.13,7.81,3.79,16.31,13.28,18.46,9,2,19.2-5.94,18.51-15.37-.24-3.41,4.38-6.32,7.25-4.15C438.12,370.16,431,382.47,424.87,387.85Z"/><path class="cls-3" d="M21.33,303.59c-.67,5.42.46,12.17,7,13.17,7.84,1.21,16.52-7.82,22.84-11.49a185.59,185.59,0,0,1,32.48-14.81c-10.76,16.31-10.48,40.71-10.46,59a276.84,276.84,0,0,0,9.27,71.36c12.18,45.41,37.34,87.22,75.88,114.9C197.56,563.9,247,574.94,294.7,573.94c48.29-1,104.5-11.35,135.8-51.57,13.72-17.64,24.45-38,33.28-58.88,36.05-12.51,67.74-36,92.85-64.36,3.23-3.66,1.09-9.65-4-9.74L542,389.21c18.5-20.84,34.15-44.68,36.84-73.08.47-4.88-5.43-7.2-9.16-5.26a131.86,131.86,0,0,1-14.35,6.42A124.67,124.67,0,0,0,572.18,245c-.31-4.28-3.61-6.48-7.68-5.86a53.4,53.4,0,0,0-9.42,2.34,96.23,96.23,0,0,0-40.79-85.64c-2.89-2-6.14,0-7.28,2.74-2.68-7.8-5.54-15.54-8.67-23.15-6.06-14.75-13.11-29.07-22.88-41.73A101.1,101.1,0,0,0,437.9,63.55a234.27,234.27,0,0,0-25.06-9.72c-7.74-2.6-15.91-4.67-23.77-1.44-2.91,1.2-5.06,3.87-4.1,7.22a191.47,191.47,0,0,1,6.24,31.86c-20.82-20.63-45.87-37.17-76.33-37.22-2.79,0-5.93,2.59-5.61,5.61q1.16,10.76,2.14,21.51C303,74.5,293.27,69.32,283,65c-19.43-8.21-39.84-15.68-60.86-18.34-22.88-2.9-45.74,1.69-67.95,6.91-23.1,5.42-46,11.81-68.7,18.64-4.63,1.39-3.95,7.12,0,8.76a301.52,301.52,0,0,1,66.89,38.46c-29,7.67-57.49,19.8-79.73,40.23C50.07,180.4,34,207.44,31.32,238.38c-.37,4.16,4.73,5,7.31,3,13.3-10.3,27.69-21.42,44.65-22.84C54.35,238.87,25.79,267.23,21.33,303.59ZM433.55,493.52c-12.56,21.78-28,39.42-51.31,49.87-21.54,9.67-46.18,14.27-69.57,16.5-44.34,4.23-90.81-2.06-130.2-23.71s-67.3-57.81-82.4-99.65a262.62,262.62,0,0,1-14.7-73c-1.66-26.78.06-52.08,10.6-76.91,1.49-.4,3-.8,4.47-1.17-2.41,12,1.85,25.11,6.42,36.15A115.83,115.83,0,0,0,135,361.88a5,5,0,0,0,7.82-1,208.94,208.94,0,0,1,57.89-67A42.33,42.33,0,0,0,210,321.45c1.83,2.35,5.77,1.84,7.68,0a250.65,250.65,0,0,1,56.9-41.32c-3.19,19.66,6.39,42.41,14.81,59,11,21.67,27.71,40.58,49.77,51.31,3.76,1.84,9.12-.31,8.88-5.09-1.89-36.89,20.63-66.39,44.33-92.41a50.3,50.3,0,0,0,16.71,29.35c3.47,3,9.53,2.17,10.73-2.83a77.67,77.67,0,0,1,14.31-30A43.82,43.82,0,0,0,444.8,307c2.49,2.54,6.1,2.06,8.65,0l3.83-3.08c3,1.54,6.8,1,9.52-2.55a11.67,11.67,0,0,0,1.62-3,14.59,14.59,0,0,0,1.1-2c1.67-3.85,2.2-7.9,4.31-11.62a35.09,35.09,0,0,1,10.38-11.24c11.48-8,27-9.42,37-2.35a27.65,27.65,0,0,1,6.45,8.39c12.85,25.34-7.75,68.25-39.08,62.82a6.54,6.54,0,0,0-7.7,6.12,6.44,6.44,0,0,0-.3,1.05c-4.42,25-8.36,49.66-16.12,74A358.11,358.11,0,0,1,433.55,493.52Zm131.31-167c-6,24.79-23.72,45.14-40.24,64.06-3.24,3.71-1.2,10.12,4.17,10.07,3.52,0,7,0,10.54,0-20.19,19.8-43.67,35-69.22,47q1-2.62,2-5.25c10.14-27.53,18.45-57.46,20.43-86.94,18.07,1.47,33.22-9.26,42.49-24.44a5.65,5.65,0,0,0,7,3.27A155,155,0,0,0,564.86,326.54ZM91.05,218.62l.44,0c3.88.41,4.81-6.23.93-6.87-19.31-3.15-36.29,5.87-51.37,17,9.77-58.65,69.59-90.09,123.18-102.51,3.27-.75,4.9-5.7,2.11-8a308.11,308.11,0,0,0-66.4-40.93Q124.57,70.29,149.65,65C170.59,60.5,192,56,213.55,57.82c19.73,1.63,39,9.08,57.36,16.2,16.09,6.26,32.6,14.18,43,28.54,4.43,6.14,13,2.35,11.89-5q-2.43-15.92-4.5-31.87c29.8,2.45,54,25.66,73,47.13,3.56,4,10.76.83,10.6-4.39A203.85,203.85,0,0,0,398,62.55c5.22,0,10.33,2.47,15.32,4.49a225,225,0,0,1,21.49,9.67,92.17,92.17,0,0,1,31.36,27.08c7.61,10.41,13.51,22,18.49,33.92,2.63,6.26,5,12.63,7.29,19s7.43,15.3,5.91,22.15a6,6,0,0,0,4.54,7.43,4.29,4.29,0,0,0,6.3-1.36,54,54,0,0,0,6.44-15.23c21.8,20,32.36,51.28,26.64,80.35-1,5,4.13,9.78,9,6.88a43.88,43.88,0,0,1,9.59-4.35,114.2,114.2,0,0,1-18.49,63.32c5.28-17,3.92-36-6.94-49.5-13.42-16.71-36.82-17.63-54-6.06-6.07,4.09-21.34,18.17-24.74,29.73l-5.9,4.28a31.15,31.15,0,0,1-5.54-18.88c.11-5.63-6.84-8-10.7-4.44A90.35,90.35,0,0,0,411,305a40.23,40.23,0,0,1-6.11-28c.76-5.71-7.55-8.43-11.11-4.6-26.93,28.95-55.66,62-57.54,103-14.78-9.23-26.35-22.46-34.93-37.84a146.54,146.54,0,0,1-12-28.14c-3.62-11.67-7.32-25.22-1.37-36.73a5.28,5.28,0,0,0-7.16-7.15A277.39,277.39,0,0,0,215,309.2a31.14,31.14,0,0,1-.87-26.25c1.74-4.35-4.2-8.57-7.91-6.08a224.46,224.46,0,0,0-68.83,73.38,106.41,106.41,0,0,1-19.51-27.92c-5.52-11.52-12.63-28.87-5.79-41.06,2.15-3.83-1.38-7.91-5.44-7.08a197.37,197.37,0,0,0-45,15,182.1,182.1,0,0,0-20.78,11.61c-1.44.94-7.71,6.63-9.55,6.44-2.64-.27.19-9.36.69-11.27C40.57,263,68,241.57,91.05,218.62Z"/><path class="cls-3" d="M489.35,291.76c-.4-.6-.26-.56.43.11a3.17,3.17,0,0,0,1.62.43c1.08.2,2.16-.06,3.25,0a16.53,16.53,0,0,1,7,2.73c3.23,2.22,6.54,7.48,2.17,10.33-3.92,2.56-13.68-1.34-14.43,5.7-.76,7.23,10,8.06,14.7,7.06,13.1-2.8,17.78-17.93,9-27.8a19.91,19.91,0,0,0-14-6.57,18,18,0,0,0-7.6,1.5c-1.82.84-2.94,2.93-3.4,3.46C487.18,289.83,487.71,291.85,489.35,291.76Z"/><path class="cls-3" d="M158.11,374.17c-2.86,8.16-3.87,21.17-14.38,23.47-10.26,2.24-11-11.22-16.64-16.42a1.68,1.68,0,0,0-2.79.74c-2.22,12.28,5.75,25.9,19.25,24.77,14.91-1.25,22.32-18.37,22.89-31.43C166.65,370.3,159.62,369.85,158.11,374.17Z"/><path class="cls-3" d="M155.15,431.59c-.48-2.73-4.43-4.35-6.69-2.72a6.69,6.69,0,0,0-2.68,3.59,12.35,12.35,0,0,0-.5,2.83,4.56,4.56,0,0,0,1.07,3,5.25,5.25,0,0,0,2.59,1.78,6.36,6.36,0,0,0,3.86.12,4.79,4.79,0,0,0,2.47-7.51A6.47,6.47,0,0,0,155.15,431.59Z"/><path class="cls-3" d="M429.78,363.88c-2.87-2.17-7.49.74-7.25,4.15.69,9.43-9.55,17.41-18.51,15.37-9.49-2.15-11.15-10.65-13.28-18.46a1.54,1.54,0,0,0,.05-.31c-.05-1.81-.9-3.42-3-3.46-3.09-.06-4.33,4.14-4.77,6.45-1.91,10,5.31,20.35,13.94,24.63,9.32,4.63,20.26,2.3,27.93-4.4C431,382.47,438.12,370.16,429.78,363.88Z"/><path class="cls-3" d="M425.05,418.48c-.06,0-.1-.08-.16-.11a7.26,7.26,0,0,0-8.56,1.44c-3.37,3.57-2.7,9.91,1.62,12.43,5.21,3.05,11.59-1.39,11.73-7.09a7.41,7.41,0,0,0-1.16-4.2A5.88,5.88,0,0,0,425.05,418.48Z"/><path class="cls-3" d="M307.13,420c-6.18,3-8,13.48-12.43,18.67a36.94,36.94,0,0,1-46.93,9,50,50,0,0,1-11.07-8.28c-2.66-2.58-4.56-5.86-7.94-7.51a1.72,1.72,0,0,0-2.5,1c-1.74,9.18,8.78,18.27,15.59,22.76a46.67,46.67,0,0,0,31.84,7.51A48.34,48.34,0,0,0,302.5,448c5.67-6.16,15.46-19.33,8.68-27.47A3.41,3.41,0,0,0,307.13,420Z"/><path class="cls-3" d="M137.51,161.2c7.56-1.07,15.11-.45,22.66-1.1a1.54,1.54,0,0,0,.41-3c-14.53-4.28-32.81.28-46.38,5.91-14.43,6-27.73,15.48-37.06,28.1-.69.94.81,2,1.6,1.23,10.94-11.14,23.2-20.23,37.9-25.8A97.06,97.06,0,0,1,137.51,161.2Z"/><path class="cls-3" d="M196.13,90.07c23.07.55,46.09,7,66.51,17.66a148.14,148.14,0,0,1,28.54,19.42c8.35,7.26,14.66,16.11,22.51,23.76a1.78,1.78,0,0,0,2.78-2.14c-5.19-10.28-15.08-19.13-23.78-26.44a150.76,150.76,0,0,0-28.82-19c-21.14-10.71-44.11-15.55-67.74-15.19A1,1,0,0,0,196.13,90.07Z"/><path class="cls-3" d="M140.35,321.55a124.17,124.17,0,0,1,33-51.52,118.89,118.89,0,0,1,24.49-17.64c8.72-4.74,18.28-7.27,27.11-11.58a1.26,1.26,0,0,0-.63-2.32c-19.59.61-40.5,15.45-54.15,28.36a113.18,113.18,0,0,0-32,54.1A1.14,1.14,0,0,0,140.35,321.55Z"/><path class="cls-3" d="M74.64,272.17c13.8-15.47,37.76-14.13,56.11-20.06,1.22-.39,1.1-2.5-.32-2.37a177.78,177.78,0,0,0-35.63,7.37c-8.51,2.69-16,6.8-21.25,14.22C73.1,272,74.12,272.76,74.64,272.17Z"/><path class="cls-3" d="M281.81,245.21c-17.33.52-33.17,11.59-44.64,23.71-.9,1,.53,2.4,1.46,1.46C251,257.82,265.86,253,282.19,248A1.43,1.43,0,0,0,281.81,245.21Z"/><path class="cls-3" d="M331.55,344.11c-.44-24.91,10.62-48.77,26.36-67.62,15.3-18.34,35-30.6,52.81-46.12,1.16-1-.32-2.75-1.59-2.07-21.72,11.61-42.6,30-57.54,49.45-14.73,19.22-23.69,42-22.6,66.36A1.28,1.28,0,0,0,331.55,344.11Z"/><path class="cls-3" d="M358.36,110.31c15.51,8.23,30.56,17.79,43.23,30.05,12.4,12,20.41,26,27.42,41.55.63,1.4,2.62.35,2.35-1-7-34.94-42.24-58.07-71.8-72.65C358.2,107.6,357,109.59,358.36,110.31Z"/><path class="cls-3" d="M481.68,193.1c.32,1.54,2.61,1.12,2.65-.36.69-21.1-10.75-42.14-24.41-57.44-1-1.16-2.7.54-1.71,1.71C472.27,153.63,477.44,172.29,481.68,193.1Z"/><path class="cls-3" d="M524.63,231.72a1.14,1.14,0,0,0,2.23.3c3.29-9.23-.31-19.24-5.73-26.84-.78-1.09-2.56-.12-1.84,1.08C524.15,214.29,524.44,222.63,524.63,231.72Z"/><path class="cls-3" d="M510.64,406.65c-3.13,2-5.63,5-8.65,7.19a50.76,50.76,0,0,1-9.85,5.67c-1.22.53-.34,2.44.9,2.11,7.23-1.92,16.27-6.3,19.24-13.72C512.64,407,511.41,406.15,510.64,406.65Z"/><path class="cls-3" d="M521.86,367.45c-2.54,1.46-4.42,4.66-6.17,7q-3.26,4.37-6.59,8.67c-1,1.34,1.19,3,2.32,1.79,2.51-2.65,4.9-5.37,7.18-8.21,1.81-2.26,4.4-5.08,5-7.94A1.18,1.18,0,0,0,521.86,367.45Z"/></svg>