<svg id="Layer_1" data-name="Layer 1" xmlns="http://www.w3.org/2000/svg" viewBox="0 0 600 600"><defs><style>.cls-1{fill:#754c29;}.cls-2{fill:#a97c50;}.cls-3{fill:#be1e2d;}.cls-4{fill:#88e0ff;}.cls-5{fill:#231f20;}</style></defs><title>doodle</title><path class="cls-1" d="M185.22,277.5c-.09-26.63,6.59-52.87,16-77.62a401,401,0,0,1,33.11-67.82c11.92-19.38,26-37.63,42.63-53.17-22,13.69-40.57,30.52-54.82,52.33-13.48,20.62-23.31,43.54-30.8,66.95-7.88,24.61-13,50.51-11.47,76.45,1,16.9,4.47,38.14,14.84,53.26C188.19,312.09,185.28,294.9,185.22,277.5Z"/><path class="cls-2" d="M292.08,58.46c-5-4.15-8.34-10.28-10.69-16.19-2-5-3.32-10.14-4.8-15.27-.3-1.05-.62-2.11-.92-3.17C274.74,26,274,28.29,273.32,30c-6.78,16.71-14.58,33.65-18.24,51.45A220.82,220.82,0,0,1,289,60C290,59.44,291,58.94,292.08,58.46Z"/><path class="cls-1" d="M300.6,54.51a5.41,5.41,0,0,1,.5.44c1.92-.61,3.85-1.16,5.8-1.61-4.82-6.7-8.83-14.25-13.46-21-2.68-3.89-5.27-8.87-8.89-12a6.76,6.76,0,0,0-3.09-1.68c2.05,4.73,3.27,10,4.9,14.65C289.42,42,293.09,49,300.6,54.51Z"/><path class="cls-2" d="M271.4,89.81C239,123.38,216,167.51,201,211.39c-13.48,39.36-17.4,83.14-1.16,121.51a59.8,59.8,0,0,1,7.54,7.56c.35.23.7.47,1.06.68a2.65,2.65,0,0,1,1.27,2.31,13.07,13.07,0,0,1,3.16-.89,3.28,3.28,0,0,1,3.24,1.64,41.18,41.18,0,0,1,5.68,1.54,56.84,56.84,0,0,0,16.85,2.35,4.1,4.1,0,0,1,3.81,2.14,4.17,4.17,0,0,1,3,3.28c11.2-3.71,25-2.55,36.52-2.42,1.63-1,3.29-2,4.95-3,15.9-11.62,31.46-23.32,45.33-37.63,31.91-32.91,52.58-73.44,56.87-119.33a347.91,347.91,0,0,0-.6-70.32,128.93,128.93,0,0,0-6.82-30.76A75.63,75.63,0,0,0,372,72.37,54.47,54.47,0,0,0,354,65.77c-13.38-2.62-27.6-5.06-41.22-3a63.63,63.63,0,0,0-17.9,5.86A197.29,197.29,0,0,0,271.4,89.81Zm86.25,24.35c16.48,14.9,20.77,36.57,19.87,58-1.94,46.23-26.74,88.4-59.07,120.27-14,13.79-31.56,26.84-51.9,27.91-14.18.74-30.35-4.74-38.73-16.51a62.18,62.18,0,0,1-11.74-26.17c-5.16-26.07-.21-53.74,8.38-78.56a212,212,0,0,1,29.94-56.84c12.24-16.49,27-34.34,47.32-40.61A58.08,58.08,0,0,1,357.65,114.16Z"/><path class="cls-3" d="M197,381.58a15.82,15.82,0,0,1-1.27-4.24c-5.6-.23-11.28-1.93-16.74-2.9-3.38-.6-6.85-1.31-10.29-1.06-2.29.17-4.06.77-6.3.08a2.67,2.67,0,0,1-1.81-3.19c2.06-11.08,25-4.2,35,.66.16-1.94.47-3.86.79-5.7.2-1.14.48-2.35.8-3.59-2.58-1.95-5-4.47-7.25-6.05-3.94-2.8-8.87-4.88-10.81-9.58a1.85,1.85,0,0,1,1.28-2.25c5.73-1.67,11.45,3,15.65,6.38,1.1.88,2.62,2.06,4.09,3.41a26.13,26.13,0,0,1,4.43-6.49c-7.78-3.83-14.69-10.89-21.16-16.31-7-5.87-14-12.54-22.47-16.26-4.86-2.12-11.48-3.73-16.39-.85-4.38,2.57-7.38,8-9.72,12.29-4.53,8.33-7.19,17.51-9.36,26.69-4.32,18.18-8.74,47.39,18,47.55a103.34,103.34,0,0,0,28-3.77c9.83-2.69,18.42-7.22,27.49-11.64A16.29,16.29,0,0,1,197,381.58Z"/><path class="cls-1" d="M133.45,508.58c-5.62,10.6-14.55,23.34-14.75,35.72-.2,12.1,13.28,22.59,25,21.55,12.37-1.11,19.88-12.84,24.68-23,11.1-23.53,20.23-48.23,29.45-72.55q13-34.45,24.43-69.49a36.65,36.65,0,0,1-1.4-5A28.56,28.56,0,0,1,208.3,392c-.84-.46-1.68-.95-2.51-1.46a5.17,5.17,0,0,1-1.67,2,74.8,74.8,0,0,1-10.83,6.35c-5,12.66-13.38,24.28-20,36.13Q163,453.59,152.78,472.36C146.24,484.38,139.86,496.49,133.45,508.58Zm40.92-16.42c2.23-10.43,5.79-22.45,12.34-31.06.65-.85,2.2-.4,1.85.78-3.16,10.46-8.5,20.55-12.45,30.76A.9.9,0,0,1,174.37,492.16ZM164.19,518c1.37-4.12,2-8.56,3.77-12.49a.94.94,0,0,1,1.71.22c1.67,9.2-3.76,20.26-8.43,27.91-5.28,8.65-12.8,17-22.12,21.37-1,.44-2.1-.77-1.2-1.56,7.58-6.65,14.71-13,20-21.76A68.05,68.05,0,0,0,164.19,518Z"/><path class="cls-2" d="M416.4,121.68c.15.52.33,1,.48,1.56a153.71,153.71,0,0,1,6,43.23c8.7-5.16,17.13-10.54,24.73-17.4,8.26-7.46,19.44-17.58,22.88-28.51.13-.42.37-1.91.59-3-4.48,2-9.83,2.55-14.55,3.46-5,1-10.07,1.74-15.16,2.23C433.66,124,424.22,124.3,416.4,121.68Z"/><path class="cls-3" d="M260.65,360.61c-5.25-.13-10.46.09-15.54-1.17A79.79,79.79,0,0,1,243,371.82c5.4-.56,11.57.53,16.33,1.26,6.18.95,14.06,2.6,15.58,9.62a2.37,2.37,0,0,1-2.25,2.95c-5.37.1-10.48-2.8-15.73-3.89-5.05-1.05-10.77-2.69-16.08-3.25a42.86,42.86,0,0,1-4.52,8.65l.08,0c6.47-1.21,13.3,1,19.17,3.64s13.07,6.41,15.5,12.57c1,2.61-1.95,4.85-4.29,4.29-5.34-1.29-9.93-6.08-14.75-8.78-5.2-2.92-11.16-4.78-16.1-8.07a2.24,2.24,0,0,1-.93-1.85,19.29,19.29,0,0,1-4.71,4.32l.09.22A4.21,4.21,0,0,1,233,399l-.12.35c3.75,8.12,8.67,15.81,13,23.53,5.21,9.25,10.06,20.37,18.54,27.18,20.65,16.59,38.9-13.83,46.54-29.81a126.29,126.29,0,0,0,9.73-30.09c2-10.29,2.64-22.23-9.2-26.24-9.8-3.32-21.61-2.49-31.79-2.82C273.38,360.86,267,360.78,260.65,360.61Z"/><path class="cls-3" d="M236.23,357.14c-7.35-.39-17.17-2.13-23-7.06-3.16,4.33-6.08,8.35-7.5,14-.87,3.44-1.85,7.56-1.3,11.1.72,4.7,4.56,6.93,8.38,9s9.12,4.54,13.16,1.37c3.19-2.5,5.34-7.14,6.67-10.83C234.74,369,235.4,363.08,236.23,357.14Z"/><path class="cls-1" d="M442.39,113.57l.9-.14c-1.54-.17-3.07-.35-4.61-.54-9.48-1.19-19.06-2.57-27.79-6.29q1.77,4.11,3.27,8.31C423.48,114,433,114.9,442.39,113.57Z"/><path class="cls-1" d="M371.05,264.85c-10.63,19.35-24.6,36.83-40.38,52.22-6.25,6.09-12.88,12.09-19.81,17.76a205.2,205.2,0,0,0,29-21.23,214.94,214.94,0,0,0,45.37-55.79c23.71-42,33.33-93,17.24-139.36a130.54,130.54,0,0,0-17.31-33.78c-.67-.92-1.36-1.79-2.06-2.63,5.81,12.45,8.32,27.05,9.67,39.71C397.92,170.15,394.87,221.47,371.05,264.85Z"/><path class="cls-4" d="M231.08,210.38c-5.86,19.7-9.42,41-6.25,61.55,1.38,8.9,4.57,17.9,9.75,25.13,11.26,11.11,26.87,14.2,42.51,9.17,19.24-6.19,34.39-22.37,47.15-37.33,25.33-29.7,43-67.17,41.69-106.86-.63-18.5-7.36-35.65-23.82-45.5-15.49-9.27-35.66-8.55-50.68,1.34-15.45,10.17-28,27.34-37.73,42.76A199,199,0,0,0,231.08,210.38Zm88-60.25c4.49,6.69,7.81,18.84,4.76,26.57-.92,2.34-4.4,3.4-5.8.75-2-3.75-2.32-7.95-2.88-12.1-.61-4.53-1.66-9.13-1.67-13.7C313.51,148.53,317.51,147.74,319.11,150.13Zm-20.46-9.28a2.16,2.16,0,0,1,3.91-.51c2.94,5,3.49,10.86,4.41,16.54,1,5.9,1.78,11.82,2.71,17.73s1.92,11.83,2.94,17.73c1,5.5,2.65,11,1.32,16.51-.81,3.38-5.14,3.4-6.9.9-3.41-4.86-3.66-11.34-4.62-17.07s-1.78-11.51-2.55-17.28C298.45,164.8,295.08,151.22,298.65,140.85Z"/><path class="cls-5" d="M145.45,470.87c-7.28,13.36-14.89,26.55-22.15,39.93-6,11.1-14.31,24.67-12.51,37.84,1.45,10.56,10.07,18.94,19.44,23.16,10.57,4.76,22,2.87,31-4.27,10.22-8.11,15.1-20.5,20.06-32.15q8.58-20.19,16.68-40.58Q214,454.27,228.21,413c1.6,2.75,3.25,5.45,4.75,8.13,5.52,9.86,10.5,20.39,17.4,29.37,6,7.75,14.26,14.15,24.25,15.24,9.54,1.05,17.89-3.57,24.59-10,14.85-14.21,24.52-34.06,29.72-53.73,4.47-16.88,7.73-39.34-12.16-47.33A46.58,46.58,0,0,0,305.92,352c13-6.35,25-15.37,35.67-24a224.85,224.85,0,0,0,48.16-54c18.25-28.62,30.54-62.45,32.75-96.64,12.19-5,23.26-13,33-21.82s22.85-21.73,25.21-35.3c.94-5.39.13-11-5.68-13-6.65-2.24-15-1.89-22-2.53-15.27-1.38-30.35-4-45.56-5.62a148.41,148.41,0,0,0-7.71-13.72c-6.84-10.8-15.29-20.88-27.28-26-8.87-3.79-19-5.77-29-6.88a1.15,1.15,0,0,0-.21-2.08,46.34,46.34,0,0,0-24.75,1.16l-1,.07c-2.61-5.51-6.39-10.57-9.82-15.58-3.92-5.71-7.88-11.44-12.17-16.88-5.6-7.1-17-14.43-24.31-5-3.36,4.31-4.84,10.71-6.84,15.73-2.64,6.66-5.36,13.29-7.85,20-4.46,12-7.92,24-8,36.82a174.43,174.43,0,0,0-24.82,25.51c-16.32,20.79-27.95,44.74-37,69.46-10.83,29.51-18.44,61.31-16.33,92.94a128,128,0,0,0,10.12,42.32,74,74,0,0,0-14.24-9.64c-7.1-3.47-15.77-5.59-23.44-2.69-7.89,3-13.1,11.48-16.75,18.63-13,25.38-27.6,85.7,17.43,86.05a120.29,120.29,0,0,0,41.85-7.1c-7.11,8.87-12.51,19.6-18.07,29.18C159.71,444.38,152.63,457.66,145.45,470.87ZM226,385.55c-4,3.17-9.25.76-13.16-1.37s-7.66-4.31-8.38-9c-.55-3.54.43-7.66,1.3-11.1,1.42-5.64,4.34-9.66,7.5-14,5.79,4.93,15.61,6.67,23,7.06-.83,5.94-1.49,11.88-3.55,17.58C231.35,378.41,229.2,383.05,226,385.55Zm85.52-21.66c11.84,4,11.23,15.95,9.2,26.24A126.29,126.29,0,0,1,311,420.22c-7.64,16-25.89,46.4-46.54,29.81-8.48-6.81-13.33-17.93-18.54-27.18-4.35-7.72-9.27-15.41-13-23.53L233,399a4.21,4.21,0,0,0-2.59-5.51l-.09-.22a19.29,19.29,0,0,0,4.71-4.32,2.24,2.24,0,0,0,.93,1.85c4.94,3.29,10.9,5.15,16.1,8.07,4.82,2.7,9.41,7.49,14.75,8.78,2.34.56,5.32-1.68,4.29-4.29-2.43-6.16-9.69-10-15.5-12.57s-12.7-4.85-19.17-3.64l-.08,0a42.86,42.86,0,0,0,4.52-8.65c5.31.56,11,2.2,16.08,3.25,5.25,1.09,10.36,4,15.73,3.89A2.37,2.37,0,0,0,275,382.7c-1.52-7-9.4-8.67-15.58-9.62-4.76-.73-10.93-1.82-16.33-1.26a79.79,79.79,0,0,0,2.07-12.38c5.08,1.26,10.29,1,15.54,1.17,6.37.17,12.73.25,19.09.46C289.92,361.4,301.73,360.57,311.53,363.89Zm145-242.9c4.72-.91,10.07-1.46,14.55-3.46-.22,1.12-.46,2.61-.59,3-3.44,10.93-14.62,21.05-22.88,28.51-7.6,6.86-16,12.24-24.73,17.4a153.71,153.71,0,0,0-6-43.23c-.15-.53-.33-1-.48-1.56,7.82,2.62,17.26,2.29,25,1.54C446.44,122.73,451.49,122,456.51,121Zm-17.83-8.1c1.54.19,3.07.37,4.61.54l-.9.14c-9.38,1.33-18.91.46-28.23,1.34q-1.5-4.2-3.27-8.31C419.62,110.32,429.2,111.7,438.68,112.89Zm-53.5-28.22a130.54,130.54,0,0,1,17.31,33.78c16.09,46.37,6.47,97.32-17.24,139.36a214.94,214.94,0,0,1-45.37,55.79,205.2,205.2,0,0,1-29,21.23c6.93-5.67,13.56-11.67,19.81-17.76,15.78-15.39,29.75-32.87,40.38-52.22,23.82-43.38,26.87-94.7,21.74-143.1-1.35-12.66-3.86-27.26-9.67-39.71C383.82,82.88,384.51,83.75,385.18,84.67ZM312.73,62.81c13.62-2.1,27.84.34,41.22,3A54.47,54.47,0,0,1,372,72.37a75.63,75.63,0,0,1,9.67,17.7,128.93,128.93,0,0,1,6.82,30.76,347.91,347.91,0,0,1,.6,70.32c-4.29,45.89-25,86.42-56.87,119.33-13.87,14.31-29.43,26-45.33,37.63-1.66,1-3.32,1.95-4.95,3-11.49-.13-25.32-1.29-36.52,2.42a4.17,4.17,0,0,0-3-3.28,4.1,4.1,0,0,0-3.81-2.14,56.84,56.84,0,0,1-16.85-2.35,41.18,41.18,0,0,0-5.68-1.54,3.28,3.28,0,0,0-3.24-1.64,13.07,13.07,0,0,0-3.16.89,2.65,2.65,0,0,0-1.27-2.31c-.36-.21-.71-.45-1.06-.68a59.8,59.8,0,0,0-7.54-7.56c-16.24-38.37-12.32-82.15,1.16-121.51,15-43.88,38-88,70.43-121.58a197.29,197.29,0,0,1,23.43-21.14A63.63,63.63,0,0,1,312.73,62.81ZM284.55,20.39c3.62,3.13,6.21,8.11,8.89,12,4.63,6.7,8.64,14.25,13.46,21-1.95.45-3.88,1-5.8,1.61a5.41,5.41,0,0,0-.5-.44C293.09,49,289.42,42,286.36,33.36c-1.63-4.64-2.85-9.92-4.9-14.65A6.76,6.76,0,0,1,284.55,20.39ZM273.32,30c.69-1.69,1.42-4,2.35-6.15.3,1.06.62,2.12.92,3.17,1.48,5.13,2.83,10.3,4.8,15.27,2.35,5.91,5.7,12,10.69,16.19-1,.48-2.08,1-3.11,1.51a220.82,220.82,0,0,0-33.89,21.46C258.74,63.63,266.54,46.69,273.32,30ZM179.86,274.62c-1.48-25.94,3.59-51.84,11.47-76.45,7.49-23.41,17.32-46.33,30.8-66.95C236.38,109.41,254.9,92.58,277,78.89c-16.67,15.54-30.71,33.79-42.63,53.17a401,401,0,0,0-33.11,67.82c-9.4,24.75-16.08,51-16,77.62.06,17.4,3,34.59,9.48,50.38C184.33,312.76,180.82,291.52,179.86,274.62ZM171.5,396.4a103.34,103.34,0,0,1-28,3.77c-26.78-.16-22.36-29.37-18-47.55,2.17-9.18,4.83-18.36,9.36-26.69,2.34-4.3,5.34-9.72,9.72-12.29,4.91-2.88,11.53-1.27,16.39.85,8.47,3.72,15.46,10.39,22.47,16.26,6.47,5.42,13.38,12.48,21.16,16.31a26.13,26.13,0,0,0-4.43,6.49c-1.47-1.35-3-2.53-4.09-3.41-4.2-3.36-9.92-8.05-15.65-6.38a1.85,1.85,0,0,0-1.28,2.25c1.94,4.7,6.87,6.78,10.81,9.58,2.23,1.58,4.67,4.1,7.25,6.05-.32,1.24-.6,2.45-.8,3.59-.32,1.84-.63,3.76-.79,5.7-10-4.86-32.92-11.74-35-.66a2.67,2.67,0,0,0,1.81,3.19c2.24.69,4,.09,6.3-.08,3.44-.25,6.91.46,10.29,1.06,5.46,1,11.14,2.67,16.74,2.9a15.82,15.82,0,0,0,1.27,4.24,16.29,16.29,0,0,0,2,3.18C189.92,389.18,181.33,393.71,171.5,396.4Zm21.79,2.4a74.8,74.8,0,0,0,10.83-6.35,5.17,5.17,0,0,0,1.67-2c.83.51,1.67,1,2.51,1.46a28.56,28.56,0,0,0,12.51,3.84,36.65,36.65,0,0,0,1.4,5q-11.44,35-24.43,69.49c-9.22,24.32-18.35,49-29.45,72.55-4.8,10.19-12.31,21.92-24.68,23-11.67,1-25.15-9.45-25-21.55.2-12.38,9.13-25.12,14.75-35.72,6.41-12.09,12.79-24.2,19.33-36.22q10.22-18.75,20.55-37.43C179.91,423.08,188.33,411.46,193.29,398.8Z"/><path class="cls-5" d="M254.4,142.21a212,212,0,0,0-29.94,56.84c-8.59,24.82-13.54,52.49-8.38,78.56a62.18,62.18,0,0,0,11.74,26.17c8.38,11.77,24.55,17.25,38.73,16.51,20.34-1.07,37.92-14.12,51.9-27.91,32.33-31.87,57.13-74,59.07-120.27.9-21.38-3.39-43.05-19.87-58a58.08,58.08,0,0,0-55.93-12.56C281.39,107.87,266.64,125.72,254.4,142.21Zm37-24.33c15-9.89,35.19-10.61,50.68-1.34,16.46,9.85,23.19,27,23.82,45.5,1.35,39.69-16.36,77.16-41.69,106.86-12.76,15-27.91,31.14-47.15,37.33-15.64,5-31.25,1.94-42.51-9.17-5.18-7.23-8.37-16.23-9.75-25.13-3.17-20.51.39-41.85,6.25-61.55a199,199,0,0,1,22.62-49.74C263.47,145.22,276,128.05,291.43,117.88Z"/><path class="cls-5" d="M302.42,192.68c1,5.73,1.21,12.21,4.62,17.07,1.76,2.5,6.09,2.48,6.9-.9,1.33-5.53-.36-11-1.32-16.51q-1.53-8.85-2.94-17.73c-.93-5.91-1.75-11.83-2.71-17.73-.92-5.68-1.47-11.5-4.41-16.54a2.16,2.16,0,0,0-3.91.51c-3.57,10.37-.2,24,1.22,34.55C300.64,181.17,301.46,186.94,302.42,192.68Z"/><path class="cls-5" d="M318.07,177.45c1.4,2.65,4.88,1.59,5.8-.75,3.05-7.73-.27-19.88-4.76-26.57-1.6-2.39-5.6-1.6-5.59,1.52,0,4.57,1.06,9.17,1.67,13.7C315.75,169.5,316.09,173.7,318.07,177.45Z"/><path class="cls-5" d="M137.92,553.41c-.9.79.25,2,1.2,1.56,9.32-4.34,16.84-12.72,22.12-21.37,4.67-7.65,10.1-18.71,8.43-27.91a.94.94,0,0,0-1.71-.22c-1.8,3.93-2.4,8.37-3.77,12.49a68.05,68.05,0,0,1-6.27,13.69C152.63,540.41,145.5,546.76,137.92,553.41Z"/><path class="cls-5" d="M176.11,492.64c3.95-10.21,9.29-20.3,12.45-30.76.35-1.18-1.2-1.63-1.85-.78-6.55,8.61-10.11,20.63-12.34,31.06A.9.9,0,0,0,176.11,492.64Z"/></svg>