<svg id="Layer_1" data-name="Layer 1" xmlns="http://www.w3.org/2000/svg" viewBox="0 0 600 600"><defs><style>.cls-1{fill:#88e0ff;}.cls-2{fill:#231f20;}</style></defs><title>doodle</title><path class="cls-1" d="M225.82,575.14c-49.37,0-84.35-12.14-106.92-37.1C78.46,493.32,86.35,414.91,94,339.07q.54-5.32,1.07-10.64c1-10,2-20.16,3-30.42,5.68-59,11.55-120.11,22.53-170,6-27.21,12.9-48.37,21.12-64.69,9.61-19.07,20.77-31.12,34.12-36.84a156.87,156.87,0,0,1,62.06-12.71c57.65,0,108.25,30,140.56,55.15,40.16,31.28,67.23,66.5,76.24,87.53,18.06,42.14,7.6,146.69-.05,223-1.54,15.36-2.88,28.79-3.81,40.05,4.19,2.51,10.35,5.53,17.31,8.94,35.42,17.38,94.7,46.46,96.21,100.91a7.26,7.26,0,0,1-2,5.32,7.46,7.46,0,0,1-5.34,2.24,7.32,7.32,0,0,1-6.09-3.27c-11.27-16.79-46-38.48-107.1-45.27l-.06.26c-3.43,15.11-7.7,33.92-34.07,50.14-29.42,18.09-81.37,29.65-158.84,35.34C242.11,574.81,233.72,575.14,225.82,575.14Z"/><path class="cls-2" d="M237.84,18.42c101.87,0,194.55,97.85,212.57,139.89,21.53,50.25.67,199.05-4.45,263.66,21.35,14.56,111.94,42.84,113.73,107.58a2.73,2.73,0,0,1-2.78,2.82,2.68,2.68,0,0,1-2.26-1.23c-13.21-19.68-52.23-41.57-114.5-47.71-7.18,29.74-8.21,72.82-189.74,86.15-8.65.64-16.82.94-24.59.94-155.17,0-137.9-123.76-126.17-241.63,12.3-123.78,22-274.21,77.94-298.13a151.71,151.71,0,0,1,60.25-12.34m0-9.22A161.43,161.43,0,0,0,174,22.28c-14.39,6.16-26.3,18.92-36.42,39C129.15,78,122.11,99.47,116,127.06c-11,50.12-16.92,111.32-22.61,170.51-1,10-2,20.42-3,30.41q-.52,5.31-1.07,10.63c-3.79,37.68-7.71,76.63-5.67,111.36,1.13,19.1,3.92,35.35,8.55,49.69,5.26,16.31,13.06,30.26,23.2,41.47,11.39,12.6,26.14,22.22,43.84,28.6,18.44,6.65,40.82,10,66.5,10,8,0,16.51-.33,25.27-1C329.31,573,382,561.25,412,542.76c25.75-15.83,31.8-34.59,35.28-49.25,24.46,3.07,46.69,8.93,64.7,17.1,22.23,10.07,31.47,20.41,35,25.67a11.92,11.92,0,0,0,9.92,5.31,12.11,12.11,0,0,0,8.65-3.64,11.85,11.85,0,0,0,3.35-8.66c-.69-25.18-13.43-48.19-37.86-68.38-19.8-16.36-43.57-28-60.93-36.54-5.59-2.74-10.65-5.22-14.5-7.34.91-10.6,2.16-23,3.56-37,7.69-76.84,18.23-182.08-.3-225.3C449.63,133.1,422,97.1,381.23,65.32c-21.45-16.71-43.71-30-66.15-39.45C288.86,14.81,262.88,9.2,237.84,9.2Z"/></svg>