<svg id="Layer_1" data-name="Layer 1" xmlns="http://www.w3.org/2000/svg" viewBox="0 0 600 600"><defs><style>.cls-1{fill:#f2b879;}.cls-2{fill:#fff;}.cls-3{fill:#e27683;}.cls-4{fill:#231f20;}</style></defs><title>doodle</title><path class="cls-1" d="M542.16,386.12c-3.39,21.95-11.84,43.47-30.45,56.93-19.91,14.42-42.52,13.05-63.07,1C438.26,438,428.23,430.15,416,428.45c-14-1.94-19,7.16-27.44,15.88-7.28,7.53-17,10.55-27.09,7.13-8.53-2.88-14.46-9.27-19.33-16.45-12,16.16-32.15,25.74-52.54,23.26a58.62,58.62,0,0,1-28.71-11.83,57.82,57.82,0,0,1-11.15-11.33c-1.44-1.94-2.51-4.48-4.08-6.26-2.52-2.85-4.22-1.56-7.25.84-17.24,13.65-29.09,32.28-53.43,32.43-22.89.15-42.45-14.18-54.44-32.79-6.18-9.58-10.57-20.33-14-31.16s-7.22-28.8-22.12-27.4a4.82,4.82,0,0,1-3.5-1c-14.35,7.17-30.77,12-46,5.7,15.07,35.33,46.91,61,80.69,78.5,81.75,42.32,178.71,47.13,268.38,34.7,22.71-3.14,45.3-7.41,67.61-12.72s44.71-12.06,64.71-23.71c17.32-10.09,32.71-24.14,42.36-41.87,7.4-13.6,9.48-28.06,9.68-42.84l-.14.18C569.33,379.15,556.29,386.37,542.16,386.12Z"/><path class="cls-2" d="M376.3,319.51a17,17,0,0,0-1.45,2.38c-.25.45-.48.9-.72,1.35a4.72,4.72,0,0,0,.38,1.22c1,1.92,4,1.74,5.21,0,1.83-2.62-1.23-4.3-2.41-6A12.52,12.52,0,0,0,376.3,319.51Z"/><path class="cls-2" d="M154.41,278.73c1.89-2.5-.82-5.29-3.3-5.66-2.19-.32-4.19.68-6.17,1.77a4.94,4.94,0,0,0,.16,1.08C146,279.3,152,282,154.41,278.73Z"/><path class="cls-3" d="M484.13,172.3c-14.48-8.62-30.06-15.2-45.69-21.41-16.36-6.5-32.73-13-49.4-18.66-64.77-21.9-138.07-22.48-203.81-3.83C124.31,145.69,69.58,183.62,41.67,241.73,29.06,268,21.45,300.05,26.76,329.15c2.3,12.62,7.5,26.7,19,33.7,15.43,9.38,33.91.69,49-5a3.59,3.59,0,0,1,4.07.89c23.77,1.25,27.26,32.24,35.38,50.35,9.21,20.53,26.4,40.29,50.72,40.18s32.89-25.18,52.61-34.25c9.31-4.29,15.36,1.66,20.06,9.13a46.55,46.55,0,0,0,25,19.78c21.52,7,44.16-4.05,54.11-23.82,2.14-4.25,8.43-3.8,10.69,0,5,8.35,12.88,22.36,24.79,19.91,8.39-1.72,13.15-13.17,19.54-18.17,15.33-12,35.86-5.35,50.91,3.48,9.14,5.37,18,12.17,28.47,14.74,10,2.47,20.36.13,29.15-5,19.6-11.52,27.43-34.5,29.71-56,.47-4.41,3.79-7.22,8.29-6.31,15.31,3.08,29.48-8.87,34.9-22.43,6.7-16.73,3.48-36-.45-53-1.43-6.23-3.08-12.43-4.93-18.56-3.65,29.72-24.39,55.63-49.51,70.92-31.09,18.92-71.77,26.13-107.75,24.41-4.73-.23-6-7.33-1.15-8.49,36.65-8.71,75.54-9.24,107.49-31.85,27.73-19.62,45.37-53.58,32.6-87-5.88-15.39-16.32-29.47-27-41.85A156.17,156.17,0,0,0,484.13,172.3ZM49.64,329.82a5.29,5.29,0,0,1-1.68.28c-5.76-.06-7-7.73-3.29-11.14,3.86-3.58,10.64-1.14,11.06,4.19A6.19,6.19,0,0,1,49.64,329.82Zm434,68.28a7.28,7.28,0,0,1,4.92-5.72,5.78,5.78,0,0,1,5.27,1.22,6.77,6.77,0,0,1,5.15,5.88,6.33,6.33,0,0,1-1.23,4.45,6.89,6.89,0,0,1-.73,1.72,6.39,6.39,0,0,1-8.05,2.33,7.48,7.48,0,0,1-2-1.22,6.94,6.94,0,0,1-1-.69,7.45,7.45,0,0,1-2.53-5.9c-.05-.22-.11-.44-.15-.65A1.63,1.63,0,0,1,483.59,398.1Zm-155-252.94a1.54,1.54,0,0,1,1.47-.67,4.71,4.71,0,0,1,.62-.71,3.82,3.82,0,0,1,3-.93,3.76,3.76,0,0,1,1.52.18c3.92,1.36,3,7-.37,8.38a4.77,4.77,0,0,1-5.1-1.13C328.35,149,327.48,146.81,328.55,145.16Zm-80.17,18.37a2.74,2.74,0,0,1,1.27-.07,5.9,5.9,0,0,1,1,.07,5.13,5.13,0,0,1,4.26,4.17,5.45,5.45,0,0,1-3.54,5.66,4.79,4.79,0,0,1-1.83.35c-3.06.32-6.44-2-6.27-5.39C243.43,165.58,245.93,163.74,248.38,163.53Zm-83.33,31.39a6.48,6.48,0,0,1,7.66,3.28,7.36,7.36,0,0,1-2.07,8.87c-2.49,1.9-5.83,1.63-7.59-1.09a4.21,4.21,0,0,1-.42-.85,6.49,6.49,0,0,1-1.9-3.07A5.9,5.9,0,0,1,165.05,194.92Zm-28.54,70.35A12.7,12.7,0,0,1,143,261a17.74,17.74,0,0,1,15.2,0c10.88,5.08,14,19.69,5,28.11-9.29,8.64-26.12,2.9-29.55-8.8A16.16,16.16,0,0,1,136.51,265.27Zm-28.84,2.35-.62.85a6.13,6.13,0,0,1-2.18,2.17,6,6,0,0,1-6.11,0,6.13,6.13,0,0,1-2.18-2.17l-.62-.85c-1.4-1.9-1.13-4.92,0-6.85a6.79,6.79,0,0,1,11.71,0C108.8,262.7,109.06,265.72,107.67,267.62ZM98,210.55a6.35,6.35,0,0,1,8.65,4.26,6,6,0,0,1-4.92,7.4,5.86,5.86,0,0,1-5.6-1.38,4.6,4.6,0,0,1-1.25-4A5.42,5.42,0,0,1,98,210.55Zm165.2,170.79c-16.66,3.19-32.44,5.21-49.45,4.09a211.13,211.13,0,0,1-47.21-8.7,236.05,236.05,0,0,1-45.42-19.1c-13.54-7.46-28.11-16.32-36.67-29.58-1.93-3,1.72-5.52,4.37-4.38,14.11,6.05,26.42,16.05,39.92,23.35a227.24,227.24,0,0,0,42.4,17.64,259.61,259.61,0,0,0,46.26,9.49c14.82,1.65,30.24,3,45.14,2.31C265.36,376.33,266,380.82,263.23,381.34Zm-13-41.36c-19.28.4-24.28-20.34-18.57-35.22.51-1.33,2.66-1.65,3,0,2.13,9.37,2.84,27.9,17.17,24.45,12.74-3.07,11.17-16.1,16.92-24.81a4.53,4.53,0,0,1,8.17,1.07C281.54,320.93,265.61,339.66,250.21,340Zm69.71,61.43a5.89,5.89,0,0,1-.65.55c-4.83,3.49-10.85-1.6-9.7-7a1.18,1.18,0,0,1,.58-.78,6,6,0,0,1,6.14-5.34,6.35,6.35,0,0,1,2.25.45,5.73,5.73,0,0,1,3.52,2.57A6.92,6.92,0,0,1,319.92,401.41Zm69-68.85c-6.44,7.54-19.85,7-24.46-2.25a16.51,16.51,0,0,1-1.26-10.63,18.41,18.41,0,0,1,2.6-6.86c3.47-5.49,9.27-8.54,15.61-6.09C391.4,310.57,396.23,324.05,389,332.56Zm-13.69-54.95c-19.06,8.82-41.51,7.2-62,8.15-20,.93-40.46,2.43-60.19-2.12-15.11-3.48-32-10.93-41.43-23.88a51,51,0,0,1-4.31-5.65c-10.65-16.17-3.83-34,11.06-44.47,12.56-8.87,28.31-11.66,43.28-13.15a240.46,240.46,0,0,1,56.43.86A174.85,174.85,0,0,1,369.21,212c13.42,6.3,34.56,16.73,36.35,33.52S388,271.71,375.27,277.61Zm57.45-83.39a7.25,7.25,0,0,1-.31-1.22,4.33,4.33,0,0,1-.2-4.37,1,1,0,0,1,.22-.3,4.6,4.6,0,0,1,6.55-2.9c4.13,1.85,3.77,7.79-.18,9.65a4.64,4.64,0,0,1-3.07.31,2.34,2.34,0,0,1-.77.29A2.07,2.07,0,0,1,432.72,194.22ZM438.41,341a4.8,4.8,0,1,1,4.8-4.79A4.88,4.88,0,0,1,438.41,341Zm9.27-84.45a6.38,6.38,0,0,1-7.69,4.53c-2.55-.59-5.77-3.29-5.09-6.16a5.59,5.59,0,0,1,.83-3.2,6.31,6.31,0,0,1,8.35-2.35,6,6,0,0,1,2.06,2A5.32,5.32,0,0,1,447.68,256.56Zm70.86,15.6a7.16,7.16,0,0,1-8.38,4,7.3,7.3,0,0,1-5-6.55c-.22-2.63,1-5.93,3.82-6.7a4.07,4.07,0,0,1,3.18.55,5.46,5.46,0,0,1,2.55.25A6.54,6.54,0,0,1,518.54,272.16Z"/><path class="cls-4" d="M369.21,212a174.85,174.85,0,0,0-51.14-14.61,240.46,240.46,0,0,0-56.43-.86c-15,1.49-30.72,4.28-43.28,13.15-14.89,10.5-21.71,28.3-11.06,44.47a51,51,0,0,0,4.31,5.65c9.42,12.95,26.32,20.4,41.43,23.88,19.73,4.55,40.16,3.05,60.19,2.12,20.53-.95,43,.67,62-8.15,12.76-5.9,32.1-15.27,30.29-32.13S382.63,218.26,369.21,212Zm15.7,43.91a99.77,99.77,0,0,1-19.74,10.71c-15,5.71-33.18,4.28-49,5.15-18.08,1-36.48,2.56-54.5-.05-17.54-2.54-30.71-10.05-43.8-21.62a5.69,5.69,0,0,0-1.33-.86c-7.87-13.81.06-26.72,13.84-33.2,11.54-5.42,24.85-6.37,37.4-6.87a276.91,276.91,0,0,1,43.48,1.33,178.28,178.28,0,0,1,41.17,9.83c12.06,4.48,27.33,11.05,35.89,21C393.47,247.32,390.74,251.91,384.91,255.87Z"/><path class="cls-4" d="M262.57,376.46c-14.9.71-30.32-.66-45.14-2.31a259.61,259.61,0,0,1-46.26-9.49A227.24,227.24,0,0,1,128.77,347c-13.5-7.3-25.81-17.3-39.92-23.35-2.65-1.14-6.3,1.39-4.37,4.38,8.56,13.26,23.13,22.12,36.67,29.58a236.05,236.05,0,0,0,45.42,19.1,211.13,211.13,0,0,0,47.21,8.7c17,1.12,32.79-.9,49.45-4.09C266,380.82,265.36,376.33,262.57,376.46Z"/><path class="cls-4" d="M535.21,197.19c-5-5.68-10.11-11-15.2-15.8-27.52-26.07-63.4-39-98.17-52.28-38-14.55-76-25-116.84-26.61-37.06-1.49-74.7,1.65-110.77,10.41C126.78,129.3,64.48,169.14,32.76,232.48,17.21,263.52,8,302,16.18,336.42c2.41,10.14,6.83,20.4,13.8,28.27,10.16,39.42,39.67,69.67,73.49,90.78,39.64,24.76,86.21,38.84,132.1,46.14,48.48,7.7,98,7.78,146.73,2.17a736,736,0,0,0,73.76-12.39c23.69-5.21,47.3-11.61,69.05-22.56C546.57,458,566,442.16,578.53,421.48c14.57-24,15.45-51.28,12.75-78.48a7.07,7.07,0,0,0-1.95-4.31,101.48,101.48,0,0,0-.87-27.41c-3.26-20.67-10.09-40.91-18.4-60.06-8.16-18.81-18-37.71-31.75-53A3,3,0,0,0,535.21,197.19Zm43.08,170.35c-.2,14.78-2.28,29.24-9.68,42.84-9.65,17.73-25,31.78-42.36,41.87-20,11.65-42.32,18.37-64.71,23.71s-44.9,9.58-67.61,12.72C304.26,501.11,207.3,496.3,125.55,454c-33.78-17.49-65.62-43.17-80.69-78.5,15.24,6.31,31.66,1.47,46-5.7a4.82,4.82,0,0,0,3.5,1c14.9-1.4,18.67,16.53,22.12,27.4s7.82,21.58,14,31.16c12,18.61,31.55,32.94,54.44,32.79,24.34-.15,36.19-18.78,53.43-32.43,3-2.4,4.73-3.69,7.25-.84,1.57,1.78,2.64,4.32,4.08,6.26a57.82,57.82,0,0,0,11.15,11.33,58.62,58.62,0,0,0,28.71,11.83c20.39,2.48,40.52-7.1,52.54-23.26,4.87,7.18,10.8,13.57,19.33,16.45,10.1,3.42,19.81.4,27.09-7.13,8.43-8.72,13.44-17.82,27.44-15.88,12.28,1.7,22.31,9.57,32.69,15.64,20.55,12,43.16,13.38,63.07-1,18.61-13.46,27.06-35,30.45-56.93,14.13.25,27.17-7,36-18.4ZM516.9,333.75C485,356.36,446.06,356.89,409.41,365.6c-4.89,1.16-3.58,8.26,1.15,8.49,36,1.72,76.66-5.49,107.75-24.41,25.12-15.29,45.86-41.2,49.51-70.92,1.85,6.13,3.5,12.33,4.93,18.56,3.93,17,7.15,36.23.45,53-5.42,13.56-19.59,25.51-34.9,22.43-4.5-.91-7.82,1.9-8.29,6.31-2.28,21.47-10.11,44.45-29.71,56-8.79,5.17-19.11,7.51-29.15,5-10.46-2.57-19.33-9.37-28.47-14.74-15.05-8.83-35.58-15.44-50.91-3.48-6.39,5-11.15,16.45-19.54,18.17-11.91,2.45-19.83-11.56-24.79-19.91-2.26-3.8-8.55-4.25-10.69,0-9.95,19.77-32.59,30.83-54.11,23.82a46.55,46.55,0,0,1-25-19.78c-4.7-7.47-10.75-13.42-20.06-9.13-19.72,9.07-28.22,34.15-52.61,34.25s-41.51-19.65-50.72-40.18c-8.12-18.11-11.61-49.1-35.38-50.35a3.59,3.59,0,0,0-4.07-.89c-15.08,5.73-33.56,14.42-49,5-11.51-7-16.71-21.08-19-33.7-5.31-29.1,2.3-61.16,14.91-87.42,27.91-58.11,82.64-96,143.56-113.33,65.74-18.65,139-18.07,203.81,3.83,16.67,5.63,33,12.16,49.4,18.66,15.63,6.21,31.21,12.79,45.69,21.41a156.17,156.17,0,0,1,38.37,32.62c10.68,12.38,21.12,26.46,27,41.85C562.27,280.17,544.63,314.13,516.9,333.75Z"/><path class="cls-4" d="M163.21,289.12c9.06-8.42,5.9-23-5-28.11a17.74,17.74,0,0,0-15.2,0,12.7,12.7,0,0,0-6.52,4.24,16.16,16.16,0,0,0-2.85,15.05C137.09,292,153.92,297.76,163.21,289.12Zm-12.1-16.05c2.48.37,5.19,3.16,3.3,5.66-2.46,3.27-8.42.57-9.31-2.81a4.94,4.94,0,0,1-.16-1.08C146.92,273.75,148.92,272.75,151.11,273.07Z"/><path class="cls-4" d="M101.81,257.42A6.83,6.83,0,0,0,96,260.77c-1.13,1.93-1.4,5,0,6.85l.62.85a6.13,6.13,0,0,0,2.18,2.17,6,6,0,0,0,6.11,0,6.13,6.13,0,0,0,2.18-2.17l.62-.85c1.39-1.9,1.13-4.92,0-6.85A6.83,6.83,0,0,0,101.81,257.42Z"/><path class="cls-4" d="M268.76,304.4c-5.75,8.71-4.18,21.74-16.92,24.81-14.33,3.45-15-15.08-17.17-24.45-.37-1.65-2.52-1.33-3,0-5.71,14.88-.71,35.62,18.57,35.22,15.4-.32,31.33-19.05,26.72-34.51A4.53,4.53,0,0,0,268.76,304.4Z"/><path class="cls-4" d="M381.45,306.73c-6.34-2.45-12.14.6-15.61,6.09a18.41,18.41,0,0,0-2.6,6.86,16.51,16.51,0,0,0,1.26,10.63c4.61,9.24,18,9.79,24.46,2.25C396.23,324.05,391.4,310.57,381.45,306.73Zm-1.73,17.7c-1.24,1.77-4.22,1.95-5.21,0a4.72,4.72,0,0,1-.38-1.22c.24-.45.47-.9.72-1.35a17,17,0,0,1,1.45-2.38,12.52,12.52,0,0,1,1-1.05C378.49,320.13,381.55,321.81,379.72,324.43Z"/><path class="cls-4" d="M438.41,331.42a4.8,4.8,0,1,0,4.8,4.8A4.86,4.86,0,0,0,438.41,331.42Z"/><path class="cls-4" d="M444.08,249.38a6.31,6.31,0,0,0-8.35,2.35,5.59,5.59,0,0,0-.83,3.2c-.68,2.87,2.54,5.57,5.09,6.16a6.38,6.38,0,0,0,7.69-4.53,5.32,5.32,0,0,0-1.54-5.19A6,6,0,0,0,444.08,249.38Z"/><path class="cls-4" d="M435.73,195.39a4.64,4.64,0,0,0,3.07-.31c3.95-1.86,4.31-7.8.18-9.65a4.6,4.6,0,0,0-6.55,2.9,1,1,0,0,0-.22.3,4.33,4.33,0,0,0,.2,4.37,7.25,7.25,0,0,0,.31,1.22,2.07,2.07,0,0,0,2.24,1.46A2.34,2.34,0,0,0,435.73,195.39Z"/><path class="cls-4" d="M162.63,205.13a4.21,4.21,0,0,0,.42.85c1.76,2.72,5.1,3,7.59,1.09a7.36,7.36,0,0,0,2.07-8.87,6.48,6.48,0,0,0-7.66-3.28,5.9,5.9,0,0,0-4.32,7.14A6.49,6.49,0,0,0,162.63,205.13Z"/><path class="cls-4" d="M249.56,173.71a4.79,4.79,0,0,0,1.83-.35,5.45,5.45,0,0,0,3.54-5.66,5.13,5.13,0,0,0-4.26-4.17,5.9,5.9,0,0,0-1-.07,2.74,2.74,0,0,0-1.27.07c-2.45.21-4.95,2.05-5.09,4.79C243.12,171.7,246.5,174,249.56,173.71Z"/><path class="cls-4" d="M334.75,151.41c3.35-1.39,4.29-7,.37-8.38a3.76,3.76,0,0,0-1.52-.18,3.82,3.82,0,0,0-3,.93,4.71,4.71,0,0,0-.62.71,1.54,1.54,0,0,0-1.47.67c-1.07,1.65-.2,3.85,1.1,5.12A4.77,4.77,0,0,0,334.75,151.41Z"/><path class="cls-4" d="M514.75,263.69a5.46,5.46,0,0,0-2.55-.25,4.07,4.07,0,0,0-3.18-.55c-2.79.77-4,4.07-3.82,6.7a7.3,7.3,0,0,0,5,6.55,7.16,7.16,0,0,0,8.38-4A6.54,6.54,0,0,0,514.75,263.69Z"/><path class="cls-4" d="M96.16,220.83a5.86,5.86,0,0,0,5.6,1.38,6,6,0,0,0,4.92-7.4A6.35,6.35,0,0,0,98,210.55a5.42,5.42,0,0,0-3.12,6.25A4.6,4.6,0,0,0,96.16,220.83Z"/><path class="cls-4" d="M44.67,319C41,322.37,42.2,330,48,330.1a5.29,5.29,0,0,0,1.68-.28,6.19,6.19,0,0,0,6.09-6.67C55.31,317.82,48.53,315.38,44.67,319Z"/><path class="cls-4" d="M318.54,389.32a6.35,6.35,0,0,0-2.25-.45,6,6,0,0,0-6.14,5.34,1.18,1.18,0,0,0-.58.78c-1.15,5.37,4.87,10.46,9.7,7a5.89,5.89,0,0,0,.65-.55,6.92,6.92,0,0,0,2.14-9.52A5.73,5.73,0,0,0,318.54,389.32Z"/><path class="cls-4" d="M483.37,400.17a7.45,7.45,0,0,0,2.53,5.9,6.94,6.94,0,0,0,1,.69,7.48,7.48,0,0,0,2,1.22,6.39,6.39,0,0,0,8.05-2.33,6.89,6.89,0,0,0,.73-1.72,6.33,6.33,0,0,0,1.23-4.45,6.77,6.77,0,0,0-5.15-5.88,5.78,5.78,0,0,0-5.27-1.22,7.28,7.28,0,0,0-4.92,5.72,1.63,1.63,0,0,0-.37,1.42C483.26,399.73,483.32,400,483.37,400.17Z"/></svg>