<svg id="Layer_1" data-name="Layer 1" xmlns="http://www.w3.org/2000/svg" viewBox="0 0 600 600"><defs><style>.cls-1{fill:#00aeef;}.cls-2{fill:#231f20;}</style></defs><title>doodle</title><path class="cls-1" d="M181.56,154.5C125,174.67,73.72,215.65,49,271.31c-13.64,30.78-19.38,69.17-3.69,100.35,13.22,26.28,41.09,45.84,71.11,42.88,1.5-2.55,6.48-1.5,6.22,1.86-1.06,13.68-2.06,27.27-1.57,41,.42,11.44-.24,28.23,10,35.88,13.52,10.1,23.86-9.21,27.82-19.44a138,138,0,0,0,8.74-37.74,4,4,0,0,1,4.94-3.77,391.89,391.89,0,0,0,61.55,7.34,4.12,4.12,0,0,1,4,4,232.86,232.86,0,0,0,6.16,45.13c3.07,12.64,9.45,28,23.78,30.87,13.13,2.65,24.34-9,28.58-20.32,5.2-13.86,3.65-29.35,4.24-43.86a4.09,4.09,0,0,1,4-4,187.37,187.37,0,0,0,35.25-2.24,4.13,4.13,0,0,1,3.92,1.45,2.84,2.84,0,0,1,3,2.17c1.94,8.19,1.55,16.52,4.26,24.69,2.13,6.39,6.38,15.77,14.43,15.75,18.59,0,17.73-33.13,17.06-45-.18-3.2,2.75-4.36,5.11-3.58a94.87,94.87,0,0,1,43.2-7.32c2.56.17,4.95,2.56,4,5.3a120.08,120.08,0,0,0-5.72,52.39c1,8.13,2.38,17.4,6.94,24.38,5.38,8.24,14.63,10.33,21.91,3.22,22.87-22.37,32.55-58,29.84-89.15-.17-1.9,1.45-3.48,3.08-4,16.73-5.89,36.42-5.23,51.62-15.08s20.15-29.27,22.06-46.3a188,188,0,0,0-19.61-106.62C515.09,203.21,455.36,170,394.09,153,325.37,134,249.49,130.28,181.56,154.5ZM131.18,339.23A7.46,7.46,0,0,1,124,334.6c-1.71-3.78,0-7.19,1.56-10.66a2.45,2.45,0,0,1,3.53-1,7.64,7.64,0,0,1,5.67.77C141.27,327.4,138.62,338.66,131.18,339.23Zm50-42.19c-7.8.82-17.17-3.41-22.12-9.44-5.48-6.68-5.69-16.89-3.22-24.82.9-2.9,4.75-2.11,5,.68.68,6.91-1,15,4.49,20.48,4.2,4.18,11.82,7.06,17.58,5.16,15-4.94,12.72-22.93,14.79-35.07.56-3.26,6.15-3.32,6.65,0C206.83,270.2,200.79,295,181.2,297Zm311-3.88a4.27,4.27,0,0,1,2-.43,6.49,6.49,0,0,1,2.9-.9,5.67,5.67,0,0,1,5.39,3.19,7,7,0,0,1-.11,6.21,6.91,6.91,0,0,1-10,2.64,7.17,7.17,0,0,1-3.13-5.06A5.66,5.66,0,0,1,492.22,293.16Zm-72.34-38c.9,5.88,2.61,12.23,7,16.52,5.37,5.21,13.82,4.7,20.66,3.3,16.28-3.33,13.32-24.52,14.35-37.09.29-3.51,5.89-4.84,6.57-.89A65.59,65.59,0,0,1,466,268.1c-3,8.49-9.5,13.2-18.27,14.56-8.53,1.32-18,1.4-24.79-4.69-6.16-5.54-8.72-13.89-9.19-21.93C413.54,252.54,419.35,251.73,419.88,255.21ZM300.14,315.57c1.28,8.86,6.71,19.51,17.31,18.27,11.55-1.35,11.73-16.15,10.14-24.7-.81-4.39,4.87-5.77,6.54-1.8,5.24,12.44-.21,31.67-15.19,33.81-14.72,2.11-24.35-11.45-24.28-24.84C294.68,313.25,299.68,312.4,300.14,315.57Z"/><path class="cls-2" d="M195.56,141.68c-62,17.91-119.33,58.85-149.08,117.06-16.11,31.52-24.53,69.54-13.24,104,9.35,28.56,34,53.3,64.18,58.58a68.43,68.43,0,0,0,17.6.73,212.06,212.06,0,0,0-.84,47c1.07,12.76,4.12,28.57,18,33.38s25.14-6.73,30.61-18.06A138.28,138.28,0,0,0,175,440.74a398.92,398.92,0,0,0,55.33,6.79c.88,17.18,3,35.32,8.55,51.51,4.72,13.73,14.77,27.38,30.31,28.95,14.12,1.43,26.52-8.66,32.74-20.63,7.61-14.64,6.62-31.65,6.94-47.75a205.45,205.45,0,0,0,31.62-2.27c-.8,9.05,2.31,19.83,5.64,27.52,3.5,8.06,10.1,16.06,19.66,16.05,22.22,0,26-30.78,25.27-48.69a86.7,86.7,0,0,1,34.49-6.69,127.77,127.77,0,0,0-2.91,59.23c2.81,14.92,13,35.84,31.9,30.16,8.33-2.5,14.22-11,19.07-17.7a122,122,0,0,0,13.84-24.93,125.13,125.13,0,0,0,9.32-55.79c15-4.58,31.19-5.21,45.46-12.12s22.95-20.53,27.27-35.5c9.25-32.06,5.7-69.2-4.27-100.64a190.34,190.34,0,0,0-55.76-85.39c-25.35-22.31-55.67-38.19-87.34-49.5C350.84,127.89,268.83,120.5,195.56,141.68Zm349.75,119.8A188,188,0,0,1,564.92,368.1c-1.91,17-6.75,36.39-22.06,46.3s-34.89,9.19-51.62,15.08c-1.63.57-3.25,2.15-3.08,4,2.71,31.13-7,66.78-29.84,89.15-7.28,7.11-16.53,5-21.91-3.22-4.56-7-6-16.25-6.94-24.38a120.08,120.08,0,0,1,5.72-52.39c.92-2.74-1.47-5.13-4-5.3a94.87,94.87,0,0,0-43.2,7.32c-2.36-.78-5.29.38-5.11,3.58.67,11.91,1.53,45-17.06,45-8.05,0-12.3-9.36-14.43-15.75-2.71-8.17-2.32-16.5-4.26-24.69a2.84,2.84,0,0,0-3-2.17,4.13,4.13,0,0,0-3.92-1.45A187.37,187.37,0,0,1,305,451.51a4.09,4.09,0,0,0-4,4c-.59,14.51,1,30-4.24,43.86-4.24,11.31-15.45,23-28.58,20.32-14.33-2.89-20.71-18.23-23.78-30.87a232.86,232.86,0,0,1-6.16-45.13,4.12,4.12,0,0,0-4-4,391.89,391.89,0,0,1-61.55-7.34,4,4,0,0,0-4.94,3.77,138,138,0,0,1-8.74,37.74c-4,10.23-14.3,29.54-27.82,19.44-10.26-7.65-9.6-24.44-10-35.88-.49-13.74.51-27.33,1.57-41,.26-3.36-4.72-4.41-6.22-1.86-30,3-57.89-16.6-71.11-42.88-15.69-31.18-10-69.57,3.69-100.35C73.72,215.65,125,174.67,181.56,154.5,249.49,130.28,325.37,134,394.09,153,455.36,170,515.09,203.21,545.31,261.48Z"/><path class="cls-2" d="M318.94,341.15c15-2.14,20.43-21.37,15.19-33.81-1.67-4-7.35-2.59-6.54,1.8,1.59,8.55,1.41,23.35-10.14,24.7-10.6,1.24-16-9.41-17.31-18.27-.46-3.17-5.46-2.32-5.48.74C294.59,329.7,304.22,343.26,318.94,341.15Z"/><path class="cls-2" d="M197.75,254c-2.07,12.14.22,30.13-14.79,35.07-5.76,1.9-13.38-1-17.58-5.16-5.47-5.46-3.81-13.57-4.49-20.48-.28-2.79-4.13-3.58-5-.68-2.47,7.93-2.26,18.14,3.22,24.82,4.95,6,14.32,10.26,22.12,9.44,19.59-2,25.63-26.84,23.2-43C203.9,250.71,198.31,250.77,197.75,254Z"/><path class="cls-2" d="M422.93,278c6.78,6.09,16.26,6,24.79,4.69,8.77-1.36,15.27-6.07,18.27-14.56a65.59,65.59,0,0,0,2.49-31.05c-.68-4-6.28-2.62-6.57.89-1,12.57,1.93,33.76-14.35,37.09-6.84,1.4-15.29,1.91-20.66-3.3-4.41-4.29-6.12-10.64-7-16.52-.53-3.48-6.34-2.67-6.14.83C414.21,264.08,416.77,272.43,422.93,278Z"/><path class="cls-2" d="M492.42,303.87a6.91,6.91,0,0,0,10-2.64,7,7,0,0,0,.11-6.21,5.67,5.67,0,0,0-5.39-3.19,6.49,6.49,0,0,0-2.9.9,4.27,4.27,0,0,0-2,.43,5.66,5.66,0,0,0-2.93,5.65A7.17,7.17,0,0,0,492.42,303.87Z"/><path class="cls-2" d="M134.71,323.71a7.64,7.64,0,0,0-5.67-.77,2.45,2.45,0,0,0-3.53,1c-1.6,3.47-3.27,6.88-1.56,10.66a7.46,7.46,0,0,0,7.23,4.63C138.62,338.66,141.27,327.4,134.71,323.71Z"/></svg>