<svg id="Layer_1" data-name="Layer 1" xmlns="http://www.w3.org/2000/svg" viewBox="0 0 600 600"><defs><style>.cls-1{fill:#f2b879;}.cls-2{fill:#fff200;}.cls-3{fill:#fff;}.cls-4{fill:#231f20;}</style></defs><title>doodle</title><path class="cls-1" d="M380.51,277.46A14.2,14.2,0,0,0,376.39,267c-9.67,4.82-20.8,6.57-31.23,9-9.12,2.11-20.22,6.43-30,5.48-5.81,4.37-12.92,10.53-8,17,3.06,4,12.74,1.18,16.94.6,5.09-.72,10.16-1.64,15.2-2.66a226,226,0,0,0,30.74-8.59C375.79,285.73,380.59,284.46,380.51,277.46Z"/><path class="cls-1" d="M155.59,352.3q11.08-7.47,22.81-13.89a281.42,281.42,0,0,1,48.27-21c17.92-5.8,36.72-9.69,55.64-8.06a117.17,117.17,0,0,1,13.18,1.9,65.47,65.47,0,0,1,7.9,1.73,16.2,16.2,0,0,1,6.34-5.94,11.73,11.73,0,0,1-9.13-7.21c-3.44-8.43,1.1-15.63,7.7-20.24-7-3.3-11.41-10.79-8.14-18.55,3.78-9,14.77-13.73,23.25-17,10.32-4,21.23-6.16,31.65-9.87,5.69-2,12.23-4.47,16.43-9s4.85-10.74-.38-14.43c-8.57-6.08-23-5.35-32.92-5-11.2.4-21.73,3.4-32.63,5.13.62,3.15,1.17,6.26,1.65,9.29.87,5.43-7.29,7.86-8.39,2.31C293.58,196,287,160.2,258.49,150.38c6.33,17.41,13.34,35.22,16,53.44,2.17,14.76.63,30.7-8.26,43.13-8.19,11.47-21,18.85-34.42,22.58-16.7,4.64-34.36,3.94-51.52,3.73-16.83-.2-33.82.24-50.59-1.33q1.75,14,3.54,27.95,4,31.26,8.23,62.49c1.06-.79,2.15-1.54,3.22-2.34C148.25,357.35,151.9,354.79,155.59,352.3Z"/><path class="cls-1" d="M371.76,296.46c-3.15,1-6.34,1.84-9.23,2.7A207.41,207.41,0,0,1,337.44,305c-5.75.95-11.76,1.92-17.69,2.3a1.86,1.86,0,0,1-.55.6c-3.12,2.1-8.33,4.14-9.08,8.34-1.11,6.29,6.62,5.77,10.68,5,8.38-1.54,16.68-3.67,25-5.49,4.19-.92,8.38-1.8,12.57-2.69,3.66-.78,8-1.25,11.16-3.43C374.51,306.21,373.57,301.14,371.76,296.46Z"/><path class="cls-1" d="M365.51,321.36a4.27,4.27,0,0,1-.65-1.12c-.43.11-.86.21-1.3.3-7.61,1.65-15.27,3.14-22.91,4.66-6.1,1.21-15.3,4.4-23.3,4.36-1.29,1.61-2.55,3.2-2.58,5.37-.07,4.47,4.47,5.24,8.29,5,6-.35,11.67-2.87,17.19-5.1a73.07,73.07,0,0,1,17-5c2.86-.41,7.76-.54,9.81-3C369.36,324.06,367.22,323.33,365.51,321.36Z"/><path class="cls-2" d="M116.87,168.37c4,32.47,8,65,12.07,97.43,19.82-1.66,40-.62,59.83-.59,19.19,0,39.56-.37,56.52-10.53,17.21-10.32,23.46-28.3,21.08-47.7-2.57-20.93-11.8-41.47-18.34-61.39-1.06-3.23,2.19-5.61,5.08-5.08,31.55,5.75,44.87,36.24,51.3,64.92,9.36-4.6,20.71-6.12,30.82-7,10.82-.92,23.26-1.28,33.69,2.23,7.25,2.44,13.77,7.56,14.28,15.73,0,.44,0,.87,0,1.3,14.76,11.54,13.19,32.82.41,44.38,7.82,5.94,7,23.17,0,28.67a27.44,27.44,0,0,1-4.23,2.65c3.74,5.48,2.95,14.22-1.11,19.5a16.28,16.28,0,0,1-4.39,3.91c3.4,3.52,3.82,11.16.37,15.16s-8.1,5.24-13,6a88.64,88.64,0,0,0-18.82,5c-9.08,3.42-22.65,8.59-31,.86-4.62-4.27-4.4-10.88-1-15.33a12.44,12.44,0,0,1-6.15-4.79,12.09,12.09,0,0,1-1.81-3.94c-5.95-1.94-20.59-3.26-22.19-3.31a102.87,102.87,0,0,0-23.69,1.81c-14.59,2.9-28.92,8-42.71,13.52a280.66,280.66,0,0,0-39.09,19.35q-9.44,5.61-18.42,11.92c-4,2.83-8.59,7.61-13.48,9.53q1.83,13.51,3.69,27c1.23,8.91,3.21,18.12,3.52,27.19,23.71-3.17,47.79-4.52,71.61-6.45,45.06-3.66,90.19-6.59,135.33-9.15q34.39-2,68.82-3.49,16.94-.75,33.87-1.41c10.77-.41,22.17-1.88,32.93-.79,1.55-2.36.58-7.43.29-9.66-.84-6.5-1.72-13-2.54-19.49q-2.37-19-4.68-37.91-8.15-67.17-15.2-134.47c-4.52-43.84-9.19-87.7-12-131.69-25.35,3.2-50.79,5.67-76.26,7.71-46.14,3.69-92.36,6-138.55,8.89-45.09,2.79-90.07,6.73-135,11.13,0,.38,0,.77,0,1.16,2.4,10.15,2.83,21.18,4,31.35C114.05,144.43,115.38,156.41,116.87,168.37Zm120.21,185.5c-4.32,7.57-13.14,13.67-19.69,19.29A218.57,218.57,0,0,1,195.65,390c-2.05,1.35-4.21-1.66-2.56-3.32,6.53-6.59,13.49-12.7,20.27-19C219.48,362,225.76,354,233.18,350A2.87,2.87,0,0,1,237.08,353.87Zm95.48,42.06a2.23,2.23,0,0,1-4.36.59c-1.78-5-2.37-10.46-3.1-15.68-.79-5.65-1.69-11.53-1.33-17.24a2,2,0,0,1,4-.54c1.93,5.39,2.69,11.3,3.48,17C332,385.22,332.9,390.68,332.56,395.93Zm84.72-212.48c1.26-5.46,6.28-10.63,10-14.67,4.34-4.71,9.12-8.09,14.2-11.87,2.29-1.7,5,2,3,3.89A145.72,145.72,0,0,0,432.55,174c-3.52,4.18-6.45,9.58-10.84,12.82C419.45,188.52,416.74,185.76,417.28,183.45Zm-6,113.58c7.83-1.49,16.32-.75,24.28-1,8.52-.27,17.13-.57,25.63-1.29,2.77-.24,3.33,4.27.65,4.82a176.94,176.94,0,0,1-25.21,3.6c-8.14.48-17.44,1.15-25.35-1.19C409,301.3,408.68,297.52,411.28,297Zm-14.35,62.15c6.16,2.32,11.72,7.39,16.78,11.57a103.19,103.19,0,0,1,16,16.24c1.09,1.4-.31,3.81-2.07,2.67-5.79-3.77-11.18-7.76-16.59-12.05s-12.39-8.46-16.75-13.89C392.79,361.86,394.1,358.12,396.93,359.18ZM361.72,155.6c1-6.4,5-12.91,8-18.59s5.82-12.74,10.92-16.72c1.29-1,4.07-.59,3.79,1.57-.83,6.43-4.89,12.31-7.76,18-3.09,6.14-5.62,13.26-10.09,18.52C364.46,160.86,361.33,158.12,361.72,155.6Zm-177.28.06c6,3.38,11.88,6.81,17.74,10.39,5.34,3.27,11.31,6.21,15.76,10.68,1.6,1.61,0,4.76-2.31,4-6-2.07-11.18-6.1-16.45-9.51-5.78-3.73-11.44-7.57-17.09-11.5C179.66,158,181.8,154.17,184.44,155.66Zm-15,53.93a317.45,317.45,0,0,1,32.16,4.72l16.69,3.07c5,.91,10.54,1.5,15,4.09,2.16,1.25,1.93,5.08-.73,5.59-9.71,1.86-21.6-2.25-31.11-4.27a195,195,0,0,1-32.53-9.43C167.08,212.62,167.09,209.41,169.43,209.59Z"/><path class="cls-1" d="M380.69,226.53a28.81,28.81,0,0,1-11.07,10.27c-17.72,9.76-39.72,9.78-56.45,21.52-5.64,3.95-8.9,11.19-.59,14.29,5.1,1.91,11.3-.15,16.33-1.32,10.9-2.54,21.92-4.81,32.73-7.74,9.22-2.5,19.55-6.6,22.85-16.45C386.94,239.81,385.16,232.37,380.69,226.53Z"/><path class="cls-3" d="M62.42,74.58q3,15.21,5.56,30.5c20.82,123,27.55,247.67,40.9,371.55,3.32,30.87,6.33,62,11.43,92.63.46,2.77.91,6.09,2.59,8.43,2.26,3.14,5.75,2.94,9.25,2.91,7.33-.06,14.65-.45,22-.77q24.16-1.05,48.32-2.23,96.09-4.71,192.07-11.18,47.73-3.2,95.41-6.84c8.34-.64,16.73-1.1,25.05-2,5.23-.55,11.12-1.4,15.55-4.48,6.17-4.29,6.3-11.66,5.93-18.49-.41-7.46-1.05-14.91-1.59-22.36Q527.92,415.51,521,318.75q-6.86-95.66-13.76-191.32-1.74-24.18-3.47-48.38c-1.13-15.82-1.25-32.1-3.44-47.8-1.05-7.58-6.95-7.62-13.46-7.06-7.39.64-14.76,1.56-22.15,2.21-15.19,1.33-30.41,2.27-45.64,2.94-119.31,5.29-241.06-6-357.92,24,.78,6.12,1.44,12.25,2.16,18.38A3.59,3.59,0,0,1,62.42,74.58Zm62.25,386.26c-3.23-12.16-3.88-25.3-5.6-37.75-1.65-12-3.62-23.94-4.81-36-.07-.72,1.08-.85,1.23-.17,2.82,12.4,4.63,25,6.55,37.58,1.8,11.79,4.52,24.12,4.47,36.07A.94.94,0,0,1,124.67,460.84Zm6.73,39.81a105.94,105.94,0,0,1-5.15-26.1c0-.82,1.11-.86,1.36-.18a106.66,106.66,0,0,1,5.61,26C133.32,501.5,131.71,501.59,131.4,500.65ZM503.2,189.52c-.26,1-1.52.64-1.63-.22-.51-3.89-.32-7.7-1.43-11.54-.28-1,1.18-1.36,1.52-.42C503,181.08,504.22,185.55,503.2,189.52Zm-9.93-96.91c.14-.42.87-.51,1,0,1,6.17.93,12.39,2.11,18.59,1.09,5.69,2.16,11.39,3,17.13,1.58,10.87,4,23.06,2.38,34-.14.94-1.61.85-1.81,0-1.4-5.83-1.42-12-2-18-.57-6.46-1.34-12.9-2.25-19.32C494.27,115,490.18,102.56,493.27,92.61Zm-391,3.94a2.65,2.65,0,0,1,2.13-2.41,3.37,3.37,0,0,1,.34-.1c25.64-4.39,51.45-7.3,77.35-9.62C274.63,76.11,367.67,73.77,459.92,62c3.9-.5,5.39,3,4.53,6.05a.24.24,0,0,0,0,.08c3.36,27.49,6.08,55,8.95,82.57q7.47,71.67,15.93,143.23,4.29,36.32,8.87,72.6c1.4,11.12,4,22.78,4.12,34,.05,7-2.73,14.09-10.47,14.58a3.82,3.82,0,0,1-1.5-.21c-11.13,1.42-22.83.85-34,1.26q-19.12.71-38.24,1.52c-45.16,1.95-90.3,4.26-135.41,7.18q-34.38,2.22-68.73,4.76c-21.9,1.59-43.87,4.05-65.82,4.85a4,4,0,0,1-6-2.21c-3.84-11.93-4.37-25.36-6-37.74q-2.35-17.46-4.65-34.92-8.63-65.65-16.39-131.42c-2.58-22.1-4.89-44.21-7.3-66.33-1.18-10.88-2.4-21.75-3.49-32.64C103.3,118.55,101.2,107.24,102.25,96.55Z"/><path class="cls-4" d="M52.26,61.2a5.07,5.07,0,0,0,.06.65c.25,1.36.5,2.72.74,4.09.4,2.32.8,4.65,1.19,7a3.91,3.91,0,0,0,.24.88C76.73,198.59,84.37,325,96.7,451.05c3.16,32.34,6.71,64.64,11,96.85,1,7.49,2,15,3.14,22.48.85,5.43,2.16,11.21,6.24,15.21s9.66,4.35,15,4.08c8.42-.42,16.84-.86,25.27-1.22q99.93-4.28,199.79-10.41,49.94-3.12,99.82-6.73,25.22-1.81,50.42-3.76c11.23-.87,24.63-1.37,32.64-10.51,8.95-10.23,5.51-25.91,4.64-38.18q-1.79-25.29-3.58-50.57-3.57-50.58-7.16-101.16Q526.91,267.07,519.85,167q-3.48-49.47-7-98.95l-1.71-24.19c-.47-6.64.19-15.31-3-21.4-6.33-11.92-22.36-8.06-33.08-7C349.87,27.77,222.91,12,98.59,34.69q-22.4,4.08-44.4,9.92c-2.89.77-3.93,3.55-3.55,6.25C51.13,54.32,51.69,57.76,52.26,61.2Zm366.8-31.86c15.23-.67,30.45-1.61,45.64-2.94,7.39-.65,14.76-1.57,22.15-2.21,6.51-.56,12.41-.52,13.46,7.06,2.19,15.7,2.31,32,3.44,47.8q1.74,24.2,3.47,48.38,6.9,95.65,13.76,191.32,6.94,96.76,13.88,193.52c.54,7.45,1.18,14.9,1.59,22.36.37,6.83.24,14.2-5.93,18.49-4.43,3.08-10.32,3.93-15.55,4.48-8.32.88-16.71,1.34-25.05,2q-47.68,3.64-95.41,6.84-96,6.44-192.07,11.18-24.15,1.17-48.32,2.23c-7.32.32-14.64.71-22,.77-3.5,0-7,.23-9.25-2.91-1.68-2.34-2.13-5.66-2.59-8.43-5.1-30.63-8.11-61.76-11.43-92.63C95.53,352.75,88.8,228.06,68,105.08q-2.6-15.28-5.56-30.5a3.59,3.59,0,0,0,.88-2.89c-.72-6.13-1.38-12.26-2.16-18.38C178,23.31,299.75,34.63,419.06,29.34Z"/><path class="cls-4" d="M107.86,161.84c2.41,22.12,4.72,44.23,7.3,66.33q7.68,65.78,16.39,131.42,2.3,17.46,4.65,34.92c1.67,12.38,2.2,25.81,6,37.74a4,4,0,0,0,6,2.21c21.95-.8,43.92-3.26,65.82-4.85q34.36-2.5,68.73-4.76c45.11-2.92,90.25-5.23,135.41-7.18q19.11-.81,38.24-1.52c11.13-.41,22.83.16,34-1.26a3.82,3.82,0,0,0,1.5.21c7.74-.49,10.52-7.63,10.47-14.58-.09-11.2-2.72-22.86-4.12-34q-4.59-36.29-8.87-72.6-8.43-71.55-15.93-143.23c-2.87-27.54-5.59-55.08-8.95-82.57a.24.24,0,0,1,0-.08c.86-3-.63-6.55-4.53-6.05-92.25,11.76-185.29,14.1-277.85,22.41-25.9,2.32-51.71,5.23-77.35,9.62a3.37,3.37,0,0,0-.34.1,2.65,2.65,0,0,0-2.13,2.41c-1,10.69,1,22,2.12,32.65C105.46,140.09,106.68,151,107.86,161.84Zm33.62,200.53q-4.2-31.23-8.23-62.49-1.78-14-3.54-27.95c16.77,1.57,33.76,1.13,50.59,1.33,17.16.21,34.82.91,51.52-3.73,13.41-3.73,26.23-11.11,34.42-22.58,8.89-12.43,10.43-28.37,8.26-43.13-2.67-18.22-9.68-36-16-53.44C287,160.2,293.58,196,298.82,222.47c1.1,5.55,9.26,3.12,8.39-2.31-.48-3-1-6.14-1.65-9.29,10.9-1.73,21.43-4.73,32.63-5.13,9.95-.35,24.35-1.08,32.92,5,5.23,3.69,4.45,10,.38,14.43s-10.74,7-16.43,9c-10.42,3.71-21.33,5.87-31.65,9.87-8.48,3.29-19.47,8-23.25,17-3.27,7.76,1.18,15.25,8.14,18.55-6.6,4.61-11.14,11.81-7.7,20.24a11.73,11.73,0,0,0,9.13,7.21,16.2,16.2,0,0,0-6.34,5.94,65.47,65.47,0,0,0-7.9-1.73,117.17,117.17,0,0,0-13.18-1.9c-18.92-1.63-37.72,2.26-55.64,8.06a281.42,281.42,0,0,0-48.27,21q-11.72,6.4-22.81,13.89c-3.69,2.49-7.34,5.05-10.89,7.73C143.63,360.83,142.54,361.58,141.48,362.37Zm216.89-49.29c-4.19.89-8.38,1.77-12.57,2.69-8.32,1.82-16.62,4-25,5.49-4.06.74-11.79,1.26-10.68-5,.75-4.2,6-6.24,9.08-8.34a1.86,1.86,0,0,0,.55-.6c5.93-.38,11.94-1.35,17.69-2.3a207.41,207.41,0,0,0,25.09-5.83c2.89-.86,6.08-1.69,9.23-2.7,1.81,4.68,2.75,9.75-2.23,13.19C366.37,311.83,362,312.3,358.37,313.08Zm8.73,13.74c-2.05,2.5-7,2.63-9.81,3a73.07,73.07,0,0,0-17,5c-5.52,2.23-11.17,4.75-17.19,5.1-3.82.22-8.36-.55-8.29-5,0-2.17,1.29-3.76,2.58-5.37,8,0,17.2-3.15,23.3-4.36,7.64-1.52,15.3-3,22.91-4.66.44-.09.87-.19,1.3-.3a4.27,4.27,0,0,0,.65,1.12C367.22,323.33,369.36,324.06,367.1,326.82Zm3-39.06a226,226,0,0,1-30.74,8.59c-5,1-10.11,1.94-15.2,2.66-4.2.58-13.88,3.41-16.94-.6-4.94-6.47,2.17-12.63,8-17,9.78.95,20.88-3.37,30-5.48,10.43-2.41,21.56-4.16,31.23-9a14.2,14.2,0,0,1,4.12,10.51C380.59,284.46,375.79,285.73,370.06,287.76Zm-8.42-24.21c-10.81,2.93-21.83,5.2-32.73,7.74-5,1.17-11.23,3.23-16.33,1.32-8.31-3.1-5.05-10.34.59-14.29,16.73-11.74,38.73-11.76,56.45-21.52a28.81,28.81,0,0,0,11.07-10.27c4.47,5.84,6.25,13.28,3.8,20.57C381.19,257,370.86,261.05,361.64,263.55ZM108.69,100c45-4.4,89.94-8.34,135-11.13,46.19-2.86,92.41-5.2,138.55-8.89,25.47-2,50.91-4.51,76.26-7.71,2.77,44,7.44,87.85,12,131.69q6.94,67.31,15.2,134.47,2.31,19,4.68,37.91c.82,6.5,1.7,13,2.54,19.49.29,2.23,1.26,7.3-.29,9.66-10.76-1.09-22.16.38-32.93.79q-16.94.66-33.87,1.41-34.43,1.51-68.82,3.49c-45.14,2.56-90.27,5.49-135.33,9.15-23.82,1.93-47.9,3.28-71.61,6.45-.31-9.07-2.29-18.28-3.52-27.19s-2.47-18-3.69-27c4.89-1.92,9.45-6.7,13.48-9.53q9-6.32,18.42-11.92a280.66,280.66,0,0,1,39.09-19.35c13.79-5.52,28.12-10.62,42.71-13.52a102.87,102.87,0,0,1,23.69-1.81c1.6.05,16.24,1.37,22.19,3.31a12.09,12.09,0,0,0,1.81,3.94,12.44,12.44,0,0,0,6.15,4.79c-3.36,4.45-3.58,11.06,1,15.33,8.39,7.73,22,2.56,31-.86a88.64,88.64,0,0,1,18.82-5c4.87-.72,9.64-2.1,13-6s3-11.64-.37-15.16a16.28,16.28,0,0,0,4.39-3.91c4.06-5.28,4.85-14,1.11-19.5a27.44,27.44,0,0,0,4.23-2.65c7-5.5,7.83-22.73,0-28.67,12.78-11.56,14.35-32.84-.41-44.38,0-.43,0-.86,0-1.3-.51-8.17-7-13.29-14.28-15.73-10.43-3.51-22.87-3.15-33.69-2.23-10.11.86-21.46,2.38-30.82,7-6.43-28.68-19.75-59.17-51.3-64.92-2.89-.53-6.14,1.85-5.08,5.08,6.54,19.92,15.77,40.46,18.34,61.39,2.38,19.4-3.87,37.38-21.08,47.7-17,10.16-37.33,10.56-56.52,10.53-19.86,0-40-1.07-59.83.59-4.07-32.47-8-65-12.07-97.43-1.49-12-2.82-23.94-4.21-35.91-1.19-10.17-1.62-21.2-4-31.35C108.66,100.72,108.68,100.33,108.69,100Z"/><path class="cls-4" d="M168.92,213.36a195,195,0,0,0,32.53,9.43c9.51,2,21.4,6.13,31.11,4.27,2.66-.51,2.89-4.34.73-5.59-4.47-2.59-10-3.18-15-4.09l-16.69-3.07a317.45,317.45,0,0,0-32.16-4.72C167.09,209.41,167.08,212.62,168.92,213.36Z"/><path class="cls-4" d="M182.09,159.68c5.65,3.93,11.31,7.77,17.09,11.5,5.27,3.41,10.49,7.44,16.45,9.51,2.3.8,3.91-2.35,2.31-4-4.45-4.47-10.42-7.41-15.76-10.68-5.86-3.58-11.76-7-17.74-10.39C181.8,154.17,179.66,158,182.09,159.68Z"/><path class="cls-4" d="M366.54,158.41c4.47-5.26,7-12.38,10.09-18.52,2.87-5.72,6.93-11.6,7.76-18,.28-2.16-2.5-2.58-3.79-1.57-5.1,4-8,11.11-10.92,16.72s-7,12.19-8,18.59C361.33,158.12,364.46,160.86,366.54,158.41Z"/><path class="cls-4" d="M421.71,186.85c4.39-3.24,7.32-8.64,10.84-12.82A145.72,145.72,0,0,1,444.5,160.8c2-1.87-.71-5.59-3-3.89-5.08,3.78-9.86,7.16-14.2,11.87-3.74,4-8.76,9.21-10,14.67C416.74,185.76,419.45,188.52,421.71,186.85Z"/><path class="cls-4" d="M411.28,302c7.91,2.34,17.21,1.67,25.35,1.19a176.94,176.94,0,0,0,25.21-3.6c2.68-.55,2.12-5.06-.65-4.82-8.5.72-17.11,1-25.63,1.29-8,.25-16.45-.49-24.28,1C408.68,297.52,409,301.3,411.28,302Z"/><path class="cls-4" d="M394.29,363.72c4.36,5.43,11.3,9.55,16.75,13.89s10.8,8.28,16.59,12.05c1.76,1.14,3.16-1.27,2.07-2.67a103.19,103.19,0,0,0-16-16.24c-5.06-4.18-10.62-9.25-16.78-11.57C394.1,358.12,392.79,361.86,394.29,363.72Z"/><path class="cls-4" d="M327.74,363.06a2,2,0,0,0-4,.54c-.36,5.71.54,11.59,1.33,17.24.73,5.22,1.32,10.72,3.1,15.68a2.23,2.23,0,0,0,4.36-.59c.34-5.25-.61-10.71-1.34-15.91C330.43,374.36,329.67,368.45,327.74,363.06Z"/><path class="cls-4" d="M233.18,350c-7.42,4-13.7,12-19.82,17.69-6.78,6.34-13.74,12.45-20.27,19-1.65,1.66.51,4.67,2.56,3.32a218.57,218.57,0,0,0,21.74-16.87c6.55-5.62,15.37-11.72,19.69-19.29A2.87,2.87,0,0,0,233.18,350Z"/><path class="cls-4" d="M497.94,144.34c.54,6,.56,12.18,2,18,.2.85,1.67.94,1.81,0,1.59-11-.8-23.15-2.38-34-.84-5.74-1.91-11.44-3-17.13-1.18-6.2-1.13-12.42-2.11-18.59-.08-.51-.81-.42-1,0-3.09,10,1,22.41,2.42,32.41C496.6,131.44,497.37,137.88,497.94,144.34Z"/><path class="cls-4" d="M500.14,177.76c1.11,3.84.92,7.65,1.43,11.54.11.86,1.37,1.21,1.63.22,1-4-.19-8.44-1.54-12.18C501.32,176.4,499.86,176.77,500.14,177.76Z"/><path class="cls-4" d="M126.51,460.59c0-11.95-2.67-24.28-4.47-36.07-1.92-12.56-3.73-25.18-6.55-37.58-.15-.68-1.3-.55-1.23.17,1.19,12,3.16,24,4.81,36,1.72,12.45,2.37,25.59,5.6,37.75A.94.94,0,0,0,126.51,460.59Z"/><path class="cls-4" d="M126.25,474.55a105.94,105.94,0,0,0,5.15,26.1c.31.94,1.92.85,1.82-.25a106.66,106.66,0,0,0-5.61-26C127.36,473.69,126.2,473.73,126.25,474.55Z"/></svg>