<svg id="Layer_1" data-name="Layer 1" xmlns="http://www.w3.org/2000/svg" viewBox="0 0 600 600"><defs><style>.cls-1{fill:#88e0ff;}.cls-2{fill:#fff200;}.cls-3{fill:#f7941e;}.cls-4{fill:#fff;}.cls-5{fill:#231f20;}</style></defs><title>doodle</title><path class="cls-1" d="M90.55,294.56c26.94,6.67,55.5,3.53,82.92,2.86,59-1.45,117.92-.16,176.86,2.27,29.69,1.22,59.37,2.64,89.06,4q21.81,1,43.63,1.9c13.47.55,27.18,1.14,40.52-1.17,22.53-3.89,47.8-18.76,48-44.45.09-11.74-3.65-29-14.82-35.19-8.52-4.76-20.31-3.57-27.3,3.35-4.16,4.11-9.81-1.1-7.62-5.88,13-28.26,7.49-61.14-8.41-87-13.18-21.44-33.09-38.12-54.74-50.55-23.06-13.23-49.51-21.92-76.3-21.38-25.3.51-49.14,10.34-66.25,29.15a91.43,91.43,0,0,0-23.82,63.72c.16,5.62-6.95,6.6-9.79,2.65-16-22.24-46.14-33.69-72.78-26.93s-48,30.93-51.4,58.32c-.8,6.44-10.94,6.54-10.26.1-20.31-21.08-53.6-15.3-76.92-1.58-21.82,12.84-40.73,36.39-32.29,63C46.08,274.54,68.32,289.07,90.55,294.56Zm438.76-4.18c1.32-.15,2.42-2.42,3.14-3.39s1.34-1.76,2-2.63c1.33-1.7,2.69-4,4.93-4.48a.93.93,0,0,1,1.16.88c-.09,3.1-3.67,6-5.64,8.13-1.49,1.61-3.55,4.24-6,2.91C528.2,291.41,528.62,290.46,529.31,290.38Zm-17.59-100c1.64,4.08,1.64,9.21-1.16,12.78-.59.75-1.84.09-1.83-.76.07-3.94.73-7.69.41-11.67C509,189.07,511.22,189.08,511.72,190.33Zm-28.09-73.28c8.72,7.77,15.69,16.23,20.37,27,4.05,9.38,7.83,21.47,5.65,31.75a1.44,1.44,0,0,1-2.75,0c-2.48-10.22-2.86-20.15-6.92-30.06a85.83,85.83,0,0,0-17.63-27.45C481.53,117.5,482.77,116.28,483.63,117.05ZM470.74,293.34c9,.69,18,1.19,27,1.64,8.05.4,15.34-.32,23.27-1,1.08-.09,1.49,1.34.84,2-5,5.4-15.1,3.48-21.65,3.1a201.51,201.51,0,0,1-29.74-4A.88.88,0,0,1,470.74,293.34ZM440,220.3c4.82-2.71,10.49-1.4,15.34.44a2.75,2.75,0,0,1,1.06.73,12.24,12.24,0,0,1,3.85,2.09,12.87,12.87,0,0,1,3.75,5.21c3.56,6.44,2,15.48-5.11,19.74-10.81,6.5-23.05-2.54-24.59-13.91C433.6,229.23,435,223.14,440,220.3ZM271.17,152.23c1,.9,2.11,1.74,3.13,2.65a7.34,7.34,0,0,1,2.27,3,.92.92,0,0,1-1.13,1.12,7.23,7.23,0,0,1-3-2.26c-.91-1-1.75-2.1-2.65-3.13A1,1,0,0,1,271.17,152.23Zm-5.38,84.91c.65,6.32,1.86,12.13,7.6,15.84,4.17,2.7,10.47,4.1,15.32,2.77,13.48-3.68,4.79-23.55,10.09-31.61.82-1.25,2.7-2,4.06-1.07,7.53,5.29,4.71,19.73,2.21,27.23-2.76,8.29-8.14,14.37-17.21,15.18-14.81,1.31-37.4-12.81-28-30C261.52,232.54,265.49,234.23,265.79,237.14Zm-47.56-97.47c8-1.13,15.75-4.49,24-3.23a33.65,33.65,0,0,1,18.6,9.69c.61.63,0,1.92-.92,1.57-6.3-2.33-11.6-6.84-18.33-8.11-7.59-1.43-15.48,1.26-23.05,1.87C217.45,141.54,217.22,139.81,218.23,139.67ZM129,187.87c2.21.82,5.94,1.85,5.62,4.91a1.12,1.12,0,0,1-1.39,1.06c-2.25-.4-3.17-2.9-5.11-3.89C127,189.37,127.8,187.43,129,187.87Zm-4.2,52.27a12,12,0,0,1,8-7.24c7.14-2,15.27,2,17.2,9.32A15.15,15.15,0,0,1,140.43,260c-7,2.27-15.48-1.32-17.8-8.48A12.88,12.88,0,0,1,124.81,240.14Zm-46.12-49c4.67-6.1,12.9-8.19,20.16-9.51s17.16-1.76,22.46,4.22a1.07,1.07,0,0,1-1,1.77c-7.24-1.43-13.16-3.5-20.72-2.46-6.59.91-14.47,2.29-19.34,7.17C79.46,193.12,78,192.07,78.69,191.17Zm-19,61.59c2.83,9,9.56,16.32,17.63,21,8.68,5,18,5.55,27.16,8.63a1.54,1.54,0,0,1-.41,3c-19.53,1-41.85-12.47-45.86-32.2A.77.77,0,0,1,59.67,252.76Z"/><path class="cls-2" d="M423,314c-1.95,5.05-4,10.08-5.72,15.22A117.82,117.82,0,0,1,411,344.94l24.5-2c4-.32,5.9,4.41,4.3,7.5q-12.48,24.07-25,48.12l14.42-10.23c5.27-6.05,11-11.79,16.15-17.78q6.81-7.94,13.46-16c2-2.49,4-5.21,6.09-7.73l-3.86.06c-3.56.09-6.49-4.38-4.3-7.48,5.36-7.61,10.57-15.38,16-22.93-9.41-.42-18.83-.95-28.24-1.4Z"/><path class="cls-3" d="M461.39,357.1q-6.19,7.66-12.59,15.15c-1.51,1.77-3,3.58-4.54,5.41q21.54-15.27,43.07-30.55-8.88-.37-17.76-.36C467.22,350.44,464.09,353.75,461.39,357.1Z"/><path class="cls-3" d="M419.25,313.81l-1.47-.07a224.48,224.48,0,0,1-18.32,32.15l7.26-.6c2.81-6.76,5.72-13.41,8.17-20.34A114.69,114.69,0,0,1,419.25,313.81Z"/><path class="cls-4" d="M136.17,248c2.35-.5,2.76-3.37,3.94-5.37a3.52,3.52,0,0,0-.35-.31c-2.1-1.6-6.13-1.39-6.58,1.7C132.91,245.85,134,248.45,136.17,248Z"/><path class="cls-4" d="M453.9,234.19a6,6,0,0,1-.09-1.91,3.3,3.3,0,0,0-4.84,1.11C445.93,238,455.17,240.16,453.9,234.19Z"/><path class="cls-2" d="M344.8,329.8c-3.66-.17-7-4.47-4.55-7.93,2.68-3.8,5.39-7.58,8.09-11.37l-7-.31q-21.82-.92-43.68-1.59c-2.09,4.74-4,9.49-5.73,14.42-1.4,4-2.85,8.64-5.7,11.9l30-1.48c4.66-.23,5.94,5.36,3.48,8.4-15.56,19.29-31.36,38.38-47.16,57.48,12.49-.93,25-1.95,37.46-2.83,4.46-.32,6.73,5.83,3.63,8.75-1.56,1.47-3.09,2.95-4.63,4.43-3.6,7.72-9.2,14.85-14.11,21.61-5.91,8.15-12.08,16.11-18.28,24-6.93,8.87-13.93,17.69-20.63,26.74-3.64,4.93-7,10.11-10.37,15.23,43.4-34.59,89.31-66,130.93-102.79a171.57,171.57,0,0,0-42.85-6.36,5.73,5.73,0,0,1-5.19-4.2,1.25,1.25,0,0,1-.25-1.55l.15-.3a4.45,4.45,0,0,1,.75-1.85l.69-1c8.48-16.72,18-33,26.89-49.56A112.2,112.2,0,0,1,344.8,329.8Z"/><path class="cls-3" d="M101.55,478.61l-.63.86c49-40.23,98.65-79.51,149.86-116.87q-7-1.35-14.16-2.38-38.07,33.09-76.2,66.13C140.6,443.51,121.27,461.31,101.55,478.61Z"/><path class="cls-3" d="M175.12,307.69l-11.67.24c-13,17-26.17,33.83-38.6,51.27l5.71-.5c6.36-9.31,14.76-17.45,22.22-25.82S167.25,315.6,175.12,307.69Z"/><path class="cls-3" d="M367.32,328.58c-1.95.3-3.92.55-5.89.75-3.67,7.29-7.43,14.63-11.35,21.9Q358.59,339.82,367.32,328.58Z"/><path class="cls-2" d="M180.55,307.58c-7.06,9.19-15.58,17.5-23.36,26.08-7.39,8.15-14.5,17.24-22.72,24.7,18.63-1.64,37.27-3.48,55.9-5.08,4.54-.39,5.75,5.32,3.39,8.18-27.39,33.2-54.58,66.51-80.29,101,14.66-13.08,29.78-25.72,44.45-38.57q36.77-32.22,73.64-64.31-5.51-.72-11.05-1.24c-3.57-.32-7-4.34-4.52-7.89q15.58-22,32.52-43.05c-3.93-.07-7.86-.16-11.78-.22C218,306.88,199.27,307.2,180.55,307.58Z"/><path class="cls-3" d="M294,308.49l-9.13-.3a182.86,182.86,0,0,1-14.4,27.48l12-.57s0-.07,0-.11c2.25-5.9,5.32-11.49,7.53-17.49A53.11,53.11,0,0,1,294,308.49Z"/><path class="cls-3" d="M270.93,456.1c7-8.85,14-17.67,20.63-26.74,1.74-2.36,3.4-4.82,5.06-7.29a475.83,475.83,0,0,0-66.08,87.4c1.57-1.3,3.15-2.58,4.73-3.87,4.47-9.08,11.22-17.49,17.21-25.57S264.7,464,270.93,456.1Z"/><path class="cls-5" d="M259.88,235.53c-9.42,17.14,13.17,31.26,28,30,9.07-.81,14.45-6.89,17.21-15.18,2.5-7.5,5.32-21.94-2.21-27.23-1.36-1-3.24-.18-4.06,1.07-5.3,8.06,3.39,27.93-10.09,31.61-4.85,1.33-11.15-.07-15.32-2.77-5.74-3.71-6.95-9.52-7.6-15.84C265.49,234.23,261.52,232.54,259.88,235.53Z"/><path class="cls-5" d="M140.43,260a15.15,15.15,0,0,0,9.62-17.81c-1.93-7.35-10.06-11.27-17.2-9.32a12,12,0,0,0-8,7.24,12.88,12.88,0,0,0-2.18,11.41C125,258.71,133.48,262.3,140.43,260Zm-7.25-16c.45-3.09,4.48-3.3,6.58-1.7a3.52,3.52,0,0,1,.35.31c-1.18,2-1.59,4.87-3.94,5.37C134,248.45,132.91,245.85,133.18,244Z"/><path class="cls-5" d="M458.92,248.51c7.09-4.26,8.67-13.3,5.11-19.74a12.87,12.87,0,0,0-3.75-5.21,12.24,12.24,0,0,0-3.85-2.09,2.75,2.75,0,0,0-1.06-.73c-4.85-1.84-10.52-3.15-15.34-.44-5,2.84-6.43,8.93-5.7,14.3C435.87,246,448.11,255,458.92,248.51ZM449,233.39a3.3,3.3,0,0,1,4.84-1.11,6,6,0,0,0,.09,1.91C455.17,240.16,445.93,238,449,233.39Z"/><path class="cls-5" d="M53.18,286.85c22.85,18.27,52.54,21.68,80.89,21.5q9-.06,17.91-.22c-14.42,17.14-27.53,35.47-40,54-1.78,2.65.54,7,3.82,6.66,21.19-1.95,42.45-3.41,63.68-5.08-37.63,45.38-75.28,91-107.78,140.28-3.27,4.95,3.72,9.44,7.77,6,60.08-51.18,123-99.11,186.76-145.52,3.42-2.49,3.58-8.63-1.27-9.73a326.54,326.54,0,0,0-35-6q14.82-20.62,30.9-40.32a4.77,4.77,0,0,0,.59-.87l14.13.36c-5.55,10.33-11.23,20.57-17.76,30.36-1.9,2.85.59,7,4,6.89,14.53-.64,29.06-1.09,43.59-1.56-16,19.21-31.77,38.58-47.58,57.93-2.45,3-1.19,8.8,3.5,8.46,11.68-.87,23.37-1.59,35.05-2.36a464,464,0,0,0-87.86,121.07c-2.49,5,3.53,9.92,7.77,6C271,484.11,336,446.05,391.19,395.94c3.2-2.9,1.27-7.85-2.39-9.08A178.86,178.86,0,0,0,343.4,378q19.44-27.65,40.66-54c3.08-3.82.34-10.25-5.08-8.73a107.14,107.14,0,0,1-24.06,3.87c1.91-2.73,3.83-5.46,5.72-8.19q23.6,1.05,47.17,2.22c-7.21,12.09-14.33,24.2-22.31,35.83-2,2.93.63,7.58,4.19,7.3q18.63-1.44,37.25-2.83-15.4,29.32-30.73,58.7c-2.15,4.13,2.51,10.09,6.94,6.94q50.52-36,101.08-71.91a5,5,0,0,0-2.51-9.28q-15.47-1.25-31-1.23c4.72-6.56,9.48-13.13,13.9-19.88q5,.17,10.08.26c15.13.23,30.78-.56,45.21-5.57,13.23-4.59,25.38-12.77,33.54-24.27,9.09-12.81,10.52-28.09,6.91-43.12-3.27-13.66-9.93-26.58-24.07-31.16a32.75,32.75,0,0,0-21.12.29c6.44-23.18,3.76-48.2-6.08-70.37-11.25-25.34-31.84-45.71-54.75-60.76-46.57-30.59-113.77-44.33-158.94-3.76a102.71,102.71,0,0,0-33.1,64.38c-19.56-19.1-48.39-28-75.43-21.06-28.81,7.42-50.74,31.65-57.37,60.11-34.31-35.74-107-1.46-119.94,41.43C22.33,247.52,34.25,271.7,53.18,286.85Zm71.67,72.35c12.43-17.44,25.55-34.3,38.6-51.27l11.67-.24c-7.87,7.91-15,16.9-22.34,25.19s-15.86,16.51-22.22,25.82Zm125.93,3.4C199.57,400,149.88,439.24,100.92,479.47l.63-.86c19.72-17.3,39.05-35.1,58.87-52.26q38.16-33,76.2-66.13Q243.73,361.26,250.78,362.6ZM216,350.41c-2.52,3.55.95,7.57,4.52,7.89s7.38.76,11.05,1.24q-36.85,32.13-73.64,64.31c-14.67,12.85-29.79,25.49-44.45,38.57,25.71-34.45,52.9-67.76,80.29-101,2.36-2.86,1.15-8.57-3.39-8.18-18.63,1.6-37.27,3.44-55.9,5.08,8.22-7.46,15.33-16.55,22.72-24.7,7.78-8.58,16.3-16.89,23.36-26.08,18.72-.38,37.43-.7,56.18-.44,3.92.06,7.85.15,11.78.22Q231.61,328.39,216,350.41Zm66.46-15.31-12,.57a182.86,182.86,0,0,0,14.4-27.48l9.13.3a53.11,53.11,0,0,0-4,9c-2.21,6-5.28,11.59-7.53,17.49C282.46,335,282.47,335.06,282.45,335.1ZM230.54,509.47a475.83,475.83,0,0,1,66.08-87.4c-1.66,2.47-3.32,4.93-5.06,7.29-6.67,9.07-13.67,17.89-20.63,26.74C264.7,464,258.47,471.93,252.48,480s-12.74,16.49-17.21,25.57C233.69,506.89,232.11,508.17,230.54,509.47ZM367.32,328.58q-8.74,11.22-17.24,22.65c3.92-7.27,7.68-14.61,11.35-21.9C363.4,329.13,365.37,328.88,367.32,328.58Zm-10.63,1.12c-8.92,16.54-18.41,32.84-26.89,49.56l-.69,1a4.45,4.45,0,0,0-.75,1.85l-.15.3a1.25,1.25,0,0,0,.25,1.55,5.73,5.73,0,0,0,5.19,4.2,171.57,171.57,0,0,1,42.85,6.36c-41.62,36.74-87.53,68.2-130.93,102.79,3.4-5.12,6.73-10.3,10.37-15.23,6.7-9.05,13.7-17.87,20.63-26.74,6.2-7.92,12.37-15.88,18.28-24,4.91-6.76,10.51-13.89,14.11-21.61,1.54-1.48,3.07-3,4.63-4.43,3.1-2.92.83-9.07-3.63-8.75-12.49.88-25,1.9-37.46,2.83,15.8-19.1,31.6-38.19,47.16-57.48,2.46-3,1.18-8.63-3.48-8.4l-30,1.48c2.85-3.26,4.3-7.91,5.7-11.9,1.75-4.93,3.64-9.68,5.73-14.42q21.84.7,43.68,1.59l7,.31c-2.7,3.79-5.41,7.57-8.09,11.37-2.44,3.46.89,7.76,4.55,7.93A112.2,112.2,0,0,0,356.69,329.7Zm42.77,16.19a224.48,224.48,0,0,0,18.32-32.15l1.47.07A114.69,114.69,0,0,0,414.89,325c-2.45,6.93-5.36,13.58-8.17,20.34Zm87.87,1.22q-21.52,15.28-43.07,30.55c1.52-1.83,3-3.64,4.54-5.41q6.39-7.49,12.59-15.15c2.7-3.35,5.83-6.66,8.18-10.35Q478.47,346.74,487.33,347.11Zm-30.58-7.74c-2.19,3.1.74,7.57,4.3,7.48l3.86-.06c-2.12,2.52-4.05,5.24-6.09,7.73q-6.65,8.09-13.46,16c-5.13,6-10.88,11.73-16.15,17.78l-14.42,10.23q12.54-24,25-48.12c1.6-3.09-.31-7.82-4.3-7.5l-24.5,2a117.82,117.82,0,0,0,6.25-15.73C419,324.07,421,319,423,314L444.55,315c9.41.45,18.83,1,28.24,1.4C467.32,324,462.11,331.76,456.75,339.37ZM71.13,188.73c23.32-13.72,56.61-19.5,76.92,1.58-.68,6.44,9.46,6.34,10.26-.1,3.44-27.39,24.63-51.52,51.4-58.32s56.81,4.69,72.78,26.93c2.84,4,9.95,3,9.79-2.65A91.43,91.43,0,0,1,316.1,92.45c17.11-18.81,40.95-28.64,66.25-29.15,26.79-.54,53.24,8.15,76.3,21.38,21.65,12.43,41.56,29.11,54.74,50.55,15.9,25.87,21.36,58.75,8.41,87-2.19,4.78,3.46,10,7.62,5.88,7-6.92,18.78-8.11,27.3-3.35,11.17,6.23,14.91,23.45,14.82,35.19-.2,25.69-25.47,40.56-48,44.45-13.34,2.31-27,1.72-40.52,1.17q-21.81-.9-43.63-1.9c-29.69-1.35-59.37-2.77-89.06-4-58.94-2.43-117.88-3.72-176.86-2.27-27.42.67-56,3.81-82.92-2.86-22.23-5.49-44.47-20-51.71-42.85C30.4,225.12,49.31,201.57,71.13,188.73Z"/><path class="cls-5" d="M500,145.78c4.06,9.91,4.44,19.84,6.92,30.06a1.44,1.44,0,0,0,2.75,0c2.18-10.28-1.6-22.37-5.65-31.75-4.68-10.81-11.65-19.27-20.37-27-.86-.77-2.1.45-1.28,1.28A85.83,85.83,0,0,1,500,145.78Z"/><path class="cls-5" d="M509.14,190.68c.32,4-.34,7.73-.41,11.67,0,.85,1.24,1.51,1.83.76,2.8-3.57,2.8-8.7,1.16-12.78C511.22,189.08,509,189.07,509.14,190.68Z"/><path class="cls-5" d="M218.48,141.46c7.57-.61,15.46-3.3,23.05-1.87,6.73,1.27,12,5.78,18.33,8.11.93.35,1.53-.94.92-1.57a33.65,33.65,0,0,0-18.6-9.69c-8.2-1.26-15.94,2.1-24,3.23C217.22,139.81,217.45,141.54,218.48,141.46Z"/><path class="cls-5" d="M272.44,156.74a7.23,7.23,0,0,0,3,2.26.92.92,0,0,0,1.13-1.12,7.34,7.34,0,0,0-2.27-3c-1-.91-2.1-1.75-3.13-2.65a1,1,0,0,0-1.38,1.38C270.69,154.64,271.53,155.72,272.44,156.74Z"/><path class="cls-5" d="M80.22,192.36c4.87-4.88,12.75-6.26,19.34-7.17,7.56-1,13.48,1,20.72,2.46a1.07,1.07,0,0,0,1-1.77c-5.3-6-15.24-5.54-22.46-4.22s-15.49,3.41-20.16,9.51C78,192.07,79.46,193.12,80.22,192.36Z"/><path class="cls-5" d="M128.13,190c1.94,1,2.86,3.49,5.11,3.89a1.12,1.12,0,0,0,1.39-1.06c.32-3.06-3.41-4.09-5.62-4.91C127.8,187.43,127,189.37,128.13,190Z"/><path class="cls-5" d="M104.05,285.37a1.54,1.54,0,0,0,.41-3c-9.21-3.08-18.48-3.64-27.16-8.63-8.07-4.65-14.8-12-17.63-21a.77.77,0,0,0-1.48.41C62.2,272.9,84.52,286.33,104.05,285.37Z"/><path class="cls-5" d="M470.5,295.07a201.51,201.51,0,0,0,29.74,4c6.55.38,16.62,2.3,21.65-3.1.65-.69.24-2.12-.84-2-7.93.68-15.22,1.4-23.27,1-9-.45-18-1-27-1.64A.88.88,0,0,0,470.5,295.07Z"/><path class="cls-5" d="M528.93,291.8c2.44,1.33,4.5-1.3,6-2.91,2-2.14,5.55-5,5.64-8.13a.93.93,0,0,0-1.16-.88c-2.24.48-3.6,2.78-4.93,4.48-.68.87-1.36,1.74-2,2.63s-1.82,3.24-3.14,3.39C528.62,290.46,528.2,291.41,528.93,291.8Z"/></svg>