<svg id="Layer_1" data-name="Layer 1" xmlns="http://www.w3.org/2000/svg" viewBox="0 0 600 600"><defs><style>.cls-1{fill:#fff200;}.cls-2{fill:#f7941e;}.cls-3{fill:#231f20;}</style></defs><title>doodle</title><path class="cls-1" d="M67.48,229.34A563.72,563.72,0,0,1,131.79,236,581.07,581.07,0,0,1,243,265.47q26.62,10,52.2,22.49c16.5,8.09,33.08,16.73,48.41,26.94q22,.14,43.95.08c-16.93-15.61-35.71-28.82-55.5-40.64a867.88,867.88,0,0,0-126.37-62.06A710.35,710.35,0,0,0,73.85,174q-27,8.93-53.16,20.33a280.4,280.4,0,0,1,40,28.86C63,225.22,65.25,227.27,67.48,229.34Z"/><path class="cls-2" d="M227.36,171c34.58,16.32,68.49,34.39,100.35,55.59a514.14,514.14,0,0,1,44.37,33.05c13,10.82,26.53,22.35,37.51,35.41,1.59-5.61,2.85-11.33,4-17.09-5.88-7.46-11.62-15-17.83-22.22q-11.16-13-23.38-25a422.68,422.68,0,0,0-98-72,415.78,415.78,0,0,0-55.87-24.69,454.34,454.34,0,0,0-56.31-15.64,240.13,240.13,0,0,1,14.34,29.7C193.86,154.31,210.79,163.16,227.36,171Z"/><path class="cls-2" d="M280.29,243.88c20.8,10.58,41.39,21.76,61.17,34.15,17.13,10.74,33.83,22.68,48.23,37H402c.15-.3.29-.6.44-.91a285.56,285.56,0,0,0-45.77-43.62c-33.73-26-70.8-47.66-109-66.36-36.82-18.05-75-33.24-113.71-46.69-14.17,2.69-28.19,6.92-41.63,10.87-4.88,1.43-9.75,3-14.59,4.51a676.71,676.71,0,0,1,70.71,17.44C194,204,238,222.36,280.29,243.88Z"/><path class="cls-1" d="M313.73,238.35a509.94,509.94,0,0,1,52,36.76c13.63,11.15,26.7,23.37,37.54,37.31,1.18-2.54,2.23-5.11,3.2-7.72-15.34-14.83-29.63-30.28-46.27-43.79-28.75-23.32-60.39-43-93-60.47-16.75-9-33.79-17.47-51-25.66-13.83-6.6-28.43-12.34-42.05-19.51a3.86,3.86,0,0,1-1.33.06c-11.56-1.39-23.26-.6-34.87,1.34,20,7,39.83,14.46,59.4,22.57C237.64,195.89,276.84,215.2,313.73,238.35Z"/><path class="cls-1" d="M115.25,312.92a321.21,321.21,0,0,1,86.9-5.66c16,1.13,31.93,3,47.88,4.62,8.16.83,16.36,1.51,24.49,2.68,6.39.91,13,2.14,19,4.67A9.28,9.28,0,0,1,297.6,316c-2.78-1.23-5.54-2.5-8.31-3.64q-13.08-5.4-26.43-10.17c-18.18-6.5-36.54-12.37-55.24-17.22-35.77-9.27-72.79-16.9-109.87-13.62a3.16,3.16,0,0,1-.93,1.13c-18.46,14.09-33.54,31.85-43.2,52.89a209.42,209.42,0,0,1,20.93-1.2c5.61-2.15,11.44-3.83,17.17-5.48Q103.38,315.36,115.25,312.92Z"/><path class="cls-2" d="M127,331.31c4.75-.94,9.85-1.23,14.2-1.9,7.48-1.16,15-2.21,22.49-3Q186,324,208.47,323c15.5-.64,31-.78,46.54-.33q11.64.33,23.25,1.09c4.35.29,9.26.25,13.79,1.12a9.34,9.34,0,0,1,0-1.75,8.94,8.94,0,0,1,.77-2.78,147.14,147.14,0,0,0-24.18-4.77c-8.94-1-17.9-1.8-26.85-2.68-29.66-2.93-59-5.89-88.83-3.4a319.06,319.06,0,0,0-42.93,6.58c-9.79,2.19-19.29,5.2-28.82,8.13a197.17,197.17,0,0,1,44,6A3.8,3.8,0,0,1,127,331.31Z"/><path class="cls-1" d="M208,350.87c16.24.18,32.52.73,48.73,1.75,29.23,1.84,59.5,5.25,87.53,14.52q-7.81-5.46-15.61-10.95-12.94-9.12-25.89-18.26a49.53,49.53,0,0,1-6.82-5.42c-6.31,1.38-13.79-.18-20.09-.54q-11.07-.62-22.15-.88-22.15-.54-44.32.34-23.26,1-46.42,3.52c-7.35.81-14.71,1.62-22,2.6-4.79.64-10.15,2.17-15.25,2.54q-7.56,12.71-14.55,25.76c16.83-3.74,33.79-7,50.67-10.42A214.77,214.77,0,0,1,208,350.87Z"/><path class="cls-1" d="M333.7,194.62A412.79,412.79,0,0,1,379,234.85c12.38,12.78,24.68,26.38,34.91,41.08.88-4.79,1.66-9.61,2.42-14.42-2.67-2.23-4.47-5.5-6.67-8.39q-5.3-6.92-10.86-13.61-11.44-13.8-24.13-26.52a392.42,392.42,0,0,0-101.81-73.5c-21.1-10.57-43.21-18.94-65.66-26.16-11.24-3.62-22.57-7-33.94-10.18-8.19-2.32-17.09-4-25.33-6.82A180.45,180.45,0,0,1,160.78,116a1.62,1.62,0,0,1,.1.18c22.53,4,44.77,10.77,66.14,18.9A422.46,422.46,0,0,1,333.7,194.62Z"/><path class="cls-1" d="M564.36,322.61c-25.86-3.45-49.38-6-74.84-10.55a5.76,5.76,0,0,1-4.47-4l-.66-2.2c-6.35-17.68-13.32-35.12-19.91-52.71-3.33-8.86-6.9-17.8-11-26.34-2.56-5.29-13.63-21.95-18.49-10.21-6.91,16.69-8.85,35.32-11.82,53s-6.88,35.3-15.49,51.29a3.83,3.83,0,0,1-3.35,1.8c-18.43-.18-36.87-.44-55.31-.52-8.82,0-17.64,0-26.46,0-4.41,0-8.82,0-13.23,0-2.88,0-11-.55-7.52,4.42,2.26,3.17,7.07,5.55,10.16,7.79s6.33,4.59,9.53,6.86q11,7.81,22.06,15.54,21.65,15.12,43.45,30a4.17,4.17,0,0,1,1.27,5.58q-2.47,5.15-5,10.28l-2.3,4.75c-5.84,11.95-11.72,23.88-17.44,35.89-3.8,8-8.55,16-11.4,24.35-.87,2.53-2.08,6.37-1,9,2.22,5.29,8.29,1.72,11.62-.14,33-18.49,65.84-37.33,98.7-56.07a3.87,3.87,0,0,1,4.62.77,351,351,0,0,0,30.21,32.79c5.36,5.11,10.83,10.67,17.09,14.66,3.72,2.37,9.52,5.36,11.61,0,1.17-3,.62-7.76.77-11a357.71,357.71,0,0,0-6.88-88.75,3.3,3.3,0,0,1,1.61-3.59c12.44-7,24.85-14,37.4-20.84,5.81-3.15,13.76-6,18.81-10.21C587.33,325.34,570.9,323.48,564.36,322.61ZM485.24,400c-19.1,14.18-49.6,11.75-65.87-5.86-2-2.19.22-6.51,3.27-5.26,17.61,7.22,35.7,16,53.95,5,17-10.23,18.41-31.72,8.71-47.72a36.69,36.69,0,0,0-23.2-16.9c-9.7-2.18-21.33-.46-24.11,10.5-2,7.93-3.26,21.45,5.81,25.25,4.14,1.73,10.62,3.26,14.95,1.85,3.23-1,4-3.8,3.21-7a27.68,27.68,0,0,0-1.53-3.8q-1-3.46-4.58-1.5a1.92,1.92,0,0,1-3.54,1.36c-1.94-3.3-.32-7.27,3.16-8.81,4.5-2,8.71,1.06,11.08,4.75,2.69,4.21,5.09,10.05,3.35,15-1.81,5.22-7,8.12-12.23,8.79-10.7,1.39-24.34-2.25-28.59-13.09-3.75-9.59-3-24.48,2.61-33.2,6.3-9.87,19.17-11.95,29.94-10.26a45.91,45.91,0,0,1,30,18.74C505.41,357.1,505.17,385.17,485.24,400Z"/><path class="cls-2" d="M379.74,391.58q-15.39-10.43-30.64-21.07a349.51,349.51,0,0,0-50.55-11.69c-31.69-4.69-64.2-6.13-96.21-5.94a173.72,173.72,0,0,0-23.8,1.57c-7.81,1.14-15.52,2.84-23.25,4.42-15.11,3.1-30.21,6.45-45.39,9.28q-6.56,12.39-12.57,25a418.79,418.79,0,0,1,52.48-13.08A407.92,407.92,0,0,1,262.1,375.9c20.49,2,40.82,5.38,61.06,9.11,17.88,3.29,36.8,5.65,53.69,12.78Q378.3,394.69,379.74,391.58Z"/><path class="cls-2" d="M151.12,263.6A538.7,538.7,0,0,1,208,275.41a541.14,541.14,0,0,1,57.39,18.26q14.34,5.54,28.39,11.8c6.14,2.74,12.63,5.29,18.2,9.1,8.38,0,16.76.23,25.13.3l3.58,0c-17.21-9.74-34.27-19.56-52.17-28.06a579.18,579.18,0,0,0-108.31-38.77A589.51,589.51,0,0,0,69.89,231.61c4.1,3.89,8.09,7.89,11.93,12,5.4,5.82,11.24,11.9,15.58,18.68C115.16,259.41,133.42,261,151.12,263.6Z"/><path class="cls-3" d="M583.54,321.1c-5.34-4.56-13.56-4.56-20.18-5.45-8.54-1.15-17.08-2.32-25.62-3.45-15-2-29.94-4.08-45-5.57a3.78,3.78,0,0,0-.22-1.8q-11.26-30.61-24.79-60.25c-4.37-9.52-8.07-19.82-13.71-28.66-3.67-5.75-9.65-11.67-17.1-11-8,.7-10.12,10.39-12.16,16.69a214,214,0,0,0-7,30.86c-.2-.26-.39-.52-.58-.79-3.21-4.43-6.5-8.81-9.89-13.1-6.58-8.29-13.56-16.28-20.82-24a397.29,397.29,0,0,0-47-42.65c-35.53-27.3-75.38-47.65-117.66-62.27C208.47,105,194.92,100.88,181.29,97c-12.73-3.63-26.56-9.19-39.84-9.86a2.8,2.8,0,0,0-1.52.38l-.05-.05c-2.13-2-5.84.29-4.3,3.08,5.56,10,12.66,19.17,18.3,29.2a226.48,226.48,0,0,1,12.41,25.92,2.9,2.9,0,0,0-.6.44c-25.41-1.21-51.31,6.63-75.34,13.66A619.46,619.46,0,0,0,9,190c-2.94,1.33-3,6-.26,7.58A265.3,265.3,0,0,1,55,229.92a268.11,268.11,0,0,1,19.58,19c5.56,6,10.43,12.74,16,18.68-22,15.26-38.32,36.92-48.16,61.75-1.31,3.29,2.22,6,5.19,5.5a170.22,170.22,0,0,1,69.42,2.34,539.26,539.26,0,0,0-33,62.41c-1.41,3.14,2.44,7,5.59,5.92A397.63,397.63,0,0,1,197,384.12c38.4-2.3,76.48,1.72,114.27,8.38,20.45,3.6,42.21,6.17,61.86,13.33-6.86,14.77-13.68,29.56-20.65,44.28-4.05,8.57-16.84,31.36-.29,35.71,7.75,2,15.88-4.26,22.24-7.73,10.38-5.66,20.68-11.45,31-17.26,19-10.7,37.95-21.51,57-32.16A325.3,325.3,0,0,0,497.69,466c7,6.32,28.85,24.06,34.72,7,2.58-7.5,1.73-17.14,1.85-25,.14-9.06-.13-18.12-.75-27.16a332.4,332.4,0,0,0-7.8-51.08c15-8,30-16,44.93-24.28,5.37-3,14.27-5.87,16.68-12.18C589,328.91,587,324,583.54,321.1ZM160.78,116a181.84,181.84,0,0,0-12.84-19.7c8.23,2.85,17.13,4.5,25.32,6.82,11.37,3.21,22.7,6.56,33.94,10.18,22.45,7.22,44.56,15.59,65.66,26.16A392.42,392.42,0,0,1,374.67,213q12.66,12.69,24.13,26.52,5.55,6.7,10.86,13.61c2.2,2.89,4,6.16,6.67,8.39-.76,4.81-1.54,9.63-2.42,14.42-10.23-14.7-22.53-28.3-34.91-41.08a412.79,412.79,0,0,0-45.3-40.23A422.46,422.46,0,0,0,227,135.11c-21.37-8.13-43.61-14.86-66.14-18.9Zm1.33,2.38a454.34,454.34,0,0,1,56.31,15.64,415.78,415.78,0,0,1,55.87,24.69,422.68,422.68,0,0,1,98,72q12.18,12,23.38,25c6.21,7.21,12,14.76,17.83,22.22-1.1,5.76-2.36,11.48-4,17.09-11-13.06-24.53-24.59-37.51-35.41a514.14,514.14,0,0,0-44.37-33.05c-31.86-21.2-65.77-39.27-100.35-55.59-16.57-7.82-33.5-16.67-50.91-22.87A240.13,240.13,0,0,0,162.11,118.41Zm10.79,36.92a3.86,3.86,0,0,0,1.33-.06c13.62,7.17,28.22,12.91,42.05,19.51,17.16,8.19,34.2,16.65,51,25.66,32.57,17.51,64.21,37.15,93,60.47,16.64,13.51,30.93,29,46.27,43.79-1,2.61-2,5.18-3.2,7.72-10.84-13.94-23.91-26.16-37.54-37.31a509.94,509.94,0,0,0-52-36.76c-36.89-23.15-76.09-42.46-116.3-59.11-19.57-8.11-39.41-15.57-59.4-22.57C149.64,154.73,161.34,153.94,172.9,155.33ZM92.39,168.26c13.44-3.95,27.46-8.18,41.63-10.87,38.73,13.45,76.89,28.64,113.71,46.69,38.18,18.7,75.25,40.4,109,66.36a285.56,285.56,0,0,1,45.77,43.62c-.15.31-.29.61-.44.91H389.69c-14.4-14.27-31.1-26.21-48.23-37-19.78-12.39-40.37-23.57-61.17-34.15C238,222.36,194,204,148.51,190.21A676.71,676.71,0,0,0,77.8,172.77C82.64,171.21,87.51,169.69,92.39,168.26ZM67.48,229.34q-3.35-3.1-6.8-6.11a280.4,280.4,0,0,0-40-28.86Q46.79,183,73.85,174a710.35,710.35,0,0,1,131.8,38.24,868.85,868.85,0,0,1,126.37,62c19.79,11.83,38.57,25,55.5,40.65q-22,0-43.95-.08c-15.33-10.21-31.91-18.85-48.41-26.94q-25.53-12.51-52.2-22.49A581.07,581.07,0,0,0,131.79,236,563.72,563.72,0,0,0,67.48,229.34Zm14.34,14.3c-3.84-4.14-7.83-8.14-11.93-12a588.69,588.69,0,0,1,110.36,16.45,579.18,579.18,0,0,1,108.31,38.77c17.9,8.5,35,18.32,52.17,28.06l-3.58,0c-8.37-.07-16.75-.26-25.13-.3-5.57-3.81-12.06-6.36-18.2-9.1q-14-6.27-28.39-11.8A541.14,541.14,0,0,0,208,275.41a538.7,538.7,0,0,0-56.92-11.81c-17.7-2.64-36-4.19-53.72-1.28C93.06,255.54,87.22,249.46,81.82,243.64Zm-7.27,80.53a209.42,209.42,0,0,0-20.93,1.2c9.66-21,24.74-38.8,43.2-52.89a3.16,3.16,0,0,0,.93-1.13c37.08-3.28,74.1,4.36,109.87,13.62,18.7,4.85,37.06,10.72,55.24,17.22q13.33,4.76,26.43,10.17c2.77,1.14,5.53,2.41,8.31,3.64a9.28,9.28,0,0,0-4.12,3.23c-6-2.53-12.57-3.76-19-4.67-8.13-1.17-16.33-1.85-24.49-2.68-15.95-1.63-31.89-3.49-47.88-4.62a321.21,321.21,0,0,0-86.9,5.66q-11.86,2.43-23.53,5.77C86,320.34,80.16,322,74.55,324.17Zm6.68.05c9.53-2.93,19-5.94,28.82-8.13A319.06,319.06,0,0,1,153,309.51c29.81-2.49,59.17.47,88.83,3.4,8.95.88,17.91,1.68,26.85,2.68a147.14,147.14,0,0,1,24.18,4.77,8.94,8.94,0,0,0-.77,2.78,9.34,9.34,0,0,0,0,1.75c-4.53-.87-9.44-.83-13.79-1.12Q266.65,323,255,322.68c-15.51-.45-31-.31-46.54.33q-22.42.94-44.75,3.38c-7.52.81-15,1.86-22.49,3-4.35.67-9.45,1-14.2,1.9a3.89,3.89,0,0,0-1.83-1.06A197.74,197.74,0,0,0,81.23,324.22Zm44.44,15.87c5.1-.37,10.46-1.9,15.25-2.54,7.33-1,14.69-1.79,22-2.6q23.14-2.56,46.42-3.52,22.14-.9,44.32-.34,11.08.27,22.15.88c6.3.36,13.78,1.92,20.09.54a49.53,49.53,0,0,0,6.82,5.42q13,9.12,25.89,18.26,7.78,5.49,15.61,10.95c-28-9.27-58.3-12.68-87.53-14.52-16.21-1-32.49-1.57-48.73-1.75a214.77,214.77,0,0,0-46.21,4.56c-16.88,3.46-33.84,6.67-50.67,10.42Q118.11,352.8,125.67,340.09ZM323.16,385c-20.24-3.73-40.57-7.07-61.06-9.11a407.92,407.92,0,0,0-112.29,4.21,418.79,418.79,0,0,0-52.48,13.08q6-12.66,12.57-25c15.18-2.83,30.28-6.18,45.39-9.28,7.73-1.58,15.44-3.28,23.25-4.42a173.72,173.72,0,0,1,23.8-1.57c32-.19,64.52,1.25,96.21,5.94a349.51,349.51,0,0,1,50.55,11.69q15.25,10.62,30.64,21.07-1.44,3.1-2.89,6.21C360,390.66,341,388.3,323.16,385ZM576.72,334.2c-5.05,4.23-13,7.06-18.81,10.21-12.55,6.81-25,13.83-37.4,20.84a3.3,3.3,0,0,0-1.61,3.59,357.71,357.71,0,0,1,6.88,88.75c-.15,3.23.4,8-.77,11-2.09,5.38-7.89,2.39-11.61,0-6.26-4-11.73-9.55-17.09-14.66a351,351,0,0,1-30.21-32.79,3.87,3.87,0,0,0-4.62-.77c-32.86,18.74-65.7,37.58-98.7,56.07-3.33,1.86-9.4,5.43-11.62.14-1.1-2.63.11-6.47,1-9,2.85-8.36,7.6-16.38,11.4-24.35,5.72-12,11.6-23.94,17.44-35.89l2.3-4.75q2.5-5.13,5-10.28a4.17,4.17,0,0,0-1.27-5.58q-21.76-14.94-43.45-30-11.06-7.74-22.06-15.54-4.8-3.4-9.53-6.86c-3.09-2.24-7.9-4.62-10.16-7.79-3.52-5,4.64-4.41,7.52-4.42,4.41,0,8.82,0,13.23,0,8.82,0,17.64,0,26.46,0,18.44.08,36.88.34,55.31.52a3.83,3.83,0,0,0,3.35-1.8c8.61-16,12.49-33.51,15.49-51.29s4.91-36.29,11.82-53c4.86-11.74,15.93,4.92,18.49,10.21,4.12,8.54,7.69,17.48,11,26.34,6.59,17.59,13.56,35,19.91,52.71l1.21,4a2.6,2.6,0,0,0,2,1.82c26.2,4.81,50.24,7.36,76.73,10.9C570.9,323.48,587.33,325.34,576.72,334.2Z"/><path class="cls-3" d="M485.24,400c19.93-14.79,20.17-42.85,6.41-62.05a45.91,45.91,0,0,0-30-18.74c-10.77-1.69-23.64.39-29.94,10.25-5.57,8.73-6.36,23.62-2.61,33.21,4.25,10.84,17.89,14.48,28.59,13.09,5.2-.67,10.42-3.57,12.23-8.79,1.74-5-.66-10.83-3.35-15-2.37-3.69-6.58-6.76-11.08-4.75-3.48,1.54-5.1,5.51-3.16,8.8a1.92,1.92,0,0,0,3.54-1.35q3.57-2,4.58,1.5a27.68,27.68,0,0,1,1.53,3.8c.8,3.16,0,5.91-3.21,7-4.33,1.41-10.81-.12-14.95-1.85-9.07-3.8-7.83-17.32-5.81-25.25,2.78-11,14.41-12.68,24.11-10.5a36.69,36.69,0,0,1,23.2,16.9c9.7,16,8.29,37.49-8.71,47.72-18.25,11-36.34,2.19-53.95-5-3.05-1.25-5.3,3.07-3.27,5.26C435.64,411.7,466.14,414.13,485.24,400Z"/></svg>