<svg id="Layer_1" data-name="Layer 1" xmlns="http://www.w3.org/2000/svg" viewBox="0 0 600 600"><defs><style>.cls-1{fill:#fff200;}.cls-2{fill:#f7941e;}.cls-3{fill:#231f20;}</style></defs><title>doodle</title><path class="cls-1" d="M99.72,256.63c-16.79,19.47-22.1,47.89-22.2,72.89-.09,26,7.12,51.86,22.6,72.9,13.53,18.37,32.33,30.29,53.89,37.16,23.61,7.53,48.62,11.94,73.18,14.9,48.87,5.89,98.88,4.3,146.78-7.49,22.4-5.51,45.14-12.71,65.24-24.21C459.52,411.15,474.9,394,483.27,372c13.36-35,12.05-80.91-17.87-107-11.75,12.56-25,23.87-37.49,35.45h0q-.91,18.54-1.54,37.1A32.71,32.71,0,0,0,439.25,323c1.92-4.23,7.64-1,6.95,2.93-2,11.33-12.34,18.62-22.29,22.8-12.14,5.1-25.4,8.22-38.11,11.61-23.4,6.24-47.05,10.37-71.29,11.22-25.25.89-50.52-.78-75.74-2-23-1.09-47.57-.45-69.47-8.47-16.69-6.12-34.36-19.24-37.21-38-.3-2,2.62-3.73,3.59-1.51A56.94,56.94,0,0,0,143.9,335c.55-15.35.25-30.63-.27-45.95-14.61-6.37-27.79-16.1-39-27.32C102.92,260.08,101.31,258.37,99.72,256.63ZM448.58,389.91c2.14-2.7,4.31-5.37,6.47-8.07s4-5.69,6.53-7.9c.59-.52,1.83,0,1.47.86-2.48,6.21-8.5,11.86-13.48,16.11A.7.7,0,0,1,448.58,389.91ZM393.4,428.54a136.2,136.2,0,0,0,25.13-12.26,112.31,112.31,0,0,0,11.75-8.56c3-2.53,5.87-5.62,9.42-7.41a.55.55,0,0,1,.74.74c-3.62,7.51-13.59,13.45-20.5,17.63a94.5,94.5,0,0,1-26.23,11A.59.59,0,0,1,393.4,428.54ZM108.78,378c3,2.34,6.3,5.4,8,8.89a.66.66,0,0,1-1,.8c-2.9-2.5-5.33-5.9-7.76-8.85A.59.59,0,0,1,108.78,378Zm-4.17-6.51c-7.5-7.63-11.42-19.63-13.39-29.92a75.89,75.89,0,0,1,1-32.89c.23-.93,1.59-.53,1.42.39a83.61,83.61,0,0,0,.27,32.57c2.23,10.62,7.34,19.34,11.81,29C106,371.31,105.17,372,104.61,371.46Z"/><path class="cls-1" d="M258.82,57.69c.25,1.13,1.18,8.83,2.21,9.12,4.39,1.23,2.5-16,2.41-18.15-.22-5.57-.72-11.21-.72-16.8l-9.68.46c1.56,5.32,2.59,10.85,3.77,16.22Z"/><path class="cls-1" d="M291.67,49c1.32,10.31,2.78,20.68,6.14,30.56.46,1.36,1.86,7.43,3.85,6.75,1.65-.57,2.49-8.29,2.62-9.59a148.78,148.78,0,0,0,.37-15.52c0-10.23-1-20.58-.79-30.82l-2.12.05q-6.51.16-13,.4c.68,1.23.76,3,1,4.49C290.54,39.81,291.08,44.38,291.67,49Z"/><path class="cls-1" d="M326.36,58.8c.37,3.33.29,9.09,2.23,12.08q.75,3.2,5.24,1.31a16.85,16.85,0,0,0,1.22-5.74c.21-1.81.39-3.62.55-5.43.33-3.62.59-7.25.75-10.89.3-6.4.12-12.79.16-19.19-4.52-.33-9.05-.53-13.58-.64,1.22,5.76,1.55,11.85,2.2,17.63C325.55,51.55,326,55.17,326.36,58.8Z"/><path class="cls-1" d="M415,47.93c4.1-7.8,10-15.13,15.38-21.81,3.37-4.2,9.24-11.51,15.48-12.87a4.91,4.91,0,0,0-2.31-.61c-2.93-.09-6,3.41-8.08,5.18s-4.16,3.58-6.18,5.44c-7,6.49-13.16,13.74-19.54,20.81,1.47,1,2.93,2,4.36,3A4.56,4.56,0,0,1,415,47.93Z"/><path class="cls-2" d="M149.7,279c.61,19.92,2.56,41-1.43,60.79,9.67,9.31,22.41,15,36.49,17.61,10.85,2,21.9,2.37,32.9,2.85l34,1.45c22.77,1,45.61,2.17,68.4,1S365,357,387,351c10.17-2.79,20.53-5.45,30.44-9.06l.79-.3q1.32-42.62,4.23-85.14,5.25-76.26,16-152,2.69-19,5.68-38c2-12.78,4.87-25.65,5.31-38.61.1-2.85.39-8.5-1.32-12.06-3,1.81-6.32,3-9.11,5.52a68.11,68.11,0,0,0-8,9c-5.49,7-9.9,14.74-15.28,21.73-.75,2.31-3.18,4-5.82,2.21C393.63,43.47,375.79,36.8,356.6,33.39c-5.61-1-11.27-1.7-16.94-2.19a200.59,200.59,0,0,1-1,29.82c-.42,4.65-.14,16.54-7.61,15.95-7.26-.58-7.22-13.11-7.77-18.17-1-9.27-2.95-19.11-2.86-28.54q-6.64-.11-13.28,0c1.3,12.58.91,25.71.71,38.29C307.74,73.69,307.7,79,306.1,84c-.75,2.3-2.08,6.56-5.22,6.45-3.31-.12-4.48-5.31-5.38-7.69A97.1,97.1,0,0,1,291,65.92c-1-5.34-1.69-10.74-2.36-16.14-.37-3.05-.75-6.1-1.12-9.15-.24-2-.08-8.05-1.47-9.75q-10.2.38-20.4.85c.91,8.87.84,18,1.12,26.88.11,3.4.61,11.65-4.66,12-5.46.38-5.86-10.81-6.53-14-1.69-8-3.87-16.08-4.91-24.2l-4.76.23c-15.75.77-31.62,1.89-47.05,5.33a119.12,119.12,0,0,0-22,7c-6.72,3-12.93,7.77-19.94,9.88a2,2,0,0,1-2.43-2.26c-2.89-4.6-3.13-10.49-3.41-15.81-.21-3.82-.18-7.67-.52-11.48-.13-1.39-.2-3.85-.55-6.23-4.16,20.91-5.72,42.13-5.88,63.49-.31,43.32,2.54,86.7,3.64,130Q148.67,245.77,149.7,279Zm231.92-19.34c-3.85-12.43-6.5-24.94-12.68-36.55-5.5-10.35-12.94-18.42-21.62-26.14-.33-.29.09-.77.45-.58,21.38,11.12,33.14,40.39,35.43,63.06C383.29,260.35,381.88,260.45,381.62,259.63Zm16-37.18c-6-9.92-11.17-19.3-20-27.1-9-8-19.4-12.71-30.66-16.62a.5.5,0,0,1,.27-1c11.6,1.8,22.6,8,31.49,15.5,8.59,7.22,17.51,17.47,20.46,28.54A.84.84,0,0,1,397.58,222.45Zm6.35-40.2c-3.41-3.4-6.2-7.19-10-10.25a51.23,51.23,0,0,0-13.78-7.87c-10.83-4.2-23.05-5-34.55-4.15-.82.06-.79-1.17,0-1.26,12.73-1.47,25.43-1.33,37.47,3.63,8.52,3.51,18.8,10.05,22.06,19.18C405.41,182.24,404.42,182.74,403.93,182.25Zm-59.44-62.18c5.38-15.11,17.79-26.93,34.16-29,18.21-2.26,26,25.44,16.62,38-1,1.4-3.74,1.14-3.63-1,.36-7.09,1.45-13.83-.79-20.77-.93-2.85-2.35-6.24-4.69-8.25-3.25-2.79-7.59-1.89-11.39-.91-11.79,3-22.6,11.86-27.37,23.12C346.69,123,343.89,121.75,344.49,120.07Zm-90,51.66a1,1,0,0,1,1-.26c2.18.88,3,2.8,4.56,4.53a23.34,23.34,0,0,0,6.6,5.21,34.24,34.24,0,0,0,9.6,3l2,.4c-.95-11.55-.94-23.3-1.07-34.88-.11-10.34-.78-21.67,1.42-31.93-3.62-.14-7.26-.6-10.47-.8a3.88,3.88,0,0,1-2.67-1.3l-.06,0a5,5,0,0,1-3.29-4.31,3.77,3.77,0,0,1,3.29-4.08,1.79,1.79,0,0,1,1-.51,114.93,114.93,0,0,1,26.85-1.35,3.47,3.47,0,0,1,3,5.16c-3.13,5.5-8.57,7-14.4,7.22,2.15,10.3,1.66,21.53,2,31.92.41,11.8,1.35,23.62,1.58,35.43a8.74,8.74,0,0,0,1.47-.34c5.64-1.92,10-10,12.63-14.91,2.88-5.37,3.76-11.85,7.18-16.86,1.07-1.57,3.73-1.5,4.24.55,1.91,7.75-2.94,17-6.86,23.47-3.83,6.32-9.4,14.22-17.25,15.4s-18.4-1.62-25-5.87C257.88,184.05,250.47,176.71,254.5,171.73Zm-87.21,57.14c-.61.93-2.22.35-1.86-.79,3.24-10.17,11-19.67,18.41-27.11s17-15,27.16-18.19c.92-.29,1.26,1,.58,1.39l0,0c-9,6-18,11.1-25.69,18.85S173.19,219.8,167.29,228.87Zm51.82-31.78c-4.91,6.06-10.15,11.65-14.25,18.33-3.87,6.32-6.27,13.14-9.41,19.79-.52,1.12-2,.27-1.85-.78,1.38-7.66,5.54-15.26,9.7-21.74,4-6.25,8.78-12.47,14.82-16.88C218.88,195.25,219.76,196.47,219.11,197.09Zm-32.66-95.42c16.39-8.82,33.25,1,39.37,17.32.56,1.51-1.54,2.5-2.58,1.5-5-4.85-9.37-11.1-15.86-14.12s-13.5-1.53-19.31,2.14c-13.81,8.72-13.6,24.88-14.65,39.24a1.73,1.73,0,0,1-3.39.46C165.17,131.72,170.63,110.19,186.45,101.67Zm-22.57,82.06c8.68-5.75,19.19-9.3,29.06-12.39,6.4-2,16.58-6.8,22.36-1.34.49.46-.17,1.34-.73.94-4-2.87-10-.17-14.23,1-3.9,1.13-7.78,2.34-11.61,3.69-8.2,2.87-16,6.71-24.23,9.53C163.6,185.51,163.17,184.21,163.88,183.73Z"/><path class="cls-1" d="M156.56,49.53a29.41,29.41,0,0,1,6.23-5.42c-1.65-5.39-3.33-10.76-5.32-16-.67-1.79-3.22-10.71-6.16-13.71,2.15,3.73,2.23,9.89,2.5,13.38C154.3,34.34,153.41,43.25,156.56,49.53Z"/><path class="cls-2" d="M428.51,289c17.37-15.71,35.77-31.46,48.27-51.27,12.11-19.2,17.92-41.48,22-63.59,2.26-12.3,4.31-24.77,4.71-37.29.21-6.41.23-13.2-1-19.51-.26-1.3-.89-5.09-2.88-5.08-1.71,0-3,3.36-3.42,4.54-1.81,4.71-2.53,9.91-4,14.73-1.34,4.22-2.89,8.36-4.6,12.43A148.87,148.87,0,0,1,473,170.62a145.78,145.78,0,0,1-18.5,22.15c-6,5.79-12.68,11.75-20.18,15.62Q430.73,248.62,428.51,289Z"/><path class="cls-2" d="M203.66,459.83c-11.57-1.95-23.44-4.06-35.1-6.93,4.25,14.7,7.4,29.83,11.62,44.53,4.65,16.19,9.31,32.7,15.74,48.3,3,7.21,6.65,14.55,11.76,20.5,1.77,2.06,4.09,4.31,6.64,1.68,2-2,1.93-5.2,2-7.78.17-4.29,0-8.62-.14-12.91q-.32-13.15-1.32-26.26c-.59-7.5-2.19-15.38-2.51-23-4.92.8-10.09,1.63-14.84.6-1.38-.29-1.32-2.05-.36-2.74,4.65-3.38,11.13-4.63,16.93-5.73a3.65,3.65,0,0,1,2.22-.42l.48-.1c7.21-1.43,14.5-2.52,21.78-3.53,14.06-1.95,28.22-3.23,42.4-3.87,14.41-.65,28.86-.6,43.27,0a171.27,171.27,0,0,1,20,1.68c5.52.89,12.54,1.83,16,6.63,1.14,1.61,0,4.55-2,4.85-3.43.53-7.12-.37-10.77-1.35,2.69,7.76,4.51,15.87,6.82,23.74q4,13.74,8.77,27.24c2.82,8,5.24,18.36,11.67,24.31,2.71,2.51,6.61,4.26,10.37,3.51,4.65-.93,5.93-5.42,6.95-9.45,4.81-19.05,4.8-39,5.44-58.46q.92-27.79,1.87-55.6A361.15,361.15,0,0,1,361.18,459C309.3,469.31,255.7,468.61,203.66,459.83Z"/><path class="cls-2" d="M94.48,157.09a239.3,239.3,0,0,1-14.17-30.57c-3.22-8.37-5.75-18.4-12.62-24.57-6.84,13.33-6.95,28.82-5.72,43.56,2.48,29.88,10.68,59.76,26.61,85.36a145.28,145.28,0,0,0,54.81,51.25c-.18-4.84-.38-9.68-.57-14.54q-1.19-30.07-2.47-60.16a3.15,3.15,0,0,1-3.15-.53C119.32,193.75,105.27,176.39,94.48,157.09Z"/><path class="cls-3" d="M261.82,186.59c6.6,4.25,17.19,7,25,5.87s13.42-9.08,17.25-15.4c3.92-6.47,8.77-15.72,6.86-23.47-.51-2.05-3.17-2.12-4.24-.55-3.42,5-4.3,11.49-7.18,16.86-2.64,4.93-7,13-12.63,14.91a8.74,8.74,0,0,1-1.47.34c-.23-11.81-1.17-23.63-1.58-35.43-.36-10.39.13-21.62-2-31.92,5.83-.19,11.27-1.72,14.4-7.22a3.47,3.47,0,0,0-3-5.16,114.93,114.93,0,0,0-26.85,1.35,1.79,1.79,0,0,0-1,.51,3.77,3.77,0,0,0-3.29,4.08,5,5,0,0,0,3.29,4.31l.06,0a3.88,3.88,0,0,0,2.67,1.3c3.21.2,6.85.66,10.47.8-2.2,10.26-1.53,21.59-1.42,31.93.13,11.58.12,23.33,1.07,34.88l-2-.4a34.24,34.24,0,0,1-9.6-3A23.34,23.34,0,0,1,260,176c-1.53-1.73-2.38-3.65-4.56-4.53a1,1,0,0,0-1,.26C250.47,176.71,257.88,184.05,261.82,186.59Z"/><path class="cls-3" d="M347.4,121.3C352.17,110,363,101.21,374.77,98.18c3.8-1,8.14-1.88,11.39.91,2.34,2,3.76,5.4,4.69,8.25,2.24,6.94,1.15,13.68.79,20.77-.11,2.13,2.58,2.39,3.63,1,9.34-12.56,1.59-40.26-16.62-38-16.37,2-28.78,13.86-34.16,29C343.89,121.75,346.69,123,347.4,121.3Z"/><path class="cls-3" d="M173.42,147.75c1.05-14.36.84-30.52,14.65-39.24,5.81-3.67,12.88-5.13,19.31-2.14s10.83,9.27,15.86,14.12c1,1,3.14,0,2.58-1.5-6.12-16.37-23-26.14-39.37-17.32-15.82,8.52-21.28,30.05-16.42,46.54A1.73,1.73,0,0,0,173.42,147.75Z"/><path class="cls-3" d="M98.24,147.85A274.65,274.65,0,0,1,84.87,117c-3.49-9.3-7.66-18.5-16.47-23.85a3.84,3.84,0,0,0-5.16,1.35c-8.07,12.83-9.86,28.11-9.28,43A212.14,212.14,0,0,0,61.06,184c6.64,24.84,18.16,48.5,34.73,68.18-17.34,15.52-23.07,42.29-25.3,64.41-2.55,25.15,1.17,51,12.5,73.69,10,20.13,25.92,37.51,45.85,48.16a160.45,160.45,0,0,0,32.84,12.69c2.2,14.75,6.48,29.53,10.44,43.81,4.28,15.44,8.85,30.88,14.3,46a128.58,128.58,0,0,0,8.44,19.19c3,5.28,7,12.58,12.64,15.41,5.11,2.55,11-.21,13.76-4.9,3.58-6.15,2.41-14.69,2.3-21.48-.15-9.38-.57-18.77-1.21-28.13-.52-7.76-.52-16.35-2.08-24.19,5.86-.84,11.72-1.69,17.6-2.38,13.72-1.59,27.48-2.74,41.28-3.3s27.62-.63,41.43-.09c6.39.25,12.81.52,19.17,1.27.44.05.88.12,1.32.2,1.6,16.42,7.65,33,12.88,48.54,4.22,12.57,8.19,31.79,21.74,37.68,5.1,2.22,11.34,2.43,16.12-.69,5.94-3.88,7.33-11.5,8.66-18,3.55-17.19,4.44-34.82,5.12-52.31q1.19-30.64,2.32-61.29A248.22,248.22,0,0,0,434,435.68c21.66-10.46,40.21-25.81,51.64-47.26,21.23-39.87,22.53-98.8-14.37-129.93a152.33,152.33,0,0,0,10.21-13.24c14-20.47,20.74-44.88,24.92-69,2.2-12.71,4.15-25.57,4.59-38.47a115.31,115.31,0,0,0-.87-19.48c-.6-4.38-1.68-9.46-5.69-12.06-8.18-5.31-14.32,4-16.19,10.83-3,11.07-6.06,21.75-11.13,32.12a144.66,144.66,0,0,1-20.54,31.14A164.65,164.65,0,0,1,443.23,194c-2.68,2.46-5.51,4.78-8.27,7.16q1.19-13,2.5-25.93,4.35-42.37,10.33-84.56c1.92-13.55,4-27.08,6.17-40.6,1-6.18,1.92-12.38,2.32-18.63.36-5.56.73-11.66-1.34-17-1.82-4.67-6.14-8.71-11.4-8.75-5.63,0-10.23,4.92-14.14,8.34-9,7.82-18,16.79-24.6,26.94-28.44-16.47-63.44-19.56-95.64-19.13-19.55.26-39.1,1.44-58.63,2.38-16.49.81-33.06,1.84-49.25,5.25a134.82,134.82,0,0,0-25.37,7.88c-2,.86-4.12,1.79-6.25,2.83a188.51,188.51,0,0,0-8.47-23.45c-2.63-6.11-6.59-12.55-14.18-11a3.9,3.9,0,0,0-2.77,2.76C133.88,49.7,136,92.72,137.47,134.77Q138.64,167,140,199.3C122.19,185.73,108.57,167.61,98.24,147.85Zm299.25,357c-.64,19.51-.63,39.41-5.44,58.46-1,4-2.3,8.52-6.95,9.45-3.76.75-7.66-1-10.37-3.51-6.43-5.95-8.85-16.33-11.67-24.31q-4.76-13.5-8.77-27.24c-2.31-7.87-4.13-16-6.82-23.74,3.65,1,7.34,1.88,10.77,1.35,2-.3,3.12-3.24,2-4.85-3.44-4.8-10.46-5.74-16-6.63a171.27,171.27,0,0,0-20-1.68c-14.41-.64-28.86-.69-43.27,0-14.18.64-28.34,1.92-42.4,3.87-7.28,1-14.57,2.1-21.78,3.53l-.48.1a3.65,3.65,0,0,0-2.22.42c-5.8,1.1-12.28,2.35-16.93,5.73-1,.69-1,2.45.36,2.74,4.75,1,9.92.2,14.84-.6.32,7.64,1.92,15.52,2.51,23q1,13.11,1.32,26.26c.11,4.29.31,8.62.14,12.91-.1,2.58-.08,5.77-2,7.78-2.55,2.63-4.87.38-6.64-1.68-5.11-6-8.78-13.29-11.76-20.5-6.43-15.6-11.09-32.11-15.74-48.3-4.22-14.7-7.37-29.83-11.62-44.53,11.66,2.87,23.53,5,35.1,6.93,52,8.78,105.64,9.48,157.52-.86a361.15,361.15,0,0,0,38.18-9.68Q398.37,477.09,397.49,504.89Zm57-312.12A145.78,145.78,0,0,0,473,170.62a148.87,148.87,0,0,0,14.51-26.69c1.71-4.07,3.26-8.21,4.6-12.43,1.52-4.82,2.24-10,4-14.73.45-1.18,1.71-4.53,3.42-4.54,2,0,2.62,3.78,2.88,5.08,1.25,6.31,1.23,13.1,1,19.51-.4,12.52-2.45,25-4.71,37.29-4.06,22.11-9.87,44.39-22,63.59-12.5,19.81-30.9,35.56-48.27,51.27q2.21-40.34,5.8-80.58C441.81,204.52,448.53,198.56,454.49,192.77ZM429.28,23.26c2-1.86,4.08-3.68,6.18-5.44s5.15-5.27,8.08-5.18a4.91,4.91,0,0,1,2.31.61c-6.24,1.36-12.11,8.67-15.48,12.87C425,32.8,419.09,40.13,415,47.93a4.56,4.56,0,0,0-.89-.86c-1.43-1-2.89-2-4.36-3C416.12,37,422.23,29.75,429.28,23.26Zm-92.77,7.68c0,6.4.14,12.79-.16,19.19-.16,3.64-.42,7.27-.75,10.89-.16,1.81-.34,3.62-.55,5.43a16.85,16.85,0,0,1-1.22,5.74q-4.49,1.89-5.24-1.31c-1.94-3-1.86-8.75-2.23-12.08-.41-3.63-.81-7.25-1.23-10.87-.65-5.78-1-11.87-2.2-17.63C327.46,30.41,332,30.61,336.51,30.94Zm-34.77-.56,2.12-.05c-.2,10.24.77,20.59.79,30.82a148.78,148.78,0,0,1-.37,15.52c-.13,1.3-1,9-2.62,9.59-2,.68-3.39-5.39-3.85-6.75C294.45,69.63,293,59.26,291.67,49c-.59-4.57-1.13-9.14-1.93-13.68-.26-1.47-.34-3.26-1-4.49Q295.23,30.56,301.74,30.38Zm-39,1.48c0,5.59.5,11.23.72,16.8.09,2.14,2,19.38-2.41,18.15-1-.29-2-8-2.21-9.12l-2-9.15c-1.18-5.37-2.21-10.9-3.77-16.22ZM157.47,28.07c2,5.28,3.67,10.65,5.32,16a29.41,29.41,0,0,0-6.23,5.42c-3.15-6.28-2.26-15.19-2.75-21.79-.27-3.49-.35-9.65-2.5-13.38C154.25,17.36,156.8,26.28,157.47,28.07Zm-13.3,54.49c.16-21.36,1.72-42.58,5.88-63.49.35,2.38.42,4.84.55,6.23.34,3.81.31,7.66.52,11.48.28,5.32.52,11.21,3.41,15.81A2,2,0,0,0,157,54.85c7-2.11,13.22-6.92,19.94-9.88a119.12,119.12,0,0,1,22-7c15.43-3.44,31.3-4.56,47.05-5.33l4.76-.23c1,8.12,3.22,16.23,4.91,24.2.67,3.17,1.07,14.36,6.53,14,5.27-.36,4.77-8.61,4.66-12-.28-8.89-.21-18-1.12-26.88q10.2-.46,20.4-.85c1.39,1.7,1.23,7.77,1.47,9.75.37,3,.75,6.1,1.12,9.15.67,5.4,1.37,10.8,2.36,16.14a97.1,97.1,0,0,0,4.47,16.79c.9,2.38,2.07,7.57,5.38,7.69,3.14.11,4.47-4.15,5.22-6.45,1.6-4.94,1.64-10.26,1.72-15.39.2-12.58.59-25.71-.71-38.29q6.63-.11,13.28,0c-.09,9.43,1.84,19.27,2.86,28.54.55,5.06.51,17.59,7.77,18.17,7.47.59,7.19-11.3,7.61-15.95a200.59,200.59,0,0,0,1-29.82c5.67.49,11.33,1.2,16.94,2.19,19.19,3.41,37,10.08,53.26,20.92,2.64,1.76,5.07.1,5.82-2.21,5.38-7,9.79-14.78,15.28-21.73a68.11,68.11,0,0,1,8-9c2.79-2.49,6.07-3.71,9.11-5.52,1.71,3.56,1.42,9.21,1.32,12.06-.44,13-3.29,25.83-5.31,38.61s-3.89,25.3-5.68,38q-10.68,75.69-16,152Q419.49,299,418.2,341.6l-.79.3c-9.91,3.61-20.27,6.27-30.44,9.06-22,6-44.13,10.49-66.92,11.68s-45.63,0-68.4-1l-34-1.45c-11-.48-22-.81-32.9-2.85-14.08-2.65-26.82-8.3-36.49-17.61,4-19.74,2-40.87,1.43-60.79q-1-33.21-1.89-66.41C146.71,169.26,143.86,125.88,144.17,82.56ZM143.9,335a56.94,56.94,0,0,1-8.22-13.4c-1-2.22-3.89-.49-3.59,1.51,2.85,18.78,20.52,31.9,37.21,38,21.9,8,46.49,7.38,69.47,8.47,25.22,1.2,50.49,2.87,75.74,2,24.24-.85,47.89-5,71.29-11.22,12.71-3.39,26-6.51,38.11-11.61,9.95-4.18,20.29-11.47,22.29-22.8.69-3.89-5-7.16-6.95-2.93a32.71,32.71,0,0,1-12.89,14.58q.61-18.56,1.54-37.1h0c12.49-11.58,25.74-22.89,37.49-35.45,29.92,26.05,31.23,71.95,17.87,107-8.37,22-23.75,39.12-44.06,50.75-20.1,11.5-42.84,18.7-65.24,24.21-47.9,11.79-97.91,13.38-146.78,7.49-24.56-3-49.57-7.37-73.18-14.9-21.56-6.87-40.36-18.79-53.89-37.16-15.48-21-22.69-46.92-22.6-72.9.1-25,5.41-53.42,22.2-72.89,1.59,1.74,3.2,3.45,4.87,5.12,11.25,11.22,24.43,20.95,39,27.32C144.15,304.39,144.45,319.67,143.9,335Zm-3.55-127.6q1.25,30.08,2.47,60.16c.19,4.86.39,9.7.57,14.54a145.28,145.28,0,0,1-54.81-51.25C72.65,205.27,64.45,175.39,62,145.51c-1.23-14.74-1.12-30.23,5.72-43.56,6.87,6.17,9.4,16.2,12.62,24.57a239.3,239.3,0,0,0,14.17,30.57c10.79,19.3,24.84,36.66,42.72,49.8A3.15,3.15,0,0,0,140.35,207.42Z"/><path class="cls-3" d="M164.5,185.2c8.21-2.82,16-6.66,24.23-9.53,3.83-1.35,7.71-2.56,11.61-3.69,4.19-1.21,10.23-3.91,14.23-1,.56.4,1.22-.48.73-.94-5.78-5.46-16-.66-22.36,1.34-9.87,3.09-20.38,6.64-29.06,12.39C163.17,184.21,163.6,185.51,164.5,185.2Z"/><path class="cls-3" d="M211.58,184.17c.68-.42.34-1.68-.58-1.39-10.18,3.16-19.7,10.76-27.16,18.19s-15.17,16.94-18.41,27.11c-.36,1.14,1.25,1.72,1.86.79,5.9-9.07,10.88-18.06,18.62-25.83s16.67-12.87,25.69-18.85Z"/><path class="cls-3" d="M218.12,195.81c-6,4.41-10.81,10.63-14.82,16.88-4.16,6.48-8.32,14.08-9.7,21.74-.19,1,1.33,1.9,1.85.78,3.14-6.65,5.54-13.47,9.41-19.79,4.1-6.68,9.34-12.27,14.25-18.33C219.76,196.47,218.88,195.25,218.12,195.81Z"/><path class="cls-3" d="M383.09,162.35c-12-5-24.74-5.1-37.47-3.63-.79.09-.82,1.32,0,1.26,11.5-.88,23.72,0,34.55,4.15A51.23,51.23,0,0,1,394,172c3.78,3.06,6.57,6.85,10,10.25.49.49,1.48,0,1.22-.72C401.89,172.4,391.61,165.86,383.09,162.35Z"/><path class="cls-3" d="M378.65,193.26c-8.89-7.48-19.89-13.7-31.49-15.5a.5.5,0,0,0-.27,1c11.26,3.91,21.63,8.66,30.66,16.62,8.86,7.8,14.05,17.18,20,27.1a.84.84,0,0,0,1.53-.65C396.16,210.73,387.24,200.48,378.65,193.26Z"/><path class="cls-3" d="M347.77,196.36c-.36-.19-.78.29-.45.58,8.68,7.72,16.12,15.79,21.62,26.14,6.18,11.61,8.83,24.12,12.68,36.55.26.82,1.67.72,1.58-.21C380.91,236.75,369.15,207.48,347.77,196.36Z"/><path class="cls-3" d="M393.71,429.67a94.5,94.5,0,0,0,26.23-11c6.91-4.18,16.88-10.12,20.5-17.63a.55.55,0,0,0-.74-.74c-3.55,1.79-6.39,4.88-9.42,7.41a112.31,112.31,0,0,1-11.75,8.56,136.2,136.2,0,0,1-25.13,12.26A.59.59,0,0,0,393.71,429.67Z"/><path class="cls-3" d="M449.57,390.91c5-4.25,11-9.9,13.48-16.11.36-.89-.88-1.38-1.47-.86-2.54,2.21-4.44,5.29-6.53,7.9s-4.33,5.37-6.47,8.07A.7.7,0,0,0,449.57,390.91Z"/><path class="cls-3" d="M93.59,309c.17-.92-1.19-1.32-1.42-.39a75.89,75.89,0,0,0-1,32.89c2,10.29,5.89,22.29,13.39,29.92.56.58,1.36-.15,1.06-.81-4.47-9.7-9.58-18.42-11.81-29A83.61,83.61,0,0,1,93.59,309Z"/><path class="cls-3" d="M115.7,387.66a.66.66,0,0,0,1-.8c-1.66-3.49-5-6.55-8-8.89a.59.59,0,0,0-.84.84C110.37,381.76,112.8,385.16,115.7,387.66Z"/></svg>