<svg id="Layer_1" data-name="Layer 1" xmlns="http://www.w3.org/2000/svg" viewBox="0 0 600 600"><defs><style>.cls-1{fill:#be1e2d;}.cls-2{fill:#fff200;}.cls-3{fill:#ef4136;}.cls-4{fill:#231f20;}</style></defs><title>doodle</title><path class="cls-1" d="M340.94,212.73c-15.54-11.33-39.8.5-40.8,19.61-1.29,24.79,24.48,37.22,44.86,41.45l.22.07c.94-1.77,1.86-3.54,2.71-5.33C356.33,251.09,358.64,225.64,340.94,212.73Z"/><path class="cls-2" d="M96,455.81c-20.67,27.66-33.2,58.61-40,91.48q1.91-3.42,3.89-6.79c5-17.28,12.57-34,23.33-48,14.5-18.93,34.23-33,54.51-45.08,44.69-26.72,91.17-50.57,136.54-76.08,39.38-22.14,82.54-48.73,100.22-92.59,9.1-22.54,10.15-49.05-4.3-69.6-15-21.32-40.62-25.53-64.93-20.12-26.89,6-33.23,41.58-27,64.39,6.41,23.42,26.11,40.19,49.36,45.66a118.57,118.57,0,0,0,11.95-15.63c-22.58-5.29-45.72-18.73-49.55-43.64-3.17-20.58,11.66-38.87,32-41.77,18.78-2.68,34.13,10.29,40.28,27.25,7.74,21.34-.86,43.79-12.66,61.8-6.39,9.75-13.51,19.7-22.17,27.55-8.86,8-19.5,13-30.31,17.82Q258.58,349.68,220.39,368C173.59,390.43,127.8,413.29,96,455.81Z"/><path class="cls-3" d="M307.63,358.68c-23,14.77-47.29,27.48-71.16,40.73-26.93,14.94-53.94,29.76-80.79,44.85-22.33,12.55-44.84,26.05-62.06,45.35a108.62,108.62,0,0,0-16.55,25.2,247.6,247.6,0,0,1,16-19.17c23.34-25.16,52-43,83.41-56.26,28.81-12.17,58.88-21,88.08-32.13,30.24-11.53,59.66-25.76,86.2-44.4,24.36-17.11,47.55-38.72,59.62-66.48,13.41-30.82,10.35-67.83,1.44-99.5-3.82-13.55-9.84-27.24-20.94-36.4-12.22-10.08-29.21-12.32-44.52-12.38-30.69-.13-61.83,11.36-83.4,33.54-20.65,21.24-32.5,52.29-27.79,81.93a89.07,89.07,0,0,0,46.68,64.61c7.49-3.42,14.94-6.93,22.25-10.66a81.34,81.34,0,0,0,20.06-14.78A68.43,68.43,0,0,1,274,257.3c-7.1-22.23-3.11-55.34,18.44-68.77,9.82-6.12,22.71-6.57,33.94-6.75s21.81,1.87,31.34,7.79c18.36,11.4,28.79,32.23,29.65,53.48C389.41,294.12,347,333.37,307.63,358.68Z"/><path class="cls-3" d="M212.17,360.23A113.94,113.94,0,0,1,190.1,347.4c-29.65-22.23-48.45-57.31-53.94-93.65-5.77-38.17,4-76.58,24.6-109,21.49-33.83,53.55-60.79,89.93-77.4,21.59-9.86,44.54-15.73,68.4-14.61C343.65,53.89,367.62,61,390.37,70c41.27,16.25,76.31,41.72,98.51,80.72C509.36,186.64,518,229,515.79,270.18c-2.44,45.1-17.4,89.8-45.24,125.62-13.34,17.18-29.67,32.27-48.77,42.83-21.7,12-46.24,18.82-69.87,25.89a1206.43,1206.43,0,0,1-155.06,35.24c-29.41,4.72-60.19,9.71-86,24.23,32.7-11.38,68.14-15.12,102.56-15.87,57.2-1.25,117.08,6.67,172.93-9.11,93.81-26.51,155-123.77,161.52-217.54,3.34-48.23-7.07-97-33-138.05C488,100.74,446.94,61,399.2,42.83c-89-33.78-193.15,11.32-246,86.27C125,169,108.63,220,116.37,269c7.21,45.57,38.59,85.56,84.12,96.94Q206.31,363,212.17,360.23Z"/><path class="cls-1" d="M376.26,418.18c32.6-16.28,59.64-42.63,77.57-74.28C491.59,277.21,480.7,193.79,429.77,137c-27.64-30.84-66.9-55.62-109.69-48.75-38.92,6.24-80.26,21.42-108.39,49.94C158.58,192,150,329.39,244.94,344.21a4.77,4.77,0,0,1,.7.18c8.61-3.93,17.31-7.74,26-11.6-25.15-14.2-42.33-40.1-46.45-69-4.83-33.75,8.93-68.71,33.31-92.1,22.75-21.84,54-33.3,85.27-34.21,15.39-.45,31.68,1.32,45.46,8.63,13.15,7,22.21,19.14,28,32.57,12.74,29.38,16.75,66.54,10.9,97.92-6,32.29-26.44,59.28-51,80.19-26.6,22.67-57.54,39.73-89.59,53.36-31.54,13.42-64.5,22.9-96.4,35.35-32.65,12.76-63,29.68-87.51,55.13A232.2,232.2,0,0,0,87.07,520c43.06-40.75,99.61-66.05,159.34-74.56C290,439.24,336.08,438.25,376.26,418.18Z"/><path class="cls-2" d="M348.68,458.71c23.13-6.88,47.17-13.42,68.51-24.92,20.32-11,37.48-27.13,51.16-45.62,26.56-35.9,40.32-80.46,41.49-124.9,1.07-40.35-8.62-81.49-30-116-24.16-39-62.24-62.23-104.86-77-22.79-7.88-46.85-13.46-71.11-11.86C280.12,60.07,257.11,69,236.53,80.67c-34.1,19.33-63.25,48.27-80.63,83.6-17.12,34.8-21,74.38-9.29,111.49,11.23,35.59,35.82,66.29,69.93,82.13l.2.12q7.56-3.61,15.15-7.2c-40-8.86-64.88-50-69.09-89.25-5.12-47.81,10.7-103.13,46.88-135.93,30.41-27.58,73.22-43.78,113.55-49C366.06,71,406,95.16,434.56,125.39c54.65,57.88,69.58,144.36,33.63,215.88-17.15,34.12-44.52,63.42-77.77,82.3-40,22.74-86,25.9-130.68,31.52-43.5,5.46-84.82,17.19-122.38,40.29a261.46,261.46,0,0,0-35.27,26c25.22-16.55,57.73-22.18,87-26.93C243,485.69,296.29,474.29,348.68,458.71Z"/><path class="cls-4" d="M81.63,459.1a234.76,234.76,0,0,0-29.47,61c-4.24,10.3-7,21.54-9.41,31.8a176.56,176.56,0,0,0-3.83,23.3c-.39,4.17-.23,8.88,3.94,10.48a5.52,5.52,0,0,0,4.52.8,3.64,3.64,0,0,0,3.47-3.32,237,237,0,0,1,14.94-22.62c38.49-29.29,88.62-38.75,136.32-40.69,60.62-2.46,123.44,6.67,182.92-8.67C482.78,486,547.83,388.61,558.4,291.94c5.4-49.41-3.22-100.73-27.64-144.29C505.19,102,463.62,59.86,415.94,37.59c-90.18-42.12-199.8-3.18-260.59,70.86C124.4,146.16,104.24,193.77,103.77,243c-.47,48.44,21.38,97.59,65,121.69a96.52,96.52,0,0,0,18.45,7.85c-5.1,2.6-10.19,5.24-15.23,7.94C135.86,399.78,104.67,424.93,81.63,459.1Zm305.73-216c-.86-21.25-11.29-42.08-29.65-53.48-9.53-5.92-20.23-8-31.34-7.79s-24.12.63-33.94,6.75C270.88,202,266.89,235.07,274,257.3a68.43,68.43,0,0,0,50.17,45.43,81.34,81.34,0,0,1-20.06,14.78c-7.31,3.73-14.76,7.24-22.25,10.66a89.07,89.07,0,0,1-46.68-64.61c-4.71-29.64,7.14-60.69,27.79-81.93,21.57-22.18,52.71-33.67,83.4-33.54,15.31.06,32.3,2.3,44.52,12.38,11.1,9.16,17.12,22.85,20.94,36.4,8.91,31.67,12,68.68-1.44,99.5-12.07,27.76-35.26,49.37-59.62,66.48-26.54,18.64-56,32.87-86.2,44.4-29.2,11.14-59.27,20-88.08,32.13-31.46,13.29-60.07,31.1-83.41,56.26a247.6,247.6,0,0,0-16,19.17,108.62,108.62,0,0,1,16.55-25.2c17.22-19.3,39.73-32.8,62.06-45.35,26.85-15.09,53.86-29.91,80.79-44.85,23.87-13.25,48.18-26,71.16-40.73C347,333.37,389.41,294.12,387.36,243.05ZM103.65,500.68c24.48-25.45,54.86-42.37,87.51-55.13,31.9-12.45,64.86-21.93,96.4-35.35,32.05-13.63,63-30.69,89.59-53.36,24.55-20.91,45-47.9,51-80.19,5.85-31.38,1.84-68.54-10.9-97.92-5.83-13.43-14.89-25.6-28-32.57-13.78-7.31-30.07-9.08-45.46-8.63-31.27.91-62.52,12.37-85.27,34.21-24.38,23.39-38.14,58.35-33.31,92.1,4.12,28.85,21.3,54.75,46.45,69-8.66,3.86-17.36,7.67-26,11.6a4.77,4.77,0,0,0-.7-.18c-94.94-14.82-86.36-152.2-33.25-206,28.13-28.52,69.47-43.7,108.39-49.94,42.79-6.87,82.05,17.91,109.69,48.75,50.93,56.81,61.82,140.23,24.06,206.92-17.93,31.65-45,58-77.57,74.28-40.18,20.07-86.24,21.06-129.85,27.27C186.68,454,130.13,479.26,87.07,520A232.2,232.2,0,0,1,103.65,500.68Zm33.71-5.3c37.56-23.1,78.88-34.83,122.38-40.29,44.72-5.62,90.64-8.78,130.68-31.52,33.25-18.88,60.62-48.18,77.77-82.3,35.95-71.52,21-158-33.63-215.88C406,95.16,366.06,71,323.23,76.6c-40.33,5.25-83.14,21.45-113.55,49-36.18,32.8-52,88.12-46.88,135.93,4.21,39.26,29.12,80.39,69.09,89.25q-7.57,3.58-15.15,7.2l-.2-.12c-34.11-15.84-58.7-46.54-69.93-82.13-11.71-37.11-7.83-76.69,9.29-111.49,17.38-35.33,46.53-64.27,80.63-83.6C257.11,69,280.12,60.07,303.9,58.49c24.26-1.6,48.32,4,71.11,11.86,42.62,14.73,80.7,37.94,104.86,77,21.35,34.47,31,75.61,30,116-1.17,44.44-14.93,89-41.49,124.9-13.68,18.49-30.84,34.66-51.16,45.62-21.34,11.5-45.38,18-68.51,24.92-52.39,15.58-105.66,27-159.58,35.74-29.28,4.75-61.79,10.38-87,26.93A261.46,261.46,0,0,1,137.36,495.38ZM116.37,269C108.63,220,125,169,153.16,129.1c52.89-74.95,157-120,246-86.27C446.94,61,488,100.74,514.93,143.42c25.9,41.1,36.31,89.82,33,138.05-6.49,93.77-67.71,191-161.52,217.54-55.85,15.78-115.73,7.86-172.93,9.11-34.42.75-69.86,4.49-102.56,15.87,25.77-14.52,56.55-19.51,86-24.23a1206.43,1206.43,0,0,0,155.06-35.24c23.63-7.07,48.17-13.89,69.87-25.89,19.1-10.56,35.43-25.65,48.77-42.83,27.84-35.82,42.8-80.52,45.24-125.62,2.23-41.16-6.43-83.54-26.91-119.49-22.2-39-57.24-64.47-98.51-80.72C367.62,61,343.65,53.89,319.09,52.75c-23.86-1.12-46.81,4.75-68.4,14.61-36.38,16.61-68.44,43.57-89.93,77.4-20.58,32.41-30.37,70.82-24.6,109,5.49,36.34,24.29,71.42,53.94,93.65a113.94,113.94,0,0,0,22.07,12.83q-5.85,2.81-11.68,5.66C155,354.51,123.58,314.52,116.37,269Zm104,99.06q38.21-18.3,76.87-35.58c10.81-4.83,21.45-9.79,30.31-17.82,8.66-7.85,15.78-17.8,22.17-27.55,11.8-18,20.4-40.46,12.66-61.8-6.15-17-21.5-29.93-40.28-27.25-20.38,2.9-35.21,21.19-32,41.77,3.83,24.91,27,38.35,49.55,43.64a118.57,118.57,0,0,1-11.95,15.63c-23.25-5.47-42.95-22.24-49.36-45.66-6.25-22.81.09-58.4,27-64.39,24.31-5.41,49.94-1.2,64.93,20.12,14.45,20.55,13.4,47.06,4.3,69.6-17.68,43.86-60.84,70.45-100.22,92.59-45.37,25.51-91.85,49.36-136.54,76.08-20.28,12.12-40,26.15-54.51,45.08-10.76,14-18.31,30.75-23.33,48q-2,3.38-3.89,6.79c6.77-32.87,19.3-63.82,40-91.48C127.8,413.29,173.59,390.43,220.39,368ZM345,273.79c-20.38-4.23-46.15-16.66-44.86-41.45,1-19.11,25.26-30.94,40.8-19.61,17.7,12.91,15.39,38.36,7,55.8-.85,1.79-1.77,3.56-2.71,5.33Z"/></svg>