<svg id="Layer_1" data-name="Layer 1" xmlns="http://www.w3.org/2000/svg" viewBox="0 0 600 600"><defs><style>.cls-1{fill:#88e0ff;}.cls-2{fill:#231f20;}</style></defs><title>doodle</title><path class="cls-1" d="M240.25,524.22a8.24,8.24,0,0,1-8.33-8.2l-1-102.29-115.75,58.5a8.21,8.21,0,0,1-3.76.91,8.39,8.39,0,0,1-7-3.86,8.23,8.23,0,0,1-.53-7.89L156,347.72l-128-19A8.28,8.28,0,0,1,25.87,313l114.21-51L85.61,180.94a8.14,8.14,0,0,1-.47-8.47A8.2,8.2,0,0,1,96.25,169l88.55,45.32L231.09,81.79a8.28,8.28,0,0,1,15.14-1.14L294,171.1,407.2,78.38a8.16,8.16,0,0,1,5.22-1.9,8.46,8.46,0,0,1,6.47,3.09,8.21,8.21,0,0,1,1.67,6.85l-19.31,95.73L524.9,138.64a8.4,8.4,0,0,1,2.79-.48,8.3,8.3,0,0,1,7.13,4.15,8.18,8.18,0,0,1,0,8.23L481,245.39l93.24,34.39a8.27,8.27,0,0,1-.21,15.6L463.2,332.91,584.75,440.82a8.08,8.08,0,0,1,2.26,9.1,8.19,8.19,0,0,1-7.67,5.39A8.68,8.68,0,0,1,577,455L405.15,407.14l27.24,106.68a8.18,8.18,0,0,1-1.43,7.09,8.48,8.48,0,0,1-6.63,3.26,8.18,8.18,0,0,1-5.73-2.37L315.23,421.28,247,520.62A8.12,8.12,0,0,1,240.25,524.22Z"/><path class="cls-2" d="M238.92,79.74a4.69,4.69,0,0,1,4.21,2.55l49.78,94.22L409.42,81.08a4.7,4.7,0,0,1,3-1.1,4.79,4.79,0,0,1,4.71,5.75L396.6,187.49l129.46-45.55a5,5,0,0,1,1.63-.28,4.79,4.79,0,0,1,4.12,7.15L475.9,247.25,573,283.06a4.78,4.78,0,0,1-.12,9L456.38,331.53l126,111.91a4.79,4.79,0,0,1-3.09,8.37,5.12,5.12,0,0,1-1.36-.19L400.26,402.15,429,514.69a4.78,4.78,0,0,1-4.67,6A4.68,4.68,0,0,1,421,519.3L314.7,415.88,244.14,518.64a4.62,4.62,0,0,1-3.89,2.08,4.76,4.76,0,0,1-4.83-4.74l-1.07-107.91-120.77,61a4.76,4.76,0,0,1-6.5-6.26L161.15,345,28.55,325.28a4.78,4.78,0,0,1-1.25-9.1l118-52.7L88.51,179a4.81,4.81,0,0,1,3.94-7.48,4.87,4.87,0,0,1,2.21.55l92.11,47.15L234.39,82.94a4.74,4.74,0,0,1,4.53-3.2m0-7a11.64,11.64,0,0,0-11.13,7.89l-45,128.69-85-43.49a11.71,11.71,0,0,0-15.79,5,11.57,11.57,0,0,0,.65,12.06l52.15,77.6L24.45,309.8a11.77,11.77,0,0,0,3.07,22.4l123.4,18.3-50.2,109.44a11.75,11.75,0,0,0,16,15.41l110.74-56,1,96.67a11.7,11.7,0,0,0,11.82,11.67,11.58,11.58,0,0,0,9.66-5.12l65.86-95.93,100.39,97.64a11.7,11.7,0,0,0,8.17,3.35,12,12,0,0,0,9.39-4.61A11.62,11.62,0,0,0,435.78,513L410,412.12,576.1,458.36a12.4,12.4,0,0,0,3.24.44,11.78,11.78,0,0,0,7.74-20.59L470,334.29l105.1-35.6a11.77,11.77,0,0,0,.3-22.19l-89.38-33,51.84-91.27a11.66,11.66,0,0,0,0-11.72,11.81,11.81,0,0,0-10.15-5.89,11.93,11.93,0,0,0-4,.68L405.89,176.81,424,87.11a11.69,11.69,0,0,0-2.4-9.76A12,12,0,0,0,412.42,73,11.63,11.63,0,0,0,405,75.67l-109.89,90L249.32,79a11.74,11.74,0,0,0-10.4-6.27Z"/></svg>