<svg id="Layer_1" data-name="Layer 1" xmlns="http://www.w3.org/2000/svg" viewBox="0 0 600 600"><defs><style>.cls-1{fill:#fff;}.cls-2{fill:#fff200;}.cls-3{fill:#58595b;}.cls-4{fill:#939598;}.cls-5{fill:#231f20;}</style></defs><title>doodle</title><path class="cls-1" d="M349.3,406.26c-.94,7.6-1.24,15.72-2.9,23.29q14.72-.9,29.45-1.7c0-8.57,2.17-17.64,3.33-26.05q1.51-11,3.15-22a6.06,6.06,0,0,1-1.25-4.46c.34-6.11,1.68-12.36,2.51-18.43,1.59-11.69,2.34-24.11,5.16-35.65q-14.76.88-29.52,1.79c-2.16,18.42-4.29,36.84-6.52,55.24Q351,392.29,349.3,406.26Z"/><path class="cls-1" d="M254.86,410.41c-1.1,8.13-1.78,16.44-3.25,24.54q13.89-.74,27.77-1.5c.45-13,2.31-26.27,4.23-39.35-1.26,0-2.51-.05-3.66,0-2.38.1-3.47-2.19-3.19-4.19q2.28-16.62,4.61-33.23c1.33-9.53,2.19-19.42,4.24-28.89l-19.22,1.28c-.37,8.6-2.37,17.37-3.62,25.87-1.36,9.24-2.66,18.49-4,27.74S256.1,401.16,254.86,410.41Z"/><path class="cls-1" d="M435.51,424.1q10-.75,19.9-1.63c1.87-14.65,4.46-29.24,7.16-43.77h-.9a3.21,3.21,0,0,1-3.18-3.18c.38-9.91,2.68-19.61,4.6-29.31s3.44-19.94,6.27-29.54l-9.16.5q-5.15,19.88-9.35,40c-.16,1.67-.34,3.34-.5,5-.38,3.94-.21,8.57-1.27,12.39a7.06,7.06,0,0,1-2.47,3.79,3.35,3.35,0,0,1-3.53,1.86q-1.92,10.5-3.73,21C438.07,408.67,437.32,416.62,435.51,424.1Z"/><path class="cls-1" d="M343.59,404.11q1.49-13.44,3-26.86c2-17.93,4.09-35.84,6.16-53.76L335,324.61a1.2,1.2,0,0,1,0,.19c-.32,7.14-2.44,14.37-3.54,21.43q-1.7,10.93-2.68,21.95c-.31,3.47-.58,6.94-.79,10.42-.19,3.12.21,6.78-.62,9.8s-2.59,3.87-4.92,3.8q-1,8.93-1.92,17.85c-.7,6.85-.74,14.25-2,21.17q11.23-.66,22.45-1.35C340.89,421.37,342.67,412.49,343.59,404.11Z"/><path class="cls-1" d="M312.84,431.56c-.3-8.48,1.4-17.54,2.18-25.79q.69-7.36,1.45-14.71c-3.22-.74-6.59-1.9-7.3-5-.63-2.81.05-6.44.18-9.3.16-3.52.35-7.05.59-10.57.87-13.12,1.41-27.37,4.65-40.27-3.88.25-7.75.49-11.62.75a11.91,11.91,0,0,1,0,1.6c-.18,4.16-1.41,8.55-2.09,12.67l-4,24.29c-1.29,7.89-1.75,16.64-4,24.3a5.57,5.57,0,0,1-2.9,3.59q-1.14,8.32-2.22,16.66c-1,7.77-1.62,15.68-3,23.39Q298.8,432.39,312.84,431.56Z"/><path class="cls-1" d="M414.76,402.86c-1.22,7.57-2.05,15.39-3.69,22.93q9.4-.6,18.81-1.28c.44-7.95,2.32-16.07,3.56-23.84,1.09-6.8,2.23-13.59,3.38-20.38-.76,0-1.51-.09-2.23-.15a3.13,3.13,0,0,1-3-3.9c2.71-11.55,4.95-23.21,6.64-35,.91-6.3,1.56-12.62,2.39-18.93a22.08,22.08,0,0,1,.78-4.14l-12.18.71c-3.27,18.39-6.66,36.76-9.75,55.19Q417.09,388.48,414.76,402.86Z"/><path class="cls-2" d="M104.3,280.64c.88-4.94,1.66-9.91,2.43-14.87.47-3,5.84-32.16,1.77-32.69l-.17,0c-.36,8.64-1.82,17.29-2.86,25.84-1.16,9.49-2.28,19-3.48,28.48-.14,1.05-.27,2.11-.4,3.16a20.55,20.55,0,0,1,1.64-4.75A40.62,40.62,0,0,0,104.3,280.64Z"/><path class="cls-3" d="M192.38,291.68c99.13-8.88,198.32-17.74,297.59-25,0,0,0,0,0-.08.08-13.48,3.74-27.56,6.83-40.61q2.52-10.58,5.44-21.06c1.41-5,3.77-10.45,4.16-15.8-26.61,4.24-53.48,7.23-80.22,10.51q-73.86,9.06-148,15.83-36.78,3.41-73.6,6.29c-23.2,1.85-46.45,4-69.71,4.77a2,2,0,0,1-1.17.56,18.17,18.17,0,0,1-3.15.24c-2.65,6-3.76,12.71-5.16,19.1q-2,9.34-3.83,18.73c-2.1,11-3,22.81-6,33.67,11.79-1.68,23.8-2.37,35.62-3.45Zm79.85-16.17c-9.22,2.49-20.13,1.31-29.62,1.4-3.14,0-3.06-4.6,0-4.83,9.5-.71,20.18-2.73,29.62-1C274.55,271.48,274.31,275,272.23,275.51Zm47.15-5.08c-8.37,1.9-17.36,1.8-25.89,2.69-2.81.29-3.4-4.42-.66-4.91,8.31-1.48,17.44-3.43,25.9-2.59C321.31,265.88,322.25,269.78,319.38,270.43Zm66.81-4.53c-5,1.86-11,1.5-16.25,1.81-5.6.33-11.15.42-16.76.44-2.22,0-2.78-3.49-.53-3.94a155.67,155.67,0,0,1,16.25-2.13c5.57-.5,11.79-1.77,17.29-.59C388.59,262,388.13,265.18,386.19,265.9Zm97-12.48c-4.47,2.62-11.15,1.74-16.08,1.58-2.56-.09-3.25-4-.62-4.57,4.75-1.09,11.26-3.31,16.1-1.62A2.55,2.55,0,0,1,483.23,253.42Zm-36.9-40.71c5.18-1.05,10.43-1.63,15.67-2.22,5.66-.63,11.5-1.78,17.19-1.6a2.68,2.68,0,0,1,.71,5.24c-10.13,2.9-22.5,3.38-33,3C444.51,217,443.79,213.22,446.33,212.71ZM432.55,237c8-1.93,19-4.36,27.1-2.67,2.78.58,2.23,4.26,0,5.1-3.95,1.47-8.43,1.36-12.62,1.63-4.61.3-9.25.59-13.87.46C430.61,241.48,430,237.65,432.55,237Zm11.73,17.84c2.38.51,2.38,4.32,0,4.82-4.91,1-10,.8-15,1-5.42.22-10.91.83-16.33.56-2.59-.14-3.24-3.89-.63-4.59,5.15-1.39,10.63-1.76,15.94-2.09S439.05,253.77,444.28,254.87Zm-49.95-35.54c10.73,1,21.55-7.67,32-3.23,2.44,1,.82,4.21-1.2,4.43-5.91.64-11.43,1.64-17.25,2.82-4.8,1-9.34,1.32-14.09,0C391.67,222.68,392,219.12,394.33,219.33Zm-13.75,23.3c4.64-.91,9.3-1.64,14-2.39,4.21-.67,8.6-1.81,12.87-1.47,2.13.17,3.48,3.29,1.19,4.41-7.78,3.8-18.9,4-27.41,4C378.62,247.2,378,243.14,380.58,242.63ZM348.82,224c8.34-1.58,18.45-4.92,26.94-3.78,2.1.29,2.29,3.54.58,4.43-7.49,3.9-18.66,3.59-26.91,3.9C346.84,228.67,346.24,224.5,348.82,224Zm-.88,23.23c2.86.46,2.39,4.6,0,5.33-8.11,2.49-18.59,1.72-27,1.5-2.54-.07-3.31-4.16-.62-4.61C328.92,248.05,339.28,245.87,347.94,247.25ZM300.1,229.4a146.11,146.11,0,0,1,17.49-4.25c3.82-.69,7.25-1.28,10.13,1.79a2.46,2.46,0,0,1-2.37,4.08c-3.7-1.07-9.25.87-13,1.37s-7.76.76-11.7.93C298.3,233.42,298,230.05,300.1,229.4Zm-6.39,21.07c2.35,1.42,1.08,4.45-1.29,4.75-4.85.62-9.53.87-14.39,1.81a27.58,27.58,0,0,1-12,.19c-2.64-.61-1.91-4.46.62-4.55C274.93,252.38,285.93,245.78,293.71,250.47Zm-41.79-17.41c4.45-1.37,9.27-1.56,13.87-2.19,4.26-.58,8.58-1.53,12.89-1.45,3.27.05,3.56,4.37.73,5.43-7.72,2.87-19.43,3.83-27.49,2.21C249.82,236.63,250.09,233.63,251.92,233.06Zm-7.64,24c2.34.47,1.94,3.68,0,4.34-5.35,1.85-11.41,1.55-17,1.77s-11.5.78-17-.27c-2.2-.41-2.06-3.79,0-4.29,5.47-1.34,11.4-1.16,17-1.45S238.73,255.93,244.28,257.05ZM192,237.88c4.77-1.6,9.86-2.07,14.85-2.67,5.77-.69,11.81-1.73,17.61-1,2.64.32,3.36,3.85.64,4.74-10,3.29-22.15,3.15-32.56,3A2,2,0,0,1,192,237.88ZM178,277.29c4.81-1.26,9.85-1.5,14.8-1.92s10-1.31,14.88-.55c2.6.41,2.13,4.13,0,4.8-4.4,1.41-9.28,1.25-13.87,1.56-5.05.35-10.17.92-15.23.41C176.2,281.35,175.42,278,178,277.29Zm-5.35-16.64c2,.45,2.64,3.78.62,4.69-3.41,1.53-7.21,1.54-10.91,1.86-3.9.34-7.88.75-11.74,0-2.18-.44-1.61-3.18,0-3.86,3.42-1.45,7.27-1.77,10.94-2.21S169,259.83,172.61,260.65Zm-37.33-20.07c7.19-1.49,15.9-2.22,23.14-.69,2.56.54,2.55,4.63,0,5.17-7.24,1.53-15.95.8-23.14-.69A2,2,0,0,1,135.28,240.58Zm-6.09,46.19a2,2,0,0,1-.48-3.68c3.66-2.16,8.48-2.08,12.64-2.44,4.72-.39,9.63-1.09,14.29,0,2.45.56,2.32,4.21,0,4.84-4.3,1.17-8.89.88-13.32,1.15C138,286.87,133.34,288,129.19,286.77Z"/><path class="cls-2" d="M79.27,261c14-2.71,15-28.54,3.13-32.46a1.84,1.84,0,0,1-1.08-.28l0,0a11.43,11.43,0,0,0-4.4,0,2.77,2.77,0,0,1-1.83-.28c-4.65,2.87-7,12.45-7.07,16.52C67.86,250.55,70.76,262.63,79.27,261Z"/><path class="cls-1" d="M460.4,422c2.47-.23,4.93-.47,7.4-.72,10.09-1,17.21-4.81,19.63-15.22,2.22-9.53,2.51-19.74,3.45-29.46q2.83-29.48,4.81-59a3.74,3.74,0,0,1-.42-.68c-1-2.16-5.55-1.7-8.73-1.31a4.16,4.16,0,0,1,0,.8c-1.65,20.64-9.82,39.81-13.81,60a3.2,3.2,0,0,1-3.07,2.33h-.9C466.05,393.16,463.45,407.64,460.4,422Z"/><path class="cls-2" d="M79.1,281.87c-1.26-.06-4.35-.73-5.84-.3l-.1.1c.06,3.45-.1,6.91,0,10.37a62.25,62.25,0,0,0,10.39.07,39.16,39.16,0,0,0,.53-5c.17-1.28.82-3.47.92-5.16A53.25,53.25,0,0,0,79.1,281.87Z"/><path class="cls-1" d="M385.19,402.34c-1.29,8.19-1.73,17.12-3.88,25.2q12.13-.69,24.29-1.42c.51-8.3,2.18-16.68,3.38-24.85q2-13.9,4.28-27.76c2.93-18.1,5.94-36.2,9.38-54.21l-17.55,1a3.57,3.57,0,0,1,0,1c-2.65,13.35-5,26.74-6.88,40.22q-.75,5.4-1.39,10.82c-.28,2.3,0,5.15-1.11,7.26-1.4,2.76-4.37,3-7.23,2.6Q386.81,392.26,385.19,402.34Z"/><path class="cls-3" d="M578,177.88c-2.19-4.65-4.72-9.15-7.23-13.65-.43,2.79-1,5.57-1.48,8.29q-1.62,9.57-3.34,19.14c-8,45-17.21,89.74-26.24,134.53q-6.79,33.74-13.6,67.46-3.42,16.94-6.83,33.86c-1.24,6.13-2.59,12.63-7,17,6.22,5.56,11.25,13.88,15,20.93,3.84-4.18,6-9.95,7.69-15.86,2.84-9.86,5.45-19.8,8.07-29.72,18.59-70.41,32.75-141.63,45.31-213.31,0-4.42-1.68-8.54-3.37-12.75Q581.72,185.75,578,177.88Z"/><path class="cls-3" d="M506.66,447.16a3,3,0,0,1-1.65-1.93q-51.45,6.61-103.1,11.68-94.85,9.43-190,14.4-47.6,2.44-95.24,3.75-23.82.65-47.64,1c-15,.23-30.09.88-45.05.18,1.39,3.47,2.72,7,4.22,10.37a23.77,23.77,0,0,0,2.09,4.62c1.4,1.86,1.77,1.55,4,2l1.15.24c16.16-.08,32.39,1,48.53,1.3q26.66.43,53.31.18c63.51-.56,127-3.73,190.33-8.23,31.89-2.27,63.76-4.81,95.62-7.42,31.53-2.59,63.49-4,94.73-9.18a3.25,3.25,0,0,1,2,.29,20.05,20.05,0,0,0,2.2-1,144,144,0,0,0-8-12.73C511.79,453.46,509,450.44,506.66,447.16Z"/><path class="cls-4" d="M129.61,468.73c127-3.93,253.63-14.32,379.68-30.23,1.87-2.87,2.7-6.41,3.42-9.79,1.1-5.17,2.1-10.37,3.15-15.56q3.3-16.39,6.61-32.79,11.84-58.58,23.66-117.15,5.86-29.1,11.34-58.28,2.76-14.85,5.35-29.75c.8-4.59,3.75-15.43,2-22.13-.53-1.09-1-2.18-1.54-3.29a6.18,6.18,0,0,0-4.67-2.3q-55.33,5.08-110.69,10-97.76,8.72-195.46,17.74c-63.2,5.73-127.13,8.89-189.51,21a3.13,3.13,0,0,1-1.58,1.2c-10.24,3.57-14,14.05-16,23.78-2.15,10.29-3.76,20.73-5.38,31.12-5.91,37.89-9.88,76-13.52,114.2q-2.77,29.06-5.41,58.11c-.87,9.39-1.76,18.77-2.6,28.16-.39,4.33-.77,9.28.64,13.47a2,2,0,0,1,.77.84c.56,1.11,1.09,2.24,1.6,3.37.14.16.27.32.41.47,17.79-1.11,35.77-.58,53.59-.88Q102.54,469.57,129.61,468.73ZM540.05,202c1.68-9.26,2.91-19.29,6.45-28.06.18-.45.93-.44.91.12-.45,8.88-2.94,17.78-4.47,26.53-1.62,9.25-2,19.45-5,28.35a.75.75,0,0,1-1.46-.2C536,220,538.49,210.65,540.05,202Zm-8.85,56.71c1-4.74,1.46-9.46,2.12-14.25.1-.68,1.1-.56,1.28,0a18.56,18.56,0,0,1-2.26,14.73A.63.63,0,0,1,531.2,258.74ZM30.42,416.34a.87.87,0,0,1-1.68-.46c.69-4.64.47-9.67,1.8-14.2a.68.68,0,0,1,1.29,0C33.21,406.48,31.82,411.74,30.42,416.34Zm6.17-54.64c-1,8.17-1.12,17.15-3.76,25a.7.7,0,0,1-1.37-.18c-.73-9.13,1.63-19,2.75-28.05.87-7.12.41-17.11,4.37-23.32a.74.74,0,0,1,1.36.37C39.46,344.18,37.65,353,36.59,361.7Zm89.54-138.87a3.09,3.09,0,0,1,3.35-1.36c.81.13,1.54.25,2.26.43,27.46-2.86,55.08-4.35,82.59-6.63,48.74-4,97.41-9,146-14.37,48.91-5.46,97.61-12.57,146.49-18.22a2.13,2.13,0,0,1,3.41-.19c4.11,4.63,1.63,10.83.19,16.14-2,7.33-3.91,14.68-5.69,22.07-1.87,7.71-3.52,15.48-4.9,23.3s-1.94,15.53-3.43,23.17a3.53,3.53,0,0,1-2.29,5.84c-28.22,2.29-56.46,4.31-84.69,6.46-49.95,3.8-99.87,8.1-149.78,12.36q-37.42,3.19-74.86,6.43-18.45,1.62-36.88,3.26c-11.5,1-23.13,2.48-34.7,2.79a3.55,3.55,0,0,1-4.31-.2,2.47,2.47,0,0,1-.51-3.84c4.09-12.33,5-26.11,7.58-38.82S120.15,234.44,126.13,222.83ZM100,281c.46-3.52.93-7,1.39-10.55,1.8-13.65,2.67-27.91,6.08-41.27a.51.51,0,0,1,1,.13c0,.41,0,.81,0,1.22a1.36,1.36,0,0,1,.45,0c4.6.65,3.83,5.21,3.58,8.86-.47,6.92-1.23,13.81-2.16,20.67-1,7.11-2,14.22-3.26,21.29-.55,3.2-1.2,9.53-4.6,11.29-1.89,1-3.22.1-3.65-1.76C98.13,288.22,99.59,283.77,100,281ZM62.37,240c1.25-7.44,7.54-18.74,15.44-18,10.44-2.63,18.13,8.68,19.13,18.52.72,7-.1,13.52-4.84,19-3.84,4.42-9.17,8.35-15.3,7.84C64.32,266.34,60.69,250,62.37,240ZM90,288.72c-.35,2.54-.08,6.48-2.18,8.36-1.82,1.63-5,1.1-7.18,1.08l-10.47-.09A3.13,3.13,0,0,1,67.14,295c-.34-5.39-.48-11.1,1.15-16.32.57-4.07,6.77-3.23,10.14-3.06,3.8.2,12.44-1.14,12.71,4.63C91.27,283,90.4,286,90,288.72ZM40.44,443.13c-.52-5,.81-10.62,1.29-15.59q.8-8.1,1.58-16.2c2.21-22.67,3.93-45.47,7-68a3,3,0,0,1,3.47-2.58A14.33,14.33,0,0,1,59,338.35c7.29-1.83,15.46-1.68,22.93-2.28,5.38-.44,10.76-.85,16.14-1.28a3.35,3.35,0,0,1,2.74-.22q16.63-1.33,33.26-2.64,80.44-6.24,161-11.59a3,3,0,0,1,3-.21q13.1-.87,26.2-1.74,47.29-3.08,94.62-5.84,23.92-1.4,47.86-2.72c3.36-.19,6.73-.43,10.11-.66a3,3,0,0,1,4.8-.31c3-.17,6-.3,9-.33,3.24,0,6.57.37,8.84,2.45a2.94,2.94,0,0,1,3.16,3.24q-2.53,38.23-6.46,76.36c-.94,9.15-1,19.74-6.59,27.55-5.26,7.4-14.12,9.25-22.63,10-45.06,4-90.36,6.26-135.51,8.93q-68.73,4.05-137.49,7.32c-45.11,2.13-90.24,3.75-135.38,5.25C52.31,449.85,41.38,452.16,40.44,443.13Z"/><path class="cls-1" d="M151.06,337.79a2.12,2.12,0,0,1-.07-.45l-12.63,1-5.25.41s0,.08,0,.13q-2.62,27.19-3.05,54.54a3.29,3.29,0,0,1-2.35,3.09c-1.27.35-2.53.62-3.79.84-.66,7.31-1.31,14.62-2.05,21.93-.72,7.12-.74,14.94-2.49,22Q133,440.63,146.6,440c.07-8.95,1.66-18,2.59-26.9q.84-8,1.69-16c-.45,0-.89,0-1.29,0a3.24,3.24,0,0,1-3.22-3.22q.84-15.09,2.08-30.17C149.14,355.36,149.16,346.12,151.06,337.79Z"/><path class="cls-1" d="M94.91,341.66l-14,1.13a497.32,497.32,0,0,0-5.75,54.33c-.07,1.55-1.42,3.37-3.17,3.16l-1-.08Q70,411,69.06,421.77c-.59,6.9-.31,14.74-2,21.61q9.42-.36,18.83-.75c-.14-8.44,1.54-17.23,2.38-25.56l2.61-25.9c1.66-16.51,3-33.11,5-49.58Z"/><path class="cls-1" d="M118.18,339.86,102,341.11c-1.39,17.07-3.57,34.11-5.35,51.14l-2.82,27c-.79,7.57-1,15.64-2.53,23.17l23.35-1c-.69-7.91.89-16.51,1.49-24.35.5-6.4,1.06-12.81,1.62-19.21a3.21,3.21,0,0,1-2.8-3.15q1.09-15.13,1.93-30.27C117.3,356.31,117.26,348,118.18,339.86Z"/><path class="cls-1" d="M64.11,361.28c.77-5.87,1.17-12.07,2.72-17.8-4.94.12-10.64.8-11.17,4.33a2.37,2.37,0,0,1-.29.85c-1.52,22-4.1,44-6.23,65.92l-1.68,17.28c-.26,2.59-1.2,6.06-.87,8.64.53,4.05,3,3.49,6.54,3.37,3-.09,6-.21,9-.32-.77-7.09.69-14.8,1.24-21.78.58-7.33,1.22-14.66,1.88-22-2.15-.37-4.08-1.15-4.93-3-1.79-3.91.67-11.26,1.19-15.36Q62.82,371.35,64.11,361.28Z"/><path class="cls-1" d="M189.9,334.45l-23,1.7a5,5,0,0,1,0,.54l-4.59,39.67c-.37,3.21-.75,6.43-1.12,9.65-.29,2.46-.09,5.87-1.17,8.17a4.76,4.76,0,0,1-3.27,2.55q-1,9.28-2.07,18.55c-.95,8.11-1.46,16.51-3.2,24.52q13.26-.58,26.52-1.21c0-8.31,1.76-16.94,2.69-25.11,1-8.9,2.06-17.8,3.1-26.7C185.87,369.34,187.86,351.89,189.9,334.45Z"/><path class="cls-1" d="M214.06,412.62c.7-6.59,1.37-13.18,2.05-19.77L214,393a3.28,3.28,0,0,1-3.25-3.25c.29-18.73.53-38.6,4.31-57.08L196.16,334c-2.13,17.95-4.34,35.89-6.5,53.84q-1.65,13.89-3.35,27.78c-.92,7.41-1.24,15.33-2.86,22.71L211.51,437C211.79,428.87,213.21,420.64,214.06,412.62Z"/><path class="cls-1" d="M252.51,381.83c1.14-8.84,2.37-17.67,3.6-26.5,1.19-8.49,1.81-17.45,3.83-25.81q-14.61,1-29.23,2c-1.1,19.21-2.64,38.33-3.11,57.57a3.34,3.34,0,0,1-3.28,3.28l-2,.12q-1.23,11.14-2.48,22.28c-.82,7.23-1.25,14.7-2.54,21.92q14.42-.72,28.83-1.47C246.91,417.48,250.25,399.43,252.51,381.83Z"/><path class="cls-5" d="M331.46,437.07c45.15-2.67,90.45-4.91,135.51-8.93,8.51-.76,17.37-2.61,22.63-10,5.55-7.81,5.65-18.4,6.59-27.55q3.93-38.13,6.46-76.36a2.94,2.94,0,0,0-3.16-3.24c-2.27-2.08-5.6-2.49-8.84-2.45-3,0-6,.16-9,.33a3,3,0,0,0-4.8.31c-3.38.23-6.75.47-10.11.66q-23.94,1.32-47.86,2.72-47.33,2.76-94.62,5.84-13.11.86-26.2,1.74a3,3,0,0,0-3,.21q-80.52,5.37-161,11.59-16.64,1.29-33.26,2.64a3.35,3.35,0,0,0-2.74.22c-5.38.43-10.76.84-16.14,1.28-7.47.6-15.64.45-22.93,2.28a14.33,14.33,0,0,0-5.21,2.36,3,3,0,0,0-3.47,2.58c-3,22.58-4.75,45.38-7,68q-.78,8.1-1.58,16.2c-.48,5-1.81,10.62-1.29,15.59.94,9,11.87,6.72,18.15,6.51,45.14-1.5,90.27-3.12,135.38-5.25Q262.75,441.15,331.46,437.07Zm141.3-60.69c4-20.18,12.16-39.35,13.81-60a4.16,4.16,0,0,0,0-.8c3.18-.39,7.68-.85,8.73,1.31a3.74,3.74,0,0,0,.42.68q-2,29.55-4.81,59c-.94,9.72-1.23,19.93-3.45,29.46-2.42,10.41-9.54,14.2-19.63,15.22-2.47.25-4.93.49-7.4.72,3.05-14.37,5.65-28.85,8.39-43.3h.9A3.2,3.2,0,0,0,472.76,376.38Zm-26.15,1.94a7.06,7.06,0,0,0,2.47-3.79c1.06-3.82.89-8.45,1.27-12.39.16-1.67.34-3.34.5-5q4.2-20.08,9.35-40l9.16-.5c-2.83,9.6-4.33,19.74-6.27,29.54s-4.22,19.4-4.6,29.31a3.21,3.21,0,0,0,3.18,3.18h.9c-2.7,14.53-5.29,29.12-7.16,43.77q-9.93.88-19.9,1.63c1.81-7.48,2.56-15.43,3.84-22.91q1.81-10.51,3.73-21A3.35,3.35,0,0,0,446.61,378.32Zm-5.18-60.11a22.08,22.08,0,0,0-.78,4.14c-.83,6.31-1.48,12.63-2.39,18.93-1.69,11.75-3.93,23.41-6.64,35a3.13,3.13,0,0,0,3,3.9c.72.06,1.47.11,2.23.15-1.15,6.79-2.29,13.58-3.38,20.38-1.24,7.77-3.12,15.89-3.56,23.84q-9.4.67-18.81,1.28c1.64-7.54,2.47-15.36,3.69-22.93q2.34-14.37,4.74-28.75c3.09-18.43,6.48-36.8,9.75-55.19Zm-45.77,61.37c1.06-2.11.83-5,1.11-7.26q.64-5.42,1.39-10.82C400,348,402.39,334.63,405,321.28a3.57,3.57,0,0,0,0-1l17.55-1c-3.44,18-6.45,36.11-9.38,54.21Q411,387.37,409,401.27c-1.2,8.17-2.87,16.55-3.38,24.85q-12.15.75-24.29,1.42c2.15-8.08,2.59-17,3.88-25.2q1.6-10.08,3.24-20.16C391.29,382.54,394.26,382.34,395.66,379.58Zm-6.91-58.29c-2.82,11.54-3.57,24-5.16,35.65-.83,6.07-2.17,12.32-2.51,18.43a6.06,6.06,0,0,0,1.25,4.46q-1.62,11-3.15,22c-1.16,8.41-3.35,17.48-3.33,26.05q-14.73.82-29.45,1.7c1.66-7.57,2-15.69,2.9-23.29q1.71-14,3.41-27.94c2.23-18.4,4.36-36.82,6.52-55.24Q374,322.17,388.75,321.29Zm-68.27,88.76q.91-8.93,1.92-17.85c2.33.07,4.13-.92,4.92-3.8s.43-6.68.62-9.8c.21-3.48.48-7,.79-10.42q1-11,2.68-21.95c1.1-7.06,3.22-14.29,3.54-21.43a1.2,1.2,0,0,0,0-.19l17.78-1.12c-2.07,17.92-4.17,35.83-6.16,53.76q-1.5,13.42-3,26.86c-.92,8.38-2.7,17.26-2.67,25.76q-11.22.69-22.45,1.35C319.74,424.3,319.78,416.9,320.48,410.05ZM290,393.1a5.57,5.57,0,0,0,2.9-3.59c2.25-7.66,2.71-16.41,4-24.3l4-24.29c.68-4.12,1.91-8.51,2.09-12.67a11.91,11.91,0,0,0,0-1.6c3.87-.26,7.74-.5,11.62-.75-3.24,12.9-3.78,27.15-4.65,40.27-.24,3.52-.43,7.05-.59,10.57-.13,2.86-.81,6.49-.18,9.3.71,3.12,4.08,4.28,7.3,5q-.75,7.35-1.45,14.71c-.78,8.25-2.48,17.31-2.18,25.79q-14,.81-28.08,1.59c1.39-7.71,2-15.62,3-23.39Q288.84,401.43,290,393.1Zm-23.6-64,19.22-1.28c-2.05,9.47-2.91,19.36-4.24,28.89q-2.31,16.62-4.61,33.23c-.28,2,.81,4.29,3.19,4.19,1.15-.05,2.4,0,3.66,0-1.92,13.08-3.78,26.31-4.23,39.35q-13.89.76-27.77,1.5c1.47-8.1,2.15-16.41,3.25-24.54,1.24-9.25,2.58-18.49,3.92-27.73s2.63-18.5,4-27.74C264,346.44,266,337.67,266.39,329.07ZM219.8,414.78q1.26-11.14,2.48-22.28l2-.12a3.34,3.34,0,0,0,3.28-3.28c.47-19.24,2-38.36,3.11-57.57q14.61-1,29.23-2c-2,8.36-2.64,17.32-3.83,25.81-1.23,8.83-2.46,17.66-3.6,26.5-2.26,17.6-5.6,35.65-6.42,53.4q-14.42.75-28.83,1.47C218.55,429.48,219,422,219.8,414.78Zm-159.45-18c.85,1.85,2.78,2.63,4.93,3-.66,7.33-1.3,14.66-1.88,22-.55,7-2,14.69-1.24,21.78-3,.11-6,.23-9,.32-3.53.12-6,.68-6.54-3.37-.33-2.58.61-6.05.87-8.64l1.68-17.28c2.13-21.95,4.71-43.92,6.23-65.92a2.37,2.37,0,0,0,.29-.85c.53-3.53,6.23-4.21,11.17-4.33-1.55,5.73-2,11.93-2.72,17.8q-1.29,10.07-2.57,20.14C61,385.52,58.56,392.87,60.35,396.78Zm27.87,20.29c-.84,8.33-2.52,17.12-2.38,25.56q-9.42.39-18.83.75c1.74-6.87,1.46-14.71,2-21.61Q70,411,71,400.2l1,.08c1.75.21,3.1-1.61,3.17-3.16a497.32,497.32,0,0,1,5.75-54.33l14-1.13.91-.07c-2,16.47-3.33,33.07-5,49.58Zm29.51-19.21c-.56,6.4-1.12,12.81-1.62,19.21-.6,7.84-2.18,16.44-1.49,24.35l-23.35,1c1.56-7.53,1.74-15.6,2.53-23.17l2.82-27c1.78-17,4-34.07,5.35-51.14l16.21-1.25c-.92,8.12-.88,16.45-1.32,24.58q-.84,15.13-1.93,30.27A3.21,3.21,0,0,0,117.73,397.86Zm31.86-.72c.4,0,.84,0,1.29,0q-.85,8-1.69,16c-.93,8.88-2.52,17.95-2.59,26.9q-13.6.62-27.21,1.19c1.75-7,1.77-14.86,2.49-22,.74-7.31,1.39-14.62,2.05-21.93,1.26-.22,2.52-.49,3.79-.84a3.29,3.29,0,0,0,2.35-3.09q.44-27.33,3.05-54.54c0-.05,0-.09,0-.13l5.25-.41,12.63-1a2.12,2.12,0,0,0,.07.45c-1.9,8.33-1.92,17.57-2.61,26q-1.26,15.08-2.08,30.17A3.24,3.24,0,0,0,149.59,397.14ZM178,438.59q-13.26.62-26.52,1.21c1.74-8,2.25-16.41,3.2-24.52q1.08-9.27,2.07-18.55a4.76,4.76,0,0,0,3.27-2.55c1.08-2.3.88-5.71,1.17-8.17.37-3.22.75-6.44,1.12-9.65l4.59-39.67a5,5,0,0,0,0-.54l23-1.7c-2,17.44-4,34.89-6.07,52.33-1,8.9-2.09,17.8-3.1,26.7C179.8,421.65,178.06,430.28,178,438.59Zm8.27-23q1.71-13.89,3.35-27.78c2.16-17.95,4.37-35.89,6.5-53.84l18.89-1.36c-3.78,18.48-4,38.35-4.31,57.08A3.28,3.28,0,0,0,214,393l2.12-.12c-.68,6.59-1.35,13.18-2.05,19.77-.85,8-2.27,16.25-2.55,24.36l-28.06,1.35C185.07,431,185.39,423,186.31,415.62Z"/><path class="cls-5" d="M76.8,267.37c6.13.51,11.46-3.42,15.3-7.84,4.74-5.46,5.56-11.93,4.84-19-1-9.84-8.69-21.15-19.13-18.52-7.9-.73-14.19,10.57-15.44,18C60.69,250,64.32,266.34,76.8,267.37ZM68,244.48c.08-4.07,2.42-13.65,7.07-16.52a2.77,2.77,0,0,0,1.83.28,11.43,11.43,0,0,1,4.4,0l0,0a1.84,1.84,0,0,0,1.08.28c11.82,3.92,10.89,29.75-3.13,32.46C70.76,262.63,67.86,250.55,68,244.48Z"/><path class="cls-5" d="M78.43,275.62c-3.37-.17-9.57-1-10.14,3.06-1.63,5.22-1.49,10.93-1.15,16.32a3.13,3.13,0,0,0,3.06,3.07l10.47.09c2.2,0,5.36.55,7.18-1.08,2.1-1.88,1.83-5.82,2.18-8.36.37-2.71,1.24-5.74,1.11-8.47C90.87,274.48,82.23,275.82,78.43,275.62Zm5.63,11.46a39.16,39.16,0,0,1-.53,5A62.25,62.25,0,0,1,73.14,292c-.08-3.46.08-6.92,0-10.37l.1-.1c1.49-.43,4.58.24,5.84.3a53.25,53.25,0,0,1,5.88.05C84.88,283.61,84.23,285.8,84.06,287.08Z"/><path class="cls-5" d="M108.9,304.11a3.55,3.55,0,0,0,4.31.2c11.57-.31,23.2-1.76,34.7-2.79q18.43-1.65,36.88-3.26,37.43-3.28,74.86-6.43c49.91-4.26,99.83-8.56,149.78-12.36,28.23-2.15,56.47-4.17,84.69-6.46a3.53,3.53,0,0,0,2.29-5.84c1.49-7.64,2.08-15.49,3.43-23.17s3-15.59,4.9-23.3c1.78-7.39,3.7-14.74,5.69-22.07,1.44-5.31,3.92-11.51-.19-16.14a2.13,2.13,0,0,0-3.41.19c-48.88,5.65-97.58,12.76-146.49,18.22-48.6,5.42-97.27,10.33-146,14.37-27.51,2.28-55.13,3.77-82.59,6.63-.72-.18-1.45-.3-2.26-.43a3.09,3.09,0,0,0-3.35,1.36c-6,11.61-7.59,25.94-10.16,38.62s-3.49,26.49-7.58,38.82A2.47,2.47,0,0,0,108.9,304.11Zm12.67-38.92q1.8-9.39,3.83-18.73c1.4-6.39,2.51-13.07,5.16-19.1a18.17,18.17,0,0,0,3.15-.24,2,2,0,0,0,1.17-.56c23.26-.81,46.51-2.92,69.71-4.77q36.81-2.94,73.6-6.29,74.1-6.87,148-15.83c26.74-3.28,53.61-6.27,80.22-10.51-.39,5.35-2.75,10.77-4.16,15.8q-2.94,10.48-5.44,21.06c-3.09,13-6.75,27.13-6.83,40.61,0,0,0,.06,0,.08-99.27,7.23-198.46,16.09-297.59,25l-41.22,3.73c-11.82,1.08-23.83,1.77-35.62,3.45C118.61,288,119.47,276.2,121.57,265.19Z"/><path class="cls-5" d="M585.82,180.31c-4.57-9.82-9.34-20.58-15.7-29.65-1.62-4.26-4.78-7.63-9.15-8.58a2.55,2.55,0,0,0-2.29-.84Q361,159.09,163.41,177.5c-33.68,3.13-68.64,4.87-101.34,14.25a2.82,2.82,0,0,0-2.32-.24c-18,5.24-20.35,26.56-23,42.18-3.63,21.06-6.58,42.23-9.13,63.45-5.16,43.1-8.61,86.4-12.48,129.63-1,10.94-3,22.33-2.65,33.33.18,5.13,1.32,10.35,4.83,13.71a131,131,0,0,0,7.16,18.47c1,2.29,2,4.9,4.42,6.1s5.15.23,7.76.5h.1c13.86,1.16,27.91,1.14,41.77,1.42q23.94.48,47.87.39c32.29-.1,64.57-.92,96.82-2.26C287,495.8,350.8,491.22,414.5,486.17c35-2.77,70.44-4.3,105.09-10a3.68,3.68,0,0,0,.71-.2c14.59-2,19-19.75,22.3-31.82q8-28.86,15.35-57.92,14.32-57.08,25.34-114.93c4.25-22.05,8.42-44.17,11.75-66.38a3.23,3.23,0,0,0-.54-2.39C593.68,194.79,588.62,186.33,585.82,180.31ZM21.47,470.44c-.51-1.13-1-2.26-1.6-3.37a2,2,0,0,0-.77-.84c-1.41-4.19-1-9.14-.64-13.47.84-9.39,1.73-18.77,2.6-28.16q2.67-29.06,5.41-58.11c3.64-38.16,7.61-76.31,13.52-114.2,1.62-10.39,3.23-20.83,5.38-31.12,2-9.73,5.76-20.21,16-23.78a3.13,3.13,0,0,0,1.58-1.2c62.38-12.07,126.31-15.23,189.51-21q97.73-8.86,195.46-17.74,55.35-4.94,110.69-10a6.18,6.18,0,0,1,4.67,2.3c.5,1.11,1,2.2,1.54,3.29,1.75,6.7-1.2,17.54-2,22.13q-2.58,14.9-5.35,29.75-5.43,29.19-11.34,58.28-11.77,58.59-23.66,117.15-3.3,16.39-6.61,32.79c-1.05,5.19-2.05,10.39-3.15,15.56-.72,3.38-1.55,6.92-3.42,9.79-126,15.91-252.67,26.3-379.68,30.23q-27.06.84-54.14,1.3c-17.82.3-35.8-.23-53.59.88C21.74,470.76,21.61,470.6,21.47,470.44Zm498.46-.06a3.25,3.25,0,0,0-2-.29c-31.24,5.17-63.2,6.59-94.73,9.18-31.86,2.61-63.73,5.15-95.62,7.42-63.34,4.5-126.82,7.67-190.33,8.23q-26.66.24-53.31-.18c-16.14-.27-32.37-1.38-48.53-1.3l-1.15-.24c-2.24-.42-2.61-.11-4-2a23.77,23.77,0,0,1-2.09-4.62c-1.5-3.41-2.83-6.9-4.22-10.37,15,.7,30.08.05,45.05-.18q23.82-.36,47.64-1,47.64-1.31,95.24-3.75,95.17-4.9,190.05-14.4,51.63-5.15,103.1-11.68a3,3,0,0,0,1.65,1.93c2.31,3.28,5.13,6.3,7.44,9.51a144,144,0,0,1,8,12.73A20.05,20.05,0,0,1,519.93,470.38ZM543,419.86c-2.62,9.92-5.23,19.86-8.07,29.72-1.69,5.91-3.85,11.68-7.69,15.86-3.72-7.05-8.75-15.37-15-20.93,4.41-4.37,5.76-10.87,7-17q3.44-16.93,6.83-33.86,6.79-33.73,13.6-67.46c9-44.79,18.2-89.55,26.24-134.53q1.71-9.57,3.34-19.14c.46-2.72,1-5.5,1.48-8.29,2.51,4.5,5,9,7.23,13.65q3.69,7.86,7,15.92c1.69,4.21,3.34,8.33,3.37,12.75C575.79,278.23,561.63,349.45,543,419.86Z"/><path class="cls-5" d="M155.64,280.62c-4.66-1.06-9.57-.36-14.29,0-4.16.36-9,.28-12.64,2.44a2,2,0,0,0,.48,3.68c4.15,1.24,8.85.1,13.13-.16,4.43-.27,9,0,13.32-1.15C158,284.83,158.09,281.18,155.64,280.62Z"/><path class="cls-5" d="M150.58,267.18c3.86.77,7.84.36,11.74,0,3.7-.32,7.5-.33,10.91-1.86,2-.91,1.43-4.24-.62-4.69-3.64-.82-7.42,0-11.09.46s-7.52.76-10.94,2.21C149,264,148.4,266.74,150.58,267.18Z"/><path class="cls-5" d="M135.28,244.37c7.19,1.49,15.9,2.22,23.14.69,2.55-.54,2.56-4.63,0-5.17-7.24-1.53-15.95-.8-23.14.69A2,2,0,0,0,135.28,244.37Z"/><path class="cls-5" d="M192.57,241.88c10.41.18,22.56.32,32.56-3,2.72-.89,2-4.42-.64-4.74-5.8-.69-11.84.35-17.61,1-5,.6-10.08,1.07-14.85,2.67A2,2,0,0,0,192.57,241.88Z"/><path class="cls-5" d="M251.92,237.06c8.06,1.62,19.77.66,27.49-2.21,2.83-1.06,2.54-5.38-.73-5.43-4.31-.08-8.63.87-12.89,1.45-4.6.63-9.42.82-13.87,2.19C250.09,233.63,249.82,236.63,251.92,237.06Z"/><path class="cls-5" d="M300.63,233.32c3.94-.17,7.79-.4,11.7-.93s9.32-2.44,13-1.37a2.46,2.46,0,0,0,2.37-4.08c-2.88-3.07-6.31-2.48-10.13-1.79a146.11,146.11,0,0,0-17.49,4.25C298,230.05,298.3,233.42,300.63,233.32Z"/><path class="cls-5" d="M349.43,228.57c8.25-.31,19.42,0,26.91-3.9,1.71-.89,1.52-4.14-.58-4.43-8.49-1.14-18.6,2.2-26.94,3.78C346.24,224.5,346.84,228.67,349.43,228.57Z"/><path class="cls-5" d="M393.79,223.3c4.75,1.37,9.29,1,14.09,0,5.82-1.18,11.34-2.18,17.25-2.82,2-.22,3.64-3.4,1.2-4.43-10.45-4.44-21.27,4.22-32,3.23C392,219.12,391.67,222.68,393.79,223.3Z"/><path class="cls-5" d="M446.93,217.08c10.47.43,22.84-.05,33-3a2.68,2.68,0,0,0-.71-5.24c-5.69-.18-11.53,1-17.19,1.6-5.24.59-10.49,1.17-15.67,2.22C443.79,213.22,444.51,217,446.93,217.08Z"/><path class="cls-5" d="M210.24,262.89c5.52,1.05,11.42.5,17,.27s11.67.08,17-1.77c1.94-.66,2.34-3.87,0-4.34-5.55-1.12-11.4-.19-17,.1s-11.55.11-17,1.45C208.18,259.1,208,262.48,210.24,262.89Z"/><path class="cls-5" d="M266.07,257.22a27.58,27.58,0,0,0,12-.19c4.86-.94,9.54-1.19,14.39-1.81,2.37-.3,3.64-3.33,1.29-4.75-7.78-4.69-18.78,1.91-27,2.2C264.16,252.76,263.43,256.61,266.07,257.22Z"/><path class="cls-5" d="M320.92,254.08c8.43.22,18.91,1,27-1.5,2.39-.73,2.86-4.87,0-5.33-8.66-1.38-19,.8-27.64,2.22C317.61,249.92,318.38,254,320.92,254.08Z"/><path class="cls-5" d="M381.2,247.2c8.51,0,19.63-.22,27.41-4,2.29-1.12.94-4.24-1.19-4.41-4.27-.34-8.66.8-12.87,1.47-4.67.75-9.33,1.48-14,2.39C378,243.14,378.62,247.2,381.2,247.2Z"/><path class="cls-5" d="M433.16,241.55c4.62.13,9.26-.16,13.87-.46,4.19-.27,8.67-.16,12.62-1.63,2.23-.84,2.78-4.52,0-5.1-8.09-1.69-19.14.74-27.1,2.67C430,237.65,430.61,241.48,433.16,241.55Z"/><path class="cls-5" d="M178.54,281.59c5.06.51,10.18-.06,15.23-.41,4.59-.31,9.47-.15,13.87-1.56,2.13-.67,2.6-4.39,0-4.8-4.91-.76-9.95.14-14.88.55s-10,.66-14.8,1.92C175.42,278,176.2,281.35,178.54,281.59Z"/><path class="cls-5" d="M272.23,271.06c-9.44-1.71-20.12.31-29.62,1-3.06.23-3.14,4.85,0,4.83,9.49-.09,20.4,1.09,29.62-1.4C274.31,275,274.55,271.48,272.23,271.06Z"/><path class="cls-5" d="M318.73,265.62c-8.46-.84-17.59,1.11-25.9,2.59-2.74.49-2.15,5.2.66,4.91,8.53-.89,17.52-.79,25.89-2.69C322.25,269.78,321.31,265.88,318.73,265.62Z"/><path class="cls-5" d="M386.19,261.49c-5.5-1.18-11.72.09-17.29.59a155.67,155.67,0,0,0-16.25,2.13c-2.25.45-1.69,3.94.53,3.94,5.61,0,11.16-.11,16.76-.44,5.26-.31,11.29.05,16.25-1.81C388.13,265.18,388.59,262,386.19,261.49Z"/><path class="cls-5" d="M413,261.26c5.42.27,10.91-.34,16.33-.56,5-.21,10.09,0,15-1,2.38-.5,2.38-4.31,0-4.82-5.23-1.1-10.72-.62-16-.29s-10.79.7-15.94,2.09C409.71,257.37,410.36,261.12,413,261.26Z"/><path class="cls-5" d="M466.53,250.43c-2.63.6-1.94,4.48.62,4.57,4.93.16,11.61,1,16.08-1.58a2.55,2.55,0,0,0-.6-4.61C477.79,247.12,471.28,249.34,466.53,250.43Z"/><path class="cls-5" d="M102.4,292.67c3.4-1.76,4-8.09,4.6-11.29,1.22-7.07,2.29-14.18,3.26-21.29.93-6.86,1.69-13.75,2.16-20.67.25-3.65,1-8.21-3.58-8.86a1.36,1.36,0,0,0-.45,0c0-.41,0-.81,0-1.22a.51.51,0,0,0-1-.13c-3.41,13.36-4.28,27.62-6.08,41.27-.46,3.52-.93,7-1.39,10.55-.36,2.74-1.82,7.19-1.2,9.88C99.18,292.77,100.51,293.65,102.4,292.67Zm-.41-5.31c1.2-9.49,2.32-19,3.48-28.48,1-8.55,2.5-17.2,2.86-25.84l.17,0c4.07.53-1.3,29.64-1.77,32.69-.77,5-1.55,9.93-2.43,14.87a40.62,40.62,0,0,1-1.07,5.13,20.55,20.55,0,0,0-1.64,4.75C101.72,289.47,101.85,288.41,102,287.36Z"/><path class="cls-5" d="M537.93,229c3-8.9,3.39-19.1,5-28.35,1.53-8.75,4-17.65,4.47-26.53,0-.56-.73-.57-.91-.12-3.54,8.77-4.77,18.8-6.45,28.06-1.56,8.62-4,17.94-3.58,26.74A.75.75,0,0,0,537.93,229Z"/><path class="cls-5" d="M532.34,259.22a18.56,18.56,0,0,0,2.26-14.73c-.18-.56-1.18-.68-1.28,0-.66,4.79-1.16,9.51-2.12,14.25A.63.63,0,0,0,532.34,259.22Z"/><path class="cls-5" d="M38.58,335.14c-4,6.21-3.5,16.2-4.37,23.32-1.12,9.06-3.48,18.92-2.75,28.05a.7.7,0,0,0,1.37.18c2.64-7.84,2.77-16.82,3.76-25,1.06-8.66,2.87-17.52,3.35-26.19A.74.74,0,0,0,38.58,335.14Z"/><path class="cls-5" d="M30.54,401.68c-1.33,4.53-1.11,9.56-1.8,14.2a.87.87,0,0,0,1.68.46c1.4-4.6,2.79-9.86,1.41-14.66A.68.68,0,0,0,30.54,401.68Z"/></svg>