<svg id="Layer_1" data-name="Layer 1" xmlns="http://www.w3.org/2000/svg" viewBox="0 0 600 600"><defs><style>.cls-1{fill:#fff;}.cls-2{fill:#f7941e;}.cls-3{fill:#231f20;}</style></defs><title>doodle</title><path class="cls-1" d="M229.13,311.69c-1.09-2.23,13.56-22.81,15.43-26q9.06-15.34,17.87-30.85c10.82-19.06,24.32-39.08,28.73-60.88,3.73-18.39-5.64-50.77-30.61-43.11-22.75,7-27.09,36.31-30.75,56.23-2.08,11.3-21.24,11.55-23.09,0-3.46-21.53-10.81-49.42-34.87-56-29.6-8.15-36.94,21.8-29.11,44.09,15.38,43.75,49.46,76.51,78.52,111.22A9,9,0,0,1,229.13,311.69Z"/><path class="cls-2" d="M56.2,358c.56,12.09-.59,26.57,11.14,33.68,8.26,5,18.88,5.91,28.29,6.43,52.92,3,106.52,1.42,159.45-.62,13.93-.54,27.86-1.24,41.78-2,10.2-.55,20.5-3.24,28.15,4.59a46.13,46.13,0,0,1,4.49,5.37,7.85,7.85,0,0,1,2.87,3.93c.15.46.28.92.43,1.38,4.83,9,6.84,19.25,6.88,29.49,3.2,20.69,3.35,41.9,1.69,62.89,25.93-23.06,43.2-53.94,50.8-88.47,1-4.43,5.78-7.88,10.21-7.77,30,.7,60,.71,90-.15,12.37-.35,25.64.26,37.76-2.73,16.4-4,18.79-14.69,18.72-30-.3-60.95-2.86-121.94-4.24-182.87l-1.86-82.3c-.24-10.61,3.68-37.13-6.08-42.71-4.33-2.48-14.12-1.52-18.74-1.83q-9.09-.63-18.18-1.18C445.21,59.85,390.58,58.6,336,58s-109.26.15-163.9.64q-41,.38-81.95.9c-5.84.08-14.15-1.38-19.73.33-7.75,2.39-9.78,10.32-11.8,17.1-3.43,11.56-3.77,23.79-4.22,35.76-2,54.47-2,109.09-.92,163.58Q54.29,317.19,56.2,358Zm311-137.52a279.92,279.92,0,0,0,36.19-59.41c5.1-11.51,19.56-3.74,20.8,5.64,5.47,41.29,10.57,82.42,9.43,124.16-.44,16.17-25.66,16.16-25.12,0,1-29-.66-57.93-3.13-86.8q-3.44,5.31-7.22,10.39c-6.51,8.71-14,19-26,18.07C365.75,232.06,363.38,225.42,367.21,220.52ZM118,159.65c8.47-28.06,37.53-39.58,64.29-30,16.51,5.93,27.78,18.16,35.41,32.8,8.74-19.7,23-36,46.89-37.12,32.74-1.58,54,31.79,52.18,61.71-2.37,39.66-31.34,78-50.84,111.13-7.65,13-15.82,34.37-32.38,38-8.07,1.77-15.69-.8-20.25-6.24a217.23,217.23,0,0,1-26.39-26.75L184,299.72c-14.17-14.91-26.5-31.89-37.43-48.54C129.65,225.41,108.25,191.84,118,159.65Z"/><path class="cls-3" d="M45.35,404.33c16.85,17.57,43.88,17.38,66.38,18,65.61,1.88,131.74,2.19,197.27-2.41a54.87,54.87,0,0,1,9.26,30.16,9.43,9.43,0,0,0,.45,2.59c1.06,24.86,1.08,49.58-2.16,74.73-1.05,8.11,10.27,14.15,16.66,9.57,37.34-26.77,65.15-64.43,77.34-108.66,26.3.72,52.6.89,78.9.37,20.6-.41,45.58,1.51,63.69-10.36,19.49-12.77,17.8-36,17.34-56.46-.68-30.47-.91-61-1.33-91.44Q567.89,179,566.38,87.57c-.34-22.32-2.6-42-28.42-45.75-28.33-4.06-58.15-2.89-86.73-4C329.94,33.31,208.43,34,87.08,35.51c-24,.29-39.95,3.27-49,27.71-9.27,24.89-7.36,53.66-8,79.77Q28,233.86,31.23,324.74C32.08,348.84,27,385.23,45.35,404.33Zm9-291.63c.45-12,.79-24.2,4.22-35.76,2-6.78,4-14.71,11.8-17.1,5.58-1.71,13.89-.25,19.73-.33q41-.49,81.95-.9c54.64-.49,109.25-1.28,163.9-.64s109.24,1.88,163.76,5.21q9.09.55,18.18,1.18c4.62.31,14.41-.65,18.74,1.83,9.76,5.58,5.84,32.1,6.08,42.71l1.86,82.3c1.38,60.93,3.94,121.92,4.24,182.87.07,15.31-2.32,26-18.72,30-12.12,3-25.39,2.38-37.76,2.73-30,.86-60,.85-90,.15-4.43-.11-9.23,3.34-10.21,7.77-7.6,34.53-24.87,65.41-50.8,88.47,1.66-21,1.51-42.2-1.69-62.89,0-10.24-2.05-20.52-6.88-29.49-.15-.46-.28-.92-.43-1.38a7.85,7.85,0,0,0-2.87-3.93,46.13,46.13,0,0,0-4.49-5.37c-7.65-7.83-17.95-5.14-28.15-4.59-13.92.75-27.85,1.45-41.78,2-52.93,2-106.53,3.57-159.45.62-9.41-.52-20-1.42-28.29-6.43C55.61,384.61,56.76,370.13,56.2,358q-1.91-40.86-2.75-81.76C52.33,221.79,52.32,167.17,54.37,112.7Z"/><path class="cls-3" d="M184,299.72l2.87,3.48A217.23,217.23,0,0,0,213.27,330c4.56,5.44,12.18,8,20.25,6.24,16.56-3.63,24.73-25,32.38-38,19.5-33.1,48.47-71.47,50.84-111.13,1.78-29.92-19.44-63.29-52.18-61.71-23.9,1.15-38.15,17.42-46.89,37.12-7.63-14.64-18.9-26.87-35.41-32.8-26.76-9.6-55.82,1.92-64.29,30-9.72,32.19,11.68,65.76,28.61,91.53C157.51,267.83,169.84,284.81,184,299.72ZM171.84,151.06c24.06,6.62,31.41,34.51,34.87,56,1.85,11.55,21,11.3,23.09,0,3.66-19.92,8-49.26,30.75-56.23,25-7.66,34.34,24.72,30.61,43.11-4.41,21.8-17.91,41.82-28.73,60.88q-8.81,15.51-17.87,30.85c-1.87,3.17-16.52,23.75-15.43,26a9,9,0,0,0-7.88-5.32c-29.06-34.71-63.14-67.47-78.52-111.22C134.9,172.86,142.24,142.91,171.84,151.06Z"/><path class="cls-3" d="M372.2,232.57c11.92,1,19.45-9.36,26-18.07q3.79-5.07,7.22-10.39c2.47,28.87,4.11,57.82,3.13,86.8-.54,16.16,24.68,16.17,25.12,0,1.14-41.74-4-82.87-9.43-124.16-1.24-9.38-15.7-17.15-20.8-5.64a279.92,279.92,0,0,1-36.19,59.41C363.38,225.42,365.75,232.06,372.2,232.57Z"/></svg>