<svg id="Layer_1" data-name="Layer 1" xmlns="http://www.w3.org/2000/svg" viewBox="0 0 600 600"><defs><style>.cls-1{fill:#662d91;}.cls-2{fill:#fff200;}.cls-3{fill:#be1e2d;}.cls-4{fill:#fff;}.cls-5{fill:#f2b879;}.cls-6{fill:#231f20;}</style></defs><title>doodle</title><path class="cls-1" d="M184.88,175.69c-11.34,14-19.52,30.76-25.56,47.66a207.08,207.08,0,0,0-8.55,106.92,20.44,20.44,0,0,1,1.68-1.54c.31-.25.64-.49,1-.73A163.15,163.15,0,0,1,156,272.7c3.82-17.63,10.23-35.55,20.23-50.66,16.65-25.14,44.89-35.63,72.74-43.35,16.28-4.52,32.64-8.55,49.53-9.83A185.84,185.84,0,0,1,348.79,172c15.8,3.16,32.83,7.82,45.88,17.67,12.29,9.28,21.43,22.48,30,35.1a135.63,135.63,0,0,1,20,44.57c3.81,15.78,5.28,32,6.69,48.14l.38.18C455,296,457.88,273.9,454.7,252a141.36,141.36,0,0,0-20.88-55.81,139.59,139.59,0,0,0-84-59.56c-19.59-4.77-40-4.83-59.88-2.44a395.19,395.19,0,0,0-60.67,12.7c-8.92,2.53-17.56,5.78-25.32,10.94A86.66,86.66,0,0,0,184.88,175.69Z"/><path class="cls-2" d="M445.73,205a147,147,0,0,1,9.2,22.05,40.64,40.64,0,0,0,2.4-3.33,35.58,35.58,0,0,0,3.29-6.91A36.63,36.63,0,0,0,462.54,202c-.77-10.35-5.87-20-12.11-28.12s-14.09-15.72-23.56-20a33.53,33.53,0,0,0-14.92-3,25.22,25.22,0,0,0-11.17,2.76A144,144,0,0,1,445.73,205Z"/><path class="cls-2" d="M157.57,330.92a17.28,17.28,0,0,0-4.68,4.5,32.68,32.68,0,0,0-5,11,82.26,82.26,0,0,0-3.1,25.44c.38,8.33,2.71,16.67,8.14,23.14a28.5,28.5,0,0,0,8.15,6.76,21.3,21.3,0,0,0,4.51,1.85c1,.3,2.12.42,3.13.7-4.26-24.55-7.82-49.44-8.7-74.36A9.08,9.08,0,0,0,157.57,330.92Z"/><path class="cls-3" d="M423.93,147.27c8.69,2.46,16.25,7.89,22.64,14.14a79.54,79.54,0,0,1,16.63,22.77c3.79,8.15,5.81,17.1,4.65,26.09a42.64,42.64,0,0,1-3.92,13c-1.68,3.46-3.94,7.55-7.16,9.83.3,1.09.59,2.18.86,3.27a3,3,0,0,1,1.65,1.21c20.63,29.67,38.59,62.57,43.39,98.73,10.77-17.76,20.95-36.43,23.44-57.29.35-2.89,3.86-4.17,5.6-1.52a217.18,217.18,0,0,1,24.66,51.37c5.19-15.79,6-32.73,5.75-49.29-.26-18,.13-37.91-9.26-54-1-1.78.25-4.72,2.56-4.46a79.66,79.66,0,0,1,30.7,10c-3-8.88-6.3-17.67-10-26.28-15.73-36.21-39.4-70.54-73.91-91-2.23-1.32-1.47-4.24.67-5.11Q515,103.84,527.1,99c-8.48-3.37-18-3.64-27.05-3.12-19.34,1.1-38.24,7-55.24,16.24a142,142,0,0,0-24.17,16.4c-6.05,5.13-11.57,11.06-14.93,18.24,1.09-.26,2.16-.44,3.16-.58A36.85,36.85,0,0,1,423.93,147.27Z"/><path class="cls-2" d="M142.85,181.82a55.82,55.82,0,0,0,5.36,63.32,209,209,0,0,1,12.56-37.8c7.27-16.43,16.63-32.59,29.7-45.09a84.37,84.37,0,0,1,7-6c-9.09-6.12-19.81-2.23-28.86,2.28C158,163.86,148.86,171.47,142.85,181.82Z"/><path class="cls-3" d="M42,214.59A195,195,0,0,0,20.87,271.7c-3.48,17.42-5.18,36-1.14,53.45a141.28,141.28,0,0,1,27.44-41.61c1.57-1.65,5.12-.5,4.82,2a175,175,0,0,0,24.4,111.56,163.47,163.47,0,0,1,9-44.61,2.76,2.76,0,0,1,5.4.74C92.6,373.08,105,389.41,118.07,404a197.53,197.53,0,0,1-4.39-26.71c-4.19-44.34,6.56-90.72,31.12-128a60.45,60.45,0,0,1,6-84.79,73.42,73.42,0,0,1,20-12.38,88.24,88.24,0,0,0-18.75-5.43A154.52,154.52,0,0,0,128.6,145c-14.72-.11-29.5,1.46-43.46,6.37a103.25,103.25,0,0,0-31,17.74c-16.62,13.69-29.51,31.57-38.38,51.13q11.28-5.52,23.07-9.9C41.23,209.47,43.15,212.57,42,214.59Z"/><path class="cls-4" d="M231.55,380.57a4.15,4.15,0,0,0-1.26.24c-3.87,1.3-3.9,8.08-.19,9.73l.31.12a8,8,0,0,0,4-4.28c.05-.17.09-.34.13-.51,0-.48.07-1,.08-1.46A7,7,0,0,0,231.55,380.57Z"/><path class="cls-2" d="M238.19,192.56c47.94-18,105.37-18.63,149.61,9.64,10.74,6.85,20.45,15.46,27.59,26.07,7.72,11.46,11.91,24.86,15.68,38q7,24.42,12.13,49.34a8.91,8.91,0,0,1,2.76.08c-1.59-17-3.35-34.13-8-50.63-4.85-17.22-13.69-32-24.09-46.41-8.95-12.42-18.66-24.25-32.69-31.1-14.59-7.12-31.44-10.91-47.49-12.85a181.23,181.23,0,0,0-47.85.52c-15.46,2.27-30.8,6.3-45.78,10.7-13.43,3.94-26.75,9-38.45,16.79-12.19,8.1-21.17,19.24-27.75,32.22-14.21,28-19.31,59.95-17,91.12a11.62,11.62,0,0,1,3.06-.84c0-1.34-.06-2.68-.07-4-.26-27.93,3-58.38,16.46-83.33C189,214.34,214,201.65,238.19,192.56Z"/><path class="cls-1" d="M431.51,291.15c-3.38-13.6-6.86-27.34-11.71-40.5-4.55-12.34-11.22-23.36-20.89-32.35-9.21-8.57-20.21-15.14-31.67-20.21C321,177.66,266,184.41,221.59,206.49,210,212.27,198.32,219,189.75,228.93c-8.31,9.67-13.32,21.8-16.76,33.95-7.89,27.8-8.19,57.07-5.69,85.67a703.11,703.11,0,0,0,13.2,85.13,550.72,550.72,0,0,0,18.63,67.1l.09-19.7c0-3.34,4.73-3.84,5.69-.77a100.4,100.4,0,0,0,22.83,38.76c-.15-.32-.3-.64-.44-1A175.59,175.59,0,0,1,219.63,498c-8.44-26.59-13.49-54.53-16.14-82.28a373.89,373.89,0,0,1-1.72-42.59c.13-7.11.46-14.21,1.07-21.29.31-3.55.67-7.09,1.12-10.63.17-1.37.32-2.69.56-4a86.41,86.41,0,0,1-7-43.49c.27-2.59,4.2-2.71,4.13,0a93.69,93.69,0,0,0,11.52,48.16,169.46,169.46,0,0,1,9.41-31.09c.69-1.7,3.57-2.78,4.51-.59,17.47,40.71,61.06,57.25,100.38,70.15a140.7,140.7,0,0,1-3.53-67.54c.48-2.52,3.84-2.46,5.06-.67a98,98,0,0,0,49.32,37.42l-2.67-25.47c-.29-2.74,4.07-3.86,5.23-1.41,3.94,8.29,12.35,12.7,19.1,18.41a58.91,58.91,0,0,1,15.84,22.21c8.45,19.94,7.27,41.92,5.93,63.06a2.81,2.81,0,0,1-.53,1.5,159.49,159.49,0,0,1-3.72,21.79,54.41,54.41,0,0,0,8.86-10.32,2.76,2.76,0,0,1,5.1,1.38,216.33,216.33,0,0,1-4.61,64q2-2.76,3.86-5.68C445,476.23,449.85,449,450,422.33c.16-29.56-4.06-59.4-9.31-88.43Q436.79,312.38,431.51,291.15Z"/><path class="cls-5" d="M393.11,342.77A121,121,0,0,1,382.29,334l2.1,19.58c.2,1.86-2,3.22-3.6,2.74a104.07,104.07,0,0,1-52.56-35.84,135.52,135.52,0,0,0,6.5,63.63,2.9,2.9,0,0,1-3.55,3.55c-40.36-13.05-86.32-29.36-106.07-69.79a165.08,165.08,0,0,0-7.73,32.71c-.36,2.62-4,2.44-5.16.67-1.52-2.25-2.92-4.58-4.23-7v0c-.25,3.75-.49,7.5-.65,11.25-.32,7.52-.51,15-.43,22.56q.19,20.37,2.4,40.6c5,16.17,21.18,23.27,36.68,25.88,16.49,2.76,33.51,3.4,50.19,3.86s33.45.33,50.16.21c15.44-.11,31.84.17,46.27-6.13a47.43,47.43,0,0,0,15.11-10.35c4.32-4.46,6.41-9.51,8.92-14.94,1-17.91,1-36.34-6.47-52.91A55.79,55.79,0,0,0,393.11,342.77Zm-176.25,25a1.48,1.48,0,0,1-2.5-1c-.06-5.23,6.35-12,11.42-12.74,1.92-.28,4.05,2.11,2.16,3.71s-4.27,2.67-6.13,4.45S218.7,366.09,216.86,367.73Zm22.67,45.94a4.73,4.73,0,0,1-5.78,3.43,5.05,5.05,0,0,1-3.57-6.13,2.17,2.17,0,0,1,2-1.53,4.45,4.45,0,0,1,4.28-1.45A4.52,4.52,0,0,1,239.53,413.67Zm1.1-26a10.67,10.67,0,0,1-14.3,9.57,10.88,10.88,0,0,1-2.1-1.06,8.55,8.55,0,0,1-5.07-5.41,10,10,0,0,1-.46-3.08,13.85,13.85,0,0,1,.21-6.56c1.4-4.9,6.14-8.4,10.64-7a8.83,8.83,0,0,1,3.46.62,8.46,8.46,0,0,1,5.66,3.34,2.81,2.81,0,0,1,1,1.27c.14.38.27.78.38,1.19a10.93,10.93,0,0,1,.56,5A12.55,12.55,0,0,1,240.63,387.71Zm80.95,22.56a12.52,12.52,0,0,1-10.5,5.35A14.25,14.25,0,0,1,297.59,398a1.19,1.19,0,0,1,2.28,0c1.25,6,4.3,13.19,11.68,12.68,7.87-.55,6.43-8.57,8.91-13.68.82-1.7,3.47-1.17,3.92.51C325.44,401.43,323.87,406.94,321.58,410.27ZM388.41,348c2.22-.22,4.62,1.15,6.39,2.35,2,1.33,4.37,2.77,4.6,5.31a2,2,0,0,1-2,2c-2.32-.19-3.74-2.26-5.37-3.73s-3.47-2.81-4.34-4.7A.8.8,0,0,1,388.41,348Zm3.19,63.36a3.94,3.94,0,0,1-5.7-2,2.8,2.8,0,0,1-.25-.41,4,4,0,0,1,.86-4.87,4.27,4.27,0,0,1,6.64,1.2A4.83,4.83,0,0,1,391.6,411.31Zm4.5-25.4c-4.16,3.52-10.78,3.87-14.77-.1a10.31,10.31,0,0,1-1.11-13.52l.21-.26a9.24,9.24,0,0,1,4.41-4.68,10.71,10.71,0,0,1,13.65,4A11.63,11.63,0,0,1,396.1,385.91Z"/><path class="cls-4" d="M388.81,374.39A7,7,0,0,0,387.5,380a4.67,4.67,0,0,0,5.33-1.63C394.9,375.52,391.5,371.44,388.81,374.39Z"/><path class="cls-2" d="M451.22,323c-2.3-1-4.68-1.67-7-2.48q3.45,17.4,6,34.95c1.61,11.14,3.12,22.73,4.17,34.51,6.33-2.27,9.75-9.42,12-15.39a51.73,51.73,0,0,0,3.53-24.07,36.64,36.64,0,0,0-8.84-20.21,30.77,30.77,0,0,0-5.79-5.08A3.31,3.31,0,0,1,451.22,323Z"/><path class="cls-6" d="M11.4,229a241.48,241.48,0,0,1,22-10.36,199,199,0,0,0-18.23,52.72c-4,20.75-5.66,43.07,1.42,63.35a2.87,2.87,0,0,0,5.49,0,134.33,134.33,0,0,1,23.53-40.87A179.84,179.84,0,0,0,76.48,407.49c1.51,2.2,5.19,1.5,5.2-1.4a157.33,157.33,0,0,1,5.66-41.57c5.6,20.06,20.26,36.49,34.33,51.58,1.91,2,5.45-.08,4.67-2.72-12.61-42.62-9.87-89.15,7-130.22a192.75,192.75,0,0,1,12.23-24.43,196.61,196.61,0,0,0-.21,61.82c.71,4.45,1.54,8.89,2.49,13.29a37.23,37.23,0,0,0-3.45,6.66c-3.79,9.42-5.35,20.62-5,30.74.28,9.68,2.91,19.23,9,26.87a33.43,33.43,0,0,0,9.86,8.4c3.06,1.68,7.72,3.89,11.33,2.89,0,.3.1.61.16.91,5.2,29.29,12,58.4,21.64,86.57q3.61,10.58,7.74,20.94c1.17,2.93,5.81,2.78,5.81-.79q0-10.48,0-21a106.61,106.61,0,0,0,31.17,38.12,26.94,26.94,0,0,0,2.39,2.7,2.37,2.37,0,0,0,4-.84,3,3,0,0,0-.46-4.51l-1.19-.87c-2.43-4.49-5.36-8.77-7.59-13.39a155.9,155.9,0,0,1-7.21-18,344.94,344.94,0,0,1-10-38.36Q213,446.52,211,432c5.6,7.43,14.47,12.54,23.28,15.35,8.22,2.62,16.87,3.67,25.4,4.62,8.95,1,17.93,1.62,26.91,2.06,18.42.92,36.86.95,55.29.84,16.82-.1,34.52.51,50.51-5.56a54.6,54.6,0,0,0,19.1-12,47.06,47.06,0,0,0,4.06-4.59A177.81,177.81,0,0,1,410,456.16c-.68,2.21,2,4.42,4,3.09a60.21,60.21,0,0,0,12.35-11,210.7,210.7,0,0,1-7.87,66.85c-.74,2.59,2.7,4.69,4.6,2.67,30.94-32.92,35-78.47,31.67-122.2,8-1.95,12.7-9.75,15.72-16.9,3.8-9,5.81-18.95,4.65-28.75a42,42,0,0,0-9.76-22.6,34.43,34.43,0,0,0-8.18-6.88c3.13-20.56,6.14-41.39,4.18-62.21-.26-2.83-.62-5.63-1.05-8.43,19,28.85,34.81,60.75,37.23,95.65a3,3,0,0,0,5.6,1.52c11.53-18.74,23-38.05,27.56-59.68a209.64,209.64,0,0,1,22.32,51.8c.65,2.33,4.49,3.24,5.6.73,8.41-19,9.87-39.73,9.56-60.22-.25-17.21-.29-35.77-7.54-51.71A73.23,73.23,0,0,1,590,240.68c2.1,1.52,5.06-1,4.33-3.33-12.69-40-31.38-79.17-62.56-108.12A166.19,166.19,0,0,0,509.73,112q12.57-4.94,25.14-9.94c2.23-.89,3-3.87.68-5.26-9-5.5-19.58-6.92-29.95-6.81a122.92,122.92,0,0,0-30.86,4.41,145.27,145.27,0,0,0-55.07,29.48c-7.81,6.59-15,14.37-18.19,24.2a15.28,15.28,0,0,0-4.61,2.81,146.68,146.68,0,0,0-32.23-16c-40.29-14.08-83.12-7.15-123.4,3.19-9.62,2.47-19.29,5-28.4,9a74.76,74.76,0,0,0-12.57,7.12c-4.92-7.26-15.08-6.69-22.62-4.55-.66.18-1.32.38-2,.59-10.4-8.35-25.49-9.76-38.36-10.47-16.12-.89-32.6-.21-48.22,4.17-24.81,7-45.68,23.58-61,43.92A160.6,160.6,0,0,0,7.14,225.7C6.15,228.21,9.37,230.06,11.4,229ZM165.58,403.57a21.3,21.3,0,0,1-4.51-1.85,28.5,28.5,0,0,1-8.15-6.76c-5.43-6.47-7.76-14.81-8.14-23.14a82.26,82.26,0,0,1,3.1-25.44,32.68,32.68,0,0,1,5-11,17.28,17.28,0,0,1,4.68-4.5,9.08,9.08,0,0,1,2.44-1c.88,24.92,4.44,49.81,8.7,74.36C167.7,404,166.62,403.87,165.58,403.57Zm-5.77-82.35c0,1.33,0,2.67.07,4a11.62,11.62,0,0,0-3.06.84c-2.27-31.17,2.83-63.09,17-91.12,6.58-13,15.56-24.12,27.75-32.22,11.7-7.79,25-12.85,38.45-16.79,15-4.4,30.32-8.43,45.78-10.7a181.23,181.23,0,0,1,47.85-.52c16.05,1.94,32.9,5.73,47.49,12.85,14,6.85,23.74,18.68,32.69,31.1,10.4,14.4,19.24,29.19,24.09,46.41,4.65,16.5,6.41,33.61,8,50.63a8.91,8.91,0,0,0-2.76-.08q-5.13-24.88-12.13-49.34c-3.77-13.16-8-26.56-15.68-38-7.14-10.61-16.85-19.22-27.59-26.07-44.24-28.27-101.67-27.66-149.61-9.64C214,201.65,189,214.34,176.27,237.89,162.77,262.84,159.55,293.29,159.81,321.22Zm256.83,96.06c-2.51,5.43-4.6,10.48-8.92,14.94a47.43,47.43,0,0,1-15.11,10.35c-14.43,6.3-30.83,6-46.27,6.13-16.71.12-33.44.25-50.16-.21s-33.7-1.1-50.19-3.86c-15.5-2.61-31.7-9.71-36.68-25.88q-2.19-20.22-2.4-40.6c-.08-7.53.11-15,.43-22.56.16-3.75.4-7.5.65-11.25v0c1.31,2.39,2.71,4.72,4.23,7,1.18,1.77,4.8,1.95,5.16-.67a165.08,165.08,0,0,1,7.73-32.71c19.75,40.43,65.71,56.74,106.07,69.79a2.9,2.9,0,0,0,3.55-3.55,135.52,135.52,0,0,1-6.5-63.63,104.07,104.07,0,0,0,52.56,35.84c1.63.48,3.8-.88,3.6-2.74L382.29,334a121,121,0,0,0,10.82,8.76,55.79,55.79,0,0,1,17.06,21.6C417.61,380.94,417.61,399.37,416.64,417.28Zm14,81.82q-1.83,2.92-3.86,5.68a216.33,216.33,0,0,0,4.61-64,2.76,2.76,0,0,0-5.1-1.38,54.41,54.41,0,0,1-8.86,10.32,159.49,159.49,0,0,0,3.72-21.79,2.81,2.81,0,0,0,.53-1.5c1.34-21.14,2.52-43.12-5.93-63.06a58.91,58.91,0,0,0-15.84-22.21c-6.75-5.71-15.16-10.12-19.1-18.41-1.16-2.45-5.52-1.33-5.23,1.41l2.67,25.47A98,98,0,0,1,329,312.16c-1.22-1.79-4.58-1.85-5.06.67a140.7,140.7,0,0,0,3.53,67.54c-39.32-12.9-82.91-29.44-100.38-70.15-.94-2.19-3.82-1.11-4.51.59a169.46,169.46,0,0,0-9.41,31.09,93.69,93.69,0,0,1-11.52-48.16c.07-2.71-3.86-2.59-4.13,0a86.41,86.41,0,0,0,7,43.49c-.24,1.29-.39,2.61-.56,4-.45,3.54-.81,7.08-1.12,10.63-.61,7.08-.94,14.18-1.07,21.29a373.89,373.89,0,0,0,1.72,42.59c2.65,27.75,7.7,55.69,16.14,82.28a175.59,175.59,0,0,0,7.67,20.11c.14.32.29.64.44,1a100.4,100.4,0,0,1-22.83-38.76c-1-3.07-5.67-2.57-5.69.77l-.09,19.7a550.72,550.72,0,0,1-18.63-67.1,703.11,703.11,0,0,1-13.2-85.13c-2.5-28.6-2.2-57.87,5.69-85.67,3.44-12.15,8.45-24.28,16.76-33.95,8.57-10,20.21-16.66,31.84-22.44,44.36-22.08,99.4-28.83,145.65-8.4,11.46,5.07,22.46,11.64,31.67,20.21,9.67,9,16.34,20,20.89,32.35,4.85,13.16,8.33,26.9,11.71,40.5q5.28,21.21,9.18,42.75c5.25,29,9.47,58.87,9.31,88.43C449.85,449,445,476.23,430.67,499.1Zm30.4-168.8a36.64,36.64,0,0,1,8.84,20.21,51.73,51.73,0,0,1-3.53,24.07c-2.29,6-5.71,13.12-12,15.39-1-11.78-2.56-23.37-4.17-34.51q-2.52-17.55-6-34.95c2.35.81,4.73,1.48,7,2.48a3.31,3.31,0,0,0,4.06,2.23A30.77,30.77,0,0,1,461.07,330.3ZM420.64,128.52a142,142,0,0,1,24.17-16.4c17-9.2,35.9-15.14,55.24-16.24,9.08-.52,18.57-.25,27.05,3.12q-12.14,4.84-24.25,9.73c-2.14.87-2.9,3.79-.67,5.11,34.51,20.49,58.18,54.82,73.91,91,3.73,8.61,7,17.4,10,26.28a79.66,79.66,0,0,0-30.7-10c-2.31-.26-3.6,2.68-2.56,4.46,9.39,16.06,9,35.93,9.26,54,.23,16.56-.56,33.5-5.75,49.29a217.18,217.18,0,0,0-24.66-51.37c-1.74-2.65-5.25-1.37-5.6,1.52-2.49,20.86-12.67,39.53-23.44,57.29-4.8-36.16-22.76-69.06-43.39-98.73a3,3,0,0,0-1.65-1.21c-.27-1.09-.56-2.18-.86-3.27,3.22-2.28,5.48-6.37,7.16-9.83a42.64,42.64,0,0,0,3.92-13c1.16-9-.86-17.94-4.65-26.09a79.54,79.54,0,0,0-16.63-22.77c-6.39-6.25-13.95-11.68-22.64-14.14a36.85,36.85,0,0,0-15.06-1.09c-1,.14-2.07.32-3.16.58C409.07,139.58,414.59,133.65,420.64,128.52ZM404.5,152a29,29,0,0,1,7.45-1.22,33.53,33.53,0,0,1,14.92,3c9.47,4.28,17.27,11.85,23.56,20S461.77,191.6,462.54,202a36.63,36.63,0,0,1-1.92,14.84,35.58,35.58,0,0,1-3.29,6.91,40.64,40.64,0,0,1-2.4,3.33,147,147,0,0,0-9.2-22.05,144,144,0,0,0-45-51.43A28.83,28.83,0,0,1,404.5,152ZM204,157.87c7.76-5.16,16.4-8.41,25.32-10.94A395.19,395.19,0,0,1,290,134.23c19.93-2.39,40.29-2.33,59.88,2.44a139.59,139.59,0,0,1,84,59.56A141.36,141.36,0,0,1,454.7,252c3.18,21.86.34,43.91-2.93,65.6l-.38-.18c-1.41-16.13-2.88-32.36-6.69-48.14a135.63,135.63,0,0,0-20-44.57c-8.56-12.62-17.7-25.82-30-35.1-13.05-9.85-30.08-14.51-45.88-17.67a185.84,185.84,0,0,0-50.31-3.12c-16.89,1.28-33.25,5.31-49.53,9.83-27.85,7.72-56.09,18.21-72.74,43.35-10,15.11-16.41,33-20.23,50.66a163.15,163.15,0,0,0-2.56,55.3c-.33.24-.66.48-1,.73a20.44,20.44,0,0,0-1.68,1.54,207.08,207.08,0,0,1,8.55-106.92c6-16.9,14.22-33.65,25.56-47.66A86.66,86.66,0,0,1,204,157.87Zm-6.52-1.59a84.37,84.37,0,0,0-7,6c-13.07,12.5-22.43,28.66-29.7,45.09a209,209,0,0,0-12.56,37.8,55.82,55.82,0,0,1-5.36-63.32c6-10.35,15.11-18,25.75-23.26C177.65,154.05,188.37,150.16,197.46,156.28ZM54.09,169.15a103.25,103.25,0,0,1,31.05-17.74c14-4.91,28.74-6.48,43.46-6.37a154.52,154.52,0,0,1,23.45,1.58,88.24,88.24,0,0,1,18.75,5.43,73.42,73.42,0,0,0-20,12.38,60.45,60.45,0,0,0-6,84.79c-24.56,37.3-35.31,83.68-31.12,128A197.53,197.53,0,0,0,118.07,404C105,389.41,92.6,373.08,90.74,353.22a2.76,2.76,0,0,0-5.4-.74,163.47,163.47,0,0,0-9,44.61A175,175,0,0,1,52,285.53c.3-2.49-3.25-3.64-4.82-2a141.28,141.28,0,0,0-27.44,41.61c-4-17.45-2.34-36,1.14-53.45A195,195,0,0,1,42,214.59c1.14-2-.78-5.12-3.23-4.21q-11.78,4.38-23.07,9.9C24.58,200.72,37.47,182.84,54.09,169.15Z"/><path class="cls-6" d="M240,380.55c-.11-.41-.24-.81-.38-1.19a2.81,2.81,0,0,0-1-1.27,8.46,8.46,0,0,0-5.66-3.34,8.83,8.83,0,0,0-3.46-.62c-4.5-1.36-9.24,2.14-10.64,7a13.85,13.85,0,0,0-.21,6.56,10,10,0,0,0,.46,3.08,8.55,8.55,0,0,0,5.07,5.41,10.88,10.88,0,0,0,2.1,1.06,10.67,10.67,0,0,0,14.3-9.57,12.55,12.55,0,0,0-.06-2.12A10.93,10.93,0,0,0,240,380.55Zm-5.5,5.32c0,.17-.08.34-.13.51a8,8,0,0,1-4,4.28l-.31-.12c-3.71-1.65-3.68-8.43.19-9.73a4.15,4.15,0,0,1,1.26-.24,7,7,0,0,1,3,3.84C234.58,384.9,234.55,385.39,234.51,385.87Z"/><path class="cls-6" d="M236.46,408a4.45,4.45,0,0,0-4.28,1.45,2.17,2.17,0,0,0-2,1.53,5.05,5.05,0,0,0,3.57,6.13,4.73,4.73,0,0,0,5.78-3.43A4.52,4.52,0,0,0,236.46,408Z"/><path class="cls-6" d="M320.46,397c-2.48,5.11-1,13.13-8.91,13.68-7.38.51-10.43-6.68-11.68-12.68a1.19,1.19,0,0,0-2.28,0,14.25,14.25,0,0,0,13.49,17.65,12.52,12.52,0,0,0,10.5-5.35c2.29-3.33,3.86-8.84,2.8-12.79C323.93,395.8,321.28,395.27,320.46,397Z"/><path class="cls-6" d="M384.84,367.35a9.24,9.24,0,0,0-4.41,4.68l-.21.26a10.31,10.31,0,0,0,1.11,13.52c4,4,10.61,3.62,14.77.1a11.63,11.63,0,0,0,2.39-14.54A10.71,10.71,0,0,0,384.84,367.35Zm8,11A4.67,4.67,0,0,1,387.5,380a7,7,0,0,1,1.31-5.62C391.5,371.44,394.9,375.52,392.83,378.38Z"/><path class="cls-6" d="M386.51,404a4,4,0,0,0-.86,4.87,2.8,2.8,0,0,0,.25.41,3.94,3.94,0,0,0,5.7,2,4.83,4.83,0,0,0,1.55-6.1A4.27,4.27,0,0,0,386.51,404Z"/><path class="cls-6" d="M392.07,353.85c1.63,1.47,3.05,3.54,5.37,3.73a2,2,0,0,0,2-2c-.23-2.54-2.63-4-4.6-5.31-1.77-1.2-4.17-2.57-6.39-2.35a.8.8,0,0,0-.68,1.2C388.6,351,390.55,352.47,392.07,353.85Z"/><path class="cls-6" d="M227.94,357.66c1.89-1.6-.24-4-2.16-3.71-5.07.76-11.48,7.51-11.42,12.74a1.48,1.48,0,0,0,2.5,1c1.84-1.64,3.14-3.9,4.95-5.62S226,359.31,227.94,357.66Z"/></svg>