<svg id="Layer_1" data-name="Layer 1" xmlns="http://www.w3.org/2000/svg" viewBox="0 0 600 600"><defs><style>.cls-1{fill:#be1e2d;}.cls-2{fill:#fff;}.cls-3{fill:#231f20;}</style></defs><title>doodle</title><path class="cls-1" d="M363.77,564.26c7.22-3.45,14.36-7.1,21.94-9.62a231.25,231.25,0,0,1,2.65-23c-2.93,4.77-6.17,9.34-9.16,13.67A145.71,145.71,0,0,1,363.77,564.26Z"/><path class="cls-1" d="M215.14,283.25c-7.56.59-15.09,1.55-22.63,2.38C179,287.11,165.22,288,152,285.1c4.38,20.26,8.08,40.66,12.53,60.9q2.77,12.64,5.51,25.3c.72-1.41,1.54-2.79,2.29-4.19,2.19-4.06,4.4-8.1,6.58-12.16q6.54-12.18,12.86-24.48Q203.79,307,215.14,283.25Z"/><path class="cls-1" d="M354.71,332.88c8.07-19.42,15.46-39.17,23.77-58.49-8.48,1.31-17,2.16-25.39,2.71-3.46.22-6.91.34-10.36.4a2.42,2.42,0,0,1-.14.56c-8.06,21.8-17.25,43.24-25.88,64.82-7.26,18.16-14,36.61-22.48,54.25-8.84,18.4-19.06,36.18-28.8,54.12-9.54,17.55-18.86,35.22-28.52,52.71-8,14.57-16.76,30-28.6,41.93,2,8.87,3.93,17.77,5.46,26.71v0a15.91,15.91,0,0,0,1.34,1.27c9.29-6.88,16.37-15,23.35-24.5,7.7-10.41,15.31-20.93,22.42-31.76,25.05-38.15,46.49-78.64,65.62-120C336.37,376.23,345.68,354.61,354.71,332.88Z"/><path class="cls-1" d="M261.59,359.61c6.72-14.34,13.18-28.8,19.56-43.29q5-11.28,9.75-22.67c2.18-5.22,4-11.09,6.72-16.23-13.34.68-26.41,3.51-39.65,4.83-1.31,6.55-5.2,13.21-7.87,19.32s-5.46,12.32-8.28,18.43q-8.82,19.14-18.58,37.83c-6.49,12.46-13.21,24.8-20.28,36.94-6.47,11.11-12.64,23.12-20.82,33.09q3.38,15.74,6.8,31.45,2.55,11.7,5.13,23.39c7.52-13.5,15.91-26.57,23.61-40C233.29,415.61,248.31,388,261.59,359.61Z"/><path class="cls-1" d="M380.7,407.43a759.76,759.76,0,0,1-50.52,96.49c-9.61,15.39-19.62,30.49-30.5,45-5.08,6.77-10.3,13.42-15.74,19.91a117.68,117.68,0,0,1-12.75,13.5c9.41-.47,18.77-1.66,28.18-3l3.54-.49c10.71-9.23,18.3-22.21,26.34-33.68,8.56-12.19,16.92-24.52,24.93-37.07s15.63-25.31,22.79-38.35q5.58-10.14,10.73-20.5c2.69-5.46,4.85-11.94,8.3-17.11.72-18.44,1.3-36.89,2.11-55.33q.25-6.07.56-12.17c-2,5.38-4.42,10.66-6.52,15.81Q386.6,394,380.7,407.43Z"/><path class="cls-2" d="M129.24,255.7c.77,11.26,7.48,22.38,19,24.83l.14.05a2,2,0,0,1,2.58.66c16.57,3.07,33.44.68,50.13-1.42a229.82,229.82,0,0,1,26.07-2.14c8.83-.1,17.68.45,26.51-.08s17.64-2.51,26.46-3.89a190.05,190.05,0,0,1,25.09-2.07c17.76-.4,35.49.37,53.2-1.4s34.79-6.09,52.08-10.48a3.05,3.05,0,0,1,3.3,1c13-1.53,24.78-8.74,27.88-22.68a30.53,30.53,0,0,0-4.28-23.39c-5.13-7.58-14.34-12.7-23.06-7.66-2.27,1.32-5.41-1.43-3.78-3.78,6-8.6,8.79-20.45,11-30.55,2.17-9.85,2.92-20.45-.87-30-3.18-8-9.8-15.43-18.69-16.68-7.85-1.11-15.84,2.27-19.19,9.66-1.3,2.88-5.43,1.19-5.55-1.51-.86-19.14,5-43.73-9.49-59.35a26.91,26.91,0,0,0-26.12-7.48c-9.09,2.38-15.66,9.64-19,18.2,0,0,0,0,0,.08a4,4,0,0,1-.17.36l0,.06c-1.38,2.29-5.32,2.74-5.94-.53-1.71-9-2.54-18-5.38-26.78a72.58,72.58,0,0,0-12.4-23.42C289.33,23.7,275.5,15,260.38,13.63c-17.23-1.58-32.83,6.19-44,18.93-20.23,23-24.83,55.82-15,84.29,1.37,4-4.81,5.57-6.21,1.71-5.56-15.32-27.19-8.18-36.87-1.8-10.58,7-18.36,17.88-22.49,29.78-4.91,14.12-5.19,29.55-2.59,44.16,2.35,13.21,7.17,26.1,16.93,35.62a3.13,3.13,0,0,1-2.19,5.29C135.22,231.5,128.46,244.3,129.24,255.7Zm262.33-82.86a1.23,1.23,0,0,1,0,2.1c-4.66,3.6-2,8.05,2.38,10.17,2.8,1.34,5.1,1.41,5.91-1.93.49-2-.21-6.64-3.37-5a2.11,2.11,0,0,1-2.87-2.87c3.35-5.86,10.72-1.72,11.79,3.61s-1.77,12.9-8.11,12.74c-5.63-.14-12.74-5-13.54-10.76C383.15,176.49,386.53,170.33,391.57,172.84Zm-7.48,63a1.57,1.57,0,0,1,1.9.25,17,17,0,0,1,1.79,3.27c.63,1.21,1.53,2.13,3,2,3.54-.41,4.54-5.65,1.52-7.34-1.07-.6-.12-2.13.95-1.62,2.57,1.2,5,3.62,5.08,6.57a7.64,7.64,0,0,1-5.12,7.22,8.16,8.16,0,0,1-9-2.23C382.22,241.63,381.2,237.74,384.09,235.8Zm-48.83-69.55a1.07,1.07,0,0,1,.54,2c-8.57,3.64-2.11,16.14,5.77,14.4,2.43-.54,10.48-6.77,4-8.22-2.74-.62-3.9,2.84-6.34,3.18a1.58,1.58,0,0,1-1.65-.67c-1.9-2.71,1-5.61,3.33-6.83a8.41,8.41,0,0,1,8.54.4c6.76,4.58,2.89,12.14-2.77,15.32-6.7,3.77-14.66,1-18.09-5.9C325.72,174.12,328.63,167.08,335.26,166.25Zm-36.4-50.65c1.84-4,6.65-6.24,10.76-4.4a1.51,1.51,0,0,1-.36,2.73c-2.1.35-4.3,1-5.55,2.91a4.13,4.13,0,0,0,1,5.47,3.46,3.46,0,0,0,5.25-1.41c.79-1.85-1-3.18-1.1-5a2.08,2.08,0,0,1,1.53-2c5.34-1,6,6.68,4,10-2.35,3.89-7.69,5.57-11.68,3.21A9.24,9.24,0,0,1,298.86,115.6Zm-4.16,127c.49-4.21,2.88-8.6,6.62-10.77,3.24-1.89,7.45-1.7,9.4,1.72a1.6,1.6,0,0,1-1.37,2.39c-2.64-.08-5-.22-6.89,2a9.57,9.57,0,0,0-2,8.3c1.38,5.4,7.08,6.55,11.27,3.66a13.36,13.36,0,0,0,5.64-10.23c.11-2.36-.41-5.1-2.13-6.84-2-2.06-4.39-1.64-6.91-1.91a1,1,0,0,1-.86-1.5c1.83-2.83,5.39-3,8.34-1.66,4,1.73,6.18,5.72,6.72,9.87,1,8.17-4.3,17.06-12.4,19.27C301.23,259.33,293.72,251.21,294.7,242.61Zm-10.8-46.29c2.66,3.21,3.2,8.22.51,11.59-2.48,3.11-7.33,4.13-10.49,1.39-2.66-2.3-3.89-7.37,0-9a1.83,1.83,0,0,1,2.25,1.27c.36,1.32-.19,3.09,1,4,1.46,1.14,3.52-.12,4.25-1.5a5.47,5.47,0,0,0-1.4-6.39c-2.07-1.8-4.5-1-6.77-.1-1.16.45-1.9-1.42-.84-2C276.39,193.49,280.66,192.42,283.9,196.32ZM239.4,64.82c2.11-4.86,5.89-9.79,10.87-11.93,5.48-2.36,12.56-.69,17.46,2.36,11.08,6.9,12.72,21,8.14,32.34-2.34,5.76-6,9.3-12.39,9.62-5.08.25-10.3-2.24-10.54-7.82-.12-2.93,4-3.21,4.89-.66,1.11,3.33,4.87,3.4,7.67,2.39s3.64-3.07,4.66-5.51a26,26,0,0,0,2.13-11.93c-.63-8.11-5.65-14.54-13.75-16.15-9.24-1.85-15.6,8-16.46,16.14-.81,7.68,2.78,14.81,8,20.22a1,1,0,0,1-1.23,1.59C238,89.43,234.59,75.91,239.4,64.82Zm-8,96.34c8,.24,13.66,8,12.51,15.75s-9.22,13.52-16.88,10.2c-5.87-2.53-9.72-12.79-3-16.62a2.21,2.21,0,0,1,3.2,2.46c-.93,3.72-2,8.23,3.12,9.39,4.76,1.08,8.36-3.28,8.45-7.66.09-4.6-3.3-9.11-8.06-9.47-3.79-.29-10.94,3.71-10.55,8.2.1,1.14-1.81,1.39-2,.27C217.16,166.94,225.2,161,231.42,161.16Zm-48,75.08c-1.06,1.26-3-.38-2.23-1.72,2.9-4.81,9.44-5.45,12.82-.73,3.79,5.28-.14,12.3-4.41,16-4.51,3.87-11.89,3.32-15.24-1.87-3-4.71-1.63-11.74,4.13-13.15a1.47,1.47,0,0,1,1.64,2.14c-1.19,2-2.55,5.22-1.44,7.43a4.79,4.79,0,0,0,6.8,1.68,14.88,14.88,0,0,0,5.22-6.29C192.69,234.72,186.33,232.75,183.39,236.24ZM165.5,133.63a10.33,10.33,0,0,1,11.36,17.11c-4.15,3.32-11.3,1.74-12.6-3.81a1.68,1.68,0,0,1,2.43-1.87c2.76,1.4,5.33,4.83,8.22,1.36a6.06,6.06,0,0,0-8.46-8.54c-2.41,1.83-2.83,4.86-2.74,7.69a1.24,1.24,0,0,1-2.3.62C158.68,141.8,161.14,135.89,165.5,133.63Z"/><path class="cls-3" d="M124.34,254.89c1,11.42,8,26,20.23,28.19q1.35.45,2.7.84c6.64,37.77,14.65,75.37,22.27,113q11.53,56.82,24.24,113.41c4.76,21.21,8.8,42.84,14.83,63.73a2.47,2.47,0,0,0,1.51,1.75,13.85,13.85,0,0,0,1.24,1.42c-.18,1.1.62,2.35,1.94,1.86l.19-.08c7.14,5.21,18.85,6.39,26.29,7.65a171.56,171.56,0,0,0,52.32.57c16.75-2.25,33.94-3.84,50.42-7.68a121.26,121.26,0,0,0,22.55-8c8-3.65,16.66-7.17,24-12a3.05,3.05,0,0,0,.76-4.27c2.78-8.49,3.95-17.38,5.16-26.23q1.89-13.89,3.2-27.84c1.75-19,2.81-38,3.61-57.07,1.6-38.44,1.88-76.94,4.82-115.32.83-10.85,1.85-21.68,3.15-32.48,1.15-9.55,2.87-19,4.15-28.54,17.65.93,33.74-14.68,35.49-32.22,1-10.33-2.42-21.42-10-28.67a25.1,25.1,0,0,0-20-7.08c5.32-9.6,8.38-20.69,10.05-31.38,1.83-11.69.85-24.14-5.67-34.32-5.25-8.19-13.67-14.09-23.62-14.25a25.92,25.92,0,0,0-16.8,5.75c.55-21.15,3.18-45.93-16.26-59.18-14.39-9.8-34.57-5.69-44.14,7.76-1.32-14.21-7.45-28.91-15.46-39.92C297.92,21.1,283.79,10.81,267.7,7.53,231.24.1,202.29,30.4,193.09,63a91.21,91.21,0,0,0-1.78,42.32c-14.29-6.87-36.72,4.7-46.73,15.4C126.51,140,123,167.91,127.48,193.07c2.15,12.13,6.48,24.05,14.4,33.49C130.25,230.31,123.28,242.32,124.34,254.89Zm47.95,112.22c-.75,1.4-1.57,2.78-2.29,4.19q-2.75-12.65-5.51-25.3c-4.45-20.24-8.15-40.64-12.53-60.9,13.26,2.88,27.06,2,40.55.53,7.54-.83,15.07-1.79,22.63-2.38Q203.77,307,191.73,330.47q-6.31,12.3-12.86,24.48C176.69,359,174.48,363.05,172.29,367.11Zm16.65,92.2q-3.44-15.72-6.8-31.45c8.18-10,14.35-22,20.82-33.09,7.07-12.14,13.79-24.48,20.28-36.94s12.7-25.07,18.58-37.83q4.23-9.17,8.28-18.43c2.67-6.11,6.56-12.77,7.87-19.32,13.24-1.32,26.31-4.15,39.65-4.83-2.73,5.14-4.54,11-6.72,16.23q-4.77,11.39-9.75,22.67c-6.38,14.49-12.84,28.95-19.56,43.29-13.28,28.35-28.3,56-43.91,83.13-7.7,13.39-16.09,26.46-23.61,40Q191.49,471,188.94,459.31Zm71.94,58.34c-7.11,10.83-14.72,21.35-22.42,31.76-7,9.45-14.06,17.62-23.35,24.5a15.91,15.91,0,0,1-1.34-1.27v0c-1.53-8.94-3.44-17.84-5.46-26.71,11.84-12,20.55-27.36,28.6-41.93,9.66-17.49,19-35.16,28.52-52.71,9.74-17.94,20-35.72,28.8-54.12,8.48-17.64,15.22-36.09,22.48-54.25,8.63-21.58,17.82-43,25.88-64.82a2.42,2.42,0,0,0,.14-.56c3.45-.06,6.9-.18,10.36-.4,8.37-.55,16.91-1.4,25.39-2.71-8.31,19.32-15.7,39.07-23.77,58.49-9,21.73-18.34,43.35-28.21,64.72C307.37,439,285.93,479.5,260.88,517.65Zm124.83,37c-7.58,2.52-14.72,6.17-21.94,9.62a145.71,145.71,0,0,0,15.43-18.93c3-4.33,6.23-8.9,9.16-13.67A231.25,231.25,0,0,0,385.71,554.64Zm12.4-177.81c-.81,18.44-1.39,36.89-2.11,55.33-3.45,5.17-5.61,11.65-8.3,17.11q-5.13,10.37-10.73,20.5-10.74,19.56-22.79,38.35c-8,12.55-16.37,24.88-24.93,37.07-8,11.47-15.63,24.45-26.34,33.68l-3.54.49c-9.41,1.33-18.77,2.52-28.18,3a117.68,117.68,0,0,0,12.75-13.5c5.44-6.49,10.66-13.14,15.74-19.91,10.88-14.53,20.89-29.63,30.5-45a759.76,759.76,0,0,0,50.52-96.49q5.9-13.4,11.45-27c2.1-5.15,4.48-10.43,6.52-15.81Q398.37,370.75,398.11,376.83ZM147.94,231.61a3.13,3.13,0,0,0,2.19-5.29c-9.76-9.52-14.58-22.41-16.93-35.62-2.6-14.61-2.32-30,2.59-44.16,4.13-11.9,11.91-22.79,22.49-29.78,9.68-6.38,31.31-13.52,36.87,1.8,1.4,3.86,7.58,2.24,6.21-1.71-9.86-28.47-5.26-61.32,15-84.29,11.22-12.74,26.82-20.51,44-18.93C275.5,15,289.33,23.7,298.8,35.32a72.58,72.58,0,0,1,12.4,23.42c2.84,8.76,3.67,17.79,5.38,26.78.62,3.27,4.56,2.82,5.94.53l0-.06a4,4,0,0,0,.17-.36s0,0,0-.08c3.29-8.56,9.86-15.82,19-18.2a26.91,26.91,0,0,1,26.12,7.48c14.53,15.62,8.63,40.21,9.49,59.35.12,2.7,4.25,4.39,5.55,1.51,3.35-7.39,11.34-10.77,19.19-9.66,8.89,1.25,15.51,8.67,18.69,16.68,3.79,9.56,3,20.16.87,30-2.23,10.1-5.06,21.95-11,30.55-1.63,2.35,1.51,5.1,3.78,3.78,8.72-5,17.93.08,23.06,7.66a30.53,30.53,0,0,1,4.28,23.39c-3.1,13.94-14.86,21.15-27.88,22.68a3.05,3.05,0,0,0-3.3-1c-17.29,4.39-34.26,8.7-52.08,10.48s-35.44,1-53.2,1.4a190.05,190.05,0,0,0-25.09,2.07c-8.82,1.38-17.52,3.37-26.46,3.89s-17.68,0-26.51.08a229.82,229.82,0,0,0-26.07,2.14c-16.69,2.1-33.56,4.49-50.13,1.42a2,2,0,0,0-2.58-.66l-.14-.05c-11.57-2.45-18.28-13.57-19-24.83S135.22,231.5,147.94,231.61Z"/><path class="cls-3" d="M248.82,95.48a1,1,0,0,0,1.23-1.59c-5.19-5.41-8.78-12.54-8-20.22.86-8.16,7.22-18,16.46-16.14,8.1,1.61,13.12,8,13.75,16.15a26,26,0,0,1-2.13,11.93c-1,2.44-2,4.55-4.66,5.51s-6.56.94-7.67-2.39c-.85-2.55-5-2.27-4.89.66.24,5.58,5.46,8.07,10.54,7.82,6.41-.32,10-3.86,12.39-9.62,4.58-11.31,2.94-25.44-8.14-32.34-4.9-3-12-4.72-17.46-2.36-5,2.14-8.76,7.07-10.87,11.93C234.59,75.91,238,89.43,248.82,95.48Z"/><path class="cls-3" d="M220.23,173.41c-.39-4.49,6.76-8.49,10.55-8.2,4.76.36,8.15,4.87,8.06,9.47-.09,4.38-3.69,8.74-8.45,7.66-5.15-1.16-4-5.67-3.12-9.39a2.21,2.21,0,0,0-3.2-2.46c-6.74,3.83-2.89,14.09,3,16.62,7.66,3.32,15.71-2.38,16.88-10.2s-4.47-15.51-12.51-15.75c-6.22-.19-14.26,5.78-13.18,12.52C218.42,174.8,220.33,174.55,220.23,173.41Z"/><path class="cls-3" d="M163.71,145.57c-.09-2.83.33-5.86,2.74-7.69a6.06,6.06,0,0,1,8.46,8.54c-2.89,3.47-5.46,0-8.22-1.36a1.68,1.68,0,0,0-2.43,1.87c1.3,5.55,8.45,7.13,12.6,3.81a10.33,10.33,0,0,0-11.36-17.11c-4.36,2.26-6.82,8.17-4.09,12.56A1.24,1.24,0,0,0,163.71,145.57Z"/><path class="cls-3" d="M185.46,246a4.79,4.79,0,0,1-6.8-1.68c-1.11-2.21.25-5.47,1.44-7.43a1.47,1.47,0,0,0-1.64-2.14c-5.76,1.41-7.17,8.44-4.13,13.15,3.35,5.19,10.73,5.74,15.24,1.87,4.27-3.68,8.2-10.7,4.41-16-3.38-4.72-9.92-4.08-12.82.73-.81,1.34,1.17,3,2.23,1.72,2.94-3.49,9.3-1.52,7.29,3.47A14.88,14.88,0,0,1,185.46,246Z"/><path class="cls-3" d="M273.26,197.6c2.27-.89,4.7-1.7,6.77.1a5.47,5.47,0,0,1,1.4,6.39c-.73,1.38-2.79,2.64-4.25,1.5-1.2-.94-.65-2.71-1-4a1.83,1.83,0,0,0-2.25-1.27c-3.89,1.64-2.66,6.71,0,9,3.16,2.74,8,1.72,10.49-1.39,2.69-3.37,2.15-8.38-.51-11.59-3.24-3.9-7.51-2.83-11.48-.71C271.36,196.18,272.1,198.05,273.26,197.6Z"/><path class="cls-3" d="M302.67,127.1c4,2.36,9.33.68,11.68-3.21,2-3.31,1.33-11-4-10a2.08,2.08,0,0,0-1.53,2c.14,1.81,1.89,3.14,1.1,5a3.46,3.46,0,0,1-5.25,1.41,4.13,4.13,0,0,1-1-5.47c1.25-1.89,3.45-2.56,5.55-2.91a1.51,1.51,0,0,0,.36-2.73c-4.11-1.84-8.92.37-10.76,4.4A9.24,9.24,0,0,0,302.67,127.1Z"/><path class="cls-3" d="M346.71,185.82c5.66-3.18,9.53-10.74,2.77-15.32a8.41,8.41,0,0,0-8.54-.4c-2.35,1.22-5.23,4.12-3.33,6.83a1.58,1.58,0,0,0,1.65.67c2.44-.34,3.6-3.8,6.34-3.18,6.45,1.45-1.6,7.68-4,8.22-7.88,1.74-14.34-10.76-5.77-14.4a1.07,1.07,0,0,0-.54-2c-6.63.83-9.54,7.87-6.64,13.67C332.05,186.78,340,189.59,346.71,185.82Z"/><path class="cls-3" d="M310.08,256.91c8.1-2.21,13.45-11.1,12.4-19.27-.54-4.15-2.76-8.14-6.72-9.87-2.95-1.29-6.51-1.17-8.34,1.66a1,1,0,0,0,.86,1.5c2.52.27,4.88-.15,6.91,1.91,1.72,1.74,2.24,4.48,2.13,6.84a13.36,13.36,0,0,1-5.64,10.23c-4.19,2.89-9.89,1.74-11.27-3.66a9.57,9.57,0,0,1,2-8.3c1.94-2.22,4.25-2.08,6.89-2a1.6,1.6,0,0,0,1.37-2.39c-2-3.42-6.16-3.61-9.4-1.72-3.74,2.17-6.13,6.56-6.62,10.77C293.72,251.21,301.23,259.33,310.08,256.91Z"/><path class="cls-3" d="M397.3,191.67c6.34.16,9.18-7.47,8.11-12.74s-8.44-9.47-11.79-3.61a2.11,2.11,0,0,0,2.87,2.87c3.16-1.65,3.86,3,3.37,5-.81,3.34-3.11,3.27-5.91,1.93-4.4-2.12-7-6.57-2.38-10.17a1.23,1.23,0,0,0,0-2.1c-5-2.51-8.42,3.65-7.81,8.07C384.56,186.71,391.67,191.53,397.3,191.67Z"/><path class="cls-3" d="M393.2,246.1a7.64,7.64,0,0,0,5.12-7.22c-.12-2.95-2.51-5.37-5.08-6.57-1.07-.51-2,1-.95,1.62,3,1.69,2,6.93-1.52,7.34-1.46.18-2.36-.74-3-2a17,17,0,0,0-1.79-3.27,1.57,1.57,0,0,0-1.9-.25c-2.89,1.94-1.87,5.83.09,8.07A8.16,8.16,0,0,0,393.2,246.1Z"/></svg>