<svg id="Layer_1" data-name="Layer 1" xmlns="http://www.w3.org/2000/svg" viewBox="0 0 600 600"><defs><style>.cls-1{fill:#009444;}.cls-2{fill:#fff200;}.cls-3{fill:#8dc63f;}.cls-4{fill:#231f20;}</style></defs><title>doodle</title><path class="cls-1" d="M426.6,481.74c-20.17,14.38-43.38,15.5-67.35,15.2-38.77-.49-80.68-1.86-114.4-22,.52,7.1,0,14.46,0,21.3,0,9,.29,18.87-1.85,27.82,12.28,10.51,31.11,11.87,46.62,13.5a251.41,251.41,0,0,0,48.53.3c33.56-3,69.31-13.15,97.4-32.19,32.47-22,55.59-57,74.81-90.54,13.75-24,23-48.72,30.33-74.41-15.23,33.74-37.36,65.2-61.91,91.91C462.83,450,445.83,468,426.6,481.74Z"/><path class="cls-2" d="M211.26,284.12c.2,8.55-3.95,16.43-6.67,24.34-3,8.82-5.2,17.92-7.57,26.94-3.94,15-7.62,30.09-12.08,44.94,11.87-11.14,22.82-23.65,35.11-34.25,10.53-9.1,26-27.46,40.75-29.08,9.45-1,19.52,4.95,27.91,8.49q13.49,5.7,26.78,11.8c14.13,6.52,28.05,13.46,41.81,20.71q-4.74-20.85-9.41-41.72l-7.29-32.84c-1.44-6.47-4-13.59-3.62-20.32.76-15.29,18-20.35,29.43-26q15.34-7.59,30.69-15.15c-31.7-3.95-63.42-7.83-95.17-11.31-3.68-.4-7-2.25-8-6.1q-10.76-40.26-21.16-80.62c-15.85,30.07-29.52,60.92-43.92,91.82-7.63,16.38-19.37,16.81-36.31,19.1-12.64,1.72-25.33,3.18-38,4.68,10.72,5.26,21.06,11.34,31.52,17.17C197.66,263.19,210.91,269,211.26,284.12Z"/><path class="cls-1" d="M228.83,496.24c0-5.57-.35-11.48-.21-17.32-11.59,10.21-27.33,18.33-39.73,25.63-16,9.43-32.7,17.87-50.17,24.19-27.34,9.89-61.87,15.49-91.28,8.06,3.74,6.06,7.51,12.11,11.51,18,3.5,5.17,6.49,11.31,10,16.71,13.19-.87,26.5,2.45,39.74,2.75a221.52,221.52,0,0,0,48.14-4,205.81,205.81,0,0,0,48.12-15.75c6.58-3.12,13.3-6.47,19.17-10.83,3.71-2.76,6.67-6.12,10-9.12a16.39,16.39,0,0,1-1.8-5.22C228.38,519.12,228.82,507,228.83,496.24Z"/><path class="cls-1" d="M106.21,418.11c-30.87-21.73-52.71-51.46-65.84-84.75,7.81,40.83,26,78.56,59.94,107.53A188.15,188.15,0,0,1,106.21,418.11Z"/><path class="cls-3" d="M114.28,409.1c4.58-.93,9.54,1.36,9,7.38-2.3,25.59-10,55.91-27.13,75.61-13,14.91-26.9,26.7-43.69,35.08,12,.68,24,.88,36-.88,17.77-2.61,35.44-9,51.87-16.09,16.87-7.27,32.78-16.52,48.17-26.49,12.62-8.18,17.7-11.27,33.22-22.51,7.93-5.31,12.65-13.84,18.62-10.21,40.82,24.81,91.07,27.34,137.71,25.22,27.83-1.26,44.81-17.07,63.82-35.56,17.95-17.46,35.24-36,49.89-56.32,25.75-35.79,44.37-78,46.25-122.49,2-48.14-17.55-86-46.82-122.74-14.26-17.9-28.52-36.26-47.12-49.92C425.93,75.82,405.28,66,384.51,57.4,339.58,38.77,295.7,27.81,246.86,35.29c-86,13.18-164.08,65.44-195.45,148.58C20.73,265.16,45.75,355.67,114.28,409.1ZM132.36,229c18.62-3.19,37.19-6.79,55.82-9.95,10.33-1.75,20.12-1.48,26.24-11.15,3.61-5.69,5.36-13.28,8-19.52a881.69,881.69,0,0,1,45.77-92c3.64-6.41,13.9-5.09,15.75,2.06q12.49,48.18,24.66,96.45C348,199.71,387.5,204,427,208.32c7.7.85,12.87,11.92,4.38,16.18-15.26,7.66-30.58,15.19-45.9,22.71-7.66,3.76-15.37,7.45-23,11.29-8.45,4.25-7.66,8.78-5.72,17.59,7.06,31.94,14.14,63.87,21,95.87,1.51,7.08-5.74,13.32-12.39,9.52q-24.85-14.19-50.49-26.9-11-5.43-22.12-10.57c-8-3.67-19.15-11.21-27.92-12.05-8.45-.81-17.11,7.75-23.34,12.34-7.91,5.84-15.64,12-23.3,18.11-13.15,10.55-28.27,21-38.92,34.13-3,3.67-7.77-.45-7.13-4.15,5.39-31.29,16.61-61.44,21.23-92.84,1.77-12,2.22-17.84-8.5-24.39-6.27-3.83-12.71-7.43-19.07-11.14-11.64-6.81-23-13.56-33.35-22C126.49,241,125.67,230.15,132.36,229Z"/><path class="cls-4" d="M49.85,150.47A228.58,228.58,0,0,0,25.67,261.91C17.86,332.32,37.1,406.29,94.18,452.62A6.67,6.67,0,0,0,97.26,454c-2.59,9.84-6.13,19.31-12.82,27.78-11.76,14.89-27.5,35.7-45.42,44.46l-5.71,2.45c-4.53,3.46-.34,7.75.56,9.47a273.75,273.75,0,0,0,14.7,24.5c4,6,5.68,10.79,15.6,15.86,12.13,8.28,27.66,9.36,42.08,10.47a212.59,212.59,0,0,0,57.23-3.59,216.65,216.65,0,0,0,52.15-17.37c10.13-4.87,24.89-12.3,31-23.17a94.81,94.81,0,0,0,17.94,5.52,255.37,255.37,0,0,0,56.73,6.1c40.28-.14,79.43-10.17,113.37-32,36.95-23.78,60.71-59.35,82.52-96.72,21.7-37.18,29.07-60,37.46-125.72,4.66-49.92,10.12-94.22-16.92-139.27-25.44-42.38-60.44-84.46-104.07-108.58C389.07,29.59,335.73,8.36,284.26,8.76,187.8,9.5,93.83,63.87,49.85,150.47ZM40.37,333.36c13.13,33.29,35,63,65.84,84.75a188.15,188.15,0,0,0-5.9,22.78C66.37,411.92,48.18,374.19,40.37,333.36ZM224.09,543.67c-5.87,4.36-12.59,7.71-19.17,10.83a205.81,205.81,0,0,1-48.12,15.75,221.52,221.52,0,0,1-48.14,4c-13.24-.3-26.55-3.62-39.74-2.75-3.48-5.4-6.47-11.54-10-16.71-4-5.89-7.77-11.94-11.51-18,29.41,7.43,63.94,1.83,91.28-8.06,17.47-6.32,34.18-14.76,50.17-24.19,12.4-7.3,28.14-15.42,39.73-25.63-.14,5.84.22,11.75.21,17.32,0,10.79-.45,22.88,3.43,33.09a16.39,16.39,0,0,0,1.8,5.22C230.76,537.55,227.8,540.91,224.09,543.67ZM510.34,415.13c-19.22,33.57-42.34,68.53-74.81,90.54-28.09,19-63.84,29.18-97.4,32.19a251.41,251.41,0,0,1-48.53-.3c-15.51-1.63-34.34-3-46.62-13.5,2.14-8.95,1.87-18.83,1.85-27.82,0-6.84.54-14.2,0-21.3,33.72,20.14,75.63,21.51,114.4,22,24,.3,47.18-.82,67.35-15.2C445.83,468,462.83,450,478.76,432.63c24.55-26.71,46.68-58.17,61.91-91.91C533.35,366.41,524.09,391.11,510.34,415.13ZM246.86,35.29c48.84-7.48,92.72,3.48,137.65,22.11,20.77,8.61,41.42,18.42,59.6,31.78,18.6,13.66,32.86,32,47.12,49.92,29.27,36.72,48.86,74.6,46.82,122.74-1.88,44.52-20.5,86.7-46.25,122.49-14.65,20.36-31.94,38.86-49.89,56.32-19,18.49-36,34.3-63.82,35.56-46.64,2.12-96.89-.41-137.71-25.22-6-3.63-10.69,4.9-18.62,10.21-15.52,11.24-20.6,14.33-33.22,22.51-15.39,10-31.3,19.22-48.17,26.49-16.43,7.08-34.1,13.48-51.87,16.09-12,1.76-24,1.56-36,.88,16.79-8.38,30.69-20.17,43.69-35.08,17.17-19.7,24.83-50,27.13-75.61.54-6-4.42-8.31-9-7.38C45.75,355.67,20.73,265.16,51.41,183.87,82.78,100.73,160.86,48.47,246.86,35.29Z"/><path class="cls-4" d="M132.42,242c10.4,8.47,21.71,15.22,33.35,22,6.36,3.71,12.8,7.31,19.07,11.14,10.72,6.55,10.27,12.37,8.5,24.39-4.62,31.4-15.84,61.55-21.23,92.84-.64,3.7,4.15,7.82,7.13,4.15C189.89,383.42,205,373,218.16,362.41c7.66-6.15,15.39-12.27,23.3-18.11,6.23-4.59,14.89-13.15,23.34-12.34,8.77.84,19.94,8.38,27.92,12.05q11.13,5.13,22.12,10.57,25.67,12.66,50.49,26.9c6.65,3.8,13.9-2.44,12.39-9.52-6.83-32-13.91-63.93-21-95.87-1.94-8.81-2.73-13.34,5.72-17.59,7.62-3.84,15.33-7.53,23-11.29,15.32-7.52,30.64-15.05,45.9-22.71,8.49-4.26,3.32-15.33-4.38-16.18-39.48-4.34-79-8.61-118.38-13.47q-12.14-48.27-24.66-96.45c-1.85-7.15-12.11-8.47-15.75-2.06a881.69,881.69,0,0,0-45.77,92c-2.64,6.24-4.39,13.83-8,19.52-6.12,9.67-15.91,9.4-26.24,11.15-18.63,3.16-37.2,6.76-55.82,9.95C125.67,230.15,126.49,241,132.42,242Zm60.11-7.13c16.94-2.29,28.68-2.72,36.31-19.1,14.4-30.9,28.07-61.75,43.92-91.82q10.46,40.35,21.16,80.62c1,3.85,4.33,5.7,8,6.1C333.68,214.14,365.4,218,397.1,222q-15.36,7.54-30.69,15.15c-11.45,5.66-28.67,10.72-29.43,26-.34,6.73,2.18,13.85,3.62,20.32l7.29,32.84q4.64,20.88,9.41,41.72c-13.76-7.25-27.68-14.19-41.81-20.71q-13.29-6.12-26.78-11.8C280.32,322,270.25,316,260.8,317c-14.74,1.62-30.22,20-40.75,29.08-12.29,10.6-23.24,23.11-35.11,34.25,4.46-14.85,8.14-30,12.08-44.94,2.37-9,4.55-18.12,7.57-26.94,2.72-7.91,6.87-15.79,6.67-24.34-.35-15.14-13.6-20.93-25.22-27.41-10.46-5.83-20.8-11.91-31.52-17.17C167.2,238,179.89,236.58,192.53,234.86Z"/></svg>